<?xml version="1.0" encoding="UTF-8" standalone="no"?>
<!DOCTYPE svg PUBLIC "-//W3C//DTD SVG 1.1//EN"
 "http://www.w3.org/Graphics/SVG/1.1/DTD/svg11.dtd">
<!-- Generated by graphviz version 2.40.1 (20161225.0304)
 -->
<!-- Title: alpha_plus_net_1585280321.624773 Pages: 1 -->
<svg width="761pt" height="936pt"
 viewBox="0.00 0.00 761.00 936.00" xmlns="http://www.w3.org/2000/svg" xmlns:xlink="http://www.w3.org/1999/xlink">
<g id="graph0" class="graph" transform="scale(1 1) rotate(0) translate(4 932)">
<title>alpha_plus_net_1585280321.624773</title>
<!-- 140633490414728 -->
<g id="node1" class="node">
<title>140633490414728</title>
<polygon fill="none" stroke="#000000" points="197,-46 24,-46 24,-10 197,-10 197,-46"/>
<text text-anchor="middle" x="110.5" y="-24.3" font-family="Times,serif" font-size="14.00" fill="#000000">AccountDataBean:hashCode</text>
</g>
<!-- 140633490412432 -->
<g id="node21" class="node">
<title>140633490412432</title>
<ellipse fill="none" stroke="#000000" cx="335.5" cy="-56" rx="27" ry="27"/>
<text text-anchor="middle" x="335.5" y="-52.3" font-family="Times,serif" font-size="14.00" fill="#000000">({&#39;AccountDataBean:hashCode&#39;}, {&#39;TradeAction:logout&#39;})</text>
</g>
<!-- 140633490414728&#45;&gt;140633490412432 -->
<g id="edge5" class="edge">
<title>140633490414728&#45;&gt;140633490412432</title>
<path fill="none" stroke="#000000" d="M197.169,-38.7855C232.4058,-43.1705 271.2167,-48.0003 298.7374,-51.4251"/>
<polygon fill="#000000" stroke="#000000" points="298.3455,-54.9032 308.7012,-52.665 299.21,-47.9568 298.3455,-54.9032"/>
</g>
<!-- 140633492118440 -->
<g id="node2" class="node">
<title>140633492118440</title>
<polygon fill="none" stroke="#000000" points="187.5,-100 33.5,-100 33.5,-64 187.5,-64 187.5,-100"/>
<text text-anchor="middle" x="110.5" y="-78.3" font-family="Times,serif" font-size="14.00" fill="#000000">AccountDataBean:logout</text>
</g>
<!-- 140633493954912 -->
<g id="node3" class="node">
<title>140633493954912</title>
<polygon fill="none" stroke="#000000" points="219.5,-154 1.5,-154 1.5,-118 219.5,-118 219.5,-154"/>
<text text-anchor="middle" x="110.5" y="-132.3" font-family="Times,serif" font-size="14.00" fill="#000000">AccountProfileDataBean:getAccount</text>
</g>
<!-- 140633490415456 -->
<g id="node4" class="node">
<title>140633490415456</title>
<polygon fill="none" stroke="#000000" points="172,-208 49,-208 49,-172 172,-172 172,-208"/>
<text text-anchor="middle" x="110.5" y="-186.3" font-family="Times,serif" font-size="14.00" fill="#000000">Log:doActionTrace</text>
</g>
<!-- 140633492115640 -->
<g id="node5" class="node">
<title>140633492115640</title>
<polygon fill="none" stroke="#000000" points="153.5,-262 67.5,-262 67.5,-226 153.5,-226 153.5,-262"/>
<text text-anchor="middle" x="110.5" y="-240.3" font-family="Times,serif" font-size="14.00" fill="#000000">Log:doTrace</text>
</g>
<!-- 140633493958272 -->
<g id="node6" class="node">
<title>140633493958272</title>
<polygon fill="none" stroke="#000000" points="414,-325 257,-325 257,-289 414,-289 414,-325"/>
<text text-anchor="middle" x="335.5" y="-303.3" font-family="Times,serif" font-size="14.00" fill="#000000">OrdersAlertFilter:doFilter</text>
</g>
<!-- 140633490412712 -->
<g id="node22" class="node">
<title>140633490412712</title>
<ellipse fill="none" stroke="#000000" cx="511.5" cy="-307" rx="27" ry="27"/>
<text text-anchor="middle" x="511.5" y="-303.3" font-family="Times,serif" font-size="14.00" fill="#000000">({&#39;OrdersAlertFilter:doFilter&#39;}, {&#39;Root&#39;})</text>
</g>
<!-- 140633493958272&#45;&gt;140633490412712 -->
<g id="edge6" class="edge">
<title>140633493958272&#45;&gt;140633490412712</title>
<path fill="none" stroke="#000000" d="M414.234,-307C435.0017,-307 456.4654,-307 473.9294,-307"/>
<polygon fill="#000000" stroke="#000000" points="474.2444,-310.5001 484.2443,-307 474.2443,-303.5001 474.2444,-310.5001"/>
</g>
<!-- 140633490414504 -->
<g id="node7" class="node">
<title>140633490414504</title>
<polygon fill="none" stroke="#000000" points="663,-325 609,-325 609,-289 663,-289 663,-325"/>
<text text-anchor="middle" x="636" y="-303.3" font-family="Times,serif" font-size="14.00" fill="#000000">Root</text>
</g>
<!-- 140633490414112 -->
<g id="node24" class="node">
<title>140633490414112</title>
<ellipse fill="#ffa500" stroke="#000000" cx="726" cy="-307" rx="27" ry="27"/>
</g>
<!-- 140633490414504&#45;&gt;140633490414112 -->
<g id="edge7" class="edge">
<title>140633490414504&#45;&gt;140633490414112</title>
<path fill="none" stroke="#000000" d="M663.003,-307C671.0277,-307 679.9665,-307 688.5309,-307"/>
<polygon fill="#000000" stroke="#000000" points="688.7051,-310.5001 698.705,-307 688.705,-303.5001 688.7051,-310.5001"/>
</g>
<!-- 140633492115528 -->
<g id="node8" class="node">
<title>140633492115528</title>
<polygon fill="none" stroke="#000000" points="573,-70 450,-70 450,-34 573,-34 573,-70"/>
<text text-anchor="middle" x="511.5" y="-48.3" font-family="Times,serif" font-size="14.00" fill="#000000">TradeAction:logout</text>
</g>
<!-- 140633490412600 -->
<g id="node23" class="node">
<title>140633490412600</title>
<ellipse fill="none" stroke="#000000" cx="636" cy="-27" rx="27" ry="27"/>
<text text-anchor="middle" x="636" y="-23.3" font-family="Times,serif" font-size="14.00" fill="#000000">({&#39;TradeAction:logout&#39;}, {&#39;AccountDataBean:hashCode&#39;})</text>
</g>
<!-- 140633492115528&#45;&gt;140633490412600 -->
<g id="edge8" class="edge">
<title>140633492115528&#45;&gt;140633490412600</title>
<path fill="none" stroke="#000000" d="M573.0205,-39.6465C581.9801,-37.8474 590.9599,-36.0442 599.2172,-34.3861"/>
<polygon fill="#000000" stroke="#000000" points="600.1191,-37.775 609.2343,-32.3746 598.7409,-30.912 600.1191,-37.775"/>
</g>
<!-- 140633493955136 -->
<g id="node9" class="node">
<title>140633493955136</title>
<polygon fill="none" stroke="#000000" points="202.5,-388 18.5,-388 18.5,-352 202.5,-352 202.5,-388"/>
<text text-anchor="middle" x="110.5" y="-366.3" font-family="Times,serif" font-size="14.00" fill="#000000">TradeAppServlet:performTask</text>
</g>
<!-- 140633490414560 -->
<g id="node10" class="node">
<title>140633490414560</title>
<polygon fill="none" stroke="#000000" points="197,-442 24,-442 24,-406 197,-406 197,-442"/>
<text text-anchor="middle" x="110.5" y="-420.3" font-family="Times,serif" font-size="14.00" fill="#000000">TradeConfig:getActionTrace</text>
</g>
<!-- 140633490415400 -->
<g id="node11" class="node">
<title>140633490415400</title>
<polygon fill="none" stroke="#000000" points="216.5,-496 4.5,-496 4.5,-460 216.5,-460 216.5,-496"/>
<text text-anchor="middle" x="110.5" y="-474.3" font-family="Times,serif" font-size="14.00" fill="#000000">TradeConfig:getDisplayOrderAlerts</text>
</g>
<!-- 140633492118944 -->
<g id="node12" class="node">
<title>140633492118944</title>
<polygon fill="none" stroke="#000000" points="176.5,-550 44.5,-550 44.5,-514 176.5,-514 176.5,-550"/>
<text text-anchor="middle" x="110.5" y="-528.3" font-family="Times,serif" font-size="14.00" fill="#000000">TradeConfig:getPage</text>
</g>
<!-- 140633493958216 -->
<g id="node13" class="node">
<title>140633493958216</title>
<polygon fill="none" stroke="#000000" points="179,-604 42,-604 42,-568 179,-568 179,-604"/>
<text text-anchor="middle" x="110.5" y="-582.3" font-family="Times,serif" font-size="14.00" fill="#000000">TradeConfig:getTrace</text>
</g>
<!-- 140633492115584 -->
<g id="node14" class="node">
<title>140633492115584</title>
<polygon fill="none" stroke="#000000" points="221,-658 0,-658 0,-622 221,-622 221,-658"/>
<text text-anchor="middle" x="110.5" y="-636.3" font-family="Times,serif" font-size="14.00" fill="#000000">TradeConfig:useRemoteEJBInterface</text>
</g>
<!-- 140633492119056 -->
<g id="node15" class="node">
<title>140633492119056</title>
<polygon fill="none" stroke="#000000" points="183.5,-712 37.5,-712 37.5,-676 183.5,-676 183.5,-712"/>
<text text-anchor="middle" x="110.5" y="-690.3" font-family="Times,serif" font-size="14.00" fill="#000000">TradeSLSBBean:logout</text>
</g>
<!-- 140633490414280 -->
<g id="node16" class="node">
<title>140633490414280</title>
<polygon fill="none" stroke="#000000" points="200,-766 21,-766 21,-730 200,-730 200,-766"/>
<text text-anchor="middle" x="110.5" y="-744.3" font-family="Times,serif" font-size="14.00" fill="#000000">TradeServletAction:doLogout</text>
</g>
<!-- 140633490415064 -->
<g id="node17" class="node">
<title>140633490415064</title>
<polygon fill="none" stroke="#000000" points="181.5,-820 39.5,-820 39.5,-784 181.5,-784 181.5,-820"/>
<text text-anchor="middle" x="110.5" y="-798.3" font-family="Times,serif" font-size="14.00" fill="#000000">new AccountDataBean</text>
</g>
<!-- 140633492115752 -->
<g id="node18" class="node">
<title>140633492115752</title>
<polygon fill="none" stroke="#000000" points="200,-874 21,-874 21,-838 200,-838 200,-874"/>
<text text-anchor="middle" x="110.5" y="-852.3" font-family="Times,serif" font-size="14.00" fill="#000000">new AccountProfileDataBean</text>
</g>
<!-- 140633492115696 -->
<g id="node19" class="node">
<title>140633492115696</title>
<polygon fill="none" stroke="#000000" points="166,-928 55,-928 55,-892 166,-892 166,-928"/>
<text text-anchor="middle" x="110.5" y="-906.3" font-family="Times,serif" font-size="14.00" fill="#000000">new TradeAction</text>
</g>
<!-- 140633490413048 -->
<g id="node20" class="node">
<title>140633490413048</title>
<ellipse fill="#00ff00" stroke="#000000" cx="110.5" cy="-307" rx="27" ry="27"/>
<text text-anchor="middle" x="110.5" y="-303.3" font-family="Times,serif" font-size="14.00" fill="#000000">1</text>
</g>
<!-- 140633490413048&#45;&gt;140633493958272 -->
<g id="edge4" class="edge">
<title>140633490413048&#45;&gt;140633493958272</title>
<path fill="none" stroke="#000000" d="M137.6403,-307C164.5709,-307 207.333,-307 246.2237,-307"/>
<polygon fill="#000000" stroke="#000000" points="246.5429,-310.5001 256.5429,-307 246.5429,-303.5001 246.5429,-310.5001"/>
</g>
<!-- 140633490412432&#45;&gt;140633492115528 -->
<g id="edge1" class="edge">
<title>140633490412432&#45;&gt;140633492115528</title>
<path fill="none" stroke="#000000" d="M362.6143,-55.3838C383.1347,-54.9174 412.3186,-54.2541 439.419,-53.6382"/>
<polygon fill="#000000" stroke="#000000" points="439.7631,-57.1314 449.681,-53.405 439.604,-50.1332 439.7631,-57.1314"/>
</g>
<!-- 140633490412712&#45;&gt;140633490414504 -->
<g id="edge2" class="edge">
<title>140633490412712&#45;&gt;140633490414504</title>
<path fill="none" stroke="#000000" d="M538.5146,-307C556.0949,-307 579.2656,-307 598.6061,-307"/>
<polygon fill="#000000" stroke="#000000" points="598.6082,-310.5001 608.6081,-307 598.6081,-303.5001 598.6082,-310.5001"/>
</g>
<!-- 140633490412600&#45;&gt;140633490414728 -->
<g id="edge3" class="edge">
<title>140633490412600&#45;&gt;140633490414728</title>
<path fill="none" stroke="#000000" d="M608.8819,-25.6482C546.6722,-22.7335 388.8996,-16.4013 257,-20 240.9746,-20.4372 223.9741,-21.143 207.4466,-21.9589"/>
<polygon fill="#000000" stroke="#000000" points="207.0387,-18.475 197.2299,-22.4797 207.3952,-25.4659 207.0387,-18.475"/>
</g>
</g>
</svg>
