<?xml version="1.0" encoding="UTF-8" standalone="no"?>
<!DOCTYPE svg PUBLIC "-//W3C//DTD SVG 1.1//EN"
 "http://www.w3.org/Graphics/SVG/1.1/DTD/svg11.dtd">
<!-- Generated by graphviz version 2.40.1 (20161225.0304)
 -->
<!-- Title: imdf_net_1585321016.4665394 Pages: 1 -->
<svg width="787pt" height="500pt"
 viewBox="0.00 0.00 787.00 500.00" xmlns="http://www.w3.org/2000/svg" xmlns:xlink="http://www.w3.org/1999/xlink">
<g id="graph0" class="graph" transform="scale(1 1) rotate(0) translate(4 496)">
<title>imdf_net_1585321016.4665394</title>
<!-- 140531500010688 -->
<g id="node1" class="node">
<title>140531500010688</title>
<polygon fill="none" stroke="#000000" points="116,-250 0,-250 0,-214 116,-214 116,-250"/>
<text text-anchor="middle" x="58" y="-228.3" font-family="Times,serif" font-size="14.00" fill="#000000">AccountDataBean</text>
</g>
<!-- 140531500011416 -->
<g id="node19" class="node">
<title>140531500011416</title>
<ellipse fill="none" stroke="#000000" cx="179" cy="-205" rx="27" ry="27"/>
<text text-anchor="middle" x="179" y="-201.3" font-family="Times,serif" font-size="14.00" fill="#000000">p_6</text>
</g>
<!-- 140531500010688&#45;&gt;140531500011416 -->
<g id="edge3" class="edge">
<title>140531500010688&#45;&gt;140531500011416</title>
<path fill="none" stroke="#000000" d="M116.0192,-219.0536C125.0744,-217.033 134.2038,-214.9959 142.5942,-213.1236"/>
<polygon fill="#000000" stroke="#000000" points="143.4097,-216.5278 152.4074,-210.9339 141.8852,-209.6958 143.4097,-216.5278"/>
</g>
<!-- 140531500010296 -->
<g id="node2" class="node">
<title>140531500010296</title>
<polygon fill="none" stroke="#000000" points="779,-291 627,-291 627,-255 779,-255 779,-291"/>
<text text-anchor="middle" x="703" y="-269.3" font-family="Times,serif" font-size="14.00" fill="#000000">AccountProfileDataBean</text>
</g>
<!-- 140531500010296&#45;&gt;140531500011416 -->
<g id="edge1" class="edge">
<title>140531500010296&#45;&gt;140531500011416</title>
<path fill="none" stroke="#000000" d="M658.8887,-291.1369C611.1028,-309.118 532.2038,-334 461.5,-334 359,-334 359,-334 359,-334 291.624,-334 232.1423,-273.5486 201.3202,-235.4104"/>
<polygon fill="#000000" stroke="#000000" points="203.7678,-232.8616 194.8278,-227.1759 198.2708,-237.1957 203.7678,-232.8616"/>
</g>
<!-- 140531500010128 -->
<g id="node3" class="node">
<title>140531500010128</title>
<polygon fill="none" stroke="#000000" points="730,-235 676,-235 676,-199 730,-199 730,-235"/>
<text text-anchor="middle" x="703" y="-213.3" font-family="Times,serif" font-size="14.00" fill="#000000">Log</text>
</g>
<!-- 140531500010128&#45;&gt;140531500011416 -->
<g id="edge9" class="edge">
<title>140531500010128&#45;&gt;140531500011416</title>
<path fill="none" stroke="#000000" d="M675.9561,-210.6646C660.4227,-206.0252 641.2359,-198.4974 627,-187 604.5601,-168.8768 615.3734,-148.4251 591,-133 541.845,-101.8915 519.6717,-114 461.5,-114 359,-114 359,-114 359,-114 304.4618,-114 289.6655,-124.4968 242,-151 228.8295,-158.3231 215.903,-168.6782 205.2204,-178.3645"/>
<polygon fill="#000000" stroke="#000000" points="202.7766,-175.858 197.8669,-185.2466 207.5598,-180.9688 202.7766,-175.858"/>
</g>
<!-- 140531500011192 -->
<g id="node4" class="node">
<title>140531500011192</title>
<polygon fill="none" stroke="#000000" points="758,-178 648,-178 648,-142 758,-142 758,-178"/>
<text text-anchor="middle" x="703" y="-156.3" font-family="Times,serif" font-size="14.00" fill="#000000">OrdersAlertFilter</text>
</g>
<!-- 140531500011192&#45;&gt;140531500011416 -->
<g id="edge2" class="edge">
<title>140531500011192&#45;&gt;140531500011416</title>
<path fill="none" stroke="#000000" d="M659.7359,-141.8906C648.9689,-137.1987 637.5035,-132.0432 627,-127 610.6908,-119.1693 607.9067,-114.4398 591,-108 535.5964,-86.8965 520.7867,-76 461.5,-76 359,-76 359,-76 359,-76 303.5993,-76 286.2582,-85.6766 242,-119 223.3654,-133.0305 207.8096,-154.0901 196.8175,-171.8571"/>
<polygon fill="#000000" stroke="#000000" points="193.605,-170.4111 191.4933,-180.7934 199.6185,-173.994 193.605,-170.4111"/>
</g>
<!-- 140531500008000 -->
<g id="node5" class="node">
<title>140531500008000</title>
<polygon fill="none" stroke="#000000" points="488.5,-187 434.5,-187 434.5,-151 488.5,-151 488.5,-187"/>
<text text-anchor="middle" x="461.5" y="-165.3" font-family="Times,serif" font-size="14.00" fill="#000000">Root</text>
</g>
<!-- 140531501377912 -->
<g id="node21" class="node">
<title>140531501377912</title>
<ellipse fill="#ffa500" stroke="#000000" cx="564" cy="-169" rx="27" ry="27"/>
</g>
<!-- 140531500008000&#45;&gt;140531501377912 -->
<g id="edge5" class="edge">
<title>140531500008000&#45;&gt;140531501377912</title>
<path fill="none" stroke="#000000" d="M488.699,-169C500.2828,-169 513.9866,-169 526.5073,-169"/>
<polygon fill="#000000" stroke="#000000" points="526.6739,-172.5001 536.6739,-169 526.6739,-165.5001 526.6739,-172.5001"/>
</g>
<!-- 140531500011024 -->
<g id="node6" class="node">
<title>140531500011024</title>
<polygon fill="none" stroke="#000000" points="745.5,-118 660.5,-118 660.5,-82 745.5,-82 745.5,-118"/>
<text text-anchor="middle" x="703" y="-96.3" font-family="Times,serif" font-size="14.00" fill="#000000">TradeAction</text>
</g>
<!-- 140531500011024&#45;&gt;140531500011416 -->
<g id="edge4" class="edge">
<title>140531500011024&#45;&gt;140531500011416</title>
<path fill="none" stroke="#000000" d="M660.2228,-82.067C612.6014,-63.7561 532.9231,-38 461.5,-38 359,-38 359,-38 359,-38 303.5993,-38 283.4138,-44.2014 242,-81 215.5545,-104.4984 198.7443,-141.7136 189.2025,-169.2491"/>
<polygon fill="#000000" stroke="#000000" points="185.8237,-168.3193 186.0116,-178.9125 192.4707,-170.5143 185.8237,-168.3193"/>
</g>
<!-- 140531500010464 -->
<g id="node7" class="node">
<title>140531500010464</title>
<polygon fill="none" stroke="#000000" points="758,-423 648,-423 648,-387 758,-387 758,-423"/>
<text text-anchor="middle" x="703" y="-401.3" font-family="Times,serif" font-size="14.00" fill="#000000">TradeAppServlet</text>
</g>
<!-- 140531500010464&#45;&gt;140531500011416 -->
<g id="edge7" class="edge">
<title>140531500010464&#45;&gt;140531500011416</title>
<path fill="none" stroke="#000000" d="M647.8553,-406.791C598.9108,-408.2257 525.4525,-410 461.5,-410 359,-410 359,-410 359,-410 300.1501,-410 282.0816,-391.0903 242,-348 213.7399,-317.6186 196.7601,-272.4965 187.6692,-241.092"/>
<polygon fill="#000000" stroke="#000000" points="191.0313,-240.1178 184.9905,-231.4138 184.2849,-241.9851 191.0313,-240.1178"/>
</g>
<!-- 140531500009960 -->
<g id="node8" class="node">
<title>140531500009960</title>
<polygon fill="none" stroke="#000000" points="746,-52 660,-52 660,-16 746,-16 746,-52"/>
<text text-anchor="middle" x="703" y="-30.3" font-family="Times,serif" font-size="14.00" fill="#000000">TradeConfig</text>
</g>
<!-- 140531500009960&#45;&gt;140531500011416 -->
<g id="edge6" class="edge">
<title>140531500009960&#45;&gt;140531500011416</title>
<path fill="none" stroke="#000000" d="M659.631,-24.1658C611.4915,-14.1243 531.3619,0 461.5,0 359,0 359,0 359,0 303.8996,0 281.5363,-2.6212 242,-41 206.7921,-75.1772 190.9554,-131.1643 184.0475,-168.053"/>
<polygon fill="#000000" stroke="#000000" points="180.5974,-167.4644 182.3272,-177.9171 187.4933,-168.6672 180.5974,-167.4644"/>
</g>
<!-- 140531500010856 -->
<g id="node9" class="node">
<title>140531500010856</title>
<polygon fill="none" stroke="#000000" points="757,-361 649,-361 649,-325 757,-325 757,-361"/>
<text text-anchor="middle" x="703" y="-339.3" font-family="Times,serif" font-size="14.00" fill="#000000">TradeSLSBBean</text>
</g>
<!-- 140531500010856&#45;&gt;140531500011416 -->
<g id="edge8" class="edge">
<title>140531500010856&#45;&gt;140531500011416</title>
<path fill="none" stroke="#000000" d="M648.5531,-353.306C599.7524,-361.6414 526.1093,-372 461.5,-372 359,-372 359,-372 359,-372 300.561,-372 284.509,-352.101 242,-312 220.4584,-291.6787 203.8945,-262.3551 193.1693,-239.5426"/>
<polygon fill="#000000" stroke="#000000" points="196.2532,-237.8687 188.9327,-230.2097 189.8792,-240.7622 196.2532,-237.8687"/>
</g>
<!-- 140531499581512 -->
<g id="node10" class="node">
<title>140531499581512</title>
<polygon fill="none" stroke="#000000" points="501,-478 422,-478 422,-442 501,-442 501,-478"/>
<text text-anchor="middle" x="461.5" y="-456.3" font-family="Times,serif" font-size="14.00" fill="#000000">init_loop_2</text>
</g>
<!-- 140531499581624 -->
<g id="node18" class="node">
<title>140531499581624</title>
<ellipse fill="none" stroke="#000000" cx="564" cy="-245" rx="27" ry="27"/>
<text text-anchor="middle" x="564" y="-241.3" font-family="Times,serif" font-size="14.00" fill="#000000">p_5</text>
</g>
<!-- 140531499581512&#45;&gt;140531499581624 -->
<g id="edge10" class="edge">
<title>140531499581512&#45;&gt;140531499581624</title>
<path fill="none" stroke="#000000" d="M470.2391,-441.6692C487.4595,-405.5484 526.006,-324.6946 547.9358,-278.6956"/>
<polygon fill="#000000" stroke="#000000" points="551.2054,-279.9705 552.3495,-269.4376 544.8867,-276.958 551.2054,-279.9705"/>
</g>
<!-- 140531500686472 -->
<g id="node11" class="node">
<title>140531500686472</title>
<polygon fill="none" stroke="#000000" points="488.5,-261 434.5,-261 434.5,-225 488.5,-225 488.5,-261"/>
<text text-anchor="middle" x="461.5" y="-239.3" font-family="Times,serif" font-size="14.00" fill="#000000">loop_3</text>
</g>
<!-- 140531500686472&#45;&gt;140531499581624 -->
<g id="edge11" class="edge">
<title>140531500686472&#45;&gt;140531499581624</title>
<path fill="none" stroke="#000000" d="M488.699,-243.5307C500.2828,-243.7567 513.9866,-244.0241 526.5073,-244.2684"/>
<polygon fill="#000000" stroke="#000000" points="526.6075,-247.771 536.6739,-244.4668 526.7441,-240.7723 526.6075,-247.771"/>
</g>
<!-- 140531500009680 -->
<g id="node12" class="node">
<title>140531500009680</title>
<polygon fill="none" stroke="#000000" points="296,-255 242,-255 242,-219 296,-219 296,-255"/>
<text text-anchor="middle" x="269" y="-233.3" font-family="Times,serif" font-size="14.00" fill="#000000">skip_4</text>
</g>
<!-- 140531500011304 -->
<g id="node20" class="node">
<title>140531500011304</title>
<ellipse fill="none" stroke="#000000" cx="359" cy="-241" rx="27" ry="27"/>
<text text-anchor="middle" x="359" y="-237.3" font-family="Times,serif" font-size="14.00" fill="#000000">p_7</text>
</g>
<!-- 140531500009680&#45;&gt;140531500011304 -->
<g id="edge25" class="edge">
<title>140531500009680&#45;&gt;140531500011304</title>
<path fill="none" stroke="#000000" d="M296.003,-238.2001C304.1013,-238.5601 313.1306,-238.9614 321.7665,-239.3452"/>
<polygon fill="#000000" stroke="#000000" points="321.8705,-242.8532 332.0161,-239.8007 322.1814,-235.8601 321.8705,-242.8532"/>
</g>
<!-- 140531500008280 -->
<g id="node13" class="node">
<title>140531500008280</title>
<polygon fill="none" stroke="#000000" points="296,-196 242,-196 242,-160 296,-160 296,-196"/>
<text text-anchor="middle" x="269" y="-174.3" font-family="Times,serif" font-size="14.00" fill="#000000">skip_5</text>
</g>
<!-- 140531499581736 -->
<g id="node17" class="node">
<title>140531499581736</title>
<ellipse fill="none" stroke="#000000" cx="359" cy="-169" rx="27" ry="27"/>
<text text-anchor="middle" x="359" y="-165.3" font-family="Times,serif" font-size="14.00" fill="#000000">p_4</text>
</g>
<!-- 140531500008280&#45;&gt;140531499581736 -->
<g id="edge26" class="edge">
<title>140531500008280&#45;&gt;140531499581736</title>
<path fill="none" stroke="#000000" d="M296.003,-175.2997C304.1903,-174.481 313.3292,-173.5671 322.051,-172.6949"/>
<polygon fill="#000000" stroke="#000000" points="322.414,-176.1761 332.0161,-171.6984 321.7174,-169.2109 322.414,-176.1761"/>
</g>
<!-- 140531499581904 -->
<g id="node14" class="node">
<title>140531499581904</title>
<polygon fill="none" stroke="#000000" points="296,-483 242,-483 242,-447 296,-447 296,-483"/>
<text text-anchor="middle" x="269" y="-461.3" font-family="Times,serif" font-size="14.00" fill="#000000">tau_1</text>
</g>
<!-- 140531501378584 -->
<g id="node16" class="node">
<title>140531501378584</title>
<ellipse fill="none" stroke="#000000" cx="359" cy="-465" rx="27" ry="27"/>
<text text-anchor="middle" x="359" y="-461.3" font-family="Times,serif" font-size="14.00" fill="#000000">p_3</text>
</g>
<!-- 140531499581904&#45;&gt;140531501378584 -->
<g id="edge28" class="edge">
<title>140531499581904&#45;&gt;140531501378584</title>
<path fill="none" stroke="#000000" d="M296.003,-465C304.0277,-465 312.9665,-465 321.5309,-465"/>
<polygon fill="#000000" stroke="#000000" points="321.7051,-468.5001 331.705,-465 321.705,-461.5001 321.7051,-468.5001"/>
</g>
<!-- 140531501378024 -->
<g id="node15" class="node">
<title>140531501378024</title>
<ellipse fill="#00ff00" stroke="#000000" cx="179" cy="-465" rx="27" ry="27"/>
<text text-anchor="middle" x="179" y="-461.3" font-family="Times,serif" font-size="14.00" fill="#000000">1</text>
</g>
<!-- 140531501378024&#45;&gt;140531499581904 -->
<g id="edge27" class="edge">
<title>140531501378024&#45;&gt;140531499581904</title>
<path fill="none" stroke="#000000" d="M206.003,-465C214.0277,-465 222.9665,-465 231.5309,-465"/>
<polygon fill="#000000" stroke="#000000" points="231.7051,-468.5001 241.705,-465 231.705,-461.5001 231.7051,-468.5001"/>
</g>
<!-- 140531501378584&#45;&gt;140531499581512 -->
<g id="edge12" class="edge">
<title>140531501378584&#45;&gt;140531499581512</title>
<path fill="none" stroke="#000000" d="M386.199,-463.6732C394.0426,-463.2906 402.8582,-462.8606 411.6204,-462.4332"/>
<polygon fill="#000000" stroke="#000000" points="412.0028,-465.9188 421.8204,-461.9356 411.6617,-458.9271 412.0028,-465.9188"/>
</g>
<!-- 140531499581736&#45;&gt;140531500008000 -->
<g id="edge13" class="edge">
<title>140531499581736&#45;&gt;140531500008000</title>
<path fill="none" stroke="#000000" d="M386.199,-169C397.7828,-169 411.4866,-169 424.0073,-169"/>
<polygon fill="#000000" stroke="#000000" points="424.1739,-172.5001 434.1739,-169 424.1739,-165.5001 424.1739,-172.5001"/>
</g>
<!-- 140531499581624&#45;&gt;140531500010688 -->
<g id="edge16" class="edge">
<title>140531499581624&#45;&gt;140531500010688</title>
<path fill="none" stroke="#000000" d="M539.2545,-256.1275C527.7977,-260.9379 513.8943,-266.3002 501,-270 439.3283,-287.6959 423.1603,-296 359,-296 269,-296 269,-296 269,-296 210.0474,-296 145.6639,-272.8387 103.7184,-254.3827"/>
<polygon fill="#000000" stroke="#000000" points="104.8942,-251.0739 94.3381,-250.1686 102.0256,-257.4592 104.8942,-251.0739"/>
</g>
<!-- 140531499581624&#45;&gt;140531500010296 -->
<g id="edge14" class="edge">
<title>140531499581624&#45;&gt;140531500010296</title>
<path fill="none" stroke="#000000" d="M590.472,-250.3325C598.3058,-251.9105 607.342,-253.7308 616.818,-255.6396"/>
<polygon fill="#000000" stroke="#000000" points="616.3259,-259.1107 626.8202,-257.6544 617.7083,-252.2485 616.3259,-259.1107"/>
</g>
<!-- 140531499581624&#45;&gt;140531500010128 -->
<g id="edge21" class="edge">
<title>140531499581624&#45;&gt;140531500010128</title>
<path fill="none" stroke="#000000" d="M590.472,-239.6675C611.7426,-235.3828 641.8783,-229.3123 665.6109,-224.5316"/>
<polygon fill="#000000" stroke="#000000" points="666.5648,-227.9098 675.6767,-222.504 665.1825,-221.0477 666.5648,-227.9098"/>
</g>
<!-- 140531499581624&#45;&gt;140531500011192 -->
<g id="edge15" class="edge">
<title>140531499581624&#45;&gt;140531500011192</title>
<path fill="none" stroke="#000000" d="M582.7724,-225.5406C594.6374,-214.0604 610.7535,-199.8901 627,-190 631.4302,-187.3031 636.1451,-184.7646 640.9732,-182.3943"/>
<polygon fill="#000000" stroke="#000000" points="642.752,-185.4276 650.3521,-178.0459 639.8075,-179.0769 642.752,-185.4276"/>
</g>
<!-- 140531499581624&#45;&gt;140531500011024 -->
<g id="edge17" class="edge">
<title>140531499581624&#45;&gt;140531500011024</title>
<path fill="none" stroke="#000000" d="M579.6612,-222.9046C583.5189,-217.1682 587.5345,-210.9323 591,-205 609.0463,-174.1078 601.028,-157.606 627,-133 633.9752,-126.3917 642.4846,-120.9852 651.2527,-116.6033"/>
<polygon fill="#000000" stroke="#000000" points="652.7956,-119.7464 660.4302,-112.4004 649.8809,-113.382 652.7956,-119.7464"/>
</g>
<!-- 140531499581624&#45;&gt;140531500010464 -->
<g id="edge19" class="edge">
<title>140531499581624&#45;&gt;140531500010464</title>
<path fill="none" stroke="#000000" d="M571.4514,-271.1032C580.5351,-298.8047 598.3257,-342.3196 627,-370 631.5953,-374.436 636.854,-378.3807 642.4127,-381.8719"/>
<polygon fill="#000000" stroke="#000000" points="640.926,-385.054 651.3424,-386.9904 644.4071,-378.9809 640.926,-385.054"/>
</g>
<!-- 140531499581624&#45;&gt;140531500009960 -->
<g id="edge18" class="edge">
<title>140531499581624&#45;&gt;140531500009960</title>
<path fill="none" stroke="#000000" d="M580.4947,-223.3378C584.3365,-217.5931 588.136,-211.2449 591,-205 616.3497,-149.7264 588.6943,-120.2276 627,-73 633.446,-65.0526 641.9384,-58.5561 650.9058,-53.3058"/>
<polygon fill="#000000" stroke="#000000" points="652.8012,-56.2614 659.9733,-48.4632 649.5036,-50.0868 652.8012,-56.2614"/>
</g>
<!-- 140531499581624&#45;&gt;140531500010856 -->
<g id="edge20" class="edge">
<title>140531499581624&#45;&gt;140531500010856</title>
<path fill="none" stroke="#000000" d="M583.5682,-263.9268C595.5923,-275.0775 611.5976,-289.09 627,-300 636.9547,-307.0512 648.1604,-313.9182 658.847,-320.02"/>
<polygon fill="#000000" stroke="#000000" points="657.227,-323.1242 667.6628,-324.9529 660.6451,-317.0154 657.227,-323.1242"/>
</g>
<!-- 140531500011416&#45;&gt;140531500009680 -->
<g id="edge22" class="edge">
<title>140531500011416&#45;&gt;140531500009680</title>
<path fill="none" stroke="#000000" d="M204.5497,-214.0843C213.1894,-217.1562 223.0137,-220.6493 232.3423,-223.9662"/>
<polygon fill="#000000" stroke="#000000" points="231.2192,-227.2814 241.8139,-227.3338 233.5643,-220.6859 231.2192,-227.2814"/>
</g>
<!-- 140531500011416&#45;&gt;140531500008280 -->
<g id="edge23" class="edge">
<title>140531500011416&#45;&gt;140531500008280</title>
<path fill="none" stroke="#000000" d="M205.0317,-197.1905C213.4955,-194.6514 223.055,-191.7835 232.1543,-189.0537"/>
<polygon fill="#000000" stroke="#000000" points="233.2013,-192.3938 241.7738,-186.1679 231.1898,-185.689 233.2013,-192.3938"/>
</g>
<!-- 140531500011304&#45;&gt;140531500686472 -->
<g id="edge24" class="edge">
<title>140531500011304&#45;&gt;140531500686472</title>
<path fill="none" stroke="#000000" d="M386.199,-241.5307C397.7828,-241.7567 411.4866,-242.0241 424.0073,-242.2684"/>
<polygon fill="#000000" stroke="#000000" points="424.1075,-245.771 434.1739,-242.4668 424.2441,-238.7723 424.1075,-245.771"/>
</g>
</g>
</svg>
