<?xml version="1.0" encoding="UTF-8" standalone="no"?>
<!DOCTYPE svg PUBLIC "-//W3C//DTD SVG 1.1//EN"
 "http://www.w3.org/Graphics/SVG/1.1/DTD/svg11.dtd">
<!-- Generated by graphviz version 2.40.1 (20161225.0304)
 -->
<!-- Title: alpha_plus_net_1586496250.01287 Pages: 1 -->
<svg width="944pt" height="1016pt"
 viewBox="0.00 0.00 944.00 1016.00" xmlns="http://www.w3.org/2000/svg" xmlns:xlink="http://www.w3.org/1999/xlink">
<g id="graph0" class="graph" transform="scale(1 1) rotate(0) translate(4 1012)">
<title>alpha_plus_net_1586496250.01287</title>
<!-- 139748203904920 -->
<g id="node1" class="node">
<title>139748203904920</title>
<polygon fill="none" stroke="#000000" points="316,-36 105,-36 105,0 316,0 316,-36"/>
<text text-anchor="middle" x="210.5" y="-14.3" font-family="Times,serif" font-size="14.00" fill="#000000">FinancialUtils:computeGainPercent</text>
</g>
<!-- 139748203951160 -->
<g id="node2" class="node">
<title>139748203951160</title>
<polygon fill="none" stroke="#000000" points="253.5,-90 167.5,-90 167.5,-54 253.5,-54 253.5,-90"/>
<text text-anchor="middle" x="210.5" y="-68.3" font-family="Times,serif" font-size="14.00" fill="#000000">Log:doTrace</text>
</g>
<!-- 139748203951272 -->
<g id="node3" class="node">
<title>139748203951272</title>
<polygon fill="none" stroke="#000000" points="255,-144 166,-144 166,-108 255,-108 255,-144"/>
<text text-anchor="middle" x="210.5" y="-122.3" font-family="Times,serif" font-size="14.00" fill="#000000">Log:getTrace</text>
</g>
<!-- 139748203951384 -->
<g id="node4" class="node">
<title>139748203951384</title>
<polygon fill="none" stroke="#000000" points="421,-198 0,-198 0,-162 421,-162 421,-198"/>
<text text-anchor="middle" x="210.5" y="-176.3" font-family="Times,serif" font-size="14.00" fill="#000000">MarketSummaryDataBean:MarketSummaryDataBean [overloaded_#002]</text>
</g>
<!-- 139748203950936 -->
<g id="node5" class="node">
<title>139748203950936</title>
<polygon fill="none" stroke="#000000" points="332,-252 89,-252 89,-216 332,-216 332,-252"/>
<text text-anchor="middle" x="210.5" y="-230.3" font-family="Times,serif" font-size="14.00" fill="#000000">MarketSummaryDataBean:getOpenTSIA</text>
</g>
<!-- 139748203951776 -->
<g id="node6" class="node">
<title>139748203951776</title>
<polygon fill="none" stroke="#000000" points="317.5,-306 103.5,-306 103.5,-270 317.5,-270 317.5,-306"/>
<text text-anchor="middle" x="210.5" y="-284.3" font-family="Times,serif" font-size="14.00" fill="#000000">MarketSummaryDataBean:getTSIA</text>
</g>
<!-- 139748203951944 -->
<g id="node7" class="node">
<title>139748203951944</title>
<polygon fill="none" stroke="#000000" points="331.5,-360 89.5,-360 89.5,-324 331.5,-324 331.5,-360"/>
<text text-anchor="middle" x="210.5" y="-338.3" font-family="Times,serif" font-size="14.00" fill="#000000">MarketSummaryDataBean:setOpenTSIA</text>
</g>
<!-- 139748203950824 -->
<g id="node8" class="node">
<title>139748203950824</title>
<polygon fill="none" stroke="#000000" points="341.5,-414 79.5,-414 79.5,-378 341.5,-378 341.5,-414"/>
<text text-anchor="middle" x="210.5" y="-392.3" font-family="Times,serif" font-size="14.00" fill="#000000">MarketSummaryDataBean:setSummaryDate</text>
</g>
<!-- 139748203950880 -->
<g id="node9" class="node">
<title>139748203950880</title>
<polygon fill="none" stroke="#000000" points="316.5,-468 104.5,-468 104.5,-432 316.5,-432 316.5,-468"/>
<text text-anchor="middle" x="210.5" y="-446.3" font-family="Times,serif" font-size="14.00" fill="#000000">MarketSummaryDataBean:setTSIA</text>
</g>
<!-- 139748203951608 -->
<g id="node10" class="node">
<title>139748203951608</title>
<polygon fill="none" stroke="#000000" points="333.5,-522 87.5,-522 87.5,-486 333.5,-486 333.5,-522"/>
<text text-anchor="middle" x="210.5" y="-500.3" font-family="Times,serif" font-size="14.00" fill="#000000">MarketSummaryDataBean:setTopGainers</text>
</g>
<!-- 139748203951720 -->
<g id="node11" class="node">
<title>139748203951720</title>
<polygon fill="none" stroke="#000000" points="330.5,-576 90.5,-576 90.5,-540 330.5,-540 330.5,-576"/>
<text text-anchor="middle" x="210.5" y="-554.3" font-family="Times,serif" font-size="14.00" fill="#000000">MarketSummaryDataBean:setTopLosers</text>
</g>
<!-- 139748203950712 -->
<g id="node12" class="node">
<title>139748203950712</title>
<polygon fill="none" stroke="#000000" points="324,-630 97,-630 97,-594 324,-594 324,-630"/>
<text text-anchor="middle" x="210.5" y="-608.3" font-family="Times,serif" font-size="14.00" fill="#000000">MarketSummaryDataBean:setVolume</text>
</g>
<!-- 139748203951832 -->
<g id="node13" class="node">
<title>139748203951832</title>
<polygon fill="none" stroke="#000000" points="374.5,-684 46.5,-684 46.5,-648 374.5,-648 374.5,-684"/>
<text text-anchor="middle" x="210.5" y="-662.3" font-family="Times,serif" font-size="14.00" fill="#000000">MarketSummarySingleton:setMarketSummaryDataBean</text>
</g>
<!-- 139748203951496 -->
<g id="node14" class="node">
<title>139748203951496</title>
<polygon fill="none" stroke="#000000" points="358.5,-738 62.5,-738 62.5,-702 358.5,-702 358.5,-738"/>
<text text-anchor="middle" x="210.5" y="-716.3" font-family="Times,serif" font-size="14.00" fill="#000000">MarketSummarySingleton:updateMarketSummary</text>
</g>
<!-- 139748203952952 -->
<g id="node24" class="node">
<title>139748203952952</title>
<ellipse fill="none" stroke="#000000" cx="484" cy="-747" rx="27" ry="27"/>
<text text-anchor="middle" x="484" y="-743.3" font-family="Times,serif" font-size="14.00" fill="#000000">({&#39;MarketSummarySingleton:updateMarketSummary&#39;}, {&#39;QuoteDataBean:QuoteDataBean [overloaded_#001]&#39;, &#39;Root&#39;})</text>
</g>
<!-- 139748203951496&#45;&gt;139748203952952 -->
<g id="edge4" class="edge">
<title>139748203951496&#45;&gt;139748203952952</title>
<path fill="none" stroke="#000000" d="M358.856,-734.6457C391.5255,-737.8709 423.3053,-741.0082 446.6647,-743.3142"/>
<polygon fill="#000000" stroke="#000000" points="446.4823,-746.8132 456.7778,-744.3126 447.1701,-739.847 446.4823,-746.8132"/>
</g>
<!-- 139748203950488 -->
<g id="node15" class="node">
<title>139748203950488</title>
<polygon fill="none" stroke="#000000" points="846,-756 547,-756 547,-720 846,-720 846,-756"/>
<text text-anchor="middle" x="696.5" y="-734.3" font-family="Times,serif" font-size="14.00" fill="#000000">QuoteDataBean:QuoteDataBean [overloaded_#001]</text>
</g>
<!-- 139748203952728 -->
<g id="node25" class="node">
<title>139748203952728</title>
<ellipse fill="none" stroke="#000000" cx="909" cy="-692" rx="27" ry="27"/>
<text text-anchor="middle" x="909" y="-688.3" font-family="Times,serif" font-size="14.00" fill="#000000">({&#39;QuoteDataBean:QuoteDataBean [overloaded_#001]&#39;, &#39;artificial_start&#39;}, {&#39;MarketSummarySingleton:updateMarketSummary&#39;})</text>
</g>
<!-- 139748203950488&#45;&gt;139748203952728 -->
<g id="edge5" class="edge">
<title>139748203950488&#45;&gt;139748203952728</title>
<path fill="none" stroke="#000000" d="M781.5153,-719.923C802.5943,-715.4078 825.1239,-710.5537 846,-706 854.6549,-704.1121 863.9729,-702.055 872.7188,-700.1132"/>
<polygon fill="#000000" stroke="#000000" points="873.6479,-703.4922 882.6491,-697.9038 872.1276,-696.6593 873.6479,-703.4922"/>
</g>
<!-- 139748203951048 -->
<g id="node16" class="node">
<title>139748203951048</title>
<polygon fill="none" stroke="#000000" points="286.5,-792 134.5,-792 134.5,-756 286.5,-756 286.5,-792"/>
<text text-anchor="middle" x="210.5" y="-770.3" font-family="Times,serif" font-size="14.00" fill="#000000">QuoteDataBean:getOpen</text>
</g>
<!-- 139748203950376 -->
<g id="node17" class="node">
<title>139748203950376</title>
<polygon fill="none" stroke="#000000" points="286,-846 135,-846 135,-810 286,-810 286,-846"/>
<text text-anchor="middle" x="210.5" y="-824.3" font-family="Times,serif" font-size="14.00" fill="#000000">QuoteDataBean:getPrice</text>
</g>
<!-- 139748203950264 -->
<g id="node18" class="node">
<title>139748203950264</title>
<polygon fill="none" stroke="#000000" points="294,-900 127,-900 127,-864 294,-864 294,-900"/>
<text text-anchor="middle" x="210.5" y="-878.3" font-family="Times,serif" font-size="14.00" fill="#000000">QuoteDataBean:getVolume</text>
</g>
<!-- 139748203952280 -->
<g id="node19" class="node">
<title>139748203952280</title>
<polygon fill="none" stroke="#000000" points="723.5,-810 669.5,-810 669.5,-774 723.5,-774 723.5,-810"/>
<text text-anchor="middle" x="696.5" y="-788.3" font-family="Times,serif" font-size="14.00" fill="#000000">Root</text>
</g>
<!-- 139748203952168 -->
<g id="node26" class="node">
<title>139748203952168</title>
<ellipse fill="#ffa500" stroke="#000000" cx="909" cy="-792" rx="27" ry="27"/>
</g>
<!-- 139748203952280&#45;&gt;139748203952168 -->
<g id="edge6" class="edge">
<title>139748203952280&#45;&gt;139748203952168</title>
<path fill="none" stroke="#000000" d="M723.8456,-792C761.4607,-792 829.3021,-792 871.5921,-792"/>
<polygon fill="#000000" stroke="#000000" points="871.7594,-795.5001 881.7593,-792 871.7593,-788.5001 871.7594,-795.5001"/>
</g>
<!-- 139748203950432 -->
<g id="node20" class="node">
<title>139748203950432</title>
<polygon fill="none" stroke="#000000" points="305.5,-954 115.5,-954 115.5,-918 305.5,-918 305.5,-954"/>
<text text-anchor="middle" x="210.5" y="-932.3" font-family="Times,serif" font-size="14.00" fill="#000000">TradeConfig:getRunTimeMode</text>
</g>
<!-- 139748203950152 -->
<g id="node21" class="node">
<title>139748203950152</title>
<polygon fill="none" stroke="#000000" points="279,-1008 142,-1008 142,-972 279,-972 279,-1008"/>
<text text-anchor="middle" x="210.5" y="-986.3" font-family="Times,serif" font-size="14.00" fill="#000000">TradeConfig:getTrace</text>
</g>
<!-- 139748203951328 -->
<g id="node22" class="node">
<title>139748203951328</title>
<polygon fill="none" stroke="#000000" points="742.5,-660 650.5,-660 650.5,-624 742.5,-624 742.5,-660"/>
<text text-anchor="middle" x="696.5" y="-638.3" font-family="Times,serif" font-size="14.00" fill="#000000">artificial_start</text>
</g>
<!-- 139748203951328&#45;&gt;139748203952728 -->
<g id="edge7" class="edge">
<title>139748203951328&#45;&gt;139748203952728</title>
<path fill="none" stroke="#000000" d="M742.6093,-652.8493C781.6052,-662.0248 836.7169,-674.9922 872.6515,-683.4474"/>
<polygon fill="#000000" stroke="#000000" points="872.1627,-686.9279 882.6985,-685.8114 873.766,-680.114 872.1627,-686.9279"/>
</g>
<!-- 139748203904864 -->
<g id="node23" class="node">
<title>139748203904864</title>
<ellipse fill="#00ff00" stroke="#000000" cx="484" cy="-637" rx="27" ry="27"/>
<text text-anchor="middle" x="484" y="-633.3" font-family="Times,serif" font-size="14.00" fill="#000000">1</text>
</g>
<!-- 139748203904864&#45;&gt;139748203951328 -->
<g id="edge8" class="edge">
<title>139748203904864&#45;&gt;139748203951328</title>
<path fill="none" stroke="#000000" d="M511.3456,-637.6434C543.7589,-638.4061 598.6168,-639.6969 640.2291,-640.676"/>
<polygon fill="#000000" stroke="#000000" points="640.1524,-644.175 650.232,-640.9113 640.3172,-637.177 640.1524,-644.175"/>
</g>
<!-- 139748203952952&#45;&gt;139748203950488 -->
<g id="edge1" class="edge">
<title>139748203952952&#45;&gt;139748203950488</title>
<path fill="none" stroke="#000000" d="M511.3456,-745.8418C518.6721,-745.5315 527.1453,-745.1727 536.3531,-744.7827"/>
<polygon fill="#000000" stroke="#000000" points="536.7704,-748.2683 546.6133,-744.3481 536.4741,-741.2745 536.7704,-748.2683"/>
</g>
<!-- 139748203952952&#45;&gt;139748203952280 -->
<g id="edge2" class="edge">
<title>139748203952952&#45;&gt;139748203952280</title>
<path fill="none" stroke="#000000" d="M509.902,-755.0299C521.2241,-758.3761 534.7017,-762.14 547,-765 584.9168,-773.8175 628.8073,-781.4427 659.1792,-786.3193"/>
<polygon fill="#000000" stroke="#000000" points="658.9018,-789.8189 669.3263,-787.9271 659.9973,-782.9052 658.9018,-789.8189"/>
</g>
<!-- 139748203952728&#45;&gt;139748203951496 -->
<g id="edge3" class="edge">
<title>139748203952728&#45;&gt;139748203951496</title>
<path fill="none" stroke="#000000" d="M881.7721,-693.0915C797.9902,-696.4499 539.4036,-706.8156 368.727,-713.6573"/>
<polygon fill="#000000" stroke="#000000" points="368.4856,-710.1641 358.6339,-714.0619 368.7661,-717.1585 368.4856,-710.1641"/>
</g>
</g>
</svg>
