<?xml version="1.0" encoding="UTF-8" standalone="no"?>
<!DOCTYPE svg PUBLIC "-//W3C//DTD SVG 1.1//EN"
 "http://www.w3.org/Graphics/SVG/1.1/DTD/svg11.dtd">
<!-- Generated by graphviz version 2.40.1 (20161225.0304)
 -->
<!-- Title: alpha_classic_net_1585315546.004884 Pages: 1 -->
<svg width="1031pt" height="1088pt"
 viewBox="0.00 0.00 1031.00 1088.00" xmlns="http://www.w3.org/2000/svg" xmlns:xlink="http://www.w3.org/1999/xlink">
<g id="graph0" class="graph" transform="scale(1 1) rotate(0) translate(4 1084)">
<title>alpha_classic_net_1585315546.004884</title>
<!-- 140178132616808 -->
<g id="node1" class="node">
<title>140178132616808</title>
<polygon fill="none" stroke="#000000" points="316,-36 105,-36 105,0 316,0 316,-36"/>
<text text-anchor="middle" x="210.5" y="-14.3" font-family="Times,serif" font-size="14.00" fill="#000000">FinancialUtils:computeGainPercent</text>
</g>
<!-- 140178132618096 -->
<g id="node2" class="node">
<title>140178132618096</title>
<polygon fill="none" stroke="#000000" points="253.5,-90 167.5,-90 167.5,-54 253.5,-54 253.5,-90"/>
<text text-anchor="middle" x="210.5" y="-68.3" font-family="Times,serif" font-size="14.00" fill="#000000">Log:doTrace</text>
</g>
<!-- 140178132615520 -->
<g id="node3" class="node">
<title>140178132615520</title>
<polygon fill="none" stroke="#000000" points="255,-144 166,-144 166,-108 255,-108 255,-144"/>
<text text-anchor="middle" x="210.5" y="-122.3" font-family="Times,serif" font-size="14.00" fill="#000000">Log:getTrace</text>
</g>
<!-- 140178132616248 -->
<g id="node4" class="node">
<title>140178132616248</title>
<polygon fill="none" stroke="#000000" points="421,-198 0,-198 0,-162 421,-162 421,-198"/>
<text text-anchor="middle" x="210.5" y="-176.3" font-family="Times,serif" font-size="14.00" fill="#000000">MarketSummaryDataBean:MarketSummaryDataBean [overloaded_#002]</text>
</g>
<!-- 140178132616920 -->
<g id="node5" class="node">
<title>140178132616920</title>
<polygon fill="none" stroke="#000000" points="332,-252 89,-252 89,-216 332,-216 332,-252"/>
<text text-anchor="middle" x="210.5" y="-230.3" font-family="Times,serif" font-size="14.00" fill="#000000">MarketSummaryDataBean:getOpenTSIA</text>
</g>
<!-- 140178132617144 -->
<g id="node6" class="node">
<title>140178132617144</title>
<polygon fill="none" stroke="#000000" points="317.5,-306 103.5,-306 103.5,-270 317.5,-270 317.5,-306"/>
<text text-anchor="middle" x="210.5" y="-284.3" font-family="Times,serif" font-size="14.00" fill="#000000">MarketSummaryDataBean:getTSIA</text>
</g>
<!-- 140178132618600 -->
<g id="node7" class="node">
<title>140178132618600</title>
<polygon fill="none" stroke="#000000" points="331.5,-360 89.5,-360 89.5,-324 331.5,-324 331.5,-360"/>
<text text-anchor="middle" x="210.5" y="-338.3" font-family="Times,serif" font-size="14.00" fill="#000000">MarketSummaryDataBean:setOpenTSIA</text>
</g>
<!-- 140178132615744 -->
<g id="node8" class="node">
<title>140178132615744</title>
<polygon fill="none" stroke="#000000" points="341.5,-414 79.5,-414 79.5,-378 341.5,-378 341.5,-414"/>
<text text-anchor="middle" x="210.5" y="-392.3" font-family="Times,serif" font-size="14.00" fill="#000000">MarketSummaryDataBean:setSummaryDate</text>
</g>
<!-- 140178132618152 -->
<g id="node9" class="node">
<title>140178132618152</title>
<polygon fill="none" stroke="#000000" points="316.5,-468 104.5,-468 104.5,-432 316.5,-432 316.5,-468"/>
<text text-anchor="middle" x="210.5" y="-446.3" font-family="Times,serif" font-size="14.00" fill="#000000">MarketSummaryDataBean:setTSIA</text>
</g>
<!-- 140178132616080 -->
<g id="node10" class="node">
<title>140178132616080</title>
<polygon fill="none" stroke="#000000" points="333.5,-522 87.5,-522 87.5,-486 333.5,-486 333.5,-522"/>
<text text-anchor="middle" x="210.5" y="-500.3" font-family="Times,serif" font-size="14.00" fill="#000000">MarketSummaryDataBean:setTopGainers</text>
</g>
<!-- 140178132619104 -->
<g id="node11" class="node">
<title>140178132619104</title>
<polygon fill="none" stroke="#000000" points="330.5,-576 90.5,-576 90.5,-540 330.5,-540 330.5,-576"/>
<text text-anchor="middle" x="210.5" y="-554.3" font-family="Times,serif" font-size="14.00" fill="#000000">MarketSummaryDataBean:setTopLosers</text>
</g>
<!-- 140178132616584 -->
<g id="node12" class="node">
<title>140178132616584</title>
<polygon fill="none" stroke="#000000" points="324,-630 97,-630 97,-594 324,-594 324,-630"/>
<text text-anchor="middle" x="210.5" y="-608.3" font-family="Times,serif" font-size="14.00" fill="#000000">MarketSummaryDataBean:setVolume</text>
</g>
<!-- 140178132618544 -->
<g id="node13" class="node">
<title>140178132618544</title>
<polygon fill="none" stroke="#000000" points="374.5,-684 46.5,-684 46.5,-648 374.5,-648 374.5,-684"/>
<text text-anchor="middle" x="210.5" y="-662.3" font-family="Times,serif" font-size="14.00" fill="#000000">MarketSummarySingleton:setMarketSummaryDataBean</text>
</g>
<!-- 140178132616976 -->
<g id="node14" class="node">
<title>140178132616976</title>
<polygon fill="none" stroke="#000000" points="753,-747 457,-747 457,-711 753,-711 753,-747"/>
<text text-anchor="middle" x="605" y="-725.3" font-family="Times,serif" font-size="14.00" fill="#000000">MarketSummarySingleton:updateMarketSummary</text>
</g>
<!-- 140178132617424 -->
<g id="node23" class="node">
<title>140178132617424</title>
<ellipse fill="none" stroke="#000000" cx="816" cy="-729" rx="27" ry="27"/>
<text text-anchor="middle" x="816" y="-725.3" font-family="Times,serif" font-size="14.00" fill="#000000">({&#39;MarketSummarySingleton:updateMarketSummary&#39;}, {&#39;Root&#39;})</text>
</g>
<!-- 140178132616976&#45;&gt;140178132617424 -->
<g id="edge2" class="edge">
<title>140178132616976&#45;&gt;140178132617424</title>
<path fill="none" stroke="#000000" d="M753.2643,-729C762.4307,-729 771.0786,-729 778.8562,-729"/>
<polygon fill="#000000" stroke="#000000" points="778.8895,-732.5001 788.8894,-729 778.8894,-725.5001 778.8895,-732.5001"/>
</g>
<!-- 140178132616360 -->
<g id="node15" class="node">
<title>140178132616360</title>
<polygon fill="none" stroke="#000000" points="360,-810 61,-810 61,-774 360,-774 360,-810"/>
<text text-anchor="middle" x="210.5" y="-788.3" font-family="Times,serif" font-size="14.00" fill="#000000">QuoteDataBean:QuoteDataBean [overloaded_#001]</text>
</g>
<!-- 140178132615856 -->
<g id="node16" class="node">
<title>140178132615856</title>
<polygon fill="none" stroke="#000000" points="286.5,-864 134.5,-864 134.5,-828 286.5,-828 286.5,-864"/>
<text text-anchor="middle" x="210.5" y="-842.3" font-family="Times,serif" font-size="14.00" fill="#000000">QuoteDataBean:getOpen</text>
</g>
<!-- 140178132617200 -->
<g id="node17" class="node">
<title>140178132617200</title>
<polygon fill="none" stroke="#000000" points="286,-918 135,-918 135,-882 286,-882 286,-918"/>
<text text-anchor="middle" x="210.5" y="-896.3" font-family="Times,serif" font-size="14.00" fill="#000000">QuoteDataBean:getPrice</text>
</g>
<!-- 140178132616136 -->
<g id="node18" class="node">
<title>140178132616136</title>
<polygon fill="none" stroke="#000000" points="294,-972 127,-972 127,-936 294,-936 294,-972"/>
<text text-anchor="middle" x="210.5" y="-950.3" font-family="Times,serif" font-size="14.00" fill="#000000">QuoteDataBean:getVolume</text>
</g>
<!-- 140178132616528 -->
<g id="node19" class="node">
<title>140178132616528</title>
<polygon fill="none" stroke="#000000" points="933,-747 879,-747 879,-711 933,-711 933,-747"/>
<text text-anchor="middle" x="906" y="-725.3" font-family="Times,serif" font-size="14.00" fill="#000000">Root</text>
</g>
<!-- 140178132618320 -->
<g id="node24" class="node">
<title>140178132618320</title>
<ellipse fill="#ffa500" stroke="#000000" cx="996" cy="-729" rx="27" ry="27"/>
</g>
<!-- 140178132616528&#45;&gt;140178132618320 -->
<g id="edge3" class="edge">
<title>140178132616528&#45;&gt;140178132618320</title>
<path fill="none" stroke="#000000" d="M933.003,-729C941.0277,-729 949.9665,-729 958.5309,-729"/>
<polygon fill="#000000" stroke="#000000" points="958.7051,-732.5001 968.705,-729 958.705,-725.5001 958.7051,-732.5001"/>
</g>
<!-- 140178132618376 -->
<g id="node20" class="node">
<title>140178132618376</title>
<polygon fill="none" stroke="#000000" points="305.5,-1026 115.5,-1026 115.5,-990 305.5,-990 305.5,-1026"/>
<text text-anchor="middle" x="210.5" y="-1004.3" font-family="Times,serif" font-size="14.00" fill="#000000">TradeConfig:getRunTimeMode</text>
</g>
<!-- 140178132617816 -->
<g id="node21" class="node">
<title>140178132617816</title>
<polygon fill="none" stroke="#000000" points="279,-1080 142,-1080 142,-1044 279,-1044 279,-1080"/>
<text text-anchor="middle" x="210.5" y="-1058.3" font-family="Times,serif" font-size="14.00" fill="#000000">TradeConfig:getTrace</text>
</g>
<!-- 140178132619160 -->
<g id="node22" class="node">
<title>140178132619160</title>
<ellipse fill="#00ff00" stroke="#000000" cx="210.5" cy="-729" rx="27" ry="27"/>
<text text-anchor="middle" x="210.5" y="-725.3" font-family="Times,serif" font-size="14.00" fill="#000000">1</text>
</g>
<!-- 140178132619160&#45;&gt;140178132616976 -->
<g id="edge4" class="edge">
<title>140178132619160&#45;&gt;140178132616976</title>
<path fill="none" stroke="#000000" d="M237.6156,-729C280.686,-729 367.9212,-729 446.5792,-729"/>
<polygon fill="#000000" stroke="#000000" points="446.6206,-732.5001 456.6205,-729 446.6205,-725.5001 446.6206,-732.5001"/>
</g>
<!-- 140178132617424&#45;&gt;140178132616528 -->
<g id="edge1" class="edge">
<title>140178132617424&#45;&gt;140178132616528</title>
<path fill="none" stroke="#000000" d="M843.003,-729C851.0277,-729 859.9665,-729 868.5309,-729"/>
<polygon fill="#000000" stroke="#000000" points="868.7051,-732.5001 878.705,-729 868.705,-725.5001 868.7051,-732.5001"/>
</g>
</g>
</svg>
