<?xml version="1.0" encoding="UTF-8" standalone="no"?>
<!DOCTYPE svg PUBLIC "-//W3C//DTD SVG 1.1//EN"
 "http://www.w3.org/Graphics/SVG/1.1/DTD/svg11.dtd">
<!-- Generated by graphviz version 2.40.1 (20161225.0304)
 -->
<!-- Title: imdf_net_1585321101.558737 Pages: 1 -->
<svg width="1810pt" height="1099pt"
 viewBox="0.00 0.00 1810.00 1099.00" xmlns="http://www.w3.org/2000/svg" xmlns:xlink="http://www.w3.org/1999/xlink">
<g id="graph0" class="graph" transform="scale(1 1) rotate(0) translate(4 1095)">
<title>imdf_net_1585321101.558737</title>
<!-- 140531495724760 -->
<g id="node1" class="node">
<title>140531495724760</title>
<polygon fill="none" stroke="#000000" points="211,-402 0,-402 0,-366 211,-366 211,-402"/>
<text text-anchor="middle" x="105.5" y="-380.3" font-family="Times,serif" font-size="14.00" fill="#000000">FinancialUtils:computeGainPercent</text>
</g>
<!-- 140531497185232 -->
<g id="node39" class="node">
<title>140531497185232</title>
<ellipse fill="none" stroke="#000000" cx="274" cy="-746" rx="27" ry="27"/>
<text text-anchor="middle" x="274" y="-742.3" font-family="Times,serif" font-size="14.00" fill="#000000">p_8</text>
</g>
<!-- 140531495724760&#45;&gt;140531497185232 -->
<g id="edge12" class="edge">
<title>140531495724760&#45;&gt;140531497185232</title>
<path fill="none" stroke="#000000" d="M114.0876,-402.4493C140.8518,-459.9487 223.0482,-636.5369 258.0021,-711.6307"/>
<polygon fill="#000000" stroke="#000000" points="255.0221,-713.5226 262.4152,-721.1116 261.3683,-710.5686 255.0221,-713.5226"/>
</g>
<!-- 140531495723416 -->
<g id="node2" class="node">
<title>140531495723416</title>
<polygon fill="none" stroke="#000000" points="1634.5,-983 1548.5,-983 1548.5,-947 1634.5,-947 1634.5,-983"/>
<text text-anchor="middle" x="1591.5" y="-961.3" font-family="Times,serif" font-size="14.00" fill="#000000">Log:doTrace</text>
</g>
<!-- 140531495723416&#45;&gt;140531497185232 -->
<g id="edge17" class="edge">
<title>140531495723416&#45;&gt;140531497185232</title>
<path fill="none" stroke="#000000" d="M1548.4625,-971.0566C1478.7028,-980.3337 1336.5367,-997 1215.5,-997 454,-997 454,-997 454,-997 395.3569,-997 375.011,-980.6562 337,-936 299.4141,-891.8432 284.0601,-824.5299 277.9246,-783.006"/>
<polygon fill="#000000" stroke="#000000" points="281.3833,-782.4654 276.5554,-773.0345 274.4483,-783.4177 281.3833,-782.4654"/>
</g>
<!-- 140531495724424 -->
<g id="node3" class="node">
<title>140531495724424</title>
<polygon fill="none" stroke="#000000" points="1636,-872 1547,-872 1547,-836 1636,-836 1636,-872"/>
<text text-anchor="middle" x="1591.5" y="-850.3" font-family="Times,serif" font-size="14.00" fill="#000000">Log:getTrace</text>
</g>
<!-- 140531495724424&#45;&gt;140531497185232 -->
<g id="edge5" class="edge">
<title>140531495724424&#45;&gt;140531497185232</title>
<path fill="none" stroke="#000000" d="M1546.9657,-858.9712C1504.2336,-864.0156 1437.9685,-872.5569 1381,-883 1306.7674,-896.6078 1290.9696,-921 1215.5,-921 454,-921 454,-921 454,-921 395.9613,-921 378.7256,-903.3419 337,-863 313.4263,-840.2081 296.6091,-806.6589 286.3127,-781.3231"/>
<polygon fill="#000000" stroke="#000000" points="289.4565,-779.7521 282.5564,-771.7122 282.9368,-782.3002 289.4565,-779.7521"/>
</g>
<!-- 140531495725432 -->
<g id="node4" class="node">
<title>140531495725432</title>
<polygon fill="none" stroke="#000000" points="1802,-815 1381,-815 1381,-779 1802,-779 1802,-815"/>
<text text-anchor="middle" x="1591.5" y="-793.3" font-family="Times,serif" font-size="14.00" fill="#000000">MarketSummaryDataBean:MarketSummaryDataBean [overloaded_#002]</text>
</g>
<!-- 140531495725432&#45;&gt;140531497185232 -->
<g id="edge10" class="edge">
<title>140531495725432&#45;&gt;140531497185232</title>
<path fill="none" stroke="#000000" d="M1440.7998,-815.024C1420.5864,-818.4477 1400.2113,-822.4223 1381,-827 1305.4626,-844.9992 1293.1523,-883 1215.5,-883 454,-883 454,-883 454,-883 396.9135,-883 381.5208,-865.7318 337,-830 319.2037,-815.7169 303.748,-795.3174 292.599,-778.1983"/>
<polygon fill="#000000" stroke="#000000" points="295.4674,-776.1853 287.1718,-769.5949 289.547,-779.9201 295.4674,-776.1853"/>
</g>
<!-- 140531495724928 -->
<g id="node5" class="node">
<title>140531495724928</title>
<polygon fill="none" stroke="#000000" points="1713,-755 1470,-755 1470,-719 1713,-719 1713,-755"/>
<text text-anchor="middle" x="1591.5" y="-733.3" font-family="Times,serif" font-size="14.00" fill="#000000">MarketSummaryDataBean:getOpenTSIA</text>
</g>
<!-- 140531495724928&#45;&gt;140531497185232 -->
<g id="edge6" class="edge">
<title>140531495724928&#45;&gt;140531497185232</title>
<path fill="none" stroke="#000000" d="M1469.7496,-750.372C1440.3475,-755.1624 1409.2647,-761.5502 1381,-770 1303.6275,-793.1308 1296.256,-845 1215.5,-845 454,-845 454,-845 454,-845 393.2474,-845 333.6474,-801.1663 300.5653,-771.8333"/>
<polygon fill="#000000" stroke="#000000" points="302.8904,-769.217 293.1331,-765.0882 298.186,-774.4005 302.8904,-769.217"/>
</g>
<!-- 140531495723584 -->
<g id="node6" class="node">
<title>140531495723584</title>
<polygon fill="none" stroke="#000000" points="1698.5,-701 1484.5,-701 1484.5,-665 1698.5,-665 1698.5,-701"/>
<text text-anchor="middle" x="1591.5" y="-679.3" font-family="Times,serif" font-size="14.00" fill="#000000">MarketSummaryDataBean:getTSIA</text>
</g>
<!-- 140531495723584&#45;&gt;140531497185232 -->
<g id="edge9" class="edge">
<title>140531495723584&#45;&gt;140531497185232</title>
<path fill="none" stroke="#000000" d="M1484.4298,-682.672C1448.3078,-677.69 1409.8723,-666.4556 1381,-643 1232.3099,-522.2053 1407.0727,-245 1215.5,-245 454,-245 454,-245 454,-245 355.4129,-245 296.135,-592.9379 279.1164,-708.8995"/>
<polygon fill="#000000" stroke="#000000" points="275.6139,-708.666 277.6462,-719.0641 282.5418,-709.6681 275.6139,-708.666"/>
</g>
<!-- 140531495724256 -->
<g id="node7" class="node">
<title>140531495724256</title>
<polygon fill="none" stroke="#000000" points="1712.5,-634 1470.5,-634 1470.5,-598 1712.5,-598 1712.5,-634"/>
<text text-anchor="middle" x="1591.5" y="-612.3" font-family="Times,serif" font-size="14.00" fill="#000000">MarketSummaryDataBean:setOpenTSIA</text>
</g>
<!-- 140531495724256&#45;&gt;140531497185232 -->
<g id="edge2" class="edge">
<title>140531495724256&#45;&gt;140531497185232</title>
<path fill="none" stroke="#000000" d="M1470.4775,-611.0494C1437.0708,-603.6928 1403.7845,-589.7057 1381,-564 1293.6806,-465.4855 1407.2404,-385.9996 1345,-270 1325.6664,-233.9673 1252.6931,-169 1215.5,-169 454,-169 454,-169 454,-169 378.2291,-169 369.7716,-224.6827 337,-293 301.6999,-366.5883 282.4677,-614.113 276.2611,-708.7652"/>
<polygon fill="#000000" stroke="#000000" points="272.7514,-708.8046 275.6013,-719.0089 279.7369,-709.2545 272.7514,-708.8046"/>
</g>
<!-- 140531495723920 -->
<g id="node8" class="node">
<title>140531495723920</title>
<polygon fill="none" stroke="#000000" points="1722.5,-555 1460.5,-555 1460.5,-519 1722.5,-519 1722.5,-555"/>
<text text-anchor="middle" x="1591.5" y="-533.3" font-family="Times,serif" font-size="14.00" fill="#000000">MarketSummaryDataBean:setSummaryDate</text>
</g>
<!-- 140531495723920&#45;&gt;140531497185232 -->
<g id="edge8" class="edge">
<title>140531495723920&#45;&gt;140531497185232</title>
<path fill="none" stroke="#000000" d="M1478.7155,-518.9328C1442.3955,-507.581 1405.2982,-489.0969 1381,-459 1310.2074,-371.3128 1407.5511,-301.7443 1345,-208 1307.834,-152.3 1282.4612,-131 1215.5,-131 454,-131 454,-131 454,-131 395.9613,-131 370.3246,-141.4819 337,-189 307.1637,-231.5441 283.2604,-590.8074 276.1583,-708.6951"/>
<polygon fill="#000000" stroke="#000000" points="272.6446,-708.8225 275.5426,-719.0133 279.6321,-709.2395 272.6446,-708.8225"/>
</g>
<!-- 140531495723752 -->
<g id="node9" class="node">
<title>140531495723752</title>
<polygon fill="none" stroke="#000000" points="1697.5,-450 1485.5,-450 1485.5,-414 1697.5,-414 1697.5,-450"/>
<text text-anchor="middle" x="1591.5" y="-428.3" font-family="Times,serif" font-size="14.00" fill="#000000">MarketSummaryDataBean:setTSIA</text>
</g>
<!-- 140531495723752&#45;&gt;140531497185232 -->
<g id="edge13" class="edge">
<title>140531495723752&#45;&gt;140531497185232</title>
<path fill="none" stroke="#000000" d="M1539.9343,-413.9485C1491.4158,-394.2619 1420.4868,-358.018 1381,-303 1339.0056,-244.4882 1391.7544,-199.7831 1345,-145 1304.737,-97.8231 1277.5223,-93 1215.5,-93 454,-93 454,-93 454,-93 398.4444,-93 370.934,-93.0125 337,-137 302.0264,-182.3352 281.2952,-582.7855 275.6075,-708.4481"/>
<polygon fill="#000000" stroke="#000000" points="272.0985,-708.5735 275.1485,-718.7198 279.0915,-708.886 272.0985,-708.5735"/>
</g>
<!-- 140531495725264 -->
<g id="node10" class="node">
<title>140531495725264</title>
<polygon fill="none" stroke="#000000" points="1714.5,-294 1468.5,-294 1468.5,-258 1714.5,-258 1714.5,-294"/>
<text text-anchor="middle" x="1591.5" y="-272.3" font-family="Times,serif" font-size="14.00" fill="#000000">MarketSummaryDataBean:setTopGainers</text>
</g>
<!-- 140531495725264&#45;&gt;140531497185232 -->
<g id="edge7" class="edge">
<title>140531495725264&#45;&gt;140531497185232</title>
<path fill="none" stroke="#000000" d="M1575.5402,-257.9146C1527.0983,-205.1334 1375.2661,-55 1215.5,-55 454,-55 454,-55 454,-55 399.1872,-55 371.1533,-51.1281 337,-94 298.5764,-142.2323 280.0374,-576.7868 275.2709,-708.3966"/>
<polygon fill="#000000" stroke="#000000" points="271.7599,-708.6443 274.9014,-718.7627 278.7555,-708.8937 271.7599,-708.6443"/>
</g>
<!-- 140531495724592 -->
<g id="node11" class="node">
<title>140531495724592</title>
<polygon fill="none" stroke="#000000" points="1711.5,-36 1471.5,-36 1471.5,0 1711.5,0 1711.5,-36"/>
<text text-anchor="middle" x="1591.5" y="-14.3" font-family="Times,serif" font-size="14.00" fill="#000000">MarketSummaryDataBean:setTopLosers</text>
</g>
<!-- 140531495724592&#45;&gt;140531497185232 -->
<g id="edge16" class="edge">
<title>140531495724592&#45;&gt;140531497185232</title>
<path fill="none" stroke="#000000" d="M1471.2727,-17.5176C1397.4678,-17.2619 1301.0142,-17 1215.5,-17 454,-17 454,-17 454,-17 399.4618,-17 371.1935,-11.5121 337,-54 295.7616,-105.2417 279.0633,-571.4164 275.0223,-708.347"/>
<polygon fill="#000000" stroke="#000000" points="271.5126,-708.6355 274.7216,-718.7326 278.5097,-708.8381 271.5126,-708.6355"/>
</g>
<!-- 140531495724088 -->
<g id="node12" class="node">
<title>140531495724088</title>
<polygon fill="none" stroke="#000000" points="1705,-1091 1478,-1091 1478,-1055 1705,-1055 1705,-1091"/>
<text text-anchor="middle" x="1591.5" y="-1069.3" font-family="Times,serif" font-size="14.00" fill="#000000">MarketSummaryDataBean:setVolume</text>
</g>
<!-- 140531495724088&#45;&gt;140531497185232 -->
<g id="edge14" class="edge">
<title>140531495724088&#45;&gt;140531497185232</title>
<path fill="none" stroke="#000000" d="M1477.9689,-1073C1403.368,-1073 1303.625,-1073 1215.5,-1073 454,-1073 454,-1073 454,-1073 395.3569,-1073 373.0189,-1058.278 337,-1012 309.3191,-976.4349 288.0349,-847.2303 278.892,-782.9044"/>
<polygon fill="#000000" stroke="#000000" points="282.3292,-782.2112 277.4789,-772.7919 275.3966,-783.18 282.3292,-782.2112"/>
</g>
<!-- 140531495726832 -->
<g id="node13" class="node">
<title>140531495726832</title>
<polygon fill="none" stroke="#000000" points="845,-741 517,-741 517,-705 845,-705 845,-741"/>
<text text-anchor="middle" x="681" y="-719.3" font-family="Times,serif" font-size="14.00" fill="#000000">MarketSummarySingleton:setMarketSummaryDataBean</text>
</g>
<!-- 140531497184728 -->
<g id="node33" class="node">
<title>140531497184728</title>
<ellipse fill="none" stroke="#000000" cx="908" cy="-561" rx="27" ry="27"/>
<text text-anchor="middle" x="908" y="-557.3" font-family="Times,serif" font-size="14.00" fill="#000000">p_10</text>
</g>
<!-- 140531495726832&#45;&gt;140531497184728 -->
<g id="edge3" class="edge">
<title>140531495726832&#45;&gt;140531497184728</title>
<path fill="none" stroke="#000000" d="M831.1904,-704.9404C836.0072,-702.2814 840.631,-699.3122 845,-696 876.387,-672.2053 892.7254,-628.9483 900.8122,-597.8039"/>
<polygon fill="#000000" stroke="#000000" points="904.2945,-598.2949 903.2482,-587.7518 897.4914,-596.6462 904.2945,-598.2949"/>
</g>
<!-- 140531495723248 -->
<g id="node14" class="node">
<title>140531495723248</title>
<polygon fill="none" stroke="#000000" points="1739.5,-1037 1443.5,-1037 1443.5,-1001 1739.5,-1001 1739.5,-1037"/>
<text text-anchor="middle" x="1591.5" y="-1015.3" font-family="Times,serif" font-size="14.00" fill="#000000">MarketSummarySingleton:updateMarketSummary</text>
</g>
<!-- 140531495723248&#45;&gt;140531497185232 -->
<g id="edge1" class="edge">
<title>140531495723248&#45;&gt;140531497185232</title>
<path fill="none" stroke="#000000" d="M1443.3389,-1028.2146C1374.1444,-1031.7712 1290.6374,-1035 1215.5,-1035 454,-1035 454,-1035 454,-1035 395.3569,-1035 373.8696,-1019.6031 337,-974 313.2407,-944.6126 291.0819,-839.6372 280.5025,-782.9471"/>
<polygon fill="#000000" stroke="#000000" points="283.9155,-782.1546 278.664,-772.9528 277.031,-783.4211 283.9155,-782.1546"/>
</g>
<!-- 140531495727000 -->
<g id="node15" class="node">
<title>140531495727000</title>
<polygon fill="none" stroke="#000000" points="830.5,-687 531.5,-687 531.5,-651 830.5,-651 830.5,-687"/>
<text text-anchor="middle" x="681" y="-665.3" font-family="Times,serif" font-size="14.00" fill="#000000">QuoteDataBean:QuoteDataBean [overloaded_#001]</text>
</g>
<!-- 140531495727000&#45;&gt;140531497184728 -->
<g id="edge15" class="edge">
<title>140531495727000&#45;&gt;140531497184728</title>
<path fill="none" stroke="#000000" d="M827.4943,-650.871C833.5532,-648.2619 839.4196,-645.3183 845,-642 864.1683,-630.602 879.6542,-610.9834 890.4758,-593.9089"/>
<polygon fill="#000000" stroke="#000000" points="893.5213,-595.6365 895.7044,-585.2691 887.5325,-592.0123 893.5213,-595.6365"/>
</g>
<!-- 140531497160832 -->
<g id="node16" class="node">
<title>140531497160832</title>
<polygon fill="none" stroke="#000000" points="757,-633 605,-633 605,-597 757,-597 757,-633"/>
<text text-anchor="middle" x="681" y="-611.3" font-family="Times,serif" font-size="14.00" fill="#000000">QuoteDataBean:getOpen</text>
</g>
<!-- 140531497160832&#45;&gt;140531497184728 -->
<g id="edge4" class="edge">
<title>140531497160832&#45;&gt;140531497184728</title>
<path fill="none" stroke="#000000" d="M757.3801,-606.3357C785.2837,-602.151 816.8851,-596.2074 845,-588 854.7496,-585.1539 865.0011,-581.2043 874.336,-577.2034"/>
<polygon fill="#000000" stroke="#000000" points="875.9523,-580.3153 883.6728,-573.0596 873.1127,-573.9171 875.9523,-580.3153"/>
</g>
<!-- 140531497161000 -->
<g id="node17" class="node">
<title>140531497161000</title>
<polygon fill="none" stroke="#000000" points="756.5,-579 605.5,-579 605.5,-543 756.5,-543 756.5,-579"/>
<text text-anchor="middle" x="681" y="-557.3" font-family="Times,serif" font-size="14.00" fill="#000000">QuoteDataBean:getPrice</text>
</g>
<!-- 140531497161000&#45;&gt;140531497184728 -->
<g id="edge11" class="edge">
<title>140531497161000&#45;&gt;140531497184728</title>
<path fill="none" stroke="#000000" d="M756.5877,-561C794.8908,-561 839.7021,-561 870.5842,-561"/>
<polygon fill="#000000" stroke="#000000" points="870.8932,-564.5001 880.8932,-561 870.8932,-557.5001 870.8932,-564.5001"/>
</g>
<!-- 140531495726664 -->
<g id="node18" class="node">
<title>140531495726664</title>
<polygon fill="none" stroke="#000000" points="764.5,-525 597.5,-525 597.5,-489 764.5,-489 764.5,-525"/>
<text text-anchor="middle" x="681" y="-503.3" font-family="Times,serif" font-size="14.00" fill="#000000">QuoteDataBean:getVolume</text>
</g>
<!-- 140531495726664&#45;&gt;140531497184728 -->
<g id="edge20" class="edge">
<title>140531495726664&#45;&gt;140531497184728</title>
<path fill="none" stroke="#000000" d="M764.8849,-516.8193C790.8605,-520.9209 819.3781,-526.5204 845,-534 854.7496,-536.8461 865.0011,-540.7957 874.336,-544.7966"/>
<polygon fill="#000000" stroke="#000000" points="873.1127,-548.0829 883.6728,-548.9404 875.9523,-541.6847 873.1127,-548.0829"/>
</g>
<!-- 140531497184560 -->
<g id="node19" class="node">
<title>140531497184560</title>
<polygon fill="none" stroke="#000000" points="1037.5,-516 983.5,-516 983.5,-480 1037.5,-480 1037.5,-516"/>
<text text-anchor="middle" x="1010.5" y="-494.3" font-family="Times,serif" font-size="14.00" fill="#000000">Root</text>
</g>
<!-- 140531497377576 -->
<g id="node41" class="node">
<title>140531497377576</title>
<ellipse fill="#ffa500" stroke="#000000" cx="1113" cy="-633" rx="27" ry="27"/>
</g>
<!-- 140531497184560&#45;&gt;140531497377576 -->
<g id="edge19" class="edge">
<title>140531497184560&#45;&gt;140531497377576</title>
<path fill="none" stroke="#000000" d="M1033.0216,-516.3029C1038.9162,-521.6664 1045.0109,-527.7725 1050,-534 1070.1633,-559.1683 1068.2911,-570.0483 1086,-597 1087.3889,-599.1138 1088.8584,-601.2688 1090.3657,-603.4206"/>
<polygon fill="#000000" stroke="#000000" points="1087.587,-605.5512 1096.2776,-611.6113 1093.263,-601.4544 1087.587,-605.5512"/>
</g>
<!-- 140531495726496 -->
<g id="node20" class="node">
<title>140531495726496</title>
<polygon fill="none" stroke="#000000" points="776,-471 586,-471 586,-435 776,-435 776,-471"/>
<text text-anchor="middle" x="681" y="-449.3" font-family="Times,serif" font-size="14.00" fill="#000000">TradeConfig:getRunTimeMode</text>
</g>
<!-- 140531495726496&#45;&gt;140531497184728 -->
<g id="edge18" class="edge">
<title>140531495726496&#45;&gt;140531497184728</title>
<path fill="none" stroke="#000000" d="M776.2575,-456.5554C799.9379,-460.6176 824.4144,-467.7592 845,-480 864.1683,-491.398 879.6542,-511.0166 890.4758,-528.0911"/>
<polygon fill="#000000" stroke="#000000" points="887.5325,-529.9877 895.7044,-536.7309 893.5213,-526.3635 887.5325,-529.9877"/>
</g>
<!-- 140531495725096 -->
<g id="node21" class="node">
<title>140531495725096</title>
<polygon fill="none" stroke="#000000" points="1660,-928 1523,-928 1523,-892 1660,-892 1660,-928"/>
<text text-anchor="middle" x="1591.5" y="-906.3" font-family="Times,serif" font-size="14.00" fill="#000000">TradeConfig:getTrace</text>
</g>
<!-- 140531495725096&#45;&gt;140531497185232 -->
<g id="edge21" class="edge">
<title>140531495725096&#45;&gt;140531497185232</title>
<path fill="none" stroke="#000000" d="M1522.9648,-919.159C1416.6032,-933.3414 1223.1219,-959 1215.5,-959 454,-959 454,-959 454,-959 395.561,-959 376.5674,-942.0062 337,-899 306.5946,-865.9521 289.831,-816.2121 281.3864,-782.4899"/>
<polygon fill="#000000" stroke="#000000" points="284.7469,-781.4928 279.0269,-772.5748 277.9371,-783.1135 284.7469,-781.4928"/>
</g>
<!-- 140531497184280 -->
<g id="node22" class="node">
<title>140531497184280</title>
<polygon fill="none" stroke="#000000" points="1050,-444 971,-444 971,-408 1050,-408 1050,-444"/>
<text text-anchor="middle" x="1010.5" y="-422.3" font-family="Times,serif" font-size="14.00" fill="#000000">init_loop_2</text>
</g>
<!-- 140531497184168 -->
<g id="node36" class="node">
<title>140531497184168</title>
<ellipse fill="none" stroke="#000000" cx="1113" cy="-561" rx="27" ry="27"/>
<text text-anchor="middle" x="1113" y="-557.3" font-family="Times,serif" font-size="14.00" fill="#000000">p_5</text>
</g>
<!-- 140531497184280&#45;&gt;140531497184168 -->
<g id="edge22" class="edge">
<title>140531497184280&#45;&gt;140531497184168</title>
<path fill="none" stroke="#000000" d="M1027.1095,-444.004C1034.3514,-452.0842 1042.8106,-461.8422 1050,-471 1064.8433,-489.9072 1080.3408,-512.0112 1092.2509,-529.5819"/>
<polygon fill="#000000" stroke="#000000" points="1089.6422,-531.9744 1098.1296,-538.316 1095.4494,-528.0658 1089.6422,-531.9744"/>
</g>
<!-- 140531497184896 -->
<g id="node23" class="node">
<title>140531497184896</title>
<polygon fill="none" stroke="#000000" points="1255,-604 1176,-604 1176,-568 1255,-568 1255,-604"/>
<text text-anchor="middle" x="1215.5" y="-582.3" font-family="Times,serif" font-size="14.00" fill="#000000">init_loop_4</text>
</g>
<!-- 140531497184784 -->
<g id="node38" class="node">
<title>140531497184784</title>
<ellipse fill="none" stroke="#000000" cx="1318" cy="-718" rx="27" ry="27"/>
<text text-anchor="middle" x="1318" y="-714.3" font-family="Times,serif" font-size="14.00" fill="#000000">p_7</text>
</g>
<!-- 140531497184896&#45;&gt;140531497184784 -->
<g id="edge23" class="edge">
<title>140531497184896&#45;&gt;140531497184784</title>
<path fill="none" stroke="#000000" d="M1229.5373,-604.0773C1246.4574,-625.8671 1275.1186,-662.7771 1295.2203,-688.6642"/>
<polygon fill="#000000" stroke="#000000" points="1292.5227,-690.8969 1301.4204,-696.6487 1298.0516,-686.6037 1292.5227,-690.8969"/>
</g>
<!-- 140531497184504 -->
<g id="node24" class="node">
<title>140531497184504</title>
<polygon fill="none" stroke="#000000" points="1037.5,-579 983.5,-579 983.5,-543 1037.5,-543 1037.5,-579"/>
<text text-anchor="middle" x="1010.5" y="-557.3" font-family="Times,serif" font-size="14.00" fill="#000000">loop_3</text>
</g>
<!-- 140531497184504&#45;&gt;140531497184168 -->
<g id="edge24" class="edge">
<title>140531497184504&#45;&gt;140531497184168</title>
<path fill="none" stroke="#000000" d="M1037.699,-561C1049.2828,-561 1062.9866,-561 1075.5073,-561"/>
<polygon fill="#000000" stroke="#000000" points="1075.6739,-564.5001 1085.6739,-561 1075.6739,-557.5001 1075.6739,-564.5001"/>
</g>
<!-- 140531497185120 -->
<g id="node25" class="node">
<title>140531497185120</title>
<polygon fill="none" stroke="#000000" points="1140,-817 1086,-817 1086,-781 1140,-781 1140,-817"/>
<text text-anchor="middle" x="1113" y="-795.3" font-family="Times,serif" font-size="14.00" fill="#000000">loop_5</text>
</g>
<!-- 140531497185120&#45;&gt;140531497184784 -->
<g id="edge25" class="edge">
<title>140531497185120&#45;&gt;140531497184784</title>
<path fill="none" stroke="#000000" d="M1140.2224,-788.2438C1177.0486,-773.693 1242.7674,-747.7261 1283.1573,-731.7671"/>
<polygon fill="#000000" stroke="#000000" points="1284.5869,-734.9656 1292.601,-728.0357 1282.0145,-728.4554 1284.5869,-734.9656"/>
</g>
<!-- 140531497161336 -->
<g id="node26" class="node">
<title>140531497161336</title>
<polygon fill="none" stroke="#000000" points="710.5,-363 651.5,-363 651.5,-327 710.5,-327 710.5,-363"/>
<text text-anchor="middle" x="681" y="-341.3" font-family="Times,serif" font-size="14.00" fill="#000000">skip_10</text>
</g>
<!-- 140531497184056 -->
<g id="node35" class="node">
<title>140531497184056</title>
<ellipse fill="none" stroke="#000000" cx="908" cy="-460" rx="27" ry="27"/>
<text text-anchor="middle" x="908" y="-456.3" font-family="Times,serif" font-size="14.00" fill="#000000">p_4</text>
</g>
<!-- 140531497161336&#45;&gt;140531497184056 -->
<g id="edge56" class="edge">
<title>140531497161336&#45;&gt;140531497184056</title>
<path fill="none" stroke="#000000" d="M710.6005,-343.3131C745.3805,-342.7302 803.5879,-346.2484 845,-372 865.7054,-384.8754 881.6073,-407.3089 892.2553,-426.3023"/>
<polygon fill="#000000" stroke="#000000" points="889.2593,-428.1221 897.0585,-435.293 895.4334,-424.8236 889.2593,-428.1221"/>
</g>
<!-- 140531495725656 -->
<g id="node27" class="node">
<title>140531495725656</title>
<polygon fill="none" stroke="#000000" points="391,-772 337,-772 337,-736 391,-736 391,-772"/>
<text text-anchor="middle" x="364" y="-750.3" font-family="Times,serif" font-size="14.00" fill="#000000">skip_6</text>
</g>
<!-- 140531495723136 -->
<g id="node40" class="node">
<title>140531495723136</title>
<ellipse fill="none" stroke="#000000" cx="454" cy="-783" rx="27" ry="27"/>
<text text-anchor="middle" x="454" y="-779.3" font-family="Times,serif" font-size="14.00" fill="#000000">p_9</text>
</g>
<!-- 140531495725656&#45;&gt;140531495723136 -->
<g id="edge57" class="edge">
<title>140531495725656&#45;&gt;140531495723136</title>
<path fill="none" stroke="#000000" d="M391.003,-762.701C399.6725,-765.4945 409.4089,-768.6318 418.5874,-771.5893"/>
<polygon fill="#000000" stroke="#000000" points="417.6595,-774.9674 428.251,-774.7031 419.8064,-768.3048 417.6595,-774.9674"/>
</g>
<!-- 140531495725880 -->
<g id="node28" class="node">
<title>140531495725880</title>
<polygon fill="none" stroke="#000000" points="391,-650 337,-650 337,-614 391,-614 391,-650"/>
<text text-anchor="middle" x="364" y="-628.3" font-family="Times,serif" font-size="14.00" fill="#000000">skip_7</text>
</g>
<!-- 140531497184616 -->
<g id="node37" class="node">
<title>140531497184616</title>
<ellipse fill="none" stroke="#000000" cx="454" cy="-575" rx="27" ry="27"/>
<text text-anchor="middle" x="454" y="-571.3" font-family="Times,serif" font-size="14.00" fill="#000000">p_6</text>
</g>
<!-- 140531495725880&#45;&gt;140531497184616 -->
<g id="edge58" class="edge">
<title>140531495725880&#45;&gt;140531497184616</title>
<path fill="none" stroke="#000000" d="M391.003,-614.8981C400.8544,-608.6589 412.0837,-601.547 422.3063,-595.0727"/>
<polygon fill="#000000" stroke="#000000" points="424.3951,-597.8927 430.9706,-589.5853 420.6497,-591.9789 424.3951,-597.8927"/>
</g>
<!-- 140531495726160 -->
<g id="node29" class="node">
<title>140531495726160</title>
<polygon fill="none" stroke="#000000" points="1242.5,-707 1188.5,-707 1188.5,-671 1242.5,-671 1242.5,-707"/>
<text text-anchor="middle" x="1215.5" y="-685.3" font-family="Times,serif" font-size="14.00" fill="#000000">skip_8</text>
</g>
<!-- 140531495726160&#45;&gt;140531497184616 -->
<g id="edge59" class="edge">
<title>140531495726160&#45;&gt;140531497184616</title>
<path fill="none" stroke="#000000" d="M1188.4386,-695.8607C1073.648,-724.3004 627.7959,-827.8703 517,-750 493.8513,-733.7305 472.873,-657.728 461.9413,-611.3977"/>
<polygon fill="#000000" stroke="#000000" points="465.3002,-610.3878 459.6369,-601.4336 458.4802,-611.9651 465.3002,-610.3878"/>
</g>
<!-- 140531497161168 -->
<g id="node30" class="node">
<title>140531497161168</title>
<polygon fill="none" stroke="#000000" points="708,-417 654,-417 654,-381 708,-381 708,-417"/>
<text text-anchor="middle" x="681" y="-395.3" font-family="Times,serif" font-size="14.00" fill="#000000">skip_9</text>
</g>
<!-- 140531497161168&#45;&gt;140531497184728 -->
<g id="edge60" class="edge">
<title>140531497161168&#45;&gt;140531497184728</title>
<path fill="none" stroke="#000000" d="M708.0816,-396.2179C743.2513,-394.0862 804.8744,-395.5805 845,-426 853.6322,-432.5442 877.9464,-488.3375 893.7209,-526.119"/>
<polygon fill="#000000" stroke="#000000" points="890.6603,-527.8751 897.7279,-535.7682 897.125,-525.1905 890.6603,-527.8751"/>
</g>
<!-- 140531497181928 -->
<g id="node31" class="node">
<title>140531497181928</title>
<polygon fill="none" stroke="#000000" points="708,-309 654,-309 654,-273 708,-273 708,-309"/>
<text text-anchor="middle" x="681" y="-287.3" font-family="Times,serif" font-size="14.00" fill="#000000">tau_1</text>
</g>
<!-- 140531497181704 -->
<g id="node34" class="node">
<title>140531497181704</title>
<ellipse fill="none" stroke="#000000" cx="908" cy="-330" rx="27" ry="27"/>
<text text-anchor="middle" x="908" y="-326.3" font-family="Times,serif" font-size="14.00" fill="#000000">p_3</text>
</g>
<!-- 140531497181928&#45;&gt;140531497181704 -->
<g id="edge62" class="edge">
<title>140531497181928&#45;&gt;140531497181704</title>
<path fill="none" stroke="#000000" d="M708.0241,-295.2364C740.5606,-300.3861 796.8429,-309.4508 845,-318 853.5886,-319.5247 862.8207,-321.2401 871.4981,-322.8866"/>
<polygon fill="#000000" stroke="#000000" points="870.8785,-326.3314 881.3579,-324.7723 872.1934,-319.456 870.8785,-326.3314"/>
</g>
<!-- 140531495848648 -->
<g id="node32" class="node">
<title>140531495848648</title>
<ellipse fill="#00ff00" stroke="#000000" cx="454" cy="-300" rx="27" ry="27"/>
<text text-anchor="middle" x="454" y="-296.3" font-family="Times,serif" font-size="14.00" fill="#000000">1</text>
</g>
<!-- 140531495848648&#45;&gt;140531497181928 -->
<g id="edge61" class="edge">
<title>140531495848648&#45;&gt;140531497181928</title>
<path fill="none" stroke="#000000" d="M481.3815,-298.9144C521.9683,-297.3052 598.1969,-294.2829 643.8054,-292.4747"/>
<polygon fill="#000000" stroke="#000000" points="644.0213,-295.969 653.8747,-292.0755 643.7439,-288.9745 644.0213,-295.969"/>
</g>
<!-- 140531497184728&#45;&gt;140531497184504 -->
<g id="edge26" class="edge">
<title>140531497184728&#45;&gt;140531497184504</title>
<path fill="none" stroke="#000000" d="M935.199,-561C946.7828,-561 960.4866,-561 973.0073,-561"/>
<polygon fill="#000000" stroke="#000000" points="973.1739,-564.5001 983.1739,-561 973.1739,-557.5001 973.1739,-564.5001"/>
</g>
<!-- 140531497181704&#45;&gt;140531497184280 -->
<g id="edge27" class="edge">
<title>140531497181704&#45;&gt;140531497184280</title>
<path fill="none" stroke="#000000" d="M927.763,-348.5098C943.6037,-363.3459 965.9969,-384.3191 983.4925,-400.7052"/>
<polygon fill="#000000" stroke="#000000" points="981.454,-403.5913 991.1453,-407.8726 986.2391,-398.4822 981.454,-403.5913"/>
</g>
<!-- 140531497184056&#45;&gt;140531497184560 -->
<g id="edge28" class="edge">
<title>140531497184056&#45;&gt;140531497184560</title>
<path fill="none" stroke="#000000" d="M933.3371,-469.3933C945.5495,-473.9208 960.4259,-479.4359 973.8457,-484.4111"/>
<polygon fill="#000000" stroke="#000000" points="972.7079,-487.722 983.301,-487.9165 975.1413,-481.1585 972.7079,-487.722"/>
</g>
<!-- 140531497184168&#45;&gt;140531497184896 -->
<g id="edge29" class="edge">
<title>140531497184168&#45;&gt;140531497184896</title>
<path fill="none" stroke="#000000" d="M1139.3963,-567.4381C1147.4986,-569.4143 1156.6943,-571.6571 1165.8234,-573.8838"/>
<polygon fill="#000000" stroke="#000000" points="1165.1039,-577.3108 1175.6484,-576.2801 1166.7626,-570.5101 1165.1039,-577.3108"/>
</g>
<!-- 140531497184168&#45;&gt;140531495726160 -->
<g id="edge30" class="edge">
<title>140531497184168&#45;&gt;140531495726160</title>
<path fill="none" stroke="#000000" d="M1129.9258,-582.1366C1147.6265,-604.2409 1175.4369,-638.97 1194.5203,-662.801"/>
<polygon fill="#000000" stroke="#000000" points="1191.8928,-665.1192 1200.8755,-670.7372 1197.3568,-660.7438 1191.8928,-665.1192"/>
</g>
<!-- 140531497184616&#45;&gt;140531495726832 -->
<g id="edge31" class="edge">
<title>140531497184616&#45;&gt;140531495726832</title>
<path fill="none" stroke="#000000" d="M460.226,-601.3073C468.3302,-629.4346 485.354,-673.0733 517,-696 518.8511,-697.3411 520.7448,-698.6251 522.6765,-699.8541"/>
<polygon fill="#000000" stroke="#000000" points="520.9698,-702.9104 531.3765,-704.8984 524.481,-696.8546 520.9698,-702.9104"/>
</g>
<!-- 140531497184616&#45;&gt;140531495727000 -->
<g id="edge34" class="edge">
<title>140531497184616&#45;&gt;140531495727000</title>
<path fill="none" stroke="#000000" d="M469.1765,-597.6513C480.5242,-612.7062 497.4144,-631.5617 517,-642 520.3144,-643.7664 523.7157,-645.423 527.1865,-646.9764"/>
<polygon fill="#000000" stroke="#000000" points="525.9465,-650.2512 536.5243,-650.8517 528.6297,-643.7859 525.9465,-650.2512"/>
</g>
<!-- 140531497184616&#45;&gt;140531497160832 -->
<g id="edge32" class="edge">
<title>140531497184616&#45;&gt;140531497160832</title>
<path fill="none" stroke="#000000" d="M480.6226,-580.7414C491.833,-583.0946 505.031,-585.7808 517,-588 542.2976,-592.6905 569.868,-597.389 595.0591,-601.521"/>
<polygon fill="#000000" stroke="#000000" points="594.5213,-604.9794 604.9543,-603.1352 595.6483,-598.0707 594.5213,-604.9794"/>
</g>
<!-- 140531497184616&#45;&gt;140531497161000 -->
<g id="edge33" class="edge">
<title>140531497184616&#45;&gt;140531497161000</title>
<path fill="none" stroke="#000000" d="M481.3815,-573.3113C509.5368,-571.5748 554.8437,-568.7806 595.1823,-566.2927"/>
<polygon fill="#000000" stroke="#000000" points="595.5518,-569.7767 605.3174,-565.6676 595.1209,-562.79 595.5518,-569.7767"/>
</g>
<!-- 140531497184616&#45;&gt;140531495726664 -->
<g id="edge36" class="edge">
<title>140531497184616&#45;&gt;140531495726664</title>
<path fill="none" stroke="#000000" d="M475.2273,-558.0001C486.9072,-549.4967 502.0353,-539.8051 517,-534 539.1271,-525.4164 563.965,-519.5613 587.4876,-515.5675"/>
<polygon fill="#000000" stroke="#000000" points="588.1561,-519.0051 597.4765,-513.9673 587.0488,-512.0933 588.1561,-519.0051"/>
</g>
<!-- 140531497184616&#45;&gt;140531495726496 -->
<g id="edge35" class="edge">
<title>140531497184616&#45;&gt;140531495726496</title>
<path fill="none" stroke="#000000" d="M463.8473,-549.6575C473.8103,-527.5697 491.4108,-496.5539 517,-480 534.569,-468.6345 555.3438,-461.5414 576.0985,-457.2123"/>
<polygon fill="#000000" stroke="#000000" points="576.7658,-460.6482 585.945,-455.3574 575.4699,-453.7692 576.7658,-460.6482"/>
</g>
<!-- 140531497184616&#45;&gt;140531497161336 -->
<g id="edge37" class="edge">
<title>140531497184616&#45;&gt;140531497161336</title>
<path fill="none" stroke="#000000" d="M458.7619,-548.0318C468.0906,-498.3552 490.2165,-395.3267 517,-372 550.9652,-342.4185 604.4821,-338.8728 641.0806,-340.6107"/>
<polygon fill="#000000" stroke="#000000" points="641.1889,-344.1243 651.3891,-341.2598 641.6289,-337.1382 641.1889,-344.1243"/>
</g>
<!-- 140531497184616&#45;&gt;140531497161168 -->
<g id="edge38" class="edge">
<title>140531497184616&#45;&gt;140531497161168</title>
<path fill="none" stroke="#000000" d="M457.4831,-547.9422C463.3864,-513.8678 478.7145,-456.1437 517,-426 553.0077,-397.6497 607.46,-394.0843 643.6116,-395.4625"/>
<polygon fill="#000000" stroke="#000000" points="643.5769,-398.9655 653.7471,-395.9961 643.945,-391.9752 643.5769,-398.9655"/>
</g>
<!-- 140531497184784&#45;&gt;140531495724760 -->
<g id="edge47" class="edge">
<title>140531497184784&#45;&gt;140531495724760</title>
<path fill="none" stroke="#000000" d="M1313.3466,-691.2459C1294.3147,-586.1038 1218.3858,-207 1113,-207 364,-207 364,-207 364,-207 258.5966,-207 164.6428,-308.4266 125.2037,-357.7223"/>
<polygon fill="#000000" stroke="#000000" points="122.342,-355.6994 118.9146,-365.7246 127.8457,-360.0248 122.342,-355.6994"/>
</g>
<!-- 140531497184784&#45;&gt;140531495723416 -->
<g id="edge51" class="edge">
<title>140531497184784&#45;&gt;140531495723416</title>
<path fill="none" stroke="#000000" d="M1322.0499,-745.0873C1330.5232,-797.9299 1351.784,-911.8136 1381,-937 1423.9239,-974.0038 1491.1978,-976.664 1538.1018,-972.883"/>
<polygon fill="#000000" stroke="#000000" points="1538.4459,-976.3662 1548.0799,-971.9577 1537.7995,-969.3961 1538.4459,-976.3662"/>
</g>
<!-- 140531497184784&#45;&gt;140531495724424 -->
<g id="edge41" class="edge">
<title>140531497184784&#45;&gt;140531495724424</title>
<path fill="none" stroke="#000000" d="M1326.0824,-743.9896C1335.2356,-768.8002 1352.6794,-805.1174 1381,-824 1427.0178,-854.6822 1491.2748,-859.7258 1536.6583,-858.632"/>
<polygon fill="#000000" stroke="#000000" points="1537.031,-862.1212 1546.9026,-858.2739 1536.7864,-855.1255 1537.031,-862.1212"/>
</g>
<!-- 140531497184784&#45;&gt;140531495725432 -->
<g id="edge46" class="edge">
<title>140531497184784&#45;&gt;140531495725432</title>
<path fill="none" stroke="#000000" d="M1338.0441,-736.4824C1349.7296,-746.2182 1365.2376,-757.4637 1381,-764 1392.459,-768.7518 1404.528,-772.8249 1416.8506,-776.3156"/>
<polygon fill="#000000" stroke="#000000" points="1416.2143,-779.7689 1426.7806,-778.9921 1418.0361,-773.0101 1416.2143,-779.7689"/>
</g>
<!-- 140531497184784&#45;&gt;140531495724928 -->
<g id="edge42" class="edge">
<title>140531497184784&#45;&gt;140531495724928</title>
<path fill="none" stroke="#000000" d="M1345.2241,-719.8913C1372.4878,-721.7853 1416.5134,-724.8437 1459.8543,-727.8546"/>
<polygon fill="#000000" stroke="#000000" points="1459.7432,-731.3552 1469.9617,-728.5568 1460.2284,-724.3721 1459.7432,-731.3552"/>
</g>
<!-- 140531497184784&#45;&gt;140531495723584 -->
<g id="edge45" class="edge">
<title>140531497184784&#45;&gt;140531495723584</title>
<path fill="none" stroke="#000000" d="M1345.2241,-714.5161C1375.4982,-710.6419 1426.4401,-704.1228 1474.1626,-698.0158"/>
<polygon fill="#000000" stroke="#000000" points="1474.8138,-701.4611 1484.2886,-696.7199 1473.9252,-694.5177 1474.8138,-701.4611"/>
</g>
<!-- 140531497184784&#45;&gt;140531495724256 -->
<g id="edge40" class="edge">
<title>140531497184784&#45;&gt;140531495724256</title>
<path fill="none" stroke="#000000" d="M1334.3647,-696.2868C1345.8885,-682.5781 1362.5133,-665.6853 1381,-656 1405.2845,-643.2771 1433.0326,-634.5646 1460.2375,-628.6078"/>
<polygon fill="#000000" stroke="#000000" points="1461.1476,-631.9937 1470.2283,-626.5356 1459.7259,-625.1395 1461.1476,-631.9937"/>
</g>
<!-- 140531497184784&#45;&gt;140531495723920 -->
<g id="edge44" class="edge">
<title>140531497184784&#45;&gt;140531495723920</title>
<path fill="none" stroke="#000000" d="M1323.8074,-691.5484C1331.6745,-662.0792 1348.6178,-615.1508 1381,-589 1401.1258,-572.7471 1425.6151,-561.4729 1450.675,-553.6756"/>
<polygon fill="#000000" stroke="#000000" points="1451.6878,-557.0261 1460.2995,-550.8544 1449.7187,-550.3088 1451.6878,-557.0261"/>
</g>
<!-- 140531497184784&#45;&gt;140531495723752 -->
<g id="edge48" class="edge">
<title>140531497184784&#45;&gt;140531495723752</title>
<path fill="none" stroke="#000000" d="M1323.0349,-691.2269C1332.9112,-641.2729 1356.0478,-536.5163 1381,-510 1406.817,-482.5647 1443.149,-464.7272 1478.3746,-453.151"/>
<polygon fill="#000000" stroke="#000000" points="1479.7756,-456.3799 1488.2711,-450.0492 1477.682,-449.7003 1479.7756,-456.3799"/>
</g>
<!-- 140531497184784&#45;&gt;140531495725264 -->
<g id="edge43" class="edge">
<title>140531497184784&#45;&gt;140531495725264</title>
<path fill="none" stroke="#000000" d="M1320.6821,-690.736C1327.738,-623.4271 1348.5402,-451.4615 1381,-405 1417.2458,-353.1194 1481.7084,-318.171 1529.7797,-297.8819"/>
<polygon fill="#000000" stroke="#000000" points="1531.2479,-301.0625 1539.1622,-294.0189 1528.5828,-294.5897 1531.2479,-301.0625"/>
</g>
<!-- 140531497184784&#45;&gt;140531495724592 -->
<g id="edge50" class="edge">
<title>140531497184784&#45;&gt;140531495724592</title>
<path fill="none" stroke="#000000" d="M1319.513,-691.0112C1324.7434,-603.5166 1343.8115,-328.7653 1381,-249 1422.7207,-159.5137 1511.4902,-80.5269 1559.3404,-42.3285"/>
<polygon fill="#000000" stroke="#000000" points="1561.5339,-45.056 1567.2171,-36.1144 1557.1983,-39.5604 1561.5339,-45.056"/>
</g>
<!-- 140531497184784&#45;&gt;140531495724088 -->
<g id="edge49" class="edge">
<title>140531497184784&#45;&gt;140531495724088</title>
<path fill="none" stroke="#000000" d="M1319.2477,-745.1904C1323.1008,-816.2699 1337.317,-1004.9527 1381,-1046 1404.2592,-1067.8558 1435.8799,-1078.0121 1467.5401,-1081.884"/>
<polygon fill="#000000" stroke="#000000" points="1467.5077,-1085.3986 1477.8103,-1082.9272 1468.2152,-1078.4345 1467.5077,-1085.3986"/>
</g>
<!-- 140531497184784&#45;&gt;140531495723248 -->
<g id="edge39" class="edge">
<title>140531497184784&#45;&gt;140531495723248</title>
<path fill="none" stroke="#000000" d="M1320.3504,-745.0127C1326.3629,-807.4372 1344.4678,-958.8976 1381,-992 1395.9485,-1005.545 1414.1311,-1014.5314 1433.4807,-1020.2893"/>
<polygon fill="#000000" stroke="#000000" points="1432.8131,-1023.7338 1443.378,-1022.9377 1434.6226,-1016.9717 1432.8131,-1023.7338"/>
</g>
<!-- 140531497184784&#45;&gt;140531495725096 -->
<g id="edge52" class="edge">
<title>140531497184784&#45;&gt;140531495725096</title>
<path fill="none" stroke="#000000" d="M1320.2264,-745.1538C1324.815,-782.144 1338.7715,-847.5826 1381,-881 1417.5563,-909.9287 1469.3146,-917.3637 1512.359,-917.4758"/>
<polygon fill="#000000" stroke="#000000" points="1512.5684,-920.9739 1522.531,-917.3689 1512.4948,-913.9743 1512.5684,-920.9739"/>
</g>
<!-- 140531497185232&#45;&gt;140531495725656 -->
<g id="edge53" class="edge">
<title>140531497185232&#45;&gt;140531495725656</title>
<path fill="none" stroke="#000000" d="M301.003,-748.4003C309.0277,-749.1136 317.9665,-749.9081 326.5309,-750.6694"/>
<polygon fill="#000000" stroke="#000000" points="326.4344,-754.1745 336.705,-751.5738 327.0542,-747.202 326.4344,-754.1745"/>
</g>
<!-- 140531497185232&#45;&gt;140531495725880 -->
<g id="edge54" class="edge">
<title>140531497185232&#45;&gt;140531495725880</title>
<path fill="none" stroke="#000000" d="M290.9283,-724.5575C305.7865,-705.7371 327.4428,-678.3058 343.3226,-658.1914"/>
<polygon fill="#000000" stroke="#000000" points="346.0749,-660.3535 349.5243,-650.3358 340.5808,-656.0159 346.0749,-660.3535"/>
</g>
<!-- 140531495723136&#45;&gt;140531497185120 -->
<g id="edge55" class="edge">
<title>140531495723136&#45;&gt;140531497185120</title>
<path fill="none" stroke="#000000" d="M481.0622,-783.657C584.6258,-786.1715 955.9648,-795.1873 1075.5838,-798.0916"/>
<polygon fill="#000000" stroke="#000000" points="1075.6303,-801.5936 1085.7123,-798.3375 1075.8003,-794.5957 1075.6303,-801.5936"/>
</g>
</g>
</svg>
