<?xml version="1.0" encoding="UTF-8" standalone="no"?>
<!DOCTYPE svg PUBLIC "-//W3C//DTD SVG 1.1//EN"
 "http://www.w3.org/Graphics/SVG/1.1/DTD/svg11.dtd">
<!-- Generated by graphviz version 2.40.1 (20161225.0304)
 -->
<!-- Title: alpha_plus_net_1585315462.1818411 Pages: 1 -->
<svg width="506pt" height="1349pt"
 viewBox="0.00 0.00 506.00 1349.00" xmlns="http://www.w3.org/2000/svg" xmlns:xlink="http://www.w3.org/1999/xlink">
<g id="graph0" class="graph" transform="scale(1 1) rotate(0) translate(4 1345)">
<title>alpha_plus_net_1585315462.1818411</title>
<!-- 140178132616640 -->
<g id="node1" class="node">
<title>140178132616640</title>
<polygon fill="none" stroke="#000000" points="144.5,-36 28.5,-36 28.5,0 144.5,0 144.5,-36"/>
<text text-anchor="middle" x="86.5" y="-14.3" font-family="Times,serif" font-size="14.00" fill="#000000">AccountDataBean</text>
</g>
<!-- 140178132618152 -->
<g id="node2" class="node">
<title>140178132618152</title>
<polygon fill="none" stroke="#000000" points="162.5,-90 10.5,-90 10.5,-54 162.5,-54 162.5,-90"/>
<text text-anchor="middle" x="86.5" y="-68.3" font-family="Times,serif" font-size="14.00" fill="#000000">AccountProfileDataBean</text>
</g>
<!-- 140178132618768 -->
<g id="node3" class="node">
<title>140178132618768</title>
<polygon fill="none" stroke="#000000" points="147.5,-144 25.5,-144 25.5,-108 147.5,-108 147.5,-144"/>
<text text-anchor="middle" x="86.5" y="-122.3" font-family="Times,serif" font-size="14.00" fill="#000000">DTStreamer3MDB</text>
</g>
<!-- 140178132616080 -->
<g id="node4" class="node">
<title>140178132616080</title>
<polygon fill="none" stroke="#000000" points="133,-198 40,-198 40,-162 133,-162 133,-198"/>
<text text-anchor="middle" x="86.5" y="-176.3" font-family="Times,serif" font-size="14.00" fill="#000000">FinancialUtils</text>
</g>
<!-- 140178132617144 -->
<g id="node5" class="node">
<title>140178132617144</title>
<polygon fill="none" stroke="#000000" points="143.5,-252 29.5,-252 29.5,-216 143.5,-216 143.5,-252"/>
<text text-anchor="middle" x="86.5" y="-230.3" font-family="Times,serif" font-size="14.00" fill="#000000">HoldingDataBean</text>
</g>
<!-- 140178132616136 -->
<g id="node6" class="node">
<title>140178132616136</title>
<polygon fill="none" stroke="#000000" points="113.5,-306 59.5,-306 59.5,-270 113.5,-270 113.5,-306"/>
<text text-anchor="middle" x="86.5" y="-284.3" font-family="Times,serif" font-size="14.00" fill="#000000">Log</text>
</g>
<!-- 140178132618600 -->
<g id="node7" class="node">
<title>140178132618600</title>
<polygon fill="none" stroke="#000000" points="123.5,-360 49.5,-360 49.5,-324 123.5,-324 123.5,-360"/>
<text text-anchor="middle" x="86.5" y="-338.3" font-family="Times,serif" font-size="14.00" fill="#000000">MDBStats</text>
</g>
<!-- 140178132618264 -->
<g id="node24" class="node">
<title>140178132618264</title>
<ellipse fill="none" stroke="#000000" cx="255" cy="-369" rx="27" ry="27"/>
<text text-anchor="middle" x="255" y="-365.3" font-family="Times,serif" font-size="14.00" fill="#000000">({&#39;MDBStats&#39;}, {&#39;TimerStat&#39;})</text>
</g>
<!-- 140178132618600&#45;&gt;140178132618264 -->
<g id="edge12" class="edge">
<title>140178132618600&#45;&gt;140178132618264</title>
<path fill="none" stroke="#000000" d="M123.8956,-347.9922C151.9227,-352.4832 190.0933,-358.5995 218.0195,-363.0743"/>
<polygon fill="#000000" stroke="#000000" points="217.7506,-366.5758 228.1785,-364.7022 218.8582,-359.664 217.7506,-366.5758"/>
</g>
<!-- 140178132617088 -->
<g id="node8" class="node">
<title>140178132617088</title>
<polygon fill="none" stroke="#000000" points="168.5,-531 4.5,-531 4.5,-495 168.5,-495 168.5,-531"/>
<text text-anchor="middle" x="86.5" y="-509.3" font-family="Times,serif" font-size="14.00" fill="#000000">MarketSummaryDataBean</text>
</g>
<!-- 140178132617592 -->
<g id="node27" class="node">
<title>140178132617592</title>
<ellipse fill="none" stroke="#000000" cx="255" cy="-585" rx="27" ry="27"/>
<text text-anchor="middle" x="255" y="-581.3" font-family="Times,serif" font-size="14.00" fill="#000000">140178132617592</text>
</g>
<!-- 140178132617088&#45;&gt;140178132617592 -->
<g id="edge13" class="edge">
<title>140178132617088&#45;&gt;140178132617592</title>
<path fill="none" stroke="#000000" d="M144.0169,-531.1385C170.3779,-541.7683 200.6343,-555.031 222.8908,-565.8438"/>
<polygon fill="#000000" stroke="#000000" points="221.3908,-569.0067 231.9048,-570.313 224.5003,-562.7352 221.3908,-569.0067"/>
</g>
<!-- 140178132618880 -->
<g id="node30" class="node">
<title>140178132618880</title>
<ellipse fill="none" stroke="#000000" cx="255" cy="-513" rx="27" ry="27"/>
<text text-anchor="middle" x="255" y="-509.3" font-family="Times,serif" font-size="14.00" fill="#000000">140178132618880</text>
</g>
<!-- 140178132617088&#45;&gt;140178132618880 -->
<g id="edge14" class="edge">
<title>140178132617088&#45;&gt;140178132618880</title>
<path fill="none" stroke="#000000" d="M168.7756,-506.2516C186.1194,-506.2227 203.5748,-506.5753 218.1996,-507.3096"/>
<polygon fill="#000000" stroke="#000000" points="218.116,-510.8107 228.3065,-507.9116 218.5323,-503.8231 218.116,-510.8107"/>
</g>
<!-- 140178132615912 -->
<g id="node33" class="node">
<title>140178132615912</title>
<ellipse fill="none" stroke="#000000" cx="255" cy="-441" rx="27" ry="27"/>
<text text-anchor="middle" x="255" y="-437.3" font-family="Times,serif" font-size="14.00" fill="#000000">140178132615912</text>
</g>
<!-- 140178132617088&#45;&gt;140178132615912 -->
<g id="edge15" class="edge">
<title>140178132617088&#45;&gt;140178132615912</title>
<path fill="none" stroke="#000000" d="M116.6244,-494.812C145.3245,-480.754 188.5567,-462.1704 219.0464,-450.7156"/>
<polygon fill="#000000" stroke="#000000" points="220.28,-453.9912 228.4633,-447.2618 217.8696,-447.4193 220.28,-453.9912"/>
</g>
<!-- 140178132616976 -->
<g id="node9" class="node">
<title>140178132616976</title>
<polygon fill="none" stroke="#000000" points="167.5,-599 5.5,-599 5.5,-563 167.5,-563 167.5,-599"/>
<text text-anchor="middle" x="86.5" y="-577.3" font-family="Times,serif" font-size="14.00" fill="#000000">MarketSummarySingleton</text>
</g>
<!-- 140178132618432 -->
<g id="node10" class="node">
<title>140178132618432</title>
<polygon fill="none" stroke="#000000" points="173,-680 0,-680 0,-644 173,-644 173,-680"/>
<text text-anchor="middle" x="86.5" y="-658.3" font-family="Times,serif" font-size="14.00" fill="#000000">MarketSummaryWebSocket</text>
</g>
<!-- 140178132618040 -->
<g id="node11" class="node">
<title>140178132618040</title>
<polygon fill="none" stroke="#000000" points="137,-747 36,-747 36,-711 137,-711 137,-747"/>
<text text-anchor="middle" x="86.5" y="-725.3" font-family="Times,serif" font-size="14.00" fill="#000000">OrderDataBean</text>
</g>
<!-- 140178131697224 -->
<g id="node28" class="node">
<title>140178131697224</title>
<ellipse fill="none" stroke="#000000" cx="255" cy="-801" rx="27" ry="27"/>
<text text-anchor="middle" x="255" y="-797.3" font-family="Times,serif" font-size="14.00" fill="#000000">140178131697224</text>
</g>
<!-- 140178132618040&#45;&gt;140178131697224 -->
<g id="edge16" class="edge">
<title>140178132618040&#45;&gt;140178131697224</title>
<path fill="none" stroke="#000000" d="M137.4258,-734.2952C149.2675,-737.8133 161.7084,-742.1963 173,-747 191.6121,-754.918 211.5243,-765.7837 227.0656,-775.8909"/>
<polygon fill="#000000" stroke="#000000" points="225.4277,-779.0091 235.6682,-781.7262 229.3572,-773.216 225.4277,-779.0091"/>
</g>
<!-- 140178132615576 -->
<g id="node31" class="node">
<title>140178132615576</title>
<ellipse fill="none" stroke="#000000" cx="255" cy="-729" rx="27" ry="27"/>
<text text-anchor="middle" x="255" y="-725.3" font-family="Times,serif" font-size="14.00" fill="#000000">140178132615576</text>
</g>
<!-- 140178132618040&#45;&gt;140178132615576 -->
<g id="edge17" class="edge">
<title>140178132618040&#45;&gt;140178132615576</title>
<path fill="none" stroke="#000000" d="M137.0556,-722.7547C163.2329,-721.9283 194.6061,-722.1168 218.4126,-723.3203"/>
<polygon fill="#000000" stroke="#000000" points="218.2515,-726.8168 228.443,-723.9213 218.6703,-719.8294 218.2515,-726.8168"/>
</g>
<!-- 140178131696496 -->
<g id="node34" class="node">
<title>140178131696496</title>
<ellipse fill="none" stroke="#000000" cx="255" cy="-657" rx="27" ry="27"/>
<text text-anchor="middle" x="255" y="-653.3" font-family="Times,serif" font-size="14.00" fill="#000000">140178131696496</text>
</g>
<!-- 140178132618040&#45;&gt;140178131696496 -->
<g id="edge18" class="edge">
<title>140178132618040&#45;&gt;140178131696496</title>
<path fill="none" stroke="#000000" d="M116.6244,-710.812C145.3245,-696.754 188.5567,-678.1704 219.0464,-666.7156"/>
<polygon fill="#000000" stroke="#000000" points="220.28,-669.9912 228.4633,-663.2618 217.8696,-663.4193 220.28,-669.9912"/>
</g>
<!-- 140178132618096 -->
<g id="node12" class="node">
<title>140178132618096</title>
<polygon fill="none" stroke="#000000" points="141.5,-801 31.5,-801 31.5,-765 141.5,-765 141.5,-801"/>
<text text-anchor="middle" x="86.5" y="-779.3" font-family="Times,serif" font-size="14.00" fill="#000000">OrdersAlertFilter</text>
</g>
<!-- 140178132618936 -->
<g id="node13" class="node">
<title>140178132618936</title>
<polygon fill="none" stroke="#000000" points="138,-855 35,-855 35,-819 138,-819 138,-855"/>
<text text-anchor="middle" x="86.5" y="-833.3" font-family="Times,serif" font-size="14.00" fill="#000000">QuoteDataBean</text>
</g>
<!-- 140178132617984 -->
<g id="node14" class="node">
<title>140178132617984</title>
<polygon fill="none" stroke="#000000" points="160,-909 13,-909 13,-873 160,-873 160,-909"/>
<text text-anchor="middle" x="86.5" y="-887.3" font-family="Times,serif" font-size="14.00" fill="#000000">RecentStockChangeList</text>
</g>
<!-- 140178132616416 -->
<g id="node15" class="node">
<title>140178132616416</title>
<polygon fill="none" stroke="#000000" points="113.5,-963 59.5,-963 59.5,-927 113.5,-927 113.5,-963"/>
<text text-anchor="middle" x="86.5" y="-941.3" font-family="Times,serif" font-size="14.00" fill="#000000">Root</text>
</g>
<!-- 140178132615520 -->
<g id="node26" class="node">
<title>140178132615520</title>
<ellipse fill="#ffa500" stroke="#000000" cx="255" cy="-945" rx="27" ry="27"/>
</g>
<!-- 140178132616416&#45;&gt;140178132615520 -->
<g id="edge19" class="edge">
<title>140178132616416&#45;&gt;140178132615520</title>
<path fill="none" stroke="#000000" d="M113.5724,-945C141.8228,-945 186.3133,-945 217.8416,-945"/>
<polygon fill="#000000" stroke="#000000" points="217.9948,-948.5001 227.9947,-945 217.9947,-941.5001 217.9948,-948.5001"/>
</g>
<!-- 140178132617200 -->
<g id="node16" class="node">
<title>140178132617200</title>
<polygon fill="none" stroke="#000000" points="408,-382 337,-382 337,-346 408,-346 408,-382"/>
<text text-anchor="middle" x="372.5" y="-360.3" font-family="Times,serif" font-size="14.00" fill="#000000">TimerStat</text>
</g>
<!-- 140178132616920 -->
<g id="node25" class="node">
<title>140178132616920</title>
<ellipse fill="none" stroke="#000000" cx="471" cy="-337" rx="27" ry="27"/>
<text text-anchor="middle" x="471" y="-333.3" font-family="Times,serif" font-size="14.00" fill="#000000">({&#39;TimerStat&#39;}, {&#39;MDBStats&#39;})</text>
</g>
<!-- 140178132617200&#45;&gt;140178132616920 -->
<g id="edge20" class="edge">
<title>140178132617200&#45;&gt;140178132616920</title>
<path fill="none" stroke="#000000" d="M408.0608,-354.2524C416.7744,-351.8639 426.109,-349.3052 434.8499,-346.9092"/>
<polygon fill="#000000" stroke="#000000" points="436.0466,-350.2103 444.7655,-344.1912 434.196,-343.4594 436.0466,-350.2103"/>
</g>
<!-- 140178132617648 -->
<g id="node17" class="node">
<title>140178132617648</title>
<polygon fill="none" stroke="#000000" points="129,-1035 44,-1035 44,-999 129,-999 129,-1035"/>
<text text-anchor="middle" x="86.5" y="-1013.3" font-family="Times,serif" font-size="14.00" fill="#000000">TradeAction</text>
</g>
<!-- 140178132616808 -->
<g id="node18" class="node">
<title>140178132616808</title>
<polygon fill="none" stroke="#000000" points="141.5,-1107 31.5,-1107 31.5,-1071 141.5,-1071 141.5,-1107"/>
<text text-anchor="middle" x="86.5" y="-1085.3" font-family="Times,serif" font-size="14.00" fill="#000000">TradeAppServlet</text>
</g>
<!-- 140178132619048 -->
<g id="node29" class="node">
<title>140178132619048</title>
<ellipse fill="none" stroke="#000000" cx="255" cy="-1161" rx="27" ry="27"/>
<text text-anchor="middle" x="255" y="-1157.3" font-family="Times,serif" font-size="14.00" fill="#000000">140178132619048</text>
</g>
<!-- 140178132616808&#45;&gt;140178132619048 -->
<g id="edge21" class="edge">
<title>140178132616808&#45;&gt;140178132619048</title>
<path fill="none" stroke="#000000" d="M141.5461,-1095.5469C152.1232,-1098.8304 163.0113,-1102.7506 173,-1107 191.6121,-1114.918 211.5243,-1125.7837 227.0656,-1135.8909"/>
<polygon fill="#000000" stroke="#000000" points="225.4277,-1139.0091 235.6682,-1141.7262 229.3572,-1133.216 225.4277,-1139.0091"/>
</g>
<!-- 140178132615408 -->
<g id="node32" class="node">
<title>140178132615408</title>
<ellipse fill="none" stroke="#000000" cx="255" cy="-1089" rx="27" ry="27"/>
<text text-anchor="middle" x="255" y="-1085.3" font-family="Times,serif" font-size="14.00" fill="#000000">140178132615408</text>
</g>
<!-- 140178132616808&#45;&gt;140178132615408 -->
<g id="edge22" class="edge">
<title>140178132616808&#45;&gt;140178132615408</title>
<path fill="none" stroke="#000000" d="M141.6732,-1082.6208C166.6962,-1081.9579 195.6198,-1082.1839 217.9834,-1083.2987"/>
<polygon fill="#000000" stroke="#000000" points="217.8844,-1086.7989 228.0735,-1083.8953 218.2976,-1079.8111 217.8844,-1086.7989"/>
</g>
<!-- 140178132618656 -->
<g id="node35" class="node">
<title>140178132618656</title>
<ellipse fill="none" stroke="#000000" cx="255" cy="-1017" rx="27" ry="27"/>
<text text-anchor="middle" x="255" y="-1013.3" font-family="Times,serif" font-size="14.00" fill="#000000">140178132618656</text>
</g>
<!-- 140178132616808&#45;&gt;140178132618656 -->
<g id="edge23" class="edge">
<title>140178132616808&#45;&gt;140178132618656</title>
<path fill="none" stroke="#000000" d="M116.6244,-1070.812C145.3245,-1056.754 188.5567,-1038.1704 219.0464,-1026.7156"/>
<polygon fill="#000000" stroke="#000000" points="220.28,-1029.9912 228.4633,-1023.2618 217.8696,-1023.4193 220.28,-1029.9912"/>
</g>
<!-- 140178132618544 -->
<g id="node19" class="node">
<title>140178132618544</title>
<polygon fill="none" stroke="#000000" points="129.5,-1161 43.5,-1161 43.5,-1125 129.5,-1125 129.5,-1161"/>
<text text-anchor="middle" x="86.5" y="-1139.3" font-family="Times,serif" font-size="14.00" fill="#000000">TradeConfig</text>
</g>
<!-- 140178132617872 -->
<g id="node20" class="node">
<title>140178132617872</title>
<polygon fill="none" stroke="#000000" points="140.5,-1215 32.5,-1215 32.5,-1179 140.5,-1179 140.5,-1215"/>
<text text-anchor="middle" x="86.5" y="-1193.3" font-family="Times,serif" font-size="14.00" fill="#000000">TradeSLSBBean</text>
</g>
<!-- 140178132616696 -->
<g id="node21" class="node">
<title>140178132616696</title>
<polygon fill="none" stroke="#000000" points="148,-1269 25,-1269 25,-1233 148,-1233 148,-1269"/>
<text text-anchor="middle" x="86.5" y="-1247.3" font-family="Times,serif" font-size="14.00" fill="#000000">TradeServletAction</text>
</g>
<!-- 140178132618376 -->
<g id="node22" class="node">
<title>140178132618376</title>
<polygon fill="none" stroke="#000000" points="301,-1332 209,-1332 209,-1296 301,-1296 301,-1332"/>
<text text-anchor="middle" x="255" y="-1310.3" font-family="Times,serif" font-size="14.00" fill="#000000">artificial_start</text>
</g>
<!-- 140178132618320 -->
<g id="node23" class="node">
<title>140178132618320</title>
<ellipse fill="#00ff00" stroke="#000000" cx="86.5" cy="-1314" rx="27" ry="27"/>
<text text-anchor="middle" x="86.5" y="-1310.3" font-family="Times,serif" font-size="14.00" fill="#000000">1</text>
</g>
<!-- 140178132618320&#45;&gt;140178132618376 -->
<g id="edge24" class="edge">
<title>140178132618320&#45;&gt;140178132618376</title>
<path fill="none" stroke="#000000" d="M113.5724,-1314C136.4402,-1314 169.9491,-1314 198.6104,-1314"/>
<polygon fill="#000000" stroke="#000000" points="198.9219,-1317.5001 208.9218,-1314 198.9218,-1310.5001 198.9219,-1317.5001"/>
</g>
<!-- 140178132618264&#45;&gt;140178132617200 -->
<g id="edge3" class="edge">
<title>140178132618264&#45;&gt;140178132617200</title>
<path fill="none" stroke="#000000" d="M282.2522,-367.8403C295.4721,-367.2778 311.7129,-366.5867 326.756,-365.9466"/>
<polygon fill="#000000" stroke="#000000" points="327.0851,-369.4358 336.9273,-365.5137 326.7875,-362.4421 327.0851,-369.4358"/>
</g>
<!-- 140178132616920&#45;&gt;140178132618600 -->
<g id="edge8" class="edge">
<title>140178132616920&#45;&gt;140178132618600</title>
<path fill="none" stroke="#000000" d="M443.8336,-335.6567C396.2409,-333.5109 294.6937,-329.8563 209,-333 184.1443,-333.9118 156.5089,-335.861 133.7863,-337.713"/>
<polygon fill="#000000" stroke="#000000" points="133.3938,-334.2335 123.7195,-338.553 133.9759,-341.2093 133.3938,-334.2335"/>
</g>
<!-- 140178132617592&#45;&gt;140178132617088 -->
<g id="edge1" class="edge">
<title>140178132617592&#45;&gt;140178132617088</title>
<path fill="none" stroke="#000000" d="M228.4633,-578.7382C200.9326,-568.9206 157.5713,-550.6402 126.0099,-535.7032"/>
<polygon fill="#000000" stroke="#000000" points="127.1532,-532.3693 116.6244,-531.188 124.1185,-538.6773 127.1532,-532.3693"/>
</g>
<!-- 140178131697224&#45;&gt;140178132618040 -->
<g id="edge2" class="edge">
<title>140178131697224&#45;&gt;140178132618040</title>
<path fill="none" stroke="#000000" d="M229.0784,-792.8547C213.2678,-784.7394 192.4257,-773.2642 173,-765 160.3106,-759.6016 146.1695,-754.7345 133.0587,-750.3066"/>
<polygon fill="#000000" stroke="#000000" points="133.8689,-746.8861 123.2748,-747.0046 131.6305,-753.5186 133.8689,-746.8861"/>
</g>
<!-- 140178132619048&#45;&gt;140178132616808 -->
<g id="edge4" class="edge">
<title>140178132619048&#45;&gt;140178132616808</title>
<path fill="none" stroke="#000000" d="M229.0784,-1152.8547C213.2678,-1144.7394 192.4257,-1133.2642 173,-1125 160.3106,-1119.6016 146.1695,-1114.7345 133.0587,-1110.3066"/>
<polygon fill="#000000" stroke="#000000" points="133.8689,-1106.8861 123.2748,-1107.0046 131.6305,-1113.5186 133.8689,-1106.8861"/>
</g>
<!-- 140178132618880&#45;&gt;140178132617088 -->
<g id="edge5" class="edge">
<title>140178132618880&#45;&gt;140178132617088</title>
<path fill="none" stroke="#000000" d="M228.3065,-518.0884C214.5942,-519.0525 196.9847,-519.597 178.8698,-519.7221"/>
<polygon fill="#000000" stroke="#000000" points="178.7664,-516.2222 168.7756,-519.7484 178.7847,-523.2222 178.7664,-516.2222"/>
</g>
<!-- 140178132615576&#45;&gt;140178132618040 -->
<g id="edge6" class="edge">
<title>140178132615576&#45;&gt;140178132618040</title>
<path fill="none" stroke="#000000" d="M228.443,-734.0787C206.6781,-735.6163 175.0291,-736.093 147.1365,-735.5086"/>
<polygon fill="#000000" stroke="#000000" points="147.1436,-732.0077 137.0556,-735.2453 146.9607,-739.0053 147.1436,-732.0077"/>
</g>
<!-- 140178132615408&#45;&gt;140178132616808 -->
<g id="edge7" class="edge">
<title>140178132615408&#45;&gt;140178132616808</title>
<path fill="none" stroke="#000000" d="M228.0735,-1094.1047C207.5064,-1095.539 178.2706,-1096.0356 151.7017,-1095.5943"/>
<polygon fill="#000000" stroke="#000000" points="151.746,-1092.0945 141.6732,-1095.3792 151.5958,-1099.0929 151.746,-1092.0945"/>
</g>
<!-- 140178132615912&#45;&gt;140178132617088 -->
<g id="edge9" class="edge">
<title>140178132615912&#45;&gt;140178132617088</title>
<path fill="none" stroke="#000000" d="M231.9048,-455.687C211.6484,-465.9641 181.1661,-479.5898 153.335,-491.0616"/>
<polygon fill="#000000" stroke="#000000" points="151.9549,-487.8445 144.0169,-494.8615 154.5982,-494.3263 151.9549,-487.8445"/>
</g>
<!-- 140178131696496&#45;&gt;140178132618040 -->
<g id="edge10" class="edge">
<title>140178131696496&#45;&gt;140178132618040</title>
<path fill="none" stroke="#000000" d="M232.1247,-671.5753C210.2047,-682.711 176.167,-697.8202 146.5097,-709.8531"/>
<polygon fill="#000000" stroke="#000000" points="145.0353,-706.6734 137.0556,-713.6429 147.6399,-713.1708 145.0353,-706.6734"/>
</g>
<!-- 140178132618656&#45;&gt;140178132616808 -->
<g id="edge11" class="edge">
<title>140178132618656&#45;&gt;140178132616808</title>
<path fill="none" stroke="#000000" d="M232.1,-1031.5879C211.3251,-1042.1403 179.6802,-1056.2565 151.1928,-1067.9425"/>
<polygon fill="#000000" stroke="#000000" points="149.6244,-1064.8016 141.6732,-1071.8037 152.2555,-1071.2883 149.6244,-1064.8016"/>
</g>
</g>
</svg>
