<?xml version="1.0" encoding="UTF-8" standalone="no"?>
<!DOCTYPE svg PUBLIC "-//W3C//DTD SVG 1.1//EN"
 "http://www.w3.org/Graphics/SVG/1.1/DTD/svg11.dtd">
<!-- Generated by graphviz version 2.40.1 (20161225.0304)
 -->
<!-- Title: imdf_net_1585321098.2860596 Pages: 1 -->
<svg width="808pt" height="1016pt"
 viewBox="0.00 0.00 808.00 1016.00" xmlns="http://www.w3.org/2000/svg" xmlns:xlink="http://www.w3.org/1999/xlink">
<g id="graph0" class="graph" transform="scale(1 1) rotate(0) translate(4 1012)">
<title>imdf_net_1585321098.2860596</title>
<!-- 140531498873688 -->
<g id="node1" class="node">
<title>140531498873688</title>
<polygon fill="none" stroke="#000000" points="116,-495 0,-495 0,-459 116,-459 116,-495"/>
<text text-anchor="middle" x="58" y="-473.3" font-family="Times,serif" font-size="14.00" fill="#000000">AccountDataBean</text>
</g>
<!-- 140531476011216 -->
<g id="node31" class="node">
<title>140531476011216</title>
<ellipse fill="none" stroke="#000000" cx="179" cy="-538" rx="27" ry="27"/>
<text text-anchor="middle" x="179" y="-534.3" font-family="Times,serif" font-size="14.00" fill="#000000">p_6</text>
</g>
<!-- 140531498873688&#45;&gt;140531476011216 -->
<g id="edge5" class="edge">
<title>140531498873688&#45;&gt;140531476011216</title>
<path fill="none" stroke="#000000" d="M93.9764,-495.1369C110.3984,-503.4157 129.7221,-513.1574 145.7944,-521.26"/>
<polygon fill="#000000" stroke="#000000" points="144.3302,-524.4414 154.8353,-525.8178 147.4814,-518.1908 144.3302,-524.4414"/>
</g>
<!-- 140531498874976 -->
<g id="node2" class="node">
<title>140531498874976</title>
<polygon fill="none" stroke="#000000" points="789.5,-954 637.5,-954 637.5,-918 789.5,-918 789.5,-954"/>
<text text-anchor="middle" x="713.5" y="-932.3" font-family="Times,serif" font-size="14.00" fill="#000000">AccountProfileDataBean</text>
</g>
<!-- 140531498874976&#45;&gt;140531476011216 -->
<g id="edge9" class="edge">
<title>140531498874976&#45;&gt;140531476011216</title>
<path fill="none" stroke="#000000" d="M637.415,-937.8361C587.4186,-938.8876 520.5699,-940 461.5,-940 359,-940 359,-940 359,-940 303.8996,-940 277.6337,-941.0272 242,-899 200.8593,-850.4777 185.5498,-657.4635 180.8198,-575.3191"/>
<polygon fill="#000000" stroke="#000000" points="184.3058,-574.9686 180.2575,-565.1778 177.3165,-575.3562 184.3058,-574.9686"/>
</g>
<!-- 140531500782088 -->
<g id="node3" class="node">
<title>140531500782088</title>
<polygon fill="none" stroke="#000000" points="774.5,-900 652.5,-900 652.5,-864 774.5,-864 774.5,-900"/>
<text text-anchor="middle" x="713.5" y="-878.3" font-family="Times,serif" font-size="14.00" fill="#000000">DTStreamer3MDB</text>
</g>
<!-- 140531500782088&#45;&gt;140531476011216 -->
<g id="edge8" class="edge">
<title>140531500782088&#45;&gt;140531476011216</title>
<path fill="none" stroke="#000000" d="M652.2446,-889.5897C601.2812,-895.2475 526.7828,-902 461.5,-902 359,-902 359,-902 359,-902 305.0902,-902 278.5761,-909.6038 242,-870 202.701,-827.448 186.545,-653.0127 181.2113,-575.4639"/>
<polygon fill="#000000" stroke="#000000" points="184.6839,-574.9345 180.5292,-565.1883 177.6993,-575.3982 184.6839,-574.9345"/>
</g>
<!-- 140531500782760 -->
<g id="node4" class="node">
<title>140531500782760</title>
<polygon fill="none" stroke="#000000" points="760,-846 667,-846 667,-810 760,-810 760,-846"/>
<text text-anchor="middle" x="713.5" y="-824.3" font-family="Times,serif" font-size="14.00" fill="#000000">FinancialUtils</text>
</g>
<!-- 140531500782760&#45;&gt;140531476011216 -->
<g id="edge20" class="edge">
<title>140531500782760&#45;&gt;140531476011216</title>
<path fill="none" stroke="#000000" d="M666.8754,-817.2963C616.5086,-806.6845 533.7575,-792 461.5,-792 359,-792 359,-792 359,-792 300.7625,-792 279.8778,-777.2366 242,-733 203.0941,-687.5626 188.1177,-617.6941 182.4205,-575.0865"/>
<polygon fill="#000000" stroke="#000000" points="185.8906,-574.6283 181.1923,-565.1322 178.9433,-575.4856 185.8906,-574.6283"/>
</g>
<!-- 140531500782256 -->
<g id="node5" class="node">
<title>140531500782256</title>
<polygon fill="none" stroke="#000000" points="770.5,-792 656.5,-792 656.5,-756 770.5,-756 770.5,-792"/>
<text text-anchor="middle" x="713.5" y="-770.3" font-family="Times,serif" font-size="14.00" fill="#000000">HoldingDataBean</text>
</g>
<!-- 140531500782256&#45;&gt;140531476011216 -->
<g id="edge17" class="edge">
<title>140531500782256&#45;&gt;140531476011216</title>
<path fill="none" stroke="#000000" d="M656.3043,-766.8642C605.2945,-761.1205 528.5383,-754 461.5,-754 359,-754 359,-754 359,-754 300.9613,-754 281.3484,-738.6638 242,-696 210.2935,-661.622 193.706,-609.3124 185.6655,-574.4133"/>
<polygon fill="#000000" stroke="#000000" points="189.0802,-573.6447 183.5279,-564.6213 182.2413,-575.1377 189.0802,-573.6447"/>
</g>
<!-- 140531500785168 -->
<g id="node6" class="node">
<title>140531500785168</title>
<polygon fill="none" stroke="#000000" points="740.5,-738 686.5,-738 686.5,-702 740.5,-702 740.5,-738"/>
<text text-anchor="middle" x="713.5" y="-716.3" font-family="Times,serif" font-size="14.00" fill="#000000">Log</text>
</g>
<!-- 140531500785168&#45;&gt;140531476011216 -->
<g id="edge15" class="edge">
<title>140531500785168&#45;&gt;140531476011216</title>
<path fill="none" stroke="#000000" d="M686.28,-719.2849C640.0709,-718.1343 543.3228,-716 461.5,-716 359,-716 359,-716 359,-716 301.5411,-716 283.3129,-700.9346 242,-661 216.8804,-636.7185 199.9539,-600.2634 190.0273,-573.3402"/>
<polygon fill="#000000" stroke="#000000" points="193.3197,-572.1525 186.6846,-563.8926 186.7206,-574.4874 193.3197,-572.1525"/>
</g>
<!-- 140531500782424 -->
<g id="node7" class="node">
<title>140531500782424</title>
<polygon fill="none" stroke="#000000" points="750.5,-684 676.5,-684 676.5,-648 750.5,-648 750.5,-684"/>
<text text-anchor="middle" x="713.5" y="-662.3" font-family="Times,serif" font-size="14.00" fill="#000000">MDBStats</text>
</g>
<!-- 140531500782424&#45;&gt;140531476011216 -->
<g id="edge18" class="edge">
<title>140531500782424&#45;&gt;140531476011216</title>
<path fill="none" stroke="#000000" d="M676.379,-668.8743C627.2523,-672.4244 537.9303,-678 461.5,-678 359,-678 359,-678 359,-678 302.6238,-678 285.8035,-664.4897 242,-629 222.7543,-613.4071 206.9168,-590.4442 195.9349,-571.4871"/>
<polygon fill="#000000" stroke="#000000" points="198.8749,-569.5734 190.9402,-562.5526 192.7648,-572.9891 198.8749,-569.5734"/>
</g>
<!-- 140531499629704 -->
<g id="node8" class="node">
<title>140531499629704</title>
<polygon fill="none" stroke="#000000" points="795.5,-630 631.5,-630 631.5,-594 795.5,-594 795.5,-630"/>
<text text-anchor="middle" x="713.5" y="-608.3" font-family="Times,serif" font-size="14.00" fill="#000000">MarketSummaryDataBean</text>
</g>
<!-- 140531499629704&#45;&gt;140531476011216 -->
<g id="edge19" class="edge">
<title>140531499629704&#45;&gt;140531476011216</title>
<path fill="none" stroke="#000000" d="M631.4723,-625.7539C582.3221,-632.835 518.5049,-640 461.5,-640 359,-640 359,-640 359,-640 304.1872,-640 288.6266,-629.8168 242,-601 227.3208,-591.9278 213.4711,-578.7981 202.5158,-566.8704"/>
<polygon fill="#000000" stroke="#000000" points="205.0132,-564.4117 195.7549,-559.2605 199.7802,-569.061 205.0132,-564.4117"/>
</g>
<!-- 140531500783096 -->
<g id="node9" class="node">
<title>140531500783096</title>
<polygon fill="none" stroke="#000000" points="794.5,-576 632.5,-576 632.5,-540 794.5,-540 794.5,-576"/>
<text text-anchor="middle" x="713.5" y="-554.3" font-family="Times,serif" font-size="14.00" fill="#000000">MarketSummarySingleton</text>
</g>
<!-- 140531500783096&#45;&gt;140531476011216 -->
<g id="edge7" class="edge">
<title>140531500783096&#45;&gt;140531476011216</title>
<path fill="none" stroke="#000000" d="M647.1979,-576.0234C596.6952,-588.1746 525.231,-602 461.5,-602 359,-602 359,-602 359,-602 305.9173,-602 291.2167,-597.8871 242,-578 230.6653,-573.42 219.1272,-566.7819 209.0755,-560.2251"/>
<polygon fill="#000000" stroke="#000000" points="210.9115,-557.2415 200.6674,-554.5379 206.9896,-563.0397 210.9115,-557.2415"/>
</g>
<!-- 140531500785000 -->
<g id="node10" class="node">
<title>140531500785000</title>
<polygon fill="none" stroke="#000000" points="800,-522 627,-522 627,-486 800,-486 800,-522"/>
<text text-anchor="middle" x="713.5" y="-500.3" font-family="Times,serif" font-size="14.00" fill="#000000">MarketSummaryWebSocket</text>
</g>
<!-- 140531500785000&#45;&gt;140531476011216 -->
<g id="edge14" class="edge">
<title>140531500785000&#45;&gt;140531476011216</title>
<path fill="none" stroke="#000000" d="M653.7638,-522.06C644.762,-524.9507 635.6121,-527.9853 627,-531 610.7968,-536.672 607.5978,-540.6151 591,-545 534.7579,-559.8584 519.6717,-564 461.5,-564 359,-564 359,-564 359,-564 308.8529,-564 251.6471,-553.9927 215.4424,-546.3952"/>
<polygon fill="#000000" stroke="#000000" points="215.8741,-542.9081 205.3617,-544.2276 214.4025,-549.7517 215.8741,-542.9081"/>
</g>
<!-- 140531500785336 -->
<g id="node11" class="node">
<title>140531500785336</title>
<polygon fill="none" stroke="#000000" points="764,-468 663,-468 663,-432 764,-432 764,-468"/>
<text text-anchor="middle" x="713.5" y="-446.3" font-family="Times,serif" font-size="14.00" fill="#000000">OrderDataBean</text>
</g>
<!-- 140531500785336&#45;&gt;140531476011216 -->
<g id="edge1" class="edge">
<title>140531500785336&#45;&gt;140531476011216</title>
<path fill="none" stroke="#000000" d="M662.8229,-451.2766C611.9384,-452.4473 531.29,-454 461.5,-454 359,-454 359,-454 359,-454 305.0902,-454 289.8549,-461.177 242,-486 229.0587,-492.7128 216.3523,-502.4192 205.7788,-511.6326"/>
<polygon fill="#000000" stroke="#000000" points="203.2205,-509.2268 198.1404,-518.5243 207.9097,-514.424 203.2205,-509.2268"/>
</g>
<!-- 140531476009032 -->
<g id="node12" class="node">
<title>140531476009032</title>
<polygon fill="none" stroke="#000000" points="768.5,-306 658.5,-306 658.5,-270 768.5,-270 768.5,-306"/>
<text text-anchor="middle" x="713.5" y="-284.3" font-family="Times,serif" font-size="14.00" fill="#000000">OrdersAlertFilter</text>
</g>
<!-- 140531476009032&#45;&gt;140531476011216 -->
<g id="edge6" class="edge">
<title>140531476009032&#45;&gt;140531476011216</title>
<path fill="none" stroke="#000000" d="M658.2849,-272.2279C596.2416,-255.0529 499.2669,-230 461.5,-230 359,-230 359,-230 359,-230 304.5941,-230 279.0832,-226.19 242,-266 233.911,-274.6838 201.3205,-429.305 186.4562,-501.4649"/>
<polygon fill="#000000" stroke="#000000" points="182.9815,-500.9861 184.3967,-511.4859 189.8382,-502.3953 182.9815,-500.9861"/>
</g>
<!-- 140531500782928 -->
<g id="node13" class="node">
<title>140531500782928</title>
<polygon fill="none" stroke="#000000" points="765,-252 662,-252 662,-216 765,-216 765,-252"/>
<text text-anchor="middle" x="713.5" y="-230.3" font-family="Times,serif" font-size="14.00" fill="#000000">QuoteDataBean</text>
</g>
<!-- 140531500782928&#45;&gt;140531476011216 -->
<g id="edge4" class="edge">
<title>140531500782928&#45;&gt;140531476011216</title>
<path fill="none" stroke="#000000" d="M661.7948,-220.2476C611.1458,-207.9987 531.5785,-192 461.5,-192 359,-192 359,-192 359,-192 304.4618,-192 278.4843,-188.4621 242,-229 237.4159,-234.0934 201.452,-420.3051 186.0078,-501.1547"/>
<polygon fill="#000000" stroke="#000000" points="182.4928,-500.9028 184.0564,-511.3816 189.3688,-502.2149 182.4928,-500.9028"/>
</g>
<!-- 140531500785560 -->
<g id="node14" class="node">
<title>140531500785560</title>
<polygon fill="none" stroke="#000000" points="787,-198 640,-198 640,-162 787,-162 787,-198"/>
<text text-anchor="middle" x="713.5" y="-176.3" font-family="Times,serif" font-size="14.00" fill="#000000">RecentStockChangeList</text>
</g>
<!-- 140531500785560&#45;&gt;140531476011216 -->
<g id="edge11" class="edge">
<title>140531500785560&#45;&gt;140531476011216</title>
<path fill="none" stroke="#000000" d="M639.8272,-168.3688C589.6898,-161.4462 521.7557,-154 461.5,-154 359,-154 359,-154 359,-154 304.5941,-154 277.9661,-149.178 242,-190 180.2686,-260.066 222.7818,-305.1394 206,-397 199.5175,-432.4843 191.7352,-472.9119 186.1946,-501.3526"/>
<polygon fill="#000000" stroke="#000000" points="182.742,-500.7717 184.2613,-511.257 189.6124,-502.1128 182.742,-500.7717"/>
</g>
<!-- 140531476009200 -->
<g id="node15" class="node">
<title>140531476009200</title>
<polygon fill="none" stroke="#000000" points="488.5,-865 434.5,-865 434.5,-829 488.5,-829 488.5,-865"/>
<text text-anchor="middle" x="461.5" y="-843.3" font-family="Times,serif" font-size="14.00" fill="#000000">Root</text>
</g>
<!-- 140531498337336 -->
<g id="node33" class="node">
<title>140531498337336</title>
<ellipse fill="#ffa500" stroke="#000000" cx="564" cy="-847" rx="27" ry="27"/>
</g>
<!-- 140531476009200&#45;&gt;140531498337336 -->
<g id="edge13" class="edge">
<title>140531476009200&#45;&gt;140531498337336</title>
<path fill="none" stroke="#000000" d="M488.699,-847C500.2828,-847 513.9866,-847 526.5073,-847"/>
<polygon fill="#000000" stroke="#000000" points="526.6739,-850.5001 536.6739,-847 526.6739,-843.5001 526.6739,-850.5001"/>
</g>
<!-- 140531498875480 -->
<g id="node16" class="node">
<title>140531498875480</title>
<polygon fill="none" stroke="#000000" points="749,-144 678,-144 678,-108 749,-108 749,-144"/>
<text text-anchor="middle" x="713.5" y="-122.3" font-family="Times,serif" font-size="14.00" fill="#000000">TimerStat</text>
</g>
<!-- 140531498875480&#45;&gt;140531476011216 -->
<g id="edge12" class="edge">
<title>140531498875480&#45;&gt;140531476011216</title>
<path fill="none" stroke="#000000" d="M677.6291,-123.6807C628.7723,-120.7266 538.5606,-116 461.5,-116 359,-116 359,-116 359,-116 304.5941,-116 277.4263,-110.7086 242,-152 206.1679,-193.7643 215.1769,-342.7415 206,-397 199.9846,-432.5664 192.1412,-472.9834 186.4594,-501.3992"/>
<polygon fill="#000000" stroke="#000000" points="183.0098,-500.8004 184.4712,-511.2939 189.8726,-502.1794 183.0098,-500.8004"/>
</g>
<!-- 140531500782592 -->
<g id="node17" class="node">
<title>140531500782592</title>
<polygon fill="none" stroke="#000000" points="756,-90 671,-90 671,-54 756,-54 756,-90"/>
<text text-anchor="middle" x="713.5" y="-68.3" font-family="Times,serif" font-size="14.00" fill="#000000">TradeAction</text>
</g>
<!-- 140531500782592&#45;&gt;140531476011216 -->
<g id="edge3" class="edge">
<title>140531500782592&#45;&gt;140531476011216</title>
<path fill="none" stroke="#000000" d="M670.6953,-72.2733C620.559,-72.5693 535.0006,-73 461.5,-73 359,-73 359,-73 359,-73 303.7511,-73 276.5922,-71.9207 242,-115 202.445,-164.2597 215.9456,-334.6125 206,-397 200.3038,-432.7314 192.3854,-473.2802 186.5969,-501.6923"/>
<polygon fill="#000000" stroke="#000000" points="183.1497,-501.0801 184.5687,-511.5794 190.0069,-502.4868 183.1497,-501.0801"/>
</g>
<!-- 140531500626832 -->
<g id="node18" class="node">
<title>140531500626832</title>
<polygon fill="none" stroke="#000000" points="768.5,-36 658.5,-36 658.5,0 768.5,0 768.5,-36"/>
<text text-anchor="middle" x="713.5" y="-14.3" font-family="Times,serif" font-size="14.00" fill="#000000">TradeAppServlet</text>
</g>
<!-- 140531500626832&#45;&gt;140531476011216 -->
<g id="edge2" class="edge">
<title>140531500626832&#45;&gt;140531476011216</title>
<path fill="none" stroke="#000000" d="M658.4621,-21.0973C607.4237,-23.7007 529.3557,-27 461.5,-27 359,-27 359,-27 359,-27 302.9612,-27 275.9098,-29.3853 242,-74 198.2974,-131.499 216.7998,-325.5898 206,-397 200.5894,-432.7757 192.6327,-473.3186 186.7575,-501.7173"/>
<polygon fill="#000000" stroke="#000000" points="183.312,-501.0951 184.6957,-511.5991 190.1644,-502.5248 183.312,-501.0951"/>
</g>
<!-- 140531500784048 -->
<g id="node19" class="node">
<title>140531500784048</title>
<polygon fill="none" stroke="#000000" points="756.5,-414 670.5,-414 670.5,-378 756.5,-378 756.5,-414"/>
<text text-anchor="middle" x="713.5" y="-392.3" font-family="Times,serif" font-size="14.00" fill="#000000">TradeConfig</text>
</g>
<!-- 140531500784048&#45;&gt;140531476011216 -->
<g id="edge16" class="edge">
<title>140531500784048&#45;&gt;140531476011216</title>
<path fill="none" stroke="#000000" d="M670.2118,-383.0572C656.3496,-378.7607 640.975,-373.8359 627,-369 552.6226,-343.2625 540.2046,-306 461.5,-306 359,-306 359,-306 359,-306 305.5317,-306 281.0097,-297.4335 242,-334 217.5974,-356.8742 196.2916,-448.8783 185.8436,-501.1775"/>
<polygon fill="#000000" stroke="#000000" points="182.3925,-500.5889 183.9011,-511.0757 189.2615,-501.9369 182.3925,-500.5889"/>
</g>
<!-- 140531499804040 -->
<g id="node20" class="node">
<title>140531499804040</title>
<polygon fill="none" stroke="#000000" points="767.5,-360 659.5,-360 659.5,-324 767.5,-324 767.5,-360"/>
<text text-anchor="middle" x="713.5" y="-338.3" font-family="Times,serif" font-size="14.00" fill="#000000">TradeSLSBBean</text>
</g>
<!-- 140531499804040&#45;&gt;140531476011216 -->
<g id="edge10" class="edge">
<title>140531499804040&#45;&gt;140531476011216</title>
<path fill="none" stroke="#000000" d="M659.1995,-325.2083C588.1932,-303.3752 471.5884,-268 461.5,-268 359,-268 359,-268 359,-268 304.8489,-268 279.8682,-263.2916 242,-302 227.9542,-316.3574 200.194,-438.7159 186.7107,-501.3596"/>
<polygon fill="#000000" stroke="#000000" points="183.267,-500.7265 184.5964,-511.2376 190.112,-502.1916 183.267,-500.7265"/>
</g>
<!-- 140531500784720 -->
<g id="node21" class="node">
<title>140531500784720</title>
<polygon fill="none" stroke="#000000" points="775,-1008 652,-1008 652,-972 775,-972 775,-1008"/>
<text text-anchor="middle" x="713.5" y="-986.3" font-family="Times,serif" font-size="14.00" fill="#000000">TradeServletAction</text>
</g>
<!-- 140531500784720&#45;&gt;140531476011216 -->
<g id="edge21" class="edge">
<title>140531500784720&#45;&gt;140531476011216</title>
<path fill="none" stroke="#000000" d="M651.8837,-988.4764C600.8661,-987.346 526.4769,-986 461.5,-986 359,-986 359,-986 359,-986 301.5411,-986 276.5515,-976.9099 242,-931 199.9679,-875.1504 185.0239,-662.1291 180.6044,-575.236"/>
<polygon fill="#000000" stroke="#000000" points="184.0903,-574.8589 180.1052,-565.0421 177.0986,-575.2014 184.0903,-574.8589"/>
</g>
<!-- 140531476009368 -->
<g id="node22" class="node">
<title>140531476009368</title>
<polygon fill="none" stroke="#000000" points="501,-383 422,-383 422,-347 501,-347 501,-383"/>
<text text-anchor="middle" x="461.5" y="-361.3" font-family="Times,serif" font-size="14.00" fill="#000000">init_loop_2</text>
</g>
<!-- 140531476009424 -->
<g id="node30" class="node">
<title>140531476009424</title>
<ellipse fill="none" stroke="#000000" cx="564" cy="-509" rx="27" ry="27"/>
<text text-anchor="middle" x="564" y="-505.3" font-family="Times,serif" font-size="14.00" fill="#000000">p_5</text>
</g>
<!-- 140531476009368&#45;&gt;140531476009424 -->
<g id="edge22" class="edge">
<title>140531476009368&#45;&gt;140531476009424</title>
<path fill="none" stroke="#000000" d="M483.1197,-383.1689C489.2637,-388.8654 495.7148,-395.3984 501,-402 519.2723,-424.8236 535.8662,-453.496 547.4315,-475.4139"/>
<polygon fill="#000000" stroke="#000000" points="544.359,-477.0918 552.0704,-484.357 550.5727,-473.8686 544.359,-477.0918"/>
</g>
<!-- 140531476011272 -->
<g id="node23" class="node">
<title>140531476011272</title>
<polygon fill="none" stroke="#000000" points="488.5,-527 434.5,-527 434.5,-491 488.5,-491 488.5,-527"/>
<text text-anchor="middle" x="461.5" y="-505.3" font-family="Times,serif" font-size="14.00" fill="#000000">loop_3</text>
</g>
<!-- 140531476011272&#45;&gt;140531476009424 -->
<g id="edge23" class="edge">
<title>140531476011272&#45;&gt;140531476009424</title>
<path fill="none" stroke="#000000" d="M488.699,-509C500.2828,-509 513.9866,-509 526.5073,-509"/>
<polygon fill="#000000" stroke="#000000" points="526.6739,-512.5001 536.6739,-509 526.6739,-505.5001 526.6739,-512.5001"/>
</g>
<!-- 140531500783936 -->
<g id="node24" class="node">
<title>140531500783936</title>
<polygon fill="none" stroke="#000000" points="296,-531 242,-531 242,-495 296,-495 296,-531"/>
<text text-anchor="middle" x="269" y="-509.3" font-family="Times,serif" font-size="14.00" fill="#000000">skip_4</text>
</g>
<!-- 140531476009088 -->
<g id="node32" class="node">
<title>140531476009088</title>
<ellipse fill="none" stroke="#000000" cx="359" cy="-509" rx="27" ry="27"/>
<text text-anchor="middle" x="359" y="-505.3" font-family="Times,serif" font-size="14.00" fill="#000000">p_7</text>
</g>
<!-- 140531500783936&#45;&gt;140531476009088 -->
<g id="edge49" class="edge">
<title>140531500783936&#45;&gt;140531476009088</title>
<path fill="none" stroke="#000000" d="M296.003,-511.7999C304.1013,-511.4399 313.1306,-511.0386 321.7665,-510.6548"/>
<polygon fill="#000000" stroke="#000000" points="322.1814,-514.1399 332.0161,-510.1993 321.8705,-507.1468 322.1814,-514.1399"/>
</g>
<!-- 140531500783824 -->
<g id="node25" class="node">
<title>140531500783824</title>
<polygon fill="none" stroke="#000000" points="296,-861 242,-861 242,-825 296,-825 296,-861"/>
<text text-anchor="middle" x="269" y="-839.3" font-family="Times,serif" font-size="14.00" fill="#000000">skip_5</text>
</g>
<!-- 140531476009536 -->
<g id="node29" class="node">
<title>140531476009536</title>
<ellipse fill="none" stroke="#000000" cx="359" cy="-847" rx="27" ry="27"/>
<text text-anchor="middle" x="359" y="-843.3" font-family="Times,serif" font-size="14.00" fill="#000000">p_4</text>
</g>
<!-- 140531500783824&#45;&gt;140531476009536 -->
<g id="edge50" class="edge">
<title>140531500783824&#45;&gt;140531476009536</title>
<path fill="none" stroke="#000000" d="M296.003,-844.2001C304.1013,-844.5601 313.1306,-844.9614 321.7665,-845.3452"/>
<polygon fill="#000000" stroke="#000000" points="321.8705,-848.8532 332.0161,-845.8007 322.1814,-841.8601 321.8705,-848.8532"/>
</g>
<!-- 140531476009704 -->
<g id="node26" class="node">
<title>140531476009704</title>
<polygon fill="none" stroke="#000000" points="296,-379 242,-379 242,-343 296,-343 296,-379"/>
<text text-anchor="middle" x="269" y="-357.3" font-family="Times,serif" font-size="14.00" fill="#000000">tau_1</text>
</g>
<!-- 140531498337280 -->
<g id="node28" class="node">
<title>140531498337280</title>
<ellipse fill="none" stroke="#000000" cx="359" cy="-361" rx="27" ry="27"/>
<text text-anchor="middle" x="359" y="-357.3" font-family="Times,serif" font-size="14.00" fill="#000000">p_3</text>
</g>
<!-- 140531476009704&#45;&gt;140531498337280 -->
<g id="edge52" class="edge">
<title>140531476009704&#45;&gt;140531498337280</title>
<path fill="none" stroke="#000000" d="M296.003,-361C304.0277,-361 312.9665,-361 321.5309,-361"/>
<polygon fill="#000000" stroke="#000000" points="321.7051,-364.5001 331.705,-361 321.705,-357.5001 321.7051,-364.5001"/>
</g>
<!-- 140531496758856 -->
<g id="node27" class="node">
<title>140531496758856</title>
<ellipse fill="#00ff00" stroke="#000000" cx="179" cy="-361" rx="27" ry="27"/>
<text text-anchor="middle" x="179" y="-357.3" font-family="Times,serif" font-size="14.00" fill="#000000">1</text>
</g>
<!-- 140531496758856&#45;&gt;140531476009704 -->
<g id="edge51" class="edge">
<title>140531496758856&#45;&gt;140531476009704</title>
<path fill="none" stroke="#000000" d="M206.003,-361C214.0277,-361 222.9665,-361 231.5309,-361"/>
<polygon fill="#000000" stroke="#000000" points="231.7051,-364.5001 241.705,-361 231.705,-357.5001 231.7051,-364.5001"/>
</g>
<!-- 140531498337280&#45;&gt;140531476009368 -->
<g id="edge24" class="edge">
<title>140531498337280&#45;&gt;140531476009368</title>
<path fill="none" stroke="#000000" d="M386.199,-362.0614C394.0426,-362.3675 402.8582,-362.7115 411.6204,-363.0535"/>
<polygon fill="#000000" stroke="#000000" points="411.6915,-366.5588 421.8204,-363.4515 411.9645,-359.5641 411.6915,-366.5588"/>
</g>
<!-- 140531476009536&#45;&gt;140531476009200 -->
<g id="edge25" class="edge">
<title>140531476009536&#45;&gt;140531476009200</title>
<path fill="none" stroke="#000000" d="M386.199,-847C397.7828,-847 411.4866,-847 424.0073,-847"/>
<polygon fill="#000000" stroke="#000000" points="424.1739,-850.5001 434.1739,-847 424.1739,-843.5001 424.1739,-850.5001"/>
</g>
<!-- 140531476009424&#45;&gt;140531498873688 -->
<g id="edge30" class="edge">
<title>140531476009424&#45;&gt;140531498873688</title>
<path fill="none" stroke="#000000" d="M542.7048,-491.9424C506.9712,-465.0941 431.6914,-416 359,-416 269,-416 269,-416 269,-416 211.1596,-416 147.7848,-437.4157 105.7405,-454.8688"/>
<polygon fill="#000000" stroke="#000000" points="104.1577,-451.7382 96.3164,-458.8631 106.8894,-458.1832 104.1577,-451.7382"/>
</g>
<!-- 140531476009424&#45;&gt;140531498874976 -->
<g id="edge34" class="edge">
<title>140531476009424&#45;&gt;140531498874976</title>
<path fill="none" stroke="#000000" d="M566.605,-536.0646C575.0395,-621.3579 602.478,-880.5987 627,-909 627.8675,-910.0047 628.7717,-910.9725 629.7094,-911.9048"/>
<polygon fill="#000000" stroke="#000000" points="627.5692,-914.677 637.4967,-918.3777 632.0438,-909.2939 627.5692,-914.677"/>
</g>
<!-- 140531476009424&#45;&gt;140531500782088 -->
<g id="edge33" class="edge">
<title>140531476009424&#45;&gt;140531500782088</title>
<path fill="none" stroke="#000000" d="M565.3924,-536.1773C569.6709,-609.2268 584.9811,-807.4932 627,-855 631.5518,-860.1463 637.0679,-864.3225 643.0868,-867.7098"/>
<polygon fill="#000000" stroke="#000000" points="641.6857,-870.92 652.2113,-872.1293 644.7371,-864.6201 641.6857,-870.92"/>
</g>
<!-- 140531476009424&#45;&gt;140531500782760 -->
<g id="edge44" class="edge">
<title>140531476009424&#45;&gt;140531500782760</title>
<path fill="none" stroke="#000000" d="M566.417,-536.3681C572.6831,-601.3005 591.4919,-762.141 627,-801 634.9616,-809.7129 645.6857,-815.6379 656.8694,-819.6607"/>
<polygon fill="#000000" stroke="#000000" points="656.1699,-823.1082 666.758,-822.7285 658.2441,-816.4226 656.1699,-823.1082"/>
</g>
<!-- 140531476009424&#45;&gt;140531500782256 -->
<g id="edge41" class="edge">
<title>140531476009424&#45;&gt;140531500782256</title>
<path fill="none" stroke="#000000" d="M567.7938,-535.8278C576.1646,-591.4095 597.8147,-716.5081 627,-747 632.5835,-752.8334 639.4053,-757.4131 646.7444,-761.0072"/>
<polygon fill="#000000" stroke="#000000" points="645.6908,-764.3623 656.2631,-765.0528 648.4289,-757.9201 645.6908,-764.3623"/>
</g>
<!-- 140531476009424&#45;&gt;140531500785168 -->
<g id="edge39" class="edge">
<title>140531476009424&#45;&gt;140531500785168</title>
<path fill="none" stroke="#000000" d="M565.7752,-536.1506C569.8421,-576.0469 583.199,-650.3798 627,-693 640.1654,-705.8105 659.3165,-712.552 676.254,-716.0957"/>
<polygon fill="#000000" stroke="#000000" points="675.9811,-719.6022 686.4407,-717.9146 677.2116,-712.7112 675.9811,-719.6022"/>
</g>
<!-- 140531476009424&#45;&gt;140531500782424 -->
<g id="edge42" class="edge">
<title>140531476009424&#45;&gt;140531500782424</title>
<path fill="none" stroke="#000000" d="M570.1151,-535.5653C578.2276,-564.9535 595.3605,-611.7475 627,-639 638.0305,-648.501 652.3891,-654.6612 666.2285,-658.6544"/>
<polygon fill="#000000" stroke="#000000" points="665.6034,-662.1072 676.1589,-661.1958 667.339,-655.3257 665.6034,-662.1072"/>
</g>
<!-- 140531476009424&#45;&gt;140531499629704 -->
<g id="edge43" class="edge">
<title>140531476009424&#45;&gt;140531499629704</title>
<path fill="none" stroke="#000000" d="M578.0896,-532.3737C589.3715,-549.2378 606.6437,-571.3525 627,-585 629.1724,-586.4564 631.4274,-587.8376 633.7452,-589.1471"/>
<polygon fill="#000000" stroke="#000000" points="632.4565,-592.4189 642.9542,-593.8503 635.6404,-586.1848 632.4565,-592.4189"/>
</g>
<!-- 140531476009424&#45;&gt;140531500783096 -->
<g id="edge32" class="edge">
<title>140531476009424&#45;&gt;140531500783096</title>
<path fill="none" stroke="#000000" d="M589.6813,-518.186C601.0817,-522.2075 614.6802,-526.9275 627,-531 632.8814,-532.9442 639,-534.9291 645.1435,-536.8962"/>
<polygon fill="#000000" stroke="#000000" points="644.1974,-540.2679 654.7878,-539.9641 646.3194,-533.5973 644.1974,-540.2679"/>
</g>
<!-- 140531476009424&#45;&gt;140531500785000 -->
<g id="edge38" class="edge">
<title>140531476009424&#45;&gt;140531500785000</title>
<path fill="none" stroke="#000000" d="M591.0733,-508.0945C598.6739,-507.8403 607.4032,-507.5484 616.6263,-507.2399"/>
<polygon fill="#000000" stroke="#000000" points="616.9208,-510.7321 626.7982,-506.8997 616.6867,-503.736 616.9208,-510.7321"/>
</g>
<!-- 140531476009424&#45;&gt;140531500785336 -->
<g id="edge26" class="edge">
<title>140531476009424&#45;&gt;140531500785336</title>
<path fill="none" stroke="#000000" d="M587.7914,-495.725C599.4026,-489.556 613.7045,-482.4073 627,-477 635.3475,-473.6051 644.2902,-470.3777 653.1437,-467.4127"/>
<polygon fill="#000000" stroke="#000000" points="654.2605,-470.73 662.6833,-464.3029 652.091,-464.0747 654.2605,-470.73"/>
</g>
<!-- 140531476009424&#45;&gt;140531476009032 -->
<g id="edge31" class="edge">
<title>140531476009424&#45;&gt;140531476009032</title>
<path fill="none" stroke="#000000" d="M569.4707,-482.429C579.718,-435.065 602.9503,-338.776 627,-315 633.259,-308.8123 640.9134,-304.0395 649.0544,-300.3589"/>
<polygon fill="#000000" stroke="#000000" points="650.3993,-303.5908 658.4042,-296.6501 647.8183,-297.084 650.3993,-303.5908"/>
</g>
<!-- 140531476009424&#45;&gt;140531500782928 -->
<g id="edge29" class="edge">
<title>140531476009424&#45;&gt;140531500782928</title>
<path fill="none" stroke="#000000" d="M567.5173,-481.9297C575.4992,-424.4817 596.6733,-293.0033 627,-261 633.8984,-253.7202 642.7252,-248.3918 652.0921,-244.4942"/>
<polygon fill="#000000" stroke="#000000" points="653.3777,-247.7512 661.5877,-241.0544 650.9935,-241.1697 653.3777,-247.7512"/>
</g>
<!-- 140531476009424&#45;&gt;140531500785560 -->
<g id="edge36" class="edge">
<title>140531476009424&#45;&gt;140531500785560</title>
<path fill="none" stroke="#000000" d="M566.1977,-481.6882C572.0796,-415.2078 590.2866,-247.455 627,-207 628.3876,-205.471 629.8603,-204.0277 631.4058,-202.6655"/>
<polygon fill="#000000" stroke="#000000" points="633.7481,-205.2853 639.6815,-196.5077 629.5694,-199.6693 633.7481,-205.2853"/>
</g>
<!-- 140531476009424&#45;&gt;140531498875480 -->
<g id="edge37" class="edge">
<title>140531476009424&#45;&gt;140531498875480</title>
<path fill="none" stroke="#000000" d="M565.2371,-481.8527C569.1679,-407.375 583.7708,-202.1199 627,-153 637.3025,-141.2936 652.5955,-134.6047 667.4696,-130.8028"/>
<polygon fill="#000000" stroke="#000000" points="668.5989,-134.1396 677.6337,-128.6058 667.1199,-127.2976 668.5989,-134.1396"/>
</g>
<!-- 140531476009424&#45;&gt;140531500782592 -->
<g id="edge28" class="edge">
<title>140531476009424&#45;&gt;140531500782592</title>
<path fill="none" stroke="#000000" d="M564.5319,-481.9569C566.6835,-400.0683 577.2206,-156.8734 627,-99 635.7472,-88.8305 648.2635,-82.44 661.0677,-78.4394"/>
<polygon fill="#000000" stroke="#000000" points="662.1004,-81.7863 670.8576,-75.8229 660.293,-75.0237 662.1004,-81.7863"/>
</g>
<!-- 140531476009424&#45;&gt;140531500626832 -->
<g id="edge27" class="edge">
<title>140531476009424&#45;&gt;140531500626832</title>
<path fill="none" stroke="#000000" d="M565.9836,-481.9956C573.1188,-387.9436 598.5675,-78.6472 627,-45 632.8282,-38.1029 640.3914,-32.9412 648.6185,-29.0836"/>
<polygon fill="#000000" stroke="#000000" points="650.1592,-32.2366 658.1322,-25.2593 647.5484,-25.7416 650.1592,-32.2366"/>
</g>
<!-- 140531476009424&#45;&gt;140531500784048 -->
<g id="edge40" class="edge">
<title>140531476009424&#45;&gt;140531500784048</title>
<path fill="none" stroke="#000000" d="M576.2785,-484.5007C587.1407,-465.183 604.715,-438.9281 627,-423 636.8991,-415.9247 648.7123,-410.6601 660.3794,-406.7579"/>
<polygon fill="#000000" stroke="#000000" points="661.5578,-410.0577 670.1003,-403.7907 659.5141,-403.3627 661.5578,-410.0577"/>
</g>
<!-- 140531476009424&#45;&gt;140531499804040 -->
<g id="edge35" class="edge">
<title>140531476009424&#45;&gt;140531499804040</title>
<path fill="none" stroke="#000000" d="M569.0728,-482.3922C576.4369,-450.9305 593.0927,-399.0553 627,-369 633.5863,-363.1619 641.425,-358.586 649.6541,-354.9995"/>
<polygon fill="#000000" stroke="#000000" points="651.0032,-358.2304 659.0651,-351.356 648.4759,-351.7026 651.0032,-358.2304"/>
</g>
<!-- 140531476009424&#45;&gt;140531500784720 -->
<g id="edge45" class="edge">
<title>140531476009424&#45;&gt;140531500784720</title>
<path fill="none" stroke="#000000" d="M566.0732,-536.0647C573.4077,-628.8507 599.185,-930.1815 627,-963 631.4421,-968.2412 636.886,-972.4799 642.8605,-975.9057"/>
<polygon fill="#000000" stroke="#000000" points="641.42,-979.0976 651.9388,-980.3652 644.5064,-972.8147 641.42,-979.0976"/>
</g>
<!-- 140531476011216&#45;&gt;140531500783936 -->
<g id="edge46" class="edge">
<title>140531476011216&#45;&gt;140531500783936</title>
<path fill="none" stroke="#000000" d="M205.0317,-530.769C213.4054,-528.4429 222.8517,-525.819 231.8638,-523.3156"/>
<polygon fill="#000000" stroke="#000000" points="233.0754,-526.6117 241.7738,-520.5628 231.2018,-519.867 233.0754,-526.6117"/>
</g>
<!-- 140531476011216&#45;&gt;140531500783824 -->
<g id="edge47" class="edge">
<title>140531476011216&#45;&gt;140531500783824</title>
<path fill="none" stroke="#000000" d="M181.7514,-565.0148C187.5781,-614.6904 203.8904,-723.0445 242,-806 243.5872,-809.4549 245.5233,-812.91 247.6227,-816.2446"/>
<polygon fill="#000000" stroke="#000000" points="244.8877,-818.4447 253.4336,-824.7073 250.6583,-814.4823 244.8877,-818.4447"/>
</g>
<!-- 140531476009088&#45;&gt;140531476011272 -->
<g id="edge48" class="edge">
<title>140531476009088&#45;&gt;140531476011272</title>
<path fill="none" stroke="#000000" d="M386.199,-509C397.7828,-509 411.4866,-509 424.0073,-509"/>
<polygon fill="#000000" stroke="#000000" points="424.1739,-512.5001 434.1739,-509 424.1739,-505.5001 424.1739,-512.5001"/>
</g>
</g>
</svg>
