<?xml version="1.0" encoding="UTF-8" standalone="no"?>
<!DOCTYPE svg PUBLIC "-//W3C//DTD SVG 1.1//EN"
 "http://www.w3.org/Graphics/SVG/1.1/DTD/svg11.dtd">
<!-- Generated by graphviz version 2.40.1 (20161225.0304)
 -->
<!-- Title: %3 Pages: 1 -->
<svg width="2220pt" height="839pt"
 viewBox="0.00 0.00 2220.00 839.00" xmlns="http://www.w3.org/2000/svg" xmlns:xlink="http://www.w3.org/1999/xlink">
<g id="graph0" class="graph" transform="scale(1 1) rotate(0) translate(4 835)">
<title>%3</title>
<!-- 140219170869880 -->
<g id="node1" class="node">
<title>140219170869880</title>
<polygon fill="none" stroke="#000000" points="328,-765 0,-765 0,-729 328,-729 328,-765"/>
<text text-anchor="middle" x="164" y="-743.3" font-family="Times,serif" font-size="14.00" fill="#000000">MarketSummarySingleton:setMarketSummaryDataBean</text>
</g>
<!-- 140219170661488 -->
<g id="node38" class="node">
<title>140219170661488</title>
<ellipse fill="none" stroke="#000000" cx="391" cy="-664" rx="27" ry="27"/>
<text text-anchor="middle" x="391" y="-660.3" font-family="Times,serif" font-size="14.00" fill="#000000">splace_in_MarketSummarySingleton:updateMarketSummary_0</text>
</g>
<!-- 140219170869880&#45;&gt;140219170661488 -->
<g id="edge1" class="edge">
<title>140219170869880&#45;&gt;140219170661488</title>
<path fill="none" stroke="#000000" d="M213.2556,-728.9902C256.2276,-713.278 317.5192,-690.8674 355.7445,-676.8908"/>
<polygon fill="#000000" stroke="#000000" points="357.2201,-680.0779 365.4101,-673.3567 354.8162,-673.5036 357.2201,-680.0779"/>
</g>
<!-- 140219170869936 -->
<g id="node2" class="node">
<title>140219170869936</title>
<polygon fill="none" stroke="#000000" points="1337,-435 1041,-435 1041,-399 1337,-399 1337,-435"/>
<text text-anchor="middle" x="1189" y="-413.3" font-family="Times,serif" font-size="14.00" fill="#000000">MarketSummarySingleton:updateMarketSummary</text>
</g>
<!-- 140219170871672 -->
<g id="node29" class="node">
<title>140219170871672</title>
<ellipse fill="none" stroke="#000000" cx="1400" cy="-421" rx="27" ry="27"/>
<text text-anchor="middle" x="1400" y="-417.3" font-family="Times,serif" font-size="14.00" fill="#000000">intplace_MarketSummarySingleton:updateMarketSummary</text>
</g>
<!-- 140219170869936&#45;&gt;140219170871672 -->
<g id="edge2" class="edge">
<title>140219170869936&#45;&gt;140219170871672</title>
<path fill="none" stroke="#000000" d="M1337.2643,-419.8107C1346.4307,-419.9845 1355.0786,-420.1484 1362.8562,-420.2959"/>
<polygon fill="#000000" stroke="#000000" points="1362.8249,-423.7958 1372.8894,-420.4861 1362.9576,-416.797 1362.8249,-423.7958"/>
</g>
<!-- 140219170870440 -->
<g id="node3" class="node">
<title>140219170870440</title>
<polygon fill="none" stroke="#000000" points="1005,-108 740,-108 740,-72 1005,-72 1005,-108"/>
<text text-anchor="middle" x="872.5" y="-86.3" font-family="Times,serif" font-size="14.00" fill="#000000">PingServletCDIBeanManagerViaJNDI:doGet</text>
</g>
<!-- 140219170660760 -->
<g id="node45" class="node">
<title>140219170660760</title>
<ellipse fill="none" stroke="#000000" cx="1189" cy="-82" rx="27" ry="27"/>
<text text-anchor="middle" x="1189" y="-78.3" font-family="Times,serif" font-size="14.00" fill="#000000">splace_in_Root_1</text>
</g>
<!-- 140219170870440&#45;&gt;140219170660760 -->
<g id="edge3" class="edge">
<title>140219170870440&#45;&gt;140219170660760</title>
<path fill="none" stroke="#000000" d="M1005.3488,-86.6421C1058.468,-85.2994 1115.5078,-83.8576 1151.68,-82.9433"/>
<polygon fill="#000000" stroke="#000000" points="1151.8497,-86.4402 1161.7581,-82.6886 1151.6728,-79.4425 1151.8497,-86.4402"/>
</g>
<!-- 140219170873184 -->
<g id="node4" class="node">
<title>140219170873184</title>
<polygon fill="none" stroke="#000000" points="704,-54 454,-54 454,-18 704,-18 704,-54"/>
<text text-anchor="middle" x="579" y="-32.3" font-family="Times,serif" font-size="14.00" fill="#000000">PingServletCDIBeanManagerViaJNDI:init</text>
</g>
<!-- 140219170661040 -->
<g id="node46" class="node">
<title>140219170661040</title>
<ellipse fill="none" stroke="#000000" cx="872.5" cy="-27" rx="27" ry="27"/>
<text text-anchor="middle" x="872.5" y="-23.3" font-family="Times,serif" font-size="14.00" fill="#000000">splace_in_Root_2</text>
</g>
<!-- 140219170873184&#45;&gt;140219170661040 -->
<g id="edge4" class="edge">
<title>140219170873184&#45;&gt;140219170661040</title>
<path fill="none" stroke="#000000" d="M704.3218,-32.1571C751.7006,-30.7042 802.1249,-29.158 835.2643,-28.1418"/>
<polygon fill="#000000" stroke="#000000" points="835.5028,-31.6362 845.3908,-27.8313 835.2882,-24.6395 835.5028,-31.6362"/>
</g>
<!-- 140219170869768 -->
<g id="node5" class="node">
<title>140219170869768</title>
<polygon fill="none" stroke="#000000" points="1942,-673 1643,-673 1643,-637 1942,-637 1942,-673"/>
<text text-anchor="middle" x="1792.5" y="-651.3" font-family="Times,serif" font-size="14.00" fill="#000000">QuoteDataBean:QuoteDataBean [overloaded_#001]</text>
</g>
<!-- 140219170661768 -->
<g id="node39" class="node">
<title>140219170661768</title>
<ellipse fill="none" stroke="#000000" cx="2005" cy="-682" rx="27" ry="27"/>
<text text-anchor="middle" x="2005" y="-678.3" font-family="Times,serif" font-size="14.00" fill="#000000">splace_in_MarketSummarySingleton:updateMarketSummary_1</text>
</g>
<!-- 140219170869768&#45;&gt;140219170661768 -->
<g id="edge5" class="edge">
<title>140219170869768&#45;&gt;140219170661768</title>
<path fill="none" stroke="#000000" d="M1934.2406,-673.0094C1946.3171,-674.5438 1957.7025,-675.9904 1967.6658,-677.2564"/>
<polygon fill="#000000" stroke="#000000" points="1967.523,-680.7663 1977.8844,-678.5547 1968.4053,-673.8221 1967.523,-680.7663"/>
</g>
<!-- 140219170869992 -->
<g id="node6" class="node">
<title>140219170869992</title>
<polygon fill="none" stroke="#000000" points="1868.5,-430 1716.5,-430 1716.5,-394 1868.5,-394 1868.5,-430"/>
<text text-anchor="middle" x="1792.5" y="-408.3" font-family="Times,serif" font-size="14.00" fill="#000000">QuoteDataBean:getOpen</text>
</g>
<!-- 140219170662048 -->
<g id="node40" class="node">
<title>140219170662048</title>
<ellipse fill="none" stroke="#000000" cx="2005" cy="-412" rx="27" ry="27"/>
<text text-anchor="middle" x="2005" y="-408.3" font-family="Times,serif" font-size="14.00" fill="#000000">splace_in_MarketSummarySingleton:updateMarketSummary_2</text>
</g>
<!-- 140219170869992&#45;&gt;140219170662048 -->
<g id="edge6" class="edge">
<title>140219170869992&#45;&gt;140219170662048</title>
<path fill="none" stroke="#000000" d="M1868.6172,-412C1902.2604,-412 1940.2977,-412 1967.638,-412"/>
<polygon fill="#000000" stroke="#000000" points="1967.9249,-415.5001 1977.9249,-412 1967.9249,-408.5001 1967.9249,-415.5001"/>
</g>
<!-- 140219170870160 -->
<g id="node7" class="node">
<title>140219170870160</title>
<polygon fill="none" stroke="#000000" points="1868,-583 1717,-583 1717,-547 1868,-547 1868,-583"/>
<text text-anchor="middle" x="1792.5" y="-561.3" font-family="Times,serif" font-size="14.00" fill="#000000">QuoteDataBean:getPrice</text>
</g>
<!-- 140219170662328 -->
<g id="node41" class="node">
<title>140219170662328</title>
<ellipse fill="none" stroke="#000000" cx="2005" cy="-592" rx="27" ry="27"/>
<text text-anchor="middle" x="2005" y="-588.3" font-family="Times,serif" font-size="14.00" fill="#000000">splace_in_MarketSummarySingleton:updateMarketSummary_3</text>
</g>
<!-- 140219170870160&#45;&gt;140219170662328 -->
<g id="edge7" class="edge">
<title>140219170870160&#45;&gt;140219170662328</title>
<path fill="none" stroke="#000000" d="M1868.0179,-574.5952C1901.9734,-578.9096 1940.5107,-583.8061 1968.0411,-587.304"/>
<polygon fill="#000000" stroke="#000000" points="1967.6596,-590.7836 1978.021,-588.5721 1968.542,-583.8395 1967.6596,-590.7836"/>
</g>
<!-- 140219170870048 -->
<g id="node8" class="node">
<title>140219170870048</title>
<polygon fill="none" stroke="#000000" points="1876,-320 1709,-320 1709,-284 1876,-284 1876,-320"/>
<text text-anchor="middle" x="1792.5" y="-298.3" font-family="Times,serif" font-size="14.00" fill="#000000">QuoteDataBean:getVolume</text>
</g>
<!-- 140219170662608 -->
<g id="node42" class="node">
<title>140219170662608</title>
<ellipse fill="none" stroke="#000000" cx="2005" cy="-302" rx="27" ry="27"/>
<text text-anchor="middle" x="2005" y="-298.3" font-family="Times,serif" font-size="14.00" fill="#000000">splace_in_MarketSummarySingleton:updateMarketSummary_4</text>
</g>
<!-- 140219170870048&#45;&gt;140219170662608 -->
<g id="edge8" class="edge">
<title>140219170870048&#45;&gt;140219170662608</title>
<path fill="none" stroke="#000000" d="M1876.1806,-302C1907.8878,-302 1942.4063,-302 1967.7236,-302"/>
<polygon fill="#000000" stroke="#000000" points="1967.9756,-305.5001 1977.9755,-302 1967.9755,-298.5001 1967.9756,-305.5001"/>
</g>
<!-- 140219170869712 -->
<g id="node9" class="node">
<title>140219170869712</title>
<polygon fill="none" stroke="#000000" points="2122,-100 2068,-100 2068,-64 2122,-64 2122,-100"/>
<text text-anchor="middle" x="2095" y="-78.3" font-family="Times,serif" font-size="14.00" fill="#000000">Root</text>
</g>
<!-- 140219170870664 -->
<g id="node47" class="node">
<title>140219170870664</title>
<ellipse fill="#ffa500" stroke="#000000" cx="2185" cy="-82" rx="27" ry="27"/>
</g>
<!-- 140219170869712&#45;&gt;140219170870664 -->
<g id="edge9" class="edge">
<title>140219170869712&#45;&gt;140219170870664</title>
<path fill="none" stroke="#000000" d="M2122.003,-82C2130.0277,-82 2138.9665,-82 2147.5309,-82"/>
<polygon fill="#000000" stroke="#000000" points="2147.7051,-85.5001 2157.705,-82 2147.705,-78.5001 2147.7051,-85.5001"/>
</g>
<!-- 140219170870272 -->
<g id="node10" class="node">
<title>140219170870272</title>
<polygon fill="none" stroke="#000000" points="1887.5,-502 1697.5,-502 1697.5,-466 1887.5,-466 1887.5,-502"/>
<text text-anchor="middle" x="1792.5" y="-480.3" font-family="Times,serif" font-size="14.00" fill="#000000">TradeConfig:getRunTimeMode</text>
</g>
<!-- 140219170662888 -->
<g id="node43" class="node">
<title>140219170662888</title>
<ellipse fill="none" stroke="#000000" cx="2005" cy="-484" rx="27" ry="27"/>
<text text-anchor="middle" x="2005" y="-480.3" font-family="Times,serif" font-size="14.00" fill="#000000">splace_in_MarketSummarySingleton:updateMarketSummary_5</text>
</g>
<!-- 140219170870272&#45;&gt;140219170662888 -->
<g id="edge10" class="edge">
<title>140219170870272&#45;&gt;140219170662888</title>
<path fill="none" stroke="#000000" d="M1887.5624,-484C1915.991,-484 1945.5,-484 1967.8264,-484"/>
<polygon fill="#000000" stroke="#000000" points="1967.8608,-487.5001 1977.8608,-484 1967.8607,-480.5001 1967.8608,-487.5001"/>
</g>
<!-- 140219170869376 -->
<g id="node11" class="node">
<title>140219170869376</title>
<polygon fill="none" stroke="#000000" points="1819.5,-206 1765.5,-206 1765.5,-170 1819.5,-170 1819.5,-206"/>
<text text-anchor="middle" x="1792.5" y="-184.3" font-family="Times,serif" font-size="14.00" fill="#000000">hid_1</text>
</g>
<!-- 140219170869824 -->
<g id="node36" class="node">
<title>140219170869824</title>
<ellipse fill="none" stroke="#000000" cx="2005" cy="-82" rx="27" ry="27"/>
<text text-anchor="middle" x="2005" y="-78.3" font-family="Times,serif" font-size="14.00" fill="#000000">pre_Root</text>
</g>
<!-- 140219170869376&#45;&gt;140219170869824 -->
<g id="edge11" class="edge">
<title>140219170869376&#45;&gt;140219170869824</title>
<path fill="none" stroke="#000000" d="M1819.8456,-174.3594C1858.7173,-154.9692 1929.8689,-119.4772 1971.7431,-98.5893"/>
<polygon fill="#000000" stroke="#000000" points="1973.3288,-101.7097 1980.715,-94.114 1970.2041,-95.4457 1973.3288,-101.7097"/>
</g>
<!-- 140219170663000 -->
<g id="node12" class="node">
<title>140219170663000</title>
<polygon fill="none" stroke="#000000" points="606,-336 552,-336 552,-300 606,-300 606,-336"/>
<text text-anchor="middle" x="579" y="-314.3" font-family="Times,serif" font-size="14.00" fill="#000000">hid_10</text>
</g>
<!-- 140219170869544 -->
<g id="node31" class="node">
<title>140219170869544</title>
<ellipse fill="none" stroke="#000000" cx="872.5" cy="-387" rx="27" ry="27"/>
<text text-anchor="middle" x="872.5" y="-383.3" font-family="Times,serif" font-size="14.00" fill="#000000">pre_MarketSummarySingleton:updateMarketSummary</text>
</g>
<!-- 140219170663000&#45;&gt;140219170869544 -->
<g id="edge12" class="edge">
<title>140219170663000&#45;&gt;140219170869544</title>
<path fill="none" stroke="#000000" d="M606.0857,-324.3677C659.0751,-336.8251 776.4724,-364.4245 836.1497,-378.4543"/>
<polygon fill="#000000" stroke="#000000" points="835.3681,-381.8659 845.9037,-380.7474 836.9701,-375.0516 835.3681,-381.8659"/>
</g>
<!-- 140219170779032 -->
<g id="node13" class="node">
<title>140219170779032</title>
<polygon fill="none" stroke="#000000" points="1517,-702 1463,-702 1463,-666 1517,-666 1517,-702"/>
<text text-anchor="middle" x="1490" y="-680.3" font-family="Times,serif" font-size="14.00" fill="#000000">hid_11</text>
</g>
<!-- 140219170663728 -->
<g id="node30" class="node">
<title>140219170663728</title>
<ellipse fill="none" stroke="#000000" cx="1580" cy="-700" rx="27" ry="27"/>
<text text-anchor="middle" x="1580" y="-696.3" font-family="Times,serif" font-size="14.00" fill="#000000">pre_MarketSummarySingleton:setMarketSummaryDataBean</text>
</g>
<!-- 140219170779032&#45;&gt;140219170663728 -->
<g id="edge13" class="edge">
<title>140219170779032&#45;&gt;140219170663728</title>
<path fill="none" stroke="#000000" d="M1517.003,-688.8005C1525.2647,-690.2693 1534.4954,-691.9103 1543.2888,-693.4736"/>
<polygon fill="#000000" stroke="#000000" points="1542.868,-696.9536 1553.3262,-695.258 1544.0933,-690.0616 1542.868,-696.9536"/>
</g>
<!-- 140219170778416 -->
<g id="node14" class="node">
<title>140219170778416</title>
<polygon fill="none" stroke="#000000" points="1517,-631 1463,-631 1463,-595 1517,-595 1517,-631"/>
<text text-anchor="middle" x="1490" y="-609.3" font-family="Times,serif" font-size="14.00" fill="#000000">hid_12</text>
</g>
<!-- 140219170663280 -->
<g id="node32" class="node">
<title>140219170663280</title>
<ellipse fill="none" stroke="#000000" cx="1580" cy="-628" rx="27" ry="27"/>
<text text-anchor="middle" x="1580" y="-624.3" font-family="Times,serif" font-size="14.00" fill="#000000">pre_QuoteDataBean:QuoteDataBean [overloaded_#001]</text>
</g>
<!-- 140219170778416&#45;&gt;140219170663280 -->
<g id="edge14" class="edge">
<title>140219170778416&#45;&gt;140219170663280</title>
<path fill="none" stroke="#000000" d="M1517.003,-617.5005C1525.2647,-618.8775 1534.4954,-620.4159 1543.2888,-621.8815"/>
<polygon fill="#000000" stroke="#000000" points="1542.8869,-625.3627 1553.3262,-623.5544 1544.0377,-618.4579 1542.8869,-625.3627"/>
</g>
<!-- 140219170777856 -->
<g id="node15" class="node">
<title>140219170777856</title>
<polygon fill="none" stroke="#000000" points="1517,-435 1463,-435 1463,-399 1517,-399 1517,-435"/>
<text text-anchor="middle" x="1490" y="-413.3" font-family="Times,serif" font-size="14.00" fill="#000000">hid_13</text>
</g>
<!-- 140219170663504 -->
<g id="node33" class="node">
<title>140219170663504</title>
<ellipse fill="none" stroke="#000000" cx="1580" cy="-412" rx="27" ry="27"/>
<text text-anchor="middle" x="1580" y="-408.3" font-family="Times,serif" font-size="14.00" fill="#000000">pre_QuoteDataBean:getOpen</text>
</g>
<!-- 140219170777856&#45;&gt;140219170663504 -->
<g id="edge15" class="edge">
<title>140219170777856&#45;&gt;140219170663504</title>
<path fill="none" stroke="#000000" d="M1517.003,-415.4998C1525.1013,-415.0499 1534.1306,-414.5483 1542.7665,-414.0685"/>
<polygon fill="#000000" stroke="#000000" points="1543.2257,-417.5485 1553.0161,-413.4991 1542.8373,-410.5593 1543.2257,-417.5485"/>
</g>
<!-- 140219170776960 -->
<g id="node16" class="node">
<title>140219170776960</title>
<polygon fill="none" stroke="#000000" points="1517,-562 1463,-562 1463,-526 1517,-526 1517,-562"/>
<text text-anchor="middle" x="1490" y="-540.3" font-family="Times,serif" font-size="14.00" fill="#000000">hid_14</text>
</g>
<!-- 140219170663392 -->
<g id="node34" class="node">
<title>140219170663392</title>
<ellipse fill="none" stroke="#000000" cx="1580" cy="-556" rx="27" ry="27"/>
<text text-anchor="middle" x="1580" y="-552.3" font-family="Times,serif" font-size="14.00" fill="#000000">pre_QuoteDataBean:getPrice</text>
</g>
<!-- 140219170776960&#45;&gt;140219170663392 -->
<g id="edge16" class="edge">
<title>140219170776960&#45;&gt;140219170663392</title>
<path fill="none" stroke="#000000" d="M1517.003,-547.6004C1525.1903,-548.692 1534.3292,-549.9106 1543.051,-551.0735"/>
<polygon fill="#000000" stroke="#000000" points="1542.6412,-554.5497 1553.0161,-552.4021 1543.5664,-547.6111 1542.6412,-554.5497"/>
</g>
<!-- 140219170776288 -->
<g id="node17" class="node">
<title>140219170776288</title>
<polygon fill="none" stroke="#000000" points="1517,-325 1463,-325 1463,-289 1517,-289 1517,-325"/>
<text text-anchor="middle" x="1490" y="-303.3" font-family="Times,serif" font-size="14.00" fill="#000000">hid_15</text>
</g>
<!-- 140219170663616 -->
<g id="node35" class="node">
<title>140219170663616</title>
<ellipse fill="none" stroke="#000000" cx="1580" cy="-302" rx="27" ry="27"/>
<text text-anchor="middle" x="1580" y="-298.3" font-family="Times,serif" font-size="14.00" fill="#000000">pre_QuoteDataBean:getVolume</text>
</g>
<!-- 140219170776288&#45;&gt;140219170663616 -->
<g id="edge17" class="edge">
<title>140219170776288&#45;&gt;140219170663616</title>
<path fill="none" stroke="#000000" d="M1517.003,-305.4998C1525.1013,-305.0499 1534.1306,-304.5483 1542.7665,-304.0685"/>
<polygon fill="#000000" stroke="#000000" points="1543.2257,-307.5485 1553.0161,-303.4991 1542.8373,-300.5593 1543.2257,-307.5485"/>
</g>
<!-- 140219170663952 -->
<g id="node18" class="node">
<title>140219170663952</title>
<polygon fill="none" stroke="#000000" points="1517,-215 1463,-215 1463,-179 1517,-179 1517,-215"/>
<text text-anchor="middle" x="1490" y="-193.3" font-family="Times,serif" font-size="14.00" fill="#000000">hid_16</text>
</g>
<!-- 140219170660480 -->
<g id="node44" class="node">
<title>140219170660480</title>
<ellipse fill="none" stroke="#000000" cx="1580" cy="-192" rx="27" ry="27"/>
<text text-anchor="middle" x="1580" y="-188.3" font-family="Times,serif" font-size="14.00" fill="#000000">splace_in_Root_0</text>
</g>
<!-- 140219170663952&#45;&gt;140219170660480 -->
<g id="edge18" class="edge">
<title>140219170663952&#45;&gt;140219170660480</title>
<path fill="none" stroke="#000000" d="M1517.003,-195.4998C1525.1013,-195.0499 1534.1306,-194.5483 1542.7665,-194.0685"/>
<polygon fill="#000000" stroke="#000000" points="1543.2257,-197.5485 1553.0161,-193.4991 1542.8373,-190.5593 1543.2257,-197.5485"/>
</g>
<!-- 140219170664176 -->
<g id="node19" class="node">
<title>140219170664176</title>
<polygon fill="none" stroke="#000000" points="1517,-496 1463,-496 1463,-460 1517,-460 1517,-496"/>
<text text-anchor="middle" x="1490" y="-474.3" font-family="Times,serif" font-size="14.00" fill="#000000">hid_17</text>
</g>
<!-- 140219170661264 -->
<g id="node37" class="node">
<title>140219170661264</title>
<ellipse fill="none" stroke="#000000" cx="1580" cy="-484" rx="27" ry="27"/>
<text text-anchor="middle" x="1580" y="-480.3" font-family="Times,serif" font-size="14.00" fill="#000000">pre_TradeConfig:getRunTimeMode</text>
</g>
<!-- 140219170664176&#45;&gt;140219170661264 -->
<g id="edge19" class="edge">
<title>140219170664176&#45;&gt;140219170661264</title>
<path fill="none" stroke="#000000" d="M1517.003,-479.8002C1525.1013,-480.3401 1534.1306,-480.942 1542.7665,-481.5178"/>
<polygon fill="#000000" stroke="#000000" points="1542.8054,-485.028 1553.0161,-482.2011 1543.2711,-478.0435 1542.8054,-485.028"/>
</g>
<!-- 140219170660592 -->
<g id="node20" class="node">
<title>140219170660592</title>
<polygon fill="none" stroke="#000000" points="1427,-100 1373,-100 1373,-64 1427,-64 1427,-100"/>
<text text-anchor="middle" x="1400" y="-78.3" font-family="Times,serif" font-size="14.00" fill="#000000">hid_2</text>
</g>
<!-- 140219170660592&#45;&gt;140219170869824 -->
<g id="edge20" class="edge">
<title>140219170660592&#45;&gt;140219170869824</title>
<path fill="none" stroke="#000000" d="M1427.1709,-82C1524.509,-82 1855.9247,-82 1967.7799,-82"/>
<polygon fill="#000000" stroke="#000000" points="1967.904,-85.5001 1977.904,-82 1967.9039,-78.5001 1967.904,-85.5001"/>
</g>
<!-- 140219170660872 -->
<g id="node21" class="node">
<title>140219170660872</title>
<polygon fill="none" stroke="#000000" points="1427,-45 1373,-45 1373,-9 1427,-9 1427,-45"/>
<text text-anchor="middle" x="1400" y="-23.3" font-family="Times,serif" font-size="14.00" fill="#000000">hid_3</text>
</g>
<!-- 140219170660872&#45;&gt;140219170869824 -->
<g id="edge21" class="edge">
<title>140219170660872&#45;&gt;140219170869824</title>
<path fill="none" stroke="#000000" d="M1427.1709,-29.4701C1524.509,-38.319 1855.9247,-68.4477 1967.7799,-78.6164"/>
<polygon fill="#000000" stroke="#000000" points="1967.6281,-82.1169 1977.904,-79.5367 1968.2619,-75.1456 1967.6281,-82.1169"/>
</g>
<!-- 140219170661320 -->
<g id="node22" class="node">
<title>140219170661320</title>
<polygon fill="none" stroke="#000000" points="606,-473 552,-473 552,-437 606,-437 606,-473"/>
<text text-anchor="middle" x="579" y="-451.3" font-family="Times,serif" font-size="14.00" fill="#000000">hid_4</text>
</g>
<!-- 140219170661320&#45;&gt;140219170869544 -->
<g id="edge22" class="edge">
<title>140219170661320&#45;&gt;140219170869544</title>
<path fill="none" stroke="#000000" d="M606.0857,-448.7246C659.0751,-436.4477 776.4724,-409.2483 836.1497,-395.4219"/>
<polygon fill="#000000" stroke="#000000" points="836.9517,-398.8288 845.9037,-393.162 835.3717,-392.0095 836.9517,-398.8288"/>
</g>
<!-- 140219170661600 -->
<g id="node23" class="node">
<title>140219170661600</title>
<polygon fill="none" stroke="#000000" points="2122,-782 2068,-782 2068,-746 2122,-746 2122,-782"/>
<text text-anchor="middle" x="2095" y="-760.3" font-family="Times,serif" font-size="14.00" fill="#000000">hid_5</text>
</g>
<!-- 140219170661600&#45;&gt;140219170869544 -->
<g id="edge23" class="edge">
<title>140219170661600&#45;&gt;140219170869544</title>
<path fill="none" stroke="#000000" d="M2067.9673,-768.3416C2015.1725,-776.4316 1894.587,-793 1792.5,-793 1400,-793 1400,-793 1400,-793 1233.2522,-793 1171.2065,-788.1686 1041,-684 953.5185,-614.0125 903.3723,-485.5073 883.1118,-423.019"/>
<polygon fill="#000000" stroke="#000000" points="886.3631,-421.6929 880.0046,-413.2181 879.6904,-423.8083 886.3631,-421.6929"/>
</g>
<!-- 140219170661880 -->
<g id="node24" class="node">
<title>140219170661880</title>
<polygon fill="none" stroke="#000000" points="2122,-361 2068,-361 2068,-325 2122,-325 2122,-361"/>
<text text-anchor="middle" x="2095" y="-339.3" font-family="Times,serif" font-size="14.00" fill="#000000">hid_6</text>
</g>
<!-- 140219170661880&#45;&gt;140219170869544 -->
<g id="edge24" class="edge">
<title>140219170661880&#45;&gt;140219170869544</title>
<path fill="none" stroke="#000000" d="M2085.7834,-324.7266C2075.4349,-306.3623 2056.7918,-278.9736 2032,-266 1937.3923,-216.4914 1899.2789,-247 1792.5,-247 1400,-247 1400,-247 1400,-247 1207.8862,-247 989.1887,-334.822 906.5302,-371.352"/>
<polygon fill="#000000" stroke="#000000" points="904.8417,-368.2727 897.1352,-375.5432 907.6936,-374.6654 904.8417,-368.2727"/>
</g>
<!-- 140219170662160 -->
<g id="node25" class="node">
<title>140219170662160</title>
<polygon fill="none" stroke="#000000" points="2122,-719 2068,-719 2068,-683 2122,-683 2122,-719"/>
<text text-anchor="middle" x="2095" y="-697.3" font-family="Times,serif" font-size="14.00" fill="#000000">hid_7</text>
</g>
<!-- 140219170662160&#45;&gt;140219170869544 -->
<g id="edge25" class="edge">
<title>140219170662160&#45;&gt;140219170869544</title>
<path fill="none" stroke="#000000" d="M2067.7633,-709.2014C2015.1094,-724.3078 1895.4608,-755 1792.5,-755 1400,-755 1400,-755 1400,-755 1164.6892,-755 959.3396,-505.6372 894.0749,-417.4498"/>
<polygon fill="#000000" stroke="#000000" points="896.7582,-415.19 888.0251,-409.1913 891.1112,-419.3267 896.7582,-415.19"/>
</g>
<!-- 140219170662440 -->
<g id="node26" class="node">
<title>140219170662440</title>
<polygon fill="none" stroke="#000000" points="2122,-237 2068,-237 2068,-201 2122,-201 2122,-237"/>
<text text-anchor="middle" x="2095" y="-215.3" font-family="Times,serif" font-size="14.00" fill="#000000">hid_8</text>
</g>
<!-- 140219170662440&#45;&gt;140219170869544 -->
<g id="edge26" class="edge">
<title>140219170662440&#45;&gt;140219170869544</title>
<path fill="none" stroke="#000000" d="M2067.7312,-206.3672C2015.5067,-183.3655 1897.2444,-137 1792.5,-137 1400,-137 1400,-137 1400,-137 1233.1225,-137 1187.8231,-167.6838 1041,-247 984.856,-277.3299 929.927,-328.0397 898.7367,-359.3876"/>
<polygon fill="#000000" stroke="#000000" points="895.849,-357.3323 891.3321,-366.9161 900.8396,-362.2408 895.849,-357.3323"/>
</g>
<!-- 140219170662720 -->
<g id="node27" class="node">
<title>140219170662720</title>
<polygon fill="none" stroke="#000000" points="2122,-493 2068,-493 2068,-457 2122,-457 2122,-493"/>
<text text-anchor="middle" x="2095" y="-471.3" font-family="Times,serif" font-size="14.00" fill="#000000">hid_9</text>
</g>
<!-- 140219170662720&#45;&gt;140219170869544 -->
<g id="edge27" class="edge">
<title>140219170662720&#45;&gt;140219170869544</title>
<path fill="none" stroke="#000000" d="M2089.0988,-456.6597C2080.5632,-433.4425 2062.3747,-394.2743 2032,-376 1940.5037,-320.9531 1899.2789,-357 1792.5,-357 1400,-357 1400,-357 1400,-357 1215.7446,-357 995.8698,-375.4705 909.7166,-383.4256"/>
<polygon fill="#000000" stroke="#000000" points="909.2788,-379.9511 899.6467,-384.364 909.9283,-386.9209 909.2788,-379.9511"/>
</g>
<!-- 140219170870384 -->
<g id="node28" class="node">
<title>140219170870384</title>
<ellipse fill="#00ff00" stroke="#000000" cx="391" cy="-90" rx="27" ry="27"/>
<text text-anchor="middle" x="391" y="-86.3" font-family="Times,serif" font-size="14.00" fill="#000000">1</text>
</g>
<!-- 140219170870384&#45;&gt;140219170870440 -->
<g id="edge43" class="edge">
<title>140219170870384&#45;&gt;140219170870440</title>
<path fill="none" stroke="#000000" d="M418.2671,-90C477.1557,-90 619.7792,-90 729.6326,-90"/>
<polygon fill="#000000" stroke="#000000" points="729.8217,-93.5001 739.8216,-90 729.8216,-86.5001 729.8217,-93.5001"/>
</g>
<!-- 140219170870384&#45;&gt;140219170873184 -->
<g id="edge44" class="edge">
<title>140219170870384&#45;&gt;140219170873184</title>
<path fill="none" stroke="#000000" d="M417.1406,-82.4915C440.2735,-75.847 475.1469,-65.8302 506.6066,-56.7939"/>
<polygon fill="#000000" stroke="#000000" points="507.5985,-60.1506 516.2436,-54.0258 505.6659,-53.4226 507.5985,-60.1506"/>
</g>
<!-- 140219170870384&#45;&gt;140219170663000 -->
<g id="edge45" class="edge">
<title>140219170870384&#45;&gt;140219170663000</title>
<path fill="none" stroke="#000000" d="M408.3496,-111.041C442.836,-152.865 519.9126,-246.3408 557.5262,-291.9573"/>
<polygon fill="#000000" stroke="#000000" points="555.0089,-294.406 564.0711,-299.8948 560.4097,-289.9527 555.0089,-294.406"/>
</g>
<!-- 140219170871672&#45;&gt;140219170779032 -->
<g id="edge28" class="edge">
<title>140219170871672&#45;&gt;140219170779032</title>
<path fill="none" stroke="#000000" d="M1405.2498,-447.7619C1414.0424,-489.853 1433.7129,-573.5719 1463,-640 1465.5015,-645.6739 1468.6231,-651.4948 1471.8468,-656.9688"/>
<polygon fill="#000000" stroke="#000000" points="1469.0462,-659.0952 1477.277,-665.7663 1475.0029,-655.4184 1469.0462,-659.0952"/>
</g>
<!-- 140219170871672&#45;&gt;140219170778416 -->
<g id="edge29" class="edge">
<title>140219170871672&#45;&gt;140219170778416</title>
<path fill="none" stroke="#000000" d="M1409.1797,-446.5615C1420.4331,-476.9183 1440.7676,-528.7589 1463,-571 1465.6243,-575.986 1468.6565,-581.1477 1471.7204,-586.0745"/>
<polygon fill="#000000" stroke="#000000" points="1468.8436,-588.0722 1477.1883,-594.6002 1474.7359,-584.2931 1468.8436,-588.0722"/>
</g>
<!-- 140219170871672&#45;&gt;140219170777856 -->
<g id="edge30" class="edge">
<title>140219170871672&#45;&gt;140219170777856</title>
<path fill="none" stroke="#000000" d="M1427.003,-419.7999C1435.0277,-419.4432 1443.9665,-419.0459 1452.5309,-418.6653"/>
<polygon fill="#000000" stroke="#000000" points="1452.8703,-422.1538 1462.705,-418.2131 1452.5595,-415.1607 1452.8703,-422.1538"/>
</g>
<!-- 140219170871672&#45;&gt;140219170776960 -->
<g id="edge31" class="edge">
<title>140219170871672&#45;&gt;140219170776960</title>
<path fill="none" stroke="#000000" d="M1416.0902,-442.9899C1431.3556,-463.8527 1454.3184,-495.2351 1470.592,-517.4757"/>
<polygon fill="#000000" stroke="#000000" points="1467.9556,-519.7998 1476.6854,-525.8034 1473.6049,-515.6662 1467.9556,-519.7998"/>
</g>
<!-- 140219170871672&#45;&gt;140219170776288 -->
<g id="edge32" class="edge">
<title>140219170871672&#45;&gt;140219170776288</title>
<path fill="none" stroke="#000000" d="M1416.9283,-399.5575C1431.7865,-380.7371 1453.4428,-353.3058 1469.3226,-333.1914"/>
<polygon fill="#000000" stroke="#000000" points="1472.0749,-335.3535 1475.5243,-325.3358 1466.5808,-331.0159 1472.0749,-335.3535"/>
</g>
<!-- 140219170871672&#45;&gt;140219170663952 -->
<g id="edge33" class="edge">
<title>140219170871672&#45;&gt;140219170663952</title>
<path fill="none" stroke="#000000" d="M1410.1492,-395.7398C1427.1662,-353.3864 1461.3154,-268.3929 1478.9294,-224.5534"/>
<polygon fill="#000000" stroke="#000000" points="1482.2481,-225.6814 1482.7287,-215.0975 1475.7528,-223.0717 1482.2481,-225.6814"/>
</g>
<!-- 140219170871672&#45;&gt;140219170664176 -->
<g id="edge34" class="edge">
<title>140219170871672&#45;&gt;140219170664176</title>
<path fill="none" stroke="#000000" d="M1423.1772,-435.6789C1432.6172,-441.6576 1443.7478,-448.7069 1454.189,-455.3197"/>
<polygon fill="#000000" stroke="#000000" points="1452.4242,-458.3449 1462.7452,-460.7386 1456.1696,-452.4312 1452.4242,-458.3449"/>
</g>
<!-- 140219170663728&#45;&gt;140219170869880 -->
<g id="edge35" class="edge">
<title>140219170663728&#45;&gt;140219170869880</title>
<path fill="none" stroke="#000000" d="M1564.4761,-722.2224C1536.3468,-759.5972 1473.0482,-831 1400,-831 579,-831 579,-831 579,-831 452.4621,-831 308.4579,-793.0203 227.6893,-768.137"/>
<polygon fill="#000000" stroke="#000000" points="228.2676,-764.6514 217.6792,-765.0201 226.1865,-771.3349 228.2676,-764.6514"/>
</g>
<!-- 140219170869544&#45;&gt;140219170869936 -->
<g id="edge36" class="edge">
<title>140219170869544&#45;&gt;140219170869936</title>
<path fill="none" stroke="#000000" d="M899.4846,-389.5578C929.3358,-392.3873 979.9407,-397.184 1030.5703,-401.983"/>
<polygon fill="#000000" stroke="#000000" points="1030.4047,-405.4829 1040.6903,-402.9422 1031.0653,-398.5141 1030.4047,-405.4829"/>
</g>
<!-- 140219170663280&#45;&gt;140219170869768 -->
<g id="edge37" class="edge">
<title>140219170663280&#45;&gt;140219170869768</title>
<path fill="none" stroke="#000000" d="M1606.9133,-631.4196C1616.4306,-632.6288 1627.9211,-634.0888 1640.4643,-635.6825"/>
<polygon fill="#000000" stroke="#000000" points="1640.3703,-639.1986 1650.7317,-636.9871 1641.2527,-632.2545 1640.3703,-639.1986"/>
</g>
<!-- 140219170663504&#45;&gt;140219170869992 -->
<g id="edge38" class="edge">
<title>140219170663504&#45;&gt;140219170869992</title>
<path fill="none" stroke="#000000" d="M1607.3456,-412C1632.3416,-412 1670.6852,-412 1706.0087,-412"/>
<polygon fill="#000000" stroke="#000000" points="1706.3653,-415.5001 1716.3653,-412 1706.3652,-408.5001 1706.3653,-415.5001"/>
</g>
<!-- 140219170663392&#45;&gt;140219170870160 -->
<g id="edge39" class="edge">
<title>140219170663392&#45;&gt;140219170870160</title>
<path fill="none" stroke="#000000" d="M1607.3456,-557.1582C1632.4436,-558.2211 1670.9984,-559.854 1706.4411,-561.3552"/>
<polygon fill="#000000" stroke="#000000" points="1706.6909,-564.8688 1716.83,-561.7952 1706.9871,-557.875 1706.6909,-564.8688"/>
</g>
<!-- 140219170663616&#45;&gt;140219170870048 -->
<g id="edge40" class="edge">
<title>140219170663616&#45;&gt;140219170870048</title>
<path fill="none" stroke="#000000" d="M1607.3456,-302C1630.6089,-302 1665.4335,-302 1698.625,-302"/>
<polygon fill="#000000" stroke="#000000" points="1698.8588,-305.5001 1708.8587,-302 1698.8587,-298.5001 1698.8588,-305.5001"/>
</g>
<!-- 140219170869824&#45;&gt;140219170869712 -->
<g id="edge41" class="edge">
<title>140219170869824&#45;&gt;140219170869712</title>
<path fill="none" stroke="#000000" d="M2032.003,-82C2040.0277,-82 2048.9665,-82 2057.5309,-82"/>
<polygon fill="#000000" stroke="#000000" points="2057.7051,-85.5001 2067.705,-82 2057.705,-78.5001 2057.7051,-85.5001"/>
</g>
<!-- 140219170661264&#45;&gt;140219170870272 -->
<g id="edge42" class="edge">
<title>140219170661264&#45;&gt;140219170870272</title>
<path fill="none" stroke="#000000" d="M1607.3456,-484C1627.9913,-484 1657.7429,-484 1687.3776,-484"/>
<polygon fill="#000000" stroke="#000000" points="1687.4098,-487.5001 1697.4098,-484 1687.4097,-480.5001 1687.4098,-487.5001"/>
</g>
<!-- 140219170661488&#45;&gt;140219170661320 -->
<g id="edge46" class="edge">
<title>140219170661488&#45;&gt;140219170661320</title>
<path fill="none" stroke="#000000" d="M409.3685,-643.5797C443.828,-605.271 518.0954,-522.7078 555.8899,-480.6916"/>
<polygon fill="#000000" stroke="#000000" points="558.6369,-482.8712 562.7224,-473.0958 553.4326,-478.1898 558.6369,-482.8712"/>
</g>
<!-- 140219170661768&#45;&gt;140219170661600 -->
<g id="edge47" class="edge">
<title>140219170661768&#45;&gt;140219170661600</title>
<path fill="none" stroke="#000000" d="M2024.9739,-700.1985C2037.4415,-711.5578 2053.6671,-726.3412 2067.36,-738.8169"/>
<polygon fill="#000000" stroke="#000000" points="2065.3327,-741.7047 2075.0819,-745.8524 2070.0472,-736.5303 2065.3327,-741.7047"/>
</g>
<!-- 140219170662048&#45;&gt;140219170661880 -->
<g id="edge48" class="edge">
<title>140219170662048&#45;&gt;140219170661880</title>
<path fill="none" stroke="#000000" d="M2026.7865,-395.297C2037.6918,-386.9363 2051.1018,-376.6553 2063.1375,-367.4279"/>
<polygon fill="#000000" stroke="#000000" points="2065.3961,-370.1066 2071.2027,-361.2446 2061.1371,-364.5513 2065.3961,-370.1066"/>
</g>
<!-- 140219170662328&#45;&gt;140219170662160 -->
<g id="edge49" class="edge">
<title>140219170662328&#45;&gt;140219170662160</title>
<path fill="none" stroke="#000000" d="M2022.3529,-613.0163C2036.9474,-630.6919 2057.8764,-656.0393 2073.5252,-674.9916"/>
<polygon fill="#000000" stroke="#000000" points="2071.0219,-677.457 2080.0878,-682.9397 2076.4197,-673.0001 2071.0219,-677.457"/>
</g>
<!-- 140219170662608&#45;&gt;140219170662440 -->
<g id="edge50" class="edge">
<title>140219170662608&#45;&gt;140219170662440</title>
<path fill="none" stroke="#000000" d="M2024.9739,-283.5796C2037.6454,-271.8936 2054.1989,-256.6277 2068.0298,-243.8725"/>
<polygon fill="#000000" stroke="#000000" points="2070.4132,-246.4357 2075.3916,-237.0833 2065.6676,-241.2898 2070.4132,-246.4357"/>
</g>
<!-- 140219170662888&#45;&gt;140219170662720 -->
<g id="edge51" class="edge">
<title>140219170662888&#45;&gt;140219170662720</title>
<path fill="none" stroke="#000000" d="M2032.003,-481.2997C2040.0277,-480.4972 2048.9665,-479.6033 2057.5309,-478.7469"/>
<polygon fill="#000000" stroke="#000000" points="2058.1029,-482.2073 2067.705,-477.7295 2057.4064,-475.242 2058.1029,-482.2073"/>
</g>
<!-- 140219170660480&#45;&gt;140219170869376 -->
<g id="edge52" class="edge">
<title>140219170660480&#45;&gt;140219170869376</title>
<path fill="none" stroke="#000000" d="M1607.3456,-191.4853C1644.9607,-190.7772 1712.8021,-189.5002 1755.0921,-188.7041"/>
<polygon fill="#000000" stroke="#000000" points="1755.327,-192.2004 1765.2593,-188.5128 1755.1952,-185.2017 1755.327,-192.2004"/>
</g>
<!-- 140219170660760&#45;&gt;140219170660592 -->
<g id="edge53" class="edge">
<title>140219170660760&#45;&gt;140219170660592</title>
<path fill="none" stroke="#000000" d="M1216.1526,-82C1253.5021,-82 1320.8646,-82 1362.8561,-82"/>
<polygon fill="#000000" stroke="#000000" points="1362.9517,-85.5001 1372.9516,-82 1362.9516,-78.5001 1362.9517,-85.5001"/>
</g>
<!-- 140219170661040&#45;&gt;140219170660872 -->
<g id="edge54" class="edge">
<title>140219170661040&#45;&gt;140219170660872</title>
<path fill="none" stroke="#000000" d="M899.7499,-27C987.38,-27 1262.0646,-27 1362.6309,-27"/>
<polygon fill="#000000" stroke="#000000" points="1362.913,-30.5001 1372.9129,-27 1362.9129,-23.5001 1362.913,-30.5001"/>
</g>
</g>
</svg>
