<?xml version="1.0" encoding="UTF-8" standalone="no"?>
<!DOCTYPE svg PUBLIC "-//W3C//DTD SVG 1.1//EN"
 "http://www.w3.org/Graphics/SVG/1.1/DTD/svg11.dtd">
<!-- Generated by graphviz version 2.40.1 (20161225.0304)
 -->
<!-- Title: alpha_classic_net_1585321101.0948904 Pages: 1 -->
<svg width="1031pt" height="4220pt"
 viewBox="0.00 0.00 1031.00 4220.00" xmlns="http://www.w3.org/2000/svg" xmlns:xlink="http://www.w3.org/1999/xlink">
<g id="graph0" class="graph" transform="scale(1 1) rotate(0) translate(4 4216)">
<title>alpha_classic_net_1585321101.0948904</title>
<!-- 140531495848984 -->
<g id="node1" class="node">
<title>140531495848984</title>
<polygon fill="none" stroke="#000000" points="373,-36 48,-36 48,0 373,0 373,-36"/>
<text text-anchor="middle" x="210.5" y="-14.3" font-family="Times,serif" font-size="14.00" fill="#000000">AccountDataBean:AccountDataBean [overloaded_#001]</text>
</g>
<!-- 140531498222368 -->
<g id="node2" class="node">
<title>140531498222368</title>
<polygon fill="none" stroke="#000000" points="373,-90 48,-90 48,-54 373,-54 373,-90"/>
<text text-anchor="middle" x="210.5" y="-68.3" font-family="Times,serif" font-size="14.00" fill="#000000">AccountDataBean:AccountDataBean [overloaded_#003]</text>
</g>
<!-- 140531498222592 -->
<g id="node3" class="node">
<title>140531498222592</title>
<polygon fill="none" stroke="#000000" points="308.5,-144 112.5,-144 112.5,-108 308.5,-108 308.5,-144"/>
<text text-anchor="middle" x="210.5" y="-122.3" font-family="Times,serif" font-size="14.00" fill="#000000">AccountDataBean:getAccountID</text>
</g>
<!-- 140531495849768 -->
<g id="node4" class="node">
<title>140531495849768</title>
<polygon fill="none" stroke="#000000" points="300,-198 121,-198 121,-162 300,-162 300,-198"/>
<text text-anchor="middle" x="210.5" y="-176.3" font-family="Times,serif" font-size="14.00" fill="#000000">AccountDataBean:getBalance</text>
</g>
<!-- 140531498223880 -->
<g id="node5" class="node">
<title>140531498223880</title>
<polygon fill="none" stroke="#000000" points="314.5,-252 106.5,-252 106.5,-216 314.5,-216 314.5,-252"/>
<text text-anchor="middle" x="210.5" y="-230.3" font-family="Times,serif" font-size="14.00" fill="#000000">AccountDataBean:getCreationDate</text>
</g>
<!-- 140531498221976 -->
<g id="node6" class="node">
<title>140531498221976</title>
<polygon fill="none" stroke="#000000" points="311,-306 110,-306 110,-270 311,-270 311,-306"/>
<text text-anchor="middle" x="210.5" y="-284.3" font-family="Times,serif" font-size="14.00" fill="#000000">AccountDataBean:getLoginCount</text>
</g>
<!-- 140531498223208 -->
<g id="node7" class="node">
<title>140531498223208</title>
<polygon fill="none" stroke="#000000" points="315,-360 106,-360 106,-324 315,-324 315,-360"/>
<text text-anchor="middle" x="210.5" y="-338.3" font-family="Times,serif" font-size="14.00" fill="#000000">AccountDataBean:getOpenBalance</text>
</g>
<!-- 140531498224216 -->
<g id="node8" class="node">
<title>140531498224216</title>
<polygon fill="none" stroke="#000000" points="297,-414 124,-414 124,-378 297,-378 297,-414"/>
<text text-anchor="middle" x="210.5" y="-392.3" font-family="Times,serif" font-size="14.00" fill="#000000">AccountDataBean:getProfile</text>
</g>
<!-- 140531498224104 -->
<g id="node9" class="node">
<title>140531498224104</title>
<polygon fill="none" stroke="#000000" points="304,-468 117,-468 117,-432 304,-432 304,-468"/>
<text text-anchor="middle" x="210.5" y="-446.3" font-family="Times,serif" font-size="14.00" fill="#000000">AccountDataBean:getProfileID</text>
</g>
<!-- 140531495849096 -->
<g id="node10" class="node">
<title>140531495849096</title>
<polygon fill="none" stroke="#000000" points="297,-522 124,-522 124,-486 297,-486 297,-522"/>
<text text-anchor="middle" x="210.5" y="-500.3" font-family="Times,serif" font-size="14.00" fill="#000000">AccountDataBean:hashCode</text>
</g>
<!-- 140531498221640 -->
<g id="node11" class="node">
<title>140531498221640</title>
<polygon fill="none" stroke="#000000" points="284,-576 137,-576 137,-540 284,-540 284,-576"/>
<text text-anchor="middle" x="210.5" y="-554.3" font-family="Times,serif" font-size="14.00" fill="#000000">AccountDataBean:login</text>
</g>
<!-- 140531498223600 -->
<g id="node12" class="node">
<title>140531498223600</title>
<polygon fill="none" stroke="#000000" points="299.5,-630 121.5,-630 121.5,-594 299.5,-594 299.5,-630"/>
<text text-anchor="middle" x="210.5" y="-608.3" font-family="Times,serif" font-size="14.00" fill="#000000">AccountDataBean:setBalance</text>
</g>
<!-- 140531498221752 -->
<g id="node13" class="node">
<title>140531498221752</title>
<polygon fill="none" stroke="#000000" points="313.5,-684 107.5,-684 107.5,-648 313.5,-648 313.5,-684"/>
<text text-anchor="middle" x="210.5" y="-662.3" font-family="Times,serif" font-size="14.00" fill="#000000">AccountDataBean:setCreationDate</text>
</g>
<!-- 140531498224440 -->
<g id="node14" class="node">
<title>140531498224440</title>
<polygon fill="none" stroke="#000000" points="305.5,-738 115.5,-738 115.5,-702 305.5,-702 305.5,-738"/>
<text text-anchor="middle" x="210.5" y="-716.3" font-family="Times,serif" font-size="14.00" fill="#000000">AccountDataBean:setLastLogin</text>
</g>
<!-- 140531498221696 -->
<g id="node15" class="node">
<title>140531498221696</title>
<polygon fill="none" stroke="#000000" points="310.5,-792 110.5,-792 110.5,-756 310.5,-756 310.5,-792"/>
<text text-anchor="middle" x="210.5" y="-770.3" font-family="Times,serif" font-size="14.00" fill="#000000">AccountDataBean:setLoginCount</text>
</g>
<!-- 140531498222032 -->
<g id="node16" class="node">
<title>140531498222032</title>
<polygon fill="none" stroke="#000000" points="313.5,-846 107.5,-846 107.5,-810 313.5,-810 313.5,-846"/>
<text text-anchor="middle" x="210.5" y="-824.3" font-family="Times,serif" font-size="14.00" fill="#000000">AccountDataBean:setLogoutCount</text>
</g>
<!-- 140531495849824 -->
<g id="node17" class="node">
<title>140531495849824</title>
<polygon fill="none" stroke="#000000" points="314,-900 107,-900 107,-864 314,-864 314,-900"/>
<text text-anchor="middle" x="210.5" y="-878.3" font-family="Times,serif" font-size="14.00" fill="#000000">AccountDataBean:setOpenBalance</text>
</g>
<!-- 140531495849320 -->
<g id="node18" class="node">
<title>140531495849320</title>
<polygon fill="none" stroke="#000000" points="296,-954 125,-954 125,-918 296,-918 296,-954"/>
<text text-anchor="middle" x="210.5" y="-932.3" font-family="Times,serif" font-size="14.00" fill="#000000">AccountDataBean:setProfile</text>
</g>
<!-- 140531495849264 -->
<g id="node19" class="node">
<title>140531495849264</title>
<polygon fill="none" stroke="#000000" points="303,-1008 118,-1008 118,-972 303,-972 303,-1008"/>
<text text-anchor="middle" x="210.5" y="-986.3" font-family="Times,serif" font-size="14.00" fill="#000000">AccountDataBean:setProfileID</text>
</g>
<!-- 140531498223376 -->
<g id="node20" class="node">
<title>140531498223376</title>
<polygon fill="none" stroke="#000000" points="409.5,-1062 11.5,-1062 11.5,-1026 409.5,-1026 409.5,-1062"/>
<text text-anchor="middle" x="210.5" y="-1040.3" font-family="Times,serif" font-size="14.00" fill="#000000">AccountProfileDataBean:AccountProfileDataBean [overloaded_#001]</text>
</g>
<!-- 140531498223040 -->
<g id="node21" class="node">
<title>140531498223040</title>
<polygon fill="none" stroke="#000000" points="409.5,-1116 11.5,-1116 11.5,-1080 409.5,-1080 409.5,-1116"/>
<text text-anchor="middle" x="210.5" y="-1094.3" font-family="Times,serif" font-size="14.00" fill="#000000">AccountProfileDataBean:AccountProfileDataBean [overloaded_#002]</text>
</g>
<!-- 140531498222088 -->
<g id="node22" class="node">
<title>140531498222088</title>
<polygon fill="none" stroke="#000000" points="319.5,-1170 101.5,-1170 101.5,-1134 319.5,-1134 319.5,-1170"/>
<text text-anchor="middle" x="210.5" y="-1148.3" font-family="Times,serif" font-size="14.00" fill="#000000">AccountProfileDataBean:getAccount</text>
</g>
<!-- 140531495848816 -->
<g id="node23" class="node">
<title>140531495848816</title>
<polygon fill="none" stroke="#000000" points="322.5,-1224 98.5,-1224 98.5,-1188 322.5,-1188 322.5,-1224"/>
<text text-anchor="middle" x="210.5" y="-1202.3" font-family="Times,serif" font-size="14.00" fill="#000000">AccountProfileDataBean:getPassword</text>
</g>
<!-- 140531498223712 -->
<g id="node24" class="node">
<title>140531498223712</title>
<polygon fill="none" stroke="#000000" points="316.5,-1278 104.5,-1278 104.5,-1242 316.5,-1242 316.5,-1278"/>
<text text-anchor="middle" x="210.5" y="-1256.3" font-family="Times,serif" font-size="14.00" fill="#000000">AccountProfileDataBean:getUserID</text>
</g>
<!-- 140531498224328 -->
<g id="node25" class="node">
<title>140531498224328</title>
<polygon fill="none" stroke="#000000" points="315,-1332 106,-1332 106,-1296 315,-1296 315,-1332"/>
<text text-anchor="middle" x="210.5" y="-1310.3" font-family="Times,serif" font-size="14.00" fill="#000000">AccountProfileDataBean:hashCode</text>
</g>
<!-- 140531498221808 -->
<g id="node26" class="node">
<title>140531498221808</title>
<polygon fill="none" stroke="#000000" points="319,-1386 102,-1386 102,-1350 319,-1350 319,-1386"/>
<text text-anchor="middle" x="210.5" y="-1364.3" font-family="Times,serif" font-size="14.00" fill="#000000">AccountProfileDataBean:setAccount</text>
</g>
<!-- 140531498222704 -->
<g id="node27" class="node">
<title>140531498222704</title>
<polygon fill="none" stroke="#000000" points="318,-1440 103,-1440 103,-1404 318,-1404 318,-1440"/>
<text text-anchor="middle" x="210.5" y="-1418.3" font-family="Times,serif" font-size="14.00" fill="#000000">AccountProfileDataBean:setAddress</text>
</g>
<!-- 140531498222984 -->
<g id="node28" class="node">
<title>140531498222984</title>
<polygon fill="none" stroke="#000000" points="326,-1494 95,-1494 95,-1458 326,-1458 326,-1494"/>
<text text-anchor="middle" x="210.5" y="-1472.3" font-family="Times,serif" font-size="14.00" fill="#000000">AccountProfileDataBean:setCreditCard</text>
</g>
<!-- 140531498221920 -->
<g id="node29" class="node">
<title>140531498221920</title>
<polygon fill="none" stroke="#000000" points="312.5,-1548 108.5,-1548 108.5,-1512 312.5,-1512 312.5,-1548"/>
<text text-anchor="middle" x="210.5" y="-1526.3" font-family="Times,serif" font-size="14.00" fill="#000000">AccountProfileDataBean:setEmail</text>
</g>
<!-- 140531498224384 -->
<g id="node30" class="node">
<title>140531498224384</title>
<polygon fill="none" stroke="#000000" points="323.5,-1602 97.5,-1602 97.5,-1566 323.5,-1566 323.5,-1602"/>
<text text-anchor="middle" x="210.5" y="-1580.3" font-family="Times,serif" font-size="14.00" fill="#000000">AccountProfileDataBean:setFullName</text>
</g>
<!-- 140531495847752 -->
<g id="node31" class="node">
<title>140531495847752</title>
<polygon fill="none" stroke="#000000" points="322,-1656 99,-1656 99,-1620 322,-1620 322,-1656"/>
<text text-anchor="middle" x="210.5" y="-1634.3" font-family="Times,serif" font-size="14.00" fill="#000000">AccountProfileDataBean:setPassword</text>
</g>
<!-- 140531498223432 -->
<g id="node32" class="node">
<title>140531498223432</title>
<polygon fill="none" stroke="#000000" points="316,-1710 105,-1710 105,-1674 316,-1674 316,-1710"/>
<text text-anchor="middle" x="210.5" y="-1688.3" font-family="Times,serif" font-size="14.00" fill="#000000">AccountProfileDataBean:setUserID</text>
</g>
<!-- 140531495848872 -->
<g id="node33" class="node">
<title>140531495848872</title>
<polygon fill="none" stroke="#000000" points="295.5,-1764 125.5,-1764 125.5,-1728 295.5,-1728 295.5,-1764"/>
<text text-anchor="middle" x="210.5" y="-1742.3" font-family="Times,serif" font-size="14.00" fill="#000000">FinancialUtils:computeGain</text>
</g>
<!-- 140531495848760 -->
<g id="node34" class="node">
<title>140531495848760</title>
<polygon fill="none" stroke="#000000" points="316,-1818 105,-1818 105,-1782 316,-1782 316,-1818"/>
<text text-anchor="middle" x="210.5" y="-1796.3" font-family="Times,serif" font-size="14.00" fill="#000000">FinancialUtils:computeGainPercent</text>
</g>
<!-- 140531495849152 -->
<g id="node35" class="node">
<title>140531495849152</title>
<polygon fill="none" stroke="#000000" points="321.5,-1872 99.5,-1872 99.5,-1836 321.5,-1836 321.5,-1872"/>
<text text-anchor="middle" x="210.5" y="-1850.3" font-family="Times,serif" font-size="14.00" fill="#000000">FinancialUtils:computeHoldingsTotal</text>
</g>
<!-- 140531495849040 -->
<g id="node36" class="node">
<title>140531495849040</title>
<polygon fill="none" stroke="#000000" points="304.5,-1926 116.5,-1926 116.5,-1890 304.5,-1890 304.5,-1926"/>
<text text-anchor="middle" x="210.5" y="-1904.3" font-family="Times,serif" font-size="14.00" fill="#000000">FinancialUtils:printGainHTML</text>
</g>
<!-- 140531498222256 -->
<g id="node37" class="node">
<title>140531498222256</title>
<polygon fill="none" stroke="#000000" points="324.5,-1980 96.5,-1980 96.5,-1944 324.5,-1944 324.5,-1980"/>
<text text-anchor="middle" x="210.5" y="-1958.3" font-family="Times,serif" font-size="14.00" fill="#000000">FinancialUtils:printGainPercentHTML</text>
</g>
<!-- 140531495849544 -->
<g id="node38" class="node">
<title>140531495849544</title>
<polygon fill="none" stroke="#000000" points="272,-2034 149,-2034 149,-1998 272,-1998 272,-2034"/>
<text text-anchor="middle" x="210.5" y="-2012.3" font-family="Times,serif" font-size="14.00" fill="#000000">Log:doActionTrace</text>
</g>
<!-- 140531498223152 -->
<g id="node39" class="node">
<title>140531498223152</title>
<polygon fill="none" stroke="#000000" points="253.5,-2088 167.5,-2088 167.5,-2052 253.5,-2052 253.5,-2088"/>
<text text-anchor="middle" x="210.5" y="-2066.3" font-family="Times,serif" font-size="14.00" fill="#000000">Log:doTrace</text>
</g>
<!-- 140531498223264 -->
<g id="node40" class="node">
<title>140531498223264</title>
<polygon fill="none" stroke="#000000" points="273.5,-2142 147.5,-2142 147.5,-2106 273.5,-2106 273.5,-2142"/>
<text text-anchor="middle" x="210.5" y="-2120.3" font-family="Times,serif" font-size="14.00" fill="#000000">Log:getActionTrace</text>
</g>
<!-- 140531498222536 -->
<g id="node41" class="node">
<title>140531498222536</title>
<polygon fill="none" stroke="#000000" points="255,-2196 166,-2196 166,-2160 255,-2160 255,-2196"/>
<text text-anchor="middle" x="210.5" y="-2174.3" font-family="Times,serif" font-size="14.00" fill="#000000">Log:getTrace</text>
</g>
<!-- 140531498221864 -->
<g id="node42" class="node">
<title>140531498221864</title>
<polygon fill="none" stroke="#000000" points="421,-2250 0,-2250 0,-2214 421,-2214 421,-2250"/>
<text text-anchor="middle" x="210.5" y="-2228.3" font-family="Times,serif" font-size="14.00" fill="#000000">MarketSummaryDataBean:MarketSummaryDataBean [overloaded_#002]</text>
</g>
<!-- 140531495849712 -->
<g id="node43" class="node">
<title>140531495849712</title>
<polygon fill="none" stroke="#000000" points="332,-2304 89,-2304 89,-2268 332,-2268 332,-2304"/>
<text text-anchor="middle" x="210.5" y="-2282.3" font-family="Times,serif" font-size="14.00" fill="#000000">MarketSummaryDataBean:getOpenTSIA</text>
</g>
<!-- 140531498222312 -->
<g id="node44" class="node">
<title>140531498222312</title>
<polygon fill="none" stroke="#000000" points="317.5,-2358 103.5,-2358 103.5,-2322 317.5,-2322 317.5,-2358"/>
<text text-anchor="middle" x="210.5" y="-2336.3" font-family="Times,serif" font-size="14.00" fill="#000000">MarketSummaryDataBean:getTSIA</text>
</g>
<!-- 140531498222872 -->
<g id="node45" class="node">
<title>140531498222872</title>
<polygon fill="none" stroke="#000000" points="331.5,-2412 89.5,-2412 89.5,-2376 331.5,-2376 331.5,-2412"/>
<text text-anchor="middle" x="210.5" y="-2390.3" font-family="Times,serif" font-size="14.00" fill="#000000">MarketSummaryDataBean:setOpenTSIA</text>
</g>
<!-- 140531495849432 -->
<g id="node46" class="node">
<title>140531495849432</title>
<polygon fill="none" stroke="#000000" points="341.5,-2466 79.5,-2466 79.5,-2430 341.5,-2430 341.5,-2466"/>
<text text-anchor="middle" x="210.5" y="-2444.3" font-family="Times,serif" font-size="14.00" fill="#000000">MarketSummaryDataBean:setSummaryDate</text>
</g>
<!-- 140531495848480 -->
<g id="node47" class="node">
<title>140531495848480</title>
<polygon fill="none" stroke="#000000" points="316.5,-2520 104.5,-2520 104.5,-2484 316.5,-2484 316.5,-2520"/>
<text text-anchor="middle" x="210.5" y="-2498.3" font-family="Times,serif" font-size="14.00" fill="#000000">MarketSummaryDataBean:setTSIA</text>
</g>
<!-- 140531498224272 -->
<g id="node48" class="node">
<title>140531498224272</title>
<polygon fill="none" stroke="#000000" points="333.5,-2574 87.5,-2574 87.5,-2538 333.5,-2538 333.5,-2574"/>
<text text-anchor="middle" x="210.5" y="-2552.3" font-family="Times,serif" font-size="14.00" fill="#000000">MarketSummaryDataBean:setTopGainers</text>
</g>
<!-- 140531495849656 -->
<g id="node49" class="node">
<title>140531495849656</title>
<polygon fill="none" stroke="#000000" points="330.5,-2628 90.5,-2628 90.5,-2592 330.5,-2592 330.5,-2628"/>
<text text-anchor="middle" x="210.5" y="-2606.3" font-family="Times,serif" font-size="14.00" fill="#000000">MarketSummaryDataBean:setTopLosers</text>
</g>
<!-- 140531495848592 -->
<g id="node50" class="node">
<title>140531495848592</title>
<polygon fill="none" stroke="#000000" points="324,-2682 97,-2682 97,-2646 324,-2646 324,-2682"/>
<text text-anchor="middle" x="210.5" y="-2660.3" font-family="Times,serif" font-size="14.00" fill="#000000">MarketSummaryDataBean:setVolume</text>
</g>
<!-- 140531498222760 -->
<g id="node51" class="node">
<title>140531498222760</title>
<polygon fill="none" stroke="#000000" points="374.5,-2736 46.5,-2736 46.5,-2700 374.5,-2700 374.5,-2736"/>
<text text-anchor="middle" x="210.5" y="-2714.3" font-family="Times,serif" font-size="14.00" fill="#000000">MarketSummarySingleton:setMarketSummaryDataBean</text>
</g>
<!-- 140531495849376 -->
<g id="node52" class="node">
<title>140531495849376</title>
<polygon fill="none" stroke="#000000" points="753,-2826 457,-2826 457,-2790 753,-2790 753,-2826"/>
<text text-anchor="middle" x="605" y="-2804.3" font-family="Times,serif" font-size="14.00" fill="#000000">MarketSummarySingleton:updateMarketSummary</text>
</g>
<!-- 140531498224832 -->
<g id="node82" class="node">
<title>140531498224832</title>
<ellipse fill="none" stroke="#000000" cx="816" cy="-2781" rx="27" ry="27"/>
<text text-anchor="middle" x="816" y="-2777.3" font-family="Times,serif" font-size="14.00" fill="#000000">({&#39;MarketSummarySingleton:updateMarketSummary&#39;, &#39;OrdersAlertFilter:doFilter&#39;}, {&#39;Root&#39;})</text>
</g>
<!-- 140531495849376&#45;&gt;140531498224832 -->
<g id="edge2" class="edge">
<title>140531495849376&#45;&gt;140531498224832</title>
<path fill="none" stroke="#000000" d="M745.7401,-2789.9906C757.7313,-2788.4562 769.0363,-2787.0096 778.9293,-2785.7436"/>
<polygon fill="#000000" stroke="#000000" points="779.601,-2789.1863 789.0758,-2784.4453 778.7124,-2782.2429 779.601,-2789.1863"/>
</g>
<!-- 140531495848536 -->
<g id="node53" class="node">
<title>140531495848536</title>
<polygon fill="none" stroke="#000000" points="683.5,-2772 526.5,-2772 526.5,-2736 683.5,-2736 683.5,-2772"/>
<text text-anchor="middle" x="605" y="-2750.3" font-family="Times,serif" font-size="14.00" fill="#000000">OrdersAlertFilter:doFilter</text>
</g>
<!-- 140531495848536&#45;&gt;140531498224832 -->
<g id="edge3" class="edge">
<title>140531495848536&#45;&gt;140531498224832</title>
<path fill="none" stroke="#000000" d="M683.5686,-2764.0538C716.3584,-2768.2497 752.868,-2772.9215 779.2348,-2776.2954"/>
<polygon fill="#000000" stroke="#000000" points="778.8029,-2779.7686 789.1663,-2777.5663 779.6914,-2772.8253 778.8029,-2779.7686"/>
</g>
<!-- 140531495849600 -->
<g id="node54" class="node">
<title>140531495849600</title>
<polygon fill="none" stroke="#000000" points="360,-2862 61,-2862 61,-2826 360,-2826 360,-2862"/>
<text text-anchor="middle" x="210.5" y="-2840.3" font-family="Times,serif" font-size="14.00" fill="#000000">QuoteDataBean:QuoteDataBean [overloaded_#001]</text>
</g>
<!-- 140531495848704 -->
<g id="node55" class="node">
<title>140531495848704</title>
<polygon fill="none" stroke="#000000" points="286.5,-2916 134.5,-2916 134.5,-2880 286.5,-2880 286.5,-2916"/>
<text text-anchor="middle" x="210.5" y="-2894.3" font-family="Times,serif" font-size="14.00" fill="#000000">QuoteDataBean:getOpen</text>
</g>
<!-- 140531498222648 -->
<g id="node56" class="node">
<title>140531498222648</title>
<polygon fill="none" stroke="#000000" points="286,-2970 135,-2970 135,-2934 286,-2934 286,-2970"/>
<text text-anchor="middle" x="210.5" y="-2948.3" font-family="Times,serif" font-size="14.00" fill="#000000">QuoteDataBean:getPrice</text>
</g>
<!-- 140531498223824 -->
<g id="node57" class="node">
<title>140531498223824</title>
<polygon fill="none" stroke="#000000" points="294,-3024 127,-3024 127,-2988 294,-2988 294,-3024"/>
<text text-anchor="middle" x="210.5" y="-3002.3" font-family="Times,serif" font-size="14.00" fill="#000000">QuoteDataBean:getVolume</text>
</g>
<!-- 140531498222200 -->
<g id="node58" class="node">
<title>140531498222200</title>
<polygon fill="none" stroke="#000000" points="933,-2799 879,-2799 879,-2763 933,-2763 933,-2799"/>
<text text-anchor="middle" x="906" y="-2777.3" font-family="Times,serif" font-size="14.00" fill="#000000">Root</text>
</g>
<!-- 140531498224664 -->
<g id="node83" class="node">
<title>140531498224664</title>
<ellipse fill="#ffa500" stroke="#000000" cx="996" cy="-2781" rx="27" ry="27"/>
</g>
<!-- 140531498222200&#45;&gt;140531498224664 -->
<g id="edge4" class="edge">
<title>140531498222200&#45;&gt;140531498224664</title>
<path fill="none" stroke="#000000" d="M933.003,-2781C941.0277,-2781 949.9665,-2781 958.5309,-2781"/>
<polygon fill="#000000" stroke="#000000" points="958.7051,-2784.5001 968.705,-2781 958.705,-2777.5001 958.7051,-2784.5001"/>
</g>
<!-- 140531498223768 -->
<g id="node59" class="node">
<title>140531498223768</title>
<polygon fill="none" stroke="#000000" points="342,-3078 79,-3078 79,-3042 342,-3042 342,-3078"/>
<text text-anchor="middle" x="210.5" y="-3056.3" font-family="Times,serif" font-size="14.00" fill="#000000">TradeAction:TradeAction [overloaded_#001]</text>
</g>
<!-- 140531498223544 -->
<g id="node60" class="node">
<title>140531498223544</title>
<polygon fill="none" stroke="#000000" points="286.5,-3132 134.5,-3132 134.5,-3096 286.5,-3096 286.5,-3132"/>
<text text-anchor="middle" x="210.5" y="-3110.3" font-family="Times,serif" font-size="14.00" fill="#000000">TradeAction:createTrade</text>
</g>
<!-- 140531495848648 -->
<g id="node61" class="node">
<title>140531495848648</title>
<polygon fill="none" stroke="#000000" points="298.5,-3186 122.5,-3186 122.5,-3150 298.5,-3150 298.5,-3186"/>
<text text-anchor="middle" x="210.5" y="-3164.3" font-family="Times,serif" font-size="14.00" fill="#000000">TradeAction:getAccountData</text>
</g>
<!-- 140531498224160 -->
<g id="node62" class="node">
<title>140531498224160</title>
<polygon fill="none" stroke="#000000" points="288,-3240 133,-3240 133,-3204 288,-3204 288,-3240"/>
<text text-anchor="middle" x="210.5" y="-3218.3" font-family="Times,serif" font-size="14.00" fill="#000000">TradeAction:getHoldings</text>
</g>
<!-- 140531498222424 -->
<g id="node63" class="node">
<title>140531498222424</title>
<polygon fill="none" stroke="#000000" points="268.5,-3294 152.5,-3294 152.5,-3258 268.5,-3258 268.5,-3294"/>
<text text-anchor="middle" x="210.5" y="-3272.3" font-family="Times,serif" font-size="14.00" fill="#000000">TradeAction:login</text>
</g>
<!-- 140531498223488 -->
<g id="node64" class="node">
<title>140531498223488</title>
<polygon fill="none" stroke="#000000" points="328.5,-3348 92.5,-3348 92.5,-3312 328.5,-3312 328.5,-3348"/>
<text text-anchor="middle" x="210.5" y="-3326.3" font-family="Times,serif" font-size="14.00" fill="#000000">TradeAction:register [overloaded_#005]</text>
</g>
<!-- 140531498222144 -->
<g id="node65" class="node">
<title>140531498222144</title>
<polygon fill="none" stroke="#000000" points="283.5,-3402 137.5,-3402 137.5,-3366 283.5,-3366 283.5,-3402"/>
<text text-anchor="middle" x="210.5" y="-3380.3" font-family="Times,serif" font-size="14.00" fill="#000000">TradeAppServlet:doGet</text>
</g>
<!-- 140531495849488 -->
<g id="node66" class="node">
<title>140531495849488</title>
<polygon fill="none" stroke="#000000" points="302.5,-3456 118.5,-3456 118.5,-3420 302.5,-3420 302.5,-3456"/>
<text text-anchor="middle" x="210.5" y="-3434.3" font-family="Times,serif" font-size="14.00" fill="#000000">TradeAppServlet:performTask</text>
</g>
<!-- 140531498223936 -->
<g id="node67" class="node">
<title>140531498223936</title>
<polygon fill="none" stroke="#000000" points="297,-3510 124,-3510 124,-3474 297,-3474 297,-3510"/>
<text text-anchor="middle" x="210.5" y="-3488.3" font-family="Times,serif" font-size="14.00" fill="#000000">TradeConfig:getActionTrace</text>
</g>
<!-- 140531495849880 -->
<g id="node68" class="node">
<title>140531495849880</title>
<polygon fill="none" stroke="#000000" points="316.5,-3564 104.5,-3564 104.5,-3528 316.5,-3528 316.5,-3564"/>
<text text-anchor="middle" x="210.5" y="-3542.3" font-family="Times,serif" font-size="14.00" fill="#000000">TradeConfig:getDisplayOrderAlerts</text>
</g>
<!-- 140531498222480 -->
<g id="node69" class="node">
<title>140531498222480</title>
<polygon fill="none" stroke="#000000" points="276.5,-3618 144.5,-3618 144.5,-3582 276.5,-3582 276.5,-3618"/>
<text text-anchor="middle" x="210.5" y="-3596.3" font-family="Times,serif" font-size="14.00" fill="#000000">TradeConfig:getPage</text>
</g>
<!-- 140531495849208 -->
<g id="node70" class="node">
<title>140531495849208</title>
<polygon fill="none" stroke="#000000" points="305.5,-3672 115.5,-3672 115.5,-3636 305.5,-3636 305.5,-3672"/>
<text text-anchor="middle" x="210.5" y="-3650.3" font-family="Times,serif" font-size="14.00" fill="#000000">TradeConfig:getRunTimeMode</text>
</g>
<!-- 140531498222928 -->
<g id="node71" class="node">
<title>140531498222928</title>
<polygon fill="none" stroke="#000000" points="279,-3726 142,-3726 142,-3690 279,-3690 279,-3726"/>
<text text-anchor="middle" x="210.5" y="-3704.3" font-family="Times,serif" font-size="14.00" fill="#000000">TradeConfig:getTrace</text>
</g>
<!-- 140531498223656 -->
<g id="node72" class="node">
<title>140531498223656</title>
<polygon fill="none" stroke="#000000" points="321,-3780 100,-3780 100,-3744 321,-3744 321,-3780"/>
<text text-anchor="middle" x="210.5" y="-3758.3" font-family="Times,serif" font-size="14.00" fill="#000000">TradeConfig:useRemoteEJBInterface</text>
</g>
<!-- 140531498224048 -->
<g id="node73" class="node">
<title>140531498224048</title>
<polygon fill="none" stroke="#000000" points="310.5,-3834 110.5,-3834 110.5,-3798 310.5,-3798 310.5,-3834"/>
<text text-anchor="middle" x="210.5" y="-3812.3" font-family="Times,serif" font-size="14.00" fill="#000000">TradeSLSBBean:getAccountData</text>
</g>
<!-- 140531498222816 -->
<g id="node74" class="node">
<title>140531498222816</title>
<polygon fill="none" stroke="#000000" points="299.5,-3888 121.5,-3888 121.5,-3852 299.5,-3852 299.5,-3888"/>
<text text-anchor="middle" x="210.5" y="-3866.3" font-family="Times,serif" font-size="14.00" fill="#000000">TradeSLSBBean:getHoldings</text>
</g>
<!-- 140531498223320 -->
<g id="node75" class="node">
<title>140531498223320</title>
<polygon fill="none" stroke="#000000" points="280.5,-3942 140.5,-3942 140.5,-3906 280.5,-3906 280.5,-3942"/>
<text text-anchor="middle" x="210.5" y="-3920.3" font-family="Times,serif" font-size="14.00" fill="#000000">TradeSLSBBean:login</text>
</g>
<!-- 140531495848928 -->
<g id="node76" class="node">
<title>140531495848928</title>
<polygon fill="none" stroke="#000000" points="286.5,-3996 134.5,-3996 134.5,-3960 286.5,-3960 286.5,-3996"/>
<text text-anchor="middle" x="210.5" y="-3974.3" font-family="Times,serif" font-size="14.00" fill="#000000">TradeSLSBBean:register</text>
</g>
<!-- 140531498223992 -->
<g id="node77" class="node">
<title>140531498223992</title>
<polygon fill="none" stroke="#000000" points="297.5,-4050 123.5,-4050 123.5,-4014 297.5,-4014 297.5,-4050"/>
<text text-anchor="middle" x="210.5" y="-4028.3" font-family="Times,serif" font-size="14.00" fill="#000000">TradeServletAction:doHome</text>
</g>
<!-- 140531498223096 -->
<g id="node78" class="node">
<title>140531498223096</title>
<polygon fill="none" stroke="#000000" points="297,-4104 124,-4104 124,-4068 297,-4068 297,-4104"/>
<text text-anchor="middle" x="210.5" y="-4082.3" font-family="Times,serif" font-size="14.00" fill="#000000">TradeServletAction:doLogin</text>
</g>
<!-- 140531495848368 -->
<g id="node79" class="node">
<title>140531495848368</title>
<polygon fill="none" stroke="#000000" points="303,-4158 118,-4158 118,-4122 303,-4122 303,-4158"/>
<text text-anchor="middle" x="210.5" y="-4136.3" font-family="Times,serif" font-size="14.00" fill="#000000">TradeServletAction:doRegister</text>
</g>
<!-- 140531495849936 -->
<g id="node80" class="node">
<title>140531495849936</title>
<polygon fill="none" stroke="#000000" points="317.5,-4212 103.5,-4212 103.5,-4176 317.5,-4176 317.5,-4212"/>
<text text-anchor="middle" x="210.5" y="-4190.3" font-family="Times,serif" font-size="14.00" fill="#000000">TradeServletAction:requestDispatch</text>
</g>
<!-- 140531498224496 -->
<g id="node81" class="node">
<title>140531498224496</title>
<ellipse fill="#00ff00" stroke="#000000" cx="210.5" cy="-2781" rx="27" ry="27"/>
<text text-anchor="middle" x="210.5" y="-2777.3" font-family="Times,serif" font-size="14.00" fill="#000000">1</text>
</g>
<!-- 140531498224496&#45;&gt;140531495849376 -->
<g id="edge5" class="edge">
<title>140531498224496&#45;&gt;140531495849376</title>
<path fill="none" stroke="#000000" d="M237.6156,-2782.8558C280.686,-2785.8036 367.9212,-2791.7741 446.5792,-2797.1575"/>
<polygon fill="#000000" stroke="#000000" points="446.4049,-2800.6537 456.6205,-2797.8448 446.8829,-2793.67 446.4049,-2800.6537"/>
</g>
<!-- 140531498224496&#45;&gt;140531495848536 -->
<g id="edge6" class="edge">
<title>140531498224496&#45;&gt;140531495848536</title>
<path fill="none" stroke="#000000" d="M237.6156,-2779.1442C294.1034,-2775.2781 426.5586,-2766.2127 515.9986,-2760.0914"/>
<polygon fill="#000000" stroke="#000000" points="516.4034,-2763.5719 526.1411,-2759.3972 515.9254,-2756.5883 516.4034,-2763.5719"/>
</g>
<!-- 140531498224832&#45;&gt;140531498222200 -->
<g id="edge1" class="edge">
<title>140531498224832&#45;&gt;140531498222200</title>
<path fill="none" stroke="#000000" d="M843.003,-2781C851.0277,-2781 859.9665,-2781 868.5309,-2781"/>
<polygon fill="#000000" stroke="#000000" points="868.7051,-2784.5001 878.705,-2781 868.705,-2777.5001 868.7051,-2784.5001"/>
</g>
</g>
</svg>
