<?xml version="1.0" encoding="UTF-8" standalone="no"?>
<!DOCTYPE svg PUBLIC "-//W3C//DTD SVG 1.1//EN"
 "http://www.w3.org/Graphics/SVG/1.1/DTD/svg11.dtd">
<!-- Generated by graphviz version 2.40.1 (20161225.0304)
 -->
<!-- Title: alpha_plus_net_1585321101.1307628 Pages: 1 -->
<svg width="1189pt" height="3986pt"
 viewBox="0.00 0.00 1189.00 3986.00" xmlns="http://www.w3.org/2000/svg" xmlns:xlink="http://www.w3.org/1999/xlink">
<g id="graph0" class="graph" transform="scale(1 1) rotate(0) translate(4 3982)">
<title>alpha_plus_net_1585321101.1307628</title>
<!-- 140531498225056 -->
<g id="node1" class="node">
<title>140531498225056</title>
<polygon fill="none" stroke="#000000" points="373,-36 48,-36 48,0 373,0 373,-36"/>
<text text-anchor="middle" x="210.5" y="-14.3" font-family="Times,serif" font-size="14.00" fill="#000000">AccountDataBean:AccountDataBean [overloaded_#001]</text>
</g>
<!-- 140531497915616 -->
<g id="node2" class="node">
<title>140531497915616</title>
<polygon fill="none" stroke="#000000" points="373,-90 48,-90 48,-54 373,-54 373,-90"/>
<text text-anchor="middle" x="210.5" y="-68.3" font-family="Times,serif" font-size="14.00" fill="#000000">AccountDataBean:AccountDataBean [overloaded_#003]</text>
</g>
<!-- 140531497915840 -->
<g id="node3" class="node">
<title>140531497915840</title>
<polygon fill="none" stroke="#000000" points="308.5,-144 112.5,-144 112.5,-108 308.5,-108 308.5,-144"/>
<text text-anchor="middle" x="210.5" y="-122.3" font-family="Times,serif" font-size="14.00" fill="#000000">AccountDataBean:getAccountID</text>
</g>
<!-- 140531497914608 -->
<g id="node4" class="node">
<title>140531497914608</title>
<polygon fill="none" stroke="#000000" points="300,-198 121,-198 121,-162 300,-162 300,-198"/>
<text text-anchor="middle" x="210.5" y="-176.3" font-family="Times,serif" font-size="14.00" fill="#000000">AccountDataBean:getBalance</text>
</g>
<!-- 140531497917184 -->
<g id="node5" class="node">
<title>140531497917184</title>
<polygon fill="none" stroke="#000000" points="314.5,-252 106.5,-252 106.5,-216 314.5,-216 314.5,-252"/>
<text text-anchor="middle" x="210.5" y="-230.3" font-family="Times,serif" font-size="14.00" fill="#000000">AccountDataBean:getCreationDate</text>
</g>
<!-- 140531497915168 -->
<g id="node6" class="node">
<title>140531497915168</title>
<polygon fill="none" stroke="#000000" points="311,-306 110,-306 110,-270 311,-270 311,-306"/>
<text text-anchor="middle" x="210.5" y="-284.3" font-family="Times,serif" font-size="14.00" fill="#000000">AccountDataBean:getLoginCount</text>
</g>
<!-- 140531497916512 -->
<g id="node7" class="node">
<title>140531497916512</title>
<polygon fill="none" stroke="#000000" points="315,-360 106,-360 106,-324 315,-324 315,-360"/>
<text text-anchor="middle" x="210.5" y="-338.3" font-family="Times,serif" font-size="14.00" fill="#000000">AccountDataBean:getOpenBalance</text>
</g>
<!-- 140531497917520 -->
<g id="node8" class="node">
<title>140531497917520</title>
<polygon fill="none" stroke="#000000" points="297,-414 124,-414 124,-378 297,-378 297,-414"/>
<text text-anchor="middle" x="210.5" y="-392.3" font-family="Times,serif" font-size="14.00" fill="#000000">AccountDataBean:getProfile</text>
</g>
<!-- 140531497917408 -->
<g id="node9" class="node">
<title>140531497917408</title>
<polygon fill="none" stroke="#000000" points="304,-468 117,-468 117,-432 304,-432 304,-468"/>
<text text-anchor="middle" x="210.5" y="-446.3" font-family="Times,serif" font-size="14.00" fill="#000000">AccountDataBean:getProfileID</text>
</g>
<!-- 140531498225168 -->
<g id="node10" class="node">
<title>140531498225168</title>
<polygon fill="none" stroke="#000000" points="297,-522 124,-522 124,-486 297,-486 297,-522"/>
<text text-anchor="middle" x="210.5" y="-500.3" font-family="Times,serif" font-size="14.00" fill="#000000">AccountDataBean:hashCode</text>
</g>
<!-- 140531497951864 -->
<g id="node83" class="node">
<title>140531497951864</title>
<ellipse fill="none" stroke="#000000" cx="484" cy="-543" rx="27" ry="27"/>
<text text-anchor="middle" x="484" y="-539.3" font-family="Times,serif" font-size="14.00" fill="#000000">({&#39;AccountDataBean:hashCode&#39;, &#39;AccountProfileDataBean:hashCode&#39;}, {&#39;TradeAction:login&#39;, &#39;TradeSLSBBean:register&#39;})</text>
</g>
<!-- 140531498225168&#45;&gt;140531497951864 -->
<g id="edge9" class="edge">
<title>140531498225168&#45;&gt;140531497951864</title>
<path fill="none" stroke="#000000" d="M297.2101,-513.9216C335.2675,-518.5857 380.4294,-524.5403 421,-531 429.6144,-532.3716 438.8565,-534.0275 447.5353,-535.6653"/>
<polygon fill="#000000" stroke="#000000" points="446.9123,-539.1096 457.3934,-537.5615 448.2346,-532.2356 446.9123,-539.1096"/>
</g>
<!-- 140531497914832 -->
<g id="node11" class="node">
<title>140531497914832</title>
<polygon fill="none" stroke="#000000" points="284,-576 137,-576 137,-540 284,-540 284,-576"/>
<text text-anchor="middle" x="210.5" y="-554.3" font-family="Times,serif" font-size="14.00" fill="#000000">AccountDataBean:login</text>
</g>
<!-- 140531497916904 -->
<g id="node12" class="node">
<title>140531497916904</title>
<polygon fill="none" stroke="#000000" points="299.5,-630 121.5,-630 121.5,-594 299.5,-594 299.5,-630"/>
<text text-anchor="middle" x="210.5" y="-608.3" font-family="Times,serif" font-size="14.00" fill="#000000">AccountDataBean:setBalance</text>
</g>
<!-- 140531497914944 -->
<g id="node13" class="node">
<title>140531497914944</title>
<polygon fill="none" stroke="#000000" points="313.5,-684 107.5,-684 107.5,-648 313.5,-648 313.5,-684"/>
<text text-anchor="middle" x="210.5" y="-662.3" font-family="Times,serif" font-size="14.00" fill="#000000">AccountDataBean:setCreationDate</text>
</g>
<!-- 140531497917744 -->
<g id="node14" class="node">
<title>140531497917744</title>
<polygon fill="none" stroke="#000000" points="305.5,-738 115.5,-738 115.5,-702 305.5,-702 305.5,-738"/>
<text text-anchor="middle" x="210.5" y="-716.3" font-family="Times,serif" font-size="14.00" fill="#000000">AccountDataBean:setLastLogin</text>
</g>
<!-- 140531497914888 -->
<g id="node15" class="node">
<title>140531497914888</title>
<polygon fill="none" stroke="#000000" points="310.5,-792 110.5,-792 110.5,-756 310.5,-756 310.5,-792"/>
<text text-anchor="middle" x="210.5" y="-770.3" font-family="Times,serif" font-size="14.00" fill="#000000">AccountDataBean:setLoginCount</text>
</g>
<!-- 140531497915280 -->
<g id="node16" class="node">
<title>140531497915280</title>
<polygon fill="none" stroke="#000000" points="313.5,-846 107.5,-846 107.5,-810 313.5,-810 313.5,-846"/>
<text text-anchor="middle" x="210.5" y="-824.3" font-family="Times,serif" font-size="14.00" fill="#000000">AccountDataBean:setLogoutCount</text>
</g>
<!-- 140531497914664 -->
<g id="node17" class="node">
<title>140531497914664</title>
<polygon fill="none" stroke="#000000" points="314,-900 107,-900 107,-864 314,-864 314,-900"/>
<text text-anchor="middle" x="210.5" y="-878.3" font-family="Times,serif" font-size="14.00" fill="#000000">AccountDataBean:setOpenBalance</text>
</g>
<!-- 140531498225392 -->
<g id="node18" class="node">
<title>140531498225392</title>
<polygon fill="none" stroke="#000000" points="296,-954 125,-954 125,-918 296,-918 296,-954"/>
<text text-anchor="middle" x="210.5" y="-932.3" font-family="Times,serif" font-size="14.00" fill="#000000">AccountDataBean:setProfile</text>
</g>
<!-- 140531498225336 -->
<g id="node19" class="node">
<title>140531498225336</title>
<polygon fill="none" stroke="#000000" points="303,-1008 118,-1008 118,-972 303,-972 303,-1008"/>
<text text-anchor="middle" x="210.5" y="-986.3" font-family="Times,serif" font-size="14.00" fill="#000000">AccountDataBean:setProfileID</text>
</g>
<!-- 140531497916680 -->
<g id="node20" class="node">
<title>140531497916680</title>
<polygon fill="none" stroke="#000000" points="409.5,-1062 11.5,-1062 11.5,-1026 409.5,-1026 409.5,-1062"/>
<text text-anchor="middle" x="210.5" y="-1040.3" font-family="Times,serif" font-size="14.00" fill="#000000">AccountProfileDataBean:AccountProfileDataBean [overloaded_#001]</text>
</g>
<!-- 140531497916288 -->
<g id="node21" class="node">
<title>140531497916288</title>
<polygon fill="none" stroke="#000000" points="409.5,-1116 11.5,-1116 11.5,-1080 409.5,-1080 409.5,-1116"/>
<text text-anchor="middle" x="210.5" y="-1094.3" font-family="Times,serif" font-size="14.00" fill="#000000">AccountProfileDataBean:AccountProfileDataBean [overloaded_#002]</text>
</g>
<!-- 140531497915336 -->
<g id="node22" class="node">
<title>140531497915336</title>
<polygon fill="none" stroke="#000000" points="319.5,-1170 101.5,-1170 101.5,-1134 319.5,-1134 319.5,-1170"/>
<text text-anchor="middle" x="210.5" y="-1148.3" font-family="Times,serif" font-size="14.00" fill="#000000">AccountProfileDataBean:getAccount</text>
</g>
<!-- 140531496455976 -->
<g id="node23" class="node">
<title>140531496455976</title>
<polygon fill="none" stroke="#000000" points="322.5,-1224 98.5,-1224 98.5,-1188 322.5,-1188 322.5,-1224"/>
<text text-anchor="middle" x="210.5" y="-1202.3" font-family="Times,serif" font-size="14.00" fill="#000000">AccountProfileDataBean:getPassword</text>
</g>
<!-- 140531497917016 -->
<g id="node24" class="node">
<title>140531497917016</title>
<polygon fill="none" stroke="#000000" points="316.5,-1278 104.5,-1278 104.5,-1242 316.5,-1242 316.5,-1278"/>
<text text-anchor="middle" x="210.5" y="-1256.3" font-family="Times,serif" font-size="14.00" fill="#000000">AccountProfileDataBean:getUserID</text>
</g>
<!-- 140531497917632 -->
<g id="node25" class="node">
<title>140531497917632</title>
<polygon fill="none" stroke="#000000" points="1181,-592 972,-592 972,-556 1181,-556 1181,-592"/>
<text text-anchor="middle" x="1076.5" y="-570.3" font-family="Times,serif" font-size="14.00" fill="#000000">AccountProfileDataBean:hashCode</text>
</g>
<!-- 140531497917632&#45;&gt;140531497951864 -->
<g id="edge10" class="edge">
<title>140531497917632&#45;&gt;140531497951864</title>
<path fill="none" stroke="#000000" d="M1007.2692,-592.0489C903.8123,-615.6148 704.2162,-647.8059 547,-593 533.3408,-588.2384 520.4199,-579.1428 509.8766,-570.0007"/>
<polygon fill="#000000" stroke="#000000" points="512.0448,-567.2405 502.3047,-563.0715 507.3191,-572.4046 512.0448,-567.2405"/>
</g>
<!-- 140531497915000 -->
<g id="node26" class="node">
<title>140531497915000</title>
<polygon fill="none" stroke="#000000" points="319,-1332 102,-1332 102,-1296 319,-1296 319,-1332"/>
<text text-anchor="middle" x="210.5" y="-1310.3" font-family="Times,serif" font-size="14.00" fill="#000000">AccountProfileDataBean:setAccount</text>
</g>
<!-- 140531497915952 -->
<g id="node27" class="node">
<title>140531497915952</title>
<polygon fill="none" stroke="#000000" points="318,-1386 103,-1386 103,-1350 318,-1350 318,-1386"/>
<text text-anchor="middle" x="210.5" y="-1364.3" font-family="Times,serif" font-size="14.00" fill="#000000">AccountProfileDataBean:setAddress</text>
</g>
<!-- 140531497916232 -->
<g id="node28" class="node">
<title>140531497916232</title>
<polygon fill="none" stroke="#000000" points="326,-1440 95,-1440 95,-1404 326,-1404 326,-1440"/>
<text text-anchor="middle" x="210.5" y="-1418.3" font-family="Times,serif" font-size="14.00" fill="#000000">AccountProfileDataBean:setCreditCard</text>
</g>
<!-- 140531497915112 -->
<g id="node29" class="node">
<title>140531497915112</title>
<polygon fill="none" stroke="#000000" points="312.5,-1494 108.5,-1494 108.5,-1458 312.5,-1458 312.5,-1494"/>
<text text-anchor="middle" x="210.5" y="-1472.3" font-family="Times,serif" font-size="14.00" fill="#000000">AccountProfileDataBean:setEmail</text>
</g>
<!-- 140531497917688 -->
<g id="node30" class="node">
<title>140531497917688</title>
<polygon fill="none" stroke="#000000" points="323.5,-1548 97.5,-1548 97.5,-1512 323.5,-1512 323.5,-1548"/>
<text text-anchor="middle" x="210.5" y="-1526.3" font-family="Times,serif" font-size="14.00" fill="#000000">AccountProfileDataBean:setFullName</text>
</g>
<!-- 140531495939880 -->
<g id="node31" class="node">
<title>140531495939880</title>
<polygon fill="none" stroke="#000000" points="322,-1602 99,-1602 99,-1566 322,-1566 322,-1602"/>
<text text-anchor="middle" x="210.5" y="-1580.3" font-family="Times,serif" font-size="14.00" fill="#000000">AccountProfileDataBean:setPassword</text>
</g>
<!-- 140531497916736 -->
<g id="node32" class="node">
<title>140531497916736</title>
<polygon fill="none" stroke="#000000" points="316,-1656 105,-1656 105,-1620 316,-1620 316,-1656"/>
<text text-anchor="middle" x="210.5" y="-1634.3" font-family="Times,serif" font-size="14.00" fill="#000000">AccountProfileDataBean:setUserID</text>
</g>
<!-- 140531498225000 -->
<g id="node33" class="node">
<title>140531498225000</title>
<polygon fill="none" stroke="#000000" points="295.5,-1710 125.5,-1710 125.5,-1674 295.5,-1674 295.5,-1710"/>
<text text-anchor="middle" x="210.5" y="-1688.3" font-family="Times,serif" font-size="14.00" fill="#000000">FinancialUtils:computeGain</text>
</g>
<!-- 140531498225112 -->
<g id="node34" class="node">
<title>140531498225112</title>
<polygon fill="none" stroke="#000000" points="316,-1764 105,-1764 105,-1728 316,-1728 316,-1764"/>
<text text-anchor="middle" x="210.5" y="-1742.3" font-family="Times,serif" font-size="14.00" fill="#000000">FinancialUtils:computeGainPercent</text>
</g>
<!-- 140531498225224 -->
<g id="node35" class="node">
<title>140531498225224</title>
<polygon fill="none" stroke="#000000" points="321.5,-1818 99.5,-1818 99.5,-1782 321.5,-1782 321.5,-1818"/>
<text text-anchor="middle" x="210.5" y="-1796.3" font-family="Times,serif" font-size="14.00" fill="#000000">FinancialUtils:computeHoldingsTotal</text>
</g>
<!-- 140531496455752 -->
<g id="node36" class="node">
<title>140531496455752</title>
<polygon fill="none" stroke="#000000" points="304.5,-1872 116.5,-1872 116.5,-1836 304.5,-1836 304.5,-1872"/>
<text text-anchor="middle" x="210.5" y="-1850.3" font-family="Times,serif" font-size="14.00" fill="#000000">FinancialUtils:printGainHTML</text>
</g>
<!-- 140531497915504 -->
<g id="node37" class="node">
<title>140531497915504</title>
<polygon fill="none" stroke="#000000" points="324.5,-1926 96.5,-1926 96.5,-1890 324.5,-1890 324.5,-1926"/>
<text text-anchor="middle" x="210.5" y="-1904.3" font-family="Times,serif" font-size="14.00" fill="#000000">FinancialUtils:printGainPercentHTML</text>
</g>
<!-- 140531498225616 -->
<g id="node38" class="node">
<title>140531498225616</title>
<polygon fill="none" stroke="#000000" points="272,-1980 149,-1980 149,-1944 272,-1944 272,-1980"/>
<text text-anchor="middle" x="210.5" y="-1958.3" font-family="Times,serif" font-size="14.00" fill="#000000">Log:doActionTrace</text>
</g>
<!-- 140531497916456 -->
<g id="node39" class="node">
<title>140531497916456</title>
<polygon fill="none" stroke="#000000" points="253.5,-2034 167.5,-2034 167.5,-1998 253.5,-1998 253.5,-2034"/>
<text text-anchor="middle" x="210.5" y="-2012.3" font-family="Times,serif" font-size="14.00" fill="#000000">Log:doTrace</text>
</g>
<!-- 140531497916568 -->
<g id="node40" class="node">
<title>140531497916568</title>
<polygon fill="none" stroke="#000000" points="273.5,-2088 147.5,-2088 147.5,-2052 273.5,-2052 273.5,-2088"/>
<text text-anchor="middle" x="210.5" y="-2066.3" font-family="Times,serif" font-size="14.00" fill="#000000">Log:getActionTrace</text>
</g>
<!-- 140531497915784 -->
<g id="node41" class="node">
<title>140531497915784</title>
<polygon fill="none" stroke="#000000" points="255,-2142 166,-2142 166,-2106 255,-2106 255,-2142"/>
<text text-anchor="middle" x="210.5" y="-2120.3" font-family="Times,serif" font-size="14.00" fill="#000000">Log:getTrace</text>
</g>
<!-- 140531497915056 -->
<g id="node42" class="node">
<title>140531497915056</title>
<polygon fill="none" stroke="#000000" points="421,-2196 0,-2196 0,-2160 421,-2160 421,-2196"/>
<text text-anchor="middle" x="210.5" y="-2174.3" font-family="Times,serif" font-size="14.00" fill="#000000">MarketSummaryDataBean:MarketSummaryDataBean [overloaded_#002]</text>
</g>
<!-- 140531497914552 -->
<g id="node43" class="node">
<title>140531497914552</title>
<polygon fill="none" stroke="#000000" points="332,-2250 89,-2250 89,-2214 332,-2214 332,-2250"/>
<text text-anchor="middle" x="210.5" y="-2228.3" font-family="Times,serif" font-size="14.00" fill="#000000">MarketSummaryDataBean:getOpenTSIA</text>
</g>
<!-- 140531497915560 -->
<g id="node44" class="node">
<title>140531497915560</title>
<polygon fill="none" stroke="#000000" points="317.5,-2304 103.5,-2304 103.5,-2268 317.5,-2268 317.5,-2304"/>
<text text-anchor="middle" x="210.5" y="-2282.3" font-family="Times,serif" font-size="14.00" fill="#000000">MarketSummaryDataBean:getTSIA</text>
</g>
<!-- 140531497916120 -->
<g id="node45" class="node">
<title>140531497916120</title>
<polygon fill="none" stroke="#000000" points="331.5,-2358 89.5,-2358 89.5,-2322 331.5,-2322 331.5,-2358"/>
<text text-anchor="middle" x="210.5" y="-2336.3" font-family="Times,serif" font-size="14.00" fill="#000000">MarketSummaryDataBean:setOpenTSIA</text>
</g>
<!-- 140531498225504 -->
<g id="node46" class="node">
<title>140531498225504</title>
<polygon fill="none" stroke="#000000" points="341.5,-2412 79.5,-2412 79.5,-2376 341.5,-2376 341.5,-2412"/>
<text text-anchor="middle" x="210.5" y="-2390.3" font-family="Times,serif" font-size="14.00" fill="#000000">MarketSummaryDataBean:setSummaryDate</text>
</g>
<!-- 140531496455360 -->
<g id="node47" class="node">
<title>140531496455360</title>
<polygon fill="none" stroke="#000000" points="316.5,-2466 104.5,-2466 104.5,-2430 316.5,-2430 316.5,-2466"/>
<text text-anchor="middle" x="210.5" y="-2444.3" font-family="Times,serif" font-size="14.00" fill="#000000">MarketSummaryDataBean:setTSIA</text>
</g>
<!-- 140531497917576 -->
<g id="node48" class="node">
<title>140531497917576</title>
<polygon fill="none" stroke="#000000" points="333.5,-2520 87.5,-2520 87.5,-2484 333.5,-2484 333.5,-2520"/>
<text text-anchor="middle" x="210.5" y="-2498.3" font-family="Times,serif" font-size="14.00" fill="#000000">MarketSummaryDataBean:setTopGainers</text>
</g>
<!-- 140531497914496 -->
<g id="node49" class="node">
<title>140531497914496</title>
<polygon fill="none" stroke="#000000" points="330.5,-2574 90.5,-2574 90.5,-2538 330.5,-2538 330.5,-2574"/>
<text text-anchor="middle" x="210.5" y="-2552.3" font-family="Times,serif" font-size="14.00" fill="#000000">MarketSummaryDataBean:setTopLosers</text>
</g>
<!-- 140531496455248 -->
<g id="node50" class="node">
<title>140531496455248</title>
<polygon fill="none" stroke="#000000" points="324,-2628 97,-2628 97,-2592 324,-2592 324,-2628"/>
<text text-anchor="middle" x="210.5" y="-2606.3" font-family="Times,serif" font-size="14.00" fill="#000000">MarketSummaryDataBean:setVolume</text>
</g>
<!-- 140531497916008 -->
<g id="node51" class="node">
<title>140531497916008</title>
<polygon fill="none" stroke="#000000" points="374.5,-2682 46.5,-2682 46.5,-2646 374.5,-2646 374.5,-2682"/>
<text text-anchor="middle" x="210.5" y="-2660.3" font-family="Times,serif" font-size="14.00" fill="#000000">MarketSummarySingleton:setMarketSummaryDataBean</text>
</g>
<!-- 140531498225448 -->
<g id="node52" class="node">
<title>140531498225448</title>
<polygon fill="none" stroke="#000000" points="358.5,-2736 62.5,-2736 62.5,-2700 358.5,-2700 358.5,-2736"/>
<text text-anchor="middle" x="210.5" y="-2714.3" font-family="Times,serif" font-size="14.00" fill="#000000">MarketSummarySingleton:updateMarketSummary</text>
</g>
<!-- 140531497951304 -->
<g id="node84" class="node">
<title>140531497951304</title>
<ellipse fill="none" stroke="#000000" cx="484" cy="-2757" rx="27" ry="27"/>
<text text-anchor="middle" x="484" y="-2753.3" font-family="Times,serif" font-size="14.00" fill="#000000">({&#39;MarketSummarySingleton:updateMarketSummary&#39;, &#39;OrdersAlertFilter:doFilter&#39;}, {&#39;QuoteDataBean:QuoteDataBean [overloaded_#001]&#39;, &#39;Root&#39;})</text>
</g>
<!-- 140531498225448&#45;&gt;140531497951304 -->
<g id="edge11" class="edge">
<title>140531498225448&#45;&gt;140531497951304</title>
<path fill="none" stroke="#000000" d="M358.7309,-2735.865C379.6659,-2738.7223 400.8966,-2741.7991 421,-2745 429.6144,-2746.3716 438.8565,-2748.0275 447.5353,-2749.6653"/>
<polygon fill="#000000" stroke="#000000" points="446.9123,-2753.1096 457.3934,-2751.5615 448.2346,-2746.2356 446.9123,-2753.1096"/>
</g>
<!-- 140531496455808 -->
<g id="node53" class="node">
<title>140531496455808</title>
<polygon fill="none" stroke="#000000" points="1155,-2779 998,-2779 998,-2743 1155,-2743 1155,-2779"/>
<text text-anchor="middle" x="1076.5" y="-2757.3" font-family="Times,serif" font-size="14.00" fill="#000000">OrdersAlertFilter:doFilter</text>
</g>
<!-- 140531496455808&#45;&gt;140531497951304 -->
<g id="edge12" class="edge">
<title>140531496455808&#45;&gt;140531497951304</title>
<path fill="none" stroke="#000000" d="M1032.4306,-2779.0046C1005.1646,-2789.1586 969.1508,-2800.8207 936,-2806 765.1833,-2832.6873 710.531,-2862.1087 547,-2806 533.5271,-2801.3774 520.716,-2792.5663 510.2077,-2783.6758"/>
<polygon fill="#000000" stroke="#000000" points="512.4395,-2780.9765 502.6479,-2776.9299 507.7788,-2786.1994 512.4395,-2780.9765"/>
</g>
<!-- 140531497914440 -->
<g id="node54" class="node">
<title>140531497914440</title>
<polygon fill="none" stroke="#000000" points="846,-2743 547,-2743 547,-2707 846,-2707 846,-2743"/>
<text text-anchor="middle" x="696.5" y="-2721.3" font-family="Times,serif" font-size="14.00" fill="#000000">QuoteDataBean:QuoteDataBean [overloaded_#001]</text>
</g>
<!-- 140531497918192 -->
<g id="node85" class="node">
<title>140531497918192</title>
<ellipse fill="none" stroke="#000000" cx="909" cy="-2688" rx="27" ry="27"/>
<text text-anchor="middle" x="909" y="-2684.3" font-family="Times,serif" font-size="14.00" fill="#000000">({&#39;QuoteDataBean:QuoteDataBean [overloaded_#001]&#39;, &#39;artificial_start&#39;}, {&#39;MarketSummarySingleton:updateMarketSummary&#39;, &#39;OrdersAlertFilter:doFilter&#39;})</text>
</g>
<!-- 140531497914440&#45;&gt;140531497918192 -->
<g id="edge13" class="edge">
<title>140531497914440&#45;&gt;140531497918192</title>
<path fill="none" stroke="#000000" d="M799.9488,-2706.9877C825.8352,-2702.4805 851.9434,-2697.9346 872.1215,-2694.4212"/>
<polygon fill="#000000" stroke="#000000" points="872.8488,-2697.8473 882.1002,-2692.6837 871.648,-2690.9511 872.8488,-2697.8473"/>
</g>
<!-- 140531495848424 -->
<g id="node55" class="node">
<title>140531495848424</title>
<polygon fill="none" stroke="#000000" points="286.5,-2790 134.5,-2790 134.5,-2754 286.5,-2754 286.5,-2790"/>
<text text-anchor="middle" x="210.5" y="-2768.3" font-family="Times,serif" font-size="14.00" fill="#000000">QuoteDataBean:getOpen</text>
</g>
<!-- 140531497915896 -->
<g id="node56" class="node">
<title>140531497915896</title>
<polygon fill="none" stroke="#000000" points="286,-2844 135,-2844 135,-2808 286,-2808 286,-2844"/>
<text text-anchor="middle" x="210.5" y="-2822.3" font-family="Times,serif" font-size="14.00" fill="#000000">QuoteDataBean:getPrice</text>
</g>
<!-- 140531497917128 -->
<g id="node57" class="node">
<title>140531497917128</title>
<polygon fill="none" stroke="#000000" points="294,-2898 127,-2898 127,-2862 294,-2862 294,-2898"/>
<text text-anchor="middle" x="210.5" y="-2876.3" font-family="Times,serif" font-size="14.00" fill="#000000">QuoteDataBean:getVolume</text>
</g>
<!-- 140531497915448 -->
<g id="node58" class="node">
<title>140531497915448</title>
<polygon fill="none" stroke="#000000" points="723.5,-2797 669.5,-2797 669.5,-2761 723.5,-2761 723.5,-2797"/>
<text text-anchor="middle" x="696.5" y="-2775.3" font-family="Times,serif" font-size="14.00" fill="#000000">Root</text>
</g>
<!-- 140531497917856 -->
<g id="node87" class="node">
<title>140531497917856</title>
<ellipse fill="#ffa500" stroke="#000000" cx="909" cy="-2770" rx="27" ry="27"/>
</g>
<!-- 140531497915448&#45;&gt;140531497917856 -->
<g id="edge14" class="edge">
<title>140531497915448&#45;&gt;140531497917856</title>
<path fill="none" stroke="#000000" d="M723.8456,-2777.8418C761.4607,-2776.2487 829.3021,-2773.3754 871.5921,-2771.5843"/>
<polygon fill="#000000" stroke="#000000" points="871.9164,-2775.0738 881.7593,-2771.1537 871.6202,-2768.0801 871.9164,-2775.0738"/>
</g>
<!-- 140531497917072 -->
<g id="node59" class="node">
<title>140531497917072</title>
<polygon fill="none" stroke="#000000" points="342,-2952 79,-2952 79,-2916 342,-2916 342,-2952"/>
<text text-anchor="middle" x="210.5" y="-2930.3" font-family="Times,serif" font-size="14.00" fill="#000000">TradeAction:TradeAction [overloaded_#001]</text>
</g>
<!-- 140531497916848 -->
<g id="node60" class="node">
<title>140531497916848</title>
<polygon fill="none" stroke="#000000" points="286.5,-3006 134.5,-3006 134.5,-2970 286.5,-2970 286.5,-3006"/>
<text text-anchor="middle" x="210.5" y="-2984.3" font-family="Times,serif" font-size="14.00" fill="#000000">TradeAction:createTrade</text>
</g>
<!-- 140531495848256 -->
<g id="node61" class="node">
<title>140531495848256</title>
<polygon fill="none" stroke="#000000" points="298.5,-3060 122.5,-3060 122.5,-3024 298.5,-3024 298.5,-3060"/>
<text text-anchor="middle" x="210.5" y="-3038.3" font-family="Times,serif" font-size="14.00" fill="#000000">TradeAction:getAccountData</text>
</g>
<!-- 140531497917464 -->
<g id="node62" class="node">
<title>140531497917464</title>
<polygon fill="none" stroke="#000000" points="288,-3114 133,-3114 133,-3078 288,-3078 288,-3114"/>
<text text-anchor="middle" x="210.5" y="-3092.3" font-family="Times,serif" font-size="14.00" fill="#000000">TradeAction:getHoldings</text>
</g>
<!-- 140531497915672 -->
<g id="node63" class="node">
<title>140531497915672</title>
<polygon fill="none" stroke="#000000" points="754.5,-584 638.5,-584 638.5,-548 754.5,-548 754.5,-584"/>
<text text-anchor="middle" x="696.5" y="-562.3" font-family="Times,serif" font-size="14.00" fill="#000000">TradeAction:login</text>
</g>
<!-- 140531497951584 -->
<g id="node86" class="node">
<title>140531497951584</title>
<ellipse fill="none" stroke="#000000" cx="909" cy="-535" rx="27" ry="27"/>
<text text-anchor="middle" x="909" y="-531.3" font-family="Times,serif" font-size="14.00" fill="#000000">({&#39;TradeAction:login&#39;, &#39;TradeSLSBBean:register&#39;}, {&#39;AccountDataBean:hashCode&#39;, &#39;AccountProfileDataBean:hashCode&#39;})</text>
</g>
<!-- 140531497915672&#45;&gt;140531497951584 -->
<g id="edge15" class="edge">
<title>140531497915672&#45;&gt;140531497951584</title>
<path fill="none" stroke="#000000" d="M754.5666,-557.5291C792.0456,-552.0616 839.6728,-545.1136 872.0587,-540.3891"/>
<polygon fill="#000000" stroke="#000000" points="872.6159,-543.8449 882.0059,-538.938 871.6053,-536.9183 872.6159,-543.8449"/>
</g>
<!-- 140531497916792 -->
<g id="node64" class="node">
<title>140531497916792</title>
<polygon fill="none" stroke="#000000" points="328.5,-3168 92.5,-3168 92.5,-3132 328.5,-3132 328.5,-3168"/>
<text text-anchor="middle" x="210.5" y="-3146.3" font-family="Times,serif" font-size="14.00" fill="#000000">TradeAction:register [overloaded_#005]</text>
</g>
<!-- 140531497915392 -->
<g id="node65" class="node">
<title>140531497915392</title>
<polygon fill="none" stroke="#000000" points="283.5,-3222 137.5,-3222 137.5,-3186 283.5,-3186 283.5,-3222"/>
<text text-anchor="middle" x="210.5" y="-3200.3" font-family="Times,serif" font-size="14.00" fill="#000000">TradeAppServlet:doGet</text>
</g>
<!-- 140531498225560 -->
<g id="node66" class="node">
<title>140531498225560</title>
<polygon fill="none" stroke="#000000" points="302.5,-3276 118.5,-3276 118.5,-3240 302.5,-3240 302.5,-3276"/>
<text text-anchor="middle" x="210.5" y="-3254.3" font-family="Times,serif" font-size="14.00" fill="#000000">TradeAppServlet:performTask</text>
</g>
<!-- 140531497917240 -->
<g id="node67" class="node">
<title>140531497917240</title>
<polygon fill="none" stroke="#000000" points="297,-3330 124,-3330 124,-3294 297,-3294 297,-3330"/>
<text text-anchor="middle" x="210.5" y="-3308.3" font-family="Times,serif" font-size="14.00" fill="#000000">TradeConfig:getActionTrace</text>
</g>
<!-- 140531497914720 -->
<g id="node68" class="node">
<title>140531497914720</title>
<polygon fill="none" stroke="#000000" points="316.5,-3384 104.5,-3384 104.5,-3348 316.5,-3348 316.5,-3384"/>
<text text-anchor="middle" x="210.5" y="-3362.3" font-family="Times,serif" font-size="14.00" fill="#000000">TradeConfig:getDisplayOrderAlerts</text>
</g>
<!-- 140531497915728 -->
<g id="node69" class="node">
<title>140531497915728</title>
<polygon fill="none" stroke="#000000" points="276.5,-3438 144.5,-3438 144.5,-3402 276.5,-3402 276.5,-3438"/>
<text text-anchor="middle" x="210.5" y="-3416.3" font-family="Times,serif" font-size="14.00" fill="#000000">TradeConfig:getPage</text>
</g>
<!-- 140531498225280 -->
<g id="node70" class="node">
<title>140531498225280</title>
<polygon fill="none" stroke="#000000" points="305.5,-3492 115.5,-3492 115.5,-3456 305.5,-3456 305.5,-3492"/>
<text text-anchor="middle" x="210.5" y="-3470.3" font-family="Times,serif" font-size="14.00" fill="#000000">TradeConfig:getRunTimeMode</text>
</g>
<!-- 140531497916176 -->
<g id="node71" class="node">
<title>140531497916176</title>
<polygon fill="none" stroke="#000000" points="279,-3546 142,-3546 142,-3510 279,-3510 279,-3546"/>
<text text-anchor="middle" x="210.5" y="-3524.3" font-family="Times,serif" font-size="14.00" fill="#000000">TradeConfig:getTrace</text>
</g>
<!-- 140531497916960 -->
<g id="node72" class="node">
<title>140531497916960</title>
<polygon fill="none" stroke="#000000" points="321,-3600 100,-3600 100,-3564 321,-3564 321,-3600"/>
<text text-anchor="middle" x="210.5" y="-3578.3" font-family="Times,serif" font-size="14.00" fill="#000000">TradeConfig:useRemoteEJBInterface</text>
</g>
<!-- 140531497917352 -->
<g id="node73" class="node">
<title>140531497917352</title>
<polygon fill="none" stroke="#000000" points="310.5,-3654 110.5,-3654 110.5,-3618 310.5,-3618 310.5,-3654"/>
<text text-anchor="middle" x="210.5" y="-3632.3" font-family="Times,serif" font-size="14.00" fill="#000000">TradeSLSBBean:getAccountData</text>
</g>
<!-- 140531497916064 -->
<g id="node74" class="node">
<title>140531497916064</title>
<polygon fill="none" stroke="#000000" points="299.5,-3708 121.5,-3708 121.5,-3672 299.5,-3672 299.5,-3708"/>
<text text-anchor="middle" x="210.5" y="-3686.3" font-family="Times,serif" font-size="14.00" fill="#000000">TradeSLSBBean:getHoldings</text>
</g>
<!-- 140531497916624 -->
<g id="node75" class="node">
<title>140531497916624</title>
<polygon fill="none" stroke="#000000" points="280.5,-3762 140.5,-3762 140.5,-3726 280.5,-3726 280.5,-3762"/>
<text text-anchor="middle" x="210.5" y="-3740.3" font-family="Times,serif" font-size="14.00" fill="#000000">TradeSLSBBean:login</text>
</g>
<!-- 140531496455696 -->
<g id="node76" class="node">
<title>140531496455696</title>
<polygon fill="none" stroke="#000000" points="772.5,-530 620.5,-530 620.5,-494 772.5,-494 772.5,-530"/>
<text text-anchor="middle" x="696.5" y="-508.3" font-family="Times,serif" font-size="14.00" fill="#000000">TradeSLSBBean:register</text>
</g>
<!-- 140531496455696&#45;&gt;140531497951584 -->
<g id="edge16" class="edge">
<title>140531496455696&#45;&gt;140531497951584</title>
<path fill="none" stroke="#000000" d="M772.6172,-520.2386C806.2604,-523.8799 844.2977,-527.9969 871.638,-530.9561"/>
<polygon fill="#000000" stroke="#000000" points="871.6063,-534.473 881.9249,-532.0695 872.3596,-527.5137 871.6063,-534.473"/>
</g>
<!-- 140531497917296 -->
<g id="node77" class="node">
<title>140531497917296</title>
<polygon fill="none" stroke="#000000" points="297.5,-3816 123.5,-3816 123.5,-3780 297.5,-3780 297.5,-3816"/>
<text text-anchor="middle" x="210.5" y="-3794.3" font-family="Times,serif" font-size="14.00" fill="#000000">TradeServletAction:doHome</text>
</g>
<!-- 140531497916344 -->
<g id="node78" class="node">
<title>140531497916344</title>
<polygon fill="none" stroke="#000000" points="297,-3870 124,-3870 124,-3834 297,-3834 297,-3870"/>
<text text-anchor="middle" x="210.5" y="-3848.3" font-family="Times,serif" font-size="14.00" fill="#000000">TradeServletAction:doLogin</text>
</g>
<!-- 140531496455864 -->
<g id="node79" class="node">
<title>140531496455864</title>
<polygon fill="none" stroke="#000000" points="303,-3924 118,-3924 118,-3888 303,-3888 303,-3924"/>
<text text-anchor="middle" x="210.5" y="-3902.3" font-family="Times,serif" font-size="14.00" fill="#000000">TradeServletAction:doRegister</text>
</g>
<!-- 140531497914776 -->
<g id="node80" class="node">
<title>140531497914776</title>
<polygon fill="none" stroke="#000000" points="317.5,-3978 103.5,-3978 103.5,-3942 317.5,-3942 317.5,-3978"/>
<text text-anchor="middle" x="210.5" y="-3956.3" font-family="Times,serif" font-size="14.00" fill="#000000">TradeServletAction:requestDispatch</text>
</g>
<!-- 140531497915224 -->
<g id="node81" class="node">
<title>140531497915224</title>
<polygon fill="none" stroke="#000000" points="742.5,-2647 650.5,-2647 650.5,-2611 742.5,-2611 742.5,-2647"/>
<text text-anchor="middle" x="696.5" y="-2625.3" font-family="Times,serif" font-size="14.00" fill="#000000">artificial_start</text>
</g>
<!-- 140531497915224&#45;&gt;140531497918192 -->
<g id="edge17" class="edge">
<title>140531497915224&#45;&gt;140531497918192</title>
<path fill="none" stroke="#000000" d="M742.6641,-2638.6914C772.3971,-2645.2828 811.7527,-2654.6617 846,-2665 855.2501,-2667.7924 865.1231,-2671.1912 874.2433,-2674.5099"/>
<polygon fill="#000000" stroke="#000000" points="873.186,-2677.8507 883.779,-2678.0471 875.6205,-2671.2876 873.186,-2677.8507"/>
</g>
<!-- 140531496456088 -->
<g id="node82" class="node">
<title>140531496456088</title>
<ellipse fill="#00ff00" stroke="#000000" cx="484" cy="-2624" rx="27" ry="27"/>
<text text-anchor="middle" x="484" y="-2620.3" font-family="Times,serif" font-size="14.00" fill="#000000">1</text>
</g>
<!-- 140531496456088&#45;&gt;140531497915224 -->
<g id="edge18" class="edge">
<title>140531496456088&#45;&gt;140531497915224</title>
<path fill="none" stroke="#000000" d="M511.3456,-2624.6434C543.7589,-2625.4061 598.6168,-2626.6969 640.2291,-2627.676"/>
<polygon fill="#000000" stroke="#000000" points="640.1524,-2631.175 650.232,-2627.9113 640.3172,-2624.177 640.1524,-2631.175"/>
</g>
<!-- 140531497951864&#45;&gt;140531497915672 -->
<g id="edge1" class="edge">
<title>140531497951864&#45;&gt;140531497915672</title>
<path fill="none" stroke="#000000" d="M510.9133,-545.913C540.2558,-549.0889 588.3537,-554.2948 628.2316,-558.611"/>
<polygon fill="#000000" stroke="#000000" points="627.8579,-562.0909 638.1765,-559.6873 628.6113,-555.1315 627.8579,-562.0909"/>
</g>
<!-- 140531497951864&#45;&gt;140531496455696 -->
<g id="edge2" class="edge">
<title>140531497951864&#45;&gt;140531496455696</title>
<path fill="none" stroke="#000000" d="M510.9133,-539.0738C535.9238,-535.4252 574.5605,-529.7888 610.1187,-524.6015"/>
<polygon fill="#000000" stroke="#000000" points="610.6624,-528.0593 620.0524,-523.1524 609.6518,-521.1326 610.6624,-528.0593"/>
</g>
<!-- 140531497951304&#45;&gt;140531497914440 -->
<g id="edge3" class="edge">
<title>140531497951304&#45;&gt;140531497914440</title>
<path fill="none" stroke="#000000" d="M510.9133,-2752.9472C525.8572,-2750.6968 545.6658,-2747.7138 566.7758,-2744.5349"/>
<polygon fill="#000000" stroke="#000000" points="567.5219,-2747.9621 576.8892,-2743.012 566.4795,-2741.0402 567.5219,-2747.9621"/>
</g>
<!-- 140531497951304&#45;&gt;140531497915448 -->
<g id="edge4" class="edge">
<title>140531497951304&#45;&gt;140531497915448</title>
<path fill="none" stroke="#000000" d="M510.9133,-2759.7863C548.4923,-2763.6768 616.8339,-2770.7522 659.2733,-2775.1459"/>
<polygon fill="#000000" stroke="#000000" points="659.1632,-2778.6532 669.4705,-2776.2016 659.8841,-2771.6904 659.1632,-2778.6532"/>
</g>
<!-- 140531497918192&#45;&gt;140531498225448 -->
<g id="edge5" class="edge">
<title>140531497918192&#45;&gt;140531498225448</title>
<path fill="none" stroke="#000000" d="M881.7427,-2688.4575C821.4053,-2689.535 671.9954,-2692.5603 547,-2698 488.8102,-2700.5324 425.0063,-2704.1185 368.7484,-2707.5564"/>
<polygon fill="#000000" stroke="#000000" points="368.466,-2704.067 358.6994,-2708.1737 368.8953,-2711.0539 368.466,-2704.067"/>
</g>
<!-- 140531497918192&#45;&gt;140531496455808 -->
<g id="edge6" class="edge">
<title>140531497918192&#45;&gt;140531496455808</title>
<path fill="none" stroke="#000000" d="M934.0764,-2698.9288C958.227,-2709.4542 995.4589,-2725.6806 1025.7987,-2738.9033"/>
<polygon fill="#000000" stroke="#000000" points="1024.4055,-2742.1141 1034.9711,-2742.9008 1027.2023,-2735.697 1024.4055,-2742.1141"/>
</g>
<!-- 140531497951584&#45;&gt;140531498225168 -->
<g id="edge7" class="edge">
<title>140531497951584&#45;&gt;140531498225168</title>
<path fill="none" stroke="#000000" d="M890.6953,-514.9285C879.1192,-503.7757 863.141,-490.9754 846,-485 749.5261,-451.369 460.2643,-476.3127 307.4842,-492.703"/>
<polygon fill="#000000" stroke="#000000" points="306.7386,-489.2631 297.1731,-493.8184 307.4915,-496.2225 306.7386,-489.2631"/>
</g>
<!-- 140531497951584&#45;&gt;140531497917632 -->
<g id="edge8" class="edge">
<title>140531497951584&#45;&gt;140531497917632</title>
<path fill="none" stroke="#000000" d="M935.5409,-541.1797C950.2979,-544.6156 969.5942,-549.1085 989.1525,-553.6624"/>
<polygon fill="#000000" stroke="#000000" points="988.5343,-557.112 999.0675,-555.9709 990.1217,-550.2943 988.5343,-557.112"/>
</g>
</g>
</svg>
