<?xml version="1.0" encoding="UTF-8" standalone="no"?>
<!DOCTYPE svg PUBLIC "-//W3C//DTD SVG 1.1//EN"
 "http://www.w3.org/Graphics/SVG/1.1/DTD/svg11.dtd">
<!-- Generated by graphviz version 2.40.1 (20161225.0304)
 -->
<!-- Title: alpha_classic_net_1586496220.4249973 Pages: 1 -->
<svg width="1031pt" height="6758pt"
 viewBox="0.00 0.00 1031.00 6758.00" xmlns="http://www.w3.org/2000/svg" xmlns:xlink="http://www.w3.org/1999/xlink">
<g id="graph0" class="graph" transform="scale(1 1) rotate(0) translate(4 6754)">
<title>alpha_classic_net_1586496220.4249973</title>
<!-- 139748169817000 -->
<g id="node1" class="node">
<title>139748169817000</title>
<polygon fill="none" stroke="#000000" points="373,-36 48,-36 48,0 373,0 373,-36"/>
<text text-anchor="middle" x="210.5" y="-14.3" font-family="Times,serif" font-size="14.00" fill="#000000">AccountDataBean:AccountDataBean [overloaded_#001]</text>
</g>
<!-- 139748169816272 -->
<g id="node2" class="node">
<title>139748169816272</title>
<polygon fill="none" stroke="#000000" points="300,-90 121,-90 121,-54 300,-54 300,-90"/>
<text text-anchor="middle" x="210.5" y="-68.3" font-family="Times,serif" font-size="14.00" fill="#000000">AccountDataBean:getBalance</text>
</g>
<!-- 139748169817112 -->
<g id="node3" class="node">
<title>139748169817112</title>
<polygon fill="none" stroke="#000000" points="297,-144 124,-144 124,-108 297,-108 297,-144"/>
<text text-anchor="middle" x="210.5" y="-122.3" font-family="Times,serif" font-size="14.00" fill="#000000">AccountDataBean:getProfile</text>
</g>
<!-- 139748169816944 -->
<g id="node4" class="node">
<title>139748169816944</title>
<polygon fill="none" stroke="#000000" points="297,-198 124,-198 124,-162 297,-162 297,-198"/>
<text text-anchor="middle" x="210.5" y="-176.3" font-family="Times,serif" font-size="14.00" fill="#000000">AccountDataBean:hashCode</text>
</g>
<!-- 139748169814088 -->
<g id="node5" class="node">
<title>139748169814088</title>
<polygon fill="none" stroke="#000000" points="299.5,-252 121.5,-252 121.5,-216 299.5,-216 299.5,-252"/>
<text text-anchor="middle" x="210.5" y="-230.3" font-family="Times,serif" font-size="14.00" fill="#000000">AccountDataBean:setBalance</text>
</g>
<!-- 139748202904712 -->
<g id="node6" class="node">
<title>139748202904712</title>
<polygon fill="none" stroke="#000000" points="409.5,-306 11.5,-306 11.5,-270 409.5,-270 409.5,-306"/>
<text text-anchor="middle" x="210.5" y="-284.3" font-family="Times,serif" font-size="14.00" fill="#000000">AccountProfileDataBean:AccountProfileDataBean [overloaded_#001]</text>
</g>
<!-- 139748169817056 -->
<g id="node7" class="node">
<title>139748169817056</title>
<polygon fill="none" stroke="#000000" points="319.5,-360 101.5,-360 101.5,-324 319.5,-324 319.5,-360"/>
<text text-anchor="middle" x="210.5" y="-338.3" font-family="Times,serif" font-size="14.00" fill="#000000">AccountProfileDataBean:getAccount</text>
</g>
<!-- 139748202904992 -->
<g id="node8" class="node">
<title>139748202904992</title>
<polygon fill="none" stroke="#000000" points="316.5,-414 104.5,-414 104.5,-378 316.5,-378 316.5,-414"/>
<text text-anchor="middle" x="210.5" y="-392.3" font-family="Times,serif" font-size="14.00" fill="#000000">AccountProfileDataBean:getUserID</text>
</g>
<!-- 139748169817560 -->
<g id="node9" class="node">
<title>139748169817560</title>
<polygon fill="none" stroke="#000000" points="699,-558 511,-558 511,-522 699,-522 699,-558"/>
<text text-anchor="middle" x="605" y="-536.3" font-family="Times,serif" font-size="14.00" fill="#000000">DTStreamer3MDB:onMessage</text>
</g>
<!-- 139748169818064 -->
<g id="node131" class="node">
<title>139748169818064</title>
<ellipse fill="none" stroke="#000000" cx="816" cy="-459" rx="27" ry="27"/>
<text text-anchor="middle" x="816" y="-455.3" font-family="Times,serif" font-size="14.00" fill="#000000">({&#39;MarketSummarySingleton:updateMarketSummary&#39;, &#39;DTStreamer3MDB:onMessage&#39;, &#39;new DTStreamer3MDB&#39;, &#39;OrdersAlertFilter:doFilter&#39;}, {&#39;Root&#39;})</text>
</g>
<!-- 139748169817560&#45;&gt;139748169818064 -->
<g id="edge2" class="edge">
<title>139748169817560&#45;&gt;139748169818064</title>
<path fill="none" stroke="#000000" d="M699.3236,-530.4884C717.684,-526.5234 736.3761,-520.9186 753,-513 766.7096,-506.4696 779.8108,-496.1612 790.4801,-486.2935"/>
<polygon fill="#000000" stroke="#000000" points="793.021,-488.7056 797.7931,-479.2464 788.1637,-483.665 793.021,-488.7056"/>
</g>
<!-- 139748202902136 -->
<g id="node10" class="node">
<title>139748202902136</title>
<polygon fill="none" stroke="#000000" points="316,-540 105,-540 105,-504 316,-504 316,-540"/>
<text text-anchor="middle" x="210.5" y="-518.3" font-family="Times,serif" font-size="14.00" fill="#000000">FinancialUtils:computeGainPercent</text>
</g>
<!-- 139748169817448 -->
<g id="node11" class="node">
<title>139748169817448</title>
<polygon fill="none" stroke="#000000" points="304.5,-594 116.5,-594 116.5,-558 304.5,-558 304.5,-594"/>
<text text-anchor="middle" x="210.5" y="-572.3" font-family="Times,serif" font-size="14.00" fill="#000000">FinancialUtils:printGainHTML</text>
</g>
<!-- 139748202904936 -->
<g id="node12" class="node">
<title>139748202904936</title>
<polygon fill="none" stroke="#000000" points="324.5,-648 96.5,-648 96.5,-612 324.5,-612 324.5,-648"/>
<text text-anchor="middle" x="210.5" y="-626.3" font-family="Times,serif" font-size="14.00" fill="#000000">FinancialUtils:printGainPercentHTML</text>
</g>
<!-- 139748202904768 -->
<g id="node13" class="node">
<title>139748202904768</title>
<polygon fill="none" stroke="#000000" points="301,-702 120,-702 120,-666 301,-666 301,-702"/>
<text text-anchor="middle" x="210.5" y="-680.3" font-family="Times,serif" font-size="14.00" fill="#000000">FinancialUtils:printQuoteLink</text>
</g>
<!-- 139748169814424 -->
<g id="node14" class="node">
<title>139748169814424</title>
<polygon fill="none" stroke="#000000" points="371.5,-756 49.5,-756 49.5,-720 371.5,-720 371.5,-756"/>
<text text-anchor="middle" x="210.5" y="-734.3" font-family="Times,serif" font-size="14.00" fill="#000000">HoldingDataBean:HoldingDataBean [overloaded_#003]</text>
</g>
<!-- 139748169815432 -->
<g id="node15" class="node">
<title>139748169815432</title>
<polygon fill="none" stroke="#000000" points="296,-810 125,-810 125,-774 296,-774 296,-810"/>
<text text-anchor="middle" x="210.5" y="-788.3" font-family="Times,serif" font-size="14.00" fill="#000000">HoldingDataBean:hashCode</text>
</g>
<!-- 139748169814144 -->
<g id="node16" class="node">
<title>139748169814144</title>
<polygon fill="none" stroke="#000000" points="300,-864 121,-864 121,-828 300,-828 300,-864"/>
<text text-anchor="middle" x="210.5" y="-842.3" font-family="Times,serif" font-size="14.00" fill="#000000">HoldingDataBean:setAccount</text>
</g>
<!-- 139748169814368 -->
<g id="node17" class="node">
<title>139748169814368</title>
<polygon fill="none" stroke="#000000" points="314,-918 107,-918 107,-882 314,-882 314,-918"/>
<text text-anchor="middle" x="210.5" y="-896.3" font-family="Times,serif" font-size="14.00" fill="#000000">HoldingDataBean:setPurchaseDate</text>
</g>
<!-- 139748169816384 -->
<g id="node18" class="node">
<title>139748169816384</title>
<polygon fill="none" stroke="#000000" points="315,-972 106,-972 106,-936 315,-936 315,-972"/>
<text text-anchor="middle" x="210.5" y="-950.3" font-family="Times,serif" font-size="14.00" fill="#000000">HoldingDataBean:setPurchasePrice</text>
</g>
<!-- 139748169816216 -->
<g id="node19" class="node">
<title>139748169816216</title>
<polygon fill="none" stroke="#000000" points="300.5,-1026 120.5,-1026 120.5,-990 300.5,-990 300.5,-1026"/>
<text text-anchor="middle" x="210.5" y="-1004.3" font-family="Times,serif" font-size="14.00" fill="#000000">HoldingDataBean:setQuantity</text>
</g>
<!-- 139748202905440 -->
<g id="node20" class="node">
<title>139748202905440</title>
<polygon fill="none" stroke="#000000" points="293.5,-1080 127.5,-1080 127.5,-1044 293.5,-1044 293.5,-1080"/>
<text text-anchor="middle" x="210.5" y="-1058.3" font-family="Times,serif" font-size="14.00" fill="#000000">HoldingDataBean:setQuote</text>
</g>
<!-- 139748202904600 -->
<g id="node21" class="node">
<title>139748202904600</title>
<polygon fill="none" stroke="#000000" points="272,-1134 149,-1134 149,-1098 272,-1098 272,-1134"/>
<text text-anchor="middle" x="210.5" y="-1112.3" font-family="Times,serif" font-size="14.00" fill="#000000">Log:doActionTrace</text>
</g>
<!-- 139748202903200 -->
<g id="node22" class="node">
<title>139748202903200</title>
<polygon fill="none" stroke="#000000" points="253.5,-1188 167.5,-1188 167.5,-1152 253.5,-1152 253.5,-1188"/>
<text text-anchor="middle" x="210.5" y="-1166.3" font-family="Times,serif" font-size="14.00" fill="#000000">Log:doTrace</text>
</g>
<!-- 139748202902416 -->
<g id="node23" class="node">
<title>139748202902416</title>
<polygon fill="none" stroke="#000000" points="273.5,-1242 147.5,-1242 147.5,-1206 273.5,-1206 273.5,-1242"/>
<text text-anchor="middle" x="210.5" y="-1220.3" font-family="Times,serif" font-size="14.00" fill="#000000">Log:getActionTrace</text>
</g>
<!-- 139748202903256 -->
<g id="node24" class="node">
<title>139748202903256</title>
<polygon fill="none" stroke="#000000" points="255,-1296 166,-1296 166,-1260 255,-1260 255,-1296"/>
<text text-anchor="middle" x="210.5" y="-1274.3" font-family="Times,serif" font-size="14.00" fill="#000000">Log:getTrace</text>
</g>
<!-- 139748202902248 -->
<g id="node25" class="node">
<title>139748202902248</title>
<polygon fill="none" stroke="#000000" points="279.5,-1350 141.5,-1350 141.5,-1314 279.5,-1314 279.5,-1350"/>
<text text-anchor="middle" x="210.5" y="-1328.3" font-family="Times,serif" font-size="14.00" fill="#000000">MDBStats:addTiming</text>
</g>
<!-- 139748202903648 -->
<g id="node26" class="node">
<title>139748202903648</title>
<polygon fill="none" stroke="#000000" points="280.5,-1404 140.5,-1404 140.5,-1368 280.5,-1368 280.5,-1404"/>
<text text-anchor="middle" x="210.5" y="-1382.3" font-family="Times,serif" font-size="14.00" fill="#000000">MDBStats:getInstance</text>
</g>
<!-- 139748169814200 -->
<g id="node27" class="node">
<title>139748169814200</title>
<polygon fill="none" stroke="#000000" points="421,-1458 0,-1458 0,-1422 421,-1422 421,-1458"/>
<text text-anchor="middle" x="210.5" y="-1436.3" font-family="Times,serif" font-size="14.00" fill="#000000">MarketSummaryDataBean:MarketSummaryDataBean [overloaded_#002]</text>
</g>
<!-- 139748169816776 -->
<g id="node28" class="node">
<title>139748169816776</title>
<polygon fill="none" stroke="#000000" points="332,-1512 89,-1512 89,-1476 332,-1476 332,-1512"/>
<text text-anchor="middle" x="210.5" y="-1490.3" font-family="Times,serif" font-size="14.00" fill="#000000">MarketSummaryDataBean:getOpenTSIA</text>
</g>
<!-- 139748169814536 -->
<g id="node29" class="node">
<title>139748169814536</title>
<polygon fill="none" stroke="#000000" points="317.5,-1566 103.5,-1566 103.5,-1530 317.5,-1530 317.5,-1566"/>
<text text-anchor="middle" x="210.5" y="-1544.3" font-family="Times,serif" font-size="14.00" fill="#000000">MarketSummaryDataBean:getTSIA</text>
</g>
<!-- 139748169815824 -->
<g id="node30" class="node">
<title>139748169815824</title>
<polygon fill="none" stroke="#000000" points="331.5,-1620 89.5,-1620 89.5,-1584 331.5,-1584 331.5,-1620"/>
<text text-anchor="middle" x="210.5" y="-1598.3" font-family="Times,serif" font-size="14.00" fill="#000000">MarketSummaryDataBean:setOpenTSIA</text>
</g>
<!-- 139748169814984 -->
<g id="node31" class="node">
<title>139748169814984</title>
<polygon fill="none" stroke="#000000" points="341.5,-1674 79.5,-1674 79.5,-1638 341.5,-1638 341.5,-1674"/>
<text text-anchor="middle" x="210.5" y="-1652.3" font-family="Times,serif" font-size="14.00" fill="#000000">MarketSummaryDataBean:setSummaryDate</text>
</g>
<!-- 139748169816720 -->
<g id="node32" class="node">
<title>139748169816720</title>
<polygon fill="none" stroke="#000000" points="316.5,-1728 104.5,-1728 104.5,-1692 316.5,-1692 316.5,-1728"/>
<text text-anchor="middle" x="210.5" y="-1706.3" font-family="Times,serif" font-size="14.00" fill="#000000">MarketSummaryDataBean:setTSIA</text>
</g>
<!-- 139748202903536 -->
<g id="node33" class="node">
<title>139748202903536</title>
<polygon fill="none" stroke="#000000" points="333.5,-1782 87.5,-1782 87.5,-1746 333.5,-1746 333.5,-1782"/>
<text text-anchor="middle" x="210.5" y="-1760.3" font-family="Times,serif" font-size="14.00" fill="#000000">MarketSummaryDataBean:setTopGainers</text>
</g>
<!-- 139748169815544 -->
<g id="node34" class="node">
<title>139748169815544</title>
<polygon fill="none" stroke="#000000" points="330.5,-1836 90.5,-1836 90.5,-1800 330.5,-1800 330.5,-1836"/>
<text text-anchor="middle" x="210.5" y="-1814.3" font-family="Times,serif" font-size="14.00" fill="#000000">MarketSummaryDataBean:setTopLosers</text>
</g>
<!-- 139748202902864 -->
<g id="node35" class="node">
<title>139748202902864</title>
<polygon fill="none" stroke="#000000" points="324,-1890 97,-1890 97,-1854 324,-1854 324,-1890"/>
<text text-anchor="middle" x="210.5" y="-1868.3" font-family="Times,serif" font-size="14.00" fill="#000000">MarketSummaryDataBean:setVolume</text>
</g>
<!-- 139748169815768 -->
<g id="node36" class="node">
<title>139748169815768</title>
<polygon fill="none" stroke="#000000" points="374.5,-1944 46.5,-1944 46.5,-1908 374.5,-1908 374.5,-1944"/>
<text text-anchor="middle" x="210.5" y="-1922.3" font-family="Times,serif" font-size="14.00" fill="#000000">MarketSummarySingleton:setMarketSummaryDataBean</text>
</g>
<!-- 139748202903368 -->
<g id="node37" class="node">
<title>139748202903368</title>
<polygon fill="none" stroke="#000000" points="753,-504 457,-504 457,-468 753,-468 753,-504"/>
<text text-anchor="middle" x="605" y="-482.3" font-family="Times,serif" font-size="14.00" fill="#000000">MarketSummarySingleton:updateMarketSummary</text>
</g>
<!-- 139748202903368&#45;&gt;139748169818064 -->
<g id="edge3" class="edge">
<title>139748202903368&#45;&gt;139748169818064</title>
<path fill="none" stroke="#000000" d="M745.7401,-467.9906C757.7313,-466.4562 769.0363,-465.0096 778.9293,-463.7436"/>
<polygon fill="#000000" stroke="#000000" points="779.601,-467.1863 789.0758,-462.4453 778.7124,-460.2429 779.601,-467.1863"/>
</g>
<!-- 139748202902752 -->
<g id="node38" class="node">
<title>139748202902752</title>
<polygon fill="none" stroke="#000000" points="342.5,-1998 78.5,-1998 78.5,-1962 342.5,-1962 342.5,-1998"/>
<text text-anchor="middle" x="210.5" y="-1976.3" font-family="Times,serif" font-size="14.00" fill="#000000">MarketSummaryWebSocket:onJMSMessage</text>
</g>
<!-- 139748169814704 -->
<g id="node39" class="node">
<title>139748169814704</title>
<polygon fill="none" stroke="#000000" points="358.5,-2052 62.5,-2052 62.5,-2016 358.5,-2016 358.5,-2052"/>
<text text-anchor="middle" x="210.5" y="-2030.3" font-family="Times,serif" font-size="14.00" fill="#000000">OrderDataBean:OrderDataBean [overloaded_#001]</text>
</g>
<!-- 139748202903480 -->
<g id="node40" class="node">
<title>139748202903480</title>
<polygon fill="none" stroke="#000000" points="358.5,-2106 62.5,-2106 62.5,-2070 358.5,-2070 358.5,-2106"/>
<text text-anchor="middle" x="210.5" y="-2084.3" font-family="Times,serif" font-size="14.00" fill="#000000">OrderDataBean:OrderDataBean [overloaded_#003]</text>
</g>
<!-- 139748202903088 -->
<g id="node41" class="node">
<title>139748202903088</title>
<polygon fill="none" stroke="#000000" points="294,-2160 127,-2160 127,-2124 294,-2124 294,-2160"/>
<text text-anchor="middle" x="210.5" y="-2138.3" font-family="Times,serif" font-size="14.00" fill="#000000">OrderDataBean:getAccount</text>
</g>
<!-- 139748169815376 -->
<g id="node42" class="node">
<title>139748169815376</title>
<polygon fill="none" stroke="#000000" points="316.5,-2214 104.5,-2214 104.5,-2178 316.5,-2178 316.5,-2214"/>
<text text-anchor="middle" x="210.5" y="-2192.3" font-family="Times,serif" font-size="14.00" fill="#000000">OrderDataBean:getCompletionDate</text>
</g>
<!-- 139748202904656 -->
<g id="node43" class="node">
<title>139748202904656</title>
<polygon fill="none" stroke="#000000" points="293.5,-2268 127.5,-2268 127.5,-2232 293.5,-2232 293.5,-2268"/>
<text text-anchor="middle" x="210.5" y="-2246.3" font-family="Times,serif" font-size="14.00" fill="#000000">OrderDataBean:getHolding</text>
</g>
<!-- 139748169815992 -->
<g id="node44" class="node">
<title>139748169815992</title>
<polygon fill="none" stroke="#000000" points="298.5,-2322 122.5,-2322 122.5,-2286 298.5,-2286 298.5,-2322"/>
<text text-anchor="middle" x="210.5" y="-2300.3" font-family="Times,serif" font-size="14.00" fill="#000000">OrderDataBean:getOpenDate</text>
</g>
<!-- 139748202901968 -->
<g id="node45" class="node">
<title>139748202901968</title>
<polygon fill="none" stroke="#000000" points="297,-2376 124,-2376 124,-2340 297,-2340 297,-2376"/>
<text text-anchor="middle" x="210.5" y="-2354.3" font-family="Times,serif" font-size="14.00" fill="#000000">OrderDataBean:getOrderFee</text>
</g>
<!-- 139748202904544 -->
<g id="node46" class="node">
<title>139748202904544</title>
<polygon fill="none" stroke="#000000" points="294,-2430 127,-2430 127,-2394 294,-2394 294,-2430"/>
<text text-anchor="middle" x="210.5" y="-2408.3" font-family="Times,serif" font-size="14.00" fill="#000000">OrderDataBean:getOrderID</text>
</g>
<!-- 139748202850120 -->
<g id="node47" class="node">
<title>139748202850120</title>
<polygon fill="none" stroke="#000000" points="303.5,-2484 117.5,-2484 117.5,-2448 303.5,-2448 303.5,-2484"/>
<text text-anchor="middle" x="210.5" y="-2462.3" font-family="Times,serif" font-size="14.00" fill="#000000">OrderDataBean:getOrderStatus</text>
</g>
<!-- 139748202902696 -->
<g id="node48" class="node">
<title>139748202902696</title>
<polygon fill="none" stroke="#000000" points="301,-2538 120,-2538 120,-2502 301,-2502 301,-2538"/>
<text text-anchor="middle" x="210.5" y="-2516.3" font-family="Times,serif" font-size="14.00" fill="#000000">OrderDataBean:getOrderType</text>
</g>
<!-- 139748202903872 -->
<g id="node49" class="node">
<title>139748202903872</title>
<polygon fill="none" stroke="#000000" points="285,-2592 136,-2592 136,-2556 285,-2556 285,-2592"/>
<text text-anchor="middle" x="210.5" y="-2570.3" font-family="Times,serif" font-size="14.00" fill="#000000">OrderDataBean:getPrice</text>
</g>
<!-- 139748169814312 -->
<g id="node50" class="node">
<title>139748169814312</title>
<polygon fill="none" stroke="#000000" points="295,-2646 126,-2646 126,-2610 295,-2610 295,-2646"/>
<text text-anchor="middle" x="210.5" y="-2624.3" font-family="Times,serif" font-size="14.00" fill="#000000">OrderDataBean:getQuantity</text>
</g>
<!-- 139748202904488 -->
<g id="node51" class="node">
<title>139748202904488</title>
<polygon fill="none" stroke="#000000" points="288,-2700 133,-2700 133,-2664 288,-2664 288,-2700"/>
<text text-anchor="middle" x="210.5" y="-2678.3" font-family="Times,serif" font-size="14.00" fill="#000000">OrderDataBean:getQuote</text>
</g>
<!-- 139748169816328 -->
<g id="node52" class="node">
<title>139748169816328</title>
<polygon fill="none" stroke="#000000" points="292.5,-2754 128.5,-2754 128.5,-2718 292.5,-2718 292.5,-2754"/>
<text text-anchor="middle" x="210.5" y="-2732.3" font-family="Times,serif" font-size="14.00" fill="#000000">OrderDataBean:getSymbol</text>
</g>
<!-- 139748202905384 -->
<g id="node53" class="node">
<title>139748202905384</title>
<polygon fill="none" stroke="#000000" points="289.5,-2808 131.5,-2808 131.5,-2772 289.5,-2772 289.5,-2808"/>
<text text-anchor="middle" x="210.5" y="-2786.3" font-family="Times,serif" font-size="14.00" fill="#000000">OrderDataBean:hashCode</text>
</g>
<!-- 139748202903592 -->
<g id="node54" class="node">
<title>139748202903592</title>
<polygon fill="none" stroke="#000000" points="279,-2862 142,-2862 142,-2826 279,-2826 279,-2862"/>
<text text-anchor="middle" x="210.5" y="-2840.3" font-family="Times,serif" font-size="14.00" fill="#000000">OrderDataBean:isBuy</text>
</g>
<!-- 139748202905160 -->
<g id="node55" class="node">
<title>139748202905160</title>
<polygon fill="none" stroke="#000000" points="297.5,-2916 123.5,-2916 123.5,-2880 297.5,-2880 297.5,-2916"/>
<text text-anchor="middle" x="210.5" y="-2894.3" font-family="Times,serif" font-size="14.00" fill="#000000">OrderDataBean:isCompleted</text>
</g>
<!-- 139748202903984 -->
<g id="node56" class="node">
<title>139748202903984</title>
<polygon fill="none" stroke="#000000" points="278,-2970 143,-2970 143,-2934 278,-2934 278,-2970"/>
<text text-anchor="middle" x="210.5" y="-2948.3" font-family="Times,serif" font-size="14.00" fill="#000000">OrderDataBean:isSell</text>
</g>
<!-- 139748169816160 -->
<g id="node57" class="node">
<title>139748169816160</title>
<polygon fill="none" stroke="#000000" points="293.5,-3024 127.5,-3024 127.5,-2988 293.5,-2988 293.5,-3024"/>
<text text-anchor="middle" x="210.5" y="-3002.3" font-family="Times,serif" font-size="14.00" fill="#000000">OrderDataBean:setAccount</text>
</g>
<!-- 139748202903312 -->
<g id="node58" class="node">
<title>139748202903312</title>
<polygon fill="none" stroke="#000000" points="315.5,-3078 105.5,-3078 105.5,-3042 315.5,-3042 315.5,-3078"/>
<text text-anchor="middle" x="210.5" y="-3056.3" font-family="Times,serif" font-size="14.00" fill="#000000">OrderDataBean:setCompletionDate</text>
</g>
<!-- 139748169816048 -->
<g id="node59" class="node">
<title>139748169816048</title>
<polygon fill="none" stroke="#000000" points="292.5,-3132 128.5,-3132 128.5,-3096 292.5,-3096 292.5,-3132"/>
<text text-anchor="middle" x="210.5" y="-3110.3" font-family="Times,serif" font-size="14.00" fill="#000000">OrderDataBean:setHolding</text>
</g>
<!-- 139748202903144 -->
<g id="node60" class="node">
<title>139748202903144</title>
<polygon fill="none" stroke="#000000" points="298,-3186 123,-3186 123,-3150 298,-3150 298,-3186"/>
<text text-anchor="middle" x="210.5" y="-3164.3" font-family="Times,serif" font-size="14.00" fill="#000000">OrderDataBean:setOpenDate</text>
</g>
<!-- 139748169815096 -->
<g id="node61" class="node">
<title>139748169815096</title>
<polygon fill="none" stroke="#000000" points="296,-3240 125,-3240 125,-3204 296,-3204 296,-3240"/>
<text text-anchor="middle" x="210.5" y="-3218.3" font-family="Times,serif" font-size="14.00" fill="#000000">OrderDataBean:setOrderFee</text>
</g>
<!-- 139748169817336 -->
<g id="node62" class="node">
<title>139748169817336</title>
<polygon fill="none" stroke="#000000" points="303,-3294 118,-3294 118,-3258 303,-3258 303,-3294"/>
<text text-anchor="middle" x="210.5" y="-3272.3" font-family="Times,serif" font-size="14.00" fill="#000000">OrderDataBean:setOrderStatus</text>
</g>
<!-- 139748202905048 -->
<g id="node63" class="node">
<title>139748202905048</title>
<polygon fill="none" stroke="#000000" points="300,-3348 121,-3348 121,-3312 300,-3312 300,-3348"/>
<text text-anchor="middle" x="210.5" y="-3326.3" font-family="Times,serif" font-size="14.00" fill="#000000">OrderDataBean:setOrderType</text>
</g>
<!-- 139748169815264 -->
<g id="node64" class="node">
<title>139748169815264</title>
<polygon fill="none" stroke="#000000" points="284.5,-3402 136.5,-3402 136.5,-3366 284.5,-3366 284.5,-3402"/>
<text text-anchor="middle" x="210.5" y="-3380.3" font-family="Times,serif" font-size="14.00" fill="#000000">OrderDataBean:setPrice</text>
</g>
<!-- 139748202903816 -->
<g id="node65" class="node">
<title>139748202903816</title>
<polygon fill="none" stroke="#000000" points="294,-3456 127,-3456 127,-3420 294,-3420 294,-3456"/>
<text text-anchor="middle" x="210.5" y="-3434.3" font-family="Times,serif" font-size="14.00" fill="#000000">OrderDataBean:setQuantity</text>
</g>
<!-- 139748202902080 -->
<g id="node66" class="node">
<title>139748202902080</title>
<polygon fill="none" stroke="#000000" points="287,-3510 134,-3510 134,-3474 287,-3474 287,-3510"/>
<text text-anchor="middle" x="210.5" y="-3488.3" font-family="Times,serif" font-size="14.00" fill="#000000">OrderDataBean:setQuote</text>
</g>
<!-- 139748202904432 -->
<g id="node67" class="node">
<title>139748202904432</title>
<polygon fill="none" stroke="#000000" points="683.5,-450 526.5,-450 526.5,-414 683.5,-414 683.5,-450"/>
<text text-anchor="middle" x="605" y="-428.3" font-family="Times,serif" font-size="14.00" fill="#000000">OrdersAlertFilter:doFilter</text>
</g>
<!-- 139748202904432&#45;&gt;139748169818064 -->
<g id="edge4" class="edge">
<title>139748202904432&#45;&gt;139748169818064</title>
<path fill="none" stroke="#000000" d="M683.5686,-442.0538C716.3584,-446.2497 752.868,-450.9215 779.2348,-454.2954"/>
<polygon fill="#000000" stroke="#000000" points="778.8029,-457.7686 789.1663,-455.5663 779.6914,-450.8253 778.8029,-457.7686"/>
</g>
<!-- 139748169814816 -->
<g id="node68" class="node">
<title>139748169814816</title>
<polygon fill="none" stroke="#000000" points="360,-3564 61,-3564 61,-3528 360,-3528 360,-3564"/>
<text text-anchor="middle" x="210.5" y="-3542.3" font-family="Times,serif" font-size="14.00" fill="#000000">QuoteDataBean:QuoteDataBean [overloaded_#001]</text>
</g>
<!-- 139748202904096 -->
<g id="node69" class="node">
<title>139748202904096</title>
<polygon fill="none" stroke="#000000" points="292.5,-3618 128.5,-3618 128.5,-3582 292.5,-3582 292.5,-3618"/>
<text text-anchor="middle" x="210.5" y="-3596.3" font-family="Times,serif" font-size="14.00" fill="#000000">QuoteDataBean:getChange</text>
</g>
<!-- 139748169815040 -->
<g id="node70" class="node">
<title>139748169815040</title>
<polygon fill="none" stroke="#000000" points="315,-3672 106,-3672 106,-3636 315,-3636 315,-3672"/>
<text text-anchor="middle" x="210.5" y="-3650.3" font-family="Times,serif" font-size="14.00" fill="#000000">QuoteDataBean:getCompanyName</text>
</g>
<!-- 139748202902528 -->
<g id="node71" class="node">
<title>139748202902528</title>
<polygon fill="none" stroke="#000000" points="285.5,-3726 135.5,-3726 135.5,-3690 285.5,-3690 285.5,-3726"/>
<text text-anchor="middle" x="210.5" y="-3704.3" font-family="Times,serif" font-size="14.00" fill="#000000">QuoteDataBean:getHigh</text>
</g>
<!-- 139748202905272 -->
<g id="node72" class="node">
<title>139748202905272</title>
<polygon fill="none" stroke="#000000" points="284.5,-3780 136.5,-3780 136.5,-3744 284.5,-3744 284.5,-3780"/>
<text text-anchor="middle" x="210.5" y="-3758.3" font-family="Times,serif" font-size="14.00" fill="#000000">QuoteDataBean:getLow</text>
</g>
<!-- 139748169816832 -->
<g id="node73" class="node">
<title>139748169816832</title>
<polygon fill="none" stroke="#000000" points="286.5,-3834 134.5,-3834 134.5,-3798 286.5,-3798 286.5,-3834"/>
<text text-anchor="middle" x="210.5" y="-3812.3" font-family="Times,serif" font-size="14.00" fill="#000000">QuoteDataBean:getOpen</text>
</g>
<!-- 139748202904880 -->
<g id="node74" class="node">
<title>139748202904880</title>
<polygon fill="none" stroke="#000000" points="286,-3888 135,-3888 135,-3852 286,-3852 286,-3888"/>
<text text-anchor="middle" x="210.5" y="-3866.3" font-family="Times,serif" font-size="14.00" fill="#000000">QuoteDataBean:getPrice</text>
</g>
<!-- 139748169814592 -->
<g id="node75" class="node">
<title>139748169814592</title>
<polygon fill="none" stroke="#000000" points="293.5,-3942 127.5,-3942 127.5,-3906 293.5,-3906 293.5,-3942"/>
<text text-anchor="middle" x="210.5" y="-3920.3" font-family="Times,serif" font-size="14.00" fill="#000000">QuoteDataBean:getSymbol</text>
</g>
<!-- 139748202902472 -->
<g id="node76" class="node">
<title>139748202902472</title>
<polygon fill="none" stroke="#000000" points="294,-3996 127,-3996 127,-3960 294,-3960 294,-3996"/>
<text text-anchor="middle" x="210.5" y="-3974.3" font-family="Times,serif" font-size="14.00" fill="#000000">QuoteDataBean:getVolume</text>
</g>
<!-- 139748169814480 -->
<g id="node77" class="node">
<title>139748169814480</title>
<polygon fill="none" stroke="#000000" points="290.5,-4050 130.5,-4050 130.5,-4014 290.5,-4014 290.5,-4050"/>
<text text-anchor="middle" x="210.5" y="-4028.3" font-family="Times,serif" font-size="14.00" fill="#000000">QuoteDataBean:hashCode</text>
</g>
<!-- 139748202905496 -->
<g id="node78" class="node">
<title>139748202905496</title>
<polygon fill="none" stroke="#000000" points="292,-4104 129,-4104 129,-4068 292,-4068 292,-4104"/>
<text text-anchor="middle" x="210.5" y="-4082.3" font-family="Times,serif" font-size="14.00" fill="#000000">QuoteDataBean:setChange</text>
</g>
<!-- 139748202902976 -->
<g id="node79" class="node">
<title>139748202902976</title>
<polygon fill="none" stroke="#000000" points="285,-4158 136,-4158 136,-4122 285,-4122 285,-4158"/>
<text text-anchor="middle" x="210.5" y="-4136.3" font-family="Times,serif" font-size="14.00" fill="#000000">QuoteDataBean:setPrice</text>
</g>
<!-- 139748169815936 -->
<g id="node80" class="node">
<title>139748169815936</title>
<polygon fill="none" stroke="#000000" points="293.5,-4212 127.5,-4212 127.5,-4176 293.5,-4176 293.5,-4212"/>
<text text-anchor="middle" x="210.5" y="-4190.3" font-family="Times,serif" font-size="14.00" fill="#000000">QuoteDataBean:setVolume</text>
</g>
<!-- 139748202903760 -->
<g id="node81" class="node">
<title>139748202903760</title>
<polygon fill="none" stroke="#000000" points="331.5,-4266 89.5,-4266 89.5,-4230 331.5,-4230 331.5,-4266"/>
<text text-anchor="middle" x="210.5" y="-4244.3" font-family="Times,serif" font-size="14.00" fill="#000000">RecentStockChangeList:addStockChange</text>
</g>
<!-- 139748169815488 -->
<g id="node82" class="node">
<title>139748169815488</title>
<polygon fill="none" stroke="#000000" points="345,-4320 76,-4320 76,-4284 345,-4284 345,-4320"/>
<text text-anchor="middle" x="210.5" y="-4298.3" font-family="Times,serif" font-size="14.00" fill="#000000">RecentStockChangeList:stockChangesInJSON</text>
</g>
<!-- 139748202904264 -->
<g id="node83" class="node">
<title>139748202904264</title>
<polygon fill="none" stroke="#000000" points="933,-477 879,-477 879,-441 933,-441 933,-477"/>
<text text-anchor="middle" x="906" y="-455.3" font-family="Times,serif" font-size="14.00" fill="#000000">Root</text>
</g>
<!-- 139748169817896 -->
<g id="node132" class="node">
<title>139748169817896</title>
<ellipse fill="#ffa500" stroke="#000000" cx="996" cy="-459" rx="27" ry="27"/>
</g>
<!-- 139748202904264&#45;&gt;139748169817896 -->
<g id="edge5" class="edge">
<title>139748202904264&#45;&gt;139748169817896</title>
<path fill="none" stroke="#000000" d="M933.003,-459C941.0277,-459 949.9665,-459 958.5309,-459"/>
<polygon fill="#000000" stroke="#000000" points="958.7051,-462.5001 968.705,-459 958.705,-455.5001 958.7051,-462.5001"/>
</g>
<!-- 139748169816664 -->
<g id="node84" class="node">
<title>139748169816664</title>
<polygon fill="none" stroke="#000000" points="273,-4374 148,-4374 148,-4338 273,-4338 273,-4374"/>
<text text-anchor="middle" x="210.5" y="-4352.3" font-family="Times,serif" font-size="14.00" fill="#000000">TimerStat:getCount</text>
</g>
<!-- 139748169815880 -->
<g id="node85" class="node">
<title>139748169815880</title>
<polygon fill="none" stroke="#000000" points="269,-4428 152,-4428 152,-4392 269,-4392 269,-4428"/>
<text text-anchor="middle" x="210.5" y="-4406.3" font-family="Times,serif" font-size="14.00" fill="#000000">TimerStat:getMax</text>
</g>
<!-- 139748202904376 -->
<g id="node86" class="node">
<title>139748202904376</title>
<polygon fill="none" stroke="#000000" points="268,-4482 153,-4482 153,-4446 268,-4446 268,-4482"/>
<text text-anchor="middle" x="210.5" y="-4460.3" font-family="Times,serif" font-size="14.00" fill="#000000">TimerStat:getMin</text>
</g>
<!-- 139748169815600 -->
<g id="node87" class="node">
<title>139748169815600</title>
<polygon fill="none" stroke="#000000" points="285,-4536 136,-4536 136,-4500 285,-4500 285,-4536"/>
<text text-anchor="middle" x="210.5" y="-4514.3" font-family="Times,serif" font-size="14.00" fill="#000000">TimerStat:getTotalTime</text>
</g>
<!-- 139748202902192 -->
<g id="node88" class="node">
<title>139748202902192</title>
<polygon fill="none" stroke="#000000" points="272,-4590 149,-4590 149,-4554 272,-4554 272,-4590"/>
<text text-anchor="middle" x="210.5" y="-4568.3" font-family="Times,serif" font-size="14.00" fill="#000000">TimerStat:setCount</text>
</g>
<!-- 139748169815208 -->
<g id="node89" class="node">
<title>139748169815208</title>
<polygon fill="none" stroke="#000000" points="268.5,-4644 152.5,-4644 152.5,-4608 268.5,-4608 268.5,-4644"/>
<text text-anchor="middle" x="210.5" y="-4622.3" font-family="Times,serif" font-size="14.00" fill="#000000">TimerStat:setMax</text>
</g>
<!-- 139748169816104 -->
<g id="node90" class="node">
<title>139748169816104</title>
<polygon fill="none" stroke="#000000" points="267,-4698 154,-4698 154,-4662 267,-4662 267,-4698"/>
<text text-anchor="middle" x="210.5" y="-4676.3" font-family="Times,serif" font-size="14.00" fill="#000000">TimerStat:setMin</text>
</g>
<!-- 139748169817504 -->
<g id="node91" class="node">
<title>139748169817504</title>
<polygon fill="none" stroke="#000000" points="284.5,-4752 136.5,-4752 136.5,-4716 284.5,-4716 284.5,-4752"/>
<text text-anchor="middle" x="210.5" y="-4730.3" font-family="Times,serif" font-size="14.00" fill="#000000">TimerStat:setTotalTime</text>
</g>
<!-- 139748202903032 -->
<g id="node92" class="node">
<title>139748202903032</title>
<polygon fill="none" stroke="#000000" points="342,-4806 79,-4806 79,-4770 342,-4770 342,-4806"/>
<text text-anchor="middle" x="210.5" y="-4784.3" font-family="Times,serif" font-size="14.00" fill="#000000">TradeAction:TradeAction [overloaded_#001]</text>
</g>
<!-- 139748169815712 -->
<g id="node93" class="node">
<title>139748169815712</title>
<polygon fill="none" stroke="#000000" points="265,-4860 156,-4860 156,-4824 265,-4824 265,-4860"/>
<text text-anchor="middle" x="210.5" y="-4838.3" font-family="Times,serif" font-size="14.00" fill="#000000">TradeAction:buy</text>
</g>
<!-- 139748202904152 -->
<g id="node94" class="node">
<title>139748202904152</title>
<polygon fill="none" stroke="#000000" points="286.5,-4914 134.5,-4914 134.5,-4878 286.5,-4878 286.5,-4914"/>
<text text-anchor="middle" x="210.5" y="-4892.3" font-family="Times,serif" font-size="14.00" fill="#000000">TradeAction:createTrade</text>
</g>
<!-- 139748169815656 -->
<g id="node95" class="node">
<title>139748169815656</title>
<polygon fill="none" stroke="#000000" points="300,-4968 121,-4968 121,-4932 300,-4932 300,-4968"/>
<text text-anchor="middle" x="210.5" y="-4946.3" font-family="Times,serif" font-size="14.00" fill="#000000">TradeAction:getClosedOrders</text>
</g>
<!-- 139748202904824 -->
<g id="node96" class="node">
<title>139748202904824</title>
<polygon fill="none" stroke="#000000" points="279.5,-5022 141.5,-5022 141.5,-4986 279.5,-4986 279.5,-5022"/>
<text text-anchor="middle" x="210.5" y="-5000.3" font-family="Times,serif" font-size="14.00" fill="#000000">TradeAction:getQuote</text>
</g>
<!-- 139748169814648 -->
<g id="node97" class="node">
<title>139748169814648</title>
<polygon fill="none" stroke="#000000" points="299,-5076 122,-5076 122,-5040 299,-5040 299,-5076"/>
<text text-anchor="middle" x="210.5" y="-5054.3" font-family="Times,serif" font-size="14.00" fill="#000000">TradeAction:orderCompleted</text>
</g>
<!-- 139748202902024 -->
<g id="node98" class="node">
<title>139748202902024</title>
<polygon fill="none" stroke="#000000" points="325.5,-5130 95.5,-5130 95.5,-5094 325.5,-5094 325.5,-5130"/>
<text text-anchor="middle" x="210.5" y="-5108.3" font-family="Times,serif" font-size="14.00" fill="#000000">TradeAction:updateQuotePriceVolume</text>
</g>
<!-- 139748169815320 -->
<g id="node99" class="node">
<title>139748169815320</title>
<polygon fill="none" stroke="#000000" points="283.5,-5184 137.5,-5184 137.5,-5148 283.5,-5148 283.5,-5184"/>
<text text-anchor="middle" x="210.5" y="-5162.3" font-family="Times,serif" font-size="14.00" fill="#000000">TradeAppServlet:doGet</text>
</g>
<!-- 139748202903928 -->
<g id="node100" class="node">
<title>139748202903928</title>
<polygon fill="none" stroke="#000000" points="302.5,-5238 118.5,-5238 118.5,-5202 302.5,-5202 302.5,-5238"/>
<text text-anchor="middle" x="210.5" y="-5216.3" font-family="Times,serif" font-size="14.00" fill="#000000">TradeAppServlet:performTask</text>
</g>
<!-- 139748202904040 -->
<g id="node101" class="node">
<title>139748202904040</title>
<polygon fill="none" stroke="#000000" points="297,-5292 124,-5292 124,-5256 297,-5256 297,-5292"/>
<text text-anchor="middle" x="210.5" y="-5270.3" font-family="Times,serif" font-size="14.00" fill="#000000">TradeConfig:getActionTrace</text>
</g>
<!-- 139748202902640 -->
<g id="node102" class="node">
<title>139748202902640</title>
<polygon fill="none" stroke="#000000" points="316.5,-5346 104.5,-5346 104.5,-5310 316.5,-5310 316.5,-5346"/>
<text text-anchor="middle" x="210.5" y="-5324.3" font-family="Times,serif" font-size="14.00" fill="#000000">TradeConfig:getDisplayOrderAlerts</text>
</g>
<!-- 139748169816496 -->
<g id="node103" class="node">
<title>139748169816496</title>
<polygon fill="none" stroke="#000000" points="289,-5400 132,-5400 132,-5364 289,-5364 289,-5400"/>
<text text-anchor="middle" x="210.5" y="-5378.3" font-family="Times,serif" font-size="14.00" fill="#000000">TradeConfig:getLongRun</text>
</g>
<!-- 139748202905328 -->
<g id="node104" class="node">
<title>139748202905328</title>
<polygon fill="none" stroke="#000000" points="309.5,-5454 111.5,-5454 111.5,-5418 309.5,-5418 309.5,-5454"/>
<text text-anchor="middle" x="210.5" y="-5432.3" font-family="Times,serif" font-size="14.00" fill="#000000">TradeConfig:getMAX_QUOTES</text>
</g>
<!-- 139748169817280 -->
<g id="node105" class="node">
<title>139748169817280</title>
<polygon fill="none" stroke="#000000" points="289,-5508 132,-5508 132,-5472 289,-5472 289,-5508"/>
<text text-anchor="middle" x="210.5" y="-5486.3" font-family="Times,serif" font-size="14.00" fill="#000000">TradeConfig:getOrderFee</text>
</g>
<!-- 139748202904320 -->
<g id="node106" class="node">
<title>139748202904320</title>
<polygon fill="none" stroke="#000000" points="276.5,-5562 144.5,-5562 144.5,-5526 276.5,-5526 276.5,-5562"/>
<text text-anchor="middle" x="210.5" y="-5540.3" font-family="Times,serif" font-size="14.00" fill="#000000">TradeConfig:getPage</text>
</g>
<!-- 139748169816608 -->
<g id="node107" class="node">
<title>139748169816608</title>
<polygon fill="none" stroke="#000000" points="333.5,-5616 87.5,-5616 87.5,-5580 333.5,-5580 333.5,-5616"/>
<text text-anchor="middle" x="210.5" y="-5594.3" font-family="Times,serif" font-size="14.00" fill="#000000">TradeConfig:getPercentSentToWebsocket</text>
</g>
<!-- 139748169814928 -->
<g id="node108" class="node">
<title>139748169814928</title>
<polygon fill="none" stroke="#000000" points="334.5,-5670 86.5,-5670 86.5,-5634 334.5,-5634 334.5,-5670"/>
<text text-anchor="middle" x="210.5" y="-5648.3" font-family="Times,serif" font-size="14.00" fill="#000000">TradeConfig:getPublishQuotePriceChange</text>
</g>
<!-- 139748202902808 -->
<g id="node109" class="node">
<title>139748202902808</title>
<polygon fill="none" stroke="#000000" points="338.5,-5724 82.5,-5724 82.5,-5688 338.5,-5688 338.5,-5724"/>
<text text-anchor="middle" x="210.5" y="-5702.3" font-family="Times,serif" font-size="14.00" fill="#000000">TradeConfig:getRandomPriceChangeFactor</text>
</g>
<!-- 139748202902584 -->
<g id="node110" class="node">
<title>139748202902584</title>
<polygon fill="none" stroke="#000000" points="305.5,-5778 115.5,-5778 115.5,-5742 305.5,-5742 305.5,-5778"/>
<text text-anchor="middle" x="210.5" y="-5756.3" font-family="Times,serif" font-size="14.00" fill="#000000">TradeConfig:getRunTimeMode</text>
</g>
<!-- 139748169816440 -->
<g id="node111" class="node">
<title>139748169816440</title>
<polygon fill="none" stroke="#000000" points="279,-5832 142,-5832 142,-5796 279,-5796 279,-5832"/>
<text text-anchor="middle" x="210.5" y="-5810.3" font-family="Times,serif" font-size="14.00" fill="#000000">TradeConfig:getTrace</text>
</g>
<!-- 139748169817224 -->
<g id="node112" class="node">
<title>139748169817224</title>
<polygon fill="none" stroke="#000000" points="316,-5886 105,-5886 105,-5850 316,-5850 316,-5886"/>
<text text-anchor="middle" x="210.5" y="-5864.3" font-family="Times,serif" font-size="14.00" fill="#000000">TradeConfig:getUpdateQuotePrices</text>
</g>
<!-- 139748169817168 -->
<g id="node113" class="node">
<title>139748169817168</title>
<polygon fill="none" stroke="#000000" points="276,-5940 145,-5940 145,-5904 276,-5904 276,-5940"/>
<text text-anchor="middle" x="210.5" y="-5918.3" font-family="Times,serif" font-size="14.00" fill="#000000">TradeConfig:random</text>
</g>
<!-- 139748202905552 -->
<g id="node114" class="node">
<title>139748202905552</title>
<polygon fill="none" stroke="#000000" points="278,-5994 143,-5994 143,-5958 278,-5958 278,-5994"/>
<text text-anchor="middle" x="210.5" y="-5972.3" font-family="Times,serif" font-size="14.00" fill="#000000">TradeConfig:rndFloat</text>
</g>
<!-- 139748202905216 -->
<g id="node115" class="node">
<title>139748202905216</title>
<polygon fill="none" stroke="#000000" points="321,-6048 100,-6048 100,-6012 321,-6012 321,-6048"/>
<text text-anchor="middle" x="210.5" y="-6026.3" font-family="Times,serif" font-size="14.00" fill="#000000">TradeConfig:useRemoteEJBInterface</text>
</g>
<!-- 139748169816888 -->
<g id="node116" class="node">
<title>139748169816888</title>
<polygon fill="none" stroke="#000000" points="276.5,-6102 144.5,-6102 144.5,-6066 276.5,-6066 276.5,-6102"/>
<text text-anchor="middle" x="210.5" y="-6080.3" font-family="Times,serif" font-size="14.00" fill="#000000">TradeSLSBBean:buy</text>
</g>
<!-- 139748169814256 -->
<g id="node117" class="node">
<title>139748169814256</title>
<polygon fill="none" stroke="#000000" points="307.5,-6156 113.5,-6156 113.5,-6120 307.5,-6120 307.5,-6156"/>
<text text-anchor="middle" x="210.5" y="-6134.3" font-family="Times,serif" font-size="14.00" fill="#000000">TradeSLSBBean:completeOrder</text>
</g>
<!-- 139748202904208 -->
<g id="node118" class="node">
<title>139748202904208</title>
<polygon fill="none" stroke="#000000" points="304.5,-6210 116.5,-6210 116.5,-6174 304.5,-6174 304.5,-6210"/>
<text text-anchor="middle" x="210.5" y="-6188.3" font-family="Times,serif" font-size="14.00" fill="#000000">TradeSLSBBean:createHolding</text>
</g>
<!-- 139748169815152 -->
<g id="node119" class="node">
<title>139748169815152</title>
<polygon fill="none" stroke="#000000" points="298.5,-6264 122.5,-6264 122.5,-6228 298.5,-6228 298.5,-6264"/>
<text text-anchor="middle" x="210.5" y="-6242.3" font-family="Times,serif" font-size="14.00" fill="#000000">TradeSLSBBean:createOrder</text>
</g>
<!-- 139748202902920 -->
<g id="node120" class="node">
<title>139748202902920</title>
<polygon fill="none" stroke="#000000" points="312,-6318 109,-6318 109,-6282 312,-6282 312,-6318"/>
<text text-anchor="middle" x="210.5" y="-6296.3" font-family="Times,serif" font-size="14.00" fill="#000000">TradeSLSBBean:getClosedOrders</text>
</g>
<!-- 139748169816552 -->
<g id="node121" class="node">
<title>139748169816552</title>
<polygon fill="none" stroke="#000000" points="291,-6372 130,-6372 130,-6336 291,-6336 291,-6372"/>
<text text-anchor="middle" x="210.5" y="-6350.3" font-family="Times,serif" font-size="14.00" fill="#000000">TradeSLSBBean:getQuote</text>
</g>
<!-- 139748169814872 -->
<g id="node122" class="node">
<title>139748169814872</title>
<polygon fill="none" stroke="#000000" points="304,-6426 117,-6426 117,-6390 304,-6390 304,-6426"/>
<text text-anchor="middle" x="210.5" y="-6404.3" font-family="Times,serif" font-size="14.00" fill="#000000">TradeSLSBBean:postConstruct</text>
</g>
<!-- 139748202903704 -->
<g id="node123" class="node">
<title>139748202903704</title>
<polygon fill="none" stroke="#000000" points="337.5,-6480 83.5,-6480 83.5,-6444 337.5,-6444 337.5,-6480"/>
<text text-anchor="middle" x="210.5" y="-6458.3" font-family="Times,serif" font-size="14.00" fill="#000000">TradeSLSBBean:publishQuotePriceChange</text>
</g>
<!-- 139748169817392 -->
<g id="node124" class="node">
<title>139748169817392</title>
<polygon fill="none" stroke="#000000" points="337,-6534 84,-6534 84,-6498 337,-6498 337,-6534"/>
<text text-anchor="middle" x="210.5" y="-6512.3" font-family="Times,serif" font-size="14.00" fill="#000000">TradeSLSBBean:updateQuotePriceVolume</text>
</g>
<!-- 139748202903424 -->
<g id="node125" class="node">
<title>139748202903424</title>
<polygon fill="none" stroke="#000000" points="292,-6588 129,-6588 129,-6552 292,-6552 292,-6588"/>
<text text-anchor="middle" x="210.5" y="-6566.3" font-family="Times,serif" font-size="14.00" fill="#000000">TradeServletAction:doBuy</text>
</g>
<!-- 139748169814760 -->
<g id="node126" class="node">
<title>139748169814760</title>
<polygon fill="none" stroke="#000000" points="300,-6642 121,-6642 121,-6606 300,-6606 300,-6642"/>
<text text-anchor="middle" x="210.5" y="-6620.3" font-family="Times,serif" font-size="14.00" fill="#000000">TradeServletAction:doQuotes</text>
</g>
<!-- 139748202902360 -->
<g id="node127" class="node">
<title>139748202902360</title>
<polygon fill="none" stroke="#000000" points="317.5,-6696 103.5,-6696 103.5,-6660 317.5,-6660 317.5,-6696"/>
<text text-anchor="middle" x="210.5" y="-6674.3" font-family="Times,serif" font-size="14.00" fill="#000000">TradeServletAction:requestDispatch</text>
</g>
<!-- 139748202902304 -->
<g id="node128" class="node">
<title>139748202902304</title>
<polygon fill="none" stroke="#000000" points="679.5,-396 530.5,-396 530.5,-360 679.5,-360 679.5,-396"/>
<text text-anchor="middle" x="605" y="-374.3" font-family="Times,serif" font-size="14.00" fill="#000000">new DTStreamer3MDB</text>
</g>
<!-- 139748202902304&#45;&gt;139748169818064 -->
<g id="edge6" class="edge">
<title>139748202902304&#45;&gt;139748169818064</title>
<path fill="none" stroke="#000000" d="M679.6443,-383.821C703.8914,-387.7247 730.3631,-394.2173 753,-405 766.7096,-411.5304 779.8108,-421.8388 790.4801,-431.7065"/>
<polygon fill="#000000" stroke="#000000" points="788.1637,-434.335 797.7931,-438.7536 793.021,-429.2944 788.1637,-434.335"/>
</g>
<!-- 139748202905104 -->
<g id="node129" class="node">
<title>139748202905104</title>
<polygon fill="none" stroke="#000000" points="277.5,-6750 143.5,-6750 143.5,-6714 277.5,-6714 277.5,-6750"/>
<text text-anchor="middle" x="210.5" y="-6728.3" font-family="Times,serif" font-size="14.00" fill="#000000">new TradeSLSBBean</text>
</g>
<!-- 139748169817616 -->
<g id="node130" class="node">
<title>139748169817616</title>
<ellipse fill="#00ff00" stroke="#000000" cx="210.5" cy="-459" rx="27" ry="27"/>
<text text-anchor="middle" x="210.5" y="-455.3" font-family="Times,serif" font-size="14.00" fill="#000000">1</text>
</g>
<!-- 139748169817616&#45;&gt;139748169817560 -->
<g id="edge7" class="edge">
<title>139748169817616&#45;&gt;139748169817560</title>
<path fill="none" stroke="#000000" d="M237.6945,-461.0809C278.4051,-464.7651 357.2264,-474.1125 421,-495 437.9999,-500.5679 440.0311,-507.3381 457,-513 471.0235,-517.6791 486.0808,-521.609 501.0292,-524.8923"/>
<polygon fill="#000000" stroke="#000000" points="500.3177,-528.3192 510.8247,-526.9579 501.7621,-521.4698 500.3177,-528.3192"/>
</g>
<!-- 139748169817616&#45;&gt;139748202903368 -->
<g id="edge8" class="edge">
<title>139748169817616&#45;&gt;139748202903368</title>
<path fill="none" stroke="#000000" d="M237.6156,-460.8558C280.686,-463.8036 367.9212,-469.7741 446.5792,-475.1575"/>
<polygon fill="#000000" stroke="#000000" points="446.4049,-478.6537 456.6205,-475.8448 446.8829,-471.67 446.4049,-478.6537"/>
</g>
<!-- 139748169817616&#45;&gt;139748202904432 -->
<g id="edge9" class="edge">
<title>139748169817616&#45;&gt;139748202904432</title>
<path fill="none" stroke="#000000" d="M237.6156,-457.1442C294.1034,-453.2781 426.5586,-444.2127 515.9986,-438.0914"/>
<polygon fill="#000000" stroke="#000000" points="516.4034,-441.5719 526.1411,-437.3972 515.9254,-434.5883 516.4034,-441.5719"/>
</g>
<!-- 139748169817616&#45;&gt;139748202902304 -->
<g id="edge10" class="edge">
<title>139748169817616&#45;&gt;139748202902304</title>
<path fill="none" stroke="#000000" d="M237.6945,-456.9191C278.4051,-453.2349 357.2264,-443.8875 421,-423 437.9999,-417.4321 440.0311,-410.6619 457,-405 477.1051,-398.2916 499.3352,-393.1232 520.323,-389.1925"/>
<polygon fill="#000000" stroke="#000000" points="520.9659,-392.6332 530.1877,-387.417 519.7258,-385.7439 520.9659,-392.6332"/>
</g>
<!-- 139748169818064&#45;&gt;139748202904264 -->
<g id="edge1" class="edge">
<title>139748169818064&#45;&gt;139748202904264</title>
<path fill="none" stroke="#000000" d="M843.003,-459C851.0277,-459 859.9665,-459 868.5309,-459"/>
<polygon fill="#000000" stroke="#000000" points="868.7051,-462.5001 878.705,-459 868.705,-455.5001 868.7051,-462.5001"/>
</g>
</g>
</svg>
