<?xml version="1.0" encoding="UTF-8" standalone="no"?>
<!DOCTYPE svg PUBLIC "-//W3C//DTD SVG 1.1//EN"
 "http://www.w3.org/Graphics/SVG/1.1/DTD/svg11.dtd">
<!-- Generated by graphviz version 2.40.1 (20161225.0304)
 -->
<!-- Title: alpha_plus_net_1585315544.9649386 Pages: 1 -->
<svg width="1276pt" height="2803pt"
 viewBox="0.00 0.00 1276.00 2803.00" xmlns="http://www.w3.org/2000/svg" xmlns:xlink="http://www.w3.org/1999/xlink">
<g id="graph0" class="graph" transform="scale(1 1) rotate(0) translate(4 2799)">
<title>alpha_plus_net_1585315544.9649386</title>
<!-- 140178132274032 -->
<g id="node1" class="node">
<title>140178132274032</title>
<polygon fill="none" stroke="#000000" points="373,-36 48,-36 48,0 373,0 373,-36"/>
<text text-anchor="middle" x="210.5" y="-14.3" font-family="Times,serif" font-size="14.00" fill="#000000">AccountDataBean:AccountDataBean [overloaded_#001]</text>
</g>
<!-- 140178132271680 -->
<g id="node2" class="node">
<title>140178132271680</title>
<polygon fill="none" stroke="#000000" points="314.5,-90 106.5,-90 106.5,-54 314.5,-54 314.5,-90"/>
<text text-anchor="middle" x="210.5" y="-68.3" font-family="Times,serif" font-size="14.00" fill="#000000">AccountDataBean:getLogoutCount</text>
</g>
<!-- 140178132274872 -->
<g id="node3" class="node">
<title>140178132274872</title>
<polygon fill="none" stroke="#000000" points="297,-144 124,-144 124,-108 297,-108 297,-144"/>
<text text-anchor="middle" x="210.5" y="-122.3" font-family="Times,serif" font-size="14.00" fill="#000000">AccountDataBean:hashCode</text>
</g>
<!-- 140178848641712 -->
<g id="node64" class="node">
<title>140178848641712</title>
<ellipse fill="none" stroke="#000000" cx="484" cy="-140" rx="27" ry="27"/>
<text text-anchor="middle" x="484" y="-136.3" font-family="Times,serif" font-size="14.00" fill="#000000">({&#39;AccountDataBean:hashCode&#39;}, {&#39;TradeAction:logout&#39;})</text>
</g>
<!-- 140178132274872&#45;&gt;140178848641712 -->
<g id="edge13" class="edge">
<title>140178132274872&#45;&gt;140178848641712</title>
<path fill="none" stroke="#000000" d="M297.0371,-130.4297C347.3903,-133.0072 408.2912,-136.1246 446.5981,-138.0855"/>
<polygon fill="#000000" stroke="#000000" points="446.61,-141.5906 456.7759,-138.6064 446.9679,-134.5997 446.61,-141.5906"/>
</g>
<!-- 140178132272016 -->
<g id="node4" class="node">
<title>140178132272016</title>
<polygon fill="none" stroke="#000000" points="287.5,-228 133.5,-228 133.5,-192 287.5,-192 287.5,-228"/>
<text text-anchor="middle" x="210.5" y="-206.3" font-family="Times,serif" font-size="14.00" fill="#000000">AccountDataBean:logout</text>
</g>
<!-- 140178132273136 -->
<g id="node5" class="node">
<title>140178132273136</title>
<polygon fill="none" stroke="#000000" points="313.5,-297 107.5,-297 107.5,-261 313.5,-261 313.5,-297"/>
<text text-anchor="middle" x="210.5" y="-275.3" font-family="Times,serif" font-size="14.00" fill="#000000">AccountDataBean:setLogoutCount</text>
</g>
<!-- 140178132272744 -->
<g id="node6" class="node">
<title>140178132272744</title>
<polygon fill="none" stroke="#000000" points="409.5,-359 11.5,-359 11.5,-323 409.5,-323 409.5,-359"/>
<text text-anchor="middle" x="210.5" y="-337.3" font-family="Times,serif" font-size="14.00" fill="#000000">AccountProfileDataBean:AccountProfileDataBean [overloaded_#001]</text>
</g>
<!-- 140178132271904 -->
<g id="node7" class="node">
<title>140178132271904</title>
<polygon fill="none" stroke="#000000" points="319.5,-417 101.5,-417 101.5,-381 319.5,-381 319.5,-417"/>
<text text-anchor="middle" x="210.5" y="-395.3" font-family="Times,serif" font-size="14.00" fill="#000000">AccountProfileDataBean:getAccount</text>
</g>
<!-- 140178132275040 -->
<g id="node8" class="node">
<title>140178132275040</title>
<polygon fill="none" stroke="#000000" points="281,-473 140,-473 140,-437 281,-437 281,-473"/>
<text text-anchor="middle" x="210.5" y="-451.3" font-family="Times,serif" font-size="14.00" fill="#000000">ActionDecoder:decode</text>
</g>
<!-- 140178132618264 -->
<g id="node65" class="node">
<title>140178132618264</title>
<ellipse fill="none" stroke="#000000" cx="484" cy="-380" rx="27" ry="27"/>
<text text-anchor="middle" x="484" y="-376.3" font-family="Times,serif" font-size="14.00" fill="#000000">({&#39;ActionDecoder:decode&#39;, &#39;OrdersAlertFilter:doFilter&#39;, &#39;ActionDecoder:init&#39;, &#39;MarketSummaryWebSocket:onClose&#39;, &#39;ActionDecoder:destroy&#39;, &#39;MarketSummarySingleton:updateMarketSummary&#39;, &#39;ActionDecoder:willDecode&#39;, &#39;MarketSummaryWebSocket:sendMarketSummary&#39;}, {&#39;Root&#39;, &#39;QuoteDataBean:QuoteDataBean [overloaded_#001]&#39;})</text>
</g>
<!-- 140178132275040&#45;&gt;140178132618264 -->
<g id="edge14" class="edge">
<title>140178132275040&#45;&gt;140178132618264</title>
<path fill="none" stroke="#000000" d="M281.4509,-453.8584C323.356,-451.0994 376.7025,-443.8881 421,-426 433.485,-420.9584 445.7746,-412.8946 456.1376,-404.9165"/>
<polygon fill="#000000" stroke="#000000" points="458.4001,-407.5885 464.0024,-398.596 454.0151,-402.1322 458.4001,-407.5885"/>
</g>
<!-- 140178132271456 -->
<g id="node9" class="node">
<title>140178132271456</title>
<polygon fill="none" stroke="#000000" points="1191.5,-463 1048.5,-463 1048.5,-427 1191.5,-427 1191.5,-463"/>
<text text-anchor="middle" x="1120" y="-441.3" font-family="Times,serif" font-size="14.00" fill="#000000">ActionDecoder:destroy</text>
</g>
<!-- 140178132271456&#45;&gt;140178132618264 -->
<g id="edge15" class="edge">
<title>140178132271456&#45;&gt;140178132618264</title>
<path fill="none" stroke="#000000" d="M1048.2367,-459.4634C1014.3541,-465.581 973.261,-471.9823 936,-475 762.8976,-489.0191 705.0722,-509.9317 547,-438 532.2674,-431.2958 518.6711,-419.8034 507.9093,-408.8082"/>
<polygon fill="#000000" stroke="#000000" points="510.3169,-406.2584 500.9325,-401.3405 505.2018,-411.0371 510.3169,-406.2584"/>
</g>
<!-- 140178132271232 -->
<g id="node10" class="node">
<title>140178132271232</title>
<polygon fill="none" stroke="#000000" points="1180.5,-401 1059.5,-401 1059.5,-365 1180.5,-365 1180.5,-401"/>
<text text-anchor="middle" x="1120" y="-379.3" font-family="Times,serif" font-size="14.00" fill="#000000">ActionDecoder:init</text>
</g>
<!-- 140178132271232&#45;&gt;140178132618264 -->
<g id="edge16" class="edge">
<title>140178132271232&#45;&gt;140178132618264</title>
<path fill="none" stroke="#000000" d="M1059.1857,-367.7736C1032.3144,-360.7351 1000.4322,-351.959 972,-343 955.7752,-337.8876 952.7565,-332.9328 936,-330 765.6999,-300.1933 710.2537,-273.0895 547,-330 533.3408,-334.7616 520.4199,-343.8572 509.8766,-352.9993"/>
<polygon fill="#000000" stroke="#000000" points="507.3191,-350.5954 502.3047,-359.9285 512.0448,-355.7595 507.3191,-350.5954"/>
</g>
<!-- 140178132274648 -->
<g id="node11" class="node">
<title>140178132274648</title>
<polygon fill="none" stroke="#000000" points="1202.5,-334 1037.5,-334 1037.5,-298 1202.5,-298 1202.5,-334"/>
<text text-anchor="middle" x="1120" y="-312.3" font-family="Times,serif" font-size="14.00" fill="#000000">ActionDecoder:willDecode</text>
</g>
<!-- 140178132274648&#45;&gt;140178132618264 -->
<g id="edge17" class="edge">
<title>140178132274648&#45;&gt;140178132618264</title>
<path fill="none" stroke="#000000" d="M1037.2614,-302.6819C899.5274,-282.1281 630.1316,-249.2754 547,-292 525.0714,-303.27 509.0707,-326.1069 498.6824,-345.692"/>
<polygon fill="#000000" stroke="#000000" points="495.5223,-344.1857 494.1677,-354.6936 501.7795,-347.324 495.5223,-344.1857"/>
</g>
<!-- 140178132273416 -->
<g id="node12" class="node">
<title>140178132273416</title>
<polygon fill="none" stroke="#000000" points="296,-527 125,-527 125,-491 296,-491 296,-527"/>
<text text-anchor="middle" x="210.5" y="-505.3" font-family="Times,serif" font-size="14.00" fill="#000000">ActionMessage:doDecoding</text>
</g>
<!-- 140178132271624 -->
<g id="node13" class="node">
<title>140178132271624</title>
<polygon fill="none" stroke="#000000" points="313.5,-581 107.5,-581 107.5,-545 313.5,-545 313.5,-581"/>
<text text-anchor="middle" x="210.5" y="-559.3" font-family="Times,serif" font-size="14.00" fill="#000000">ActionMessage:getDecodedAction</text>
</g>
<!-- 140178132274704 -->
<g id="node14" class="node">
<title>140178132274704</title>
<polygon fill="none" stroke="#000000" points="316,-635 105,-635 105,-599 316,-599 316,-635"/>
<text text-anchor="middle" x="210.5" y="-613.3" font-family="Times,serif" font-size="14.00" fill="#000000">FinancialUtils:computeGainPercent</text>
</g>
<!-- 140178132272408 -->
<g id="node15" class="node">
<title>140178132272408</title>
<polygon fill="none" stroke="#000000" points="272,-689 149,-689 149,-653 272,-653 272,-689"/>
<text text-anchor="middle" x="210.5" y="-667.3" font-family="Times,serif" font-size="14.00" fill="#000000">Log:doActionTrace</text>
</g>
<!-- 140178132274480 -->
<g id="node16" class="node">
<title>140178132274480</title>
<polygon fill="none" stroke="#000000" points="253.5,-743 167.5,-743 167.5,-707 253.5,-707 253.5,-743"/>
<text text-anchor="middle" x="210.5" y="-721.3" font-family="Times,serif" font-size="14.00" fill="#000000">Log:doTrace</text>
</g>
<!-- 140178132273192 -->
<g id="node17" class="node">
<title>140178132273192</title>
<polygon fill="none" stroke="#000000" points="273.5,-797 147.5,-797 147.5,-761 273.5,-761 273.5,-797"/>
<text text-anchor="middle" x="210.5" y="-775.3" font-family="Times,serif" font-size="14.00" fill="#000000">Log:getActionTrace</text>
</g>
<!-- 140178132274536 -->
<g id="node18" class="node">
<title>140178132274536</title>
<polygon fill="none" stroke="#000000" points="255,-851 166,-851 166,-815 255,-815 255,-851"/>
<text text-anchor="middle" x="210.5" y="-829.3" font-family="Times,serif" font-size="14.00" fill="#000000">Log:getTrace</text>
</g>
<!-- 140178132273360 -->
<g id="node19" class="node">
<title>140178132273360</title>
<polygon fill="none" stroke="#000000" points="421,-905 0,-905 0,-869 421,-869 421,-905"/>
<text text-anchor="middle" x="210.5" y="-883.3" font-family="Times,serif" font-size="14.00" fill="#000000">MarketSummaryDataBean:MarketSummaryDataBean [overloaded_#002]</text>
</g>
<!-- 140178132273752 -->
<g id="node20" class="node">
<title>140178132273752</title>
<polygon fill="none" stroke="#000000" points="332,-959 89,-959 89,-923 332,-923 332,-959"/>
<text text-anchor="middle" x="210.5" y="-937.3" font-family="Times,serif" font-size="14.00" fill="#000000">MarketSummaryDataBean:getOpenTSIA</text>
</g>
<!-- 140178132275152 -->
<g id="node21" class="node">
<title>140178132275152</title>
<polygon fill="none" stroke="#000000" points="317.5,-1013 103.5,-1013 103.5,-977 317.5,-977 317.5,-1013"/>
<text text-anchor="middle" x="210.5" y="-991.3" font-family="Times,serif" font-size="14.00" fill="#000000">MarketSummaryDataBean:getTSIA</text>
</g>
<!-- 140178132273976 -->
<g id="node22" class="node">
<title>140178132273976</title>
<polygon fill="none" stroke="#000000" points="331.5,-1067 89.5,-1067 89.5,-1031 331.5,-1031 331.5,-1067"/>
<text text-anchor="middle" x="210.5" y="-1045.3" font-family="Times,serif" font-size="14.00" fill="#000000">MarketSummaryDataBean:setOpenTSIA</text>
</g>
<!-- 140178132274592 -->
<g id="node23" class="node">
<title>140178132274592</title>
<polygon fill="none" stroke="#000000" points="341.5,-1121 79.5,-1121 79.5,-1085 341.5,-1085 341.5,-1121"/>
<text text-anchor="middle" x="210.5" y="-1099.3" font-family="Times,serif" font-size="14.00" fill="#000000">MarketSummaryDataBean:setSummaryDate</text>
</g>
<!-- 140178132273864 -->
<g id="node24" class="node">
<title>140178132273864</title>
<polygon fill="none" stroke="#000000" points="316.5,-1175 104.5,-1175 104.5,-1139 316.5,-1139 316.5,-1175"/>
<text text-anchor="middle" x="210.5" y="-1153.3" font-family="Times,serif" font-size="14.00" fill="#000000">MarketSummaryDataBean:setTSIA</text>
</g>
<!-- 140178132273528 -->
<g id="node25" class="node">
<title>140178132273528</title>
<polygon fill="none" stroke="#000000" points="333.5,-1229 87.5,-1229 87.5,-1193 333.5,-1193 333.5,-1229"/>
<text text-anchor="middle" x="210.5" y="-1207.3" font-family="Times,serif" font-size="14.00" fill="#000000">MarketSummaryDataBean:setTopGainers</text>
</g>
<!-- 140178132271792 -->
<g id="node26" class="node">
<title>140178132271792</title>
<polygon fill="none" stroke="#000000" points="330.5,-1283 90.5,-1283 90.5,-1247 330.5,-1247 330.5,-1283"/>
<text text-anchor="middle" x="210.5" y="-1261.3" font-family="Times,serif" font-size="14.00" fill="#000000">MarketSummaryDataBean:setTopLosers</text>
</g>
<!-- 140178132272800 -->
<g id="node27" class="node">
<title>140178132272800</title>
<polygon fill="none" stroke="#000000" points="324,-1337 97,-1337 97,-1301 324,-1301 324,-1337"/>
<text text-anchor="middle" x="210.5" y="-1315.3" font-family="Times,serif" font-size="14.00" fill="#000000">MarketSummaryDataBean:setVolume</text>
</g>
<!-- 140178132275096 -->
<g id="node28" class="node">
<title>140178132275096</title>
<polygon fill="none" stroke="#000000" points="315.5,-1391 105.5,-1391 105.5,-1355 315.5,-1355 315.5,-1391"/>
<text text-anchor="middle" x="210.5" y="-1369.3" font-family="Times,serif" font-size="14.00" fill="#000000">MarketSummaryDataBean:toJSON</text>
</g>
<!-- 140178132274984 -->
<g id="node29" class="node">
<title>140178132274984</title>
<polygon fill="none" stroke="#000000" points="375,-1445 46,-1445 46,-1409 375,-1409 375,-1445"/>
<text text-anchor="middle" x="210.5" y="-1423.3" font-family="Times,serif" font-size="14.00" fill="#000000">MarketSummarySingleton:getMarketSummaryDataBean</text>
</g>
<!-- 140178132271736 -->
<g id="node30" class="node">
<title>140178132271736</title>
<polygon fill="none" stroke="#000000" points="374.5,-1499 46.5,-1499 46.5,-1463 374.5,-1463 374.5,-1499"/>
<text text-anchor="middle" x="210.5" y="-1477.3" font-family="Times,serif" font-size="14.00" fill="#000000">MarketSummarySingleton:setMarketSummaryDataBean</text>
</g>
<!-- 140178132272464 -->
<g id="node31" class="node">
<title>140178132272464</title>
<polygon fill="none" stroke="#000000" points="1268,-274 972,-274 972,-238 1268,-238 1268,-274"/>
<text text-anchor="middle" x="1120" y="-252.3" font-family="Times,serif" font-size="14.00" fill="#000000">MarketSummarySingleton:updateMarketSummary</text>
</g>
<!-- 140178132272464&#45;&gt;140178132618264 -->
<g id="edge18" class="edge">
<title>140178132272464&#45;&gt;140178132618264</title>
<path fill="none" stroke="#000000" d="M971.9028,-242.5082C826.2249,-232.1 615.9365,-225.6122 547,-267 519.1669,-283.7103 502.6804,-317.5718 493.6002,-343.8911"/>
<polygon fill="#000000" stroke="#000000" points="490.2211,-342.9656 490.4746,-353.5574 496.8816,-345.1193 490.2211,-342.9656"/>
</g>
<!-- 140178132273080 -->
<g id="node32" class="node">
<title>140178132273080</title>
<polygon fill="none" stroke="#000000" points="349,-1553 72,-1553 72,-1517 349,-1517 349,-1553"/>
<text text-anchor="middle" x="210.5" y="-1531.3" font-family="Times,serif" font-size="14.00" fill="#000000">MarketSummaryWebSocket:mergeJsonObjects</text>
</g>
<!-- 140178132274816 -->
<g id="node33" class="node">
<title>140178132274816</title>
<polygon fill="none" stroke="#000000" points="1230.5,-586 1009.5,-586 1009.5,-550 1230.5,-550 1230.5,-586"/>
<text text-anchor="middle" x="1120" y="-564.3" font-family="Times,serif" font-size="14.00" fill="#000000">MarketSummaryWebSocket:onClose</text>
</g>
<!-- 140178132274816&#45;&gt;140178132618264 -->
<g id="edge19" class="edge">
<title>140178132274816&#45;&gt;140178132618264</title>
<path fill="none" stroke="#000000" d="M1009.4828,-572.8389C864.0115,-576.9943 618.3615,-575.6828 547,-524 512.3505,-498.9055 496.5124,-450.5385 489.4403,-416.8165"/>
<polygon fill="#000000" stroke="#000000" points="492.8506,-416.0169 487.5158,-406.8632 485.9779,-417.3458 492.8506,-416.0169"/>
</g>
<!-- 140178132272352 -->
<g id="node34" class="node">
<title>140178132272352</title>
<polygon fill="none" stroke="#000000" points="1268,-217 972,-217 972,-181 1268,-181 1268,-217"/>
<text text-anchor="middle" x="1120" y="-195.3" font-family="Times,serif" font-size="14.00" fill="#000000">MarketSummaryWebSocket:sendMarketSummary</text>
</g>
<!-- 140178132272352&#45;&gt;140178132618264 -->
<g id="edge20" class="edge">
<title>140178132272352&#45;&gt;140178132618264</title>
<path fill="none" stroke="#000000" d="M971.9928,-189.6891C825.2364,-183.4621 613.026,-183.4977 547,-230 510.2186,-255.9053 494.8187,-307.6409 488.4324,-343.0367"/>
<polygon fill="#000000" stroke="#000000" points="484.9631,-342.5648 486.7928,-353.0005 491.8702,-343.7015 484.9631,-342.5648"/>
</g>
<!-- 140178132274424 -->
<g id="node35" class="node">
<title>140178132274424</title>
<polygon fill="none" stroke="#000000" points="1198.5,-529 1041.5,-529 1041.5,-493 1198.5,-493 1198.5,-529"/>
<text text-anchor="middle" x="1120" y="-507.3" font-family="Times,serif" font-size="14.00" fill="#000000">OrdersAlertFilter:doFilter</text>
</g>
<!-- 140178132274424&#45;&gt;140178132618264 -->
<g id="edge21" class="edge">
<title>140178132274424&#45;&gt;140178132618264</title>
<path fill="none" stroke="#000000" d="M1041.4167,-527.3153C924.7856,-547.1536 702.8985,-567.7217 547,-477 523.4153,-463.2754 507.1175,-436.7895 497.016,-414.9575"/>
<polygon fill="#000000" stroke="#000000" points="500.1492,-413.3867 492.9351,-405.6274 493.7359,-416.192 500.1492,-413.3867"/>
</g>
<!-- 140178132274928 -->
<g id="node36" class="node">
<title>140178132274928</title>
<polygon fill="none" stroke="#000000" points="846,-429 547,-429 547,-393 846,-393 846,-429"/>
<text text-anchor="middle" x="696.5" y="-407.3" font-family="Times,serif" font-size="14.00" fill="#000000">QuoteDataBean:QuoteDataBean [overloaded_#001]</text>
</g>
<!-- 140178132617088 -->
<g id="node66" class="node">
<title>140178132617088</title>
<ellipse fill="none" stroke="#000000" cx="909" cy="-439" rx="27" ry="27"/>
<text text-anchor="middle" x="909" y="-435.3" font-family="Times,serif" font-size="14.00" fill="#000000">({&#39;QuoteDataBean:QuoteDataBean [overloaded_#001]&#39;, &#39;artificial_start&#39;}, {&#39;ActionDecoder:decode&#39;, &#39;OrdersAlertFilter:doFilter&#39;, &#39;ActionDecoder:init&#39;, &#39;MarketSummaryWebSocket:onClose&#39;, &#39;ActionDecoder:destroy&#39;, &#39;MarketSummarySingleton:updateMarketSummary&#39;, &#39;ActionDecoder:willDecode&#39;, &#39;MarketSummaryWebSocket:sendMarketSummary&#39;})</text>
</g>
<!-- 140178132274928&#45;&gt;140178132617088 -->
<g id="edge22" class="edge">
<title>140178132274928&#45;&gt;140178132617088</title>
<path fill="none" stroke="#000000" d="M833.1826,-429.0099C847.37,-430.8793 860.7669,-432.6446 872.2387,-434.1562"/>
<polygon fill="#000000" stroke="#000000" points="871.8287,-437.6323 882.2003,-435.4687 872.7432,-430.6923 871.8287,-437.6323"/>
</g>
<!-- 140178132272296 -->
<g id="node37" class="node">
<title>140178132272296</title>
<polygon fill="none" stroke="#000000" points="292.5,-1607 128.5,-1607 128.5,-1571 292.5,-1571 292.5,-1607"/>
<text text-anchor="middle" x="210.5" y="-1585.3" font-family="Times,serif" font-size="14.00" fill="#000000">QuoteDataBean:getChange</text>
</g>
<!-- 140178132272856 -->
<g id="node38" class="node">
<title>140178132272856</title>
<polygon fill="none" stroke="#000000" points="286.5,-1661 134.5,-1661 134.5,-1625 286.5,-1625 286.5,-1661"/>
<text text-anchor="middle" x="210.5" y="-1639.3" font-family="Times,serif" font-size="14.00" fill="#000000">QuoteDataBean:getOpen</text>
</g>
<!-- 140178132274256 -->
<g id="node39" class="node">
<title>140178132274256</title>
<polygon fill="none" stroke="#000000" points="286,-1715 135,-1715 135,-1679 286,-1679 286,-1715"/>
<text text-anchor="middle" x="210.5" y="-1693.3" font-family="Times,serif" font-size="14.00" fill="#000000">QuoteDataBean:getPrice</text>
</g>
<!-- 140178132271176 -->
<g id="node40" class="node">
<title>140178132271176</title>
<polygon fill="none" stroke="#000000" points="293.5,-1769 127.5,-1769 127.5,-1733 293.5,-1733 293.5,-1769"/>
<text text-anchor="middle" x="210.5" y="-1747.3" font-family="Times,serif" font-size="14.00" fill="#000000">QuoteDataBean:getSymbol</text>
</g>
<!-- 140178132271960 -->
<g id="node41" class="node">
<title>140178132271960</title>
<polygon fill="none" stroke="#000000" points="294,-1823 127,-1823 127,-1787 294,-1787 294,-1823"/>
<text text-anchor="middle" x="210.5" y="-1801.3" font-family="Times,serif" font-size="14.00" fill="#000000">QuoteDataBean:getVolume</text>
</g>
<!-- 140178132271344 -->
<g id="node42" class="node">
<title>140178132271344</title>
<polygon fill="none" stroke="#000000" points="309,-1877 112,-1877 112,-1841 309,-1841 309,-1877"/>
<text text-anchor="middle" x="210.5" y="-1855.3" font-family="Times,serif" font-size="14.00" fill="#000000">RecentStockChangeList:isEmpty</text>
</g>
<!-- 140178132273024 -->
<g id="node43" class="node">
<title>140178132273024</title>
<polygon fill="none" stroke="#000000" points="345,-1931 76,-1931 76,-1895 345,-1895 345,-1931"/>
<text text-anchor="middle" x="210.5" y="-1909.3" font-family="Times,serif" font-size="14.00" fill="#000000">RecentStockChangeList:stockChangesInJSON</text>
</g>
<!-- 140178132274144 -->
<g id="node44" class="node">
<title>140178132274144</title>
<polygon fill="none" stroke="#000000" points="723.5,-375 669.5,-375 669.5,-339 723.5,-339 723.5,-375"/>
<text text-anchor="middle" x="696.5" y="-353.3" font-family="Times,serif" font-size="14.00" fill="#000000">Root</text>
</g>
<!-- 140178132272688 -->
<g id="node68" class="node">
<title>140178132272688</title>
<ellipse fill="#ffa500" stroke="#000000" cx="909" cy="-366" rx="27" ry="27"/>
</g>
<!-- 140178132274144&#45;&gt;140178132272688 -->
<g id="edge23" class="edge">
<title>140178132274144&#45;&gt;140178132272688</title>
<path fill="none" stroke="#000000" d="M723.8456,-358.1582C761.4607,-359.7513 829.3021,-362.6246 871.5921,-364.4157"/>
<polygon fill="#000000" stroke="#000000" points="871.6202,-367.9199 881.7593,-364.8463 871.9164,-360.9262 871.6202,-367.9199"/>
</g>
<!-- 140178132272072 -->
<g id="node45" class="node">
<title>140178132272072</title>
<polygon fill="none" stroke="#000000" points="342,-1985 79,-1985 79,-1949 342,-1949 342,-1985"/>
<text text-anchor="middle" x="210.5" y="-1963.3" font-family="Times,serif" font-size="14.00" fill="#000000">TradeAction:TradeAction [overloaded_#001]</text>
</g>
<!-- 140178132272968 -->
<g id="node46" class="node">
<title>140178132272968</title>
<polygon fill="none" stroke="#000000" points="286.5,-2039 134.5,-2039 134.5,-2003 286.5,-2003 286.5,-2039"/>
<text text-anchor="middle" x="210.5" y="-2017.3" font-family="Times,serif" font-size="14.00" fill="#000000">TradeAction:createTrade</text>
</g>
<!-- 140178132274312 -->
<g id="node47" class="node">
<title>140178132274312</title>
<polygon fill="none" stroke="#000000" points="310,-2093 111,-2093 111,-2057 310,-2057 310,-2093"/>
<text text-anchor="middle" x="210.5" y="-2071.3" font-family="Times,serif" font-size="14.00" fill="#000000">TradeAction:getMarketSummary</text>
</g>
<!-- 140178132274760 -->
<g id="node48" class="node">
<title>140178132274760</title>
<polygon fill="none" stroke="#000000" points="758,-153 635,-153 635,-117 758,-117 758,-153"/>
<text text-anchor="middle" x="696.5" y="-131.3" font-family="Times,serif" font-size="14.00" fill="#000000">TradeAction:logout</text>
</g>
<!-- 140178132272520 -->
<g id="node67" class="node">
<title>140178132272520</title>
<ellipse fill="none" stroke="#000000" cx="909" cy="-103" rx="27" ry="27"/>
<text text-anchor="middle" x="909" y="-99.3" font-family="Times,serif" font-size="14.00" fill="#000000">({&#39;TradeAction:logout&#39;}, {&#39;AccountDataBean:hashCode&#39;})</text>
</g>
<!-- 140178132274760&#45;&gt;140178132272520 -->
<g id="edge24" class="edge">
<title>140178132274760&#45;&gt;140178132272520</title>
<path fill="none" stroke="#000000" d="M758.2492,-125.7013C795.1313,-120.1473 840.7452,-113.2784 872.0799,-108.5597"/>
<polygon fill="#000000" stroke="#000000" points="872.7586,-111.9971 882.1259,-107.0469 871.7161,-105.0751 872.7586,-111.9971"/>
</g>
<!-- 140178132273584 -->
<g id="node49" class="node">
<title>140178132273584</title>
<polygon fill="none" stroke="#000000" points="283.5,-2147 137.5,-2147 137.5,-2111 283.5,-2111 283.5,-2147"/>
<text text-anchor="middle" x="210.5" y="-2125.3" font-family="Times,serif" font-size="14.00" fill="#000000">TradeAppServlet:doGet</text>
</g>
<!-- 140178132271288 -->
<g id="node50" class="node">
<title>140178132271288</title>
<polygon fill="none" stroke="#000000" points="302.5,-2201 118.5,-2201 118.5,-2165 302.5,-2165 302.5,-2201"/>
<text text-anchor="middle" x="210.5" y="-2179.3" font-family="Times,serif" font-size="14.00" fill="#000000">TradeAppServlet:performTask</text>
</g>
<!-- 140178132273696 -->
<g id="node51" class="node">
<title>140178132273696</title>
<polygon fill="none" stroke="#000000" points="297,-2255 124,-2255 124,-2219 297,-2219 297,-2255"/>
<text text-anchor="middle" x="210.5" y="-2233.3" font-family="Times,serif" font-size="14.00" fill="#000000">TradeConfig:getActionTrace</text>
</g>
<!-- 140178132273472 -->
<g id="node52" class="node">
<title>140178132273472</title>
<polygon fill="none" stroke="#000000" points="316.5,-2309 104.5,-2309 104.5,-2273 316.5,-2273 316.5,-2309"/>
<text text-anchor="middle" x="210.5" y="-2287.3" font-family="Times,serif" font-size="14.00" fill="#000000">TradeConfig:getDisplayOrderAlerts</text>
</g>
<!-- 140178132272184 -->
<g id="node53" class="node">
<title>140178132272184</title>
<polygon fill="none" stroke="#000000" points="276.5,-2363 144.5,-2363 144.5,-2327 276.5,-2327 276.5,-2363"/>
<text text-anchor="middle" x="210.5" y="-2341.3" font-family="Times,serif" font-size="14.00" fill="#000000">TradeConfig:getPage</text>
</g>
<!-- 140178132271848 -->
<g id="node54" class="node">
<title>140178132271848</title>
<polygon fill="none" stroke="#000000" points="305.5,-2417 115.5,-2417 115.5,-2381 305.5,-2381 305.5,-2417"/>
<text text-anchor="middle" x="210.5" y="-2395.3" font-family="Times,serif" font-size="14.00" fill="#000000">TradeConfig:getRunTimeMode</text>
</g>
<!-- 140178132273248 -->
<g id="node55" class="node">
<title>140178132273248</title>
<polygon fill="none" stroke="#000000" points="279,-2471 142,-2471 142,-2435 279,-2435 279,-2471"/>
<text text-anchor="middle" x="210.5" y="-2449.3" font-family="Times,serif" font-size="14.00" fill="#000000">TradeConfig:getTrace</text>
</g>
<!-- 140178132271400 -->
<g id="node56" class="node">
<title>140178132271400</title>
<polygon fill="none" stroke="#000000" points="321,-2525 100,-2525 100,-2489 321,-2489 321,-2525"/>
<text text-anchor="middle" x="210.5" y="-2503.3" font-family="Times,serif" font-size="14.00" fill="#000000">TradeConfig:useRemoteEJBInterface</text>
</g>
<!-- 140178132271568 -->
<g id="node57" class="node">
<title>140178132271568</title>
<polygon fill="none" stroke="#000000" points="321.5,-2579 99.5,-2579 99.5,-2543 321.5,-2543 321.5,-2579"/>
<text text-anchor="middle" x="210.5" y="-2557.3" font-family="Times,serif" font-size="14.00" fill="#000000">TradeSLSBBean:getMarketSummary</text>
</g>
<!-- 140178132271512 -->
<g id="node58" class="node">
<title>140178132271512</title>
<polygon fill="none" stroke="#000000" points="283.5,-2633 137.5,-2633 137.5,-2597 283.5,-2597 283.5,-2633"/>
<text text-anchor="middle" x="210.5" y="-2611.3" font-family="Times,serif" font-size="14.00" fill="#000000">TradeSLSBBean:logout</text>
</g>
<!-- 140178132274368 -->
<g id="node59" class="node">
<title>140178132274368</title>
<polygon fill="none" stroke="#000000" points="300,-2687 121,-2687 121,-2651 300,-2651 300,-2687"/>
<text text-anchor="middle" x="210.5" y="-2665.3" font-family="Times,serif" font-size="14.00" fill="#000000">TradeServletAction:doLogout</text>
</g>
<!-- 140178132272912 -->
<g id="node60" class="node">
<title>140178132272912</title>
<polygon fill="none" stroke="#000000" points="317.5,-2741 103.5,-2741 103.5,-2705 317.5,-2705 317.5,-2741"/>
<text text-anchor="middle" x="210.5" y="-2719.3" font-family="Times,serif" font-size="14.00" fill="#000000">TradeServletAction:requestDispatch</text>
</g>
<!-- 140178132274088 -->
<g id="node61" class="node">
<title>140178132274088</title>
<polygon fill="none" stroke="#000000" points="274.5,-2795 146.5,-2795 146.5,-2759 274.5,-2759 274.5,-2795"/>
<text text-anchor="middle" x="210.5" y="-2773.3" font-family="Times,serif" font-size="14.00" fill="#000000">new ActionMessage</text>
</g>
<!-- 140178132273640 -->
<g id="node62" class="node">
<title>140178132273640</title>
<polygon fill="none" stroke="#000000" points="742.5,-635 650.5,-635 650.5,-599 742.5,-599 742.5,-635"/>
<text text-anchor="middle" x="696.5" y="-613.3" font-family="Times,serif" font-size="14.00" fill="#000000">artificial_start</text>
</g>
<!-- 140178132273640&#45;&gt;140178132617088 -->
<g id="edge25" class="edge">
<title>140178132273640&#45;&gt;140178132617088</title>
<path fill="none" stroke="#000000" d="M718.0451,-598.9528C756.5061,-566.7361 836.9883,-499.3204 880.1657,-463.1529"/>
<polygon fill="#000000" stroke="#000000" points="882.6094,-465.6717 888.0279,-456.5672 878.1145,-460.3055 882.6094,-465.6717"/>
</g>
<!-- 140178132272632 -->
<g id="node63" class="node">
<title>140178132272632</title>
<ellipse fill="#00ff00" stroke="#000000" cx="484" cy="-617" rx="27" ry="27"/>
<text text-anchor="middle" x="484" y="-613.3" font-family="Times,serif" font-size="14.00" fill="#000000">1</text>
</g>
<!-- 140178132272632&#45;&gt;140178132273640 -->
<g id="edge26" class="edge">
<title>140178132272632&#45;&gt;140178132273640</title>
<path fill="none" stroke="#000000" d="M511.3456,-617C543.7589,-617 598.6168,-617 640.2291,-617"/>
<polygon fill="#000000" stroke="#000000" points="640.2321,-620.5001 650.232,-617 640.232,-613.5001 640.2321,-620.5001"/>
</g>
<!-- 140178848641712&#45;&gt;140178132274760 -->
<g id="edge1" class="edge">
<title>140178848641712&#45;&gt;140178132274760</title>
<path fill="none" stroke="#000000" d="M511.3456,-139.3566C539.849,-138.6859 585.7085,-137.6069 624.6546,-136.6905"/>
<polygon fill="#000000" stroke="#000000" points="624.9976,-140.1835 634.9125,-136.4491 624.8329,-133.1854 624.9976,-140.1835"/>
</g>
<!-- 140178132618264&#45;&gt;140178132274928 -->
<g id="edge2" class="edge">
<title>140178132618264&#45;&gt;140178132274928</title>
<path fill="none" stroke="#000000" d="M510.9133,-383.9262C524.9576,-385.975 543.2987,-388.6506 562.9786,-391.5216"/>
<polygon fill="#000000" stroke="#000000" points="562.6531,-395.0111 573.0537,-392.9914 563.6637,-388.0844 562.6531,-395.0111"/>
</g>
<!-- 140178132618264&#45;&gt;140178132274144 -->
<g id="edge3" class="edge">
<title>140178132618264&#45;&gt;140178132274144</title>
<path fill="none" stroke="#000000" d="M510.9133,-377.087C548.4923,-373.0197 616.8339,-365.6227 659.2733,-361.0292"/>
<polygon fill="#000000" stroke="#000000" points="659.9052,-364.4814 669.4705,-359.9256 659.1519,-357.522 659.9052,-364.4814"/>
</g>
<!-- 140178132617088&#45;&gt;140178132275040 -->
<g id="edge4" class="edge">
<title>140178132617088&#45;&gt;140178132275040</title>
<path fill="none" stroke="#000000" d="M881.9551,-439.6195C784.3248,-441.8558 447.6138,-449.5686 291.3475,-453.1481"/>
<polygon fill="#000000" stroke="#000000" points="291.2371,-449.6496 281.3199,-453.3778 291.3974,-456.6478 291.2371,-449.6496"/>
</g>
<!-- 140178132617088&#45;&gt;140178132271456 -->
<g id="edge5" class="edge">
<title>140178132617088&#45;&gt;140178132271456</title>
<path fill="none" stroke="#000000" d="M936.1526,-439.7721C961.8926,-440.5041 1001.8871,-441.6413 1038.0082,-442.6685"/>
<polygon fill="#000000" stroke="#000000" points="1037.9829,-446.1691 1048.0784,-442.9548 1038.182,-439.1719 1037.9829,-446.1691"/>
</g>
<!-- 140178132617088&#45;&gt;140178132271232 -->
<g id="edge6" class="edge">
<title>140178132617088&#45;&gt;140178132271232</title>
<path fill="none" stroke="#000000" d="M934.5858,-429.8932C945.9684,-425.992 959.5795,-421.5311 972,-418 997,-410.8927 1024.6567,-404.0762 1049.2306,-398.3778"/>
<polygon fill="#000000" stroke="#000000" points="1050.2347,-401.7384 1059.1972,-396.0883 1048.6674,-394.916 1050.2347,-401.7384"/>
</g>
<!-- 140178132617088&#45;&gt;140178132274648 -->
<g id="edge7" class="edge">
<title>140178132617088&#45;&gt;140178132274648</title>
<path fill="none" stroke="#000000" d="M925.098,-417.0722C942.7019,-393.2042 968.8491,-358.1223 972,-356 988.5245,-344.87 1008.039,-336.8289 1027.3821,-331.0219"/>
<polygon fill="#000000" stroke="#000000" points="1028.4814,-334.3485 1037.1562,-328.2658 1026.5816,-327.6112 1028.4814,-334.3485"/>
</g>
<!-- 140178132617088&#45;&gt;140178132272464 -->
<g id="edge8" class="edge">
<title>140178132617088&#45;&gt;140178132272464</title>
<path fill="none" stroke="#000000" d="M926.2192,-417.8408C929.7759,-412.8405 933.2661,-407.3899 936,-402 959.8436,-354.992 933.1072,-324.5755 972,-289 975.9062,-285.427 980.112,-282.2116 984.5461,-279.3199"/>
<polygon fill="#000000" stroke="#000000" points="986.4918,-282.2361 993.3361,-274.1487 982.9423,-276.2027 986.4918,-282.2361"/>
</g>
<!-- 140178132617088&#45;&gt;140178132274816 -->
<g id="edge9" class="edge">
<title>140178132617088&#45;&gt;140178132274816</title>
<path fill="none" stroke="#000000" d="M918.5279,-464.7195C928.3688,-487.5967 945.9743,-520.1172 972,-538 980.5148,-543.8507 989.915,-548.611 999.7263,-552.478"/>
<polygon fill="#000000" stroke="#000000" points="998.6493,-555.8103 1009.2435,-555.9183 1001.0289,-549.2272 998.6493,-555.8103"/>
</g>
<!-- 140178132617088&#45;&gt;140178132272352 -->
<g id="edge10" class="edge">
<title>140178132617088&#45;&gt;140178132272352</title>
<path fill="none" stroke="#000000" d="M926.6372,-418.0394C930.1721,-413.0288 933.5479,-407.5238 936,-402 967.8648,-330.2188 916.3233,-284.3895 972,-229 974.1345,-226.8765 976.3753,-224.8832 978.7087,-223.0126"/>
<polygon fill="#000000" stroke="#000000" points="980.869,-225.7708 986.9783,-217.1148 976.8045,-220.0717 980.869,-225.7708"/>
</g>
<!-- 140178132617088&#45;&gt;140178132274424 -->
<g id="edge11" class="edge">
<title>140178132617088&#45;&gt;140178132274424</title>
<path fill="none" stroke="#000000" d="M932.3425,-452.8357C943.9704,-459.3072 958.4168,-466.7302 972,-472 990.9472,-479.3508 1011.7835,-485.7904 1031.6889,-491.2072"/>
<polygon fill="#000000" stroke="#000000" points="1030.8098,-494.595 1041.3735,-493.7837 1032.6095,-487.8303 1030.8098,-494.595"/>
</g>
<!-- 140178132272520&#45;&gt;140178132274872 -->
<g id="edge12" class="edge">
<title>140178132272520&#45;&gt;140178132274872</title>
<path fill="none" stroke="#000000" d="M881.9786,-102.243C811.8171,-100.4546 618.0931,-96.647 457,-104 407.5206,-106.2585 352.6174,-110.9442 307.209,-115.4131"/>
<polygon fill="#000000" stroke="#000000" points="306.6795,-111.9484 297.0756,-116.4222 307.3732,-118.9139 306.6795,-111.9484"/>
</g>
</g>
</svg>
