<?xml version="1.0" encoding="UTF-8" standalone="no"?>
<!DOCTYPE svg PUBLIC "-//W3C//DTD SVG 1.1//EN"
 "http://www.w3.org/Graphics/SVG/1.1/DTD/svg11.dtd">
<!-- Generated by graphviz version 2.40.1 (20161225.0304)
 -->
<!-- Title: alpha_classic_net_1586496126.8216937 Pages: 1 -->
<svg width="869pt" height="3680pt"
 viewBox="0.00 0.00 869.00 3680.00" xmlns="http://www.w3.org/2000/svg" xmlns:xlink="http://www.w3.org/1999/xlink">
<g id="graph0" class="graph" transform="scale(1 1) rotate(0) translate(4 3676)">
<title>alpha_classic_net_1586496126.8216937</title>
<!-- 139748204662456 -->
<g id="node1" class="node">
<title>139748204662456</title>
<polygon fill="none" stroke="#000000" points="361.5,-36 36.5,-36 36.5,0 361.5,0 361.5,-36"/>
<text text-anchor="middle" x="199" y="-14.3" font-family="Times,serif" font-size="14.00" fill="#000000">AccountDataBean:AccountDataBean [overloaded_#001]</text>
</g>
<!-- 139748204661896 -->
<g id="node2" class="node">
<title>139748204661896</title>
<polygon fill="none" stroke="#000000" points="297,-90 101,-90 101,-54 297,-54 297,-90"/>
<text text-anchor="middle" x="199" y="-68.3" font-family="Times,serif" font-size="14.00" fill="#000000">AccountDataBean:getAccountID</text>
</g>
<!-- 139748204659656 -->
<g id="node3" class="node">
<title>139748204659656</title>
<polygon fill="none" stroke="#000000" points="288.5,-144 109.5,-144 109.5,-108 288.5,-108 288.5,-144"/>
<text text-anchor="middle" x="199" y="-122.3" font-family="Times,serif" font-size="14.00" fill="#000000">AccountDataBean:getBalance</text>
</g>
<!-- 139748204662400 -->
<g id="node4" class="node">
<title>139748204662400</title>
<polygon fill="none" stroke="#000000" points="303,-198 95,-198 95,-162 303,-162 303,-198"/>
<text text-anchor="middle" x="199" y="-176.3" font-family="Times,serif" font-size="14.00" fill="#000000">AccountDataBean:getCreationDate</text>
</g>
<!-- 139748204661952 -->
<g id="node5" class="node">
<title>139748204661952</title>
<polygon fill="none" stroke="#000000" points="299.5,-252 98.5,-252 98.5,-216 299.5,-216 299.5,-252"/>
<text text-anchor="middle" x="199" y="-230.3" font-family="Times,serif" font-size="14.00" fill="#000000">AccountDataBean:getLoginCount</text>
</g>
<!-- 139748204660608 -->
<g id="node6" class="node">
<title>139748204660608</title>
<polygon fill="none" stroke="#000000" points="303.5,-306 94.5,-306 94.5,-270 303.5,-270 303.5,-306"/>
<text text-anchor="middle" x="199" y="-284.3" font-family="Times,serif" font-size="14.00" fill="#000000">AccountDataBean:getOpenBalance</text>
</g>
<!-- 139748204662512 -->
<g id="node7" class="node">
<title>139748204662512</title>
<polygon fill="none" stroke="#000000" points="285.5,-360 112.5,-360 112.5,-324 285.5,-324 285.5,-360"/>
<text text-anchor="middle" x="199" y="-338.3" font-family="Times,serif" font-size="14.00" fill="#000000">AccountDataBean:getProfile</text>
</g>
<!-- 139748204661504 -->
<g id="node8" class="node">
<title>139748204661504</title>
<polygon fill="none" stroke="#000000" points="292.5,-414 105.5,-414 105.5,-378 292.5,-378 292.5,-414"/>
<text text-anchor="middle" x="199" y="-392.3" font-family="Times,serif" font-size="14.00" fill="#000000">AccountDataBean:getProfileID</text>
</g>
<!-- 139748204661784 -->
<g id="node9" class="node">
<title>139748204661784</title>
<polygon fill="none" stroke="#000000" points="285.5,-468 112.5,-468 112.5,-432 285.5,-432 285.5,-468"/>
<text text-anchor="middle" x="199" y="-446.3" font-family="Times,serif" font-size="14.00" fill="#000000">AccountDataBean:hashCode</text>
</g>
<!-- 139748204661168 -->
<g id="node10" class="node">
<title>139748204661168</title>
<polygon fill="none" stroke="#000000" points="272.5,-522 125.5,-522 125.5,-486 272.5,-486 272.5,-522"/>
<text text-anchor="middle" x="199" y="-500.3" font-family="Times,serif" font-size="14.00" fill="#000000">AccountDataBean:login</text>
</g>
<!-- 139748205052312 -->
<g id="node11" class="node">
<title>139748205052312</title>
<polygon fill="none" stroke="#000000" points="294,-576 104,-576 104,-540 294,-540 294,-576"/>
<text text-anchor="middle" x="199" y="-554.3" font-family="Times,serif" font-size="14.00" fill="#000000">AccountDataBean:setLastLogin</text>
</g>
<!-- 139748204660440 -->
<g id="node12" class="node">
<title>139748204660440</title>
<polygon fill="none" stroke="#000000" points="299,-630 99,-630 99,-594 299,-594 299,-630"/>
<text text-anchor="middle" x="199" y="-608.3" font-family="Times,serif" font-size="14.00" fill="#000000">AccountDataBean:setLoginCount</text>
</g>
<!-- 139748204661112 -->
<g id="node13" class="node">
<title>139748204661112</title>
<polygon fill="none" stroke="#000000" points="291.5,-684 106.5,-684 106.5,-648 291.5,-648 291.5,-684"/>
<text text-anchor="middle" x="199" y="-662.3" font-family="Times,serif" font-size="14.00" fill="#000000">AccountDataBean:setProfileID</text>
</g>
<!-- 139748204660384 -->
<g id="node14" class="node">
<title>139748204660384</title>
<polygon fill="none" stroke="#000000" points="398,-738 0,-738 0,-702 398,-702 398,-738"/>
<text text-anchor="middle" x="199" y="-716.3" font-family="Times,serif" font-size="14.00" fill="#000000">AccountProfileDataBean:AccountProfileDataBean [overloaded_#001]</text>
</g>
<!-- 139748204662344 -->
<g id="node15" class="node">
<title>139748204662344</title>
<polygon fill="none" stroke="#000000" points="308,-792 90,-792 90,-756 308,-756 308,-792"/>
<text text-anchor="middle" x="199" y="-770.3" font-family="Times,serif" font-size="14.00" fill="#000000">AccountProfileDataBean:getAccount</text>
</g>
<!-- 139748204661616 -->
<g id="node16" class="node">
<title>139748204661616</title>
<polygon fill="none" stroke="#000000" points="311,-846 87,-846 87,-810 311,-810 311,-846"/>
<text text-anchor="middle" x="199" y="-824.3" font-family="Times,serif" font-size="14.00" fill="#000000">AccountProfileDataBean:getPassword</text>
</g>
<!-- 139748204661056 -->
<g id="node17" class="node">
<title>139748204661056</title>
<polygon fill="none" stroke="#000000" points="305,-900 93,-900 93,-864 305,-864 305,-900"/>
<text text-anchor="middle" x="199" y="-878.3" font-family="Times,serif" font-size="14.00" fill="#000000">AccountProfileDataBean:getUserID</text>
</g>
<!-- 139748205052200 -->
<g id="node18" class="node">
<title>139748205052200</title>
<polygon fill="none" stroke="#000000" points="284,-954 114,-954 114,-918 284,-918 284,-954"/>
<text text-anchor="middle" x="199" y="-932.3" font-family="Times,serif" font-size="14.00" fill="#000000">FinancialUtils:computeGain</text>
</g>
<!-- 139748204659712 -->
<g id="node19" class="node">
<title>139748204659712</title>
<polygon fill="none" stroke="#000000" points="304.5,-1008 93.5,-1008 93.5,-972 304.5,-972 304.5,-1008"/>
<text text-anchor="middle" x="199" y="-986.3" font-family="Times,serif" font-size="14.00" fill="#000000">FinancialUtils:computeGainPercent</text>
</g>
<!-- 139748204662232 -->
<g id="node20" class="node">
<title>139748204662232</title>
<polygon fill="none" stroke="#000000" points="310,-1062 88,-1062 88,-1026 310,-1026 310,-1062"/>
<text text-anchor="middle" x="199" y="-1040.3" font-family="Times,serif" font-size="14.00" fill="#000000">FinancialUtils:computeHoldingsTotal</text>
</g>
<!-- 139748205052144 -->
<g id="node21" class="node">
<title>139748205052144</title>
<polygon fill="none" stroke="#000000" points="293,-1116 105,-1116 105,-1080 293,-1080 293,-1116"/>
<text text-anchor="middle" x="199" y="-1094.3" font-family="Times,serif" font-size="14.00" fill="#000000">FinancialUtils:printGainHTML</text>
</g>
<!-- 139748204660552 -->
<g id="node22" class="node">
<title>139748204660552</title>
<polygon fill="none" stroke="#000000" points="313,-1170 85,-1170 85,-1134 313,-1134 313,-1170"/>
<text text-anchor="middle" x="199" y="-1148.3" font-family="Times,serif" font-size="14.00" fill="#000000">FinancialUtils:printGainPercentHTML</text>
</g>
<!-- 139748204660496 -->
<g id="node23" class="node">
<title>139748204660496</title>
<polygon fill="none" stroke="#000000" points="289.5,-1224 108.5,-1224 108.5,-1188 289.5,-1188 289.5,-1224"/>
<text text-anchor="middle" x="199" y="-1202.3" font-family="Times,serif" font-size="14.00" fill="#000000">FinancialUtils:printQuoteLink</text>
</g>
<!-- 139748204659320 -->
<g id="node24" class="node">
<title>139748204659320</title>
<polygon fill="none" stroke="#000000" points="304.5,-1278 93.5,-1278 93.5,-1242 304.5,-1242 304.5,-1278"/>
<text text-anchor="middle" x="199" y="-1256.3" font-family="Times,serif" font-size="14.00" fill="#000000">HoldingDataBean:getPurchasePrice</text>
</g>
<!-- 139748205051976 -->
<g id="node25" class="node">
<title>139748205051976</title>
<polygon fill="none" stroke="#000000" points="290,-1332 108,-1332 108,-1296 290,-1296 290,-1332"/>
<text text-anchor="middle" x="199" y="-1310.3" font-family="Times,serif" font-size="14.00" fill="#000000">HoldingDataBean:getQuantity</text>
</g>
<!-- 139748204660216 -->
<g id="node26" class="node">
<title>139748204660216</title>
<polygon fill="none" stroke="#000000" points="260.5,-1386 137.5,-1386 137.5,-1350 260.5,-1350 260.5,-1386"/>
<text text-anchor="middle" x="199" y="-1364.3" font-family="Times,serif" font-size="14.00" fill="#000000">Log:doActionTrace</text>
</g>
<!-- 139748204661728 -->
<g id="node27" class="node">
<title>139748204661728</title>
<polygon fill="none" stroke="#000000" points="242,-1440 156,-1440 156,-1404 242,-1404 242,-1440"/>
<text text-anchor="middle" x="199" y="-1418.3" font-family="Times,serif" font-size="14.00" fill="#000000">Log:doTrace</text>
</g>
<!-- 139748204660272 -->
<g id="node28" class="node">
<title>139748204660272</title>
<polygon fill="none" stroke="#000000" points="262,-1494 136,-1494 136,-1458 262,-1458 262,-1494"/>
<text text-anchor="middle" x="199" y="-1472.3" font-family="Times,serif" font-size="14.00" fill="#000000">Log:getActionTrace</text>
</g>
<!-- 139748204662008 -->
<g id="node29" class="node">
<title>139748204662008</title>
<polygon fill="none" stroke="#000000" points="243.5,-1548 154.5,-1548 154.5,-1512 243.5,-1512 243.5,-1548"/>
<text text-anchor="middle" x="199" y="-1526.3" font-family="Times,serif" font-size="14.00" fill="#000000">Log:getTrace</text>
</g>
<!-- 139748204662120 -->
<g id="node30" class="node">
<title>139748204662120</title>
<polygon fill="none" stroke="#000000" points="305,-1602 93,-1602 93,-1566 305,-1566 305,-1602"/>
<text text-anchor="middle" x="199" y="-1580.3" font-family="Times,serif" font-size="14.00" fill="#000000">OrderDataBean:getCompletionDate</text>
</g>
<!-- 139748204661560 -->
<g id="node31" class="node">
<title>139748204661560</title>
<polygon fill="none" stroke="#000000" points="287,-1656 111,-1656 111,-1620 287,-1620 287,-1656"/>
<text text-anchor="middle" x="199" y="-1634.3" font-family="Times,serif" font-size="14.00" fill="#000000">OrderDataBean:getOpenDate</text>
</g>
<!-- 139748204659432 -->
<g id="node32" class="node">
<title>139748204659432</title>
<polygon fill="none" stroke="#000000" points="285.5,-1710 112.5,-1710 112.5,-1674 285.5,-1674 285.5,-1710"/>
<text text-anchor="middle" x="199" y="-1688.3" font-family="Times,serif" font-size="14.00" fill="#000000">OrderDataBean:getOrderFee</text>
</g>
<!-- 139748204660160 -->
<g id="node33" class="node">
<title>139748204660160</title>
<polygon fill="none" stroke="#000000" points="282.5,-1764 115.5,-1764 115.5,-1728 282.5,-1728 282.5,-1764"/>
<text text-anchor="middle" x="199" y="-1742.3" font-family="Times,serif" font-size="14.00" fill="#000000">OrderDataBean:getOrderID</text>
</g>
<!-- 139748204659376 -->
<g id="node34" class="node">
<title>139748204659376</title>
<polygon fill="none" stroke="#000000" points="292,-1818 106,-1818 106,-1782 292,-1782 292,-1818"/>
<text text-anchor="middle" x="199" y="-1796.3" font-family="Times,serif" font-size="14.00" fill="#000000">OrderDataBean:getOrderStatus</text>
</g>
<!-- 139748204661224 -->
<g id="node35" class="node">
<title>139748204661224</title>
<polygon fill="none" stroke="#000000" points="289.5,-1872 108.5,-1872 108.5,-1836 289.5,-1836 289.5,-1872"/>
<text text-anchor="middle" x="199" y="-1850.3" font-family="Times,serif" font-size="14.00" fill="#000000">OrderDataBean:getOrderType</text>
</g>
<!-- 139748204662064 -->
<g id="node36" class="node">
<title>139748204662064</title>
<polygon fill="none" stroke="#000000" points="283.5,-1926 114.5,-1926 114.5,-1890 283.5,-1890 283.5,-1926"/>
<text text-anchor="middle" x="199" y="-1904.3" font-family="Times,serif" font-size="14.00" fill="#000000">OrderDataBean:getQuantity</text>
</g>
<!-- 139748204659936 -->
<g id="node37" class="node">
<title>139748204659936</title>
<polygon fill="none" stroke="#000000" points="281,-1980 117,-1980 117,-1944 281,-1944 281,-1980"/>
<text text-anchor="middle" x="199" y="-1958.3" font-family="Times,serif" font-size="14.00" fill="#000000">OrderDataBean:getSymbol</text>
</g>
<!-- 139748204659992 -->
<g id="node38" class="node">
<title>139748204659992</title>
<polygon fill="none" stroke="#000000" points="591,-2043 434,-2043 434,-2007 591,-2007 591,-2043"/>
<text text-anchor="middle" x="512.5" y="-2021.3" font-family="Times,serif" font-size="14.00" fill="#000000">OrdersAlertFilter:doFilter</text>
</g>
<!-- 139748205052648 -->
<g id="node71" class="node">
<title>139748205052648</title>
<ellipse fill="none" stroke="#000000" cx="654" cy="-2025" rx="27" ry="27"/>
<text text-anchor="middle" x="654" y="-2021.3" font-family="Times,serif" font-size="14.00" fill="#000000">({&#39;OrdersAlertFilter:doFilter&#39;}, {&#39;Root&#39;})</text>
</g>
<!-- 139748204659992&#45;&gt;139748205052648 -->
<g id="edge2" class="edge">
<title>139748204659992&#45;&gt;139748205052648</title>
<path fill="none" stroke="#000000" d="M591.112,-2025C600.0464,-2025 608.8115,-2025 616.8279,-2025"/>
<polygon fill="#000000" stroke="#000000" points="616.8861,-2028.5001 626.8861,-2025 616.8861,-2021.5001 616.8861,-2028.5001"/>
</g>
<!-- 139748205052088 -->
<g id="node39" class="node">
<title>139748205052088</title>
<polygon fill="none" stroke="#000000" points="282,-2106 116,-2106 116,-2070 282,-2070 282,-2106"/>
<text text-anchor="middle" x="199" y="-2084.3" font-family="Times,serif" font-size="14.00" fill="#000000">QuoteDataBean:getSymbol</text>
</g>
<!-- 139748204659824 -->
<g id="node40" class="node">
<title>139748204659824</title>
<polygon fill="none" stroke="#000000" points="771,-2043 717,-2043 717,-2007 771,-2007 771,-2043"/>
<text text-anchor="middle" x="744" y="-2021.3" font-family="Times,serif" font-size="14.00" fill="#000000">Root</text>
</g>
<!-- 139748205052480 -->
<g id="node72" class="node">
<title>139748205052480</title>
<ellipse fill="#ffa500" stroke="#000000" cx="834" cy="-2025" rx="27" ry="27"/>
</g>
<!-- 139748204659824&#45;&gt;139748205052480 -->
<g id="edge3" class="edge">
<title>139748204659824&#45;&gt;139748205052480</title>
<path fill="none" stroke="#000000" d="M771.003,-2025C779.0277,-2025 787.9665,-2025 796.5309,-2025"/>
<polygon fill="#000000" stroke="#000000" points="796.7051,-2028.5001 806.705,-2025 796.705,-2021.5001 796.7051,-2028.5001"/>
</g>
<!-- 139748204661672 -->
<g id="node41" class="node">
<title>139748204661672</title>
<polygon fill="none" stroke="#000000" points="330.5,-2160 67.5,-2160 67.5,-2124 330.5,-2124 330.5,-2160"/>
<text text-anchor="middle" x="199" y="-2138.3" font-family="Times,serif" font-size="14.00" fill="#000000">TradeAction:TradeAction [overloaded_#001]</text>
</g>
<!-- 139748204659600 -->
<g id="node42" class="node">
<title>139748204659600</title>
<polygon fill="none" stroke="#000000" points="275,-2214 123,-2214 123,-2178 275,-2178 275,-2214"/>
<text text-anchor="middle" x="199" y="-2192.3" font-family="Times,serif" font-size="14.00" fill="#000000">TradeAction:createTrade</text>
</g>
<!-- 139748204662176 -->
<g id="node43" class="node">
<title>139748204662176</title>
<polygon fill="none" stroke="#000000" points="287,-2268 111,-2268 111,-2232 287,-2232 287,-2268"/>
<text text-anchor="middle" x="199" y="-2246.3" font-family="Times,serif" font-size="14.00" fill="#000000">TradeAction:getAccountData</text>
</g>
<!-- 139748204662680 -->
<g id="node44" class="node">
<title>139748204662680</title>
<polygon fill="none" stroke="#000000" points="288.5,-2322 109.5,-2322 109.5,-2286 288.5,-2286 288.5,-2322"/>
<text text-anchor="middle" x="199" y="-2300.3" font-family="Times,serif" font-size="14.00" fill="#000000">TradeAction:getClosedOrders</text>
</g>
<!-- 139748204659544 -->
<g id="node45" class="node">
<title>139748204659544</title>
<polygon fill="none" stroke="#000000" points="276.5,-2376 121.5,-2376 121.5,-2340 276.5,-2340 276.5,-2376"/>
<text text-anchor="middle" x="199" y="-2354.3" font-family="Times,serif" font-size="14.00" fill="#000000">TradeAction:getHoldings</text>
</g>
<!-- 139748204662568 -->
<g id="node46" class="node">
<title>139748204662568</title>
<polygon fill="none" stroke="#000000" points="257,-2430 141,-2430 141,-2394 257,-2394 257,-2430"/>
<text text-anchor="middle" x="199" y="-2408.3" font-family="Times,serif" font-size="14.00" fill="#000000">TradeAction:login</text>
</g>
<!-- 139748204662736 -->
<g id="node47" class="node">
<title>139748204662736</title>
<polygon fill="none" stroke="#000000" points="274,-2484 124,-2484 124,-2448 274,-2448 274,-2484"/>
<text text-anchor="middle" x="199" y="-2462.3" font-family="Times,serif" font-size="14.00" fill="#000000">TradeAppServlet:doPost</text>
</g>
<!-- 139748205052256 -->
<g id="node48" class="node">
<title>139748205052256</title>
<polygon fill="none" stroke="#000000" points="291,-2538 107,-2538 107,-2502 291,-2502 291,-2538"/>
<text text-anchor="middle" x="199" y="-2516.3" font-family="Times,serif" font-size="14.00" fill="#000000">TradeAppServlet:performTask</text>
</g>
<!-- 139748204659488 -->
<g id="node49" class="node">
<title>139748204659488</title>
<polygon fill="none" stroke="#000000" points="285.5,-2592 112.5,-2592 112.5,-2556 285.5,-2556 285.5,-2592"/>
<text text-anchor="middle" x="199" y="-2570.3" font-family="Times,serif" font-size="14.00" fill="#000000">TradeConfig:getActionTrace</text>
</g>
<!-- 139748204660944 -->
<g id="node50" class="node">
<title>139748204660944</title>
<polygon fill="none" stroke="#000000" points="305,-2646 93,-2646 93,-2610 305,-2610 305,-2646"/>
<text text-anchor="middle" x="199" y="-2624.3" font-family="Times,serif" font-size="14.00" fill="#000000">TradeConfig:getDisplayOrderAlerts</text>
</g>
<!-- 139748204661280 -->
<g id="node51" class="node">
<title>139748204661280</title>
<polygon fill="none" stroke="#000000" points="277.5,-2700 120.5,-2700 120.5,-2664 277.5,-2664 277.5,-2700"/>
<text text-anchor="middle" x="199" y="-2678.3" font-family="Times,serif" font-size="14.00" fill="#000000">TradeConfig:getLongRun</text>
</g>
<!-- 139748204659880 -->
<g id="node52" class="node">
<title>139748204659880</title>
<polygon fill="none" stroke="#000000" points="265,-2754 133,-2754 133,-2718 265,-2718 265,-2754"/>
<text text-anchor="middle" x="199" y="-2732.3" font-family="Times,serif" font-size="14.00" fill="#000000">TradeConfig:getPage</text>
</g>
<!-- 139748204660048 -->
<g id="node53" class="node">
<title>139748204660048</title>
<polygon fill="none" stroke="#000000" points="267.5,-2808 130.5,-2808 130.5,-2772 267.5,-2772 267.5,-2808"/>
<text text-anchor="middle" x="199" y="-2786.3" font-family="Times,serif" font-size="14.00" fill="#000000">TradeConfig:getTrace</text>
</g>
<!-- 139748204661448 -->
<g id="node54" class="node">
<title>139748204661448</title>
<polygon fill="none" stroke="#000000" points="309.5,-2862 88.5,-2862 88.5,-2826 309.5,-2826 309.5,-2862"/>
<text text-anchor="middle" x="199" y="-2840.3" font-family="Times,serif" font-size="14.00" fill="#000000">TradeConfig:useRemoteEJBInterface</text>
</g>
<!-- 139748204660832 -->
<g id="node55" class="node">
<title>139748204660832</title>
<polygon fill="none" stroke="#000000" points="299,-2916 99,-2916 99,-2880 299,-2880 299,-2916"/>
<text text-anchor="middle" x="199" y="-2894.3" font-family="Times,serif" font-size="14.00" fill="#000000">TradeSLSBBean:getAccountData</text>
</g>
<!-- 139748204661392 -->
<g id="node56" class="node">
<title>139748204661392</title>
<polygon fill="none" stroke="#000000" points="300.5,-2970 97.5,-2970 97.5,-2934 300.5,-2934 300.5,-2970"/>
<text text-anchor="middle" x="199" y="-2948.3" font-family="Times,serif" font-size="14.00" fill="#000000">TradeSLSBBean:getClosedOrders</text>
</g>
<!-- 139748204662624 -->
<g id="node57" class="node">
<title>139748204662624</title>
<polygon fill="none" stroke="#000000" points="288,-3024 110,-3024 110,-2988 288,-2988 288,-3024"/>
<text text-anchor="middle" x="199" y="-3002.3" font-family="Times,serif" font-size="14.00" fill="#000000">TradeSLSBBean:getHoldings</text>
</g>
<!-- 139748204660664 -->
<g id="node58" class="node">
<title>139748204660664</title>
<polygon fill="none" stroke="#000000" points="269,-3078 129,-3078 129,-3042 269,-3042 269,-3078"/>
<text text-anchor="middle" x="199" y="-3056.3" font-family="Times,serif" font-size="14.00" fill="#000000">TradeSLSBBean:login</text>
</g>
<!-- 139748204661000 -->
<g id="node59" class="node">
<title>139748204661000</title>
<polygon fill="none" stroke="#000000" points="292.5,-3132 105.5,-3132 105.5,-3096 292.5,-3096 292.5,-3132"/>
<text text-anchor="middle" x="199" y="-3110.3" font-family="Times,serif" font-size="14.00" fill="#000000">TradeSLSBBean:postConstruct</text>
</g>
<!-- 139748204660720 -->
<g id="node60" class="node">
<title>139748204660720</title>
<polygon fill="none" stroke="#000000" points="286,-3186 112,-3186 112,-3150 286,-3150 286,-3186"/>
<text text-anchor="middle" x="199" y="-3164.3" font-family="Times,serif" font-size="14.00" fill="#000000">TradeServletAction:doHome</text>
</g>
<!-- 139748204660328 -->
<g id="node61" class="node">
<title>139748204660328</title>
<polygon fill="none" stroke="#000000" points="285.5,-3240 112.5,-3240 112.5,-3204 285.5,-3204 285.5,-3240"/>
<text text-anchor="middle" x="199" y="-3218.3" font-family="Times,serif" font-size="14.00" fill="#000000">TradeServletAction:doLogin</text>
</g>
<!-- 139748204660776 -->
<g id="node62" class="node">
<title>139748204660776</title>
<polygon fill="none" stroke="#000000" points="306,-3294 92,-3294 92,-3258 306,-3258 306,-3294"/>
<text text-anchor="middle" x="199" y="-3272.3" font-family="Times,serif" font-size="14.00" fill="#000000">TradeServletAction:requestDispatch</text>
</g>
<!-- 139748205052032 -->
<g id="node63" class="node">
<title>139748205052032</title>
<polygon fill="none" stroke="#000000" points="270,-3348 128,-3348 128,-3312 270,-3312 270,-3348"/>
<text text-anchor="middle" x="199" y="-3326.3" font-family="Times,serif" font-size="14.00" fill="#000000">new AccountDataBean</text>
</g>
<!-- 139748204662288 -->
<g id="node64" class="node">
<title>139748204662288</title>
<polygon fill="none" stroke="#000000" points="288.5,-3402 109.5,-3402 109.5,-3366 288.5,-3366 288.5,-3402"/>
<text text-anchor="middle" x="199" y="-3380.3" font-family="Times,serif" font-size="14.00" fill="#000000">new AccountProfileDataBean</text>
</g>
<!-- 139748204660104 -->
<g id="node65" class="node">
<title>139748204660104</title>
<polygon fill="none" stroke="#000000" points="269,-3456 129,-3456 129,-3420 269,-3420 269,-3456"/>
<text text-anchor="middle" x="199" y="-3434.3" font-family="Times,serif" font-size="14.00" fill="#000000">new HoldingDataBean</text>
</g>
<!-- 139748204660888 -->
<g id="node66" class="node">
<title>139748204660888</title>
<polygon fill="none" stroke="#000000" points="263,-3510 135,-3510 135,-3474 263,-3474 263,-3510"/>
<text text-anchor="middle" x="199" y="-3488.3" font-family="Times,serif" font-size="14.00" fill="#000000">new OrderDataBean</text>
</g>
<!-- 139748204661840 -->
<g id="node67" class="node">
<title>139748204661840</title>
<polygon fill="none" stroke="#000000" points="263.5,-3564 134.5,-3564 134.5,-3528 263.5,-3528 263.5,-3564"/>
<text text-anchor="middle" x="199" y="-3542.3" font-family="Times,serif" font-size="14.00" fill="#000000">new QuoteDataBean</text>
</g>
<!-- 139748204659768 -->
<g id="node68" class="node">
<title>139748204659768</title>
<polygon fill="none" stroke="#000000" points="254.5,-3618 143.5,-3618 143.5,-3582 254.5,-3582 254.5,-3618"/>
<text text-anchor="middle" x="199" y="-3596.3" font-family="Times,serif" font-size="14.00" fill="#000000">new TradeAction</text>
</g>
<!-- 139748204661336 -->
<g id="node69" class="node">
<title>139748204661336</title>
<polygon fill="none" stroke="#000000" points="266,-3672 132,-3672 132,-3636 266,-3636 266,-3672"/>
<text text-anchor="middle" x="199" y="-3650.3" font-family="Times,serif" font-size="14.00" fill="#000000">new TradeSLSBBean</text>
</g>
<!-- 139748205052368 -->
<g id="node70" class="node">
<title>139748205052368</title>
<ellipse fill="#00ff00" stroke="#000000" cx="199" cy="-2025" rx="27" ry="27"/>
<text text-anchor="middle" x="199" y="-2021.3" font-family="Times,serif" font-size="14.00" fill="#000000">1</text>
</g>
<!-- 139748205052368&#45;&gt;139748204659992 -->
<g id="edge4" class="edge">
<title>139748205052368&#45;&gt;139748204659992</title>
<path fill="none" stroke="#000000" d="M226.0002,-2025C269.4409,-2025 356.7456,-2025 423.6224,-2025"/>
<polygon fill="#000000" stroke="#000000" points="423.7516,-2028.5001 433.7515,-2025 423.7515,-2021.5001 423.7516,-2028.5001"/>
</g>
<!-- 139748205052648&#45;&gt;139748204659824 -->
<g id="edge1" class="edge">
<title>139748205052648&#45;&gt;139748204659824</title>
<path fill="none" stroke="#000000" d="M681.003,-2025C689.0277,-2025 697.9665,-2025 706.5309,-2025"/>
<polygon fill="#000000" stroke="#000000" points="706.7051,-2028.5001 716.705,-2025 706.705,-2021.5001 706.7051,-2028.5001"/>
</g>
</g>
</svg>
