<?xml version="1.0" encoding="UTF-8" standalone="no"?>
<!DOCTYPE svg PUBLIC "-//W3C//DTD SVG 1.1//EN"
 "http://www.w3.org/Graphics/SVG/1.1/DTD/svg11.dtd">
<!-- Generated by graphviz version 2.40.1 (20161225.0304)
 -->
<!-- Title: alpha_classic_net_1585281870.2625473 Pages: 1 -->
<svg width="699pt" height="2978pt"
 viewBox="0.00 0.00 699.00 2978.00" xmlns="http://www.w3.org/2000/svg" xmlns:xlink="http://www.w3.org/1999/xlink">
<g id="graph0" class="graph" transform="scale(1 1) rotate(0) translate(4 2974)">
<title>alpha_classic_net_1585281870.2625473</title>
<!-- 140543357301312 -->
<g id="node1" class="node">
<title>140543357301312</title>
<polygon fill="none" stroke="#000000" points="212,-36 16,-36 16,0 212,0 212,-36"/>
<text text-anchor="middle" x="114" y="-14.3" font-family="Times,serif" font-size="14.00" fill="#000000">AccountDataBean:getAccountID</text>
</g>
<!-- 140543357303328 -->
<g id="node2" class="node">
<title>140543357303328</title>
<polygon fill="none" stroke="#000000" points="203.5,-90 24.5,-90 24.5,-54 203.5,-54 203.5,-90"/>
<text text-anchor="middle" x="114" y="-68.3" font-family="Times,serif" font-size="14.00" fill="#000000">AccountDataBean:getBalance</text>
</g>
<!-- 140543357301816 -->
<g id="node3" class="node">
<title>140543357301816</title>
<polygon fill="none" stroke="#000000" points="218,-144 10,-144 10,-108 218,-108 218,-144"/>
<text text-anchor="middle" x="114" y="-122.3" font-family="Times,serif" font-size="14.00" fill="#000000">AccountDataBean:getCreationDate</text>
</g>
<!-- 140543357302376 -->
<g id="node4" class="node">
<title>140543357302376</title>
<polygon fill="none" stroke="#000000" points="214.5,-198 13.5,-198 13.5,-162 214.5,-162 214.5,-198"/>
<text text-anchor="middle" x="114" y="-176.3" font-family="Times,serif" font-size="14.00" fill="#000000">AccountDataBean:getLoginCount</text>
</g>
<!-- 140543357302880 -->
<g id="node5" class="node">
<title>140543357302880</title>
<polygon fill="none" stroke="#000000" points="218.5,-252 9.5,-252 9.5,-216 218.5,-216 218.5,-252"/>
<text text-anchor="middle" x="114" y="-230.3" font-family="Times,serif" font-size="14.00" fill="#000000">AccountDataBean:getOpenBalance</text>
</g>
<!-- 140543357303776 -->
<g id="node6" class="node">
<title>140543357303776</title>
<polygon fill="none" stroke="#000000" points="207.5,-306 20.5,-306 20.5,-270 207.5,-270 207.5,-306"/>
<text text-anchor="middle" x="114" y="-284.3" font-family="Times,serif" font-size="14.00" fill="#000000">AccountDataBean:getProfileID</text>
</g>
<!-- 140543357302432 -->
<g id="node7" class="node">
<title>140543357302432</title>
<polygon fill="none" stroke="#000000" points="200.5,-360 27.5,-360 27.5,-324 200.5,-324 200.5,-360"/>
<text text-anchor="middle" x="114" y="-338.3" font-family="Times,serif" font-size="14.00" fill="#000000">AccountDataBean:hashCode</text>
</g>
<!-- 140543357303216 -->
<g id="node8" class="node">
<title>140543357303216</title>
<polygon fill="none" stroke="#000000" points="187.5,-414 40.5,-414 40.5,-378 187.5,-378 187.5,-414"/>
<text text-anchor="middle" x="114" y="-392.3" font-family="Times,serif" font-size="14.00" fill="#000000">AccountDataBean:login</text>
</g>
<!-- 140543357103968 -->
<g id="node9" class="node">
<title>140543357103968</title>
<polygon fill="none" stroke="#000000" points="206.5,-468 21.5,-468 21.5,-432 206.5,-432 206.5,-468"/>
<text text-anchor="middle" x="114" y="-446.3" font-family="Times,serif" font-size="14.00" fill="#000000">AccountDataBean:setProfileID</text>
</g>
<!-- 140543357303888 -->
<g id="node10" class="node">
<title>140543357303888</title>
<polygon fill="none" stroke="#000000" points="223,-522 5,-522 5,-486 223,-486 223,-522"/>
<text text-anchor="middle" x="114" y="-500.3" font-family="Times,serif" font-size="14.00" fill="#000000">AccountProfileDataBean:getAccount</text>
</g>
<!-- 140543357303104 -->
<g id="node11" class="node">
<title>140543357303104</title>
<polygon fill="none" stroke="#000000" points="226,-576 2,-576 2,-540 226,-540 226,-576"/>
<text text-anchor="middle" x="114" y="-554.3" font-family="Times,serif" font-size="14.00" fill="#000000">AccountProfileDataBean:getPassword</text>
</g>
<!-- 140543357304000 -->
<g id="node12" class="node">
<title>140543357304000</title>
<polygon fill="none" stroke="#000000" points="220,-630 8,-630 8,-594 220,-594 220,-630"/>
<text text-anchor="middle" x="114" y="-608.3" font-family="Times,serif" font-size="14.00" fill="#000000">AccountProfileDataBean:getUserID</text>
</g>
<!-- 140543357303272 -->
<g id="node13" class="node">
<title>140543357303272</title>
<polygon fill="none" stroke="#000000" points="199,-684 29,-684 29,-648 199,-648 199,-684"/>
<text text-anchor="middle" x="114" y="-662.3" font-family="Times,serif" font-size="14.00" fill="#000000">FinancialUtils:computeGain</text>
</g>
<!-- 140543357301424 -->
<g id="node14" class="node">
<title>140543357301424</title>
<polygon fill="none" stroke="#000000" points="219.5,-738 8.5,-738 8.5,-702 219.5,-702 219.5,-738"/>
<text text-anchor="middle" x="114" y="-716.3" font-family="Times,serif" font-size="14.00" fill="#000000">FinancialUtils:computeGainPercent</text>
</g>
<!-- 140543357302488 -->
<g id="node15" class="node">
<title>140543357302488</title>
<polygon fill="none" stroke="#000000" points="225,-792 3,-792 3,-756 225,-756 225,-792"/>
<text text-anchor="middle" x="114" y="-770.3" font-family="Times,serif" font-size="14.00" fill="#000000">FinancialUtils:computeHoldingsTotal</text>
</g>
<!-- 140543357301368 -->
<g id="node16" class="node">
<title>140543357301368</title>
<polygon fill="none" stroke="#000000" points="208,-846 20,-846 20,-810 208,-810 208,-846"/>
<text text-anchor="middle" x="114" y="-824.3" font-family="Times,serif" font-size="14.00" fill="#000000">FinancialUtils:printGainHTML</text>
</g>
<!-- 140543357301144 -->
<g id="node17" class="node">
<title>140543357301144</title>
<polygon fill="none" stroke="#000000" points="228,-900 0,-900 0,-864 228,-864 228,-900"/>
<text text-anchor="middle" x="114" y="-878.3" font-family="Times,serif" font-size="14.00" fill="#000000">FinancialUtils:printGainPercentHTML</text>
</g>
<!-- 140543357301536 -->
<g id="node18" class="node">
<title>140543357301536</title>
<polygon fill="none" stroke="#000000" points="204.5,-954 23.5,-954 23.5,-918 204.5,-918 204.5,-954"/>
<text text-anchor="middle" x="114" y="-932.3" font-family="Times,serif" font-size="14.00" fill="#000000">FinancialUtils:printQuoteLink</text>
</g>
<!-- 140543357303608 -->
<g id="node19" class="node">
<title>140543357303608</title>
<polygon fill="none" stroke="#000000" points="219.5,-1008 8.5,-1008 8.5,-972 219.5,-972 219.5,-1008"/>
<text text-anchor="middle" x="114" y="-986.3" font-family="Times,serif" font-size="14.00" fill="#000000">HoldingDataBean:getPurchasePrice</text>
</g>
<!-- 140543318223280 -->
<g id="node20" class="node">
<title>140543318223280</title>
<polygon fill="none" stroke="#000000" points="205,-1062 23,-1062 23,-1026 205,-1026 205,-1062"/>
<text text-anchor="middle" x="114" y="-1040.3" font-family="Times,serif" font-size="14.00" fill="#000000">HoldingDataBean:getQuantity</text>
</g>
<!-- 140543357301480 -->
<g id="node21" class="node">
<title>140543357301480</title>
<polygon fill="none" stroke="#000000" points="175.5,-1116 52.5,-1116 52.5,-1080 175.5,-1080 175.5,-1116"/>
<text text-anchor="middle" x="114" y="-1094.3" font-family="Times,serif" font-size="14.00" fill="#000000">Log:doActionTrace</text>
</g>
<!-- 140543357300976 -->
<g id="node22" class="node">
<title>140543357300976</title>
<polygon fill="none" stroke="#000000" points="157,-1170 71,-1170 71,-1134 157,-1134 157,-1170"/>
<text text-anchor="middle" x="114" y="-1148.3" font-family="Times,serif" font-size="14.00" fill="#000000">Log:doTrace</text>
</g>
<!-- 140543357303440 -->
<g id="node23" class="node">
<title>140543357303440</title>
<polygon fill="none" stroke="#000000" points="220,-1224 8,-1224 8,-1188 220,-1188 220,-1224"/>
<text text-anchor="middle" x="114" y="-1202.3" font-family="Times,serif" font-size="14.00" fill="#000000">OrderDataBean:getCompletionDate</text>
</g>
<!-- 140543357302208 -->
<g id="node24" class="node">
<title>140543357302208</title>
<polygon fill="none" stroke="#000000" points="202,-1278 26,-1278 26,-1242 202,-1242 202,-1278"/>
<text text-anchor="middle" x="114" y="-1256.3" font-family="Times,serif" font-size="14.00" fill="#000000">OrderDataBean:getOpenDate</text>
</g>
<!-- 140543357303496 -->
<g id="node25" class="node">
<title>140543357303496</title>
<polygon fill="none" stroke="#000000" points="200.5,-1332 27.5,-1332 27.5,-1296 200.5,-1296 200.5,-1332"/>
<text text-anchor="middle" x="114" y="-1310.3" font-family="Times,serif" font-size="14.00" fill="#000000">OrderDataBean:getOrderFee</text>
</g>
<!-- 140543357303664 -->
<g id="node26" class="node">
<title>140543357303664</title>
<polygon fill="none" stroke="#000000" points="197.5,-1386 30.5,-1386 30.5,-1350 197.5,-1350 197.5,-1386"/>
<text text-anchor="middle" x="114" y="-1364.3" font-family="Times,serif" font-size="14.00" fill="#000000">OrderDataBean:getOrderID</text>
</g>
<!-- 140543357302992 -->
<g id="node27" class="node">
<title>140543357302992</title>
<polygon fill="none" stroke="#000000" points="207,-1440 21,-1440 21,-1404 207,-1404 207,-1440"/>
<text text-anchor="middle" x="114" y="-1418.3" font-family="Times,serif" font-size="14.00" fill="#000000">OrderDataBean:getOrderStatus</text>
</g>
<!-- 140543318223504 -->
<g id="node28" class="node">
<title>140543318223504</title>
<polygon fill="none" stroke="#000000" points="204.5,-1494 23.5,-1494 23.5,-1458 204.5,-1458 204.5,-1494"/>
<text text-anchor="middle" x="114" y="-1472.3" font-family="Times,serif" font-size="14.00" fill="#000000">OrderDataBean:getOrderType</text>
</g>
<!-- 140543357302768 -->
<g id="node29" class="node">
<title>140543357302768</title>
<polygon fill="none" stroke="#000000" points="198.5,-1548 29.5,-1548 29.5,-1512 198.5,-1512 198.5,-1548"/>
<text text-anchor="middle" x="114" y="-1526.3" font-family="Times,serif" font-size="14.00" fill="#000000">OrderDataBean:getQuantity</text>
</g>
<!-- 140543357301872 -->
<g id="node30" class="node">
<title>140543357301872</title>
<polygon fill="none" stroke="#000000" points="196,-1602 32,-1602 32,-1566 196,-1566 196,-1602"/>
<text text-anchor="middle" x="114" y="-1580.3" font-family="Times,serif" font-size="14.00" fill="#000000">OrderDataBean:getSymbol</text>
</g>
<!-- 140543357304616 -->
<g id="node31" class="node">
<title>140543357304616</title>
<polygon fill="none" stroke="#000000" points="421,-1665 264,-1665 264,-1629 421,-1629 421,-1665"/>
<text text-anchor="middle" x="342.5" y="-1643.3" font-family="Times,serif" font-size="14.00" fill="#000000">OrdersAlertFilter:doFilter</text>
</g>
<!-- 140543357301200 -->
<g id="node58" class="node">
<title>140543357301200</title>
<ellipse fill="none" stroke="#000000" cx="484" cy="-1647" rx="27" ry="27"/>
<text text-anchor="middle" x="484" y="-1643.3" font-family="Times,serif" font-size="14.00" fill="#000000">({&#39;OrdersAlertFilter:doFilter&#39;}, {&#39;Root&#39;})</text>
</g>
<!-- 140543357304616&#45;&gt;140543357301200 -->
<g id="edge2" class="edge">
<title>140543357304616&#45;&gt;140543357301200</title>
<path fill="none" stroke="#000000" d="M421.112,-1647C430.0464,-1647 438.8115,-1647 446.8279,-1647"/>
<polygon fill="#000000" stroke="#000000" points="446.8861,-1650.5001 456.8861,-1647 446.8861,-1643.5001 446.8861,-1650.5001"/>
</g>
<!-- 140543357302824 -->
<g id="node32" class="node">
<title>140543357302824</title>
<polygon fill="none" stroke="#000000" points="197,-1728 31,-1728 31,-1692 197,-1692 197,-1728"/>
<text text-anchor="middle" x="114" y="-1706.3" font-family="Times,serif" font-size="14.00" fill="#000000">QuoteDataBean:getSymbol</text>
</g>
<!-- 140543357302544 -->
<g id="node33" class="node">
<title>140543357302544</title>
<polygon fill="none" stroke="#000000" points="601,-1665 547,-1665 547,-1629 601,-1629 601,-1665"/>
<text text-anchor="middle" x="574" y="-1643.3" font-family="Times,serif" font-size="14.00" fill="#000000">Root</text>
</g>
<!-- 140543357304112 -->
<g id="node59" class="node">
<title>140543357304112</title>
<ellipse fill="#ffa500" stroke="#000000" cx="664" cy="-1647" rx="27" ry="27"/>
</g>
<!-- 140543357302544&#45;&gt;140543357304112 -->
<g id="edge3" class="edge">
<title>140543357302544&#45;&gt;140543357304112</title>
<path fill="none" stroke="#000000" d="M601.003,-1647C609.0277,-1647 617.9665,-1647 626.5309,-1647"/>
<polygon fill="#000000" stroke="#000000" points="626.7051,-1650.5001 636.705,-1647 626.705,-1643.5001 626.7051,-1650.5001"/>
</g>
<!-- 140543357302264 -->
<g id="node34" class="node">
<title>140543357302264</title>
<polygon fill="none" stroke="#000000" points="202,-1782 26,-1782 26,-1746 202,-1746 202,-1782"/>
<text text-anchor="middle" x="114" y="-1760.3" font-family="Times,serif" font-size="14.00" fill="#000000">TradeAction:getAccountData</text>
</g>
<!-- 140543357301032 -->
<g id="node35" class="node">
<title>140543357301032</title>
<polygon fill="none" stroke="#000000" points="203.5,-1836 24.5,-1836 24.5,-1800 203.5,-1800 203.5,-1836"/>
<text text-anchor="middle" x="114" y="-1814.3" font-family="Times,serif" font-size="14.00" fill="#000000">TradeAction:getClosedOrders</text>
</g>
<!-- 140543357303384 -->
<g id="node36" class="node">
<title>140543357303384</title>
<polygon fill="none" stroke="#000000" points="191.5,-1890 36.5,-1890 36.5,-1854 191.5,-1854 191.5,-1890"/>
<text text-anchor="middle" x="114" y="-1868.3" font-family="Times,serif" font-size="14.00" fill="#000000">TradeAction:getHoldings</text>
</g>
<!-- 140543357304672 -->
<g id="node37" class="node">
<title>140543357304672</title>
<polygon fill="none" stroke="#000000" points="172,-1944 56,-1944 56,-1908 172,-1908 172,-1944"/>
<text text-anchor="middle" x="114" y="-1922.3" font-family="Times,serif" font-size="14.00" fill="#000000">TradeAction:login</text>
</g>
<!-- 140543357302712 -->
<g id="node38" class="node">
<title>140543357302712</title>
<polygon fill="none" stroke="#000000" points="206,-1998 22,-1998 22,-1962 206,-1962 206,-1998"/>
<text text-anchor="middle" x="114" y="-1976.3" font-family="Times,serif" font-size="14.00" fill="#000000">TradeAppServlet:performTask</text>
</g>
<!-- 140543357302656 -->
<g id="node39" class="node">
<title>140543357302656</title>
<polygon fill="none" stroke="#000000" points="200.5,-2052 27.5,-2052 27.5,-2016 200.5,-2016 200.5,-2052"/>
<text text-anchor="middle" x="114" y="-2030.3" font-family="Times,serif" font-size="14.00" fill="#000000">TradeConfig:getActionTrace</text>
</g>
<!-- 140543357302096 -->
<g id="node40" class="node">
<title>140543357302096</title>
<polygon fill="none" stroke="#000000" points="220,-2106 8,-2106 8,-2070 220,-2070 220,-2106"/>
<text text-anchor="middle" x="114" y="-2084.3" font-family="Times,serif" font-size="14.00" fill="#000000">TradeConfig:getDisplayOrderAlerts</text>
</g>
<!-- 140543357302320 -->
<g id="node41" class="node">
<title>140543357302320</title>
<polygon fill="none" stroke="#000000" points="192.5,-2160 35.5,-2160 35.5,-2124 192.5,-2124 192.5,-2160"/>
<text text-anchor="middle" x="114" y="-2138.3" font-family="Times,serif" font-size="14.00" fill="#000000">TradeConfig:getLongRun</text>
</g>
<!-- 140543357303048 -->
<g id="node42" class="node">
<title>140543357303048</title>
<polygon fill="none" stroke="#000000" points="180,-2214 48,-2214 48,-2178 180,-2178 180,-2214"/>
<text text-anchor="middle" x="114" y="-2192.3" font-family="Times,serif" font-size="14.00" fill="#000000">TradeConfig:getPage</text>
</g>
<!-- 140543357303832 -->
<g id="node43" class="node">
<title>140543357303832</title>
<polygon fill="none" stroke="#000000" points="182.5,-2268 45.5,-2268 45.5,-2232 182.5,-2232 182.5,-2268"/>
<text text-anchor="middle" x="114" y="-2246.3" font-family="Times,serif" font-size="14.00" fill="#000000">TradeConfig:getTrace</text>
</g>
<!-- 140543357304784 -->
<g id="node44" class="node">
<title>140543357304784</title>
<polygon fill="none" stroke="#000000" points="224.5,-2322 3.5,-2322 3.5,-2286 224.5,-2286 224.5,-2322"/>
<text text-anchor="middle" x="114" y="-2300.3" font-family="Times,serif" font-size="14.00" fill="#000000">TradeConfig:useRemoteEJBInterface</text>
</g>
<!-- 140543357103912 -->
<g id="node45" class="node">
<title>140543357103912</title>
<polygon fill="none" stroke="#000000" points="214,-2376 14,-2376 14,-2340 214,-2340 214,-2376"/>
<text text-anchor="middle" x="114" y="-2354.3" font-family="Times,serif" font-size="14.00" fill="#000000">TradeSLSBBean:getAccountData</text>
</g>
<!-- 140543357304728 -->
<g id="node46" class="node">
<title>140543357304728</title>
<polygon fill="none" stroke="#000000" points="215.5,-2430 12.5,-2430 12.5,-2394 215.5,-2394 215.5,-2430"/>
<text text-anchor="middle" x="114" y="-2408.3" font-family="Times,serif" font-size="14.00" fill="#000000">TradeSLSBBean:getClosedOrders</text>
</g>
<!-- 140543357301760 -->
<g id="node47" class="node">
<title>140543357301760</title>
<polygon fill="none" stroke="#000000" points="203,-2484 25,-2484 25,-2448 203,-2448 203,-2484"/>
<text text-anchor="middle" x="114" y="-2462.3" font-family="Times,serif" font-size="14.00" fill="#000000">TradeSLSBBean:getHoldings</text>
</g>
<!-- 140543357301592 -->
<g id="node48" class="node">
<title>140543357301592</title>
<polygon fill="none" stroke="#000000" points="184,-2538 44,-2538 44,-2502 184,-2502 184,-2538"/>
<text text-anchor="middle" x="114" y="-2516.3" font-family="Times,serif" font-size="14.00" fill="#000000">TradeSLSBBean:login</text>
</g>
<!-- 140543357302936 -->
<g id="node49" class="node">
<title>140543357302936</title>
<polygon fill="none" stroke="#000000" points="207.5,-2592 20.5,-2592 20.5,-2556 207.5,-2556 207.5,-2592"/>
<text text-anchor="middle" x="114" y="-2570.3" font-family="Times,serif" font-size="14.00" fill="#000000">TradeSLSBBean:postConstruct</text>
</g>
<!-- 140543357302600 -->
<g id="node50" class="node">
<title>140543357302600</title>
<polygon fill="none" stroke="#000000" points="185,-2646 43,-2646 43,-2610 185,-2610 185,-2646"/>
<text text-anchor="middle" x="114" y="-2624.3" font-family="Times,serif" font-size="14.00" fill="#000000">new AccountDataBean</text>
</g>
<!-- 140543357301256 -->
<g id="node51" class="node">
<title>140543357301256</title>
<polygon fill="none" stroke="#000000" points="203.5,-2700 24.5,-2700 24.5,-2664 203.5,-2664 203.5,-2700"/>
<text text-anchor="middle" x="114" y="-2678.3" font-family="Times,serif" font-size="14.00" fill="#000000">new AccountProfileDataBean</text>
</g>
<!-- 140543357302152 -->
<g id="node52" class="node">
<title>140543357302152</title>
<polygon fill="none" stroke="#000000" points="184,-2754 44,-2754 44,-2718 184,-2718 184,-2754"/>
<text text-anchor="middle" x="114" y="-2732.3" font-family="Times,serif" font-size="14.00" fill="#000000">new HoldingDataBean</text>
</g>
<!-- 140543357302040 -->
<g id="node53" class="node">
<title>140543357302040</title>
<polygon fill="none" stroke="#000000" points="178,-2808 50,-2808 50,-2772 178,-2772 178,-2808"/>
<text text-anchor="middle" x="114" y="-2786.3" font-family="Times,serif" font-size="14.00" fill="#000000">new OrderDataBean</text>
</g>
<!-- 140543357301984 -->
<g id="node54" class="node">
<title>140543357301984</title>
<polygon fill="none" stroke="#000000" points="178.5,-2862 49.5,-2862 49.5,-2826 178.5,-2826 178.5,-2862"/>
<text text-anchor="middle" x="114" y="-2840.3" font-family="Times,serif" font-size="14.00" fill="#000000">new QuoteDataBean</text>
</g>
<!-- 140543357303552 -->
<g id="node55" class="node">
<title>140543357303552</title>
<polygon fill="none" stroke="#000000" points="169.5,-2916 58.5,-2916 58.5,-2880 169.5,-2880 169.5,-2916"/>
<text text-anchor="middle" x="114" y="-2894.3" font-family="Times,serif" font-size="14.00" fill="#000000">new TradeAction</text>
</g>
<!-- 140543357303160 -->
<g id="node56" class="node">
<title>140543357303160</title>
<polygon fill="none" stroke="#000000" points="181,-2970 47,-2970 47,-2934 181,-2934 181,-2970"/>
<text text-anchor="middle" x="114" y="-2948.3" font-family="Times,serif" font-size="14.00" fill="#000000">new TradeSLSBBean</text>
</g>
<!-- 140543357303720 -->
<g id="node57" class="node">
<title>140543357303720</title>
<ellipse fill="#00ff00" stroke="#000000" cx="114" cy="-1647" rx="27" ry="27"/>
<text text-anchor="middle" x="114" y="-1643.3" font-family="Times,serif" font-size="14.00" fill="#000000">1</text>
</g>
<!-- 140543357303720&#45;&gt;140543357304616 -->
<g id="edge4" class="edge">
<title>140543357303720&#45;&gt;140543357304616</title>
<path fill="none" stroke="#000000" d="M141.1093,-1647C168.8451,-1647 213.45,-1647 253.6399,-1647"/>
<polygon fill="#000000" stroke="#000000" points="253.7496,-1650.5001 263.7496,-1647 253.7495,-1643.5001 253.7496,-1650.5001"/>
</g>
<!-- 140543357301200&#45;&gt;140543357302544 -->
<g id="edge1" class="edge">
<title>140543357301200&#45;&gt;140543357302544</title>
<path fill="none" stroke="#000000" d="M511.003,-1647C519.0277,-1647 527.9665,-1647 536.5309,-1647"/>
<polygon fill="#000000" stroke="#000000" points="536.7051,-1650.5001 546.705,-1647 536.705,-1643.5001 536.7051,-1650.5001"/>
</g>
</g>
</svg>
