<?xml version="1.0" encoding="UTF-8" standalone="no"?>
<!DOCTYPE svg PUBLIC "-//W3C//DTD SVG 1.1//EN"
 "http://www.w3.org/Graphics/SVG/1.1/DTD/svg11.dtd">
<!-- Generated by graphviz version 2.40.1 (20161225.0304)
 -->
<!-- Title: alpha_plus_net_1585321016.2385755 Pages: 1 -->
<svg width="1018pt" height="3572pt"
 viewBox="0.00 0.00 1018.00 3572.00" xmlns="http://www.w3.org/2000/svg" xmlns:xlink="http://www.w3.org/1999/xlink">
<g id="graph0" class="graph" transform="scale(1 1) rotate(0) translate(4 3568)">
<title>alpha_plus_net_1585321016.2385755</title>
<!-- 140531500011360 -->
<g id="node1" class="node">
<title>140531500011360</title>
<polygon fill="none" stroke="#000000" points="361.5,-36 36.5,-36 36.5,0 361.5,0 361.5,-36"/>
<text text-anchor="middle" x="199" y="-14.3" font-family="Times,serif" font-size="14.00" fill="#000000">AccountDataBean:AccountDataBean [overloaded_#001]</text>
</g>
<!-- 140531500010128 -->
<g id="node2" class="node">
<title>140531500010128</title>
<polygon fill="none" stroke="#000000" points="297,-90 101,-90 101,-54 297,-54 297,-90"/>
<text text-anchor="middle" x="199" y="-68.3" font-family="Times,serif" font-size="14.00" fill="#000000">AccountDataBean:getAccountID</text>
</g>
<!-- 140531500009960 -->
<g id="node3" class="node">
<title>140531500009960</title>
<polygon fill="none" stroke="#000000" points="288.5,-144 109.5,-144 109.5,-108 288.5,-108 288.5,-144"/>
<text text-anchor="middle" x="199" y="-122.3" font-family="Times,serif" font-size="14.00" fill="#000000">AccountDataBean:getBalance</text>
</g>
<!-- 140531500010576 -->
<g id="node4" class="node">
<title>140531500010576</title>
<polygon fill="none" stroke="#000000" points="303,-198 95,-198 95,-162 303,-162 303,-198"/>
<text text-anchor="middle" x="199" y="-176.3" font-family="Times,serif" font-size="14.00" fill="#000000">AccountDataBean:getCreationDate</text>
</g>
<!-- 140531499582296 -->
<g id="node5" class="node">
<title>140531499582296</title>
<polygon fill="none" stroke="#000000" points="299.5,-252 98.5,-252 98.5,-216 299.5,-216 299.5,-252"/>
<text text-anchor="middle" x="199" y="-230.3" font-family="Times,serif" font-size="14.00" fill="#000000">AccountDataBean:getLoginCount</text>
</g>
<!-- 140531501378024 -->
<g id="node6" class="node">
<title>140531501378024</title>
<polygon fill="none" stroke="#000000" points="303.5,-306 94.5,-306 94.5,-270 303.5,-270 303.5,-306"/>
<text text-anchor="middle" x="199" y="-284.3" font-family="Times,serif" font-size="14.00" fill="#000000">AccountDataBean:getOpenBalance</text>
</g>
<!-- 140531500011416 -->
<g id="node7" class="node">
<title>140531500011416</title>
<polygon fill="none" stroke="#000000" points="285.5,-360 112.5,-360 112.5,-324 285.5,-324 285.5,-360"/>
<text text-anchor="middle" x="199" y="-338.3" font-family="Times,serif" font-size="14.00" fill="#000000">AccountDataBean:getProfile</text>
</g>
<!-- 140531499581568 -->
<g id="node8" class="node">
<title>140531499581568</title>
<polygon fill="none" stroke="#000000" points="292.5,-414 105.5,-414 105.5,-378 292.5,-378 292.5,-414"/>
<text text-anchor="middle" x="199" y="-392.3" font-family="Times,serif" font-size="14.00" fill="#000000">AccountDataBean:getProfileID</text>
</g>
<!-- 140531499582128 -->
<g id="node9" class="node">
<title>140531499582128</title>
<polygon fill="none" stroke="#000000" points="285.5,-468 112.5,-468 112.5,-432 285.5,-432 285.5,-468"/>
<text text-anchor="middle" x="199" y="-446.3" font-family="Times,serif" font-size="14.00" fill="#000000">AccountDataBean:hashCode</text>
</g>
<!-- 140531499583920 -->
<g id="node71" class="node">
<title>140531499583920</title>
<ellipse fill="none" stroke="#000000" cx="512.5" cy="-477" rx="27" ry="27"/>
<text text-anchor="middle" x="512.5" y="-473.3" font-family="Times,serif" font-size="14.00" fill="#000000">({&#39;AccountDataBean:hashCode&#39;}, {&#39;TradeAction:login&#39;})</text>
</g>
<!-- 140531499582128&#45;&gt;140531499583920 -->
<g id="edge7" class="edge">
<title>140531499582128&#45;&gt;140531499583920</title>
<path fill="none" stroke="#000000" d="M285.9109,-457.4851C348.1128,-462.8423 428.7577,-469.7877 475.1574,-473.7839"/>
<polygon fill="#000000" stroke="#000000" points="475.0886,-477.2908 485.352,-474.6619 475.6893,-470.3166 475.0886,-477.2908"/>
</g>
<!-- 140531500011080 -->
<g id="node10" class="node">
<title>140531500011080</title>
<polygon fill="none" stroke="#000000" points="272.5,-522 125.5,-522 125.5,-486 272.5,-486 272.5,-522"/>
<text text-anchor="middle" x="199" y="-500.3" font-family="Times,serif" font-size="14.00" fill="#000000">AccountDataBean:login</text>
</g>
<!-- 140531499582632 -->
<g id="node11" class="node">
<title>140531499582632</title>
<polygon fill="none" stroke="#000000" points="294,-576 104,-576 104,-540 294,-540 294,-576"/>
<text text-anchor="middle" x="199" y="-554.3" font-family="Times,serif" font-size="14.00" fill="#000000">AccountDataBean:setLastLogin</text>
</g>
<!-- 140531499581680 -->
<g id="node12" class="node">
<title>140531499581680</title>
<polygon fill="none" stroke="#000000" points="299,-630 99,-630 99,-594 299,-594 299,-630"/>
<text text-anchor="middle" x="199" y="-608.3" font-family="Times,serif" font-size="14.00" fill="#000000">AccountDataBean:setLoginCount</text>
</g>
<!-- 140531501378416 -->
<g id="node13" class="node">
<title>140531501378416</title>
<polygon fill="none" stroke="#000000" points="291.5,-684 106.5,-684 106.5,-648 291.5,-648 291.5,-684"/>
<text text-anchor="middle" x="199" y="-662.3" font-family="Times,serif" font-size="14.00" fill="#000000">AccountDataBean:setProfileID</text>
</g>
<!-- 140531500009904 -->
<g id="node14" class="node">
<title>140531500009904</title>
<polygon fill="none" stroke="#000000" points="398,-738 0,-738 0,-702 398,-702 398,-738"/>
<text text-anchor="middle" x="199" y="-716.3" font-family="Times,serif" font-size="14.00" fill="#000000">AccountProfileDataBean:AccountProfileDataBean [overloaded_#001]</text>
</g>
<!-- 140531499582744 -->
<g id="node15" class="node">
<title>140531499582744</title>
<polygon fill="none" stroke="#000000" points="308,-792 90,-792 90,-756 308,-756 308,-792"/>
<text text-anchor="middle" x="199" y="-770.3" font-family="Times,serif" font-size="14.00" fill="#000000">AccountProfileDataBean:getAccount</text>
</g>
<!-- 140531500009568 -->
<g id="node16" class="node">
<title>140531500009568</title>
<polygon fill="none" stroke="#000000" points="311,-846 87,-846 87,-810 311,-810 311,-846"/>
<text text-anchor="middle" x="199" y="-824.3" font-family="Times,serif" font-size="14.00" fill="#000000">AccountProfileDataBean:getPassword</text>
</g>
<!-- 140531500010520 -->
<g id="node17" class="node">
<title>140531500010520</title>
<polygon fill="none" stroke="#000000" points="305,-900 93,-900 93,-864 305,-864 305,-900"/>
<text text-anchor="middle" x="199" y="-878.3" font-family="Times,serif" font-size="14.00" fill="#000000">AccountProfileDataBean:getUserID</text>
</g>
<!-- 140531500011304 -->
<g id="node18" class="node">
<title>140531500011304</title>
<polygon fill="none" stroke="#000000" points="284,-954 114,-954 114,-918 284,-918 284,-954"/>
<text text-anchor="middle" x="199" y="-932.3" font-family="Times,serif" font-size="14.00" fill="#000000">FinancialUtils:computeGain</text>
</g>
<!-- 140531499581792 -->
<g id="node19" class="node">
<title>140531499581792</title>
<polygon fill="none" stroke="#000000" points="304.5,-1008 93.5,-1008 93.5,-972 304.5,-972 304.5,-1008"/>
<text text-anchor="middle" x="199" y="-986.3" font-family="Times,serif" font-size="14.00" fill="#000000">FinancialUtils:computeGainPercent</text>
</g>
<!-- 140531501378360 -->
<g id="node20" class="node">
<title>140531501378360</title>
<polygon fill="none" stroke="#000000" points="310,-1062 88,-1062 88,-1026 310,-1026 310,-1062"/>
<text text-anchor="middle" x="199" y="-1040.3" font-family="Times,serif" font-size="14.00" fill="#000000">FinancialUtils:computeHoldingsTotal</text>
</g>
<!-- 140531500009848 -->
<g id="node21" class="node">
<title>140531500009848</title>
<polygon fill="none" stroke="#000000" points="293,-1116 105,-1116 105,-1080 293,-1080 293,-1116"/>
<text text-anchor="middle" x="199" y="-1094.3" font-family="Times,serif" font-size="14.00" fill="#000000">FinancialUtils:printGainHTML</text>
</g>
<!-- 140531501377968 -->
<g id="node22" class="node">
<title>140531501377968</title>
<polygon fill="none" stroke="#000000" points="313,-1170 85,-1170 85,-1134 313,-1134 313,-1170"/>
<text text-anchor="middle" x="199" y="-1148.3" font-family="Times,serif" font-size="14.00" fill="#000000">FinancialUtils:printGainPercentHTML</text>
</g>
<!-- 140531500011472 -->
<g id="node23" class="node">
<title>140531500011472</title>
<polygon fill="none" stroke="#000000" points="289.5,-1224 108.5,-1224 108.5,-1188 289.5,-1188 289.5,-1224"/>
<text text-anchor="middle" x="199" y="-1202.3" font-family="Times,serif" font-size="14.00" fill="#000000">FinancialUtils:printQuoteLink</text>
</g>
<!-- 140531500010968 -->
<g id="node24" class="node">
<title>140531500010968</title>
<polygon fill="none" stroke="#000000" points="304.5,-1278 93.5,-1278 93.5,-1242 304.5,-1242 304.5,-1278"/>
<text text-anchor="middle" x="199" y="-1256.3" font-family="Times,serif" font-size="14.00" fill="#000000">HoldingDataBean:getPurchasePrice</text>
</g>
<!-- 140531499581904 -->
<g id="node25" class="node">
<title>140531499581904</title>
<polygon fill="none" stroke="#000000" points="290,-1332 108,-1332 108,-1296 290,-1296 290,-1332"/>
<text text-anchor="middle" x="199" y="-1310.3" font-family="Times,serif" font-size="14.00" fill="#000000">HoldingDataBean:getQuantity</text>
</g>
<!-- 140531500009512 -->
<g id="node26" class="node">
<title>140531500009512</title>
<polygon fill="none" stroke="#000000" points="260.5,-1386 137.5,-1386 137.5,-1350 260.5,-1350 260.5,-1386"/>
<text text-anchor="middle" x="199" y="-1364.3" font-family="Times,serif" font-size="14.00" fill="#000000">Log:doActionTrace</text>
</g>
<!-- 140531501377912 -->
<g id="node27" class="node">
<title>140531501377912</title>
<polygon fill="none" stroke="#000000" points="242,-1440 156,-1440 156,-1404 242,-1404 242,-1440"/>
<text text-anchor="middle" x="199" y="-1418.3" font-family="Times,serif" font-size="14.00" fill="#000000">Log:doTrace</text>
</g>
<!-- 140531501378584 -->
<g id="node28" class="node">
<title>140531501378584</title>
<polygon fill="none" stroke="#000000" points="262,-1494 136,-1494 136,-1458 262,-1458 262,-1494"/>
<text text-anchor="middle" x="199" y="-1472.3" font-family="Times,serif" font-size="14.00" fill="#000000">Log:getActionTrace</text>
</g>
<!-- 140531500009680 -->
<g id="node29" class="node">
<title>140531500009680</title>
<polygon fill="none" stroke="#000000" points="243.5,-1548 154.5,-1548 154.5,-1512 243.5,-1512 243.5,-1548"/>
<text text-anchor="middle" x="199" y="-1526.3" font-family="Times,serif" font-size="14.00" fill="#000000">Log:getTrace</text>
</g>
<!-- 140531499581624 -->
<g id="node30" class="node">
<title>140531499581624</title>
<polygon fill="none" stroke="#000000" points="305,-1602 93,-1602 93,-1566 305,-1566 305,-1602"/>
<text text-anchor="middle" x="199" y="-1580.3" font-family="Times,serif" font-size="14.00" fill="#000000">OrderDataBean:getCompletionDate</text>
</g>
<!-- 140531500010184 -->
<g id="node31" class="node">
<title>140531500010184</title>
<polygon fill="none" stroke="#000000" points="287,-1656 111,-1656 111,-1620 287,-1620 287,-1656"/>
<text text-anchor="middle" x="199" y="-1634.3" font-family="Times,serif" font-size="14.00" fill="#000000">OrderDataBean:getOpenDate</text>
</g>
<!-- 140531499582688 -->
<g id="node32" class="node">
<title>140531499582688</title>
<polygon fill="none" stroke="#000000" points="285.5,-1710 112.5,-1710 112.5,-1674 285.5,-1674 285.5,-1710"/>
<text text-anchor="middle" x="199" y="-1688.3" font-family="Times,serif" font-size="14.00" fill="#000000">OrderDataBean:getOrderFee</text>
</g>
<!-- 140531500011192 -->
<g id="node33" class="node">
<title>140531500011192</title>
<polygon fill="none" stroke="#000000" points="282.5,-1764 115.5,-1764 115.5,-1728 282.5,-1728 282.5,-1764"/>
<text text-anchor="middle" x="199" y="-1742.3" font-family="Times,serif" font-size="14.00" fill="#000000">OrderDataBean:getOrderID</text>
</g>
<!-- 140531499582184 -->
<g id="node34" class="node">
<title>140531499582184</title>
<polygon fill="none" stroke="#000000" points="292,-1818 106,-1818 106,-1782 292,-1782 292,-1818"/>
<text text-anchor="middle" x="199" y="-1796.3" font-family="Times,serif" font-size="14.00" fill="#000000">OrderDataBean:getOrderStatus</text>
</g>
<!-- 140531500010072 -->
<g id="node35" class="node">
<title>140531500010072</title>
<polygon fill="none" stroke="#000000" points="289.5,-1872 108.5,-1872 108.5,-1836 289.5,-1836 289.5,-1872"/>
<text text-anchor="middle" x="199" y="-1850.3" font-family="Times,serif" font-size="14.00" fill="#000000">OrderDataBean:getOrderType</text>
</g>
<!-- 140531500010800 -->
<g id="node36" class="node">
<title>140531500010800</title>
<polygon fill="none" stroke="#000000" points="283.5,-1926 114.5,-1926 114.5,-1890 283.5,-1890 283.5,-1926"/>
<text text-anchor="middle" x="199" y="-1904.3" font-family="Times,serif" font-size="14.00" fill="#000000">OrderDataBean:getQuantity</text>
</g>
<!-- 140531499582576 -->
<g id="node37" class="node">
<title>140531499582576</title>
<polygon fill="none" stroke="#000000" points="281,-1980 117,-1980 117,-1944 281,-1944 281,-1980"/>
<text text-anchor="middle" x="199" y="-1958.3" font-family="Times,serif" font-size="14.00" fill="#000000">OrderDataBean:getSymbol</text>
</g>
<!-- 140531501378192 -->
<g id="node38" class="node">
<title>140531501378192</title>
<polygon fill="none" stroke="#000000" points="591,-2043 434,-2043 434,-2007 591,-2007 591,-2043"/>
<text text-anchor="middle" x="512.5" y="-2021.3" font-family="Times,serif" font-size="14.00" fill="#000000">OrdersAlertFilter:doFilter</text>
</g>
<!-- 140531499583304 -->
<g id="node72" class="node">
<title>140531499583304</title>
<ellipse fill="none" stroke="#000000" cx="728.5" cy="-2025" rx="27" ry="27"/>
<text text-anchor="middle" x="728.5" y="-2021.3" font-family="Times,serif" font-size="14.00" fill="#000000">({&#39;OrdersAlertFilter:doFilter&#39;}, {&#39;Root&#39;})</text>
</g>
<!-- 140531501378192&#45;&gt;140531499583304 -->
<g id="edge8" class="edge">
<title>140531501378192&#45;&gt;140531499583304</title>
<path fill="none" stroke="#000000" d="M591.092,-2025C625.1684,-2025 663.473,-2025 690.9658,-2025"/>
<polygon fill="#000000" stroke="#000000" points="691.3076,-2028.5001 701.3075,-2025 691.3075,-2021.5001 691.3076,-2028.5001"/>
</g>
<!-- 140531499582352 -->
<g id="node39" class="node">
<title>140531499582352</title>
<polygon fill="none" stroke="#000000" points="282,-2106 116,-2106 116,-2070 282,-2070 282,-2106"/>
<text text-anchor="middle" x="199" y="-2084.3" font-family="Times,serif" font-size="14.00" fill="#000000">QuoteDataBean:getSymbol</text>
</g>
<!-- 140531499582800 -->
<g id="node40" class="node">
<title>140531499582800</title>
<polygon fill="none" stroke="#000000" points="920,-2043 866,-2043 866,-2007 920,-2007 920,-2043"/>
<text text-anchor="middle" x="893" y="-2021.3" font-family="Times,serif" font-size="14.00" fill="#000000">Root</text>
</g>
<!-- 140531499582912 -->
<g id="node76" class="node">
<title>140531499582912</title>
<ellipse fill="#ffa500" stroke="#000000" cx="983" cy="-2025" rx="27" ry="27"/>
</g>
<!-- 140531499582800&#45;&gt;140531499582912 -->
<g id="edge9" class="edge">
<title>140531499582800&#45;&gt;140531499582912</title>
<path fill="none" stroke="#000000" d="M920.003,-2025C928.0277,-2025 936.9665,-2025 945.5309,-2025"/>
<polygon fill="#000000" stroke="#000000" points="945.7051,-2028.5001 955.705,-2025 945.705,-2021.5001 945.7051,-2028.5001"/>
</g>
<!-- 140531500010688 -->
<g id="node41" class="node">
<title>140531500010688</title>
<polygon fill="none" stroke="#000000" points="330.5,-2160 67.5,-2160 67.5,-2124 330.5,-2124 330.5,-2160"/>
<text text-anchor="middle" x="199" y="-2138.3" font-family="Times,serif" font-size="14.00" fill="#000000">TradeAction:TradeAction [overloaded_#001]</text>
</g>
<!-- 140531500010296 -->
<g id="node42" class="node">
<title>140531500010296</title>
<polygon fill="none" stroke="#000000" points="275,-2214 123,-2214 123,-2178 275,-2178 275,-2214"/>
<text text-anchor="middle" x="199" y="-2192.3" font-family="Times,serif" font-size="14.00" fill="#000000">TradeAction:createTrade</text>
</g>
<!-- 140531500010744 -->
<g id="node43" class="node">
<title>140531500010744</title>
<polygon fill="none" stroke="#000000" points="287,-2268 111,-2268 111,-2232 287,-2232 287,-2268"/>
<text text-anchor="middle" x="199" y="-2246.3" font-family="Times,serif" font-size="14.00" fill="#000000">TradeAction:getAccountData</text>
</g>
<!-- 140531500011136 -->
<g id="node44" class="node">
<title>140531500011136</title>
<polygon fill="none" stroke="#000000" points="288.5,-2322 109.5,-2322 109.5,-2286 288.5,-2286 288.5,-2322"/>
<text text-anchor="middle" x="199" y="-2300.3" font-family="Times,serif" font-size="14.00" fill="#000000">TradeAction:getClosedOrders</text>
</g>
<!-- 140531499581736 -->
<g id="node45" class="node">
<title>140531499581736</title>
<polygon fill="none" stroke="#000000" points="276.5,-2376 121.5,-2376 121.5,-2340 276.5,-2340 276.5,-2376"/>
<text text-anchor="middle" x="199" y="-2354.3" font-family="Times,serif" font-size="14.00" fill="#000000">TradeAction:getHoldings</text>
</g>
<!-- 140531501378248 -->
<g id="node46" class="node">
<title>140531501378248</title>
<polygon fill="none" stroke="#000000" points="786.5,-491 670.5,-491 670.5,-455 786.5,-455 786.5,-491"/>
<text text-anchor="middle" x="728.5" y="-469.3" font-family="Times,serif" font-size="14.00" fill="#000000">TradeAction:login</text>
</g>
<!-- 140531499583752 -->
<g id="node73" class="node">
<title>140531499583752</title>
<ellipse fill="none" stroke="#000000" cx="893" cy="-446" rx="27" ry="27"/>
<text text-anchor="middle" x="893" y="-442.3" font-family="Times,serif" font-size="14.00" fill="#000000">({&#39;TradeAction:login&#39;}, {&#39;AccountDataBean:hashCode&#39;})</text>
</g>
<!-- 140531501378248&#45;&gt;140531499583752 -->
<g id="edge10" class="edge">
<title>140531501378248&#45;&gt;140531499583752</title>
<path fill="none" stroke="#000000" d="M786.9597,-463.4048C809.9226,-459.6358 835.5922,-455.4226 855.9234,-452.0855"/>
<polygon fill="#000000" stroke="#000000" points="856.7251,-455.5009 866.0261,-450.4273 855.5912,-448.5933 856.7251,-455.5009"/>
</g>
<!-- 140531499582240 -->
<g id="node47" class="node">
<title>140531499582240</title>
<polygon fill="none" stroke="#000000" points="274,-2430 124,-2430 124,-2394 274,-2394 274,-2430"/>
<text text-anchor="middle" x="199" y="-2408.3" font-family="Times,serif" font-size="14.00" fill="#000000">TradeAppServlet:doPost</text>
</g>
<!-- 140531501378136 -->
<g id="node48" class="node">
<title>140531501378136</title>
<polygon fill="none" stroke="#000000" points="291,-2484 107,-2484 107,-2448 291,-2448 291,-2484"/>
<text text-anchor="middle" x="199" y="-2462.3" font-family="Times,serif" font-size="14.00" fill="#000000">TradeAppServlet:performTask</text>
</g>
<!-- 140531500010912 -->
<g id="node49" class="node">
<title>140531500010912</title>
<polygon fill="none" stroke="#000000" points="285.5,-2538 112.5,-2538 112.5,-2502 285.5,-2502 285.5,-2538"/>
<text text-anchor="middle" x="199" y="-2516.3" font-family="Times,serif" font-size="14.00" fill="#000000">TradeConfig:getActionTrace</text>
</g>
<!-- 140531500010464 -->
<g id="node50" class="node">
<title>140531500010464</title>
<polygon fill="none" stroke="#000000" points="305,-2592 93,-2592 93,-2556 305,-2556 305,-2592"/>
<text text-anchor="middle" x="199" y="-2570.3" font-family="Times,serif" font-size="14.00" fill="#000000">TradeConfig:getDisplayOrderAlerts</text>
</g>
<!-- 140531500009736 -->
<g id="node51" class="node">
<title>140531500009736</title>
<polygon fill="none" stroke="#000000" points="277.5,-2646 120.5,-2646 120.5,-2610 277.5,-2610 277.5,-2646"/>
<text text-anchor="middle" x="199" y="-2624.3" font-family="Times,serif" font-size="14.00" fill="#000000">TradeConfig:getLongRun</text>
</g>
<!-- 140531499583584 -->
<g id="node74" class="node">
<title>140531499583584</title>
<ellipse fill="none" stroke="#000000" cx="512.5" cy="-2655" rx="27" ry="27"/>
<text text-anchor="middle" x="512.5" y="-2651.3" font-family="Times,serif" font-size="14.00" fill="#000000">({&#39;TradeConfig:getLongRun&#39;}, {&#39;TradeSLSBBean:getClosedOrders&#39;})</text>
</g>
<!-- 140531500009736&#45;&gt;140531499583584 -->
<g id="edge11" class="edge">
<title>140531500009736&#45;&gt;140531499583584</title>
<path fill="none" stroke="#000000" d="M277.7046,-2634.7784C340.9023,-2640.2212 426.8237,-2647.6212 475.2717,-2651.7937"/>
<polygon fill="#000000" stroke="#000000" points="475.0438,-2655.287 485.3073,-2652.658 475.6445,-2648.3128 475.0438,-2655.287"/>
</g>
<!-- 140531500009624 -->
<g id="node52" class="node">
<title>140531500009624</title>
<polygon fill="none" stroke="#000000" points="265,-2700 133,-2700 133,-2664 265,-2664 265,-2700"/>
<text text-anchor="middle" x="199" y="-2678.3" font-family="Times,serif" font-size="14.00" fill="#000000">TradeConfig:getPage</text>
</g>
<!-- 140531499581960 -->
<g id="node53" class="node">
<title>140531499581960</title>
<polygon fill="none" stroke="#000000" points="267.5,-2754 130.5,-2754 130.5,-2718 267.5,-2718 267.5,-2754"/>
<text text-anchor="middle" x="199" y="-2732.3" font-family="Times,serif" font-size="14.00" fill="#000000">TradeConfig:getTrace</text>
</g>
<!-- 140531500010408 -->
<g id="node54" class="node">
<title>140531500010408</title>
<polygon fill="none" stroke="#000000" points="309.5,-2808 88.5,-2808 88.5,-2772 309.5,-2772 309.5,-2808"/>
<text text-anchor="middle" x="199" y="-2786.3" font-family="Times,serif" font-size="14.00" fill="#000000">TradeConfig:useRemoteEJBInterface</text>
</g>
<!-- 140531499581512 -->
<g id="node55" class="node">
<title>140531499581512</title>
<polygon fill="none" stroke="#000000" points="299,-2862 99,-2862 99,-2826 299,-2826 299,-2862"/>
<text text-anchor="middle" x="199" y="-2840.3" font-family="Times,serif" font-size="14.00" fill="#000000">TradeSLSBBean:getAccountData</text>
</g>
<!-- 140531501378080 -->
<g id="node56" class="node">
<title>140531501378080</title>
<polygon fill="none" stroke="#000000" points="830,-2668 627,-2668 627,-2632 830,-2632 830,-2668"/>
<text text-anchor="middle" x="728.5" y="-2646.3" font-family="Times,serif" font-size="14.00" fill="#000000">TradeSLSBBean:getClosedOrders</text>
</g>
<!-- 140531499583416 -->
<g id="node75" class="node">
<title>140531499583416</title>
<ellipse fill="none" stroke="#000000" cx="893" cy="-2623" rx="27" ry="27"/>
<text text-anchor="middle" x="893" y="-2619.3" font-family="Times,serif" font-size="14.00" fill="#000000">({&#39;TradeSLSBBean:getClosedOrders&#39;}, {&#39;TradeConfig:getLongRun&#39;})</text>
</g>
<!-- 140531501378080&#45;&gt;140531499583416 -->
<g id="edge12" class="edge">
<title>140531501378080&#45;&gt;140531499583416</title>
<path fill="none" stroke="#000000" d="M830.3403,-2633.2846C839.4806,-2631.7843 848.2782,-2630.3404 856.2449,-2629.0327"/>
<polygon fill="#000000" stroke="#000000" points="856.8973,-2632.4726 866.1984,-2627.399 855.7635,-2625.565 856.8973,-2632.4726"/>
</g>
<!-- 140531500011248 -->
<g id="node57" class="node">
<title>140531500011248</title>
<polygon fill="none" stroke="#000000" points="288,-2916 110,-2916 110,-2880 288,-2880 288,-2916"/>
<text text-anchor="middle" x="199" y="-2894.3" font-family="Times,serif" font-size="14.00" fill="#000000">TradeSLSBBean:getHoldings</text>
</g>
<!-- 140531500009792 -->
<g id="node58" class="node">
<title>140531500009792</title>
<polygon fill="none" stroke="#000000" points="269,-2970 129,-2970 129,-2934 269,-2934 269,-2970"/>
<text text-anchor="middle" x="199" y="-2948.3" font-family="Times,serif" font-size="14.00" fill="#000000">TradeSLSBBean:login</text>
</g>
<!-- 140531499581848 -->
<g id="node59" class="node">
<title>140531499581848</title>
<polygon fill="none" stroke="#000000" points="292.5,-3024 105.5,-3024 105.5,-2988 292.5,-2988 292.5,-3024"/>
<text text-anchor="middle" x="199" y="-3002.3" font-family="Times,serif" font-size="14.00" fill="#000000">TradeSLSBBean:postConstruct</text>
</g>
<!-- 140531500011024 -->
<g id="node60" class="node">
<title>140531500011024</title>
<polygon fill="none" stroke="#000000" points="286,-3078 112,-3078 112,-3042 286,-3042 286,-3078"/>
<text text-anchor="middle" x="199" y="-3056.3" font-family="Times,serif" font-size="14.00" fill="#000000">TradeServletAction:doHome</text>
</g>
<!-- 140531499582464 -->
<g id="node61" class="node">
<title>140531499582464</title>
<polygon fill="none" stroke="#000000" points="285.5,-3132 112.5,-3132 112.5,-3096 285.5,-3096 285.5,-3132"/>
<text text-anchor="middle" x="199" y="-3110.3" font-family="Times,serif" font-size="14.00" fill="#000000">TradeServletAction:doLogin</text>
</g>
<!-- 140531500010856 -->
<g id="node62" class="node">
<title>140531500010856</title>
<polygon fill="none" stroke="#000000" points="306,-3186 92,-3186 92,-3150 306,-3150 306,-3186"/>
<text text-anchor="middle" x="199" y="-3164.3" font-family="Times,serif" font-size="14.00" fill="#000000">TradeServletAction:requestDispatch</text>
</g>
<!-- 140531500010016 -->
<g id="node63" class="node">
<title>140531500010016</title>
<polygon fill="none" stroke="#000000" points="270,-3240 128,-3240 128,-3204 270,-3204 270,-3240"/>
<text text-anchor="middle" x="199" y="-3218.3" font-family="Times,serif" font-size="14.00" fill="#000000">new AccountDataBean</text>
</g>
<!-- 140531500010240 -->
<g id="node64" class="node">
<title>140531500010240</title>
<polygon fill="none" stroke="#000000" points="288.5,-3294 109.5,-3294 109.5,-3258 288.5,-3258 288.5,-3294"/>
<text text-anchor="middle" x="199" y="-3272.3" font-family="Times,serif" font-size="14.00" fill="#000000">new AccountProfileDataBean</text>
</g>
<!-- 140531499582520 -->
<g id="node65" class="node">
<title>140531499582520</title>
<polygon fill="none" stroke="#000000" points="269,-3348 129,-3348 129,-3312 269,-3312 269,-3348"/>
<text text-anchor="middle" x="199" y="-3326.3" font-family="Times,serif" font-size="14.00" fill="#000000">new HoldingDataBean</text>
</g>
<!-- 140531501378528 -->
<g id="node66" class="node">
<title>140531501378528</title>
<polygon fill="none" stroke="#000000" points="263,-3402 135,-3402 135,-3366 263,-3366 263,-3402"/>
<text text-anchor="middle" x="199" y="-3380.3" font-family="Times,serif" font-size="14.00" fill="#000000">new OrderDataBean</text>
</g>
<!-- 140531499582016 -->
<g id="node67" class="node">
<title>140531499582016</title>
<polygon fill="none" stroke="#000000" points="263.5,-3456 134.5,-3456 134.5,-3420 263.5,-3420 263.5,-3456"/>
<text text-anchor="middle" x="199" y="-3434.3" font-family="Times,serif" font-size="14.00" fill="#000000">new QuoteDataBean</text>
</g>
<!-- 140531499582072 -->
<g id="node68" class="node">
<title>140531499582072</title>
<polygon fill="none" stroke="#000000" points="254.5,-3510 143.5,-3510 143.5,-3474 254.5,-3474 254.5,-3510"/>
<text text-anchor="middle" x="199" y="-3488.3" font-family="Times,serif" font-size="14.00" fill="#000000">new TradeAction</text>
</g>
<!-- 140531500010352 -->
<g id="node69" class="node">
<title>140531500010352</title>
<polygon fill="none" stroke="#000000" points="266,-3564 132,-3564 132,-3528 266,-3528 266,-3564"/>
<text text-anchor="middle" x="199" y="-3542.3" font-family="Times,serif" font-size="14.00" fill="#000000">new TradeSLSBBean</text>
</g>
<!-- 140531499583080 -->
<g id="node70" class="node">
<title>140531499583080</title>
<ellipse fill="#00ff00" stroke="#000000" cx="199" cy="-2025" rx="27" ry="27"/>
<text text-anchor="middle" x="199" y="-2021.3" font-family="Times,serif" font-size="14.00" fill="#000000">1</text>
</g>
<!-- 140531499583080&#45;&gt;140531501378192 -->
<g id="edge6" class="edge">
<title>140531499583080&#45;&gt;140531501378192</title>
<path fill="none" stroke="#000000" d="M226.0002,-2025C269.4409,-2025 356.7456,-2025 423.6224,-2025"/>
<polygon fill="#000000" stroke="#000000" points="423.7516,-2028.5001 433.7515,-2025 423.7515,-2021.5001 423.7516,-2028.5001"/>
</g>
<!-- 140531499583920&#45;&gt;140531501378248 -->
<g id="edge1" class="edge">
<title>140531499583920&#45;&gt;140531501378248</title>
<path fill="none" stroke="#000000" d="M539.8565,-476.4934C569.8916,-475.9372 619.2596,-475.023 659.9593,-474.2693"/>
<polygon fill="#000000" stroke="#000000" points="660.1694,-477.7661 670.1029,-474.0814 660.0398,-470.7673 660.1694,-477.7661"/>
</g>
<!-- 140531499583304&#45;&gt;140531499582800 -->
<g id="edge2" class="edge">
<title>140531499583304&#45;&gt;140531499582800</title>
<path fill="none" stroke="#000000" d="M755.6638,-2025C782.9284,-2025 825.1388,-2025 855.5678,-2025"/>
<polygon fill="#000000" stroke="#000000" points="855.7958,-2028.5001 865.7958,-2025 855.7958,-2021.5001 855.7958,-2028.5001"/>
</g>
<!-- 140531499583752&#45;&gt;140531499582128 -->
<g id="edge3" class="edge">
<title>140531499583752&#45;&gt;140531499582128</title>
<path fill="none" stroke="#000000" d="M865.8369,-445.135C794.8496,-442.9978 597.9367,-437.8619 434,-441 388.5559,-441.8699 338.1957,-443.6852 295.7889,-445.4591"/>
<polygon fill="#000000" stroke="#000000" points="295.5926,-441.9642 285.7498,-445.8844 295.889,-448.9579 295.5926,-441.9642"/>
</g>
<!-- 140531499583584&#45;&gt;140531501378080 -->
<g id="edge4" class="edge">
<title>140531499583584&#45;&gt;140531501378080</title>
<path fill="none" stroke="#000000" d="M539.8565,-2654.3667C559.6584,-2653.9084 587.8635,-2653.2555 616.4476,-2652.5938"/>
<polygon fill="#000000" stroke="#000000" points="616.6445,-2656.0903 626.5608,-2652.3597 616.4824,-2649.0922 616.6445,-2656.0903"/>
</g>
<!-- 140531499583416&#45;&gt;140531500009736 -->
<g id="edge5" class="edge">
<title>140531499583416&#45;&gt;140531500009736</title>
<path fill="none" stroke="#000000" d="M865.8365,-2622.2354C794.8482,-2620.3519 597.9332,-2615.862 434,-2619 385.6197,-2619.9261 331.6675,-2621.9237 287.6721,-2623.8022"/>
<polygon fill="#000000" stroke="#000000" points="287.4191,-2620.3097 277.5796,-2624.2384 287.7215,-2627.3032 287.4191,-2620.3097"/>
</g>
</g>
</svg>
