<?xml version="1.0" encoding="UTF-8" standalone="no"?>
<!DOCTYPE svg PUBLIC "-//W3C//DTD SVG 1.1//EN"
 "http://www.w3.org/Graphics/SVG/1.1/DTD/svg11.dtd">
<!-- Generated by graphviz version 2.40.1 (20161225.0304)
 -->
<!-- Title: alpha_plus_net_1585321017.8338253 Pages: 1 -->
<svg width="1711pt" height="975pt"
 viewBox="0.00 0.00 1711.00 975.00" xmlns="http://www.w3.org/2000/svg" xmlns:xlink="http://www.w3.org/1999/xlink">
<g id="graph0" class="graph" transform="scale(1 1) rotate(0) translate(4 971)">
<title>alpha_plus_net_1585321017.8338253</title>
<!-- 140531499030232 -->
<g id="node1" class="node">
<title>140531499030232</title>
<polygon fill="none" stroke="#000000" points="116,-264 0,-264 0,-228 116,-228 116,-264"/>
<text text-anchor="middle" x="58" y="-242.3" font-family="Times,serif" font-size="14.00" fill="#000000">AccountDataBean</text>
</g>
<!-- 140531499876080 -->
<g id="node22" class="node">
<title>140531499876080</title>
<ellipse fill="none" stroke="#000000" cx="179" cy="-273" rx="27" ry="27"/>
<text text-anchor="middle" x="179" y="-269.3" font-family="Times,serif" font-size="14.00" fill="#000000">({&#39;AccountDataBean&#39;, &#39;QuoteDataBean&#39;}, {&#39;TradeAction&#39;})</text>
</g>
<!-- 140531499030232&#45;&gt;140531499876080 -->
<g id="edge30" class="edge">
<title>140531499030232&#45;&gt;140531499876080</title>
<path fill="none" stroke="#000000" d="M116.0192,-258.9464C125.0744,-260.967 134.2038,-263.0041 142.5942,-264.8764"/>
<polygon fill="#000000" stroke="#000000" points="141.8852,-268.3042 152.4074,-267.0661 143.4097,-261.4722 141.8852,-268.3042"/>
</g>
<!-- 140531499875408 -->
<g id="node23" class="node">
<title>140531499875408</title>
<ellipse fill="none" stroke="#000000" cx="696" cy="-231" rx="27" ry="27"/>
<text text-anchor="middle" x="696" y="-227.3" font-family="Times,serif" font-size="14.00" fill="#000000">({&#39;AccountProfileDataBean&#39;, &#39;AccountDataBean&#39;, &#39;QuoteDataBean&#39;, &#39;FinancialUtils&#39;}, {&#39;TradeSLSBBean&#39;, &#39;TradeServletAction&#39;})</text>
</g>
<!-- 140531499030232&#45;&gt;140531499875408 -->
<g id="edge31" class="edge">
<title>140531499030232&#45;&gt;140531499875408</title>
<path fill="none" stroke="#000000" d="M116.3724,-234.9337C162.7208,-227.1072 229.271,-218 288,-218 288,-218 288,-218 397,-218 491.2087,-218 601.9569,-224.5212 658.5579,-228.3262"/>
<polygon fill="#000000" stroke="#000000" points="658.5928,-231.8366 668.8079,-229.0256 659.0694,-224.8529 658.5928,-231.8366"/>
</g>
<!-- 140531499875240 -->
<g id="node24" class="node">
<title>140531499875240</title>
<ellipse fill="none" stroke="#000000" cx="1149" cy="-299" rx="27" ry="27"/>
<text text-anchor="middle" x="1149" y="-295.3" font-family="Times,serif" font-size="14.00" fill="#000000">({&#39;AccountProfileDataBean&#39;, &#39;HoldingDataBean&#39;, &#39;FinancialUtils&#39;, &#39;OrderDataBean&#39;, &#39;AccountDataBean&#39;}, {&#39;TradeSLSBBean&#39;, &#39;TradeServletAction&#39;})</text>
</g>
<!-- 140531499030232&#45;&gt;140531499875240 -->
<g id="edge32" class="edge">
<title>140531499030232&#45;&gt;140531499875240</title>
<path fill="none" stroke="#000000" d="M66.9326,-264.0274C81.4312,-291.7241 112.4873,-344.9941 152,-378 203.2691,-420.8263 221.1972,-442 288,-442 288,-442 288,-442 696,-442 860.1694,-442 1042.9298,-355.5361 1116.105,-317.0748"/>
<polygon fill="#000000" stroke="#000000" points="1118.0979,-319.9794 1125.287,-312.1968 1114.8138,-313.7976 1118.0979,-319.9794"/>
</g>
<!-- 140531499874792 -->
<g id="node27" class="node">
<title>140531499874792</title>
<ellipse fill="none" stroke="#000000" cx="1676" cy="-178" rx="27" ry="27"/>
<text text-anchor="middle" x="1676" y="-174.3" font-family="Times,serif" font-size="14.00" fill="#000000">({&#39;OrderDataBean&#39;, &#39;AccountDataBean&#39;}, {&#39;TradeAction&#39;})</text>
</g>
<!-- 140531499030232&#45;&gt;140531499874792 -->
<g id="edge33" class="edge">
<title>140531499030232&#45;&gt;140531499874792</title>
<path fill="none" stroke="#000000" d="M63.428,-227.8064C74.6897,-192.7827 103.6552,-115.2824 152,-68 200.3134,-20.7483 220.4211,0 288,0 288,0 288,0 1398,0 1507.3426,0 1608.1174,-98.8701 1652.361,-149.2374"/>
<polygon fill="#000000" stroke="#000000" points="1649.7817,-151.6056 1658.9691,-156.8821 1655.0774,-147.0279 1649.7817,-151.6056"/>
</g>
<!-- 140531500001096 -->
<g id="node2" class="node">
<title>140531500001096</title>
<polygon fill="none" stroke="#000000" points="1613,-365 1461,-365 1461,-329 1613,-329 1613,-365"/>
<text text-anchor="middle" x="1537" y="-343.3" font-family="Times,serif" font-size="14.00" fill="#000000">AccountProfileDataBean</text>
</g>
<!-- 140531500001096&#45;&gt;140531499875408 -->
<g id="edge34" class="edge">
<title>140531500001096&#45;&gt;140531499875408</title>
<path fill="none" stroke="#000000" d="M1485.2201,-365.0352C1432.5952,-381.7344 1348.3874,-404 1273.5,-404 1149,-404 1149,-404 1149,-404 965.8646,-404 917.4107,-362.8947 759,-271 748.5121,-264.9159 737.2729,-257.9345 727.2333,-251.5249"/>
<polygon fill="#000000" stroke="#000000" points="729.0716,-248.5458 718.7685,-246.0764 725.2829,-254.4319 729.0716,-248.5458"/>
</g>
<!-- 140531500001096&#45;&gt;140531499875240 -->
<g id="edge35" class="edge">
<title>140531500001096&#45;&gt;140531499875240</title>
<path fill="none" stroke="#000000" d="M1460.7664,-337.569C1377.9924,-327.329 1249.2035,-311.3963 1186.2234,-303.605"/>
<polygon fill="#000000" stroke="#000000" points="1186.3294,-300.0915 1175.9754,-302.3372 1185.47,-307.0385 1186.3294,-300.0915"/>
</g>
<!-- 140531500002496 -->
<g id="node3" class="node">
<title>140531500002496</title>
<polygon fill="none" stroke="#000000" points="107.5,-729 8.5,-729 8.5,-693 107.5,-693 107.5,-729"/>
<text text-anchor="middle" x="58" y="-707.3" font-family="Times,serif" font-size="14.00" fill="#000000">ActionDecoder</text>
</g>
<!-- 140531499875856 -->
<g id="node28" class="node">
<title>140531499875856</title>
<ellipse fill="none" stroke="#000000" cx="179" cy="-673" rx="27" ry="27"/>
<text text-anchor="middle" x="179" y="-669.3" font-family="Times,serif" font-size="14.00" fill="#000000">({&#39;OrdersAlertFilter&#39;, &#39;DTStreamer3MDB&#39;, &#39;ActionDecoder&#39;, &#39;MarketSummaryWebSocket&#39;}, {&#39;TradeConfig&#39;, &#39;Root&#39;})</text>
</g>
<!-- 140531500002496&#45;&gt;140531499875856 -->
<g id="edge36" class="edge">
<title>140531500002496&#45;&gt;140531499875856</title>
<path fill="none" stroke="#000000" d="M107.5645,-695.4343C119.5569,-691.6681 132.1424,-687.7156 143.3506,-684.1957"/>
<polygon fill="#000000" stroke="#000000" points="144.7083,-687.4379 153.2001,-681.1024 142.6109,-680.7595 144.7083,-687.4379"/>
</g>
<!-- 140531500000928 -->
<g id="node4" class="node">
<title>140531500000928</title>
<polygon fill="none" stroke="#000000" points="607.5,-832 485.5,-832 485.5,-796 607.5,-796 607.5,-832"/>
<text text-anchor="middle" x="546.5" y="-810.3" font-family="Times,serif" font-size="14.00" fill="#000000">DTStreamer3MDB</text>
</g>
<!-- 140531500000928&#45;&gt;140531499875856 -->
<g id="edge37" class="edge">
<title>140531500000928&#45;&gt;140531499875856</title>
<path fill="none" stroke="#000000" d="M485.2563,-831.3511C419.5413,-846.1469 314.8143,-858.3103 242,-811 223.832,-799.1955 202.9941,-745.5617 190.4228,-708.7421"/>
<polygon fill="#000000" stroke="#000000" points="193.6038,-707.2195 187.1053,-698.8516 186.9672,-709.4456 193.6038,-707.2195"/>
</g>
<!-- 140531500002048 -->
<g id="node5" class="node">
<title>140531500002048</title>
<polygon fill="none" stroke="#000000" points="1086,-224 993,-224 993,-188 1086,-188 1086,-224"/>
<text text-anchor="middle" x="1039.5" y="-202.3" font-family="Times,serif" font-size="14.00" fill="#000000">FinancialUtils</text>
</g>
<!-- 140531500002048&#45;&gt;140531499875408 -->
<g id="edge38" class="edge">
<title>140531500002048&#45;&gt;140531499875408</title>
<path fill="none" stroke="#000000" d="M992.6314,-205.2786C936.7599,-205.0084 840.6791,-206.4102 759,-217 750.2151,-218.139 740.8475,-219.9098 732.0949,-221.8135"/>
<polygon fill="#000000" stroke="#000000" points="731.144,-218.4404 722.1745,-224.0794 732.7028,-225.2647 731.144,-218.4404"/>
</g>
<!-- 140531500002048&#45;&gt;140531499875240 -->
<g id="edge39" class="edge">
<title>140531500002048&#45;&gt;140531499875240</title>
<path fill="none" stroke="#000000" d="M1060.8726,-224.1521C1077.864,-238.5831 1101.7907,-258.9045 1120.4262,-274.7319"/>
<polygon fill="#000000" stroke="#000000" points="1118.1655,-277.4038 1128.0532,-281.2096 1122.697,-272.0684 1118.1655,-277.4038"/>
</g>
<!-- 140531500002608 -->
<g id="node6" class="node">
<title>140531500002608</title>
<polygon fill="none" stroke="#000000" points="1594,-288 1480,-288 1480,-252 1594,-252 1594,-288"/>
<text text-anchor="middle" x="1537" y="-266.3" font-family="Times,serif" font-size="14.00" fill="#000000">HoldingDataBean</text>
</g>
<!-- 140531500002608&#45;&gt;140531499875240 -->
<g id="edge40" class="edge">
<title>140531500002608&#45;&gt;140531499875240</title>
<path fill="none" stroke="#000000" d="M1479.972,-274.2624C1399.3553,-280.2879 1254.3191,-291.1282 1186.2222,-296.2179"/>
<polygon fill="#000000" stroke="#000000" points="1185.6866,-292.7481 1175.9754,-296.9838 1186.2084,-299.7286 1185.6866,-292.7481"/>
</g>
<!-- 140531500001936 -->
<g id="node7" class="node">
<title>140531500001936</title>
<polygon fill="none" stroke="#000000" points="573.5,-621 519.5,-621 519.5,-585 573.5,-585 573.5,-621"/>
<text text-anchor="middle" x="546.5" y="-599.3" font-family="Times,serif" font-size="14.00" fill="#000000">Log</text>
</g>
<!-- 140531500001152 -->
<g id="node25" class="node">
<title>140531500001152</title>
<ellipse fill="none" stroke="#000000" cx="696" cy="-579" rx="27" ry="27"/>
<text text-anchor="middle" x="696" y="-575.3" font-family="Times,serif" font-size="14.00" fill="#000000">({&#39;Log&#39;}, {&#39;TradeConfig&#39;})</text>
</g>
<!-- 140531500001936&#45;&gt;140531500001152 -->
<g id="edge41" class="edge">
<title>140531500001936&#45;&gt;140531500001152</title>
<path fill="none" stroke="#000000" d="M573.5733,-598.6538C597.4926,-594.8139 632.5901,-589.1795 659.0802,-584.9269"/>
<polygon fill="#000000" stroke="#000000" points="659.8093,-588.3548 669.1281,-583.3139 658.6997,-581.4433 659.8093,-588.3548"/>
</g>
<!-- 140531500001432 -->
<g id="node8" class="node">
<title>140531500001432</title>
<polygon fill="none" stroke="#000000" points="95,-913 21,-913 21,-877 95,-877 95,-913"/>
<text text-anchor="middle" x="58" y="-891.3" font-family="Times,serif" font-size="14.00" fill="#000000">MDBStats</text>
</g>
<!-- 140531500000312 -->
<g id="node26" class="node">
<title>140531500000312</title>
<ellipse fill="none" stroke="#000000" cx="179" cy="-923" rx="27" ry="27"/>
<text text-anchor="middle" x="179" y="-919.3" font-family="Times,serif" font-size="14.00" fill="#000000">({&#39;MDBStats&#39;}, {&#39;TimerStat&#39;})</text>
</g>
<!-- 140531500001432&#45;&gt;140531500000312 -->
<g id="edge42" class="edge">
<title>140531500001432&#45;&gt;140531500000312</title>
<path fill="none" stroke="#000000" d="M95.2913,-903.6294C110.2988,-907.1022 127.552,-911.0947 142.4808,-914.5493"/>
<polygon fill="#000000" stroke="#000000" points="141.8571,-917.9974 152.3887,-916.842 143.4353,-911.1776 141.8571,-917.9974"/>
</g>
<!-- 140531500000256 -->
<g id="node9" class="node">
<title>140531500000256</title>
<polygon fill="none" stroke="#000000" points="633,-763 460,-763 460,-727 633,-727 633,-763"/>
<text text-anchor="middle" x="546.5" y="-741.3" font-family="Times,serif" font-size="14.00" fill="#000000">MarketSummaryWebSocket</text>
</g>
<!-- 140531500000256&#45;&gt;140531499875856 -->
<g id="edge43" class="edge">
<title>140531500000256&#45;&gt;140531499875856</title>
<path fill="none" stroke="#000000" d="M463.2109,-726.9744C450.1027,-724.238 436.6927,-721.4971 424,-719 343.3384,-703.1309 322.7061,-701.6412 242,-686 233.4104,-684.3353 224.178,-682.472 215.5006,-680.6875"/>
<polygon fill="#000000" stroke="#000000" points="216.1428,-677.2463 205.6408,-678.6456 214.7232,-684.1009 216.1428,-677.2463"/>
</g>
<!-- 140531500002328 -->
<g id="node10" class="node">
<title>140531500002328</title>
<polygon fill="none" stroke="#000000" points="1587.5,-196 1486.5,-196 1486.5,-160 1587.5,-160 1587.5,-196"/>
<text text-anchor="middle" x="1537" y="-174.3" font-family="Times,serif" font-size="14.00" fill="#000000">OrderDataBean</text>
</g>
<!-- 140531500002328&#45;&gt;140531499875240 -->
<g id="edge44" class="edge">
<title>140531500002328&#45;&gt;140531499875240</title>
<path fill="none" stroke="#000000" d="M1486.3055,-194.4396C1467.1167,-200.6242 1445.0668,-207.6852 1425,-214 1338.9142,-241.0901 1237.4364,-272.1074 1184.7711,-288.1364"/>
<polygon fill="#000000" stroke="#000000" points="1183.4564,-284.8779 1174.9078,-291.1368 1185.4936,-291.5749 1183.4564,-284.8779"/>
</g>
<!-- 140531500002328&#45;&gt;140531499874792 -->
<g id="edge45" class="edge">
<title>140531500002328&#45;&gt;140531499874792</title>
<path fill="none" stroke="#000000" d="M1587.5754,-178C1604.3519,-178 1622.7209,-178 1638.3487,-178"/>
<polygon fill="#000000" stroke="#000000" points="1638.6768,-181.5001 1648.6767,-178 1638.6767,-174.5001 1638.6768,-181.5001"/>
</g>
<!-- 140531500002216 -->
<g id="node11" class="node">
<title>140531500002216</title>
<polygon fill="none" stroke="#000000" points="601.5,-699 491.5,-699 491.5,-663 601.5,-663 601.5,-699"/>
<text text-anchor="middle" x="546.5" y="-677.3" font-family="Times,serif" font-size="14.00" fill="#000000">OrdersAlertFilter</text>
</g>
<!-- 140531500002216&#45;&gt;140531499875856 -->
<g id="edge46" class="edge">
<title>140531500002216&#45;&gt;140531499875856</title>
<path fill="none" stroke="#000000" d="M491.4039,-679.8006C415.6044,-678.1506 281.1774,-675.2243 216.2062,-673.8099"/>
<polygon fill="#000000" stroke="#000000" points="216.097,-670.3068 206.0232,-673.5883 215.9446,-677.3052 216.097,-670.3068"/>
</g>
<!-- 140531500002664 -->
<g id="node12" class="node">
<title>140531500002664</title>
<polygon fill="none" stroke="#000000" points="598,-296 495,-296 495,-260 598,-260 598,-296"/>
<text text-anchor="middle" x="546.5" y="-274.3" font-family="Times,serif" font-size="14.00" fill="#000000">QuoteDataBean</text>
</g>
<!-- 140531500002664&#45;&gt;140531499876080 -->
<g id="edge47" class="edge">
<title>140531500002664&#45;&gt;140531499876080</title>
<path fill="none" stroke="#000000" d="M494.9723,-277.2551C451.9381,-276.6371 388.9701,-275.7427 334,-275 293.7461,-274.4562 247.6114,-273.865 216.2131,-273.4675"/>
<polygon fill="#000000" stroke="#000000" points="216.2032,-269.9672 206.1598,-273.3405 216.1147,-276.9666 216.2032,-269.9672"/>
</g>
<!-- 140531500002664&#45;&gt;140531499875408 -->
<g id="edge48" class="edge">
<title>140531500002664&#45;&gt;140531499875408</title>
<path fill="none" stroke="#000000" d="M598.3683,-261.6936C618.8615,-255.2509 641.8941,-248.0099 660.4395,-242.1796"/>
<polygon fill="#000000" stroke="#000000" points="661.7463,-245.4377 670.2362,-239.0996 659.6468,-238.7599 661.7463,-245.4377"/>
</g>
<!-- 140531500001488 -->
<g id="node13" class="node">
<title>140531500001488</title>
<polygon fill="none" stroke="#000000" points="315,-544 261,-544 261,-508 315,-508 315,-544"/>
<text text-anchor="middle" x="288" y="-522.3" font-family="Times,serif" font-size="14.00" fill="#000000">Root</text>
</g>
<!-- 140531500001264 -->
<g id="node36" class="node">
<title>140531500001264</title>
<ellipse fill="#ffa500" stroke="#000000" cx="397" cy="-497" rx="27" ry="27"/>
</g>
<!-- 140531500001488&#45;&gt;140531500001264 -->
<g id="edge49" class="edge">
<title>140531500001488&#45;&gt;140531500001264</title>
<path fill="none" stroke="#000000" d="M315.2241,-518.7569C329.0572,-515.0765 346.049,-510.5558 360.9531,-506.5905"/>
<polygon fill="#000000" stroke="#000000" points="362.1095,-509.9046 370.8734,-503.9511 360.3096,-503.14 362.1095,-509.9046"/>
</g>
<!-- 140531500000088 -->
<g id="node14" class="node">
<title>140531500000088</title>
<polygon fill="none" stroke="#000000" points="323.5,-937 252.5,-937 252.5,-901 323.5,-901 323.5,-937"/>
<text text-anchor="middle" x="288" y="-915.3" font-family="Times,serif" font-size="14.00" fill="#000000">TimerStat</text>
</g>
<!-- 140531500000760 -->
<g id="node29" class="node">
<title>140531500000760</title>
<ellipse fill="none" stroke="#000000" cx="397" cy="-900" rx="27" ry="27"/>
<text text-anchor="middle" x="397" y="-896.3" font-family="Times,serif" font-size="14.00" fill="#000000">({&#39;TimerStat&#39;}, {&#39;MDBStats&#39;})</text>
</g>
<!-- 140531500000088&#45;&gt;140531500000760 -->
<g id="edge50" class="edge">
<title>140531500000088&#45;&gt;140531500000760</title>
<path fill="none" stroke="#000000" d="M323.6907,-912.7787C335.4078,-910.7363 348.4471,-908.4634 360.2419,-906.4074"/>
<polygon fill="#000000" stroke="#000000" points="360.9718,-909.833 370.2222,-904.6677 359.7697,-902.937 360.9718,-909.833"/>
</g>
<!-- 140531500001656 -->
<g id="node15" class="node">
<title>140531500001656</title>
<polygon fill="none" stroke="#000000" points="330.5,-320 245.5,-320 245.5,-284 330.5,-284 330.5,-320"/>
<text text-anchor="middle" x="288" y="-298.3" font-family="Times,serif" font-size="14.00" fill="#000000">TradeAction</text>
</g>
<!-- 140531499822104 -->
<g id="node30" class="node">
<title>140531499822104</title>
<ellipse fill="none" stroke="#000000" cx="397" cy="-349" rx="27" ry="27"/>
<text text-anchor="middle" x="397" y="-345.3" font-family="Times,serif" font-size="14.00" fill="#000000">({&#39;TradeAction&#39;}, {&#39;AccountDataBean&#39;, &#39;QuoteDataBean&#39;})</text>
</g>
<!-- 140531500001656&#45;&gt;140531499822104 -->
<g id="edge51" class="edge">
<title>140531500001656&#45;&gt;140531499822104</title>
<path fill="none" stroke="#000000" d="M329.8305,-320.037C340.7703,-324.7541 352.431,-329.7822 362.9139,-334.3023"/>
<polygon fill="#000000" stroke="#000000" points="361.5868,-337.5416 372.1554,-338.2872 364.3585,-331.1137 361.5868,-337.5416"/>
</g>
<!-- 140531500000424 -->
<g id="node31" class="node">
<title>140531500000424</title>
<ellipse fill="none" stroke="#000000" cx="397" cy="-55" rx="27" ry="27"/>
<text text-anchor="middle" x="397" y="-51.3" font-family="Times,serif" font-size="14.00" fill="#000000">({&#39;TradeAction&#39;}, {&#39;OrderDataBean&#39;, &#39;AccountDataBean&#39;})</text>
</g>
<!-- 140531500001656&#45;&gt;140531500000424 -->
<g id="edge52" class="edge">
<title>140531500001656&#45;&gt;140531500000424</title>
<path fill="none" stroke="#000000" d="M296.015,-283.8375C314.112,-242.8288 358.3827,-142.509 381.8397,-89.3541"/>
<polygon fill="#000000" stroke="#000000" points="385.1311,-90.5646 385.9664,-80.0027 378.727,-87.7384 385.1311,-90.5646"/>
</g>
<!-- 140531499030400 -->
<g id="node16" class="node">
<title>140531499030400</title>
<polygon fill="none" stroke="#000000" points="113,-967 3,-967 3,-931 113,-931 113,-967"/>
<text text-anchor="middle" x="58" y="-945.3" font-family="Times,serif" font-size="14.00" fill="#000000">TradeAppServlet</text>
</g>
<!-- 140531500002552 -->
<g id="node17" class="node">
<title>140531500002552</title>
<polygon fill="none" stroke="#000000" points="331,-630 245,-630 245,-594 331,-594 331,-630"/>
<text text-anchor="middle" x="288" y="-608.3" font-family="Times,serif" font-size="14.00" fill="#000000">TradeConfig</text>
</g>
<!-- 140531500001544 -->
<g id="node32" class="node">
<title>140531500001544</title>
<ellipse fill="none" stroke="#000000" cx="397" cy="-755" rx="27" ry="27"/>
<text text-anchor="middle" x="397" y="-751.3" font-family="Times,serif" font-size="14.00" fill="#000000">({&#39;TradeConfig&#39;, &#39;artificial_start&#39;}, {&#39;OrdersAlertFilter&#39;, &#39;DTStreamer3MDB&#39;, &#39;ActionDecoder&#39;, &#39;MarketSummaryWebSocket&#39;})</text>
</g>
<!-- 140531500002552&#45;&gt;140531500001544 -->
<g id="edge53" class="edge">
<title>140531500002552&#45;&gt;140531500001544</title>
<path fill="none" stroke="#000000" d="M301.8049,-630.111C320.0536,-654.052 352.4449,-696.547 374.3162,-725.2406"/>
<polygon fill="#000000" stroke="#000000" points="371.6162,-727.4719 380.4619,-733.3032 377.1833,-723.2284 371.6162,-727.4719"/>
</g>
<!-- 140531500002160 -->
<g id="node33" class="node">
<title>140531500002160</title>
<ellipse fill="none" stroke="#000000" cx="397" cy="-607" rx="27" ry="27"/>
<text text-anchor="middle" x="397" y="-603.3" font-family="Times,serif" font-size="14.00" fill="#000000">({&#39;TradeConfig&#39;}, {&#39;Log&#39;})</text>
</g>
<!-- 140531500002552&#45;&gt;140531500002160 -->
<g id="edge54" class="edge">
<title>140531500002552&#45;&gt;140531500002160</title>
<path fill="none" stroke="#000000" d="M331.0797,-610.0239C340.5914,-609.5875 350.5891,-609.1289 359.8422,-608.7045"/>
<polygon fill="#000000" stroke="#000000" points="360.0783,-612.1974 369.9074,-608.2428 359.7575,-605.2048 360.0783,-612.1974"/>
</g>
<!-- 140531500002384 -->
<g id="node18" class="node">
<title>140531500002384</title>
<polygon fill="none" stroke="#000000" points="867,-262 759,-262 759,-226 867,-226 867,-262"/>
<text text-anchor="middle" x="813" y="-240.3" font-family="Times,serif" font-size="14.00" fill="#000000">TradeSLSBBean</text>
</g>
<!-- 140531499819976 -->
<g id="node34" class="node">
<title>140531499819976</title>
<ellipse fill="none" stroke="#000000" cx="930" cy="-311" rx="27" ry="27"/>
<text text-anchor="middle" x="930" y="-307.3" font-family="Times,serif" font-size="14.00" fill="#000000">({&#39;TradeSLSBBean&#39;, &#39;TradeServletAction&#39;}, {&#39;AccountProfileDataBean&#39;, &#39;AccountDataBean&#39;, &#39;QuoteDataBean&#39;, &#39;FinancialUtils&#39;})</text>
</g>
<!-- 140531500002384&#45;&gt;140531499819976 -->
<g id="edge55" class="edge">
<title>140531500002384&#45;&gt;140531499819976</title>
<path fill="none" stroke="#000000" d="M844.6619,-262.1312C861.1071,-271.5485 881.165,-283.0347 897.702,-292.5045"/>
<polygon fill="#000000" stroke="#000000" points="896.0644,-295.6 906.4816,-297.5322 899.543,-289.5255 896.0644,-295.6"/>
</g>
<!-- 140531499820704 -->
<g id="node35" class="node">
<title>140531499820704</title>
<ellipse fill="none" stroke="#000000" cx="1398" cy="-178" rx="27" ry="27"/>
<text text-anchor="middle" x="1398" y="-174.3" font-family="Times,serif" font-size="14.00" fill="#000000">({&#39;TradeSLSBBean&#39;, &#39;TradeServletAction&#39;}, {&#39;AccountProfileDataBean&#39;, &#39;HoldingDataBean&#39;, &#39;FinancialUtils&#39;, &#39;OrderDataBean&#39;, &#39;AccountDataBean&#39;})</text>
</g>
<!-- 140531500002384&#45;&gt;140531499820704 -->
<g id="edge56" class="edge">
<title>140531500002384&#45;&gt;140531499820704</title>
<path fill="none" stroke="#000000" d="M831.1737,-225.9985C867.4551,-192.0621 952.8511,-122 1039.5,-122 1039.5,-122 1039.5,-122 1149,-122 1226.976,-122 1315.4136,-148.4635 1363.0811,-165.0068"/>
<polygon fill="#000000" stroke="#000000" points="1362.0207,-168.3441 1372.6155,-168.3733 1364.3514,-161.7434 1362.0207,-168.3441"/>
</g>
<!-- 140531500002104 -->
<g id="node19" class="node">
<title>140531500002104</title>
<polygon fill="none" stroke="#000000" points="1335,-224 1212,-224 1212,-188 1335,-188 1335,-224"/>
<text text-anchor="middle" x="1273.5" y="-202.3" font-family="Times,serif" font-size="14.00" fill="#000000">TradeServletAction</text>
</g>
<!-- 140531500002104&#45;&gt;140531499819976 -->
<g id="edge57" class="edge">
<title>140531500002104&#45;&gt;140531499819976</title>
<path fill="none" stroke="#000000" d="M1214.414,-224.0612C1142.8705,-245.9304 1024.6536,-282.0666 965.7138,-300.0831"/>
<polygon fill="#000000" stroke="#000000" points="964.6403,-296.7513 956.1003,-303.0218 966.6866,-303.4456 964.6403,-296.7513"/>
</g>
<!-- 140531500002104&#45;&gt;140531499820704 -->
<g id="edge58" class="edge">
<title>140531500002104&#45;&gt;140531499820704</title>
<path fill="none" stroke="#000000" d="M1335.0205,-192.1641C1344.1668,-190.1071 1353.334,-188.0454 1361.7324,-186.1566"/>
<polygon fill="#000000" stroke="#000000" points="1362.5537,-189.5594 1371.542,-183.9504 1361.0177,-182.73 1362.5537,-189.5594"/>
</g>
<!-- 140531500001824 -->
<g id="node20" class="node">
<title>140531500001824</title>
<polygon fill="none" stroke="#000000" points="334,-802 242,-802 242,-766 334,-766 334,-802"/>
<text text-anchor="middle" x="288" y="-780.3" font-family="Times,serif" font-size="14.00" fill="#000000">artificial_start</text>
</g>
<!-- 140531500001824&#45;&gt;140531500001544 -->
<g id="edge59" class="edge">
<title>140531500001824&#45;&gt;140531500001544</title>
<path fill="none" stroke="#000000" d="M334.2258,-771.7014C343.2339,-769.3047 352.5508,-766.8259 361.161,-764.5351"/>
<polygon fill="#000000" stroke="#000000" points="362.1192,-767.902 370.8831,-761.9485 360.3194,-761.1374 362.1192,-767.902"/>
</g>
<!-- 140531499030288 -->
<g id="node21" class="node">
<title>140531499030288</title>
<ellipse fill="#00ff00" stroke="#000000" cx="179" cy="-793" rx="27" ry="27"/>
<text text-anchor="middle" x="179" y="-789.3" font-family="Times,serif" font-size="14.00" fill="#000000">1</text>
</g>
<!-- 140531499030288&#45;&gt;140531500001824 -->
<g id="edge60" class="edge">
<title>140531499030288&#45;&gt;140531500001824</title>
<path fill="none" stroke="#000000" d="M205.9438,-790.7753C213.8222,-790.1248 222.7432,-789.3882 231.7285,-788.6463"/>
<polygon fill="#000000" stroke="#000000" points="232.1702,-792.1218 241.8483,-787.8107 231.5941,-785.1455 232.1702,-792.1218"/>
</g>
<!-- 140531499876080&#45;&gt;140531500001656 -->
<g id="edge1" class="edge">
<title>140531499876080&#45;&gt;140531500001656</title>
<path fill="none" stroke="#000000" d="M205.1082,-279.9462C214.1766,-282.3589 224.7,-285.1587 235.143,-287.9371"/>
<polygon fill="#000000" stroke="#000000" points="234.5167,-291.3922 245.0804,-290.581 236.3165,-284.6275 234.5167,-291.3922"/>
</g>
<!-- 140531499875408&#45;&gt;140531500002384 -->
<g id="edge2" class="edge">
<title>140531499875408&#45;&gt;140531500002384</title>
<path fill="none" stroke="#000000" d="M722.8422,-233.9825C730.587,-234.843 739.3912,-235.8212 748.3904,-236.8212"/>
<polygon fill="#000000" stroke="#000000" points="748.2622,-240.3284 758.5876,-237.9542 749.0353,-233.3712 748.2622,-240.3284"/>
</g>
<!-- 140531499875408&#45;&gt;140531500002104 -->
<g id="edge3" class="edge">
<title>140531499875408&#45;&gt;140531500002104</title>
<path fill="none" stroke="#000000" d="M720.198,-218.4701C761.8736,-198.0874 850.399,-160 930,-160 930,-160 930,-160 1039.5,-160 1096.0084,-160 1158.7756,-173.0752 1205.0656,-185.2837"/>
<polygon fill="#000000" stroke="#000000" points="1204.4142,-188.7329 1214.9802,-187.9516 1206.2331,-181.9733 1204.4142,-188.7329"/>
</g>
<!-- 140531499875240&#45;&gt;140531500002384 -->
<g id="edge4" class="edge">
<title>140531499875240&#45;&gt;140531500002384</title>
<path fill="none" stroke="#000000" d="M1122.2586,-294.6227C1069.6972,-286.0189 951.6046,-266.6883 877.5094,-254.5596"/>
<polygon fill="#000000" stroke="#000000" points="877.7917,-251.0593 867.3576,-252.8978 876.6609,-257.9673 877.7917,-251.0593"/>
</g>
<!-- 140531499875240&#45;&gt;140531500002104 -->
<g id="edge5" class="edge">
<title>140531499875240&#45;&gt;140531500002104</title>
<path fill="none" stroke="#000000" d="M1167.0107,-278.7703C1178.9647,-266.0826 1195.4501,-249.9285 1212,-238 1216.2245,-234.9552 1220.7777,-232.0255 1225.4278,-229.259"/>
<polygon fill="#000000" stroke="#000000" points="1227.4579,-232.1314 1234.4288,-224.1528 1224.0039,-226.0429 1227.4579,-232.1314"/>
</g>
<!-- 140531500001152&#45;&gt;140531500002552 -->
<g id="edge6" class="edge">
<title>140531500001152&#45;&gt;140531500002552</title>
<path fill="none" stroke="#000000" d="M669.3308,-573.8379C613.0833,-563.9262 478.5466,-545.3756 370,-571 354.519,-574.6546 338.6284,-581.7041 325.0073,-588.9409"/>
<polygon fill="#000000" stroke="#000000" points="323.027,-586.0366 315.9728,-593.9416 326.4169,-592.161 323.027,-586.0366"/>
</g>
<!-- 140531500000312&#45;&gt;140531500000088 -->
<g id="edge7" class="edge">
<title>140531500000312&#45;&gt;140531500000088</title>
<path fill="none" stroke="#000000" d="M206.2241,-922.0009C217.1605,-921.5996 230.0713,-921.1258 242.3638,-920.6747"/>
<polygon fill="#000000" stroke="#000000" points="242.6223,-924.1677 252.4872,-920.3032 242.3656,-917.1724 242.6223,-924.1677"/>
</g>
<!-- 140531499874792&#45;&gt;140531500001656 -->
<g id="edge8" class="edge">
<title>140531499874792&#45;&gt;140531500001656</title>
<path fill="none" stroke="#000000" d="M1670.557,-204.8336C1660.3547,-252.6674 1637.1927,-349.9201 1613,-374 1541.9676,-444.7011 1498.221,-442 1398,-442 1039.5,-442 1039.5,-442 1039.5,-442 760.0009,-442 700.6202,-353.0124 424,-313 396.698,-309.0508 366.0922,-306.4183 340.8381,-304.7218"/>
<polygon fill="#000000" stroke="#000000" points="340.9308,-301.2207 330.7272,-304.0729 340.4824,-308.2063 340.9308,-301.2207"/>
</g>
<!-- 140531499875856&#45;&gt;140531500001488 -->
<g id="edge9" class="edge">
<title>140531499875856&#45;&gt;140531500001488</title>
<path fill="none" stroke="#000000" d="M194.5456,-650.758C207.1475,-632.8568 225.4661,-607.1249 242,-585 250.0787,-574.1894 259.1775,-562.4347 267.1374,-552.2833"/>
<polygon fill="#000000" stroke="#000000" points="270.0737,-554.2118 273.5085,-544.1891 264.5732,-549.8822 270.0737,-554.2118"/>
</g>
<!-- 140531499875856&#45;&gt;140531500002552 -->
<g id="edge10" class="edge">
<title>140531499875856&#45;&gt;140531500002552</title>
<path fill="none" stroke="#000000" d="M202.6514,-659.7639C215.5105,-652.5675 231.786,-643.4592 246.6681,-635.1307"/>
<polygon fill="#000000" stroke="#000000" points="248.6941,-638.0078 255.7112,-630.0699 245.2755,-631.8993 248.6941,-638.0078"/>
</g>
<!-- 140531500000760&#45;&gt;140531500001432 -->
<g id="edge11" class="edge">
<title>140531500000760&#45;&gt;140531500001432</title>
<path fill="none" stroke="#000000" d="M370.0758,-896.0561C358.9335,-894.5608 345.8667,-892.9833 334,-892 253.357,-885.3176 232.8465,-883.5659 152,-887 136.7102,-887.6495 120.0592,-888.8906 105.0774,-890.2049"/>
<polygon fill="#000000" stroke="#000000" points="104.6515,-886.7291 95.0094,-891.1202 105.2853,-893.7004 104.6515,-886.7291"/>
</g>
<!-- 140531499822104&#45;&gt;140531499030232 -->
<g id="edge12" class="edge">
<title>140531499822104&#45;&gt;140531499030232</title>
<path fill="none" stroke="#000000" d="M369.7189,-348.7729C323.1825,-347.4797 226.2853,-340.8075 152,-309 129.0302,-299.1648 105.6818,-283.5517 88.0008,-270.3296"/>
<polygon fill="#000000" stroke="#000000" points="89.874,-267.3561 79.8027,-264.0666 85.6244,-272.9187 89.874,-267.3561"/>
</g>
<!-- 140531499822104&#45;&gt;140531500002664 -->
<g id="edge13" class="edge">
<title>140531499822104&#45;&gt;140531500002664</title>
<path fill="none" stroke="#000000" d="M421.6869,-337.2758C442.7379,-327.2783 473.5925,-312.625 499.3565,-300.3892"/>
<polygon fill="#000000" stroke="#000000" points="501.0591,-303.4554 508.5906,-296.0038 498.0561,-297.1322 501.0591,-303.4554"/>
</g>
<!-- 140531500000424&#45;&gt;140531499030232 -->
<g id="edge14" class="edge">
<title>140531500000424&#45;&gt;140531499030232</title>
<path fill="none" stroke="#000000" d="M369.7541,-52.6801C321.5649,-49.9684 219.9804,-50.6402 152,-96 107.6756,-125.5754 80.2725,-183.896 67.2019,-218.4578"/>
<polygon fill="#000000" stroke="#000000" points="63.8791,-217.3538 63.7477,-227.9478 70.457,-219.748 63.8791,-217.3538"/>
</g>
<!-- 140531500000424&#45;&gt;140531500002328 -->
<g id="edge15" class="edge">
<title>140531500000424&#45;&gt;140531500002328</title>
<path fill="none" stroke="#000000" d="M424.201,-53.6331C476.7235,-51.1154 595.7689,-46 696,-46 696,-46 696,-46 1273.5,-46 1368.3457,-46 1463.9948,-115.2107 1509.5539,-153.4009"/>
<polygon fill="#000000" stroke="#000000" points="1507.326,-156.1008 1517.2075,-159.9227 1511.8661,-150.7728 1507.326,-156.1008"/>
</g>
<!-- 140531500001544&#45;&gt;140531500002496 -->
<g id="edge16" class="edge">
<title>140531500001544&#45;&gt;140531500002496</title>
<path fill="none" stroke="#000000" d="M369.9576,-751.4901C315.6261,-744.4382 192.0754,-728.4021 117.7981,-718.7614"/>
<polygon fill="#000000" stroke="#000000" points="118.0239,-715.2614 107.6566,-717.4451 117.1229,-722.2032 118.0239,-715.2614"/>
</g>
<!-- 140531500001544&#45;&gt;140531500000928 -->
<g id="edge17" class="edge">
<title>140531500001544&#45;&gt;140531500000928</title>
<path fill="none" stroke="#000000" d="M422.3606,-765.0085C441.1779,-772.4347 467.5532,-782.8438 491.1555,-792.1584"/>
<polygon fill="#000000" stroke="#000000" points="490.1395,-795.52 500.7262,-795.9354 492.7092,-789.0087 490.1395,-795.52"/>
</g>
<!-- 140531500001544&#45;&gt;140531500000256 -->
<g id="edge18" class="edge">
<title>140531500001544&#45;&gt;140531500000256</title>
<path fill="none" stroke="#000000" d="M424.0733,-753.1891C431.6739,-752.6807 440.4032,-752.0968 449.6263,-751.4798"/>
<polygon fill="#000000" stroke="#000000" points="450.0541,-754.9591 459.7982,-750.7995 449.5868,-747.9748 450.0541,-754.9591"/>
</g>
<!-- 140531500001544&#45;&gt;140531500002216 -->
<g id="edge19" class="edge">
<title>140531500001544&#45;&gt;140531500002216</title>
<path fill="none" stroke="#000000" d="M419.9453,-740.577C431.7209,-733.4197 446.4129,-724.861 460,-718 470.1491,-712.8751 481.1743,-707.8015 491.8489,-703.1304"/>
<polygon fill="#000000" stroke="#000000" points="493.3115,-706.3113 501.1084,-699.1379 490.5398,-699.8834 493.3115,-706.3113"/>
</g>
<!-- 140531500002160&#45;&gt;140531500001936 -->
<g id="edge20" class="edge">
<title>140531500002160&#45;&gt;140531500001936</title>
<path fill="none" stroke="#000000" d="M424.0733,-606.2756C447.9183,-605.6376 482.8722,-604.7024 509.3332,-603.9944"/>
<polygon fill="#000000" stroke="#000000" points="509.4731,-607.492 519.3759,-603.7257 509.2858,-600.4945 509.4731,-607.492"/>
</g>
<!-- 140531499819976&#45;&gt;140531499030232 -->
<g id="edge21" class="edge">
<title>140531499819976&#45;&gt;140531499030232</title>
<path fill="none" stroke="#000000" d="M904.9303,-321.4875C844.4438,-345.8094 685.2319,-404 546.5,-404 288,-404 288,-404 288,-404 195.8757,-404 113.7039,-316.8166 77.5322,-271.9743"/>
<polygon fill="#000000" stroke="#000000" points="80.2711,-269.7951 71.3214,-264.1246 74.7815,-274.1385 80.2711,-269.7951"/>
</g>
<!-- 140531499819976&#45;&gt;140531500001096 -->
<g id="edge22" class="edge">
<title>140531499819976&#45;&gt;140531500001096</title>
<path fill="none" stroke="#000000" d="M956.9527,-315.0968C994.0327,-320.5663 1062.9092,-330.129 1122,-335 1232.3815,-344.0991 1260.2818,-342.1103 1371,-345 1396.9441,-345.6771 1425.175,-346.1253 1450.8742,-346.4219"/>
<polygon fill="#000000" stroke="#000000" points="1450.9256,-349.9226 1460.9633,-346.5322 1451.0021,-342.923 1450.9256,-349.9226"/>
</g>
<!-- 140531499819976&#45;&gt;140531500002048 -->
<g id="edge23" class="edge">
<title>140531499819976&#45;&gt;140531500002048</title>
<path fill="none" stroke="#000000" d="M946.3331,-289.2532C958.3421,-274.0086 975.5474,-253.6428 993,-238 995.9532,-235.353 999.1348,-232.7432 1002.3986,-230.2251"/>
<polygon fill="#000000" stroke="#000000" points="1004.6226,-232.934 1010.5982,-224.1851 1000.471,-227.298 1004.6226,-232.934"/>
</g>
<!-- 140531499819976&#45;&gt;140531500002664 -->
<g id="edge24" class="edge">
<title>140531499819976&#45;&gt;140531500002664</title>
<path fill="none" stroke="#000000" d="M902.9662,-308.6738C842.1128,-303.4373 693.081,-290.6132 608.2387,-283.3126"/>
<polygon fill="#000000" stroke="#000000" points="608.4838,-279.8208 598.2205,-282.4505 607.8836,-286.7951 608.4838,-279.8208"/>
</g>
<!-- 140531499820704&#45;&gt;140531499030232 -->
<g id="edge25" class="edge">
<title>140531499820704&#45;&gt;140531499030232</title>
<path fill="none" stroke="#000000" d="M1379.7006,-157.9441C1368.0084,-146.3255 1351.9077,-132.3817 1335,-124 1259.2413,-86.444 1233.5567,-84 1149,-84 1039.5,-84 1039.5,-84 1039.5,-84 640.5183,-84 541.7676,-133.7497 152,-219 143.5036,-220.8583 134.6439,-223.054 125.9065,-225.3775"/>
<polygon fill="#000000" stroke="#000000" points="124.8478,-222.0383 116.1196,-228.0441 126.6879,-228.7921 124.8478,-222.0383"/>
</g>
<!-- 140531499820704&#45;&gt;140531500001096 -->
<g id="edge26" class="edge">
<title>140531499820704&#45;&gt;140531500001096</title>
<path fill="none" stroke="#000000" d="M1407.1282,-203.4959C1417.2907,-229.2656 1435.6811,-269.1537 1461,-297 1470.1442,-307.057 1481.7295,-316.0029 1493.0812,-323.4482"/>
<polygon fill="#000000" stroke="#000000" points="1491.342,-326.4889 1501.6721,-328.8427 1495.0645,-320.5607 1491.342,-326.4889"/>
</g>
<!-- 140531499820704&#45;&gt;140531500002048 -->
<g id="edge27" class="edge">
<title>140531499820704&#45;&gt;140531500002048</title>
<path fill="none" stroke="#000000" d="M1370.8384,-176.8752C1334.5636,-175.6635 1268.329,-174.4659 1212,-179 1173.1173,-182.1298 1129.7366,-188.9357 1096.2055,-194.9309"/>
<polygon fill="#000000" stroke="#000000" points="1095.345,-191.5299 1086.1314,-196.7605 1096.5959,-198.4172 1095.345,-191.5299"/>
</g>
<!-- 140531499820704&#45;&gt;140531500002608 -->
<g id="edge28" class="edge">
<title>140531499820704&#45;&gt;140531500002608</title>
<path fill="none" stroke="#000000" d="M1420.6421,-192.9861C1442.3876,-207.3788 1475.5887,-229.3537 1500.9681,-246.1516"/>
<polygon fill="#000000" stroke="#000000" points="1499.3166,-249.2557 1509.5873,-251.8564 1503.1802,-243.4184 1499.3166,-249.2557"/>
</g>
<!-- 140531499820704&#45;&gt;140531500002328 -->
<g id="edge29" class="edge">
<title>140531499820704&#45;&gt;140531500002328</title>
<path fill="none" stroke="#000000" d="M1425.1306,-178C1439.6604,-178 1458.1855,-178 1475.9611,-178"/>
<polygon fill="#000000" stroke="#000000" points="1476.3047,-181.5001 1486.3047,-178 1476.3046,-174.5001 1476.3047,-181.5001"/>
</g>
</g>
</svg>
