<?xml version="1.0" encoding="UTF-8" standalone="no"?>
<!DOCTYPE svg PUBLIC "-//W3C//DTD SVG 1.1//EN"
 "http://www.w3.org/Graphics/SVG/1.1/DTD/svg11.dtd">
<!-- Generated by graphviz version 2.40.1 (20161225.0304)
 -->
<!-- Title: alpha_classic_net_1585321017.7923954 Pages: 1 -->
<svg width="639pt" height="818pt"
 viewBox="0.00 0.00 639.00 818.00" xmlns="http://www.w3.org/2000/svg" xmlns:xlink="http://www.w3.org/1999/xlink">
<g id="graph0" class="graph" transform="scale(1 1) rotate(0) translate(4 814)">
<title>alpha_classic_net_1585321017.7923954</title>
<!-- 140531499414136 -->
<g id="node1" class="node">
<title>140531499414136</title>
<polygon fill="none" stroke="#000000" points="134,-36 18,-36 18,0 134,0 134,-36"/>
<text text-anchor="middle" x="76" y="-14.3" font-family="Times,serif" font-size="14.00" fill="#000000">AccountDataBean</text>
</g>
<!-- 140531499413800 -->
<g id="node2" class="node">
<title>140531499413800</title>
<polygon fill="none" stroke="#000000" points="152,-90 0,-90 0,-54 152,-54 152,-90"/>
<text text-anchor="middle" x="76" y="-68.3" font-family="Times,serif" font-size="14.00" fill="#000000">AccountProfileDataBean</text>
</g>
<!-- 140531499413912 -->
<g id="node3" class="node">
<title>140531499413912</title>
<polygon fill="none" stroke="#000000" points="324,-234 225,-234 225,-198 324,-198 324,-234"/>
<text text-anchor="middle" x="274.5" y="-212.3" font-family="Times,serif" font-size="14.00" fill="#000000">ActionDecoder</text>
</g>
<!-- 140531499985720 -->
<g id="node21" class="node">
<title>140531499985720</title>
<ellipse fill="none" stroke="#000000" cx="424" cy="-135" rx="27" ry="27"/>
<text text-anchor="middle" x="424" y="-131.3" font-family="Times,serif" font-size="14.00" fill="#000000">({&#39;ActionDecoder&#39;, &#39;OrdersAlertFilter&#39;, &#39;DTStreamer3MDB&#39;, &#39;MarketSummaryWebSocket&#39;}, {&#39;Root&#39;})</text>
</g>
<!-- 140531499413912&#45;&gt;140531499985720 -->
<g id="edge2" class="edge">
<title>140531499413912&#45;&gt;140531499985720</title>
<path fill="none" stroke="#000000" d="M324.4189,-204.195C336.7829,-200.2634 349.7138,-195.2479 361,-189 374.1842,-181.7014 387.1131,-171.3509 397.7939,-161.6613"/>
<polygon fill="#000000" stroke="#000000" points="400.2394,-164.1662 405.1454,-154.7756 395.4542,-159.0572 400.2394,-164.1662"/>
</g>
<!-- 140531499986840 -->
<g id="node4" class="node">
<title>140531499986840</title>
<polygon fill="none" stroke="#000000" points="335.5,-180 213.5,-180 213.5,-144 335.5,-144 335.5,-180"/>
<text text-anchor="middle" x="274.5" y="-158.3" font-family="Times,serif" font-size="14.00" fill="#000000">DTStreamer3MDB</text>
</g>
<!-- 140531499986840&#45;&gt;140531499985720 -->
<g id="edge3" class="edge">
<title>140531499986840&#45;&gt;140531499985720</title>
<path fill="none" stroke="#000000" d="M335.7387,-150.9402C353.1665,-147.7927 371.6079,-144.4621 387.1018,-141.6639"/>
<polygon fill="#000000" stroke="#000000" points="388.09,-145.0421 397.3088,-139.8205 386.8459,-138.1536 388.09,-145.0421"/>
</g>
<!-- 140531499986616 -->
<g id="node5" class="node">
<title>140531499986616</title>
<polygon fill="none" stroke="#000000" points="122.5,-216 29.5,-216 29.5,-180 122.5,-180 122.5,-216"/>
<text text-anchor="middle" x="76" y="-194.3" font-family="Times,serif" font-size="14.00" fill="#000000">FinancialUtils</text>
</g>
<!-- 140531499414360 -->
<g id="node6" class="node">
<title>140531499414360</title>
<polygon fill="none" stroke="#000000" points="133,-270 19,-270 19,-234 133,-234 133,-270"/>
<text text-anchor="middle" x="76" y="-248.3" font-family="Times,serif" font-size="14.00" fill="#000000">HoldingDataBean</text>
</g>
<!-- 140531499413968 -->
<g id="node7" class="node">
<title>140531499413968</title>
<polygon fill="none" stroke="#000000" points="103,-324 49,-324 49,-288 103,-288 103,-324"/>
<text text-anchor="middle" x="76" y="-302.3" font-family="Times,serif" font-size="14.00" fill="#000000">Log</text>
</g>
<!-- 140531499413576 -->
<g id="node8" class="node">
<title>140531499413576</title>
<polygon fill="none" stroke="#000000" points="113,-378 39,-378 39,-342 113,-342 113,-378"/>
<text text-anchor="middle" x="76" y="-356.3" font-family="Times,serif" font-size="14.00" fill="#000000">MDBStats</text>
</g>
<!-- 140531499413856 -->
<g id="node9" class="node">
<title>140531499413856</title>
<polygon fill="none" stroke="#000000" points="361,-126 188,-126 188,-90 361,-90 361,-126"/>
<text text-anchor="middle" x="274.5" y="-104.3" font-family="Times,serif" font-size="14.00" fill="#000000">MarketSummaryWebSocket</text>
</g>
<!-- 140531499413856&#45;&gt;140531499985720 -->
<g id="edge4" class="edge">
<title>140531499413856&#45;&gt;140531499985720</title>
<path fill="none" stroke="#000000" d="M361.0318,-123.6278C370.294,-125.3006 379.3086,-126.9286 387.4874,-128.4057"/>
<polygon fill="#000000" stroke="#000000" points="386.893,-131.8549 397.3559,-130.188 388.1372,-124.9664 386.893,-131.8549"/>
</g>
<!-- 140531499414248 -->
<g id="node10" class="node">
<title>140531499414248</title>
<polygon fill="none" stroke="#000000" points="126.5,-432 25.5,-432 25.5,-396 126.5,-396 126.5,-432"/>
<text text-anchor="middle" x="76" y="-410.3" font-family="Times,serif" font-size="14.00" fill="#000000">OrderDataBean</text>
</g>
<!-- 140531499414528 -->
<g id="node11" class="node">
<title>140531499414528</title>
<polygon fill="none" stroke="#000000" points="329.5,-72 219.5,-72 219.5,-36 329.5,-36 329.5,-72"/>
<text text-anchor="middle" x="274.5" y="-50.3" font-family="Times,serif" font-size="14.00" fill="#000000">OrdersAlertFilter</text>
</g>
<!-- 140531499414528&#45;&gt;140531499985720 -->
<g id="edge5" class="edge">
<title>140531499414528&#45;&gt;140531499985720</title>
<path fill="none" stroke="#000000" d="M329.8765,-67.6011C340.5323,-71.2309 351.3654,-75.6664 361,-81 374.1842,-88.2986 387.1131,-98.6491 397.7939,-108.3387"/>
<polygon fill="#000000" stroke="#000000" points="395.4542,-110.9428 405.1454,-115.2244 400.2394,-105.8338 395.4542,-110.9428"/>
</g>
<!-- 140531499413632 -->
<g id="node12" class="node">
<title>140531499413632</title>
<polygon fill="none" stroke="#000000" points="127.5,-486 24.5,-486 24.5,-450 127.5,-450 127.5,-486"/>
<text text-anchor="middle" x="76" y="-464.3" font-family="Times,serif" font-size="14.00" fill="#000000">QuoteDataBean</text>
</g>
<!-- 140531499986672 -->
<g id="node13" class="node">
<title>140531499986672</title>
<polygon fill="none" stroke="#000000" points="541,-153 487,-153 487,-117 541,-117 541,-153"/>
<text text-anchor="middle" x="514" y="-131.3" font-family="Times,serif" font-size="14.00" fill="#000000">Root</text>
</g>
<!-- 140531499986000 -->
<g id="node22" class="node">
<title>140531499986000</title>
<ellipse fill="#ffa500" stroke="#000000" cx="604" cy="-135" rx="27" ry="27"/>
</g>
<!-- 140531499986672&#45;&gt;140531499986000 -->
<g id="edge6" class="edge">
<title>140531499986672&#45;&gt;140531499986000</title>
<path fill="none" stroke="#000000" d="M541.003,-135C549.0277,-135 557.9665,-135 566.5309,-135"/>
<polygon fill="#000000" stroke="#000000" points="566.7051,-138.5001 576.705,-135 566.705,-131.5001 566.7051,-138.5001"/>
</g>
<!-- 140531499413744 -->
<g id="node14" class="node">
<title>140531499413744</title>
<polygon fill="none" stroke="#000000" points="111.5,-540 40.5,-540 40.5,-504 111.5,-504 111.5,-540"/>
<text text-anchor="middle" x="76" y="-518.3" font-family="Times,serif" font-size="14.00" fill="#000000">TimerStat</text>
</g>
<!-- 140531499986280 -->
<g id="node15" class="node">
<title>140531499986280</title>
<polygon fill="none" stroke="#000000" points="118.5,-594 33.5,-594 33.5,-558 118.5,-558 118.5,-594"/>
<text text-anchor="middle" x="76" y="-572.3" font-family="Times,serif" font-size="14.00" fill="#000000">TradeAction</text>
</g>
<!-- 140531499414192 -->
<g id="node16" class="node">
<title>140531499414192</title>
<polygon fill="none" stroke="#000000" points="131,-648 21,-648 21,-612 131,-612 131,-648"/>
<text text-anchor="middle" x="76" y="-626.3" font-family="Times,serif" font-size="14.00" fill="#000000">TradeAppServlet</text>
</g>
<!-- 140531499986112 -->
<g id="node17" class="node">
<title>140531499986112</title>
<polygon fill="none" stroke="#000000" points="119,-702 33,-702 33,-666 119,-666 119,-702"/>
<text text-anchor="middle" x="76" y="-680.3" font-family="Times,serif" font-size="14.00" fill="#000000">TradeConfig</text>
</g>
<!-- 140531499414080 -->
<g id="node18" class="node">
<title>140531499414080</title>
<polygon fill="none" stroke="#000000" points="130,-756 22,-756 22,-720 130,-720 130,-756"/>
<text text-anchor="middle" x="76" y="-734.3" font-family="Times,serif" font-size="14.00" fill="#000000">TradeSLSBBean</text>
</g>
<!-- 140531499413688 -->
<g id="node19" class="node">
<title>140531499413688</title>
<polygon fill="none" stroke="#000000" points="137.5,-810 14.5,-810 14.5,-774 137.5,-774 137.5,-810"/>
<text text-anchor="middle" x="76" y="-788.3" font-family="Times,serif" font-size="14.00" fill="#000000">TradeServletAction</text>
</g>
<!-- 140531499986448 -->
<g id="node20" class="node">
<title>140531499986448</title>
<ellipse fill="#00ff00" stroke="#000000" cx="76" cy="-135" rx="27" ry="27"/>
<text text-anchor="middle" x="76" y="-131.3" font-family="Times,serif" font-size="14.00" fill="#000000">1</text>
</g>
<!-- 140531499986448&#45;&gt;140531499413912 -->
<g id="edge7" class="edge">
<title>140531499986448&#45;&gt;140531499413912</title>
<path fill="none" stroke="#000000" d="M100.7073,-146.5411C115.6029,-153.5394 134.9346,-162.693 152,-171 168.0842,-178.8294 171.4082,-182.3133 188,-189 196.5725,-192.4548 205.7661,-195.746 214.8441,-198.7666"/>
<polygon fill="#000000" stroke="#000000" points="214.0225,-202.1795 224.6145,-201.933 216.1807,-195.5204 214.0225,-202.1795"/>
</g>
<!-- 140531499986448&#45;&gt;140531499986840 -->
<g id="edge8" class="edge">
<title>140531499986448&#45;&gt;140531499986840</title>
<path fill="none" stroke="#000000" d="M102.7706,-138.6413C128.3908,-142.1262 168.179,-147.5382 203.0079,-152.2756"/>
<polygon fill="#000000" stroke="#000000" points="202.7781,-155.7765 213.1587,-153.6563 203.7216,-148.8404 202.7781,-155.7765"/>
</g>
<!-- 140531499986448&#45;&gt;140531499413856 -->
<g id="edge9" class="edge">
<title>140531499986448&#45;&gt;140531499413856</title>
<path fill="none" stroke="#000000" d="M102.7706,-131.3587C122.2803,-128.7049 150.0056,-124.9337 177.5006,-121.1939"/>
<polygon fill="#000000" stroke="#000000" points="178.1672,-124.6355 187.6042,-119.8196 177.2237,-117.6994 178.1672,-124.6355"/>
</g>
<!-- 140531499986448&#45;&gt;140531499414528 -->
<g id="edge10" class="edge">
<title>140531499986448&#45;&gt;140531499414528</title>
<path fill="none" stroke="#000000" d="M100.7073,-123.4589C115.6029,-116.4606 134.9346,-107.307 152,-99 168.0842,-91.1706 171.4082,-87.6867 188,-81 194.8215,-78.2508 202.0363,-75.6053 209.2732,-73.1173"/>
<polygon fill="#000000" stroke="#000000" points="210.745,-76.3158 219.1205,-69.8272 208.5268,-69.6766 210.745,-76.3158"/>
</g>
<!-- 140531499985720&#45;&gt;140531499986672 -->
<g id="edge1" class="edge">
<title>140531499985720&#45;&gt;140531499986672</title>
<path fill="none" stroke="#000000" d="M451.003,-135C459.0277,-135 467.9665,-135 476.5309,-135"/>
<polygon fill="#000000" stroke="#000000" points="476.7051,-138.5001 486.705,-135 476.705,-131.5001 476.7051,-138.5001"/>
</g>
</g>
</svg>
