<?xml version="1.0" encoding="UTF-8" standalone="no"?>
<!DOCTYPE svg PUBLIC "-//W3C//DTD SVG 1.1//EN"
 "http://www.w3.org/Graphics/SVG/1.1/DTD/svg11.dtd">
<!-- Generated by graphviz version 2.40.1 (20161225.0304)
 -->
<!-- Title: alpha_plus_net_1586496131.787732 Pages: 1 -->
<svg width="1624pt" height="1169pt"
 viewBox="0.00 0.00 1624.00 1169.01" xmlns="http://www.w3.org/2000/svg" xmlns:xlink="http://www.w3.org/1999/xlink">
<g id="graph0" class="graph" transform="scale(1 1) rotate(0) translate(4 1165.0095)">
<title>alpha_plus_net_1586496131.787732</title>
<!-- 139748203028776 -->
<g id="node1" class="node">
<title>139748203028776</title>
<polygon fill="none" stroke="#000000" points="116,-489.0095 0,-489.0095 0,-453.0095 116,-453.0095 116,-489.0095"/>
<text text-anchor="middle" x="58" y="-467.3095" font-family="Times,serif" font-size="14.00" fill="#000000">AccountDataBean</text>
</g>
<!-- 139748203032528 -->
<g id="node22" class="node">
<title>139748203032528</title>
<ellipse fill="none" stroke="#000000" cx="179" cy="-300.0095" rx="27" ry="27"/>
<text text-anchor="middle" x="179" y="-296.3095" font-family="Times,serif" font-size="14.00" fill="#000000">({&#39;HoldingDataBean&#39;, &#39;FinancialUtils&#39;, &#39;AccountProfileDataBean&#39;, &#39;OrderDataBean&#39;, &#39;AccountDataBean&#39;}, {&#39;TradeServletAction&#39;, &#39;TradeSLSBBean&#39;})</text>
</g>
<!-- 139748203028776&#45;&gt;139748203032528 -->
<g id="edge30" class="edge">
<title>139748203028776&#45;&gt;139748203032528</title>
<path fill="none" stroke="#000000" d="M70.9491,-452.7095C91.5757,-423.5596 132.123,-366.2571 157.2573,-330.7368"/>
<polygon fill="#000000" stroke="#000000" points="160.3746,-332.3906 163.2938,-322.2059 154.6605,-328.3473 160.3746,-332.3906"/>
</g>
<!-- 139748203031912 -->
<g id="node25" class="node">
<title>139748203031912</title>
<ellipse fill="none" stroke="#000000" cx="712" cy="-491.0095" rx="27" ry="27"/>
<text text-anchor="middle" x="712" y="-487.3095" font-family="Times,serif" font-size="14.00" fill="#000000">({&#39;OrderDataBean&#39;, &#39;AccountDataBean&#39;}, {&#39;TradeAction&#39;})</text>
</g>
<!-- 139748203028776&#45;&gt;139748203031912 -->
<g id="edge31" class="edge">
<title>139748203028776&#45;&gt;139748203031912</title>
<path fill="none" stroke="#000000" d="M116.094,-478.2468C164.219,-483.6162 234.4454,-490.0095 296,-490.0095 296,-490.0095 296,-490.0095 413,-490.0095 507.1204,-490.0095 617.9053,-490.5111 674.5353,-490.8038"/>
<polygon fill="#000000" stroke="#000000" points="674.7726,-494.305 684.7908,-490.8576 674.8094,-487.3051 674.7726,-494.305"/>
</g>
<!-- 139748203031688 -->
<g id="node27" class="node">
<title>139748203031688</title>
<ellipse fill="none" stroke="#000000" cx="1152" cy="-518.0095" rx="27" ry="27"/>
<text text-anchor="middle" x="1152" y="-514.3095" font-family="Times,serif" font-size="14.00" fill="#000000">({&#39;QuoteDataBean&#39;, &#39;AccountDataBean&#39;}, {&#39;TradeAction&#39;})</text>
</g>
<!-- 139748203028776&#45;&gt;139748203031688 -->
<g id="edge32" class="edge">
<title>139748203028776&#45;&gt;139748203031688</title>
<path fill="none" stroke="#000000" d="M71.9546,-489.0194C105.6334,-530.2582 196.0103,-628.0095 296,-628.0095 296,-628.0095 296,-628.0095 923,-628.0095 1001.8124,-628.0095 1082.1733,-574.4162 1123.5227,-542.0464"/>
<polygon fill="#000000" stroke="#000000" points="1125.8652,-544.655 1131.5,-535.6829 1121.4999,-539.1828 1125.8652,-544.655"/>
</g>
<!-- 139748203032136 -->
<g id="node28" class="node">
<title>139748203032136</title>
<ellipse fill="none" stroke="#000000" cx="1152" cy="-408.0095" rx="27" ry="27"/>
<text text-anchor="middle" x="1152" y="-404.3095" font-family="Times,serif" font-size="14.00" fill="#000000">({&#39;QuoteDataBean&#39;, &#39;FinancialUtils&#39;, &#39;AccountProfileDataBean&#39;, &#39;AccountDataBean&#39;}, {&#39;TradeServletAction&#39;, &#39;TradeSLSBBean&#39;})</text>
</g>
<!-- 139748203028776&#45;&gt;139748203032136 -->
<g id="edge33" class="edge">
<title>139748203028776&#45;&gt;139748203032136</title>
<path fill="none" stroke="#000000" d="M116.094,-463.7722C164.219,-458.4028 234.4454,-452.0095 296,-452.0095 296,-452.0095 296,-452.0095 413,-452.0095 552.0752,-452.0095 984.142,-420.5645 1114.4335,-410.8402"/>
<polygon fill="#000000" stroke="#000000" points="1114.9822,-414.309 1124.6932,-410.0727 1114.4599,-407.3285 1114.9822,-414.309"/>
</g>
<!-- 139748203028720 -->
<g id="node2" class="node">
<title>139748203028720</title>
<polygon fill="none" stroke="#000000" points="1616,-196.0095 1464,-196.0095 1464,-160.0095 1616,-160.0095 1616,-196.0095"/>
<text text-anchor="middle" x="1540" y="-174.3095" font-family="Times,serif" font-size="14.00" fill="#000000">AccountProfileDataBean</text>
</g>
<!-- 139748203028720&#45;&gt;139748203032528 -->
<g id="edge34" class="edge">
<title>139748203028720&#45;&gt;139748203032528</title>
<path fill="none" stroke="#000000" d="M1530.3136,-159.6167C1513.5923,-129.7268 1476.3991,-70.8539 1428,-40.0095 1369.4584,-2.7014 1345.9191,-2.0095 1276.5,-2.0095 712,-2.0095 712,-2.0095 712,-2.0095 606.4269,-2.0095 574.1727,9.8209 476,-29.0095 355.4836,-76.6776 330.6925,-108.5104 242,-203.0095 223.9679,-222.2222 207.8692,-247.224 196.4596,-267.0325"/>
<polygon fill="#000000" stroke="#000000" points="193.2614,-265.5788 191.4025,-276.0093 199.3602,-269.0146 193.2614,-265.5788"/>
</g>
<!-- 139748203028720&#45;&gt;139748203032136 -->
<g id="edge35" class="edge">
<title>139748203028720&#45;&gt;139748203032136</title>
<path fill="none" stroke="#000000" d="M1520.8074,-196.0516C1499.2877,-215.7216 1462.8281,-247.4067 1428,-270.0095 1345.7163,-323.4102 1239.9431,-371.0194 1186.3767,-393.8031"/>
<polygon fill="#000000" stroke="#000000" points="1184.8495,-390.6487 1176.9996,-397.7643 1187.5735,-397.097 1184.8495,-390.6487"/>
</g>
<!-- 139748205100952 -->
<g id="node3" class="node">
<title>139748205100952</title>
<polygon fill="none" stroke="#000000" points="107.5,-904.0095 8.5,-904.0095 8.5,-868.0095 107.5,-868.0095 107.5,-904.0095"/>
<text text-anchor="middle" x="58" y="-882.3095" font-family="Times,serif" font-size="14.00" fill="#000000">ActionDecoder</text>
</g>
<!-- 139748203188688 -->
<g id="node26" class="node">
<title>139748203188688</title>
<ellipse fill="none" stroke="#000000" cx="179" cy="-858.0095" rx="27" ry="27"/>
<text text-anchor="middle" x="179" y="-854.3095" font-family="Times,serif" font-size="14.00" fill="#000000">({&#39;OrdersAlertFilter&#39;, &#39;MarketSummaryWebSocket&#39;, &#39;DTStreamer3MDB&#39;, &#39;ActionDecoder&#39;}, {&#39;TradeConfig&#39;, &#39;Root&#39;})</text>
</g>
<!-- 139748205100952&#45;&gt;139748203188688 -->
<g id="edge36" class="edge">
<title>139748205100952&#45;&gt;139748203188688</title>
<path fill="none" stroke="#000000" d="M107.5645,-874.5401C119.3571,-871.8112 131.7231,-868.9496 142.7891,-866.3889"/>
<polygon fill="#000000" stroke="#000000" points="143.579,-869.7987 152.5325,-864.1342 142.0009,-862.9789 143.579,-869.7987"/>
</g>
<!-- 139748205100840 -->
<g id="node4" class="node">
<title>139748205100840</title>
<polygon fill="none" stroke="#000000" points="623.5,-1018.0095 501.5,-1018.0095 501.5,-982.0095 623.5,-982.0095 623.5,-1018.0095"/>
<text text-anchor="middle" x="562.5" y="-996.3095" font-family="Times,serif" font-size="14.00" fill="#000000">DTStreamer3MDB</text>
</g>
<!-- 139748205100840&#45;&gt;139748203188688 -->
<g id="edge37" class="edge">
<title>139748205100840&#45;&gt;139748203188688</title>
<path fill="none" stroke="#000000" d="M501.4569,-1017.5634C432.5312,-1033.55 319.8667,-1047.7261 242,-997.0095 223.7362,-985.1138 202.9257,-931.093 190.3861,-894.0084"/>
<polygon fill="#000000" stroke="#000000" points="193.5513,-892.4339 187.0776,-884.0469 186.9081,-894.6403 193.5513,-892.4339"/>
</g>
<!-- 139748205100616 -->
<g id="node5" class="node">
<title>139748205100616</title>
<polygon fill="none" stroke="#000000" points="1586.5,-307.0095 1493.5,-307.0095 1493.5,-271.0095 1586.5,-271.0095 1586.5,-307.0095"/>
<text text-anchor="middle" x="1540" y="-285.3095" font-family="Times,serif" font-size="14.00" fill="#000000">FinancialUtils</text>
</g>
<!-- 139748205100616&#45;&gt;139748203032528 -->
<g id="edge38" class="edge">
<title>139748205100616&#45;&gt;139748203032528</title>
<path fill="none" stroke="#000000" d="M1493.3826,-298.0738C1390.7442,-317.2145 1137.3021,-360.0095 923,-360.0095 413,-360.0095 413,-360.0095 413,-360.0095 340.1302,-360.0095 258.3831,-332.3703 213.3767,-314.6101"/>
<polygon fill="#000000" stroke="#000000" points="214.665,-311.3559 204.0811,-310.8751 212.0551,-317.8511 214.665,-311.3559"/>
</g>
<!-- 139748205100616&#45;&gt;139748203032136 -->
<g id="edge39" class="edge">
<title>139748205100616&#45;&gt;139748203032136</title>
<path fill="none" stroke="#000000" d="M1519.1794,-307.0348C1484.4909,-335.5776 1411.4031,-389.5313 1338,-405.0095 1287.3064,-415.6991 1227.109,-414.1698 1189.2243,-411.5376"/>
<polygon fill="#000000" stroke="#000000" points="1189.3928,-408.0405 1179.1571,-410.7752 1188.8642,-415.0205 1189.3928,-408.0405"/>
</g>
<!-- 139748203028832 -->
<g id="node6" class="node">
<title>139748203028832</title>
<polygon fill="none" stroke="#000000" points="619.5,-218.0095 505.5,-218.0095 505.5,-182.0095 619.5,-182.0095 619.5,-218.0095"/>
<text text-anchor="middle" x="562.5" y="-196.3095" font-family="Times,serif" font-size="14.00" fill="#000000">HoldingDataBean</text>
</g>
<!-- 139748203028832&#45;&gt;139748203032528 -->
<g id="edge40" class="edge">
<title>139748203028832&#45;&gt;139748203032528</title>
<path fill="none" stroke="#000000" d="M505.3738,-199.7061C425.8676,-200.1439 286.5873,-204.281 242,-227.0095 224.1712,-236.0978 209.256,-252.6156 198.4209,-267.6429"/>
<polygon fill="#000000" stroke="#000000" points="195.2876,-266.0236 192.5217,-276.251 201.0618,-269.9808 195.2876,-266.0236"/>
</g>
<!-- 139748203028664 -->
<g id="node7" class="node">
<title>139748203028664</title>
<polygon fill="none" stroke="#000000" points="589.5,-807.0095 535.5,-807.0095 535.5,-771.0095 589.5,-771.0095 589.5,-807.0095"/>
<text text-anchor="middle" x="562.5" y="-785.3095" font-family="Times,serif" font-size="14.00" fill="#000000">Log</text>
</g>
<!-- 139748203029224 -->
<g id="node23" class="node">
<title>139748203029224</title>
<ellipse fill="none" stroke="#000000" cx="712" cy="-765.0095" rx="27" ry="27"/>
<text text-anchor="middle" x="712" y="-761.3095" font-family="Times,serif" font-size="14.00" fill="#000000">({&#39;Log&#39;}, {&#39;TradeConfig&#39;})</text>
</g>
<!-- 139748203028664&#45;&gt;139748203029224 -->
<g id="edge41" class="edge">
<title>139748203028664&#45;&gt;139748203029224</title>
<path fill="none" stroke="#000000" d="M589.5733,-784.6633C613.4926,-780.8234 648.5901,-775.189 675.0802,-770.9364"/>
<polygon fill="#000000" stroke="#000000" points="675.8093,-774.3643 685.1281,-769.3234 674.6997,-767.4528 675.8093,-774.3643"/>
</g>
<!-- 139748205100392 -->
<g id="node8" class="node">
<title>139748205100392</title>
<polygon fill="none" stroke="#000000" points="95,-1107.0095 21,-1107.0095 21,-1071.0095 95,-1071.0095 95,-1107.0095"/>
<text text-anchor="middle" x="58" y="-1085.3095" font-family="Times,serif" font-size="14.00" fill="#000000">MDBStats</text>
</g>
<!-- 139748203029672 -->
<g id="node24" class="node">
<title>139748203029672</title>
<ellipse fill="none" stroke="#000000" cx="179" cy="-1117.0095" rx="27" ry="27"/>
<text text-anchor="middle" x="179" y="-1113.3095" font-family="Times,serif" font-size="14.00" fill="#000000">({&#39;MDBStats&#39;}, {&#39;TimerStat&#39;})</text>
</g>
<!-- 139748205100392&#45;&gt;139748203029672 -->
<g id="edge42" class="edge">
<title>139748205100392&#45;&gt;139748203029672</title>
<path fill="none" stroke="#000000" d="M95.2913,-1097.6389C110.2988,-1101.1117 127.552,-1105.1042 142.4808,-1108.5588"/>
<polygon fill="#000000" stroke="#000000" points="141.8571,-1112.0069 152.3887,-1110.8515 143.4353,-1105.1871 141.8571,-1112.0069"/>
</g>
<!-- 139748205100896 -->
<g id="node9" class="node">
<title>139748205100896</title>
<polygon fill="none" stroke="#000000" points="649,-949.0095 476,-949.0095 476,-913.0095 649,-913.0095 649,-949.0095"/>
<text text-anchor="middle" x="562.5" y="-927.3095" font-family="Times,serif" font-size="14.00" fill="#000000">MarketSummaryWebSocket</text>
</g>
<!-- 139748205100896&#45;&gt;139748203188688 -->
<g id="edge43" class="edge">
<title>139748205100896&#45;&gt;139748203188688</title>
<path fill="none" stroke="#000000" d="M479.9026,-912.9612C466.5807,-910.1994 452.9237,-907.4568 440,-905.0095 352.3439,-888.4109 329.5761,-889.0255 242,-872.0095 233.3042,-870.3199 223.9706,-868.3386 215.2226,-866.4069"/>
<polygon fill="#000000" stroke="#000000" points="215.8187,-862.9538 205.2954,-864.1826 214.2882,-869.7844 215.8187,-862.9538"/>
</g>
<!-- 139748205100728 -->
<g id="node10" class="node">
<title>139748205100728</title>
<polygon fill="none" stroke="#000000" points="613,-424.0095 512,-424.0095 512,-388.0095 613,-388.0095 613,-424.0095"/>
<text text-anchor="middle" x="562.5" y="-402.3095" font-family="Times,serif" font-size="14.00" fill="#000000">OrderDataBean</text>
</g>
<!-- 139748205100728&#45;&gt;139748203032528 -->
<g id="edge44" class="edge">
<title>139748205100728&#45;&gt;139748203032528</title>
<path fill="none" stroke="#000000" d="M511.7302,-412.1357C445.6153,-417.7112 328.3143,-419.2221 242,-374.0095 223.8404,-364.4973 208.7273,-347.3455 197.8593,-331.9483"/>
<polygon fill="#000000" stroke="#000000" points="200.752,-329.9778 192.2659,-323.6346 194.9441,-333.8853 200.752,-329.9778"/>
</g>
<!-- 139748205100728&#45;&gt;139748203031912 -->
<g id="edge45" class="edge">
<title>139748205100728&#45;&gt;139748203031912</title>
<path fill="none" stroke="#000000" d="M594.2051,-424.0358C619.2436,-438.2718 654.0567,-458.0652 679.3396,-472.44"/>
<polygon fill="#000000" stroke="#000000" points="677.7643,-475.5705 688.1873,-477.4705 681.2241,-469.4853 677.7643,-475.5705"/>
</g>
<!-- 139748205100784 -->
<g id="node11" class="node">
<title>139748205100784</title>
<polygon fill="none" stroke="#000000" points="617.5,-885.0095 507.5,-885.0095 507.5,-849.0095 617.5,-849.0095 617.5,-885.0095"/>
<text text-anchor="middle" x="562.5" y="-863.3095" font-family="Times,serif" font-size="14.00" fill="#000000">OrdersAlertFilter</text>
</g>
<!-- 139748205100784&#45;&gt;139748203188688 -->
<g id="edge46" class="edge">
<title>139748205100784&#45;&gt;139748203188688</title>
<path fill="none" stroke="#000000" d="M507.3992,-865.7164C428.2583,-863.8591 284.4727,-860.4848 216.5083,-858.8898"/>
<polygon fill="#000000" stroke="#000000" points="216.3523,-855.3852 206.2729,-858.6496 216.188,-862.3833 216.3523,-855.3852"/>
</g>
<!-- 139748205100560 -->
<g id="node12" class="node">
<title>139748205100560</title>
<polygon fill="none" stroke="#000000" points="1089,-486.0095 986,-486.0095 986,-450.0095 1089,-450.0095 1089,-486.0095"/>
<text text-anchor="middle" x="1037.5" y="-464.3095" font-family="Times,serif" font-size="14.00" fill="#000000">QuoteDataBean</text>
</g>
<!-- 139748205100560&#45;&gt;139748203031688 -->
<g id="edge47" class="edge">
<title>139748205100560&#45;&gt;139748203031688</title>
<path fill="none" stroke="#000000" d="M1078.8371,-486.0607C1091.5744,-491.6228 1105.4533,-497.6835 1117.6659,-503.0165"/>
<polygon fill="#000000" stroke="#000000" points="1116.4843,-506.3196 1127.0493,-507.114 1119.2857,-499.9045 1116.4843,-506.3196"/>
</g>
<!-- 139748205100560&#45;&gt;139748203032136 -->
<g id="edge48" class="edge">
<title>139748205100560&#45;&gt;139748203032136</title>
<path fill="none" stroke="#000000" d="M1071.8538,-450.0075C1086.6596,-442.249 1103.9116,-433.2087 1118.6087,-425.5071"/>
<polygon fill="#000000" stroke="#000000" points="1120.6135,-428.4081 1127.8465,-420.6664 1117.3644,-422.2078 1120.6135,-428.4081"/>
</g>
<!-- 139748205100448 -->
<g id="node13" class="node">
<title>139748205100448</title>
<polygon fill="none" stroke="#000000" points="323,-733.0095 269,-733.0095 269,-697.0095 323,-697.0095 323,-733.0095"/>
<text text-anchor="middle" x="296" y="-711.3095" font-family="Times,serif" font-size="14.00" fill="#000000">Root</text>
</g>
<!-- 139748203029000 -->
<g id="node36" class="node">
<title>139748203029000</title>
<ellipse fill="#ffa500" stroke="#000000" cx="413" cy="-683.0095" rx="27" ry="27"/>
</g>
<!-- 139748205100448&#45;&gt;139748203029000 -->
<g id="edge49" class="edge">
<title>139748205100448&#45;&gt;139748203029000</title>
<path fill="none" stroke="#000000" d="M323.1362,-707.5876C339.1625,-703.2044 359.6475,-697.6016 377.0107,-692.8527"/>
<polygon fill="#000000" stroke="#000000" points="378.0934,-696.1852 386.8158,-690.171 376.2466,-689.4332 378.0934,-696.1852"/>
</g>
<!-- 139748205100280 -->
<g id="node14" class="node">
<title>139748205100280</title>
<polygon fill="none" stroke="#000000" points="331.5,-1131.0095 260.5,-1131.0095 260.5,-1095.0095 331.5,-1095.0095 331.5,-1131.0095"/>
<text text-anchor="middle" x="296" y="-1109.3095" font-family="Times,serif" font-size="14.00" fill="#000000">TimerStat</text>
</g>
<!-- 139748203029840 -->
<g id="node29" class="node">
<title>139748203029840</title>
<ellipse fill="none" stroke="#000000" cx="413" cy="-1094.0095" rx="27" ry="27"/>
<text text-anchor="middle" x="413" y="-1090.3095" font-family="Times,serif" font-size="14.00" fill="#000000">({&#39;TimerStat&#39;}, {&#39;MDBStats&#39;})</text>
</g>
<!-- 139748205100280&#45;&gt;139748203029840 -->
<g id="edge50" class="edge">
<title>139748205100280&#45;&gt;139748203029840</title>
<path fill="none" stroke="#000000" d="M331.7396,-1107.2056C345.7996,-1104.9224 361.9376,-1102.3017 376.1077,-1100.0006"/>
<polygon fill="#000000" stroke="#000000" points="376.7105,-1103.4486 386.0201,-1098.3909 375.5884,-1096.5391 376.7105,-1103.4486"/>
</g>
<!-- 139748205100336 -->
<g id="node15" class="node">
<title>139748205100336</title>
<polygon fill="none" stroke="#000000" points="860,-556.0095 775,-556.0095 775,-520.0095 860,-520.0095 860,-556.0095"/>
<text text-anchor="middle" x="817.5" y="-534.3095" font-family="Times,serif" font-size="14.00" fill="#000000">TradeAction</text>
</g>
<!-- 139748203030624 -->
<g id="node30" class="node">
<title>139748203030624</title>
<ellipse fill="none" stroke="#000000" cx="923" cy="-463.0095" rx="27" ry="27"/>
<text text-anchor="middle" x="923" y="-459.3095" font-family="Times,serif" font-size="14.00" fill="#000000">({&#39;TradeAction&#39;}, {&#39;OrderDataBean&#39;, &#39;AccountDataBean&#39;})</text>
</g>
<!-- 139748205100336&#45;&gt;139748203030624 -->
<g id="edge51" class="edge">
<title>139748205100336&#45;&gt;139748203030624</title>
<path fill="none" stroke="#000000" d="M843.0386,-519.8541C857.9603,-509.2463 876.8823,-495.7946 892.5731,-484.64"/>
<polygon fill="#000000" stroke="#000000" points="894.7894,-487.3588 900.9119,-478.712 890.7335,-481.6535 894.7894,-487.3588"/>
</g>
<!-- 139748203030400 -->
<g id="node31" class="node">
<title>139748203030400</title>
<ellipse fill="none" stroke="#000000" cx="923" cy="-573.0095" rx="27" ry="27"/>
<text text-anchor="middle" x="923" y="-569.3095" font-family="Times,serif" font-size="14.00" fill="#000000">({&#39;TradeAction&#39;}, {&#39;QuoteDataBean&#39;, &#39;AccountDataBean&#39;})</text>
</g>
<!-- 139748205100336&#45;&gt;139748203030400 -->
<g id="edge52" class="edge">
<title>139748205100336&#45;&gt;139748203030400</title>
<path fill="none" stroke="#000000" d="M860.1068,-552.1445C869.2479,-555.1771 878.8113,-558.3498 887.6424,-561.2795"/>
<polygon fill="#000000" stroke="#000000" points="886.6469,-564.6368 897.2403,-564.4636 888.8511,-557.9928 886.6469,-564.6368"/>
</g>
<!-- 139748203028552 -->
<g id="node16" class="node">
<title>139748203028552</title>
<polygon fill="none" stroke="#000000" points="113,-1161.0095 3,-1161.0095 3,-1125.0095 113,-1125.0095 113,-1161.0095"/>
<text text-anchor="middle" x="58" y="-1139.3095" font-family="Times,serif" font-size="14.00" fill="#000000">TradeAppServlet</text>
</g>
<!-- 139748205100504 -->
<g id="node17" class="node">
<title>139748205100504</title>
<polygon fill="none" stroke="#000000" points="339,-816.0095 253,-816.0095 253,-780.0095 339,-780.0095 339,-816.0095"/>
<text text-anchor="middle" x="296" y="-794.3095" font-family="Times,serif" font-size="14.00" fill="#000000">TradeConfig</text>
</g>
<!-- 139748203030008 -->
<g id="node32" class="node">
<title>139748203030008</title>
<ellipse fill="none" stroke="#000000" cx="413" cy="-941.0095" rx="27" ry="27"/>
<text text-anchor="middle" x="413" y="-937.3095" font-family="Times,serif" font-size="14.00" fill="#000000">({&#39;TradeConfig&#39;, &#39;artificial_start&#39;}, {&#39;OrdersAlertFilter&#39;, &#39;MarketSummaryWebSocket&#39;, &#39;DTStreamer3MDB&#39;, &#39;ActionDecoder&#39;})</text>
</g>
<!-- 139748205100504&#45;&gt;139748203030008 -->
<g id="edge53" class="edge">
<title>139748205100504&#45;&gt;139748203030008</title>
<path fill="none" stroke="#000000" d="M310.8181,-816.1206C330.5181,-840.1983 365.5727,-883.0428 389.0527,-911.7406"/>
<polygon fill="#000000" stroke="#000000" points="386.6005,-914.2707 395.6418,-919.7939 392.0182,-909.838 386.6005,-914.2707"/>
</g>
<!-- 139748203029336 -->
<g id="node33" class="node">
<title>139748203029336</title>
<ellipse fill="none" stroke="#000000" cx="413" cy="-793.0095" rx="27" ry="27"/>
<text text-anchor="middle" x="413" y="-789.3095" font-family="Times,serif" font-size="14.00" fill="#000000">({&#39;TradeConfig&#39;}, {&#39;Log&#39;})</text>
</g>
<!-- 139748205100504&#45;&gt;139748203029336 -->
<g id="edge54" class="edge">
<title>139748205100504&#45;&gt;139748203029336</title>
<path fill="none" stroke="#000000" d="M339.2341,-796.1619C351.1954,-795.6507 364.0722,-795.1004 375.6668,-794.6049"/>
<polygon fill="#000000" stroke="#000000" points="376.05,-798.0919 385.8914,-794.168 375.751,-791.0982 376.05,-798.0919"/>
</g>
<!-- 139748203028608 -->
<g id="node18" class="node">
<title>139748203028608</title>
<polygon fill="none" stroke="#000000" points="350,-272.0095 242,-272.0095 242,-236.0095 350,-236.0095 350,-272.0095"/>
<text text-anchor="middle" x="296" y="-250.3095" font-family="Times,serif" font-size="14.00" fill="#000000">TradeSLSBBean</text>
</g>
<!-- 139748203031240 -->
<g id="node34" class="node">
<title>139748203031240</title>
<ellipse fill="none" stroke="#000000" cx="413" cy="-153.0095" rx="27" ry="27"/>
<text text-anchor="middle" x="413" y="-149.3095" font-family="Times,serif" font-size="14.00" fill="#000000">({&#39;TradeServletAction&#39;, &#39;TradeSLSBBean&#39;}, {&#39;HoldingDataBean&#39;, &#39;FinancialUtils&#39;, &#39;AccountProfileDataBean&#39;, &#39;OrderDataBean&#39;, &#39;AccountDataBean&#39;})</text>
</g>
<!-- 139748203028608&#45;&gt;139748203031240 -->
<g id="edge55" class="edge">
<title>139748203028608&#45;&gt;139748203031240</title>
<path fill="none" stroke="#000000" d="M316.9173,-235.9527C335.801,-219.6513 363.7454,-195.5285 384.6362,-177.4945"/>
<polygon fill="#000000" stroke="#000000" points="386.9812,-180.0939 392.2638,-170.91 382.407,-174.7951 386.9812,-180.0939"/>
</g>
<!-- 139748203030848 -->
<g id="node35" class="node">
<title>139748203030848</title>
<ellipse fill="none" stroke="#000000" cx="1401" cy="-234.0095" rx="27" ry="27"/>
<text text-anchor="middle" x="1401" y="-230.3095" font-family="Times,serif" font-size="14.00" fill="#000000">({&#39;TradeServletAction&#39;, &#39;TradeSLSBBean&#39;}, {&#39;QuoteDataBean&#39;, &#39;FinancialUtils&#39;, &#39;AccountProfileDataBean&#39;, &#39;AccountDataBean&#39;})</text>
</g>
<!-- 139748203028608&#45;&gt;139748203030848 -->
<g id="edge56" class="edge">
<title>139748203028608&#45;&gt;139748203030848</title>
<path fill="none" stroke="#000000" d="M350.0897,-251.4342C403.922,-249.0956 488.9018,-246.0095 562.5,-246.0095 562.5,-246.0095 562.5,-246.0095 712,-246.0095 935.609,-246.0095 991.4117,-238.0552 1215,-235.0095 1266.4293,-234.309 1325.8637,-234.093 1363.4336,-234.0299"/>
<polygon fill="#000000" stroke="#000000" points="1363.8964,-237.5293 1373.8915,-234.0153 1363.8866,-230.5293 1363.8964,-237.5293"/>
</g>
<!-- 139748203028888 -->
<g id="node19" class="node">
<title>139748203028888</title>
<polygon fill="none" stroke="#000000" points="1338,-280.0095 1215,-280.0095 1215,-244.0095 1338,-244.0095 1338,-280.0095"/>
<text text-anchor="middle" x="1276.5" y="-258.3095" font-family="Times,serif" font-size="14.00" fill="#000000">TradeServletAction</text>
</g>
<!-- 139748203028888&#45;&gt;139748203031240 -->
<g id="edge57" class="edge">
<title>139748203028888&#45;&gt;139748203031240</title>
<path fill="none" stroke="#000000" d="M1214.747,-252.0722C1102.4106,-234.2584 857.0061,-196.5554 649,-173.0095 578.8748,-165.0715 496.7007,-158.7877 450.1536,-155.508"/>
<polygon fill="#000000" stroke="#000000" points="450.1664,-152.0005 439.9473,-154.7969 449.6798,-158.9836 450.1664,-152.0005"/>
</g>
<!-- 139748203028888&#45;&gt;139748203030848 -->
<g id="edge58" class="edge">
<title>139748203028888&#45;&gt;139748203030848</title>
<path fill="none" stroke="#000000" d="M1338.0205,-248.1736C1347.1668,-246.1166 1356.334,-244.0549 1364.7324,-242.1661"/>
<polygon fill="#000000" stroke="#000000" points="1365.5537,-245.5689 1374.542,-239.9599 1364.0177,-238.7395 1365.5537,-245.5689"/>
</g>
<!-- 139748205101008 -->
<g id="node20" class="node">
<title>139748205101008</title>
<polygon fill="none" stroke="#000000" points="342,-988.0095 250,-988.0095 250,-952.0095 342,-952.0095 342,-988.0095"/>
<text text-anchor="middle" x="296" y="-966.3095" font-family="Times,serif" font-size="14.00" fill="#000000">artificial_start</text>
</g>
<!-- 139748205101008&#45;&gt;139748203030008 -->
<g id="edge59" class="edge">
<title>139748205101008&#45;&gt;139748203030008</title>
<path fill="none" stroke="#000000" d="M342.2415,-958.5479C353.665,-955.7165 365.7414,-952.7232 376.6208,-950.0266"/>
<polygon fill="#000000" stroke="#000000" points="377.7602,-953.3502 386.6244,-947.5471 376.076,-946.5558 377.7602,-953.3502"/>
</g>
<!-- 139748205100224 -->
<g id="node21" class="node">
<title>139748205100224</title>
<ellipse fill="#00ff00" stroke="#000000" cx="179" cy="-979.0095" rx="27" ry="27"/>
<text text-anchor="middle" x="179" y="-975.3095" font-family="Times,serif" font-size="14.00" fill="#000000">1</text>
</g>
<!-- 139748205100224&#45;&gt;139748205101008 -->
<g id="edge60" class="edge">
<title>139748205100224&#45;&gt;139748205101008</title>
<path fill="none" stroke="#000000" d="M206.1362,-976.9221C216.1608,-976.151 227.93,-975.2457 239.5884,-974.3489"/>
<polygon fill="#000000" stroke="#000000" points="240.0564,-977.8233 249.7585,-973.5665 239.5195,-970.8439 240.0564,-977.8233"/>
</g>
<!-- 139748203032528&#45;&gt;139748203028608 -->
<g id="edge1" class="edge">
<title>139748203032528&#45;&gt;139748203028608</title>
<path fill="none" stroke="#000000" d="M204.3873,-290.0282C214.9915,-285.859 227.7601,-280.8389 240.3521,-275.8882"/>
<polygon fill="#000000" stroke="#000000" points="241.8822,-279.0475 249.9081,-272.1311 239.3209,-272.5329 241.8822,-279.0475"/>
</g>
<!-- 139748203032528&#45;&gt;139748203028888 -->
<g id="edge2" class="edge">
<title>139748203032528&#45;&gt;139748203028888</title>
<path fill="none" stroke="#000000" d="M205.9511,-298.1113C268.5304,-293.873 428.5581,-284.0095 562.5,-284.0095 562.5,-284.0095 562.5,-284.0095 1037.5,-284.0095 1093.7891,-284.0095 1157.2225,-277.8835 1204.5865,-272.0968"/>
<polygon fill="#000000" stroke="#000000" points="1205.2534,-275.5408 1214.7438,-270.831 1204.3877,-268.5946 1205.2534,-275.5408"/>
</g>
<!-- 139748203029224&#45;&gt;139748205100504 -->
<g id="edge3" class="edge">
<title>139748203029224&#45;&gt;139748205100504</title>
<path fill="none" stroke="#000000" d="M685.4019,-760.161C629.2888,-750.8428 494.9924,-733.353 386,-757.0095 368.9087,-760.7191 351.1699,-767.9676 336.0047,-775.3516"/>
<polygon fill="#000000" stroke="#000000" points="334.2731,-772.305 326.9236,-779.9362 337.4279,-778.5538 334.2731,-772.305"/>
</g>
<!-- 139748203029672&#45;&gt;139748205100280 -->
<g id="edge4" class="edge">
<title>139748203029672&#45;&gt;139748205100280</title>
<path fill="none" stroke="#000000" d="M206.1362,-1116.0818C219.1902,-1115.6355 235.2023,-1115.0881 250.076,-1114.5796"/>
<polygon fill="#000000" stroke="#000000" points="250.2663,-1118.0752 260.1409,-1114.2355 250.0271,-1111.0793 250.2663,-1118.0752"/>
</g>
<!-- 139748203031912&#45;&gt;139748205100336 -->
<g id="edge5" class="edge">
<title>139748203031912&#45;&gt;139748205100336</title>
<path fill="none" stroke="#000000" d="M736.7351,-502.0289C745.9677,-506.142 756.8133,-510.9737 767.5073,-515.7379"/>
<polygon fill="#000000" stroke="#000000" points="766.2629,-519.0151 776.8218,-519.8875 769.1115,-512.6209 766.2629,-519.0151"/>
</g>
<!-- 139748203188688&#45;&gt;139748205100448 -->
<g id="edge6" class="edge">
<title>139748203188688&#45;&gt;139748205100448</title>
<path fill="none" stroke="#000000" d="M194.2189,-835.1885C206.4896,-817.248 224.523,-791.8865 242,-771.0095 250.7563,-760.5498 261.0087,-749.6267 270.2137,-740.2341"/>
<polygon fill="#000000" stroke="#000000" points="272.765,-742.632 277.3228,-733.0676 267.7954,-737.7021 272.765,-742.632"/>
</g>
<!-- 139748203188688&#45;&gt;139748205100504 -->
<g id="edge7" class="edge">
<title>139748203188688&#45;&gt;139748205100504</title>
<path fill="none" stroke="#000000" d="M203.2425,-845.5775C217.2483,-838.395 235.2992,-829.1381 251.7494,-820.7021"/>
<polygon fill="#000000" stroke="#000000" points="253.3868,-823.7959 260.6879,-816.1183 250.1925,-817.5672 253.3868,-823.7959"/>
</g>
<!-- 139748203031688&#45;&gt;139748205100336 -->
<g id="edge8" class="edge">
<title>139748203031688&#45;&gt;139748205100336</title>
<path fill="none" stroke="#000000" d="M1125.0328,-519.6219C1069.7692,-522.9262 942.7901,-530.5183 870.4639,-534.8428"/>
<polygon fill="#000000" stroke="#000000" points="869.9777,-531.3655 860.2044,-535.4562 870.3955,-538.353 869.9777,-531.3655"/>
</g>
<!-- 139748203032136&#45;&gt;139748203028608 -->
<g id="edge9" class="edge">
<title>139748203032136&#45;&gt;139748203028608</title>
<path fill="none" stroke="#000000" d="M1129.3299,-393.2256C1089.3741,-368.6369 1003.0523,-322.0095 923,-322.0095 562.5,-322.0095 562.5,-322.0095 562.5,-322.0095 486.3065,-322.0095 401.5573,-295.5901 348.5209,-275.6865"/>
<polygon fill="#000000" stroke="#000000" points="349.5869,-272.3472 338.9961,-272.0537 347.0923,-278.8876 349.5869,-272.3472"/>
</g>
<!-- 139748203032136&#45;&gt;139748203028888 -->
<g id="edge10" class="edge">
<title>139748203032136&#45;&gt;139748203028888</title>
<path fill="none" stroke="#000000" d="M1162.6248,-382.8478C1173.3373,-359.6245 1191.6164,-325.1782 1215,-301.0095 1220.4395,-295.3874 1226.8423,-290.2047 1233.425,-285.5774"/>
<polygon fill="#000000" stroke="#000000" points="1235.4015,-288.4663 1241.8002,-280.0219 1231.5322,-282.6329 1235.4015,-288.4663"/>
</g>
<!-- 139748203029840&#45;&gt;139748205100392 -->
<g id="edge11" class="edge">
<title>139748203029840&#45;&gt;139748205100392</title>
<path fill="none" stroke="#000000" d="M386.0779,-1090.0398C374.9359,-1088.5406 361.8688,-1086.9671 350,-1086.0095 262.2571,-1078.9302 239.9487,-1077.2738 152,-1081.0095 136.7102,-1081.659 120.0592,-1082.9001 105.0774,-1084.2144"/>
<polygon fill="#000000" stroke="#000000" points="104.6515,-1080.7386 95.0094,-1085.1297 105.2853,-1087.7099 104.6515,-1080.7386"/>
</g>
<!-- 139748203030624&#45;&gt;139748203028776 -->
<g id="edge12" class="edge">
<title>139748203030624&#45;&gt;139748203028776</title>
<path fill="none" stroke="#000000" d="M897.0475,-470.5276C867.2708,-479.36 817.1235,-494.8686 775,-511.0095 758.6501,-517.2745 755.9082,-522.4621 739,-527.0095 662.8098,-547.5006 641.3977,-546.0095 562.5,-546.0095 296,-546.0095 296,-546.0095 296,-546.0095 225.4774,-546.0095 148.409,-515.6838 101.6347,-493.5994"/>
<polygon fill="#000000" stroke="#000000" points="102.9399,-490.3434 92.4108,-489.1649 99.9069,-496.6522 102.9399,-490.3434"/>
</g>
<!-- 139748203030624&#45;&gt;139748205100728 -->
<g id="edge13" class="edge">
<title>139748203030624&#45;&gt;139748205100728</title>
<path fill="none" stroke="#000000" d="M896.1157,-458.7587C838.7003,-449.6806 702.8719,-428.2042 623.3623,-415.6327"/>
<polygon fill="#000000" stroke="#000000" points="623.4295,-412.0999 613.0056,-413.9951 622.3362,-419.014 623.4295,-412.0999"/>
</g>
<!-- 139748203030400&#45;&gt;139748203028776 -->
<g id="edge14" class="edge">
<title>139748203030400&#45;&gt;139748203028776</title>
<path fill="none" stroke="#000000" d="M896.0442,-575.3155C855.9493,-578.541 778.2105,-584.0095 712,-584.0095 296,-584.0095 296,-584.0095 296,-584.0095 214.0965,-584.0095 130.3288,-528.7244 87.3759,-495.494"/>
<polygon fill="#000000" stroke="#000000" points="89.3634,-492.6041 79.3422,-489.1649 85.0314,-498.1027 89.3634,-492.6041"/>
</g>
<!-- 139748203030400&#45;&gt;139748205100560 -->
<g id="edge15" class="edge">
<title>139748203030400&#45;&gt;139748205100560</title>
<path fill="none" stroke="#000000" d="M942.9444,-554.7199C961.5794,-537.631 989.5548,-511.9768 1010.2456,-493.0027"/>
<polygon fill="#000000" stroke="#000000" points="1012.7795,-495.4278 1017.7842,-486.0895 1008.0484,-490.2687 1012.7795,-495.4278"/>
</g>
<!-- 139748203030008&#45;&gt;139748205100952 -->
<g id="edge16" class="edge">
<title>139748203030008&#45;&gt;139748205100952</title>
<path fill="none" stroke="#000000" d="M386.0812,-936.839C329.2816,-928.039 195.9958,-907.3891 117.9073,-895.2909"/>
<polygon fill="#000000" stroke="#000000" points="118.153,-891.7873 107.735,-893.7149 117.0812,-898.7048 118.153,-891.7873"/>
</g>
<!-- 139748203030008&#45;&gt;139748205100840 -->
<g id="edge17" class="edge">
<title>139748203030008&#45;&gt;139748205100840</title>
<path fill="none" stroke="#000000" d="M438.3606,-951.0181C457.1779,-958.4443 483.5532,-968.8533 507.1555,-978.1679"/>
<polygon fill="#000000" stroke="#000000" points="506.1395,-981.5295 516.7262,-981.9449 508.7092,-975.0183 506.1395,-981.5295"/>
</g>
<!-- 139748203030008&#45;&gt;139748205100896 -->
<g id="edge18" class="edge">
<title>139748203030008&#45;&gt;139748205100896</title>
<path fill="none" stroke="#000000" d="M440.0733,-939.1986C447.6739,-938.6902 456.4032,-938.1063 465.6263,-937.4894"/>
<polygon fill="#000000" stroke="#000000" points="466.0541,-940.9687 475.7982,-936.809 465.5868,-933.9843 466.0541,-940.9687"/>
</g>
<!-- 139748203030008&#45;&gt;139748205100784 -->
<g id="edge19" class="edge">
<title>139748203030008&#45;&gt;139748205100784</title>
<path fill="none" stroke="#000000" d="M435.9453,-926.5865C447.7209,-919.4292 462.4129,-910.8705 476,-904.0095 486.1491,-898.8846 497.1743,-893.8111 507.8489,-889.1399"/>
<polygon fill="#000000" stroke="#000000" points="509.3115,-892.3209 517.1084,-885.1474 506.5398,-885.8929 509.3115,-892.3209"/>
</g>
<!-- 139748203029336&#45;&gt;139748203028664 -->
<g id="edge20" class="edge">
<title>139748203029336&#45;&gt;139748203028664</title>
<path fill="none" stroke="#000000" d="M440.0733,-792.2851C463.9183,-791.6471 498.8722,-790.7119 525.3332,-790.0039"/>
<polygon fill="#000000" stroke="#000000" points="525.4731,-793.5015 535.3759,-789.7352 525.2858,-786.5041 525.4731,-793.5015"/>
</g>
<!-- 139748203031240&#45;&gt;139748203028776 -->
<g id="edge21" class="edge">
<title>139748203031240&#45;&gt;139748203028776</title>
<path fill="none" stroke="#000000" d="M386.1501,-156.4114C332.9393,-164.6281 213.9082,-190.6142 152,-264.0095 105.5685,-319.0564 77.5732,-400.7868 65.3202,-443.203"/>
<polygon fill="#000000" stroke="#000000" points="61.9434,-442.2822 62.6089,-452.8561 68.6826,-444.1751 61.9434,-442.2822"/>
</g>
<!-- 139748203031240&#45;&gt;139748203028720 -->
<g id="edge22" class="edge">
<title>139748203031240&#45;&gt;139748203028720</title>
<path fill="none" stroke="#000000" d="M428.3761,-130.3121C445.8837,-104.6185 472.5252,-66.0365 476,-64.0095 567.0679,-10.8861 606.5701,-40.0095 712,-40.0095 712,-40.0095 712,-40.0095 1276.5,-40.0095 1344.673,-40.0095 1367.3954,-32.7902 1428,-64.0095 1468.0613,-84.6463 1502.3725,-124.9862 1522.1037,-151.7204"/>
<polygon fill="#000000" stroke="#000000" points="1519.2991,-153.8152 1527.9864,-159.88 1524.9773,-149.7215 1519.2991,-153.8152"/>
</g>
<!-- 139748203031240&#45;&gt;139748205100616 -->
<g id="edge23" class="edge">
<title>139748203031240&#45;&gt;139748205100616</title>
<path fill="none" stroke="#000000" d="M438.0634,-142.2638C488.7816,-121.5257 607.6402,-78.0095 712,-78.0095 712,-78.0095 712,-78.0095 1276.5,-78.0095 1305.8409,-78.0095 1313.1324,-86.4374 1338,-102.0095 1411.9265,-148.3023 1483.1186,-223.6395 1517.8977,-263.075"/>
<polygon fill="#000000" stroke="#000000" points="1515.5388,-265.6946 1524.7544,-270.9218 1520.81,-261.0886 1515.5388,-265.6946"/>
</g>
<!-- 139748203031240&#45;&gt;139748203028832 -->
<g id="edge24" class="edge">
<title>139748203031240&#45;&gt;139748203028832</title>
<path fill="none" stroke="#000000" d="M439.0409,-161.1963C454.7856,-166.1461 475.6368,-172.7013 495.713,-179.0129"/>
<polygon fill="#000000" stroke="#000000" points="494.8912,-182.4234 505.4806,-182.0837 496.9907,-175.7456 494.8912,-182.4234"/>
</g>
<!-- 139748203031240&#45;&gt;139748205100728 -->
<g id="edge25" class="edge">
<title>139748203031240&#45;&gt;139748205100728</title>
<path fill="none" stroke="#000000" d="M426.7966,-176.3577C454.5712,-223.3608 517.0854,-329.1541 546.5553,-379.0262"/>
<polygon fill="#000000" stroke="#000000" points="543.7227,-381.1125 551.8233,-387.9413 549.7492,-377.5514 543.7227,-381.1125"/>
</g>
<!-- 139748203030848&#45;&gt;139748203028776 -->
<g id="edge26" class="edge">
<title>139748203030848&#45;&gt;139748203028776</title>
<path fill="none" stroke="#000000" d="M1380.2743,-216.3437C1339.4577,-183.4257 1244.5659,-116.0095 1152,-116.0095 712,-116.0095 712,-116.0095 712,-116.0095 459.2517,-116.0095 312.3129,-19.6087 152,-215.0095 94.806,-284.7217 70.6854,-392.3971 62.0831,-442.9659"/>
<polygon fill="#000000" stroke="#000000" points="58.6253,-442.4239 60.4767,-452.8557 65.5348,-443.5463 58.6253,-442.4239"/>
</g>
<!-- 139748203030848&#45;&gt;139748203028720 -->
<g id="edge27" class="edge">
<title>139748203030848&#45;&gt;139748203028720</title>
<path fill="none" stroke="#000000" d="M1426.1719,-223.8683C1442.7936,-217.1718 1465.2211,-208.1363 1485.7738,-199.856"/>
<polygon fill="#000000" stroke="#000000" points="1487.0898,-203.0993 1495.0574,-196.1159 1484.4739,-196.6064 1487.0898,-203.0993"/>
</g>
<!-- 139748203030848&#45;&gt;139748205100616 -->
<g id="edge28" class="edge">
<title>139748203030848&#45;&gt;139748205100616</title>
<path fill="none" stroke="#000000" d="M1426.1719,-243.9696C1442.5836,-250.4635 1464.6554,-259.1969 1484.9941,-267.2446"/>
<polygon fill="#000000" stroke="#000000" points="1483.9112,-270.5801 1494.4975,-271.0049 1486.4867,-264.0711 1483.9112,-270.5801"/>
</g>
<!-- 139748203030848&#45;&gt;139748205100560 -->
<g id="edge29" class="edge">
<title>139748203030848&#45;&gt;139748205100560</title>
<path fill="none" stroke="#000000" d="M1384.9607,-256.2297C1351.9235,-300.1521 1271.5706,-397.82 1179,-444.0095 1154.495,-456.2367 1124.9491,-462.3886 1099.2078,-465.4281"/>
<polygon fill="#000000" stroke="#000000" points="1098.7585,-461.956 1089.1786,-466.481 1099.4894,-468.9177 1098.7585,-461.956"/>
</g>
</g>
</svg>
