<?xml version="1.0" encoding="UTF-8" standalone="no"?>
<!DOCTYPE svg PUBLIC "-//W3C//DTD SVG 1.1//EN"
 "http://www.w3.org/Graphics/SVG/1.1/DTD/svg11.dtd">
<!-- Generated by graphviz version 2.40.1 (20161225.0304)
 -->
<!-- Title: imdf_net_1586496131.8216364 Pages: 1 -->
<svg width="918pt" height="928pt"
 viewBox="0.00 0.00 918.00 928.00" xmlns="http://www.w3.org/2000/svg" xmlns:xlink="http://www.w3.org/1999/xlink">
<g id="graph0" class="graph" transform="scale(1 1) rotate(0) translate(4 924)">
<title>imdf_net_1586496131.8216364</title>
<!-- 139748206068848 -->
<g id="node1" class="node">
<title>139748206068848</title>
<polygon fill="none" stroke="#000000" points="116,-413 0,-413 0,-377 116,-377 116,-413"/>
<text text-anchor="middle" x="58" y="-391.3" font-family="Times,serif" font-size="14.00" fill="#000000">AccountDataBean</text>
</g>
<!-- 139748205753232 -->
<g id="node29" class="node">
<title>139748205753232</title>
<ellipse fill="none" stroke="#000000" cx="179" cy="-442" rx="27" ry="27"/>
<text text-anchor="middle" x="179" y="-438.3" font-family="Times,serif" font-size="14.00" fill="#000000">p_6</text>
</g>
<!-- 139748206068848&#45;&gt;139748205753232 -->
<g id="edge11" class="edge">
<title>139748206068848&#45;&gt;139748205753232</title>
<path fill="none" stroke="#000000" d="M104.4357,-413.037C117.5826,-418.1437 131.6676,-423.6147 144.0161,-428.4112"/>
<polygon fill="#000000" stroke="#000000" points="142.9073,-431.7352 153.4961,-432.0935 145.4419,-425.2102 142.9073,-431.7352"/>
</g>
<!-- 139748206070024 -->
<g id="node2" class="node">
<title>139748206070024</title>
<polygon fill="none" stroke="#000000" points="809.5,-684 657.5,-684 657.5,-648 809.5,-648 809.5,-684"/>
<text text-anchor="middle" x="733.5" y="-662.3" font-family="Times,serif" font-size="14.00" fill="#000000">AccountProfileDataBean</text>
</g>
<!-- 139748206070024&#45;&gt;139748205753232 -->
<g id="edge10" class="edge">
<title>139748206070024&#45;&gt;139748205753232</title>
<path fill="none" stroke="#000000" d="M657.3448,-658.4446C605.1067,-653.9043 534.1749,-649 471.5,-649 359,-649 359,-649 359,-649 300.561,-649 281.8735,-631.7225 242,-589 212.8533,-557.7707 195.9857,-510.9854 187.1653,-478.6206"/>
<polygon fill="#000000" stroke="#000000" points="190.4793,-477.4571 184.5789,-468.6573 183.7039,-479.216 190.4793,-477.4571"/>
</g>
<!-- 139748205754968 -->
<g id="node3" class="node">
<title>139748205754968</title>
<polygon fill="none" stroke="#000000" points="521,-919 422,-919 422,-883 521,-883 521,-919"/>
<text text-anchor="middle" x="471.5" y="-897.3" font-family="Times,serif" font-size="14.00" fill="#000000">ActionDecoder</text>
</g>
<!-- 139749146323936 -->
<g id="node27" class="node">
<title>139749146323936</title>
<ellipse fill="none" stroke="#000000" cx="584" cy="-892" rx="27" ry="27"/>
<text text-anchor="middle" x="584" y="-888.3" font-family="Times,serif" font-size="14.00" fill="#000000">p_4</text>
</g>
<!-- 139748205754968&#45;&gt;139749146323936 -->
<g id="edge5" class="edge">
<title>139748205754968&#45;&gt;139749146323936</title>
<path fill="none" stroke="#000000" d="M521.1716,-897.0263C529.7801,-896.3376 538.5971,-895.6322 546.8009,-894.9759"/>
<polygon fill="#000000" stroke="#000000" points="547.1137,-898.4622 556.8028,-894.1758 546.5555,-891.4845 547.1137,-898.4622"/>
</g>
<!-- 139748205753456 -->
<g id="node4" class="node">
<title>139748205753456</title>
<polygon fill="none" stroke="#000000" points="794.5,-630 672.5,-630 672.5,-594 794.5,-594 794.5,-630"/>
<text text-anchor="middle" x="733.5" y="-608.3" font-family="Times,serif" font-size="14.00" fill="#000000">DTStreamer3MDB</text>
</g>
<!-- 139748205753456&#45;&gt;139748205753232 -->
<g id="edge2" class="edge">
<title>139748205753456&#45;&gt;139748205753232</title>
<path fill="none" stroke="#000000" d="M672.3561,-611.6347C619.2577,-611.3491 540.2982,-611 471.5,-611 359,-611 359,-611 359,-611 301.1573,-611 284.0906,-593.6757 242,-554 219.3136,-532.6152 202.6221,-501.2029 192.1409,-477.0832"/>
<polygon fill="#000000" stroke="#000000" points="195.2511,-475.4488 188.1628,-467.5743 188.7934,-478.1504 195.2511,-475.4488"/>
</g>
<!-- 139748206071368 -->
<g id="node5" class="node">
<title>139748206071368</title>
<polygon fill="none" stroke="#000000" points="780,-576 687,-576 687,-540 780,-540 780,-576"/>
<text text-anchor="middle" x="733.5" y="-554.3" font-family="Times,serif" font-size="14.00" fill="#000000">FinancialUtils</text>
</g>
<!-- 139748206071368&#45;&gt;139748205753232 -->
<g id="edge9" class="edge">
<title>139748206071368&#45;&gt;139748205753232</title>
<path fill="none" stroke="#000000" d="M686.6913,-562.2984C634.3129,-566.7309 546.9028,-573 471.5,-573 359,-573 359,-573 359,-573 302.2745,-573 286.9031,-556.6624 242,-522 224.8791,-508.7837 209.7338,-489.9282 198.586,-473.8421"/>
<polygon fill="#000000" stroke="#000000" points="201.295,-471.5976 192.8169,-465.2436 195.4821,-475.4977 201.295,-471.5976"/>
</g>
<!-- 139748206067952 -->
<g id="node6" class="node">
<title>139748206067952</title>
<polygon fill="none" stroke="#000000" points="790.5,-522 676.5,-522 676.5,-486 790.5,-486 790.5,-522"/>
<text text-anchor="middle" x="733.5" y="-500.3" font-family="Times,serif" font-size="14.00" fill="#000000">HoldingDataBean</text>
</g>
<!-- 139748206067952&#45;&gt;139748205753232 -->
<g id="edge6" class="edge">
<title>139748206067952&#45;&gt;139748205753232</title>
<path fill="none" stroke="#000000" d="M676.4868,-514.6684C623.5669,-523.6356 542.4953,-535 471.5,-535 359,-535 359,-535 359,-535 303.8996,-535 289.9929,-521.0691 242,-494 229.3019,-486.838 216.6433,-477.0431 206.0401,-467.8847"/>
<polygon fill="#000000" stroke="#000000" points="208.164,-465.0898 198.3657,-461.0595 203.5121,-470.3204 208.164,-465.0898"/>
</g>
<!-- 139748206357080 -->
<g id="node7" class="node">
<title>139748206357080</title>
<polygon fill="none" stroke="#000000" points="760.5,-468 706.5,-468 706.5,-432 760.5,-432 760.5,-468"/>
<text text-anchor="middle" x="733.5" y="-446.3" font-family="Times,serif" font-size="14.00" fill="#000000">Log</text>
</g>
<!-- 139748206357080&#45;&gt;139748205753232 -->
<g id="edge7" class="edge">
<title>139748206357080&#45;&gt;139748205753232</title>
<path fill="none" stroke="#000000" d="M706.2527,-458.1868C658.9528,-471.6526 558.3789,-497 471.5,-497 359,-497 359,-497 359,-497 305.984,-497 247.8679,-474.9082 212.4111,-458.727"/>
<polygon fill="#000000" stroke="#000000" points="213.5757,-455.4079 203.0345,-454.3431 210.6109,-461.749 213.5757,-455.4079"/>
</g>
<!-- 139749145571568 -->
<g id="node8" class="node">
<title>139749145571568</title>
<polygon fill="none" stroke="#000000" points="770.5,-414 696.5,-414 696.5,-378 770.5,-378 770.5,-414"/>
<text text-anchor="middle" x="733.5" y="-392.3" font-family="Times,serif" font-size="14.00" fill="#000000">MDBStats</text>
</g>
<!-- 139749145571568&#45;&gt;139748205753232 -->
<g id="edge15" class="edge">
<title>139749145571568&#45;&gt;139748205753232</title>
<path fill="none" stroke="#000000" d="M696.201,-393.9126C645.4002,-391.2539 551.6028,-387 471.5,-387 359,-387 359,-387 359,-387 305.984,-387 247.8679,-409.0918 212.4111,-425.273"/>
<polygon fill="#000000" stroke="#000000" points="210.6109,-422.251 203.0345,-429.6569 213.5757,-428.5921 210.6109,-422.251"/>
</g>
<!-- 139748206357640 -->
<g id="node9" class="node">
<title>139748206357640</title>
<polygon fill="none" stroke="#000000" points="820,-360 647,-360 647,-324 820,-324 820,-360"/>
<text text-anchor="middle" x="733.5" y="-338.3" font-family="Times,serif" font-size="14.00" fill="#000000">MarketSummaryWebSocket</text>
</g>
<!-- 139748206357640&#45;&gt;139748205753232 -->
<g id="edge1" class="edge">
<title>139748206357640&#45;&gt;139748205753232</title>
<path fill="none" stroke="#000000" d="M646.769,-326.5454C595.8842,-318.7803 530.2429,-311 471.5,-311 359,-311 359,-311 359,-311 291.088,-311 231.6028,-372.7147 200.9702,-411.4258"/>
<polygon fill="#000000" stroke="#000000" points="197.8633,-409.7228 194.5239,-419.7776 203.4047,-413.9999 197.8633,-409.7228"/>
</g>
<!-- 139748206070192 -->
<g id="node10" class="node">
<title>139748206070192</title>
<polygon fill="none" stroke="#000000" points="784,-252 683,-252 683,-216 784,-216 784,-252"/>
<text text-anchor="middle" x="733.5" y="-230.3" font-family="Times,serif" font-size="14.00" fill="#000000">OrderDataBean</text>
</g>
<!-- 139748206070192&#45;&gt;139748205753232 -->
<g id="edge18" class="edge">
<title>139748206070192&#45;&gt;139748205753232</title>
<path fill="none" stroke="#000000" d="M682.7838,-234.3082C630.0063,-234.602 544.9606,-235 471.5,-235 359,-235 359,-235 359,-235 302.9612,-235 281.489,-242.2387 242,-282 208.4929,-315.7382 192.2929,-369.4308 184.8346,-405.1873"/>
<polygon fill="#000000" stroke="#000000" points="181.3579,-404.7295 182.8732,-415.2154 188.2277,-406.0732 181.3579,-404.7295"/>
</g>
<!-- 139748205753512 -->
<g id="node11" class="node">
<title>139748205753512</title>
<polygon fill="none" stroke="#000000" points="788.5,-144 678.5,-144 678.5,-108 788.5,-108 788.5,-144"/>
<text text-anchor="middle" x="733.5" y="-122.3" font-family="Times,serif" font-size="14.00" fill="#000000">OrdersAlertFilter</text>
</g>
<!-- 139748205753512&#45;&gt;139748205753232 -->
<g id="edge16" class="edge">
<title>139748205753512&#45;&gt;139748205753232</title>
<path fill="none" stroke="#000000" d="M678.365,-131.6608C625.3916,-136.6061 543.0634,-143 471.5,-143 359,-143 359,-143 359,-143 302.2745,-143 278.7276,-150.7697 242,-194 215.0146,-225.7632 193.7411,-344.2052 184.3044,-405.1918"/>
<polygon fill="#000000" stroke="#000000" points="180.8301,-404.7589 182.7867,-415.1715 187.7505,-405.8114 180.8301,-404.7589"/>
</g>
<!-- 139748206357920 -->
<g id="node12" class="node">
<title>139748206357920</title>
<polygon fill="none" stroke="#000000" points="785,-90 682,-90 682,-54 785,-54 785,-90"/>
<text text-anchor="middle" x="733.5" y="-68.3" font-family="Times,serif" font-size="14.00" fill="#000000">QuoteDataBean</text>
</g>
<!-- 139748206357920&#45;&gt;139748205753232 -->
<g id="edge12" class="edge">
<title>139748206357920&#45;&gt;139748205753232</title>
<path fill="none" stroke="#000000" d="M681.8315,-75.764C629.0102,-79.2832 544.5817,-84 471.5,-84 359,-84 359,-84 359,-84 299.7287,-84 277.4285,-100.4826 242,-148 211.8764,-188.4024 191.354,-335.1122 183.0865,-404.7801"/>
<polygon fill="#000000" stroke="#000000" points="179.5912,-404.5376 181.9105,-414.8754 186.5441,-405.3476 179.5912,-404.5376"/>
</g>
<!-- 139748205755864 -->
<g id="node13" class="node">
<title>139748205755864</title>
<polygon fill="none" stroke="#000000" points="760.5,-910 706.5,-910 706.5,-874 760.5,-874 760.5,-910"/>
<text text-anchor="middle" x="733.5" y="-888.3" font-family="Times,serif" font-size="14.00" fill="#000000">Root</text>
</g>
<!-- 139748203909528 -->
<g id="node31" class="node">
<title>139748203909528</title>
<ellipse fill="#ffa500" stroke="#000000" cx="883" cy="-892" rx="27" ry="27"/>
</g>
<!-- 139748205755864&#45;&gt;139748203909528 -->
<g id="edge3" class="edge">
<title>139748205755864&#45;&gt;139748203909528</title>
<path fill="none" stroke="#000000" d="M760.5733,-892C784.4183,-892 819.3722,-892 845.8332,-892"/>
<polygon fill="#000000" stroke="#000000" points="845.8759,-895.5001 855.8759,-892 845.8759,-888.5001 845.8759,-895.5001"/>
</g>
<!-- 139748205755192 -->
<g id="node14" class="node">
<title>139748205755192</title>
<polygon fill="none" stroke="#000000" points="769,-36 698,-36 698,0 769,0 769,-36"/>
<text text-anchor="middle" x="733.5" y="-14.3" font-family="Times,serif" font-size="14.00" fill="#000000">TimerStat</text>
</g>
<!-- 139748205755192&#45;&gt;139748205753232 -->
<g id="edge4" class="edge">
<title>139748205755192&#45;&gt;139748205753232</title>
<path fill="none" stroke="#000000" d="M697.9133,-19.7755C647.5276,-22.1323 552.503,-26 471.5,-26 359,-26 359,-26 359,-26 299.297,-26 276.5748,-43.3274 242,-92 206.4556,-142.0375 188.1216,-325.468 181.705,-404.9092"/>
<polygon fill="#000000" stroke="#000000" points="178.2095,-404.7148 180.9123,-414.9591 185.1878,-405.2653 178.2095,-404.7148"/>
</g>
<!-- 139748205752448 -->
<g id="node15" class="node">
<title>139748205752448</title>
<polygon fill="none" stroke="#000000" points="776,-846 691,-846 691,-810 776,-810 776,-846"/>
<text text-anchor="middle" x="733.5" y="-824.3" font-family="Times,serif" font-size="14.00" fill="#000000">TradeAction</text>
</g>
<!-- 139748205752448&#45;&gt;139748205753232 -->
<g id="edge8" class="edge">
<title>139748205752448&#45;&gt;139748205753232</title>
<path fill="none" stroke="#000000" d="M690.9126,-814.7679C628.2644,-795.7629 514.0886,-763 471.5,-763 359,-763 359,-763 359,-763 300.3569,-763 278.1384,-748.1847 242,-702 214.9556,-667.4374 193.5084,-542.2185 184.1322,-479.023"/>
<polygon fill="#000000" stroke="#000000" points="187.5874,-478.4613 182.6796,-469.0717 180.6608,-479.4724 187.5874,-478.4613"/>
</g>
<!-- 139748206357864 -->
<g id="node16" class="node">
<title>139748206357864</title>
<polygon fill="none" stroke="#000000" points="788.5,-306 678.5,-306 678.5,-270 788.5,-270 788.5,-306"/>
<text text-anchor="middle" x="733.5" y="-284.3" font-family="Times,serif" font-size="14.00" fill="#000000">TradeAppServlet</text>
</g>
<!-- 139748206357864&#45;&gt;139748205753232 -->
<g id="edge14" class="edge">
<title>139748206357864&#45;&gt;139748205753232</title>
<path fill="none" stroke="#000000" d="M678.3501,-283.0052C625.3659,-278.6417 543.0301,-273 471.5,-273 359,-273 359,-273 359,-273 301.7287,-273 283.8651,-287.9191 242,-327 218.4945,-348.9423 201.7482,-381.6811 191.4581,-406.6223"/>
<polygon fill="#000000" stroke="#000000" points="188.1329,-405.5129 187.7009,-416.099 194.6402,-408.0929 188.1329,-405.5129"/>
</g>
<!-- 139748206356968 -->
<g id="node17" class="node">
<title>139748206356968</title>
<polygon fill="none" stroke="#000000" points="776.5,-792 690.5,-792 690.5,-756 776.5,-756 776.5,-792"/>
<text text-anchor="middle" x="733.5" y="-770.3" font-family="Times,serif" font-size="14.00" fill="#000000">TradeConfig</text>
</g>
<!-- 139748206356968&#45;&gt;139748205753232 -->
<g id="edge19" class="edge">
<title>139748206356968&#45;&gt;139748205753232</title>
<path fill="none" stroke="#000000" d="M690.3852,-760.8689C638.8358,-746.3545 549.7044,-725 471.5,-725 359,-725 359,-725 359,-725 300.3569,-725 279.0273,-709.4752 242,-664 218.8296,-635.5431 196.5595,-534.1315 185.7663,-478.75"/>
<polygon fill="#000000" stroke="#000000" points="189.1493,-477.8076 183.8253,-468.6476 182.275,-479.1284 189.1493,-477.8076"/>
</g>
<!-- 139748206357024 -->
<g id="node18" class="node">
<title>139748206357024</title>
<polygon fill="none" stroke="#000000" points="787.5,-198 679.5,-198 679.5,-162 787.5,-162 787.5,-198"/>
<text text-anchor="middle" x="733.5" y="-176.3" font-family="Times,serif" font-size="14.00" fill="#000000">TradeSLSBBean</text>
</g>
<!-- 139748206357024&#45;&gt;139748205753232 -->
<g id="edge17" class="edge">
<title>139748206357024&#45;&gt;139748205753232</title>
<path fill="none" stroke="#000000" d="M679.3258,-182.9469C626.3576,-185.5717 543.4104,-189 471.5,-189 359,-189 359,-189 359,-189 302.2745,-189 279.8719,-197.7685 242,-240 200.2217,-286.5876 186.1483,-360.6143 181.4077,-404.9365"/>
<polygon fill="#000000" stroke="#000000" points="177.9139,-404.7044 180.438,-414.9941 184.8816,-405.3762 177.9139,-404.7044"/>
</g>
<!-- 139748206070360 -->
<g id="node19" class="node">
<title>139748206070360</title>
<polygon fill="none" stroke="#000000" points="795,-738 672,-738 672,-702 795,-702 795,-738"/>
<text text-anchor="middle" x="733.5" y="-716.3" font-family="Times,serif" font-size="14.00" fill="#000000">TradeServletAction</text>
</g>
<!-- 139748206070360&#45;&gt;139748205753232 -->
<g id="edge13" class="edge">
<title>139748206070360&#45;&gt;139748205753232</title>
<path fill="none" stroke="#000000" d="M671.8396,-707.8058C618.9202,-698.4053 540.4975,-687 471.5,-687 359,-687 359,-687 359,-687 300.3569,-687 280.2274,-670.4711 242,-626 205.6554,-583.7192 189.9856,-519.4284 183.4404,-479.1128"/>
<polygon fill="#000000" stroke="#000000" points="186.8909,-478.5219 181.931,-469.1598 179.9701,-479.5716 186.8909,-478.5219"/>
</g>
<!-- 139748205754464 -->
<g id="node20" class="node">
<title>139748205754464</title>
<polygon fill="none" stroke="#000000" points="511,-827 432,-827 432,-791 511,-791 511,-827"/>
<text text-anchor="middle" x="471.5" y="-805.3" font-family="Times,serif" font-size="14.00" fill="#000000">init_loop_2</text>
</g>
<!-- 139748205756088 -->
<g id="node28" class="node">
<title>139748205756088</title>
<ellipse fill="none" stroke="#000000" cx="584" cy="-442" rx="27" ry="27"/>
<text text-anchor="middle" x="584" y="-438.3" font-family="Times,serif" font-size="14.00" fill="#000000">p_5</text>
</g>
<!-- 139748205754464&#45;&gt;139748205756088 -->
<g id="edge20" class="edge">
<title>139748205754464&#45;&gt;139748205756088</title>
<path fill="none" stroke="#000000" d="M477.0789,-790.8004C494.7303,-733.2177 549.5797,-554.2865 573.105,-477.5421"/>
<polygon fill="#000000" stroke="#000000" points="576.4935,-478.4299 576.078,-467.8432 569.8009,-476.3783 576.4935,-478.4299"/>
</g>
<!-- 139748205753736 -->
<g id="node21" class="node">
<title>139748205753736</title>
<polygon fill="none" stroke="#000000" points="498.5,-460 444.5,-460 444.5,-424 498.5,-424 498.5,-460"/>
<text text-anchor="middle" x="471.5" y="-438.3" font-family="Times,serif" font-size="14.00" fill="#000000">loop_3</text>
</g>
<!-- 139748205753736&#45;&gt;139748205756088 -->
<g id="edge21" class="edge">
<title>139748205753736&#45;&gt;139748205756088</title>
<path fill="none" stroke="#000000" d="M498.7331,-442C512.9988,-442 530.6933,-442 546.2595,-442"/>
<polygon fill="#000000" stroke="#000000" points="546.6278,-445.5001 556.6278,-442 546.6277,-438.5001 546.6278,-445.5001"/>
</g>
<!-- 139748206068120 -->
<g id="node22" class="node">
<title>139748206068120</title>
<polygon fill="none" stroke="#000000" points="296,-460 242,-460 242,-424 296,-424 296,-460"/>
<text text-anchor="middle" x="269" y="-438.3" font-family="Times,serif" font-size="14.00" fill="#000000">skip_4</text>
</g>
<!-- 139748205754072 -->
<g id="node30" class="node">
<title>139748205754072</title>
<ellipse fill="none" stroke="#000000" cx="359" cy="-442" rx="27" ry="27"/>
<text text-anchor="middle" x="359" y="-438.3" font-family="Times,serif" font-size="14.00" fill="#000000">p_7</text>
</g>
<!-- 139748206068120&#45;&gt;139748205754072 -->
<g id="edge45" class="edge">
<title>139748206068120&#45;&gt;139748205754072</title>
<path fill="none" stroke="#000000" d="M296.003,-442C304.0277,-442 312.9665,-442 321.5309,-442"/>
<polygon fill="#000000" stroke="#000000" points="321.7051,-445.5001 331.705,-442 321.705,-438.5001 321.7051,-445.5001"/>
</g>
<!-- 139748206070696 -->
<g id="node23" class="node">
<title>139748206070696</title>
<polygon fill="none" stroke="#000000" points="386,-841 332,-841 332,-805 386,-805 386,-841"/>
<text text-anchor="middle" x="359" y="-819.3" font-family="Times,serif" font-size="14.00" fill="#000000">skip_5</text>
</g>
<!-- 139748206070696&#45;&gt;139749146323936 -->
<g id="edge46" class="edge">
<title>139748206070696&#45;&gt;139749146323936</title>
<path fill="none" stroke="#000000" d="M386.1403,-831.323C426.7802,-843.7859 503.4727,-867.305 548.5081,-881.1158"/>
<polygon fill="#000000" stroke="#000000" points="547.5669,-884.488 558.1536,-884.0738 549.6193,-877.7956 547.5669,-884.488"/>
</g>
<!-- 139748203912384 -->
<g id="node24" class="node">
<title>139748203912384</title>
<polygon fill="none" stroke="#000000" points="296,-911 242,-911 242,-875 296,-875 296,-911"/>
<text text-anchor="middle" x="269" y="-889.3" font-family="Times,serif" font-size="14.00" fill="#000000">tau_1</text>
</g>
<!-- 139748203909696 -->
<g id="node26" class="node">
<title>139748203909696</title>
<ellipse fill="none" stroke="#000000" cx="359" cy="-893" rx="27" ry="27"/>
<text text-anchor="middle" x="359" y="-889.3" font-family="Times,serif" font-size="14.00" fill="#000000">p_3</text>
</g>
<!-- 139748203912384&#45;&gt;139748203909696 -->
<g id="edge48" class="edge">
<title>139748203912384&#45;&gt;139748203909696</title>
<path fill="none" stroke="#000000" d="M296.003,-893C304.0277,-893 312.9665,-893 321.5309,-893"/>
<polygon fill="#000000" stroke="#000000" points="321.7051,-896.5001 331.705,-893 321.705,-889.5001 321.7051,-896.5001"/>
</g>
<!-- 139748203029504 -->
<g id="node25" class="node">
<title>139748203029504</title>
<ellipse fill="#00ff00" stroke="#000000" cx="179" cy="-893" rx="27" ry="27"/>
<text text-anchor="middle" x="179" y="-889.3" font-family="Times,serif" font-size="14.00" fill="#000000">1</text>
</g>
<!-- 139748203029504&#45;&gt;139748203912384 -->
<g id="edge47" class="edge">
<title>139748203029504&#45;&gt;139748203912384</title>
<path fill="none" stroke="#000000" d="M206.003,-893C214.0277,-893 222.9665,-893 231.5309,-893"/>
<polygon fill="#000000" stroke="#000000" points="231.7051,-896.5001 241.705,-893 231.705,-889.5001 231.7051,-896.5001"/>
</g>
<!-- 139748203909696&#45;&gt;139748205754968 -->
<g id="edge22" class="edge">
<title>139748203909696&#45;&gt;139748205754968</title>
<path fill="none" stroke="#000000" d="M385.9466,-894.9162C393.7867,-895.4737 402.6805,-896.1062 411.6966,-896.7473"/>
<polygon fill="#000000" stroke="#000000" points="411.6552,-900.2531 421.8783,-897.4713 412.1518,-893.2707 411.6552,-900.2531"/>
</g>
<!-- 139748203909696&#45;&gt;139748205754464 -->
<g id="edge23" class="edge">
<title>139748203909696&#45;&gt;139748205754464</title>
<path fill="none" stroke="#000000" d="M380.6911,-876.804C397.1914,-864.4838 420.1691,-847.3271 438.882,-833.3548"/>
<polygon fill="#000000" stroke="#000000" points="441.2223,-835.9754 447.1411,-827.1879 437.0343,-830.3664 441.2223,-835.9754"/>
</g>
<!-- 139749146323936&#45;&gt;139748205755864 -->
<g id="edge24" class="edge">
<title>139749146323936&#45;&gt;139748205755864</title>
<path fill="none" stroke="#000000" d="M611.0733,-892C634.9183,-892 669.8722,-892 696.3332,-892"/>
<polygon fill="#000000" stroke="#000000" points="696.3759,-895.5001 706.3759,-892 696.3759,-888.5001 696.3759,-895.5001"/>
</g>
<!-- 139748205756088&#45;&gt;139748206068848 -->
<g id="edge33" class="edge">
<title>139748205756088&#45;&gt;139748206068848</title>
<path fill="none" stroke="#000000" d="M561.9388,-426.0127C523.0063,-399.4227 438.6748,-349 359,-349 269,-349 269,-349 269,-349 218.1502,-349 161.9566,-361.9113 120.3539,-374.0533"/>
<polygon fill="#000000" stroke="#000000" points="119.2216,-370.7385 110.6398,-376.9516 121.2231,-377.4463 119.2216,-370.7385"/>
</g>
<!-- 139748205756088&#45;&gt;139748206070024 -->
<g id="edge32" class="edge">
<title>139748205756088&#45;&gt;139748206070024</title>
<path fill="none" stroke="#000000" d="M589.3365,-468.6015C599.4535,-516.5559 622.604,-614.7733 647,-639 647.9419,-639.9353 648.9156,-640.8383 649.9181,-641.7101"/>
<polygon fill="#000000" stroke="#000000" points="648.0009,-644.646 658.1151,-647.801 652.1759,-639.0273 648.0009,-644.646"/>
</g>
<!-- 139748205756088&#45;&gt;139748205753456 -->
<g id="edge26" class="edge">
<title>139748205756088&#45;&gt;139748205753456</title>
<path fill="none" stroke="#000000" d="M588.7826,-468.6036C595.9179,-500.6709 612.4059,-554.0917 647,-585 651.7733,-589.2647 657.2143,-592.8558 662.9902,-595.8797"/>
<polygon fill="#000000" stroke="#000000" points="661.7488,-599.1617 672.2945,-600.18 664.6856,-592.8075 661.7488,-599.1617"/>
</g>
<!-- 139748205756088&#45;&gt;139748206071368 -->
<g id="edge31" class="edge">
<title>139748205756088&#45;&gt;139748206071368</title>
<path fill="none" stroke="#000000" d="M595.646,-466.5512C606.3512,-486.6152 624.0331,-514.3008 647,-531 655.9625,-537.5166 666.5415,-542.4913 677.169,-546.2791"/>
<polygon fill="#000000" stroke="#000000" points="676.3056,-549.6785 686.8976,-549.4342 678.4651,-543.0199 676.3056,-549.6785"/>
</g>
<!-- 139748205756088&#45;&gt;139748206067952 -->
<g id="edge28" class="edge">
<title>139748205756088&#45;&gt;139748206067952</title>
<path fill="none" stroke="#000000" d="M607.0582,-456.3042C618.7389,-463.1606 633.3142,-471.1357 647,-477 653.2179,-479.6644 659.7875,-482.1954 666.4152,-484.5628"/>
<polygon fill="#000000" stroke="#000000" points="665.5381,-487.9625 676.1328,-487.9106 667.8182,-481.3442 665.5381,-487.9625"/>
</g>
<!-- 139748205756088&#45;&gt;139748206357080 -->
<g id="edge29" class="edge">
<title>139748205756088&#45;&gt;139748206357080</title>
<path fill="none" stroke="#000000" d="M611.0733,-443.4487C634.9183,-444.7247 669.8722,-446.5952 696.3332,-448.0111"/>
<polygon fill="#000000" stroke="#000000" points="696.2031,-451.5091 706.3759,-448.5485 696.5772,-444.5191 696.2031,-451.5091"/>
</g>
<!-- 139748205756088&#45;&gt;139749145571568 -->
<g id="edge37" class="edge">
<title>139748205756088&#45;&gt;139749145571568</title>
<path fill="none" stroke="#000000" d="M610.0409,-433.9874C631.0893,-427.511 661.2642,-418.2264 686.5131,-410.4575"/>
<polygon fill="#000000" stroke="#000000" points="687.7463,-413.7401 696.2747,-407.4539 685.6876,-407.0496 687.7463,-413.7401"/>
</g>
<!-- 139748205756088&#45;&gt;139748206357640 -->
<g id="edge25" class="edge">
<title>139748205756088&#45;&gt;139748206357640</title>
<path fill="none" stroke="#000000" d="M598.5286,-419.2226C609.9148,-403.0751 627.1246,-382.0409 647,-369 649.4046,-367.4223 651.9069,-365.9322 654.4806,-364.5253"/>
<polygon fill="#000000" stroke="#000000" points="656.073,-367.6423 663.4686,-360.0557 652.9561,-361.3745 656.073,-367.6423"/>
</g>
<!-- 139748205756088&#45;&gt;139748206070192 -->
<g id="edge40" class="edge">
<title>139748205756088&#45;&gt;139748206070192</title>
<path fill="none" stroke="#000000" d="M585.9477,-414.9567C590.2292,-375.6213 603.8509,-302.7735 647,-261 654.2904,-253.9421 663.3981,-248.7267 672.9447,-244.8735"/>
<polygon fill="#000000" stroke="#000000" points="674.33,-248.0959 682.5864,-241.4565 671.9917,-241.498 674.33,-248.0959"/>
</g>
<!-- 139748205756088&#45;&gt;139748205753512 -->
<g id="edge38" class="edge">
<title>139748205756088&#45;&gt;139748205753512</title>
<path fill="none" stroke="#000000" d="M586.4565,-414.9106C592.8104,-350.6396 611.7993,-191.44 647,-153 653.0211,-146.4248 660.6155,-141.4375 668.7915,-137.6575"/>
<polygon fill="#000000" stroke="#000000" points="670.235,-140.8496 678.2167,-133.8822 667.6322,-134.3515 670.235,-140.8496"/>
</g>
<!-- 139748205756088&#45;&gt;139748206357920 -->
<g id="edge34" class="edge">
<title>139748205756088&#45;&gt;139748206357920</title>
<path fill="none" stroke="#000000" d="M585.4419,-414.7943C589.8275,-342.1622 605.3476,-146.0194 647,-99 653.7285,-91.4045 662.5575,-85.9225 672.0014,-81.9711"/>
<polygon fill="#000000" stroke="#000000" points="673.3775,-85.1955 681.5953,-78.5083 671.001,-78.6112 673.3775,-85.1955"/>
</g>
<!-- 139748205756088&#45;&gt;139748205755192 -->
<g id="edge27" class="edge">
<title>139748205756088&#45;&gt;139748205755192</title>
<path fill="none" stroke="#000000" d="M584.6833,-414.9601C587.2476,-334.832 598.7955,-100.7648 647,-45 657.3805,-32.9914 673.0155,-26.2546 688.1504,-22.4994"/>
<polygon fill="#000000" stroke="#000000" points="688.8976,-25.9189 697.9638,-20.4368 687.4577,-19.0686 688.8976,-25.9189"/>
</g>
<!-- 139748205756088&#45;&gt;139748205752448 -->
<g id="edge30" class="edge">
<title>139748205756088&#45;&gt;139748205752448</title>
<path fill="none" stroke="#000000" d="M585.1905,-469.1045C589.0155,-543.9779 603.4008,-751.388 647,-801 655.8548,-811.076 668.407,-817.4352 681.2112,-821.4358"/>
<polygon fill="#000000" stroke="#000000" points="680.4296,-824.8498 690.9948,-824.0578 682.2417,-818.0884 680.4296,-824.8498"/>
</g>
<!-- 139748205756088&#45;&gt;139748206357864 -->
<g id="edge36" class="edge">
<title>139748205756088&#45;&gt;139748206357864</title>
<path fill="none" stroke="#000000" d="M590.4362,-415.5202C598.762,-386.7733 616.0146,-341.441 647,-315 653.451,-309.4951 661.0206,-305.1114 668.9517,-301.6207"/>
<polygon fill="#000000" stroke="#000000" points="670.3527,-304.8309 678.3829,-297.9196 667.7954,-298.3147 670.3527,-304.8309"/>
</g>
<!-- 139748205756088&#45;&gt;139748206356968 -->
<g id="edge41" class="edge">
<title>139748205756088&#45;&gt;139748206356968</title>
<path fill="none" stroke="#000000" d="M586.1171,-469.0889C591.8656,-535.8847 609.8865,-706.0232 647,-747 655.7499,-756.6607 667.8964,-762.8963 680.3244,-766.9118"/>
<polygon fill="#000000" stroke="#000000" points="679.7204,-770.3765 690.2923,-769.6793 681.5931,-763.6316 679.7204,-770.3765"/>
</g>
<!-- 139748205756088&#45;&gt;139748206357024 -->
<g id="edge39" class="edge">
<title>139748205756088&#45;&gt;139748206357024</title>
<path fill="none" stroke="#000000" d="M587.9047,-415.0891C596.4104,-359.9952 618.184,-237.0112 647,-207 653.4013,-200.3331 661.4202,-195.3043 669.9771,-191.5127"/>
<polygon fill="#000000" stroke="#000000" points="671.3547,-194.7327 679.4223,-187.8651 668.8328,-188.2027 671.3547,-194.7327"/>
</g>
<!-- 139748205756088&#45;&gt;139748206070360 -->
<g id="edge35" class="edge">
<title>139748205756088&#45;&gt;139748206070360</title>
<path fill="none" stroke="#000000" d="M587.4127,-468.9568C595.2593,-526.8606 616.2977,-660.5075 647,-693 651.4671,-697.7275 656.7474,-701.6323 662.4617,-704.8567"/>
<polygon fill="#000000" stroke="#000000" points="661.2219,-708.1461 671.7442,-709.3842 664.2906,-701.8546 661.2219,-708.1461"/>
</g>
<!-- 139748205753232&#45;&gt;139748206068120 -->
<g id="edge42" class="edge">
<title>139748205753232&#45;&gt;139748206068120</title>
<path fill="none" stroke="#000000" d="M206.003,-442C214.0277,-442 222.9665,-442 231.5309,-442"/>
<polygon fill="#000000" stroke="#000000" points="231.7051,-445.5001 241.705,-442 231.705,-438.5001 231.7051,-445.5001"/>
</g>
<!-- 139748205753232&#45;&gt;139748206070696 -->
<g id="edge43" class="edge">
<title>139748205753232&#45;&gt;139748206070696</title>
<path fill="none" stroke="#000000" d="M180.7687,-469.1913C185.9064,-540.3593 203.0096,-729.8585 242,-777 261.7716,-800.9049 295.6543,-812.4452 321.8842,-817.9819"/>
<polygon fill="#000000" stroke="#000000" points="321.3961,-821.4518 331.8744,-819.8843 322.7057,-814.5754 321.3961,-821.4518"/>
</g>
<!-- 139748205754072&#45;&gt;139748205753736 -->
<g id="edge44" class="edge">
<title>139748205754072&#45;&gt;139748205753736</title>
<path fill="none" stroke="#000000" d="M386.2331,-442C400.4988,-442 418.1933,-442 433.7595,-442"/>
<polygon fill="#000000" stroke="#000000" points="434.1278,-445.5001 444.1278,-442 434.1277,-438.5001 434.1278,-445.5001"/>
</g>
</g>
</svg>
