<?xml version="1.0" encoding="UTF-8" standalone="no"?>
<!DOCTYPE svg PUBLIC "-//W3C//DTD SVG 1.1//EN"
 "http://www.w3.org/Graphics/SVG/1.1/DTD/svg11.dtd">
<!-- Generated by graphviz version 2.40.1 (20161225.0304)
 -->
<!-- Title: imdf_net_1585315546.8683105 Pages: 1 -->
<svg width="484pt" height="62pt"
 viewBox="0.00 0.00 484.00 62.00" xmlns="http://www.w3.org/2000/svg" xmlns:xlink="http://www.w3.org/1999/xlink">
<g id="graph0" class="graph" transform="scale(1 1) rotate(0) translate(4 58)">
<title>imdf_net_1585315546.8683105</title>
<!-- 140178110677512 -->
<g id="node1" class="node">
<title>140178110677512</title>
<polygon fill="none" stroke="#000000" points="206,-45 90,-45 90,-9 206,-9 206,-45"/>
<text text-anchor="middle" x="148" y="-23.3" font-family="Times,serif" font-size="14.00" fill="#000000">PingServlet:doGet</text>
</g>
<!-- 140178110679136 -->
<g id="node4" class="node">
<title>140178110679136</title>
<ellipse fill="none" stroke="#000000" cx="269" cy="-27" rx="27" ry="27"/>
<text text-anchor="middle" x="269" y="-23.3" font-family="Times,serif" font-size="14.00" fill="#000000">p_3</text>
</g>
<!-- 140178110677512&#45;&gt;140178110679136 -->
<g id="edge2" class="edge">
<title>140178110677512&#45;&gt;140178110679136</title>
<path fill="none" stroke="#000000" d="M206.0192,-27C214.7066,-27 223.4624,-27 231.5684,-27"/>
<polygon fill="#000000" stroke="#000000" points="231.7899,-30.5001 241.7899,-27 231.7898,-23.5001 231.7899,-30.5001"/>
</g>
<!-- 140178110677736 -->
<g id="node2" class="node">
<title>140178110677736</title>
<polygon fill="none" stroke="#000000" points="386,-45 332,-45 332,-9 386,-9 386,-45"/>
<text text-anchor="middle" x="359" y="-23.3" font-family="Times,serif" font-size="14.00" fill="#000000">Root</text>
</g>
<!-- 140178110677960 -->
<g id="node5" class="node">
<title>140178110677960</title>
<ellipse fill="#ffa500" stroke="#000000" cx="449" cy="-27" rx="27" ry="27"/>
</g>
<!-- 140178110677736&#45;&gt;140178110677960 -->
<g id="edge1" class="edge">
<title>140178110677736&#45;&gt;140178110677960</title>
<path fill="none" stroke="#000000" d="M386.003,-27C394.0277,-27 402.9665,-27 411.5309,-27"/>
<polygon fill="#000000" stroke="#000000" points="411.7051,-30.5001 421.705,-27 411.705,-23.5001 411.7051,-30.5001"/>
</g>
<!-- 140178110679752 -->
<g id="node3" class="node">
<title>140178110679752</title>
<ellipse fill="#00ff00" stroke="#000000" cx="27" cy="-27" rx="27" ry="27"/>
<text text-anchor="middle" x="27" y="-23.3" font-family="Times,serif" font-size="14.00" fill="#000000">1</text>
</g>
<!-- 140178110679752&#45;&gt;140178110677512 -->
<g id="edge4" class="edge">
<title>140178110679752&#45;&gt;140178110677512</title>
<path fill="none" stroke="#000000" d="M54.1548,-27C61.8498,-27 70.5914,-27 79.5701,-27"/>
<polygon fill="#000000" stroke="#000000" points="79.765,-30.5001 89.765,-27 79.7649,-23.5001 79.765,-30.5001"/>
</g>
<!-- 140178110679136&#45;&gt;140178110677736 -->
<g id="edge3" class="edge">
<title>140178110679136&#45;&gt;140178110677736</title>
<path fill="none" stroke="#000000" d="M296.003,-27C304.0277,-27 312.9665,-27 321.5309,-27"/>
<polygon fill="#000000" stroke="#000000" points="321.7051,-30.5001 331.705,-27 321.705,-23.5001 321.7051,-30.5001"/>
</g>
</g>
</svg>
