<?xml version="1.0" encoding="UTF-8" standalone="no"?>
<!DOCTYPE svg PUBLIC "-//W3C//DTD SVG 1.1//EN"
 "http://www.w3.org/Graphics/SVG/1.1/DTD/svg11.dtd">
<!-- Generated by graphviz version 2.40.1 (20161225.0304)
 -->
<!-- Title: alpha_plus_net_1585315546.215903 Pages: 1 -->
<svg width="483pt" height="98pt"
 viewBox="0.00 0.00 483.00 98.00" xmlns="http://www.w3.org/2000/svg" xmlns:xlink="http://www.w3.org/1999/xlink">
<g id="graph0" class="graph" transform="scale(1 1) rotate(0) translate(4 94)">
<title>alpha_plus_net_1585315546.215903</title>
<!-- 140178132631960 -->
<g id="node1" class="node">
<title>140178132631960</title>
<polygon fill="none" stroke="#000000" points="205,-90 90,-90 90,-54 205,-54 205,-90"/>
<text text-anchor="middle" x="147.5" y="-68.3" font-family="Times,serif" font-size="14.00" fill="#000000">ExplicitGC:doGet</text>
</g>
<!-- 140178132631792 -->
<g id="node5" class="node">
<title>140178132631792</title>
<ellipse fill="none" stroke="#000000" cx="268" cy="-45" rx="27" ry="27"/>
<text text-anchor="middle" x="268" y="-41.3" font-family="Times,serif" font-size="14.00" fill="#000000">({&#39;ExplicitGC:init&#39;, &#39;ExplicitGC:doGet&#39;}, {&#39;Root&#39;})</text>
</g>
<!-- 140178132631960&#45;&gt;140178132631792 -->
<g id="edge4" class="edge">
<title>140178132631960&#45;&gt;140178132631792</title>
<path fill="none" stroke="#000000" d="M205.2794,-59.0536C214.2972,-57.033 223.3889,-54.9959 231.7446,-53.1236"/>
<polygon fill="#000000" stroke="#000000" points="232.5246,-56.5357 241.5173,-50.9339 230.994,-49.7051 232.5246,-56.5357"/>
</g>
<!-- 140178132632464 -->
<g id="node2" class="node">
<title>140178132632464</title>
<polygon fill="none" stroke="#000000" points="197.5,-36 97.5,-36 97.5,0 197.5,0 197.5,-36"/>
<text text-anchor="middle" x="147.5" y="-14.3" font-family="Times,serif" font-size="14.00" fill="#000000">ExplicitGC:init</text>
</g>
<!-- 140178132632464&#45;&gt;140178132631792 -->
<g id="edge5" class="edge">
<title>140178132632464&#45;&gt;140178132631792</title>
<path fill="none" stroke="#000000" d="M197.556,-29.2159C209.0225,-31.7851 220.9963,-34.4681 231.7506,-36.8777"/>
<polygon fill="#000000" stroke="#000000" points="231.1081,-40.3205 241.6314,-39.0917 232.6386,-33.4898 231.1081,-40.3205"/>
</g>
<!-- 140178132632912 -->
<g id="node3" class="node">
<title>140178132632912</title>
<polygon fill="none" stroke="#000000" points="385,-63 331,-63 331,-27 385,-27 385,-63"/>
<text text-anchor="middle" x="358" y="-41.3" font-family="Times,serif" font-size="14.00" fill="#000000">Root</text>
</g>
<!-- 140178132632128 -->
<g id="node6" class="node">
<title>140178132632128</title>
<ellipse fill="#ffa500" stroke="#000000" cx="448" cy="-45" rx="27" ry="27"/>
</g>
<!-- 140178132632912&#45;&gt;140178132632128 -->
<g id="edge6" class="edge">
<title>140178132632912&#45;&gt;140178132632128</title>
<path fill="none" stroke="#000000" d="M385.003,-45C393.0277,-45 401.9665,-45 410.5309,-45"/>
<polygon fill="#000000" stroke="#000000" points="410.7051,-48.5001 420.705,-45 410.705,-41.5001 410.7051,-48.5001"/>
</g>
<!-- 140178132633864 -->
<g id="node4" class="node">
<title>140178132633864</title>
<ellipse fill="#00ff00" stroke="#000000" cx="27" cy="-45" rx="27" ry="27"/>
<text text-anchor="middle" x="27" y="-41.3" font-family="Times,serif" font-size="14.00" fill="#000000">1</text>
</g>
<!-- 140178132633864&#45;&gt;140178132631960 -->
<g id="edge2" class="edge">
<title>140178132633864&#45;&gt;140178132631960</title>
<path fill="none" stroke="#000000" d="M53.4442,-50.9253C61.4655,-52.7226 70.6687,-54.7847 80.1092,-56.9"/>
<polygon fill="#000000" stroke="#000000" points="79.4701,-60.3435 89.9934,-59.1147 81.0006,-53.5129 79.4701,-60.3435"/>
</g>
<!-- 140178132633864&#45;&gt;140178132632464 -->
<g id="edge3" class="edge">
<title>140178132633864&#45;&gt;140178132632464</title>
<path fill="none" stroke="#000000" d="M53.4442,-39.0747C63.5114,-36.819 75.4404,-34.1461 87.3635,-31.4746"/>
<polygon fill="#000000" stroke="#000000" points="88.3437,-34.8418 97.3364,-29.24 86.8131,-28.0112 88.3437,-34.8418"/>
</g>
<!-- 140178132631792&#45;&gt;140178132632912 -->
<g id="edge1" class="edge">
<title>140178132631792&#45;&gt;140178132632912</title>
<path fill="none" stroke="#000000" d="M295.003,-45C303.0277,-45 311.9665,-45 320.5309,-45"/>
<polygon fill="#000000" stroke="#000000" points="320.7051,-48.5001 330.705,-45 320.705,-41.5001 320.7051,-48.5001"/>
</g>
</g>
</svg>
