<?xml version="1.0" encoding="UTF-8" standalone="no"?>
<!DOCTYPE svg PUBLIC "-//W3C//DTD SVG 1.1//EN"
 "http://www.w3.org/Graphics/SVG/1.1/DTD/svg11.dtd">
<!-- Generated by graphviz version 2.40.1 (20161225.0304)
 -->
<!-- Title: alpha_plus_net_1585281871.1751068 Pages: 1 -->
<svg width="700pt" height="799pt"
 viewBox="0.00 0.00 700.00 799.00" xmlns="http://www.w3.org/2000/svg" xmlns:xlink="http://www.w3.org/1999/xlink">
<g id="graph0" class="graph" transform="scale(1 1) rotate(0) translate(4 795)">
<title>alpha_plus_net_1585281871.1751068</title>
<!-- 140543361115192 -->
<g id="node1" class="node">
<title>140543361115192</title>
<polygon fill="none" stroke="#000000" points="131.5,-150 32.5,-150 32.5,-114 131.5,-114 131.5,-150"/>
<text text-anchor="middle" x="82" y="-128.3" font-family="Times,serif" font-size="14.00" fill="#000000">ActionDecoder</text>
</g>
<!-- 140543357378288 -->
<g id="node18" class="node">
<title>140543357378288</title>
<ellipse fill="none" stroke="#000000" cx="227" cy="-182" rx="27" ry="27"/>
<text text-anchor="middle" x="227" y="-178.3" font-family="Times,serif" font-size="14.00" fill="#000000">({&#39;ActionDecoder&#39;, &#39;MarketSummaryWebSocket&#39;, &#39;OrdersAlertFilter&#39;}, {&#39;Root&#39;, &#39;ActionMessage&#39;})</text>
</g>
<!-- 140543361115192&#45;&gt;140543357378288 -->
<g id="edge10" class="edge">
<title>140543361115192&#45;&gt;140543357378288</title>
<path fill="none" stroke="#000000" d="M131.9008,-149.2072C151.6692,-156.0239 173.9284,-163.6994 191.9392,-169.9101"/>
<polygon fill="#000000" stroke="#000000" points="190.8706,-173.2438 201.4653,-173.1949 193.1526,-166.6262 190.8706,-173.2438"/>
</g>
<!-- 140543361115248 -->
<g id="node2" class="node">
<title>140543361115248</title>
<polygon fill="none" stroke="#000000" points="392,-146 291,-146 291,-110 392,-110 392,-146"/>
<text text-anchor="middle" x="341.5" y="-124.3" font-family="Times,serif" font-size="14.00" fill="#000000">ActionMessage</text>
</g>
<!-- 140543357378400 -->
<g id="node23" class="node">
<title>140543357378400</title>
<ellipse fill="none" stroke="#000000" cx="456" cy="-101" rx="27" ry="27"/>
<text text-anchor="middle" x="456" y="-97.3" font-family="Times,serif" font-size="14.00" fill="#000000">({&#39;artificial_start&#39;, &#39;ActionMessage&#39;}, {&#39;ActionDecoder&#39;, &#39;MarketSummaryWebSocket&#39;, &#39;OrdersAlertFilter&#39;})</text>
</g>
<!-- 140543361115248&#45;&gt;140543357378400 -->
<g id="edge11" class="edge">
<title>140543361115248&#45;&gt;140543357378400</title>
<path fill="none" stroke="#000000" d="M392.0547,-116.0788C401.3554,-113.8856 410.8951,-111.6361 419.6738,-109.566"/>
<polygon fill="#000000" stroke="#000000" points="420.6399,-112.9343 429.5696,-107.2325 419.0332,-106.1211 420.6399,-112.9343"/>
</g>
<!-- 140543361115136 -->
<g id="node3" class="node">
<title>140543361115136</title>
<polygon fill="none" stroke="#000000" points="109,-349 55,-349 55,-313 109,-313 109,-349"/>
<text text-anchor="middle" x="82" y="-327.3" font-family="Times,serif" font-size="14.00" fill="#000000">Log</text>
</g>
<!-- 140543361116480 -->
<g id="node19" class="node">
<title>140543361116480</title>
<ellipse fill="none" stroke="#000000" cx="227" cy="-359" rx="27" ry="27"/>
<text text-anchor="middle" x="227" y="-355.3" font-family="Times,serif" font-size="14.00" fill="#000000">({&#39;Log&#39;}, {&#39;TradeConfig&#39;})</text>
</g>
<!-- 140543361115136&#45;&gt;140543361116480 -->
<g id="edge12" class="edge">
<title>140543361115136&#45;&gt;140543361116480</title>
<path fill="none" stroke="#000000" d="M109.2734,-336.2666C132.2021,-340.6942 165.1792,-347.0622 190.4017,-351.9327"/>
<polygon fill="#000000" stroke="#000000" points="189.8566,-355.3921 200.3388,-353.8516 191.1838,-348.519 189.8566,-355.3921"/>
</g>
<!-- 140543361114968 -->
<g id="node4" class="node">
<title>140543361114968</title>
<polygon fill="none" stroke="#000000" points="164,-467 0,-467 0,-431 164,-431 164,-467"/>
<text text-anchor="middle" x="82" y="-445.3" font-family="Times,serif" font-size="14.00" fill="#000000">MarketSummaryDataBean</text>
</g>
<!-- 140543361115696 -->
<g id="node20" class="node">
<title>140543361115696</title>
<ellipse fill="none" stroke="#000000" cx="227" cy="-477" rx="27" ry="27"/>
<text text-anchor="middle" x="227" y="-473.3" font-family="Times,serif" font-size="14.00" fill="#000000">({&#39;MarketSummaryDataBean&#39;}, {&#39;QuoteDataBean&#39;})</text>
</g>
<!-- 140543361114968&#45;&gt;140543361115696 -->
<g id="edge13" class="edge">
<title>140543361114968&#45;&gt;140543361115696</title>
<path fill="none" stroke="#000000" d="M164.2442,-464.8816C173.4127,-466.6521 182.3694,-468.3817 190.5135,-469.9543"/>
<polygon fill="#000000" stroke="#000000" points="189.8671,-473.3941 200.3494,-471.8537 191.1944,-466.5211 189.8671,-473.3941"/>
</g>
<!-- 140543361114576 -->
<g id="node5" class="node">
<title>140543361114576</title>
<polygon fill="none" stroke="#000000" points="163,-521 1,-521 1,-485 163,-485 163,-521"/>
<text text-anchor="middle" x="82" y="-499.3" font-family="Times,serif" font-size="14.00" fill="#000000">MarketSummarySingleton</text>
</g>
<!-- 140543361114800 -->
<g id="node6" class="node">
<title>140543361114800</title>
<polygon fill="none" stroke="#000000" points="692,-256 519,-256 519,-220 692,-220 692,-256"/>
<text text-anchor="middle" x="605.5" y="-234.3" font-family="Times,serif" font-size="14.00" fill="#000000">MarketSummaryWebSocket</text>
</g>
<!-- 140543361114800&#45;&gt;140543357378288 -->
<g id="edge14" class="edge">
<title>140543361114800&#45;&gt;140543357378288</title>
<path fill="none" stroke="#000000" d="M518.9525,-249.3071C454.0953,-254.5334 364.1393,-254.7876 290,-229 276.9826,-224.4722 264.4305,-216.2013 254.0028,-207.8457"/>
<polygon fill="#000000" stroke="#000000" points="256.0259,-204.9732 246.1271,-201.1964 251.5101,-210.3218 256.0259,-204.9732"/>
</g>
<!-- 140543361115304 -->
<g id="node7" class="node">
<title>140543361115304</title>
<polygon fill="none" stroke="#000000" points="660.5,-174 550.5,-174 550.5,-138 660.5,-138 660.5,-174"/>
<text text-anchor="middle" x="605.5" y="-152.3" font-family="Times,serif" font-size="14.00" fill="#000000">OrdersAlertFilter</text>
</g>
<!-- 140543361115304&#45;&gt;140543357378288 -->
<g id="edge15" class="edge">
<title>140543361115304&#45;&gt;140543357378288</title>
<path fill="none" stroke="#000000" d="M573.6812,-174.0682C549.6285,-186.6414 515.335,-202.305 483,-209 399.0038,-226.3916 374.026,-226.247 290,-209 279.9644,-206.9401 269.5535,-203.212 260.1547,-199.1707"/>
<polygon fill="#000000" stroke="#000000" points="261.3361,-195.8629 250.7848,-194.9027 258.4344,-202.2332 261.3361,-195.8629"/>
</g>
<!-- 140543361114912 -->
<g id="node8" class="node">
<title>140543361114912</title>
<polygon fill="none" stroke="#000000" points="393,-491 290,-491 290,-455 393,-455 393,-491"/>
<text text-anchor="middle" x="341.5" y="-469.3" font-family="Times,serif" font-size="14.00" fill="#000000">QuoteDataBean</text>
</g>
<!-- 140543361115864 -->
<g id="node21" class="node">
<title>140543361115864</title>
<ellipse fill="none" stroke="#000000" cx="456" cy="-433" rx="27" ry="27"/>
<text text-anchor="middle" x="456" y="-429.3" font-family="Times,serif" font-size="14.00" fill="#000000">({&#39;QuoteDataBean&#39;}, {&#39;MarketSummaryDataBean&#39;})</text>
</g>
<!-- 140543361114912&#45;&gt;140543361115864 -->
<g id="edge16" class="edge">
<title>140543361114912&#45;&gt;140543361115864</title>
<path fill="none" stroke="#000000" d="M393.0557,-454.9893C402.4575,-451.7048 412.0661,-448.3481 420.8538,-445.2781"/>
<polygon fill="#000000" stroke="#000000" points="422.0857,-448.5553 430.3719,-441.953 419.7771,-441.9469 422.0857,-448.5553"/>
</g>
<!-- 140543361114744 -->
<g id="node9" class="node">
<title>140543361114744</title>
<polygon fill="none" stroke="#000000" points="155.5,-575 8.5,-575 8.5,-539 155.5,-539 155.5,-575"/>
<text text-anchor="middle" x="82" y="-553.3" font-family="Times,serif" font-size="14.00" fill="#000000">RecentStockChangeList</text>
</g>
<!-- 140543361114464 -->
<g id="node10" class="node">
<title>140543361114464</title>
<polygon fill="none" stroke="#000000" points="368.5,-200 314.5,-200 314.5,-164 368.5,-164 368.5,-200"/>
<text text-anchor="middle" x="341.5" y="-178.3" font-family="Times,serif" font-size="14.00" fill="#000000">Root</text>
</g>
<!-- 140543361116312 -->
<g id="node24" class="node">
<title>140543361116312</title>
<ellipse fill="#ffa500" stroke="#000000" cx="456" cy="-173" rx="27" ry="27"/>
</g>
<!-- 140543361114464&#45;&gt;140543361116312 -->
<g id="edge17" class="edge">
<title>140543361114464&#45;&gt;140543361116312</title>
<path fill="none" stroke="#000000" d="M368.6349,-179.8671C383.6074,-178.6902 402.4217,-177.2114 418.7523,-175.9278"/>
<polygon fill="#000000" stroke="#000000" points="419.3649,-179.3905 429.0599,-175.1176 418.8163,-172.412 419.3649,-179.3905"/>
</g>
<!-- 140543361115080 -->
<g id="node11" class="node">
<title>140543361115080</title>
<polygon fill="none" stroke="#000000" points="124.5,-629 39.5,-629 39.5,-593 124.5,-593 124.5,-629"/>
<text text-anchor="middle" x="82" y="-607.3" font-family="Times,serif" font-size="14.00" fill="#000000">TradeAction</text>
</g>
<!-- 140543361114688 -->
<g id="node12" class="node">
<title>140543361114688</title>
<polygon fill="none" stroke="#000000" points="137,-683 27,-683 27,-647 137,-647 137,-683"/>
<text text-anchor="middle" x="82" y="-661.3" font-family="Times,serif" font-size="14.00" fill="#000000">TradeAppServlet</text>
</g>
<!-- 140543361116200 -->
<g id="node13" class="node">
<title>140543361116200</title>
<polygon fill="none" stroke="#000000" points="384.5,-373 298.5,-373 298.5,-337 384.5,-337 384.5,-373"/>
<text text-anchor="middle" x="341.5" y="-351.3" font-family="Times,serif" font-size="14.00" fill="#000000">TradeConfig</text>
</g>
<!-- 140543361116424 -->
<g id="node22" class="node">
<title>140543361116424</title>
<ellipse fill="none" stroke="#000000" cx="456" cy="-347" rx="27" ry="27"/>
<text text-anchor="middle" x="456" y="-343.3" font-family="Times,serif" font-size="14.00" fill="#000000">({&#39;TradeConfig&#39;}, {&#39;Log&#39;})</text>
</g>
<!-- 140543361116200&#45;&gt;140543361116424 -->
<g id="edge18" class="edge">
<title>140543361116200&#45;&gt;140543361116424</title>
<path fill="none" stroke="#000000" d="M384.7875,-351.9755C396.0175,-351.1909 408.0109,-350.353 418.8917,-349.5927"/>
<polygon fill="#000000" stroke="#000000" points="419.1901,-353.0805 428.9218,-348.8919 418.7021,-346.0975 419.1901,-353.0805"/>
</g>
<!-- 140543361116144 -->
<g id="node14" class="node">
<title>140543361116144</title>
<polygon fill="none" stroke="#000000" points="136,-737 28,-737 28,-701 136,-701 136,-737"/>
<text text-anchor="middle" x="82" y="-715.3" font-family="Times,serif" font-size="14.00" fill="#000000">TradeSLSBBean</text>
</g>
<!-- 140543361114632 -->
<g id="node15" class="node">
<title>140543361114632</title>
<polygon fill="none" stroke="#000000" points="143.5,-791 20.5,-791 20.5,-755 143.5,-755 143.5,-791"/>
<text text-anchor="middle" x="82" y="-769.3" font-family="Times,serif" font-size="14.00" fill="#000000">TradeServletAction</text>
</g>
<!-- 140543361114520 -->
<g id="node16" class="node">
<title>140543361114520</title>
<polygon fill="none" stroke="#000000" points="387.5,-50 295.5,-50 295.5,-14 387.5,-14 387.5,-50"/>
<text text-anchor="middle" x="341.5" y="-28.3" font-family="Times,serif" font-size="14.00" fill="#000000">artificial_start</text>
</g>
<!-- 140543361114520&#45;&gt;140543357378400 -->
<g id="edge19" class="edge">
<title>140543361114520&#45;&gt;140543357378400</title>
<path fill="none" stroke="#000000" d="M371.5835,-50.1289C387.6844,-59.8316 407.5171,-71.7832 423.9126,-81.6635"/>
<polygon fill="#000000" stroke="#000000" points="422.2505,-84.7483 432.6221,-86.912 425.8636,-78.7527 422.2505,-84.7483"/>
</g>
<!-- 140543361117656 -->
<g id="node17" class="node">
<title>140543361117656</title>
<ellipse fill="#00ff00" stroke="#000000" cx="227" cy="-27" rx="27" ry="27"/>
<text text-anchor="middle" x="227" y="-23.3" font-family="Times,serif" font-size="14.00" fill="#000000">1</text>
</g>
<!-- 140543361117656&#45;&gt;140543361114520 -->
<g id="edge20" class="edge">
<title>140543361117656&#45;&gt;140543361114520</title>
<path fill="none" stroke="#000000" d="M254.1349,-28.1849C263.4563,-28.592 274.2667,-29.064 285.0399,-29.5345"/>
<polygon fill="#000000" stroke="#000000" points="285.1643,-33.0432 295.3075,-29.9829 285.4697,-26.0498 285.1643,-33.0432"/>
</g>
<!-- 140543357378288&#45;&gt;140543361115248 -->
<g id="edge1" class="edge">
<title>140543357378288&#45;&gt;140543361115248</title>
<path fill="none" stroke="#000000" d="M251.5631,-170.4156C263.8531,-164.6195 279.1653,-157.398 293.6519,-150.5659"/>
<polygon fill="#000000" stroke="#000000" points="295.4606,-153.5827 303.0123,-146.1514 292.4747,-147.2514 295.4606,-153.5827"/>
</g>
<!-- 140543357378288&#45;&gt;140543361114464 -->
<g id="edge2" class="edge">
<title>140543357378288&#45;&gt;140543361114464</title>
<path fill="none" stroke="#000000" d="M254.1349,-182C268.9989,-182 287.6492,-182 303.8969,-182"/>
<polygon fill="#000000" stroke="#000000" points="304.1631,-185.5001 314.1631,-182 304.163,-178.5001 304.1631,-185.5001"/>
</g>
<!-- 140543361116480&#45;&gt;140543361116200 -->
<g id="edge3" class="edge">
<title>140543361116480&#45;&gt;140543361116200</title>
<path fill="none" stroke="#000000" d="M254.1349,-358.0521C264.3646,-357.6947 276.3876,-357.2747 288.1866,-356.8625"/>
<polygon fill="#000000" stroke="#000000" points="288.5753,-360.3511 298.447,-356.504 288.3308,-353.3554 288.5753,-360.3511"/>
</g>
<!-- 140543361115696&#45;&gt;140543361114912 -->
<g id="edge4" class="edge">
<title>140543361115696&#45;&gt;140543361114912</title>
<path fill="none" stroke="#000000" d="M254.1349,-476.0521C261.9188,-475.7801 270.7409,-475.4719 279.7126,-475.1585"/>
<polygon fill="#000000" stroke="#000000" points="279.9865,-478.6512 289.8581,-474.8041 279.742,-471.6554 279.9865,-478.6512"/>
</g>
<!-- 140543361115864&#45;&gt;140543361114968 -->
<g id="edge5" class="edge">
<title>140543361115864&#45;&gt;140543361114968</title>
<path fill="none" stroke="#000000" d="M428.708,-433.5263C381.8926,-434.5023 283.272,-436.8775 200,-441 191.6718,-441.4123 183.0165,-441.8951 174.3475,-442.4157"/>
<polygon fill="#000000" stroke="#000000" points="173.949,-438.9335 164.1833,-443.0421 174.3797,-445.9202 173.949,-438.9335"/>
</g>
<!-- 140543361116424&#45;&gt;140543361115136 -->
<g id="edge6" class="edge">
<title>140543361116424&#45;&gt;140543361115136</title>
<path fill="none" stroke="#000000" d="M430.6059,-337.7161C419.2588,-333.993 405.6224,-330.0945 393,-328 295.4658,-311.8159 178.3526,-320.3179 119.5646,-326.472"/>
<polygon fill="#000000" stroke="#000000" points="118.8483,-323.0291 109.2842,-327.5873 119.6034,-329.9882 118.8483,-323.0291"/>
</g>
<!-- 140543357378400&#45;&gt;140543361115192 -->
<g id="edge7" class="edge">
<title>140543357378400&#45;&gt;140543361115192</title>
<path fill="none" stroke="#000000" d="M428.9273,-99.7741C396.0297,-98.5672 338.8591,-97.3791 290,-101 239.7131,-104.7268 183.1451,-113.4552 141.7099,-120.7039"/>
<polygon fill="#000000" stroke="#000000" points="141.0172,-117.272 131.7812,-122.463 142.2385,-124.1646 141.0172,-117.272"/>
</g>
<!-- 140543357378400&#45;&gt;140543361114800 -->
<g id="edge8" class="edge">
<title>140543357378400&#45;&gt;140543361114800</title>
<path fill="none" stroke="#000000" d="M472.5465,-122.9243C490.2677,-146.3457 516.2351,-180.4702 519,-183 531.9387,-194.8385 547.734,-205.7128 562.2692,-214.6109"/>
<polygon fill="#000000" stroke="#000000" points="560.7381,-217.7728 571.1199,-219.8868 564.3223,-211.76 560.7381,-217.7728"/>
</g>
<!-- 140543357378400&#45;&gt;140543361115304 -->
<g id="edge9" class="edge">
<title>140543357378400&#45;&gt;140543361115304</title>
<path fill="none" stroke="#000000" d="M481.3606,-110.33C499.2924,-116.927 524.0877,-126.049 546.8063,-134.407"/>
<polygon fill="#000000" stroke="#000000" points="545.7961,-137.7646 556.3896,-137.9326 548.213,-131.1951 545.7961,-137.7646"/>
</g>
</g>
</svg>
