<?xml version="1.0" encoding="UTF-8" standalone="no"?>
<!DOCTYPE svg PUBLIC "-//W3C//DTD SVG 1.1//EN"
 "http://www.w3.org/Graphics/SVG/1.1/DTD/svg11.dtd">
<!-- Generated by graphviz version 2.40.1 (20161225.0304)
 -->
<!-- Title: alpha_classic_net_1585281871.1496696 Pages: 1 -->
<svg width="651pt" height="701pt"
 viewBox="0.00 0.00 651.00 701.00" xmlns="http://www.w3.org/2000/svg" xmlns:xlink="http://www.w3.org/1999/xlink">
<g id="graph0" class="graph" transform="scale(1 1) rotate(0) translate(4 697)">
<title>alpha_classic_net_1585281871.1496696</title>
<!-- 140543361117488 -->
<g id="node1" class="node">
<title>140543361117488</title>
<polygon fill="none" stroke="#000000" points="336,-144 237,-144 237,-108 336,-108 336,-144"/>
<text text-anchor="middle" x="286.5" y="-122.3" font-family="Times,serif" font-size="14.00" fill="#000000">ActionDecoder</text>
</g>
<!-- 140543361116760 -->
<g id="node17" class="node">
<title>140543361116760</title>
<ellipse fill="none" stroke="#000000" cx="436" cy="-72" rx="27" ry="27"/>
<text text-anchor="middle" x="436" y="-68.3" font-family="Times,serif" font-size="14.00" fill="#000000">({&#39;ActionDecoder&#39;, &#39;MarketSummaryWebSocket&#39;, &#39;OrdersAlertFilter&#39;}, {&#39;Root&#39;})</text>
</g>
<!-- 140543361117488&#45;&gt;140543361116760 -->
<g id="edge2" class="edge">
<title>140543361117488&#45;&gt;140543361116760</title>
<path fill="none" stroke="#000000" d="M336.1967,-111.4439C348.319,-107.6311 361.1936,-103.3596 373,-99 382.5277,-95.4818 392.7053,-91.3083 402.0402,-87.3076"/>
<polygon fill="#000000" stroke="#000000" points="403.627,-90.4342 411.4007,-83.2356 400.8346,-84.0153 403.627,-90.4342"/>
</g>
<!-- 140543361116984 -->
<g id="node2" class="node">
<title>140543361116984</title>
<polygon fill="none" stroke="#000000" points="132.5,-153 31.5,-153 31.5,-117 132.5,-117 132.5,-153"/>
<text text-anchor="middle" x="82" y="-131.3" font-family="Times,serif" font-size="14.00" fill="#000000">ActionMessage</text>
</g>
<!-- 140543361117376 -->
<g id="node3" class="node">
<title>140543361117376</title>
<polygon fill="none" stroke="#000000" points="109,-207 55,-207 55,-171 109,-171 109,-207"/>
<text text-anchor="middle" x="82" y="-185.3" font-family="Times,serif" font-size="14.00" fill="#000000">Log</text>
</g>
<!-- 140543361117656 -->
<g id="node4" class="node">
<title>140543361117656</title>
<polygon fill="none" stroke="#000000" points="164,-261 0,-261 0,-225 164,-225 164,-261"/>
<text text-anchor="middle" x="82" y="-239.3" font-family="Times,serif" font-size="14.00" fill="#000000">MarketSummaryDataBean</text>
</g>
<!-- 140543361117600 -->
<g id="node5" class="node">
<title>140543361117600</title>
<polygon fill="none" stroke="#000000" points="163,-315 1,-315 1,-279 163,-279 163,-315"/>
<text text-anchor="middle" x="82" y="-293.3" font-family="Times,serif" font-size="14.00" fill="#000000">MarketSummarySingleton</text>
</g>
<!-- 140543361117432 -->
<g id="node6" class="node">
<title>140543361117432</title>
<polygon fill="none" stroke="#000000" points="373,-90 200,-90 200,-54 373,-54 373,-90"/>
<text text-anchor="middle" x="286.5" y="-68.3" font-family="Times,serif" font-size="14.00" fill="#000000">MarketSummaryWebSocket</text>
</g>
<!-- 140543361117432&#45;&gt;140543361116760 -->
<g id="edge3" class="edge">
<title>140543361117432&#45;&gt;140543361116760</title>
<path fill="none" stroke="#000000" d="M373.0318,-72C382.0115,-72 390.7584,-72 398.7366,-72"/>
<polygon fill="#000000" stroke="#000000" points="398.737,-75.5001 408.737,-72 398.7369,-68.5001 398.737,-75.5001"/>
</g>
<!-- 140543361117096 -->
<g id="node7" class="node">
<title>140543361117096</title>
<polygon fill="none" stroke="#000000" points="341.5,-36 231.5,-36 231.5,0 341.5,0 341.5,-36"/>
<text text-anchor="middle" x="286.5" y="-14.3" font-family="Times,serif" font-size="14.00" fill="#000000">OrdersAlertFilter</text>
</g>
<!-- 140543361117096&#45;&gt;140543361116760 -->
<g id="edge4" class="edge">
<title>140543361117096&#45;&gt;140543361116760</title>
<path fill="none" stroke="#000000" d="M341.6964,-34.3016C352.1573,-37.6523 362.9646,-41.2944 373,-45 382.5277,-48.5182 392.7053,-52.6917 402.0402,-56.6924"/>
<polygon fill="#000000" stroke="#000000" points="400.8346,-59.9847 411.4007,-60.7644 403.627,-53.5658 400.8346,-59.9847"/>
</g>
<!-- 140543361117544 -->
<g id="node8" class="node">
<title>140543361117544</title>
<polygon fill="none" stroke="#000000" points="133.5,-369 30.5,-369 30.5,-333 133.5,-333 133.5,-369"/>
<text text-anchor="middle" x="82" y="-347.3" font-family="Times,serif" font-size="14.00" fill="#000000">QuoteDataBean</text>
</g>
<!-- 140543361117880 -->
<g id="node9" class="node">
<title>140543361117880</title>
<polygon fill="none" stroke="#000000" points="155.5,-423 8.5,-423 8.5,-387 155.5,-387 155.5,-423"/>
<text text-anchor="middle" x="82" y="-401.3" font-family="Times,serif" font-size="14.00" fill="#000000">RecentStockChangeList</text>
</g>
<!-- 140543361117824 -->
<g id="node10" class="node">
<title>140543361117824</title>
<polygon fill="none" stroke="#000000" points="553,-90 499,-90 499,-54 553,-54 553,-90"/>
<text text-anchor="middle" x="526" y="-68.3" font-family="Times,serif" font-size="14.00" fill="#000000">Root</text>
</g>
<!-- 140543361117152 -->
<g id="node18" class="node">
<title>140543361117152</title>
<ellipse fill="#ffa500" stroke="#000000" cx="616" cy="-72" rx="27" ry="27"/>
</g>
<!-- 140543361117824&#45;&gt;140543361117152 -->
<g id="edge5" class="edge">
<title>140543361117824&#45;&gt;140543361117152</title>
<path fill="none" stroke="#000000" d="M553.003,-72C561.0277,-72 569.9665,-72 578.5309,-72"/>
<polygon fill="#000000" stroke="#000000" points="578.7051,-75.5001 588.705,-72 578.705,-68.5001 578.7051,-75.5001"/>
</g>
<!-- 140543361117768 -->
<g id="node11" class="node">
<title>140543361117768</title>
<polygon fill="none" stroke="#000000" points="124.5,-477 39.5,-477 39.5,-441 124.5,-441 124.5,-477"/>
<text text-anchor="middle" x="82" y="-455.3" font-family="Times,serif" font-size="14.00" fill="#000000">TradeAction</text>
</g>
<!-- 140543361117712 -->
<g id="node12" class="node">
<title>140543361117712</title>
<polygon fill="none" stroke="#000000" points="137,-531 27,-531 27,-495 137,-495 137,-531"/>
<text text-anchor="middle" x="82" y="-509.3" font-family="Times,serif" font-size="14.00" fill="#000000">TradeAppServlet</text>
</g>
<!-- 140543361117320 -->
<g id="node13" class="node">
<title>140543361117320</title>
<polygon fill="none" stroke="#000000" points="125,-585 39,-585 39,-549 125,-549 125,-585"/>
<text text-anchor="middle" x="82" y="-563.3" font-family="Times,serif" font-size="14.00" fill="#000000">TradeConfig</text>
</g>
<!-- 140543361116872 -->
<g id="node14" class="node">
<title>140543361116872</title>
<polygon fill="none" stroke="#000000" points="136,-639 28,-639 28,-603 136,-603 136,-639"/>
<text text-anchor="middle" x="82" y="-617.3" font-family="Times,serif" font-size="14.00" fill="#000000">TradeSLSBBean</text>
</g>
<!-- 140543361117992 -->
<g id="node15" class="node">
<title>140543361117992</title>
<polygon fill="none" stroke="#000000" points="143.5,-693 20.5,-693 20.5,-657 143.5,-657 143.5,-693"/>
<text text-anchor="middle" x="82" y="-671.3" font-family="Times,serif" font-size="14.00" fill="#000000">TradeServletAction</text>
</g>
<!-- 140543361117208 -->
<g id="node16" class="node">
<title>140543361117208</title>
<ellipse fill="#00ff00" stroke="#000000" cx="82" cy="-72" rx="27" ry="27"/>
<text text-anchor="middle" x="82" y="-68.3" font-family="Times,serif" font-size="14.00" fill="#000000">1</text>
</g>
<!-- 140543361117208&#45;&gt;140543361117488 -->
<g id="edge6" class="edge">
<title>140543361117208&#45;&gt;140543361117488</title>
<path fill="none" stroke="#000000" d="M108.3161,-78.949C138.1504,-86.827 187.7435,-99.9225 227.0446,-110.3003"/>
<polygon fill="#000000" stroke="#000000" points="226.2342,-113.7062 236.7964,-112.8753 228.0214,-106.9382 226.2342,-113.7062"/>
</g>
<!-- 140543361117208&#45;&gt;140543361117432 -->
<g id="edge7" class="edge">
<title>140543361117208&#45;&gt;140543361117432</title>
<path fill="none" stroke="#000000" d="M109.156,-72C129.9546,-72 159.9916,-72 189.4514,-72"/>
<polygon fill="#000000" stroke="#000000" points="189.8315,-75.5001 199.8315,-72 189.8315,-68.5001 189.8315,-75.5001"/>
</g>
<!-- 140543361117208&#45;&gt;140543361117096 -->
<g id="edge8" class="edge">
<title>140543361117208&#45;&gt;140543361117096</title>
<path fill="none" stroke="#000000" d="M108.3161,-65.051C136.7367,-57.5463 183.0877,-45.3069 221.3914,-35.1925"/>
<polygon fill="#000000" stroke="#000000" points="222.6737,-38.4739 231.4487,-32.5368 220.8865,-31.7059 222.6737,-38.4739"/>
</g>
<!-- 140543361116760&#45;&gt;140543361117824 -->
<g id="edge1" class="edge">
<title>140543361116760&#45;&gt;140543361117824</title>
<path fill="none" stroke="#000000" d="M463.003,-72C471.0277,-72 479.9665,-72 488.5309,-72"/>
<polygon fill="#000000" stroke="#000000" points="488.7051,-75.5001 498.705,-72 488.705,-68.5001 488.7051,-75.5001"/>
</g>
</g>
</svg>
