<?xml version="1.0" encoding="UTF-8" standalone="no"?>
<!DOCTYPE svg PUBLIC "-//W3C//DTD SVG 1.1//EN"
 "http://www.w3.org/Graphics/SVG/1.1/DTD/svg11.dtd">
<!-- Generated by graphviz version 2.40.1 (20161225.0304)
 -->
<!-- Title: %3 Pages: 1 -->
<svg width="2076pt" height="495pt"
 viewBox="0.00 0.00 2076.00 495.00" xmlns="http://www.w3.org/2000/svg" xmlns:xlink="http://www.w3.org/1999/xlink">
<g id="graph0" class="graph" transform="scale(1 1) rotate(0) translate(4 491)">
<title>%3</title>
<!-- 140543357304448 -->
<g id="node1" class="node">
<title>140543357304448</title>
<polygon fill="none" stroke="#000000" points="99,-292 0,-292 0,-256 99,-256 99,-292"/>
<text text-anchor="middle" x="49.5" y="-270.3" font-family="Times,serif" font-size="14.00" fill="#000000">ActionDecoder</text>
</g>
<!-- 140543398527216 -->
<g id="node30" class="node">
<title>140543398527216</title>
<ellipse fill="none" stroke="#000000" cx="162" cy="-393" rx="27" ry="27"/>
<text text-anchor="middle" x="162" y="-389.3" font-family="Times,serif" font-size="14.00" fill="#000000">intplace_ActionDecoder</text>
</g>
<!-- 140543357304448&#45;&gt;140543398527216 -->
<g id="edge1" class="edge">
<title>140543357304448&#45;&gt;140543398527216</title>
<path fill="none" stroke="#000000" d="M66.5863,-292.0735C85.1419,-311.7012 114.9852,-343.2688 136.3553,-365.8736"/>
<polygon fill="#000000" stroke="#000000" points="133.836,-368.3035 143.2492,-373.1658 138.9227,-363.4946 133.836,-368.3035"/>
</g>
<!-- 140543357301032 -->
<g id="node2" class="node">
<title>140543357301032</title>
<polygon fill="none" stroke="#000000" points="686,-394 585,-394 585,-358 686,-358 686,-394"/>
<text text-anchor="middle" x="635.5" y="-372.3" font-family="Times,serif" font-size="14.00" fill="#000000">ActionMessage</text>
</g>
<!-- 140543357270896 -->
<g id="node31" class="node">
<title>140543357270896</title>
<ellipse fill="none" stroke="#000000" cx="749" cy="-363" rx="27" ry="27"/>
<text text-anchor="middle" x="749" y="-359.3" font-family="Times,serif" font-size="14.00" fill="#000000">intplace_ActionMessage</text>
</g>
<!-- 140543357301032&#45;&gt;140543357270896 -->
<g id="edge2" class="edge">
<title>140543357301032&#45;&gt;140543357270896</title>
<path fill="none" stroke="#000000" d="M686.2745,-370.1844C694.9067,-369.1957 703.7253,-368.1856 711.9196,-367.2471"/>
<polygon fill="#000000" stroke="#000000" points="712.3673,-370.7188 721.9041,-366.1035 711.5707,-363.7643 712.3673,-370.7188"/>
</g>
<!-- 140543357375152 -->
<g id="node3" class="node">
<title>140543357375152</title>
<polygon fill="none" stroke="#000000" points="1345,-327 1172,-327 1172,-291 1345,-291 1345,-327"/>
<text text-anchor="middle" x="1258.5" y="-305.3" font-family="Times,serif" font-size="14.00" fill="#000000">MarketSummaryWebSocket</text>
</g>
<!-- 140543357270784 -->
<g id="node32" class="node">
<title>140543357270784</title>
<ellipse fill="none" stroke="#000000" cx="1408" cy="-309" rx="27" ry="27"/>
<text text-anchor="middle" x="1408" y="-305.3" font-family="Times,serif" font-size="14.00" fill="#000000">intplace_MarketSummaryWebSocket</text>
</g>
<!-- 140543357375152&#45;&gt;140543357270784 -->
<g id="edge3" class="edge">
<title>140543357375152&#45;&gt;140543357270784</title>
<path fill="none" stroke="#000000" d="M1345.0318,-309C1354.0115,-309 1362.7584,-309 1370.7366,-309"/>
<polygon fill="#000000" stroke="#000000" points="1370.737,-312.5001 1380.737,-309 1370.7369,-305.5001 1370.737,-312.5001"/>
</g>
<!-- 140543357302544 -->
<g id="node4" class="node">
<title>140543357302544</title>
<polygon fill="none" stroke="#000000" points="1313.5,-100 1203.5,-100 1203.5,-64 1313.5,-64 1313.5,-100"/>
<text text-anchor="middle" x="1258.5" y="-78.3" font-family="Times,serif" font-size="14.00" fill="#000000">OrdersAlertFilter</text>
</g>
<!-- 140543398527328 -->
<g id="node33" class="node">
<title>140543398527328</title>
<ellipse fill="none" stroke="#000000" cx="1408" cy="-82" rx="27" ry="27"/>
<text text-anchor="middle" x="1408" y="-78.3" font-family="Times,serif" font-size="14.00" fill="#000000">intplace_OrdersAlertFilter</text>
</g>
<!-- 140543357302544&#45;&gt;140543398527328 -->
<g id="edge4" class="edge">
<title>140543357302544&#45;&gt;140543398527328</title>
<path fill="none" stroke="#000000" d="M1313.7435,-82C1332.6171,-82 1353.2745,-82 1370.4277,-82"/>
<polygon fill="#000000" stroke="#000000" points="1370.608,-85.5001 1380.6079,-82 1370.6079,-78.5001 1370.608,-85.5001"/>
</g>
<!-- 140543357302600 -->
<g id="node5" class="node">
<title>140543357302600</title>
<polygon fill="none" stroke="#000000" points="1798,-255 1651,-255 1651,-219 1798,-219 1798,-255"/>
<text text-anchor="middle" x="1724.5" y="-233.3" font-family="Times,serif" font-size="14.00" fill="#000000">RecentStockChangeList</text>
</g>
<!-- 140543357302992 -->
<g id="node45" class="node">
<title>140543357302992</title>
<ellipse fill="none" stroke="#000000" cx="1861" cy="-237" rx="27" ry="27"/>
<text text-anchor="middle" x="1861" y="-233.3" font-family="Times,serif" font-size="14.00" fill="#000000">splace_in_MarketSummaryWebSocket_1</text>
</g>
<!-- 140543357302600&#45;&gt;140543357302992 -->
<g id="edge5" class="edge">
<title>140543357302600&#45;&gt;140543357302992</title>
<path fill="none" stroke="#000000" d="M1798.3431,-237C1807.1659,-237 1815.8632,-237 1823.84,-237"/>
<polygon fill="#000000" stroke="#000000" points="1823.8612,-240.5001 1833.8611,-237 1823.8611,-233.5001 1823.8612,-240.5001"/>
</g>
<!-- 140543357301816 -->
<g id="node6" class="node">
<title>140543357301816</title>
<polygon fill="none" stroke="#000000" points="1978,-327 1924,-327 1924,-291 1978,-291 1978,-327"/>
<text text-anchor="middle" x="1951" y="-305.3" font-family="Times,serif" font-size="14.00" fill="#000000">Root</text>
</g>
<!-- 140543357303888 -->
<g id="node50" class="node">
<title>140543357303888</title>
<ellipse fill="#ffa500" stroke="#000000" cx="2041" cy="-309" rx="27" ry="27"/>
</g>
<!-- 140543357301816&#45;&gt;140543357303888 -->
<g id="edge6" class="edge">
<title>140543357301816&#45;&gt;140543357303888</title>
<path fill="none" stroke="#000000" d="M1978.003,-309C1986.0277,-309 1994.9665,-309 2003.5309,-309"/>
<polygon fill="#000000" stroke="#000000" points="2003.7051,-312.5001 2013.705,-309 2003.705,-305.5001 2003.7051,-312.5001"/>
</g>
<!-- 140543357301200 -->
<g id="node7" class="node">
<title>140543357301200</title>
<polygon fill="none" stroke="#000000" points="1767.5,-73 1681.5,-73 1681.5,-37 1767.5,-37 1767.5,-73"/>
<text text-anchor="middle" x="1724.5" y="-51.3" font-family="Times,serif" font-size="14.00" fill="#000000">TradeConfig</text>
</g>
<!-- 140543357270392 -->
<g id="node46" class="node">
<title>140543357270392</title>
<ellipse fill="none" stroke="#000000" cx="1861" cy="-55" rx="27" ry="27"/>
<text text-anchor="middle" x="1861" y="-51.3" font-family="Times,serif" font-size="14.00" fill="#000000">splace_in_OrdersAlertFilter_0</text>
</g>
<!-- 140543357301200&#45;&gt;140543357270392 -->
<g id="edge7" class="edge">
<title>140543357301200&#45;&gt;140543357270392</title>
<path fill="none" stroke="#000000" d="M1767.6895,-55C1785.6709,-55 1806.3474,-55 1823.6599,-55"/>
<polygon fill="#000000" stroke="#000000" points="1823.9505,-58.5001 1833.9504,-55 1823.9504,-51.5001 1823.9505,-58.5001"/>
</g>
<!-- 140543357302376 -->
<g id="node8" class="node">
<title>140543357302376</title>
<polygon fill="none" stroke="#000000" points="1046,-381 992,-381 992,-345 1046,-345 1046,-381"/>
<text text-anchor="middle" x="1019" y="-359.3" font-family="Times,serif" font-size="14.00" fill="#000000">hid_1</text>
</g>
<!-- 140543357303384 -->
<g id="node36" class="node">
<title>140543357303384</title>
<ellipse fill="none" stroke="#000000" cx="1109" cy="-309" rx="27" ry="27"/>
<text text-anchor="middle" x="1109" y="-305.3" font-family="Times,serif" font-size="14.00" fill="#000000">pre_MarketSummaryWebSocket</text>
</g>
<!-- 140543357302376&#45;&gt;140543357303384 -->
<g id="edge8" class="edge">
<title>140543357302376&#45;&gt;140543357303384</title>
<path fill="none" stroke="#000000" d="M1046.003,-346.7982C1055.7743,-340.9354 1066.9012,-334.2593 1077.0567,-328.166"/>
<polygon fill="#000000" stroke="#000000" points="1078.8986,-331.1426 1085.6728,-322.9963 1075.2971,-325.1401 1078.8986,-331.1426"/>
</g>
<!-- 140543357269888 -->
<g id="node9" class="node">
<title>140543357269888</title>
<polygon fill="none" stroke="#000000" points="1046,-219 992,-219 992,-183 1046,-183 1046,-219"/>
<text text-anchor="middle" x="1019" y="-197.3" font-family="Times,serif" font-size="14.00" fill="#000000">hid_10</text>
</g>
<!-- 140543357269440 -->
<g id="node34" class="node">
<title>140543357269440</title>
<ellipse fill="none" stroke="#000000" cx="1109" cy="-201" rx="27" ry="27"/>
<text text-anchor="middle" x="1109" y="-197.3" font-family="Times,serif" font-size="14.00" fill="#000000">pre_ActionDecoder</text>
</g>
<!-- 140543357269888&#45;&gt;140543357269440 -->
<g id="edge9" class="edge">
<title>140543357269888&#45;&gt;140543357269440</title>
<path fill="none" stroke="#000000" d="M1046.003,-201C1054.0277,-201 1062.9665,-201 1071.5309,-201"/>
<polygon fill="#000000" stroke="#000000" points="1071.7051,-204.5001 1081.705,-201 1071.705,-197.5001 1071.7051,-204.5001"/>
</g>
<!-- 140543357270224 -->
<g id="node10" class="node">
<title>140543357270224</title>
<polygon fill="none" stroke="#000000" points="1978,-45 1924,-45 1924,-9 1978,-9 1978,-45"/>
<text text-anchor="middle" x="1951" y="-23.3" font-family="Times,serif" font-size="14.00" fill="#000000">hid_11</text>
</g>
<!-- 140543357269552 -->
<g id="node37" class="node">
<title>140543357269552</title>
<ellipse fill="none" stroke="#000000" cx="1109" cy="-82" rx="27" ry="27"/>
<text text-anchor="middle" x="1109" y="-78.3" font-family="Times,serif" font-size="14.00" fill="#000000">pre_OrdersAlertFilter</text>
</g>
<!-- 140543357270224&#45;&gt;140543357269552 -->
<g id="edge10" class="edge">
<title>140543357270224&#45;&gt;140543357269552</title>
<path fill="none" stroke="#000000" d="M1923.9295,-21.6657C1881.5726,-13.797 1796.9704,0 1724.5,0 1408,0 1408,0 1408,0 1308.7296,0 1197.3102,-42.5581 1142.7679,-66.3551"/>
<polygon fill="#000000" stroke="#000000" points="1141.3008,-63.1768 1133.5735,-70.4253 1144.1344,-69.5777 1141.3008,-63.1768"/>
</g>
<!-- 140543357270504 -->
<g id="node11" class="node">
<title>140543357270504</title>
<polygon fill="none" stroke="#000000" points="1046,-109 992,-109 992,-73 1046,-73 1046,-109"/>
<text text-anchor="middle" x="1019" y="-87.3" font-family="Times,serif" font-size="14.00" fill="#000000">hid_12</text>
</g>
<!-- 140543357270504&#45;&gt;140543357269552 -->
<g id="edge11" class="edge">
<title>140543357270504&#45;&gt;140543357269552</title>
<path fill="none" stroke="#000000" d="M1046.003,-88.2997C1054.1903,-87.481 1063.3292,-86.5671 1072.051,-85.6949"/>
<polygon fill="#000000" stroke="#000000" points="1072.414,-89.1761 1082.0161,-84.6984 1071.7174,-82.2109 1072.414,-89.1761"/>
</g>
<!-- 140543357270952 -->
<g id="node12" class="node">
<title>140543357270952</title>
<polygon fill="none" stroke="#000000" points="1525,-390 1471,-390 1471,-354 1525,-354 1525,-390"/>
<text text-anchor="middle" x="1498" y="-368.3" font-family="Times,serif" font-size="14.00" fill="#000000">hid_13</text>
</g>
<!-- 140543357269272 -->
<g id="node43" class="node">
<title>140543357269272</title>
<ellipse fill="none" stroke="#000000" cx="1588" cy="-381" rx="27" ry="27"/>
<text text-anchor="middle" x="1588" y="-377.3" font-family="Times,serif" font-size="14.00" fill="#000000">splace_in_ActionMessage_1</text>
</g>
<!-- 140543357270952&#45;&gt;140543357269272 -->
<g id="edge12" class="edge">
<title>140543357270952&#45;&gt;140543357269272</title>
<path fill="none" stroke="#000000" d="M1525.003,-374.7003C1533.1903,-375.519 1542.3292,-376.4329 1551.051,-377.3051"/>
<polygon fill="#000000" stroke="#000000" points="1550.7174,-380.7891 1561.0161,-378.3016 1551.414,-373.8239 1550.7174,-380.7891"/>
</g>
<!-- 140543357271176 -->
<g id="node13" class="node">
<title>140543357271176</title>
<polygon fill="none" stroke="#000000" points="1525,-264 1471,-264 1471,-228 1525,-228 1525,-264"/>
<text text-anchor="middle" x="1498" y="-242.3" font-family="Times,serif" font-size="14.00" fill="#000000">hid_14</text>
</g>
<!-- 140543357268768 -->
<g id="node38" class="node">
<title>140543357268768</title>
<ellipse fill="none" stroke="#000000" cx="1588" cy="-237" rx="27" ry="27"/>
<text text-anchor="middle" x="1588" y="-233.3" font-family="Times,serif" font-size="14.00" fill="#000000">pre_RecentStockChangeList</text>
</g>
<!-- 140543357271176&#45;&gt;140543357268768 -->
<g id="edge13" class="edge">
<title>140543357271176&#45;&gt;140543357268768</title>
<path fill="none" stroke="#000000" d="M1525.003,-243.2997C1533.1903,-242.481 1542.3292,-241.5671 1551.051,-240.6949"/>
<polygon fill="#000000" stroke="#000000" points="1551.414,-244.1761 1561.0161,-239.6984 1550.7174,-237.2109 1551.414,-244.1761"/>
</g>
<!-- 140543357271400 -->
<g id="node14" class="node">
<title>140543357271400</title>
<polygon fill="none" stroke="#000000" points="1525,-327 1471,-327 1471,-291 1525,-291 1525,-327"/>
<text text-anchor="middle" x="1498" y="-305.3" font-family="Times,serif" font-size="14.00" fill="#000000">hid_15</text>
</g>
<!-- 140543357268320 -->
<g id="node48" class="node">
<title>140543357268320</title>
<ellipse fill="none" stroke="#000000" cx="1588" cy="-309" rx="27" ry="27"/>
<text text-anchor="middle" x="1588" y="-305.3" font-family="Times,serif" font-size="14.00" fill="#000000">splace_in_Root_1</text>
</g>
<!-- 140543357271400&#45;&gt;140543357268320 -->
<g id="edge14" class="edge">
<title>140543357271400&#45;&gt;140543357268320</title>
<path fill="none" stroke="#000000" d="M1525.003,-309C1533.0277,-309 1541.9665,-309 1550.5309,-309"/>
<polygon fill="#000000" stroke="#000000" points="1550.7051,-312.5001 1560.705,-309 1550.705,-305.5001 1550.7051,-312.5001"/>
</g>
<!-- 140543357271792 -->
<g id="node15" class="node">
<title>140543357271792</title>
<polygon fill="none" stroke="#000000" points="866,-315 812,-315 812,-279 866,-279 866,-315"/>
<text text-anchor="middle" x="839" y="-293.3" font-family="Times,serif" font-size="14.00" fill="#000000">hid_16</text>
</g>
<!-- 140543357269776 -->
<g id="node41" class="node">
<title>140543357269776</title>
<ellipse fill="none" stroke="#000000" cx="929" cy="-286" rx="27" ry="27"/>
<text text-anchor="middle" x="929" y="-282.3" font-family="Times,serif" font-size="14.00" fill="#000000">splace_in_ActionDecoder_0</text>
</g>
<!-- 140543357271792&#45;&gt;140543357269776 -->
<g id="edge15" class="edge">
<title>140543357271792&#45;&gt;140543357269776</title>
<path fill="none" stroke="#000000" d="M866.003,-293.6996C874.1903,-292.699 883.3292,-291.582 892.051,-290.516"/>
<polygon fill="#000000" stroke="#000000" points="892.5146,-293.9855 902.0161,-289.298 891.6653,-287.0372 892.5146,-293.9855"/>
</g>
<!-- 140543357272016 -->
<g id="node16" class="node">
<title>140543357272016</title>
<polygon fill="none" stroke="#000000" points="866,-381 812,-381 812,-345 866,-345 866,-381"/>
<text text-anchor="middle" x="839" y="-359.3" font-family="Times,serif" font-size="14.00" fill="#000000">hid_17</text>
</g>
<!-- 140543357302264 -->
<g id="node44" class="node">
<title>140543357302264</title>
<ellipse fill="none" stroke="#000000" cx="929" cy="-363" rx="27" ry="27"/>
<text text-anchor="middle" x="929" y="-359.3" font-family="Times,serif" font-size="14.00" fill="#000000">splace_in_MarketSummaryWebSocket_0</text>
</g>
<!-- 140543357272016&#45;&gt;140543357302264 -->
<g id="edge16" class="edge">
<title>140543357272016&#45;&gt;140543357302264</title>
<path fill="none" stroke="#000000" d="M866.003,-363C874.0277,-363 882.9665,-363 891.5309,-363"/>
<polygon fill="#000000" stroke="#000000" points="891.7051,-366.5001 901.705,-363 891.705,-359.5001 891.7051,-366.5001"/>
</g>
<!-- 140543398527384 -->
<g id="node17" class="node">
<title>140543398527384</title>
<polygon fill="none" stroke="#000000" points="279,-411 225,-411 225,-375 279,-375 279,-411"/>
<text text-anchor="middle" x="252" y="-389.3" font-family="Times,serif" font-size="14.00" fill="#000000">hid_18</text>
</g>
<!-- 140543357268992 -->
<g id="node42" class="node">
<title>140543357268992</title>
<ellipse fill="none" stroke="#000000" cx="342" cy="-393" rx="27" ry="27"/>
<text text-anchor="middle" x="342" y="-389.3" font-family="Times,serif" font-size="14.00" fill="#000000">splace_in_ActionMessage_0</text>
</g>
<!-- 140543398527384&#45;&gt;140543357268992 -->
<g id="edge17" class="edge">
<title>140543398527384&#45;&gt;140543357268992</title>
<path fill="none" stroke="#000000" d="M279.003,-393C287.0277,-393 295.9665,-393 304.5309,-393"/>
<polygon fill="#000000" stroke="#000000" points="304.7051,-396.5001 314.705,-393 304.705,-389.5001 304.7051,-396.5001"/>
</g>
<!-- 140543398527608 -->
<g id="node18" class="node">
<title>140543398527608</title>
<polygon fill="none" stroke="#000000" points="369,-476 315,-476 315,-440 369,-440 369,-476"/>
<text text-anchor="middle" x="342" y="-454.3" font-family="Times,serif" font-size="14.00" fill="#000000">hid_19</text>
</g>
<!-- 140543357268040 -->
<g id="node47" class="node">
<title>140543357268040</title>
<ellipse fill="none" stroke="#000000" cx="432" cy="-460" rx="27" ry="27"/>
<text text-anchor="middle" x="432" y="-456.3" font-family="Times,serif" font-size="14.00" fill="#000000">splace_in_Root_0</text>
</g>
<!-- 140543398527608&#45;&gt;140543357268040 -->
<g id="edge18" class="edge">
<title>140543398527608&#45;&gt;140543357268040</title>
<path fill="none" stroke="#000000" d="M369.003,-458.6001C377.0277,-458.7784 385.9665,-458.977 394.5309,-459.1674"/>
<polygon fill="#000000" stroke="#000000" points="394.6297,-462.6703 404.705,-459.3934 394.7853,-455.672 394.6297,-462.6703"/>
</g>
<!-- 140543357303664 -->
<g id="node19" class="node">
<title>140543357303664</title>
<polygon fill="none" stroke="#000000" points="1978,-228 1924,-228 1924,-192 1978,-192 1978,-228"/>
<text text-anchor="middle" x="1951" y="-206.3" font-family="Times,serif" font-size="14.00" fill="#000000">hid_2</text>
</g>
<!-- 140543357303664&#45;&gt;140543357303384 -->
<g id="edge19" class="edge">
<title>140543357303664&#45;&gt;140543357303384</title>
<path fill="none" stroke="#000000" d="M1923.9388,-204.4681C1881.5945,-196.308 1797.0087,-182 1724.5,-182 1408,-182 1408,-182 1408,-182 1302.1718,-182 1190.8414,-250.2332 1138.9331,-286.6715"/>
<polygon fill="#000000" stroke="#000000" points="1136.6462,-284.0034 1130.5334,-292.657 1140.7085,-289.7041 1136.6462,-284.0034"/>
</g>
<!-- 140543398527944 -->
<g id="node20" class="node">
<title>140543398527944</title>
<polygon fill="none" stroke="#000000" points="1525,-141 1471,-141 1471,-105 1525,-105 1525,-141"/>
<text text-anchor="middle" x="1498" y="-119.3" font-family="Times,serif" font-size="14.00" fill="#000000">hid_20</text>
</g>
<!-- 140543357268600 -->
<g id="node49" class="node">
<title>140543357268600</title>
<ellipse fill="none" stroke="#000000" cx="1588" cy="-127" rx="27" ry="27"/>
<text text-anchor="middle" x="1588" y="-123.3" font-family="Times,serif" font-size="14.00" fill="#000000">splace_in_Root_2</text>
</g>
<!-- 140543398527944&#45;&gt;140543357268600 -->
<g id="edge20" class="edge">
<title>140543398527944&#45;&gt;140543357268600</title>
<path fill="none" stroke="#000000" d="M1525.003,-124.2001C1533.1013,-124.5601 1542.1306,-124.9614 1550.7665,-125.3452"/>
<polygon fill="#000000" stroke="#000000" points="1550.8705,-128.8532 1561.0161,-125.8007 1551.1814,-121.8601 1550.8705,-128.8532"/>
</g>
<!-- 140543398528168 -->
<g id="node21" class="node">
<title>140543398528168</title>
<polygon fill="none" stroke="#000000" points="1525,-78 1471,-78 1471,-42 1525,-42 1525,-78"/>
<text text-anchor="middle" x="1498" y="-56.3" font-family="Times,serif" font-size="14.00" fill="#000000">hid_21</text>
</g>
<!-- 140543357270168 -->
<g id="node40" class="node">
<title>140543357270168</title>
<ellipse fill="none" stroke="#000000" cx="1588" cy="-55" rx="27" ry="27"/>
<text text-anchor="middle" x="1588" y="-51.3" font-family="Times,serif" font-size="14.00" fill="#000000">pre_TradeConfig</text>
</g>
<!-- 140543398528168&#45;&gt;140543357270168 -->
<g id="edge21" class="edge">
<title>140543398528168&#45;&gt;140543357270168</title>
<path fill="none" stroke="#000000" d="M1525.003,-58.4998C1533.1013,-58.0499 1542.1306,-57.5483 1550.7665,-57.0685"/>
<polygon fill="#000000" stroke="#000000" points="1551.2257,-60.5485 1561.0161,-56.4991 1550.8373,-53.5593 1551.2257,-60.5485"/>
</g>
<!-- 140543357301368 -->
<g id="node22" class="node">
<title>140543357301368</title>
<polygon fill="none" stroke="#000000" points="1046,-327 992,-327 992,-291 1046,-291 1046,-327"/>
<text text-anchor="middle" x="1019" y="-305.3" font-family="Times,serif" font-size="14.00" fill="#000000">hid_3</text>
</g>
<!-- 140543357301368&#45;&gt;140543357303384 -->
<g id="edge22" class="edge">
<title>140543357301368&#45;&gt;140543357303384</title>
<path fill="none" stroke="#000000" d="M1046.003,-309C1054.0277,-309 1062.9665,-309 1071.5309,-309"/>
<polygon fill="#000000" stroke="#000000" points="1071.7051,-312.5001 1081.705,-309 1071.705,-305.5001 1071.7051,-312.5001"/>
</g>
<!-- 140543357304504 -->
<g id="node23" class="node">
<title>140543357304504</title>
<polygon fill="none" stroke="#000000" points="549,-487 495,-487 495,-451 549,-451 549,-487"/>
<text text-anchor="middle" x="522" y="-465.3" font-family="Times,serif" font-size="14.00" fill="#000000">hid_4</text>
</g>
<!-- 140543357302936 -->
<g id="node39" class="node">
<title>140543357302936</title>
<ellipse fill="none" stroke="#000000" cx="1861" cy="-309" rx="27" ry="27"/>
<text text-anchor="middle" x="1861" y="-305.3" font-family="Times,serif" font-size="14.00" fill="#000000">pre_Root</text>
</g>
<!-- 140543357304504&#45;&gt;140543357302936 -->
<g id="edge23" class="edge">
<title>140543357304504&#45;&gt;140543357302936</title>
<path fill="none" stroke="#000000" d="M549.2506,-469.9878C591.8618,-471.445 676.8627,-474 749,-474 749,-474 749,-474 1588,-474 1683.1817,-474 1722.0789,-489.4068 1798,-432 1826.1228,-410.7352 1842.7182,-373.3534 1851.7535,-345.3651"/>
<polygon fill="#000000" stroke="#000000" points="1855.1848,-346.1117 1854.7476,-335.5258 1848.4879,-344.0738 1855.1848,-346.1117"/>
</g>
<!-- 140543357268152 -->
<g id="node24" class="node">
<title>140543357268152</title>
<polygon fill="none" stroke="#000000" points="1751.5,-327 1697.5,-327 1697.5,-291 1751.5,-291 1751.5,-327"/>
<text text-anchor="middle" x="1724.5" y="-305.3" font-family="Times,serif" font-size="14.00" fill="#000000">hid_5</text>
</g>
<!-- 140543357268152&#45;&gt;140543357302936 -->
<g id="edge24" class="edge">
<title>140543357268152&#45;&gt;140543357302936</title>
<path fill="none" stroke="#000000" d="M1751.7947,-309C1772.347,-309 1800.762,-309 1823.4552,-309"/>
<polygon fill="#000000" stroke="#000000" points="1823.7526,-312.5001 1833.7526,-309 1823.7525,-305.5001 1823.7526,-312.5001"/>
</g>
<!-- 140543357268432 -->
<g id="node25" class="node">
<title>140543357268432</title>
<polygon fill="none" stroke="#000000" points="1751.5,-150 1697.5,-150 1697.5,-114 1751.5,-114 1751.5,-150"/>
<text text-anchor="middle" x="1724.5" y="-128.3" font-family="Times,serif" font-size="14.00" fill="#000000">hid_6</text>
</g>
<!-- 140543357268432&#45;&gt;140543357302936 -->
<g id="edge25" class="edge">
<title>140543357268432&#45;&gt;140543357302936</title>
<path fill="none" stroke="#000000" d="M1743.9564,-150.1177C1759.6064,-165.2578 1781.6115,-187.8698 1798,-210 1817.1923,-235.9163 1816.2911,-246.0483 1834,-273 1835.3889,-275.1138 1836.8584,-277.2688 1838.3657,-279.4206"/>
<polygon fill="#000000" stroke="#000000" points="1835.587,-281.5512 1844.2776,-287.6113 1841.263,-277.4544 1835.587,-281.5512"/>
</g>
<!-- 140543357268824 -->
<g id="node26" class="node">
<title>140543357268824</title>
<polygon fill="none" stroke="#000000" points="459,-411 405,-411 405,-375 459,-375 459,-411"/>
<text text-anchor="middle" x="432" y="-389.3" font-family="Times,serif" font-size="14.00" fill="#000000">hid_7</text>
</g>
<!-- 140543357301424 -->
<g id="node35" class="node">
<title>140543357301424</title>
<ellipse fill="none" stroke="#000000" cx="522" cy="-393" rx="27" ry="27"/>
<text text-anchor="middle" x="522" y="-389.3" font-family="Times,serif" font-size="14.00" fill="#000000">pre_ActionMessage</text>
</g>
<!-- 140543357268824&#45;&gt;140543357301424 -->
<g id="edge26" class="edge">
<title>140543357268824&#45;&gt;140543357301424</title>
<path fill="none" stroke="#000000" d="M459.003,-393C467.0277,-393 475.9665,-393 484.5309,-393"/>
<polygon fill="#000000" stroke="#000000" points="484.7051,-396.5001 494.705,-393 484.705,-389.5001 484.7051,-396.5001"/>
</g>
<!-- 140543357269104 -->
<g id="node27" class="node">
<title>140543357269104</title>
<polygon fill="none" stroke="#000000" points="1751.5,-423 1697.5,-423 1697.5,-387 1751.5,-387 1751.5,-423"/>
<text text-anchor="middle" x="1724.5" y="-401.3" font-family="Times,serif" font-size="14.00" fill="#000000">hid_8</text>
</g>
<!-- 140543357269104&#45;&gt;140543357301424 -->
<g id="edge27" class="edge">
<title>140543357269104&#45;&gt;140543357301424</title>
<path fill="none" stroke="#000000" d="M1697.4689,-411.1246C1655.1647,-420.159 1570.6318,-436 1498,-436 749,-436 749,-436 749,-436 680.344,-436 602.0164,-416.7767 557.6434,-404.0363"/>
<polygon fill="#000000" stroke="#000000" points="558.4934,-400.6383 547.9128,-401.1892 556.5276,-407.3566 558.4934,-400.6383"/>
</g>
<!-- 140543357269608 -->
<g id="node28" class="node">
<title>140543357269608</title>
<polygon fill="none" stroke="#000000" points="1046,-273 992,-273 992,-237 1046,-237 1046,-273"/>
<text text-anchor="middle" x="1019" y="-251.3" font-family="Times,serif" font-size="14.00" fill="#000000">hid_9</text>
</g>
<!-- 140543357269608&#45;&gt;140543357269440 -->
<g id="edge28" class="edge">
<title>140543357269608&#45;&gt;140543357269440</title>
<path fill="none" stroke="#000000" d="M1046.003,-238.7982C1055.7743,-232.9354 1066.9012,-226.2593 1077.0567,-220.166"/>
<polygon fill="#000000" stroke="#000000" points="1078.8986,-223.1426 1085.6728,-214.9963 1075.2971,-217.1401 1078.8986,-223.1426"/>
</g>
<!-- 140543357302656 -->
<g id="node29" class="node">
<title>140543357302656</title>
<ellipse fill="#00ff00" stroke="#000000" cx="929" cy="-210" rx="27" ry="27"/>
<text text-anchor="middle" x="929" y="-206.3" font-family="Times,serif" font-size="14.00" fill="#000000">1</text>
</g>
<!-- 140543357302656&#45;&gt;140543357269888 -->
<g id="edge45" class="edge">
<title>140543357302656&#45;&gt;140543357269888</title>
<path fill="none" stroke="#000000" d="M956.003,-207.2997C964.0277,-206.4972 972.9665,-205.6033 981.5309,-204.7469"/>
<polygon fill="#000000" stroke="#000000" points="982.1029,-208.2073 991.705,-203.7295 981.4064,-201.242 982.1029,-208.2073"/>
</g>
<!-- 140543357302656&#45;&gt;140543357270504 -->
<g id="edge46" class="edge">
<title>140543357302656&#45;&gt;140543357270504</title>
<path fill="none" stroke="#000000" d="M945.2983,-188.45C960.4134,-168.4645 982.9432,-138.6751 999.1114,-117.2971"/>
<polygon fill="#000000" stroke="#000000" points="1001.941,-119.3581 1005.1816,-109.271 996.3579,-115.1356 1001.941,-119.3581"/>
</g>
<!-- 140543357302656&#45;&gt;140543357301368 -->
<g id="edge47" class="edge">
<title>140543357302656&#45;&gt;140543357301368</title>
<path fill="none" stroke="#000000" d="M946.5656,-230.8061C959.0092,-245.3627 976.2271,-265.1406 992,-282 992.5095,-282.5446 993.0264,-283.0935 993.549,-283.6452"/>
<polygon fill="#000000" stroke="#000000" points="991.0635,-286.1098 1000.5328,-290.862 996.0938,-281.2419 991.0635,-286.1098"/>
</g>
<!-- 140543398527216&#45;&gt;140543398527384 -->
<g id="edge29" class="edge">
<title>140543398527216&#45;&gt;140543398527384</title>
<path fill="none" stroke="#000000" d="M189.003,-393C197.0277,-393 205.9665,-393 214.5309,-393"/>
<polygon fill="#000000" stroke="#000000" points="214.7051,-396.5001 224.705,-393 214.705,-389.5001 214.7051,-396.5001"/>
</g>
<!-- 140543398527216&#45;&gt;140543398527608 -->
<g id="edge30" class="edge">
<title>140543398527216&#45;&gt;140543398527608</title>
<path fill="none" stroke="#000000" d="M186.6243,-404.1686C198.1758,-409.2487 212.1901,-415.1861 225,-420 251.4706,-429.9475 281.8578,-439.7703 305.0291,-446.9365"/>
<polygon fill="#000000" stroke="#000000" points="304.2191,-450.3489 314.8058,-449.9351 306.2717,-443.6566 304.2191,-450.3489"/>
</g>
<!-- 140543357270896&#45;&gt;140543357271792 -->
<g id="edge31" class="edge">
<title>140543357270896&#45;&gt;140543357271792</title>
<path fill="none" stroke="#000000" d="M770.7865,-347.0232C781.3358,-339.2871 794.2289,-329.8322 805.9544,-321.2334"/>
<polygon fill="#000000" stroke="#000000" points="808.2416,-323.8964 814.2359,-315.1603 804.1021,-318.2516 808.2416,-323.8964"/>
</g>
<!-- 140543357270896&#45;&gt;140543357272016 -->
<g id="edge32" class="edge">
<title>140543357270896&#45;&gt;140543357272016</title>
<path fill="none" stroke="#000000" d="M776.003,-363C784.0277,-363 792.9665,-363 801.5309,-363"/>
<polygon fill="#000000" stroke="#000000" points="801.7051,-366.5001 811.705,-363 801.705,-359.5001 801.7051,-366.5001"/>
</g>
<!-- 140543357270784&#45;&gt;140543357270952 -->
<g id="edge33" class="edge">
<title>140543357270784&#45;&gt;140543357270952</title>
<path fill="none" stroke="#000000" d="M1430.2472,-324.573C1440.3684,-331.6579 1452.5735,-340.2015 1463.8201,-348.0741"/>
<polygon fill="#000000" stroke="#000000" points="1461.9838,-351.0609 1472.1832,-353.9283 1465.998,-345.3263 1461.9838,-351.0609"/>
</g>
<!-- 140543357270784&#45;&gt;140543357271176 -->
<g id="edge34" class="edge">
<title>140543357270784&#45;&gt;140543357271176</title>
<path fill="none" stroke="#000000" d="M1430.2472,-293.427C1440.3684,-286.3421 1452.5735,-277.7985 1463.8201,-269.9259"/>
<polygon fill="#000000" stroke="#000000" points="1465.998,-272.6737 1472.1832,-264.0717 1461.9838,-266.9391 1465.998,-272.6737"/>
</g>
<!-- 140543357270784&#45;&gt;140543357271400 -->
<g id="edge35" class="edge">
<title>140543357270784&#45;&gt;140543357271400</title>
<path fill="none" stroke="#000000" d="M1435.003,-309C1443.0277,-309 1451.9665,-309 1460.5309,-309"/>
<polygon fill="#000000" stroke="#000000" points="1460.7051,-312.5001 1470.705,-309 1460.705,-305.5001 1460.7051,-312.5001"/>
</g>
<!-- 140543398527328&#45;&gt;140543398527944 -->
<g id="edge36" class="edge">
<title>140543398527328&#45;&gt;140543398527944</title>
<path fill="none" stroke="#000000" d="M1432.5929,-93.2034C1441.5854,-97.3 1451.9573,-102.025 1461.7535,-106.4877"/>
<polygon fill="#000000" stroke="#000000" points="1460.3543,-109.6963 1470.9055,-110.657 1463.2563,-103.3262 1460.3543,-109.6963"/>
</g>
<!-- 140543398527328&#45;&gt;140543398528168 -->
<g id="edge37" class="edge">
<title>140543398527328&#45;&gt;140543398528168</title>
<path fill="none" stroke="#000000" d="M1434.5162,-75.5183C1442.8043,-73.4923 1452.1048,-71.2188 1460.9779,-69.0498"/>
<polygon fill="#000000" stroke="#000000" points="1461.8546,-72.4387 1470.7375,-66.6642 1460.1924,-65.6389 1461.8546,-72.4387"/>
</g>
<!-- 140543357269440&#45;&gt;140543357304448 -->
<g id="edge38" class="edge">
<title>140543357269440&#45;&gt;140543357304448</title>
<path fill="none" stroke="#000000" d="M1084.6766,-188.9274C1073.1883,-183.657 1059.1405,-177.8205 1046,-174 995.4135,-159.2925 981.6812,-155 929,-155 252,-155 252,-155 252,-155 178.8335,-155 108.7518,-213.4596 73.3743,-248.4304"/>
<polygon fill="#000000" stroke="#000000" points="70.5026,-246.3565 65.9566,-255.9265 75.4783,-251.2801 70.5026,-246.3565"/>
</g>
<!-- 140543357301424&#45;&gt;140543357301032 -->
<g id="edge39" class="edge">
<title>140543357301424&#45;&gt;140543357301032</title>
<path fill="none" stroke="#000000" d="M548.8979,-388.9712C556.709,-387.8013 565.575,-386.4733 574.5817,-385.1243"/>
<polygon fill="#000000" stroke="#000000" points="575.3905,-388.5423 584.7617,-383.5996 574.3535,-381.6195 575.3905,-388.5423"/>
</g>
<!-- 140543357303384&#45;&gt;140543357375152 -->
<g id="edge40" class="edge">
<title>140543357303384&#45;&gt;140543357375152</title>
<path fill="none" stroke="#000000" d="M1136.0733,-309C1143.6739,-309 1152.4032,-309 1161.6263,-309"/>
<polygon fill="#000000" stroke="#000000" points="1161.7982,-312.5001 1171.7982,-309 1161.7981,-305.5001 1161.7982,-312.5001"/>
</g>
<!-- 140543357269552&#45;&gt;140543357302544 -->
<g id="edge41" class="edge">
<title>140543357269552&#45;&gt;140543357302544</title>
<path fill="none" stroke="#000000" d="M1136.0733,-82C1152.1255,-82 1173.2119,-82 1193.3527,-82"/>
<polygon fill="#000000" stroke="#000000" points="1193.4513,-85.5001 1203.4512,-82 1193.4512,-78.5001 1193.4513,-85.5001"/>
</g>
<!-- 140543357268768&#45;&gt;140543357302600 -->
<g id="edge42" class="edge">
<title>140543357268768&#45;&gt;140543357302600</title>
<path fill="none" stroke="#000000" d="M1615.2947,-237C1622.9509,-237 1631.6981,-237 1640.8342,-237"/>
<polygon fill="#000000" stroke="#000000" points="1640.8673,-240.5001 1650.8672,-237 1640.8672,-233.5001 1640.8673,-240.5001"/>
</g>
<!-- 140543357302936&#45;&gt;140543357301816 -->
<g id="edge43" class="edge">
<title>140543357302936&#45;&gt;140543357301816</title>
<path fill="none" stroke="#000000" d="M1888.003,-309C1896.0277,-309 1904.9665,-309 1913.5309,-309"/>
<polygon fill="#000000" stroke="#000000" points="1913.7051,-312.5001 1923.705,-309 1913.705,-305.5001 1913.7051,-312.5001"/>
</g>
<!-- 140543357270168&#45;&gt;140543357301200 -->
<g id="edge44" class="edge">
<title>140543357270168&#45;&gt;140543357301200</title>
<path fill="none" stroke="#000000" d="M1615.2947,-55C1631.3203,-55 1652.1263,-55 1671.2727,-55"/>
<polygon fill="#000000" stroke="#000000" points="1671.3977,-58.5001 1681.3977,-55 1671.3976,-51.5001 1671.3977,-58.5001"/>
</g>
<!-- 140543357269776&#45;&gt;140543357269608 -->
<g id="edge48" class="edge">
<title>140543357269776&#45;&gt;140543357269608</title>
<path fill="none" stroke="#000000" d="M954.5497,-277.1996C963.1894,-274.2236 973.0137,-270.8397 982.3423,-267.6265"/>
<polygon fill="#000000" stroke="#000000" points="983.4989,-270.93 991.8139,-264.3641 981.2192,-264.3116 983.4989,-270.93"/>
</g>
<!-- 140543357268992&#45;&gt;140543357268824 -->
<g id="edge49" class="edge">
<title>140543357268992&#45;&gt;140543357268824</title>
<path fill="none" stroke="#000000" d="M369.003,-393C377.0277,-393 385.9665,-393 394.5309,-393"/>
<polygon fill="#000000" stroke="#000000" points="394.7051,-396.5001 404.705,-393 394.705,-389.5001 394.7051,-396.5001"/>
</g>
<!-- 140543357269272&#45;&gt;140543357269104 -->
<g id="edge50" class="edge">
<title>140543357269272&#45;&gt;140543357269104</title>
<path fill="none" stroke="#000000" d="M1614.6426,-385.6844C1635.3653,-389.328 1664.3636,-394.4266 1687.3638,-398.4706"/>
<polygon fill="#000000" stroke="#000000" points="1687.003,-401.9607 1697.4581,-400.2454 1688.2153,-395.0665 1687.003,-401.9607"/>
</g>
<!-- 140543357302264&#45;&gt;140543357302376 -->
<g id="edge51" class="edge">
<title>140543357302264&#45;&gt;140543357302376</title>
<path fill="none" stroke="#000000" d="M956.003,-363C964.0277,-363 972.9665,-363 981.5309,-363"/>
<polygon fill="#000000" stroke="#000000" points="981.7051,-366.5001 991.705,-363 981.705,-359.5001 981.7051,-366.5001"/>
</g>
<!-- 140543357302992&#45;&gt;140543357303664 -->
<g id="edge52" class="edge">
<title>140543357302992&#45;&gt;140543357303664</title>
<path fill="none" stroke="#000000" d="M1887.0317,-229.1905C1895.4955,-226.6514 1905.055,-223.7835 1914.1543,-221.0537"/>
<polygon fill="#000000" stroke="#000000" points="1915.2013,-224.3938 1923.7738,-218.1679 1913.1898,-217.689 1915.2013,-224.3938"/>
</g>
<!-- 140543357270392&#45;&gt;140543357270224 -->
<g id="edge53" class="edge">
<title>140543357270392&#45;&gt;140543357270224</title>
<path fill="none" stroke="#000000" d="M1887.0317,-46.9012C1895.4955,-44.2681 1905.055,-41.294 1914.1543,-38.4631"/>
<polygon fill="#000000" stroke="#000000" points="1915.265,-41.7831 1923.7738,-35.4704 1913.1855,-35.0991 1915.265,-41.7831"/>
</g>
<!-- 140543357268040&#45;&gt;140543357304504 -->
<g id="edge54" class="edge">
<title>140543357268040&#45;&gt;140543357304504</title>
<path fill="none" stroke="#000000" d="M459.003,-462.7003C467.0277,-463.5028 475.9665,-464.3967 484.5309,-465.2531"/>
<polygon fill="#000000" stroke="#000000" points="484.4064,-468.758 494.705,-466.2705 485.1029,-461.7927 484.4064,-468.758"/>
</g>
<!-- 140543357268320&#45;&gt;140543357268152 -->
<g id="edge55" class="edge">
<title>140543357268320&#45;&gt;140543357268152</title>
<path fill="none" stroke="#000000" d="M1615.2947,-309C1635.847,-309 1664.262,-309 1686.9552,-309"/>
<polygon fill="#000000" stroke="#000000" points="1687.2526,-312.5001 1697.2526,-309 1687.2525,-305.5001 1687.2526,-312.5001"/>
</g>
<!-- 140543357268600&#45;&gt;140543357268432 -->
<g id="edge56" class="edge">
<title>140543357268600&#45;&gt;140543357268432</title>
<path fill="none" stroke="#000000" d="M1615.2947,-127.9998C1635.847,-128.7526 1664.262,-129.7935 1686.9552,-130.6247"/>
<polygon fill="#000000" stroke="#000000" points="1687.1311,-134.1334 1697.2526,-131.0019 1687.3874,-127.1381 1687.1311,-134.1334"/>
</g>
</g>
</svg>
