<?xml version="1.0" encoding="UTF-8" standalone="no"?>
<!DOCTYPE svg PUBLIC "-//W3C//DTD SVG 1.1//EN"
 "http://www.w3.org/Graphics/SVG/1.1/DTD/svg11.dtd">
<!-- Generated by graphviz version 2.40.1 (20161225.0304)
 -->
<!-- Title: imdf_net_1586496131.0809531 Pages: 1 -->
<svg width="791pt" height="749pt"
 viewBox="0.00 0.00 791.00 749.00" xmlns="http://www.w3.org/2000/svg" xmlns:xlink="http://www.w3.org/1999/xlink">
<g id="graph0" class="graph" transform="scale(1 1) rotate(0) translate(4 745)">
<title>imdf_net_1586496131.0809531</title>
<!-- 139748205688592 -->
<g id="node1" class="node">
<title>139748205688592</title>
<polygon fill="none" stroke="#000000" points="99,-358 0,-358 0,-322 99,-322 99,-358"/>
<text text-anchor="middle" x="49.5" y="-336.3" font-family="Times,serif" font-size="14.00" fill="#000000">ActionDecoder</text>
</g>
<!-- 139748202477272 -->
<g id="node25" class="node">
<title>139748202477272</title>
<ellipse fill="none" stroke="#000000" cx="162" cy="-401" rx="27" ry="27"/>
<text text-anchor="middle" x="162" y="-397.3" font-family="Times,serif" font-size="14.00" fill="#000000">p_6</text>
</g>
<!-- 139748205688592&#45;&gt;139748202477272 -->
<g id="edge13" class="edge">
<title>139748205688592&#45;&gt;139748202477272</title>
<path fill="none" stroke="#000000" d="M82.9491,-358.1369C97.5071,-366.0305 114.5177,-375.254 129.022,-383.1186"/>
<polygon fill="#000000" stroke="#000000" points="127.6814,-386.373 138.1406,-388.0629 131.018,-380.2194 127.6814,-386.373"/>
</g>
<!-- 139748202476768 -->
<g id="node2" class="node">
<title>139748202476768</title>
<polygon fill="none" stroke="#000000" points="747,-632 646,-632 646,-596 747,-596 747,-632"/>
<text text-anchor="middle" x="696.5" y="-610.3" font-family="Times,serif" font-size="14.00" fill="#000000">ActionMessage</text>
</g>
<!-- 139748202476768&#45;&gt;139748202477272 -->
<g id="edge5" class="edge">
<title>139748202476768&#45;&gt;139748202477272</title>
<path fill="none" stroke="#000000" d="M645.661,-625.9107C594.9914,-636.727 514.8083,-651 444.5,-651 342,-651 342,-651 342,-651 286.7511,-651 263.0672,-649.0417 225,-609 201.4806,-584.2607 179.7361,-490.5863 169.0066,-437.7801"/>
<polygon fill="#000000" stroke="#000000" points="172.4032,-436.9159 167.0103,-427.7963 165.5391,-438.2885 172.4032,-436.9159"/>
</g>
<!-- 139748202475592 -->
<g id="node3" class="node">
<title>139748202475592</title>
<polygon fill="none" stroke="#000000" points="723.5,-576 669.5,-576 669.5,-540 723.5,-540 723.5,-576"/>
<text text-anchor="middle" x="696.5" y="-554.3" font-family="Times,serif" font-size="14.00" fill="#000000">Log</text>
</g>
<!-- 139748202475592&#45;&gt;139748202477272 -->
<g id="edge1" class="edge">
<title>139748202475592&#45;&gt;139748202477272</title>
<path fill="none" stroke="#000000" d="M669.3307,-567.9601C623.591,-583.8096 528.0145,-613 444.5,-613 342,-613 342,-613 342,-613 288.0902,-613 264.4251,-617.7687 225,-581 184.7954,-543.5043 170.2412,-478.9226 164.9771,-438.1664"/>
<polygon fill="#000000" stroke="#000000" points="168.4378,-437.6254 163.8028,-428.0982 161.4849,-438.4364 168.4378,-437.6254"/>
</g>
<!-- 139748202476208 -->
<g id="node4" class="node">
<title>139748202476208</title>
<polygon fill="none" stroke="#000000" points="778.5,-521 614.5,-521 614.5,-485 778.5,-485 778.5,-521"/>
<text text-anchor="middle" x="696.5" y="-499.3" font-family="Times,serif" font-size="14.00" fill="#000000">MarketSummaryDataBean</text>
</g>
<!-- 139748202476208&#45;&gt;139748202477272 -->
<g id="edge9" class="edge">
<title>139748202476208&#45;&gt;139748202477272</title>
<path fill="none" stroke="#000000" d="M614.2169,-503C564.9775,-503 501.1563,-503 444.5,-503 342,-503 342,-503 342,-503 286.4444,-503 272.3071,-488.1283 225,-459 211.4227,-450.6401 198.1642,-439.105 187.3404,-428.5224"/>
<polygon fill="#000000" stroke="#000000" points="189.7934,-426.0255 180.2621,-421.399 184.828,-430.9595 189.7934,-426.0255"/>
</g>
<!-- 139748205634784 -->
<g id="node5" class="node">
<title>139748205634784</title>
<polygon fill="none" stroke="#000000" points="777.5,-467 615.5,-467 615.5,-431 777.5,-431 777.5,-467"/>
<text text-anchor="middle" x="696.5" y="-445.3" font-family="Times,serif" font-size="14.00" fill="#000000">MarketSummarySingleton</text>
</g>
<!-- 139748205634784&#45;&gt;139748202477272 -->
<g id="edge7" class="edge">
<title>139748205634784&#45;&gt;139748202477272</title>
<path fill="none" stroke="#000000" d="M615.4378,-456.7657C566.0763,-460.8422 501.7087,-465 444.5,-465 342,-465 342,-465 342,-465 287.6542,-465 229.1347,-438.78 194.0492,-419.9052"/>
<polygon fill="#000000" stroke="#000000" points="195.6723,-416.8035 185.2244,-415.0451 192.2954,-422.9351 195.6723,-416.8035"/>
</g>
<!-- 139748205687472 -->
<g id="node6" class="node">
<title>139748205687472</title>
<polygon fill="none" stroke="#000000" points="783,-413 610,-413 610,-377 783,-377 783,-413"/>
<text text-anchor="middle" x="696.5" y="-391.3" font-family="Times,serif" font-size="14.00" fill="#000000">MarketSummaryWebSocket</text>
</g>
<!-- 139748205687472&#45;&gt;139748202477272 -->
<g id="edge2" class="edge">
<title>139748205687472&#45;&gt;139748202477272</title>
<path fill="none" stroke="#000000" d="M609.9568,-411.4687C561.4913,-419.3094 499.8472,-427 444.5,-427 342,-427 342,-427 342,-427 291.8529,-427 234.6471,-416.9927 198.4424,-409.3952"/>
<polygon fill="#000000" stroke="#000000" points="198.8741,-405.9081 188.3617,-407.2276 197.4025,-412.7517 198.8741,-405.9081"/>
</g>
<!-- 139748205789368 -->
<g id="node7" class="node">
<title>139748205789368</title>
<polygon fill="none" stroke="#000000" points="751.5,-358 641.5,-358 641.5,-322 751.5,-322 751.5,-358"/>
<text text-anchor="middle" x="696.5" y="-336.3" font-family="Times,serif" font-size="14.00" fill="#000000">OrdersAlertFilter</text>
</g>
<!-- 139748205789368&#45;&gt;139748202477272 -->
<g id="edge3" class="edge">
<title>139748205789368&#45;&gt;139748202477272</title>
<path fill="none" stroke="#000000" d="M641.0795,-332.0203C590.1088,-325.3773 512.3747,-317 444.5,-317 342,-317 342,-317 342,-317 288.0902,-317 272.8549,-324.177 225,-349 212.0587,-355.7128 199.3523,-365.4192 188.7788,-374.6326"/>
<polygon fill="#000000" stroke="#000000" points="186.2205,-372.2268 181.1404,-381.5243 190.9097,-377.424 186.2205,-372.2268"/>
</g>
<!-- 139748205690552 -->
<g id="node8" class="node">
<title>139748205690552</title>
<polygon fill="none" stroke="#000000" points="748,-302 645,-302 645,-266 748,-266 748,-302"/>
<text text-anchor="middle" x="696.5" y="-280.3" font-family="Times,serif" font-size="14.00" fill="#000000">QuoteDataBean</text>
</g>
<!-- 139748205690552&#45;&gt;139748202477272 -->
<g id="edge8" class="edge">
<title>139748205690552&#45;&gt;139748202477272</title>
<path fill="none" stroke="#000000" d="M644.8177,-267.4078C633.2427,-263.3243 621.1069,-258.7504 610,-254 533.9721,-221.4832 527.1897,-169 444.5,-169 342,-169 342,-169 342,-169 288.5317,-169 264.0097,-160.4335 225,-197 200.5974,-219.8742 179.2916,-311.8783 168.8436,-364.1775"/>
<polygon fill="#000000" stroke="#000000" points="165.3925,-363.5889 166.9011,-374.0757 172.2615,-364.9369 165.3925,-363.5889"/>
</g>
<!-- 139748202478672 -->
<g id="node9" class="node">
<title>139748202478672</title>
<polygon fill="none" stroke="#000000" points="770,-36 623,-36 623,0 770,0 770,-36"/>
<text text-anchor="middle" x="696.5" y="-14.3" font-family="Times,serif" font-size="14.00" fill="#000000">RecentStockChangeList</text>
</g>
<!-- 139748202478672&#45;&gt;139748202477272 -->
<g id="edge14" class="edge">
<title>139748202478672&#45;&gt;139748202477272</title>
<path fill="none" stroke="#000000" d="M622.8961,-17.5541C572.6425,-17.2874 504.5473,-17 444.5,-17 342,-17 342,-17 342,-17 287.3261,-17 260.8574,-13.7268 225,-55 164.3311,-124.8321 205.6993,-169.0145 189,-260 182.4883,-295.4789 174.7098,-335.9073 169.1781,-364.3496"/>
<polygon fill="#000000" stroke="#000000" points="165.7253,-363.7698 167.2482,-374.2546 172.5961,-365.1085 165.7253,-363.7698"/>
</g>
<!-- 139748204318616 -->
<g id="node10" class="node">
<title>139748204318616</title>
<polygon fill="none" stroke="#000000" points="471.5,-576 417.5,-576 417.5,-540 471.5,-540 471.5,-576"/>
<text text-anchor="middle" x="444.5" y="-554.3" font-family="Times,serif" font-size="14.00" fill="#000000">Root</text>
</g>
<!-- 139748202679320 -->
<g id="node27" class="node">
<title>139748202679320</title>
<ellipse fill="#ffa500" stroke="#000000" cx="547" cy="-558" rx="27" ry="27"/>
</g>
<!-- 139748204318616&#45;&gt;139748202679320 -->
<g id="edge15" class="edge">
<title>139748204318616&#45;&gt;139748202679320</title>
<path fill="none" stroke="#000000" d="M471.699,-558C483.2828,-558 496.9866,-558 509.5073,-558"/>
<polygon fill="#000000" stroke="#000000" points="509.6739,-561.5001 519.6739,-558 509.6739,-554.5001 509.6739,-561.5001"/>
</g>
<!-- 139748202639656 -->
<g id="node11" class="node">
<title>139748202639656</title>
<polygon fill="none" stroke="#000000" points="739,-741 654,-741 654,-705 739,-705 739,-741"/>
<text text-anchor="middle" x="696.5" y="-719.3" font-family="Times,serif" font-size="14.00" fill="#000000">TradeAction</text>
</g>
<!-- 139748202639656&#45;&gt;139748202477272 -->
<g id="edge11" class="edge">
<title>139748202639656&#45;&gt;139748202477272</title>
<path fill="none" stroke="#000000" d="M653.6984,-724.093C603.565,-725.2773 518.0093,-727 444.5,-727 342,-727 342,-727 342,-727 285.0955,-727 261.1905,-718.9132 225,-675 195.3862,-639.0668 174.9205,-504.5013 166.416,-438.281"/>
<polygon fill="#000000" stroke="#000000" points="169.8768,-437.7495 165.1542,-428.2654 162.9317,-438.6245 169.8768,-437.7495"/>
</g>
<!-- 139748205636912 -->
<g id="node12" class="node">
<title>139748205636912</title>
<polygon fill="none" stroke="#000000" points="751.5,-245 641.5,-245 641.5,-209 751.5,-209 751.5,-245"/>
<text text-anchor="middle" x="696.5" y="-223.3" font-family="Times,serif" font-size="14.00" fill="#000000">TradeAppServlet</text>
</g>
<!-- 139748205636912&#45;&gt;139748202477272 -->
<g id="edge6" class="edge">
<title>139748205636912&#45;&gt;139748202477272</title>
<path fill="none" stroke="#000000" d="M650.3499,-208.9431C579.1051,-181.1343 449.9132,-131 444.5,-131 342,-131 342,-131 342,-131 287.8489,-131 262.8682,-126.2916 225,-165 210.9542,-179.3574 183.194,-301.7159 169.7107,-364.3596"/>
<polygon fill="#000000" stroke="#000000" points="166.267,-363.7265 167.5964,-374.2376 173.112,-365.1916 166.267,-363.7265"/>
</g>
<!-- 139748205689656 -->
<g id="node13" class="node">
<title>139748205689656</title>
<polygon fill="none" stroke="#000000" points="739.5,-184 653.5,-184 653.5,-148 739.5,-148 739.5,-184"/>
<text text-anchor="middle" x="696.5" y="-162.3" font-family="Times,serif" font-size="14.00" fill="#000000">TradeConfig</text>
</g>
<!-- 139748205689656&#45;&gt;139748202477272 -->
<g id="edge10" class="edge">
<title>139748205689656&#45;&gt;139748202477272</title>
<path fill="none" stroke="#000000" d="M659.0575,-147.9551C610.6798,-126.3377 523.2992,-93 444.5,-93 342,-93 342,-93 342,-93 287.5941,-93 262.0832,-89.19 225,-129 216.911,-137.6838 184.3205,-292.305 169.4562,-364.4649"/>
<polygon fill="#000000" stroke="#000000" points="165.9815,-363.9861 167.3967,-374.4859 172.8382,-365.3953 165.9815,-363.9861"/>
</g>
<!-- 139748204315704 -->
<g id="node14" class="node">
<title>139748204315704</title>
<polygon fill="none" stroke="#000000" points="750.5,-117 642.5,-117 642.5,-81 750.5,-81 750.5,-117"/>
<text text-anchor="middle" x="696.5" y="-95.3" font-family="Times,serif" font-size="14.00" fill="#000000">TradeSLSBBean</text>
</g>
<!-- 139748204315704&#45;&gt;139748202477272 -->
<g id="edge12" class="edge">
<title>139748204315704&#45;&gt;139748202477272</title>
<path fill="none" stroke="#000000" d="M642.411,-83.9808C591.7015,-71.2343 513.5605,-55 444.5,-55 342,-55 342,-55 342,-55 287.3261,-55 261.4302,-52.2314 225,-93 220.4482,-98.0938 184.4661,-283.6933 169.0124,-364.2764"/>
<polygon fill="#000000" stroke="#000000" points="165.5038,-363.9896 167.0598,-374.4695 172.3788,-365.3066 165.5038,-363.9896"/>
</g>
<!-- 139748204315032 -->
<g id="node15" class="node">
<title>139748204315032</title>
<polygon fill="none" stroke="#000000" points="758,-687 635,-687 635,-651 758,-651 758,-687"/>
<text text-anchor="middle" x="696.5" y="-665.3" font-family="Times,serif" font-size="14.00" fill="#000000">TradeServletAction</text>
</g>
<!-- 139748204315032&#45;&gt;139748202477272 -->
<g id="edge4" class="edge">
<title>139748204315032&#45;&gt;139748202477272</title>
<path fill="none" stroke="#000000" d="M634.9875,-676.6182C584.0308,-682.2702 509.673,-689 444.5,-689 342,-689 342,-689 342,-689 285.794,-689 262.0231,-683.2895 225,-641 198.566,-610.8058 177.2392,-497.4398 167.5871,-437.9577"/>
<polygon fill="#000000" stroke="#000000" points="171.0074,-437.18 165.9762,-427.856 164.0947,-438.2824 171.0074,-437.18"/>
</g>
<!-- 139748202652168 -->
<g id="node16" class="node">
<title>139748202652168</title>
<polygon fill="none" stroke="#000000" points="484,-247 405,-247 405,-211 484,-211 484,-247"/>
<text text-anchor="middle" x="444.5" y="-225.3" font-family="Times,serif" font-size="14.00" fill="#000000">init_loop_2</text>
</g>
<!-- 139748202651720 -->
<g id="node24" class="node">
<title>139748202651720</title>
<ellipse fill="none" stroke="#000000" cx="547" cy="-372" rx="27" ry="27"/>
<text text-anchor="middle" x="547" y="-368.3" font-family="Times,serif" font-size="14.00" fill="#000000">p_5</text>
</g>
<!-- 139748202652168&#45;&gt;139748202651720 -->
<g id="edge16" class="edge">
<title>139748202652168&#45;&gt;139748202651720</title>
<path fill="none" stroke="#000000" d="M466.9683,-247.3459C472.8626,-252.7096 478.9706,-258.8051 484,-265 502.4277,-287.6983 519.0124,-316.3781 530.5346,-338.3308"/>
<polygon fill="#000000" stroke="#000000" points="527.4602,-340.0056 535.1534,-347.2902 533.6821,-336.798 527.4602,-340.0056"/>
</g>
<!-- 139748202476488 -->
<g id="node17" class="node">
<title>139748202476488</title>
<polygon fill="none" stroke="#000000" points="471.5,-390 417.5,-390 417.5,-354 471.5,-354 471.5,-390"/>
<text text-anchor="middle" x="444.5" y="-368.3" font-family="Times,serif" font-size="14.00" fill="#000000">loop_3</text>
</g>
<!-- 139748202476488&#45;&gt;139748202651720 -->
<g id="edge17" class="edge">
<title>139748202476488&#45;&gt;139748202651720</title>
<path fill="none" stroke="#000000" d="M471.699,-372C483.2828,-372 496.9866,-372 509.5073,-372"/>
<polygon fill="#000000" stroke="#000000" points="509.6739,-375.5001 519.6739,-372 509.6739,-368.5001 509.6739,-375.5001"/>
</g>
<!-- 139748204316600 -->
<g id="node18" class="node">
<title>139748204316600</title>
<polygon fill="none" stroke="#000000" points="279,-394 225,-394 225,-358 279,-358 279,-394"/>
<text text-anchor="middle" x="252" y="-372.3" font-family="Times,serif" font-size="14.00" fill="#000000">skip_4</text>
</g>
<!-- 139748202478616 -->
<g id="node26" class="node">
<title>139748202478616</title>
<ellipse fill="none" stroke="#000000" cx="342" cy="-372" rx="27" ry="27"/>
<text text-anchor="middle" x="342" y="-368.3" font-family="Times,serif" font-size="14.00" fill="#000000">p_7</text>
</g>
<!-- 139748204316600&#45;&gt;139748202478616 -->
<g id="edge37" class="edge">
<title>139748204316600&#45;&gt;139748202478616</title>
<path fill="none" stroke="#000000" d="M279.003,-374.7999C287.1013,-374.4399 296.1306,-374.0386 304.7665,-373.6548"/>
<polygon fill="#000000" stroke="#000000" points="305.1814,-377.1399 315.0161,-373.1993 304.8705,-370.1468 305.1814,-377.1399"/>
</g>
<!-- 139748204317496 -->
<g id="node19" class="node">
<title>139748204317496</title>
<polygon fill="none" stroke="#000000" points="279,-572 225,-572 225,-536 279,-536 279,-572"/>
<text text-anchor="middle" x="252" y="-550.3" font-family="Times,serif" font-size="14.00" fill="#000000">skip_5</text>
</g>
<!-- 139748202655024 -->
<g id="node23" class="node">
<title>139748202655024</title>
<ellipse fill="none" stroke="#000000" cx="342" cy="-558" rx="27" ry="27"/>
<text text-anchor="middle" x="342" y="-554.3" font-family="Times,serif" font-size="14.00" fill="#000000">p_4</text>
</g>
<!-- 139748204317496&#45;&gt;139748202655024 -->
<g id="edge38" class="edge">
<title>139748204317496&#45;&gt;139748202655024</title>
<path fill="none" stroke="#000000" d="M279.003,-555.2001C287.1013,-555.5601 296.1306,-555.9614 304.7665,-556.3452"/>
<polygon fill="#000000" stroke="#000000" points="304.8705,-559.8532 315.0161,-556.8007 305.1814,-552.8601 304.8705,-559.8532"/>
</g>
<!-- 139748202652728 -->
<g id="node20" class="node">
<title>139748202652728</title>
<polygon fill="none" stroke="#000000" points="279,-242 225,-242 225,-206 279,-206 279,-242"/>
<text text-anchor="middle" x="252" y="-220.3" font-family="Times,serif" font-size="14.00" fill="#000000">tau_1</text>
</g>
<!-- 139748202678200 -->
<g id="node22" class="node">
<title>139748202678200</title>
<ellipse fill="none" stroke="#000000" cx="342" cy="-224" rx="27" ry="27"/>
<text text-anchor="middle" x="342" y="-220.3" font-family="Times,serif" font-size="14.00" fill="#000000">p_3</text>
</g>
<!-- 139748202652728&#45;&gt;139748202678200 -->
<g id="edge40" class="edge">
<title>139748202652728&#45;&gt;139748202678200</title>
<path fill="none" stroke="#000000" d="M279.003,-224C287.0277,-224 295.9665,-224 304.5309,-224"/>
<polygon fill="#000000" stroke="#000000" points="304.7051,-227.5001 314.705,-224 304.705,-220.5001 304.7051,-227.5001"/>
</g>
<!-- 139748202678536 -->
<g id="node21" class="node">
<title>139748202678536</title>
<ellipse fill="#00ff00" stroke="#000000" cx="162" cy="-224" rx="27" ry="27"/>
<text text-anchor="middle" x="162" y="-220.3" font-family="Times,serif" font-size="14.00" fill="#000000">1</text>
</g>
<!-- 139748202678536&#45;&gt;139748202652728 -->
<g id="edge39" class="edge">
<title>139748202678536&#45;&gt;139748202652728</title>
<path fill="none" stroke="#000000" d="M189.003,-224C197.0277,-224 205.9665,-224 214.5309,-224"/>
<polygon fill="#000000" stroke="#000000" points="214.7051,-227.5001 224.705,-224 214.705,-220.5001 214.7051,-227.5001"/>
</g>
<!-- 139748202678200&#45;&gt;139748202652168 -->
<g id="edge18" class="edge">
<title>139748202678200&#45;&gt;139748202652168</title>
<path fill="none" stroke="#000000" d="M369.199,-225.3268C377.0426,-225.7094 385.8582,-226.1394 394.6204,-226.5668"/>
<polygon fill="#000000" stroke="#000000" points="394.6617,-230.0729 404.8204,-227.0644 395.0028,-223.0812 394.6617,-230.0729"/>
</g>
<!-- 139748202655024&#45;&gt;139748204318616 -->
<g id="edge19" class="edge">
<title>139748202655024&#45;&gt;139748204318616</title>
<path fill="none" stroke="#000000" d="M369.199,-558C380.7828,-558 394.4866,-558 407.0073,-558"/>
<polygon fill="#000000" stroke="#000000" points="407.1739,-561.5001 417.1739,-558 407.1739,-554.5001 407.1739,-561.5001"/>
</g>
<!-- 139748202651720&#45;&gt;139748205688592 -->
<g id="edge32" class="edge">
<title>139748202651720&#45;&gt;139748205688592</title>
<path fill="none" stroke="#000000" d="M525.7048,-354.9424C489.9712,-328.0941 414.6914,-279 342,-279 252,-279 252,-279 252,-279 196.4237,-279 135.7745,-300.3256 95.4808,-317.7585"/>
<polygon fill="#000000" stroke="#000000" points="93.9266,-314.6188 86.1955,-321.8631 96.7568,-321.0211 93.9266,-314.6188"/>
</g>
<!-- 139748202651720&#45;&gt;139748202476768 -->
<g id="edge24" class="edge">
<title>139748202651720&#45;&gt;139748202476768</title>
<path fill="none" stroke="#000000" d="M551.7259,-398.6918C561.2407,-449.6388 584.0292,-558.0794 610,-585 617.2502,-592.5153 626.5032,-598.0832 636.2465,-602.2081"/>
<polygon fill="#000000" stroke="#000000" points="635.0964,-605.5147 645.6889,-605.7373 637.5472,-598.9577 635.0964,-605.5147"/>
</g>
<!-- 139748202651720&#45;&gt;139748202475592 -->
<g id="edge20" class="edge">
<title>139748202651720&#45;&gt;139748202475592</title>
<path fill="none" stroke="#000000" d="M550.597,-398.8388C556.6812,-433.8219 572.2654,-494.6899 610,-530 623.3623,-542.5038 642.3628,-549.425 659.154,-553.2555"/>
<polygon fill="#000000" stroke="#000000" points="658.7627,-556.7461 669.2532,-555.2634 660.1278,-549.8805 658.7627,-556.7461"/>
</g>
<!-- 139748202651720&#45;&gt;139748202476208 -->
<g id="edge28" class="edge">
<title>139748202651720&#45;&gt;139748202476208</title>
<path fill="none" stroke="#000000" d="M556.271,-397.4627C566.1229,-421.0797 583.9062,-455.5659 610,-476 611.6257,-477.2731 613.312,-478.4866 615.0485,-479.6432"/>
<polygon fill="#000000" stroke="#000000" points="613.7065,-482.9143 624.1007,-484.9661 617.2547,-476.8802 613.7065,-482.9143"/>
</g>
<!-- 139748202651720&#45;&gt;139748205634784 -->
<g id="edge26" class="edge">
<title>139748202651720&#45;&gt;139748205634784</title>
<path fill="none" stroke="#000000" d="M566.6516,-390.7302C578.4521,-401.1403 594.2021,-413.6403 610,-422 613.3242,-423.759 616.7819,-425.425 620.3191,-426.9999"/>
<polygon fill="#000000" stroke="#000000" points="619.2538,-430.3476 629.8311,-430.9577 621.9429,-423.8847 619.2538,-430.3476"/>
</g>
<!-- 139748202651720&#45;&gt;139748205687472 -->
<g id="edge21" class="edge">
<title>139748202651720&#45;&gt;139748205687472</title>
<path fill="none" stroke="#000000" d="M573.7276,-376.1119C581.4571,-377.3011 590.3745,-378.673 599.8032,-380.1236"/>
<polygon fill="#000000" stroke="#000000" points="599.3695,-383.5979 609.7855,-381.6593 600.434,-376.6793 599.3695,-383.5979"/>
</g>
<!-- 139748202651720&#45;&gt;139748205789368 -->
<g id="edge22" class="edge">
<title>139748202651720&#45;&gt;139748205789368</title>
<path fill="none" stroke="#000000" d="M573.7276,-366.279C589.823,-362.8339 611.0697,-358.2861 631.3566,-353.9437"/>
<polygon fill="#000000" stroke="#000000" points="632.1658,-357.3499 641.2117,-351.8343 630.7006,-350.5049 632.1658,-357.3499"/>
</g>
<!-- 139748202651720&#45;&gt;139748205690552 -->
<g id="edge27" class="edge">
<title>139748202651720&#45;&gt;139748205690552</title>
<path fill="none" stroke="#000000" d="M564.8029,-351.301C576.55,-338.7393 592.886,-323.2134 610,-313 617.7908,-308.3506 626.4259,-304.3299 635.1373,-300.8893"/>
<polygon fill="#000000" stroke="#000000" points="636.4278,-304.1437 644.5838,-297.3814 633.9909,-297.5816 636.4278,-304.1437"/>
</g>
<!-- 139748202651720&#45;&gt;139748202478672 -->
<g id="edge33" class="edge">
<title>139748202651720&#45;&gt;139748202478672</title>
<path fill="none" stroke="#000000" d="M549.9489,-344.9243C557.4694,-279.7767 578.9853,-116.389 610,-72 618.7327,-59.5015 631.3799,-49.3008 644.3193,-41.2664"/>
<polygon fill="#000000" stroke="#000000" points="646.3992,-44.1054 653.2795,-36.0486 642.8766,-38.0563 646.3992,-44.1054"/>
</g>
<!-- 139748202651720&#45;&gt;139748202639656 -->
<g id="edge30" class="edge">
<title>139748202651720&#45;&gt;139748202639656</title>
<path fill="none" stroke="#000000" d="M551.8358,-398.8073C565.7104,-475.4516 604.9776,-690.3895 610,-696 618.8632,-705.901 631.2948,-712.2078 643.975,-716.2142"/>
<polygon fill="#000000" stroke="#000000" points="643.097,-719.6025 653.6651,-718.851 644.935,-712.8481 643.097,-719.6025"/>
</g>
<!-- 139748202651720&#45;&gt;139748205636912 -->
<g id="edge25" class="edge">
<title>139748202651720&#45;&gt;139748205636912</title>
<path fill="none" stroke="#000000" d="M555.024,-346.0184C564.307,-320.0454 582.0083,-280.6601 610,-257 616.4566,-251.5425 623.9642,-247.0578 631.8073,-243.3772"/>
<polygon fill="#000000" stroke="#000000" points="633.292,-246.5492 641.1256,-239.4158 630.5534,-240.1072 633.292,-246.5492"/>
</g>
<!-- 139748202651720&#45;&gt;139748205689656 -->
<g id="edge29" class="edge">
<title>139748202651720&#45;&gt;139748205689656</title>
<path fill="none" stroke="#000000" d="M549.9654,-345.1049C555.438,-307.83 570.4447,-240.4923 610,-200 619.2546,-190.5261 631.4667,-183.6322 643.7885,-178.6377"/>
<polygon fill="#000000" stroke="#000000" points="645.0107,-181.9175 653.1852,-175.1774 642.5917,-175.3487 645.0107,-181.9175"/>
</g>
<!-- 139748202651720&#45;&gt;139748204315704 -->
<g id="edge31" class="edge">
<title>139748202651720&#45;&gt;139748204315704</title>
<path fill="none" stroke="#000000" d="M551.3251,-345.1903C560.5403,-290.9049 583.4499,-170.4661 610,-139 616.4018,-131.4128 624.5544,-125.1848 633.2853,-120.0958"/>
<polygon fill="#000000" stroke="#000000" points="634.9765,-123.1606 642.1657,-115.3781 631.6924,-116.9788 634.9765,-123.1606"/>
</g>
<!-- 139748202651720&#45;&gt;139748204315032 -->
<g id="edge23" class="edge">
<title>139748202651720&#45;&gt;139748204315032</title>
<path fill="none" stroke="#000000" d="M551.7772,-399.0343C563.4127,-463.6539 593.4758,-623.044 610,-641 614.4191,-645.802 619.6669,-649.7833 625.3605,-653.0836"/>
<polygon fill="#000000" stroke="#000000" points="624.1119,-656.373 634.6196,-657.7296 627.2513,-650.1164 624.1119,-656.373"/>
</g>
<!-- 139748202477272&#45;&gt;139748204316600 -->
<g id="edge34" class="edge">
<title>139748202477272&#45;&gt;139748204316600</title>
<path fill="none" stroke="#000000" d="M188.0317,-393.769C196.4054,-391.4429 205.8517,-388.819 214.8638,-386.3156"/>
<polygon fill="#000000" stroke="#000000" points="216.0754,-389.6117 224.7738,-383.5628 214.2018,-382.867 216.0754,-389.6117"/>
</g>
<!-- 139748202477272&#45;&gt;139748204317496 -->
<g id="edge35" class="edge">
<title>139748202477272&#45;&gt;139748204317496</title>
<path fill="none" stroke="#000000" d="M174.1192,-425.529C186.183,-449.3836 205.6445,-486.398 225,-517 227.1851,-520.4548 229.5814,-524.0141 232.0159,-527.4966"/>
<polygon fill="#000000" stroke="#000000" points="229.3704,-529.8128 238.0478,-535.8917 235.0552,-525.7283 229.3704,-529.8128"/>
</g>
<!-- 139748202478616&#45;&gt;139748202476488 -->
<g id="edge36" class="edge">
<title>139748202478616&#45;&gt;139748202476488</title>
<path fill="none" stroke="#000000" d="M369.199,-372C380.7828,-372 394.4866,-372 407.0073,-372"/>
<polygon fill="#000000" stroke="#000000" points="407.1739,-375.5001 417.1739,-372 407.1739,-368.5001 407.1739,-375.5001"/>
</g>
</g>
</svg>
