<?xml version="1.0" encoding="UTF-8" standalone="no"?>
<!DOCTYPE svg PUBLIC "-//W3C//DTD SVG 1.1//EN"
 "http://www.w3.org/Graphics/SVG/1.1/DTD/svg11.dtd">
<!-- Generated by graphviz version 2.40.1 (20161225.0304)
 -->
<!-- Title: alpha_plus_net_1585315543.6896152 Pages: 1 -->
<svg width="1276pt" height="3567pt"
 viewBox="0.00 0.00 1276.00 3566.70" xmlns="http://www.w3.org/2000/svg" xmlns:xlink="http://www.w3.org/1999/xlink">
<g id="graph0" class="graph" transform="scale(1 1) rotate(0) translate(4 3562.6979)">
<title>alpha_plus_net_1585315543.6896152</title>
<!-- 140178131696440 -->
<g id="node1" class="node">
<title>140178131696440</title>
<polygon fill="none" stroke="#000000" points="281,-210.6979 140,-210.6979 140,-174.6979 281,-174.6979 281,-210.6979"/>
<text text-anchor="middle" x="210.5" y="-188.9979" font-family="Times,serif" font-size="14.00" fill="#000000">ActionDecoder:decode</text>
</g>
<!-- 140178132615688 -->
<g id="node80" class="node">
<title>140178132615688</title>
<ellipse fill="none" stroke="#000000" cx="484" cy="-360.6979" rx="27" ry="27"/>
<text text-anchor="middle" x="484" y="-356.9979" font-family="Times,serif" font-size="14.00" fill="#000000">({&#39;PingServlet:doGet&#39;, &#39;ActionDecoder:decode&#39;, &#39;OrdersAlertFilter:doFilter&#39;, &#39;ActionDecoder:init&#39;, &#39;PingServlet:init&#39;, &#39;MarketSummaryWebSocket:onOpen&#39;, &#39;JSFLoginFilter:destroy&#39;, &#39;OrdersAlertFilter:destroy&#39;, &#39;MarketSummarySingleton:updateMarketSummary&#39;, &#39;TradeWebContextListener:contextDestroyed&#39;, &#39;new ActionDecoder&#39;, &#39;ActionDecoder:willDecode&#39;, &#39;MarketSummaryWebSocket:sendMarketSummary&#39;}, {&#39;Root&#39;, &#39;QuoteDataBean:QuoteDataBean [overloaded_#001]&#39;})</text>
</g>
<!-- 140178131696440&#45;&gt;140178132615688 -->
<g id="edge16" class="edge">
<title>140178131696440&#45;&gt;140178132615688</title>
<path fill="none" stroke="#000000" d="M281.3552,-185.1852C325.5555,-184.2323 381.3722,-190.2496 421,-219.6979 423.3285,-221.4282 451.3188,-285.3004 469.1983,-326.4757"/>
<polygon fill="#000000" stroke="#000000" points="466.0946,-328.1159 473.285,-335.8972 472.5165,-325.3303 466.0946,-328.1159"/>
</g>
<!-- 140178131696720 -->
<g id="node2" class="node">
<title>140178131696720</title>
<polygon fill="none" stroke="#000000" points="1180.5,-508.6979 1059.5,-508.6979 1059.5,-472.6979 1180.5,-472.6979 1180.5,-508.6979"/>
<text text-anchor="middle" x="1120" y="-486.9979" font-family="Times,serif" font-size="14.00" fill="#000000">ActionDecoder:init</text>
</g>
<!-- 140178131696720&#45;&gt;140178132615688 -->
<g id="edge17" class="edge">
<title>140178131696720&#45;&gt;140178132615688</title>
<path fill="none" stroke="#000000" d="M1059.2838,-500.3179C929.4481,-519.576 629.8917,-556.6055 547,-502.6979 511.5526,-479.6451 495.8939,-431.5691 489.0808,-397.7661"/>
<polygon fill="#000000" stroke="#000000" points="492.4942,-396.9764 487.2382,-387.7772 485.6103,-398.2462 492.4942,-396.9764"/>
</g>
<!-- 140178131695488 -->
<g id="node3" class="node">
<title>140178131695488</title>
<polygon fill="none" stroke="#000000" points="1202.5,-454.6979 1037.5,-454.6979 1037.5,-418.6979 1202.5,-418.6979 1202.5,-454.6979"/>
<text text-anchor="middle" x="1120" y="-432.9979" font-family="Times,serif" font-size="14.00" fill="#000000">ActionDecoder:willDecode</text>
</g>
<!-- 140178131695488&#45;&gt;140178132615688 -->
<g id="edge18" class="edge">
<title>140178131695488&#45;&gt;140178132615688</title>
<path fill="none" stroke="#000000" d="M1037.3531,-449.6441C1015.9383,-453.5796 992.9985,-458.3115 972,-463.6979 955.6634,-467.8884 952.6477,-472.9963 936,-475.6979 912.3099,-479.5422 905.9996,-475.8411 882,-475.6979 733.1032,-474.809 675.226,-547.389 547,-471.6979 519.5892,-455.5174 503.1039,-422.5457 493.9135,-396.7214"/>
<polygon fill="#000000" stroke="#000000" points="497.229,-395.5997 490.7409,-387.2239 490.5897,-397.8177 497.229,-395.5997"/>
</g>
<!-- 140178131751432 -->
<g id="node4" class="node">
<title>140178131751432</title>
<polygon fill="none" stroke="#000000" points="296,-264.6979 125,-264.6979 125,-228.6979 296,-228.6979 296,-264.6979"/>
<text text-anchor="middle" x="210.5" y="-242.9979" font-family="Times,serif" font-size="14.00" fill="#000000">ActionMessage:doDecoding</text>
</g>
<!-- 140178131693696 -->
<g id="node5" class="node">
<title>140178131693696</title>
<polygon fill="none" stroke="#000000" points="313.5,-318.6979 107.5,-318.6979 107.5,-282.6979 313.5,-282.6979 313.5,-318.6979"/>
<text text-anchor="middle" x="210.5" y="-296.9979" font-family="Times,serif" font-size="14.00" fill="#000000">ActionMessage:getDecodedAction</text>
</g>
<!-- 140178131695432 -->
<g id="node6" class="node">
<title>140178131695432</title>
<polygon fill="none" stroke="#000000" points="316,-372.6979 105,-372.6979 105,-336.6979 316,-336.6979 316,-372.6979"/>
<text text-anchor="middle" x="210.5" y="-350.9979" font-family="Times,serif" font-size="14.00" fill="#000000">FinancialUtils:computeGainPercent</text>
</g>
<!-- 140178131694704 -->
<g id="node7" class="node">
<title>140178131694704</title>
<polygon fill="none" stroke="#000000" points="1191,-400.6979 1049,-400.6979 1049,-364.6979 1191,-364.6979 1191,-400.6979"/>
<text text-anchor="middle" x="1120" y="-378.9979" font-family="Times,serif" font-size="14.00" fill="#000000">JSFLoginFilter:destroy</text>
</g>
<!-- 140178131694704&#45;&gt;140178132615688 -->
<g id="edge19" class="edge">
<title>140178131694704&#45;&gt;140178132615688</title>
<path fill="none" stroke="#000000" d="M1048.6793,-386.3652C939.9991,-390.903 726.5992,-395.6826 547,-374.6979 538.2015,-373.6698 528.8286,-371.9415 520.0753,-370.0434"/>
<polygon fill="#000000" stroke="#000000" points="520.6852,-366.5925 510.1559,-367.769 519.1208,-373.4154 520.6852,-366.5925"/>
</g>
<!-- 140178131697000 -->
<g id="node8" class="node">
<title>140178131697000</title>
<polygon fill="none" stroke="#000000" points="272,-426.6979 149,-426.6979 149,-390.6979 272,-390.6979 272,-426.6979"/>
<text text-anchor="middle" x="210.5" y="-404.9979" font-family="Times,serif" font-size="14.00" fill="#000000">Log:doActionTrace</text>
</g>
<!-- 140178131693640 -->
<g id="node9" class="node">
<title>140178131693640</title>
<polygon fill="none" stroke="#000000" points="253.5,-480.6979 167.5,-480.6979 167.5,-444.6979 253.5,-444.6979 253.5,-480.6979"/>
<text text-anchor="middle" x="210.5" y="-458.9979" font-family="Times,serif" font-size="14.00" fill="#000000">Log:doTrace</text>
</g>
<!-- 140178131694088 -->
<g id="node10" class="node">
<title>140178131694088</title>
<polygon fill="none" stroke="#000000" points="273.5,-534.6979 147.5,-534.6979 147.5,-498.6979 273.5,-498.6979 273.5,-534.6979"/>
<text text-anchor="middle" x="210.5" y="-512.9979" font-family="Times,serif" font-size="14.00" fill="#000000">Log:getActionTrace</text>
</g>
<!-- 140178131694760 -->
<g id="node11" class="node">
<title>140178131694760</title>
<polygon fill="none" stroke="#000000" points="255,-588.6979 166,-588.6979 166,-552.6979 255,-552.6979 255,-588.6979"/>
<text text-anchor="middle" x="210.5" y="-566.9979" font-family="Times,serif" font-size="14.00" fill="#000000">Log:getTrace</text>
</g>
<!-- 140178131694648 -->
<g id="node12" class="node">
<title>140178131694648</title>
<polygon fill="none" stroke="#000000" points="293.5,-642.6979 127.5,-642.6979 127.5,-606.6979 293.5,-606.6979 293.5,-642.6979"/>
<text text-anchor="middle" x="210.5" y="-620.9979" font-family="Times,serif" font-size="14.00" fill="#000000">Log:log [overloaded_#001]</text>
</g>
<!-- 140178131751488 -->
<g id="node13" class="node">
<title>140178131751488</title>
<polygon fill="none" stroke="#000000" points="301.5,-696.6979 119.5,-696.6979 119.5,-660.6979 301.5,-660.6979 301.5,-696.6979"/>
<text text-anchor="middle" x="210.5" y="-674.9979" font-family="Times,serif" font-size="14.00" fill="#000000">Log:trace [overloaded_#0011]</text>
</g>
<!-- 140178131752272 -->
<g id="node14" class="node">
<title>140178131752272</title>
<polygon fill="none" stroke="#000000" points="421,-750.6979 0,-750.6979 0,-714.6979 421,-714.6979 421,-750.6979"/>
<text text-anchor="middle" x="210.5" y="-728.9979" font-family="Times,serif" font-size="14.00" fill="#000000">MarketSummaryDataBean:MarketSummaryDataBean [overloaded_#002]</text>
</g>
<!-- 140178131696496 -->
<g id="node15" class="node">
<title>140178131696496</title>
<polygon fill="none" stroke="#000000" points="332,-804.6979 89,-804.6979 89,-768.6979 332,-768.6979 332,-804.6979"/>
<text text-anchor="middle" x="210.5" y="-782.9979" font-family="Times,serif" font-size="14.00" fill="#000000">MarketSummaryDataBean:getOpenTSIA</text>
</g>
<!-- 140178131751936 -->
<g id="node16" class="node">
<title>140178131751936</title>
<polygon fill="none" stroke="#000000" points="348,-858.6979 73,-858.6979 73,-822.6979 348,-822.6979 348,-858.6979"/>
<text text-anchor="middle" x="210.5" y="-836.9979" font-family="Times,serif" font-size="14.00" fill="#000000">MarketSummaryDataBean:getRandomInstance</text>
</g>
<!-- 140178131693864 -->
<g id="node17" class="node">
<title>140178131693864</title>
<polygon fill="none" stroke="#000000" points="317.5,-912.6979 103.5,-912.6979 103.5,-876.6979 317.5,-876.6979 317.5,-912.6979"/>
<text text-anchor="middle" x="210.5" y="-890.9979" font-family="Times,serif" font-size="14.00" fill="#000000">MarketSummaryDataBean:getTSIA</text>
</g>
<!-- 140178131751264 -->
<g id="node18" class="node">
<title>140178131751264</title>
<polygon fill="none" stroke="#000000" points="331.5,-966.6979 89.5,-966.6979 89.5,-930.6979 331.5,-930.6979 331.5,-966.6979"/>
<text text-anchor="middle" x="210.5" y="-944.9979" font-family="Times,serif" font-size="14.00" fill="#000000">MarketSummaryDataBean:setOpenTSIA</text>
</g>
<!-- 140178131695824 -->
<g id="node19" class="node">
<title>140178131695824</title>
<polygon fill="none" stroke="#000000" points="341.5,-1020.6979 79.5,-1020.6979 79.5,-984.6979 341.5,-984.6979 341.5,-1020.6979"/>
<text text-anchor="middle" x="210.5" y="-998.9979" font-family="Times,serif" font-size="14.00" fill="#000000">MarketSummaryDataBean:setSummaryDate</text>
</g>
<!-- 140178131696328 -->
<g id="node20" class="node">
<title>140178131696328</title>
<polygon fill="none" stroke="#000000" points="316.5,-1074.6979 104.5,-1074.6979 104.5,-1038.6979 316.5,-1038.6979 316.5,-1074.6979"/>
<text text-anchor="middle" x="210.5" y="-1052.9979" font-family="Times,serif" font-size="14.00" fill="#000000">MarketSummaryDataBean:setTSIA</text>
</g>
<!-- 140178131695264 -->
<g id="node21" class="node">
<title>140178131695264</title>
<polygon fill="none" stroke="#000000" points="333.5,-1128.6979 87.5,-1128.6979 87.5,-1092.6979 333.5,-1092.6979 333.5,-1128.6979"/>
<text text-anchor="middle" x="210.5" y="-1106.9979" font-family="Times,serif" font-size="14.00" fill="#000000">MarketSummaryDataBean:setTopGainers</text>
</g>
<!-- 140178131752384 -->
<g id="node22" class="node">
<title>140178131752384</title>
<polygon fill="none" stroke="#000000" points="330.5,-1182.6979 90.5,-1182.6979 90.5,-1146.6979 330.5,-1146.6979 330.5,-1182.6979"/>
<text text-anchor="middle" x="210.5" y="-1160.9979" font-family="Times,serif" font-size="14.00" fill="#000000">MarketSummaryDataBean:setTopLosers</text>
</g>
<!-- 140178131697392 -->
<g id="node23" class="node">
<title>140178131697392</title>
<polygon fill="none" stroke="#000000" points="324,-1236.6979 97,-1236.6979 97,-1200.6979 324,-1200.6979 324,-1236.6979"/>
<text text-anchor="middle" x="210.5" y="-1214.9979" font-family="Times,serif" font-size="14.00" fill="#000000">MarketSummaryDataBean:setVolume</text>
</g>
<!-- 140178131694816 -->
<g id="node24" class="node">
<title>140178131694816</title>
<polygon fill="none" stroke="#000000" points="315.5,-1290.6979 105.5,-1290.6979 105.5,-1254.6979 315.5,-1254.6979 315.5,-1290.6979"/>
<text text-anchor="middle" x="210.5" y="-1268.9979" font-family="Times,serif" font-size="14.00" fill="#000000">MarketSummaryDataBean:toJSON</text>
</g>
<!-- 140178131695992 -->
<g id="node25" class="node">
<title>140178131695992</title>
<polygon fill="none" stroke="#000000" points="375,-1344.6979 46,-1344.6979 46,-1308.6979 375,-1308.6979 375,-1344.6979"/>
<text text-anchor="middle" x="210.5" y="-1322.9979" font-family="Times,serif" font-size="14.00" fill="#000000">MarketSummarySingleton:getMarketSummaryDataBean</text>
</g>
<!-- 140178131693808 -->
<g id="node26" class="node">
<title>140178131693808</title>
<polygon fill="none" stroke="#000000" points="374.5,-1398.6979 46.5,-1398.6979 46.5,-1362.6979 374.5,-1362.6979 374.5,-1398.6979"/>
<text text-anchor="middle" x="210.5" y="-1376.9979" font-family="Times,serif" font-size="14.00" fill="#000000">MarketSummarySingleton:setMarketSummaryDataBean</text>
</g>
<!-- 140178131751320 -->
<g id="node27" class="node">
<title>140178131751320</title>
<polygon fill="none" stroke="#000000" points="1268,-346.6979 972,-346.6979 972,-310.6979 1268,-310.6979 1268,-346.6979"/>
<text text-anchor="middle" x="1120" y="-324.9979" font-family="Times,serif" font-size="14.00" fill="#000000">MarketSummarySingleton:updateMarketSummary</text>
</g>
<!-- 140178131751320&#45;&gt;140178132615688 -->
<g id="edge20" class="edge">
<title>140178131751320&#45;&gt;140178132615688</title>
<path fill="none" stroke="#000000" d="M971.9395,-336.1475C824.3773,-343.572 607.6886,-354.4746 521.4267,-358.8148"/>
<polygon fill="#000000" stroke="#000000" points="521.1396,-355.3247 511.3281,-359.3229 521.4914,-362.3158 521.1396,-355.3247"/>
</g>
<!-- 140178131751656 -->
<g id="node28" class="node">
<title>140178131751656</title>
<polygon fill="none" stroke="#000000" points="349,-1452.6979 72,-1452.6979 72,-1416.6979 349,-1416.6979 349,-1452.6979"/>
<text text-anchor="middle" x="210.5" y="-1430.9979" font-family="Times,serif" font-size="14.00" fill="#000000">MarketSummaryWebSocket:mergeJsonObjects</text>
</g>
<!-- 140178131694256 -->
<g id="node29" class="node">
<title>140178131694256</title>
<polygon fill="none" stroke="#000000" points="1230,-292.6979 1010,-292.6979 1010,-256.6979 1230,-256.6979 1230,-292.6979"/>
<text text-anchor="middle" x="1120" y="-270.9979" font-family="Times,serif" font-size="14.00" fill="#000000">MarketSummaryWebSocket:onOpen</text>
</g>
<!-- 140178131694256&#45;&gt;140178132615688 -->
<g id="edge21" class="edge">
<title>140178131694256&#45;&gt;140178132615688</title>
<path fill="none" stroke="#000000" d="M1023.3861,-256.6594C971.0895,-247.8023 905.2386,-238.1054 846,-233.6979 713.4774,-223.8378 659.9317,-163.6558 547,-233.6979 538.3727,-239.0487 514.698,-290.2533 498.955,-325.9851"/>
<polygon fill="#000000" stroke="#000000" points="495.549,-325.0378 494.744,-335.602 501.9612,-327.8455 495.549,-325.0378"/>
</g>
<!-- 140178131696776 -->
<g id="node30" class="node">
<title>140178131696776</title>
<polygon fill="none" stroke="#000000" points="1268,-238.6979 972,-238.6979 972,-202.6979 1268,-202.6979 1268,-238.6979"/>
<text text-anchor="middle" x="1120" y="-216.9979" font-family="Times,serif" font-size="14.00" fill="#000000">MarketSummaryWebSocket:sendMarketSummary</text>
</g>
<!-- 140178131696776&#45;&gt;140178132615688 -->
<g id="edge22" class="edge">
<title>140178131696776&#45;&gt;140178132615688</title>
<path fill="none" stroke="#000000" d="M1023.1969,-202.6491C880.1337,-178.2393 621.1531,-143.4059 547,-195.6979 508.0546,-223.1618 528.2688,-252.2816 511,-296.6979 507.1981,-306.4765 502.862,-317.0003 498.7939,-326.6334"/>
<polygon fill="#000000" stroke="#000000" points="495.5418,-325.3372 494.8447,-335.9091 501.9824,-328.0793 495.5418,-325.3372"/>
</g>
<!-- 140178131693976 -->
<g id="node31" class="node">
<title>140178131693976</title>
<polygon fill="none" stroke="#000000" points="1197,-130.6979 1043,-130.6979 1043,-94.6979 1197,-94.6979 1197,-130.6979"/>
<text text-anchor="middle" x="1120" y="-108.9979" font-family="Times,serif" font-size="14.00" fill="#000000">OrdersAlertFilter:destroy</text>
</g>
<!-- 140178131693976&#45;&gt;140178132615688 -->
<g id="edge23" class="edge">
<title>140178131693976&#45;&gt;140178132615688</title>
<path fill="none" stroke="#000000" d="M1042.8941,-103.1361C904.2009,-87.7227 620.2515,-64.8714 547,-125.6979 487.2486,-175.3141 534.2009,-222.5783 511,-296.6979 507.8658,-306.7105 503.7436,-317.3093 499.6668,-326.9394"/>
<polygon fill="#000000" stroke="#000000" points="496.4228,-325.6229 495.6435,-336.1891 502.8418,-328.415 496.4228,-325.6229"/>
</g>
<!-- 140178131752216 -->
<g id="node32" class="node">
<title>140178131752216</title>
<polygon fill="none" stroke="#000000" points="1198.5,-76.6979 1041.5,-76.6979 1041.5,-40.6979 1198.5,-40.6979 1198.5,-76.6979"/>
<text text-anchor="middle" x="1120" y="-54.9979" font-family="Times,serif" font-size="14.00" fill="#000000">OrdersAlertFilter:doFilter</text>
</g>
<!-- 140178131752216&#45;&gt;140178132615688 -->
<g id="edge24" class="edge">
<title>140178131752216&#45;&gt;140178132615688</title>
<path fill="none" stroke="#000000" d="M1064.4498,-40.6313C951.4985,-7.7296 693.3816,47.3391 547,-81.6979 510.6605,-113.7315 524.5067,-250.176 511,-296.6979 508.0747,-306.7735 504.0194,-317.3925 499.94,-327.0218"/>
<polygon fill="#000000" stroke="#000000" points="496.6979,-325.7002 495.8934,-336.2644 503.1102,-328.5076 496.6979,-325.7002"/>
</g>
<!-- 140178131752608 -->
<g id="node33" class="node">
<title>140178131752608</title>
<polygon fill="none" stroke="#000000" points="1178,-670.6979 1062,-670.6979 1062,-634.6979 1178,-634.6979 1178,-670.6979"/>
<text text-anchor="middle" x="1120" y="-648.9979" font-family="Times,serif" font-size="14.00" fill="#000000">PingServlet:doGet</text>
</g>
<!-- 140178131752608&#45;&gt;140178132615688 -->
<g id="edge25" class="edge">
<title>140178131752608&#45;&gt;140178132615688</title>
<path fill="none" stroke="#000000" d="M1061.9172,-666.8248C948.3558,-690.7144 695.0962,-725.1092 547,-599.6979 516.4173,-573.7997 496.924,-458.4598 488.6189,-397.984"/>
<polygon fill="#000000" stroke="#000000" points="492.0402,-397.1624 487.2439,-387.7154 485.1021,-398.0915 492.0402,-397.1624"/>
</g>
<!-- 140178131696832 -->
<g id="node34" class="node">
<title>140178131696832</title>
<polygon fill="none" stroke="#000000" points="1170.5,-616.6979 1069.5,-616.6979 1069.5,-580.6979 1170.5,-580.6979 1170.5,-616.6979"/>
<text text-anchor="middle" x="1120" y="-594.9979" font-family="Times,serif" font-size="14.00" fill="#000000">PingServlet:init</text>
</g>
<!-- 140178131696832&#45;&gt;140178132615688 -->
<g id="edge26" class="edge">
<title>140178131696832&#45;&gt;140178132615688</title>
<path fill="none" stroke="#000000" d="M1069.4945,-602.5547C944.8993,-610.9933 627.1626,-625.6362 547,-562.6979 520.86,-542.1745 500.1993,-449.7537 490.3307,-397.3203"/>
<polygon fill="#000000" stroke="#000000" points="493.757,-396.5999 488.5024,-387.3999 486.8729,-397.8687 493.757,-396.5999"/>
</g>
<!-- 140178131751992 -->
<g id="node35" class="node">
<title>140178131751992</title>
<polygon fill="none" stroke="#000000" points="846,-332.6979 547,-332.6979 547,-296.6979 846,-296.6979 846,-332.6979"/>
<text text-anchor="middle" x="696.5" y="-310.9979" font-family="Times,serif" font-size="14.00" fill="#000000">QuoteDataBean:QuoteDataBean [overloaded_#001]</text>
</g>
<!-- 140178132618768 -->
<g id="node81" class="node">
<title>140178132618768</title>
<ellipse fill="none" stroke="#000000" cx="909" cy="-291.6979" rx="27" ry="27"/>
<text text-anchor="middle" x="909" y="-287.9979" font-family="Times,serif" font-size="14.00" fill="#000000">({&#39;QuoteDataBean:QuoteDataBean [overloaded_#001]&#39;, &#39;artificial_start&#39;}, {&#39;PingServlet:doGet&#39;, &#39;ActionDecoder:decode&#39;, &#39;OrdersAlertFilter:doFilter&#39;, &#39;ActionDecoder:init&#39;, &#39;PingServlet:init&#39;, &#39;MarketSummaryWebSocket:onOpen&#39;, &#39;JSFLoginFilter:destroy&#39;, &#39;OrdersAlertFilter:destroy&#39;, &#39;MarketSummarySingleton:updateMarketSummary&#39;, &#39;TradeWebContextListener:contextDestroyed&#39;, &#39;new ActionDecoder&#39;, &#39;ActionDecoder:willDecode&#39;, &#39;MarketSummaryWebSocket:sendMarketSummary&#39;})</text>
</g>
<!-- 140178131751992&#45;&gt;140178132618768 -->
<g id="edge27" class="edge">
<title>140178131751992&#45;&gt;140178132618768</title>
<path fill="none" stroke="#000000" d="M846.1055,-298.5053C855.3961,-297.4997 864.1528,-296.5519 872.0132,-295.7012"/>
<polygon fill="#000000" stroke="#000000" points="872.577,-299.1607 882.1423,-294.6048 871.8237,-292.2013 872.577,-299.1607"/>
</g>
<!-- 140178131697112 -->
<g id="node36" class="node">
<title>140178131697112</title>
<polygon fill="none" stroke="#000000" points="360,-1506.6979 61,-1506.6979 61,-1470.6979 360,-1470.6979 360,-1506.6979"/>
<text text-anchor="middle" x="210.5" y="-1484.9979" font-family="Times,serif" font-size="14.00" fill="#000000">QuoteDataBean:QuoteDataBean [overloaded_#002]</text>
</g>
<!-- 140178131696384 -->
<g id="node37" class="node">
<title>140178131696384</title>
<polygon fill="none" stroke="#000000" points="292.5,-1560.6979 128.5,-1560.6979 128.5,-1524.6979 292.5,-1524.6979 292.5,-1560.6979"/>
<text text-anchor="middle" x="210.5" y="-1538.9979" font-family="Times,serif" font-size="14.00" fill="#000000">QuoteDataBean:getChange</text>
</g>
<!-- 140178131695040 -->
<g id="node38" class="node">
<title>140178131695040</title>
<polygon fill="none" stroke="#000000" points="286.5,-1614.6979 134.5,-1614.6979 134.5,-1578.6979 286.5,-1578.6979 286.5,-1614.6979"/>
<text text-anchor="middle" x="210.5" y="-1592.9979" font-family="Times,serif" font-size="14.00" fill="#000000">QuoteDataBean:getOpen</text>
</g>
<!-- 140178131695152 -->
<g id="node39" class="node">
<title>140178131695152</title>
<polygon fill="none" stroke="#000000" points="286,-1668.6979 135,-1668.6979 135,-1632.6979 286,-1632.6979 286,-1668.6979"/>
<text text-anchor="middle" x="210.5" y="-1646.9979" font-family="Times,serif" font-size="14.00" fill="#000000">QuoteDataBean:getPrice</text>
</g>
<!-- 140178131693920 -->
<g id="node40" class="node">
<title>140178131693920</title>
<polygon fill="none" stroke="#000000" points="318,-1722.6979 103,-1722.6979 103,-1686.6979 318,-1686.6979 318,-1722.6979"/>
<text text-anchor="middle" x="210.5" y="-1700.9979" font-family="Times,serif" font-size="14.00" fill="#000000">QuoteDataBean:getRandomInstance</text>
</g>
<!-- 140178131694872 -->
<g id="node41" class="node">
<title>140178131694872</title>
<polygon fill="none" stroke="#000000" points="293.5,-1776.6979 127.5,-1776.6979 127.5,-1740.6979 293.5,-1740.6979 293.5,-1776.6979"/>
<text text-anchor="middle" x="210.5" y="-1754.9979" font-family="Times,serif" font-size="14.00" fill="#000000">QuoteDataBean:getSymbol</text>
</g>
<!-- 140178131697560 -->
<g id="node42" class="node">
<title>140178131697560</title>
<polygon fill="none" stroke="#000000" points="294,-1830.6979 127,-1830.6979 127,-1794.6979 294,-1794.6979 294,-1830.6979"/>
<text text-anchor="middle" x="210.5" y="-1808.9979" font-family="Times,serif" font-size="14.00" fill="#000000">QuoteDataBean:getVolume</text>
</g>
<!-- 140178131751880 -->
<g id="node43" class="node">
<title>140178131751880</title>
<polygon fill="none" stroke="#000000" points="292,-1884.6979 129,-1884.6979 129,-1848.6979 292,-1848.6979 292,-1884.6979"/>
<text text-anchor="middle" x="210.5" y="-1862.9979" font-family="Times,serif" font-size="14.00" fill="#000000">QuoteDataBean:setChange</text>
</g>
<!-- 140178131694312 -->
<g id="node44" class="node">
<title>140178131694312</title>
<polygon fill="none" stroke="#000000" points="314.5,-1938.6979 106.5,-1938.6979 106.5,-1902.6979 314.5,-1902.6979 314.5,-1938.6979"/>
<text text-anchor="middle" x="210.5" y="-1916.9979" font-family="Times,serif" font-size="14.00" fill="#000000">QuoteDataBean:setCompanyName</text>
</g>
<!-- 140178131696608 -->
<g id="node45" class="node">
<title>140178131696608</title>
<polygon fill="none" stroke="#000000" points="285,-1992.6979 136,-1992.6979 136,-1956.6979 285,-1956.6979 285,-1992.6979"/>
<text text-anchor="middle" x="210.5" y="-1970.9979" font-family="Times,serif" font-size="14.00" fill="#000000">QuoteDataBean:setHigh</text>
</g>
<!-- 140178131695712 -->
<g id="node46" class="node">
<title>140178131695712</title>
<polygon fill="none" stroke="#000000" points="283.5,-2046.6979 137.5,-2046.6979 137.5,-2010.6979 283.5,-2010.6979 283.5,-2046.6979"/>
<text text-anchor="middle" x="210.5" y="-2024.9979" font-family="Times,serif" font-size="14.00" fill="#000000">QuoteDataBean:setLow</text>
</g>
<!-- 140178131695320 -->
<g id="node47" class="node">
<title>140178131695320</title>
<polygon fill="none" stroke="#000000" points="286,-2100.6979 135,-2100.6979 135,-2064.6979 286,-2064.6979 286,-2100.6979"/>
<text text-anchor="middle" x="210.5" y="-2078.9979" font-family="Times,serif" font-size="14.00" fill="#000000">QuoteDataBean:setOpen</text>
</g>
<!-- 140178131695936 -->
<g id="node48" class="node">
<title>140178131695936</title>
<polygon fill="none" stroke="#000000" points="285,-2154.6979 136,-2154.6979 136,-2118.6979 285,-2118.6979 285,-2154.6979"/>
<text text-anchor="middle" x="210.5" y="-2132.9979" font-family="Times,serif" font-size="14.00" fill="#000000">QuoteDataBean:setPrice</text>
</g>
<!-- 140178131695600 -->
<g id="node49" class="node">
<title>140178131695600</title>
<polygon fill="none" stroke="#000000" points="292.5,-2208.6979 128.5,-2208.6979 128.5,-2172.6979 292.5,-2172.6979 292.5,-2208.6979"/>
<text text-anchor="middle" x="210.5" y="-2186.9979" font-family="Times,serif" font-size="14.00" fill="#000000">QuoteDataBean:setSymbol</text>
</g>
<!-- 140178131694200 -->
<g id="node50" class="node">
<title>140178131694200</title>
<polygon fill="none" stroke="#000000" points="293.5,-2262.6979 127.5,-2262.6979 127.5,-2226.6979 293.5,-2226.6979 293.5,-2262.6979"/>
<text text-anchor="middle" x="210.5" y="-2240.9979" font-family="Times,serif" font-size="14.00" fill="#000000">QuoteDataBean:setVolume</text>
</g>
<!-- 140178131693752 -->
<g id="node51" class="node">
<title>140178131693752</title>
<polygon fill="none" stroke="#000000" points="309,-2316.6979 112,-2316.6979 112,-2280.6979 309,-2280.6979 309,-2316.6979"/>
<text text-anchor="middle" x="210.5" y="-2294.9979" font-family="Times,serif" font-size="14.00" fill="#000000">RecentStockChangeList:isEmpty</text>
</g>
<!-- 140178131694368 -->
<g id="node52" class="node">
<title>140178131694368</title>
<polygon fill="none" stroke="#000000" points="345,-2370.6979 76,-2370.6979 76,-2334.6979 345,-2334.6979 345,-2370.6979"/>
<text text-anchor="middle" x="210.5" y="-2348.9979" font-family="Times,serif" font-size="14.00" fill="#000000">RecentStockChangeList:stockChangesInJSON</text>
</g>
<!-- 140178131695656 -->
<g id="node53" class="node">
<title>140178131695656</title>
<polygon fill="none" stroke="#000000" points="723.5,-462.6979 669.5,-462.6979 669.5,-426.6979 723.5,-426.6979 723.5,-462.6979"/>
<text text-anchor="middle" x="696.5" y="-440.9979" font-family="Times,serif" font-size="14.00" fill="#000000">Root</text>
</g>
<!-- 140178132618936 -->
<g id="node82" class="node">
<title>140178132618936</title>
<ellipse fill="#ffa500" stroke="#000000" cx="909" cy="-439.6979" rx="27" ry="27"/>
</g>
<!-- 140178131695656&#45;&gt;140178132618936 -->
<g id="edge28" class="edge">
<title>140178131695656&#45;&gt;140178132618936</title>
<path fill="none" stroke="#000000" d="M723.8456,-444.0544C761.4607,-443.1694 829.3021,-441.5731 871.5921,-440.5781"/>
<polygon fill="#000000" stroke="#000000" points="871.8445,-444.0732 881.7593,-440.3388 871.6797,-437.0751 871.8445,-444.0732"/>
</g>
<!-- 140178131752552 -->
<g id="node54" class="node">
<title>140178131752552</title>
<polygon fill="none" stroke="#000000" points="342,-2424.6979 79,-2424.6979 79,-2388.6979 342,-2388.6979 342,-2424.6979"/>
<text text-anchor="middle" x="210.5" y="-2402.9979" font-family="Times,serif" font-size="14.00" fill="#000000">TradeAction:TradeAction [overloaded_#001]</text>
</g>
<!-- 140178131750984 -->
<g id="node55" class="node">
<title>140178131750984</title>
<polygon fill="none" stroke="#000000" points="286.5,-2478.6979 134.5,-2478.6979 134.5,-2442.6979 286.5,-2442.6979 286.5,-2478.6979"/>
<text text-anchor="middle" x="210.5" y="-2456.9979" font-family="Times,serif" font-size="14.00" fill="#000000">TradeAction:createTrade</text>
</g>
<!-- 140178131695768 -->
<g id="node56" class="node">
<title>140178131695768</title>
<polygon fill="none" stroke="#000000" points="310,-2532.6979 111,-2532.6979 111,-2496.6979 310,-2496.6979 310,-2532.6979"/>
<text text-anchor="middle" x="210.5" y="-2510.9979" font-family="Times,serif" font-size="14.00" fill="#000000">TradeAction:getMarketSummary</text>
</g>
<!-- 140178131695376 -->
<g id="node57" class="node">
<title>140178131695376</title>
<polygon fill="none" stroke="#000000" points="283.5,-2586.6979 137.5,-2586.6979 137.5,-2550.6979 283.5,-2550.6979 283.5,-2586.6979"/>
<text text-anchor="middle" x="210.5" y="-2564.9979" font-family="Times,serif" font-size="14.00" fill="#000000">TradeAppServlet:doGet</text>
</g>
<!-- 140178131751824 -->
<g id="node58" class="node">
<title>140178131751824</title>
<polygon fill="none" stroke="#000000" points="276,-2640.6979 145,-2640.6979 145,-2604.6979 276,-2604.6979 276,-2640.6979"/>
<text text-anchor="middle" x="210.5" y="-2618.9979" font-family="Times,serif" font-size="14.00" fill="#000000">TradeAppServlet:init</text>
</g>
<!-- 140178131751768 -->
<g id="node59" class="node">
<title>140178131751768</title>
<polygon fill="none" stroke="#000000" points="302.5,-2694.6979 118.5,-2694.6979 118.5,-2658.6979 302.5,-2658.6979 302.5,-2694.6979"/>
<text text-anchor="middle" x="210.5" y="-2672.9979" font-family="Times,serif" font-size="14.00" fill="#000000">TradeAppServlet:performTask</text>
</g>
<!-- 140178131697168 -->
<g id="node60" class="node">
<title>140178131697168</title>
<polygon fill="none" stroke="#000000" points="297,-2748.6979 124,-2748.6979 124,-2712.6979 297,-2712.6979 297,-2748.6979"/>
<text text-anchor="middle" x="210.5" y="-2726.9979" font-family="Times,serif" font-size="14.00" fill="#000000">TradeConfig:getActionTrace</text>
</g>
<!-- 140178131694984 -->
<g id="node61" class="node">
<title>140178131694984</title>
<polygon fill="none" stroke="#000000" points="316.5,-2802.6979 104.5,-2802.6979 104.5,-2766.6979 316.5,-2766.6979 316.5,-2802.6979"/>
<text text-anchor="middle" x="210.5" y="-2780.9979" font-family="Times,serif" font-size="14.00" fill="#000000">TradeConfig:getDisplayOrderAlerts</text>
</g>
<!-- 140178131697504 -->
<g id="node62" class="node">
<title>140178131697504</title>
<polygon fill="none" stroke="#000000" points="276.5,-2856.6979 144.5,-2856.6979 144.5,-2820.6979 276.5,-2820.6979 276.5,-2856.6979"/>
<text text-anchor="middle" x="210.5" y="-2834.9979" font-family="Times,serif" font-size="14.00" fill="#000000">TradeConfig:getPage</text>
</g>
<!-- 140178131694536 -->
<g id="node63" class="node">
<title>140178131694536</title>
<polygon fill="none" stroke="#000000" points="305.5,-2910.6979 115.5,-2910.6979 115.5,-2874.6979 305.5,-2874.6979 305.5,-2910.6979"/>
<text text-anchor="middle" x="210.5" y="-2888.9979" font-family="Times,serif" font-size="14.00" fill="#000000">TradeConfig:getRunTimeMode</text>
</g>
<!-- 140178131751544 -->
<g id="node64" class="node">
<title>140178131751544</title>
<polygon fill="none" stroke="#000000" points="279,-2964.6979 142,-2964.6979 142,-2928.6979 279,-2928.6979 279,-2964.6979"/>
<text text-anchor="middle" x="210.5" y="-2942.9979" font-family="Times,serif" font-size="14.00" fill="#000000">TradeConfig:getTrace</text>
</g>
<!-- 140178131695544 -->
<g id="node65" class="node">
<title>140178131695544</title>
<polygon fill="none" stroke="#000000" points="276,-3018.6979 145,-3018.6979 145,-2982.6979 276,-2982.6979 276,-3018.6979"/>
<text text-anchor="middle" x="210.5" y="-2996.9979" font-family="Times,serif" font-size="14.00" fill="#000000">TradeConfig:random</text>
</g>
<!-- 140178131694144 -->
<g id="node66" class="node">
<title>140178131694144</title>
<polygon fill="none" stroke="#000000" points="297,-3072.6979 124,-3072.6979 124,-3036.6979 297,-3036.6979 297,-3072.6979"/>
<text text-anchor="middle" x="210.5" y="-3050.9979" font-family="Times,serif" font-size="14.00" fill="#000000">TradeConfig:rndBigDecimal</text>
</g>
<!-- 140178131696552 -->
<g id="node67" class="node">
<title>140178131696552</title>
<polygon fill="none" stroke="#000000" points="278,-3126.6979 143,-3126.6979 143,-3090.6979 278,-3090.6979 278,-3126.6979"/>
<text text-anchor="middle" x="210.5" y="-3104.9979" font-family="Times,serif" font-size="14.00" fill="#000000">TradeConfig:rndFloat</text>
</g>
<!-- 140178131697056 -->
<g id="node68" class="node">
<title>140178131697056</title>
<polygon fill="none" stroke="#000000" points="271.5,-3180.6979 149.5,-3180.6979 149.5,-3144.6979 271.5,-3144.6979 271.5,-3180.6979"/>
<text text-anchor="middle" x="210.5" y="-3158.9979" font-family="Times,serif" font-size="14.00" fill="#000000">TradeConfig:rndInt</text>
</g>
<!-- 140178131754008 -->
<g id="node69" class="node">
<title>140178131754008</title>
<polygon fill="none" stroke="#000000" points="288,-3234.6979 133,-3234.6979 133,-3198.6979 288,-3198.6979 288,-3234.6979"/>
<text text-anchor="middle" x="210.5" y="-3212.9979" font-family="Times,serif" font-size="14.00" fill="#000000">TradeConfig:rndQuantity</text>
</g>
<!-- 140178131695096 -->
<g id="node70" class="node">
<title>140178131695096</title>
<polygon fill="none" stroke="#000000" points="285.5,-3288.6979 135.5,-3288.6979 135.5,-3252.6979 285.5,-3252.6979 285.5,-3288.6979"/>
<text text-anchor="middle" x="210.5" y="-3266.9979" font-family="Times,serif" font-size="14.00" fill="#000000">TradeConfig:rndSymbol</text>
</g>
<!-- 140178131751152 -->
<g id="node71" class="node">
<title>140178131751152</title>
<polygon fill="none" stroke="#000000" points="321,-3342.6979 100,-3342.6979 100,-3306.6979 321,-3306.6979 321,-3342.6979"/>
<text text-anchor="middle" x="210.5" y="-3320.9979" font-family="Times,serif" font-size="14.00" fill="#000000">TradeConfig:useRemoteEJBInterface</text>
</g>
<!-- 140178131752048 -->
<g id="node72" class="node">
<title>140178131752048</title>
<polygon fill="none" stroke="#000000" points="321.5,-3396.6979 99.5,-3396.6979 99.5,-3360.6979 321.5,-3360.6979 321.5,-3396.6979"/>
<text text-anchor="middle" x="210.5" y="-3374.9979" font-family="Times,serif" font-size="14.00" fill="#000000">TradeSLSBBean:getMarketSummary</text>
</g>
<!-- 140178131694928 -->
<g id="node73" class="node">
<title>140178131694928</title>
<polygon fill="none" stroke="#000000" points="307.5,-3450.6979 113.5,-3450.6979 113.5,-3414.6979 307.5,-3414.6979 307.5,-3450.6979"/>
<text text-anchor="middle" x="210.5" y="-3428.9979" font-family="Times,serif" font-size="14.00" fill="#000000">TradeServletAction:doWelcome</text>
</g>
<!-- 140178131697336 -->
<g id="node74" class="node">
<title>140178131697336</title>
<polygon fill="none" stroke="#000000" points="317.5,-3504.6979 103.5,-3504.6979 103.5,-3468.6979 317.5,-3468.6979 317.5,-3504.6979"/>
<text text-anchor="middle" x="210.5" y="-3482.9979" font-family="Times,serif" font-size="14.00" fill="#000000">TradeServletAction:requestDispatch</text>
</g>
<!-- 140178131694480 -->
<g id="node75" class="node">
<title>140178131694480</title>
<polygon fill="none" stroke="#000000" points="1250,-184.6979 990,-184.6979 990,-148.6979 1250,-148.6979 1250,-184.6979"/>
<text text-anchor="middle" x="1120" y="-162.9979" font-family="Times,serif" font-size="14.00" fill="#000000">TradeWebContextListener:contextDestroyed</text>
</g>
<!-- 140178131694480&#45;&gt;140178132615688 -->
<g id="edge29" class="edge">
<title>140178131694480&#45;&gt;140178132615688</title>
<path fill="none" stroke="#000000" d="M993.4838,-148.6697C846.1556,-130.6003 614.3476,-112.1561 547,-163.6979 498.3691,-200.9156 530.947,-238.7993 511,-296.6979 507.5826,-306.6174 503.3696,-317.1863 499.2965,-326.8177"/>
<polygon fill="#000000" stroke="#000000" points="496.0493,-325.509 495.3046,-336.0777 502.4774,-328.2801 496.0493,-325.509"/>
</g>
<!-- 140178131752496 -->
<g id="node76" class="node">
<title>140178131752496</title>
<polygon fill="none" stroke="#000000" points="1182.5,-562.6979 1057.5,-562.6979 1057.5,-526.6979 1182.5,-526.6979 1182.5,-562.6979"/>
<text text-anchor="middle" x="1120" y="-540.9979" font-family="Times,serif" font-size="14.00" fill="#000000">new ActionDecoder</text>
</g>
<!-- 140178131752496&#45;&gt;140178132615688 -->
<g id="edge31" class="edge">
<title>140178131752496&#45;&gt;140178132615688</title>
<path fill="none" stroke="#000000" d="M1057.4356,-551.6841C926.0983,-565.0156 627.1689,-587.9509 547,-530.6979 524.7815,-514.8304 503.7443,-442.3963 492.4911,-397.3511"/>
<polygon fill="#000000" stroke="#000000" points="495.8231,-396.2425 490.0436,-387.3629 489.0243,-397.9086 495.8231,-396.2425"/>
</g>
<!-- 140178131696888 -->
<g id="node77" class="node">
<title>140178131696888</title>
<polygon fill="none" stroke="#000000" points="274.5,-3558.6979 146.5,-3558.6979 146.5,-3522.6979 274.5,-3522.6979 274.5,-3558.6979"/>
<text text-anchor="middle" x="210.5" y="-3536.9979" font-family="Times,serif" font-size="14.00" fill="#000000">new ActionMessage</text>
</g>
<!-- 140178131752160 -->
<g id="node78" class="node">
<title>140178131752160</title>
<polygon fill="none" stroke="#000000" points="742.5,-278.6979 650.5,-278.6979 650.5,-242.6979 742.5,-242.6979 742.5,-278.6979"/>
<text text-anchor="middle" x="696.5" y="-256.9979" font-family="Times,serif" font-size="14.00" fill="#000000">artificial_start</text>
</g>
<!-- 140178131752160&#45;&gt;140178132618768 -->
<g id="edge30" class="edge">
<title>140178131752160&#45;&gt;140178132618768</title>
<path fill="none" stroke="#000000" d="M742.6093,-267.4244C781.383,-273.0808 836.0894,-281.0615 872.0354,-286.3054"/>
<polygon fill="#000000" stroke="#000000" points="871.698,-289.7931 882.0985,-287.7734 872.7085,-282.8665 871.698,-289.7931"/>
</g>
<!-- 140178131752664 -->
<g id="node79" class="node">
<title>140178131752664</title>
<ellipse fill="#00ff00" stroke="#000000" cx="484" cy="-260.6979" rx="27" ry="27"/>
<text text-anchor="middle" x="484" y="-256.9979" font-family="Times,serif" font-size="14.00" fill="#000000">1</text>
</g>
<!-- 140178131752664&#45;&gt;140178131752160 -->
<g id="edge32" class="edge">
<title>140178131752664&#45;&gt;140178131752160</title>
<path fill="none" stroke="#000000" d="M511.3456,-260.6979C543.7589,-260.6979 598.6168,-260.6979 640.2291,-260.6979"/>
<polygon fill="#000000" stroke="#000000" points="640.2321,-264.198 650.232,-260.6979 640.232,-257.198 640.2321,-264.198"/>
</g>
<!-- 140178132615688&#45;&gt;140178131751992 -->
<g id="edge1" class="edge">
<title>140178132615688&#45;&gt;140178131751992</title>
<path fill="none" stroke="#000000" d="M510.3509,-354.794C521.6333,-352.2787 534.9584,-349.3245 547,-346.6979 564.6142,-342.8557 583.4056,-338.7997 601.5095,-334.9138"/>
<polygon fill="#000000" stroke="#000000" points="602.4408,-338.2937 611.4847,-332.7749 600.9732,-331.4493 602.4408,-338.2937"/>
</g>
<!-- 140178132615688&#45;&gt;140178131695656 -->
<g id="edge2" class="edge">
<title>140178132615688&#45;&gt;140178131695656</title>
<path fill="none" stroke="#000000" d="M502.6996,-380.2551C514.4157,-391.3871 530.4024,-404.6711 547,-412.6979 582.8521,-430.0363 628.0325,-438.043 659.2916,-441.7007"/>
<polygon fill="#000000" stroke="#000000" points="659.0078,-445.1903 669.3252,-442.7816 659.7577,-438.2306 659.0078,-445.1903"/>
</g>
<!-- 140178132618768&#45;&gt;140178131696440 -->
<g id="edge3" class="edge">
<title>140178132618768&#45;&gt;140178131696440</title>
<path fill="none" stroke="#000000" d="M892.4484,-270.3654C880.9631,-257.2899 864.4524,-241.5923 846,-233.6979 660.3755,-154.2826 416.1986,-167.305 291.4624,-181.2965"/>
<polygon fill="#000000" stroke="#000000" points="290.7627,-177.8539 281.2296,-182.4767 291.5648,-184.8078 290.7627,-177.8539"/>
</g>
<!-- 140178132618768&#45;&gt;140178131696720 -->
<g id="edge4" class="edge">
<title>140178132618768&#45;&gt;140178131696720</title>
<path fill="none" stroke="#000000" d="M915.307,-318.273C926.1256,-361.5946 949.2595,-444.541 972,-463.6979 993.255,-481.6033 1022.4099,-489.2886 1049.2254,-492.1564"/>
<polygon fill="#000000" stroke="#000000" points="1049.1031,-495.6587 1059.3668,-493.0308 1049.7045,-488.6846 1049.1031,-495.6587"/>
</g>
<!-- 140178132618768&#45;&gt;140178131695488 -->
<g id="edge5" class="edge">
<title>140178132618768&#45;&gt;140178131695488</title>
<path fill="none" stroke="#000000" d="M915.7184,-318.0156C924.1376,-345.3905 941.3289,-387.3152 972,-409.6979 988.0633,-421.4203 1007.6628,-428.5582 1027.2742,-432.8017"/>
<polygon fill="#000000" stroke="#000000" points="1026.7168,-436.2586 1037.1983,-434.7128 1028.0406,-429.3849 1026.7168,-436.2586"/>
</g>
<!-- 140178132618768&#45;&gt;140178131694704 -->
<g id="edge6" class="edge">
<title>140178132618768&#45;&gt;140178131694704</title>
<path fill="none" stroke="#000000" d="M924.9457,-313.8504C936.4066,-328.0781 953.1219,-345.7046 972,-355.6979 992.4097,-366.502 1016.3754,-373.0638 1039.0063,-377.025"/>
<polygon fill="#000000" stroke="#000000" points="1038.5218,-380.4919 1048.9496,-378.618 1039.6292,-373.5801 1038.5218,-380.4919"/>
</g>
<!-- 140178132618768&#45;&gt;140178131751320 -->
<g id="edge7" class="edge">
<title>140178132618768&#45;&gt;140178131751320</title>
<path fill="none" stroke="#000000" d="M935.7233,-296.3839C954.2909,-299.6399 980.422,-304.2221 1007.184,-308.915"/>
<polygon fill="#000000" stroke="#000000" points="1006.6051,-312.3668 1017.0594,-310.6467 1007.8142,-305.472 1006.6051,-312.3668"/>
</g>
<!-- 140178132618768&#45;&gt;140178131694256 -->
<g id="edge8" class="edge">
<title>140178132618768&#45;&gt;140178131694256</title>
<path fill="none" stroke="#000000" d="M936.1526,-289.5102C952.9039,-288.1606 975.6924,-286.3246 999.5215,-284.4047"/>
<polygon fill="#000000" stroke="#000000" points="1000.0965,-287.8698 1009.7831,-283.5779 999.5343,-280.8924 1000.0965,-287.8698"/>
</g>
<!-- 140178132618768&#45;&gt;140178131696776 -->
<g id="edge9" class="edge">
<title>140178132618768&#45;&gt;140178131696776</title>
<path fill="none" stroke="#000000" d="M929.516,-273.9663C941.2271,-264.7567 956.6083,-254.1158 972,-247.6979 977.0474,-245.5933 982.2591,-243.6523 987.5745,-241.8623"/>
<polygon fill="#000000" stroke="#000000" points="988.7648,-245.1567 997.2413,-238.8006 986.6512,-238.4834 988.7648,-245.1567"/>
</g>
<!-- 140178132618768&#45;&gt;140178131693976 -->
<g id="edge10" class="edge">
<title>140178132618768&#45;&gt;140178131693976</title>
<path fill="none" stroke="#000000" d="M912.2968,-264.8105C918.0322,-230.2586 933.2139,-171.009 972,-139.6979 989.1831,-125.8264 1011.1601,-118.1725 1032.8899,-114.1423"/>
<polygon fill="#000000" stroke="#000000" points="1033.5241,-117.5854 1042.8384,-112.5363 1032.4084,-110.6748 1033.5241,-117.5854"/>
</g>
<!-- 140178132618768&#45;&gt;140178131752216 -->
<g id="edge11" class="edge">
<title>140178132618768&#45;&gt;140178131752216</title>
<path fill="none" stroke="#000000" d="M913.6701,-264.77C922.923,-214.5919 945.04,-109.6905 972,-85.6979 988.254,-71.2328 1009.602,-63.323 1031.0074,-59.2337"/>
<polygon fill="#000000" stroke="#000000" points="1031.8604,-62.6406 1041.1617,-57.5674 1030.7269,-55.733 1031.8604,-62.6406"/>
</g>
<!-- 140178132618768&#45;&gt;140178131752608 -->
<g id="edge12" class="edge">
<title>140178132618768&#45;&gt;140178131752608</title>
<path fill="none" stroke="#000000" d="M915.8923,-317.8238C921.7167,-340.4433 930.0394,-374.0897 936,-403.6979 945.8634,-452.6927 937.0099,-590.0121 972,-625.6979 992.4388,-646.543 1023.2435,-654.3326 1051.4659,-656.4934"/>
<polygon fill="#000000" stroke="#000000" points="1051.5482,-660.0029 1061.7228,-657.0486 1051.9266,-653.0132 1051.5482,-660.0029"/>
</g>
<!-- 140178132618768&#45;&gt;140178131696832 -->
<g id="edge13" class="edge">
<title>140178132618768&#45;&gt;140178131696832</title>
<path fill="none" stroke="#000000" d="M915.5172,-317.9042C921.1071,-340.5741 929.2963,-374.249 936,-403.6979 952.9494,-478.1548 917.1831,-518.5357 972,-571.6979 994.7259,-593.7378 1029.1098,-600.9599 1059.0175,-602.455"/>
<polygon fill="#000000" stroke="#000000" points="1059.2844,-605.9643 1069.3831,-602.7599 1059.4903,-598.9673 1059.2844,-605.9643"/>
</g>
<!-- 140178132618768&#45;&gt;140178131694480 -->
<g id="edge14" class="edge">
<title>140178132618768&#45;&gt;140178131694480</title>
<path fill="none" stroke="#000000" d="M918.516,-266.1162C928.3485,-243.386 945.9486,-211.139 972,-193.6979 974.8215,-191.8089 977.738,-190.0422 980.7328,-188.3902"/>
<polygon fill="#000000" stroke="#000000" points="982.5679,-191.3852 989.9345,-183.7705 979.4272,-185.1293 982.5679,-191.3852"/>
</g>
<!-- 140178132618768&#45;&gt;140178131752496 -->
<g id="edge15" class="edge">
<title>140178132618768&#45;&gt;140178131752496</title>
<path fill="none" stroke="#000000" d="M915.536,-317.9885C930.0857,-376.0842 964.4592,-510.8167 972,-517.6979 992.1869,-536.119 1020.5961,-543.9923 1047.134,-546.8628"/>
<polygon fill="#000000" stroke="#000000" points="1046.9287,-550.358 1057.1923,-547.7295 1047.5297,-543.3838 1046.9287,-550.358"/>
</g>
</g>
</svg>
