<?xml version="1.0" encoding="UTF-8" standalone="no"?>
<!DOCTYPE svg PUBLIC "-//W3C//DTD SVG 1.1//EN"
 "http://www.w3.org/Graphics/SVG/1.1/DTD/svg11.dtd">
<!-- Generated by graphviz version 2.40.1 (20161225.0304)
 -->
<!-- Title: alpha_classic_net_1585321021.8562727 Pages: 1 -->
<svg width="1031pt" height="3887pt"
 viewBox="0.00 0.00 1031.00 3887.00" xmlns="http://www.w3.org/2000/svg" xmlns:xlink="http://www.w3.org/1999/xlink">
<g id="graph0" class="graph" transform="scale(1 1) rotate(0) translate(4 3883)">
<title>alpha_classic_net_1585321021.8562727</title>
<!-- 140531498558520 -->
<g id="node1" class="node">
<title>140531498558520</title>
<polygon fill="none" stroke="#000000" points="675.5,-684 534.5,-684 534.5,-648 675.5,-648 675.5,-684"/>
<text text-anchor="middle" x="605" y="-662.3" font-family="Times,serif" font-size="14.00" fill="#000000">ActionDecoder:decode</text>
</g>
<!-- 140531499984768 -->
<g id="node81" class="node">
<title>140531499984768</title>
<ellipse fill="none" stroke="#000000" cx="816" cy="-342" rx="27" ry="27"/>
<text text-anchor="middle" x="816" y="-338.3" font-family="Times,serif" font-size="14.00" fill="#000000">({&#39;MarketSummaryWebSocket:sendMarketSummary&#39;, &#39;OrdersAlertFilter:destroy&#39;, &#39;new ActionDecoder&#39;, &#39;ActionDecoder:willDecode&#39;, &#39;MarketSummaryWebSocket:onOpen&#39;, &#39;PingServlet:doGet&#39;, &#39;TradeWebContextListener:contextDestroyed&#39;, &#39;OrdersAlertFilter:doFilter&#39;, &#39;MarketSummarySingleton:updateMarketSummary&#39;, &#39;ActionDecoder:decode&#39;, &#39;JSFLoginFilter:destroy&#39;, &#39;PingServlet:init&#39;, &#39;ActionDecoder:init&#39;}, {&#39;Root&#39;})</text>
</g>
<!-- 140531498558520&#45;&gt;140531499984768 -->
<g id="edge2" class="edge">
<title>140531498558520&#45;&gt;140531499984768</title>
<path fill="none" stroke="#000000" d="M675.5396,-669.1084C702.996,-666.6089 732.6773,-658.7501 753,-639 789.6735,-603.3597 806.9467,-451.1178 813.1598,-379.51"/>
<polygon fill="#000000" stroke="#000000" points="816.6809,-379.4041 814.0303,-369.1462 809.7055,-378.8181 816.6809,-379.4041"/>
</g>
<!-- 140531498684824 -->
<g id="node2" class="node">
<title>140531498684824</title>
<polygon fill="none" stroke="#000000" points="665.5,-630 544.5,-630 544.5,-594 665.5,-594 665.5,-630"/>
<text text-anchor="middle" x="605" y="-608.3" font-family="Times,serif" font-size="14.00" fill="#000000">ActionDecoder:init</text>
</g>
<!-- 140531498684824&#45;&gt;140531499984768 -->
<g id="edge3" class="edge">
<title>140531498684824&#45;&gt;140531499984768</title>
<path fill="none" stroke="#000000" d="M665.7508,-615.3423C695.5202,-613.7225 729.85,-606.514 753,-585 782.9525,-557.1642 802.8434,-439.5786 811.3302,-378.7692"/>
<polygon fill="#000000" stroke="#000000" points="814.8044,-379.1953 812.6883,-368.8139 807.8686,-378.249 814.8044,-379.1953"/>
</g>
<!-- 140531498558296 -->
<g id="node3" class="node">
<title>140531498558296</title>
<polygon fill="none" stroke="#000000" points="687.5,-576 522.5,-576 522.5,-540 687.5,-540 687.5,-576"/>
<text text-anchor="middle" x="605" y="-554.3" font-family="Times,serif" font-size="14.00" fill="#000000">ActionDecoder:willDecode</text>
</g>
<!-- 140531498558296&#45;&gt;140531499984768 -->
<g id="edge4" class="edge">
<title>140531498558296&#45;&gt;140531499984768</title>
<path fill="none" stroke="#000000" d="M687.8208,-558.2239C711.1592,-554.4928 735.0491,-546.5781 753,-531 776.2293,-510.8412 797.5892,-427.4725 808.4656,-378.4505"/>
<polygon fill="#000000" stroke="#000000" points="811.9144,-379.0621 810.6243,-368.5461 805.075,-377.5714 811.9144,-379.0621"/>
</g>
<!-- 140531498557848 -->
<g id="node4" class="node">
<title>140531498557848</title>
<polygon fill="none" stroke="#000000" points="296,-423 125,-423 125,-387 296,-387 296,-423"/>
<text text-anchor="middle" x="210.5" y="-401.3" font-family="Times,serif" font-size="14.00" fill="#000000">ActionMessage:doDecoding</text>
</g>
<!-- 140531498561376 -->
<g id="node5" class="node">
<title>140531498561376</title>
<polygon fill="none" stroke="#000000" points="313.5,-477 107.5,-477 107.5,-441 313.5,-441 313.5,-477"/>
<text text-anchor="middle" x="210.5" y="-455.3" font-family="Times,serif" font-size="14.00" fill="#000000">ActionMessage:getDecodedAction</text>
</g>
<!-- 140531498686056 -->
<g id="node6" class="node">
<title>140531498686056</title>
<polygon fill="none" stroke="#000000" points="316,-531 105,-531 105,-495 316,-495 316,-531"/>
<text text-anchor="middle" x="210.5" y="-509.3" font-family="Times,serif" font-size="14.00" fill="#000000">FinancialUtils:computeGainPercent</text>
</g>
<!-- 140531498561488 -->
<g id="node7" class="node">
<title>140531498561488</title>
<polygon fill="none" stroke="#000000" points="676,-522 534,-522 534,-486 676,-486 676,-522"/>
<text text-anchor="middle" x="605" y="-500.3" font-family="Times,serif" font-size="14.00" fill="#000000">JSFLoginFilter:destroy</text>
</g>
<!-- 140531498561488&#45;&gt;140531499984768 -->
<g id="edge5" class="edge">
<title>140531498561488&#45;&gt;140531499984768</title>
<path fill="none" stroke="#000000" d="M676.0706,-504.3895C702.4909,-501.309 731.2897,-493.756 753,-477 784.1803,-452.935 800.5579,-409.7293 808.7104,-378.6708"/>
<polygon fill="#000000" stroke="#000000" points="812.1856,-379.1948 811.1694,-368.6488 805.3873,-377.5267 812.1856,-379.1948"/>
</g>
<!-- 140531498685496 -->
<g id="node8" class="node">
<title>140531498685496</title>
<polygon fill="none" stroke="#000000" points="272,-585 149,-585 149,-549 272,-549 272,-585"/>
<text text-anchor="middle" x="210.5" y="-563.3" font-family="Times,serif" font-size="14.00" fill="#000000">Log:doActionTrace</text>
</g>
<!-- 140531498561040 -->
<g id="node9" class="node">
<title>140531498561040</title>
<polygon fill="none" stroke="#000000" points="253.5,-639 167.5,-639 167.5,-603 253.5,-603 253.5,-639"/>
<text text-anchor="middle" x="210.5" y="-617.3" font-family="Times,serif" font-size="14.00" fill="#000000">Log:doTrace</text>
</g>
<!-- 140531498560984 -->
<g id="node10" class="node">
<title>140531498560984</title>
<polygon fill="none" stroke="#000000" points="273.5,-693 147.5,-693 147.5,-657 273.5,-657 273.5,-693"/>
<text text-anchor="middle" x="210.5" y="-671.3" font-family="Times,serif" font-size="14.00" fill="#000000">Log:getActionTrace</text>
</g>
<!-- 140531498684768 -->
<g id="node11" class="node">
<title>140531498684768</title>
<polygon fill="none" stroke="#000000" points="255,-747 166,-747 166,-711 255,-711 255,-747"/>
<text text-anchor="middle" x="210.5" y="-725.3" font-family="Times,serif" font-size="14.00" fill="#000000">Log:getTrace</text>
</g>
<!-- 140531498688408 -->
<g id="node12" class="node">
<title>140531498688408</title>
<polygon fill="none" stroke="#000000" points="293.5,-801 127.5,-801 127.5,-765 293.5,-765 293.5,-801"/>
<text text-anchor="middle" x="210.5" y="-779.3" font-family="Times,serif" font-size="14.00" fill="#000000">Log:log [overloaded_#001]</text>
</g>
<!-- 140531498560928 -->
<g id="node13" class="node">
<title>140531498560928</title>
<polygon fill="none" stroke="#000000" points="244.5,-855 176.5,-855 176.5,-819 244.5,-819 244.5,-855"/>
<text text-anchor="middle" x="210.5" y="-833.3" font-family="Times,serif" font-size="14.00" fill="#000000">Log:trace</text>
</g>
<!-- 140532448275648 -->
<g id="node14" class="node">
<title>140532448275648</title>
<polygon fill="none" stroke="#000000" points="301.5,-909 119.5,-909 119.5,-873 301.5,-873 301.5,-909"/>
<text text-anchor="middle" x="210.5" y="-887.3" font-family="Times,serif" font-size="14.00" fill="#000000">Log:trace [overloaded_#0011]</text>
</g>
<!-- 140531498685160 -->
<g id="node15" class="node">
<title>140531498685160</title>
<polygon fill="none" stroke="#000000" points="421,-963 0,-963 0,-927 421,-927 421,-963"/>
<text text-anchor="middle" x="210.5" y="-941.3" font-family="Times,serif" font-size="14.00" fill="#000000">MarketSummaryDataBean:MarketSummaryDataBean [overloaded_#002]</text>
</g>
<!-- 140531498685104 -->
<g id="node16" class="node">
<title>140531498685104</title>
<polygon fill="none" stroke="#000000" points="332,-1017 89,-1017 89,-981 332,-981 332,-1017"/>
<text text-anchor="middle" x="210.5" y="-995.3" font-family="Times,serif" font-size="14.00" fill="#000000">MarketSummaryDataBean:getOpenTSIA</text>
</g>
<!-- 140531498561264 -->
<g id="node17" class="node">
<title>140531498561264</title>
<polygon fill="none" stroke="#000000" points="348,-1071 73,-1071 73,-1035 348,-1035 348,-1071"/>
<text text-anchor="middle" x="210.5" y="-1049.3" font-family="Times,serif" font-size="14.00" fill="#000000">MarketSummaryDataBean:getRandomInstance</text>
</g>
<!-- 140531498685384 -->
<g id="node18" class="node">
<title>140531498685384</title>
<polygon fill="none" stroke="#000000" points="317.5,-1125 103.5,-1125 103.5,-1089 317.5,-1089 317.5,-1125"/>
<text text-anchor="middle" x="210.5" y="-1103.3" font-family="Times,serif" font-size="14.00" fill="#000000">MarketSummaryDataBean:getTSIA</text>
</g>
<!-- 140531498558968 -->
<g id="node19" class="node">
<title>140531498558968</title>
<polygon fill="none" stroke="#000000" points="331.5,-1179 89.5,-1179 89.5,-1143 331.5,-1143 331.5,-1179"/>
<text text-anchor="middle" x="210.5" y="-1157.3" font-family="Times,serif" font-size="14.00" fill="#000000">MarketSummaryDataBean:setOpenTSIA</text>
</g>
<!-- 140531498685272 -->
<g id="node20" class="node">
<title>140531498685272</title>
<polygon fill="none" stroke="#000000" points="341.5,-1233 79.5,-1233 79.5,-1197 341.5,-1197 341.5,-1233"/>
<text text-anchor="middle" x="210.5" y="-1211.3" font-family="Times,serif" font-size="14.00" fill="#000000">MarketSummaryDataBean:setSummaryDate</text>
</g>
<!-- 140532448103504 -->
<g id="node21" class="node">
<title>140532448103504</title>
<polygon fill="none" stroke="#000000" points="316.5,-1287 104.5,-1287 104.5,-1251 316.5,-1251 316.5,-1287"/>
<text text-anchor="middle" x="210.5" y="-1265.3" font-family="Times,serif" font-size="14.00" fill="#000000">MarketSummaryDataBean:setTSIA</text>
</g>
<!-- 140531498557568 -->
<g id="node22" class="node">
<title>140531498557568</title>
<polygon fill="none" stroke="#000000" points="333.5,-1341 87.5,-1341 87.5,-1305 333.5,-1305 333.5,-1341"/>
<text text-anchor="middle" x="210.5" y="-1319.3" font-family="Times,serif" font-size="14.00" fill="#000000">MarketSummaryDataBean:setTopGainers</text>
</g>
<!-- 140531498685888 -->
<g id="node23" class="node">
<title>140531498685888</title>
<polygon fill="none" stroke="#000000" points="330.5,-1395 90.5,-1395 90.5,-1359 330.5,-1359 330.5,-1395"/>
<text text-anchor="middle" x="210.5" y="-1373.3" font-family="Times,serif" font-size="14.00" fill="#000000">MarketSummaryDataBean:setTopLosers</text>
</g>
<!-- 140532448287824 -->
<g id="node24" class="node">
<title>140532448287824</title>
<polygon fill="none" stroke="#000000" points="324,-1449 97,-1449 97,-1413 324,-1413 324,-1449"/>
<text text-anchor="middle" x="210.5" y="-1427.3" font-family="Times,serif" font-size="14.00" fill="#000000">MarketSummaryDataBean:setVolume</text>
</g>
<!-- 140531498560424 -->
<g id="node25" class="node">
<title>140531498560424</title>
<polygon fill="none" stroke="#000000" points="315.5,-1503 105.5,-1503 105.5,-1467 315.5,-1467 315.5,-1503"/>
<text text-anchor="middle" x="210.5" y="-1481.3" font-family="Times,serif" font-size="14.00" fill="#000000">MarketSummaryDataBean:toJSON</text>
</g>
<!-- 140531498686000 -->
<g id="node26" class="node">
<title>140531498686000</title>
<polygon fill="none" stroke="#000000" points="375,-1557 46,-1557 46,-1521 375,-1521 375,-1557"/>
<text text-anchor="middle" x="210.5" y="-1535.3" font-family="Times,serif" font-size="14.00" fill="#000000">MarketSummarySingleton:getMarketSummaryDataBean</text>
</g>
<!-- 140531498559472 -->
<g id="node27" class="node">
<title>140531498559472</title>
<polygon fill="none" stroke="#000000" points="374.5,-1611 46.5,-1611 46.5,-1575 374.5,-1575 374.5,-1611"/>
<text text-anchor="middle" x="210.5" y="-1589.3" font-family="Times,serif" font-size="14.00" fill="#000000">MarketSummarySingleton:setMarketSummaryDataBean</text>
</g>
<!-- 140531498685328 -->
<g id="node28" class="node">
<title>140531498685328</title>
<polygon fill="none" stroke="#000000" points="753,-468 457,-468 457,-432 753,-432 753,-468"/>
<text text-anchor="middle" x="605" y="-446.3" font-family="Times,serif" font-size="14.00" fill="#000000">MarketSummarySingleton:updateMarketSummary</text>
</g>
<!-- 140531498685328&#45;&gt;140531499984768 -->
<g id="edge6" class="edge">
<title>140531498685328&#45;&gt;140531499984768</title>
<path fill="none" stroke="#000000" d="M735.4031,-431.9922C741.5124,-429.3675 747.4167,-426.3856 753,-423 772.0691,-411.4368 787.5528,-391.8146 798.3981,-374.7796"/>
<polygon fill="#000000" stroke="#000000" points="801.4326,-376.5257 803.641,-366.1636 795.4527,-372.8868 801.4326,-376.5257"/>
</g>
<!-- 140532447644808 -->
<g id="node29" class="node">
<title>140532447644808</title>
<polygon fill="none" stroke="#000000" points="349,-1665 72,-1665 72,-1629 349,-1629 349,-1665"/>
<text text-anchor="middle" x="210.5" y="-1643.3" font-family="Times,serif" font-size="14.00" fill="#000000">MarketSummaryWebSocket:mergeJsonObjects</text>
</g>
<!-- 140531498561152 -->
<g id="node30" class="node">
<title>140531498561152</title>
<polygon fill="none" stroke="#000000" points="715,-414 495,-414 495,-378 715,-378 715,-414"/>
<text text-anchor="middle" x="605" y="-392.3" font-family="Times,serif" font-size="14.00" fill="#000000">MarketSummaryWebSocket:onOpen</text>
</g>
<!-- 140531498561152&#45;&gt;140531499984768 -->
<g id="edge7" class="edge">
<title>140531498561152&#45;&gt;140531499984768</title>
<path fill="none" stroke="#000000" d="M715.1711,-378.7433C728.026,-375.8937 740.8712,-372.6547 753,-369 762.7246,-366.0697 772.9678,-362.0921 782.3027,-358.0913"/>
<polygon fill="#000000" stroke="#000000" points="783.9151,-361.2052 791.6422,-353.9564 781.0813,-354.8044 783.9151,-361.2052"/>
</g>
<!-- 140531498561320 -->
<g id="node31" class="node">
<title>140531498561320</title>
<polygon fill="none" stroke="#000000" points="753,-360 457,-360 457,-324 753,-324 753,-360"/>
<text text-anchor="middle" x="605" y="-338.3" font-family="Times,serif" font-size="14.00" fill="#000000">MarketSummaryWebSocket:sendMarketSummary</text>
</g>
<!-- 140531498561320&#45;&gt;140531499984768 -->
<g id="edge8" class="edge">
<title>140531498561320&#45;&gt;140531499984768</title>
<path fill="none" stroke="#000000" d="M753.2643,-342C762.4307,-342 771.0786,-342 778.8562,-342"/>
<polygon fill="#000000" stroke="#000000" points="778.8895,-345.5001 788.8894,-342 778.8894,-338.5001 778.8895,-345.5001"/>
</g>
<!-- 140532448275816 -->
<g id="node32" class="node">
<title>140532448275816</title>
<polygon fill="none" stroke="#000000" points="682,-306 528,-306 528,-270 682,-270 682,-306"/>
<text text-anchor="middle" x="605" y="-284.3" font-family="Times,serif" font-size="14.00" fill="#000000">OrdersAlertFilter:destroy</text>
</g>
<!-- 140532448275816&#45;&gt;140531499984768 -->
<g id="edge9" class="edge">
<title>140532448275816&#45;&gt;140531499984768</title>
<path fill="none" stroke="#000000" d="M682.2124,-298.7123C705.2413,-302.8082 730.3679,-308.1804 753,-315 762.7246,-317.9303 772.9678,-321.9079 782.3027,-325.9087"/>
<polygon fill="#000000" stroke="#000000" points="781.0813,-329.1956 791.6422,-330.0436 783.9151,-322.7948 781.0813,-329.1956"/>
</g>
<!-- 140532448284912 -->
<g id="node33" class="node">
<title>140532448284912</title>
<polygon fill="none" stroke="#000000" points="683.5,-252 526.5,-252 526.5,-216 683.5,-216 683.5,-252"/>
<text text-anchor="middle" x="605" y="-230.3" font-family="Times,serif" font-size="14.00" fill="#000000">OrdersAlertFilter:doFilter</text>
</g>
<!-- 140532448284912&#45;&gt;140531499984768 -->
<g id="edge10" class="edge">
<title>140532448284912&#45;&gt;140531499984768</title>
<path fill="none" stroke="#000000" d="M683.7162,-237.643C707.2897,-241.4738 732.3417,-248.4731 753,-261 772.0691,-272.5632 787.5528,-292.1854 798.3981,-309.2204"/>
<polygon fill="#000000" stroke="#000000" points="795.4527,-311.1132 803.641,-317.8364 801.4326,-307.4743 795.4527,-311.1132"/>
</g>
<!-- 140531498685776 -->
<g id="node34" class="node">
<title>140531498685776</title>
<polygon fill="none" stroke="#000000" points="663,-198 547,-198 547,-162 663,-162 663,-198"/>
<text text-anchor="middle" x="605" y="-176.3" font-family="Times,serif" font-size="14.00" fill="#000000">PingServlet:doGet</text>
</g>
<!-- 140531498685776&#45;&gt;140531499984768 -->
<g id="edge11" class="edge">
<title>140531498685776&#45;&gt;140531499984768</title>
<path fill="none" stroke="#000000" d="M663.1025,-178.421C692.6944,-180.4289 727.6713,-187.4513 753,-207 784.1803,-231.065 800.5579,-274.2707 808.7104,-305.3292"/>
<polygon fill="#000000" stroke="#000000" points="805.3873,-306.4733 811.1694,-315.3512 812.1856,-304.8052 805.3873,-306.4733"/>
</g>
<!-- 140531498685832 -->
<g id="node35" class="node">
<title>140531498685832</title>
<polygon fill="none" stroke="#000000" points="655.5,-144 554.5,-144 554.5,-108 655.5,-108 655.5,-144"/>
<text text-anchor="middle" x="605" y="-122.3" font-family="Times,serif" font-size="14.00" fill="#000000">PingServlet:init</text>
</g>
<!-- 140531498685832&#45;&gt;140531499984768 -->
<g id="edge12" class="edge">
<title>140531498685832&#45;&gt;140531499984768</title>
<path fill="none" stroke="#000000" d="M655.7908,-122.9222C687.2558,-123.7385 726.5668,-130.0609 753,-153 776.2293,-173.1588 797.5892,-256.5275 808.4656,-305.5495"/>
<polygon fill="#000000" stroke="#000000" points="805.075,-306.4286 810.6243,-315.4539 811.9144,-304.9379 805.075,-306.4286"/>
</g>
<!-- 140531498684488 -->
<g id="node36" class="node">
<title>140531498684488</title>
<polygon fill="none" stroke="#000000" points="360,-1719 61,-1719 61,-1683 360,-1683 360,-1719"/>
<text text-anchor="middle" x="210.5" y="-1697.3" font-family="Times,serif" font-size="14.00" fill="#000000">QuoteDataBean:QuoteDataBean [overloaded_#001]</text>
</g>
<!-- 140531498684656 -->
<g id="node37" class="node">
<title>140531498684656</title>
<polygon fill="none" stroke="#000000" points="360,-1773 61,-1773 61,-1737 360,-1737 360,-1773"/>
<text text-anchor="middle" x="210.5" y="-1751.3" font-family="Times,serif" font-size="14.00" fill="#000000">QuoteDataBean:QuoteDataBean [overloaded_#002]</text>
</g>
<!-- 140532447644304 -->
<g id="node38" class="node">
<title>140532447644304</title>
<polygon fill="none" stroke="#000000" points="292.5,-1827 128.5,-1827 128.5,-1791 292.5,-1791 292.5,-1827"/>
<text text-anchor="middle" x="210.5" y="-1805.3" font-family="Times,serif" font-size="14.00" fill="#000000">QuoteDataBean:getChange</text>
</g>
<!-- 140531498686280 -->
<g id="node39" class="node">
<title>140531498686280</title>
<polygon fill="none" stroke="#000000" points="286.5,-1881 134.5,-1881 134.5,-1845 286.5,-1845 286.5,-1881"/>
<text text-anchor="middle" x="210.5" y="-1859.3" font-family="Times,serif" font-size="14.00" fill="#000000">QuoteDataBean:getOpen</text>
</g>
<!-- 140531498558632 -->
<g id="node40" class="node">
<title>140531498558632</title>
<polygon fill="none" stroke="#000000" points="286,-1935 135,-1935 135,-1899 286,-1899 286,-1935"/>
<text text-anchor="middle" x="210.5" y="-1913.3" font-family="Times,serif" font-size="14.00" fill="#000000">QuoteDataBean:getPrice</text>
</g>
<!-- 140531498559248 -->
<g id="node41" class="node">
<title>140531498559248</title>
<polygon fill="none" stroke="#000000" points="318,-1989 103,-1989 103,-1953 318,-1953 318,-1989"/>
<text text-anchor="middle" x="210.5" y="-1967.3" font-family="Times,serif" font-size="14.00" fill="#000000">QuoteDataBean:getRandomInstance</text>
</g>
<!-- 140531498557680 -->
<g id="node42" class="node">
<title>140531498557680</title>
<polygon fill="none" stroke="#000000" points="293.5,-2043 127.5,-2043 127.5,-2007 293.5,-2007 293.5,-2043"/>
<text text-anchor="middle" x="210.5" y="-2021.3" font-family="Times,serif" font-size="14.00" fill="#000000">QuoteDataBean:getSymbol</text>
</g>
<!-- 140531498558744 -->
<g id="node43" class="node">
<title>140531498558744</title>
<polygon fill="none" stroke="#000000" points="294,-2097 127,-2097 127,-2061 294,-2061 294,-2097"/>
<text text-anchor="middle" x="210.5" y="-2075.3" font-family="Times,serif" font-size="14.00" fill="#000000">QuoteDataBean:getVolume</text>
</g>
<!-- 140531498685720 -->
<g id="node44" class="node">
<title>140531498685720</title>
<polygon fill="none" stroke="#000000" points="292,-2151 129,-2151 129,-2115 292,-2115 292,-2151"/>
<text text-anchor="middle" x="210.5" y="-2129.3" font-family="Times,serif" font-size="14.00" fill="#000000">QuoteDataBean:setChange</text>
</g>
<!-- 140531498686616 -->
<g id="node45" class="node">
<title>140531498686616</title>
<polygon fill="none" stroke="#000000" points="314.5,-2205 106.5,-2205 106.5,-2169 314.5,-2169 314.5,-2205"/>
<text text-anchor="middle" x="210.5" y="-2183.3" font-family="Times,serif" font-size="14.00" fill="#000000">QuoteDataBean:setCompanyName</text>
</g>
<!-- 140531498684544 -->
<g id="node46" class="node">
<title>140531498684544</title>
<polygon fill="none" stroke="#000000" points="285,-2259 136,-2259 136,-2223 285,-2223 285,-2259"/>
<text text-anchor="middle" x="210.5" y="-2237.3" font-family="Times,serif" font-size="14.00" fill="#000000">QuoteDataBean:setHigh</text>
</g>
<!-- 140531498686560 -->
<g id="node47" class="node">
<title>140531498686560</title>
<polygon fill="none" stroke="#000000" points="283.5,-2313 137.5,-2313 137.5,-2277 283.5,-2277 283.5,-2313"/>
<text text-anchor="middle" x="210.5" y="-2291.3" font-family="Times,serif" font-size="14.00" fill="#000000">QuoteDataBean:setLow</text>
</g>
<!-- 140531498559304 -->
<g id="node48" class="node">
<title>140531498559304</title>
<polygon fill="none" stroke="#000000" points="286,-2367 135,-2367 135,-2331 286,-2331 286,-2367"/>
<text text-anchor="middle" x="210.5" y="-2345.3" font-family="Times,serif" font-size="14.00" fill="#000000">QuoteDataBean:setOpen</text>
</g>
<!-- 140531498686504 -->
<g id="node49" class="node">
<title>140531498686504</title>
<polygon fill="none" stroke="#000000" points="285,-2421 136,-2421 136,-2385 285,-2385 285,-2421"/>
<text text-anchor="middle" x="210.5" y="-2399.3" font-family="Times,serif" font-size="14.00" fill="#000000">QuoteDataBean:setPrice</text>
</g>
<!-- 140531498557512 -->
<g id="node50" class="node">
<title>140531498557512</title>
<polygon fill="none" stroke="#000000" points="292.5,-2475 128.5,-2475 128.5,-2439 292.5,-2439 292.5,-2475"/>
<text text-anchor="middle" x="210.5" y="-2453.3" font-family="Times,serif" font-size="14.00" fill="#000000">QuoteDataBean:setSymbol</text>
</g>
<!-- 140531498559080 -->
<g id="node51" class="node">
<title>140531498559080</title>
<polygon fill="none" stroke="#000000" points="293.5,-2529 127.5,-2529 127.5,-2493 293.5,-2493 293.5,-2529"/>
<text text-anchor="middle" x="210.5" y="-2507.3" font-family="Times,serif" font-size="14.00" fill="#000000">QuoteDataBean:setVolume</text>
</g>
<!-- 140531498686224 -->
<g id="node52" class="node">
<title>140531498686224</title>
<polygon fill="none" stroke="#000000" points="309,-2583 112,-2583 112,-2547 309,-2547 309,-2583"/>
<text text-anchor="middle" x="210.5" y="-2561.3" font-family="Times,serif" font-size="14.00" fill="#000000">RecentStockChangeList:isEmpty</text>
</g>
<!-- 140531498560368 -->
<g id="node53" class="node">
<title>140531498560368</title>
<polygon fill="none" stroke="#000000" points="345,-2637 76,-2637 76,-2601 345,-2601 345,-2637"/>
<text text-anchor="middle" x="210.5" y="-2615.3" font-family="Times,serif" font-size="14.00" fill="#000000">RecentStockChangeList:stockChangesInJSON</text>
</g>
<!-- 140531498685552 -->
<g id="node54" class="node">
<title>140531498685552</title>
<polygon fill="none" stroke="#000000" points="933,-360 879,-360 879,-324 933,-324 933,-360"/>
<text text-anchor="middle" x="906" y="-338.3" font-family="Times,serif" font-size="14.00" fill="#000000">Root</text>
</g>
<!-- 140531499984936 -->
<g id="node82" class="node">
<title>140531499984936</title>
<ellipse fill="#ffa500" stroke="#000000" cx="996" cy="-342" rx="27" ry="27"/>
</g>
<!-- 140531498685552&#45;&gt;140531499984936 -->
<g id="edge13" class="edge">
<title>140531498685552&#45;&gt;140531499984936</title>
<path fill="none" stroke="#000000" d="M933.003,-342C941.0277,-342 949.9665,-342 958.5309,-342"/>
<polygon fill="#000000" stroke="#000000" points="958.7051,-345.5001 968.705,-342 958.705,-338.5001 958.7051,-345.5001"/>
</g>
<!-- 140531498559024 -->
<g id="node55" class="node">
<title>140531498559024</title>
<polygon fill="none" stroke="#000000" points="342,-2691 79,-2691 79,-2655 342,-2655 342,-2691"/>
<text text-anchor="middle" x="210.5" y="-2669.3" font-family="Times,serif" font-size="14.00" fill="#000000">TradeAction:TradeAction [overloaded_#001]</text>
</g>
<!-- 140531498561208 -->
<g id="node56" class="node">
<title>140531498561208</title>
<polygon fill="none" stroke="#000000" points="286.5,-2745 134.5,-2745 134.5,-2709 286.5,-2709 286.5,-2745"/>
<text text-anchor="middle" x="210.5" y="-2723.3" font-family="Times,serif" font-size="14.00" fill="#000000">TradeAction:createTrade</text>
</g>
<!-- 140531498561432 -->
<g id="node57" class="node">
<title>140531498561432</title>
<polygon fill="none" stroke="#000000" points="310,-2799 111,-2799 111,-2763 310,-2763 310,-2799"/>
<text text-anchor="middle" x="210.5" y="-2777.3" font-family="Times,serif" font-size="14.00" fill="#000000">TradeAction:getMarketSummary</text>
</g>
<!-- 140531498684992 -->
<g id="node58" class="node">
<title>140531498684992</title>
<polygon fill="none" stroke="#000000" points="283.5,-2853 137.5,-2853 137.5,-2817 283.5,-2817 283.5,-2853"/>
<text text-anchor="middle" x="210.5" y="-2831.3" font-family="Times,serif" font-size="14.00" fill="#000000">TradeAppServlet:doGet</text>
</g>
<!-- 140531498684712 -->
<g id="node59" class="node">
<title>140531498684712</title>
<polygon fill="none" stroke="#000000" points="276,-2907 145,-2907 145,-2871 276,-2871 276,-2907"/>
<text text-anchor="middle" x="210.5" y="-2885.3" font-family="Times,serif" font-size="14.00" fill="#000000">TradeAppServlet:init</text>
</g>
<!-- 140531498685664 -->
<g id="node60" class="node">
<title>140531498685664</title>
<polygon fill="none" stroke="#000000" points="302.5,-2961 118.5,-2961 118.5,-2925 302.5,-2925 302.5,-2961"/>
<text text-anchor="middle" x="210.5" y="-2939.3" font-family="Times,serif" font-size="14.00" fill="#000000">TradeAppServlet:performTask</text>
</g>
<!-- 140531498557792 -->
<g id="node61" class="node">
<title>140531498557792</title>
<polygon fill="none" stroke="#000000" points="297,-3015 124,-3015 124,-2979 297,-2979 297,-3015"/>
<text text-anchor="middle" x="210.5" y="-2993.3" font-family="Times,serif" font-size="14.00" fill="#000000">TradeConfig:getActionTrace</text>
</g>
<!-- 140531498685440 -->
<g id="node62" class="node">
<title>140531498685440</title>
<polygon fill="none" stroke="#000000" points="316.5,-3069 104.5,-3069 104.5,-3033 316.5,-3033 316.5,-3069"/>
<text text-anchor="middle" x="210.5" y="-3047.3" font-family="Times,serif" font-size="14.00" fill="#000000">TradeConfig:getDisplayOrderAlerts</text>
</g>
<!-- 140531498685048 -->
<g id="node63" class="node">
<title>140531498685048</title>
<polygon fill="none" stroke="#000000" points="276.5,-3123 144.5,-3123 144.5,-3087 276.5,-3087 276.5,-3123"/>
<text text-anchor="middle" x="210.5" y="-3101.3" font-family="Times,serif" font-size="14.00" fill="#000000">TradeConfig:getPage</text>
</g>
<!-- 140531498685216 -->
<g id="node64" class="node">
<title>140531498685216</title>
<polygon fill="none" stroke="#000000" points="305.5,-3177 115.5,-3177 115.5,-3141 305.5,-3141 305.5,-3177"/>
<text text-anchor="middle" x="210.5" y="-3155.3" font-family="Times,serif" font-size="14.00" fill="#000000">TradeConfig:getRunTimeMode</text>
</g>
<!-- 140531498560592 -->
<g id="node65" class="node">
<title>140531498560592</title>
<polygon fill="none" stroke="#000000" points="279,-3231 142,-3231 142,-3195 279,-3195 279,-3231"/>
<text text-anchor="middle" x="210.5" y="-3209.3" font-family="Times,serif" font-size="14.00" fill="#000000">TradeConfig:getTrace</text>
</g>
<!-- 140531498560704 -->
<g id="node66" class="node">
<title>140531498560704</title>
<polygon fill="none" stroke="#000000" points="276,-3285 145,-3285 145,-3249 276,-3249 276,-3285"/>
<text text-anchor="middle" x="210.5" y="-3263.3" font-family="Times,serif" font-size="14.00" fill="#000000">TradeConfig:random</text>
</g>
<!-- 140531498558016 -->
<g id="node67" class="node">
<title>140531498558016</title>
<polygon fill="none" stroke="#000000" points="297,-3339 124,-3339 124,-3303 297,-3303 297,-3339"/>
<text text-anchor="middle" x="210.5" y="-3317.3" font-family="Times,serif" font-size="14.00" fill="#000000">TradeConfig:rndBigDecimal</text>
</g>
<!-- 140531498686392 -->
<g id="node68" class="node">
<title>140531498686392</title>
<polygon fill="none" stroke="#000000" points="278,-3393 143,-3393 143,-3357 278,-3357 278,-3393"/>
<text text-anchor="middle" x="210.5" y="-3371.3" font-family="Times,serif" font-size="14.00" fill="#000000">TradeConfig:rndFloat</text>
</g>
<!-- 140531498561096 -->
<g id="node69" class="node">
<title>140531498561096</title>
<polygon fill="none" stroke="#000000" points="271.5,-3447 149.5,-3447 149.5,-3411 271.5,-3411 271.5,-3447"/>
<text text-anchor="middle" x="210.5" y="-3425.3" font-family="Times,serif" font-size="14.00" fill="#000000">TradeConfig:rndInt</text>
</g>
<!-- 140531498557960 -->
<g id="node70" class="node">
<title>140531498557960</title>
<polygon fill="none" stroke="#000000" points="288,-3501 133,-3501 133,-3465 288,-3465 288,-3501"/>
<text text-anchor="middle" x="210.5" y="-3479.3" font-family="Times,serif" font-size="14.00" fill="#000000">TradeConfig:rndQuantity</text>
</g>
<!-- 140531498684880 -->
<g id="node71" class="node">
<title>140531498684880</title>
<polygon fill="none" stroke="#000000" points="285.5,-3555 135.5,-3555 135.5,-3519 285.5,-3519 285.5,-3555"/>
<text text-anchor="middle" x="210.5" y="-3533.3" font-family="Times,serif" font-size="14.00" fill="#000000">TradeConfig:rndSymbol</text>
</g>
<!-- 140531498559136 -->
<g id="node72" class="node">
<title>140531498559136</title>
<polygon fill="none" stroke="#000000" points="321,-3609 100,-3609 100,-3573 321,-3573 321,-3609"/>
<text text-anchor="middle" x="210.5" y="-3587.3" font-family="Times,serif" font-size="14.00" fill="#000000">TradeConfig:useRemoteEJBInterface</text>
</g>
<!-- 140531498685944 -->
<g id="node73" class="node">
<title>140531498685944</title>
<polygon fill="none" stroke="#000000" points="321.5,-3663 99.5,-3663 99.5,-3627 321.5,-3627 321.5,-3663"/>
<text text-anchor="middle" x="210.5" y="-3641.3" font-family="Times,serif" font-size="14.00" fill="#000000">TradeSLSBBean:getMarketSummary</text>
</g>
<!-- 140531498557904 -->
<g id="node74" class="node">
<title>140531498557904</title>
<polygon fill="none" stroke="#000000" points="307.5,-3717 113.5,-3717 113.5,-3681 307.5,-3681 307.5,-3717"/>
<text text-anchor="middle" x="210.5" y="-3695.3" font-family="Times,serif" font-size="14.00" fill="#000000">TradeServletAction:doWelcome</text>
</g>
<!-- 140531498684600 -->
<g id="node75" class="node">
<title>140531498684600</title>
<polygon fill="none" stroke="#000000" points="317.5,-3771 103.5,-3771 103.5,-3735 317.5,-3735 317.5,-3771"/>
<text text-anchor="middle" x="210.5" y="-3749.3" font-family="Times,serif" font-size="14.00" fill="#000000">TradeServletAction:requestDispatch</text>
</g>
<!-- 140532448367840 -->
<g id="node76" class="node">
<title>140532448367840</title>
<polygon fill="none" stroke="#000000" points="735,-90 475,-90 475,-54 735,-54 735,-90"/>
<text text-anchor="middle" x="605" y="-68.3" font-family="Times,serif" font-size="14.00" fill="#000000">TradeWebContextListener:contextDestroyed</text>
</g>
<!-- 140532448367840&#45;&gt;140531499984768 -->
<g id="edge14" class="edge">
<title>140532448367840&#45;&gt;140531499984768</title>
<path fill="none" stroke="#000000" d="M735.328,-86.2548C741.6873,-89.8091 747.643,-94.0216 753,-99 782.9525,-126.8358 802.8434,-244.4214 811.3302,-305.2308"/>
<polygon fill="#000000" stroke="#000000" points="807.8686,-305.751 812.6883,-315.1861 814.8044,-304.8047 807.8686,-305.751"/>
</g>
<!-- 140532448368064 -->
<g id="node77" class="node">
<title>140532448368064</title>
<polygon fill="none" stroke="#000000" points="667.5,-36 542.5,-36 542.5,0 667.5,0 667.5,-36"/>
<text text-anchor="middle" x="605" y="-14.3" font-family="Times,serif" font-size="14.00" fill="#000000">new ActionDecoder</text>
</g>
<!-- 140532448368064&#45;&gt;140531499984768 -->
<g id="edge15" class="edge">
<title>140532448368064&#45;&gt;140531499984768</title>
<path fill="none" stroke="#000000" d="M667.6413,-14.3105C697.1636,-15.9814 730.7106,-23.3386 753,-45 789.6735,-80.6403 806.9467,-232.8822 813.1598,-304.49"/>
<polygon fill="#000000" stroke="#000000" points="809.7055,-305.1819 814.0303,-314.8538 816.6809,-304.5959 809.7055,-305.1819"/>
</g>
<!-- 140531498685608 -->
<g id="node78" class="node">
<title>140531498685608</title>
<polygon fill="none" stroke="#000000" points="274.5,-3825 146.5,-3825 146.5,-3789 274.5,-3789 274.5,-3825"/>
<text text-anchor="middle" x="210.5" y="-3803.3" font-family="Times,serif" font-size="14.00" fill="#000000">new ActionMessage</text>
</g>
<!-- 140531498557736 -->
<g id="node79" class="node">
<title>140531498557736</title>
<polygon fill="none" stroke="#000000" points="266,-3879 155,-3879 155,-3843 266,-3843 266,-3879"/>
<text text-anchor="middle" x="210.5" y="-3857.3" font-family="Times,serif" font-size="14.00" fill="#000000">new TradeAction</text>
</g>
<!-- 140531498557624 -->
<g id="node80" class="node">
<title>140531498557624</title>
<ellipse fill="#00ff00" stroke="#000000" cx="210.5" cy="-342" rx="27" ry="27"/>
<text text-anchor="middle" x="210.5" y="-338.3" font-family="Times,serif" font-size="14.00" fill="#000000">1</text>
</g>
<!-- 140531498557624&#45;&gt;140531498558520 -->
<g id="edge16" class="edge">
<title>140531498557624&#45;&gt;140531498558520</title>
<path fill="none" stroke="#000000" d="M237.2622,-337.6256C282.2014,-331.9604 372.6447,-328.0562 421,-378 502.4523,-462.128 376.0144,-554.4226 457,-639 474.3051,-657.0726 499.3846,-665.4001 523.9962,-668.7451"/>
<polygon fill="#000000" stroke="#000000" points="523.7986,-672.2443 534.1208,-669.8564 524.5625,-665.2861 523.7986,-672.2443"/>
</g>
<!-- 140531498557624&#45;&gt;140531498684824 -->
<g id="edge17" class="edge">
<title>140531498557624&#45;&gt;140531498684824</title>
<path fill="none" stroke="#000000" d="M237.4337,-337.7666C282.2159,-332.4006 371.9064,-329.044 421,-378 487.1229,-443.9375 391.2429,-518.6977 457,-585 476.9842,-605.1499 506.6662,-613.0591 534.2137,-615.4883"/>
<polygon fill="#000000" stroke="#000000" points="534.0361,-618.9841 544.2442,-616.1479 534.4954,-611.9992 534.0361,-618.9841"/>
</g>
<!-- 140531498557624&#45;&gt;140531498558296 -->
<g id="edge18" class="edge">
<title>140531498557624&#45;&gt;140531498558296</title>
<path fill="none" stroke="#000000" d="M237.4806,-338.047C281.9261,-333.1774 370.6212,-330.6378 421,-378 471.8967,-425.849 406.3688,-482.8701 457,-531 472.0481,-545.3047 492.021,-553.329 512.4094,-557.5941"/>
<polygon fill="#000000" stroke="#000000" points="511.9702,-561.0712 522.4319,-559.3969 513.2095,-554.1817 511.9702,-561.0712"/>
</g>
<!-- 140531498557624&#45;&gt;140531498561488 -->
<g id="edge19" class="edge">
<title>140531498557624&#45;&gt;140531498561488</title>
<path fill="none" stroke="#000000" d="M237.5888,-338.6579C281.3982,-334.8195 368.2078,-333.92 421,-378 456.9382,-408.0074 421.2283,-446.7942 457,-477 475.5089,-492.629 500.0333,-500.4773 523.7847,-504.1312"/>
<polygon fill="#000000" stroke="#000000" points="523.5279,-507.6273 533.8967,-505.4508 524.4337,-500.6861 523.5279,-507.6273"/>
</g>
<!-- 140531498557624&#45;&gt;140531498685328 -->
<g id="edge20" class="edge">
<title>140531498557624&#45;&gt;140531498685328</title>
<path fill="none" stroke="#000000" d="M237.4848,-340.7128C279.6505,-339.9323 362.3935,-343.4471 421,-378 443.0634,-391.008 435.009,-409.8701 457,-423 459.7156,-424.6214 462.5054,-426.1497 465.3564,-427.5903"/>
<polygon fill="#000000" stroke="#000000" points="464.1084,-430.8695 474.6532,-431.8986 467.0517,-424.5183 464.1084,-430.8695"/>
</g>
<!-- 140531498557624&#45;&gt;140531498561152 -->
<g id="edge21" class="edge">
<title>140531498557624&#45;&gt;140531498561152</title>
<path fill="none" stroke="#000000" d="M237.3054,-345.6692C287.401,-352.5264 398.0119,-367.667 484.9072,-379.5614"/>
<polygon fill="#000000" stroke="#000000" points="484.4612,-383.0329 494.8435,-380.9215 485.4105,-376.0976 484.4612,-383.0329"/>
</g>
<!-- 140531498557624&#45;&gt;140531498561320 -->
<g id="edge22" class="edge">
<title>140531498557624&#45;&gt;140531498561320</title>
<path fill="none" stroke="#000000" d="M237.6156,-342C280.686,-342 367.9212,-342 446.5792,-342"/>
<polygon fill="#000000" stroke="#000000" points="446.6206,-345.5001 456.6205,-342 446.6205,-338.5001 446.6206,-345.5001"/>
</g>
<!-- 140531498557624&#45;&gt;140532448275816 -->
<g id="edge23" class="edge">
<title>140531498557624&#45;&gt;140532448275816</title>
<path fill="none" stroke="#000000" d="M237.3054,-338.3308C293.9969,-330.5708 428.1885,-312.2023 517.8052,-299.9354"/>
<polygon fill="#000000" stroke="#000000" points="518.528,-303.3692 527.961,-298.5453 517.5787,-296.4339 518.528,-303.3692"/>
</g>
<!-- 140531498557624&#45;&gt;140532448284912 -->
<g id="edge24" class="edge">
<title>140531498557624&#45;&gt;140532448284912</title>
<path fill="none" stroke="#000000" d="M236.064,-332.3078C280.458,-315.7695 374.9239,-281.8671 457,-261 476.0561,-256.1551 496.7031,-251.8249 516.3573,-248.1255"/>
<polygon fill="#000000" stroke="#000000" points="517.0229,-251.5619 526.2216,-246.3051 515.7524,-244.6781 517.0229,-251.5619"/>
</g>
<!-- 140531498557624&#45;&gt;140531498685776 -->
<g id="edge25" class="edge">
<title>140531498557624&#45;&gt;140531498685776</title>
<path fill="none" stroke="#000000" d="M232.7873,-326.5556C274.688,-298.2777 368.934,-238.2265 457,-207 482.4265,-197.9843 511.4282,-191.8484 536.9808,-187.7362"/>
<polygon fill="#000000" stroke="#000000" points="537.6053,-191.1814 546.9579,-186.2035 536.5424,-184.2626 537.6053,-191.1814"/>
</g>
<!-- 140531498557624&#45;&gt;140531498685832 -->
<g id="edge26" class="edge">
<title>140531498557624&#45;&gt;140531498685832</title>
<path fill="none" stroke="#000000" d="M229.4426,-322.1802C268.1632,-282.9709 360.8663,-195.6182 457,-153 484.2066,-140.9387 516.5141,-134.2653 543.992,-130.573"/>
<polygon fill="#000000" stroke="#000000" points="544.7728,-134.003 554.266,-129.2988 543.9112,-127.0563 544.7728,-134.003"/>
</g>
<!-- 140531498557624&#45;&gt;140532448367840 -->
<g id="edge27" class="edge">
<title>140531498557624&#45;&gt;140532448367840</title>
<path fill="none" stroke="#000000" d="M225.9382,-319.4267C260.7979,-270.3963 350.8921,-154.153 457,-99 460.5486,-97.1555 464.2023,-95.435 467.9357,-93.8304"/>
<polygon fill="#000000" stroke="#000000" points="469.3698,-97.0266 477.3656,-90.0755 466.7802,-90.5232 469.3698,-97.0266"/>
</g>
<!-- 140531498557624&#45;&gt;140532448368064 -->
<g id="edge28" class="edge">
<title>140531498557624&#45;&gt;140532448368064</title>
<path fill="none" stroke="#000000" d="M222.7235,-317.912C253.3831,-260.1904 339.5834,-113.6779 457,-45 479.4901,-31.8454 506.9256,-24.8429 532.0373,-21.1954"/>
<polygon fill="#000000" stroke="#000000" points="532.7975,-24.6263 542.2655,-19.8716 531.8989,-17.6842 532.7975,-24.6263"/>
</g>
<!-- 140531499984768&#45;&gt;140531498685552 -->
<g id="edge1" class="edge">
<title>140531499984768&#45;&gt;140531498685552</title>
<path fill="none" stroke="#000000" d="M843.003,-342C851.0277,-342 859.9665,-342 868.5309,-342"/>
<polygon fill="#000000" stroke="#000000" points="868.7051,-345.5001 878.705,-342 868.705,-338.5001 868.7051,-345.5001"/>
</g>
</g>
</svg>
