<?xml version="1.0" encoding="UTF-8" standalone="no"?>
<!DOCTYPE svg PUBLIC "-//W3C//DTD SVG 1.1//EN"
 "http://www.w3.org/Graphics/SVG/1.1/DTD/svg11.dtd">
<!-- Generated by graphviz version 2.40.1 (20161225.0304)
 -->
<!-- Title: alpha_classic_net_1585315465.686796 Pages: 1 -->
<svg width="1031pt" height="3779pt"
 viewBox="0.00 0.00 1031.00 3779.00" xmlns="http://www.w3.org/2000/svg" xmlns:xlink="http://www.w3.org/1999/xlink">
<g id="graph0" class="graph" transform="scale(1 1) rotate(0) translate(4 3775)">
<title>alpha_classic_net_1585315465.686796</title>
<!-- 140178131751376 -->
<g id="node1" class="node">
<title>140178131751376</title>
<polygon fill="none" stroke="#000000" points="675.5,-684 534.5,-684 534.5,-648 675.5,-648 675.5,-684"/>
<text text-anchor="middle" x="605" y="-662.3" font-family="Times,serif" font-size="14.00" fill="#000000">ActionDecoder:decode</text>
</g>
<!-- 140178131752104 -->
<g id="node79" class="node">
<title>140178131752104</title>
<ellipse fill="none" stroke="#000000" cx="816" cy="-342" rx="27" ry="27"/>
<text text-anchor="middle" x="816" y="-338.3" font-family="Times,serif" font-size="14.00" fill="#000000">({&#39;PingServlet:doGet&#39;, &#39;ActionDecoder:decode&#39;, &#39;OrdersAlertFilter:doFilter&#39;, &#39;ActionDecoder:init&#39;, &#39;PingServlet:init&#39;, &#39;MarketSummaryWebSocket:onOpen&#39;, &#39;JSFLoginFilter:destroy&#39;, &#39;OrdersAlertFilter:destroy&#39;, &#39;MarketSummarySingleton:updateMarketSummary&#39;, &#39;TradeWebContextListener:contextDestroyed&#39;, &#39;new ActionDecoder&#39;, &#39;ActionDecoder:willDecode&#39;, &#39;MarketSummaryWebSocket:sendMarketSummary&#39;}, {&#39;Root&#39;})</text>
</g>
<!-- 140178131751376&#45;&gt;140178131752104 -->
<g id="edge2" class="edge">
<title>140178131751376&#45;&gt;140178131752104</title>
<path fill="none" stroke="#000000" d="M675.5396,-669.1084C702.996,-666.6089 732.6773,-658.7501 753,-639 789.6735,-603.3597 806.9467,-451.1178 813.1598,-379.51"/>
<polygon fill="#000000" stroke="#000000" points="816.6809,-379.4041 814.0303,-369.1462 809.7055,-378.8181 816.6809,-379.4041"/>
</g>
<!-- 140178131697616 -->
<g id="node2" class="node">
<title>140178131697616</title>
<polygon fill="none" stroke="#000000" points="665.5,-630 544.5,-630 544.5,-594 665.5,-594 665.5,-630"/>
<text text-anchor="middle" x="605" y="-608.3" font-family="Times,serif" font-size="14.00" fill="#000000">ActionDecoder:init</text>
</g>
<!-- 140178131697616&#45;&gt;140178131752104 -->
<g id="edge3" class="edge">
<title>140178131697616&#45;&gt;140178131752104</title>
<path fill="none" stroke="#000000" d="M665.7508,-615.3423C695.5202,-613.7225 729.85,-606.514 753,-585 782.9525,-557.1642 802.8434,-439.5786 811.3302,-378.7692"/>
<polygon fill="#000000" stroke="#000000" points="814.8044,-379.1953 812.6883,-368.8139 807.8686,-378.249 814.8044,-379.1953"/>
</g>
<!-- 140178131695208 -->
<g id="node3" class="node">
<title>140178131695208</title>
<polygon fill="none" stroke="#000000" points="687.5,-576 522.5,-576 522.5,-540 687.5,-540 687.5,-576"/>
<text text-anchor="middle" x="605" y="-554.3" font-family="Times,serif" font-size="14.00" fill="#000000">ActionDecoder:willDecode</text>
</g>
<!-- 140178131695208&#45;&gt;140178131752104 -->
<g id="edge4" class="edge">
<title>140178131695208&#45;&gt;140178131752104</title>
<path fill="none" stroke="#000000" d="M687.8208,-558.2239C711.1592,-554.4928 735.0491,-546.5781 753,-531 776.2293,-510.8412 797.5892,-427.4725 808.4656,-378.4505"/>
<polygon fill="#000000" stroke="#000000" points="811.9144,-379.0621 810.6243,-368.5461 805.075,-377.5714 811.9144,-379.0621"/>
</g>
<!-- 140178131754064 -->
<g id="node4" class="node">
<title>140178131754064</title>
<polygon fill="none" stroke="#000000" points="296,-423 125,-423 125,-387 296,-387 296,-423"/>
<text text-anchor="middle" x="210.5" y="-401.3" font-family="Times,serif" font-size="14.00" fill="#000000">ActionMessage:doDecoding</text>
</g>
<!-- 140178131754624 -->
<g id="node5" class="node">
<title>140178131754624</title>
<polygon fill="none" stroke="#000000" points="313.5,-477 107.5,-477 107.5,-441 313.5,-441 313.5,-477"/>
<text text-anchor="middle" x="210.5" y="-455.3" font-family="Times,serif" font-size="14.00" fill="#000000">ActionMessage:getDecodedAction</text>
</g>
<!-- 140178131750984 -->
<g id="node6" class="node">
<title>140178131750984</title>
<polygon fill="none" stroke="#000000" points="316,-531 105,-531 105,-495 316,-495 316,-531"/>
<text text-anchor="middle" x="210.5" y="-509.3" font-family="Times,serif" font-size="14.00" fill="#000000">FinancialUtils:computeGainPercent</text>
</g>
<!-- 140178131752720 -->
<g id="node7" class="node">
<title>140178131752720</title>
<polygon fill="none" stroke="#000000" points="676,-522 534,-522 534,-486 676,-486 676,-522"/>
<text text-anchor="middle" x="605" y="-500.3" font-family="Times,serif" font-size="14.00" fill="#000000">JSFLoginFilter:destroy</text>
</g>
<!-- 140178131752720&#45;&gt;140178131752104 -->
<g id="edge5" class="edge">
<title>140178131752720&#45;&gt;140178131752104</title>
<path fill="none" stroke="#000000" d="M676.0706,-504.3895C702.4909,-501.309 731.2897,-493.756 753,-477 784.1803,-452.935 800.5579,-409.7293 808.7104,-378.6708"/>
<polygon fill="#000000" stroke="#000000" points="812.1856,-379.1948 811.1694,-368.6488 805.3873,-377.5267 812.1856,-379.1948"/>
</g>
<!-- 140178131753224 -->
<g id="node8" class="node">
<title>140178131753224</title>
<polygon fill="none" stroke="#000000" points="272,-585 149,-585 149,-549 272,-549 272,-585"/>
<text text-anchor="middle" x="210.5" y="-563.3" font-family="Times,serif" font-size="14.00" fill="#000000">Log:doActionTrace</text>
</g>
<!-- 140178131754848 -->
<g id="node9" class="node">
<title>140178131754848</title>
<polygon fill="none" stroke="#000000" points="253.5,-639 167.5,-639 167.5,-603 253.5,-603 253.5,-639"/>
<text text-anchor="middle" x="210.5" y="-617.3" font-family="Times,serif" font-size="14.00" fill="#000000">Log:doTrace</text>
</g>
<!-- 140178131696776 -->
<g id="node10" class="node">
<title>140178131696776</title>
<polygon fill="none" stroke="#000000" points="273.5,-693 147.5,-693 147.5,-657 273.5,-657 273.5,-693"/>
<text text-anchor="middle" x="210.5" y="-671.3" font-family="Times,serif" font-size="14.00" fill="#000000">Log:getActionTrace</text>
</g>
<!-- 140178131752552 -->
<g id="node11" class="node">
<title>140178131752552</title>
<polygon fill="none" stroke="#000000" points="255,-747 166,-747 166,-711 255,-711 255,-747"/>
<text text-anchor="middle" x="210.5" y="-725.3" font-family="Times,serif" font-size="14.00" fill="#000000">Log:getTrace</text>
</g>
<!-- 140178131751656 -->
<g id="node12" class="node">
<title>140178131751656</title>
<polygon fill="none" stroke="#000000" points="293.5,-801 127.5,-801 127.5,-765 293.5,-765 293.5,-801"/>
<text text-anchor="middle" x="210.5" y="-779.3" font-family="Times,serif" font-size="14.00" fill="#000000">Log:log [overloaded_#001]</text>
</g>
<!-- 140178131753504 -->
<g id="node13" class="node">
<title>140178131753504</title>
<polygon fill="none" stroke="#000000" points="301.5,-855 119.5,-855 119.5,-819 301.5,-819 301.5,-855"/>
<text text-anchor="middle" x="210.5" y="-833.3" font-family="Times,serif" font-size="14.00" fill="#000000">Log:trace [overloaded_#0011]</text>
</g>
<!-- 140178131751488 -->
<g id="node14" class="node">
<title>140178131751488</title>
<polygon fill="none" stroke="#000000" points="421,-909 0,-909 0,-873 421,-873 421,-909"/>
<text text-anchor="middle" x="210.5" y="-887.3" font-family="Times,serif" font-size="14.00" fill="#000000">MarketSummaryDataBean:MarketSummaryDataBean [overloaded_#002]</text>
</g>
<!-- 140178131752832 -->
<g id="node15" class="node">
<title>140178131752832</title>
<polygon fill="none" stroke="#000000" points="332,-963 89,-963 89,-927 332,-927 332,-963"/>
<text text-anchor="middle" x="210.5" y="-941.3" font-family="Times,serif" font-size="14.00" fill="#000000">MarketSummaryDataBean:getOpenTSIA</text>
</g>
<!-- 140178131753896 -->
<g id="node16" class="node">
<title>140178131753896</title>
<polygon fill="none" stroke="#000000" points="348,-1017 73,-1017 73,-981 348,-981 348,-1017"/>
<text text-anchor="middle" x="210.5" y="-995.3" font-family="Times,serif" font-size="14.00" fill="#000000">MarketSummaryDataBean:getRandomInstance</text>
</g>
<!-- 140178131753000 -->
<g id="node17" class="node">
<title>140178131753000</title>
<polygon fill="none" stroke="#000000" points="317.5,-1071 103.5,-1071 103.5,-1035 317.5,-1035 317.5,-1071"/>
<text text-anchor="middle" x="210.5" y="-1049.3" font-family="Times,serif" font-size="14.00" fill="#000000">MarketSummaryDataBean:getTSIA</text>
</g>
<!-- 140178131751880 -->
<g id="node18" class="node">
<title>140178131751880</title>
<polygon fill="none" stroke="#000000" points="331.5,-1125 89.5,-1125 89.5,-1089 331.5,-1089 331.5,-1125"/>
<text text-anchor="middle" x="210.5" y="-1103.3" font-family="Times,serif" font-size="14.00" fill="#000000">MarketSummaryDataBean:setOpenTSIA</text>
</g>
<!-- 140178131751264 -->
<g id="node19" class="node">
<title>140178131751264</title>
<polygon fill="none" stroke="#000000" points="341.5,-1179 79.5,-1179 79.5,-1143 341.5,-1143 341.5,-1179"/>
<text text-anchor="middle" x="210.5" y="-1157.3" font-family="Times,serif" font-size="14.00" fill="#000000">MarketSummaryDataBean:setSummaryDate</text>
</g>
<!-- 140178131751768 -->
<g id="node20" class="node">
<title>140178131751768</title>
<polygon fill="none" stroke="#000000" points="316.5,-1233 104.5,-1233 104.5,-1197 316.5,-1197 316.5,-1233"/>
<text text-anchor="middle" x="210.5" y="-1211.3" font-family="Times,serif" font-size="14.00" fill="#000000">MarketSummaryDataBean:setTSIA</text>
</g>
<!-- 140178131751152 -->
<g id="node21" class="node">
<title>140178131751152</title>
<polygon fill="none" stroke="#000000" points="333.5,-1287 87.5,-1287 87.5,-1251 333.5,-1251 333.5,-1287"/>
<text text-anchor="middle" x="210.5" y="-1265.3" font-family="Times,serif" font-size="14.00" fill="#000000">MarketSummaryDataBean:setTopGainers</text>
</g>
<!-- 140178131754568 -->
<g id="node22" class="node">
<title>140178131754568</title>
<polygon fill="none" stroke="#000000" points="330.5,-1341 90.5,-1341 90.5,-1305 330.5,-1305 330.5,-1341"/>
<text text-anchor="middle" x="210.5" y="-1319.3" font-family="Times,serif" font-size="14.00" fill="#000000">MarketSummaryDataBean:setTopLosers</text>
</g>
<!-- 140178131751936 -->
<g id="node23" class="node">
<title>140178131751936</title>
<polygon fill="none" stroke="#000000" points="324,-1395 97,-1395 97,-1359 324,-1359 324,-1395"/>
<text text-anchor="middle" x="210.5" y="-1373.3" font-family="Times,serif" font-size="14.00" fill="#000000">MarketSummaryDataBean:setVolume</text>
</g>
<!-- 140178131695040 -->
<g id="node24" class="node">
<title>140178131695040</title>
<polygon fill="none" stroke="#000000" points="315.5,-1449 105.5,-1449 105.5,-1413 315.5,-1413 315.5,-1449"/>
<text text-anchor="middle" x="210.5" y="-1427.3" font-family="Times,serif" font-size="14.00" fill="#000000">MarketSummaryDataBean:toJSON</text>
</g>
<!-- 140178131697000 -->
<g id="node25" class="node">
<title>140178131697000</title>
<polygon fill="none" stroke="#000000" points="375,-1503 46,-1503 46,-1467 375,-1467 375,-1503"/>
<text text-anchor="middle" x="210.5" y="-1481.3" font-family="Times,serif" font-size="14.00" fill="#000000">MarketSummarySingleton:getMarketSummaryDataBean</text>
</g>
<!-- 140178131696552 -->
<g id="node26" class="node">
<title>140178131696552</title>
<polygon fill="none" stroke="#000000" points="374.5,-1557 46.5,-1557 46.5,-1521 374.5,-1521 374.5,-1557"/>
<text text-anchor="middle" x="210.5" y="-1535.3" font-family="Times,serif" font-size="14.00" fill="#000000">MarketSummarySingleton:setMarketSummaryDataBean</text>
</g>
<!-- 140178131754120 -->
<g id="node27" class="node">
<title>140178131754120</title>
<polygon fill="none" stroke="#000000" points="753,-468 457,-468 457,-432 753,-432 753,-468"/>
<text text-anchor="middle" x="605" y="-446.3" font-family="Times,serif" font-size="14.00" fill="#000000">MarketSummarySingleton:updateMarketSummary</text>
</g>
<!-- 140178131754120&#45;&gt;140178131752104 -->
<g id="edge6" class="edge">
<title>140178131754120&#45;&gt;140178131752104</title>
<path fill="none" stroke="#000000" d="M735.4031,-431.9922C741.5124,-429.3675 747.4167,-426.3856 753,-423 772.0691,-411.4368 787.5528,-391.8146 798.3981,-374.7796"/>
<polygon fill="#000000" stroke="#000000" points="801.4326,-376.5257 803.641,-366.1636 795.4527,-372.8868 801.4326,-376.5257"/>
</g>
<!-- 140178131753952 -->
<g id="node28" class="node">
<title>140178131753952</title>
<polygon fill="none" stroke="#000000" points="349,-1611 72,-1611 72,-1575 349,-1575 349,-1611"/>
<text text-anchor="middle" x="210.5" y="-1589.3" font-family="Times,serif" font-size="14.00" fill="#000000">MarketSummaryWebSocket:mergeJsonObjects</text>
</g>
<!-- 140178131752944 -->
<g id="node29" class="node">
<title>140178131752944</title>
<polygon fill="none" stroke="#000000" points="715,-414 495,-414 495,-378 715,-378 715,-414"/>
<text text-anchor="middle" x="605" y="-392.3" font-family="Times,serif" font-size="14.00" fill="#000000">MarketSummaryWebSocket:onOpen</text>
</g>
<!-- 140178131752944&#45;&gt;140178131752104 -->
<g id="edge7" class="edge">
<title>140178131752944&#45;&gt;140178131752104</title>
<path fill="none" stroke="#000000" d="M715.1711,-378.7433C728.026,-375.8937 740.8712,-372.6547 753,-369 762.7246,-366.0697 772.9678,-362.0921 782.3027,-358.0913"/>
<polygon fill="#000000" stroke="#000000" points="783.9151,-361.2052 791.6422,-353.9564 781.0813,-354.8044 783.9151,-361.2052"/>
</g>
<!-- 140178131754680 -->
<g id="node30" class="node">
<title>140178131754680</title>
<polygon fill="none" stroke="#000000" points="753,-360 457,-360 457,-324 753,-324 753,-360"/>
<text text-anchor="middle" x="605" y="-338.3" font-family="Times,serif" font-size="14.00" fill="#000000">MarketSummaryWebSocket:sendMarketSummary</text>
</g>
<!-- 140178131754680&#45;&gt;140178131752104 -->
<g id="edge8" class="edge">
<title>140178131754680&#45;&gt;140178131752104</title>
<path fill="none" stroke="#000000" d="M753.2643,-342C762.4307,-342 771.0786,-342 778.8562,-342"/>
<polygon fill="#000000" stroke="#000000" points="778.8895,-345.5001 788.8894,-342 778.8894,-338.5001 778.8895,-345.5001"/>
</g>
<!-- 140178131696048 -->
<g id="node31" class="node">
<title>140178131696048</title>
<polygon fill="none" stroke="#000000" points="682,-306 528,-306 528,-270 682,-270 682,-306"/>
<text text-anchor="middle" x="605" y="-284.3" font-family="Times,serif" font-size="14.00" fill="#000000">OrdersAlertFilter:destroy</text>
</g>
<!-- 140178131696048&#45;&gt;140178131752104 -->
<g id="edge9" class="edge">
<title>140178131696048&#45;&gt;140178131752104</title>
<path fill="none" stroke="#000000" d="M682.2124,-298.7123C705.2413,-302.8082 730.3679,-308.1804 753,-315 762.7246,-317.9303 772.9678,-321.9079 782.3027,-325.9087"/>
<polygon fill="#000000" stroke="#000000" points="781.0813,-329.1956 791.6422,-330.0436 783.9151,-322.7948 781.0813,-329.1956"/>
</g>
<!-- 140178131754232 -->
<g id="node32" class="node">
<title>140178131754232</title>
<polygon fill="none" stroke="#000000" points="683.5,-252 526.5,-252 526.5,-216 683.5,-216 683.5,-252"/>
<text text-anchor="middle" x="605" y="-230.3" font-family="Times,serif" font-size="14.00" fill="#000000">OrdersAlertFilter:doFilter</text>
</g>
<!-- 140178131754232&#45;&gt;140178131752104 -->
<g id="edge10" class="edge">
<title>140178131754232&#45;&gt;140178131752104</title>
<path fill="none" stroke="#000000" d="M683.7162,-237.643C707.2897,-241.4738 732.3417,-248.4731 753,-261 772.0691,-272.5632 787.5528,-292.1854 798.3981,-309.2204"/>
<polygon fill="#000000" stroke="#000000" points="795.4527,-311.1132 803.641,-317.8364 801.4326,-307.4743 795.4527,-311.1132"/>
</g>
<!-- 140178131753392 -->
<g id="node33" class="node">
<title>140178131753392</title>
<polygon fill="none" stroke="#000000" points="663,-198 547,-198 547,-162 663,-162 663,-198"/>
<text text-anchor="middle" x="605" y="-176.3" font-family="Times,serif" font-size="14.00" fill="#000000">PingServlet:doGet</text>
</g>
<!-- 140178131753392&#45;&gt;140178131752104 -->
<g id="edge11" class="edge">
<title>140178131753392&#45;&gt;140178131752104</title>
<path fill="none" stroke="#000000" d="M663.1025,-178.421C692.6944,-180.4289 727.6713,-187.4513 753,-207 784.1803,-231.065 800.5579,-274.2707 808.7104,-305.3292"/>
<polygon fill="#000000" stroke="#000000" points="805.3873,-306.4733 811.1694,-315.3512 812.1856,-304.8052 805.3873,-306.4733"/>
</g>
<!-- 140178131751712 -->
<g id="node34" class="node">
<title>140178131751712</title>
<polygon fill="none" stroke="#000000" points="655.5,-144 554.5,-144 554.5,-108 655.5,-108 655.5,-144"/>
<text text-anchor="middle" x="605" y="-122.3" font-family="Times,serif" font-size="14.00" fill="#000000">PingServlet:init</text>
</g>
<!-- 140178131751712&#45;&gt;140178131752104 -->
<g id="edge12" class="edge">
<title>140178131751712&#45;&gt;140178131752104</title>
<path fill="none" stroke="#000000" d="M655.7908,-122.9222C687.2558,-123.7385 726.5668,-130.0609 753,-153 776.2293,-173.1588 797.5892,-256.5275 808.4656,-305.5495"/>
<polygon fill="#000000" stroke="#000000" points="805.075,-306.4286 810.6243,-315.4539 811.9144,-304.9379 805.075,-306.4286"/>
</g>
<!-- 140178131753560 -->
<g id="node35" class="node">
<title>140178131753560</title>
<polygon fill="none" stroke="#000000" points="360,-1665 61,-1665 61,-1629 360,-1629 360,-1665"/>
<text text-anchor="middle" x="210.5" y="-1643.3" font-family="Times,serif" font-size="14.00" fill="#000000">QuoteDataBean:QuoteDataBean [overloaded_#001]</text>
</g>
<!-- 140178131754344 -->
<g id="node36" class="node">
<title>140178131754344</title>
<polygon fill="none" stroke="#000000" points="360,-1719 61,-1719 61,-1683 360,-1683 360,-1719"/>
<text text-anchor="middle" x="210.5" y="-1697.3" font-family="Times,serif" font-size="14.00" fill="#000000">QuoteDataBean:QuoteDataBean [overloaded_#002]</text>
</g>
<!-- 140178131694760 -->
<g id="node37" class="node">
<title>140178131694760</title>
<polygon fill="none" stroke="#000000" points="292.5,-1773 128.5,-1773 128.5,-1737 292.5,-1737 292.5,-1773"/>
<text text-anchor="middle" x="210.5" y="-1751.3" font-family="Times,serif" font-size="14.00" fill="#000000">QuoteDataBean:getChange</text>
</g>
<!-- 140178131752272 -->
<g id="node38" class="node">
<title>140178131752272</title>
<polygon fill="none" stroke="#000000" points="286.5,-1827 134.5,-1827 134.5,-1791 286.5,-1791 286.5,-1827"/>
<text text-anchor="middle" x="210.5" y="-1805.3" font-family="Times,serif" font-size="14.00" fill="#000000">QuoteDataBean:getOpen</text>
</g>
<!-- 140178131751320 -->
<g id="node39" class="node">
<title>140178131751320</title>
<polygon fill="none" stroke="#000000" points="286,-1881 135,-1881 135,-1845 286,-1845 286,-1881"/>
<text text-anchor="middle" x="210.5" y="-1859.3" font-family="Times,serif" font-size="14.00" fill="#000000">QuoteDataBean:getPrice</text>
</g>
<!-- 140178131695320 -->
<g id="node40" class="node">
<title>140178131695320</title>
<polygon fill="none" stroke="#000000" points="318,-1935 103,-1935 103,-1899 318,-1899 318,-1935"/>
<text text-anchor="middle" x="210.5" y="-1913.3" font-family="Times,serif" font-size="14.00" fill="#000000">QuoteDataBean:getRandomInstance</text>
</g>
<!-- 140178131696608 -->
<g id="node41" class="node">
<title>140178131696608</title>
<polygon fill="none" stroke="#000000" points="293.5,-1989 127.5,-1989 127.5,-1953 293.5,-1953 293.5,-1989"/>
<text text-anchor="middle" x="210.5" y="-1967.3" font-family="Times,serif" font-size="14.00" fill="#000000">QuoteDataBean:getSymbol</text>
</g>
<!-- 140178131751432 -->
<g id="node42" class="node">
<title>140178131751432</title>
<polygon fill="none" stroke="#000000" points="294,-2043 127,-2043 127,-2007 294,-2007 294,-2043"/>
<text text-anchor="middle" x="210.5" y="-2021.3" font-family="Times,serif" font-size="14.00" fill="#000000">QuoteDataBean:getVolume</text>
</g>
<!-- 140178131753784 -->
<g id="node43" class="node">
<title>140178131753784</title>
<polygon fill="none" stroke="#000000" points="292,-2097 129,-2097 129,-2061 292,-2061 292,-2097"/>
<text text-anchor="middle" x="210.5" y="-2075.3" font-family="Times,serif" font-size="14.00" fill="#000000">QuoteDataBean:setChange</text>
</g>
<!-- 140178131754960 -->
<g id="node44" class="node">
<title>140178131754960</title>
<polygon fill="none" stroke="#000000" points="314.5,-2151 106.5,-2151 106.5,-2115 314.5,-2115 314.5,-2151"/>
<text text-anchor="middle" x="210.5" y="-2129.3" font-family="Times,serif" font-size="14.00" fill="#000000">QuoteDataBean:setCompanyName</text>
</g>
<!-- 140178131753448 -->
<g id="node45" class="node">
<title>140178131753448</title>
<polygon fill="none" stroke="#000000" points="285,-2205 136,-2205 136,-2169 285,-2169 285,-2205"/>
<text text-anchor="middle" x="210.5" y="-2183.3" font-family="Times,serif" font-size="14.00" fill="#000000">QuoteDataBean:setHigh</text>
</g>
<!-- 140178131754456 -->
<g id="node46" class="node">
<title>140178131754456</title>
<polygon fill="none" stroke="#000000" points="283.5,-2259 137.5,-2259 137.5,-2223 283.5,-2223 283.5,-2259"/>
<text text-anchor="middle" x="210.5" y="-2237.3" font-family="Times,serif" font-size="14.00" fill="#000000">QuoteDataBean:setLow</text>
</g>
<!-- 140178131752216 -->
<g id="node47" class="node">
<title>140178131752216</title>
<polygon fill="none" stroke="#000000" points="286,-2313 135,-2313 135,-2277 286,-2277 286,-2313"/>
<text text-anchor="middle" x="210.5" y="-2291.3" font-family="Times,serif" font-size="14.00" fill="#000000">QuoteDataBean:setOpen</text>
</g>
<!-- 140178103076232 -->
<g id="node48" class="node">
<title>140178103076232</title>
<polygon fill="none" stroke="#000000" points="285,-2367 136,-2367 136,-2331 285,-2331 285,-2367"/>
<text text-anchor="middle" x="210.5" y="-2345.3" font-family="Times,serif" font-size="14.00" fill="#000000">QuoteDataBean:setPrice</text>
</g>
<!-- 140178131752160 -->
<g id="node49" class="node">
<title>140178131752160</title>
<polygon fill="none" stroke="#000000" points="292.5,-2421 128.5,-2421 128.5,-2385 292.5,-2385 292.5,-2421"/>
<text text-anchor="middle" x="210.5" y="-2399.3" font-family="Times,serif" font-size="14.00" fill="#000000">QuoteDataBean:setSymbol</text>
</g>
<!-- 140178131752608 -->
<g id="node50" class="node">
<title>140178131752608</title>
<polygon fill="none" stroke="#000000" points="293.5,-2475 127.5,-2475 127.5,-2439 293.5,-2439 293.5,-2475"/>
<text text-anchor="middle" x="210.5" y="-2453.3" font-family="Times,serif" font-size="14.00" fill="#000000">QuoteDataBean:setVolume</text>
</g>
<!-- 140178131752384 -->
<g id="node51" class="node">
<title>140178131752384</title>
<polygon fill="none" stroke="#000000" points="309,-2529 112,-2529 112,-2493 309,-2493 309,-2529"/>
<text text-anchor="middle" x="210.5" y="-2507.3" font-family="Times,serif" font-size="14.00" fill="#000000">RecentStockChangeList:isEmpty</text>
</g>
<!-- 140178131754400 -->
<g id="node52" class="node">
<title>140178131754400</title>
<polygon fill="none" stroke="#000000" points="345,-2583 76,-2583 76,-2547 345,-2547 345,-2583"/>
<text text-anchor="middle" x="210.5" y="-2561.3" font-family="Times,serif" font-size="14.00" fill="#000000">RecentStockChangeList:stockChangesInJSON</text>
</g>
<!-- 140178131751040 -->
<g id="node53" class="node">
<title>140178131751040</title>
<polygon fill="none" stroke="#000000" points="933,-360 879,-360 879,-324 933,-324 933,-360"/>
<text text-anchor="middle" x="906" y="-338.3" font-family="Times,serif" font-size="14.00" fill="#000000">Root</text>
</g>
<!-- 140178131753280 -->
<g id="node80" class="node">
<title>140178131753280</title>
<ellipse fill="#ffa500" stroke="#000000" cx="996" cy="-342" rx="27" ry="27"/>
</g>
<!-- 140178131751040&#45;&gt;140178131753280 -->
<g id="edge13" class="edge">
<title>140178131751040&#45;&gt;140178131753280</title>
<path fill="none" stroke="#000000" d="M933.003,-342C941.0277,-342 949.9665,-342 958.5309,-342"/>
<polygon fill="#000000" stroke="#000000" points="958.7051,-345.5001 968.705,-342 958.705,-338.5001 958.7051,-345.5001"/>
</g>
<!-- 140178131753728 -->
<g id="node54" class="node">
<title>140178131753728</title>
<polygon fill="none" stroke="#000000" points="342,-2637 79,-2637 79,-2601 342,-2601 342,-2637"/>
<text text-anchor="middle" x="210.5" y="-2615.3" font-family="Times,serif" font-size="14.00" fill="#000000">TradeAction:TradeAction [overloaded_#001]</text>
</g>
<!-- 140178131753112 -->
<g id="node55" class="node">
<title>140178131753112</title>
<polygon fill="none" stroke="#000000" points="286.5,-2691 134.5,-2691 134.5,-2655 286.5,-2655 286.5,-2691"/>
<text text-anchor="middle" x="210.5" y="-2669.3" font-family="Times,serif" font-size="14.00" fill="#000000">TradeAction:createTrade</text>
</g>
<!-- 140178131751992 -->
<g id="node56" class="node">
<title>140178131751992</title>
<polygon fill="none" stroke="#000000" points="310,-2745 111,-2745 111,-2709 310,-2709 310,-2745"/>
<text text-anchor="middle" x="210.5" y="-2723.3" font-family="Times,serif" font-size="14.00" fill="#000000">TradeAction:getMarketSummary</text>
</g>
<!-- 140178131694480 -->
<g id="node57" class="node">
<title>140178131694480</title>
<polygon fill="none" stroke="#000000" points="283.5,-2799 137.5,-2799 137.5,-2763 283.5,-2763 283.5,-2799"/>
<text text-anchor="middle" x="210.5" y="-2777.3" font-family="Times,serif" font-size="14.00" fill="#000000">TradeAppServlet:doGet</text>
</g>
<!-- 140178131754792 -->
<g id="node58" class="node">
<title>140178131754792</title>
<polygon fill="none" stroke="#000000" points="276,-2853 145,-2853 145,-2817 276,-2817 276,-2853"/>
<text text-anchor="middle" x="210.5" y="-2831.3" font-family="Times,serif" font-size="14.00" fill="#000000">TradeAppServlet:init</text>
</g>
<!-- 140178131753840 -->
<g id="node59" class="node">
<title>140178131753840</title>
<polygon fill="none" stroke="#000000" points="302.5,-2907 118.5,-2907 118.5,-2871 302.5,-2871 302.5,-2907"/>
<text text-anchor="middle" x="210.5" y="-2885.3" font-family="Times,serif" font-size="14.00" fill="#000000">TradeAppServlet:performTask</text>
</g>
<!-- 140178131752888 -->
<g id="node60" class="node">
<title>140178131752888</title>
<polygon fill="none" stroke="#000000" points="297,-2961 124,-2961 124,-2925 297,-2925 297,-2961"/>
<text text-anchor="middle" x="210.5" y="-2939.3" font-family="Times,serif" font-size="14.00" fill="#000000">TradeConfig:getActionTrace</text>
</g>
<!-- 140178131754512 -->
<g id="node61" class="node">
<title>140178131754512</title>
<polygon fill="none" stroke="#000000" points="316.5,-3015 104.5,-3015 104.5,-2979 316.5,-2979 316.5,-3015"/>
<text text-anchor="middle" x="210.5" y="-2993.3" font-family="Times,serif" font-size="14.00" fill="#000000">TradeConfig:getDisplayOrderAlerts</text>
</g>
<!-- 140178131751824 -->
<g id="node62" class="node">
<title>140178131751824</title>
<polygon fill="none" stroke="#000000" points="276.5,-3069 144.5,-3069 144.5,-3033 276.5,-3033 276.5,-3069"/>
<text text-anchor="middle" x="210.5" y="-3047.3" font-family="Times,serif" font-size="14.00" fill="#000000">TradeConfig:getPage</text>
</g>
<!-- 140178131752048 -->
<g id="node63" class="node">
<title>140178131752048</title>
<polygon fill="none" stroke="#000000" points="305.5,-3123 115.5,-3123 115.5,-3087 305.5,-3087 305.5,-3123"/>
<text text-anchor="middle" x="210.5" y="-3101.3" font-family="Times,serif" font-size="14.00" fill="#000000">TradeConfig:getRunTimeMode</text>
</g>
<!-- 140178131752664 -->
<g id="node64" class="node">
<title>140178131752664</title>
<polygon fill="none" stroke="#000000" points="279,-3177 142,-3177 142,-3141 279,-3141 279,-3177"/>
<text text-anchor="middle" x="210.5" y="-3155.3" font-family="Times,serif" font-size="14.00" fill="#000000">TradeConfig:getTrace</text>
</g>
<!-- 140178132590544 -->
<g id="node65" class="node">
<title>140178132590544</title>
<polygon fill="none" stroke="#000000" points="276,-3231 145,-3231 145,-3195 276,-3195 276,-3231"/>
<text text-anchor="middle" x="210.5" y="-3209.3" font-family="Times,serif" font-size="14.00" fill="#000000">TradeConfig:random</text>
</g>
<!-- 140178131694312 -->
<g id="node66" class="node">
<title>140178131694312</title>
<polygon fill="none" stroke="#000000" points="297,-3285 124,-3285 124,-3249 297,-3249 297,-3285"/>
<text text-anchor="middle" x="210.5" y="-3263.3" font-family="Times,serif" font-size="14.00" fill="#000000">TradeConfig:rndBigDecimal</text>
</g>
<!-- 140178131753168 -->
<g id="node67" class="node">
<title>140178131753168</title>
<polygon fill="none" stroke="#000000" points="278,-3339 143,-3339 143,-3303 278,-3303 278,-3339"/>
<text text-anchor="middle" x="210.5" y="-3317.3" font-family="Times,serif" font-size="14.00" fill="#000000">TradeConfig:rndFloat</text>
</g>
<!-- 140178103076288 -->
<g id="node68" class="node">
<title>140178103076288</title>
<polygon fill="none" stroke="#000000" points="271.5,-3393 149.5,-3393 149.5,-3357 271.5,-3357 271.5,-3393"/>
<text text-anchor="middle" x="210.5" y="-3371.3" font-family="Times,serif" font-size="14.00" fill="#000000">TradeConfig:rndInt</text>
</g>
<!-- 140178131754904 -->
<g id="node69" class="node">
<title>140178131754904</title>
<polygon fill="none" stroke="#000000" points="288,-3447 133,-3447 133,-3411 288,-3411 288,-3447"/>
<text text-anchor="middle" x="210.5" y="-3425.3" font-family="Times,serif" font-size="14.00" fill="#000000">TradeConfig:rndQuantity</text>
</g>
<!-- 140178131694704 -->
<g id="node70" class="node">
<title>140178131694704</title>
<polygon fill="none" stroke="#000000" points="285.5,-3501 135.5,-3501 135.5,-3465 285.5,-3465 285.5,-3501"/>
<text text-anchor="middle" x="210.5" y="-3479.3" font-family="Times,serif" font-size="14.00" fill="#000000">TradeConfig:rndSymbol</text>
</g>
<!-- 140178131752496 -->
<g id="node71" class="node">
<title>140178131752496</title>
<polygon fill="none" stroke="#000000" points="321,-3555 100,-3555 100,-3519 321,-3519 321,-3555"/>
<text text-anchor="middle" x="210.5" y="-3533.3" font-family="Times,serif" font-size="14.00" fill="#000000">TradeConfig:useRemoteEJBInterface</text>
</g>
<!-- 140178131753336 -->
<g id="node72" class="node">
<title>140178131753336</title>
<polygon fill="none" stroke="#000000" points="321.5,-3609 99.5,-3609 99.5,-3573 321.5,-3573 321.5,-3609"/>
<text text-anchor="middle" x="210.5" y="-3587.3" font-family="Times,serif" font-size="14.00" fill="#000000">TradeSLSBBean:getMarketSummary</text>
</g>
<!-- 140178131754288 -->
<g id="node73" class="node">
<title>140178131754288</title>
<polygon fill="none" stroke="#000000" points="307.5,-3663 113.5,-3663 113.5,-3627 307.5,-3627 307.5,-3663"/>
<text text-anchor="middle" x="210.5" y="-3641.3" font-family="Times,serif" font-size="14.00" fill="#000000">TradeServletAction:doWelcome</text>
</g>
<!-- 140178131696664 -->
<g id="node74" class="node">
<title>140178131696664</title>
<polygon fill="none" stroke="#000000" points="317.5,-3717 103.5,-3717 103.5,-3681 317.5,-3681 317.5,-3717"/>
<text text-anchor="middle" x="210.5" y="-3695.3" font-family="Times,serif" font-size="14.00" fill="#000000">TradeServletAction:requestDispatch</text>
</g>
<!-- 140178131752328 -->
<g id="node75" class="node">
<title>140178131752328</title>
<polygon fill="none" stroke="#000000" points="735,-90 475,-90 475,-54 735,-54 735,-90"/>
<text text-anchor="middle" x="605" y="-68.3" font-family="Times,serif" font-size="14.00" fill="#000000">TradeWebContextListener:contextDestroyed</text>
</g>
<!-- 140178131752328&#45;&gt;140178131752104 -->
<g id="edge14" class="edge">
<title>140178131752328&#45;&gt;140178131752104</title>
<path fill="none" stroke="#000000" d="M735.328,-86.2548C741.6873,-89.8091 747.643,-94.0216 753,-99 782.9525,-126.8358 802.8434,-244.4214 811.3302,-305.2308"/>
<polygon fill="#000000" stroke="#000000" points="807.8686,-305.751 812.6883,-315.1861 814.8044,-304.8047 807.8686,-305.751"/>
</g>
<!-- 140178131752776 -->
<g id="node76" class="node">
<title>140178131752776</title>
<polygon fill="none" stroke="#000000" points="667.5,-36 542.5,-36 542.5,0 667.5,0 667.5,-36"/>
<text text-anchor="middle" x="605" y="-14.3" font-family="Times,serif" font-size="14.00" fill="#000000">new ActionDecoder</text>
</g>
<!-- 140178131752776&#45;&gt;140178131752104 -->
<g id="edge15" class="edge">
<title>140178131752776&#45;&gt;140178131752104</title>
<path fill="none" stroke="#000000" d="M667.6413,-14.3105C697.1636,-15.9814 730.7106,-23.3386 753,-45 789.6735,-80.6403 806.9467,-232.8822 813.1598,-304.49"/>
<polygon fill="#000000" stroke="#000000" points="809.7055,-305.1819 814.0303,-314.8538 816.6809,-304.5959 809.7055,-305.1819"/>
</g>
<!-- 140178131697168 -->
<g id="node77" class="node">
<title>140178131697168</title>
<polygon fill="none" stroke="#000000" points="274.5,-3771 146.5,-3771 146.5,-3735 274.5,-3735 274.5,-3771"/>
<text text-anchor="middle" x="210.5" y="-3749.3" font-family="Times,serif" font-size="14.00" fill="#000000">new ActionMessage</text>
</g>
<!-- 140178141394144 -->
<g id="node78" class="node">
<title>140178141394144</title>
<ellipse fill="#00ff00" stroke="#000000" cx="210.5" cy="-342" rx="27" ry="27"/>
<text text-anchor="middle" x="210.5" y="-338.3" font-family="Times,serif" font-size="14.00" fill="#000000">1</text>
</g>
<!-- 140178141394144&#45;&gt;140178131751376 -->
<g id="edge16" class="edge">
<title>140178141394144&#45;&gt;140178131751376</title>
<path fill="none" stroke="#000000" d="M237.2622,-337.6256C282.2014,-331.9604 372.6447,-328.0562 421,-378 502.4523,-462.128 376.0144,-554.4226 457,-639 474.3051,-657.0726 499.3846,-665.4001 523.9962,-668.7451"/>
<polygon fill="#000000" stroke="#000000" points="523.7986,-672.2443 534.1208,-669.8564 524.5625,-665.2861 523.7986,-672.2443"/>
</g>
<!-- 140178141394144&#45;&gt;140178131697616 -->
<g id="edge17" class="edge">
<title>140178141394144&#45;&gt;140178131697616</title>
<path fill="none" stroke="#000000" d="M237.4337,-337.7666C282.2159,-332.4006 371.9064,-329.044 421,-378 487.1229,-443.9375 391.2429,-518.6977 457,-585 476.9842,-605.1499 506.6662,-613.0591 534.2137,-615.4883"/>
<polygon fill="#000000" stroke="#000000" points="534.0361,-618.9841 544.2442,-616.1479 534.4954,-611.9992 534.0361,-618.9841"/>
</g>
<!-- 140178141394144&#45;&gt;140178131695208 -->
<g id="edge18" class="edge">
<title>140178141394144&#45;&gt;140178131695208</title>
<path fill="none" stroke="#000000" d="M237.4806,-338.047C281.9261,-333.1774 370.6212,-330.6378 421,-378 471.8967,-425.849 406.3688,-482.8701 457,-531 472.0481,-545.3047 492.021,-553.329 512.4094,-557.5941"/>
<polygon fill="#000000" stroke="#000000" points="511.9702,-561.0712 522.4319,-559.3969 513.2095,-554.1817 511.9702,-561.0712"/>
</g>
<!-- 140178141394144&#45;&gt;140178131752720 -->
<g id="edge19" class="edge">
<title>140178141394144&#45;&gt;140178131752720</title>
<path fill="none" stroke="#000000" d="M237.5888,-338.6579C281.3982,-334.8195 368.2078,-333.92 421,-378 456.9382,-408.0074 421.2283,-446.7942 457,-477 475.5089,-492.629 500.0333,-500.4773 523.7847,-504.1312"/>
<polygon fill="#000000" stroke="#000000" points="523.5279,-507.6273 533.8967,-505.4508 524.4337,-500.6861 523.5279,-507.6273"/>
</g>
<!-- 140178141394144&#45;&gt;140178131754120 -->
<g id="edge20" class="edge">
<title>140178141394144&#45;&gt;140178131754120</title>
<path fill="none" stroke="#000000" d="M237.4848,-340.7128C279.6505,-339.9323 362.3935,-343.4471 421,-378 443.0634,-391.008 435.009,-409.8701 457,-423 459.7156,-424.6214 462.5054,-426.1497 465.3564,-427.5903"/>
<polygon fill="#000000" stroke="#000000" points="464.1084,-430.8695 474.6532,-431.8986 467.0517,-424.5183 464.1084,-430.8695"/>
</g>
<!-- 140178141394144&#45;&gt;140178131752944 -->
<g id="edge21" class="edge">
<title>140178141394144&#45;&gt;140178131752944</title>
<path fill="none" stroke="#000000" d="M237.3054,-345.6692C287.401,-352.5264 398.0119,-367.667 484.9072,-379.5614"/>
<polygon fill="#000000" stroke="#000000" points="484.4612,-383.0329 494.8435,-380.9215 485.4105,-376.0976 484.4612,-383.0329"/>
</g>
<!-- 140178141394144&#45;&gt;140178131754680 -->
<g id="edge22" class="edge">
<title>140178141394144&#45;&gt;140178131754680</title>
<path fill="none" stroke="#000000" d="M237.6156,-342C280.686,-342 367.9212,-342 446.5792,-342"/>
<polygon fill="#000000" stroke="#000000" points="446.6206,-345.5001 456.6205,-342 446.6205,-338.5001 446.6206,-345.5001"/>
</g>
<!-- 140178141394144&#45;&gt;140178131696048 -->
<g id="edge23" class="edge">
<title>140178141394144&#45;&gt;140178131696048</title>
<path fill="none" stroke="#000000" d="M237.3054,-338.3308C293.9969,-330.5708 428.1885,-312.2023 517.8052,-299.9354"/>
<polygon fill="#000000" stroke="#000000" points="518.528,-303.3692 527.961,-298.5453 517.5787,-296.4339 518.528,-303.3692"/>
</g>
<!-- 140178141394144&#45;&gt;140178131754232 -->
<g id="edge24" class="edge">
<title>140178141394144&#45;&gt;140178131754232</title>
<path fill="none" stroke="#000000" d="M236.064,-332.3078C280.458,-315.7695 374.9239,-281.8671 457,-261 476.0561,-256.1551 496.7031,-251.8249 516.3573,-248.1255"/>
<polygon fill="#000000" stroke="#000000" points="517.0229,-251.5619 526.2216,-246.3051 515.7524,-244.6781 517.0229,-251.5619"/>
</g>
<!-- 140178141394144&#45;&gt;140178131753392 -->
<g id="edge25" class="edge">
<title>140178141394144&#45;&gt;140178131753392</title>
<path fill="none" stroke="#000000" d="M232.7873,-326.5556C274.688,-298.2777 368.934,-238.2265 457,-207 482.4265,-197.9843 511.4282,-191.8484 536.9808,-187.7362"/>
<polygon fill="#000000" stroke="#000000" points="537.6053,-191.1814 546.9579,-186.2035 536.5424,-184.2626 537.6053,-191.1814"/>
</g>
<!-- 140178141394144&#45;&gt;140178131751712 -->
<g id="edge26" class="edge">
<title>140178141394144&#45;&gt;140178131751712</title>
<path fill="none" stroke="#000000" d="M229.4426,-322.1802C268.1632,-282.9709 360.8663,-195.6182 457,-153 484.2066,-140.9387 516.5141,-134.2653 543.992,-130.573"/>
<polygon fill="#000000" stroke="#000000" points="544.7728,-134.003 554.266,-129.2988 543.9112,-127.0563 544.7728,-134.003"/>
</g>
<!-- 140178141394144&#45;&gt;140178131752328 -->
<g id="edge27" class="edge">
<title>140178141394144&#45;&gt;140178131752328</title>
<path fill="none" stroke="#000000" d="M225.9382,-319.4267C260.7979,-270.3963 350.8921,-154.153 457,-99 460.5486,-97.1555 464.2023,-95.435 467.9357,-93.8304"/>
<polygon fill="#000000" stroke="#000000" points="469.3698,-97.0266 477.3656,-90.0755 466.7802,-90.5232 469.3698,-97.0266"/>
</g>
<!-- 140178141394144&#45;&gt;140178131752776 -->
<g id="edge28" class="edge">
<title>140178141394144&#45;&gt;140178131752776</title>
<path fill="none" stroke="#000000" d="M222.7235,-317.912C253.3831,-260.1904 339.5834,-113.6779 457,-45 479.4901,-31.8454 506.9256,-24.8429 532.0373,-21.1954"/>
<polygon fill="#000000" stroke="#000000" points="532.7975,-24.6263 542.2655,-19.8716 531.8989,-17.6842 532.7975,-24.6263"/>
</g>
<!-- 140178131752104&#45;&gt;140178131751040 -->
<g id="edge1" class="edge">
<title>140178131752104&#45;&gt;140178131751040</title>
<path fill="none" stroke="#000000" d="M843.003,-342C851.0277,-342 859.9665,-342 868.5309,-342"/>
<polygon fill="#000000" stroke="#000000" points="868.7051,-345.5001 878.705,-342 868.705,-338.5001 868.7051,-345.5001"/>
</g>
</g>
</svg>
