<?xml version="1.0" encoding="UTF-8" standalone="no"?>
<!DOCTYPE svg PUBLIC "-//W3C//DTD SVG 1.1//EN"
 "http://www.w3.org/Graphics/SVG/1.1/DTD/svg11.dtd">
<!-- Generated by graphviz version 2.40.1 (20161225.0304)
 -->
<!-- Title: imdf_net_1585281872.261395 Pages: 1 -->
<svg width="1652pt" height="1441pt"
 viewBox="0.00 0.00 1652.00 1440.52" xmlns="http://www.w3.org/2000/svg" xmlns:xlink="http://www.w3.org/1999/xlink">
<g id="graph0" class="graph" transform="scale(1 1) rotate(0) translate(4 1436.5242)">
<title>imdf_net_1585281872.261395</title>
<!-- 140543358557040 -->
<g id="node1" class="node">
<title>140543358557040</title>
<polygon fill="none" stroke="#000000" points="141,-678.5242 0,-678.5242 0,-642.5242 141,-642.5242 141,-678.5242"/>
<text text-anchor="middle" x="70.5" y="-656.8242" font-family="Times,serif" font-size="14.00" fill="#000000">ActionDecoder:decode</text>
</g>
<!-- 140543358557936 -->
<g id="node43" class="node">
<title>140543358557936</title>
<ellipse fill="none" stroke="#000000" cx="204" cy="-874.5242" rx="27" ry="27"/>
<text text-anchor="middle" x="204" y="-870.8242" font-family="Times,serif" font-size="14.00" fill="#000000">p_6</text>
</g>
<!-- 140543358557040&#45;&gt;140543358557936 -->
<g id="edge26" class="edge">
<title>140543358557040&#45;&gt;140543358557936</title>
<path fill="none" stroke="#000000" d="M81.8821,-678.7697C104.641,-715.252 155.9999,-797.5802 184.325,-842.9853"/>
<polygon fill="#000000" stroke="#000000" points="181.4052,-844.9175 189.6676,-851.5495 187.3443,-841.2125 181.4052,-844.9175"/>
</g>
<!-- 140543361080288 -->
<g id="node2" class="node">
<title>140543361080288</title>
<polygon fill="none" stroke="#000000" points="1259.5,-302.5242 1138.5,-302.5242 1138.5,-266.5242 1259.5,-266.5242 1259.5,-302.5242"/>
<text text-anchor="middle" x="1199" y="-280.8242" font-family="Times,serif" font-size="14.00" fill="#000000">ActionDecoder:init</text>
</g>
<!-- 140543358092344 -->
<g id="node41" class="node">
<title>140543358092344</title>
<ellipse fill="none" stroke="#000000" cx="1437" cy="-261.5242" rx="27" ry="27"/>
<text text-anchor="middle" x="1437" y="-257.8242" font-family="Times,serif" font-size="14.00" fill="#000000">p_4</text>
</g>
<!-- 140543361080288&#45;&gt;140543358092344 -->
<g id="edge20" class="edge">
<title>140543361080288&#45;&gt;140543358092344</title>
<path fill="none" stroke="#000000" d="M1259.6733,-278.6608C1303.9852,-274.3786 1362.6322,-268.711 1400.0983,-265.0903"/>
<polygon fill="#000000" stroke="#000000" points="1400.4576,-268.572 1410.0745,-264.1262 1399.7842,-261.6045 1400.4576,-268.572"/>
</g>
<!-- 140543361098472 -->
<g id="node3" class="node">
<title>140543361098472</title>
<polygon fill="none" stroke="#000000" points="727,-256.5242 562,-256.5242 562,-220.5242 727,-220.5242 727,-256.5242"/>
<text text-anchor="middle" x="644.5" y="-234.8242" font-family="Times,serif" font-size="14.00" fill="#000000">ActionDecoder:willDecode</text>
</g>
<!-- 140543361098472&#45;&gt;140543358092344 -->
<g id="edge5" class="edge">
<title>140543361098472&#45;&gt;140543358092344</title>
<path fill="none" stroke="#000000" d="M727.0686,-240.9205C896.7781,-245.8458 1278.9811,-256.9382 1399.7127,-260.442"/>
<polygon fill="#000000" stroke="#000000" points="1399.8192,-263.9465 1409.9165,-260.7382 1400.0223,-256.9495 1399.8192,-263.9465"/>
</g>
<!-- 140543361079224 -->
<g id="node4" class="node">
<title>140543361079224</title>
<polygon fill="none" stroke="#000000" points="1013,-1204.5242 842,-1204.5242 842,-1168.5242 1013,-1168.5242 1013,-1204.5242"/>
<text text-anchor="middle" x="927.5" y="-1182.8242" font-family="Times,serif" font-size="14.00" fill="#000000">ActionMessage:doDecoding</text>
</g>
<!-- 140543361079224&#45;&gt;140543358557936 -->
<g id="edge27" class="edge">
<title>140543361079224&#45;&gt;140543358557936</title>
<path fill="none" stroke="#000000" d="M841.7502,-1181.8808C752.9078,-1177.4755 610.0284,-1171.5242 486.5,-1171.5242 384,-1171.5242 384,-1171.5242 384,-1171.5242 263.6906,-1171.5242 221.5736,-991.0808 208.8482,-911.4898"/>
<polygon fill="#000000" stroke="#000000" points="212.2776,-910.7615 207.3075,-901.4048 205.3579,-911.8187 212.2776,-910.7615"/>
</g>
<!-- 140543361077544 -->
<g id="node5" class="node">
<title>140543361077544</title>
<polygon fill="none" stroke="#000000" points="1030.5,-1150.5242 824.5,-1150.5242 824.5,-1114.5242 1030.5,-1114.5242 1030.5,-1150.5242"/>
<text text-anchor="middle" x="927.5" y="-1128.8242" font-family="Times,serif" font-size="14.00" fill="#000000">ActionMessage:getDecodedAction</text>
</g>
<!-- 140543361077544&#45;&gt;140543358557936 -->
<g id="edge4" class="edge">
<title>140543361077544&#45;&gt;140543358557936</title>
<path fill="none" stroke="#000000" d="M824.1636,-1127.7573C734.8078,-1124.0471 602.1596,-1119.5242 486.5,-1119.5242 384,-1119.5242 384,-1119.5242 384,-1119.5242 281.8365,-1119.5242 231.2605,-979.4581 212.6673,-911.1359"/>
<polygon fill="#000000" stroke="#000000" points="215.9847,-909.9892 210.054,-901.2099 209.2154,-911.7715 215.9847,-909.9892"/>
</g>
<!-- 140543361098640 -->
<g id="node6" class="node">
<title>140543361098640</title>
<polygon fill="none" stroke="#000000" points="1270,-210.5242 1128,-210.5242 1128,-174.5242 1270,-174.5242 1270,-210.5242"/>
<text text-anchor="middle" x="1199" y="-188.8242" font-family="Times,serif" font-size="14.00" fill="#000000">JSFLoginFilter:destroy</text>
</g>
<!-- 140543361098640&#45;&gt;140543358092344 -->
<g id="edge13" class="edge">
<title>140543361098640&#45;&gt;140543358092344</title>
<path fill="none" stroke="#000000" d="M1270.3356,-199.8133C1302.6846,-204.5668 1340.9973,-212.2545 1374,-224.5242 1385.0143,-228.6191 1396.3071,-234.5956 1406.2345,-240.5557"/>
<polygon fill="#000000" stroke="#000000" points="1404.5827,-243.6503 1414.9204,-245.9702 1408.2857,-237.71 1404.5827,-243.6503"/>
</g>
<!-- 140543361077712 -->
<g id="node7" class="node">
<title>140543361077712</title>
<polygon fill="none" stroke="#000000" points="989,-1096.5242 866,-1096.5242 866,-1060.5242 989,-1060.5242 989,-1096.5242"/>
<text text-anchor="middle" x="927.5" y="-1074.8242" font-family="Times,serif" font-size="14.00" fill="#000000">Log:doActionTrace</text>
</g>
<!-- 140543361077712&#45;&gt;140543358557936 -->
<g id="edge3" class="edge">
<title>140543361077712&#45;&gt;140543358557936</title>
<path fill="none" stroke="#000000" d="M865.7965,-1076.0144C780.5325,-1072.7678 621.8663,-1067.5242 486.5,-1067.5242 384,-1067.5242 384,-1067.5242 384,-1067.5242 298.6351,-1067.5242 242.1838,-965.2971 217.7758,-909.642"/>
<polygon fill="#000000" stroke="#000000" points="220.8707,-907.9769 213.7266,-900.1531 214.4324,-910.7244 220.8707,-907.9769"/>
</g>
<!-- 140543361078552 -->
<g id="node8" class="node">
<title>140543361078552</title>
<polygon fill="none" stroke="#000000" points="970.5,-1042.5242 884.5,-1042.5242 884.5,-1006.5242 970.5,-1006.5242 970.5,-1042.5242"/>
<text text-anchor="middle" x="927.5" y="-1020.8242" font-family="Times,serif" font-size="14.00" fill="#000000">Log:doTrace</text>
</g>
<!-- 140543361078552&#45;&gt;140543358557936 -->
<g id="edge16" class="edge">
<title>140543361078552&#45;&gt;140543358557936</title>
<path fill="none" stroke="#000000" d="M884.311,-1023.5468C805.3436,-1021.8467 632.3651,-1018.5242 486.5,-1018.5242 384,-1018.5242 384,-1018.5242 384,-1018.5242 325.9613,-1018.5242 311.4134,-997.8866 267,-960.5242 249.2707,-945.6096 233.8165,-924.7179 222.6515,-907.2608"/>
<polygon fill="#000000" stroke="#000000" points="225.4598,-905.1482 217.2146,-898.4947 219.5111,-908.8377 225.4598,-905.1482"/>
</g>
<!-- 140543361081072 -->
<g id="node9" class="node">
<title>140543361081072</title>
<polygon fill="none" stroke="#000000" points="1374,-64.5242 1306,-64.5242 1306,-28.5242 1374,-28.5242 1374,-64.5242"/>
<text text-anchor="middle" x="1340" y="-42.8242" font-family="Times,serif" font-size="14.00" fill="#000000">Log:trace</text>
</g>
<!-- 140543361080456 -->
<g id="node39" class="node">
<title>140543361080456</title>
<ellipse fill="none" stroke="#000000" cx="1437" cy="-55.5242" rx="27" ry="27"/>
<text text-anchor="middle" x="1437" y="-51.8242" font-family="Times,serif" font-size="14.00" fill="#000000">p_10</text>
</g>
<!-- 140543361081072&#45;&gt;140543361080456 -->
<g id="edge10" class="edge">
<title>140543361081072&#45;&gt;140543361080456</title>
<path fill="none" stroke="#000000" d="M1374.1986,-49.6973C1382.5746,-50.4744 1391.5756,-51.3096 1400.0732,-52.098"/>
<polygon fill="#000000" stroke="#000000" points="1399.8323,-55.5906 1410.1129,-53.0295 1400.4791,-48.6205 1399.8323,-55.5906"/>
</g>
<!-- 140543361078720 -->
<g id="node10" class="node">
<title>140543361078720</title>
<polygon fill="none" stroke="#000000" points="1032.5,-988.5242 822.5,-988.5242 822.5,-952.5242 1032.5,-952.5242 1032.5,-988.5242"/>
<text text-anchor="middle" x="927.5" y="-966.8242" font-family="Times,serif" font-size="14.00" fill="#000000">MarketSummaryDataBean:toJSON</text>
</g>
<!-- 140543361078720&#45;&gt;140543358557936 -->
<g id="edge25" class="edge">
<title>140543361078720&#45;&gt;140543358557936</title>
<path fill="none" stroke="#000000" d="M822.3594,-972.0136C733.0142,-973.1509 601.3485,-974.5242 486.5,-974.5242 384,-974.5242 384,-974.5242 384,-974.5242 328.5993,-974.5242 314.4085,-960.1889 267,-931.5242 253.5931,-923.4179 240.4659,-912.2256 229.6943,-901.9037"/>
<polygon fill="#000000" stroke="#000000" points="231.8714,-899.1347 222.2969,-894.5982 226.9527,-904.1153 231.8714,-899.1347"/>
</g>
<!-- 140543358555416 -->
<g id="node11" class="node">
<title>140543358555416</title>
<polygon fill="none" stroke="#000000" points="1092,-934.5242 763,-934.5242 763,-898.5242 1092,-898.5242 1092,-934.5242"/>
<text text-anchor="middle" x="927.5" y="-912.8242" font-family="Times,serif" font-size="14.00" fill="#000000">MarketSummarySingleton:getMarketSummaryDataBean</text>
</g>
<!-- 140543358555416&#45;&gt;140543358557936 -->
<g id="edge19" class="edge">
<title>140543358555416&#45;&gt;140543358557936</title>
<path fill="none" stroke="#000000" d="M762.9236,-927.5334C680.048,-932.1753 577.9904,-936.5242 486.5,-936.5242 384,-936.5242 384,-936.5242 384,-936.5242 329.9938,-936.5242 271.5981,-911.2657 236.4182,-892.9924"/>
<polygon fill="#000000" stroke="#000000" points="238.0355,-889.8884 227.5628,-888.284 234.7492,-896.0691 238.0355,-889.8884"/>
</g>
<!-- 140543361077880 -->
<g id="node12" class="node">
<title>140543361077880</title>
<polygon fill="none" stroke="#000000" points="1075.5,-880.5242 779.5,-880.5242 779.5,-844.5242 1075.5,-844.5242 1075.5,-880.5242"/>
<text text-anchor="middle" x="927.5" y="-858.8242" font-family="Times,serif" font-size="14.00" fill="#000000">MarketSummaryWebSocket:sendMarketSummary</text>
</g>
<!-- 140543361077880&#45;&gt;140543358557936 -->
<g id="edge1" class="edge">
<title>140543361077880&#45;&gt;140543358557936</title>
<path fill="none" stroke="#000000" d="M780.4934,-880.5506C694.8607,-889.5418 584.73,-898.5242 486.5,-898.5242 384,-898.5242 384,-898.5242 384,-898.5242 333.9288,-898.5242 276.7047,-889.2867 240.4752,-882.2736"/>
<polygon fill="#000000" stroke="#000000" points="240.877,-878.7852 230.3871,-880.2728 239.5151,-885.6514 240.877,-878.7852"/>
</g>
<!-- 140543361098304 -->
<g id="node13" class="node">
<title>140543361098304</title>
<polygon fill="none" stroke="#000000" points="721.5,-348.5242 567.5,-348.5242 567.5,-312.5242 721.5,-312.5242 721.5,-348.5242"/>
<text text-anchor="middle" x="644.5" y="-326.8242" font-family="Times,serif" font-size="14.00" fill="#000000">OrdersAlertFilter:destroy</text>
</g>
<!-- 140543361098304&#45;&gt;140543358092344 -->
<g id="edge22" class="edge">
<title>140543361098304&#45;&gt;140543358092344</title>
<path fill="none" stroke="#000000" d="M721.9825,-333.4816C840.6201,-336.8156 1074.1391,-338.6605 1270,-311.5242 1317.194,-304.9855 1328.5467,-299.8079 1374,-285.5242 1383.266,-282.6124 1393.1446,-279.0664 1402.265,-275.6035"/>
<polygon fill="#000000" stroke="#000000" points="1403.7374,-278.7867 1411.7992,-271.9123 1401.2101,-272.2588 1403.7374,-278.7867"/>
</g>
<!-- 140543361078048 -->
<g id="node14" class="node">
<title>140543361078048</title>
<polygon fill="none" stroke="#000000" points="1009.5,-826.5242 845.5,-826.5242 845.5,-790.5242 1009.5,-790.5242 1009.5,-826.5242"/>
<text text-anchor="middle" x="927.5" y="-804.8242" font-family="Times,serif" font-size="14.00" fill="#000000">QuoteDataBean:getChange</text>
</g>
<!-- 140543361078048&#45;&gt;140543358557936 -->
<g id="edge12" class="edge">
<title>140543361078048&#45;&gt;140543358557936</title>
<path fill="none" stroke="#000000" d="M845.4595,-802.5777C756.9395,-796.6822 611.8084,-788.5242 486.5,-788.5242 384,-788.5242 384,-788.5242 384,-788.5242 330.0902,-788.5242 314.6221,-795.2575 267,-820.5242 253.5857,-827.6414 240.5366,-838.0533 229.8264,-847.8399"/>
<polygon fill="#000000" stroke="#000000" points="227.3287,-845.3847 222.4693,-854.7994 232.1392,-850.4699 227.3287,-845.3847"/>
</g>
<!-- 140543358556536 -->
<g id="node15" class="node">
<title>140543358556536</title>
<polygon fill="none" stroke="#000000" points="1003,-772.5242 852,-772.5242 852,-736.5242 1003,-736.5242 1003,-772.5242"/>
<text text-anchor="middle" x="927.5" y="-750.8242" font-family="Times,serif" font-size="14.00" fill="#000000">QuoteDataBean:getPrice</text>
</g>
<!-- 140543358556536&#45;&gt;140543358557936 -->
<g id="edge11" class="edge">
<title>140543358556536&#45;&gt;140543358557936</title>
<path fill="none" stroke="#000000" d="M851.8082,-753.4206C763.9651,-752.2366 614.7475,-750.5242 486.5,-750.5242 384,-750.5242 384,-750.5242 384,-750.5242 328.8996,-750.5242 311.5454,-759.0934 267,-791.5242 248.6922,-804.8529 233.2253,-824.9923 222.1984,-842.0947"/>
<polygon fill="#000000" stroke="#000000" points="219.1505,-840.3682 216.8452,-850.7092 225.0961,-844.0629 219.1505,-840.3682"/>
</g>
<!-- 140543361077376 -->
<g id="node16" class="node">
<title>140543361077376</title>
<polygon fill="none" stroke="#000000" points="1010.5,-718.5242 844.5,-718.5242 844.5,-682.5242 1010.5,-682.5242 1010.5,-718.5242"/>
<text text-anchor="middle" x="927.5" y="-696.8242" font-family="Times,serif" font-size="14.00" fill="#000000">QuoteDataBean:getSymbol</text>
</g>
<!-- 140543361077376&#45;&gt;140543358557936 -->
<g id="edge6" class="edge">
<title>140543361077376&#45;&gt;140543358557936</title>
<path fill="none" stroke="#000000" d="M844.2051,-704.1409C755.5488,-707.6742 611.1516,-712.5242 486.5,-712.5242 384,-712.5242 384,-712.5242 384,-712.5242 328.5993,-712.5242 308.7218,-719.0752 267,-755.5242 241.7114,-777.6168 224.9666,-812.3846 215.1398,-838.6467"/>
<polygon fill="#000000" stroke="#000000" points="211.7769,-837.6567 211.7089,-848.2513 218.369,-840.0115 211.7769,-837.6567"/>
</g>
<!-- 140543361078216 -->
<g id="node17" class="node">
<title>140543361078216</title>
<polygon fill="none" stroke="#000000" points="1026,-664.5242 829,-664.5242 829,-628.5242 1026,-628.5242 1026,-664.5242"/>
<text text-anchor="middle" x="927.5" y="-642.8242" font-family="Times,serif" font-size="14.00" fill="#000000">RecentStockChangeList:isEmpty</text>
</g>
<!-- 140543361078216&#45;&gt;140543358557936 -->
<g id="edge2" class="edge">
<title>140543361078216&#45;&gt;140543358557936</title>
<path fill="none" stroke="#000000" d="M828.6552,-656.3959C739.3534,-664.4573 604.2601,-674.5242 486.5,-674.5242 384,-674.5242 384,-674.5242 384,-674.5242 328.8996,-674.5242 306.7369,-677.3532 267,-715.5242 232.8937,-748.2864 216.8402,-801.8304 209.578,-837.6139"/>
<polygon fill="#000000" stroke="#000000" points="206.0985,-837.1777 207.6755,-847.6545 212.9761,-838.4809 206.0985,-837.1777"/>
</g>
<!-- 140543358095312 -->
<g id="node18" class="node">
<title>140543358095312</title>
<polygon fill="none" stroke="#000000" points="1554,-279.5242 1500,-279.5242 1500,-243.5242 1554,-243.5242 1554,-279.5242"/>
<text text-anchor="middle" x="1527" y="-257.8242" font-family="Times,serif" font-size="14.00" fill="#000000">Root</text>
</g>
<!-- 140543358093408 -->
<g id="node47" class="node">
<title>140543358093408</title>
<ellipse fill="#ffa500" stroke="#000000" cx="1617" cy="-261.5242" rx="27" ry="27"/>
</g>
<!-- 140543358095312&#45;&gt;140543358093408 -->
<g id="edge9" class="edge">
<title>140543358095312&#45;&gt;140543358093408</title>
<path fill="none" stroke="#000000" d="M1554.003,-261.5242C1562.0277,-261.5242 1570.9665,-261.5242 1579.5309,-261.5242"/>
<polygon fill="#000000" stroke="#000000" points="1579.7051,-265.0243 1589.705,-261.5242 1579.705,-258.0243 1579.7051,-265.0243"/>
</g>
<!-- 140543358557656 -->
<g id="node19" class="node">
<title>140543358557656</title>
<polygon fill="none" stroke="#000000" points="1027,-610.5242 828,-610.5242 828,-574.5242 1027,-574.5242 1027,-610.5242"/>
<text text-anchor="middle" x="927.5" y="-588.8242" font-family="Times,serif" font-size="14.00" fill="#000000">TradeAction:getMarketSummary</text>
</g>
<!-- 140543358557656&#45;&gt;140543358557936 -->
<g id="edge15" class="edge">
<title>140543358557656&#45;&gt;140543358557936</title>
<path fill="none" stroke="#000000" d="M827.949,-608.1608C738.7517,-620.8077 604.2222,-636.5242 486.5,-636.5242 384,-636.5242 384,-636.5242 384,-636.5242 329.045,-636.5242 305.4416,-637.2522 267,-676.5242 244.3961,-699.6163 222.5749,-787.3609 211.5114,-837.9563"/>
<polygon fill="#000000" stroke="#000000" points="208.0643,-837.3385 209.3813,-847.8512 214.9075,-838.8118 208.0643,-837.3385"/>
</g>
<!-- 140543358555976 -->
<g id="node20" class="node">
<title>140543358555976</title>
<polygon fill="none" stroke="#000000" points="1014,-556.5242 841,-556.5242 841,-520.5242 1014,-520.5242 1014,-556.5242"/>
<text text-anchor="middle" x="927.5" y="-534.8242" font-family="Times,serif" font-size="14.00" fill="#000000">TradeConfig:getActionTrace</text>
</g>
<!-- 140543358555976&#45;&gt;140543358557936 -->
<g id="edge8" class="edge">
<title>140543358555976&#45;&gt;140543358557936</title>
<path fill="none" stroke="#000000" d="M840.5998,-551.4162C815.4826,-555.5128 788.0827,-560.3396 763,-565.5242 746.849,-568.8626 743.2484,-571.6979 727,-574.5242 621.1693,-592.9328 593.9198,-598.5242 486.5,-598.5242 384,-598.5242 384,-598.5242 384,-598.5242 329.1872,-598.5242 304.5398,-597.5842 267,-637.5242 239.9058,-666.3507 218.9487,-778.2222 209.4968,-837.3752"/>
<polygon fill="#000000" stroke="#000000" points="206.0115,-837.009 207.9198,-847.4305 212.927,-838.0936 206.0115,-837.009"/>
</g>
<!-- 140543358557208 -->
<g id="node21" class="node">
<title>140543358557208</title>
<polygon fill="none" stroke="#000000" points="1022.5,-502.5242 832.5,-502.5242 832.5,-466.5242 1022.5,-466.5242 1022.5,-502.5242"/>
<text text-anchor="middle" x="927.5" y="-480.8242" font-family="Times,serif" font-size="14.00" fill="#000000">TradeConfig:getRunTimeMode</text>
</g>
<!-- 140543358557208&#45;&gt;140543358557936 -->
<g id="edge21" class="edge">
<title>140543358557208&#45;&gt;140543358557936</title>
<path fill="none" stroke="#000000" d="M832.4444,-492.7883C809.1745,-496.7893 784.7278,-502.7238 763,-511.5242 744.9451,-518.837 745.277,-529.7857 727,-536.5242 626.2121,-573.6835 593.9198,-560.5242 486.5,-560.5242 384,-560.5242 384,-560.5242 384,-560.5242 329.3261,-560.5242 303.8896,-558.1709 267,-598.5242 235.286,-633.2159 215.7939,-770.1364 207.964,-837.1619"/>
<polygon fill="#000000" stroke="#000000" points="204.4644,-836.9601 206.8074,-847.2926 211.4192,-837.7542 204.4644,-836.9601"/>
</g>
<!-- 140543361079056 -->
<g id="node22" class="node">
<title>140543361079056</title>
<polygon fill="none" stroke="#000000" points="996,-448.5242 859,-448.5242 859,-412.5242 996,-412.5242 996,-448.5242"/>
<text text-anchor="middle" x="927.5" y="-426.8242" font-family="Times,serif" font-size="14.00" fill="#000000">TradeConfig:getTrace</text>
</g>
<!-- 140543361079056&#45;&gt;140543358557936 -->
<g id="edge24" class="edge">
<title>140543361079056&#45;&gt;140543358557936</title>
<path fill="none" stroke="#000000" d="M858.8455,-431.4189C827.9416,-434.3529 791.9777,-441.4496 763,-457.5242 741.7944,-469.2874 748.5667,-487.437 727,-498.5242 631.4651,-547.6373 593.9198,-522.5242 486.5,-522.5242 384,-522.5242 384,-522.5242 384,-522.5242 329.4618,-522.5242 303.4086,-518.9183 267,-559.5242 230.5381,-600.1895 212.9913,-763.0253 206.7597,-837.2798"/>
<polygon fill="#000000" stroke="#000000" points="203.2452,-837.3164 205.9215,-847.5676 210.2221,-837.8849 203.2452,-837.3164"/>
</g>
<!-- 140543358556256 -->
<g id="node23" class="node">
<title>140543358556256</title>
<polygon fill="none" stroke="#000000" points="1038,-394.5242 817,-394.5242 817,-358.5242 1038,-358.5242 1038,-394.5242"/>
<text text-anchor="middle" x="927.5" y="-372.8242" font-family="Times,serif" font-size="14.00" fill="#000000">TradeConfig:useRemoteEJBInterface</text>
</g>
<!-- 140543358556256&#45;&gt;140543358557936 -->
<g id="edge23" class="edge">
<title>140543358556256&#45;&gt;140543358557936</title>
<path fill="none" stroke="#000000" d="M816.9736,-392.7566C798.8649,-395.9627 780.3548,-399.5735 763,-403.5242 638.1409,-431.9475 614.5534,-484.5242 486.5,-484.5242 384,-484.5242 384,-484.5242 384,-484.5242 329.5941,-484.5242 303.0463,-479.7729 267,-520.5242 225.7363,-567.1739 210.5233,-756.1746 205.8201,-837.2711"/>
<polygon fill="#000000" stroke="#000000" points="202.3109,-837.3398 205.2488,-847.5191 209.3001,-837.7295 202.3109,-837.3398"/>
</g>
<!-- 140543361078384 -->
<g id="node24" class="node">
<title>140543361078384</title>
<polygon fill="none" stroke="#000000" points="1038.5,-1366.5242 816.5,-1366.5242 816.5,-1330.5242 1038.5,-1330.5242 1038.5,-1366.5242"/>
<text text-anchor="middle" x="927.5" y="-1344.8242" font-family="Times,serif" font-size="14.00" fill="#000000">TradeSLSBBean:getMarketSummary</text>
</g>
<!-- 140543361078384&#45;&gt;140543358557936 -->
<g id="edge7" class="edge">
<title>140543361078384&#45;&gt;140543358557936</title>
<path fill="none" stroke="#000000" d="M870.3731,-1366.5443C786.9265,-1391.2263 626.4005,-1432.5242 486.5,-1432.5242 384,-1432.5242 384,-1432.5242 384,-1432.5242 313.2328,-1432.5242 299.8191,-1387.2211 267,-1324.5242 229.4391,-1252.7687 211.6016,-1006.612 206.0124,-911.9914"/>
<polygon fill="#000000" stroke="#000000" points="209.4915,-911.5267 205.4204,-901.7453 202.5032,-911.9306 209.4915,-911.5267"/>
</g>
<!-- 140543361080568 -->
<g id="node25" class="node">
<title>140543361080568</title>
<polygon fill="none" stroke="#000000" points="1057.5,-87.5242 797.5,-87.5242 797.5,-51.5242 1057.5,-51.5242 1057.5,-87.5242"/>
<text text-anchor="middle" x="927.5" y="-65.8242" font-family="Times,serif" font-size="14.00" fill="#000000">TradeWebContextListener:contextDestroyed</text>
</g>
<!-- 140543361080344 -->
<g id="node46" class="node">
<title>140543361080344</title>
<ellipse fill="none" stroke="#000000" cx="1199" cy="-100.5242" rx="27" ry="27"/>
<text text-anchor="middle" x="1199" y="-96.8242" font-family="Times,serif" font-size="14.00" fill="#000000">p_9</text>
</g>
<!-- 140543361080568&#45;&gt;140543361080344 -->
<g id="edge18" class="edge">
<title>140543361080568&#45;&gt;140543361080344</title>
<path fill="none" stroke="#000000" d="M1057.6835,-84.3886C1095.8891,-88.7509 1134.6835,-93.1805 1161.9348,-96.2921"/>
<polygon fill="#000000" stroke="#000000" points="1161.816,-99.8012 1172.1486,-97.4583 1162.6102,-92.8464 1161.816,-99.8012"/>
</g>
<!-- 140543361078888 -->
<g id="node26" class="node">
<title>140543361078888</title>
<polygon fill="none" stroke="#000000" points="991.5,-1312.5242 863.5,-1312.5242 863.5,-1276.5242 991.5,-1276.5242 991.5,-1312.5242"/>
<text text-anchor="middle" x="927.5" y="-1290.8242" font-family="Times,serif" font-size="14.00" fill="#000000">new ActionMessage</text>
</g>
<!-- 140543361078888&#45;&gt;140543358557936 -->
<g id="edge17" class="edge">
<title>140543361078888&#45;&gt;140543358557936</title>
<path fill="none" stroke="#000000" d="M863.2563,-1290.7324C777.4223,-1286.001 620.5725,-1278.5242 486.5,-1278.5242 384,-1278.5242 384,-1278.5242 384,-1278.5242 318.9333,-1278.5242 301.6374,-1245.6053 267,-1190.5242 237.907,-1144.2599 216.524,-984.5342 208.0297,-911.4956"/>
<polygon fill="#000000" stroke="#000000" points="211.4855,-910.9091 206.8705,-901.3722 204.5309,-911.7055 211.4855,-910.9091"/>
</g>
<!-- 140543358557432 -->
<g id="node27" class="node">
<title>140543358557432</title>
<polygon fill="none" stroke="#000000" points="983,-1258.5242 872,-1258.5242 872,-1222.5242 983,-1222.5242 983,-1258.5242"/>
<text text-anchor="middle" x="927.5" y="-1236.8242" font-family="Times,serif" font-size="14.00" fill="#000000">new TradeAction</text>
</g>
<!-- 140543358557432&#45;&gt;140543358557936 -->
<g id="edge14" class="edge">
<title>140543358557432&#45;&gt;140543358557936</title>
<path fill="none" stroke="#000000" d="M871.8308,-1237.209C788.2044,-1232.5225 625.1693,-1224.5242 486.5,-1224.5242 384,-1224.5242 384,-1224.5242 384,-1224.5242 244.4958,-1224.5242 213.0195,-1001.9084 205.9923,-911.7598"/>
<polygon fill="#000000" stroke="#000000" points="209.4769,-911.4195 205.2674,-901.6969 202.495,-911.9225 209.4769,-911.4195"/>
</g>
<!-- 140543358094752 -->
<g id="node28" class="node">
<title>140543358094752</title>
<polygon fill="none" stroke="#000000" points="526,-404.5242 447,-404.5242 447,-368.5242 526,-368.5242 526,-404.5242"/>
<text text-anchor="middle" x="486.5" y="-382.8242" font-family="Times,serif" font-size="14.00" fill="#000000">init_loop_2</text>
</g>
<!-- 140543358094024 -->
<g id="node42" class="node">
<title>140543358094024</title>
<ellipse fill="none" stroke="#000000" cx="644.5" cy="-843.5242" rx="27" ry="27"/>
<text text-anchor="middle" x="644.5" y="-839.8242" font-family="Times,serif" font-size="14.00" fill="#000000">p_5</text>
</g>
<!-- 140543358094752&#45;&gt;140543358094024 -->
<g id="edge28" class="edge">
<title>140543358094752&#45;&gt;140543358094024</title>
<path fill="none" stroke="#000000" d="M505.4252,-404.8408C512.7243,-412.7708 520.5985,-422.5209 526,-432.5242 594.7729,-559.8871 627.5157,-731.5645 639.2259,-806.243"/>
<polygon fill="#000000" stroke="#000000" points="635.8293,-807.1855 640.8028,-816.5405 642.7487,-806.1259 635.8293,-807.1855"/>
</g>
<!-- 140543361080008 -->
<g id="node29" class="node">
<title>140543361080008</title>
<polygon fill="none" stroke="#000000" points="526,-139.5242 447,-139.5242 447,-103.5242 526,-103.5242 526,-139.5242"/>
<text text-anchor="middle" x="486.5" y="-117.8242" font-family="Times,serif" font-size="14.00" fill="#000000">init_loop_6</text>
</g>
<!-- 140543358556648 -->
<g id="node45" class="node">
<title>140543358556648</title>
<ellipse fill="none" stroke="#000000" cx="644.5" cy="-96.5242" rx="27" ry="27"/>
<text text-anchor="middle" x="644.5" y="-92.8242" font-family="Times,serif" font-size="14.00" fill="#000000">p_8</text>
</g>
<!-- 140543361080008&#45;&gt;140543358556648 -->
<g id="edge29" class="edge">
<title>140543361080008&#45;&gt;140543358556648</title>
<path fill="none" stroke="#000000" d="M526.3701,-115.2156C551.3273,-111.2667 583.255,-106.2149 607.6243,-102.359"/>
<polygon fill="#000000" stroke="#000000" points="608.2331,-105.8063 617.5632,-100.7863 607.139,-98.8923 608.2331,-105.8063"/>
</g>
<!-- 140543358094640 -->
<g id="node30" class="node">
<title>140543358094640</title>
<polygon fill="none" stroke="#000000" points="513.5,-861.5242 459.5,-861.5242 459.5,-825.5242 513.5,-825.5242 513.5,-861.5242"/>
<text text-anchor="middle" x="486.5" y="-839.8242" font-family="Times,serif" font-size="14.00" fill="#000000">loop_3</text>
</g>
<!-- 140543358094640&#45;&gt;140543358094024 -->
<g id="edge30" class="edge">
<title>140543358094640&#45;&gt;140543358094024</title>
<path fill="none" stroke="#000000" d="M513.6612,-843.5242C539.5144,-843.5242 578.6289,-843.5242 607.3584,-843.5242"/>
<polygon fill="#000000" stroke="#000000" points="607.4294,-847.0243 617.4293,-843.5242 607.4293,-840.0243 607.4294,-847.0243"/>
</g>
<!-- 140543361080232 -->
<g id="node31" class="node">
<title>140543361080232</title>
<polygon fill="none" stroke="#000000" points="1554,-46.5242 1500,-46.5242 1500,-10.5242 1554,-10.5242 1554,-46.5242"/>
<text text-anchor="middle" x="1527" y="-24.8242" font-family="Times,serif" font-size="14.00" fill="#000000">loop_7</text>
</g>
<!-- 140543361080232&#45;&gt;140543358556648 -->
<g id="edge31" class="edge">
<title>140543361080232&#45;&gt;140543358556648</title>
<path fill="none" stroke="#000000" d="M1499.9373,-21.8886C1463.7387,-13.6086 1397.4476,-.5242 1340,-.5242 1199,-.5242 1199,-.5242 1199,-.5242 1004.3252,-.5242 951.041,7.8629 763,-42.5242 732.6743,-50.6502 700.3801,-65.8499 677.1764,-78.058"/>
<polygon fill="#000000" stroke="#000000" points="675.2914,-75.0972 668.1322,-82.9073 678.5992,-81.2664 675.2914,-75.0972"/>
</g>
<!-- 140543361097856 -->
<g id="node32" class="node">
<title>140543361097856</title>
<polygon fill="none" stroke="#000000" points="1369.5,-172.5242 1310.5,-172.5242 1310.5,-136.5242 1369.5,-136.5242 1369.5,-172.5242"/>
<text text-anchor="middle" x="1340" y="-150.8242" font-family="Times,serif" font-size="14.00" fill="#000000">skip_10</text>
</g>
<!-- 140543361097856&#45;&gt;140543358092344 -->
<g id="edge68" class="edge">
<title>140543361097856&#45;&gt;140543358092344</title>
<path fill="none" stroke="#000000" d="M1360.1555,-172.7576C1364.8043,-177.1633 1369.6571,-181.929 1374,-186.5242 1387.7672,-201.0913 1402.2121,-218.1433 1413.7923,-232.3041"/>
<polygon fill="#000000" stroke="#000000" points="1411.2343,-234.7065 1420.2526,-240.267 1416.6702,-230.2962 1411.2343,-234.7065"/>
</g>
<!-- 140543361079448 -->
<g id="node33" class="node">
<title>140543361079448</title>
<polygon fill="none" stroke="#000000" points="321,-865.5242 267,-865.5242 267,-829.5242 321,-829.5242 321,-865.5242"/>
<text text-anchor="middle" x="294" y="-843.8242" font-family="Times,serif" font-size="14.00" fill="#000000">skip_4</text>
</g>
<!-- 140543358557152 -->
<g id="node44" class="node">
<title>140543358557152</title>
<ellipse fill="none" stroke="#000000" cx="384" cy="-843.5242" rx="27" ry="27"/>
<text text-anchor="middle" x="384" y="-839.8242" font-family="Times,serif" font-size="14.00" fill="#000000">p_7</text>
</g>
<!-- 140543361079448&#45;&gt;140543358557152 -->
<g id="edge69" class="edge">
<title>140543361079448&#45;&gt;140543358557152</title>
<path fill="none" stroke="#000000" d="M321.003,-846.3241C329.1013,-845.9641 338.1306,-845.5628 346.7665,-845.179"/>
<polygon fill="#000000" stroke="#000000" points="347.1814,-848.6641 357.0161,-844.7235 346.8705,-841.671 347.1814,-848.6641"/>
</g>
<!-- 140543361079672 -->
<g id="node34" class="node">
<title>140543361079672</title>
<polygon fill="none" stroke="#000000" points="411,-1365.5242 357,-1365.5242 357,-1329.5242 411,-1329.5242 411,-1365.5242"/>
<text text-anchor="middle" x="384" y="-1343.8242" font-family="Times,serif" font-size="14.00" fill="#000000">skip_5</text>
</g>
<!-- 140543361079672&#45;&gt;140543358092344 -->
<g id="edge70" class="edge">
<title>140543361079672&#45;&gt;140543358092344</title>
<path fill="none" stroke="#000000" d="M411.088,-1355.711C458.1122,-1369.1768 558.1029,-1394.5242 644.5,-1394.5242 644.5,-1394.5242 644.5,-1394.5242 1199,-1394.5242 1313.7173,-1394.5242 1413.107,-493.4509 1433.2728,-298.4499"/>
<polygon fill="#000000" stroke="#000000" points="1436.7634,-298.7192 1434.305,-288.4136 1429.8002,-298.003 1436.7634,-298.7192"/>
</g>
<!-- 140543361080736 -->
<g id="node35" class="node">
<title>140543361080736</title>
<polygon fill="none" stroke="#000000" points="954.5,-141.5242 900.5,-141.5242 900.5,-105.5242 954.5,-105.5242 954.5,-141.5242"/>
<text text-anchor="middle" x="927.5" y="-119.8242" font-family="Times,serif" font-size="14.00" fill="#000000">skip_8</text>
</g>
<!-- 140543361080736&#45;&gt;140543361080344 -->
<g id="edge71" class="edge">
<title>140543361080736&#45;&gt;140543361080344</title>
<path fill="none" stroke="#000000" d="M954.525,-121.2348C1003.4152,-117.0931 1106.6032,-108.3515 1161.9969,-103.6589"/>
<polygon fill="#000000" stroke="#000000" points="1162.4154,-107.1361 1172.0843,-102.8043 1161.8245,-100.161 1162.4154,-107.1361"/>
</g>
<!-- 140543361081240 -->
<g id="node36" class="node">
<title>140543361081240</title>
<polygon fill="none" stroke="#000000" points="1367,-118.5242 1313,-118.5242 1313,-82.5242 1367,-82.5242 1367,-118.5242"/>
<text text-anchor="middle" x="1340" y="-96.8242" font-family="Times,serif" font-size="14.00" fill="#000000">skip_9</text>
</g>
<!-- 140543361081240&#45;&gt;140543361080456 -->
<g id="edge72" class="edge">
<title>140543361081240&#45;&gt;140543361080456</title>
<path fill="none" stroke="#000000" d="M1367.0199,-87.9892C1378.2551,-82.777 1391.4175,-76.6707 1403.2767,-71.169"/>
<polygon fill="#000000" stroke="#000000" points="1404.848,-74.2984 1412.4464,-66.915 1401.9021,-67.9485 1404.848,-74.2984"/>
</g>
<!-- 140543358093016 -->
<g id="node37" class="node">
<title>140543358093016</title>
<polygon fill="none" stroke="#000000" points="321,-283.5242 267,-283.5242 267,-247.5242 321,-247.5242 321,-283.5242"/>
<text text-anchor="middle" x="294" y="-261.8242" font-family="Times,serif" font-size="14.00" fill="#000000">tau_1</text>
</g>
<!-- 140543358093184 -->
<g id="node40" class="node">
<title>140543358093184</title>
<ellipse fill="none" stroke="#000000" cx="384" cy="-265.5242" rx="27" ry="27"/>
<text text-anchor="middle" x="384" y="-261.8242" font-family="Times,serif" font-size="14.00" fill="#000000">p_3</text>
</g>
<!-- 140543358093016&#45;&gt;140543358093184 -->
<g id="edge74" class="edge">
<title>140543358093016&#45;&gt;140543358093184</title>
<path fill="none" stroke="#000000" d="M321.003,-265.5242C329.0277,-265.5242 337.9665,-265.5242 346.5309,-265.5242"/>
<polygon fill="#000000" stroke="#000000" points="346.7051,-269.0243 356.705,-265.5242 346.705,-262.0243 346.7051,-269.0243"/>
</g>
<!-- 140543358093128 -->
<g id="node38" class="node">
<title>140543358093128</title>
<ellipse fill="#00ff00" stroke="#000000" cx="204" cy="-265.5242" rx="27" ry="27"/>
<text text-anchor="middle" x="204" y="-261.8242" font-family="Times,serif" font-size="14.00" fill="#000000">1</text>
</g>
<!-- 140543358093128&#45;&gt;140543358093016 -->
<g id="edge73" class="edge">
<title>140543358093128&#45;&gt;140543358093016</title>
<path fill="none" stroke="#000000" d="M231.003,-265.5242C239.0277,-265.5242 247.9665,-265.5242 256.5309,-265.5242"/>
<polygon fill="#000000" stroke="#000000" points="256.7051,-269.0243 266.705,-265.5242 256.705,-262.0243 256.7051,-269.0243"/>
</g>
<!-- 140543361080456&#45;&gt;140543361080232 -->
<g id="edge32" class="edge">
<title>140543361080456&#45;&gt;140543361080232</title>
<path fill="none" stroke="#000000" d="M1463.0317,-47.7147C1471.4955,-45.1755 1481.055,-42.3077 1490.1543,-39.5779"/>
<polygon fill="#000000" stroke="#000000" points="1491.2013,-42.918 1499.7738,-36.692 1489.1898,-36.2132 1491.2013,-42.918"/>
</g>
<!-- 140543358093184&#45;&gt;140543361080288 -->
<g id="edge35" class="edge">
<title>140543358093184&#45;&gt;140543361080288</title>
<path fill="none" stroke="#000000" d="M410.965,-267.4947C422.1135,-268.2421 435.174,-269.031 447,-269.5242 697.1784,-279.9566 994.4877,-283.1763 1127.9565,-284.1353"/>
<polygon fill="#000000" stroke="#000000" points="1128.0264,-287.6358 1138.0506,-284.2058 1128.0753,-280.636 1128.0264,-287.6358"/>
</g>
<!-- 140543358093184&#45;&gt;140543361098472 -->
<g id="edge33" class="edge">
<title>140543358093184&#45;&gt;140543361098472</title>
<path fill="none" stroke="#000000" d="M410.8969,-262.7364C443.9765,-259.3078 501.8786,-253.3064 551.7579,-248.1366"/>
<polygon fill="#000000" stroke="#000000" points="552.3561,-251.5935 561.942,-247.0811 551.6344,-244.6307 552.3561,-251.5935"/>
</g>
<!-- 140543358093184&#45;&gt;140543361098640 -->
<g id="edge34" class="edge">
<title>140543358093184&#45;&gt;140543361098640</title>
<path fill="none" stroke="#000000" d="M409.1415,-255.5783C443.1689,-242.6582 506.0686,-220.6757 562,-211.5242 759.3373,-179.236 995.531,-183.0679 1117.3609,-188.1123"/>
<polygon fill="#000000" stroke="#000000" points="1117.5775,-191.6247 1127.7181,-188.5556 1117.8769,-184.6311 1117.5775,-191.6247"/>
</g>
<!-- 140543358093184&#45;&gt;140543361098304 -->
<g id="edge36" class="edge">
<title>140543358093184&#45;&gt;140543361098304</title>
<path fill="none" stroke="#000000" d="M407.1337,-279.9395C418.7121,-286.5483 433.1772,-293.9193 447,-298.5242 482.093,-310.2149 522.1644,-317.7166 557.0002,-322.4915"/>
<polygon fill="#000000" stroke="#000000" points="556.7824,-325.9929 567.1535,-323.8272 557.6955,-319.0527 556.7824,-325.9929"/>
</g>
<!-- 140543358093184&#45;&gt;140543358094752 -->
<g id="edge37" class="edge">
<title>140543358093184&#45;&gt;140543358094752</title>
<path fill="none" stroke="#000000" d="M401.3212,-286.2672C413.9434,-301.3529 431.4787,-322.2488 447,-340.5242 452.462,-346.9553 458.3761,-353.8689 463.9236,-360.3323"/>
<polygon fill="#000000" stroke="#000000" points="461.5205,-362.9059 470.693,-368.2083 466.8291,-358.3432 461.5205,-362.9059"/>
</g>
<!-- 140543358093184&#45;&gt;140543361080008 -->
<g id="edge38" class="edge">
<title>140543358093184&#45;&gt;140543361080008</title>
<path fill="none" stroke="#000000" d="M399.791,-243.3398C418.033,-217.7119 448.0312,-175.5681 467.5248,-148.1821"/>
<polygon fill="#000000" stroke="#000000" points="470.5089,-150.0252 473.4565,-139.8487 464.8061,-145.9659 470.5089,-150.0252"/>
</g>
<!-- 140543358092344&#45;&gt;140543358095312 -->
<g id="edge39" class="edge">
<title>140543358092344&#45;&gt;140543358095312</title>
<path fill="none" stroke="#000000" d="M1464.003,-261.5242C1472.0277,-261.5242 1480.9665,-261.5242 1489.5309,-261.5242"/>
<polygon fill="#000000" stroke="#000000" points="1489.7051,-265.0243 1499.705,-261.5242 1489.705,-258.0243 1489.7051,-265.0243"/>
</g>
<!-- 140543358094024&#45;&gt;140543358557040 -->
<g id="edge58" class="edge">
<title>140543358094024&#45;&gt;140543358557040</title>
<path fill="none" stroke="#000000" d="M640.288,-816.5489C624.6593,-727.1948 561.4452,-446.5242 384,-446.5242 294,-446.5242 294,-446.5242 294,-446.5242 187.3557,-446.5242 111.7102,-575.2078 83.1153,-632.9992"/>
<polygon fill="#000000" stroke="#000000" points="79.8305,-631.7523 78.628,-642.2787 86.1324,-634.7997 79.8305,-631.7523"/>
</g>
<!-- 140543358094024&#45;&gt;140543361079224 -->
<g id="edge59" class="edge">
<title>140543358094024&#45;&gt;140543361079224</title>
<path fill="none" stroke="#000000" d="M645.954,-870.6672C650.8351,-932.6116 671.9729,-1084.8002 763,-1159.5242 782.2674,-1175.3408 807.1914,-1183.5706 831.7845,-1187.5285"/>
<polygon fill="#000000" stroke="#000000" points="831.5298,-1191.0266 841.9151,-1188.9298 832.489,-1184.0926 831.5298,-1191.0266"/>
</g>
<!-- 140543358094024&#45;&gt;140543361077544 -->
<g id="edge43" class="edge">
<title>140543358094024&#45;&gt;140543361077544</title>
<path fill="none" stroke="#000000" d="M648.2519,-870.5535C657.2899,-924.6498 685.5622,-1046.1209 763,-1105.5242 777.8905,-1116.9468 795.7921,-1124.3151 814.224,-1128.95"/>
<polygon fill="#000000" stroke="#000000" points="813.6748,-1132.4138 824.1989,-1131.1918 815.2098,-1125.5842 813.6748,-1132.4138"/>
</g>
<!-- 140543358094024&#45;&gt;140543361077712 -->
<g id="edge42" class="edge">
<title>140543358094024&#45;&gt;140543361077712</title>
<path fill="none" stroke="#000000" d="M651.4578,-869.9496C664.8383,-915.1583 698.6899,-1006.7856 763,-1051.5242 789.6811,-1070.0854 824.6106,-1077.5575 855.4167,-1080.0978"/>
<polygon fill="#000000" stroke="#000000" points="855.4783,-1083.6095 865.6881,-1080.7791 855.9417,-1076.6248 855.4783,-1083.6095"/>
</g>
<!-- 140543358094024&#45;&gt;140543361078552 -->
<g id="edge51" class="edge">
<title>140543358094024&#45;&gt;140543361078552</title>
<path fill="none" stroke="#000000" d="M655.9973,-868.2371C673.6771,-903.2411 711.0248,-966.4525 763,-997.5242 796.4302,-1017.5093 840.1727,-1023.9439 874.1467,-1025.5518"/>
<polygon fill="#000000" stroke="#000000" points="874.2392,-1029.057 884.3545,-1025.9055 874.4817,-1022.0612 874.2392,-1029.057"/>
</g>
<!-- 140543358094024&#45;&gt;140543361078720 -->
<g id="edge57" class="edge">
<title>140543358094024&#45;&gt;140543361078720</title>
<path fill="none" stroke="#000000" d="M662.3204,-864.1401C683.7283,-887.4454 721.9266,-924.5971 763,-943.5242 778.3806,-950.6117 795.3247,-955.8699 812.3137,-959.7646"/>
<polygon fill="#000000" stroke="#000000" points="811.7994,-963.2337 822.3104,-961.9037 813.2641,-956.3887 811.7994,-963.2337"/>
</g>
<!-- 140543358094024&#45;&gt;140543358555416 -->
<g id="edge53" class="edge">
<title>140543358094024&#45;&gt;140543358555416</title>
<path fill="none" stroke="#000000" d="M669.4155,-854.9476C693.0497,-865.3599 729.7882,-880.4582 763,-889.5242 772.0139,-891.9848 781.3706,-894.2541 790.8402,-896.3414"/>
<polygon fill="#000000" stroke="#000000" points="790.2299,-899.7898 800.7398,-898.451 791.6889,-892.9436 790.2299,-899.7898"/>
</g>
<!-- 140543358094024&#45;&gt;140543361077880 -->
<g id="edge40" class="edge">
<title>140543358094024&#45;&gt;140543361077880</title>
<path fill="none" stroke="#000000" d="M671.6352,-845.346C695.1931,-846.9276 731.3828,-849.3573 769.1962,-851.896"/>
<polygon fill="#000000" stroke="#000000" points="769.1525,-855.4009 779.3645,-852.5787 769.6214,-848.4166 769.1525,-855.4009"/>
</g>
<!-- 140543358094024&#45;&gt;140543361078048 -->
<g id="edge48" class="edge">
<title>140543358094024&#45;&gt;140543361078048</title>
<path fill="none" stroke="#000000" d="M671.3791,-840.1999C708.6691,-835.5881 777.9589,-827.0187 835.0738,-819.955"/>
<polygon fill="#000000" stroke="#000000" points="835.7256,-823.4011 845.2203,-818.7001 834.8663,-816.4541 835.7256,-823.4011"/>
</g>
<!-- 140543358094024&#45;&gt;140543358556536 -->
<g id="edge47" class="edge">
<title>140543358094024&#45;&gt;140543358556536</title>
<path fill="none" stroke="#000000" d="M667.5647,-828.6032C690.7522,-814.3044 727.984,-793.22 763,-781.5242 787.9606,-773.1871 815.9432,-767.3661 841.652,-763.3258"/>
<polygon fill="#000000" stroke="#000000" points="842.3877,-766.7546 851.7575,-761.8092 841.3487,-759.8322 842.3877,-766.7546"/>
</g>
<!-- 140543358094024&#45;&gt;140543361077376 -->
<g id="edge44" class="edge">
<title>140543358094024&#45;&gt;140543361077376</title>
<path fill="none" stroke="#000000" d="M660.1334,-821.4776C680.516,-794.568 718.8229,-749.893 763,-727.5242 784.7855,-716.4932 810.08,-709.8006 834.2039,-705.7849"/>
<polygon fill="#000000" stroke="#000000" points="834.7397,-709.2438 844.0962,-704.2732 833.6822,-702.3241 834.7397,-709.2438"/>
</g>
<!-- 140543358094024&#45;&gt;140543361078216 -->
<g id="edge41" class="edge">
<title>140543358094024&#45;&gt;140543361078216</title>
<path fill="none" stroke="#000000" d="M654.4592,-818.188C670.8813,-780.0225 707.4542,-708.5319 763,-673.5242 779.7563,-662.9635 799.31,-656.1197 818.9678,-651.7602"/>
<polygon fill="#000000" stroke="#000000" points="819.8136,-655.1602 828.9272,-649.7573 818.4335,-648.2976 819.8136,-655.1602"/>
</g>
<!-- 140543358094024&#45;&gt;140543358557656 -->
<g id="edge50" class="edge">
<title>140543358094024&#45;&gt;140543358557656</title>
<path fill="none" stroke="#000000" d="M650.3445,-817.0232C662.392,-769.1285 694.7774,-668.5845 763,-619.5242 779.0804,-607.9604 798.3196,-600.6498 817.8793,-596.1447"/>
<polygon fill="#000000" stroke="#000000" points="818.7215,-599.5448 827.807,-594.0946 817.3057,-592.6894 818.7215,-599.5448"/>
</g>
<!-- 140543358094024&#45;&gt;140543358555976 -->
<g id="edge46" class="edge">
<title>140543358094024&#45;&gt;140543358555976</title>
<path fill="none" stroke="#000000" d="M652.108,-817.4017C670.8933,-754.7082 721.0003,-598.4766 763,-565.5242 782.2117,-550.4509 806.629,-542.3807 830.7335,-538.3346"/>
<polygon fill="#000000" stroke="#000000" points="831.2755,-541.7926 840.6644,-536.8836 830.2635,-534.8662 831.2755,-541.7926"/>
</g>
<!-- 140543358094024&#45;&gt;140543358557208 -->
<g id="edge54" class="edge">
<title>140543358094024&#45;&gt;140543358557208</title>
<path fill="none" stroke="#000000" d="M652.1345,-817.4787C674.2414,-742.8292 738.2996,-532.1324 763,-511.5242 779.7657,-497.5361 800.9368,-489.4478 822.4604,-484.9968"/>
<polygon fill="#000000" stroke="#000000" points="823.146,-488.4296 832.3599,-483.1995 821.8955,-481.5422 823.146,-488.4296"/>
</g>
<!-- 140543358094024&#45;&gt;140543361079056 -->
<g id="edge56" class="edge">
<title>140543358094024&#45;&gt;140543361079056</title>
<path fill="none" stroke="#000000" d="M650.8833,-817.1755C671.2218,-734.17 734.8163,-482.1342 763,-457.5242 786.3071,-437.1724 818.8383,-429.1105 848.8237,-426.6229"/>
<polygon fill="#000000" stroke="#000000" points="849.1206,-430.1112 858.8781,-425.9833 848.6761,-423.1253 849.1206,-430.1112"/>
</g>
<!-- 140543358094024&#45;&gt;140543358556256 -->
<g id="edge55" class="edge">
<title>140543358094024&#45;&gt;140543358556256</title>
<path fill="none" stroke="#000000" d="M650.8045,-817.0024C673.0059,-724.0589 747.0841,-417.9174 763,-403.5242 775.5607,-392.1652 790.9739,-384.5883 807.2793,-379.658"/>
<polygon fill="#000000" stroke="#000000" points="808.2201,-383.0295 816.968,-377.0524 806.4021,-376.2697 808.2201,-383.0295"/>
</g>
<!-- 140543358094024&#45;&gt;140543361078384 -->
<g id="edge45" class="edge">
<title>140543358094024&#45;&gt;140543361078384</title>
<path fill="none" stroke="#000000" d="M647.34,-870.6188C657.5187,-962.3487 695.2167,-1258.9781 763,-1321.5242 775.2417,-1332.82 790.2937,-1340.4015 806.2735,-1345.3677"/>
<polygon fill="#000000" stroke="#000000" points="805.7563,-1348.8553 816.3264,-1348.1318 807.6121,-1342.1058 805.7563,-1348.8553"/>
</g>
<!-- 140543358094024&#45;&gt;140543361078888 -->
<g id="edge52" class="edge">
<title>140543358094024&#45;&gt;140543361078888</title>
<path fill="none" stroke="#000000" d="M648.2316,-870.4977C660.4989,-955.1491 702.2975,-1213.1484 763,-1267.5242 787.2175,-1289.2177 821.8589,-1297.071 853.1116,-1299.0536"/>
<polygon fill="#000000" stroke="#000000" points="852.9757,-1302.5509 863.122,-1299.5011 853.2883,-1295.5579 852.9757,-1302.5509"/>
</g>
<!-- 140543358094024&#45;&gt;140543358557432 -->
<g id="edge49" class="edge">
<title>140543358094024&#45;&gt;140543358557432</title>
<path fill="none" stroke="#000000" d="M649.3568,-870.3138C663.8794,-947.3996 709.3086,-1167.2098 763,-1213.5242 789.8111,-1236.6515 828.5665,-1243.8401 861.7264,-1245.0423"/>
<polygon fill="#000000" stroke="#000000" points="861.7535,-1248.5433 871.8183,-1245.2342 861.8867,-1241.5446 861.7535,-1248.5433"/>
</g>
<!-- 140543358557936&#45;&gt;140543361079448 -->
<g id="edge60" class="edge">
<title>140543358557936&#45;&gt;140543361079448</title>
<path fill="none" stroke="#000000" d="M230.0317,-866.7147C238.4955,-864.1755 248.055,-861.3077 257.1543,-858.5779"/>
<polygon fill="#000000" stroke="#000000" points="258.2013,-861.918 266.7738,-855.692 256.1898,-855.2132 258.2013,-861.918"/>
</g>
<!-- 140543358557936&#45;&gt;140543361079672 -->
<g id="edge61" class="edge">
<title>140543358557936&#45;&gt;140543361079672</title>
<path fill="none" stroke="#000000" d="M204.8237,-901.7961C207.8152,-984.4222 220.5129,-1230.1495 267,-1292.5242 286.2075,-1318.2962 320.5378,-1332.4455 347.0612,-1339.9108"/>
<polygon fill="#000000" stroke="#000000" points="346.2364,-1343.3127 356.7965,-1342.455 348.0064,-1336.5402 346.2364,-1343.3127"/>
</g>
<!-- 140543358557152&#45;&gt;140543358094640 -->
<g id="edge62" class="edge">
<title>140543358557152&#45;&gt;140543358094640</title>
<path fill="none" stroke="#000000" d="M411.199,-843.5242C422.7828,-843.5242 436.4866,-843.5242 449.0073,-843.5242"/>
<polygon fill="#000000" stroke="#000000" points="449.1739,-847.0243 459.1739,-843.5242 449.1739,-840.0243 449.1739,-847.0243"/>
</g>
<!-- 140543358556648&#45;&gt;140543361080568 -->
<g id="edge63" class="edge">
<title>140543358556648&#45;&gt;140543361080568</title>
<path fill="none" stroke="#000000" d="M671.3791,-93.9598C698.6366,-91.3592 742.9918,-87.1274 787.1919,-82.9105"/>
<polygon fill="#000000" stroke="#000000" points="787.588,-86.3887 797.2104,-81.9547 786.9231,-79.4203 787.588,-86.3887"/>
</g>
<!-- 140543358556648&#45;&gt;140543361080736 -->
<g id="edge64" class="edge">
<title>140543358556648&#45;&gt;140543361080736</title>
<path fill="none" stroke="#000000" d="M671.3791,-99.0886C722.1651,-103.9339 832.3055,-114.442 890.2085,-119.9663"/>
<polygon fill="#000000" stroke="#000000" points="890.0991,-123.4717 900.3863,-120.9374 890.764,-116.5034 890.0991,-123.4717"/>
</g>
<!-- 140543361080344&#45;&gt;140543361081072 -->
<g id="edge65" class="edge">
<title>140543361080344&#45;&gt;140543361081072</title>
<path fill="none" stroke="#000000" d="M1224.534,-90.7452C1244.5523,-83.0786 1272.872,-72.2328 1296.4545,-63.2012"/>
<polygon fill="#000000" stroke="#000000" points="1297.8113,-66.4296 1305.898,-59.5845 1295.3077,-59.8926 1297.8113,-66.4296"/>
</g>
<!-- 140543361080344&#45;&gt;140543361097856 -->
<g id="edge66" class="edge">
<title>140543361080344&#45;&gt;140543361097856</title>
<path fill="none" stroke="#000000" d="M1224.534,-110.3032C1245.8323,-118.46 1276.5275,-130.2156 1300.9166,-139.5561"/>
<polygon fill="#000000" stroke="#000000" points="1299.6687,-142.826 1310.2591,-143.134 1302.1723,-136.289 1299.6687,-142.826"/>
</g>
<!-- 140543361080344&#45;&gt;140543361081240 -->
<g id="edge67" class="edge">
<title>140543361080344&#45;&gt;140543361081240</title>
<path fill="none" stroke="#000000" d="M1226.1862,-100.5242C1247.9356,-100.5242 1278.6645,-100.5242 1302.7114,-100.5242"/>
<polygon fill="#000000" stroke="#000000" points="1302.8973,-104.0243 1312.8972,-100.5242 1302.8972,-97.0243 1302.8973,-104.0243"/>
</g>
</g>
</svg>
