<?xml version="1.0" encoding="UTF-8" standalone="no"?>
<!DOCTYPE svg PUBLIC "-//W3C//DTD SVG 1.1//EN"
 "http://www.w3.org/Graphics/SVG/1.1/DTD/svg11.dtd">
<!-- Generated by graphviz version 2.40.1 (20161225.0304)
 -->
<!-- Title: alpha_classic_net_1586496218.1412222 Pages: 1 -->
<svg width="370pt" height="386pt"
 viewBox="0.00 0.00 370.00 386.00" xmlns="http://www.w3.org/2000/svg" xmlns:xlink="http://www.w3.org/1999/xlink">
<g id="graph0" class="graph" transform="scale(1 1) rotate(0) translate(4 382)">
<title>alpha_classic_net_1586496218.1412222</title>
<!-- 139748205546296 -->
<g id="node1" class="node">
<title>139748205546296</title>
<polygon fill="none" stroke="#000000" points="128.5,-36 35.5,-36 35.5,0 128.5,0 128.5,-36"/>
<text text-anchor="middle" x="82" y="-14.3" font-family="Times,serif" font-size="14.00" fill="#000000">FinancialUtils</text>
</g>
<!-- 139748191231392 -->
<g id="node2" class="node">
<title>139748191231392</title>
<polygon fill="none" stroke="#000000" points="109,-90 55,-90 55,-54 109,-54 109,-90"/>
<text text-anchor="middle" x="82" y="-68.3" font-family="Times,serif" font-size="14.00" fill="#000000">Log</text>
</g>
<!-- 139748205546240 -->
<g id="node3" class="node">
<title>139748205546240</title>
<polygon fill="none" stroke="#000000" points="164,-144 0,-144 0,-108 164,-108 164,-144"/>
<text text-anchor="middle" x="82" y="-122.3" font-family="Times,serif" font-size="14.00" fill="#000000">MarketSummaryDataBean</text>
</g>
<!-- 139748205546352 -->
<g id="node4" class="node">
<title>139748205546352</title>
<polygon fill="none" stroke="#000000" points="362,-234 200,-234 200,-198 362,-198 362,-234"/>
<text text-anchor="middle" x="281" y="-212.3" font-family="Times,serif" font-size="14.00" fill="#000000">MarketSummarySingleton</text>
</g>
<!-- 139748205546576 -->
<g id="node5" class="node">
<title>139748205546576</title>
<polygon fill="none" stroke="#000000" points="133.5,-270 30.5,-270 30.5,-234 133.5,-234 133.5,-270"/>
<text text-anchor="middle" x="82" y="-248.3" font-family="Times,serif" font-size="14.00" fill="#000000">QuoteDataBean</text>
</g>
<!-- 139748205546464 -->
<g id="node6" class="node">
<title>139748205546464</title>
<polygon fill="none" stroke="#000000" points="109,-324 55,-324 55,-288 109,-288 109,-324"/>
<text text-anchor="middle" x="82" y="-302.3" font-family="Times,serif" font-size="14.00" fill="#000000">Root</text>
</g>
<!-- 139748205546800 -->
<g id="node10" class="node">
<title>139748205546800</title>
<ellipse fill="#ffa500" stroke="#000000" cx="281" cy="-306" rx="27" ry="27"/>
</g>
<!-- 139748205546464&#45;&gt;139748205546800 -->
<g id="edge1" class="edge">
<title>139748205546464&#45;&gt;139748205546800</title>
<path fill="none" stroke="#000000" d="M109.2528,-306C144.063,-306 204.4698,-306 243.575,-306"/>
<polygon fill="#000000" stroke="#000000" points="243.7578,-309.5001 253.7577,-306 243.7577,-302.5001 243.7578,-309.5001"/>
</g>
<!-- 139748205546520 -->
<g id="node7" class="node">
<title>139748205546520</title>
<polygon fill="none" stroke="#000000" points="125,-378 39,-378 39,-342 125,-342 125,-378"/>
<text text-anchor="middle" x="82" y="-356.3" font-family="Times,serif" font-size="14.00" fill="#000000">TradeConfig</text>
</g>
<!-- 139748205546408 -->
<g id="node8" class="node">
<title>139748205546408</title>
<polygon fill="none" stroke="#000000" points="343,-180 219,-180 219,-144 343,-144 343,-180"/>
<text text-anchor="middle" x="281" y="-158.3" font-family="Times,serif" font-size="14.00" fill="#000000">TradeConfigServlet</text>
</g>
<!-- 139748205546632 -->
<g id="node9" class="node">
<title>139748205546632</title>
<ellipse fill="#00ff00" stroke="#000000" cx="82" cy="-189" rx="27" ry="27"/>
<text text-anchor="middle" x="82" y="-185.3" font-family="Times,serif" font-size="14.00" fill="#000000">1</text>
</g>
<!-- 139748205546632&#45;&gt;139748205546352 -->
<g id="edge2" class="edge">
<title>139748205546632&#45;&gt;139748205546352</title>
<path fill="none" stroke="#000000" d="M108.838,-192.6413C129.8075,-195.4864 160.2443,-199.6161 189.7136,-203.6144"/>
<polygon fill="#000000" stroke="#000000" points="189.2756,-207.087 199.6554,-204.9633 190.2168,-200.1505 189.2756,-207.087"/>
</g>
<!-- 139748205546632&#45;&gt;139748205546408 -->
<g id="edge3" class="edge">
<title>139748205546632&#45;&gt;139748205546408</title>
<path fill="none" stroke="#000000" d="M108.838,-185.3587C134.3297,-181.9 173.8121,-176.5431 208.5394,-171.8313"/>
<polygon fill="#000000" stroke="#000000" points="209.2277,-175.2701 218.6664,-170.4573 208.2866,-168.3337 209.2277,-175.2701"/>
</g>
</g>
</svg>
