<?xml version="1.0" encoding="UTF-8" standalone="no"?>
<!DOCTYPE svg PUBLIC "-//W3C//DTD SVG 1.1//EN"
 "http://www.w3.org/Graphics/SVG/1.1/DTD/svg11.dtd">
<!-- Generated by graphviz version 2.40.1 (20161225.0304)
 -->
<!-- Title: %3 Pages: 1 -->
<svg width="2110pt" height="687pt"
 viewBox="0.00 0.00 2110.00 687.00" xmlns="http://www.w3.org/2000/svg" xmlns:xlink="http://www.w3.org/1999/xlink">
<g id="graph0" class="graph" transform="scale(1 1) rotate(0) translate(4 683)">
<title>%3</title>
<!-- 140531500824560 -->
<g id="node1" class="node">
<title>140531500824560</title>
<polygon fill="none" stroke="#000000" points="93,-59 0,-59 0,-23 93,-23 93,-59"/>
<text text-anchor="middle" x="46.5" y="-37.3" font-family="Times,serif" font-size="14.00" fill="#000000">FinancialUtils</text>
</g>
<!-- 140531498557736 -->
<g id="node49" class="node">
<title>140531498557736</title>
<ellipse fill="none" stroke="#000000" cx="156" cy="-74" rx="27" ry="27"/>
<text text-anchor="middle" x="156" y="-70.3" font-family="Times,serif" font-size="14.00" fill="#000000">splace_in_MarketSummaryDataBean_0</text>
</g>
<!-- 140531500824560&#45;&gt;140531498557736 -->
<g id="edge1" class="edge">
<title>140531500824560&#45;&gt;140531498557736</title>
<path fill="none" stroke="#000000" d="M93.2555,-55.0907C102.2799,-57.8104 111.6005,-60.6193 120.2079,-63.2133"/>
<polygon fill="#000000" stroke="#000000" points="119.3396,-66.6071 129.9242,-66.1415 121.3595,-59.9048 119.3396,-66.6071"/>
</g>
<!-- 140531498561432 -->
<g id="node2" class="node">
<title>140531498561432</title>
<polygon fill="none" stroke="#000000" points="73.5,-482 19.5,-482 19.5,-446 73.5,-446 73.5,-482"/>
<text text-anchor="middle" x="46.5" y="-460.3" font-family="Times,serif" font-size="14.00" fill="#000000">Log</text>
</g>
<!-- 140531498405616 -->
<g id="node34" class="node">
<title>140531498405616</title>
<ellipse fill="none" stroke="#000000" cx="156" cy="-492" rx="27" ry="27"/>
<text text-anchor="middle" x="156" y="-488.3" font-family="Times,serif" font-size="14.00" fill="#000000">intplace_Log</text>
</g>
<!-- 140531498561432&#45;&gt;140531498405616 -->
<g id="edge2" class="edge">
<title>140531498561432&#45;&gt;140531498405616</title>
<path fill="none" stroke="#000000" d="M73.5674,-470.9214C87.4609,-474.474 104.5819,-478.852 119.614,-482.6958"/>
<polygon fill="#000000" stroke="#000000" points="119.0664,-486.1683 129.6218,-485.2549 120.8006,-479.3865 119.0664,-486.1683"/>
</g>
<!-- 140531498561208 -->
<g id="node3" class="node">
<title>140531498561208</title>
<polygon fill="none" stroke="#000000" points="563,-115 399,-115 399,-79 563,-79 563,-115"/>
<text text-anchor="middle" x="481" y="-93.3" font-family="Times,serif" font-size="14.00" fill="#000000">MarketSummaryDataBean</text>
</g>
<!-- 140531499193736 -->
<g id="node35" class="node">
<title>140531499193736</title>
<ellipse fill="none" stroke="#000000" cx="626" cy="-97" rx="27" ry="27"/>
<text text-anchor="middle" x="626" y="-93.3" font-family="Times,serif" font-size="14.00" fill="#000000">intplace_MarketSummaryDataBean</text>
</g>
<!-- 140531498561208&#45;&gt;140531499193736 -->
<g id="edge3" class="edge">
<title>140531498561208&#45;&gt;140531499193736</title>
<path fill="none" stroke="#000000" d="M563.2442,-97C572.0332,-97 580.6275,-97 588.498,-97"/>
<polygon fill="#000000" stroke="#000000" points="588.732,-100.5001 598.7319,-97 588.7319,-93.5001 588.732,-100.5001"/>
</g>
<!-- 140531507674864 -->
<g id="node4" class="node">
<title>140531507674864</title>
<polygon fill="none" stroke="#000000" points="1472,-320 1310,-320 1310,-284 1472,-284 1472,-320"/>
<text text-anchor="middle" x="1391" y="-298.3" font-family="Times,serif" font-size="14.00" fill="#000000">MarketSummarySingleton</text>
</g>
<!-- 140531498557848 -->
<g id="node36" class="node">
<title>140531498557848</title>
<ellipse fill="none" stroke="#000000" cx="626" cy="-255" rx="27" ry="27"/>
<text text-anchor="middle" x="626" y="-251.3" font-family="Times,serif" font-size="14.00" fill="#000000">intplace_MarketSummarySingleton</text>
</g>
<!-- 140531507674864&#45;&gt;140531498557848 -->
<g id="edge4" class="edge">
<title>140531507674864&#45;&gt;140531498557848</title>
<path fill="none" stroke="#000000" d="M1333.9427,-283.963C1286.9531,-270.7087 1218.3258,-255 1157,-255 838,-255 838,-255 838,-255 776.7561,-255 705.5602,-255 663.2249,-255"/>
<polygon fill="#000000" stroke="#000000" points="663.1071,-251.5001 653.1071,-255 663.107,-258.5001 663.1071,-251.5001"/>
</g>
<!-- 140531498561264 -->
<g id="node5" class="node">
<title>140531498561264</title>
<polygon fill="none" stroke="#000000" points="1004,-328 901,-328 901,-292 1004,-292 1004,-328"/>
<text text-anchor="middle" x="952.5" y="-306.3" font-family="Times,serif" font-size="14.00" fill="#000000">QuoteDataBean</text>
</g>
<!-- 140531500824504 -->
<g id="node51" class="node">
<title>140531500824504</title>
<ellipse fill="none" stroke="#000000" cx="1067" cy="-310" rx="27" ry="27"/>
<text text-anchor="middle" x="1067" y="-306.3" font-family="Times,serif" font-size="14.00" fill="#000000">splace_in_MarketSummarySingleton_0</text>
</g>
<!-- 140531498561264&#45;&gt;140531500824504 -->
<g id="edge5" class="edge">
<title>140531498561264&#45;&gt;140531500824504</title>
<path fill="none" stroke="#000000" d="M1004.0557,-310C1012.7368,-310 1021.5943,-310 1029.8191,-310"/>
<polygon fill="#000000" stroke="#000000" points="1029.8379,-313.5001 1039.8379,-310 1029.8379,-306.5001 1029.8379,-313.5001"/>
</g>
<!-- 140531498561376 -->
<g id="node6" class="node">
<title>140531498561376</title>
<polygon fill="none" stroke="#000000" points="2012,-480 1958,-480 1958,-444 2012,-444 2012,-480"/>
<text text-anchor="middle" x="1985" y="-458.3" font-family="Times,serif" font-size="14.00" fill="#000000">Root</text>
</g>
<!-- 140531498560480 -->
<g id="node58" class="node">
<title>140531498560480</title>
<ellipse fill="#ffa500" stroke="#000000" cx="2075" cy="-462" rx="27" ry="27"/>
</g>
<!-- 140531498561376&#45;&gt;140531498560480 -->
<g id="edge6" class="edge">
<title>140531498561376&#45;&gt;140531498560480</title>
<path fill="none" stroke="#000000" d="M2012.003,-462C2020.0277,-462 2028.9665,-462 2037.5309,-462"/>
<polygon fill="#000000" stroke="#000000" points="2037.7051,-465.5001 2047.705,-462 2037.705,-458.5001 2037.7051,-465.5001"/>
</g>
<!-- 140531498561040 -->
<g id="node7" class="node">
<title>140531498561040</title>
<polygon fill="none" stroke="#000000" points="775,-635 689,-635 689,-599 775,-599 775,-635"/>
<text text-anchor="middle" x="732" y="-613.3" font-family="Times,serif" font-size="14.00" fill="#000000">TradeConfig</text>
</g>
<!-- 140531499194520 -->
<g id="node37" class="node">
<title>140531499194520</title>
<ellipse fill="none" stroke="#000000" cx="838" cy="-617" rx="27" ry="27"/>
<text text-anchor="middle" x="838" y="-613.3" font-family="Times,serif" font-size="14.00" fill="#000000">intplace_TradeConfig</text>
</g>
<!-- 140531498561040&#45;&gt;140531499194520 -->
<g id="edge7" class="edge">
<title>140531498561040&#45;&gt;140531499194520</title>
<path fill="none" stroke="#000000" d="M775.1143,-617C783.5776,-617 792.3896,-617 800.6453,-617"/>
<polygon fill="#000000" stroke="#000000" points="800.7368,-620.5001 810.7368,-617 800.7368,-613.5001 800.7368,-620.5001"/>
</g>
<!-- 140531500826072 -->
<g id="node8" class="node">
<title>140531500826072</title>
<polygon fill="none" stroke="#000000" points="1453,-565 1329,-565 1329,-529 1453,-529 1453,-565"/>
<text text-anchor="middle" x="1391" y="-543.3" font-family="Times,serif" font-size="14.00" fill="#000000">TradeConfigServlet</text>
</g>
<!-- 140531499196032 -->
<g id="node38" class="node">
<title>140531499196032</title>
<ellipse fill="none" stroke="#000000" cx="1535" cy="-547" rx="27" ry="27"/>
<text text-anchor="middle" x="1535" y="-543.3" font-family="Times,serif" font-size="14.00" fill="#000000">intplace_TradeConfigServlet</text>
</g>
<!-- 140531500826072&#45;&gt;140531499196032 -->
<g id="edge8" class="edge">
<title>140531500826072&#45;&gt;140531499196032</title>
<path fill="none" stroke="#000000" d="M1453.323,-547C1468.3174,-547 1483.882,-547 1497.3517,-547"/>
<polygon fill="#000000" stroke="#000000" points="1497.654,-550.5001 1507.654,-547 1497.654,-543.5001 1497.654,-550.5001"/>
</g>
<!-- 140531500824840 -->
<g id="node9" class="node">
<title>140531500824840</title>
<polygon fill="none" stroke="#000000" points="1184,-328 1130,-328 1130,-292 1184,-292 1184,-328"/>
<text text-anchor="middle" x="1157" y="-306.3" font-family="Times,serif" font-size="14.00" fill="#000000">hid_1</text>
</g>
<!-- 140531500825064 -->
<g id="node42" class="node">
<title>140531500825064</title>
<ellipse fill="none" stroke="#000000" cx="1247" cy="-310" rx="27" ry="27"/>
<text text-anchor="middle" x="1247" y="-306.3" font-family="Times,serif" font-size="14.00" fill="#000000">pre_MarketSummarySingleton</text>
</g>
<!-- 140531500824840&#45;&gt;140531500825064 -->
<g id="edge9" class="edge">
<title>140531500824840&#45;&gt;140531500825064</title>
<path fill="none" stroke="#000000" d="M1184.003,-310C1192.0277,-310 1200.9665,-310 1209.5309,-310"/>
<polygon fill="#000000" stroke="#000000" points="1209.7051,-313.5001 1219.705,-310 1209.705,-306.5001 1209.7051,-313.5001"/>
</g>
<!-- 140531498557568 -->
<g id="node10" class="node">
<title>140531498557568</title>
<polygon fill="none" stroke="#000000" points="979.5,-153 925.5,-153 925.5,-117 979.5,-117 979.5,-153"/>
<text text-anchor="middle" x="952.5" y="-131.3" font-family="Times,serif" font-size="14.00" fill="#000000">hid_10</text>
</g>
<!-- 140531499648896 -->
<g id="node41" class="node">
<title>140531499648896</title>
<ellipse fill="none" stroke="#000000" cx="336" cy="-97" rx="27" ry="27"/>
<text text-anchor="middle" x="336" y="-93.3" font-family="Times,serif" font-size="14.00" fill="#000000">pre_MarketSummaryDataBean</text>
</g>
<!-- 140531498557568&#45;&gt;140531499648896 -->
<g id="edge10" class="edge">
<title>140531498557568&#45;&gt;140531499648896</title>
<path fill="none" stroke="#000000" d="M925.4835,-140.6662C884.0503,-148.8479 802.2314,-163 732,-163 626,-163 626,-163 626,-163 523.633,-163 497.1649,-153.0286 399,-124 389.2604,-121.1199 379.0122,-117.159 369.6773,-113.1581"/>
<polygon fill="#000000" stroke="#000000" points="370.8999,-109.8716 360.3395,-109.0179 368.0626,-116.2708 370.8999,-109.8716"/>
</g>
<!-- 140531498557512 -->
<g id="node11" class="node">
<title>140531498557512</title>
<polygon fill="none" stroke="#000000" points="1184,-647 1130,-647 1130,-611 1184,-611 1184,-647"/>
<text text-anchor="middle" x="1157" y="-625.3" font-family="Times,serif" font-size="14.00" fill="#000000">hid_11</text>
</g>
<!-- 140531498557680 -->
<g id="node46" class="node">
<title>140531498557680</title>
<ellipse fill="none" stroke="#000000" cx="1247" cy="-547" rx="27" ry="27"/>
<text text-anchor="middle" x="1247" y="-543.3" font-family="Times,serif" font-size="14.00" fill="#000000">pre_TradeConfigServlet</text>
</g>
<!-- 140531498557512&#45;&gt;140531498557680 -->
<g id="edge11" class="edge">
<title>140531498557512&#45;&gt;140531498557680</title>
<path fill="none" stroke="#000000" d="M1176.9739,-610.8015C1189.355,-599.521 1205.442,-584.864 1219.0744,-572.4434"/>
<polygon fill="#000000" stroke="#000000" points="1221.7359,-574.7533 1226.7707,-565.4311 1217.0215,-569.5789 1221.7359,-574.7533"/>
</g>
<!-- 140531498745928 -->
<g id="node12" class="node">
<title>140531498745928</title>
<polygon fill="none" stroke="#000000" points="1832,-468 1778,-468 1778,-432 1832,-432 1832,-468"/>
<text text-anchor="middle" x="1805" y="-446.3" font-family="Times,serif" font-size="14.00" fill="#000000">hid_12</text>
</g>
<!-- 140531498745928&#45;&gt;140531498557680 -->
<g id="edge12" class="edge">
<title>140531498745928&#45;&gt;140531498557680</title>
<path fill="none" stroke="#000000" d="M1777.7896,-442.5843C1742.7422,-433.7004 1679.8082,-420 1625,-420 1535,-420 1535,-420 1535,-420 1432.9771,-420 1326.5851,-487.5474 1276.4596,-524.1184"/>
<polygon fill="#000000" stroke="#000000" points="1274.2891,-521.3706 1268.3368,-530.1354 1278.4557,-526.9955 1274.2891,-521.3706"/>
</g>
<!-- 140531498746320 -->
<g id="node13" class="node">
<title>140531498746320</title>
<polygon fill="none" stroke="#000000" points="1184,-539 1130,-539 1130,-503 1184,-503 1184,-539"/>
<text text-anchor="middle" x="1157" y="-517.3" font-family="Times,serif" font-size="14.00" fill="#000000">hid_13</text>
</g>
<!-- 140531498746320&#45;&gt;140531498557680 -->
<g id="edge13" class="edge">
<title>140531498746320&#45;&gt;140531498557680</title>
<path fill="none" stroke="#000000" d="M1184.003,-528.8009C1192.505,-531.257 1202.0332,-534.0096 1211.0549,-536.6159"/>
<polygon fill="#000000" stroke="#000000" points="1210.3652,-540.0597 1220.9437,-539.4726 1212.308,-533.3347 1210.3652,-540.0597"/>
</g>
<!-- 140531498405504 -->
<g id="node14" class="node">
<title>140531498405504</title>
<polygon fill="none" stroke="#000000" points="759,-324 705,-324 705,-288 759,-288 759,-324"/>
<text text-anchor="middle" x="732" y="-302.3" font-family="Times,serif" font-size="14.00" fill="#000000">hid_14</text>
</g>
<!-- 140531500825008 -->
<g id="node43" class="node">
<title>140531500825008</title>
<ellipse fill="none" stroke="#000000" cx="838" cy="-310" rx="27" ry="27"/>
<text text-anchor="middle" x="838" y="-306.3" font-family="Times,serif" font-size="14.00" fill="#000000">pre_QuoteDataBean</text>
</g>
<!-- 140531498405504&#45;&gt;140531500825008 -->
<g id="edge14" class="edge">
<title>140531498405504&#45;&gt;140531500825008</title>
<path fill="none" stroke="#000000" d="M759.0225,-307.0197C771.6333,-307.4956 786.8509,-308.0698 800.5484,-308.5867"/>
<polygon fill="#000000" stroke="#000000" points="800.5333,-312.0886 810.6582,-308.9682 800.7974,-305.0935 800.5333,-312.0886"/>
</g>
<!-- 140531498405000 -->
<g id="node15" class="node">
<title>140531498405000</title>
<polygon fill="none" stroke="#000000" points="865,-227 811,-227 811,-191 865,-191 865,-227"/>
<text text-anchor="middle" x="838" y="-205.3" font-family="Times,serif" font-size="14.00" fill="#000000">hid_15</text>
</g>
<!-- 140531500637376 -->
<g id="node52" class="node">
<title>140531500637376</title>
<ellipse fill="none" stroke="#000000" cx="1391" cy="-222" rx="27" ry="27"/>
<text text-anchor="middle" x="1391" y="-218.3" font-family="Times,serif" font-size="14.00" fill="#000000">splace_in_Root_0</text>
</g>
<!-- 140531498405000&#45;&gt;140531500637376 -->
<g id="edge15" class="edge">
<title>140531498405000&#45;&gt;140531500637376</title>
<path fill="none" stroke="#000000" d="M865.1408,-209.7807C908.0124,-210.9448 994.0349,-213 1067,-213 1067,-213 1067,-213 1157,-213 1226.588,-213 1307.7307,-217.0235 1353.867,-219.6901"/>
<polygon fill="#000000" stroke="#000000" points="1353.8007,-223.1921 1363.9891,-220.286 1354.2121,-216.2042 1353.8007,-223.1921"/>
</g>
<!-- 140531499195528 -->
<g id="node16" class="node">
<title>140531499195528</title>
<polygon fill="none" stroke="#000000" points="273,-510 219,-510 219,-474 273,-474 273,-510"/>
<text text-anchor="middle" x="246" y="-488.3" font-family="Times,serif" font-size="14.00" fill="#000000">hid_16</text>
</g>
<!-- 140531499953512 -->
<g id="node47" class="node">
<title>140531499953512</title>
<ellipse fill="none" stroke="#000000" cx="336" cy="-492" rx="27" ry="27"/>
<text text-anchor="middle" x="336" y="-488.3" font-family="Times,serif" font-size="14.00" fill="#000000">splace_in_Log_0</text>
</g>
<!-- 140531499195528&#45;&gt;140531499953512 -->
<g id="edge16" class="edge">
<title>140531499195528&#45;&gt;140531499953512</title>
<path fill="none" stroke="#000000" d="M273.003,-492C281.0277,-492 289.9665,-492 298.5309,-492"/>
<polygon fill="#000000" stroke="#000000" points="298.7051,-495.5001 308.705,-492 298.705,-488.5001 298.7051,-495.5001"/>
</g>
<!-- 140531499193344 -->
<g id="node17" class="node">
<title>140531499193344</title>
<polygon fill="none" stroke="#000000" points="273,-576 219,-576 219,-540 273,-540 273,-576"/>
<text text-anchor="middle" x="246" y="-554.3" font-family="Times,serif" font-size="14.00" fill="#000000">hid_17</text>
</g>
<!-- 140531499647440 -->
<g id="node56" class="node">
<title>140531499647440</title>
<ellipse fill="none" stroke="#000000" cx="336" cy="-575" rx="27" ry="27"/>
<text text-anchor="middle" x="336" y="-571.3" font-family="Times,serif" font-size="14.00" fill="#000000">splace_in_TradeConfig_0</text>
</g>
<!-- 140531499193344&#45;&gt;140531499647440 -->
<g id="edge17" class="edge">
<title>140531499193344&#45;&gt;140531499647440</title>
<path fill="none" stroke="#000000" d="M273.003,-563.1006C281.2647,-564.6611 290.4954,-566.4047 299.2888,-568.0657"/>
<polygon fill="#000000" stroke="#000000" points="298.8503,-571.5447 309.3262,-569.9616 300.1496,-564.6663 298.8503,-571.5447"/>
</g>
<!-- 140531499192840 -->
<g id="node18" class="node">
<title>140531499192840</title>
<polygon fill="none" stroke="#000000" points="979.5,-578 925.5,-578 925.5,-542 979.5,-542 979.5,-578"/>
<text text-anchor="middle" x="952.5" y="-556.3" font-family="Times,serif" font-size="14.00" fill="#000000">hid_18</text>
</g>
<!-- 140531499950880 -->
<g id="node48" class="node">
<title>140531499950880</title>
<ellipse fill="none" stroke="#000000" cx="1067" cy="-552" rx="27" ry="27"/>
<text text-anchor="middle" x="1067" y="-548.3" font-family="Times,serif" font-size="14.00" fill="#000000">splace_in_Log_1</text>
</g>
<!-- 140531499192840&#45;&gt;140531499950880 -->
<g id="edge18" class="edge">
<title>140531499192840&#45;&gt;140531499950880</title>
<path fill="none" stroke="#000000" d="M979.6349,-558.1041C994.6074,-557.058 1013.4217,-555.7435 1029.7523,-554.6025"/>
<polygon fill="#000000" stroke="#000000" points="1030.3282,-558.0708 1040.0599,-553.8823 1029.8402,-551.0879 1030.3282,-558.0708"/>
</g>
<!-- 140531499194576 -->
<g id="node19" class="node">
<title>140531499194576</title>
<polygon fill="none" stroke="#000000" points="979.5,-639 925.5,-639 925.5,-603 979.5,-603 979.5,-639"/>
<text text-anchor="middle" x="952.5" y="-617.3" font-family="Times,serif" font-size="14.00" fill="#000000">hid_19</text>
</g>
<!-- 140531498746208 -->
<g id="node54" class="node">
<title>140531498746208</title>
<ellipse fill="none" stroke="#000000" cx="1067" cy="-624" rx="27" ry="27"/>
<text text-anchor="middle" x="1067" y="-620.3" font-family="Times,serif" font-size="14.00" fill="#000000">splace_in_TradeConfigServlet_0</text>
</g>
<!-- 140531499194576&#45;&gt;140531498746208 -->
<g id="edge19" class="edge">
<title>140531499194576&#45;&gt;140531498746208</title>
<path fill="none" stroke="#000000" d="M979.6349,-621.711C994.4989,-622.1004 1013.1492,-622.5891 1029.3969,-623.0148"/>
<polygon fill="#000000" stroke="#000000" points="1029.5748,-626.5205 1039.6631,-623.2837 1029.7582,-619.5229 1029.5748,-626.5205"/>
</g>
<!-- 140531500824952 -->
<g id="node20" class="node">
<title>140531500824952</title>
<polygon fill="none" stroke="#000000" points="1184,-391 1130,-391 1130,-355 1184,-355 1184,-391"/>
<text text-anchor="middle" x="1157" y="-369.3" font-family="Times,serif" font-size="14.00" fill="#000000">hid_2</text>
</g>
<!-- 140531500824952&#45;&gt;140531500825064 -->
<g id="edge20" class="edge">
<title>140531500824952&#45;&gt;140531500825064</title>
<path fill="none" stroke="#000000" d="M1183.0317,-354.7778C1193.4366,-347.4944 1205.4975,-339.0517 1216.3236,-331.4735"/>
<polygon fill="#000000" stroke="#000000" points="1218.5008,-334.2218 1224.686,-325.6198 1214.4865,-328.4872 1218.5008,-334.2218"/>
</g>
<!-- 140531499194800 -->
<g id="node21" class="node">
<title>140531499194800</title>
<polygon fill="none" stroke="#000000" points="759,-77 705,-77 705,-41 759,-41 759,-77"/>
<text text-anchor="middle" x="732" y="-55.3" font-family="Times,serif" font-size="14.00" fill="#000000">hid_20</text>
</g>
<!-- 140531498557960 -->
<g id="node39" class="node">
<title>140531498557960</title>
<ellipse fill="none" stroke="#000000" cx="838" cy="-27" rx="27" ry="27"/>
<text text-anchor="middle" x="838" y="-23.3" font-family="Times,serif" font-size="14.00" fill="#000000">pre_FinancialUtils</text>
</g>
<!-- 140531499194800&#45;&gt;140531498557960 -->
<g id="edge21" class="edge">
<title>140531499194800&#45;&gt;140531498557960</title>
<path fill="none" stroke="#000000" d="M759.0225,-50.8423C772.1518,-46.8787 788.1066,-42.0621 802.2299,-37.7985"/>
<polygon fill="#000000" stroke="#000000" points="803.5618,-41.0525 812.1235,-34.8118 801.5387,-34.3512 803.5618,-41.0525"/>
</g>
<!-- 140531499193176 -->
<g id="node22" class="node">
<title>140531499193176</title>
<polygon fill="none" stroke="#000000" points="759,-131 705,-131 705,-95 759,-95 759,-131"/>
<text text-anchor="middle" x="732" y="-109.3" font-family="Times,serif" font-size="14.00" fill="#000000">hid_21</text>
</g>
<!-- 140531498560704 -->
<g id="node50" class="node">
<title>140531498560704</title>
<ellipse fill="none" stroke="#000000" cx="838" cy="-108" rx="27" ry="27"/>
<text text-anchor="middle" x="838" y="-104.3" font-family="Times,serif" font-size="14.00" fill="#000000">splace_in_MarketSummaryDataBean_1</text>
</g>
<!-- 140531499193176&#45;&gt;140531498560704 -->
<g id="edge22" class="edge">
<title>140531499193176&#45;&gt;140531498560704</title>
<path fill="none" stroke="#000000" d="M759.0225,-111.7254C771.731,-111.1259 787.087,-110.4016 800.8666,-109.7516"/>
<polygon fill="#000000" stroke="#000000" points="801.2029,-113.2397 811.0268,-109.2723 800.873,-106.2475 801.2029,-113.2397"/>
</g>
<!-- 140531499195976 -->
<g id="node23" class="node">
<title>140531499195976</title>
<polygon fill="none" stroke="#000000" points="1652,-565 1598,-565 1598,-529 1652,-529 1652,-565"/>
<text text-anchor="middle" x="1625" y="-543.3" font-family="Times,serif" font-size="14.00" fill="#000000">hid_22</text>
</g>
<!-- 140531500637040 -->
<g id="node53" class="node">
<title>140531500637040</title>
<ellipse fill="none" stroke="#000000" cx="1715" cy="-547" rx="27" ry="27"/>
<text text-anchor="middle" x="1715" y="-543.3" font-family="Times,serif" font-size="14.00" fill="#000000">splace_in_Root_1</text>
</g>
<!-- 140531499195976&#45;&gt;140531500637040 -->
<g id="edge23" class="edge">
<title>140531499195976&#45;&gt;140531500637040</title>
<path fill="none" stroke="#000000" d="M1652.003,-547C1660.0277,-547 1668.9665,-547 1677.5309,-547"/>
<polygon fill="#000000" stroke="#000000" points="1677.7051,-550.5001 1687.705,-547 1677.705,-543.5001 1677.7051,-550.5001"/>
</g>
<!-- 140531499196200 -->
<g id="node24" class="node">
<title>140531499196200</title>
<polygon fill="none" stroke="#000000" points="1652,-628 1598,-628 1598,-592 1652,-592 1652,-628"/>
<text text-anchor="middle" x="1625" y="-606.3" font-family="Times,serif" font-size="14.00" fill="#000000">hid_23</text>
</g>
<!-- 140531498559024 -->
<g id="node57" class="node">
<title>140531498559024</title>
<ellipse fill="none" stroke="#000000" cx="1715" cy="-619" rx="27" ry="27"/>
<text text-anchor="middle" x="1715" y="-615.3" font-family="Times,serif" font-size="14.00" fill="#000000">splace_in_TradeConfig_1</text>
</g>
<!-- 140531499196200&#45;&gt;140531498559024 -->
<g id="edge24" class="edge">
<title>140531499196200&#45;&gt;140531498559024</title>
<path fill="none" stroke="#000000" d="M1652.003,-612.7003C1660.1903,-613.519 1669.3292,-614.4329 1678.051,-615.3051"/>
<polygon fill="#000000" stroke="#000000" points="1677.7174,-618.7891 1688.0161,-616.3016 1678.414,-611.8239 1677.7174,-618.7891"/>
</g>
<!-- 140531499196088 -->
<g id="node25" class="node">
<title>140531499196088</title>
<polygon fill="none" stroke="#000000" points="1652,-502 1598,-502 1598,-466 1652,-466 1652,-502"/>
<text text-anchor="middle" x="1625" y="-480.3" font-family="Times,serif" font-size="14.00" fill="#000000">hid_24</text>
</g>
<!-- 140531498746432 -->
<g id="node55" class="node">
<title>140531498746432</title>
<ellipse fill="none" stroke="#000000" cx="1715" cy="-475" rx="27" ry="27"/>
<text text-anchor="middle" x="1715" y="-471.3" font-family="Times,serif" font-size="14.00" fill="#000000">splace_in_TradeConfigServlet_1</text>
</g>
<!-- 140531499196088&#45;&gt;140531498746432 -->
<g id="edge25" class="edge">
<title>140531499196088&#45;&gt;140531498746432</title>
<path fill="none" stroke="#000000" d="M1652.003,-481.2997C1660.1903,-480.481 1669.3292,-479.5671 1678.051,-478.6949"/>
<polygon fill="#000000" stroke="#000000" points="1678.414,-482.1761 1688.0161,-477.6984 1677.7174,-475.2109 1678.414,-482.1761"/>
</g>
<!-- 140531500638104 -->
<g id="node26" class="node">
<title>140531500638104</title>
<polygon fill="none" stroke="#000000" points="1562,-316 1508,-316 1508,-280 1562,-280 1562,-316"/>
<text text-anchor="middle" x="1535" y="-294.3" font-family="Times,serif" font-size="14.00" fill="#000000">hid_3</text>
</g>
<!-- 140531500824224 -->
<g id="node44" class="node">
<title>140531500824224</title>
<ellipse fill="none" stroke="#000000" cx="1895" cy="-462" rx="27" ry="27"/>
<text text-anchor="middle" x="1895" y="-458.3" font-family="Times,serif" font-size="14.00" fill="#000000">pre_Root</text>
</g>
<!-- 140531500638104&#45;&gt;140531500824224 -->
<g id="edge26" class="edge">
<title>140531500638104&#45;&gt;140531500824224</title>
<path fill="none" stroke="#000000" d="M1562.2621,-307.8382C1615.3445,-327.3483 1735.8004,-373.3641 1832,-423 1842.5903,-428.4643 1853.7661,-435.081 1863.7166,-441.3005"/>
<polygon fill="#000000" stroke="#000000" points="1862.1414,-444.4464 1872.4585,-446.8562 1865.896,-438.5385 1862.1414,-444.4464"/>
</g>
<!-- 140531500637488 -->
<g id="node27" class="node">
<title>140531500637488</title>
<polygon fill="none" stroke="#000000" points="1832,-544 1778,-544 1778,-508 1832,-508 1832,-544"/>
<text text-anchor="middle" x="1805" y="-522.3" font-family="Times,serif" font-size="14.00" fill="#000000">hid_4</text>
</g>
<!-- 140531500637488&#45;&gt;140531500824224 -->
<g id="edge27" class="edge">
<title>140531500637488&#45;&gt;140531500824224</title>
<path fill="none" stroke="#000000" d="M1830.5497,-507.8314C1841.1513,-500.2924 1853.5364,-491.4853 1864.6007,-483.6173"/>
<polygon fill="#000000" stroke="#000000" points="1866.6316,-486.4679 1872.7528,-477.8202 1862.5749,-480.7632 1866.6316,-486.4679"/>
</g>
<!-- 140531500637152 -->
<g id="node28" class="node">
<title>140531500637152</title>
<polygon fill="none" stroke="#000000" points="508,-506 454,-506 454,-470 508,-470 508,-506"/>
<text text-anchor="middle" x="481" y="-484.3" font-family="Times,serif" font-size="14.00" fill="#000000">hid_5</text>
</g>
<!-- 140531500637096 -->
<g id="node40" class="node">
<title>140531500637096</title>
<ellipse fill="none" stroke="#000000" cx="1247" cy="-475" rx="27" ry="27"/>
<text text-anchor="middle" x="1247" y="-471.3" font-family="Times,serif" font-size="14.00" fill="#000000">pre_Log</text>
</g>
<!-- 140531500637152&#45;&gt;140531500637096 -->
<g id="edge28" class="edge">
<title>140531500637152&#45;&gt;140531500637096</title>
<path fill="none" stroke="#000000" d="M508.0904,-485.6759C554.0843,-481.9366 650.4029,-475 732,-475 732,-475 732,-475 1067,-475 1116.3475,-475 1173.305,-475 1209.7075,-475"/>
<polygon fill="#000000" stroke="#000000" points="1209.8598,-478.5001 1219.8597,-475 1209.8597,-471.5001 1209.8598,-478.5001"/>
</g>
<!-- 140531499953792 -->
<g id="node29" class="node">
<title>140531499953792</title>
<polygon fill="none" stroke="#000000" points="1184,-593 1130,-593 1130,-557 1184,-557 1184,-593"/>
<text text-anchor="middle" x="1157" y="-571.3" font-family="Times,serif" font-size="14.00" fill="#000000">hid_6</text>
</g>
<!-- 140531499953792&#45;&gt;140531500637096 -->
<g id="edge29" class="edge">
<title>140531499953792&#45;&gt;140531500637096</title>
<path fill="none" stroke="#000000" d="M1175.4847,-556.8783C1178.3711,-553.9449 1181.2926,-550.9138 1184,-548 1197.3359,-533.6475 1211.645,-517.1614 1223.2504,-503.492"/>
<polygon fill="#000000" stroke="#000000" points="1225.9634,-505.7041 1229.7433,-495.8065 1220.6162,-501.1866 1225.9634,-505.7041"/>
</g>
<!-- 140531499648840 -->
<g id="node30" class="node">
<title>140531499648840</title>
<polygon fill="none" stroke="#000000" points="508,-607 454,-607 454,-571 508,-571 508,-607"/>
<text text-anchor="middle" x="481" y="-585.3" font-family="Times,serif" font-size="14.00" fill="#000000">hid_7</text>
</g>
<!-- 140531500637712 -->
<g id="node45" class="node">
<title>140531500637712</title>
<ellipse fill="none" stroke="#000000" cx="626" cy="-617" rx="27" ry="27"/>
<text text-anchor="middle" x="626" y="-613.3" font-family="Times,serif" font-size="14.00" fill="#000000">pre_TradeConfig</text>
</g>
<!-- 140531499648840&#45;&gt;140531500637712 -->
<g id="edge30" class="edge">
<title>140531499648840&#45;&gt;140531500637712</title>
<path fill="none" stroke="#000000" d="M508.2734,-594.2666C531.2021,-598.6942 564.1792,-605.0622 589.4017,-609.9327"/>
<polygon fill="#000000" stroke="#000000" points="588.8566,-613.3921 599.3388,-611.8516 590.1838,-606.519 588.8566,-613.3921"/>
</g>
<!-- 140531498560592 -->
<g id="node31" class="node">
<title>140531498560592</title>
<polygon fill="none" stroke="#000000" points="1832,-665 1778,-665 1778,-629 1832,-629 1832,-665"/>
<text text-anchor="middle" x="1805" y="-643.3" font-family="Times,serif" font-size="14.00" fill="#000000">hid_8</text>
</g>
<!-- 140531498560592&#45;&gt;140531500637712 -->
<g id="edge31" class="edge">
<title>140531498560592&#45;&gt;140531500637712</title>
<path fill="none" stroke="#000000" d="M1777.8217,-654.9101C1742.8083,-664.3862 1679.9102,-679 1625,-679 838,-679 838,-679 838,-679 772.8554,-679 700.8138,-651.6976 659.716,-633.3284"/>
<polygon fill="#000000" stroke="#000000" points="660.9986,-630.0666 650.4478,-629.1014 658.0939,-636.4355 660.9986,-630.0666"/>
</g>
<!-- 140531498558632 -->
<g id="node32" class="node">
<title>140531498558632</title>
<polygon fill="none" stroke="#000000" points="273,-97 219,-97 219,-61 273,-61 273,-97"/>
<text text-anchor="middle" x="246" y="-75.3" font-family="Times,serif" font-size="14.00" fill="#000000">hid_9</text>
</g>
<!-- 140531498558632&#45;&gt;140531499648896 -->
<g id="edge32" class="edge">
<title>140531498558632&#45;&gt;140531499648896</title>
<path fill="none" stroke="#000000" d="M273.003,-84.4006C281.2647,-86.0529 290.4954,-87.8991 299.2888,-89.6578"/>
<polygon fill="#000000" stroke="#000000" points="298.834,-93.136 309.3262,-91.6652 300.2069,-86.272 298.834,-93.136"/>
</g>
<!-- 140531498561096 -->
<g id="node33" class="node">
<title>140531498561096</title>
<ellipse fill="#00ff00" stroke="#000000" cx="1067" cy="-382" rx="27" ry="27"/>
<text text-anchor="middle" x="1067" y="-378.3" font-family="Times,serif" font-size="14.00" fill="#000000">1</text>
</g>
<!-- 140531498561096&#45;&gt;140531498746320 -->
<g id="edge52" class="edge">
<title>140531498561096&#45;&gt;140531498746320</title>
<path fill="none" stroke="#000000" d="M1081.8617,-404.953C1097.761,-429.5087 1122.9501,-468.4118 1139.7221,-494.3152"/>
<polygon fill="#000000" stroke="#000000" points="1136.9015,-496.3987 1145.2745,-502.8906 1142.7773,-492.5942 1136.9015,-496.3987"/>
</g>
<!-- 140531498561096&#45;&gt;140531500824952 -->
<g id="edge53" class="edge">
<title>140531498561096&#45;&gt;140531500824952</title>
<path fill="none" stroke="#000000" d="M1094.003,-379.2997C1102.0277,-378.4972 1110.9665,-377.6033 1119.5309,-376.7469"/>
<polygon fill="#000000" stroke="#000000" points="1120.1029,-380.2073 1129.705,-375.7295 1119.4064,-373.242 1120.1029,-380.2073"/>
</g>
<!-- 140531498405616&#45;&gt;140531499195528 -->
<g id="edge33" class="edge">
<title>140531498405616&#45;&gt;140531499195528</title>
<path fill="none" stroke="#000000" d="M183.003,-492C191.0277,-492 199.9665,-492 208.5309,-492"/>
<polygon fill="#000000" stroke="#000000" points="208.7051,-495.5001 218.705,-492 208.705,-488.5001 208.7051,-495.5001"/>
</g>
<!-- 140531498405616&#45;&gt;140531499193344 -->
<g id="edge34" class="edge">
<title>140531498405616&#45;&gt;140531499193344</title>
<path fill="none" stroke="#000000" d="M177.7865,-507.9768C188.3358,-515.7129 201.2289,-525.1678 212.9544,-533.7666"/>
<polygon fill="#000000" stroke="#000000" points="211.1021,-536.7484 221.2359,-539.8397 215.2416,-531.1036 211.1021,-536.7484"/>
</g>
<!-- 140531499193736&#45;&gt;140531499194800 -->
<g id="edge35" class="edge">
<title>140531499193736&#45;&gt;140531499194800</title>
<path fill="none" stroke="#000000" d="M651.6596,-87.8013C664.7028,-83.1254 680.7881,-77.359 695.1312,-72.2171"/>
<polygon fill="#000000" stroke="#000000" points="696.4916,-75.4476 704.7239,-68.7782 694.1294,-68.8582 696.4916,-75.4476"/>
</g>
<!-- 140531499193736&#45;&gt;140531499193176 -->
<g id="edge36" class="edge">
<title>140531499193736&#45;&gt;140531499193176</title>
<path fill="none" stroke="#000000" d="M652.7483,-101.0375C665.4554,-102.9555 680.8559,-105.2801 694.6892,-107.3682"/>
<polygon fill="#000000" stroke="#000000" points="694.4812,-110.8764 704.8916,-108.9082 695.526,-103.9548 694.4812,-110.8764"/>
</g>
<!-- 140531498557848&#45;&gt;140531498405504 -->
<g id="edge37" class="edge">
<title>140531498557848&#45;&gt;140531498405504</title>
<path fill="none" stroke="#000000" d="M650.585,-266.8286C663.9301,-273.2494 680.6876,-281.312 695.5252,-288.4508"/>
<polygon fill="#000000" stroke="#000000" points="694.4144,-291.8004 704.9431,-292.9821 697.4493,-285.4925 694.4144,-291.8004"/>
</g>
<!-- 140531498557848&#45;&gt;140531498405000 -->
<g id="edge38" class="edge">
<title>140531498557848&#45;&gt;140531498405000</title>
<path fill="none" stroke="#000000" d="M652.3518,-249.1002C663.6343,-246.5856 676.9593,-243.6308 689,-241 727.0356,-232.6896 770.5749,-223.36 800.7238,-216.9288"/>
<polygon fill="#000000" stroke="#000000" points="801.7478,-220.2892 810.7984,-214.7812 800.2884,-213.443 801.7478,-220.2892"/>
</g>
<!-- 140531499194520&#45;&gt;140531499192840 -->
<g id="edge39" class="edge">
<title>140531499194520&#45;&gt;140531499192840</title>
<path fill="none" stroke="#000000" d="M862.2825,-604.9118C877.902,-597.1361 898.488,-586.8881 916.0511,-578.1449"/>
<polygon fill="#000000" stroke="#000000" points="918.0544,-581.0574 925.4467,-573.4676 914.9348,-574.7909 918.0544,-581.0574"/>
</g>
<!-- 140531499194520&#45;&gt;140531499194576 -->
<g id="edge40" class="edge">
<title>140531499194520&#45;&gt;140531499194576</title>
<path fill="none" stroke="#000000" d="M865.1349,-617.9479C879.9989,-618.4672 898.6492,-619.1187 914.8969,-619.6864"/>
<polygon fill="#000000" stroke="#000000" points="915.0469,-623.1936 925.1631,-620.045 915.2914,-616.1979 915.0469,-623.1936"/>
</g>
<!-- 140531499196032&#45;&gt;140531499195976 -->
<g id="edge41" class="edge">
<title>140531499196032&#45;&gt;140531499195976</title>
<path fill="none" stroke="#000000" d="M1562.003,-547C1570.0277,-547 1578.9665,-547 1587.5309,-547"/>
<polygon fill="#000000" stroke="#000000" points="1587.7051,-550.5001 1597.705,-547 1587.705,-543.5001 1587.7051,-550.5001"/>
</g>
<!-- 140531499196032&#45;&gt;140531499196200 -->
<g id="edge42" class="edge">
<title>140531499196032&#45;&gt;140531499196200</title>
<path fill="none" stroke="#000000" d="M1557.2472,-562.573C1567.3684,-569.6579 1579.5735,-578.2015 1590.8201,-586.0741"/>
<polygon fill="#000000" stroke="#000000" points="1588.9838,-589.0609 1599.1832,-591.9283 1592.998,-583.3263 1588.9838,-589.0609"/>
</g>
<!-- 140531499196032&#45;&gt;140531499196088 -->
<g id="edge43" class="edge">
<title>140531499196032&#45;&gt;140531499196088</title>
<path fill="none" stroke="#000000" d="M1557.2472,-531.427C1567.3684,-524.3421 1579.5735,-515.7985 1590.8201,-507.9259"/>
<polygon fill="#000000" stroke="#000000" points="1592.998,-510.6737 1599.1832,-502.0717 1588.9838,-504.9391 1592.998,-510.6737"/>
</g>
<!-- 140531498557960&#45;&gt;140531500824560 -->
<g id="edge44" class="edge">
<title>140531498557960&#45;&gt;140531500824560</title>
<path fill="none" stroke="#000000" d="M810.9307,-24.0651C770.6637,-19.9599 692.5787,-13 626,-13 246,-13 246,-13 246,-13 197.417,-13 142.8193,-21.2439 103.0383,-28.7853"/>
<polygon fill="#000000" stroke="#000000" points="102.1505,-25.3922 93.0002,-30.7328 103.4838,-32.2641 102.1505,-25.3922"/>
</g>
<!-- 140531500637096&#45;&gt;140531498561432 -->
<g id="edge45" class="edge">
<title>140531500637096&#45;&gt;140531498561432</title>
<path fill="none" stroke="#000000" d="M1221.4256,-466.0907C1186.8472,-454.859 1123.0526,-437 1067,-437 246,-437 246,-437 246,-437 188.9296,-437 123.4987,-447.9846 83.5908,-455.941"/>
<polygon fill="#000000" stroke="#000000" points="82.872,-452.5154 73.7716,-457.9407 84.2689,-459.3746 82.872,-452.5154"/>
</g>
<!-- 140531499648896&#45;&gt;140531498561208 -->
<g id="edge46" class="edge">
<title>140531499648896&#45;&gt;140531498561208</title>
<path fill="none" stroke="#000000" d="M363.2734,-97C370.8644,-97 379.5567,-97 388.7044,-97"/>
<polygon fill="#000000" stroke="#000000" points="388.7789,-100.5001 398.7788,-97 388.7788,-93.5001 388.7789,-100.5001"/>
</g>
<!-- 140531500825064&#45;&gt;140531507674864 -->
<g id="edge47" class="edge">
<title>140531500825064&#45;&gt;140531507674864</title>
<path fill="none" stroke="#000000" d="M1274.0853,-308.4953C1281.7436,-308.0698 1290.5307,-307.5816 1299.7739,-307.0681"/>
<polygon fill="#000000" stroke="#000000" points="1300.1606,-310.5521 1309.951,-306.5027 1299.7722,-303.5629 1300.1606,-310.5521"/>
</g>
<!-- 140531500825008&#45;&gt;140531498561264 -->
<g id="edge48" class="edge">
<title>140531500825008&#45;&gt;140531498561264</title>
<path fill="none" stroke="#000000" d="M865.1349,-310C872.9188,-310 881.7409,-310 890.7126,-310"/>
<polygon fill="#000000" stroke="#000000" points="890.8582,-313.5001 900.8581,-310 890.8581,-306.5001 890.8582,-313.5001"/>
</g>
<!-- 140531500824224&#45;&gt;140531498561376 -->
<g id="edge49" class="edge">
<title>140531500824224&#45;&gt;140531498561376</title>
<path fill="none" stroke="#000000" d="M1922.003,-462C1930.0277,-462 1938.9665,-462 1947.5309,-462"/>
<polygon fill="#000000" stroke="#000000" points="1947.7051,-465.5001 1957.705,-462 1947.705,-458.5001 1947.7051,-465.5001"/>
</g>
<!-- 140531500637712&#45;&gt;140531498561040 -->
<g id="edge50" class="edge">
<title>140531500637712&#45;&gt;140531498561040</title>
<path fill="none" stroke="#000000" d="M653.0225,-617C660.9553,-617 669.9196,-617 678.8881,-617"/>
<polygon fill="#000000" stroke="#000000" points="678.961,-620.5001 688.961,-617 678.9609,-613.5001 678.961,-620.5001"/>
</g>
<!-- 140531498557680&#45;&gt;140531500826072 -->
<g id="edge51" class="edge">
<title>140531498557680&#45;&gt;140531500826072</title>
<path fill="none" stroke="#000000" d="M1274.0853,-547C1286.7834,-547 1302.5847,-547 1318.4232,-547"/>
<polygon fill="#000000" stroke="#000000" points="1318.8045,-550.5001 1328.8045,-547 1318.8045,-543.5001 1318.8045,-550.5001"/>
</g>
<!-- 140531499953512&#45;&gt;140531500637152 -->
<g id="edge54" class="edge">
<title>140531499953512&#45;&gt;140531500637152</title>
<path fill="none" stroke="#000000" d="M363.2734,-491.2476C385.9566,-490.6219 418.4742,-489.7248 443.589,-489.032"/>
<polygon fill="#000000" stroke="#000000" points="443.9493,-492.5235 453.8489,-488.749 443.7562,-485.5262 443.9493,-492.5235"/>
</g>
<!-- 140531499950880&#45;&gt;140531499953792 -->
<g id="edge55" class="edge">
<title>140531499950880&#45;&gt;140531499953792</title>
<path fill="none" stroke="#000000" d="M1093.5162,-558.7764C1101.8043,-560.8944 1111.1048,-563.2712 1119.9779,-565.5388"/>
<polygon fill="#000000" stroke="#000000" points="1119.1823,-568.9479 1129.7375,-568.0329 1120.9155,-562.1658 1119.1823,-568.9479"/>
</g>
<!-- 140531498557736&#45;&gt;140531498558632 -->
<g id="edge56" class="edge">
<title>140531498557736&#45;&gt;140531498558632</title>
<path fill="none" stroke="#000000" d="M183.003,-75.5002C191.0277,-75.946 199.9665,-76.4426 208.5309,-76.9184"/>
<polygon fill="#000000" stroke="#000000" points="208.5262,-80.4234 218.705,-77.4836 208.9146,-73.4342 208.5262,-80.4234"/>
</g>
<!-- 140531498560704&#45;&gt;140531498557568 -->
<g id="edge57" class="edge">
<title>140531498560704&#45;&gt;140531498557568</title>
<path fill="none" stroke="#000000" d="M864.5564,-114.2622C879.656,-117.8228 898.8,-122.3371 915.3684,-126.2441"/>
<polygon fill="#000000" stroke="#000000" points="914.7561,-129.6956 925.2925,-128.5843 916.3628,-122.8825 914.7561,-129.6956"/>
</g>
<!-- 140531500824504&#45;&gt;140531500824840 -->
<g id="edge58" class="edge">
<title>140531500824504&#45;&gt;140531500824840</title>
<path fill="none" stroke="#000000" d="M1094.003,-310C1102.0277,-310 1110.9665,-310 1119.5309,-310"/>
<polygon fill="#000000" stroke="#000000" points="1119.7051,-313.5001 1129.705,-310 1119.705,-306.5001 1119.7051,-313.5001"/>
</g>
<!-- 140531500637376&#45;&gt;140531500638104 -->
<g id="edge59" class="edge">
<title>140531500637376&#45;&gt;140531500638104</title>
<path fill="none" stroke="#000000" d="M1415.1024,-234.7207C1438.021,-246.8166 1472.7895,-265.1667 1498.9941,-278.9969"/>
<polygon fill="#000000" stroke="#000000" points="1497.3949,-282.1104 1507.8724,-283.6827 1500.6622,-275.9197 1497.3949,-282.1104"/>
</g>
<!-- 140531500637040&#45;&gt;140531500637488 -->
<g id="edge60" class="edge">
<title>140531500637040&#45;&gt;140531500637488</title>
<path fill="none" stroke="#000000" d="M1741.5162,-540.8129C1749.8043,-538.879 1759.1048,-536.7089 1767.9779,-534.6385"/>
<polygon fill="#000000" stroke="#000000" points="1768.7944,-538.0421 1777.7375,-532.3612 1767.2038,-531.2252 1768.7944,-538.0421"/>
</g>
<!-- 140531498746208&#45;&gt;140531498557512 -->
<g id="edge61" class="edge">
<title>140531498746208&#45;&gt;140531498557512</title>
<path fill="none" stroke="#000000" d="M1094.003,-625.5002C1102.0277,-625.946 1110.9665,-626.4426 1119.5309,-626.9184"/>
<polygon fill="#000000" stroke="#000000" points="1119.5262,-630.4234 1129.705,-627.4836 1119.9146,-623.4342 1119.5262,-630.4234"/>
</g>
<!-- 140531498746432&#45;&gt;140531498745928 -->
<g id="edge62" class="edge">
<title>140531498746432&#45;&gt;140531498745928</title>
<path fill="none" stroke="#000000" d="M1741.0317,-467.769C1749.4054,-465.4429 1758.8517,-462.819 1767.8638,-460.3156"/>
<polygon fill="#000000" stroke="#000000" points="1769.0754,-463.6117 1777.7738,-457.5628 1767.2018,-456.867 1769.0754,-463.6117"/>
</g>
<!-- 140531499647440&#45;&gt;140531499648840 -->
<g id="edge63" class="edge">
<title>140531499647440&#45;&gt;140531499648840</title>
<path fill="none" stroke="#000000" d="M362.9336,-577.6005C385.6801,-579.7967 418.4902,-582.9646 443.7527,-585.4037"/>
<polygon fill="#000000" stroke="#000000" points="443.4285,-588.8886 453.7186,-586.3659 444.1013,-581.921 443.4285,-588.8886"/>
</g>
<!-- 140531498559024&#45;&gt;140531498560592 -->
<g id="edge64" class="edge">
<title>140531498559024&#45;&gt;140531498560592</title>
<path fill="none" stroke="#000000" d="M1741.0317,-627.0988C1749.4955,-629.7319 1759.055,-632.706 1768.1543,-635.5369"/>
<polygon fill="#000000" stroke="#000000" points="1767.1855,-638.9009 1777.7738,-638.5296 1769.265,-632.2169 1767.1855,-638.9009"/>
</g>
</g>
</svg>
