<?xml version="1.0" encoding="UTF-8" standalone="no"?>
<!DOCTYPE svg PUBLIC "-//W3C//DTD SVG 1.1//EN"
 "http://www.w3.org/Graphics/SVG/1.1/DTD/svg11.dtd">
<!-- Generated by graphviz version 2.40.1 (20161225.0304)
 -->
<!-- Title: %3 Pages: 1 -->
<svg width="1930pt" height="809pt"
 viewBox="0.00 0.00 1930.00 809.00" xmlns="http://www.w3.org/2000/svg" xmlns:xlink="http://www.w3.org/1999/xlink">
<g id="graph0" class="graph" transform="scale(1 1) rotate(0) translate(4 805)">
<title>%3</title>
<!-- 140219164352464 -->
<g id="node1" class="node">
<title>140219164352464</title>
<polygon fill="none" stroke="#000000" points="93,-56 0,-56 0,-20 93,-20 93,-56"/>
<text text-anchor="middle" x="46.5" y="-34.3" font-family="Times,serif" font-size="14.00" fill="#000000">FinancialUtils</text>
</g>
<!-- 140219170881488 -->
<g id="node40" class="node">
<title>140219170881488</title>
<ellipse fill="none" stroke="#000000" cx="156" cy="-65" rx="27" ry="27"/>
<text text-anchor="middle" x="156" y="-61.3" font-family="Times,serif" font-size="14.00" fill="#000000">splace_in_MarketSummaryDataBean_FinancialUtils_0</text>
</g>
<!-- 140219164352464&#45;&gt;140219170881488 -->
<g id="edge1" class="edge">
<title>140219164352464&#45;&gt;140219170881488</title>
<path fill="none" stroke="#000000" d="M93.2555,-49.5287C102.0992,-51.7094 111.2273,-53.9602 119.6899,-56.0468"/>
<polygon fill="#000000" stroke="#000000" points="119.0714,-59.4991 129.6185,-58.495 120.7473,-52.7026 119.0714,-59.4991"/>
</g>
<!-- 140219164352128 -->
<g id="node2" class="node">
<title>140219164352128</title>
<polygon fill="none" stroke="#000000" points="73.5,-233 19.5,-233 19.5,-197 73.5,-197 73.5,-233"/>
<text text-anchor="middle" x="46.5" y="-211.3" font-family="Times,serif" font-size="14.00" fill="#000000">Log</text>
</g>
<!-- 140219170763664 -->
<g id="node23" class="node">
<title>140219170763664</title>
<ellipse fill="none" stroke="#000000" cx="156" cy="-289" rx="27" ry="27"/>
<text text-anchor="middle" x="156" y="-285.3" font-family="Times,serif" font-size="14.00" fill="#000000">intplace_Log</text>
</g>
<!-- 140219164352128&#45;&gt;140219170763664 -->
<g id="edge2" class="edge">
<title>140219164352128&#45;&gt;140219170763664</title>
<path fill="none" stroke="#000000" d="M73.2867,-233.1024C88.886,-243.6444 108.6251,-256.9841 124.9078,-267.9879"/>
<polygon fill="#000000" stroke="#000000" points="123.3047,-271.1288 133.5499,-273.8283 127.2242,-265.329 123.3047,-271.1288"/>
</g>
<!-- 140219164352408 -->
<g id="node3" class="node">
<title>140219164352408</title>
<polygon fill="none" stroke="#000000" points="563,-83 399,-83 399,-47 563,-47 563,-83"/>
<text text-anchor="middle" x="481" y="-61.3" font-family="Times,serif" font-size="14.00" fill="#000000">MarketSummaryDataBean</text>
</g>
<!-- 140219170765064 -->
<g id="node24" class="node">
<title>140219170765064</title>
<ellipse fill="none" stroke="#000000" cx="626" cy="-65" rx="27" ry="27"/>
<text text-anchor="middle" x="626" y="-61.3" font-family="Times,serif" font-size="14.00" fill="#000000">intplace_MarketSummaryDataBean</text>
</g>
<!-- 140219164352408&#45;&gt;140219170765064 -->
<g id="edge3" class="edge">
<title>140219164352408&#45;&gt;140219170765064</title>
<path fill="none" stroke="#000000" d="M563.2442,-65C572.0332,-65 580.6275,-65 588.498,-65"/>
<polygon fill="#000000" stroke="#000000" points="588.732,-68.5001 598.7319,-65 588.7319,-61.5001 588.732,-68.5001"/>
</g>
<!-- 140219164351792 -->
<g id="node4" class="node">
<title>140219164351792</title>
<polygon fill="none" stroke="#000000" points="851,-373 689,-373 689,-337 851,-337 851,-373"/>
<text text-anchor="middle" x="770" y="-351.3" font-family="Times,serif" font-size="14.00" fill="#000000">MarketSummarySingleton</text>
</g>
<!-- 140219170762880 -->
<g id="node25" class="node">
<title>140219170762880</title>
<ellipse fill="none" stroke="#000000" cx="914" cy="-355" rx="27" ry="27"/>
<text text-anchor="middle" x="914" y="-351.3" font-family="Times,serif" font-size="14.00" fill="#000000">intplace_MarketSummarySingleton</text>
</g>
<!-- 140219164351792&#45;&gt;140219170762880 -->
<g id="edge4" class="edge">
<title>140219164351792&#45;&gt;140219170762880</title>
<path fill="none" stroke="#000000" d="M851.2584,-355C860.0303,-355 868.6157,-355 876.4822,-355"/>
<polygon fill="#000000" stroke="#000000" points="876.7137,-358.5001 886.7136,-355 876.7136,-351.5001 876.7137,-358.5001"/>
</g>
<!-- 140219164352184 -->
<g id="node5" class="node">
<title>140219164352184</title>
<polygon fill="none" stroke="#000000" points="1260,-314 1157,-314 1157,-278 1260,-278 1260,-314"/>
<text text-anchor="middle" x="1208.5" y="-292.3" font-family="Times,serif" font-size="14.00" fill="#000000">QuoteDataBean</text>
</g>
<!-- 140219170878016 -->
<g id="node43" class="node">
<title>140219170878016</title>
<ellipse fill="none" stroke="#000000" cx="1323" cy="-279" rx="27" ry="27"/>
<text text-anchor="middle" x="1323" y="-275.3" font-family="Times,serif" font-size="14.00" fill="#000000">splace_in_MarketSummarySingleton_QuoteDataBean_0</text>
</g>
<!-- 140219164352184&#45;&gt;140219170878016 -->
<g id="edge5" class="edge">
<title>140219164352184&#45;&gt;140219170878016</title>
<path fill="none" stroke="#000000" d="M1260.0557,-288.3454C1268.8203,-287.0441 1277.7647,-285.7162 1286.0562,-284.4851"/>
<polygon fill="#000000" stroke="#000000" points="1286.7694,-287.9177 1296.1469,-282.9869 1285.7413,-280.9936 1286.7694,-287.9177"/>
</g>
<!-- 140219164352240 -->
<g id="node6" class="node">
<title>140219164352240</title>
<polygon fill="none" stroke="#000000" points="1456,-448 1402,-448 1402,-412 1456,-412 1456,-448"/>
<text text-anchor="middle" x="1429" y="-426.3" font-family="Times,serif" font-size="14.00" fill="#000000">Root</text>
</g>
<!-- 140219164352016 -->
<g id="node51" class="node">
<title>140219164352016</title>
<ellipse fill="#ffa500" stroke="#000000" cx="1535" cy="-430" rx="27" ry="27"/>
</g>
<!-- 140219164352240&#45;&gt;140219164352016 -->
<g id="edge6" class="edge">
<title>140219164352240&#45;&gt;140219164352016</title>
<path fill="none" stroke="#000000" d="M1456.0225,-430C1468.6333,-430 1483.8509,-430 1497.5484,-430"/>
<polygon fill="#000000" stroke="#000000" points="1497.6583,-433.5001 1507.6582,-430 1497.6582,-426.5001 1497.6583,-433.5001"/>
</g>
<!-- 140219164352296 -->
<g id="node7" class="node">
<title>140219164352296</title>
<polygon fill="none" stroke="#000000" points="1472,-646 1386,-646 1386,-610 1472,-610 1472,-646"/>
<text text-anchor="middle" x="1429" y="-624.3" font-family="Times,serif" font-size="14.00" fill="#000000">TradeConfig</text>
</g>
<!-- 140219170762992 -->
<g id="node26" class="node">
<title>140219170762992</title>
<ellipse fill="none" stroke="#000000" cx="1535" cy="-628" rx="27" ry="27"/>
<text text-anchor="middle" x="1535" y="-624.3" font-family="Times,serif" font-size="14.00" fill="#000000">intplace_TradeConfig</text>
</g>
<!-- 140219164352296&#45;&gt;140219170762992 -->
<g id="edge7" class="edge">
<title>140219164352296&#45;&gt;140219170762992</title>
<path fill="none" stroke="#000000" d="M1472.1143,-628C1480.5776,-628 1489.3896,-628 1497.6453,-628"/>
<polygon fill="#000000" stroke="#000000" points="1497.7368,-631.5001 1507.7368,-628 1497.7368,-624.5001 1497.7368,-631.5001"/>
</g>
<!-- 140219164352352 -->
<g id="node8" class="node">
<title>140219164352352</title>
<polygon fill="none" stroke="#000000" points="832,-573 708,-573 708,-537 832,-537 832,-573"/>
<text text-anchor="middle" x="770" y="-551.3" font-family="Times,serif" font-size="14.00" fill="#000000">TradeConfigServlet</text>
</g>
<!-- 140219170765120 -->
<g id="node27" class="node">
<title>140219170765120</title>
<ellipse fill="none" stroke="#000000" cx="914" cy="-555" rx="27" ry="27"/>
<text text-anchor="middle" x="914" y="-551.3" font-family="Times,serif" font-size="14.00" fill="#000000">intplace_TradeConfigServlet</text>
</g>
<!-- 140219164352352&#45;&gt;140219170765120 -->
<g id="edge8" class="edge">
<title>140219164352352&#45;&gt;140219170765120</title>
<path fill="none" stroke="#000000" d="M832.323,-555C847.3174,-555 862.882,-555 876.3517,-555"/>
<polygon fill="#000000" stroke="#000000" points="876.654,-558.5001 886.654,-555 876.654,-551.5001 876.654,-558.5001"/>
</g>
<!-- 140219170877680 -->
<g id="node9" class="node">
<title>140219170877680</title>
<polygon fill="none" stroke="#000000" points="508,-326 454,-326 454,-290 508,-290 508,-326"/>
<text text-anchor="middle" x="481" y="-304.3" font-family="Times,serif" font-size="14.00" fill="#000000">hid_1</text>
</g>
<!-- 140219170877512 -->
<g id="node31" class="node">
<title>140219170877512</title>
<ellipse fill="none" stroke="#000000" cx="626" cy="-355" rx="27" ry="27"/>
<text text-anchor="middle" x="626" y="-351.3" font-family="Times,serif" font-size="14.00" fill="#000000">pre_MarketSummarySingleton</text>
</g>
<!-- 140219170877680&#45;&gt;140219170877512 -->
<g id="edge9" class="edge">
<title>140219170877680&#45;&gt;140219170877512</title>
<path fill="none" stroke="#000000" d="M508.2734,-316.8403C531.5937,-324.3993 565.3085,-335.3276 590.6871,-343.5538"/>
<polygon fill="#000000" stroke="#000000" points="589.7172,-346.9186 600.3092,-346.6726 591.8756,-340.2596 589.7172,-346.9186"/>
</g>
<!-- 140219170763832 -->
<g id="node10" class="node">
<title>140219170763832</title>
<polygon fill="none" stroke="#000000" points="273,-326 219,-326 219,-290 273,-290 273,-326"/>
<text text-anchor="middle" x="246" y="-304.3" font-family="Times,serif" font-size="14.00" fill="#000000">hid_11</text>
</g>
<!-- 140219170878912 -->
<g id="node36" class="node">
<title>140219170878912</title>
<ellipse fill="none" stroke="#000000" cx="1625" cy="-247" rx="27" ry="27"/>
<text text-anchor="middle" x="1625" y="-243.3" font-family="Times,serif" font-size="14.00" fill="#000000">splace_in_Log_Log_0</text>
</g>
<!-- 140219170763832&#45;&gt;140219170878912 -->
<g id="edge10" class="edge">
<title>140219170763832&#45;&gt;140219170878912</title>
<path fill="none" stroke="#000000" d="M269.9152,-289.9432C310.8432,-260.892 397.9587,-207 481,-207 481,-207 481,-207 1429,-207 1486.0657,-207 1550.6241,-223.4794 1589.5464,-235.2833"/>
<polygon fill="#000000" stroke="#000000" points="1588.7551,-238.7022 1599.3431,-238.3206 1590.8281,-232.0162 1588.7551,-238.7022"/>
</g>
<!-- 140219170877904 -->
<g id="node42" class="node">
<title>140219170877904</title>
<ellipse fill="none" stroke="#000000" cx="336" cy="-308" rx="27" ry="27"/>
<text text-anchor="middle" x="336" y="-304.3" font-family="Times,serif" font-size="14.00" fill="#000000">splace_in_MarketSummarySingleton_Log_0</text>
</g>
<!-- 140219170763832&#45;&gt;140219170877904 -->
<g id="edge11" class="edge">
<title>140219170763832&#45;&gt;140219170877904</title>
<path fill="none" stroke="#000000" d="M273.003,-308C281.0277,-308 289.9665,-308 298.5309,-308"/>
<polygon fill="#000000" stroke="#000000" points="298.7051,-311.5001 308.705,-308 298.705,-304.5001 298.7051,-311.5001"/>
</g>
<!-- 140219170880704 -->
<g id="node46" class="node">
<title>140219170880704</title>
<ellipse fill="none" stroke="#000000" cx="336" cy="-574" rx="27" ry="27"/>
<text text-anchor="middle" x="336" y="-570.3" font-family="Times,serif" font-size="14.00" fill="#000000">splace_in_TradeConfigServlet_Log_0</text>
</g>
<!-- 140219170763832&#45;&gt;140219170880704 -->
<g id="edge12" class="edge">
<title>140219170763832&#45;&gt;140219170880704</title>
<path fill="none" stroke="#000000" d="M249.8426,-326.1783C258.1564,-364.0491 279.4728,-453.794 309,-525 311.2881,-530.5178 314.0351,-536.2125 316.8884,-541.6805"/>
<polygon fill="#000000" stroke="#000000" points="313.8819,-543.4784 321.7285,-550.5975 320.0341,-540.1391 313.8819,-543.4784"/>
</g>
<!-- 140219170880144 -->
<g id="node49" class="node">
<title>140219170880144</title>
<ellipse fill="none" stroke="#000000" cx="626" cy="-774" rx="27" ry="27"/>
<text text-anchor="middle" x="626" y="-770.3" font-family="Times,serif" font-size="14.00" fill="#000000">splace_in_TradeConfig_Log_0</text>
</g>
<!-- 140219170763832&#45;&gt;140219170880144 -->
<g id="edge13" class="edge">
<title>140219170763832&#45;&gt;140219170880144</title>
<path fill="none" stroke="#000000" d="M247.732,-326.0338C253.6033,-383.9896 274.34,-564.3608 309,-610 380.6784,-704.3838 522.204,-749.2795 589.1936,-765.9495"/>
<polygon fill="#000000" stroke="#000000" points="588.7408,-769.4407 599.283,-768.3858 590.3839,-762.6362 588.7408,-769.4407"/>
</g>
<!-- 140219170764560 -->
<g id="node11" class="node">
<title>140219170764560</title>
<polygon fill="none" stroke="#000000" points="1652,-646 1598,-646 1598,-610 1652,-610 1652,-646"/>
<text text-anchor="middle" x="1625" y="-624.3" font-family="Times,serif" font-size="14.00" fill="#000000">hid_13</text>
</g>
<!-- 140219170879024 -->
<g id="node39" class="node">
<title>140219170879024</title>
<ellipse fill="none" stroke="#000000" cx="1715" cy="-589" rx="27" ry="27"/>
<text text-anchor="middle" x="1715" y="-585.3" font-family="Times,serif" font-size="14.00" fill="#000000">splace_in_Log_TradeConfig_0</text>
</g>
<!-- 140219170764560&#45;&gt;140219170879024 -->
<g id="edge14" class="edge">
<title>140219170764560&#45;&gt;140219170879024</title>
<path fill="none" stroke="#000000" d="M1652.003,-616.2987C1661.0899,-612.361 1671.3491,-607.9154 1680.9092,-603.7727"/>
<polygon fill="#000000" stroke="#000000" points="1682.3831,-606.9485 1690.167,-599.761 1679.5998,-600.5257 1682.3831,-606.9485"/>
</g>
<!-- 140219170880816 -->
<g id="node48" class="node">
<title>140219170880816</title>
<ellipse fill="none" stroke="#000000" cx="1715" cy="-700" rx="27" ry="27"/>
<text text-anchor="middle" x="1715" y="-696.3" font-family="Times,serif" font-size="14.00" fill="#000000">splace_in_TradeConfigServlet_TradeConfig_0</text>
</g>
<!-- 140219170764560&#45;&gt;140219170880816 -->
<g id="edge15" class="edge">
<title>140219170764560&#45;&gt;140219170880816</title>
<path fill="none" stroke="#000000" d="M1647.7108,-646.1686C1659.3298,-655.4638 1673.601,-666.8808 1686.0062,-676.805"/>
<polygon fill="#000000" stroke="#000000" points="1683.847,-679.5598 1693.8421,-683.0737 1688.2199,-674.0937 1683.847,-679.5598"/>
</g>
<!-- 140219170765288 -->
<g id="node12" class="node">
<title>140219170765288</title>
<polygon fill="none" stroke="#000000" points="1031,-573 977,-573 977,-537 1031,-537 1031,-573"/>
<text text-anchor="middle" x="1004" y="-551.3" font-family="Times,serif" font-size="14.00" fill="#000000">hid_15</text>
</g>
<!-- 140219170878800 -->
<g id="node38" class="node">
<title>140219170878800</title>
<ellipse fill="none" stroke="#000000" cx="1535" cy="-514" rx="27" ry="27"/>
<text text-anchor="middle" x="1535" y="-510.3" font-family="Times,serif" font-size="14.00" fill="#000000">splace_in_Log_TradeConfigServlet_0</text>
</g>
<!-- 140219170765288&#45;&gt;140219170878800 -->
<g id="edge16" class="edge">
<title>140219170765288&#45;&gt;140219170878800</title>
<path fill="none" stroke="#000000" d="M1031.0585,-551.0943C1070.1407,-545.8003 1144.7031,-537 1208.5,-537 1208.5,-537 1208.5,-537 1323,-537 1384.7739,-537 1456.0853,-527.2288 1498.2574,-520.424"/>
<polygon fill="#000000" stroke="#000000" points="1499.0294,-523.8441 1508.3277,-518.7656 1497.8919,-516.9371 1499.0294,-523.8441"/>
</g>
<!-- 140219170879528 -->
<g id="node45" class="node">
<title>140219170879528</title>
<ellipse fill="none" stroke="#000000" cx="1094" cy="-482" rx="27" ry="27"/>
<text text-anchor="middle" x="1094" y="-478.3" font-family="Times,serif" font-size="14.00" fill="#000000">splace_in_Root_TradeConfigServlet_0</text>
</g>
<!-- 140219170765288&#45;&gt;140219170879528 -->
<g id="edge17" class="edge">
<title>140219170765288&#45;&gt;140219170879528</title>
<path fill="none" stroke="#000000" d="M1026.2472,-536.9551C1037.9471,-527.4651 1052.4317,-515.7165 1065.0013,-505.5211"/>
<polygon fill="#000000" stroke="#000000" points="1067.3747,-508.1027 1072.9363,-499.085 1062.965,-502.6662 1067.3747,-508.1027"/>
</g>
<!-- 140219170880592 -->
<g id="node47" class="node">
<title>140219170880592</title>
<ellipse fill="none" stroke="#000000" cx="1094" cy="-664" rx="27" ry="27"/>
<text text-anchor="middle" x="1094" y="-660.3" font-family="Times,serif" font-size="14.00" fill="#000000">splace_in_TradeConfigServlet_TradeConfigServlet_0</text>
</g>
<!-- 140219170765288&#45;&gt;140219170880592 -->
<g id="edge18" class="edge">
<title>140219170765288&#45;&gt;140219170880592</title>
<path fill="none" stroke="#000000" d="M1019.2673,-573.4904C1033.196,-590.3596 1054.0037,-615.56 1070.1288,-635.0893"/>
<polygon fill="#000000" stroke="#000000" points="1067.431,-637.3192 1076.497,-642.8019 1072.8288,-632.8623 1067.431,-637.3192"/>
</g>
<!-- 140219170880032 -->
<g id="node50" class="node">
<title>140219170880032</title>
<ellipse fill="none" stroke="#000000" cx="1094" cy="-592" rx="27" ry="27"/>
<text text-anchor="middle" x="1094" y="-588.3" font-family="Times,serif" font-size="14.00" fill="#000000">splace_in_TradeConfig_TradeConfigServlet_0</text>
</g>
<!-- 140219170765288&#45;&gt;140219170880032 -->
<g id="edge19" class="edge">
<title>140219170765288&#45;&gt;140219170880032</title>
<path fill="none" stroke="#000000" d="M1031.003,-566.1012C1039.9184,-569.7665 1049.9622,-573.8956 1059.3671,-577.762"/>
<polygon fill="#000000" stroke="#000000" points="1058.2829,-581.1005 1068.8627,-581.6658 1060.9446,-574.6263 1058.2829,-581.1005"/>
</g>
<!-- 140219170765904 -->
<g id="node13" class="node">
<title>140219170765904</title>
<polygon fill="none" stroke="#000000" points="797,-83 743,-83 743,-47 797,-47 797,-83"/>
<text text-anchor="middle" x="770" y="-61.3" font-family="Times,serif" font-size="14.00" fill="#000000">hid_17</text>
</g>
<!-- 140219170881096 -->
<g id="node28" class="node">
<title>140219170881096</title>
<ellipse fill="none" stroke="#000000" cx="914" cy="-27" rx="27" ry="27"/>
<text text-anchor="middle" x="914" y="-23.3" font-family="Times,serif" font-size="14.00" fill="#000000">pre_FinancialUtils</text>
</g>
<!-- 140219170765904&#45;&gt;140219170881096 -->
<g id="edge20" class="edge">
<title>140219170765904&#45;&gt;140219170881096</title>
<path fill="none" stroke="#000000" d="M797.0853,-57.8525C819.8559,-51.8436 852.6055,-43.2013 877.6541,-36.5913"/>
<polygon fill="#000000" stroke="#000000" points="878.7467,-39.9228 887.5227,-33.9871 876.9606,-33.1545 878.7467,-39.9228"/>
</g>
<!-- 140219170881376 -->
<g id="node41" class="node">
<title>140219170881376</title>
<ellipse fill="none" stroke="#000000" cx="914" cy="-109" rx="27" ry="27"/>
<text text-anchor="middle" x="914" y="-105.3" font-family="Times,serif" font-size="14.00" fill="#000000">splace_in_MarketSummaryDataBean_MarketSummaryDataBean_0</text>
</g>
<!-- 140219170765904&#45;&gt;140219170881376 -->
<g id="edge21" class="edge">
<title>140219170765904&#45;&gt;140219170881376</title>
<path fill="none" stroke="#000000" d="M797.0853,-73.2761C819.9991,-80.2775 853.0179,-90.3666 878.1258,-98.0384"/>
<polygon fill="#000000" stroke="#000000" points="877.4198,-101.4824 888.0061,-101.0574 879.4653,-94.7879 877.4198,-101.4824"/>
</g>
<!-- 140219170877848 -->
<g id="node14" class="node">
<title>140219170877848</title>
<polygon fill="none" stroke="#000000" points="508,-422 454,-422 454,-386 508,-386 508,-422"/>
<text text-anchor="middle" x="481" y="-400.3" font-family="Times,serif" font-size="14.00" fill="#000000">hid_2</text>
</g>
<!-- 140219170877848&#45;&gt;140219170877512 -->
<g id="edge22" class="edge">
<title>140219170877848&#45;&gt;140219170877512</title>
<path fill="none" stroke="#000000" d="M508.2734,-394.7835C531.5937,-386.9028 565.3085,-375.5095 590.6871,-366.9333"/>
<polygon fill="#000000" stroke="#000000" points="591.956,-370.199 600.3092,-363.6817 589.7149,-363.5675 591.956,-370.199"/>
</g>
<!-- 140219170878576 -->
<g id="node15" class="node">
<title>140219170878576</title>
<polygon fill="none" stroke="#000000" points="1832,-373 1778,-373 1778,-337 1832,-337 1832,-373"/>
<text text-anchor="middle" x="1805" y="-351.3" font-family="Times,serif" font-size="14.00" fill="#000000">hid_3</text>
</g>
<!-- 140219170878408 -->
<g id="node29" class="node">
<title>140219170878408</title>
<ellipse fill="none" stroke="#000000" cx="1895" cy="-262" rx="27" ry="27"/>
<text text-anchor="middle" x="1895" y="-258.3" font-family="Times,serif" font-size="14.00" fill="#000000">pre_Log</text>
</g>
<!-- 140219170878576&#45;&gt;140219170878408 -->
<g id="edge23" class="edge">
<title>140219170878576&#45;&gt;140219170878408</title>
<path fill="none" stroke="#000000" d="M1822.7811,-336.6262C1835.9883,-322.9787 1854.2061,-304.1537 1869.0397,-288.8257"/>
<polygon fill="#000000" stroke="#000000" points="1871.5739,-291.2399 1876.013,-281.6199 1866.5436,-286.372 1871.5739,-291.2399"/>
</g>
<!-- 140219170879304 -->
<g id="node16" class="node">
<title>140219170879304</title>
<polygon fill="none" stroke="#000000" points="1235.5,-448 1181.5,-448 1181.5,-412 1235.5,-412 1235.5,-448"/>
<text text-anchor="middle" x="1208.5" y="-426.3" font-family="Times,serif" font-size="14.00" fill="#000000">hid_4</text>
</g>
<!-- 140219170878520 -->
<g id="node33" class="node">
<title>140219170878520</title>
<ellipse fill="none" stroke="#000000" cx="1323" cy="-430" rx="27" ry="27"/>
<text text-anchor="middle" x="1323" y="-426.3" font-family="Times,serif" font-size="14.00" fill="#000000">pre_Root</text>
</g>
<!-- 140219170879304&#45;&gt;140219170878520 -->
<g id="edge24" class="edge">
<title>140219170879304&#45;&gt;140219170878520</title>
<path fill="none" stroke="#000000" d="M1235.6349,-430C1250.4989,-430 1269.1492,-430 1285.3969,-430"/>
<polygon fill="#000000" stroke="#000000" points="1285.6631,-433.5001 1295.6631,-430 1285.663,-426.5001 1285.6631,-433.5001"/>
</g>
<!-- 140219170879808 -->
<g id="node17" class="node">
<title>140219170879808</title>
<polygon fill="none" stroke="#000000" points="1235.5,-646 1181.5,-646 1181.5,-610 1235.5,-610 1235.5,-646"/>
<text text-anchor="middle" x="1208.5" y="-624.3" font-family="Times,serif" font-size="14.00" fill="#000000">hid_5</text>
</g>
<!-- 140219170879248 -->
<g id="node34" class="node">
<title>140219170879248</title>
<ellipse fill="none" stroke="#000000" cx="1323" cy="-628" rx="27" ry="27"/>
<text text-anchor="middle" x="1323" y="-624.3" font-family="Times,serif" font-size="14.00" fill="#000000">pre_TradeConfig</text>
</g>
<!-- 140219170879808&#45;&gt;140219170879248 -->
<g id="edge25" class="edge">
<title>140219170879808&#45;&gt;140219170879248</title>
<path fill="none" stroke="#000000" d="M1235.6349,-628C1250.4989,-628 1269.1492,-628 1285.3969,-628"/>
<polygon fill="#000000" stroke="#000000" points="1285.6631,-631.5001 1295.6631,-628 1285.663,-624.5001 1285.6631,-631.5001"/>
</g>
<!-- 140219170880368 -->
<g id="node18" class="node">
<title>140219170880368</title>
<polygon fill="none" stroke="#000000" points="508,-600 454,-600 454,-564 508,-564 508,-600"/>
<text text-anchor="middle" x="481" y="-578.3" font-family="Times,serif" font-size="14.00" fill="#000000">hid_6</text>
</g>
<!-- 140219170879976 -->
<g id="node35" class="node">
<title>140219170879976</title>
<ellipse fill="none" stroke="#000000" cx="626" cy="-555" rx="27" ry="27"/>
<text text-anchor="middle" x="626" y="-551.3" font-family="Times,serif" font-size="14.00" fill="#000000">pre_TradeConfigServlet</text>
</g>
<!-- 140219170880368&#45;&gt;140219170879976 -->
<g id="edge26" class="edge">
<title>140219170880368&#45;&gt;140219170879976</title>
<path fill="none" stroke="#000000" d="M508.2734,-576.9215C531.2021,-572.652 564.1792,-566.5115 589.4017,-561.8149"/>
<polygon fill="#000000" stroke="#000000" points="590.1485,-565.236 599.3388,-559.9645 588.867,-558.3543 590.1485,-565.236"/>
</g>
<!-- 140219170880536 -->
<g id="node19" class="node">
<title>140219170880536</title>
<polygon fill="none" stroke="#000000" points="508,-523 454,-523 454,-487 508,-487 508,-523"/>
<text text-anchor="middle" x="481" y="-501.3" font-family="Times,serif" font-size="14.00" fill="#000000">hid_7</text>
</g>
<!-- 140219170880536&#45;&gt;140219170879976 -->
<g id="edge27" class="edge">
<title>140219170880536&#45;&gt;140219170879976</title>
<path fill="none" stroke="#000000" d="M508.2734,-514.4046C531.5937,-522.4461 565.3085,-534.0719 590.6871,-542.8231"/>
<polygon fill="#000000" stroke="#000000" points="589.7144,-546.1899 600.3092,-546.1411 591.9964,-539.5723 589.7144,-546.1899"/>
</g>
<!-- 140219170881152 -->
<g id="node20" class="node">
<title>140219170881152</title>
<polygon fill="none" stroke="#000000" points="273,-83 219,-83 219,-47 273,-47 273,-83"/>
<text text-anchor="middle" x="246" y="-61.3" font-family="Times,serif" font-size="14.00" fill="#000000">hid_8</text>
</g>
<!-- 140219170879752 -->
<g id="node30" class="node">
<title>140219170879752</title>
<ellipse fill="none" stroke="#000000" cx="336" cy="-65" rx="27" ry="27"/>
<text text-anchor="middle" x="336" y="-61.3" font-family="Times,serif" font-size="14.00" fill="#000000">pre_MarketSummaryDataBean</text>
</g>
<!-- 140219170881152&#45;&gt;140219170879752 -->
<g id="edge28" class="edge">
<title>140219170881152&#45;&gt;140219170879752</title>
<path fill="none" stroke="#000000" d="M273.003,-65C281.0277,-65 289.9665,-65 298.5309,-65"/>
<polygon fill="#000000" stroke="#000000" points="298.7051,-68.5001 308.705,-65 298.705,-61.5001 298.7051,-68.5001"/>
</g>
<!-- 140219170763048 -->
<g id="node21" class="node">
<title>140219170763048</title>
<polygon fill="none" stroke="#000000" points="1031,-373 977,-373 977,-337 1031,-337 1031,-373"/>
<text text-anchor="middle" x="1004" y="-351.3" font-family="Times,serif" font-size="14.00" fill="#000000">hid_9</text>
</g>
<!-- 140219170878296 -->
<g id="node32" class="node">
<title>140219170878296</title>
<ellipse fill="none" stroke="#000000" cx="1094" cy="-300" rx="27" ry="27"/>
<text text-anchor="middle" x="1094" y="-296.3" font-family="Times,serif" font-size="14.00" fill="#000000">pre_QuoteDataBean</text>
</g>
<!-- 140219170763048&#45;&gt;140219170878296 -->
<g id="edge29" class="edge">
<title>140219170763048&#45;&gt;140219170878296</title>
<path fill="none" stroke="#000000" d="M1031.003,-338.4982C1040.7743,-332.5268 1051.9012,-325.7271 1062.0567,-319.5209"/>
<polygon fill="#000000" stroke="#000000" points="1063.965,-322.4566 1070.6728,-314.2555 1060.3148,-316.4836 1063.965,-322.4566"/>
</g>
<!-- 140219170879136 -->
<g id="node37" class="node">
<title>140219170879136</title>
<ellipse fill="none" stroke="#000000" cx="1429" cy="-355" rx="27" ry="27"/>
<text text-anchor="middle" x="1429" y="-351.3" font-family="Times,serif" font-size="14.00" fill="#000000">splace_in_Log_MarketSummarySingleton_0</text>
</g>
<!-- 140219170763048&#45;&gt;140219170879136 -->
<g id="edge30" class="edge">
<title>140219170763048&#45;&gt;140219170879136</title>
<path fill="none" stroke="#000000" d="M1031.2322,-355C1104.8474,-355 1307.9028,-355 1391.891,-355"/>
<polygon fill="#000000" stroke="#000000" points="1391.9947,-358.5001 1401.9946,-355 1391.9946,-351.5001 1391.9947,-358.5001"/>
</g>
<!-- 140219170879640 -->
<g id="node44" class="node">
<title>140219170879640</title>
<ellipse fill="none" stroke="#000000" cx="1094" cy="-410" rx="27" ry="27"/>
<text text-anchor="middle" x="1094" y="-406.3" font-family="Times,serif" font-size="14.00" fill="#000000">splace_in_Root_MarketSummarySingleton_0</text>
</g>
<!-- 140219170763048&#45;&gt;140219170879640 -->
<g id="edge31" class="edge">
<title>140219170763048&#45;&gt;140219170879640</title>
<path fill="none" stroke="#000000" d="M1031.003,-371.5018C1040.7743,-377.4732 1051.9012,-384.2729 1062.0567,-390.4791"/>
<polygon fill="#000000" stroke="#000000" points="1060.3148,-393.5164 1070.6728,-395.7445 1063.965,-387.5434 1060.3148,-393.5164"/>
</g>
<!-- 140219164351904 -->
<g id="node22" class="node">
<title>140219164351904</title>
<ellipse fill="#00ff00" stroke="#000000" cx="336" cy="-489" rx="27" ry="27"/>
<text text-anchor="middle" x="336" y="-485.3" font-family="Times,serif" font-size="14.00" fill="#000000">1</text>
</g>
<!-- 140219164351904&#45;&gt;140219170877848 -->
<g id="edge45" class="edge">
<title>140219164351904&#45;&gt;140219170877848</title>
<path fill="none" stroke="#000000" d="M359.2968,-475.3433C382.4564,-461.7669 418.2994,-440.7555 445.0987,-425.0456"/>
<polygon fill="#000000" stroke="#000000" points="446.9521,-428.0162 453.809,-419.9395 443.412,-421.9773 446.9521,-428.0162"/>
</g>
<!-- 140219164351904&#45;&gt;140219170880536 -->
<g id="edge46" class="edge">
<title>140219164351904&#45;&gt;140219170880536</title>
<path fill="none" stroke="#000000" d="M362.9336,-491.972C385.6801,-494.4819 418.4902,-498.1024 443.7527,-500.89"/>
<polygon fill="#000000" stroke="#000000" points="443.395,-504.3716 453.7186,-501.9896 444.1629,-497.4139 443.395,-504.3716"/>
</g>
<!-- 140219170763664&#45;&gt;140219170763832 -->
<g id="edge32" class="edge">
<title>140219170763664&#45;&gt;140219170763832</title>
<path fill="none" stroke="#000000" d="M182.5162,-294.5979C190.7151,-296.3288 199.9049,-298.2688 208.6915,-300.1238"/>
<polygon fill="#000000" stroke="#000000" points="208.2302,-303.6034 218.7375,-302.2446 209.6761,-296.7544 208.2302,-303.6034"/>
</g>
<!-- 140219170765064&#45;&gt;140219170765904 -->
<g id="edge33" class="edge">
<title>140219170765064&#45;&gt;140219170765904</title>
<path fill="none" stroke="#000000" d="M653.0853,-65C675.4695,-65 707.4971,-65 732.3725,-65"/>
<polygon fill="#000000" stroke="#000000" points="732.5466,-68.5001 742.5466,-65 732.5465,-61.5001 732.5466,-68.5001"/>
</g>
<!-- 140219170762880&#45;&gt;140219170763048 -->
<g id="edge34" class="edge">
<title>140219170762880&#45;&gt;140219170763048</title>
<path fill="none" stroke="#000000" d="M941.003,-355C949.0277,-355 957.9665,-355 966.5309,-355"/>
<polygon fill="#000000" stroke="#000000" points="966.7051,-358.5001 976.705,-355 966.705,-351.5001 966.7051,-358.5001"/>
</g>
<!-- 140219170762992&#45;&gt;140219170764560 -->
<g id="edge35" class="edge">
<title>140219170762992&#45;&gt;140219170764560</title>
<path fill="none" stroke="#000000" d="M1562.003,-628C1570.0277,-628 1578.9665,-628 1587.5309,-628"/>
<polygon fill="#000000" stroke="#000000" points="1587.7051,-631.5001 1597.705,-628 1587.705,-624.5001 1587.7051,-631.5001"/>
</g>
<!-- 140219170765120&#45;&gt;140219170765288 -->
<g id="edge36" class="edge">
<title>140219170765120&#45;&gt;140219170765288</title>
<path fill="none" stroke="#000000" d="M941.003,-555C949.0277,-555 957.9665,-555 966.5309,-555"/>
<polygon fill="#000000" stroke="#000000" points="966.7051,-558.5001 976.705,-555 966.705,-551.5001 966.7051,-558.5001"/>
</g>
<!-- 140219170881096&#45;&gt;140219164352464 -->
<g id="edge37" class="edge">
<title>140219170881096&#45;&gt;140219164352464</title>
<path fill="none" stroke="#000000" d="M887.0313,-24.3438C836.0835,-19.5625 722.1671,-10 626,-10 246,-10 246,-10 246,-10 197.417,-10 142.8193,-18.2439 103.0383,-25.7853"/>
<polygon fill="#000000" stroke="#000000" points="102.1505,-22.3922 93.0002,-27.7328 103.4838,-29.2641 102.1505,-22.3922"/>
</g>
<!-- 140219170878408&#45;&gt;140219164352128 -->
<g id="edge38" class="edge">
<title>140219170878408&#45;&gt;140219164352128</title>
<path fill="none" stroke="#000000" d="M1875.1402,-243.6262C1843.691,-216.5231 1779.3695,-169 1715,-169 246,-169 246,-169 246,-169 188.0019,-169 122.8885,-187.6882 83.2929,-201.2413"/>
<polygon fill="#000000" stroke="#000000" points="82.0804,-197.9574 73.7959,-204.5619 84.3908,-204.5652 82.0804,-197.9574"/>
</g>
<!-- 140219170879752&#45;&gt;140219164352408 -->
<g id="edge39" class="edge">
<title>140219170879752&#45;&gt;140219164352408</title>
<path fill="none" stroke="#000000" d="M363.2734,-65C370.8644,-65 379.5567,-65 388.7044,-65"/>
<polygon fill="#000000" stroke="#000000" points="388.7789,-68.5001 398.7788,-65 388.7788,-61.5001 388.7789,-68.5001"/>
</g>
<!-- 140219170877512&#45;&gt;140219164351792 -->
<g id="edge40" class="edge">
<title>140219170877512&#45;&gt;140219164351792</title>
<path fill="none" stroke="#000000" d="M653.0853,-355C660.7436,-355 669.5307,-355 678.7739,-355"/>
<polygon fill="#000000" stroke="#000000" points="678.951,-358.5001 688.951,-355 678.951,-351.5001 678.951,-358.5001"/>
</g>
<!-- 140219170878296&#45;&gt;140219164352184 -->
<g id="edge41" class="edge">
<title>140219170878296&#45;&gt;140219164352184</title>
<path fill="none" stroke="#000000" d="M1121.1349,-299.0521C1128.9188,-298.7801 1137.7409,-298.4719 1146.7126,-298.1585"/>
<polygon fill="#000000" stroke="#000000" points="1146.9865,-301.6512 1156.8581,-297.8041 1146.742,-294.6554 1146.9865,-301.6512"/>
</g>
<!-- 140219170878520&#45;&gt;140219164352240 -->
<g id="edge42" class="edge">
<title>140219170878520&#45;&gt;140219164352240</title>
<path fill="none" stroke="#000000" d="M1350.0225,-430C1362.6333,-430 1377.8509,-430 1391.5484,-430"/>
<polygon fill="#000000" stroke="#000000" points="1391.6583,-433.5001 1401.6582,-430 1391.6582,-426.5001 1391.6583,-433.5001"/>
</g>
<!-- 140219170879248&#45;&gt;140219164352296 -->
<g id="edge43" class="edge">
<title>140219170879248&#45;&gt;140219164352296</title>
<path fill="none" stroke="#000000" d="M1350.0225,-628C1357.9553,-628 1366.9196,-628 1375.8881,-628"/>
<polygon fill="#000000" stroke="#000000" points="1375.961,-631.5001 1385.961,-628 1375.9609,-624.5001 1375.961,-631.5001"/>
</g>
<!-- 140219170879976&#45;&gt;140219164352352 -->
<g id="edge44" class="edge">
<title>140219170879976&#45;&gt;140219164352352</title>
<path fill="none" stroke="#000000" d="M653.0853,-555C665.7834,-555 681.5847,-555 697.4232,-555"/>
<polygon fill="#000000" stroke="#000000" points="697.8045,-558.5001 707.8045,-555 697.8045,-551.5001 697.8045,-558.5001"/>
</g>
<!-- 140219170878912&#45;&gt;140219170878576 -->
<g id="edge47" class="edge">
<title>140219170878912&#45;&gt;140219170878576</title>
<path fill="none" stroke="#000000" d="M1648.1634,-260.898C1678.8,-279.28 1733.1086,-311.8652 1769.0866,-333.452"/>
<polygon fill="#000000" stroke="#000000" points="1767.4374,-336.5441 1777.8131,-338.6878 1771.0389,-330.5416 1767.4374,-336.5441"/>
</g>
<!-- 140219170879136&#45;&gt;140219170878576 -->
<g id="edge48" class="edge">
<title>140219170879136&#45;&gt;140219170878576</title>
<path fill="none" stroke="#000000" d="M1456.041,-355C1522.219,-355 1692.4133,-355 1767.9433,-355"/>
<polygon fill="#000000" stroke="#000000" points="1767.952,-358.5001 1777.9519,-355 1767.9519,-351.5001 1767.952,-358.5001"/>
</g>
<!-- 140219170878800&#45;&gt;140219170878576 -->
<g id="edge49" class="edge">
<title>140219170878800&#45;&gt;140219170878576</title>
<path fill="none" stroke="#000000" d="M1558.4884,-500.1679C1605.765,-472.3273 1712.6768,-409.3681 1768.8971,-376.2606"/>
<polygon fill="#000000" stroke="#000000" points="1770.9553,-379.1104 1777.7961,-371.0201 1767.4032,-373.0786 1770.9553,-379.1104"/>
</g>
<!-- 140219170879024&#45;&gt;140219170878576 -->
<g id="edge50" class="edge">
<title>140219170879024&#45;&gt;140219170878576</title>
<path fill="none" stroke="#000000" d="M1724.8029,-563.5124C1741.8297,-519.2427 1776.7303,-428.5013 1794.3383,-382.7203"/>
<polygon fill="#000000" stroke="#000000" points="1797.6984,-383.734 1798.0215,-373.1441 1791.1649,-381.2211 1797.6984,-383.734"/>
</g>
<!-- 140219170881488&#45;&gt;140219170881152 -->
<g id="edge51" class="edge">
<title>140219170881488&#45;&gt;140219170881152</title>
<path fill="none" stroke="#000000" d="M183.003,-65C191.0277,-65 199.9665,-65 208.5309,-65"/>
<polygon fill="#000000" stroke="#000000" points="208.7051,-68.5001 218.705,-65 208.705,-61.5001 208.7051,-68.5001"/>
</g>
<!-- 140219170881376&#45;&gt;140219170881152 -->
<g id="edge52" class="edge">
<title>140219170881376&#45;&gt;140219170881152</title>
<path fill="none" stroke="#000000" d="M887.0131,-110.7188C836.035,-113.8125 722.07,-120 626,-120 481,-120 481,-120 481,-120 404.0906,-120 382.1352,-124.7973 309,-101 299.4869,-97.9046 289.8134,-93.2653 280.9945,-88.3379"/>
<polygon fill="#000000" stroke="#000000" points="282.5522,-85.1939 272.1561,-83.1513 279.0094,-91.2312 282.5522,-85.1939"/>
</g>
<!-- 140219170877904&#45;&gt;140219170877680 -->
<g id="edge53" class="edge">
<title>140219170877904&#45;&gt;140219170877680</title>
<path fill="none" stroke="#000000" d="M363.2734,-308C385.9566,-308 418.4742,-308 443.589,-308"/>
<polygon fill="#000000" stroke="#000000" points="443.8489,-311.5001 453.8489,-308 443.8489,-304.5001 443.8489,-311.5001"/>
</g>
<!-- 140219170878016&#45;&gt;140219170877680 -->
<g id="edge54" class="edge">
<title>140219170878016&#45;&gt;140219170877680</title>
<path fill="none" stroke="#000000" d="M1296.7417,-272.5248C1254.3684,-262.66 1168.1556,-245 1094,-245 770,-245 770,-245 770,-245 677.4231,-245 571.9135,-276.243 517.5968,-294.7253"/>
<polygon fill="#000000" stroke="#000000" points="516.3746,-291.4445 508.0651,-298.0175 518.6599,-298.061 516.3746,-291.4445"/>
</g>
<!-- 140219170879640&#45;&gt;140219170879304 -->
<g id="edge55" class="edge">
<title>140219170879640&#45;&gt;140219170879304</title>
<path fill="none" stroke="#000000" d="M1120.8452,-414.6891C1135.9529,-417.328 1155.0403,-420.6621 1171.5434,-423.5447"/>
<polygon fill="#000000" stroke="#000000" points="1170.9732,-426.998 1181.4263,-425.271 1172.1777,-420.1024 1170.9732,-426.998"/>
</g>
<!-- 140219170879528&#45;&gt;140219170879304 -->
<g id="edge56" class="edge">
<title>140219170879528&#45;&gt;140219170879304</title>
<path fill="none" stroke="#000000" d="M1118.8448,-470.7168C1134.3835,-463.6599 1154.6711,-454.4463 1172.0167,-446.5688"/>
<polygon fill="#000000" stroke="#000000" points="1173.6438,-449.674 1181.3016,-442.3521 1170.7493,-443.3004 1173.6438,-449.674"/>
</g>
<!-- 140219170880704&#45;&gt;140219170880368 -->
<g id="edge57" class="edge">
<title>140219170880704&#45;&gt;140219170880368</title>
<path fill="none" stroke="#000000" d="M363.2734,-575.5047C385.9566,-576.7562 418.4742,-578.5503 443.589,-579.9359"/>
<polygon fill="#000000" stroke="#000000" points="443.6712,-583.4457 453.8489,-580.502 444.0569,-576.4563 443.6712,-583.4457"/>
</g>
<!-- 140219170880592&#45;&gt;140219170880368 -->
<g id="edge58" class="edge">
<title>140219170880592&#45;&gt;140219170880368</title>
<path fill="none" stroke="#000000" d="M1068.0926,-655.4685C1033.4064,-644.8228 969.7705,-628 914,-628 770,-628 770,-628 770,-628 678.5988,-628 572.936,-605.2822 518.1963,-591.7767"/>
<polygon fill="#000000" stroke="#000000" points="518.8153,-588.3237 508.2645,-589.2888 517.1143,-595.1139 518.8153,-588.3237"/>
</g>
<!-- 140219170880816&#45;&gt;140219170880368 -->
<g id="edge59" class="edge">
<title>140219170880816&#45;&gt;140219170880368</title>
<path fill="none" stroke="#000000" d="M1688.2566,-704.5994C1653.183,-710.2225 1589.6771,-719 1535,-719 770,-719 770,-719 770,-719 666.3339,-719 560.1636,-646.1339 510.2786,-606.6833"/>
<polygon fill="#000000" stroke="#000000" points="512.1856,-603.7259 502.1973,-600.1925 507.8022,-609.1835 512.1856,-603.7259"/>
</g>
<!-- 140219170880144&#45;&gt;140219170879808 -->
<g id="edge60" class="edge">
<title>140219170880144&#45;&gt;140219170879808</title>
<path fill="none" stroke="#000000" d="M652.9912,-772.5938C703.9766,-770.0625 817.9531,-765 914,-765 914,-765 914,-765 1004,-765 1082.9601,-765 1154.4714,-693.6316 1188.1532,-653.9165"/>
<polygon fill="#000000" stroke="#000000" points="1190.8709,-656.1222 1194.5659,-646.1925 1185.4852,-651.6507 1190.8709,-656.1222"/>
</g>
<!-- 140219170880032&#45;&gt;140219170879808 -->
<g id="edge61" class="edge">
<title>140219170880032&#45;&gt;140219170879808</title>
<path fill="none" stroke="#000000" d="M1119.9818,-600.169C1135.3152,-604.9899 1154.9653,-611.1681 1171.8546,-616.4783"/>
<polygon fill="#000000" stroke="#000000" points="1170.8369,-619.8272 1181.4263,-619.4877 1172.9365,-613.1495 1170.8369,-619.8272"/>
</g>
</g>
</svg>
