<?xml version="1.0" encoding="UTF-8" standalone="no"?>
<!DOCTYPE svg PUBLIC "-//W3C//DTD SVG 1.1//EN"
 "http://www.w3.org/Graphics/SVG/1.1/DTD/svg11.dtd">
<!-- Generated by graphviz version 2.40.1 (20161225.0304)
 -->
<!-- Title: imdf_net_1585315461.625104 Pages: 1 -->
<svg width="776pt" height="457pt"
 viewBox="0.00 0.00 776.00 457.00" xmlns="http://www.w3.org/2000/svg" xmlns:xlink="http://www.w3.org/1999/xlink">
<g id="graph0" class="graph" transform="scale(1 1) rotate(0) translate(4 453)">
<title>imdf_net_1585315461.625104</title>
<!-- 140178131696384 -->
<g id="node1" class="node">
<title>140178131696384</title>
<polygon fill="none" stroke="#000000" points="93,-217 0,-217 0,-181 93,-181 93,-217"/>
<text text-anchor="middle" x="46.5" y="-195.3" font-family="Times,serif" font-size="14.00" fill="#000000">FinancialUtils</text>
</g>
<!-- 140178131694984 -->
<g id="node18" class="node">
<title>140178131694984</title>
<ellipse fill="none" stroke="#000000" cx="156" cy="-246" rx="27" ry="27"/>
<text text-anchor="middle" x="156" y="-242.3" font-family="Times,serif" font-size="14.00" fill="#000000">p_6</text>
</g>
<!-- 140178131696384&#45;&gt;140178131694984 -->
<g id="edge7" class="edge">
<title>140178131696384&#45;&gt;140178131694984</title>
<path fill="none" stroke="#000000" d="M88.5224,-217.037C99.5123,-221.7541 111.2265,-226.7822 121.7575,-231.3023"/>
<polygon fill="#000000" stroke="#000000" points="120.4717,-234.5591 131.0414,-235.2872 123.2327,-228.1266 120.4717,-234.5591"/>
</g>
<!-- 140178131697504 -->
<g id="node2" class="node">
<title>140178131697504</title>
<polygon fill="none" stroke="#000000" points="713,-277 659,-277 659,-241 713,-241 713,-277"/>
<text text-anchor="middle" x="686" y="-255.3" font-family="Times,serif" font-size="14.00" fill="#000000">Log</text>
</g>
<!-- 140178131697504&#45;&gt;140178131694984 -->
<g id="edge1" class="edge">
<title>140178131697504&#45;&gt;140178131694984</title>
<path fill="none" stroke="#000000" d="M658.7878,-266.7034C613.4857,-278.8285 519.5645,-301 438.5,-301 336,-301 336,-301 336,-301 282.984,-301 224.8679,-278.9082 189.4111,-262.727"/>
<polygon fill="#000000" stroke="#000000" points="190.5757,-259.4079 180.0345,-258.3431 187.6109,-265.749 190.5757,-259.4079"/>
</g>
<!-- 140178131697168 -->
<g id="node3" class="node">
<title>140178131697168</title>
<polygon fill="none" stroke="#000000" points="768,-181 604,-181 604,-145 768,-145 768,-181"/>
<text text-anchor="middle" x="686" y="-159.3" font-family="Times,serif" font-size="14.00" fill="#000000">MarketSummaryDataBean</text>
</g>
<!-- 140178131697168&#45;&gt;140178131694984 -->
<g id="edge3" class="edge">
<title>140178131697168&#45;&gt;140178131694984</title>
<path fill="none" stroke="#000000" d="M603.7631,-177C555.7258,-184 493.8508,-191 438.5,-191 336,-191 336,-191 336,-191 282.984,-191 224.8679,-213.0918 189.4111,-229.273"/>
<polygon fill="#000000" stroke="#000000" points="187.6109,-226.251 180.0345,-233.6569 190.5757,-232.5921 187.6109,-226.251"/>
</g>
<!-- 140178131695376 -->
<g id="node4" class="node">
<title>140178131695376</title>
<polygon fill="none" stroke="#000000" points="767,-115 605,-115 605,-79 767,-79 767,-115"/>
<text text-anchor="middle" x="686" y="-93.3" font-family="Times,serif" font-size="14.00" fill="#000000">MarketSummarySingleton</text>
</g>
<!-- 140178131695376&#45;&gt;140178131694984 -->
<g id="edge6" class="edge">
<title>140178131695376&#45;&gt;140178131694984</title>
<path fill="none" stroke="#000000" d="M634.0903,-78.8686C584.4993,-63.181 507.3281,-43 438.5,-43 336,-43 336,-43 336,-43 282.5317,-43 258.8408,-35.3408 219,-71 198.0291,-89.7699 176.407,-164.118 164.7438,-209.6525"/>
<polygon fill="#000000" stroke="#000000" points="161.3239,-208.9007 162.273,-219.4529 168.1115,-210.612 161.3239,-208.9007"/>
</g>
<!-- 140178131697336 -->
<g id="node5" class="node">
<title>140178131697336</title>
<polygon fill="none" stroke="#000000" points="737.5,-446 634.5,-446 634.5,-410 737.5,-410 737.5,-446"/>
<text text-anchor="middle" x="686" y="-424.3" font-family="Times,serif" font-size="14.00" fill="#000000">QuoteDataBean</text>
</g>
<!-- 140178131697336&#45;&gt;140178131694984 -->
<g id="edge5" class="edge">
<title>140178131697336&#45;&gt;140178131694984</title>
<path fill="none" stroke="#000000" d="M634.4384,-434.9344C584.4478,-441.0512 506.419,-449 438.5,-449 336,-449 336,-449 336,-449 280.7511,-449 258.6165,-445.5094 219,-407 184.6216,-373.5823 168.6172,-319.1864 161.4419,-283.0014"/>
<polygon fill="#000000" stroke="#000000" points="164.8259,-282.0526 159.5659,-272.8557 157.9425,-283.3254 164.8259,-282.0526"/>
</g>
<!-- 140178131695320 -->
<g id="node6" class="node">
<title>140178131695320</title>
<polygon fill="none" stroke="#000000" points="465.5,-374 411.5,-374 411.5,-338 465.5,-338 465.5,-374"/>
<text text-anchor="middle" x="438.5" y="-352.3" font-family="Times,serif" font-size="14.00" fill="#000000">Root</text>
</g>
<!-- 140178131694144 -->
<g id="node20" class="node">
<title>140178131694144</title>
<ellipse fill="#ffa500" stroke="#000000" cx="541" cy="-356" rx="27" ry="27"/>
</g>
<!-- 140178131695320&#45;&gt;140178131694144 -->
<g id="edge2" class="edge">
<title>140178131695320&#45;&gt;140178131694144</title>
<path fill="none" stroke="#000000" d="M465.699,-356C477.2828,-356 490.9866,-356 503.5073,-356"/>
<polygon fill="#000000" stroke="#000000" points="503.6739,-359.5001 513.6739,-356 503.6739,-352.5001 503.6739,-359.5001"/>
</g>
<!-- 140178131696832 -->
<g id="node7" class="node">
<title>140178131696832</title>
<polygon fill="none" stroke="#000000" points="729,-372 643,-372 643,-336 729,-336 729,-372"/>
<text text-anchor="middle" x="686" y="-350.3" font-family="Times,serif" font-size="14.00" fill="#000000">TradeConfig</text>
</g>
<!-- 140178131696832&#45;&gt;140178131694984 -->
<g id="edge4" class="edge">
<title>140178131696832&#45;&gt;140178131694984</title>
<path fill="none" stroke="#000000" d="M642.8784,-370.1814C594.0321,-387.0331 511.6953,-411 438.5,-411 336,-411 336,-411 336,-411 282.0902,-411 260.3123,-413.6347 219,-379 189.4474,-354.2242 172.8427,-312.4295 164.191,-282.2974"/>
<polygon fill="#000000" stroke="#000000" points="167.5481,-281.3038 161.5546,-272.5672 160.7917,-283.1345 167.5481,-281.3038"/>
</g>
<!-- 140178131696888 -->
<g id="node8" class="node">
<title>140178131696888</title>
<polygon fill="none" stroke="#000000" points="748,-36 624,-36 624,0 748,0 748,-36"/>
<text text-anchor="middle" x="686" y="-14.3" font-family="Times,serif" font-size="14.00" fill="#000000">TradeConfigServlet</text>
</g>
<!-- 140178131696888&#45;&gt;140178131694984 -->
<g id="edge8" class="edge">
<title>140178131696888&#45;&gt;140178131694984</title>
<path fill="none" stroke="#000000" d="M623.7462,-12.918C573.7242,-9.2719 501.6436,-5 438.5,-5 336,-5 336,-5 336,-5 281.7232,-5 257.4968,-1.7381 219,-40 206.7639,-52.1614 179.4379,-153.809 165.1312,-209.6281"/>
<polygon fill="#000000" stroke="#000000" points="161.6971,-208.9307 162.6179,-219.4855 168.4801,-210.6602 161.6971,-208.9307"/>
</g>
<!-- 140178131695824 -->
<g id="node9" class="node">
<title>140178131695824</title>
<polygon fill="none" stroke="#000000" points="478,-121 399,-121 399,-85 478,-85 478,-121"/>
<text text-anchor="middle" x="438.5" y="-99.3" font-family="Times,serif" font-size="14.00" fill="#000000">init_loop_2</text>
</g>
<!-- 140178131695040 -->
<g id="node17" class="node">
<title>140178131695040</title>
<ellipse fill="none" stroke="#000000" cx="541" cy="-136" rx="27" ry="27"/>
<text text-anchor="middle" x="541" y="-132.3" font-family="Times,serif" font-size="14.00" fill="#000000">p_5</text>
</g>
<!-- 140178131695824&#45;&gt;140178131695040 -->
<g id="edge9" class="edge">
<title>140178131695824&#45;&gt;140178131695040</title>
<path fill="none" stroke="#000000" d="M478.1292,-115.7587C487.134,-118.6578 496.644,-121.7195 505.4662,-124.5598"/>
<polygon fill="#000000" stroke="#000000" points="504.4793,-127.919 515.0708,-127.6521 506.6246,-121.2558 504.4793,-127.919"/>
</g>
<!-- 140178131695936 -->
<g id="node10" class="node">
<title>140178131695936</title>
<polygon fill="none" stroke="#000000" points="465.5,-260 411.5,-260 411.5,-224 465.5,-224 465.5,-260"/>
<text text-anchor="middle" x="438.5" y="-238.3" font-family="Times,serif" font-size="14.00" fill="#000000">loop_3</text>
</g>
<!-- 140178131695936&#45;&gt;140178131695040 -->
<g id="edge10" class="edge">
<title>140178131695936&#45;&gt;140178131695040</title>
<path fill="none" stroke="#000000" d="M456.3541,-223.5362C472.5576,-206.7795 496.6496,-181.8648 514.9921,-162.896"/>
<polygon fill="#000000" stroke="#000000" points="517.5254,-165.3111 521.9608,-155.6894 512.4933,-160.4452 517.5254,-165.3111"/>
</g>
<!-- 140178131693920 -->
<g id="node11" class="node">
<title>140178131693920</title>
<polygon fill="none" stroke="#000000" points="273,-264 219,-264 219,-228 273,-228 273,-264"/>
<text text-anchor="middle" x="246" y="-242.3" font-family="Times,serif" font-size="14.00" fill="#000000">skip_4</text>
</g>
<!-- 140178131694592 -->
<g id="node19" class="node">
<title>140178131694592</title>
<ellipse fill="none" stroke="#000000" cx="336" cy="-246" rx="27" ry="27"/>
<text text-anchor="middle" x="336" y="-242.3" font-family="Times,serif" font-size="14.00" fill="#000000">p_7</text>
</g>
<!-- 140178131693920&#45;&gt;140178131694592 -->
<g id="edge23" class="edge">
<title>140178131693920&#45;&gt;140178131694592</title>
<path fill="none" stroke="#000000" d="M273.003,-246C281.0277,-246 289.9665,-246 298.5309,-246"/>
<polygon fill="#000000" stroke="#000000" points="298.7051,-249.5001 308.705,-246 298.705,-242.5001 298.7051,-249.5001"/>
</g>
<!-- 140178131693976 -->
<g id="node12" class="node">
<title>140178131693976</title>
<polygon fill="none" stroke="#000000" points="273,-370 219,-370 219,-334 273,-334 273,-370"/>
<text text-anchor="middle" x="246" y="-348.3" font-family="Times,serif" font-size="14.00" fill="#000000">skip_5</text>
</g>
<!-- 140178131695600 -->
<g id="node16" class="node">
<title>140178131695600</title>
<ellipse fill="none" stroke="#000000" cx="336" cy="-356" rx="27" ry="27"/>
<text text-anchor="middle" x="336" y="-352.3" font-family="Times,serif" font-size="14.00" fill="#000000">p_4</text>
</g>
<!-- 140178131693976&#45;&gt;140178131695600 -->
<g id="edge24" class="edge">
<title>140178131693976&#45;&gt;140178131695600</title>
<path fill="none" stroke="#000000" d="M273.003,-353.2001C281.1013,-353.5601 290.1306,-353.9614 298.7665,-354.3452"/>
<polygon fill="#000000" stroke="#000000" points="298.8705,-357.8532 309.0161,-354.8007 299.1814,-350.8601 298.8705,-357.8532"/>
</g>
<!-- 140178131695544 -->
<g id="node13" class="node">
<title>140178131695544</title>
<polygon fill="none" stroke="#000000" points="273,-116 219,-116 219,-80 273,-80 273,-116"/>
<text text-anchor="middle" x="246" y="-94.3" font-family="Times,serif" font-size="14.00" fill="#000000">tau_1</text>
</g>
<!-- 140178131693640 -->
<g id="node15" class="node">
<title>140178131693640</title>
<ellipse fill="none" stroke="#000000" cx="336" cy="-98" rx="27" ry="27"/>
<text text-anchor="middle" x="336" y="-94.3" font-family="Times,serif" font-size="14.00" fill="#000000">p_3</text>
</g>
<!-- 140178131695544&#45;&gt;140178131693640 -->
<g id="edge26" class="edge">
<title>140178131695544&#45;&gt;140178131693640</title>
<path fill="none" stroke="#000000" d="M273.003,-98C281.0277,-98 289.9665,-98 298.5309,-98"/>
<polygon fill="#000000" stroke="#000000" points="298.7051,-101.5001 308.705,-98 298.705,-94.5001 298.7051,-101.5001"/>
</g>
<!-- 140178131694536 -->
<g id="node14" class="node">
<title>140178131694536</title>
<ellipse fill="#00ff00" stroke="#000000" cx="156" cy="-98" rx="27" ry="27"/>
<text text-anchor="middle" x="156" y="-94.3" font-family="Times,serif" font-size="14.00" fill="#000000">1</text>
</g>
<!-- 140178131694536&#45;&gt;140178131695544 -->
<g id="edge25" class="edge">
<title>140178131694536&#45;&gt;140178131695544</title>
<path fill="none" stroke="#000000" d="M183.003,-98C191.0277,-98 199.9665,-98 208.5309,-98"/>
<polygon fill="#000000" stroke="#000000" points="208.7051,-101.5001 218.705,-98 208.705,-94.5001 208.7051,-101.5001"/>
</g>
<!-- 140178131693640&#45;&gt;140178131695824 -->
<g id="edge11" class="edge">
<title>140178131693640&#45;&gt;140178131695824</title>
<path fill="none" stroke="#000000" d="M363.199,-99.3268C371.0426,-99.7094 379.8582,-100.1394 388.6204,-100.5668"/>
<polygon fill="#000000" stroke="#000000" points="388.6617,-104.0729 398.8204,-101.0644 389.0028,-97.0812 388.6617,-104.0729"/>
</g>
<!-- 140178131695600&#45;&gt;140178131695320 -->
<g id="edge12" class="edge">
<title>140178131695600&#45;&gt;140178131695320</title>
<path fill="none" stroke="#000000" d="M363.199,-356C374.7828,-356 388.4866,-356 401.0073,-356"/>
<polygon fill="#000000" stroke="#000000" points="401.1739,-359.5001 411.1739,-356 401.1739,-352.5001 401.1739,-359.5001"/>
</g>
<!-- 140178131695040&#45;&gt;140178131696384 -->
<g id="edge18" class="edge">
<title>140178131695040&#45;&gt;140178131696384</title>
<path fill="none" stroke="#000000" d="M514.1954,-139.6469C475.0987,-144.6421 400.1038,-153 336,-153 246,-153 246,-153 246,-153 196.849,-153 142.588,-166.4216 103.0785,-178.7652"/>
<polygon fill="#000000" stroke="#000000" points="101.8226,-175.4921 93.3636,-181.8713 103.9545,-182.1596 101.8226,-175.4921"/>
</g>
<!-- 140178131695040&#45;&gt;140178131697504 -->
<g id="edge13" class="edge">
<title>140178131695040&#45;&gt;140178131697504</title>
<path fill="none" stroke="#000000" d="M561.673,-153.802C573.9493,-164.3529 589.8357,-177.9706 604,-190 621.3899,-204.7688 640.9347,-221.2207 656.5798,-234.3546"/>
<polygon fill="#000000" stroke="#000000" points="654.4633,-237.1475 664.3737,-240.8938 658.9626,-231.785 654.4633,-237.1475"/>
</g>
<!-- 140178131695040&#45;&gt;140178131697168 -->
<g id="edge14" class="edge">
<title>140178131695040&#45;&gt;140178131697168</title>
<path fill="none" stroke="#000000" d="M567.5952,-140.9522C575.3623,-142.3985 584.3234,-144.0671 593.7681,-145.8258"/>
<polygon fill="#000000" stroke="#000000" points="593.284,-149.2957 603.7558,-147.6856 594.5655,-142.414 593.284,-149.2957"/>
</g>
<!-- 140178131695040&#45;&gt;140178131695376 -->
<g id="edge17" class="edge">
<title>140178131695040&#45;&gt;140178131695376</title>
<path fill="none" stroke="#000000" d="M567.2584,-128.9374C579.1749,-125.7323 593.952,-121.7577 608.9889,-117.7133"/>
<polygon fill="#000000" stroke="#000000" points="610.1326,-121.0302 618.8803,-115.0529 608.3144,-114.2704 610.1326,-121.0302"/>
</g>
<!-- 140178131695040&#45;&gt;140178131697336 -->
<g id="edge16" class="edge">
<title>140178131695040&#45;&gt;140178131697336</title>
<path fill="none" stroke="#000000" d="M545.1788,-162.7034C554.374,-218.7676 577.6518,-346.4135 604,-381 611.2247,-390.4836 620.9535,-398.3699 631.1832,-404.8017"/>
<polygon fill="#000000" stroke="#000000" points="629.4499,-407.8426 639.8499,-409.8654 632.9813,-401.7986 629.4499,-407.8426"/>
</g>
<!-- 140178131695040&#45;&gt;140178131696832 -->
<g id="edge15" class="edge">
<title>140178131695040&#45;&gt;140178131696832</title>
<path fill="none" stroke="#000000" d="M547.8696,-162.3523C557.0026,-193.9388 575.3998,-247.4298 604,-286 616.4546,-302.7963 633.9025,-318.0201 649.5039,-329.7843"/>
<polygon fill="#000000" stroke="#000000" points="647.7999,-332.8742 657.9379,-335.952 651.932,-327.2239 647.7999,-332.8742"/>
</g>
<!-- 140178131695040&#45;&gt;140178131696888 -->
<g id="edge19" class="edge">
<title>140178131695040&#45;&gt;140178131696888</title>
<path fill="none" stroke="#000000" d="M558.5704,-115.095C570.6033,-101.4345 587.3425,-83.6614 604,-70 616.6168,-59.6525 631.4159,-49.6956 644.9433,-41.3134"/>
<polygon fill="#000000" stroke="#000000" points="646.8855,-44.2287 653.6133,-36.0441 643.2499,-38.2468 646.8855,-44.2287"/>
</g>
<!-- 140178131694984&#45;&gt;140178131693920 -->
<g id="edge20" class="edge">
<title>140178131694984&#45;&gt;140178131693920</title>
<path fill="none" stroke="#000000" d="M183.003,-246C191.0277,-246 199.9665,-246 208.5309,-246"/>
<polygon fill="#000000" stroke="#000000" points="208.7051,-249.5001 218.705,-246 208.705,-242.5001 208.7051,-249.5001"/>
</g>
<!-- 140178131694984&#45;&gt;140178131693976 -->
<g id="edge21" class="edge">
<title>140178131694984&#45;&gt;140178131693976</title>
<path fill="none" stroke="#000000" d="M173.5666,-266.6895C187.9397,-283.6178 208.3508,-307.6576 223.8446,-325.9059"/>
<polygon fill="#000000" stroke="#000000" points="221.4376,-328.4787 230.578,-333.8363 226.7737,-323.948 221.4376,-328.4787"/>
</g>
<!-- 140178131694592&#45;&gt;140178131695936 -->
<g id="edge22" class="edge">
<title>140178131694592&#45;&gt;140178131695936</title>
<path fill="none" stroke="#000000" d="M363.199,-244.9386C374.7828,-244.4865 388.4866,-243.9517 401.0073,-243.4631"/>
<polygon fill="#000000" stroke="#000000" points="401.318,-246.9538 411.1739,-243.0664 401.045,-239.9591 401.318,-246.9538"/>
</g>
</g>
</svg>
