<?xml version="1.0" encoding="UTF-8" standalone="no"?>
<!DOCTYPE svg PUBLIC "-//W3C//DTD SVG 1.1//EN"
 "http://www.w3.org/Graphics/SVG/1.1/DTD/svg11.dtd">
<!-- Generated by graphviz version 2.40.1 (20161225.0304)
 -->
<!-- Title: alpha_classic_net_1585281872.4252155 Pages: 1 -->
<svg width="849pt" height="1916pt"
 viewBox="0.00 0.00 849.00 1916.00" xmlns="http://www.w3.org/2000/svg" xmlns:xlink="http://www.w3.org/1999/xlink">
<g id="graph0" class="graph" transform="scale(1 1) rotate(0) translate(4 1912)">
<title>alpha_classic_net_1585281872.4252155</title>
<!-- 140543361105872 -->
<g id="node1" class="node">
<title>140543361105872</title>
<polygon fill="none" stroke="#000000" points="243,-108 32,-108 32,-72 243,-72 243,-108"/>
<text text-anchor="middle" x="137.5" y="-86.3" font-family="Times,serif" font-size="14.00" fill="#000000">FinancialUtils:computeGainPercent</text>
</g>
<!-- 140543361105200 -->
<g id="node2" class="node">
<title>140543361105200</title>
<polygon fill="none" stroke="#000000" points="501,-306 381,-306 381,-270 501,-270 501,-306"/>
<text text-anchor="middle" x="441" y="-284.3" font-family="Times,serif" font-size="14.00" fill="#000000">JSFLoginFilter:init</text>
</g>
<!-- 140543361091344 -->
<g id="node42" class="node">
<title>140543361091344</title>
<ellipse fill="none" stroke="#000000" cx="634" cy="-153" rx="27" ry="27"/>
<text text-anchor="middle" x="634" y="-149.3" font-family="Times,serif" font-size="14.00" fill="#000000">({&#39;OrdersAlertFilter:init&#39;, &#39;TradeWebContextListener:contextInitialized&#39;, &#39;OrdersAlertFilter:doFilter&#39;, &#39;JSFLoginFilter:init&#39;, &#39;new JSFLoginFilter&#39;, &#39;new OrdersAlertFilter&#39;}, {&#39;Root&#39;})</text>
</g>
<!-- 140543361105200&#45;&gt;140543361091344 -->
<g id="edge2" class="edge">
<title>140543361105200&#45;&gt;140543361091344</title>
<path fill="none" stroke="#000000" d="M501.1775,-285.8952C524.7415,-282.5526 550.8863,-275.4736 571,-261 595.6224,-243.282 612.1362,-212.7252 622.0568,-188.6263"/>
<polygon fill="#000000" stroke="#000000" points="625.406,-189.6717 625.7859,-179.0836 618.8861,-187.1238 625.406,-189.6717"/>
</g>
<!-- 140543361090336 -->
<g id="node3" class="node">
<title>140543361090336</title>
<polygon fill="none" stroke="#000000" points="180.5,-234 94.5,-234 94.5,-198 180.5,-198 180.5,-234"/>
<text text-anchor="middle" x="137.5" y="-212.3" font-family="Times,serif" font-size="14.00" fill="#000000">Log:doTrace</text>
</g>
<!-- 140543361089664 -->
<g id="node4" class="node">
<title>140543361089664</title>
<polygon fill="none" stroke="#000000" points="167,-288 108,-288 108,-252 167,-252 167,-288"/>
<text text-anchor="middle" x="137.5" y="-266.3" font-family="Times,serif" font-size="14.00" fill="#000000">Log:log</text>
</g>
<!-- 140543361105480 -->
<g id="node5" class="node">
<title>140543361105480</title>
<polygon fill="none" stroke="#000000" points="171.5,-342 103.5,-342 103.5,-306 171.5,-306 171.5,-342"/>
<text text-anchor="middle" x="137.5" y="-320.3" font-family="Times,serif" font-size="14.00" fill="#000000">Log:trace</text>
</g>
<!-- 140543361089608 -->
<g id="node6" class="node">
<title>140543361089608</title>
<polygon fill="none" stroke="#000000" points="275,-396 0,-396 0,-360 275,-360 275,-396"/>
<text text-anchor="middle" x="137.5" y="-374.3" font-family="Times,serif" font-size="14.00" fill="#000000">MarketSummaryDataBean:getRandomInstance</text>
</g>
<!-- 140543361104864 -->
<g id="node7" class="node">
<title>140543361104864</title>
<polygon fill="none" stroke="#000000" points="519.5,-252 362.5,-252 362.5,-216 519.5,-216 519.5,-252"/>
<text text-anchor="middle" x="441" y="-230.3" font-family="Times,serif" font-size="14.00" fill="#000000">OrdersAlertFilter:doFilter</text>
</g>
<!-- 140543361104864&#45;&gt;140543361091344 -->
<g id="edge3" class="edge">
<title>140543361104864&#45;&gt;140543361091344</title>
<path fill="none" stroke="#000000" d="M519.7684,-224.2619C537.1966,-220.3164 555.1732,-214.7765 571,-207 584.6291,-200.3033 597.7161,-189.9656 608.3966,-180.1208"/>
<polygon fill="#000000" stroke="#000000" points="610.925,-182.5454 615.7216,-173.0985 606.0808,-177.4923 610.925,-182.5454"/>
</g>
<!-- 140543361104920 -->
<g id="node8" class="node">
<title>140543361104920</title>
<polygon fill="none" stroke="#000000" points="507,-198 375,-198 375,-162 507,-162 507,-198"/>
<text text-anchor="middle" x="441" y="-176.3" font-family="Times,serif" font-size="14.00" fill="#000000">OrdersAlertFilter:init</text>
</g>
<!-- 140543361104920&#45;&gt;140543361091344 -->
<g id="edge4" class="edge">
<title>140543361104920&#45;&gt;140543361091344</title>
<path fill="none" stroke="#000000" d="M507.1496,-170.7459C537.2643,-166.533 571.7693,-161.7058 597.1823,-158.1507"/>
<polygon fill="#000000" stroke="#000000" points="597.7146,-161.6104 607.1333,-156.7586 596.7448,-154.6779 597.7146,-161.6104"/>
</g>
<!-- 140543361105368 -->
<g id="node9" class="node">
<title>140543361105368</title>
<polygon fill="none" stroke="#000000" points="245,-450 30,-450 30,-414 245,-414 245,-450"/>
<text text-anchor="middle" x="137.5" y="-428.3" font-family="Times,serif" font-size="14.00" fill="#000000">QuoteDataBean:getRandomInstance</text>
</g>
<!-- 140543361089832 -->
<g id="node10" class="node">
<title>140543361089832</title>
<polygon fill="none" stroke="#000000" points="751,-171 697,-171 697,-135 751,-135 751,-171"/>
<text text-anchor="middle" x="724" y="-149.3" font-family="Times,serif" font-size="14.00" fill="#000000">Root</text>
</g>
<!-- 140543361091176 -->
<g id="node43" class="node">
<title>140543361091176</title>
<ellipse fill="#ffa500" stroke="#000000" cx="814" cy="-153" rx="27" ry="27"/>
</g>
<!-- 140543361089832&#45;&gt;140543361091176 -->
<g id="edge5" class="edge">
<title>140543361089832&#45;&gt;140543361091176</title>
<path fill="none" stroke="#000000" d="M751.003,-153C759.0277,-153 767.9665,-153 776.5309,-153"/>
<polygon fill="#000000" stroke="#000000" points="776.7051,-156.5001 786.705,-153 776.705,-149.5001 776.7051,-156.5001"/>
</g>
<!-- 140543361090504 -->
<g id="node11" class="node">
<title>140543361090504</title>
<polygon fill="none" stroke="#000000" points="203,-504 72,-504 72,-468 203,-468 203,-504"/>
<text text-anchor="middle" x="137.5" y="-482.3" font-family="Times,serif" font-size="14.00" fill="#000000">TradeAppServlet:init</text>
</g>
<!-- 140543361089944 -->
<g id="node12" class="node">
<title>140543361089944</title>
<polygon fill="none" stroke="#000000" points="229.5,-558 45.5,-558 45.5,-522 229.5,-522 229.5,-558"/>
<text text-anchor="middle" x="137.5" y="-536.3" font-family="Times,serif" font-size="14.00" fill="#000000">TradeAppServlet:performTask</text>
</g>
<!-- 140543361090616 -->
<g id="node13" class="node">
<title>140543361090616</title>
<polygon fill="none" stroke="#000000" points="243.5,-612 31.5,-612 31.5,-576 243.5,-576 243.5,-612"/>
<text text-anchor="middle" x="137.5" y="-590.3" font-family="Times,serif" font-size="14.00" fill="#000000">TradeConfig:getDisplayOrderAlerts</text>
</g>
<!-- 140543361090112 -->
<g id="node14" class="node">
<title>140543361090112</title>
<polygon fill="none" stroke="#000000" points="203.5,-666 71.5,-666 71.5,-630 203.5,-630 203.5,-666"/>
<text text-anchor="middle" x="137.5" y="-644.3" font-family="Times,serif" font-size="14.00" fill="#000000">TradeConfig:getPage</text>
</g>
<!-- 140543361090672 -->
<g id="node15" class="node">
<title>140543361090672</title>
<polygon fill="none" stroke="#000000" points="206,-720 69,-720 69,-684 206,-684 206,-720"/>
<text text-anchor="middle" x="137.5" y="-698.3" font-family="Times,serif" font-size="14.00" fill="#000000">TradeConfig:getTrace</text>
</g>
<!-- 140543361090000 -->
<g id="node16" class="node">
<title>140543361090000</title>
<polygon fill="none" stroke="#000000" points="224,-774 51,-774 51,-738 224,-738 224,-774"/>
<text text-anchor="middle" x="137.5" y="-752.3" font-family="Times,serif" font-size="14.00" fill="#000000">TradeConfig:rndBigDecimal</text>
</g>
<!-- 140543361089776 -->
<g id="node17" class="node">
<title>140543361089776</title>
<polygon fill="none" stroke="#000000" points="205,-828 70,-828 70,-792 205,-792 205,-828"/>
<text text-anchor="middle" x="137.5" y="-806.3" font-family="Times,serif" font-size="14.00" fill="#000000">TradeConfig:rndFloat</text>
</g>
<!-- 140543361105648 -->
<g id="node18" class="node">
<title>140543361105648</title>
<polygon fill="none" stroke="#000000" points="215,-882 60,-882 60,-846 215,-846 215,-882"/>
<text text-anchor="middle" x="137.5" y="-860.3" font-family="Times,serif" font-size="14.00" fill="#000000">TradeConfig:rndQuantity</text>
</g>
<!-- 140543361105536 -->
<g id="node19" class="node">
<title>140543361105536</title>
<polygon fill="none" stroke="#000000" points="212.5,-936 62.5,-936 62.5,-900 212.5,-900 212.5,-936"/>
<text text-anchor="middle" x="137.5" y="-914.3" font-family="Times,serif" font-size="14.00" fill="#000000">TradeConfig:rndSymbol</text>
</g>
<!-- 140543361105816 -->
<g id="node20" class="node">
<title>140543361105816</title>
<polygon fill="none" stroke="#000000" points="223.5,-990 51.5,-990 51.5,-954 223.5,-954 223.5,-990"/>
<text text-anchor="middle" x="137.5" y="-968.3" font-family="Times,serif" font-size="14.00" fill="#000000">TradeConfig:setActionTrace</text>
</g>
<!-- 140543361104808 -->
<g id="node21" class="node">
<title>140543361104808</title>
<polygon fill="none" stroke="#000000" points="243,-1044 32,-1044 32,-1008 243,-1008 243,-1044"/>
<text text-anchor="middle" x="137.5" y="-1022.3" font-family="Times,serif" font-size="14.00" fill="#000000">TradeConfig:setDisplayOrderAlerts</text>
</g>
<!-- 140543361105312 -->
<g id="node22" class="node">
<title>140543361105312</title>
<polygon fill="none" stroke="#000000" points="215,-1098 60,-1098 60,-1062 215,-1062 215,-1098"/>
<text text-anchor="middle" x="137.5" y="-1076.3" font-family="Times,serif" font-size="14.00" fill="#000000">TradeConfig:setLongRun</text>
</g>
<!-- 140543361105592 -->
<g id="node23" class="node">
<title>140543361105592</title>
<polygon fill="none" stroke="#000000" points="236,-1152 39,-1152 39,-1116 236,-1116 236,-1152"/>
<text text-anchor="middle" x="137.5" y="-1130.3" font-family="Times,serif" font-size="14.00" fill="#000000">TradeConfig:setMAX_QUOTES</text>
</g>
<!-- 140543361105088 -->
<g id="node24" class="node">
<title>140543361105088</title>
<polygon fill="none" stroke="#000000" points="230,-1206 45,-1206 45,-1170 230,-1170 230,-1206"/>
<text text-anchor="middle" x="137.5" y="-1184.3" font-family="Times,serif" font-size="14.00" fill="#000000">TradeConfig:setMAX_USERS</text>
</g>
<!-- 140543361105032 -->
<g id="node25" class="node">
<title>140543361105032</title>
<polygon fill="none" stroke="#000000" points="257.5,-1260 17.5,-1260 17.5,-1224 257.5,-1224 257.5,-1260"/>
<text text-anchor="middle" x="137.5" y="-1238.3" font-family="Times,serif" font-size="14.00" fill="#000000">TradeConfig:setMarketSummaryInterval</text>
</g>
<!-- 140543361090448 -->
<g id="node26" class="node">
<title>140543361090448</title>
<polygon fill="none" stroke="#000000" points="251,-1314 24,-1314 24,-1278 251,-1278 251,-1314"/>
<text text-anchor="middle" x="137.5" y="-1292.3" font-family="Times,serif" font-size="14.00" fill="#000000">TradeConfig:setOrderProcessingMode</text>
</g>
<!-- 140543361104752 -->
<g id="node27" class="node">
<title>140543361104752</title>
<polygon fill="none" stroke="#000000" points="260,-1368 15,-1368 15,-1332 260,-1332 260,-1368"/>
<text text-anchor="middle" x="137.5" y="-1346.3" font-family="Times,serif" font-size="14.00" fill="#000000">TradeConfig:setPercentSentToWebsocket</text>
</g>
<!-- 140543361105144 -->
<g id="node28" class="node">
<title>140543361105144</title>
<polygon fill="none" stroke="#000000" points="228.5,-1422 46.5,-1422 46.5,-1386 228.5,-1386 228.5,-1422"/>
<text text-anchor="middle" x="137.5" y="-1400.3" font-family="Times,serif" font-size="14.00" fill="#000000">TradeConfig:setPrimIterations</text>
</g>
<!-- 140543361105704 -->
<g id="node29" class="node">
<title>140543361105704</title>
<polygon fill="none" stroke="#000000" points="261,-1476 14,-1476 14,-1440 261,-1440 261,-1476"/>
<text text-anchor="middle" x="137.5" y="-1454.3" font-family="Times,serif" font-size="14.00" fill="#000000">TradeConfig:setPublishQuotePriceChange</text>
</g>
<!-- 140543361090056 -->
<g id="node30" class="node">
<title>140543361090056</title>
<polygon fill="none" stroke="#000000" points="231.5,-1530 43.5,-1530 43.5,-1494 231.5,-1494 231.5,-1530"/>
<text text-anchor="middle" x="137.5" y="-1508.3" font-family="Times,serif" font-size="14.00" fill="#000000">TradeConfig:setRunTimeMode</text>
</g>
<!-- 140543361090560 -->
<g id="node31" class="node">
<title>140543361090560</title>
<polygon fill="none" stroke="#000000" points="205,-1584 70,-1584 70,-1548 205,-1548 205,-1584"/>
<text text-anchor="middle" x="137.5" y="-1562.3" font-family="Times,serif" font-size="14.00" fill="#000000">TradeConfig:setTrace</text>
</g>
<!-- 140543361105760 -->
<g id="node32" class="node">
<title>140543361105760</title>
<polygon fill="none" stroke="#000000" points="257,-1638 18,-1638 18,-1602 257,-1602 257,-1638"/>
<text text-anchor="middle" x="137.5" y="-1616.3" font-family="Times,serif" font-size="14.00" fill="#000000">TradeConfig:setUseRemoteEJBInterface</text>
</g>
<!-- 140543361090280 -->
<g id="node33" class="node">
<title>140543361090280</title>
<polygon fill="none" stroke="#000000" points="227,-1692 48,-1692 48,-1656 227,-1656 227,-1692"/>
<text text-anchor="middle" x="137.5" y="-1670.3" font-family="Times,serif" font-size="14.00" fill="#000000">TradeConfig:setWebInterface</text>
</g>
<!-- 140543361104976 -->
<g id="node34" class="node">
<title>140543361104976</title>
<polygon fill="none" stroke="#000000" points="248,-1746 27,-1746 27,-1710 248,-1710 248,-1746"/>
<text text-anchor="middle" x="137.5" y="-1724.3" font-family="Times,serif" font-size="14.00" fill="#000000">TradeConfig:useRemoteEJBInterface</text>
</g>
<!-- 140543361090224 -->
<g id="node35" class="node">
<title>140543361090224</title>
<polygon fill="none" stroke="#000000" points="189.5,-1800 85.5,-1800 85.5,-1764 189.5,-1764 189.5,-1800"/>
<text text-anchor="middle" x="137.5" y="-1778.3" font-family="Times,serif" font-size="14.00" fill="#000000">TradeDirect:init</text>
</g>
<!-- 140543361090392 -->
<g id="node36" class="node">
<title>140543361090392</title>
<polygon fill="none" stroke="#000000" points="234.5,-1854 40.5,-1854 40.5,-1818 234.5,-1818 234.5,-1854"/>
<text text-anchor="middle" x="137.5" y="-1832.3" font-family="Times,serif" font-size="14.00" fill="#000000">TradeServletAction:doWelcome</text>
</g>
<!-- 140543361089720 -->
<g id="node37" class="node">
<title>140543361089720</title>
<polygon fill="none" stroke="#000000" points="571,-144 311,-144 311,-108 571,-108 571,-144"/>
<text text-anchor="middle" x="441" y="-122.3" font-family="Times,serif" font-size="14.00" fill="#000000">TradeWebContextListener:contextInitialized</text>
</g>
<!-- 140543361089720&#45;&gt;140543361091344 -->
<g id="edge6" class="edge">
<title>140543361089720&#45;&gt;140543361091344</title>
<path fill="none" stroke="#000000" d="M569.7338,-144.0094C579.5547,-145.3833 588.8724,-146.6868 597.2103,-147.8532"/>
<polygon fill="#000000" stroke="#000000" points="596.8232,-151.3331 607.2117,-149.2524 597.7931,-144.4006 596.8232,-151.3331"/>
</g>
<!-- 140543361090168 -->
<g id="node38" class="node">
<title>140543361090168</title>
<polygon fill="none" stroke="#000000" points="503.5,-90 378.5,-90 378.5,-54 503.5,-54 503.5,-90"/>
<text text-anchor="middle" x="441" y="-68.3" font-family="Times,serif" font-size="14.00" fill="#000000">new JSFLoginFilter</text>
</g>
<!-- 140543361090168&#45;&gt;140543361091344 -->
<g id="edge7" class="edge">
<title>140543361090168&#45;&gt;140543361091344</title>
<path fill="none" stroke="#000000" d="M503.6106,-78.4755C525.7056,-82.4278 550.208,-88.7838 571,-99 584.6291,-105.6967 597.7161,-116.0344 608.3966,-125.8792"/>
<polygon fill="#000000" stroke="#000000" points="606.0808,-128.5077 615.7216,-132.9015 610.925,-123.4546 606.0808,-128.5077"/>
</g>
<!-- 140543361090728 -->
<g id="node39" class="node">
<title>140543361090728</title>
<polygon fill="none" stroke="#000000" points="509.5,-36 372.5,-36 372.5,0 509.5,0 509.5,-36"/>
<text text-anchor="middle" x="441" y="-14.3" font-family="Times,serif" font-size="14.00" fill="#000000">new OrdersAlertFilter</text>
</g>
<!-- 140543361090728&#45;&gt;140543361091344 -->
<g id="edge8" class="edge">
<title>140543361090728&#45;&gt;140543361091344</title>
<path fill="none" stroke="#000000" d="M509.8243,-21.4878C530.9767,-25.2677 553.3187,-32.2767 571,-45 595.6224,-62.718 612.1362,-93.2748 622.0568,-117.3737"/>
<polygon fill="#000000" stroke="#000000" points="618.8861,-118.8762 625.7859,-126.9164 625.406,-116.3283 618.8861,-118.8762"/>
</g>
<!-- 140543361105424 -->
<g id="node40" class="node">
<title>140543361105424</title>
<polygon fill="none" stroke="#000000" points="193,-1908 82,-1908 82,-1872 193,-1872 193,-1908"/>
<text text-anchor="middle" x="137.5" y="-1886.3" font-family="Times,serif" font-size="14.00" fill="#000000">new TradeAction</text>
</g>
<!-- 140543361090784 -->
<g id="node41" class="node">
<title>140543361090784</title>
<ellipse fill="#00ff00" stroke="#000000" cx="137.5" cy="-153" rx="27" ry="27"/>
<text text-anchor="middle" x="137.5" y="-149.3" font-family="Times,serif" font-size="14.00" fill="#000000">1</text>
</g>
<!-- 140543361090784&#45;&gt;140543361105200 -->
<g id="edge9" class="edge">
<title>140543361090784&#45;&gt;140543361105200</title>
<path fill="none" stroke="#000000" d="M164.7395,-153.6505C194.819,-155.7167 243.1902,-163.1919 275,-189 302.783,-211.5411 282.6481,-239.1787 311,-261 327.9541,-274.0489 349.7023,-281.185 370.5398,-284.9805"/>
<polygon fill="#000000" stroke="#000000" points="370.2463,-288.4776 380.671,-286.5866 371.3424,-281.5639 370.2463,-288.4776"/>
</g>
<!-- 140543361090784&#45;&gt;140543361104864 -->
<g id="edge10" class="edge">
<title>140543361090784&#45;&gt;140543361104864</title>
<path fill="none" stroke="#000000" d="M164.1085,-158.248C192.1828,-164.1801 237.4697,-174.8795 275,-189 291.7427,-195.2993 294.1013,-201.1321 311,-207 324.1419,-211.5634 338.3125,-215.4758 352.2964,-218.7904"/>
<polygon fill="#000000" stroke="#000000" points="351.9007,-222.2899 362.4284,-221.0992 353.456,-215.4649 351.9007,-222.2899"/>
</g>
<!-- 140543361090784&#45;&gt;140543361104920 -->
<g id="edge11" class="edge">
<title>140543361090784&#45;&gt;140543361104920</title>
<path fill="none" stroke="#000000" d="M164.4336,-155.3961C208.9129,-159.353 299.2956,-167.3937 364.6557,-173.2083"/>
<polygon fill="#000000" stroke="#000000" points="364.6491,-176.7214 374.9199,-174.1214 365.2694,-169.7489 364.6491,-176.7214"/>
</g>
<!-- 140543361090784&#45;&gt;140543361089720 -->
<g id="edge12" class="edge">
<title>140543361090784&#45;&gt;140543361089720</title>
<path fill="none" stroke="#000000" d="M164.4336,-150.6039C195.5077,-147.8395 248.9859,-143.082 300.6842,-138.4828"/>
<polygon fill="#000000" stroke="#000000" points="301.0008,-141.9685 310.6513,-137.5961 300.3804,-134.9961 301.0008,-141.9685"/>
</g>
<!-- 140543361090784&#45;&gt;140543361090168 -->
<g id="edge13" class="edge">
<title>140543361090784&#45;&gt;140543361090168</title>
<path fill="none" stroke="#000000" d="M164.1085,-147.752C192.1828,-141.8199 237.4697,-131.1205 275,-117 291.7427,-110.7007 294.1013,-104.8679 311,-99 329.1814,-92.6867 349.3316,-87.6195 368.2324,-83.6571"/>
<polygon fill="#000000" stroke="#000000" points="369.1743,-87.0376 378.2833,-81.6269 367.7883,-80.1762 369.1743,-87.0376"/>
</g>
<!-- 140543361090784&#45;&gt;140543361090728 -->
<g id="edge14" class="edge">
<title>140543361090784&#45;&gt;140543361090728</title>
<path fill="none" stroke="#000000" d="M164.7395,-152.3495C194.819,-150.2833 243.1902,-142.8081 275,-117 302.783,-94.4589 282.6481,-66.8213 311,-45 325.7874,-33.6187 344.2218,-26.7356 362.5181,-22.6438"/>
<polygon fill="#000000" stroke="#000000" points="363.2174,-26.0733 372.3475,-20.6982 361.8582,-19.2065 363.2174,-26.0733"/>
</g>
<!-- 140543361091344&#45;&gt;140543361089832 -->
<g id="edge1" class="edge">
<title>140543361091344&#45;&gt;140543361089832</title>
<path fill="none" stroke="#000000" d="M661.003,-153C669.0277,-153 677.9665,-153 686.5309,-153"/>
<polygon fill="#000000" stroke="#000000" points="686.7051,-156.5001 696.705,-153 686.705,-149.5001 686.7051,-156.5001"/>
</g>
</g>
</svg>
