<?xml version="1.0" encoding="UTF-8" standalone="no"?>
<!DOCTYPE svg PUBLIC "-//W3C//DTD SVG 1.1//EN"
 "http://www.w3.org/Graphics/SVG/1.1/DTD/svg11.dtd">
<!-- Generated by graphviz version 2.40.1 (20161225.0304)
 -->
<!-- Title: alpha_plus_net_1585321096.7689645 Pages: 1 -->
<svg width="1405pt" height="1862pt"
 viewBox="0.00 0.00 1405.00 1862.00" xmlns="http://www.w3.org/2000/svg" xmlns:xlink="http://www.w3.org/1999/xlink">
<g id="graph0" class="graph" transform="scale(1 1) rotate(0) translate(4 1858)">
<title>alpha_plus_net_1585321096.7689645</title>
<!-- 140531496722216 -->
<g id="node1" class="node">
<title>140531496722216</title>
<polygon fill="none" stroke="#000000" points="243,-108 32,-108 32,-72 243,-72 243,-108"/>
<text text-anchor="middle" x="137.5" y="-86.3" font-family="Times,serif" font-size="14.00" fill="#000000">FinancialUtils:computeGainPercent</text>
</g>
<!-- 140531496722160 -->
<g id="node2" class="node">
<title>140531496722160</title>
<polygon fill="none" stroke="#000000" points="501,-306 381,-306 381,-270 501,-270 501,-306"/>
<text text-anchor="middle" x="441" y="-284.3" font-family="Times,serif" font-size="14.00" fill="#000000">JSFLoginFilter:init</text>
</g>
<!-- 140531496838704 -->
<g id="node48" class="node">
<title>140531496838704</title>
<ellipse fill="none" stroke="#000000" cx="693.5" cy="-153" rx="27" ry="27"/>
<text text-anchor="middle" x="693.5" y="-149.3" font-family="Times,serif" font-size="14.00" fill="#000000">({&#39;new OrdersAlertFilter&#39;, &#39;new JSFLoginFilter&#39;, &#39;OrdersAlertFilter:doFilter&#39;, &#39;OrdersAlertFilter:init&#39;, &#39;JSFLoginFilter:init&#39;, &#39;TradeWebContextListener:contextInitialized&#39;}, {&#39;Root&#39;})</text>
</g>
<!-- 140531496722160&#45;&gt;140531496838704 -->
<g id="edge13" class="edge">
<title>140531496722160&#45;&gt;140531496838704</title>
<path fill="none" stroke="#000000" d="M501.0626,-282.1432C523.8376,-278.2502 549.455,-271.7733 571,-261 609.9001,-241.5485 646.1657,-206.6301 668.9867,-181.765"/>
<polygon fill="#000000" stroke="#000000" points="671.8187,-183.8505 675.91,-174.0775 666.6171,-179.166 671.8187,-183.8505"/>
</g>
<!-- 140531496720256 -->
<g id="node3" class="node">
<title>140531496720256</title>
<polygon fill="none" stroke="#000000" points="180.5,-234 94.5,-234 94.5,-198 180.5,-198 180.5,-234"/>
<text text-anchor="middle" x="137.5" y="-212.3" font-family="Times,serif" font-size="14.00" fill="#000000">Log:doTrace</text>
</g>
<!-- 140531496720872 -->
<g id="node4" class="node">
<title>140531496720872</title>
<polygon fill="none" stroke="#000000" points="182,-288 93,-288 93,-252 182,-252 182,-288"/>
<text text-anchor="middle" x="137.5" y="-266.3" font-family="Times,serif" font-size="14.00" fill="#000000">Log:getTrace</text>
</g>
<!-- 140531496722104 -->
<g id="node5" class="node">
<title>140531496722104</title>
<polygon fill="none" stroke="#000000" points="167,-342 108,-342 108,-306 167,-306 167,-342"/>
<text text-anchor="middle" x="137.5" y="-320.3" font-family="Times,serif" font-size="14.00" fill="#000000">Log:log</text>
</g>
<!-- 140531496720368 -->
<g id="node6" class="node">
<title>140531496720368</title>
<polygon fill="none" stroke="#000000" points="171.5,-396 103.5,-396 103.5,-360 171.5,-360 171.5,-396"/>
<text text-anchor="middle" x="137.5" y="-374.3" font-family="Times,serif" font-size="14.00" fill="#000000">Log:trace</text>
</g>
<!-- 140531496720760 -->
<g id="node7" class="node">
<title>140531496720760</title>
<polygon fill="none" stroke="#000000" points="228.5,-450 46.5,-450 46.5,-414 228.5,-414 228.5,-450"/>
<text text-anchor="middle" x="137.5" y="-428.3" font-family="Times,serif" font-size="14.00" fill="#000000">Log:trace [overloaded_#0011]</text>
</g>
<!-- 140531496720424 -->
<g id="node8" class="node">
<title>140531496720424</title>
<polygon fill="none" stroke="#000000" points="275,-504 0,-504 0,-468 275,-468 275,-504"/>
<text text-anchor="middle" x="137.5" y="-482.3" font-family="Times,serif" font-size="14.00" fill="#000000">MarketSummaryDataBean:getRandomInstance</text>
</g>
<!-- 140531496837864 -->
<g id="node44" class="node">
<title>140531496837864</title>
<ellipse fill="none" stroke="#000000" cx="441" cy="-513" rx="27" ry="27"/>
<text text-anchor="middle" x="441" y="-509.3" font-family="Times,serif" font-size="14.00" fill="#000000">({&#39;MarketSummaryDataBean:getRandomInstance&#39;}, {&#39;TradeConfig:rndBigDecimal&#39;})</text>
</g>
<!-- 140531496720424&#45;&gt;140531496837864 -->
<g id="edge14" class="edge">
<title>140531496720424&#45;&gt;140531496837864</title>
<path fill="none" stroke="#000000" d="M275.042,-498.236C322.2472,-502.4355 371.3025,-506.7996 403.7204,-509.6835"/>
<polygon fill="#000000" stroke="#000000" points="403.7789,-513.2025 414.0497,-510.6024 404.3992,-506.23 403.7789,-513.2025"/>
</g>
<!-- 140531496720480 -->
<g id="node9" class="node">
<title>140531496720480</title>
<polygon fill="none" stroke="#000000" points="519.5,-252 362.5,-252 362.5,-216 519.5,-216 519.5,-252"/>
<text text-anchor="middle" x="441" y="-230.3" font-family="Times,serif" font-size="14.00" fill="#000000">OrdersAlertFilter:doFilter</text>
</g>
<!-- 140531496720480&#45;&gt;140531496838704 -->
<g id="edge15" class="edge">
<title>140531496720480&#45;&gt;140531496838704</title>
<path fill="none" stroke="#000000" d="M519.7166,-220.4286C536.8,-216.7147 554.6454,-212.2386 571,-207 602.0692,-197.0482 635.8961,-181.775 660.1159,-170.0079"/>
<polygon fill="#000000" stroke="#000000" points="661.7956,-173.0822 669.2241,-165.5278 658.706,-166.8009 661.7956,-173.0822"/>
</g>
<!-- 140531496720536 -->
<g id="node10" class="node">
<title>140531496720536</title>
<polygon fill="none" stroke="#000000" points="507,-198 375,-198 375,-162 507,-162 507,-198"/>
<text text-anchor="middle" x="441" y="-176.3" font-family="Times,serif" font-size="14.00" fill="#000000">OrdersAlertFilter:init</text>
</g>
<!-- 140531496720536&#45;&gt;140531496838704 -->
<g id="edge16" class="edge">
<title>140531496720536&#45;&gt;140531496838704</title>
<path fill="none" stroke="#000000" d="M507.0116,-172.9413C554.6616,-167.8461 617.2649,-161.1519 656.4436,-156.9625"/>
<polygon fill="#000000" stroke="#000000" points="657.0284,-160.42 666.5996,-155.8765 656.2841,-153.4597 657.0284,-160.42"/>
</g>
<!-- 140531496721264 -->
<g id="node11" class="node">
<title>140531496721264</title>
<polygon fill="none" stroke="#000000" points="1121,-577 906,-577 906,-541 1121,-541 1121,-577"/>
<text text-anchor="middle" x="1013.5" y="-555.3" font-family="Times,serif" font-size="14.00" fill="#000000">QuoteDataBean:getRandomInstance</text>
</g>
<!-- 140531496839096 -->
<g id="node45" class="node">
<title>140531496839096</title>
<ellipse fill="none" stroke="#000000" cx="1184" cy="-550" rx="27" ry="27"/>
<text text-anchor="middle" x="1184" y="-546.3" font-family="Times,serif" font-size="14.00" fill="#000000">({&#39;QuoteDataBean:getRandomInstance&#39;}, {&#39;TradeConfig:rndBigDecimal&#39;, &#39;TradeConfig:rndSymbol&#39;})</text>
</g>
<!-- 140531496721264&#45;&gt;140531496839096 -->
<g id="edge17" class="edge">
<title>140531496721264&#45;&gt;140531496839096</title>
<path fill="none" stroke="#000000" d="M1121.4802,-553.3002C1130.3855,-552.8301 1138.9339,-552.3789 1146.6963,-551.9691"/>
<polygon fill="#000000" stroke="#000000" points="1146.9524,-555.4606 1156.7539,-551.4382 1146.5833,-548.4703 1146.9524,-555.4606"/>
</g>
<!-- 140531496837416 -->
<g id="node12" class="node">
<title>140531496837416</title>
<polygon fill="none" stroke="#000000" points="870,-171 816,-171 816,-135 870,-135 870,-171"/>
<text text-anchor="middle" x="843" y="-149.3" font-family="Times,serif" font-size="14.00" fill="#000000">Root</text>
</g>
<!-- 140531496837528 -->
<g id="node49" class="node">
<title>140531496837528</title>
<ellipse fill="#ffa500" stroke="#000000" cx="1013.5" cy="-153" rx="27" ry="27"/>
</g>
<!-- 140531496837416&#45;&gt;140531496837528 -->
<g id="edge18" class="edge">
<title>140531496837416&#45;&gt;140531496837528</title>
<path fill="none" stroke="#000000" d="M870.0162,-153C898.6151,-153 943.9627,-153 976.0125,-153"/>
<polygon fill="#000000" stroke="#000000" points="976.3284,-156.5001 986.3284,-153 976.3284,-149.5001 976.3284,-156.5001"/>
</g>
<!-- 140531496721992 -->
<g id="node13" class="node">
<title>140531496721992</title>
<polygon fill="none" stroke="#000000" points="203,-558 72,-558 72,-522 203,-522 203,-558"/>
<text text-anchor="middle" x="137.5" y="-536.3" font-family="Times,serif" font-size="14.00" fill="#000000">TradeAppServlet:init</text>
</g>
<!-- 140531496720592 -->
<g id="node14" class="node">
<title>140531496720592</title>
<polygon fill="none" stroke="#000000" points="229.5,-612 45.5,-612 45.5,-576 229.5,-576 229.5,-612"/>
<text text-anchor="middle" x="137.5" y="-590.3" font-family="Times,serif" font-size="14.00" fill="#000000">TradeAppServlet:performTask</text>
</g>
<!-- 140531496721432 -->
<g id="node15" class="node">
<title>140531496721432</title>
<polygon fill="none" stroke="#000000" points="243.5,-666 31.5,-666 31.5,-630 243.5,-630 243.5,-666"/>
<text text-anchor="middle" x="137.5" y="-644.3" font-family="Times,serif" font-size="14.00" fill="#000000">TradeConfig:getDisplayOrderAlerts</text>
</g>
<!-- 140531496720816 -->
<g id="node16" class="node">
<title>140531496720816</title>
<polygon fill="none" stroke="#000000" points="203.5,-720 71.5,-720 71.5,-684 203.5,-684 203.5,-720"/>
<text text-anchor="middle" x="137.5" y="-698.3" font-family="Times,serif" font-size="14.00" fill="#000000">TradeConfig:getPage</text>
</g>
<!-- 140531496722272 -->
<g id="node17" class="node">
<title>140531496722272</title>
<polygon fill="none" stroke="#000000" points="206,-774 69,-774 69,-738 206,-738 206,-774"/>
<text text-anchor="middle" x="137.5" y="-752.3" font-family="Times,serif" font-size="14.00" fill="#000000">TradeConfig:getTrace</text>
</g>
<!-- 140531496722384 -->
<g id="node18" class="node">
<title>140531496722384</title>
<polygon fill="none" stroke="#000000" points="780,-531 607,-531 607,-495 780,-495 780,-531"/>
<text text-anchor="middle" x="693.5" y="-509.3" font-family="Times,serif" font-size="14.00" fill="#000000">TradeConfig:rndBigDecimal</text>
</g>
<!-- 140531496839320 -->
<g id="node46" class="node">
<title>140531496839320</title>
<ellipse fill="none" stroke="#000000" cx="843" cy="-568" rx="27" ry="27"/>
<text text-anchor="middle" x="843" y="-564.3" font-family="Times,serif" font-size="14.00" fill="#000000">({&#39;TradeConfig:rndBigDecimal&#39;, &#39;TradeConfig:rndSymbol&#39;}, {&#39;QuoteDataBean:getRandomInstance&#39;})</text>
</g>
<!-- 140531496722384&#45;&gt;140531496839320 -->
<g id="edge19" class="edge">
<title>140531496722384&#45;&gt;140531496839320</title>
<path fill="none" stroke="#000000" d="M742.4519,-531.0091C763.8696,-538.8885 788.508,-547.9528 808.0348,-555.1365"/>
<polygon fill="#000000" stroke="#000000" points="806.8605,-558.4338 817.454,-558.6018 809.2774,-551.8643 806.8605,-558.4338"/>
</g>
<!-- 140531496838032 -->
<g id="node47" class="node">
<title>140531496838032</title>
<ellipse fill="none" stroke="#000000" cx="843" cy="-458" rx="27" ry="27"/>
<text text-anchor="middle" x="843" y="-454.3" font-family="Times,serif" font-size="14.00" fill="#000000">({&#39;TradeConfig:rndBigDecimal&#39;}, {&#39;MarketSummaryDataBean:getRandomInstance&#39;})</text>
</g>
<!-- 140531496722384&#45;&gt;140531496838032 -->
<g id="edge20" class="edge">
<title>140531496722384&#45;&gt;140531496838032</title>
<path fill="none" stroke="#000000" d="M742.4519,-494.9909C763.8696,-487.1115 788.508,-478.0472 808.0348,-470.8635"/>
<polygon fill="#000000" stroke="#000000" points="809.2774,-474.1357 817.454,-467.3982 806.8605,-467.5662 809.2774,-474.1357"/>
</g>
<!-- 140531496721880 -->
<g id="node19" class="node">
<title>140531496721880</title>
<polygon fill="none" stroke="#000000" points="205,-828 70,-828 70,-792 205,-792 205,-828"/>
<text text-anchor="middle" x="137.5" y="-806.3" font-family="Times,serif" font-size="14.00" fill="#000000">TradeConfig:rndFloat</text>
</g>
<!-- 140531496722048 -->
<g id="node20" class="node">
<title>140531496722048</title>
<polygon fill="none" stroke="#000000" points="215,-882 60,-882 60,-846 215,-846 215,-882"/>
<text text-anchor="middle" x="137.5" y="-860.3" font-family="Times,serif" font-size="14.00" fill="#000000">TradeConfig:rndQuantity</text>
</g>
<!-- 140531496720312 -->
<g id="node21" class="node">
<title>140531496720312</title>
<polygon fill="none" stroke="#000000" points="1397,-595 1247,-595 1247,-559 1397,-559 1397,-595"/>
<text text-anchor="middle" x="1322" y="-573.3" font-family="Times,serif" font-size="14.00" fill="#000000">TradeConfig:rndSymbol</text>
</g>
<!-- 140531496720312&#45;&gt;140531496839320 -->
<g id="edge21" class="edge">
<title>140531496720312&#45;&gt;140531496839320</title>
<path fill="none" stroke="#000000" d="M1246.8173,-583.9236C1234.8461,-584.7873 1222.591,-585.5309 1211,-586 1075.5553,-591.482 1040.2453,-604.8017 906,-586 896.9148,-584.7276 887.3014,-582.4704 878.3942,-579.9753"/>
<polygon fill="#000000" stroke="#000000" points="879.2863,-576.5892 868.7037,-577.0969 877.2931,-583.2995 879.2863,-576.5892"/>
</g>
<!-- 140531496720984 -->
<g id="node22" class="node">
<title>140531496720984</title>
<polygon fill="none" stroke="#000000" points="223.5,-936 51.5,-936 51.5,-900 223.5,-900 223.5,-936"/>
<text text-anchor="middle" x="137.5" y="-914.3" font-family="Times,serif" font-size="14.00" fill="#000000">TradeConfig:setActionTrace</text>
</g>
<!-- 140531496837248 -->
<g id="node23" class="node">
<title>140531496837248</title>
<polygon fill="none" stroke="#000000" points="243,-990 32,-990 32,-954 243,-954 243,-990"/>
<text text-anchor="middle" x="137.5" y="-968.3" font-family="Times,serif" font-size="14.00" fill="#000000">TradeConfig:setDisplayOrderAlerts</text>
</g>
<!-- 140531496721824 -->
<g id="node24" class="node">
<title>140531496721824</title>
<polygon fill="none" stroke="#000000" points="215,-1044 60,-1044 60,-1008 215,-1008 215,-1044"/>
<text text-anchor="middle" x="137.5" y="-1022.3" font-family="Times,serif" font-size="14.00" fill="#000000">TradeConfig:setLongRun</text>
</g>
<!-- 140531496837304 -->
<g id="node25" class="node">
<title>140531496837304</title>
<polygon fill="none" stroke="#000000" points="236,-1098 39,-1098 39,-1062 236,-1062 236,-1098"/>
<text text-anchor="middle" x="137.5" y="-1076.3" font-family="Times,serif" font-size="14.00" fill="#000000">TradeConfig:setMAX_QUOTES</text>
</g>
<!-- 140531496720704 -->
<g id="node26" class="node">
<title>140531496720704</title>
<polygon fill="none" stroke="#000000" points="230,-1152 45,-1152 45,-1116 230,-1116 230,-1152"/>
<text text-anchor="middle" x="137.5" y="-1130.3" font-family="Times,serif" font-size="14.00" fill="#000000">TradeConfig:setMAX_USERS</text>
</g>
<!-- 140531496721040 -->
<g id="node27" class="node">
<title>140531496721040</title>
<polygon fill="none" stroke="#000000" points="257.5,-1206 17.5,-1206 17.5,-1170 257.5,-1170 257.5,-1206"/>
<text text-anchor="middle" x="137.5" y="-1184.3" font-family="Times,serif" font-size="14.00" fill="#000000">TradeConfig:setMarketSummaryInterval</text>
</g>
<!-- 140531496721544 -->
<g id="node28" class="node">
<title>140531496721544</title>
<polygon fill="none" stroke="#000000" points="251,-1260 24,-1260 24,-1224 251,-1224 251,-1260"/>
<text text-anchor="middle" x="137.5" y="-1238.3" font-family="Times,serif" font-size="14.00" fill="#000000">TradeConfig:setOrderProcessingMode</text>
</g>
<!-- 140531496721936 -->
<g id="node29" class="node">
<title>140531496721936</title>
<polygon fill="none" stroke="#000000" points="260,-1314 15,-1314 15,-1278 260,-1278 260,-1314"/>
<text text-anchor="middle" x="137.5" y="-1292.3" font-family="Times,serif" font-size="14.00" fill="#000000">TradeConfig:setPercentSentToWebsocket</text>
</g>
<!-- 140531496721712 -->
<g id="node30" class="node">
<title>140531496721712</title>
<polygon fill="none" stroke="#000000" points="228.5,-1368 46.5,-1368 46.5,-1332 228.5,-1332 228.5,-1368"/>
<text text-anchor="middle" x="137.5" y="-1346.3" font-family="Times,serif" font-size="14.00" fill="#000000">TradeConfig:setPrimIterations</text>
</g>
<!-- 140531496721488 -->
<g id="node31" class="node">
<title>140531496721488</title>
<polygon fill="none" stroke="#000000" points="261,-1422 14,-1422 14,-1386 261,-1386 261,-1422"/>
<text text-anchor="middle" x="137.5" y="-1400.3" font-family="Times,serif" font-size="14.00" fill="#000000">TradeConfig:setPublishQuotePriceChange</text>
</g>
<!-- 140531496721320 -->
<g id="node32" class="node">
<title>140531496721320</title>
<polygon fill="none" stroke="#000000" points="231.5,-1476 43.5,-1476 43.5,-1440 231.5,-1440 231.5,-1476"/>
<text text-anchor="middle" x="137.5" y="-1454.3" font-family="Times,serif" font-size="14.00" fill="#000000">TradeConfig:setRunTimeMode</text>
</g>
<!-- 140531496721152 -->
<g id="node33" class="node">
<title>140531496721152</title>
<polygon fill="none" stroke="#000000" points="205,-1530 70,-1530 70,-1494 205,-1494 205,-1530"/>
<text text-anchor="middle" x="137.5" y="-1508.3" font-family="Times,serif" font-size="14.00" fill="#000000">TradeConfig:setTrace</text>
</g>
<!-- 140531496720648 -->
<g id="node34" class="node">
<title>140531496720648</title>
<polygon fill="none" stroke="#000000" points="257,-1584 18,-1584 18,-1548 257,-1548 257,-1584"/>
<text text-anchor="middle" x="137.5" y="-1562.3" font-family="Times,serif" font-size="14.00" fill="#000000">TradeConfig:setUseRemoteEJBInterface</text>
</g>
<!-- 140531496837360 -->
<g id="node35" class="node">
<title>140531496837360</title>
<polygon fill="none" stroke="#000000" points="227,-1638 48,-1638 48,-1602 227,-1602 227,-1638"/>
<text text-anchor="middle" x="137.5" y="-1616.3" font-family="Times,serif" font-size="14.00" fill="#000000">TradeConfig:setWebInterface</text>
</g>
<!-- 140531496721376 -->
<g id="node36" class="node">
<title>140531496721376</title>
<polygon fill="none" stroke="#000000" points="248,-1692 27,-1692 27,-1656 248,-1656 248,-1692"/>
<text text-anchor="middle" x="137.5" y="-1670.3" font-family="Times,serif" font-size="14.00" fill="#000000">TradeConfig:useRemoteEJBInterface</text>
</g>
<!-- 140531496721768 -->
<g id="node37" class="node">
<title>140531496721768</title>
<polygon fill="none" stroke="#000000" points="189.5,-1746 85.5,-1746 85.5,-1710 189.5,-1710 189.5,-1746"/>
<text text-anchor="middle" x="137.5" y="-1724.3" font-family="Times,serif" font-size="14.00" fill="#000000">TradeDirect:init</text>
</g>
<!-- 140531496721656 -->
<g id="node38" class="node">
<title>140531496721656</title>
<polygon fill="none" stroke="#000000" points="234.5,-1800 40.5,-1800 40.5,-1764 234.5,-1764 234.5,-1800"/>
<text text-anchor="middle" x="137.5" y="-1778.3" font-family="Times,serif" font-size="14.00" fill="#000000">TradeServletAction:doWelcome</text>
</g>
<!-- 140531496721096 -->
<g id="node39" class="node">
<title>140531496721096</title>
<polygon fill="none" stroke="#000000" points="571,-144 311,-144 311,-108 571,-108 571,-144"/>
<text text-anchor="middle" x="441" y="-122.3" font-family="Times,serif" font-size="14.00" fill="#000000">TradeWebContextListener:contextInitialized</text>
</g>
<!-- 140531496721096&#45;&gt;140531496838704 -->
<g id="edge22" class="edge">
<title>140531496721096&#45;&gt;140531496838704</title>
<path fill="none" stroke="#000000" d="M571.318,-139.935C602.6893,-143.2895 633.7254,-146.6083 656.6673,-149.0615"/>
<polygon fill="#000000" stroke="#000000" points="656.2953,-152.5415 666.6108,-150.1247 657.0396,-145.5812 656.2953,-152.5415"/>
</g>
<!-- 140531496720928 -->
<g id="node40" class="node">
<title>140531496720928</title>
<polygon fill="none" stroke="#000000" points="503.5,-90 378.5,-90 378.5,-54 503.5,-54 503.5,-90"/>
<text text-anchor="middle" x="441" y="-68.3" font-family="Times,serif" font-size="14.00" fill="#000000">new JSFLoginFilter</text>
</g>
<!-- 140531496720928&#45;&gt;140531496838704 -->
<g id="edge23" class="edge">
<title>140531496720928&#45;&gt;140531496838704</title>
<path fill="none" stroke="#000000" d="M503.5189,-82.2194C525.1476,-86.4804 549.3769,-92.0739 571,-99 602.0692,-108.9518 635.8961,-124.225 660.1159,-135.9921"/>
<polygon fill="#000000" stroke="#000000" points="658.706,-139.1991 669.2241,-140.4722 661.7956,-132.9178 658.706,-139.1991"/>
</g>
<!-- 140531496721208 -->
<g id="node41" class="node">
<title>140531496721208</title>
<polygon fill="none" stroke="#000000" points="509.5,-36 372.5,-36 372.5,0 509.5,0 509.5,-36"/>
<text text-anchor="middle" x="441" y="-14.3" font-family="Times,serif" font-size="14.00" fill="#000000">new OrdersAlertFilter</text>
</g>
<!-- 140531496721208&#45;&gt;140531496838704 -->
<g id="edge24" class="edge">
<title>140531496721208&#45;&gt;140531496838704</title>
<path fill="none" stroke="#000000" d="M509.681,-25.433C530.1483,-29.4278 552.1353,-35.5669 571,-45 609.9001,-64.4515 646.1657,-99.3699 668.9867,-124.235"/>
<polygon fill="#000000" stroke="#000000" points="666.6171,-126.834 675.91,-131.9225 671.8187,-122.1495 666.6171,-126.834"/>
</g>
<!-- 140531496722328 -->
<g id="node42" class="node">
<title>140531496722328</title>
<polygon fill="none" stroke="#000000" points="193,-1854 82,-1854 82,-1818 193,-1818 193,-1854"/>
<text text-anchor="middle" x="137.5" y="-1832.3" font-family="Times,serif" font-size="14.00" fill="#000000">new TradeAction</text>
</g>
<!-- 140531496838200 -->
<g id="node43" class="node">
<title>140531496838200</title>
<ellipse fill="#00ff00" stroke="#000000" cx="137.5" cy="-153" rx="27" ry="27"/>
<text text-anchor="middle" x="137.5" y="-149.3" font-family="Times,serif" font-size="14.00" fill="#000000">1</text>
</g>
<!-- 140531496838200&#45;&gt;140531496722160 -->
<g id="edge6" class="edge">
<title>140531496838200&#45;&gt;140531496722160</title>
<path fill="none" stroke="#000000" d="M164.7395,-153.6505C194.819,-155.7167 243.1902,-163.1919 275,-189 302.783,-211.5411 282.6481,-239.1787 311,-261 327.9541,-274.0489 349.7023,-281.185 370.5398,-284.9805"/>
<polygon fill="#000000" stroke="#000000" points="370.2463,-288.4776 380.671,-286.5866 371.3424,-281.5639 370.2463,-288.4776"/>
</g>
<!-- 140531496838200&#45;&gt;140531496720480 -->
<g id="edge7" class="edge">
<title>140531496838200&#45;&gt;140531496720480</title>
<path fill="none" stroke="#000000" d="M164.1085,-158.248C192.1828,-164.1801 237.4697,-174.8795 275,-189 291.7427,-195.2993 294.1013,-201.1321 311,-207 324.1419,-211.5634 338.3125,-215.4758 352.2964,-218.7904"/>
<polygon fill="#000000" stroke="#000000" points="351.9007,-222.2899 362.4284,-221.0992 353.456,-215.4649 351.9007,-222.2899"/>
</g>
<!-- 140531496838200&#45;&gt;140531496720536 -->
<g id="edge8" class="edge">
<title>140531496838200&#45;&gt;140531496720536</title>
<path fill="none" stroke="#000000" d="M164.4336,-155.3961C208.9129,-159.353 299.2956,-167.3937 364.6557,-173.2083"/>
<polygon fill="#000000" stroke="#000000" points="364.6491,-176.7214 374.9199,-174.1214 365.2694,-169.7489 364.6491,-176.7214"/>
</g>
<!-- 140531496838200&#45;&gt;140531496721096 -->
<g id="edge9" class="edge">
<title>140531496838200&#45;&gt;140531496721096</title>
<path fill="none" stroke="#000000" d="M164.4336,-150.6039C195.5077,-147.8395 248.9859,-143.082 300.6842,-138.4828"/>
<polygon fill="#000000" stroke="#000000" points="301.0008,-141.9685 310.6513,-137.5961 300.3804,-134.9961 301.0008,-141.9685"/>
</g>
<!-- 140531496838200&#45;&gt;140531496720928 -->
<g id="edge10" class="edge">
<title>140531496838200&#45;&gt;140531496720928</title>
<path fill="none" stroke="#000000" d="M164.1085,-147.752C192.1828,-141.8199 237.4697,-131.1205 275,-117 291.7427,-110.7007 294.1013,-104.8679 311,-99 329.1814,-92.6867 349.3316,-87.6195 368.2324,-83.6571"/>
<polygon fill="#000000" stroke="#000000" points="369.1743,-87.0376 378.2833,-81.6269 367.7883,-80.1762 369.1743,-87.0376"/>
</g>
<!-- 140531496838200&#45;&gt;140531496721208 -->
<g id="edge11" class="edge">
<title>140531496838200&#45;&gt;140531496721208</title>
<path fill="none" stroke="#000000" d="M164.7395,-152.3495C194.819,-150.2833 243.1902,-142.8081 275,-117 302.783,-94.4589 282.6481,-66.8213 311,-45 325.7874,-33.6187 344.2218,-26.7356 362.5181,-22.6438"/>
<polygon fill="#000000" stroke="#000000" points="363.2174,-26.0733 372.3475,-20.6982 361.8582,-19.2065 363.2174,-26.0733"/>
</g>
<!-- 140531496837864&#45;&gt;140531496722384 -->
<g id="edge1" class="edge">
<title>140531496837864&#45;&gt;140531496722384</title>
<path fill="none" stroke="#000000" d="M468.0219,-513C498.7202,-513 550.5631,-513 596.8024,-513"/>
<polygon fill="#000000" stroke="#000000" points="596.8799,-516.5001 606.8798,-513 596.8798,-509.5001 596.8799,-516.5001"/>
</g>
<!-- 140531496839096&#45;&gt;140531496722384 -->
<g id="edge2" class="edge">
<title>140531496839096&#45;&gt;140531496722384</title>
<path fill="none" stroke="#000000" d="M1158.2559,-541.1699C1146.9618,-537.682 1133.4624,-534.0285 1121,-532 1008.4979,-513.6877 877.2946,-510.5008 790.2148,-510.8868"/>
<polygon fill="#000000" stroke="#000000" points="790.0611,-507.3876 780.0827,-510.9487 790.104,-514.3874 790.0611,-507.3876"/>
</g>
<!-- 140531496839096&#45;&gt;140531496720312 -->
<g id="edge3" class="edge">
<title>140531496839096&#45;&gt;140531496720312</title>
<path fill="none" stroke="#000000" d="M1210.6078,-555.2059C1218.4554,-556.7413 1227.4974,-558.5104 1236.9658,-560.3629"/>
<polygon fill="#000000" stroke="#000000" points="1236.4691,-563.832 1246.9551,-562.3173 1237.8132,-556.9622 1236.4691,-563.832"/>
</g>
<!-- 140531496839320&#45;&gt;140531496721264 -->
<g id="edge4" class="edge">
<title>140531496839320&#45;&gt;140531496721264</title>
<path fill="none" stroke="#000000" d="M870.0162,-566.5739C877.6125,-566.1729 886.3905,-565.7096 895.787,-565.2136"/>
<polygon fill="#000000" stroke="#000000" points="895.9779,-568.7085 905.7795,-564.6861 895.6089,-561.7182 895.9779,-568.7085"/>
</g>
<!-- 140531496838032&#45;&gt;140531496720424 -->
<g id="edge5" class="edge">
<title>140531496838032&#45;&gt;140531496720424</title>
<path fill="none" stroke="#000000" d="M815.8653,-458.8145C737.558,-461.1982 504.4345,-468.5293 311,-477 302.6616,-477.3651 294.0986,-477.7565 285.4571,-478.1642"/>
<polygon fill="#000000" stroke="#000000" points="285.1071,-474.6768 275.2853,-478.6496 285.4408,-481.6688 285.1071,-474.6768"/>
</g>
<!-- 140531496838704&#45;&gt;140531496837416 -->
<g id="edge12" class="edge">
<title>140531496838704&#45;&gt;140531496837416</title>
<path fill="none" stroke="#000000" d="M720.5733,-153C744.4183,-153 779.3722,-153 805.8332,-153"/>
<polygon fill="#000000" stroke="#000000" points="805.8759,-156.5001 815.8759,-153 805.8759,-149.5001 805.8759,-156.5001"/>
</g>
</g>
</svg>
