<?xml version="1.0" encoding="UTF-8" standalone="no"?>
<!DOCTYPE svg PUBLIC "-//W3C//DTD SVG 1.1//EN"
 "http://www.w3.org/Graphics/SVG/1.1/DTD/svg11.dtd">
<!-- Generated by graphviz version 2.40.1 (20161225.0304)
 -->
<!-- Title: alpha_classic_net_1585315461.2759097 Pages: 1 -->
<svg width="821pt" height="1187pt"
 viewBox="0.00 0.00 821.00 1187.00" xmlns="http://www.w3.org/2000/svg" xmlns:xlink="http://www.w3.org/1999/xlink">
<g id="graph0" class="graph" transform="scale(1 1) rotate(0) translate(4 1183)">
<title>alpha_classic_net_1585315461.2759097</title>
<!-- 140178132399216 -->
<g id="node1" class="node">
<title>140178132399216</title>
<polygon fill="none" stroke="#000000" points="473,-252 353,-252 353,-216 473,-216 473,-252"/>
<text text-anchor="middle" x="413" y="-230.3" font-family="Times,serif" font-size="14.00" fill="#000000">JSFLoginFilter:init</text>
</g>
<!-- 140178132400784 -->
<g id="node27" class="node">
<title>140178132400784</title>
<ellipse fill="none" stroke="#000000" cx="606" cy="-126" rx="27" ry="27"/>
<text text-anchor="middle" x="606" y="-122.3" font-family="Times,serif" font-size="14.00" fill="#000000">({&#39;OrdersAlertFilter:init&#39;, &#39;JSFLoginFilter:init&#39;, &#39;new JSFLoginFilter&#39;, &#39;new OrdersAlertFilter&#39;, &#39;TradeWebContextListener:contextInitialized&#39;}, {&#39;Root&#39;})</text>
</g>
<!-- 140178132399216&#45;&gt;140178132400784 -->
<g id="edge2" class="edge">
<title>140178132399216&#45;&gt;140178132400784</title>
<path fill="none" stroke="#000000" d="M473.234,-230.3635C496.4102,-226.7726 522.2626,-219.9225 543,-207 561.927,-195.2057 577.4076,-175.5783 588.2868,-158.5985"/>
<polygon fill="#000000" stroke="#000000" points="591.3059,-160.3703 593.5503,-150.0159 585.3387,-156.7107 591.3059,-160.3703"/>
</g>
<!-- 140178132399944 -->
<g id="node2" class="node">
<title>140178132399944</title>
<polygon fill="none" stroke="#000000" points="166.5,-207 80.5,-207 80.5,-171 166.5,-171 166.5,-207"/>
<text text-anchor="middle" x="123.5" y="-185.3" font-family="Times,serif" font-size="14.00" fill="#000000">Log:doTrace</text>
</g>
<!-- 140178132399496 -->
<g id="node3" class="node">
<title>140178132399496</title>
<polygon fill="none" stroke="#000000" points="168,-261 79,-261 79,-225 168,-225 168,-261"/>
<text text-anchor="middle" x="123.5" y="-239.3" font-family="Times,serif" font-size="14.00" fill="#000000">Log:getTrace</text>
</g>
<!-- 140178132399888 -->
<g id="node4" class="node">
<title>140178132399888</title>
<polygon fill="none" stroke="#000000" points="214.5,-315 32.5,-315 32.5,-279 214.5,-279 214.5,-315"/>
<text text-anchor="middle" x="123.5" y="-293.3" font-family="Times,serif" font-size="14.00" fill="#000000">Log:trace [overloaded_#0011]</text>
</g>
<!-- 140178132399720 -->
<g id="node5" class="node">
<title>140178132399720</title>
<polygon fill="none" stroke="#000000" points="479,-198 347,-198 347,-162 479,-162 479,-198"/>
<text text-anchor="middle" x="413" y="-176.3" font-family="Times,serif" font-size="14.00" fill="#000000">OrdersAlertFilter:init</text>
</g>
<!-- 140178132399720&#45;&gt;140178132400784 -->
<g id="edge3" class="edge">
<title>140178132399720&#45;&gt;140178132400784</title>
<path fill="none" stroke="#000000" d="M479.1248,-168.9264C499.8028,-164.7568 522.5508,-159.4342 543,-153 552.6883,-149.9516 562.9193,-145.9347 572.2543,-141.9338"/>
<polygon fill="#000000" stroke="#000000" points="573.8612,-145.0504 581.5976,-137.8116 571.0356,-138.646 573.8612,-145.0504"/>
</g>
<!-- 140178132399608 -->
<g id="node6" class="node">
<title>140178132399608</title>
<polygon fill="none" stroke="#000000" points="723,-144 669,-144 669,-108 723,-108 723,-144"/>
<text text-anchor="middle" x="696" y="-122.3" font-family="Times,serif" font-size="14.00" fill="#000000">Root</text>
</g>
<!-- 140178132400616 -->
<g id="node28" class="node">
<title>140178132400616</title>
<ellipse fill="#ffa500" stroke="#000000" cx="786" cy="-126" rx="27" ry="27"/>
</g>
<!-- 140178132399608&#45;&gt;140178132400616 -->
<g id="edge4" class="edge">
<title>140178132399608&#45;&gt;140178132400616</title>
<path fill="none" stroke="#000000" d="M723.003,-126C731.0277,-126 739.9665,-126 748.5309,-126"/>
<polygon fill="#000000" stroke="#000000" points="748.7051,-129.5001 758.705,-126 748.705,-122.5001 748.7051,-129.5001"/>
</g>
<!-- 140178132400224 -->
<g id="node7" class="node">
<title>140178132400224</title>
<polygon fill="none" stroke="#000000" points="192,-369 55,-369 55,-333 192,-333 192,-369"/>
<text text-anchor="middle" x="123.5" y="-347.3" font-family="Times,serif" font-size="14.00" fill="#000000">TradeConfig:getTrace</text>
</g>
<!-- 140178132400168 -->
<g id="node8" class="node">
<title>140178132400168</title>
<polygon fill="none" stroke="#000000" points="209.5,-423 37.5,-423 37.5,-387 209.5,-387 209.5,-423"/>
<text text-anchor="middle" x="123.5" y="-401.3" font-family="Times,serif" font-size="14.00" fill="#000000">TradeConfig:setActionTrace</text>
</g>
<!-- 140178132399160 -->
<g id="node9" class="node">
<title>140178132399160</title>
<polygon fill="none" stroke="#000000" points="229,-477 18,-477 18,-441 229,-441 229,-477"/>
<text text-anchor="middle" x="123.5" y="-455.3" font-family="Times,serif" font-size="14.00" fill="#000000">TradeConfig:setDisplayOrderAlerts</text>
</g>
<!-- 140178132399832 -->
<g id="node10" class="node">
<title>140178132399832</title>
<polygon fill="none" stroke="#000000" points="201,-531 46,-531 46,-495 201,-495 201,-531"/>
<text text-anchor="middle" x="123.5" y="-509.3" font-family="Times,serif" font-size="14.00" fill="#000000">TradeConfig:setLongRun</text>
</g>
<!-- 140178132399328 -->
<g id="node11" class="node">
<title>140178132399328</title>
<polygon fill="none" stroke="#000000" points="222,-585 25,-585 25,-549 222,-549 222,-585"/>
<text text-anchor="middle" x="123.5" y="-563.3" font-family="Times,serif" font-size="14.00" fill="#000000">TradeConfig:setMAX_QUOTES</text>
</g>
<!-- 140178132400056 -->
<g id="node12" class="node">
<title>140178132400056</title>
<polygon fill="none" stroke="#000000" points="216,-639 31,-639 31,-603 216,-603 216,-639"/>
<text text-anchor="middle" x="123.5" y="-617.3" font-family="Times,serif" font-size="14.00" fill="#000000">TradeConfig:setMAX_USERS</text>
</g>
<!-- 140178132399384 -->
<g id="node13" class="node">
<title>140178132399384</title>
<polygon fill="none" stroke="#000000" points="243.5,-693 3.5,-693 3.5,-657 243.5,-657 243.5,-693"/>
<text text-anchor="middle" x="123.5" y="-671.3" font-family="Times,serif" font-size="14.00" fill="#000000">TradeConfig:setMarketSummaryInterval</text>
</g>
<!-- 140178132399552 -->
<g id="node14" class="node">
<title>140178132399552</title>
<polygon fill="none" stroke="#000000" points="237,-747 10,-747 10,-711 237,-711 237,-747"/>
<text text-anchor="middle" x="123.5" y="-725.3" font-family="Times,serif" font-size="14.00" fill="#000000">TradeConfig:setOrderProcessingMode</text>
</g>
<!-- 140178132399776 -->
<g id="node15" class="node">
<title>140178132399776</title>
<polygon fill="none" stroke="#000000" points="246,-801 1,-801 1,-765 246,-765 246,-801"/>
<text text-anchor="middle" x="123.5" y="-779.3" font-family="Times,serif" font-size="14.00" fill="#000000">TradeConfig:setPercentSentToWebsocket</text>
</g>
<!-- 140178132399104 -->
<g id="node16" class="node">
<title>140178132399104</title>
<polygon fill="none" stroke="#000000" points="214.5,-855 32.5,-855 32.5,-819 214.5,-819 214.5,-855"/>
<text text-anchor="middle" x="123.5" y="-833.3" font-family="Times,serif" font-size="14.00" fill="#000000">TradeConfig:setPrimIterations</text>
</g>
<!-- 140178132399048 -->
<g id="node17" class="node">
<title>140178132399048</title>
<polygon fill="none" stroke="#000000" points="247,-909 0,-909 0,-873 247,-873 247,-909"/>
<text text-anchor="middle" x="123.5" y="-887.3" font-family="Times,serif" font-size="14.00" fill="#000000">TradeConfig:setPublishQuotePriceChange</text>
</g>
<!-- 140178132400112 -->
<g id="node18" class="node">
<title>140178132400112</title>
<polygon fill="none" stroke="#000000" points="217.5,-963 29.5,-963 29.5,-927 217.5,-927 217.5,-963"/>
<text text-anchor="middle" x="123.5" y="-941.3" font-family="Times,serif" font-size="14.00" fill="#000000">TradeConfig:setRunTimeMode</text>
</g>
<!-- 140178132398936 -->
<g id="node19" class="node">
<title>140178132398936</title>
<polygon fill="none" stroke="#000000" points="191,-1017 56,-1017 56,-981 191,-981 191,-1017"/>
<text text-anchor="middle" x="123.5" y="-995.3" font-family="Times,serif" font-size="14.00" fill="#000000">TradeConfig:setTrace</text>
</g>
<!-- 140178132399272 -->
<g id="node20" class="node">
<title>140178132399272</title>
<polygon fill="none" stroke="#000000" points="243,-1071 4,-1071 4,-1035 243,-1035 243,-1071"/>
<text text-anchor="middle" x="123.5" y="-1049.3" font-family="Times,serif" font-size="14.00" fill="#000000">TradeConfig:setUseRemoteEJBInterface</text>
</g>
<!-- 140178132399440 -->
<g id="node21" class="node">
<title>140178132399440</title>
<polygon fill="none" stroke="#000000" points="213,-1125 34,-1125 34,-1089 213,-1089 213,-1125"/>
<text text-anchor="middle" x="123.5" y="-1103.3" font-family="Times,serif" font-size="14.00" fill="#000000">TradeConfig:setWebInterface</text>
</g>
<!-- 140178132398712 -->
<g id="node22" class="node">
<title>140178132398712</title>
<polygon fill="none" stroke="#000000" points="175.5,-1179 71.5,-1179 71.5,-1143 175.5,-1143 175.5,-1179"/>
<text text-anchor="middle" x="123.5" y="-1157.3" font-family="Times,serif" font-size="14.00" fill="#000000">TradeDirect:init</text>
</g>
<!-- 140178132399664 -->
<g id="node23" class="node">
<title>140178132399664</title>
<polygon fill="none" stroke="#000000" points="543,-144 283,-144 283,-108 543,-108 543,-144"/>
<text text-anchor="middle" x="413" y="-122.3" font-family="Times,serif" font-size="14.00" fill="#000000">TradeWebContextListener:contextInitialized</text>
</g>
<!-- 140178132399664&#45;&gt;140178132400784 -->
<g id="edge5" class="edge">
<title>140178132399664&#45;&gt;140178132400784</title>
<path fill="none" stroke="#000000" d="M543.0716,-126C552.2276,-126 560.9229,-126 568.7659,-126"/>
<polygon fill="#000000" stroke="#000000" points="568.8958,-129.5001 578.8957,-126 568.8957,-122.5001 568.8958,-129.5001"/>
</g>
<!-- 140178132400000 -->
<g id="node24" class="node">
<title>140178132400000</title>
<polygon fill="none" stroke="#000000" points="475.5,-90 350.5,-90 350.5,-54 475.5,-54 475.5,-90"/>
<text text-anchor="middle" x="413" y="-68.3" font-family="Times,serif" font-size="14.00" fill="#000000">new JSFLoginFilter</text>
</g>
<!-- 140178132400000&#45;&gt;140178132400784 -->
<g id="edge6" class="edge">
<title>140178132400000&#45;&gt;140178132400784</title>
<path fill="none" stroke="#000000" d="M475.8083,-82.4111C497.3501,-86.6741 521.4514,-92.2199 543,-99 552.6883,-102.0484 562.9193,-106.0653 572.2543,-110.0662"/>
<polygon fill="#000000" stroke="#000000" points="571.0356,-113.354 581.5976,-114.1884 573.8612,-106.9496 571.0356,-113.354"/>
</g>
<!-- 140178132398768 -->
<g id="node25" class="node">
<title>140178132398768</title>
<polygon fill="none" stroke="#000000" points="481.5,-36 344.5,-36 344.5,0 481.5,0 481.5,-36"/>
<text text-anchor="middle" x="413" y="-14.3" font-family="Times,serif" font-size="14.00" fill="#000000">new OrdersAlertFilter</text>
</g>
<!-- 140178132398768&#45;&gt;140178132400784 -->
<g id="edge7" class="edge">
<title>140178132398768&#45;&gt;140178132400784</title>
<path fill="none" stroke="#000000" d="M481.532,-23.0474C502.4364,-26.9274 524.7081,-33.6014 543,-45 561.927,-56.7943 577.4076,-76.4217 588.2868,-93.4015"/>
<polygon fill="#000000" stroke="#000000" points="585.3387,-95.2893 593.5503,-101.9841 591.3059,-91.6297 585.3387,-95.2893"/>
</g>
<!-- 140178132400280 -->
<g id="node26" class="node">
<title>140178132400280</title>
<ellipse fill="#00ff00" stroke="#000000" cx="123.5" cy="-126" rx="27" ry="27"/>
<text text-anchor="middle" x="123.5" y="-122.3" font-family="Times,serif" font-size="14.00" fill="#000000">1</text>
</g>
<!-- 140178132400280&#45;&gt;140178132399216 -->
<g id="edge8" class="edge">
<title>140178132400280&#45;&gt;140178132399216</title>
<path fill="none" stroke="#000000" d="M150.5458,-129.0815C176.9961,-133.1445 217.4903,-142.2481 247,-162 268.2846,-176.2465 261.1703,-193.6035 283,-207 300.8968,-217.9829 322.5174,-224.5683 342.9456,-228.4952"/>
<polygon fill="#000000" stroke="#000000" points="342.4052,-231.9536 352.8567,-230.2169 343.6033,-225.0569 342.4052,-231.9536"/>
</g>
<!-- 140178132400280&#45;&gt;140178132399720 -->
<g id="edge9" class="edge">
<title>140178132400280&#45;&gt;140178132399720</title>
<path fill="none" stroke="#000000" d="M150.2166,-130.9834C192.2493,-138.8237 275.3684,-154.3278 336.9222,-165.8093"/>
<polygon fill="#000000" stroke="#000000" points="336.5188,-169.2944 346.991,-167.6874 337.8024,-162.4131 336.5188,-169.2944"/>
</g>
<!-- 140178132400280&#45;&gt;140178132399664 -->
<g id="edge10" class="edge">
<title>140178132400280&#45;&gt;140178132399664</title>
<path fill="none" stroke="#000000" d="M150.7355,-126C179.2571,-126 226.2815,-126 272.6959,-126"/>
<polygon fill="#000000" stroke="#000000" points="272.8955,-129.5001 282.8955,-126 272.8954,-122.5001 272.8955,-129.5001"/>
</g>
<!-- 140178132400280&#45;&gt;140178132400000 -->
<g id="edge11" class="edge">
<title>140178132400280&#45;&gt;140178132400000</title>
<path fill="none" stroke="#000000" d="M150.2166,-121.0166C193.0449,-113.0279 278.5295,-97.0826 340.3938,-85.5431"/>
<polygon fill="#000000" stroke="#000000" points="341.3061,-88.9334 350.4947,-83.659 340.0225,-82.0521 341.3061,-88.9334"/>
</g>
<!-- 140178132400280&#45;&gt;140178132398768 -->
<g id="edge12" class="edge">
<title>140178132400280&#45;&gt;140178132398768</title>
<path fill="none" stroke="#000000" d="M146.6759,-111.7418C176.9653,-93.7001 232.1529,-62.8344 283,-45 299.274,-39.292 317.1392,-34.6142 334.2756,-30.852"/>
<polygon fill="#000000" stroke="#000000" points="335.203,-34.2334 344.2635,-28.7419 333.756,-27.3846 335.203,-34.2334"/>
</g>
<!-- 140178132400784&#45;&gt;140178132399608 -->
<g id="edge1" class="edge">
<title>140178132400784&#45;&gt;140178132399608</title>
<path fill="none" stroke="#000000" d="M633.003,-126C641.0277,-126 649.9665,-126 658.5309,-126"/>
<polygon fill="#000000" stroke="#000000" points="658.7051,-129.5001 668.705,-126 658.705,-122.5001 658.7051,-129.5001"/>
</g>
</g>
</svg>
