<?xml version="1.0" encoding="UTF-8" standalone="no"?>
<!DOCTYPE svg PUBLIC "-//W3C//DTD SVG 1.1//EN"
 "http://www.w3.org/Graphics/SVG/1.1/DTD/svg11.dtd">
<!-- Generated by graphviz version 2.40.1 (20161225.0304)
 -->
<!-- Title: alpha_plus_net_1586496216.8746893 Pages: 1 -->
<svg width="1405pt" height="1862pt"
 viewBox="0.00 0.00 1405.00 1862.00" xmlns="http://www.w3.org/2000/svg" xmlns:xlink="http://www.w3.org/1999/xlink">
<g id="graph0" class="graph" transform="scale(1 1) rotate(0) translate(4 1858)">
<title>alpha_plus_net_1586496216.8746893</title>
<!-- 139748195415208 -->
<g id="node1" class="node">
<title>139748195415208</title>
<polygon fill="none" stroke="#000000" points="243,-108 32,-108 32,-72 243,-72 243,-108"/>
<text text-anchor="middle" x="137.5" y="-86.3" font-family="Times,serif" font-size="14.00" fill="#000000">FinancialUtils:computeGainPercent</text>
</g>
<!-- 139748195416384 -->
<g id="node2" class="node">
<title>139748195416384</title>
<polygon fill="none" stroke="#000000" points="501,-306 381,-306 381,-270 501,-270 501,-306"/>
<text text-anchor="middle" x="441" y="-284.3" font-family="Times,serif" font-size="14.00" fill="#000000">JSFLoginFilter:init</text>
</g>
<!-- 139748191103800 -->
<g id="node48" class="node">
<title>139748191103800</title>
<ellipse fill="none" stroke="#000000" cx="693.5" cy="-153" rx="27" ry="27"/>
<text text-anchor="middle" x="693.5" y="-149.3" font-family="Times,serif" font-size="14.00" fill="#000000">({&#39;TradeWebContextListener:contextInitialized&#39;, &#39;OrdersAlertFilter:init&#39;, &#39;new OrdersAlertFilter&#39;, &#39;OrdersAlertFilter:doFilter&#39;, &#39;JSFLoginFilter:init&#39;, &#39;new JSFLoginFilter&#39;}, {&#39;Root&#39;})</text>
</g>
<!-- 139748195416384&#45;&gt;139748191103800 -->
<g id="edge13" class="edge">
<title>139748195416384&#45;&gt;139748191103800</title>
<path fill="none" stroke="#000000" d="M501.0626,-282.1432C523.8376,-278.2502 549.455,-271.7733 571,-261 609.9001,-241.5485 646.1657,-206.6301 668.9867,-181.765"/>
<polygon fill="#000000" stroke="#000000" points="671.8187,-183.8505 675.91,-174.0775 666.6171,-179.166 671.8187,-183.8505"/>
</g>
<!-- 139748195416608 -->
<g id="node3" class="node">
<title>139748195416608</title>
<polygon fill="none" stroke="#000000" points="180.5,-234 94.5,-234 94.5,-198 180.5,-198 180.5,-234"/>
<text text-anchor="middle" x="137.5" y="-212.3" font-family="Times,serif" font-size="14.00" fill="#000000">Log:doTrace</text>
</g>
<!-- 139748195416496 -->
<g id="node4" class="node">
<title>139748195416496</title>
<polygon fill="none" stroke="#000000" points="182,-288 93,-288 93,-252 182,-252 182,-288"/>
<text text-anchor="middle" x="137.5" y="-266.3" font-family="Times,serif" font-size="14.00" fill="#000000">Log:getTrace</text>
</g>
<!-- 139748195414928 -->
<g id="node5" class="node">
<title>139748195414928</title>
<polygon fill="none" stroke="#000000" points="167,-342 108,-342 108,-306 167,-306 167,-342"/>
<text text-anchor="middle" x="137.5" y="-320.3" font-family="Times,serif" font-size="14.00" fill="#000000">Log:log</text>
</g>
<!-- 139748195415488 -->
<g id="node6" class="node">
<title>139748195415488</title>
<polygon fill="none" stroke="#000000" points="171.5,-396 103.5,-396 103.5,-360 171.5,-360 171.5,-396"/>
<text text-anchor="middle" x="137.5" y="-374.3" font-family="Times,serif" font-size="14.00" fill="#000000">Log:trace</text>
</g>
<!-- 139748195415544 -->
<g id="node7" class="node">
<title>139748195415544</title>
<polygon fill="none" stroke="#000000" points="228.5,-450 46.5,-450 46.5,-414 228.5,-414 228.5,-450"/>
<text text-anchor="middle" x="137.5" y="-428.3" font-family="Times,serif" font-size="14.00" fill="#000000">Log:trace [overloaded_#0011]</text>
</g>
<!-- 139748195416664 -->
<g id="node8" class="node">
<title>139748195416664</title>
<polygon fill="none" stroke="#000000" points="275,-504 0,-504 0,-468 275,-468 275,-504"/>
<text text-anchor="middle" x="137.5" y="-482.3" font-family="Times,serif" font-size="14.00" fill="#000000">MarketSummaryDataBean:getRandomInstance</text>
</g>
<!-- 139748191102736 -->
<g id="node44" class="node">
<title>139748191102736</title>
<ellipse fill="none" stroke="#000000" cx="441" cy="-454" rx="27" ry="27"/>
<text text-anchor="middle" x="441" y="-450.3" font-family="Times,serif" font-size="14.00" fill="#000000">({&#39;MarketSummaryDataBean:getRandomInstance&#39;}, {&#39;TradeConfig:rndBigDecimal&#39;})</text>
</g>
<!-- 139748195416664&#45;&gt;139748191102736 -->
<g id="edge14" class="edge">
<title>139748195416664&#45;&gt;139748191102736</title>
<path fill="none" stroke="#000000" d="M275.042,-471.498C322.2472,-466.5209 371.3025,-461.3487 403.7204,-457.9306"/>
<polygon fill="#000000" stroke="#000000" points="404.4719,-461.3709 414.0497,-456.8415 403.7378,-454.4095 404.4719,-461.3709"/>
</g>
<!-- 139748195415040 -->
<g id="node9" class="node">
<title>139748195415040</title>
<polygon fill="none" stroke="#000000" points="519.5,-252 362.5,-252 362.5,-216 519.5,-216 519.5,-252"/>
<text text-anchor="middle" x="441" y="-230.3" font-family="Times,serif" font-size="14.00" fill="#000000">OrdersAlertFilter:doFilter</text>
</g>
<!-- 139748195415040&#45;&gt;139748191103800 -->
<g id="edge15" class="edge">
<title>139748195415040&#45;&gt;139748191103800</title>
<path fill="none" stroke="#000000" d="M519.7166,-220.4286C536.8,-216.7147 554.6454,-212.2386 571,-207 602.0692,-197.0482 635.8961,-181.775 660.1159,-170.0079"/>
<polygon fill="#000000" stroke="#000000" points="661.7956,-173.0822 669.2241,-165.5278 658.706,-166.8009 661.7956,-173.0822"/>
</g>
<!-- 139748195414816 -->
<g id="node10" class="node">
<title>139748195414816</title>
<polygon fill="none" stroke="#000000" points="507,-198 375,-198 375,-162 507,-162 507,-198"/>
<text text-anchor="middle" x="441" y="-176.3" font-family="Times,serif" font-size="14.00" fill="#000000">OrdersAlertFilter:init</text>
</g>
<!-- 139748195414816&#45;&gt;139748191103800 -->
<g id="edge16" class="edge">
<title>139748195414816&#45;&gt;139748191103800</title>
<path fill="none" stroke="#000000" d="M507.0116,-172.9413C554.6616,-167.8461 617.2649,-161.1519 656.4436,-156.9625"/>
<polygon fill="#000000" stroke="#000000" points="657.0284,-160.42 666.5996,-155.8765 656.2841,-153.4597 657.0284,-160.42"/>
</g>
<!-- 139748195416328 -->
<g id="node11" class="node">
<title>139748195416328</title>
<polygon fill="none" stroke="#000000" points="1121,-458 906,-458 906,-422 1121,-422 1121,-458"/>
<text text-anchor="middle" x="1013.5" y="-436.3" font-family="Times,serif" font-size="14.00" fill="#000000">QuoteDataBean:getRandomInstance</text>
</g>
<!-- 139748191104192 -->
<g id="node45" class="node">
<title>139748191104192</title>
<ellipse fill="none" stroke="#000000" cx="1184" cy="-431" rx="27" ry="27"/>
<text text-anchor="middle" x="1184" y="-427.3" font-family="Times,serif" font-size="14.00" fill="#000000">({&#39;QuoteDataBean:getRandomInstance&#39;}, {&#39;TradeConfig:rndSymbol&#39;, &#39;TradeConfig:rndBigDecimal&#39;})</text>
</g>
<!-- 139748195416328&#45;&gt;139748191104192 -->
<g id="edge17" class="edge">
<title>139748195416328&#45;&gt;139748191104192</title>
<path fill="none" stroke="#000000" d="M1121.4802,-434.3002C1130.3855,-433.8301 1138.9339,-433.3789 1146.6963,-432.9691"/>
<polygon fill="#000000" stroke="#000000" points="1146.9524,-436.4606 1156.7539,-432.4382 1146.5833,-429.4703 1146.9524,-436.4606"/>
</g>
<!-- 139748195415152 -->
<g id="node12" class="node">
<title>139748195415152</title>
<polygon fill="none" stroke="#000000" points="870,-171 816,-171 816,-135 870,-135 870,-171"/>
<text text-anchor="middle" x="843" y="-149.3" font-family="Times,serif" font-size="14.00" fill="#000000">Root</text>
</g>
<!-- 139748197414672 -->
<g id="node49" class="node">
<title>139748197414672</title>
<ellipse fill="#ffa500" stroke="#000000" cx="1013.5" cy="-153" rx="27" ry="27"/>
</g>
<!-- 139748195415152&#45;&gt;139748197414672 -->
<g id="edge18" class="edge">
<title>139748195415152&#45;&gt;139748197414672</title>
<path fill="none" stroke="#000000" d="M870.0162,-153C898.6151,-153 943.9627,-153 976.0125,-153"/>
<polygon fill="#000000" stroke="#000000" points="976.3284,-156.5001 986.3284,-153 976.3284,-149.5001 976.3284,-156.5001"/>
</g>
<!-- 139748195415432 -->
<g id="node13" class="node">
<title>139748195415432</title>
<polygon fill="none" stroke="#000000" points="203,-558 72,-558 72,-522 203,-522 203,-558"/>
<text text-anchor="middle" x="137.5" y="-536.3" font-family="Times,serif" font-size="14.00" fill="#000000">TradeAppServlet:init</text>
</g>
<!-- 139748195418008 -->
<g id="node14" class="node">
<title>139748195418008</title>
<polygon fill="none" stroke="#000000" points="229.5,-612 45.5,-612 45.5,-576 229.5,-576 229.5,-612"/>
<text text-anchor="middle" x="137.5" y="-590.3" font-family="Times,serif" font-size="14.00" fill="#000000">TradeAppServlet:performTask</text>
</g>
<!-- 139748195417000 -->
<g id="node15" class="node">
<title>139748195417000</title>
<polygon fill="none" stroke="#000000" points="243.5,-666 31.5,-666 31.5,-630 243.5,-630 243.5,-666"/>
<text text-anchor="middle" x="137.5" y="-644.3" font-family="Times,serif" font-size="14.00" fill="#000000">TradeConfig:getDisplayOrderAlerts</text>
</g>
<!-- 139748195417224 -->
<g id="node16" class="node">
<title>139748195417224</title>
<polygon fill="none" stroke="#000000" points="203.5,-720 71.5,-720 71.5,-684 203.5,-684 203.5,-720"/>
<text text-anchor="middle" x="137.5" y="-698.3" font-family="Times,serif" font-size="14.00" fill="#000000">TradeConfig:getPage</text>
</g>
<!-- 139748195417112 -->
<g id="node17" class="node">
<title>139748195417112</title>
<polygon fill="none" stroke="#000000" points="206,-774 69,-774 69,-738 206,-738 206,-774"/>
<text text-anchor="middle" x="137.5" y="-752.3" font-family="Times,serif" font-size="14.00" fill="#000000">TradeConfig:getTrace</text>
</g>
<!-- 139748195414872 -->
<g id="node18" class="node">
<title>139748195414872</title>
<polygon fill="none" stroke="#000000" points="780,-470 607,-470 607,-434 780,-434 780,-470"/>
<text text-anchor="middle" x="693.5" y="-448.3" font-family="Times,serif" font-size="14.00" fill="#000000">TradeConfig:rndBigDecimal</text>
</g>
<!-- 139748191103128 -->
<g id="node46" class="node">
<title>139748191103128</title>
<ellipse fill="none" stroke="#000000" cx="843" cy="-521" rx="27" ry="27"/>
<text text-anchor="middle" x="843" y="-517.3" font-family="Times,serif" font-size="14.00" fill="#000000">({&#39;TradeConfig:rndBigDecimal&#39;}, {&#39;MarketSummaryDataBean:getRandomInstance&#39;})</text>
</g>
<!-- 139748195414872&#45;&gt;139748191103128 -->
<g id="edge19" class="edge">
<title>139748195414872&#45;&gt;139748191103128</title>
<path fill="none" stroke="#000000" d="M732.7794,-470.1289C756.3972,-481.0295 786.1652,-494.7685 808.8101,-505.22"/>
<polygon fill="#000000" stroke="#000000" points="807.4939,-508.4673 818.0402,-509.4801 810.4273,-502.1116 807.4939,-508.4673"/>
</g>
<!-- 139748191104416 -->
<g id="node47" class="node">
<title>139748191104416</title>
<ellipse fill="none" stroke="#000000" cx="843" cy="-449" rx="27" ry="27"/>
<text text-anchor="middle" x="843" y="-445.3" font-family="Times,serif" font-size="14.00" fill="#000000">({&#39;TradeConfig:rndSymbol&#39;, &#39;TradeConfig:rndBigDecimal&#39;}, {&#39;QuoteDataBean:getRandomInstance&#39;})</text>
</g>
<!-- 139748195414872&#45;&gt;139748191104416 -->
<g id="edge20" class="edge">
<title>139748195414872&#45;&gt;139748191104416</title>
<path fill="none" stroke="#000000" d="M780.0318,-450.2636C789.0115,-450.0834 797.7584,-449.9079 805.7366,-449.7478"/>
<polygon fill="#000000" stroke="#000000" points="805.8092,-453.2471 815.737,-449.5471 805.6687,-446.2485 805.8092,-453.2471"/>
</g>
<!-- 139748195416552 -->
<g id="node19" class="node">
<title>139748195416552</title>
<polygon fill="none" stroke="#000000" points="205,-828 70,-828 70,-792 205,-792 205,-828"/>
<text text-anchor="middle" x="137.5" y="-806.3" font-family="Times,serif" font-size="14.00" fill="#000000">TradeConfig:rndFloat</text>
</g>
<!-- 139748195415264 -->
<g id="node20" class="node">
<title>139748195415264</title>
<polygon fill="none" stroke="#000000" points="215,-882 60,-882 60,-846 215,-846 215,-882"/>
<text text-anchor="middle" x="137.5" y="-860.3" font-family="Times,serif" font-size="14.00" fill="#000000">TradeConfig:rndQuantity</text>
</g>
<!-- 139748195414760 -->
<g id="node21" class="node">
<title>139748195414760</title>
<polygon fill="none" stroke="#000000" points="1397,-476 1247,-476 1247,-440 1397,-440 1397,-476"/>
<text text-anchor="middle" x="1322" y="-454.3" font-family="Times,serif" font-size="14.00" fill="#000000">TradeConfig:rndSymbol</text>
</g>
<!-- 139748195414760&#45;&gt;139748191104416 -->
<g id="edge21" class="edge">
<title>139748195414760&#45;&gt;139748191104416</title>
<path fill="none" stroke="#000000" d="M1246.8173,-464.9236C1234.8461,-465.7873 1222.591,-466.5309 1211,-467 1075.5553,-472.482 1040.2453,-485.8017 906,-467 896.9148,-465.7276 887.3014,-463.4704 878.3942,-460.9753"/>
<polygon fill="#000000" stroke="#000000" points="879.2863,-457.5892 868.7037,-458.0969 877.2931,-464.2995 879.2863,-457.5892"/>
</g>
<!-- 139748195416776 -->
<g id="node22" class="node">
<title>139748195416776</title>
<polygon fill="none" stroke="#000000" points="223.5,-936 51.5,-936 51.5,-900 223.5,-900 223.5,-936"/>
<text text-anchor="middle" x="137.5" y="-914.3" font-family="Times,serif" font-size="14.00" fill="#000000">TradeConfig:setActionTrace</text>
</g>
<!-- 139748195416944 -->
<g id="node23" class="node">
<title>139748195416944</title>
<polygon fill="none" stroke="#000000" points="243,-990 32,-990 32,-954 243,-954 243,-990"/>
<text text-anchor="middle" x="137.5" y="-968.3" font-family="Times,serif" font-size="14.00" fill="#000000">TradeConfig:setDisplayOrderAlerts</text>
</g>
<!-- 139748195416160 -->
<g id="node24" class="node">
<title>139748195416160</title>
<polygon fill="none" stroke="#000000" points="215,-1044 60,-1044 60,-1008 215,-1008 215,-1044"/>
<text text-anchor="middle" x="137.5" y="-1022.3" font-family="Times,serif" font-size="14.00" fill="#000000">TradeConfig:setLongRun</text>
</g>
<!-- 139748195416832 -->
<g id="node25" class="node">
<title>139748195416832</title>
<polygon fill="none" stroke="#000000" points="236,-1098 39,-1098 39,-1062 236,-1062 236,-1098"/>
<text text-anchor="middle" x="137.5" y="-1076.3" font-family="Times,serif" font-size="14.00" fill="#000000">TradeConfig:setMAX_QUOTES</text>
</g>
<!-- 139748197400304 -->
<g id="node26" class="node">
<title>139748197400304</title>
<polygon fill="none" stroke="#000000" points="230,-1152 45,-1152 45,-1116 230,-1116 230,-1152"/>
<text text-anchor="middle" x="137.5" y="-1130.3" font-family="Times,serif" font-size="14.00" fill="#000000">TradeConfig:setMAX_USERS</text>
</g>
<!-- 139748195416216 -->
<g id="node27" class="node">
<title>139748195416216</title>
<polygon fill="none" stroke="#000000" points="257.5,-1206 17.5,-1206 17.5,-1170 257.5,-1170 257.5,-1206"/>
<text text-anchor="middle" x="137.5" y="-1184.3" font-family="Times,serif" font-size="14.00" fill="#000000">TradeConfig:setMarketSummaryInterval</text>
</g>
<!-- 139748195416720 -->
<g id="node28" class="node">
<title>139748195416720</title>
<polygon fill="none" stroke="#000000" points="251,-1260 24,-1260 24,-1224 251,-1224 251,-1260"/>
<text text-anchor="middle" x="137.5" y="-1238.3" font-family="Times,serif" font-size="14.00" fill="#000000">TradeConfig:setOrderProcessingMode</text>
</g>
<!-- 139748195416104 -->
<g id="node29" class="node">
<title>139748195416104</title>
<polygon fill="none" stroke="#000000" points="260,-1314 15,-1314 15,-1278 260,-1278 260,-1314"/>
<text text-anchor="middle" x="137.5" y="-1292.3" font-family="Times,serif" font-size="14.00" fill="#000000">TradeConfig:setPercentSentToWebsocket</text>
</g>
<!-- 139748195417056 -->
<g id="node30" class="node">
<title>139748195417056</title>
<polygon fill="none" stroke="#000000" points="228.5,-1368 46.5,-1368 46.5,-1332 228.5,-1332 228.5,-1368"/>
<text text-anchor="middle" x="137.5" y="-1346.3" font-family="Times,serif" font-size="14.00" fill="#000000">TradeConfig:setPrimIterations</text>
</g>
<!-- 139748195417168 -->
<g id="node31" class="node">
<title>139748195417168</title>
<polygon fill="none" stroke="#000000" points="261,-1422 14,-1422 14,-1386 261,-1386 261,-1422"/>
<text text-anchor="middle" x="137.5" y="-1400.3" font-family="Times,serif" font-size="14.00" fill="#000000">TradeConfig:setPublishQuotePriceChange</text>
</g>
<!-- 139748195415320 -->
<g id="node32" class="node">
<title>139748195415320</title>
<polygon fill="none" stroke="#000000" points="231.5,-1476 43.5,-1476 43.5,-1440 231.5,-1440 231.5,-1476"/>
<text text-anchor="middle" x="137.5" y="-1454.3" font-family="Times,serif" font-size="14.00" fill="#000000">TradeConfig:setRunTimeMode</text>
</g>
<!-- 139748195417840 -->
<g id="node33" class="node">
<title>139748195417840</title>
<polygon fill="none" stroke="#000000" points="205,-1530 70,-1530 70,-1494 205,-1494 205,-1530"/>
<text text-anchor="middle" x="137.5" y="-1508.3" font-family="Times,serif" font-size="14.00" fill="#000000">TradeConfig:setTrace</text>
</g>
<!-- 139748195415376 -->
<g id="node34" class="node">
<title>139748195415376</title>
<polygon fill="none" stroke="#000000" points="257,-1584 18,-1584 18,-1548 257,-1548 257,-1584"/>
<text text-anchor="middle" x="137.5" y="-1562.3" font-family="Times,serif" font-size="14.00" fill="#000000">TradeConfig:setUseRemoteEJBInterface</text>
</g>
<!-- 139748195415096 -->
<g id="node35" class="node">
<title>139748195415096</title>
<polygon fill="none" stroke="#000000" points="227,-1638 48,-1638 48,-1602 227,-1602 227,-1638"/>
<text text-anchor="middle" x="137.5" y="-1616.3" font-family="Times,serif" font-size="14.00" fill="#000000">TradeConfig:setWebInterface</text>
</g>
<!-- 139748195414704 -->
<g id="node36" class="node">
<title>139748195414704</title>
<polygon fill="none" stroke="#000000" points="248,-1692 27,-1692 27,-1656 248,-1656 248,-1692"/>
<text text-anchor="middle" x="137.5" y="-1670.3" font-family="Times,serif" font-size="14.00" fill="#000000">TradeConfig:useRemoteEJBInterface</text>
</g>
<!-- 139748195414648 -->
<g id="node37" class="node">
<title>139748195414648</title>
<polygon fill="none" stroke="#000000" points="189.5,-1746 85.5,-1746 85.5,-1710 189.5,-1710 189.5,-1746"/>
<text text-anchor="middle" x="137.5" y="-1724.3" font-family="Times,serif" font-size="14.00" fill="#000000">TradeDirect:init</text>
</g>
<!-- 139748195414592 -->
<g id="node38" class="node">
<title>139748195414592</title>
<polygon fill="none" stroke="#000000" points="234.5,-1800 40.5,-1800 40.5,-1764 234.5,-1764 234.5,-1800"/>
<text text-anchor="middle" x="137.5" y="-1778.3" font-family="Times,serif" font-size="14.00" fill="#000000">TradeServletAction:doWelcome</text>
</g>
<!-- 139748195414984 -->
<g id="node39" class="node">
<title>139748195414984</title>
<polygon fill="none" stroke="#000000" points="571,-144 311,-144 311,-108 571,-108 571,-144"/>
<text text-anchor="middle" x="441" y="-122.3" font-family="Times,serif" font-size="14.00" fill="#000000">TradeWebContextListener:contextInitialized</text>
</g>
<!-- 139748195414984&#45;&gt;139748191103800 -->
<g id="edge22" class="edge">
<title>139748195414984&#45;&gt;139748191103800</title>
<path fill="none" stroke="#000000" d="M571.318,-139.935C602.6893,-143.2895 633.7254,-146.6083 656.6673,-149.0615"/>
<polygon fill="#000000" stroke="#000000" points="656.2953,-152.5415 666.6108,-150.1247 657.0396,-145.5812 656.2953,-152.5415"/>
</g>
<!-- 139748195416272 -->
<g id="node40" class="node">
<title>139748195416272</title>
<polygon fill="none" stroke="#000000" points="503.5,-90 378.5,-90 378.5,-54 503.5,-54 503.5,-90"/>
<text text-anchor="middle" x="441" y="-68.3" font-family="Times,serif" font-size="14.00" fill="#000000">new JSFLoginFilter</text>
</g>
<!-- 139748195416272&#45;&gt;139748191103800 -->
<g id="edge23" class="edge">
<title>139748195416272&#45;&gt;139748191103800</title>
<path fill="none" stroke="#000000" d="M503.5189,-82.2194C525.1476,-86.4804 549.3769,-92.0739 571,-99 602.0692,-108.9518 635.8961,-124.225 660.1159,-135.9921"/>
<polygon fill="#000000" stroke="#000000" points="658.706,-139.1991 669.2241,-140.4722 661.7956,-132.9178 658.706,-139.1991"/>
</g>
<!-- 139748195414256 -->
<g id="node41" class="node">
<title>139748195414256</title>
<polygon fill="none" stroke="#000000" points="509.5,-36 372.5,-36 372.5,0 509.5,0 509.5,-36"/>
<text text-anchor="middle" x="441" y="-14.3" font-family="Times,serif" font-size="14.00" fill="#000000">new OrdersAlertFilter</text>
</g>
<!-- 139748195414256&#45;&gt;139748191103800 -->
<g id="edge24" class="edge">
<title>139748195414256&#45;&gt;139748191103800</title>
<path fill="none" stroke="#000000" d="M509.681,-25.433C530.1483,-29.4278 552.1353,-35.5669 571,-45 609.9001,-64.4515 646.1657,-99.3699 668.9867,-124.235"/>
<polygon fill="#000000" stroke="#000000" points="666.6171,-126.834 675.91,-131.9225 671.8187,-122.1495 666.6171,-126.834"/>
</g>
<!-- 139748195414424 -->
<g id="node42" class="node">
<title>139748195414424</title>
<polygon fill="none" stroke="#000000" points="193,-1854 82,-1854 82,-1818 193,-1818 193,-1854"/>
<text text-anchor="middle" x="137.5" y="-1832.3" font-family="Times,serif" font-size="14.00" fill="#000000">new TradeAction</text>
</g>
<!-- 139748191103296 -->
<g id="node43" class="node">
<title>139748191103296</title>
<ellipse fill="#00ff00" stroke="#000000" cx="137.5" cy="-153" rx="27" ry="27"/>
<text text-anchor="middle" x="137.5" y="-149.3" font-family="Times,serif" font-size="14.00" fill="#000000">1</text>
</g>
<!-- 139748191103296&#45;&gt;139748195416384 -->
<g id="edge7" class="edge">
<title>139748191103296&#45;&gt;139748195416384</title>
<path fill="none" stroke="#000000" d="M164.7395,-153.6505C194.819,-155.7167 243.1902,-163.1919 275,-189 302.783,-211.5411 282.6481,-239.1787 311,-261 327.9541,-274.0489 349.7023,-281.185 370.5398,-284.9805"/>
<polygon fill="#000000" stroke="#000000" points="370.2463,-288.4776 380.671,-286.5866 371.3424,-281.5639 370.2463,-288.4776"/>
</g>
<!-- 139748191103296&#45;&gt;139748195415040 -->
<g id="edge8" class="edge">
<title>139748191103296&#45;&gt;139748195415040</title>
<path fill="none" stroke="#000000" d="M164.1085,-158.248C192.1828,-164.1801 237.4697,-174.8795 275,-189 291.7427,-195.2993 294.1013,-201.1321 311,-207 324.1419,-211.5634 338.3125,-215.4758 352.2964,-218.7904"/>
<polygon fill="#000000" stroke="#000000" points="351.9007,-222.2899 362.4284,-221.0992 353.456,-215.4649 351.9007,-222.2899"/>
</g>
<!-- 139748191103296&#45;&gt;139748195414816 -->
<g id="edge9" class="edge">
<title>139748191103296&#45;&gt;139748195414816</title>
<path fill="none" stroke="#000000" d="M164.4336,-155.3961C208.9129,-159.353 299.2956,-167.3937 364.6557,-173.2083"/>
<polygon fill="#000000" stroke="#000000" points="364.6491,-176.7214 374.9199,-174.1214 365.2694,-169.7489 364.6491,-176.7214"/>
</g>
<!-- 139748191103296&#45;&gt;139748195414984 -->
<g id="edge10" class="edge">
<title>139748191103296&#45;&gt;139748195414984</title>
<path fill="none" stroke="#000000" d="M164.4336,-150.6039C195.5077,-147.8395 248.9859,-143.082 300.6842,-138.4828"/>
<polygon fill="#000000" stroke="#000000" points="301.0008,-141.9685 310.6513,-137.5961 300.3804,-134.9961 301.0008,-141.9685"/>
</g>
<!-- 139748191103296&#45;&gt;139748195416272 -->
<g id="edge11" class="edge">
<title>139748191103296&#45;&gt;139748195416272</title>
<path fill="none" stroke="#000000" d="M164.1085,-147.752C192.1828,-141.8199 237.4697,-131.1205 275,-117 291.7427,-110.7007 294.1013,-104.8679 311,-99 329.1814,-92.6867 349.3316,-87.6195 368.2324,-83.6571"/>
<polygon fill="#000000" stroke="#000000" points="369.1743,-87.0376 378.2833,-81.6269 367.7883,-80.1762 369.1743,-87.0376"/>
</g>
<!-- 139748191103296&#45;&gt;139748195414256 -->
<g id="edge12" class="edge">
<title>139748191103296&#45;&gt;139748195414256</title>
<path fill="none" stroke="#000000" d="M164.7395,-152.3495C194.819,-150.2833 243.1902,-142.8081 275,-117 302.783,-94.4589 282.6481,-66.8213 311,-45 325.7874,-33.6187 344.2218,-26.7356 362.5181,-22.6438"/>
<polygon fill="#000000" stroke="#000000" points="363.2174,-26.0733 372.3475,-20.6982 361.8582,-19.2065 363.2174,-26.0733"/>
</g>
<!-- 139748191102736&#45;&gt;139748195414872 -->
<g id="edge1" class="edge">
<title>139748191102736&#45;&gt;139748195414872</title>
<path fill="none" stroke="#000000" d="M468.0219,-453.786C498.7202,-453.5428 550.5631,-453.1322 596.8024,-452.7659"/>
<polygon fill="#000000" stroke="#000000" points="596.9079,-456.2653 606.8798,-452.6861 596.8524,-449.2655 596.9079,-456.2653"/>
</g>
<!-- 139748191104192&#45;&gt;139748195414872 -->
<g id="edge2" class="edge">
<title>139748191104192&#45;&gt;139748195414872</title>
<path fill="none" stroke="#000000" d="M1158.2963,-421.9031C1147.0094,-418.368 1133.5044,-414.7513 1121,-413 986.7547,-394.1983 949.949,-392.192 816,-413 793.3432,-416.5196 769.1436,-423.4947 748.288,-430.5853"/>
<polygon fill="#000000" stroke="#000000" points="746.938,-427.3494 738.6502,-433.9496 749.245,-433.9583 746.938,-427.3494"/>
</g>
<!-- 139748191104192&#45;&gt;139748195414760 -->
<g id="edge3" class="edge">
<title>139748191104192&#45;&gt;139748195414760</title>
<path fill="none" stroke="#000000" d="M1210.6078,-436.2059C1218.4554,-437.7413 1227.4974,-439.5104 1236.9658,-441.3629"/>
<polygon fill="#000000" stroke="#000000" points="1236.4691,-444.832 1246.9551,-443.3173 1237.8132,-437.9622 1236.4691,-444.832"/>
</g>
<!-- 139748191103128&#45;&gt;139748195416664 -->
<g id="edge4" class="edge">
<title>139748191103128&#45;&gt;139748195416664</title>
<path fill="none" stroke="#000000" d="M816.0244,-519.6617C730.0039,-515.3942 457.752,-501.8878 285.3821,-493.3365"/>
<polygon fill="#000000" stroke="#000000" points="285.3635,-489.8313 275.2023,-492.8314 285.0166,-496.8227 285.3635,-489.8313"/>
</g>
<!-- 139748191104416&#45;&gt;139748195416328 -->
<g id="edge5" class="edge">
<title>139748191104416&#45;&gt;139748195416328</title>
<path fill="none" stroke="#000000" d="M870.0162,-447.5739C877.6125,-447.1729 886.3905,-446.7096 895.787,-446.2136"/>
<polygon fill="#000000" stroke="#000000" points="895.9779,-449.7085 905.7795,-445.6861 895.6089,-442.7182 895.9779,-449.7085"/>
</g>
<!-- 139748191103800&#45;&gt;139748195415152 -->
<g id="edge6" class="edge">
<title>139748191103800&#45;&gt;139748195415152</title>
<path fill="none" stroke="#000000" d="M720.5733,-153C744.4183,-153 779.3722,-153 805.8332,-153"/>
<polygon fill="#000000" stroke="#000000" points="805.8759,-156.5001 815.8759,-153 805.8759,-149.5001 805.8759,-156.5001"/>
</g>
</g>
</svg>
