<?xml version="1.0" encoding="UTF-8" standalone="no"?>
<!DOCTYPE svg PUBLIC "-//W3C//DTD SVG 1.1//EN"
 "http://www.w3.org/Graphics/SVG/1.1/DTD/svg11.dtd">
<!-- Generated by graphviz version 2.40.1 (20161225.0304)
 -->
<!-- Title: alpha_classic_net_1585321096.7396908 Pages: 1 -->
<svg width="849pt" height="2024pt"
 viewBox="0.00 0.00 849.00 2024.00" xmlns="http://www.w3.org/2000/svg" xmlns:xlink="http://www.w3.org/1999/xlink">
<g id="graph0" class="graph" transform="scale(1 1) rotate(0) translate(4 2020)">
<title>alpha_classic_net_1585321096.7396908</title>
<!-- 140531496718800 -->
<g id="node1" class="node">
<title>140531496718800</title>
<polygon fill="none" stroke="#000000" points="243,-108 32,-108 32,-72 243,-72 243,-108"/>
<text text-anchor="middle" x="137.5" y="-86.3" font-family="Times,serif" font-size="14.00" fill="#000000">FinancialUtils:computeGainPercent</text>
</g>
<!-- 140531496718744 -->
<g id="node2" class="node">
<title>140531496718744</title>
<polygon fill="none" stroke="#000000" points="501,-306 381,-306 381,-270 501,-270 501,-306"/>
<text text-anchor="middle" x="441" y="-284.3" font-family="Times,serif" font-size="14.00" fill="#000000">JSFLoginFilter:init</text>
</g>
<!-- 140531496719808 -->
<g id="node44" class="node">
<title>140531496719808</title>
<ellipse fill="none" stroke="#000000" cx="634" cy="-153" rx="27" ry="27"/>
<text text-anchor="middle" x="634" y="-149.3" font-family="Times,serif" font-size="14.00" fill="#000000">({&#39;new OrdersAlertFilter&#39;, &#39;new JSFLoginFilter&#39;, &#39;OrdersAlertFilter:doFilter&#39;, &#39;OrdersAlertFilter:init&#39;, &#39;JSFLoginFilter:init&#39;, &#39;TradeWebContextListener:contextInitialized&#39;}, {&#39;Root&#39;})</text>
</g>
<!-- 140531496718744&#45;&gt;140531496719808 -->
<g id="edge2" class="edge">
<title>140531496718744&#45;&gt;140531496719808</title>
<path fill="none" stroke="#000000" d="M501.1775,-285.8952C524.7415,-282.5526 550.8863,-275.4736 571,-261 595.6224,-243.282 612.1362,-212.7252 622.0568,-188.6263"/>
<polygon fill="#000000" stroke="#000000" points="625.406,-189.6717 625.7859,-179.0836 618.8861,-187.1238 625.406,-189.6717"/>
</g>
<!-- 140531499174544 -->
<g id="node3" class="node">
<title>140531499174544</title>
<polygon fill="none" stroke="#000000" points="180.5,-234 94.5,-234 94.5,-198 180.5,-198 180.5,-234"/>
<text text-anchor="middle" x="137.5" y="-212.3" font-family="Times,serif" font-size="14.00" fill="#000000">Log:doTrace</text>
</g>
<!-- 140531499174936 -->
<g id="node4" class="node">
<title>140531499174936</title>
<polygon fill="none" stroke="#000000" points="182,-288 93,-288 93,-252 182,-252 182,-288"/>
<text text-anchor="middle" x="137.5" y="-266.3" font-family="Times,serif" font-size="14.00" fill="#000000">Log:getTrace</text>
</g>
<!-- 140531496718688 -->
<g id="node5" class="node">
<title>140531496718688</title>
<polygon fill="none" stroke="#000000" points="167,-342 108,-342 108,-306 167,-306 167,-342"/>
<text text-anchor="middle" x="137.5" y="-320.3" font-family="Times,serif" font-size="14.00" fill="#000000">Log:log</text>
</g>
<!-- 140531499174432 -->
<g id="node6" class="node">
<title>140531499174432</title>
<polygon fill="none" stroke="#000000" points="171.5,-396 103.5,-396 103.5,-360 171.5,-360 171.5,-396"/>
<text text-anchor="middle" x="137.5" y="-374.3" font-family="Times,serif" font-size="14.00" fill="#000000">Log:trace</text>
</g>
<!-- 140531499174712 -->
<g id="node7" class="node">
<title>140531499174712</title>
<polygon fill="none" stroke="#000000" points="228.5,-450 46.5,-450 46.5,-414 228.5,-414 228.5,-450"/>
<text text-anchor="middle" x="137.5" y="-428.3" font-family="Times,serif" font-size="14.00" fill="#000000">Log:trace [overloaded_#0011]</text>
</g>
<!-- 140531499174656 -->
<g id="node8" class="node">
<title>140531499174656</title>
<polygon fill="none" stroke="#000000" points="275,-504 0,-504 0,-468 275,-468 275,-504"/>
<text text-anchor="middle" x="137.5" y="-482.3" font-family="Times,serif" font-size="14.00" fill="#000000">MarketSummaryDataBean:getRandomInstance</text>
</g>
<!-- 140531499174880 -->
<g id="node9" class="node">
<title>140531499174880</title>
<polygon fill="none" stroke="#000000" points="519.5,-252 362.5,-252 362.5,-216 519.5,-216 519.5,-252"/>
<text text-anchor="middle" x="441" y="-230.3" font-family="Times,serif" font-size="14.00" fill="#000000">OrdersAlertFilter:doFilter</text>
</g>
<!-- 140531499174880&#45;&gt;140531496719808 -->
<g id="edge3" class="edge">
<title>140531499174880&#45;&gt;140531496719808</title>
<path fill="none" stroke="#000000" d="M519.7684,-224.2619C537.1966,-220.3164 555.1732,-214.7765 571,-207 584.6291,-200.3033 597.7161,-189.9656 608.3966,-180.1208"/>
<polygon fill="#000000" stroke="#000000" points="610.925,-182.5454 615.7216,-173.0985 606.0808,-177.4923 610.925,-182.5454"/>
</g>
<!-- 140531499174992 -->
<g id="node10" class="node">
<title>140531499174992</title>
<polygon fill="none" stroke="#000000" points="507,-198 375,-198 375,-162 507,-162 507,-198"/>
<text text-anchor="middle" x="441" y="-176.3" font-family="Times,serif" font-size="14.00" fill="#000000">OrdersAlertFilter:init</text>
</g>
<!-- 140531499174992&#45;&gt;140531496719808 -->
<g id="edge4" class="edge">
<title>140531499174992&#45;&gt;140531496719808</title>
<path fill="none" stroke="#000000" d="M507.1496,-170.7459C537.2643,-166.533 571.7693,-161.7058 597.1823,-158.1507"/>
<polygon fill="#000000" stroke="#000000" points="597.7146,-161.6104 607.1333,-156.7586 596.7448,-154.6779 597.7146,-161.6104"/>
</g>
<!-- 140531499175440 -->
<g id="node11" class="node">
<title>140531499175440</title>
<polygon fill="none" stroke="#000000" points="245,-558 30,-558 30,-522 245,-522 245,-558"/>
<text text-anchor="middle" x="137.5" y="-536.3" font-family="Times,serif" font-size="14.00" fill="#000000">QuoteDataBean:getRandomInstance</text>
</g>
<!-- 140531496719192 -->
<g id="node12" class="node">
<title>140531496719192</title>
<polygon fill="none" stroke="#000000" points="751,-171 697,-171 697,-135 751,-135 751,-171"/>
<text text-anchor="middle" x="724" y="-149.3" font-family="Times,serif" font-size="14.00" fill="#000000">Root</text>
</g>
<!-- 140531496719640 -->
<g id="node45" class="node">
<title>140531496719640</title>
<ellipse fill="#ffa500" stroke="#000000" cx="814" cy="-153" rx="27" ry="27"/>
</g>
<!-- 140531496719192&#45;&gt;140531496719640 -->
<g id="edge5" class="edge">
<title>140531496719192&#45;&gt;140531496719640</title>
<path fill="none" stroke="#000000" d="M751.003,-153C759.0277,-153 767.9665,-153 776.5309,-153"/>
<polygon fill="#000000" stroke="#000000" points="776.7051,-156.5001 786.705,-153 776.705,-149.5001 776.7051,-156.5001"/>
</g>
<!-- 140531496718576 -->
<g id="node13" class="node">
<title>140531496718576</title>
<polygon fill="none" stroke="#000000" points="203,-612 72,-612 72,-576 203,-576 203,-612"/>
<text text-anchor="middle" x="137.5" y="-590.3" font-family="Times,serif" font-size="14.00" fill="#000000">TradeAppServlet:init</text>
</g>
<!-- 140531499175104 -->
<g id="node14" class="node">
<title>140531499175104</title>
<polygon fill="none" stroke="#000000" points="229.5,-666 45.5,-666 45.5,-630 229.5,-630 229.5,-666"/>
<text text-anchor="middle" x="137.5" y="-644.3" font-family="Times,serif" font-size="14.00" fill="#000000">TradeAppServlet:performTask</text>
</g>
<!-- 140531499175608 -->
<g id="node15" class="node">
<title>140531499175608</title>
<polygon fill="none" stroke="#000000" points="243.5,-720 31.5,-720 31.5,-684 243.5,-684 243.5,-720"/>
<text text-anchor="middle" x="137.5" y="-698.3" font-family="Times,serif" font-size="14.00" fill="#000000">TradeConfig:getDisplayOrderAlerts</text>
</g>
<!-- 140531499175048 -->
<g id="node16" class="node">
<title>140531499175048</title>
<polygon fill="none" stroke="#000000" points="203.5,-774 71.5,-774 71.5,-738 203.5,-738 203.5,-774"/>
<text text-anchor="middle" x="137.5" y="-752.3" font-family="Times,serif" font-size="14.00" fill="#000000">TradeConfig:getPage</text>
</g>
<!-- 140531496718856 -->
<g id="node17" class="node">
<title>140531496718856</title>
<polygon fill="none" stroke="#000000" points="206,-828 69,-828 69,-792 206,-792 206,-828"/>
<text text-anchor="middle" x="137.5" y="-806.3" font-family="Times,serif" font-size="14.00" fill="#000000">TradeConfig:getTrace</text>
</g>
<!-- 140531496718968 -->
<g id="node18" class="node">
<title>140531496718968</title>
<polygon fill="none" stroke="#000000" points="224,-882 51,-882 51,-846 224,-846 224,-882"/>
<text text-anchor="middle" x="137.5" y="-860.3" font-family="Times,serif" font-size="14.00" fill="#000000">TradeConfig:rndBigDecimal</text>
</g>
<!-- 140531496718464 -->
<g id="node19" class="node">
<title>140531496718464</title>
<polygon fill="none" stroke="#000000" points="205,-936 70,-936 70,-900 205,-900 205,-936"/>
<text text-anchor="middle" x="137.5" y="-914.3" font-family="Times,serif" font-size="14.00" fill="#000000">TradeConfig:rndFloat</text>
</g>
<!-- 140531496718632 -->
<g id="node20" class="node">
<title>140531496718632</title>
<polygon fill="none" stroke="#000000" points="215,-990 60,-990 60,-954 215,-954 215,-990"/>
<text text-anchor="middle" x="137.5" y="-968.3" font-family="Times,serif" font-size="14.00" fill="#000000">TradeConfig:rndQuantity</text>
</g>
<!-- 140531499174600 -->
<g id="node21" class="node">
<title>140531499174600</title>
<polygon fill="none" stroke="#000000" points="212.5,-1044 62.5,-1044 62.5,-1008 212.5,-1008 212.5,-1044"/>
<text text-anchor="middle" x="137.5" y="-1022.3" font-family="Times,serif" font-size="14.00" fill="#000000">TradeConfig:rndSymbol</text>
</g>
<!-- 140531499175160 -->
<g id="node22" class="node">
<title>140531499175160</title>
<polygon fill="none" stroke="#000000" points="223.5,-1098 51.5,-1098 51.5,-1062 223.5,-1062 223.5,-1098"/>
<text text-anchor="middle" x="137.5" y="-1076.3" font-family="Times,serif" font-size="14.00" fill="#000000">TradeConfig:setActionTrace</text>
</g>
<!-- 140531496719024 -->
<g id="node23" class="node">
<title>140531496719024</title>
<polygon fill="none" stroke="#000000" points="243,-1152 32,-1152 32,-1116 243,-1116 243,-1152"/>
<text text-anchor="middle" x="137.5" y="-1130.3" font-family="Times,serif" font-size="14.00" fill="#000000">TradeConfig:setDisplayOrderAlerts</text>
</g>
<!-- 140531496718408 -->
<g id="node24" class="node">
<title>140531496718408</title>
<polygon fill="none" stroke="#000000" points="215,-1206 60,-1206 60,-1170 215,-1170 215,-1206"/>
<text text-anchor="middle" x="137.5" y="-1184.3" font-family="Times,serif" font-size="14.00" fill="#000000">TradeConfig:setLongRun</text>
</g>
<!-- 140531496719080 -->
<g id="node25" class="node">
<title>140531496719080</title>
<polygon fill="none" stroke="#000000" points="236,-1260 39,-1260 39,-1224 236,-1224 236,-1260"/>
<text text-anchor="middle" x="137.5" y="-1238.3" font-family="Times,serif" font-size="14.00" fill="#000000">TradeConfig:setMAX_QUOTES</text>
</g>
<!-- 140531499174768 -->
<g id="node26" class="node">
<title>140531499174768</title>
<polygon fill="none" stroke="#000000" points="230,-1314 45,-1314 45,-1278 230,-1278 230,-1314"/>
<text text-anchor="middle" x="137.5" y="-1292.3" font-family="Times,serif" font-size="14.00" fill="#000000">TradeConfig:setMAX_USERS</text>
</g>
<!-- 140531499175216 -->
<g id="node27" class="node">
<title>140531499175216</title>
<polygon fill="none" stroke="#000000" points="257.5,-1368 17.5,-1368 17.5,-1332 257.5,-1332 257.5,-1368"/>
<text text-anchor="middle" x="137.5" y="-1346.3" font-family="Times,serif" font-size="14.00" fill="#000000">TradeConfig:setMarketSummaryInterval</text>
</g>
<!-- 140531499175720 -->
<g id="node28" class="node">
<title>140531499175720</title>
<polygon fill="none" stroke="#000000" points="251,-1422 24,-1422 24,-1386 251,-1386 251,-1422"/>
<text text-anchor="middle" x="137.5" y="-1400.3" font-family="Times,serif" font-size="14.00" fill="#000000">TradeConfig:setOrderProcessingMode</text>
</g>
<!-- 140531496718520 -->
<g id="node29" class="node">
<title>140531496718520</title>
<polygon fill="none" stroke="#000000" points="260,-1476 15,-1476 15,-1440 260,-1440 260,-1476"/>
<text text-anchor="middle" x="137.5" y="-1454.3" font-family="Times,serif" font-size="14.00" fill="#000000">TradeConfig:setPercentSentToWebsocket</text>
</g>
<!-- 140531499175832 -->
<g id="node30" class="node">
<title>140531499175832</title>
<polygon fill="none" stroke="#000000" points="228.5,-1530 46.5,-1530 46.5,-1494 228.5,-1494 228.5,-1530"/>
<text text-anchor="middle" x="137.5" y="-1508.3" font-family="Times,serif" font-size="14.00" fill="#000000">TradeConfig:setPrimIterations</text>
</g>
<!-- 140531499175664 -->
<g id="node31" class="node">
<title>140531499175664</title>
<polygon fill="none" stroke="#000000" points="261,-1584 14,-1584 14,-1548 261,-1548 261,-1584"/>
<text text-anchor="middle" x="137.5" y="-1562.3" font-family="Times,serif" font-size="14.00" fill="#000000">TradeConfig:setPublishQuotePriceChange</text>
</g>
<!-- 140531499175496 -->
<g id="node32" class="node">
<title>140531499175496</title>
<polygon fill="none" stroke="#000000" points="231.5,-1638 43.5,-1638 43.5,-1602 231.5,-1602 231.5,-1638"/>
<text text-anchor="middle" x="137.5" y="-1616.3" font-family="Times,serif" font-size="14.00" fill="#000000">TradeConfig:setRunTimeMode</text>
</g>
<!-- 140531499175328 -->
<g id="node33" class="node">
<title>140531499175328</title>
<polygon fill="none" stroke="#000000" points="205,-1692 70,-1692 70,-1656 205,-1656 205,-1692"/>
<text text-anchor="middle" x="137.5" y="-1670.3" font-family="Times,serif" font-size="14.00" fill="#000000">TradeConfig:setTrace</text>
</g>
<!-- 140531499174264 -->
<g id="node34" class="node">
<title>140531499174264</title>
<polygon fill="none" stroke="#000000" points="257,-1746 18,-1746 18,-1710 257,-1710 257,-1746"/>
<text text-anchor="middle" x="137.5" y="-1724.3" font-family="Times,serif" font-size="14.00" fill="#000000">TradeConfig:setUseRemoteEJBInterface</text>
</g>
<!-- 140531496719136 -->
<g id="node35" class="node">
<title>140531496719136</title>
<polygon fill="none" stroke="#000000" points="227,-1800 48,-1800 48,-1764 227,-1764 227,-1800"/>
<text text-anchor="middle" x="137.5" y="-1778.3" font-family="Times,serif" font-size="14.00" fill="#000000">TradeConfig:setWebInterface</text>
</g>
<!-- 140531499175552 -->
<g id="node36" class="node">
<title>140531499175552</title>
<polygon fill="none" stroke="#000000" points="248,-1854 27,-1854 27,-1818 248,-1818 248,-1854"/>
<text text-anchor="middle" x="137.5" y="-1832.3" font-family="Times,serif" font-size="14.00" fill="#000000">TradeConfig:useRemoteEJBInterface</text>
</g>
<!-- 140531499175888 -->
<g id="node37" class="node">
<title>140531499175888</title>
<polygon fill="none" stroke="#000000" points="189.5,-1908 85.5,-1908 85.5,-1872 189.5,-1872 189.5,-1908"/>
<text text-anchor="middle" x="137.5" y="-1886.3" font-family="Times,serif" font-size="14.00" fill="#000000">TradeDirect:init</text>
</g>
<!-- 140531499175776 -->
<g id="node38" class="node">
<title>140531499175776</title>
<polygon fill="none" stroke="#000000" points="234.5,-1962 40.5,-1962 40.5,-1926 234.5,-1926 234.5,-1962"/>
<text text-anchor="middle" x="137.5" y="-1940.3" font-family="Times,serif" font-size="14.00" fill="#000000">TradeServletAction:doWelcome</text>
</g>
<!-- 140531499175272 -->
<g id="node39" class="node">
<title>140531499175272</title>
<polygon fill="none" stroke="#000000" points="571,-144 311,-144 311,-108 571,-108 571,-144"/>
<text text-anchor="middle" x="441" y="-122.3" font-family="Times,serif" font-size="14.00" fill="#000000">TradeWebContextListener:contextInitialized</text>
</g>
<!-- 140531499175272&#45;&gt;140531496719808 -->
<g id="edge6" class="edge">
<title>140531499175272&#45;&gt;140531496719808</title>
<path fill="none" stroke="#000000" d="M569.7338,-144.0094C579.5547,-145.3833 588.8724,-146.6868 597.2103,-147.8532"/>
<polygon fill="#000000" stroke="#000000" points="596.8232,-151.3331 607.2117,-149.2524 597.7931,-144.4006 596.8232,-151.3331"/>
</g>
<!-- 140531499174824 -->
<g id="node40" class="node">
<title>140531499174824</title>
<polygon fill="none" stroke="#000000" points="503.5,-90 378.5,-90 378.5,-54 503.5,-54 503.5,-90"/>
<text text-anchor="middle" x="441" y="-68.3" font-family="Times,serif" font-size="14.00" fill="#000000">new JSFLoginFilter</text>
</g>
<!-- 140531499174824&#45;&gt;140531496719808 -->
<g id="edge7" class="edge">
<title>140531499174824&#45;&gt;140531496719808</title>
<path fill="none" stroke="#000000" d="M503.6106,-78.4755C525.7056,-82.4278 550.208,-88.7838 571,-99 584.6291,-105.6967 597.7161,-116.0344 608.3966,-125.8792"/>
<polygon fill="#000000" stroke="#000000" points="606.0808,-128.5077 615.7216,-132.9015 610.925,-123.4546 606.0808,-128.5077"/>
</g>
<!-- 140531499175384 -->
<g id="node41" class="node">
<title>140531499175384</title>
<polygon fill="none" stroke="#000000" points="509.5,-36 372.5,-36 372.5,0 509.5,0 509.5,-36"/>
<text text-anchor="middle" x="441" y="-14.3" font-family="Times,serif" font-size="14.00" fill="#000000">new OrdersAlertFilter</text>
</g>
<!-- 140531499175384&#45;&gt;140531496719808 -->
<g id="edge8" class="edge">
<title>140531499175384&#45;&gt;140531496719808</title>
<path fill="none" stroke="#000000" d="M509.8243,-21.4878C530.9767,-25.2677 553.3187,-32.2767 571,-45 595.6224,-62.718 612.1362,-93.2748 622.0568,-117.3737"/>
<polygon fill="#000000" stroke="#000000" points="618.8861,-118.8762 625.7859,-126.9164 625.406,-116.3283 618.8861,-118.8762"/>
</g>
<!-- 140531496718912 -->
<g id="node42" class="node">
<title>140531496718912</title>
<polygon fill="none" stroke="#000000" points="193,-2016 82,-2016 82,-1980 193,-1980 193,-2016"/>
<text text-anchor="middle" x="137.5" y="-1994.3" font-family="Times,serif" font-size="14.00" fill="#000000">new TradeAction</text>
</g>
<!-- 140531496719248 -->
<g id="node43" class="node">
<title>140531496719248</title>
<ellipse fill="#00ff00" stroke="#000000" cx="137.5" cy="-153" rx="27" ry="27"/>
<text text-anchor="middle" x="137.5" y="-149.3" font-family="Times,serif" font-size="14.00" fill="#000000">1</text>
</g>
<!-- 140531496719248&#45;&gt;140531496718744 -->
<g id="edge9" class="edge">
<title>140531496719248&#45;&gt;140531496718744</title>
<path fill="none" stroke="#000000" d="M164.7395,-153.6505C194.819,-155.7167 243.1902,-163.1919 275,-189 302.783,-211.5411 282.6481,-239.1787 311,-261 327.9541,-274.0489 349.7023,-281.185 370.5398,-284.9805"/>
<polygon fill="#000000" stroke="#000000" points="370.2463,-288.4776 380.671,-286.5866 371.3424,-281.5639 370.2463,-288.4776"/>
</g>
<!-- 140531496719248&#45;&gt;140531499174880 -->
<g id="edge10" class="edge">
<title>140531496719248&#45;&gt;140531499174880</title>
<path fill="none" stroke="#000000" d="M164.1085,-158.248C192.1828,-164.1801 237.4697,-174.8795 275,-189 291.7427,-195.2993 294.1013,-201.1321 311,-207 324.1419,-211.5634 338.3125,-215.4758 352.2964,-218.7904"/>
<polygon fill="#000000" stroke="#000000" points="351.9007,-222.2899 362.4284,-221.0992 353.456,-215.4649 351.9007,-222.2899"/>
</g>
<!-- 140531496719248&#45;&gt;140531499174992 -->
<g id="edge11" class="edge">
<title>140531496719248&#45;&gt;140531499174992</title>
<path fill="none" stroke="#000000" d="M164.4336,-155.3961C208.9129,-159.353 299.2956,-167.3937 364.6557,-173.2083"/>
<polygon fill="#000000" stroke="#000000" points="364.6491,-176.7214 374.9199,-174.1214 365.2694,-169.7489 364.6491,-176.7214"/>
</g>
<!-- 140531496719248&#45;&gt;140531499175272 -->
<g id="edge12" class="edge">
<title>140531496719248&#45;&gt;140531499175272</title>
<path fill="none" stroke="#000000" d="M164.4336,-150.6039C195.5077,-147.8395 248.9859,-143.082 300.6842,-138.4828"/>
<polygon fill="#000000" stroke="#000000" points="301.0008,-141.9685 310.6513,-137.5961 300.3804,-134.9961 301.0008,-141.9685"/>
</g>
<!-- 140531496719248&#45;&gt;140531499174824 -->
<g id="edge13" class="edge">
<title>140531496719248&#45;&gt;140531499174824</title>
<path fill="none" stroke="#000000" d="M164.1085,-147.752C192.1828,-141.8199 237.4697,-131.1205 275,-117 291.7427,-110.7007 294.1013,-104.8679 311,-99 329.1814,-92.6867 349.3316,-87.6195 368.2324,-83.6571"/>
<polygon fill="#000000" stroke="#000000" points="369.1743,-87.0376 378.2833,-81.6269 367.7883,-80.1762 369.1743,-87.0376"/>
</g>
<!-- 140531496719248&#45;&gt;140531499175384 -->
<g id="edge14" class="edge">
<title>140531496719248&#45;&gt;140531499175384</title>
<path fill="none" stroke="#000000" d="M164.7395,-152.3495C194.819,-150.2833 243.1902,-142.8081 275,-117 302.783,-94.4589 282.6481,-66.8213 311,-45 325.7874,-33.6187 344.2218,-26.7356 362.5181,-22.6438"/>
<polygon fill="#000000" stroke="#000000" points="363.2174,-26.0733 372.3475,-20.6982 361.8582,-19.2065 363.2174,-26.0733"/>
</g>
<!-- 140531496719808&#45;&gt;140531496719192 -->
<g id="edge1" class="edge">
<title>140531496719808&#45;&gt;140531496719192</title>
<path fill="none" stroke="#000000" d="M661.003,-153C669.0277,-153 677.9665,-153 686.5309,-153"/>
<polygon fill="#000000" stroke="#000000" points="686.7051,-156.5001 696.705,-153 686.705,-149.5001 686.7051,-156.5001"/>
</g>
</g>
</svg>
