<?xml version="1.0" encoding="UTF-8" standalone="no"?>
<!DOCTYPE svg PUBLIC "-//W3C//DTD SVG 1.1//EN"
 "http://www.w3.org/Graphics/SVG/1.1/DTD/svg11.dtd">
<!-- Generated by graphviz version 2.40.1 (20161225.0304)
 -->
<!-- Title: imdf_net_1585315461.3235748 Pages: 1 -->
<svg width="2044pt" height="1161pt"
 viewBox="0.00 0.00 2044.00 1160.60" xmlns="http://www.w3.org/2000/svg" xmlns:xlink="http://www.w3.org/1999/xlink">
<g id="graph0" class="graph" transform="scale(1 1) rotate(0) translate(4 1156.6)">
<title>imdf_net_1585315461.3235748</title>
<!-- 140178131981984 -->
<g id="node1" class="node">
<title>140178131981984</title>
<polygon fill="none" stroke="#000000" points="563,-1060.6 443,-1060.6 443,-1024.6 563,-1024.6 563,-1060.6"/>
<text text-anchor="middle" x="503" y="-1038.9" font-family="Times,serif" font-size="14.00" fill="#000000">JSFLoginFilter:init</text>
</g>
<!-- 140178132399496 -->
<g id="node39" class="node">
<title>140178132399496</title>
<ellipse fill="none" stroke="#000000" cx="1829" cy="-1050.6" rx="27" ry="27"/>
<text text-anchor="middle" x="1829" y="-1046.9" font-family="Times,serif" font-size="14.00" fill="#000000">p_4</text>
</g>
<!-- 140178131981984&#45;&gt;140178132399496 -->
<g id="edge2" class="edge">
<title>140178131981984&#45;&gt;140178132399496</title>
<path fill="none" stroke="#000000" d="M563.2344,-1045.3419C619.3359,-1047.6577 705.3087,-1050.6 780,-1050.6 780,-1050.6 780,-1050.6 1456,-1050.6 1578.937,-1050.6 1724.6658,-1050.6 1791.7751,-1050.6"/>
<polygon fill="#000000" stroke="#000000" points="1791.8552,-1054.1001 1801.8552,-1050.6 1791.8552,-1047.1001 1791.8552,-1054.1001"/>
</g>
<!-- 140178131936088 -->
<g id="node2" class="node">
<title>140178131936088</title>
<polygon fill="none" stroke="#000000" points="1055,-313.6 969,-313.6 969,-277.6 1055,-277.6 1055,-313.6"/>
<text text-anchor="middle" x="1012" y="-291.9" font-family="Times,serif" font-size="14.00" fill="#000000">Log:doTrace</text>
</g>
<!-- 140178131935528 -->
<g id="node43" class="node">
<title>140178131935528</title>
<ellipse fill="none" stroke="#000000" cx="1240.5" cy="-295.6" rx="27" ry="27"/>
<text text-anchor="middle" x="1240.5" y="-291.9" font-family="Times,serif" font-size="14.00" fill="#000000">p_8</text>
</g>
<!-- 140178131936088&#45;&gt;140178131935528 -->
<g id="edge1" class="edge">
<title>140178131936088&#45;&gt;140178131935528</title>
<path fill="none" stroke="#000000" d="M1055.2477,-295.6C1097.977,-295.6 1162.6587,-295.6 1203.1954,-295.6"/>
<polygon fill="#000000" stroke="#000000" points="1203.2022,-299.1001 1213.2021,-295.6 1203.2021,-292.1001 1203.2022,-299.1001"/>
</g>
<!-- 140178131936424 -->
<g id="node3" class="node">
<title>140178131936424</title>
<polygon fill="none" stroke="#000000" points="1056.5,-259.6 967.5,-259.6 967.5,-223.6 1056.5,-223.6 1056.5,-259.6"/>
<text text-anchor="middle" x="1012" y="-237.9" font-family="Times,serif" font-size="14.00" fill="#000000">Log:getTrace</text>
</g>
<!-- 140178131936424&#45;&gt;140178131935528 -->
<g id="edge10" class="edge">
<title>140178131936424&#45;&gt;140178131935528</title>
<path fill="none" stroke="#000000" d="M1056.6777,-250.1592C1081.8283,-255.1575 1113.7618,-261.8044 1142,-268.6 1162.8003,-273.6056 1185.8742,-279.8905 1204.4579,-285.1368"/>
<polygon fill="#000000" stroke="#000000" points="1203.7012,-288.5603 1214.2773,-287.9299 1205.6164,-281.8274 1203.7012,-288.5603"/>
</g>
<!-- 140178131938496 -->
<g id="node4" class="node">
<title>140178131938496</title>
<polygon fill="none" stroke="#000000" points="1733.5,-228.6 1551.5,-228.6 1551.5,-192.6 1733.5,-192.6 1733.5,-228.6"/>
<text text-anchor="middle" x="1642.5" y="-206.9" font-family="Times,serif" font-size="14.00" fill="#000000">Log:trace [overloaded_#0011]</text>
</g>
<!-- 140178132400056 -->
<g id="node37" class="node">
<title>140178132400056</title>
<ellipse fill="none" stroke="#000000" cx="1829" cy="-480.6" rx="27" ry="27"/>
<text text-anchor="middle" x="1829" y="-476.9" font-family="Times,serif" font-size="14.00" fill="#000000">p_10</text>
</g>
<!-- 140178131938496&#45;&gt;140178132400056 -->
<g id="edge19" class="edge">
<title>140178131938496&#45;&gt;140178132400056</title>
<path fill="none" stroke="#000000" d="M1733.7058,-218.3425C1745.6677,-222.6679 1756.9067,-228.8496 1766,-237.6 1795.3896,-265.8811 1815.481,-382.7068 1824.1601,-443.482"/>
<polygon fill="#000000" stroke="#000000" points="1820.7011,-444.0195 1825.5514,-453.439 1827.6338,-443.0508 1820.7011,-444.0195"/>
</g>
<!-- 140178132398992 -->
<g id="node5" class="node">
<title>140178132398992</title>
<polygon fill="none" stroke="#000000" points="846,-1018.6 714,-1018.6 714,-982.6 846,-982.6 846,-1018.6"/>
<text text-anchor="middle" x="780" y="-996.9" font-family="Times,serif" font-size="14.00" fill="#000000">OrdersAlertFilter:init</text>
</g>
<!-- 140178132398992&#45;&gt;140178132399496 -->
<g id="edge13" class="edge">
<title>140178132398992&#45;&gt;140178132399496</title>
<path fill="none" stroke="#000000" d="M846.3312,-1003.4134C935.8058,-1006.9603 1100.1438,-1012.6 1240.5,-1012.6 1240.5,-1012.6 1240.5,-1012.6 1456,-1012.6 1594.1901,-1012.6 1629.32,-1016.2269 1766,-1036.6 1774.7616,-1037.9059 1784.1204,-1039.7406 1792.8718,-1041.6528"/>
<polygon fill="#000000" stroke="#000000" points="1792.2671,-1045.1045 1802.794,-1043.9061 1793.8174,-1038.2783 1792.2671,-1045.1045"/>
</g>
<!-- 140178132401512 -->
<g id="node6" class="node">
<title>140178132401512</title>
<polygon fill="none" stroke="#000000" points="1946,-1068.6 1892,-1068.6 1892,-1032.6 1946,-1032.6 1946,-1068.6"/>
<text text-anchor="middle" x="1919" y="-1046.9" font-family="Times,serif" font-size="14.00" fill="#000000">Root</text>
</g>
<!-- 140178132401232 -->
<g id="node45" class="node">
<title>140178132401232</title>
<ellipse fill="#ffa500" stroke="#000000" cx="2009" cy="-1050.6" rx="27" ry="27"/>
</g>
<!-- 140178132401512&#45;&gt;140178132401232 -->
<g id="edge8" class="edge">
<title>140178132401512&#45;&gt;140178132401232</title>
<path fill="none" stroke="#000000" d="M1946.003,-1050.6C1954.0277,-1050.6 1962.9665,-1050.6 1971.5309,-1050.6"/>
<polygon fill="#000000" stroke="#000000" points="1971.7051,-1054.1001 1981.705,-1050.6 1971.705,-1047.1001 1971.7051,-1054.1001"/>
</g>
<!-- 140178131936256 -->
<g id="node7" class="node">
<title>140178131936256</title>
<polygon fill="none" stroke="#000000" points="1080.5,-205.6 943.5,-205.6 943.5,-169.6 1080.5,-169.6 1080.5,-205.6"/>
<text text-anchor="middle" x="1012" y="-183.9" font-family="Times,serif" font-size="14.00" fill="#000000">TradeConfig:getTrace</text>
</g>
<!-- 140178131936256&#45;&gt;140178131935528 -->
<g id="edge12" class="edge">
<title>140178131936256&#45;&gt;140178131935528</title>
<path fill="none" stroke="#000000" d="M1080.8193,-195.502C1101.1843,-199.5122 1123.0799,-205.5421 1142,-214.6 1169.6081,-227.8171 1196.124,-250.3817 1214.6758,-268.3431"/>
<polygon fill="#000000" stroke="#000000" points="1212.5519,-271.1659 1222.1189,-275.7184 1217.479,-266.1935 1212.5519,-271.1659"/>
</g>
<!-- 140178131980696 -->
<g id="node8" class="node">
<title>140178131980696</title>
<polygon fill="none" stroke="#000000" points="1728.5,-174.6 1556.5,-174.6 1556.5,-138.6 1728.5,-138.6 1728.5,-174.6"/>
<text text-anchor="middle" x="1642.5" y="-152.9" font-family="Times,serif" font-size="14.00" fill="#000000">TradeConfig:setActionTrace</text>
</g>
<!-- 140178131980696&#45;&gt;140178132400056 -->
<g id="edge22" class="edge">
<title>140178131980696&#45;&gt;140178132400056</title>
<path fill="none" stroke="#000000" d="M1728.7329,-162.1627C1742.6347,-166.5543 1755.7892,-173.3255 1766,-183.6 1802.048,-219.8727 1819.644,-371.7883 1826.0499,-443.2011"/>
<polygon fill="#000000" stroke="#000000" points="1822.5954,-443.877 1826.949,-453.5361 1829.569,-443.2703 1822.5954,-443.877"/>
</g>
<!-- 140178131938328 -->
<g id="node9" class="node">
<title>140178131938328</title>
<polygon fill="none" stroke="#000000" points="1748,-120.6 1537,-120.6 1537,-84.6 1748,-84.6 1748,-120.6"/>
<text text-anchor="middle" x="1642.5" y="-98.9" font-family="Times,serif" font-size="14.00" fill="#000000">TradeConfig:setDisplayOrderAlerts</text>
</g>
<!-- 140178131938328&#45;&gt;140178132400056 -->
<g id="edge24" class="edge">
<title>140178131938328&#45;&gt;140178132400056</title>
<path fill="none" stroke="#000000" d="M1748.0793,-116.0121C1754.6679,-119.6718 1760.7476,-124.146 1766,-129.6 1808.7963,-174.0383 1823.141,-362.0243 1827.3958,-443.1138"/>
<polygon fill="#000000" stroke="#000000" points="1823.9134,-443.5547 1827.9095,-453.367 1830.9046,-443.2043 1823.9134,-443.5547"/>
</g>
<!-- 140178131938160 -->
<g id="node10" class="node">
<title>140178131938160</title>
<polygon fill="none" stroke="#000000" points="1720,-930.6 1565,-930.6 1565,-894.6 1720,-894.6 1720,-930.6"/>
<text text-anchor="middle" x="1642.5" y="-908.9" font-family="Times,serif" font-size="14.00" fill="#000000">TradeConfig:setLongRun</text>
</g>
<!-- 140178131938160&#45;&gt;140178132400056 -->
<g id="edge18" class="edge">
<title>140178131938160&#45;&gt;140178132400056</title>
<path fill="none" stroke="#000000" d="M1720.296,-909.9947C1737.3962,-905.8197 1753.9685,-898.3876 1766,-885.6 1815.6592,-832.8196 1826.1784,-607.6421 1828.4039,-517.8142"/>
<polygon fill="#000000" stroke="#000000" points="1831.9033,-517.8768 1828.6312,-507.8 1824.9051,-517.718 1831.9033,-517.8768"/>
</g>
<!-- 140178131980864 -->
<g id="node11" class="node">
<title>140178131980864</title>
<polygon fill="none" stroke="#000000" points="1741,-876.6 1544,-876.6 1544,-840.6 1741,-840.6 1741,-876.6"/>
<text text-anchor="middle" x="1642.5" y="-854.9" font-family="Times,serif" font-size="14.00" fill="#000000">TradeConfig:setMAX_QUOTES</text>
</g>
<!-- 140178131980864&#45;&gt;140178132400056 -->
<g id="edge16" class="edge">
<title>140178131980864&#45;&gt;140178132400056</title>
<path fill="none" stroke="#000000" d="M1741.0329,-848.7178C1750.3385,-844.5222 1758.9207,-838.9509 1766,-831.6 1808.7963,-787.1616 1823.141,-599.1756 1827.3958,-518.0861"/>
<polygon fill="#000000" stroke="#000000" points="1830.9046,-517.9956 1827.9095,-507.833 1823.9134,-517.6452 1830.9046,-517.9956"/>
</g>
<!-- 140178131938664 -->
<g id="node12" class="node">
<title>140178131938664</title>
<polygon fill="none" stroke="#000000" points="1735,-822.6 1550,-822.6 1550,-786.6 1735,-786.6 1735,-822.6"/>
<text text-anchor="middle" x="1642.5" y="-800.9" font-family="Times,serif" font-size="14.00" fill="#000000">TradeConfig:setMAX_USERS</text>
</g>
<!-- 140178131938664&#45;&gt;140178132400056 -->
<g id="edge20" class="edge">
<title>140178131938664&#45;&gt;140178132400056</title>
<path fill="none" stroke="#000000" d="M1735.3023,-796.756C1746.7457,-792.4025 1757.4137,-786.2398 1766,-777.6 1802.048,-741.3272 1819.644,-589.4116 1826.0499,-517.9988"/>
<polygon fill="#000000" stroke="#000000" points="1829.569,-517.9296 1826.949,-507.6639 1822.5954,-517.3229 1829.569,-517.9296"/>
</g>
<!-- 140178131938832 -->
<g id="node13" class="node">
<title>140178131938832</title>
<polygon fill="none" stroke="#000000" points="1762.5,-768.6 1522.5,-768.6 1522.5,-732.6 1762.5,-732.6 1762.5,-768.6"/>
<text text-anchor="middle" x="1642.5" y="-746.9" font-family="Times,serif" font-size="14.00" fill="#000000">TradeConfig:setMarketSummaryInterval</text>
</g>
<!-- 140178131938832&#45;&gt;140178132400056 -->
<g id="edge23" class="edge">
<title>140178131938832&#45;&gt;140178132400056</title>
<path fill="none" stroke="#000000" d="M1754.6998,-732.5557C1758.7275,-729.9199 1762.5208,-726.9479 1766,-723.6 1795.3896,-695.3189 1815.481,-578.4931 1824.1601,-517.718"/>
<polygon fill="#000000" stroke="#000000" points="1827.6338,-518.1491 1825.5514,-507.761 1820.7011,-517.1804 1827.6338,-518.1491"/>
</g>
<!-- 140178131939280 -->
<g id="node14" class="node">
<title>140178131939280</title>
<polygon fill="none" stroke="#000000" points="1756,-714.6 1529,-714.6 1529,-678.6 1756,-678.6 1756,-714.6"/>
<text text-anchor="middle" x="1642.5" y="-692.9" font-family="Times,serif" font-size="14.00" fill="#000000">TradeConfig:setOrderProcessingMode</text>
</g>
<!-- 140178131939280&#45;&gt;140178132400056 -->
<g id="edge21" class="edge">
<title>140178131939280&#45;&gt;140178132400056</title>
<path fill="none" stroke="#000000" d="M1754.1392,-678.4277C1758.3461,-675.8302 1762.3273,-672.9009 1766,-669.6 1788.8752,-649.0402 1810.373,-565.8277 1821.3666,-516.9383"/>
<polygon fill="#000000" stroke="#000000" points="1824.8088,-517.5815 1823.5498,-507.0617 1817.9738,-516.0706 1824.8088,-517.5815"/>
</g>
<!-- 140178131937992 -->
<g id="node15" class="node">
<title>140178131937992</title>
<polygon fill="none" stroke="#000000" points="1765,-660.6 1520,-660.6 1520,-624.6 1765,-624.6 1765,-660.6"/>
<text text-anchor="middle" x="1642.5" y="-638.9" font-family="Times,serif" font-size="14.00" fill="#000000">TradeConfig:setPercentSentToWebsocket</text>
</g>
<!-- 140178131937992&#45;&gt;140178132400056 -->
<g id="edge25" class="edge">
<title>140178131937992&#45;&gt;140178132400056</title>
<path fill="none" stroke="#000000" d="M1752.522,-624.5347C1757.2747,-621.9221 1761.8011,-618.9589 1766,-615.6 1796.6663,-591.0688 1813.1177,-548.1469 1821.4285,-517.2792"/>
<polygon fill="#000000" stroke="#000000" points="1824.8891,-517.8696 1823.9436,-507.3171 1818.1021,-516.1561 1824.8891,-517.8696"/>
</g>
<!-- 140178131937824 -->
<g id="node16" class="node">
<title>140178131937824</title>
<polygon fill="none" stroke="#000000" points="1733.5,-606.6 1551.5,-606.6 1551.5,-570.6 1733.5,-570.6 1733.5,-606.6"/>
<text text-anchor="middle" x="1642.5" y="-584.9" font-family="Times,serif" font-size="14.00" fill="#000000">TradeConfig:setPrimIterations</text>
</g>
<!-- 140178131937824&#45;&gt;140178132400056 -->
<g id="edge7" class="edge">
<title>140178131937824&#45;&gt;140178132400056</title>
<path fill="none" stroke="#000000" d="M1733.7495,-576.2947C1745.101,-572.5954 1756.1601,-567.8033 1766,-561.6 1784.8651,-549.7068 1800.3443,-530.0773 1811.2383,-513.121"/>
<polygon fill="#000000" stroke="#000000" points="1814.2508,-514.9038 1816.5108,-504.5528 1808.2891,-511.2352 1814.2508,-514.9038"/>
</g>
<!-- 140178131937656 -->
<g id="node17" class="node">
<title>140178131937656</title>
<polygon fill="none" stroke="#000000" points="1766,-552.6 1519,-552.6 1519,-516.6 1766,-516.6 1766,-552.6"/>
<text text-anchor="middle" x="1642.5" y="-530.9" font-family="Times,serif" font-size="14.00" fill="#000000">TradeConfig:setPublishQuotePriceChange</text>
</g>
<!-- 140178131937656&#45;&gt;140178132400056 -->
<g id="edge6" class="edge">
<title>140178131937656&#45;&gt;140178132400056</title>
<path fill="none" stroke="#000000" d="M1734.402,-516.5414C1745.1344,-513.8341 1755.8631,-510.8478 1766,-507.6 1775.6722,-504.501 1785.8979,-500.4672 1795.2328,-496.4663"/>
<polygon fill="#000000" stroke="#000000" points="1796.8375,-499.584 1804.5779,-492.3495 1794.0155,-493.1781 1796.8375,-499.584"/>
</g>
<!-- 140178131939000 -->
<g id="node18" class="node">
<title>140178131939000</title>
<polygon fill="none" stroke="#000000" points="1736.5,-498.6 1548.5,-498.6 1548.5,-462.6 1736.5,-462.6 1736.5,-498.6"/>
<text text-anchor="middle" x="1642.5" y="-476.9" font-family="Times,serif" font-size="14.00" fill="#000000">TradeConfig:setRunTimeMode</text>
</g>
<!-- 140178131939000&#45;&gt;140178132400056 -->
<g id="edge4" class="edge">
<title>140178131939000&#45;&gt;140178132400056</title>
<path fill="none" stroke="#000000" d="M1736.5696,-480.6C1755.9878,-480.6 1775.3586,-480.6 1791.3135,-480.6"/>
<polygon fill="#000000" stroke="#000000" points="1791.7722,-484.1001 1801.7721,-480.6 1791.7721,-477.1001 1791.7722,-484.1001"/>
</g>
<!-- 140178131937488 -->
<g id="node19" class="node">
<title>140178131937488</title>
<polygon fill="none" stroke="#000000" points="1710,-444.6 1575,-444.6 1575,-408.6 1710,-408.6 1710,-444.6"/>
<text text-anchor="middle" x="1642.5" y="-422.9" font-family="Times,serif" font-size="14.00" fill="#000000">TradeConfig:setTrace</text>
</g>
<!-- 140178131937488&#45;&gt;140178132400056 -->
<g id="edge17" class="edge">
<title>140178131937488&#45;&gt;140178132400056</title>
<path fill="none" stroke="#000000" d="M1710.0938,-438.9573C1728.4205,-442.9616 1748.1298,-447.8744 1766,-453.6 1775.6722,-456.6989 1785.8979,-460.7327 1795.2328,-464.7336"/>
<polygon fill="#000000" stroke="#000000" points="1794.0155,-468.0218 1804.5779,-468.8504 1796.8375,-461.6159 1794.0155,-468.0218"/>
</g>
<!-- 140178131939168 -->
<g id="node20" class="node">
<title>140178131939168</title>
<polygon fill="none" stroke="#000000" points="1762,-390.6 1523,-390.6 1523,-354.6 1762,-354.6 1762,-390.6"/>
<text text-anchor="middle" x="1642.5" y="-368.9" font-family="Times,serif" font-size="14.00" fill="#000000">TradeConfig:setUseRemoteEJBInterface</text>
</g>
<!-- 140178131939168&#45;&gt;140178132400056 -->
<g id="edge14" class="edge">
<title>140178131939168&#45;&gt;140178132400056</title>
<path fill="none" stroke="#000000" d="M1748.9045,-390.6325C1754.8668,-393.2339 1760.6159,-396.2056 1766,-399.6 1784.8651,-411.4931 1800.3443,-431.1226 1811.2383,-448.0789"/>
<polygon fill="#000000" stroke="#000000" points="1808.2891,-449.9647 1816.5108,-456.6471 1814.2508,-446.2961 1808.2891,-449.9647"/>
</g>
<!-- 140178131980528 -->
<g id="node21" class="node">
<title>140178131980528</title>
<polygon fill="none" stroke="#000000" points="1732,-336.6 1553,-336.6 1553,-300.6 1732,-300.6 1732,-336.6"/>
<text text-anchor="middle" x="1642.5" y="-314.9" font-family="Times,serif" font-size="14.00" fill="#000000">TradeConfig:setWebInterface</text>
</g>
<!-- 140178131980528&#45;&gt;140178132400056 -->
<g id="edge5" class="edge">
<title>140178131980528&#45;&gt;140178132400056</title>
<path fill="none" stroke="#000000" d="M1732.0154,-327.8C1744.2842,-331.9138 1756.0596,-337.6483 1766,-345.6 1796.6663,-370.1311 1813.1177,-413.053 1821.4285,-443.9207"/>
<polygon fill="#000000" stroke="#000000" points="1818.1021,-445.0438 1823.9436,-453.8828 1824.8891,-443.3303 1818.1021,-445.0438"/>
</g>
<!-- 140178131935920 -->
<g id="node22" class="node">
<title>140178131935920</title>
<polygon fill="none" stroke="#000000" points="1064,-421.6 960,-421.6 960,-385.6 1064,-385.6 1064,-421.6"/>
<text text-anchor="middle" x="1012" y="-399.9" font-family="Times,serif" font-size="14.00" fill="#000000">TradeDirect:init</text>
</g>
<!-- 140178131935920&#45;&gt;140178131935528 -->
<g id="edge9" class="edge">
<title>140178131935920&#45;&gt;140178131935528</title>
<path fill="none" stroke="#000000" d="M1064.1589,-398.6155C1088.6795,-394.8294 1117.7782,-388.196 1142,-376.6 1169.6081,-363.3828 1196.124,-340.8182 1214.6758,-322.8568"/>
<polygon fill="#000000" stroke="#000000" points="1217.479,-325.0064 1222.1189,-315.4816 1212.5519,-320.034 1217.479,-325.0064"/>
</g>
<!-- 140178131935752 -->
<g id="node23" class="node">
<title>140178131935752</title>
<polygon fill="none" stroke="#000000" points="1142,-367.6 882,-367.6 882,-331.6 1142,-331.6 1142,-367.6"/>
<text text-anchor="middle" x="1012" y="-345.9" font-family="Times,serif" font-size="14.00" fill="#000000">TradeWebContextListener:contextInitialized</text>
</g>
<!-- 140178131935752&#45;&gt;140178131935528 -->
<g id="edge15" class="edge">
<title>140178131935752&#45;&gt;140178131935528</title>
<path fill="none" stroke="#000000" d="M1102.3781,-331.5924C1115.6949,-328.7179 1129.2256,-325.6741 1142,-322.6 1162.8003,-317.5943 1185.8742,-311.3095 1204.4579,-306.0631"/>
<polygon fill="#000000" stroke="#000000" points="1205.6164,-309.3725 1214.2773,-303.2701 1203.7012,-302.6396 1205.6164,-309.3725"/>
</g>
<!-- 140178131981648 -->
<g id="node24" class="node">
<title>140178131981648</title>
<polygon fill="none" stroke="#000000" points="1303,-1152.6 1178,-1152.6 1178,-1116.6 1303,-1116.6 1303,-1152.6"/>
<text text-anchor="middle" x="1240.5" y="-1130.9" font-family="Times,serif" font-size="14.00" fill="#000000">new JSFLoginFilter</text>
</g>
<!-- 140178131981648&#45;&gt;140178132399496 -->
<g id="edge11" class="edge">
<title>140178131981648&#45;&gt;140178132399496</title>
<path fill="none" stroke="#000000" d="M1303.0405,-1142.8884C1404.3059,-1153.7028 1608.6842,-1164.6014 1766,-1102.6 1779.9086,-1097.1183 1793.0449,-1087.334 1803.6867,-1077.7201"/>
<polygon fill="#000000" stroke="#000000" points="1806.122,-1080.2342 1810.97,-1070.8136 1801.3054,-1075.1547 1806.122,-1080.2342"/>
</g>
<!-- 140178131981816 -->
<g id="node25" class="node">
<title>140178131981816</title>
<polygon fill="none" stroke="#000000" points="407,-1106.6 270,-1106.6 270,-1070.6 407,-1070.6 407,-1106.6"/>
<text text-anchor="middle" x="338.5" y="-1084.9" font-family="Times,serif" font-size="14.00" fill="#000000">new OrdersAlertFilter</text>
</g>
<!-- 140178131981816&#45;&gt;140178132399496 -->
<g id="edge3" class="edge">
<title>140178131981816&#45;&gt;140178132399496</title>
<path fill="none" stroke="#000000" d="M407.011,-1088.6C467.8171,-1088.6 559.0729,-1088.6 638.5,-1088.6 638.5,-1088.6 638.5,-1088.6 1456,-1088.6 1594.1901,-1088.6 1629.32,-1084.973 1766,-1064.6 1774.7616,-1063.294 1784.1204,-1061.4593 1792.8718,-1059.5472"/>
<polygon fill="#000000" stroke="#000000" points="1793.8174,-1062.9216 1802.794,-1057.2938 1792.2671,-1056.0954 1793.8174,-1062.9216"/>
</g>
<!-- 140178132401344 -->
<g id="node26" class="node">
<title>140178132401344</title>
<polygon fill="none" stroke="#000000" points="378,-676.6 299,-676.6 299,-640.6 378,-640.6 378,-676.6"/>
<text text-anchor="middle" x="338.5" y="-654.9" font-family="Times,serif" font-size="14.00" fill="#000000">init_loop_2</text>
</g>
<!-- 140178132401400 -->
<g id="node40" class="node">
<title>140178132401400</title>
<ellipse fill="none" stroke="#000000" cx="503" cy="-366.6" rx="27" ry="27"/>
<text text-anchor="middle" x="503" y="-362.9" font-family="Times,serif" font-size="14.00" fill="#000000">p_5</text>
</g>
<!-- 140178132401344&#45;&gt;140178132401400 -->
<g id="edge26" class="edge">
<title>140178132401344&#45;&gt;140178132401400</title>
<path fill="none" stroke="#000000" d="M348.7902,-640.334C375.9531,-592.1179 449.8695,-460.9105 484.5591,-399.3339"/>
<polygon fill="#000000" stroke="#000000" points="487.7208,-400.8525 489.5797,-390.422 481.622,-397.4167 487.7208,-400.8525"/>
</g>
<!-- 140178132400112 -->
<g id="node27" class="node">
<title>140178132400112</title>
<polygon fill="none" stroke="#000000" points="678,-342.6 599,-342.6 599,-306.6 678,-306.6 678,-342.6"/>
<text text-anchor="middle" x="638.5" y="-320.9" font-family="Times,serif" font-size="14.00" fill="#000000">init_loop_4</text>
</g>
<!-- 140178132399888 -->
<g id="node42" class="node">
<title>140178132399888</title>
<ellipse fill="none" stroke="#000000" cx="780" cy="-295.6" rx="27" ry="27"/>
<text text-anchor="middle" x="780" y="-291.9" font-family="Times,serif" font-size="14.00" fill="#000000">p_7</text>
</g>
<!-- 140178132400112&#45;&gt;140178132399888 -->
<g id="edge27" class="edge">
<title>140178132400112&#45;&gt;140178132399888</title>
<path fill="none" stroke="#000000" d="M678.2922,-316.4447C698.7572,-312.2504 723.5269,-307.1739 743.4982,-303.0809"/>
<polygon fill="#000000" stroke="#000000" points="744.3627,-306.4766 753.4563,-301.04 742.9572,-299.6191 744.3627,-306.4766"/>
</g>
<!-- 140178132401120 -->
<g id="node28" class="node">
<title>140178132401120</title>
<polygon fill="none" stroke="#000000" points="1946,-259.6 1892,-259.6 1892,-223.6 1946,-223.6 1946,-259.6"/>
<text text-anchor="middle" x="1919" y="-237.9" font-family="Times,serif" font-size="14.00" fill="#000000">loop_3</text>
</g>
<!-- 140178132401120&#45;&gt;140178132401400 -->
<g id="edge28" class="edge">
<title>140178132401120&#45;&gt;140178132401400</title>
<path fill="none" stroke="#000000" d="M1912.2183,-223.3254C1895.1389,-180.1009 1845.9245,-71.4738 1766,-21.6 1718.8858,7.7999 1698.0347,-2.6 1642.5,-2.6 780,-2.6 780,-2.6 780,-2.6 616.3908,-2.6 536.7143,-238.3589 511.8417,-330.4032"/>
<polygon fill="#000000" stroke="#000000" points="508.4427,-329.5666 509.274,-340.1288 515.2108,-331.3535 508.4427,-329.5666"/>
</g>
<!-- 140178131935416 -->
<g id="node29" class="node">
<title>140178131935416</title>
<polygon fill="none" stroke="#000000" points="1669.5,-66.6 1615.5,-66.6 1615.5,-30.6 1669.5,-30.6 1669.5,-66.6"/>
<text text-anchor="middle" x="1642.5" y="-44.9" font-family="Times,serif" font-size="14.00" fill="#000000">loop_5</text>
</g>
<!-- 140178131935416&#45;&gt;140178132399888 -->
<g id="edge29" class="edge">
<title>140178131935416&#45;&gt;140178132399888</title>
<path fill="none" stroke="#000000" d="M1615.1424,-53.719C1565.6309,-62.5238 1457.778,-79.6 1366,-79.6 1240.5,-79.6 1240.5,-79.6 1240.5,-79.6 1077.1503,-79.6 1019.261,-72.0419 882,-160.6 843.1888,-185.6402 813.5748,-230.8482 796.5012,-262.004"/>
<polygon fill="#000000" stroke="#000000" points="793.2233,-260.7129 791.6089,-271.184 799.4008,-264.0051 793.2233,-260.7129"/>
</g>
<!-- 140178131981200 -->
<g id="node30" class="node">
<title>140178131981200</title>
<polygon fill="none" stroke="#000000" points="1672,-984.6 1613,-984.6 1613,-948.6 1672,-948.6 1672,-984.6"/>
<text text-anchor="middle" x="1642.5" y="-962.9" font-family="Times,serif" font-size="14.00" fill="#000000">skip_10</text>
</g>
<!-- 140178131981200&#45;&gt;140178132399496 -->
<g id="edge64" class="edge">
<title>140178131981200&#45;&gt;140178132399496</title>
<path fill="none" stroke="#000000" d="M1672.2384,-970.5771C1698.0956,-974.8869 1736.0113,-983.2993 1766,-998.6 1778.9861,-1005.2256 1791.7013,-1014.9148 1802.2693,-1024.1389"/>
<polygon fill="#000000" stroke="#000000" points="1800.1374,-1026.93 1809.9011,-1031.0435 1804.8337,-1021.7391 1800.1374,-1026.93"/>
</g>
<!-- 140178131936648 -->
<g id="node31" class="node">
<title>140178131936648</title>
<polygon fill="none" stroke="#000000" points="1393,-233.6 1339,-233.6 1339,-197.6 1393,-197.6 1393,-233.6"/>
<text text-anchor="middle" x="1366" y="-211.9" font-family="Times,serif" font-size="14.00" fill="#000000">skip_6</text>
</g>
<!-- 140178131935640 -->
<g id="node44" class="node">
<title>140178131935640</title>
<ellipse fill="none" stroke="#000000" cx="1456" cy="-174.6" rx="27" ry="27"/>
<text text-anchor="middle" x="1456" y="-170.9" font-family="Times,serif" font-size="14.00" fill="#000000">p_9</text>
</g>
<!-- 140178131936648&#45;&gt;140178131935640 -->
<g id="edge65" class="edge">
<title>140178131936648&#45;&gt;140178131935640</title>
<path fill="none" stroke="#000000" d="M1393.003,-203.2986C1402.0899,-199.159 1412.3491,-194.4854 1421.9092,-190.1302"/>
<polygon fill="#000000" stroke="#000000" points="1423.5178,-193.2435 1431.167,-185.9128 1420.6158,-186.8734 1423.5178,-193.2435"/>
</g>
<!-- 140178131936872 -->
<g id="node32" class="node">
<title>140178131936872</title>
<polygon fill="none" stroke="#000000" points="1393,-368.6 1339,-368.6 1339,-332.6 1393,-332.6 1393,-368.6"/>
<text text-anchor="middle" x="1366" y="-346.9" font-family="Times,serif" font-size="14.00" fill="#000000">skip_7</text>
</g>
<!-- 140178132398824 -->
<g id="node41" class="node">
<title>140178132398824</title>
<ellipse fill="none" stroke="#000000" cx="1456" cy="-480.6" rx="27" ry="27"/>
<text text-anchor="middle" x="1456" y="-476.9" font-family="Times,serif" font-size="14.00" fill="#000000">p_6</text>
</g>
<!-- 140178131936872&#45;&gt;140178132398824 -->
<g id="edge66" class="edge">
<title>140178131936872&#45;&gt;140178132398824</title>
<path fill="none" stroke="#000000" d="M1378.5141,-368.6759C1393.0312,-389.6451 1417.2067,-424.5652 1434.6982,-449.8307"/>
<polygon fill="#000000" stroke="#000000" points="1432.0098,-452.0964 1440.5796,-458.3261 1437.7651,-448.1119 1432.0098,-452.0964"/>
</g>
<!-- 140178131937152 -->
<g id="node33" class="node">
<title>140178131937152</title>
<polygon fill="none" stroke="#000000" points="665.5,-425.6 611.5,-425.6 611.5,-389.6 665.5,-389.6 665.5,-425.6"/>
<text text-anchor="middle" x="638.5" y="-403.9" font-family="Times,serif" font-size="14.00" fill="#000000">skip_8</text>
</g>
<!-- 140178131937152&#45;&gt;140178132398824 -->
<g id="edge67" class="edge">
<title>140178131937152&#45;&gt;140178132398824</title>
<path fill="none" stroke="#000000" d="M665.9185,-414.8284C727.386,-430.3763 881.0863,-465.6 1012,-465.6 1012,-465.6 1012,-465.6 1240.5,-465.6 1303.3843,-465.6 1376.3419,-472.0349 1419.1999,-476.4753"/>
<polygon fill="#000000" stroke="#000000" points="1418.8523,-479.958 1429.1647,-477.5283 1419.5879,-472.9968 1418.8523,-479.958"/>
</g>
<!-- 140178131981032 -->
<g id="node34" class="node">
<title>140178131981032</title>
<polygon fill="none" stroke="#000000" points="1669.5,-282.6 1615.5,-282.6 1615.5,-246.6 1669.5,-246.6 1669.5,-282.6"/>
<text text-anchor="middle" x="1642.5" y="-260.9" font-family="Times,serif" font-size="14.00" fill="#000000">skip_9</text>
</g>
<!-- 140178131981032&#45;&gt;140178132400056 -->
<g id="edge68" class="edge">
<title>140178131981032&#45;&gt;140178132400056</title>
<path fill="none" stroke="#000000" d="M1669.5292,-263.2342C1697.1246,-263.3338 1739.5563,-267.8329 1766,-291.6 1788.8752,-312.1598 1810.373,-395.3722 1821.3666,-444.2616"/>
<polygon fill="#000000" stroke="#000000" points="1817.9738,-445.1294 1823.5498,-454.1382 1824.8088,-443.6184 1817.9738,-445.1294"/>
</g>
<!-- 140178132398936 -->
<g id="node35" class="node">
<title>140178132398936</title>
<polygon fill="none" stroke="#000000" points="144,-1060.6 90,-1060.6 90,-1024.6 144,-1024.6 144,-1060.6"/>
<text text-anchor="middle" x="117" y="-1038.9" font-family="Times,serif" font-size="14.00" fill="#000000">tau_1</text>
</g>
<!-- 140178132400224 -->
<g id="node38" class="node">
<title>140178132400224</title>
<ellipse fill="none" stroke="#000000" cx="207" cy="-1042.6" rx="27" ry="27"/>
<text text-anchor="middle" x="207" y="-1038.9" font-family="Times,serif" font-size="14.00" fill="#000000">p_3</text>
</g>
<!-- 140178132398936&#45;&gt;140178132400224 -->
<g id="edge70" class="edge">
<title>140178132398936&#45;&gt;140178132400224</title>
<path fill="none" stroke="#000000" d="M144.003,-1042.6C152.0277,-1042.6 160.9665,-1042.6 169.5309,-1042.6"/>
<polygon fill="#000000" stroke="#000000" points="169.7051,-1046.1001 179.705,-1042.6 169.705,-1039.1001 169.7051,-1046.1001"/>
</g>
<!-- 140178132399552 -->
<g id="node36" class="node">
<title>140178132399552</title>
<ellipse fill="#00ff00" stroke="#000000" cx="27" cy="-1042.6" rx="27" ry="27"/>
<text text-anchor="middle" x="27" y="-1038.9" font-family="Times,serif" font-size="14.00" fill="#000000">1</text>
</g>
<!-- 140178132399552&#45;&gt;140178132398936 -->
<g id="edge69" class="edge">
<title>140178132399552&#45;&gt;140178132398936</title>
<path fill="none" stroke="#000000" d="M54.003,-1042.6C62.0277,-1042.6 70.9665,-1042.6 79.5309,-1042.6"/>
<polygon fill="#000000" stroke="#000000" points="79.7051,-1046.1001 89.705,-1042.6 79.705,-1039.1001 79.7051,-1046.1001"/>
</g>
<!-- 140178132400056&#45;&gt;140178132401120 -->
<g id="edge30" class="edge">
<title>140178132400056&#45;&gt;140178132401120</title>
<path fill="none" stroke="#000000" d="M1838.6316,-455.0228C1855.6571,-409.8106 1890.9297,-316.1423 1908.5329,-269.396"/>
<polygon fill="#000000" stroke="#000000" points="1911.8595,-270.4934 1912.1082,-259.9015 1905.3086,-268.0265 1911.8595,-270.4934"/>
</g>
<!-- 140178132400224&#45;&gt;140178131981984 -->
<g id="edge31" class="edge">
<title>140178132400224&#45;&gt;140178131981984</title>
<path fill="none" stroke="#000000" d="M234.0527,-1042.6C278.5981,-1042.6 368.7819,-1042.6 432.4057,-1042.6"/>
<polygon fill="#000000" stroke="#000000" points="432.7722,-1046.1001 442.7721,-1042.6 432.7721,-1039.1001 432.7722,-1046.1001"/>
</g>
<!-- 140178132400224&#45;&gt;140178132398992 -->
<g id="edge34" class="edge">
<title>140178132400224&#45;&gt;140178132398992</title>
<path fill="none" stroke="#000000" d="M233.8397,-1038.9143C277.5671,-1033.0482 366.9461,-1021.6358 443,-1015.6 532.2655,-1008.5156 635.1181,-1004.5429 703.4838,-1002.4919"/>
<polygon fill="#000000" stroke="#000000" points="703.8402,-1005.9831 713.7332,-1002.1911 703.6348,-998.9861 703.8402,-1005.9831"/>
</g>
<!-- 140178132400224&#45;&gt;140178131981648 -->
<g id="edge33" class="edge">
<title>140178132400224&#45;&gt;140178131981648</title>
<path fill="none" stroke="#000000" d="M220.5132,-1066.3751C231.5009,-1083.2493 248.6575,-1104.7565 270,-1115.6 362.6295,-1162.662 399.1007,-1134.6 503,-1134.6 503,-1134.6 503,-1134.6 780,-1134.6 917.0264,-1134.6 1076.9878,-1134.6 1167.7527,-1134.6"/>
<polygon fill="#000000" stroke="#000000" points="1167.9332,-1138.1001 1177.9332,-1134.6 1167.9332,-1131.1001 1167.9332,-1138.1001"/>
</g>
<!-- 140178132400224&#45;&gt;140178131981816 -->
<g id="edge32" class="edge">
<title>140178132400224&#45;&gt;140178131981816</title>
<path fill="none" stroke="#000000" d="M232.6667,-1051.5784C245.4175,-1056.0388 261.4207,-1061.6368 277.0933,-1067.1193"/>
<polygon fill="#000000" stroke="#000000" points="276.1821,-1070.5084 286.7769,-1070.5067 278.4935,-1063.901 276.1821,-1070.5084"/>
</g>
<!-- 140178132400224&#45;&gt;140178132401344 -->
<g id="edge35" class="edge">
<title>140178132400224&#45;&gt;140178132401344</title>
<path fill="none" stroke="#000000" d="M215.8323,-1016.8084C239.5432,-947.5688 304.4512,-758.0276 328.9602,-686.4575"/>
<polygon fill="#000000" stroke="#000000" points="332.3449,-687.3769 332.2735,-676.7823 325.7224,-685.1091 332.3449,-687.3769"/>
</g>
<!-- 140178132399496&#45;&gt;140178132401512 -->
<g id="edge36" class="edge">
<title>140178132399496&#45;&gt;140178132401512</title>
<path fill="none" stroke="#000000" d="M1856.003,-1050.6C1864.0277,-1050.6 1872.9665,-1050.6 1881.5309,-1050.6"/>
<polygon fill="#000000" stroke="#000000" points="1881.7051,-1054.1001 1891.705,-1050.6 1881.705,-1047.1001 1881.7051,-1054.1001"/>
</g>
<!-- 140178132401400&#45;&gt;140178132400112 -->
<g id="edge37" class="edge">
<title>140178132401400&#45;&gt;140178132400112</title>
<path fill="none" stroke="#000000" d="M528.8055,-358.6012C545.8302,-353.3242 568.6807,-346.2413 589.1188,-339.9063"/>
<polygon fill="#000000" stroke="#000000" points="590.4067,-343.1714 598.9222,-336.8676 588.3342,-336.4853 590.4067,-343.1714"/>
</g>
<!-- 140178132401400&#45;&gt;140178131937152 -->
<g id="edge38" class="edge">
<title>140178132401400&#45;&gt;140178131937152</title>
<path fill="none" stroke="#000000" d="M529.1258,-374.5052C549.6248,-380.7078 578.4244,-389.4221 601.3257,-396.3516"/>
<polygon fill="#000000" stroke="#000000" points="600.474,-399.7506 611.0592,-399.2968 602.5014,-393.0506 600.474,-399.7506"/>
</g>
<!-- 140178132398824&#45;&gt;140178131938496 -->
<g id="edge47" class="edge">
<title>140178132398824&#45;&gt;140178131938496</title>
<path fill="none" stroke="#000000" d="M1459.4486,-453.439C1467.2255,-396.5201 1487.9102,-267.5172 1519,-237.6 1525.6779,-231.1739 1533.513,-226.1332 1541.9418,-222.1956"/>
<polygon fill="#000000" stroke="#000000" points="1543.3814,-225.3879 1551.2942,-218.3425 1540.7149,-218.9157 1543.3814,-225.3879"/>
</g>
<!-- 140178132398824&#45;&gt;140178131980696 -->
<g id="edge50" class="edge">
<title>140178132398824&#45;&gt;140178131980696</title>
<path fill="none" stroke="#000000" d="M1458.051,-453.5361C1463.5981,-387.6901 1481.1014,-221.7348 1519,-183.6 1526.8176,-175.7336 1536.3608,-169.9207 1546.6438,-165.6572"/>
<polygon fill="#000000" stroke="#000000" points="1548.0622,-168.8658 1556.2671,-162.1627 1545.673,-162.2861 1548.0622,-168.8658"/>
</g>
<!-- 140178132398824&#45;&gt;140178131938328 -->
<g id="edge52" class="edge">
<title>140178132398824&#45;&gt;140178131938328</title>
<path fill="none" stroke="#000000" d="M1457.0905,-453.367C1460.6283,-379.194 1474.2822,-176.0335 1519,-129.6 1521.8724,-126.6173 1524.9922,-123.9277 1528.3074,-121.5041"/>
<polygon fill="#000000" stroke="#000000" points="1530.3706,-124.3396 1536.9207,-116.0121 1526.6071,-118.4373 1530.3706,-124.3396"/>
</g>
<!-- 140178132398824&#45;&gt;140178131938160 -->
<g id="edge46" class="edge">
<title>140178132398824&#45;&gt;140178131938160</title>
<path fill="none" stroke="#000000" d="M1456.3688,-507.8C1458.0499,-589.5405 1467.3746,-830.7298 1519,-885.6 1528.6816,-895.89 1541.3035,-902.7122 1554.7747,-907.16"/>
<polygon fill="#000000" stroke="#000000" points="1554.1274,-910.615 1564.704,-909.9947 1556.049,-903.8839 1554.1274,-910.615"/>
</g>
<!-- 140178132398824&#45;&gt;140178131980864 -->
<g id="edge44" class="edge">
<title>140178132398824&#45;&gt;140178131980864</title>
<path fill="none" stroke="#000000" d="M1457.0905,-507.833C1460.6283,-582.0059 1474.2822,-785.1664 1519,-831.6 1523.7564,-836.5389 1529.1913,-840.6744 1535.0681,-844.1291"/>
<polygon fill="#000000" stroke="#000000" points="1533.475,-847.2456 1543.9671,-848.7178 1536.6832,-841.024 1533.475,-847.2456"/>
</g>
<!-- 140178132398824&#45;&gt;140178131938664 -->
<g id="edge48" class="edge">
<title>140178132398824&#45;&gt;140178131938664</title>
<path fill="none" stroke="#000000" d="M1458.051,-507.6639C1463.5981,-573.5098 1481.1014,-739.4652 1519,-777.6 1525.2385,-783.8773 1532.5759,-788.8471 1540.5112,-792.7653"/>
<polygon fill="#000000" stroke="#000000" points="1539.1312,-795.9818 1549.6977,-796.756 1541.9203,-789.5614 1539.1312,-795.9818"/>
</g>
<!-- 140178132398824&#45;&gt;140178131938832 -->
<g id="edge51" class="edge">
<title>140178132398824&#45;&gt;140178131938832</title>
<path fill="none" stroke="#000000" d="M1459.4486,-507.761C1467.2255,-564.6798 1487.9102,-693.6828 1519,-723.6 1519.9785,-724.5416 1520.9819,-725.4534 1522.0083,-726.3365"/>
<polygon fill="#000000" stroke="#000000" points="1520.2002,-729.3554 1530.3002,-732.5557 1524.4004,-723.7555 1520.2002,-729.3554"/>
</g>
<!-- 140178132398824&#45;&gt;140178131939280 -->
<g id="edge49" class="edge">
<title>140178132398824&#45;&gt;140178131939280</title>
<path fill="none" stroke="#000000" d="M1461.4502,-507.0617C1471.5758,-553.6729 1494.4977,-647.5777 1519,-669.6 1520.1477,-670.6315 1521.3256,-671.6268 1522.531,-672.587"/>
<polygon fill="#000000" stroke="#000000" points="1520.6637,-675.5522 1530.8608,-678.4277 1524.6825,-669.8208 1520.6637,-675.5522"/>
</g>
<!-- 140178132398824&#45;&gt;140178131937992 -->
<g id="edge53" class="edge">
<title>140178132398824&#45;&gt;140178131937992</title>
<path fill="none" stroke="#000000" d="M1461.0564,-507.3171C1468.3445,-538.2078 1484.8671,-588.2958 1519,-615.6 1520.5746,-616.8595 1522.1953,-618.0635 1523.8566,-619.2142"/>
<polygon fill="#000000" stroke="#000000" points="1522.1299,-622.2614 1532.478,-624.5347 1525.8062,-616.3045 1522.1299,-622.2614"/>
</g>
<!-- 140178132398824&#45;&gt;140178131937824 -->
<g id="edge42" class="edge">
<title>140178132398824&#45;&gt;140178131937824</title>
<path fill="none" stroke="#000000" d="M1468.4892,-504.5528C1479.3621,-522.9989 1496.8465,-547.6337 1519,-561.6 1526.0724,-566.0586 1533.7747,-569.7882 1541.7627,-572.907"/>
<polygon fill="#000000" stroke="#000000" points="1540.6559,-576.2282 1551.2505,-576.2947 1543.0098,-569.6358 1540.6559,-576.2282"/>
</g>
<!-- 140178132398824&#45;&gt;140178131937656 -->
<g id="edge41" class="edge">
<title>140178132398824&#45;&gt;140178131937656</title>
<path fill="none" stroke="#000000" d="M1480.4221,-492.3495C1491.9312,-497.5519 1505.968,-503.4245 1519,-507.6 1526.0483,-509.8582 1533.3827,-511.9901 1540.8056,-513.9896"/>
<polygon fill="#000000" stroke="#000000" points="1540.0385,-517.4065 1550.598,-516.5414 1541.8038,-510.6327 1540.0385,-517.4065"/>
</g>
<!-- 140178132398824&#45;&gt;140178131939000 -->
<g id="edge39" class="edge">
<title>140178132398824&#45;&gt;140178131939000</title>
<path fill="none" stroke="#000000" d="M1483.1187,-480.6C1498.1384,-480.6 1517.8741,-480.6 1538.3205,-480.6"/>
<polygon fill="#000000" stroke="#000000" points="1538.3974,-484.1001 1548.3973,-480.6 1538.3973,-477.1001 1538.3974,-484.1001"/>
</g>
<!-- 140178132398824&#45;&gt;140178131937488 -->
<g id="edge45" class="edge">
<title>140178132398824&#45;&gt;140178131937488</title>
<path fill="none" stroke="#000000" d="M1480.4221,-468.8504C1491.9312,-463.648 1505.968,-457.7754 1519,-453.6 1533.6591,-448.9032 1549.5559,-444.7534 1564.9117,-441.2033"/>
<polygon fill="#000000" stroke="#000000" points="1565.9169,-444.5648 1574.9062,-438.9573 1564.3821,-437.7351 1565.9169,-444.5648"/>
</g>
<!-- 140178132398824&#45;&gt;140178131939168 -->
<g id="edge43" class="edge">
<title>140178132398824&#45;&gt;140178131939168</title>
<path fill="none" stroke="#000000" d="M1468.4892,-456.6471C1479.3621,-438.201 1496.8465,-413.5662 1519,-399.6 1521.6079,-397.9558 1524.3015,-396.4109 1527.0634,-394.9591"/>
<polygon fill="#000000" stroke="#000000" points="1528.5889,-398.1092 1536.0955,-390.6325 1525.5648,-391.7962 1528.5889,-398.1092"/>
</g>
<!-- 140178132398824&#45;&gt;140178131980528 -->
<g id="edge40" class="edge">
<title>140178132398824&#45;&gt;140178131980528</title>
<path fill="none" stroke="#000000" d="M1461.0564,-453.8828C1468.3445,-422.9921 1484.8671,-372.9042 1519,-345.6 1526.3776,-339.6983 1534.7661,-335.018 1543.6168,-331.3151"/>
<polygon fill="#000000" stroke="#000000" points="1544.8517,-334.5901 1552.9846,-327.8 1542.3924,-328.0364 1544.8517,-334.5901"/>
</g>
<!-- 140178132398824&#45;&gt;140178131981200 -->
<g id="edge54" class="edge">
<title>140178132398824&#45;&gt;140178131981200</title>
<path fill="none" stroke="#000000" d="M1457.9264,-507.7271C1464.8235,-601.4501 1489.453,-907.6267 1519,-939.6 1540.001,-962.3254 1575.3287,-968.2088 1602.8329,-968.9083"/>
<polygon fill="#000000" stroke="#000000" points="1602.9316,-972.4086 1612.9449,-968.9469 1602.9584,-965.4086 1602.9316,-972.4086"/>
</g>
<!-- 140178132398824&#45;&gt;140178131981032 -->
<g id="edge55" class="edge">
<title>140178132398824&#45;&gt;140178131981032</title>
<path fill="none" stroke="#000000" d="M1461.4502,-454.1382C1471.5758,-407.527 1494.4977,-313.6222 1519,-291.6 1542.3448,-270.6181 1578.15,-264.6529 1605.2077,-263.4744"/>
<polygon fill="#000000" stroke="#000000" points="1605.5555,-266.9673 1615.4708,-263.2342 1605.3916,-259.9693 1605.5555,-266.9673"/>
</g>
<!-- 140178132399888&#45;&gt;140178131936088 -->
<g id="edge56" class="edge">
<title>140178132399888&#45;&gt;140178131936088</title>
<path fill="none" stroke="#000000" d="M807.0674,-295.6C844.1498,-295.6 911.5348,-295.6 958.885,-295.6"/>
<polygon fill="#000000" stroke="#000000" points="958.9646,-299.1001 968.9646,-295.6 958.9645,-292.1001 958.9646,-299.1001"/>
</g>
<!-- 140178132399888&#45;&gt;140178131936424 -->
<g id="edge58" class="edge">
<title>140178132399888&#45;&gt;140178131936424</title>
<path fill="none" stroke="#000000" d="M806.3192,-288.2148C826.8589,-282.553 856.1488,-274.7013 882,-268.6 906.6238,-262.7883 934.0297,-256.9969 957.3056,-252.2767"/>
<polygon fill="#000000" stroke="#000000" points="958.2329,-255.6603 967.3452,-250.255 956.851,-248.7981 958.2329,-255.6603"/>
</g>
<!-- 140178132399888&#45;&gt;140178131936256 -->
<g id="edge59" class="edge">
<title>140178132399888&#45;&gt;140178131936256</title>
<path fill="none" stroke="#000000" d="M798.8106,-276.0927C817.9777,-257.4015 849.4391,-229.848 882,-214.6 897.88,-207.1634 915.8013,-201.7624 933.1485,-197.8438"/>
<polygon fill="#000000" stroke="#000000" points="934.2159,-201.1956 943.2762,-195.7037 932.7686,-194.3468 934.2159,-201.1956"/>
</g>
<!-- 140178132399888&#45;&gt;140178131935920 -->
<g id="edge57" class="edge">
<title>140178132399888&#45;&gt;140178131935920</title>
<path fill="none" stroke="#000000" d="M798.8106,-315.1072C817.9777,-333.7984 849.4391,-361.3519 882,-376.6 903.0899,-386.4762 927.7802,-392.7624 949.9446,-396.7538"/>
<polygon fill="#000000" stroke="#000000" points="949.4868,-400.2259 959.9285,-398.4309 950.6465,-393.3226 949.4868,-400.2259"/>
</g>
<!-- 140178132399888&#45;&gt;140178131935752 -->
<g id="edge60" class="edge">
<title>140178132399888&#45;&gt;140178131935752</title>
<path fill="none" stroke="#000000" d="M806.3192,-302.9851C826.8589,-308.6469 856.1488,-316.4986 882,-322.6 891.7757,-324.9072 901.99,-327.2113 912.2102,-329.4464"/>
<polygon fill="#000000" stroke="#000000" points="911.4823,-332.8698 921.9966,-331.566 912.9642,-326.0284 911.4823,-332.8698"/>
</g>
<!-- 140178131935528&#45;&gt;140178131936648 -->
<g id="edge61" class="edge">
<title>140178131935528&#45;&gt;140178131936648</title>
<path fill="none" stroke="#000000" d="M1263.5186,-280.9267C1282.1769,-269.033 1308.7967,-252.0642 1330.2296,-238.4018"/>
<polygon fill="#000000" stroke="#000000" points="1332.2076,-241.2916 1338.7587,-232.9649 1328.4449,-235.3889 1332.2076,-241.2916"/>
</g>
<!-- 140178131935528&#45;&gt;140178131936872 -->
<g id="edge62" class="edge">
<title>140178131935528&#45;&gt;140178131936872</title>
<path fill="none" stroke="#000000" d="M1265.2948,-306.4662C1283.5485,-314.4659 1308.6662,-325.4736 1329.2496,-334.4942"/>
<polygon fill="#000000" stroke="#000000" points="1328.0787,-337.8024 1338.6426,-338.6107 1330.8884,-331.391 1328.0787,-337.8024"/>
</g>
<!-- 140178131935640&#45;&gt;140178131935416 -->
<g id="edge63" class="edge">
<title>140178131935640&#45;&gt;140178131935416</title>
<path fill="none" stroke="#000000" d="M1465.5919,-148.9728C1475.4769,-126.1594 1493.1114,-93.6806 1519,-75.6 1544.2243,-57.9833 1578.8563,-51.564 1605.0289,-49.3614"/>
<polygon fill="#000000" stroke="#000000" points="1605.5744,-52.8328 1615.3184,-48.6728 1605.107,-45.8484 1605.5744,-52.8328"/>
</g>
</g>
</svg>
