<?xml version="1.0" encoding="UTF-8" standalone="no"?>
<!DOCTYPE svg PUBLIC "-//W3C//DTD SVG 1.1//EN"
 "http://www.w3.org/Graphics/SVG/1.1/DTD/svg11.dtd">
<!-- Generated by graphviz version 2.40.1 (20161225.0304)
 -->
<!-- Title: imdf_net_1585321096.7973554 Pages: 1 -->
<svg width="1153pt" height="2018pt"
 viewBox="0.00 0.00 1153.00 2018.00" xmlns="http://www.w3.org/2000/svg" xmlns:xlink="http://www.w3.org/1999/xlink">
<g id="graph0" class="graph" transform="scale(1 1) rotate(0) translate(4 2014)">
<title>imdf_net_1585321096.7973554</title>
<!-- 140531499136896 -->
<g id="node1" class="node">
<title>140531499136896</title>
<polygon fill="none" stroke="#000000" points="211,-954 0,-954 0,-918 211,-918 211,-954"/>
<text text-anchor="middle" x="105.5" y="-932.3" font-family="Times,serif" font-size="14.00" fill="#000000">FinancialUtils:computeGainPercent</text>
</g>
<!-- 140531500774064 -->
<g id="node52" class="node">
<title>140531500774064</title>
<ellipse fill="none" stroke="#000000" cx="274" cy="-983" rx="27" ry="27"/>
<text text-anchor="middle" x="274" y="-979.3" font-family="Times,serif" font-size="14.00" fill="#000000">p_6</text>
</g>
<!-- 140531499136896&#45;&gt;140531500774064 -->
<g id="edge21" class="edge">
<title>140531499136896&#45;&gt;140531500774064</title>
<path fill="none" stroke="#000000" d="M170.1646,-954.037C193.242,-960.474 218.3949,-967.49 238.1642,-973.0043"/>
<polygon fill="#000000" stroke="#000000" points="237.3994,-976.4245 247.9721,-975.74 239.2801,-969.6818 237.3994,-976.4245"/>
</g>
<!-- 140531499126912 -->
<g id="node2" class="node">
<title>140531499126912</title>
<polygon fill="none" stroke="#000000" points="645.5,-1848 525.5,-1848 525.5,-1812 645.5,-1812 645.5,-1848"/>
<text text-anchor="middle" x="585.5" y="-1826.3" font-family="Times,serif" font-size="14.00" fill="#000000">JSFLoginFilter:init</text>
</g>
<!-- 140531498686000 -->
<g id="node50" class="node">
<title>140531498686000</title>
<ellipse fill="none" stroke="#000000" cx="717" cy="-1911" rx="27" ry="27"/>
<text text-anchor="middle" x="717" y="-1907.3" font-family="Times,serif" font-size="14.00" fill="#000000">p_4</text>
</g>
<!-- 140531499126912&#45;&gt;140531498686000 -->
<g id="edge29" class="edge">
<title>140531499126912&#45;&gt;140531498686000</title>
<path fill="none" stroke="#000000" d="M636.9072,-1848.073C642.813,-1850.7852 648.6343,-1853.7687 654,-1857 666.9094,-1864.7742 679.7881,-1875.2117 690.5056,-1884.8378"/>
<polygon fill="#000000" stroke="#000000" points="688.1731,-1887.4478 697.8972,-1891.654 692.9185,-1882.3018 688.1731,-1887.4478"/>
</g>
<!-- 140531500774288 -->
<g id="node3" class="node">
<title>140531500774288</title>
<polygon fill="none" stroke="#000000" points="960.5,-1764 874.5,-1764 874.5,-1728 960.5,-1728 960.5,-1764"/>
<text text-anchor="middle" x="917.5" y="-1742.3" font-family="Times,serif" font-size="14.00" fill="#000000">Log:doTrace</text>
</g>
<!-- 140531500774288&#45;&gt;140531500774064 -->
<g id="edge27" class="edge">
<title>140531500774288&#45;&gt;140531500774064</title>
<path fill="none" stroke="#000000" d="M874.4926,-1748.5846C844.4255,-1748.0195 805.2811,-1742.1834 780,-1719 737.39,-1679.9256 787.452,-1632.1358 744,-1594 690.4513,-1547.0028 656.7474,-1570 585.5,-1570 454,-1570 454,-1570 454,-1570 395.561,-1570 370.3801,-1557.9675 337,-1510 309.0842,-1469.8847 284.1695,-1134.3145 276.4543,-1020.5486"/>
<polygon fill="#000000" stroke="#000000" points="279.9248,-1019.9914 275.7618,-1010.2487 272.9406,-1020.461 279.9248,-1019.9914"/>
</g>
<!-- 140531500775968 -->
<g id="node4" class="node">
<title>140531500775968</title>
<polygon fill="none" stroke="#000000" points="962,-1710 873,-1710 873,-1674 962,-1674 962,-1710"/>
<text text-anchor="middle" x="917.5" y="-1688.3" font-family="Times,serif" font-size="14.00" fill="#000000">Log:getTrace</text>
</g>
<!-- 140531500775968&#45;&gt;140531500774064 -->
<g id="edge31" class="edge">
<title>140531500775968&#45;&gt;140531500774064</title>
<path fill="none" stroke="#000000" d="M872.8374,-1694.2343C843.1653,-1693.3194 805.1763,-1687.2085 780,-1665 741.7402,-1631.2502 782.9867,-1588.9074 744,-1556 689.5547,-1510.0445 656.7474,-1532 585.5,-1532 454,-1532 454,-1532 454,-1532 395.561,-1532 370.5992,-1519.8143 337,-1472 285.7846,-1399.1164 276.2044,-1121.5118 274.4123,-1020.2492"/>
<polygon fill="#000000" stroke="#000000" points="277.9108,-1020.1201 274.2498,-1010.1779 270.9117,-1020.2331 277.9108,-1020.1201"/>
</g>
<!-- 140531499136728 -->
<g id="node5" class="node">
<title>140531499136728</title>
<polygon fill="none" stroke="#000000" points="947,-1656 888,-1656 888,-1620 947,-1620 947,-1656"/>
<text text-anchor="middle" x="917.5" y="-1634.3" font-family="Times,serif" font-size="14.00" fill="#000000">Log:log</text>
</g>
<!-- 140531499136728&#45;&gt;140531500774064 -->
<g id="edge8" class="edge">
<title>140531499136728&#45;&gt;140531500774064</title>
<path fill="none" stroke="#000000" d="M887.9959,-1639.9894C857.5319,-1640.4308 810.2948,-1636.397 780,-1611 746.0345,-1582.5257 778.5784,-1545.7268 744,-1518 688.4154,-1473.4293 656.7474,-1494 585.5,-1494 454,-1494 454,-1494 454,-1494 395.561,-1494 370.8536,-1481.6345 337,-1434 289.8212,-1367.6161 277.7762,-1115.9747 274.8714,-1020.2593"/>
<polygon fill="#000000" stroke="#000000" points="278.3674,-1020.0657 274.5819,-1010.1703 271.3703,-1020.2666 278.3674,-1020.0657"/>
</g>
<!-- 140531500774456 -->
<g id="node6" class="node">
<title>140531500774456</title>
<polygon fill="none" stroke="#000000" points="951.5,-1602 883.5,-1602 883.5,-1566 951.5,-1566 951.5,-1602"/>
<text text-anchor="middle" x="917.5" y="-1580.3" font-family="Times,serif" font-size="14.00" fill="#000000">Log:trace</text>
</g>
<!-- 140531500774456&#45;&gt;140531500774064 -->
<g id="edge18" class="edge">
<title>140531500774456&#45;&gt;140531500774064</title>
<path fill="none" stroke="#000000" d="M883.4644,-1585.5481C853.2753,-1585.1615 809.5118,-1580.0786 780,-1557 750.2412,-1533.7282 774.2592,-1502.6173 744,-1480 686.9323,-1437.3447 656.7474,-1456 585.5,-1456 454,-1456 454,-1456 454,-1456 395.561,-1456 371.1527,-1443.4205 337,-1396 293.8308,-1336.0601 279.4741,-1110.0515 275.4092,-1020.183"/>
<polygon fill="#000000" stroke="#000000" points="278.9049,-1020.0058 274.9736,-1010.1673 271.9115,-1020.31 278.9049,-1020.0058"/>
</g>
<!-- 140531500775464 -->
<g id="node7" class="node">
<title>140531500775464</title>
<polygon fill="none" stroke="#000000" points="1008.5,-1548 826.5,-1548 826.5,-1512 1008.5,-1512 1008.5,-1548"/>
<text text-anchor="middle" x="917.5" y="-1526.3" font-family="Times,serif" font-size="14.00" fill="#000000">Log:trace [overloaded_#0011]</text>
</g>
<!-- 140531500775464&#45;&gt;140531500774064 -->
<g id="edge33" class="edge">
<title>140531500775464&#45;&gt;140531500774064</title>
<path fill="none" stroke="#000000" d="M826.1582,-1523.2547C809.7718,-1519.0323 793.6035,-1512.6251 780,-1503 754.3017,-1484.8174 770.0888,-1459.6179 744,-1442 684.955,-1402.1266 656.7474,-1418 585.5,-1418 454,-1418 454,-1418 454,-1418 395.561,-1418 371.509,-1405.1618 337,-1358 297.8395,-1304.4812 281.3431,-1104.0018 276.0564,-1020.1917"/>
<polygon fill="#000000" stroke="#000000" points="279.5432,-1019.8664 275.4387,-1010.0989 272.5563,-1020.2941 279.5432,-1019.8664"/>
</g>
<!-- 140531500774792 -->
<g id="node8" class="node">
<title>140531500774792</title>
<polygon fill="none" stroke="#000000" points="1055,-1494 780,-1494 780,-1458 1055,-1458 1055,-1494"/>
<text text-anchor="middle" x="917.5" y="-1472.3" font-family="Times,serif" font-size="14.00" fill="#000000">MarketSummaryDataBean:getRandomInstance</text>
</g>
<!-- 140531500774792&#45;&gt;140531500774064 -->
<g id="edge35" class="edge">
<title>140531500774792&#45;&gt;140531500774064</title>
<path fill="none" stroke="#000000" d="M797.407,-1457.8658C791.3578,-1455.2814 785.5129,-1452.342 780,-1449 758.0977,-1435.7225 766.1866,-1416.7967 744,-1404 682.2825,-1368.4029 656.7474,-1380 585.5,-1380 454,-1380 454,-1380 454,-1380 395.3569,-1380 371.9166,-1366.1152 337,-1319 302.1109,-1271.922 283.5618,-1097.563 276.903,-1020.2858"/>
<polygon fill="#000000" stroke="#000000" points="280.3679,-1019.7207 276.0419,-1010.0493 273.3926,-1020.3075 280.3679,-1019.7207"/>
</g>
<!-- 140531500774960 -->
<g id="node9" class="node">
<title>140531500774960</title>
<polygon fill="none" stroke="#000000" points="996,-1440 839,-1440 839,-1404 996,-1404 996,-1440"/>
<text text-anchor="middle" x="917.5" y="-1418.3" font-family="Times,serif" font-size="14.00" fill="#000000">OrdersAlertFilter:doFilter</text>
</g>
<!-- 140531500774960&#45;&gt;140531500774064 -->
<g id="edge1" class="edge">
<title>140531500774960&#45;&gt;140531500774064</title>
<path fill="none" stroke="#000000" d="M838.705,-1413.2848C818.9394,-1409.2932 798.1924,-1403.4761 780,-1395 761.3765,-1386.3231 762.8083,-1374.2687 744,-1366 678.7773,-1337.326 656.7474,-1342 585.5,-1342 454,-1342 454,-1342 454,-1342 395.3569,-1342 372.456,-1327.7107 337,-1281 306.0576,-1240.2356 285.8897,-1090.7496 277.8927,-1020.2574"/>
<polygon fill="#000000" stroke="#000000" points="281.3416,-1019.603 276.7576,-1010.0512 274.3845,-1020.3768 281.3416,-1019.603"/>
</g>
<!-- 140531500774008 -->
<g id="node10" class="node">
<title>140531500774008</title>
<polygon fill="none" stroke="#000000" points="651.5,-2010 519.5,-2010 519.5,-1974 651.5,-1974 651.5,-2010"/>
<text text-anchor="middle" x="585.5" y="-1988.3" font-family="Times,serif" font-size="14.00" fill="#000000">OrdersAlertFilter:init</text>
</g>
<!-- 140531500774008&#45;&gt;140531498686000 -->
<g id="edge10" class="edge">
<title>140531500774008&#45;&gt;140531498686000</title>
<path fill="none" stroke="#000000" d="M636.9072,-1973.927C642.813,-1971.2148 648.6343,-1968.2313 654,-1965 666.9094,-1957.2258 679.7881,-1946.7883 690.5056,-1937.1622"/>
<polygon fill="#000000" stroke="#000000" points="692.9185,-1939.6982 697.8972,-1930.346 688.1731,-1934.5522 692.9185,-1939.6982"/>
</g>
<!-- 140531500776808 -->
<g id="node11" class="node">
<title>140531500776808</title>
<polygon fill="none" stroke="#000000" points="1025,-1386 810,-1386 810,-1350 1025,-1350 1025,-1386"/>
<text text-anchor="middle" x="917.5" y="-1364.3" font-family="Times,serif" font-size="14.00" fill="#000000">QuoteDataBean:getRandomInstance</text>
</g>
<!-- 140531500776808&#45;&gt;140531500774064 -->
<g id="edge22" class="edge">
<title>140531500776808&#45;&gt;140531500774064</title>
<path fill="none" stroke="#000000" d="M816.4581,-1349.9951C804.1108,-1347.2556 791.7223,-1344.247 780,-1341 763.606,-1336.459 760.4891,-1332.1824 744,-1328 674.9395,-1310.483 656.7474,-1304 585.5,-1304 454,-1304 454,-1304 454,-1304 395.3569,-1304 373.1384,-1289.1847 337,-1243 309.9556,-1208.4374 288.5084,-1083.2185 279.1322,-1020.023"/>
<polygon fill="#000000" stroke="#000000" points="282.5874,-1019.4613 277.6796,-1010.0717 275.6608,-1020.4724 282.5874,-1019.4613"/>
</g>
<!-- 140531500773560 -->
<g id="node12" class="node">
<title>140531500773560</title>
<polygon fill="none" stroke="#000000" points="944.5,-1980 890.5,-1980 890.5,-1944 944.5,-1944 944.5,-1980"/>
<text text-anchor="middle" x="917.5" y="-1958.3" font-family="Times,serif" font-size="14.00" fill="#000000">Root</text>
</g>
<!-- 140531498611376 -->
<g id="node54" class="node">
<title>140531498611376</title>
<ellipse fill="#ffa500" stroke="#000000" cx="1118" cy="-1962" rx="27" ry="27"/>
</g>
<!-- 140531500773560&#45;&gt;140531498611376 -->
<g id="edge13" class="edge">
<title>140531500773560&#45;&gt;140531498611376</title>
<path fill="none" stroke="#000000" d="M944.5403,-1962C979.668,-1962 1041.1644,-1962 1080.7073,-1962"/>
<polygon fill="#000000" stroke="#000000" points="1080.7478,-1965.5001 1090.7477,-1962 1080.7477,-1958.5001 1080.7478,-1965.5001"/>
</g>
<!-- 140531499136392 -->
<g id="node13" class="node">
<title>140531499136392</title>
<polygon fill="none" stroke="#000000" points="983,-1332 852,-1332 852,-1296 983,-1296 983,-1332"/>
<text text-anchor="middle" x="917.5" y="-1310.3" font-family="Times,serif" font-size="14.00" fill="#000000">TradeAppServlet:init</text>
</g>
<!-- 140531499136392&#45;&gt;140531500774064 -->
<g id="edge15" class="edge">
<title>140531499136392&#45;&gt;140531500774064</title>
<path fill="none" stroke="#000000" d="M851.672,-1302.1964C770.1708,-1287.9841 635.9488,-1266 585.5,-1266 454,-1266 454,-1266 454,-1266 395.3569,-1266 374.0273,-1250.4752 337,-1205 313.8296,-1176.5431 291.5595,-1075.1315 280.7663,-1019.75"/>
<polygon fill="#000000" stroke="#000000" points="284.1493,-1018.8076 278.8253,-1009.6476 277.275,-1020.1284 284.1493,-1018.8076"/>
</g>
<!-- 140531500775128 -->
<g id="node14" class="node">
<title>140531500775128</title>
<polygon fill="none" stroke="#000000" points="1009.5,-1278 825.5,-1278 825.5,-1242 1009.5,-1242 1009.5,-1278"/>
<text text-anchor="middle" x="917.5" y="-1256.3" font-family="Times,serif" font-size="14.00" fill="#000000">TradeAppServlet:performTask</text>
</g>
<!-- 140531500775128&#45;&gt;140531500774064 -->
<g id="edge40" class="edge">
<title>140531500775128&#45;&gt;140531500774064</title>
<path fill="none" stroke="#000000" d="M825.4218,-1246.3363C758.9153,-1237.6388 666.8579,-1228 585.5,-1228 454,-1228 454,-1228 454,-1228 395.3569,-1228 375.2274,-1211.4711 337,-1167 300.6554,-1124.7192 284.9856,-1060.4284 278.4404,-1020.1128"/>
<polygon fill="#000000" stroke="#000000" points="281.8909,-1019.5219 276.931,-1010.1598 274.9701,-1020.5716 281.8909,-1019.5219"/>
</g>
<!-- 140531500777312 -->
<g id="node15" class="node">
<title>140531500777312</title>
<polygon fill="none" stroke="#000000" points="1023.5,-1224 811.5,-1224 811.5,-1188 1023.5,-1188 1023.5,-1224"/>
<text text-anchor="middle" x="917.5" y="-1202.3" font-family="Times,serif" font-size="14.00" fill="#000000">TradeConfig:getDisplayOrderAlerts</text>
</g>
<!-- 140531500777312&#45;&gt;140531500774064 -->
<g id="edge36" class="edge">
<title>140531500777312&#45;&gt;140531500774064</title>
<path fill="none" stroke="#000000" d="M811.4043,-1198.2812C746.259,-1194.1897 661.0946,-1190 585.5,-1190 454,-1190 454,-1190 454,-1190 395.561,-1190 376.8735,-1172.7225 337,-1130 307.8533,-1098.7707 290.9857,-1051.9854 282.1653,-1019.6206"/>
<polygon fill="#000000" stroke="#000000" points="285.4793,-1018.4571 279.5789,-1009.6573 278.7039,-1020.216 285.4793,-1018.4571"/>
</g>
<!-- 140531500775800 -->
<g id="node16" class="node">
<title>140531500775800</title>
<polygon fill="none" stroke="#000000" points="983.5,-1170 851.5,-1170 851.5,-1134 983.5,-1134 983.5,-1170"/>
<text text-anchor="middle" x="917.5" y="-1148.3" font-family="Times,serif" font-size="14.00" fill="#000000">TradeConfig:getPage</text>
</g>
<!-- 140531500775800&#45;&gt;140531500774064 -->
<g id="edge12" class="edge">
<title>140531500775800&#45;&gt;140531500774064</title>
<path fill="none" stroke="#000000" d="M851.3594,-1152C784.3542,-1152 677.7222,-1152 585.5,-1152 454,-1152 454,-1152 454,-1152 396.1573,-1152 379.0906,-1134.6757 337,-1095 314.3136,-1073.6152 297.6221,-1042.2029 287.1409,-1018.0832"/>
<polygon fill="#000000" stroke="#000000" points="290.2511,-1016.4488 283.1628,-1008.5743 283.7934,-1019.1504 290.2511,-1016.4488"/>
</g>
<!-- 140531499137064 -->
<g id="node17" class="node">
<title>140531499137064</title>
<polygon fill="none" stroke="#000000" points="986,-1116 849,-1116 849,-1080 986,-1080 986,-1116"/>
<text text-anchor="middle" x="917.5" y="-1094.3" font-family="Times,serif" font-size="14.00" fill="#000000">TradeConfig:getTrace</text>
</g>
<!-- 140531499137064&#45;&gt;140531500774064 -->
<g id="edge7" class="edge">
<title>140531499137064&#45;&gt;140531500774064</title>
<path fill="none" stroke="#000000" d="M848.8747,-1103.239C781.7715,-1107.9053 676.6751,-1114 585.5,-1114 454,-1114 454,-1114 454,-1114 397.2745,-1114 381.9031,-1097.6624 337,-1063 319.8791,-1049.7837 304.7338,-1030.9282 293.586,-1014.8421"/>
<polygon fill="#000000" stroke="#000000" points="296.295,-1012.5976 287.8169,-1006.2436 290.4821,-1016.4977 296.295,-1012.5976"/>
</g>
<!-- 140531499137400 -->
<g id="node18" class="node">
<title>140531499137400</title>
<polygon fill="none" stroke="#000000" points="1004,-1062 831,-1062 831,-1026 1004,-1026 1004,-1062"/>
<text text-anchor="middle" x="917.5" y="-1040.3" font-family="Times,serif" font-size="14.00" fill="#000000">TradeConfig:rndBigDecimal</text>
</g>
<!-- 140531499137400&#45;&gt;140531500774064 -->
<g id="edge39" class="edge">
<title>140531499137400&#45;&gt;140531500774064</title>
<path fill="none" stroke="#000000" d="M830.6918,-1056.9695C763.837,-1065.8398 669.0294,-1076 585.5,-1076 454,-1076 454,-1076 454,-1076 398.8996,-1076 384.9929,-1062.0691 337,-1035 324.3019,-1027.838 311.6433,-1018.0431 301.0401,-1008.8847"/>
<polygon fill="#000000" stroke="#000000" points="303.164,-1006.0898 293.3657,-1002.0595 298.5121,-1011.3204 303.164,-1006.0898"/>
</g>
<!-- 140531499136056 -->
<g id="node19" class="node">
<title>140531499136056</title>
<polygon fill="none" stroke="#000000" points="985,-1008 850,-1008 850,-972 985,-972 985,-1008"/>
<text text-anchor="middle" x="917.5" y="-986.3" font-family="Times,serif" font-size="14.00" fill="#000000">TradeConfig:rndFloat</text>
</g>
<!-- 140531499136056&#45;&gt;140531500774064 -->
<g id="edge24" class="edge">
<title>140531499136056&#45;&gt;140531500774064</title>
<path fill="none" stroke="#000000" d="M849.8997,-1002.1124C768.2383,-1016.332 635.5848,-1038 585.5,-1038 454,-1038 454,-1038 454,-1038 400.984,-1038 342.8679,-1015.9082 307.4111,-999.727"/>
<polygon fill="#000000" stroke="#000000" points="308.5757,-996.4079 298.0345,-995.3431 305.6109,-1002.749 308.5757,-996.4079"/>
</g>
<!-- 140531499136560 -->
<g id="node20" class="node">
<title>140531499136560</title>
<polygon fill="none" stroke="#000000" points="995,-954 840,-954 840,-918 995,-918 995,-954"/>
<text text-anchor="middle" x="917.5" y="-932.3" font-family="Times,serif" font-size="14.00" fill="#000000">TradeConfig:rndQuantity</text>
</g>
<!-- 140531499136560&#45;&gt;140531500774064 -->
<g id="edge30" class="edge">
<title>140531499136560&#45;&gt;140531500774064</title>
<path fill="none" stroke="#000000" d="M839.6985,-933.0665C772.4244,-930.7833 672.56,-928 585.5,-928 454,-928 454,-928 454,-928 400.984,-928 342.8679,-950.0918 307.4111,-966.273"/>
<polygon fill="#000000" stroke="#000000" points="305.6109,-963.251 298.0345,-970.6569 308.5757,-969.5921 305.6109,-963.251"/>
</g>
<!-- 140531500774624 -->
<g id="node21" class="node">
<title>140531500774624</title>
<polygon fill="none" stroke="#000000" points="992.5,-900 842.5,-900 842.5,-864 992.5,-864 992.5,-900"/>
<text text-anchor="middle" x="917.5" y="-878.3" font-family="Times,serif" font-size="14.00" fill="#000000">TradeConfig:rndSymbol</text>
</g>
<!-- 140531500774624&#45;&gt;140531500774064 -->
<g id="edge28" class="edge">
<title>140531500774624&#45;&gt;140531500774064</title>
<path fill="none" stroke="#000000" d="M842.1868,-871.2964C775.0096,-862.6808 673.9021,-852 585.5,-852 454,-852 454,-852 454,-852 386.088,-852 326.6028,-913.7147 295.9702,-952.4258"/>
<polygon fill="#000000" stroke="#000000" points="292.8633,-950.7228 289.5239,-960.7776 298.4047,-954.9999 292.8633,-950.7228"/>
</g>
<!-- 140531500776136 -->
<g id="node22" class="node">
<title>140531500776136</title>
<polygon fill="none" stroke="#000000" points="1003.5,-792 831.5,-792 831.5,-756 1003.5,-756 1003.5,-792"/>
<text text-anchor="middle" x="917.5" y="-770.3" font-family="Times,serif" font-size="14.00" fill="#000000">TradeConfig:setActionTrace</text>
</g>
<!-- 140531500776136&#45;&gt;140531500774064 -->
<g id="edge41" class="edge">
<title>140531500776136&#45;&gt;140531500774064</title>
<path fill="none" stroke="#000000" d="M831.1671,-774.4024C764.1587,-774.6803 668.9327,-775 585.5,-775 454,-775 454,-775 454,-775 397.794,-775 376.4602,-782.975 337,-823 303.6169,-856.8609 287.3866,-910.5236 279.8877,-946.2399"/>
<polygon fill="#000000" stroke="#000000" points="276.4135,-945.7678 277.9142,-956.2559 283.2814,-947.1212 276.4135,-945.7678"/>
</g>
<!-- 140531499137568 -->
<g id="node23" class="node">
<title>140531499137568</title>
<polygon fill="none" stroke="#000000" points="1023,-684 812,-684 812,-648 1023,-648 1023,-684"/>
<text text-anchor="middle" x="917.5" y="-662.3" font-family="Times,serif" font-size="14.00" fill="#000000">TradeConfig:setDisplayOrderAlerts</text>
</g>
<!-- 140531499137568&#45;&gt;140531500774064 -->
<g id="edge5" class="edge">
<title>140531499137568&#45;&gt;140531500774064</title>
<path fill="none" stroke="#000000" d="M811.7771,-673.6954C746.5841,-677.7943 661.2388,-682 585.5,-682 454,-682 454,-682 454,-682 397.0955,-682 373.6672,-690.4841 337,-734 310.042,-765.9932 288.7557,-884.8653 279.3103,-946.0652"/>
<polygon fill="#000000" stroke="#000000" points="275.8306,-945.6677 277.7911,-956.0796 282.7514,-946.7177 275.8306,-945.6677"/>
</g>
<!-- 140531499135888 -->
<g id="node24" class="node">
<title>140531499135888</title>
<polygon fill="none" stroke="#000000" points="995,-630 840,-630 840,-594 995,-594 995,-630"/>
<text text-anchor="middle" x="917.5" y="-608.3" font-family="Times,serif" font-size="14.00" fill="#000000">TradeConfig:setLongRun</text>
</g>
<!-- 140531499135888&#45;&gt;140531500774064 -->
<g id="edge11" class="edge">
<title>140531499135888&#45;&gt;140531500774064</title>
<path fill="none" stroke="#000000" d="M839.7367,-617.867C772.4865,-622.4333 672.6357,-628 585.5,-628 454,-628 454,-628 454,-628 395.7625,-628 372.5554,-640.876 337,-687 305.9554,-727.2724 285.8399,-875.867 277.8745,-945.9537"/>
<polygon fill="#000000" stroke="#000000" points="274.3728,-945.7753 276.744,-956.1014 281.3298,-946.5504 274.3728,-945.7753"/>
</g>
<!-- 140531499137736 -->
<g id="node25" class="node">
<title>140531499137736</title>
<polygon fill="none" stroke="#000000" points="1016,-576 819,-576 819,-540 1016,-540 1016,-576"/>
<text text-anchor="middle" x="917.5" y="-554.3" font-family="Times,serif" font-size="14.00" fill="#000000">TradeConfig:setMAX_QUOTES</text>
</g>
<!-- 140531499137736&#45;&gt;140531500774064 -->
<g id="edge4" class="edge">
<title>140531499137736&#45;&gt;140531500774064</title>
<path fill="none" stroke="#000000" d="M818.8494,-568.8765C752.8806,-575.2266 664.0934,-582 585.5,-582 454,-582 454,-582 454,-582 396.7287,-582 372.0685,-590.7208 337,-636 299.7294,-684.1225 282.3505,-866.803 276.4466,-946.0047"/>
<polygon fill="#000000" stroke="#000000" points="272.9525,-945.7984 275.72,-956.0254 279.9342,-946.3047 272.9525,-945.7984"/>
</g>
<!-- 140531500775632 -->
<g id="node26" class="node">
<title>140531500775632</title>
<polygon fill="none" stroke="#000000" points="1010,-522 825,-522 825,-486 1010,-486 1010,-522"/>
<text text-anchor="middle" x="917.5" y="-500.3" font-family="Times,serif" font-size="14.00" fill="#000000">TradeConfig:setMAX_USERS</text>
</g>
<!-- 140531500775632&#45;&gt;140531500774064 -->
<g id="edge19" class="edge">
<title>140531500775632&#45;&gt;140531500774064</title>
<path fill="none" stroke="#000000" d="M824.8943,-510.8551C758.3338,-515.1977 666.4324,-520 585.5,-520 454,-520 454,-520 454,-520 393.8553,-520 371.0217,-538.4026 337,-588 297.2644,-645.9272 280.9871,-858.9914 275.9074,-945.8112"/>
<polygon fill="#000000" stroke="#000000" points="272.4018,-945.8131 275.3294,-955.9954 279.3905,-946.2099 272.4018,-945.8131"/>
</g>
<!-- 140531500776304 -->
<g id="node27" class="node">
<title>140531500776304</title>
<polygon fill="none" stroke="#000000" points="1037.5,-468 797.5,-468 797.5,-432 1037.5,-432 1037.5,-468"/>
<text text-anchor="middle" x="917.5" y="-446.3" font-family="Times,serif" font-size="14.00" fill="#000000">TradeConfig:setMarketSummaryInterval</text>
</g>
<!-- 140531500776304&#45;&gt;140531500774064 -->
<g id="edge20" class="edge">
<title>140531500776304&#45;&gt;140531500774064</title>
<path fill="none" stroke="#000000" d="M797.2651,-454.2927C734.2157,-456.1905 655.6957,-458 585.5,-458 454,-458 454,-458 454,-458 393.1744,-458 370.4165,-478.1759 337,-529 291.9657,-597.4939 278.6134,-849.7921 275.1166,-945.6836"/>
<polygon fill="#000000" stroke="#000000" points="271.6148,-945.6744 274.7637,-955.7904 278.6106,-945.9187 271.6148,-945.6744"/>
</g>
<!-- 140531499135216 -->
<g id="node28" class="node">
<title>140531499135216</title>
<polygon fill="none" stroke="#000000" points="1031,-414 804,-414 804,-378 1031,-378 1031,-414"/>
<text text-anchor="middle" x="917.5" y="-392.3" font-family="Times,serif" font-size="14.00" fill="#000000">TradeConfig:setOrderProcessingMode</text>
</g>
<!-- 140531499135216&#45;&gt;140531500774064 -->
<g id="edge23" class="edge">
<title>140531499135216&#45;&gt;140531500774064</title>
<path fill="none" stroke="#000000" d="M803.8591,-404.1875C739.7719,-408.124 658.2093,-412 585.5,-412 454,-412 454,-412 454,-412 396.3506,-412 370.6396,-421.183 337,-468 309.1538,-506.7542 284.2394,-834.2439 276.4841,-945.889"/>
<polygon fill="#000000" stroke="#000000" points="272.983,-945.7858 275.7877,-956.0026 279.9665,-946.2667 272.983,-945.7858"/>
</g>
<!-- 140531499136224 -->
<g id="node29" class="node">
<title>140531499136224</title>
<polygon fill="none" stroke="#000000" points="1040,-360 795,-360 795,-324 1040,-324 1040,-360"/>
<text text-anchor="middle" x="917.5" y="-338.3" font-family="Times,serif" font-size="14.00" fill="#000000">TradeConfig:setPercentSentToWebsocket</text>
</g>
<!-- 140531499136224&#45;&gt;140531500774064 -->
<g id="edge9" class="edge">
<title>140531499136224&#45;&gt;140531500774064</title>
<path fill="none" stroke="#000000" d="M794.6259,-352.9363C732.072,-357.6055 654.7921,-362 585.5,-362 454,-362 454,-362 454,-362 396.5411,-362 370.4375,-370.2724 337,-417 306.2122,-460.0247 282.867,-826.768 276.0413,-945.8351"/>
<polygon fill="#000000" stroke="#000000" points="272.5411,-945.741 275.4687,-955.9233 279.5299,-946.1377 272.5411,-945.741"/>
</g>
<!-- 140531499135552 -->
<g id="node30" class="node">
<title>140531499135552</title>
<polygon fill="none" stroke="#000000" points="1008.5,-306 826.5,-306 826.5,-270 1008.5,-270 1008.5,-306"/>
<text text-anchor="middle" x="917.5" y="-284.3" font-family="Times,serif" font-size="14.00" fill="#000000">TradeConfig:setPrimIterations</text>
</g>
<!-- 140531499135552&#45;&gt;140531500774064 -->
<g id="edge34" class="edge">
<title>140531499135552&#45;&gt;140531500774064</title>
<path fill="none" stroke="#000000" d="M826.3649,-297.2981C759.7203,-303.3024 667.0935,-310 585.5,-310 454,-310 454,-310 454,-310 396.1573,-310 370.1214,-319.579 337,-367 303.8034,-414.5287 281.8202,-819.3333 275.7232,-945.5657"/>
<polygon fill="#000000" stroke="#000000" points="272.2119,-945.7218 275.2307,-955.8774 279.2039,-946.0558 272.2119,-945.7218"/>
</g>
<!-- 140531500777424 -->
<g id="node31" class="node">
<title>140531500777424</title>
<polygon fill="none" stroke="#000000" points="1041,-252 794,-252 794,-216 1041,-216 1041,-252"/>
<text text-anchor="middle" x="917.5" y="-230.3" font-family="Times,serif" font-size="14.00" fill="#000000">TradeConfig:setPublishQuotePriceChange</text>
</g>
<!-- 140531500777424&#45;&gt;140531500774064 -->
<g id="edge42" class="edge">
<title>140531500777424&#45;&gt;140531500774064</title>
<path fill="none" stroke="#000000" d="M793.8776,-246.6438C731.4711,-251.9883 654.5436,-257 585.5,-257 454,-257 454,-257 454,-257 395.9613,-257 369.8814,-267.1742 337,-315 301.1379,-367.1613 280.7565,-812.3263 275.4213,-945.5101"/>
<polygon fill="#000000" stroke="#000000" points="271.9191,-945.4995 275.0209,-955.6301 278.9136,-945.7763 271.9191,-945.4995"/>
</g>
<!-- 140531500776976 -->
<g id="node32" class="node">
<title>140531500776976</title>
<polygon fill="none" stroke="#000000" points="1011.5,-198 823.5,-198 823.5,-162 1011.5,-162 1011.5,-198"/>
<text text-anchor="middle" x="917.5" y="-176.3" font-family="Times,serif" font-size="14.00" fill="#000000">TradeConfig:setRunTimeMode</text>
</g>
<!-- 140531500776976&#45;&gt;140531500774064 -->
<g id="edge2" class="edge">
<title>140531500776976&#45;&gt;140531500774064</title>
<path fill="none" stroke="#000000" d="M823.4597,-186.5138C757.0135,-190.5619 665.844,-195 585.5,-195 454,-195 454,-195 454,-195 393.8553,-195 369.2429,-212.2282 337,-263 300.2049,-320.94 280.2855,-805.7913 275.2734,-945.4785"/>
<polygon fill="#000000" stroke="#000000" points="271.7683,-945.5618 274.912,-955.6795 278.764,-945.8097 271.7683,-945.5618"/>
</g>
<!-- 140531500776640 -->
<g id="node33" class="node">
<title>140531500776640</title>
<polygon fill="none" stroke="#000000" points="985,-144 850,-144 850,-108 985,-108 985,-144"/>
<text text-anchor="middle" x="917.5" y="-122.3" font-family="Times,serif" font-size="14.00" fill="#000000">TradeConfig:setTrace</text>
</g>
<!-- 140531500776640&#45;&gt;140531500774064 -->
<g id="edge3" class="edge">
<title>140531500776640&#45;&gt;140531500774064</title>
<path fill="none" stroke="#000000" d="M849.7932,-128.5863C782.7091,-130.9236 677.0283,-134 585.5,-134 454,-134 454,-134 454,-134 393.4038,-134 368.9908,-152.5365 337,-204 297.5594,-267.4479 279.3528,-798.286 275.0358,-945.3568"/>
<polygon fill="#000000" stroke="#000000" points="271.5283,-945.5668 274.7376,-955.6638 278.5254,-945.7692 271.5283,-945.5668"/>
</g>
<!-- 140531500775296 -->
<g id="node34" class="node">
<title>140531500775296</title>
<polygon fill="none" stroke="#000000" points="1037,-90 798,-90 798,-54 1037,-54 1037,-90"/>
<text text-anchor="middle" x="917.5" y="-68.3" font-family="Times,serif" font-size="14.00" fill="#000000">TradeConfig:setUseRemoteEJBInterface</text>
</g>
<!-- 140531500775296&#45;&gt;140531500774064 -->
<g id="edge17" class="edge">
<title>140531500775296&#45;&gt;140531500774064</title>
<path fill="none" stroke="#000000" d="M797.6533,-76.281C734.5382,-78.1831 655.8399,-80 585.5,-80 454,-80 454,-80 454,-80 394.7287,-80 369.1144,-94.1828 337,-144 293.1387,-212.0395 277.9993,-791.3638 274.7283,-945.4736"/>
<polygon fill="#000000" stroke="#000000" points="271.2219,-945.7511 274.5131,-955.8218 278.2204,-945.8968 271.2219,-945.7511"/>
</g>
<!-- 140531499137904 -->
<g id="node35" class="node">
<title>140531499137904</title>
<polygon fill="none" stroke="#000000" points="1007,-36 828,-36 828,0 1007,0 1007,-36"/>
<text text-anchor="middle" x="917.5" y="-14.3" font-family="Times,serif" font-size="14.00" fill="#000000">TradeConfig:setWebInterface</text>
</g>
<!-- 140531499137904&#45;&gt;140531500774064 -->
<g id="edge6" class="edge">
<title>140531499137904&#45;&gt;140531500774064</title>
<path fill="none" stroke="#000000" d="M827.684,-21.3348C760.8937,-23.5299 667.5151,-26 585.5,-26 454,-26 454,-26 454,-26 395.1501,-26 369.0979,-38.6742 337,-88 289.6616,-160.7464 276.998,-785.2162 274.5136,-945.5855"/>
<polygon fill="#000000" stroke="#000000" points="271.0094,-945.8408 274.3582,-955.8925 278.0087,-945.9465 271.0094,-945.8408"/>
</g>
<!-- 140531500777144 -->
<g id="node36" class="node">
<title>140531500777144</title>
<polygon fill="none" stroke="#000000" points="1028,-1926 807,-1926 807,-1890 1028,-1890 1028,-1926"/>
<text text-anchor="middle" x="917.5" y="-1904.3" font-family="Times,serif" font-size="14.00" fill="#000000">TradeConfig:useRemoteEJBInterface</text>
</g>
<!-- 140531500777144&#45;&gt;140531500774064 -->
<g id="edge25" class="edge">
<title>140531500777144&#45;&gt;140531500774064</title>
<path fill="none" stroke="#000000" d="M806.9906,-1893.9244C797.5028,-1890.4752 788.352,-1886.2266 780,-1881 675.6998,-1815.7307 708.5391,-1684 585.5,-1684 454,-1684 454,-1684 454,-1684 395.7625,-1684 369.9207,-1673.0399 337,-1625 302.7093,-1574.9608 281.336,-1149.7778 275.5767,-1020.2794"/>
<polygon fill="#000000" stroke="#000000" points="279.064,-1019.9104 275.1281,-1010.0738 272.0707,-1020.2179 279.064,-1019.9104"/>
</g>
<!-- 140531499135720 -->
<g id="node37" class="node">
<title>140531499135720</title>
<polygon fill="none" stroke="#000000" points="969.5,-846 865.5,-846 865.5,-810 969.5,-810 969.5,-846"/>
<text text-anchor="middle" x="917.5" y="-824.3" font-family="Times,serif" font-size="14.00" fill="#000000">TradeDirect:init</text>
</g>
<!-- 140531499135720&#45;&gt;140531500774064 -->
<g id="edge14" class="edge">
<title>140531499135720&#45;&gt;140531500774064</title>
<path fill="none" stroke="#000000" d="M865.4875,-824.4491C800.1514,-820.3015 684.5828,-814 585.5,-814 454,-814 454,-814 454,-814 396.7287,-814 378.8651,-828.9191 337,-868 313.4945,-889.9423 296.7482,-922.6811 286.4581,-947.6223"/>
<polygon fill="#000000" stroke="#000000" points="283.1329,-946.5129 282.7009,-957.099 289.6402,-949.0929 283.1329,-946.5129"/>
</g>
<!-- 140531499135384 -->
<g id="node38" class="node">
<title>140531499135384</title>
<polygon fill="none" stroke="#000000" points="1014.5,-1872 820.5,-1872 820.5,-1836 1014.5,-1836 1014.5,-1872"/>
<text text-anchor="middle" x="917.5" y="-1850.3" font-family="Times,serif" font-size="14.00" fill="#000000">TradeServletAction:doWelcome</text>
</g>
<!-- 140531499135384&#45;&gt;140531500774064 -->
<g id="edge16" class="edge">
<title>140531499135384&#45;&gt;140531500774064</title>
<path fill="none" stroke="#000000" d="M820.353,-1849.502C805.3658,-1844.9393 791.1814,-1837.8345 780,-1827 728.588,-1777.1828 796.4861,-1718.6841 744,-1670 691.7641,-1621.5479 656.7474,-1646 585.5,-1646 454,-1646 454,-1646 454,-1646 395.7625,-1646 370.0673,-1634.9391 337,-1587 304.7895,-1540.3031 282.2095,-1145.2011 275.834,-1020.5304"/>
<polygon fill="#000000" stroke="#000000" points="279.3191,-1020.1443 275.318,-1010.334 272.328,-1020.4981 279.3191,-1020.1443"/>
</g>
<!-- 140531500776472 -->
<g id="node39" class="node">
<title>140531500776472</title>
<polygon fill="none" stroke="#000000" points="1047.5,-738 787.5,-738 787.5,-702 1047.5,-702 1047.5,-738"/>
<text text-anchor="middle" x="917.5" y="-716.3" font-family="Times,serif" font-size="14.00" fill="#000000">TradeWebContextListener:contextInitialized</text>
</g>
<!-- 140531500776472&#45;&gt;140531500774064 -->
<g id="edge37" class="edge">
<title>140531500776472&#45;&gt;140531500774064</title>
<path fill="none" stroke="#000000" d="M787.4361,-724.5841C726.176,-726.3716 652.0922,-728 585.5,-728 454,-728 454,-728 454,-728 397.0955,-728 374.8097,-737.473 337,-780 295.2339,-826.977 281.1564,-901.3177 276.4118,-945.8064"/>
<polygon fill="#000000" stroke="#000000" points="272.9144,-945.612 275.4412,-955.9011 279.8823,-946.2821 272.9144,-945.612"/>
</g>
<!-- 140531499138800 -->
<g id="node40" class="node">
<title>140531499138800</title>
<polygon fill="none" stroke="#000000" points="648,-1956 523,-1956 523,-1920 648,-1920 648,-1956"/>
<text text-anchor="middle" x="585.5" y="-1934.3" font-family="Times,serif" font-size="14.00" fill="#000000">new JSFLoginFilter</text>
</g>
<!-- 140531499138800&#45;&gt;140531498686000 -->
<g id="edge32" class="edge">
<title>140531499138800&#45;&gt;140531498686000</title>
<path fill="none" stroke="#000000" d="M648.169,-1925.1326C659.1666,-1922.8745 670.2793,-1920.5928 680.273,-1918.5409"/>
<polygon fill="#000000" stroke="#000000" points="681.1388,-1921.9362 690.2305,-1916.4964 679.7309,-1915.0793 681.1388,-1921.9362"/>
</g>
<!-- 140531499138968 -->
<g id="node41" class="node">
<title>140531499138968</title>
<polygon fill="none" stroke="#000000" points="654,-1902 517,-1902 517,-1866 654,-1866 654,-1902"/>
<text text-anchor="middle" x="585.5" y="-1880.3" font-family="Times,serif" font-size="14.00" fill="#000000">new OrdersAlertFilter</text>
</g>
<!-- 140531499138968&#45;&gt;140531498686000 -->
<g id="edge38" class="edge">
<title>140531499138968&#45;&gt;140531498686000</title>
<path fill="none" stroke="#000000" d="M654.331,-1898.1326C663.3319,-1899.9807 672.2555,-1901.8129 680.4254,-1903.4904"/>
<polygon fill="#000000" stroke="#000000" points="679.8201,-1906.939 690.3197,-1905.5219 681.228,-1900.0821 679.8201,-1906.939"/>
</g>
<!-- 140531499137232 -->
<g id="node42" class="node">
<title>140531499137232</title>
<polygon fill="none" stroke="#000000" points="973,-1818 862,-1818 862,-1782 973,-1782 973,-1818"/>
<text text-anchor="middle" x="917.5" y="-1796.3" font-family="Times,serif" font-size="14.00" fill="#000000">new TradeAction</text>
</g>
<!-- 140531499137232&#45;&gt;140531500774064 -->
<g id="edge26" class="edge">
<title>140531499137232&#45;&gt;140531500774064</title>
<path fill="none" stroke="#000000" d="M861.9886,-1802.3334C834.0699,-1800.5355 801.6551,-1793.4734 780,-1773 733.0022,-1728.5667 791.9556,-1675.3978 744,-1632 691.1726,-1584.1934 656.7474,-1608 585.5,-1608 454,-1608 454,-1608 454,-1608 395.7625,-1608 370.233,-1596.8244 337,-1549 306.8095,-1505.554 283.0628,-1139.0939 276.0895,-1020.131"/>
<polygon fill="#000000" stroke="#000000" points="279.5781,-1019.8319 275.5042,-1010.0517 272.5899,-1020.2378 279.5781,-1019.8319"/>
</g>
<!-- 140531500773728 -->
<g id="node43" class="node">
<title>140531500773728</title>
<polygon fill="none" stroke="#000000" points="625,-1794 546,-1794 546,-1758 625,-1758 625,-1794"/>
<text text-anchor="middle" x="585.5" y="-1772.3" font-family="Times,serif" font-size="14.00" fill="#000000">init_loop_2</text>
</g>
<!-- 140531500773616 -->
<g id="node51" class="node">
<title>140531500773616</title>
<ellipse fill="none" stroke="#000000" cx="717" cy="-983" rx="27" ry="27"/>
<text text-anchor="middle" x="717" y="-979.3" font-family="Times,serif" font-size="14.00" fill="#000000">p_5</text>
</g>
<!-- 140531500773728&#45;&gt;140531500773616 -->
<g id="edge43" class="edge">
<title>140531500773728&#45;&gt;140531500773616</title>
<path fill="none" stroke="#000000" d="M588.4936,-1757.9471C605.2604,-1656.8367 687.5938,-1160.3316 710.8638,-1020.0038"/>
<polygon fill="#000000" stroke="#000000" points="714.3769,-1020.2127 712.56,-1009.7748 707.4712,-1019.0675 714.3769,-1020.2127"/>
</g>
<!-- 140531500773952 -->
<g id="node44" class="node">
<title>140531500773952</title>
<polygon fill="none" stroke="#000000" points="612.5,-1001 558.5,-1001 558.5,-965 612.5,-965 612.5,-1001"/>
<text text-anchor="middle" x="585.5" y="-979.3" font-family="Times,serif" font-size="14.00" fill="#000000">loop_3</text>
</g>
<!-- 140531500773952&#45;&gt;140531500773616 -->
<g id="edge44" class="edge">
<title>140531500773952&#45;&gt;140531500773616</title>
<path fill="none" stroke="#000000" d="M612.7469,-983C632.1418,-983 658.4381,-983 679.768,-983"/>
<polygon fill="#000000" stroke="#000000" points="679.7881,-986.5001 689.788,-983 679.788,-979.5001 679.7881,-986.5001"/>
</g>
<!-- 140531499138128 -->
<g id="node45" class="node">
<title>140531499138128</title>
<polygon fill="none" stroke="#000000" points="391,-1001 337,-1001 337,-965 391,-965 391,-1001"/>
<text text-anchor="middle" x="364" y="-979.3" font-family="Times,serif" font-size="14.00" fill="#000000">skip_4</text>
</g>
<!-- 140531500774176 -->
<g id="node53" class="node">
<title>140531500774176</title>
<ellipse fill="none" stroke="#000000" cx="454" cy="-983" rx="27" ry="27"/>
<text text-anchor="middle" x="454" y="-979.3" font-family="Times,serif" font-size="14.00" fill="#000000">p_7</text>
</g>
<!-- 140531499138128&#45;&gt;140531500774176 -->
<g id="edge91" class="edge">
<title>140531499138128&#45;&gt;140531500774176</title>
<path fill="none" stroke="#000000" d="M391.003,-983C399.0277,-983 407.9665,-983 416.5309,-983"/>
<polygon fill="#000000" stroke="#000000" points="416.7051,-986.5001 426.705,-983 416.705,-979.5001 416.7051,-986.5001"/>
</g>
<!-- 140531499138352 -->
<g id="node46" class="node">
<title>140531499138352</title>
<polygon fill="none" stroke="#000000" points="481,-1748 427,-1748 427,-1712 481,-1712 481,-1748"/>
<text text-anchor="middle" x="454" y="-1726.3" font-family="Times,serif" font-size="14.00" fill="#000000">skip_5</text>
</g>
<!-- 140531499138352&#45;&gt;140531498686000 -->
<g id="edge92" class="edge">
<title>140531499138352&#45;&gt;140531498686000</title>
<path fill="none" stroke="#000000" d="M481.093,-1724.3642C522.7617,-1717.3391 603.084,-1710.5091 654,-1749 693.1665,-1778.6087 707.9957,-1836.0187 713.6024,-1873.9314"/>
<polygon fill="#000000" stroke="#000000" points="710.1628,-1874.6176 714.9518,-1884.0683 717.1016,-1873.6939 710.1628,-1874.6176"/>
</g>
<!-- 140531498685384 -->
<g id="node47" class="node">
<title>140531498685384</title>
<polygon fill="none" stroke="#000000" points="391,-1902 337,-1902 337,-1866 391,-1866 391,-1902"/>
<text text-anchor="middle" x="364" y="-1880.3" font-family="Times,serif" font-size="14.00" fill="#000000">tau_1</text>
</g>
<!-- 140531498611712 -->
<g id="node49" class="node">
<title>140531498611712</title>
<ellipse fill="none" stroke="#000000" cx="454" cy="-1884" rx="27" ry="27"/>
<text text-anchor="middle" x="454" y="-1880.3" font-family="Times,serif" font-size="14.00" fill="#000000">p_3</text>
</g>
<!-- 140531498685384&#45;&gt;140531498611712 -->
<g id="edge94" class="edge">
<title>140531498685384&#45;&gt;140531498611712</title>
<path fill="none" stroke="#000000" d="M391.003,-1884C399.0277,-1884 407.9665,-1884 416.5309,-1884"/>
<polygon fill="#000000" stroke="#000000" points="416.7051,-1887.5001 426.705,-1884 416.705,-1880.5001 416.7051,-1887.5001"/>
</g>
<!-- 140531499193960 -->
<g id="node48" class="node">
<title>140531499193960</title>
<ellipse fill="#00ff00" stroke="#000000" cx="274" cy="-1884" rx="27" ry="27"/>
<text text-anchor="middle" x="274" y="-1880.3" font-family="Times,serif" font-size="14.00" fill="#000000">1</text>
</g>
<!-- 140531499193960&#45;&gt;140531498685384 -->
<g id="edge93" class="edge">
<title>140531499193960&#45;&gt;140531498685384</title>
<path fill="none" stroke="#000000" d="M301.003,-1884C309.0277,-1884 317.9665,-1884 326.5309,-1884"/>
<polygon fill="#000000" stroke="#000000" points="326.7051,-1887.5001 336.705,-1884 326.705,-1880.5001 326.7051,-1887.5001"/>
</g>
<!-- 140531498611712&#45;&gt;140531499126912 -->
<g id="edge46" class="edge">
<title>140531498611712&#45;&gt;140531499126912</title>
<path fill="none" stroke="#000000" d="M478.7643,-1873.1874C490.3453,-1868.1821 504.3439,-1862.205 517,-1857 521.1008,-1855.3135 525.3479,-1853.5883 529.6265,-1851.8659"/>
<polygon fill="#000000" stroke="#000000" points="531.0144,-1855.0804 538.9984,-1848.1158 528.4138,-1848.5814 531.0144,-1855.0804"/>
</g>
<!-- 140531498611712&#45;&gt;140531500774008 -->
<g id="edge45" class="edge">
<title>140531498611712&#45;&gt;140531500774008</title>
<path fill="none" stroke="#000000" d="M467.598,-1907.7477C478.8556,-1925.5892 496.3205,-1949.5192 517,-1965 518.7876,-1966.3382 520.6502,-1967.6195 522.5692,-1968.8454"/>
<polygon fill="#000000" stroke="#000000" points="520.8755,-1971.9089 531.2872,-1973.8705 524.3713,-1965.8443 520.8755,-1971.9089"/>
</g>
<!-- 140531498611712&#45;&gt;140531499138800 -->
<g id="edge47" class="edge">
<title>140531498611712&#45;&gt;140531499138800</title>
<path fill="none" stroke="#000000" d="M478.7643,-1894.8126C490.3453,-1899.8179 504.3439,-1905.795 517,-1911 521.1008,-1912.6865 525.3479,-1914.4117 529.6265,-1916.1341"/>
<polygon fill="#000000" stroke="#000000" points="528.4138,-1919.4186 538.9984,-1919.8842 531.0144,-1912.9196 528.4138,-1919.4186"/>
</g>
<!-- 140531498611712&#45;&gt;140531499138968 -->
<g id="edge48" class="edge">
<title>140531498611712&#45;&gt;140531499138968</title>
<path fill="none" stroke="#000000" d="M481.2469,-1884C488.8444,-1884 497.501,-1884 506.5031,-1884"/>
<polygon fill="#000000" stroke="#000000" points="506.7758,-1887.5001 516.7757,-1884 506.7757,-1880.5001 506.7758,-1887.5001"/>
</g>
<!-- 140531498611712&#45;&gt;140531500773728 -->
<g id="edge49" class="edge">
<title>140531498611712&#45;&gt;140531500773728</title>
<path fill="none" stroke="#000000" d="M467.598,-1860.2523C478.8556,-1842.4108 496.3205,-1818.4808 517,-1803 522.9096,-1798.576 529.6389,-1794.774 536.5173,-1791.5385"/>
<polygon fill="#000000" stroke="#000000" points="538.1353,-1794.6522 545.9263,-1787.4723 535.3583,-1788.2265 538.1353,-1794.6522"/>
</g>
<!-- 140531498686000&#45;&gt;140531500773560 -->
<g id="edge50" class="edge">
<title>140531498686000&#45;&gt;140531500773560</title>
<path fill="none" stroke="#000000" d="M742.1098,-1921.691C753.5205,-1926.2556 767.2854,-1931.3585 780,-1935 813.3878,-1944.5624 852.2982,-1951.8563 880.1885,-1956.438"/>
<polygon fill="#000000" stroke="#000000" points="879.8755,-1959.9325 890.3036,-1958.0603 880.9841,-1953.0208 879.8755,-1959.9325"/>
</g>
<!-- 140531500773616&#45;&gt;140531499136896 -->
<g id="edge69" class="edge">
<title>140531500773616&#45;&gt;140531499136896</title>
<path fill="none" stroke="#000000" d="M693.6909,-968.6726C648.959,-942.5853 547.2284,-890 454,-890 364,-890 364,-890 364,-890 301.3939,-890 231.5597,-903.2402 180.2731,-915.514"/>
<polygon fill="#000000" stroke="#000000" points="179.1576,-912.1833 170.2707,-917.9516 180.8151,-918.9842 179.1576,-912.1833"/>
</g>
<!-- 140531500773616&#45;&gt;140531500774288 -->
<g id="edge75" class="edge">
<title>140531500773616&#45;&gt;140531500774288</title>
<path fill="none" stroke="#000000" d="M717.4287,-1010.4013C719.6683,-1137.452 731.832,-1665.2998 780,-1719 800.7789,-1742.1654 835.1232,-1748.9216 864.2881,-1749.8833"/>
<polygon fill="#000000" stroke="#000000" points="864.3177,-1753.3838 874.3573,-1749.9993 864.3983,-1746.3843 864.3177,-1753.3838"/>
</g>
<!-- 140531500773616&#45;&gt;140531500775968 -->
<g id="edge78" class="edge">
<title>140531500773616&#45;&gt;140531500775968</title>
<path fill="none" stroke="#000000" d="M717.6251,-1010.393C720.6415,-1131.5713 735.4212,-1615.6362 780,-1665 800.4026,-1687.5926 833.7119,-1694.5496 862.4355,-1695.7585"/>
<polygon fill="#000000" stroke="#000000" points="862.7111,-1699.2645 872.7781,-1695.9621 862.8489,-1692.2659 862.7111,-1699.2645"/>
</g>
<!-- 140531500773616&#45;&gt;140531499136728 -->
<g id="edge58" class="edge">
<title>140531500773616&#45;&gt;140531499136728</title>
<path fill="none" stroke="#000000" d="M717.8464,-1010.1318C721.6716,-1124.8086 738.9716,-1565.9255 780,-1611 804.2756,-1637.6696 846.5436,-1642.5057 877.826,-1641.8517"/>
<polygon fill="#000000" stroke="#000000" points="878.1208,-1645.3428 887.9718,-1641.4431 877.839,-1638.3485 878.1208,-1645.3428"/>
</g>
<!-- 140531500773616&#45;&gt;140531500774456 -->
<g id="edge66" class="edge">
<title>140531500773616&#45;&gt;140531500774456</title>
<path fill="none" stroke="#000000" d="M718.1253,-1010.3347C722.8465,-1118.9716 742.5674,-1516.2596 780,-1557 803.2168,-1582.2684 842.5933,-1587.8884 873.2732,-1587.8409"/>
<polygon fill="#000000" stroke="#000000" points="873.3849,-1591.3394 883.3083,-1587.6277 873.2362,-1584.341 873.3849,-1591.3394"/>
</g>
<!-- 140531500773616&#45;&gt;140531500775464 -->
<g id="edge79" class="edge">
<title>140531500773616&#45;&gt;140531500775464</title>
<path fill="none" stroke="#000000" d="M718.4437,-1010.1617C724.0981,-1111.9072 746.1084,-1466.5273 780,-1503 789.9567,-1513.7149 802.821,-1520.8861 816.678,-1525.5871"/>
<polygon fill="#000000" stroke="#000000" points="815.8245,-1528.9844 826.4064,-1528.4602 817.8072,-1522.2711 815.8245,-1528.9844"/>
</g>
<!-- 140531500773616&#45;&gt;140531500774792 -->
<g id="edge81" class="edge">
<title>140531500773616&#45;&gt;140531500774792</title>
<path fill="none" stroke="#000000" d="M718.8494,-1010.2333C725.535,-1105.067 749.6636,-1416.8021 780,-1449 780.7716,-1449.8189 781.5601,-1450.6171 782.3648,-1451.3949"/>
<polygon fill="#000000" stroke="#000000" points="780.1215,-1454.0815 790.0194,-1457.8606 784.6386,-1448.7339 780.1215,-1454.0815"/>
</g>
<!-- 140531500773616&#45;&gt;140531500774960 -->
<g id="edge51" class="edge">
<title>140531500773616&#45;&gt;140531500774960</title>
<path fill="none" stroke="#000000" d="M719.3402,-1010.0674C727.1247,-1097.2995 753.1781,-1367.0228 780,-1395 792.9865,-1408.5459 810.6307,-1416.3799 828.9466,-1420.7144"/>
<polygon fill="#000000" stroke="#000000" points="828.3679,-1424.1683 838.864,-1422.7252 829.7589,-1417.3078 828.3679,-1424.1683"/>
</g>
<!-- 140531500773616&#45;&gt;140531500776808 -->
<g id="edge70" class="edge">
<title>140531500773616&#45;&gt;140531500776808</title>
<path fill="none" stroke="#000000" d="M717.9221,-1010.0085C721.0561,-1085.0956 733.8296,-1293.9108 780,-1341 786.0596,-1347.1802 793.0906,-1352.164 800.7061,-1356.1647"/>
<polygon fill="#000000" stroke="#000000" points="799.3466,-1359.3923 809.8913,-1360.4224 802.2905,-1353.0414 799.3466,-1359.3923"/>
</g>
<!-- 140531500773616&#45;&gt;140531499136392 -->
<g id="edge63" class="edge">
<title>140531500773616&#45;&gt;140531499136392</title>
<path fill="none" stroke="#000000" d="M718.867,-1010.2522C724.037,-1077.4124 740.8269,-1248.2341 780,-1287 796.343,-1303.1732 819.3604,-1311.0845 841.8962,-1314.6299"/>
<polygon fill="#000000" stroke="#000000" points="841.4769,-1318.1048 851.8461,-1315.9297 842.3837,-1311.1638 841.4769,-1318.1048"/>
</g>
<!-- 140531500773616&#45;&gt;140531500775128 -->
<g id="edge85" class="edge">
<title>140531500773616&#45;&gt;140531500775128</title>
<path fill="none" stroke="#000000" d="M720.1729,-1010.1047C727.5414,-1068.2868 747.6856,-1202.3533 780,-1233 790.0848,-1242.5643 802.5167,-1249.2044 815.7459,-1253.7491"/>
<polygon fill="#000000" stroke="#000000" points="814.9123,-1257.1536 825.4975,-1256.6999 816.9398,-1250.4536 814.9123,-1257.1536"/>
</g>
<!-- 140531500773616&#45;&gt;140531500777312 -->
<g id="edge82" class="edge">
<title>140531500773616&#45;&gt;140531500777312</title>
<path fill="none" stroke="#000000" d="M722.1122,-1009.7258C731.8598,-1057.8636 754.4258,-1156.258 780,-1179 786.6042,-1184.8728 794.1029,-1189.6225 802.1093,-1193.4497"/>
<polygon fill="#000000" stroke="#000000" points="800.7725,-1196.6845 811.3439,-1197.3893 803.5194,-1190.246 800.7725,-1196.6845"/>
</g>
<!-- 140531500773616&#45;&gt;140531500775800 -->
<g id="edge61" class="edge">
<title>140531500773616&#45;&gt;140531500775800</title>
<path fill="none" stroke="#000000" d="M721.244,-1009.7696C727.8598,-1042.2243 743.8478,-1096.1481 780,-1125 797.2355,-1138.7551 819.5043,-1146.1545 841.0811,-1149.9744"/>
<polygon fill="#000000" stroke="#000000" points="840.8435,-1153.4787 851.2577,-1151.5311 841.9019,-1146.5592 840.8435,-1153.4787"/>
</g>
<!-- 140531500773616&#45;&gt;140531499137064 -->
<g id="edge57" class="edge">
<title>140531500773616&#45;&gt;140531499137064</title>
<path fill="none" stroke="#000000" d="M728.2677,-1007.9248C738.742,-1028.1596 756.2975,-1055.7511 780,-1071 797.4941,-1082.2548 818.642,-1089.0034 839.051,-1093.0003"/>
<polygon fill="#000000" stroke="#000000" points="838.5362,-1096.4634 848.9914,-1094.7491 839.7491,-1089.5693 838.5362,-1096.4634"/>
</g>
<!-- 140531500773616&#45;&gt;140531499137400 -->
<g id="edge84" class="edge">
<title>140531500773616&#45;&gt;140531499137400</title>
<path fill="none" stroke="#000000" d="M739.8556,-997.4997C751.4865,-1004.3087 766.0784,-1012.0065 780,-1017 792.9907,-1021.6596 806.9761,-1025.5799 820.8776,-1028.8598"/>
<polygon fill="#000000" stroke="#000000" points="820.4446,-1032.35 830.9697,-1031.1363 821.985,-1025.5216 820.4446,-1032.35"/>
</g>
<!-- 140531500773616&#45;&gt;140531499136056 -->
<g id="edge72" class="edge">
<title>140531500773616&#45;&gt;140531499136056</title>
<path fill="none" stroke="#000000" d="M744.0403,-983.9441C768.4514,-984.7963 805.5965,-986.0931 839.2589,-987.2684"/>
<polygon fill="#000000" stroke="#000000" points="839.4601,-990.7775 849.5761,-987.6286 839.7044,-983.7817 839.4601,-990.7775"/>
</g>
<!-- 140531500773616&#45;&gt;140531499136560 -->
<g id="edge77" class="edge">
<title>140531500773616&#45;&gt;140531499136560</title>
<path fill="none" stroke="#000000" d="M742.5569,-974.1607C753.9342,-970.4144 767.5491,-966.1878 780,-963 795.906,-958.9276 812.9823,-955.1258 829.5061,-951.735"/>
<polygon fill="#000000" stroke="#000000" points="830.5968,-955.0856 839.7077,-949.6781 829.2132,-948.2237 830.5968,-955.0856"/>
</g>
<!-- 140531500773616&#45;&gt;140531500774624 -->
<g id="edge76" class="edge">
<title>140531500773616&#45;&gt;140531500774624</title>
<path fill="none" stroke="#000000" d="M730.8179,-959.6001C741.9612,-942.8526 759.1789,-921.1912 780,-909 795.7648,-899.7693 814.1121,-893.6308 832.1703,-889.5646"/>
<polygon fill="#000000" stroke="#000000" points="833.0642,-892.9541 842.1547,-887.5123 831.6548,-886.0975 833.0642,-892.9541"/>
</g>
<!-- 140531500773616&#45;&gt;140531500776136 -->
<g id="edge86" class="edge">
<title>140531500773616&#45;&gt;140531500776136</title>
<path fill="none" stroke="#000000" d="M722.7873,-956.3867C733.1803,-911.0533 756.1558,-821.7333 780,-801 791.7462,-790.7863 806.2103,-783.9916 821.2999,-779.5447"/>
<polygon fill="#000000" stroke="#000000" points="822.4862,-782.8527 831.2839,-776.9492 820.725,-776.0779 822.4862,-782.8527"/>
</g>
<!-- 140531500773616&#45;&gt;140531499137568 -->
<g id="edge55" class="edge">
<title>140531500773616&#45;&gt;140531499137568</title>
<path fill="none" stroke="#000000" d="M719.1384,-956.0428C724.8348,-891.3023 742.562,-729.6959 780,-693 786.6345,-686.497 794.3492,-681.3334 802.6743,-677.2542"/>
<polygon fill="#000000" stroke="#000000" points="804.144,-680.4318 811.9253,-673.2413 801.3583,-674.0099 804.144,-680.4318"/>
</g>
<!-- 140531500773616&#45;&gt;140531499135888 -->
<g id="edge60" class="edge">
<title>140531500773616&#45;&gt;140531499135888</title>
<path fill="none" stroke="#000000" d="M718.135,-955.993C721.7737,-882.9439 735.6362,-683.9337 780,-639 793.329,-625.4997 811.2969,-617.719 829.8406,-613.426"/>
<polygon fill="#000000" stroke="#000000" points="830.7431,-616.8152 839.871,-611.4363 829.3811,-609.949 830.7431,-616.8152"/>
</g>
<!-- 140531500773616&#45;&gt;140531499137736 -->
<g id="edge54" class="edge">
<title>140531500773616&#45;&gt;140531499137736</title>
<path fill="none" stroke="#000000" d="M717.3954,-955.9315C719.1509,-875.1779 728.6624,-638.2682 780,-585 788.1606,-576.5325 798.142,-570.3001 808.9655,-565.7606"/>
<polygon fill="#000000" stroke="#000000" points="810.491,-568.9289 818.6694,-562.1935 808.0758,-562.3588 810.491,-568.9289"/>
</g>
<!-- 140531500773616&#45;&gt;140531500775632 -->
<g id="edge67" class="edge">
<title>140531500773616&#45;&gt;140531500775632</title>
<path fill="none" stroke="#000000" d="M718.9559,-955.9419C725.9038,-863.1933 750.5623,-562.1157 780,-531 789.6193,-520.8324 801.86,-513.8713 815.058,-509.1889"/>
<polygon fill="#000000" stroke="#000000" points="816.2959,-512.4696 824.8136,-506.1689 814.2258,-505.7827 816.2959,-512.4696"/>
</g>
<!-- 140531500773616&#45;&gt;140531500776304 -->
<g id="edge68" class="edge">
<title>140531500773616&#45;&gt;140531500776304</title>
<path fill="none" stroke="#000000" d="M718.5367,-955.885C724.4444,-855.9776 747.0244,-512.3697 780,-477 782.8124,-473.9834 785.8553,-471.2479 789.0859,-468.7696"/>
<polygon fill="#000000" stroke="#000000" points="791.1338,-471.6103 797.4783,-463.1251 787.2271,-465.8018 791.1338,-471.6103"/>
</g>
<!-- 140531500773616&#45;&gt;140531499135216 -->
<g id="edge71" class="edge">
<title>140531500773616&#45;&gt;140531499135216</title>
<path fill="none" stroke="#000000" d="M718.1903,-955.9686C723.1262,-849.4569 743.457,-462.6642 780,-423 784.4351,-418.186 789.4569,-414.0857 794.893,-410.6023"/>
<polygon fill="#000000" stroke="#000000" points="796.7499,-413.5736 803.7516,-405.622 793.3195,-407.4717 796.7499,-413.5736"/>
</g>
<!-- 140531500773616&#45;&gt;140531499136224 -->
<g id="edge59" class="edge">
<title>140531500773616&#45;&gt;140531499136224</title>
<path fill="none" stroke="#000000" d="M717.9176,-955.7105C721.9762,-842.407 739.9174,-412.9353 780,-369 782.0751,-366.7254 784.2811,-364.6097 786.6,-362.6428"/>
<polygon fill="#000000" stroke="#000000" points="788.9312,-365.2721 794.893,-356.5138 784.7707,-359.6427 788.9312,-365.2721"/>
</g>
<!-- 140531500773616&#45;&gt;140531499135552 -->
<g id="edge80" class="edge">
<title>140531500773616&#45;&gt;140531499135552</title>
<path fill="none" stroke="#000000" d="M717.6769,-955.7685C720.8929,-836.4112 736.331,-363.2632 780,-315 789.8799,-304.0806 802.7751,-296.8155 816.7072,-292.087"/>
<polygon fill="#000000" stroke="#000000" points="817.8899,-295.3874 826.4939,-289.205 815.9124,-288.6725 817.8899,-295.3874"/>
</g>
<!-- 140531500773616&#45;&gt;140531500777424 -->
<g id="edge87" class="edge">
<title>140531500773616&#45;&gt;140531500777424</title>
<path fill="none" stroke="#000000" d="M717.4749,-955.7016C719.9066,-830.3282 732.7507,-313.5888 780,-261 781.8139,-258.9811 783.7308,-257.087 785.7383,-255.3104"/>
<polygon fill="#000000" stroke="#000000" points="788.1137,-257.8989 793.9046,-249.0266 783.8449,-252.3512 788.1137,-257.8989"/>
</g>
<!-- 140531500773616&#45;&gt;140531500776976 -->
<g id="edge52" class="edge">
<title>140531500773616&#45;&gt;140531500776976</title>
<path fill="none" stroke="#000000" d="M717.297,-955.8742C718.9782,-825.132 729.1317,-263.9611 780,-207 789.0389,-196.8784 800.6671,-189.8858 813.3269,-185.1392"/>
<polygon fill="#000000" stroke="#000000" points="814.7567,-188.3547 823.1832,-181.9325 812.591,-181.6981 814.7567,-188.3547"/>
</g>
<!-- 140531500773616&#45;&gt;140531500776640 -->
<g id="edge53" class="edge">
<title>140531500773616&#45;&gt;140531500776640</title>
<path fill="none" stroke="#000000" d="M717.1454,-955.8203C718.1251,-819.4953 725.5345,-214.3124 780,-153 795.0616,-136.045 817.3871,-127.8581 839.6889,-124.3016"/>
<polygon fill="#000000" stroke="#000000" points="840.4401,-127.7337 849.9079,-122.9786 839.5412,-120.7916 840.4401,-127.7337"/>
</g>
<!-- 140531500773616&#45;&gt;140531500775296 -->
<g id="edge65" class="edge">
<title>140531500773616&#45;&gt;140531500775296</title>
<path fill="none" stroke="#000000" d="M718.017,-955.7287C723.554,-810.3522 750.8895,-131.9225 780,-99 782.9006,-95.7195 786.0731,-92.7669 789.4649,-90.1122"/>
<polygon fill="#000000" stroke="#000000" points="791.4738,-92.9786 797.7524,-84.4446 787.5223,-87.2006 791.4738,-92.9786"/>
</g>
<!-- 140531500773616&#45;&gt;140531499137904 -->
<g id="edge56" class="edge">
<title>140531500773616&#45;&gt;140531499137904</title>
<path fill="none" stroke="#000000" d="M717.9074,-955.5651C723.0185,-804.55 749.0903,-80.1016 780,-45 790.1551,-33.4677 803.6697,-25.9826 818.2677,-21.2495"/>
<polygon fill="#000000" stroke="#000000" points="819.3096,-24.5924 827.9928,-18.5217 817.4191,-17.8525 819.3096,-24.5924"/>
</g>
<!-- 140531500773616&#45;&gt;140531500777144 -->
<g id="edge73" class="edge">
<title>140531500773616&#45;&gt;140531500777144</title>
<path fill="none" stroke="#000000" d="M717.9839,-1010.22C723.4003,-1156.8703 750.417,-1847.5058 780,-1881 785.093,-1886.7664 791.0261,-1891.5202 797.514,-1895.4234"/>
<polygon fill="#000000" stroke="#000000" points="796.1971,-1898.6851 806.6781,-1900.2342 799.4508,-1892.4872 796.1971,-1898.6851"/>
</g>
<!-- 140531500773616&#45;&gt;140531499135720 -->
<g id="edge62" class="edge">
<title>140531500773616&#45;&gt;140531499135720</title>
<path fill="none" stroke="#000000" d="M722.6427,-956.465C730.3587,-926.9595 747.1636,-880.1524 780,-855 801.3118,-838.6753 829.7996,-831.4075 855.3168,-828.4218"/>
<polygon fill="#000000" stroke="#000000" points="855.6849,-831.9026 865.2977,-827.448 855.0051,-824.9357 855.6849,-831.9026"/>
</g>
<!-- 140531500773616&#45;&gt;140531499135384 -->
<g id="edge64" class="edge">
<title>140531500773616&#45;&gt;140531499135384</title>
<path fill="none" stroke="#000000" d="M718.118,-1010.4219C724.0101,-1152.0897 752.2386,-1795.7093 780,-1827 788.4081,-1836.477 799.0855,-1843.2156 810.7611,-1847.9377"/>
<polygon fill="#000000" stroke="#000000" points="809.7195,-1851.2815 820.3143,-1851.3061 812.0473,-1844.6799 809.7195,-1851.2815"/>
</g>
<!-- 140531500773616&#45;&gt;140531500776472 -->
<g id="edge83" class="edge">
<title>140531500773616&#45;&gt;140531500776472</title>
<path fill="none" stroke="#000000" d="M720.5743,-956.142C728.5243,-900.5371 749.4138,-775.6035 780,-747 780.9995,-746.0653 782.0214,-745.1587 783.0643,-744.2793"/>
<polygon fill="#000000" stroke="#000000" points="785.5024,-746.8285 791.4469,-738.0584 781.3308,-741.2073 785.5024,-746.8285"/>
</g>
<!-- 140531500773616&#45;&gt;140531499137232 -->
<g id="edge74" class="edge">
<title>140531500773616&#45;&gt;140531499137232</title>
<path fill="none" stroke="#000000" d="M718.2419,-1009.9948C724.578,-1145.245 754.0162,-1743.8621 780,-1773 797.7958,-1792.9561 825.6562,-1800.7533 851.6587,-1803.1537"/>
<polygon fill="#000000" stroke="#000000" points="851.6756,-1806.6626 861.8876,-1803.8401 852.1444,-1799.6783 851.6756,-1806.6626"/>
</g>
<!-- 140531500774064&#45;&gt;140531499138128 -->
<g id="edge88" class="edge">
<title>140531500774064&#45;&gt;140531499138128</title>
<path fill="none" stroke="#000000" d="M301.003,-983C309.0277,-983 317.9665,-983 326.5309,-983"/>
<polygon fill="#000000" stroke="#000000" points="326.7051,-986.5001 336.705,-983 326.705,-979.5001 326.7051,-986.5001"/>
</g>
<!-- 140531500774064&#45;&gt;140531499138352 -->
<g id="edge89" class="edge">
<title>140531500774064&#45;&gt;140531499138352</title>
<path fill="none" stroke="#000000" d="M274.5904,-1010.3742C277.5168,-1134.9216 292.1663,-1644.3213 337,-1698 356.2466,-1721.0437 390.3453,-1728.3454 416.7831,-1730.292"/>
<polygon fill="#000000" stroke="#000000" points="416.6876,-1733.7916 426.8538,-1730.8084 417.0462,-1726.8008 416.6876,-1733.7916"/>
</g>
<!-- 140531500774176&#45;&gt;140531500773952 -->
<g id="edge90" class="edge">
<title>140531500774176&#45;&gt;140531500773952</title>
<path fill="none" stroke="#000000" d="M481.2469,-983C500.6418,-983 526.9381,-983 548.268,-983"/>
<polygon fill="#000000" stroke="#000000" points="548.2881,-986.5001 558.288,-983 548.288,-979.5001 548.2881,-986.5001"/>
</g>
</g>
</svg>
