<?xml version="1.0" encoding="UTF-8" standalone="no"?>
<!DOCTYPE svg PUBLIC "-//W3C//DTD SVG 1.1//EN"
 "http://www.w3.org/Graphics/SVG/1.1/DTD/svg11.dtd">
<!-- Generated by graphviz version 2.40.1 (20161225.0304)
 -->
<!-- Title: alpha_plus_net_1585321102.484672 Pages: 1 -->
<svg width="448pt" height="62pt"
 viewBox="0.00 0.00 448.00 62.00" xmlns="http://www.w3.org/2000/svg" xmlns:xlink="http://www.w3.org/1999/xlink">
<g id="graph0" class="graph" transform="scale(1 1) rotate(0) translate(4 58)">
<title>alpha_plus_net_1585321102.484672</title>
<!-- 140531495376544 -->
<g id="node1" class="node">
<title>140531495376544</title>
<polygon fill="none" stroke="#000000" points="170,-45 90,-45 90,-9 170,-9 170,-45"/>
<text text-anchor="middle" x="130" y="-23.3" font-family="Times,serif" font-size="14.00" fill="#000000">PingServlet</text>
</g>
<!-- 140531495375760 -->
<g id="node4" class="node">
<title>140531495375760</title>
<ellipse fill="none" stroke="#000000" cx="233" cy="-27" rx="27" ry="27"/>
<text text-anchor="middle" x="233" y="-23.3" font-family="Times,serif" font-size="14.00" fill="#000000">({&#39;PingServlet&#39;}, {&#39;Root&#39;})</text>
</g>
<!-- 140531495376544&#45;&gt;140531495375760 -->
<g id="edge3" class="edge">
<title>140531495376544&#45;&gt;140531495375760</title>
<path fill="none" stroke="#000000" d="M170.1174,-27C178.5373,-27 187.3845,-27 195.6965,-27"/>
<polygon fill="#000000" stroke="#000000" points="195.8664,-30.5001 205.8664,-27 195.8664,-23.5001 195.8664,-30.5001"/>
</g>
<!-- 140531495376320 -->
<g id="node2" class="node">
<title>140531495376320</title>
<polygon fill="none" stroke="#000000" points="350,-45 296,-45 296,-9 350,-9 350,-45"/>
<text text-anchor="middle" x="323" y="-23.3" font-family="Times,serif" font-size="14.00" fill="#000000">Root</text>
</g>
<!-- 140531495375872 -->
<g id="node5" class="node">
<title>140531495375872</title>
<ellipse fill="#ffa500" stroke="#000000" cx="413" cy="-27" rx="27" ry="27"/>
</g>
<!-- 140531495376320&#45;&gt;140531495375872 -->
<g id="edge4" class="edge">
<title>140531495376320&#45;&gt;140531495375872</title>
<path fill="none" stroke="#000000" d="M350.003,-27C358.0277,-27 366.9665,-27 375.5309,-27"/>
<polygon fill="#000000" stroke="#000000" points="375.7051,-30.5001 385.705,-27 375.705,-23.5001 375.7051,-30.5001"/>
</g>
<!-- 140531495376488 -->
<g id="node3" class="node">
<title>140531495376488</title>
<ellipse fill="#00ff00" stroke="#000000" cx="27" cy="-27" rx="27" ry="27"/>
<text text-anchor="middle" x="27" y="-23.3" font-family="Times,serif" font-size="14.00" fill="#000000">1</text>
</g>
<!-- 140531495376488&#45;&gt;140531495376544 -->
<g id="edge2" class="edge">
<title>140531495376488&#45;&gt;140531495376544</title>
<path fill="none" stroke="#000000" d="M54.062,-27C61.9446,-27 70.8216,-27 79.6533,-27"/>
<polygon fill="#000000" stroke="#000000" points="79.9379,-30.5001 89.9379,-27 79.9379,-23.5001 79.9379,-30.5001"/>
</g>
<!-- 140531495375760&#45;&gt;140531495376320 -->
<g id="edge1" class="edge">
<title>140531495375760&#45;&gt;140531495376320</title>
<path fill="none" stroke="#000000" d="M260.003,-27C268.0277,-27 276.9665,-27 285.5309,-27"/>
<polygon fill="#000000" stroke="#000000" points="285.7051,-30.5001 295.705,-27 285.705,-23.5001 285.7051,-30.5001"/>
</g>
</g>
</svg>
