<?xml version="1.0" encoding="UTF-8" standalone="no"?>
<!DOCTYPE svg PUBLIC "-//W3C//DTD SVG 1.1//EN"
 "http://www.w3.org/Graphics/SVG/1.1/DTD/svg11.dtd">
<!-- Generated by graphviz version 2.40.1 (20161225.0304)
 -->
<!-- Title: alpha_classic_net_1586496247.9400084 Pages: 1 -->
<svg width="651pt" height="809pt"
 viewBox="0.00 0.00 651.00 809.00" xmlns="http://www.w3.org/2000/svg" xmlns:xlink="http://www.w3.org/1999/xlink">
<g id="graph0" class="graph" transform="scale(1 1) rotate(0) translate(4 805)">
<title>alpha_classic_net_1586496247.9400084</title>
<!-- 139748205724336 -->
<g id="node1" class="node">
<title>139748205724336</title>
<polygon fill="none" stroke="#000000" points="336,-144 237,-144 237,-108 336,-108 336,-144"/>
<text text-anchor="middle" x="286.5" y="-122.3" font-family="Times,serif" font-size="14.00" fill="#000000">ActionDecoder</text>
</g>
<!-- 139748205726240 -->
<g id="node19" class="node">
<title>139748205726240</title>
<ellipse fill="none" stroke="#000000" cx="436" cy="-72" rx="27" ry="27"/>
<text text-anchor="middle" x="436" y="-68.3" font-family="Times,serif" font-size="14.00" fill="#000000">({&#39;OrdersAlertFilter&#39;, &#39;ActionDecoder&#39;}, {&#39;Root&#39;})</text>
</g>
<!-- 139748205724336&#45;&gt;139748205726240 -->
<g id="edge2" class="edge">
<title>139748205724336&#45;&gt;139748205726240</title>
<path fill="none" stroke="#000000" d="M336.1967,-111.4439C348.319,-107.6311 361.1936,-103.3596 373,-99 382.5277,-95.4818 392.7053,-91.3083 402.0402,-87.3076"/>
<polygon fill="#000000" stroke="#000000" points="403.627,-90.4342 411.4007,-83.2356 400.8346,-84.0153 403.627,-90.4342"/>
</g>
<!-- 139748205241008 -->
<g id="node2" class="node">
<title>139748205241008</title>
<polygon fill="none" stroke="#000000" points="132.5,-153 31.5,-153 31.5,-117 132.5,-117 132.5,-153"/>
<text text-anchor="middle" x="82" y="-131.3" font-family="Times,serif" font-size="14.00" fill="#000000">ActionMessage</text>
</g>
<!-- 139748205727024 -->
<g id="node3" class="node">
<title>139748205727024</title>
<polygon fill="none" stroke="#000000" points="128.5,-207 35.5,-207 35.5,-171 128.5,-171 128.5,-207"/>
<text text-anchor="middle" x="82" y="-185.3" font-family="Times,serif" font-size="14.00" fill="#000000">FinancialUtils</text>
</g>
<!-- 139748203472992 -->
<g id="node4" class="node">
<title>139748203472992</title>
<polygon fill="none" stroke="#000000" points="109,-261 55,-261 55,-225 109,-225 109,-261"/>
<text text-anchor="middle" x="82" y="-239.3" font-family="Times,serif" font-size="14.00" fill="#000000">Log</text>
</g>
<!-- 139748205241848 -->
<g id="node5" class="node">
<title>139748205241848</title>
<polygon fill="none" stroke="#000000" points="164,-315 0,-315 0,-279 164,-279 164,-315"/>
<text text-anchor="middle" x="82" y="-293.3" font-family="Times,serif" font-size="14.00" fill="#000000">MarketSummaryDataBean</text>
</g>
<!-- 139748205243472 -->
<g id="node6" class="node">
<title>139748205243472</title>
<polygon fill="none" stroke="#000000" points="163,-369 1,-369 1,-333 163,-333 163,-369"/>
<text text-anchor="middle" x="82" y="-347.3" font-family="Times,serif" font-size="14.00" fill="#000000">MarketSummarySingleton</text>
</g>
<!-- 139748205724112 -->
<g id="node7" class="node">
<title>139748205724112</title>
<polygon fill="none" stroke="#000000" points="373,-90 200,-90 200,-54 373,-54 373,-90"/>
<text text-anchor="middle" x="286.5" y="-68.3" font-family="Times,serif" font-size="14.00" fill="#000000">MarketSummaryWebSocket</text>
</g>
<!-- 139748205724784 -->
<g id="node8" class="node">
<title>139748205724784</title>
<polygon fill="none" stroke="#000000" points="132.5,-423 31.5,-423 31.5,-387 132.5,-387 132.5,-423"/>
<text text-anchor="middle" x="82" y="-401.3" font-family="Times,serif" font-size="14.00" fill="#000000">OrderDataBean</text>
</g>
<!-- 139748205243192 -->
<g id="node9" class="node">
<title>139748205243192</title>
<polygon fill="none" stroke="#000000" points="341.5,-36 231.5,-36 231.5,0 341.5,0 341.5,-36"/>
<text text-anchor="middle" x="286.5" y="-14.3" font-family="Times,serif" font-size="14.00" fill="#000000">OrdersAlertFilter</text>
</g>
<!-- 139748205243192&#45;&gt;139748205726240 -->
<g id="edge3" class="edge">
<title>139748205243192&#45;&gt;139748205726240</title>
<path fill="none" stroke="#000000" d="M341.6964,-34.3016C352.1573,-37.6523 362.9646,-41.2944 373,-45 382.5277,-48.5182 392.7053,-52.6917 402.0402,-56.6924"/>
<polygon fill="#000000" stroke="#000000" points="400.8346,-59.9847 411.4007,-60.7644 403.627,-53.5658 400.8346,-59.9847"/>
</g>
<!-- 139748205725456 -->
<g id="node10" class="node">
<title>139748205725456</title>
<polygon fill="none" stroke="#000000" points="133.5,-477 30.5,-477 30.5,-441 133.5,-441 133.5,-477"/>
<text text-anchor="middle" x="82" y="-455.3" font-family="Times,serif" font-size="14.00" fill="#000000">QuoteDataBean</text>
</g>
<!-- 139748205242912 -->
<g id="node11" class="node">
<title>139748205242912</title>
<polygon fill="none" stroke="#000000" points="155.5,-531 8.5,-531 8.5,-495 155.5,-495 155.5,-531"/>
<text text-anchor="middle" x="82" y="-509.3" font-family="Times,serif" font-size="14.00" fill="#000000">RecentStockChangeList</text>
</g>
<!-- 139748205725120 -->
<g id="node12" class="node">
<title>139748205725120</title>
<polygon fill="none" stroke="#000000" points="553,-90 499,-90 499,-54 553,-54 553,-90"/>
<text text-anchor="middle" x="526" y="-68.3" font-family="Times,serif" font-size="14.00" fill="#000000">Root</text>
</g>
<!-- 139748205726016 -->
<g id="node20" class="node">
<title>139748205726016</title>
<ellipse fill="#ffa500" stroke="#000000" cx="616" cy="-72" rx="27" ry="27"/>
</g>
<!-- 139748205725120&#45;&gt;139748205726016 -->
<g id="edge4" class="edge">
<title>139748205725120&#45;&gt;139748205726016</title>
<path fill="none" stroke="#000000" d="M553.003,-72C561.0277,-72 569.9665,-72 578.5309,-72"/>
<polygon fill="#000000" stroke="#000000" points="578.7051,-75.5001 588.705,-72 578.705,-68.5001 578.7051,-75.5001"/>
</g>
<!-- 139748205242800 -->
<g id="node13" class="node">
<title>139748205242800</title>
<polygon fill="none" stroke="#000000" points="124.5,-585 39.5,-585 39.5,-549 124.5,-549 124.5,-585"/>
<text text-anchor="middle" x="82" y="-563.3" font-family="Times,serif" font-size="14.00" fill="#000000">TradeAction</text>
</g>
<!-- 139748205726352 -->
<g id="node14" class="node">
<title>139748205726352</title>
<polygon fill="none" stroke="#000000" points="137,-639 27,-639 27,-603 137,-603 137,-639"/>
<text text-anchor="middle" x="82" y="-617.3" font-family="Times,serif" font-size="14.00" fill="#000000">TradeAppServlet</text>
</g>
<!-- 139748205726688 -->
<g id="node15" class="node">
<title>139748205726688</title>
<polygon fill="none" stroke="#000000" points="125,-693 39,-693 39,-657 125,-657 125,-693"/>
<text text-anchor="middle" x="82" y="-671.3" font-family="Times,serif" font-size="14.00" fill="#000000">TradeConfig</text>
</g>
<!-- 139748205726464 -->
<g id="node16" class="node">
<title>139748205726464</title>
<polygon fill="none" stroke="#000000" points="136,-747 28,-747 28,-711 136,-711 136,-747"/>
<text text-anchor="middle" x="82" y="-725.3" font-family="Times,serif" font-size="14.00" fill="#000000">TradeSLSBBean</text>
</g>
<!-- 139748205724896 -->
<g id="node17" class="node">
<title>139748205724896</title>
<polygon fill="none" stroke="#000000" points="143.5,-801 20.5,-801 20.5,-765 143.5,-765 143.5,-801"/>
<text text-anchor="middle" x="82" y="-779.3" font-family="Times,serif" font-size="14.00" fill="#000000">TradeServletAction</text>
</g>
<!-- 139748205725792 -->
<g id="node18" class="node">
<title>139748205725792</title>
<ellipse fill="#00ff00" stroke="#000000" cx="82" cy="-72" rx="27" ry="27"/>
<text text-anchor="middle" x="82" y="-68.3" font-family="Times,serif" font-size="14.00" fill="#000000">1</text>
</g>
<!-- 139748205725792&#45;&gt;139748205724336 -->
<g id="edge5" class="edge">
<title>139748205725792&#45;&gt;139748205724336</title>
<path fill="none" stroke="#000000" d="M108.3161,-78.949C138.1504,-86.827 187.7435,-99.9225 227.0446,-110.3003"/>
<polygon fill="#000000" stroke="#000000" points="226.2342,-113.7062 236.7964,-112.8753 228.0214,-106.9382 226.2342,-113.7062"/>
</g>
<!-- 139748205725792&#45;&gt;139748205724112 -->
<g id="edge6" class="edge">
<title>139748205725792&#45;&gt;139748205724112</title>
<path fill="none" stroke="#000000" d="M109.156,-72C129.9546,-72 159.9916,-72 189.4514,-72"/>
<polygon fill="#000000" stroke="#000000" points="189.8315,-75.5001 199.8315,-72 189.8315,-68.5001 189.8315,-75.5001"/>
</g>
<!-- 139748205725792&#45;&gt;139748205243192 -->
<g id="edge7" class="edge">
<title>139748205725792&#45;&gt;139748205243192</title>
<path fill="none" stroke="#000000" d="M108.3161,-65.051C136.7367,-57.5463 183.0877,-45.3069 221.3914,-35.1925"/>
<polygon fill="#000000" stroke="#000000" points="222.6737,-38.4739 231.4487,-32.5368 220.8865,-31.7059 222.6737,-38.4739"/>
</g>
<!-- 139748205726240&#45;&gt;139748205725120 -->
<g id="edge1" class="edge">
<title>139748205726240&#45;&gt;139748205725120</title>
<path fill="none" stroke="#000000" d="M463.003,-72C471.0277,-72 479.9665,-72 488.5309,-72"/>
<polygon fill="#000000" stroke="#000000" points="488.7051,-75.5001 498.705,-72 488.705,-68.5001 488.7051,-75.5001"/>
</g>
</g>
</svg>
