<?xml version="1.0" encoding="UTF-8" standalone="no"?>
<!DOCTYPE svg PUBLIC "-//W3C//DTD SVG 1.1//EN"
 "http://www.w3.org/Graphics/SVG/1.1/DTD/svg11.dtd">
<!-- Generated by graphviz version 2.40.1 (20161225.0304)
 -->
<!-- Title: alpha_plus_net_1585315545.3292289 Pages: 1 -->
<svg width="934pt" height="796pt"
 viewBox="0.00 0.00 934.00 796.00" xmlns="http://www.w3.org/2000/svg" xmlns:xlink="http://www.w3.org/1999/xlink">
<g id="graph0" class="graph" transform="scale(1 1) rotate(0) translate(4 792)">
<title>alpha_plus_net_1585315545.3292289</title>
<!-- 140178123092488 -->
<g id="node1" class="node">
<title>140178123092488</title>
<polygon fill="none" stroke="#000000" points="574.5,-233 475.5,-233 475.5,-197 574.5,-197 574.5,-233"/>
<text text-anchor="middle" x="525" y="-211.3" font-family="Times,serif" font-size="14.00" fill="#000000">ActionDecoder</text>
</g>
<!-- 140178109586960 -->
<g id="node20" class="node">
<title>140178109586960</title>
<ellipse fill="none" stroke="#000000" cx="670" cy="-166" rx="27" ry="27"/>
<text text-anchor="middle" x="670" y="-162.3" font-family="Times,serif" font-size="14.00" fill="#000000">({&#39;ActionDecoder&#39;, &#39;OrdersAlertFilter&#39;}, {&#39;Root&#39;, &#39;ActionMessage&#39;})</text>
</g>
<!-- 140178123092488&#45;&gt;140178109586960 -->
<g id="edge19" class="edge">
<title>140178123092488&#45;&gt;140178109586960</title>
<path fill="none" stroke="#000000" d="M574.9154,-198.7223C585.5187,-195.2203 596.6386,-191.5146 607,-188 616.0238,-184.9391 625.7524,-181.574 634.8014,-178.4163"/>
<polygon fill="#000000" stroke="#000000" points="636.0063,-181.7028 644.2883,-175.0953 633.6934,-175.0959 636.0063,-181.7028"/>
</g>
<!-- 140178123094504 -->
<g id="node2" class="node">
<title>140178123094504</title>
<polygon fill="none" stroke="#000000" points="835,-184 734,-184 734,-148 835,-148 835,-184"/>
<text text-anchor="middle" x="784.5" y="-162.3" font-family="Times,serif" font-size="14.00" fill="#000000">ActionMessage</text>
</g>
<!-- 140178109585728 -->
<g id="node21" class="node">
<title>140178109585728</title>
<ellipse fill="none" stroke="#000000" cx="899" cy="-181" rx="27" ry="27"/>
<text text-anchor="middle" x="899" y="-177.3" font-family="Times,serif" font-size="14.00" fill="#000000">({&#39;ActionMessage&#39;}, {&#39;ActionDecoder&#39;})</text>
</g>
<!-- 140178123094504&#45;&gt;140178109585728 -->
<g id="edge20" class="edge">
<title>140178123094504&#45;&gt;140178109585728</title>
<path fill="none" stroke="#000000" d="M835.0547,-172.6229C844.0839,-173.8058 853.3385,-175.0181 861.9032,-176.1402"/>
<polygon fill="#000000" stroke="#000000" points="861.5767,-179.6272 871.9467,-177.4559 862.4861,-172.6865 861.5767,-179.6272"/>
</g>
<!-- 140179082316992 -->
<g id="node3" class="node">
<title>140179082316992</title>
<polygon fill="none" stroke="#000000" points="133,-185 40,-185 40,-149 133,-149 133,-185"/>
<text text-anchor="middle" x="86.5" y="-163.3" font-family="Times,serif" font-size="14.00" fill="#000000">FinancialUtils</text>
</g>
<!-- 140178109583768 -->
<g id="node4" class="node">
<title>140178109583768</title>
<polygon fill="none" stroke="#000000" points="113.5,-239 59.5,-239 59.5,-203 113.5,-203 113.5,-239"/>
<text text-anchor="middle" x="86.5" y="-217.3" font-family="Times,serif" font-size="14.00" fill="#000000">Log</text>
</g>
<!-- 140178123094168 -->
<g id="node5" class="node">
<title>140178123094168</title>
<polygon fill="none" stroke="#000000" points="607,-79 443,-79 443,-43 607,-43 607,-79"/>
<text text-anchor="middle" x="525" y="-57.3" font-family="Times,serif" font-size="14.00" fill="#000000">MarketSummaryDataBean</text>
</g>
<!-- 140178109586176 -->
<g id="node22" class="node">
<title>140178109586176</title>
<ellipse fill="none" stroke="#000000" cx="670" cy="-56" rx="27" ry="27"/>
<text text-anchor="middle" x="670" y="-52.3" font-family="Times,serif" font-size="14.00" fill="#000000">({&#39;MarketSummaryDataBean&#39;}, {&#39;QuoteDataBean&#39;})</text>
</g>
<!-- 140178123094168&#45;&gt;140178109586176 -->
<g id="edge21" class="edge">
<title>140178123094168&#45;&gt;140178109586176</title>
<path fill="none" stroke="#000000" d="M607.2442,-58.164C616.0332,-57.8609 624.6275,-57.5646 632.498,-57.2932"/>
<polygon fill="#000000" stroke="#000000" points="632.8585,-60.7829 642.7319,-56.9403 632.6172,-53.7871 632.8585,-60.7829"/>
</g>
<!-- 140178123092152 -->
<g id="node6" class="node">
<title>140178123092152</title>
<polygon fill="none" stroke="#000000" points="167.5,-293 5.5,-293 5.5,-257 167.5,-257 167.5,-293"/>
<text text-anchor="middle" x="86.5" y="-271.3" font-family="Times,serif" font-size="14.00" fill="#000000">MarketSummarySingleton</text>
</g>
<!-- 140178109585896 -->
<g id="node7" class="node">
<title>140178109585896</title>
<polygon fill="none" stroke="#000000" points="173,-347 0,-347 0,-311 173,-311 173,-347"/>
<text text-anchor="middle" x="86.5" y="-325.3" font-family="Times,serif" font-size="14.00" fill="#000000">MarketSummaryWebSocket</text>
</g>
<!-- 140178123092712 -->
<g id="node8" class="node">
<title>140178123092712</title>
<polygon fill="none" stroke="#000000" points="137,-401 36,-401 36,-365 137,-365 137,-401"/>
<text text-anchor="middle" x="86.5" y="-379.3" font-family="Times,serif" font-size="14.00" fill="#000000">OrderDataBean</text>
</g>
<!-- 140179082314080 -->
<g id="node9" class="node">
<title>140179082314080</title>
<polygon fill="none" stroke="#000000" points="580,-179 470,-179 470,-143 580,-143 580,-179"/>
<text text-anchor="middle" x="525" y="-157.3" font-family="Times,serif" font-size="14.00" fill="#000000">OrdersAlertFilter</text>
</g>
<!-- 140179082314080&#45;&gt;140178109586960 -->
<g id="edge22" class="edge">
<title>140179082314080&#45;&gt;140178109586960</title>
<path fill="none" stroke="#000000" d="M580.2319,-162.9045C597.8267,-163.5113 616.8622,-164.1677 632.8572,-164.7192"/>
<polygon fill="#000000" stroke="#000000" points="632.7687,-168.2181 642.8834,-165.0649 633.01,-161.2223 632.7687,-168.2181"/>
</g>
<!-- 140178123092376 -->
<g id="node10" class="node">
<title>140178123092376</title>
<polygon fill="none" stroke="#000000" points="836,-70 733,-70 733,-34 836,-34 836,-70"/>
<text text-anchor="middle" x="784.5" y="-48.3" font-family="Times,serif" font-size="14.00" fill="#000000">QuoteDataBean</text>
</g>
<!-- 140178109585448 -->
<g id="node23" class="node">
<title>140178109585448</title>
<ellipse fill="none" stroke="#000000" cx="899" cy="-27" rx="27" ry="27"/>
<text text-anchor="middle" x="899" y="-23.3" font-family="Times,serif" font-size="14.00" fill="#000000">({&#39;QuoteDataBean&#39;}, {&#39;MarketSummaryDataBean&#39;})</text>
</g>
<!-- 140178123092376&#45;&gt;140178109585448 -->
<g id="edge23" class="edge">
<title>140178123092376&#45;&gt;140178109585448</title>
<path fill="none" stroke="#000000" d="M836.0557,-40.7433C845.0021,-38.7899 854.1358,-36.7957 862.5712,-34.9539"/>
<polygon fill="#000000" stroke="#000000" points="863.4317,-38.3486 872.4549,-32.7959 861.9384,-31.5097 863.4317,-38.3486"/>
</g>
<!-- 140178109585616 -->
<g id="node11" class="node">
<title>140178109585616</title>
<polygon fill="none" stroke="#000000" points="160,-455 13,-455 13,-419 160,-419 160,-455"/>
<text text-anchor="middle" x="86.5" y="-433.3" font-family="Times,serif" font-size="14.00" fill="#000000">RecentStockChangeList</text>
</g>
<!-- 140178123092432 -->
<g id="node12" class="node">
<title>140178123092432</title>
<polygon fill="none" stroke="#000000" points="811.5,-285 757.5,-285 757.5,-249 811.5,-249 811.5,-285"/>
<text text-anchor="middle" x="784.5" y="-263.3" font-family="Times,serif" font-size="14.00" fill="#000000">Root</text>
</g>
<!-- 140178109586568 -->
<g id="node26" class="node">
<title>140178109586568</title>
<ellipse fill="#ffa500" stroke="#000000" cx="899" cy="-267" rx="27" ry="27"/>
</g>
<!-- 140178123092432&#45;&gt;140178109586568 -->
<g id="edge24" class="edge">
<title>140178123092432&#45;&gt;140178109586568</title>
<path fill="none" stroke="#000000" d="M811.6349,-267C826.4989,-267 845.1492,-267 861.3969,-267"/>
<polygon fill="#000000" stroke="#000000" points="861.6631,-270.5001 871.6631,-267 861.663,-263.5001 861.6631,-270.5001"/>
</g>
<!-- 140178109586456 -->
<g id="node13" class="node">
<title>140178109586456</title>
<polygon fill="none" stroke="#000000" points="129,-509 44,-509 44,-473 129,-473 129,-509"/>
<text text-anchor="middle" x="86.5" y="-487.3" font-family="Times,serif" font-size="14.00" fill="#000000">TradeAction</text>
</g>
<!-- 140178109586344 -->
<g id="node14" class="node">
<title>140178109586344</title>
<polygon fill="none" stroke="#000000" points="141.5,-563 31.5,-563 31.5,-527 141.5,-527 141.5,-563"/>
<text text-anchor="middle" x="86.5" y="-541.3" font-family="Times,serif" font-size="14.00" fill="#000000">TradeAppServlet</text>
</g>
<!-- 140178109585000 -->
<g id="node27" class="node">
<title>140178109585000</title>
<ellipse fill="none" stroke="#000000" cx="263" cy="-761" rx="27" ry="27"/>
<text text-anchor="middle" x="263" y="-757.3" font-family="Times,serif" font-size="14.00" fill="#000000">140178109585000</text>
</g>
<!-- 140178109586344&#45;&gt;140178109585000 -->
<g id="edge25" class="edge">
<title>140178109586344&#45;&gt;140178109585000</title>
<path fill="none" stroke="#000000" d="M141.6758,-544.2361C153.3424,-548.0039 164.6387,-554.0187 173,-563 220.6001,-614.1295 169.1565,-658.6197 209,-716 215.1849,-724.9072 224.3516,-732.2052 233.3839,-738.3233"/>
<polygon fill="#000000" stroke="#000000" points="231.6052,-741.3412 241.9008,-743.8415 235.4115,-735.4665 231.6052,-741.3412"/>
</g>
<!-- 140178109587072 -->
<g id="node28" class="node">
<title>140178109587072</title>
<ellipse fill="none" stroke="#000000" cx="263" cy="-689" rx="27" ry="27"/>
<text text-anchor="middle" x="263" y="-685.3" font-family="Times,serif" font-size="14.00" fill="#000000">140178109587072</text>
</g>
<!-- 140178109586344&#45;&gt;140178109587072 -->
<g id="edge26" class="edge">
<title>140178109586344&#45;&gt;140178109587072</title>
<path fill="none" stroke="#000000" d="M141.8628,-545.864C153.1157,-549.5865 164.1886,-555.1531 173,-563 202.4204,-589.2 183.6054,-613.8816 209,-644 215.935,-652.2251 225.2091,-659.3227 234.1126,-665.4567"/>
<polygon fill="#000000" stroke="#000000" points="232.1926,-668.3833 242.4469,-671.0479 236.0924,-662.5702 232.1926,-668.3833"/>
</g>
<!-- 140178109584216 -->
<g id="node29" class="node">
<title>140178109584216</title>
<ellipse fill="none" stroke="#000000" cx="263" cy="-617" rx="27" ry="27"/>
<text text-anchor="middle" x="263" y="-613.3" font-family="Times,serif" font-size="14.00" fill="#000000">140178109584216</text>
</g>
<!-- 140178109586344&#45;&gt;140178109584216 -->
<g id="edge27" class="edge">
<title>140178109586344&#45;&gt;140178109584216</title>
<path fill="none" stroke="#000000" d="M141.8795,-551.9959C152.3236,-555.2217 163.0778,-559.0012 173,-563 194.1106,-571.5079 217.0451,-583.0117 234.4787,-593.4447"/>
<polygon fill="#000000" stroke="#000000" points="232.7156,-596.4698 243.0552,-598.7813 236.4138,-590.5264 232.7156,-596.4698"/>
</g>
<!-- 140178109585560 -->
<g id="node30" class="node">
<title>140178109585560</title>
<ellipse fill="none" stroke="#000000" cx="263" cy="-545" rx="27" ry="27"/>
<text text-anchor="middle" x="263" y="-541.3" font-family="Times,serif" font-size="14.00" fill="#000000">140178109585560</text>
</g>
<!-- 140178109586344&#45;&gt;140178109585560 -->
<g id="edge28" class="edge">
<title>140178109586344&#45;&gt;140178109585560</title>
<path fill="none" stroke="#000000" d="M141.8614,-538.6852C169.3377,-537.9247 201.7775,-538.161 226.1692,-539.3941"/>
<polygon fill="#000000" stroke="#000000" points="226.2359,-542.9042 236.4269,-540.007 226.6535,-535.9167 226.2359,-542.9042"/>
</g>
<!-- 140178109584104 -->
<g id="node31" class="node">
<title>140178109584104</title>
<ellipse fill="none" stroke="#000000" cx="263" cy="-473" rx="27" ry="27"/>
<text text-anchor="middle" x="263" y="-469.3" font-family="Times,serif" font-size="14.00" fill="#000000">140178109584104</text>
</g>
<!-- 140178109586344&#45;&gt;140178109584104 -->
<g id="edge29" class="edge">
<title>140178109586344&#45;&gt;140178109584104</title>
<path fill="none" stroke="#000000" d="M122.3045,-526.9874C138.058,-521.5775 156.6575,-515.5863 173,-509 191.4207,-501.5762 211.23,-491.8713 227.5617,-484.1637"/>
<polygon fill="#000000" stroke="#000000" points="229.1521,-487.284 236.7389,-479.8887 226.1962,-480.9387 229.1521,-487.284"/>
</g>
<!-- 140178109587240 -->
<g id="node32" class="node">
<title>140178109587240</title>
<ellipse fill="none" stroke="#000000" cx="263" cy="-401" rx="27" ry="27"/>
<text text-anchor="middle" x="263" y="-397.3" font-family="Times,serif" font-size="14.00" fill="#000000">140178109587240</text>
</g>
<!-- 140178109586344&#45;&gt;140178109587240 -->
<g id="edge30" class="edge">
<title>140178109586344&#45;&gt;140178109587240</title>
<path fill="none" stroke="#000000" d="M140.9623,-526.9197C152.5236,-522.7087 163.9536,-517.0562 173,-509 202.4204,-482.8 183.6054,-458.1184 209,-428 214.3111,-421.701 220.994,-416.0632 227.8317,-411.4326"/>
<polygon fill="#000000" stroke="#000000" points="229.7854,-414.3403 236.484,-406.1318 226.1285,-408.3714 229.7854,-414.3403"/>
</g>
<!-- 140178109583936 -->
<g id="node33" class="node">
<title>140178109583936</title>
<ellipse fill="none" stroke="#000000" cx="263" cy="-329" rx="27" ry="27"/>
<text text-anchor="middle" x="263" y="-325.3" font-family="Times,serif" font-size="14.00" fill="#000000">140178109583936</text>
</g>
<!-- 140178109586344&#45;&gt;140178109583936 -->
<g id="edge31" class="edge">
<title>140178109586344&#45;&gt;140178109583936</title>
<path fill="none" stroke="#000000" d="M141.6758,-528.273C153.3424,-523.9961 164.6387,-517.9813 173,-509 220.6001,-457.8705 169.1565,-413.3803 209,-356 213.7897,-349.1022 220.3676,-343.1694 227.2864,-338.4465"/>
<polygon fill="#000000" stroke="#000000" points="229.3594,-341.284 236.1238,-333.1296 225.7507,-335.2858 229.3594,-341.284"/>
</g>
<!-- 140178109586008 -->
<g id="node15" class="node">
<title>140178109586008</title>
<polygon fill="none" stroke="#000000" points="129.5,-617 43.5,-617 43.5,-581 129.5,-581 129.5,-617"/>
<text text-anchor="middle" x="86.5" y="-595.3" font-family="Times,serif" font-size="14.00" fill="#000000">TradeConfig</text>
</g>
<!-- 140178123095848 -->
<g id="node16" class="node">
<title>140178123095848</title>
<polygon fill="none" stroke="#000000" points="317,-185 209,-185 209,-149 317,-149 317,-185"/>
<text text-anchor="middle" x="263" y="-163.3" font-family="Times,serif" font-size="14.00" fill="#000000">TradeSLSBBean</text>
</g>
<!-- 140178123093104 -->
<g id="node24" class="node">
<title>140178123093104</title>
<ellipse fill="none" stroke="#000000" cx="380" cy="-172" rx="27" ry="27"/>
<text text-anchor="middle" x="380" y="-168.3" font-family="Times,serif" font-size="14.00" fill="#000000">({&#39;artificial_start&#39;, &#39;TradeSLSBBean&#39;}, {&#39;OrdersAlertFilter&#39;, &#39;MarketSummaryDataBean&#39;, &#39;ActionDecoder&#39;})</text>
</g>
<!-- 140178123095848&#45;&gt;140178123093104 -->
<g id="edge32" class="edge">
<title>140178123095848&#45;&gt;140178123093104</title>
<path fill="none" stroke="#000000" d="M317.0478,-169.3097C325.8045,-169.684 334.6951,-170.0639 342.9285,-170.4157"/>
<polygon fill="#000000" stroke="#000000" points="342.8062,-173.9136 352.9466,-170.8439 343.1052,-166.92 342.8062,-173.9136"/>
</g>
<!-- 140178123092656 -->
<g id="node25" class="node">
<title>140178123092656</title>
<ellipse fill="none" stroke="#000000" cx="380" cy="-100" rx="27" ry="27"/>
<text text-anchor="middle" x="380" y="-96.3" font-family="Times,serif" font-size="14.00" fill="#000000">({&#39;artificial_start&#39;, &#39;TradeSLSBBean&#39;}, {&#39;OrdersAlertFilter&#39;, &#39;MarketSummaryDataBean&#39;, &#39;ActionMessage&#39;})</text>
</g>
<!-- 140178123095848&#45;&gt;140178123092656 -->
<g id="edge33" class="edge">
<title>140178123095848&#45;&gt;140178123092656</title>
<path fill="none" stroke="#000000" d="M294.6619,-148.8688C311.1071,-139.4515 331.165,-127.9653 347.702,-118.4955"/>
<polygon fill="#000000" stroke="#000000" points="349.543,-121.4745 356.4816,-113.4678 346.0644,-115.4 349.543,-121.4745"/>
</g>
<!-- 140178109584160 -->
<g id="node17" class="node">
<title>140178109584160</title>
<polygon fill="none" stroke="#000000" points="148,-671 25,-671 25,-635 148,-635 148,-671"/>
<text text-anchor="middle" x="86.5" y="-649.3" font-family="Times,serif" font-size="14.00" fill="#000000">TradeServletAction</text>
</g>
<!-- 140178123092040 -->
<g id="node18" class="node">
<title>140178123092040</title>
<polygon fill="none" stroke="#000000" points="309,-122 217,-122 217,-86 309,-86 309,-122"/>
<text text-anchor="middle" x="263" y="-100.3" font-family="Times,serif" font-size="14.00" fill="#000000">artificial_start</text>
</g>
<!-- 140178123092040&#45;&gt;140178123093104 -->
<g id="edge34" class="edge">
<title>140178123092040&#45;&gt;140178123093104</title>
<path fill="none" stroke="#000000" d="M294.0467,-122.0442C310.6117,-131.6718 330.9749,-143.5068 347.7226,-153.2405"/>
<polygon fill="#000000" stroke="#000000" points="346.2032,-156.4056 356.6078,-158.4045 349.7207,-150.3535 346.2032,-156.4056"/>
</g>
<!-- 140178123092040&#45;&gt;140178123092656 -->
<g id="edge35" class="edge">
<title>140178123092040&#45;&gt;140178123092656</title>
<path fill="none" stroke="#000000" d="M309.2415,-102.4191C320.3556,-102.0391 332.0877,-101.638 342.7342,-101.274"/>
<polygon fill="#000000" stroke="#000000" points="343.0812,-104.7643 352.9558,-100.9246 342.842,-97.7684 343.0812,-104.7643"/>
</g>
<!-- 140178123094392 -->
<g id="node19" class="node">
<title>140178123094392</title>
<ellipse fill="#00ff00" stroke="#000000" cx="86.5" cy="-104" rx="27" ry="27"/>
<text text-anchor="middle" x="86.5" y="-100.3" font-family="Times,serif" font-size="14.00" fill="#000000">1</text>
</g>
<!-- 140178123094392&#45;&gt;140178123092040 -->
<g id="edge36" class="edge">
<title>140178123094392&#45;&gt;140178123092040</title>
<path fill="none" stroke="#000000" d="M113.6913,-104C138.3646,-104 175.5274,-104 206.6037,-104"/>
<polygon fill="#000000" stroke="#000000" points="206.8825,-107.5001 216.8824,-104 206.8824,-100.5001 206.8825,-107.5001"/>
</g>
<!-- 140178109586960&#45;&gt;140178123094504 -->
<g id="edge1" class="edge">
<title>140178109586960&#45;&gt;140178123094504</title>
<path fill="none" stroke="#000000" d="M697.1349,-166C705.1967,-166 714.3723,-166 723.6743,-166"/>
<polygon fill="#000000" stroke="#000000" points="723.7708,-169.5001 733.7708,-166 723.7708,-162.5001 723.7708,-169.5001"/>
</g>
<!-- 140178109586960&#45;&gt;140178123092432 -->
<g id="edge2" class="edge">
<title>140178109586960&#45;&gt;140178123092432</title>
<path fill="none" stroke="#000000" d="M690.4703,-184.0568C708.7556,-200.1862 735.7217,-223.9729 756.0928,-241.9421"/>
<polygon fill="#000000" stroke="#000000" points="754.0062,-244.7686 763.8209,-248.759 758.6368,-239.5191 754.0062,-244.7686"/>
</g>
<!-- 140178109585728&#45;&gt;140178123092488 -->
<g id="edge4" class="edge">
<title>140178109585728&#45;&gt;140178123092488</title>
<path fill="none" stroke="#000000" d="M872.4424,-186.7768C861.2424,-189.0257 848.0347,-191.4337 836,-193 749.0555,-204.3158 647.6247,-210.1196 584.8494,-212.8563"/>
<polygon fill="#000000" stroke="#000000" points="584.5766,-209.3647 574.7339,-213.2853 584.8732,-216.3584 584.5766,-209.3647"/>
</g>
<!-- 140178109586176&#45;&gt;140178123092376 -->
<g id="edge6" class="edge">
<title>140178109586176&#45;&gt;140178123092376</title>
<path fill="none" stroke="#000000" d="M697.1349,-55.0521C704.9188,-54.7801 713.7409,-54.4719 722.7126,-54.1585"/>
<polygon fill="#000000" stroke="#000000" points="722.9865,-57.6512 732.8581,-53.8041 722.742,-50.6554 722.9865,-57.6512"/>
</g>
<!-- 140178109585448&#45;&gt;140178123094168 -->
<g id="edge8" class="edge">
<title>140178109585448&#45;&gt;140178123094168</title>
<path fill="none" stroke="#000000" d="M872.2282,-22.8875C825.3777,-16.4399 725.6403,-6.052 643,-20 620.2926,-23.8326 596.1214,-31.5395 575.6072,-39.2475"/>
<polygon fill="#000000" stroke="#000000" points="574.2258,-36.0289 566.1562,-42.8943 576.7458,-42.5596 574.2258,-36.0289"/>
</g>
<!-- 140178123093104&#45;&gt;140178123092488 -->
<g id="edge11" class="edge">
<title>140178123093104&#45;&gt;140178123092488</title>
<path fill="none" stroke="#000000" d="M405.9231,-179.6875C422.5191,-184.6091 444.762,-191.2053 465.5299,-197.364"/>
<polygon fill="#000000" stroke="#000000" points="464.6753,-200.7612 475.2577,-200.2488 466.6655,-194.0501 464.6753,-200.7612"/>
</g>
<!-- 140178123093104&#45;&gt;140178123094168 -->
<g id="edge12" class="edge">
<title>140178123093104&#45;&gt;140178123094168</title>
<path fill="none" stroke="#000000" d="M401.708,-155.3822C425.9079,-136.8567 465.2809,-106.716 493.0101,-85.4888"/>
<polygon fill="#000000" stroke="#000000" points="495.3993,-88.0677 501.2122,-79.2099 491.1442,-82.5094 495.3993,-88.0677"/>
</g>
<!-- 140178123093104&#45;&gt;140179082314080 -->
<g id="edge13" class="edge">
<title>140178123093104&#45;&gt;140179082314080</title>
<path fill="none" stroke="#000000" d="M406.9336,-169.9568C421.929,-168.8192 441.298,-167.3498 459.995,-165.9314"/>
<polygon fill="#000000" stroke="#000000" points="460.2749,-169.4203 469.9814,-165.1738 459.7453,-162.4404 460.2749,-169.4203"/>
</g>
<!-- 140178123092656&#45;&gt;140178123094504 -->
<g id="edge15" class="edge">
<title>140178123092656&#45;&gt;140178123094504</title>
<path fill="none" stroke="#000000" d="M407.1671,-99.8892C462.5382,-100.2459 592.0843,-104.0653 697,-130 710.7302,-133.394 725.1225,-138.5774 738.1785,-143.9624"/>
<polygon fill="#000000" stroke="#000000" points="736.8486,-147.2002 747.4205,-147.8966 739.5903,-140.7594 736.8486,-147.2002"/>
</g>
<!-- 140178123092656&#45;&gt;140178123094168 -->
<g id="edge16" class="edge">
<title>140178123092656&#45;&gt;140178123094168</title>
<path fill="none" stroke="#000000" d="M406.2584,-92.9374C418.1749,-89.7323 432.952,-85.7577 447.9889,-81.7133"/>
<polygon fill="#000000" stroke="#000000" points="449.1326,-85.0302 457.8803,-79.0529 447.3144,-78.2704 449.1326,-85.0302"/>
</g>
<!-- 140178123092656&#45;&gt;140179082314080 -->
<g id="edge17" class="edge">
<title>140178123092656&#45;&gt;140179082314080</title>
<path fill="none" stroke="#000000" d="M404.9264,-110.4863C423.5009,-118.3004 449.5345,-129.2524 472.6146,-138.962"/>
<polygon fill="#000000" stroke="#000000" points="471.3842,-142.2415 481.959,-142.8931 474.0987,-135.7892 471.3842,-142.2415"/>
</g>
<!-- 140178109585000&#45;&gt;140178109586344 -->
<g id="edge3" class="edge">
<title>140178109585000&#45;&gt;140178109586344</title>
<path fill="none" stroke="#000000" d="M236.1238,-756.8704C226.241,-751.6685 215.812,-743.8103 209,-734 169.1565,-676.6197 220.6001,-632.1295 173,-581 166.925,-574.4745 159.3006,-569.515 151.1105,-565.6503"/>
<polygon fill="#000000" stroke="#000000" points="152.2531,-562.335 141.6758,-561.727 149.5654,-568.7984 152.2531,-562.335"/>
</g>
<!-- 140178109587072&#45;&gt;140178109586344 -->
<g id="edge5" class="edge">
<title>140178109587072&#45;&gt;140178109586344</title>
<path fill="none" stroke="#000000" d="M236.484,-683.8682C226.8819,-678.5798 216.5535,-670.9586 209,-662 183.6054,-631.8816 202.4204,-607.2 173,-581 166.4272,-575.1467 158.5962,-570.5622 150.3707,-566.8777"/>
<polygon fill="#000000" stroke="#000000" points="151.5454,-563.5775 140.9623,-563.0803 148.9255,-570.0688 151.5454,-563.5775"/>
</g>
<!-- 140178109584216&#45;&gt;140178109586344 -->
<g id="edge7" class="edge">
<title>140178109584216&#45;&gt;140178109586344</title>
<path fill="none" stroke="#000000" d="M236.7389,-610.1113C219.0591,-602.0259 195.036,-589.8808 173,-581 159.8494,-575.7001 145.2374,-570.7855 131.8228,-566.2491"/>
<polygon fill="#000000" stroke="#000000" points="132.8989,-562.9183 122.3045,-563.0126 130.6454,-569.5456 132.8989,-562.9183"/>
</g>
<!-- 140178109585560&#45;&gt;140178109586344 -->
<g id="edge9" class="edge">
<title>140178109585560&#45;&gt;140178109586344</title>
<path fill="none" stroke="#000000" d="M236.4269,-549.993C214.1175,-551.5622 181.2907,-552.0803 152.0368,-551.5472"/>
<polygon fill="#000000" stroke="#000000" points="151.9388,-548.0442 141.8614,-551.3148 151.7789,-555.0424 151.9388,-548.0442"/>
</g>
<!-- 140178109584104&#45;&gt;140178109586344 -->
<g id="edge10" class="edge">
<title>140178109584104&#45;&gt;140178109586344</title>
<path fill="none" stroke="#000000" d="M243.0552,-491.2187C225.096,-502.8868 197.7905,-517.0091 173,-527 166.1785,-529.7492 158.9637,-532.3947 151.7268,-534.8279"/>
<polygon fill="#000000" stroke="#000000" points="150.3222,-531.6033 141.8795,-538.0041 152.4711,-538.2653 150.3222,-531.6033"/>
</g>
<!-- 140178109587240&#45;&gt;140178109586344 -->
<g id="edge14" class="edge">
<title>140178109587240&#45;&gt;140178109586344</title>
<path fill="none" stroke="#000000" d="M242.4469,-418.9521C231.3758,-426.2558 218.1514,-435.1463 209,-446 183.6054,-476.1184 202.4204,-500.8 173,-527 166.6668,-532.64 159.1653,-537.1019 151.2684,-540.5478"/>
<polygon fill="#000000" stroke="#000000" points="149.9585,-537.3014 141.8628,-544.136 152.4536,-543.8417 149.9585,-537.3014"/>
</g>
<!-- 140178109583936&#45;&gt;140178109586344 -->
<g id="edge18" class="edge">
<title>140178109583936&#45;&gt;140178109586344</title>
<path fill="none" stroke="#000000" d="M241.9008,-346.1585C230.5152,-353.2945 217.1616,-362.2462 209,-374 169.1565,-431.3803 220.6001,-475.8705 173,-527 166.925,-533.5255 159.3006,-538.485 151.1105,-542.1544"/>
<polygon fill="#000000" stroke="#000000" points="149.765,-538.9217 141.6758,-545.7639 152.2662,-545.4596 149.765,-538.9217"/>
</g>
</g>
</svg>
