<?xml version="1.0" encoding="UTF-8" standalone="no"?>
<!DOCTYPE svg PUBLIC "-//W3C//DTD SVG 1.1//EN"
 "http://www.w3.org/Graphics/SVG/1.1/DTD/svg11.dtd">
<!-- Generated by graphviz version 2.40.1 (20161225.0304)
 -->
<!-- Title: imdf_net_1585321100.575757 Pages: 1 -->
<svg width="791pt" height="821pt"
 viewBox="0.00 0.00 791.00 821.00" xmlns="http://www.w3.org/2000/svg" xmlns:xlink="http://www.w3.org/1999/xlink">
<g id="graph0" class="graph" transform="scale(1 1) rotate(0) translate(4 817)">
<title>imdf_net_1585321100.575757</title>
<!-- 140531497676984 -->
<g id="node1" class="node">
<title>140531497676984</title>
<polygon fill="none" stroke="#000000" points="99,-343 0,-343 0,-307 99,-307 99,-343"/>
<text text-anchor="middle" x="49.5" y="-321.3" font-family="Times,serif" font-size="14.00" fill="#000000">ActionDecoder</text>
</g>
<!-- 140531497765464 -->
<g id="node27" class="node">
<title>140531497765464</title>
<ellipse fill="none" stroke="#000000" cx="162" cy="-435" rx="27" ry="27"/>
<text text-anchor="middle" x="162" y="-431.3" font-family="Times,serif" font-size="14.00" fill="#000000">p_6</text>
</g>
<!-- 140531497676984&#45;&gt;140531497765464 -->
<g id="edge12" class="edge">
<title>140531497676984&#45;&gt;140531497765464</title>
<path fill="none" stroke="#000000" d="M68.0771,-343.1643C86.4193,-361.0989 114.6526,-388.7047 135.3771,-408.9688"/>
<polygon fill="#000000" stroke="#000000" points="133.0435,-411.5821 142.6406,-416.0708 137.9374,-406.577 133.0435,-411.5821"/>
</g>
<!-- 140531497765688 -->
<g id="node2" class="node">
<title>140531497765688</title>
<polygon fill="none" stroke="#000000" points="747,-747 646,-747 646,-711 747,-711 747,-747"/>
<text text-anchor="middle" x="696.5" y="-725.3" font-family="Times,serif" font-size="14.00" fill="#000000">ActionMessage</text>
</g>
<!-- 140531497765688&#45;&gt;140531497765464 -->
<g id="edge5" class="edge">
<title>140531497765688&#45;&gt;140531497765464</title>
<path fill="none" stroke="#000000" d="M645.5803,-739.3011C594.8495,-748.6558 514.6211,-761 444.5,-761 342,-761 342,-761 342,-761 288.0902,-761 262.0402,-768.1701 225,-729 190.2886,-692.2926 172.0513,-543.0154 165.2202,-472.3836"/>
<polygon fill="#000000" stroke="#000000" points="168.6791,-471.7818 164.2576,-462.1537 161.7099,-472.4376 168.6791,-471.7818"/>
</g>
<!-- 140531497677824 -->
<g id="node3" class="node">
<title>140531497677824</title>
<polygon fill="none" stroke="#000000" points="743,-689 650,-689 650,-653 743,-653 743,-689"/>
<text text-anchor="middle" x="696.5" y="-667.3" font-family="Times,serif" font-size="14.00" fill="#000000">FinancialUtils</text>
</g>
<!-- 140531497677824&#45;&gt;140531497765464 -->
<g id="edge7" class="edge">
<title>140531497677824&#45;&gt;140531497765464</title>
<path fill="none" stroke="#000000" d="M649.679,-665.0535C599.1463,-659.158 516.2562,-651 444.5,-651 342,-651 342,-651 342,-651 283.9613,-651 264.3484,-635.6638 225,-593 193.2935,-558.622 176.706,-506.3124 168.6655,-471.4133"/>
<polygon fill="#000000" stroke="#000000" points="172.0802,-470.6447 166.5279,-461.6213 165.2413,-472.1377 172.0802,-470.6447"/>
</g>
<!-- 140531497766864 -->
<g id="node4" class="node">
<title>140531497766864</title>
<polygon fill="none" stroke="#000000" points="723.5,-635 669.5,-635 669.5,-599 723.5,-599 723.5,-635"/>
<text text-anchor="middle" x="696.5" y="-613.3" font-family="Times,serif" font-size="14.00" fill="#000000">Log</text>
</g>
<!-- 140531497766864&#45;&gt;140531497765464 -->
<g id="edge1" class="edge">
<title>140531497766864&#45;&gt;140531497765464</title>
<path fill="none" stroke="#000000" d="M669.28,-616.2849C623.0709,-615.1343 526.3228,-613 444.5,-613 342,-613 342,-613 342,-613 284.5411,-613 266.3129,-597.9346 225,-558 199.8804,-533.7185 182.9539,-497.2634 173.0273,-470.3402"/>
<polygon fill="#000000" stroke="#000000" points="176.3197,-469.1525 169.6846,-460.8926 169.7206,-471.4874 176.3197,-469.1525"/>
</g>
<!-- 140531497766024 -->
<g id="node5" class="node">
<title>140531497766024</title>
<polygon fill="none" stroke="#000000" points="778.5,-581 614.5,-581 614.5,-545 778.5,-545 778.5,-581"/>
<text text-anchor="middle" x="696.5" y="-559.3" font-family="Times,serif" font-size="14.00" fill="#000000">MarketSummaryDataBean</text>
</g>
<!-- 140531497766024&#45;&gt;140531497765464 -->
<g id="edge6" class="edge">
<title>140531497766024&#45;&gt;140531497765464</title>
<path fill="none" stroke="#000000" d="M614.2639,-568.8945C565.041,-571.9293 501.2204,-575 444.5,-575 342,-575 342,-575 342,-575 285.6238,-575 268.8035,-561.4897 225,-526 205.7543,-510.4071 189.9168,-487.4442 178.9349,-468.4871"/>
<polygon fill="#000000" stroke="#000000" points="181.8749,-466.5734 173.9402,-459.5526 175.7648,-469.9891 181.8749,-466.5734"/>
</g>
<!-- 140531497677488 -->
<g id="node6" class="node">
<title>140531497677488</title>
<polygon fill="none" stroke="#000000" points="777.5,-527 615.5,-527 615.5,-491 777.5,-491 777.5,-527"/>
<text text-anchor="middle" x="696.5" y="-505.3" font-family="Times,serif" font-size="14.00" fill="#000000">MarketSummarySingleton</text>
</g>
<!-- 140531497677488&#45;&gt;140531497765464 -->
<g id="edge10" class="edge">
<title>140531497677488&#45;&gt;140531497765464</title>
<path fill="none" stroke="#000000" d="M615.3247,-522.6309C566.0615,-529.7517 501.8351,-537 444.5,-537 342,-537 342,-537 342,-537 287.1872,-537 271.6266,-526.8168 225,-498 210.3208,-488.9278 196.4711,-475.7981 185.5158,-463.8704"/>
<polygon fill="#000000" stroke="#000000" points="188.0132,-461.4117 178.7549,-456.2605 182.7802,-466.061 188.0132,-461.4117"/>
</g>
<!-- 140531497677152 -->
<g id="node7" class="node">
<title>140531497677152</title>
<polygon fill="none" stroke="#000000" points="783,-473 610,-473 610,-437 783,-437 783,-473"/>
<text text-anchor="middle" x="696.5" y="-451.3" font-family="Times,serif" font-size="14.00" fill="#000000">MarketSummaryWebSocket</text>
</g>
<!-- 140531497677152&#45;&gt;140531497765464 -->
<g id="edge3" class="edge">
<title>140531497677152&#45;&gt;140531497765464</title>
<path fill="none" stroke="#000000" d="M630.1979,-473.0234C579.6952,-485.1746 508.231,-499 444.5,-499 342,-499 342,-499 342,-499 288.9173,-499 274.2167,-494.8871 225,-475 213.6653,-470.42 202.1272,-463.7819 192.0755,-457.2251"/>
<polygon fill="#000000" stroke="#000000" points="193.9115,-454.2415 183.6674,-451.5379 189.9896,-460.0397 193.9115,-454.2415"/>
</g>
<!-- 140531497766696 -->
<g id="node8" class="node">
<title>140531497766696</title>
<polygon fill="none" stroke="#000000" points="747,-419 646,-419 646,-383 747,-383 747,-419"/>
<text text-anchor="middle" x="696.5" y="-397.3" font-family="Times,serif" font-size="14.00" fill="#000000">OrderDataBean</text>
</g>
<!-- 140531497766696&#45;&gt;140531497765464 -->
<g id="edge4" class="edge">
<title>140531497766696&#45;&gt;140531497765464</title>
<path fill="none" stroke="#000000" d="M645.9952,-416.1276C634.1361,-419.8555 621.5818,-423.9457 610,-428 593.7968,-433.672 590.5978,-437.6151 574,-442 517.7579,-456.8584 502.6717,-461 444.5,-461 342,-461 342,-461 342,-461 291.8529,-461 234.6471,-450.9927 198.4424,-443.3952"/>
<polygon fill="#000000" stroke="#000000" points="198.8741,-439.9081 188.3617,-441.2276 197.4025,-446.7517 198.8741,-439.9081"/>
</g>
<!-- 140531497765856 -->
<g id="node9" class="node">
<title>140531497765856</title>
<polygon fill="none" stroke="#000000" points="751.5,-365 641.5,-365 641.5,-329 751.5,-329 751.5,-365"/>
<text text-anchor="middle" x="696.5" y="-343.3" font-family="Times,serif" font-size="14.00" fill="#000000">OrdersAlertFilter</text>
</g>
<!-- 140531497765856&#45;&gt;140531497765464 -->
<g id="edge14" class="edge">
<title>140531497765856&#45;&gt;140531497765464</title>
<path fill="none" stroke="#000000" d="M641.4459,-348.3766C590.3963,-349.5336 512.321,-351 444.5,-351 342,-351 342,-351 342,-351 288.0902,-351 272.8549,-358.177 225,-383 212.0587,-389.7128 199.3523,-399.4192 188.7788,-408.6326"/>
<polygon fill="#000000" stroke="#000000" points="186.2205,-406.2268 181.1404,-415.5243 190.9097,-411.424 186.2205,-406.2268"/>
</g>
<!-- 140531497677656 -->
<g id="node10" class="node">
<title>140531497677656</title>
<polygon fill="none" stroke="#000000" points="748,-311 645,-311 645,-275 748,-275 748,-311"/>
<text text-anchor="middle" x="696.5" y="-289.3" font-family="Times,serif" font-size="14.00" fill="#000000">QuoteDataBean</text>
</g>
<!-- 140531497677656&#45;&gt;140531497765464 -->
<g id="edge2" class="edge">
<title>140531497677656&#45;&gt;140531497765464</title>
<path fill="none" stroke="#000000" d="M644.6446,-277.3808C633.1915,-273.7735 621.1502,-269.8584 610,-266 535.6226,-240.2625 523.2046,-203 444.5,-203 342,-203 342,-203 342,-203 282.297,-203 263.9145,-223.7219 225,-269 207.7944,-289.0192 185.4124,-356.5518 172.4814,-399.0624"/>
<polygon fill="#000000" stroke="#000000" points="169.0913,-398.1822 169.5612,-408.7666 175.7944,-400.1994 169.0913,-398.1822"/>
</g>
<!-- 140531497766528 -->
<g id="node11" class="node">
<title>140531497766528</title>
<polygon fill="none" stroke="#000000" points="770,-257 623,-257 623,-221 770,-221 770,-257"/>
<text text-anchor="middle" x="696.5" y="-235.3" font-family="Times,serif" font-size="14.00" fill="#000000">RecentStockChangeList</text>
</g>
<!-- 140531497766528&#45;&gt;140531497765464 -->
<g id="edge9" class="edge">
<title>140531497766528&#45;&gt;140531497765464</title>
<path fill="none" stroke="#000000" d="M638.2429,-220.9922C566.947,-199.088 454.4032,-165 444.5,-165 342,-165 342,-165 342,-165 285.794,-165 262.44,-171.0792 225,-213 218.6931,-220.0618 187.3403,-337.7761 171.3757,-398.852"/>
<polygon fill="#000000" stroke="#000000" points="167.9049,-398.2912 168.7673,-408.8508 174.6782,-400.0582 167.9049,-398.2912"/>
</g>
<!-- 140531497765408 -->
<g id="node12" class="node">
<title>140531497765408</title>
<polygon fill="none" stroke="#000000" points="471.5,-724 417.5,-724 417.5,-688 471.5,-688 471.5,-724"/>
<text text-anchor="middle" x="444.5" y="-702.3" font-family="Times,serif" font-size="14.00" fill="#000000">Root</text>
</g>
<!-- 140531496563992 -->
<g id="node29" class="node">
<title>140531496563992</title>
<ellipse fill="#ffa500" stroke="#000000" cx="547" cy="-706" rx="27" ry="27"/>
</g>
<!-- 140531497765408&#45;&gt;140531496563992 -->
<g id="edge8" class="edge">
<title>140531497765408&#45;&gt;140531496563992</title>
<path fill="none" stroke="#000000" d="M471.699,-706C483.2828,-706 496.9866,-706 509.5073,-706"/>
<polygon fill="#000000" stroke="#000000" points="509.6739,-709.5001 519.6739,-706 509.6739,-702.5001 509.6739,-709.5001"/>
</g>
<!-- 140531497677992 -->
<g id="node13" class="node">
<title>140531497677992</title>
<polygon fill="none" stroke="#000000" points="739,-203 654,-203 654,-167 739,-167 739,-203"/>
<text text-anchor="middle" x="696.5" y="-181.3" font-family="Times,serif" font-size="14.00" fill="#000000">TradeAction</text>
</g>
<!-- 140531497677992&#45;&gt;140531497765464 -->
<g id="edge16" class="edge">
<title>140531497677992&#45;&gt;140531497765464</title>
<path fill="none" stroke="#000000" d="M653.9929,-172.7706C593.3757,-155.754 484.9606,-127 444.5,-127 342,-127 342,-127 342,-127 286.8996,-127 261.5354,-126.7542 225,-168 175.5188,-223.8606 206.4647,-259.4481 189,-332 183.6211,-354.3452 177.0985,-379.28 171.8118,-399.0187"/>
<polygon fill="#000000" stroke="#000000" points="168.3915,-398.2599 169.1724,-408.826 175.151,-400.0791 168.3915,-398.2599"/>
</g>
<!-- 140531497766192 -->
<g id="node14" class="node">
<title>140531497766192</title>
<polygon fill="none" stroke="#000000" points="751.5,-148 641.5,-148 641.5,-112 751.5,-112 751.5,-148"/>
<text text-anchor="middle" x="696.5" y="-126.3" font-family="Times,serif" font-size="14.00" fill="#000000">TradeAppServlet</text>
</g>
<!-- 140531497766192&#45;&gt;140531497765464 -->
<g id="edge11" class="edge">
<title>140531497766192&#45;&gt;140531497765464</title>
<path fill="none" stroke="#000000" d="M641.3662,-115.7753C590.5908,-103.9335 512.9825,-89 444.5,-89 342,-89 342,-89 342,-89 287.3261,-89 260.8574,-85.7268 225,-127 164.3311,-196.8321 208.745,-241.6265 189,-332 184.0942,-354.4538 177.5852,-379.3917 172.1873,-399.1049"/>
<polygon fill="#000000" stroke="#000000" points="168.7716,-398.3255 169.4802,-408.8966 175.5185,-400.1909 168.7716,-398.3255"/>
</g>
<!-- 140531497678160 -->
<g id="node15" class="node">
<title>140531497678160</title>
<polygon fill="none" stroke="#000000" points="739.5,-93 653.5,-93 653.5,-57 739.5,-57 739.5,-93"/>
<text text-anchor="middle" x="696.5" y="-71.3" font-family="Times,serif" font-size="14.00" fill="#000000">TradeConfig</text>
</g>
<!-- 140531497678160&#45;&gt;140531497765464 -->
<g id="edge17" class="edge">
<title>140531497678160&#45;&gt;140531497765464</title>
<path fill="none" stroke="#000000" d="M653.3654,-68.3784C603.2787,-61.2745 518.1128,-51 444.5,-51 342,-51 342,-51 342,-51 287.3261,-51 260.302,-47.2507 225,-89 189.7525,-130.6847 199.9374,-278.5175 189,-332 184.3951,-354.5174 177.8947,-379.4572 172.4261,-399.1554"/>
<polygon fill="#000000" stroke="#000000" points="169.013,-398.3639 169.6759,-408.938 175.7517,-400.2585 169.013,-398.3639"/>
</g>
<!-- 140531497766360 -->
<g id="node16" class="node">
<title>140531497766360</title>
<polygon fill="none" stroke="#000000" points="750.5,-36 642.5,-36 642.5,0 750.5,0 750.5,-36"/>
<text text-anchor="middle" x="696.5" y="-14.3" font-family="Times,serif" font-size="14.00" fill="#000000">TradeSLSBBean</text>
</g>
<!-- 140531497766360&#45;&gt;140531497765464 -->
<g id="edge15" class="edge">
<title>140531497766360&#45;&gt;140531497765464</title>
<path fill="none" stroke="#000000" d="M642.4328,-16.3072C591.408,-14.8567 512.7634,-13 444.5,-13 342,-13 342,-13 342,-13 287.4618,-13 259.9565,-8.1376 225,-50 184.5076,-98.492 201.0348,-269.9817 189,-332 184.6217,-354.5626 178.1278,-379.5036 172.6059,-399.1913"/>
<polygon fill="#000000" stroke="#000000" points="169.1947,-398.3912 169.8233,-408.9674 175.9273,-400.3076 169.1947,-398.3912"/>
</g>
<!-- 140531497677320 -->
<g id="node17" class="node">
<title>140531497677320</title>
<polygon fill="none" stroke="#000000" points="758,-813 635,-813 635,-777 758,-777 758,-813"/>
<text text-anchor="middle" x="696.5" y="-791.3" font-family="Times,serif" font-size="14.00" fill="#000000">TradeServletAction</text>
</g>
<!-- 140531497677320&#45;&gt;140531497765464 -->
<g id="edge13" class="edge">
<title>140531497677320&#45;&gt;140531497765464</title>
<path fill="none" stroke="#000000" d="M634.8837,-796.5236C583.8661,-797.654 509.4769,-799 444.5,-799 342,-799 342,-799 342,-799 286.8996,-799 261.0492,-799.6714 225,-758 188.2291,-715.4942 170.7668,-547.5423 164.6532,-472.071"/>
<polygon fill="#000000" stroke="#000000" points="168.139,-471.7526 163.865,-462.0581 161.1606,-472.302 168.139,-471.7526"/>
</g>
<!-- 140531496430560 -->
<g id="node18" class="node">
<title>140531496430560</title>
<polygon fill="none" stroke="#000000" points="484,-319 405,-319 405,-283 484,-283 484,-319"/>
<text text-anchor="middle" x="444.5" y="-297.3" font-family="Times,serif" font-size="14.00" fill="#000000">init_loop_2</text>
</g>
<!-- 140531496430168 -->
<g id="node26" class="node">
<title>140531496430168</title>
<ellipse fill="none" stroke="#000000" cx="547" cy="-406" rx="27" ry="27"/>
<text text-anchor="middle" x="547" y="-402.3" font-family="Times,serif" font-size="14.00" fill="#000000">p_5</text>
</g>
<!-- 140531496430560&#45;&gt;140531496430168 -->
<g id="edge18" class="edge">
<title>140531496430560&#45;&gt;140531496430168</title>
<path fill="none" stroke="#000000" d="M462.3541,-319.2896C478.4142,-335.7414 502.2238,-360.1317 520.5037,-378.8575"/>
<polygon fill="#000000" stroke="#000000" points="518.4708,-381.7855 527.9608,-386.4964 523.4799,-376.8957 518.4708,-381.7855"/>
</g>
<!-- 140531497765352 -->
<g id="node19" class="node">
<title>140531497765352</title>
<polygon fill="none" stroke="#000000" points="471.5,-424 417.5,-424 417.5,-388 471.5,-388 471.5,-424"/>
<text text-anchor="middle" x="444.5" y="-402.3" font-family="Times,serif" font-size="14.00" fill="#000000">loop_3</text>
</g>
<!-- 140531497765352&#45;&gt;140531496430168 -->
<g id="edge19" class="edge">
<title>140531497765352&#45;&gt;140531496430168</title>
<path fill="none" stroke="#000000" d="M471.699,-406C483.2828,-406 496.9866,-406 509.5073,-406"/>
<polygon fill="#000000" stroke="#000000" points="509.6739,-409.5001 519.6739,-406 509.6739,-402.5001 509.6739,-409.5001"/>
</g>
<!-- 140531497678384 -->
<g id="node20" class="node">
<title>140531497678384</title>
<polygon fill="none" stroke="#000000" points="279,-428 225,-428 225,-392 279,-392 279,-428"/>
<text text-anchor="middle" x="252" y="-406.3" font-family="Times,serif" font-size="14.00" fill="#000000">skip_4</text>
</g>
<!-- 140531497765576 -->
<g id="node28" class="node">
<title>140531497765576</title>
<ellipse fill="none" stroke="#000000" cx="342" cy="-406" rx="27" ry="27"/>
<text text-anchor="middle" x="342" y="-402.3" font-family="Times,serif" font-size="14.00" fill="#000000">p_7</text>
</g>
<!-- 140531497678384&#45;&gt;140531497765576 -->
<g id="edge41" class="edge">
<title>140531497678384&#45;&gt;140531497765576</title>
<path fill="none" stroke="#000000" d="M279.003,-408.7999C287.1013,-408.4399 296.1306,-408.0386 304.7665,-407.6548"/>
<polygon fill="#000000" stroke="#000000" points="305.1814,-411.1399 315.0161,-407.1993 304.8705,-404.1468 305.1814,-411.1399"/>
</g>
<!-- 140531497678608 -->
<g id="node21" class="node">
<title>140531497678608</title>
<polygon fill="none" stroke="#000000" points="279,-720 225,-720 225,-684 279,-684 279,-720"/>
<text text-anchor="middle" x="252" y="-698.3" font-family="Times,serif" font-size="14.00" fill="#000000">skip_5</text>
</g>
<!-- 140531496430448 -->
<g id="node25" class="node">
<title>140531496430448</title>
<ellipse fill="none" stroke="#000000" cx="342" cy="-706" rx="27" ry="27"/>
<text text-anchor="middle" x="342" y="-702.3" font-family="Times,serif" font-size="14.00" fill="#000000">p_4</text>
</g>
<!-- 140531497678608&#45;&gt;140531496430448 -->
<g id="edge42" class="edge">
<title>140531497678608&#45;&gt;140531496430448</title>
<path fill="none" stroke="#000000" d="M279.003,-703.2001C287.1013,-703.5601 296.1306,-703.9614 304.7665,-704.3452"/>
<polygon fill="#000000" stroke="#000000" points="304.8705,-707.8532 315.0161,-704.8007 305.1814,-700.8601 304.8705,-707.8532"/>
</g>
<!-- 140531496430840 -->
<g id="node22" class="node">
<title>140531496430840</title>
<polygon fill="none" stroke="#000000" points="279,-314 225,-314 225,-278 279,-278 279,-314"/>
<text text-anchor="middle" x="252" y="-292.3" font-family="Times,serif" font-size="14.00" fill="#000000">tau_1</text>
</g>
<!-- 140531496564160 -->
<g id="node24" class="node">
<title>140531496564160</title>
<ellipse fill="none" stroke="#000000" cx="342" cy="-296" rx="27" ry="27"/>
<text text-anchor="middle" x="342" y="-292.3" font-family="Times,serif" font-size="14.00" fill="#000000">p_3</text>
</g>
<!-- 140531496430840&#45;&gt;140531496564160 -->
<g id="edge44" class="edge">
<title>140531496430840&#45;&gt;140531496564160</title>
<path fill="none" stroke="#000000" d="M279.003,-296C287.0277,-296 295.9665,-296 304.5309,-296"/>
<polygon fill="#000000" stroke="#000000" points="304.7051,-299.5001 314.705,-296 304.705,-292.5001 304.7051,-299.5001"/>
</g>
<!-- 140531496564104 -->
<g id="node23" class="node">
<title>140531496564104</title>
<ellipse fill="#00ff00" stroke="#000000" cx="162" cy="-296" rx="27" ry="27"/>
<text text-anchor="middle" x="162" y="-292.3" font-family="Times,serif" font-size="14.00" fill="#000000">1</text>
</g>
<!-- 140531496564104&#45;&gt;140531496430840 -->
<g id="edge43" class="edge">
<title>140531496564104&#45;&gt;140531496430840</title>
<path fill="none" stroke="#000000" d="M189.003,-296C197.0277,-296 205.9665,-296 214.5309,-296"/>
<polygon fill="#000000" stroke="#000000" points="214.7051,-299.5001 224.705,-296 214.705,-292.5001 214.7051,-299.5001"/>
</g>
<!-- 140531496564160&#45;&gt;140531496430560 -->
<g id="edge20" class="edge">
<title>140531496564160&#45;&gt;140531496430560</title>
<path fill="none" stroke="#000000" d="M369.199,-297.3268C377.0426,-297.7094 385.8582,-298.1394 394.6204,-298.5668"/>
<polygon fill="#000000" stroke="#000000" points="394.6617,-302.0729 404.8204,-299.0644 395.0028,-295.0812 394.6617,-302.0729"/>
</g>
<!-- 140531496430448&#45;&gt;140531497765408 -->
<g id="edge21" class="edge">
<title>140531496430448&#45;&gt;140531497765408</title>
<path fill="none" stroke="#000000" d="M369.199,-706C380.7828,-706 394.4866,-706 407.0073,-706"/>
<polygon fill="#000000" stroke="#000000" points="407.1739,-709.5001 417.1739,-706 407.1739,-702.5001 407.1739,-709.5001"/>
</g>
<!-- 140531496430168&#45;&gt;140531497676984 -->
<g id="edge32" class="edge">
<title>140531496430168&#45;&gt;140531497676984</title>
<path fill="none" stroke="#000000" d="M541.5732,-379.4032C533.9939,-349.2191 517.2539,-300.7221 484,-274 433.4935,-233.4141 406.7929,-241 342,-241 252,-241 252,-241 252,-241 199.3188,-241 183.409,-239.2183 135,-260 112.968,-269.4583 91.4977,-285.8141 75.5834,-299.7521"/>
<polygon fill="#000000" stroke="#000000" points="72.88,-297.4767 67.7941,-306.771 77.566,-302.6769 72.88,-297.4767"/>
</g>
<!-- 140531496430168&#45;&gt;140531497765688 -->
<g id="edge26" class="edge">
<title>140531496430168&#45;&gt;140531497765688</title>
<path fill="none" stroke="#000000" d="M549.5218,-433.2743C556.0206,-497.9984 575.3072,-658.4114 610,-698 617.0115,-706.0009 626.2398,-711.937 636.0543,-716.3412"/>
<polygon fill="#000000" stroke="#000000" points="635.0039,-719.6895 645.5904,-720.1116 637.5778,-713.1798 635.0039,-719.6895"/>
</g>
<!-- 140531496430168&#45;&gt;140531497677824 -->
<g id="edge28" class="edge">
<title>140531496430168&#45;&gt;140531497677824</title>
<path fill="none" stroke="#000000" d="M550.7938,-432.8278C559.1646,-488.4095 580.8147,-613.5081 610,-644 618.0769,-652.4385 628.7452,-658.2533 639.8222,-662.2566"/>
<polygon fill="#000000" stroke="#000000" points="639.0176,-665.6723 649.6069,-665.3286 641.1145,-658.9938 639.0176,-665.6723"/>
</g>
<!-- 140531496430168&#45;&gt;140531497766864 -->
<g id="edge22" class="edge">
<title>140531496430168&#45;&gt;140531497766864</title>
<path fill="none" stroke="#000000" d="M548.7752,-433.1506C552.8421,-473.0469 566.199,-547.3798 610,-590 623.1654,-602.8105 642.3165,-609.552 659.254,-613.0957"/>
<polygon fill="#000000" stroke="#000000" points="658.9811,-616.6022 669.4407,-614.9146 660.2116,-609.7112 658.9811,-616.6022"/>
</g>
<!-- 140531496430168&#45;&gt;140531497766024 -->
<g id="edge27" class="edge">
<title>140531496430168&#45;&gt;140531497766024</title>
<path fill="none" stroke="#000000" d="M553.1151,-432.5653C561.2276,-461.9535 578.3605,-508.7475 610,-536 611.3522,-537.1647 612.7543,-538.2791 614.1994,-539.3456"/>
<polygon fill="#000000" stroke="#000000" points="612.5928,-542.4738 622.8958,-544.9431 616.3814,-536.5876 612.5928,-542.4738"/>
</g>
<!-- 140531496430168&#45;&gt;140531497677488 -->
<g id="edge30" class="edge">
<title>140531496430168&#45;&gt;140531497677488</title>
<path fill="none" stroke="#000000" d="M561.0896,-429.3737C572.3715,-446.2378 589.6437,-468.3525 610,-482 612.1724,-483.4564 614.4274,-484.8376 616.7452,-486.1471"/>
<polygon fill="#000000" stroke="#000000" points="615.4565,-489.4189 625.9542,-490.8503 618.6404,-483.1848 615.4565,-489.4189"/>
</g>
<!-- 140531496430168&#45;&gt;140531497677152 -->
<g id="edge24" class="edge">
<title>140531496430168&#45;&gt;140531497677152</title>
<path fill="none" stroke="#000000" d="M572.6813,-415.186C584.0817,-419.2075 597.6802,-423.9275 610,-428 615.8814,-429.9442 622,-431.9291 628.1435,-433.8962"/>
<polygon fill="#000000" stroke="#000000" points="627.1974,-437.2679 637.7878,-436.9641 629.3194,-430.5973 627.1974,-437.2679"/>
</g>
<!-- 140531496430168&#45;&gt;140531497766696 -->
<g id="edge25" class="edge">
<title>140531496430168&#45;&gt;140531497766696</title>
<path fill="none" stroke="#000000" d="M574.0733,-405.0945C591.289,-404.5188 614.2953,-403.7493 635.7153,-403.0329"/>
<polygon fill="#000000" stroke="#000000" points="635.8661,-406.5299 645.7435,-402.6975 635.6321,-399.5339 635.8661,-406.5299"/>
</g>
<!-- 140531496430168&#45;&gt;140531497765856 -->
<g id="edge34" class="edge">
<title>140531496430168&#45;&gt;140531497765856</title>
<path fill="none" stroke="#000000" d="M570.7914,-392.725C582.4026,-386.556 596.7045,-379.4073 610,-374 616.8128,-371.2293 624.022,-368.5701 631.2557,-366.0741"/>
<polygon fill="#000000" stroke="#000000" points="632.7296,-369.2716 641.1,-362.7765 630.5061,-362.6341 632.7296,-369.2716"/>
</g>
<!-- 140531496430168&#45;&gt;140531497677656 -->
<g id="edge23" class="edge">
<title>140531496430168&#45;&gt;140531497677656</title>
<path fill="none" stroke="#000000" d="M559.2785,-381.5007C570.1407,-362.183 587.715,-335.9281 610,-320 617.5193,-314.6256 626.143,-310.296 634.9683,-306.8146"/>
<polygon fill="#000000" stroke="#000000" points="636.3535,-310.036 644.5809,-303.3606 633.9864,-303.4484 636.3535,-310.036"/>
</g>
<!-- 140531496430168&#45;&gt;140531497766528 -->
<g id="edge29" class="edge">
<title>140531496430168&#45;&gt;140531497766528</title>
<path fill="none" stroke="#000000" d="M552.0728,-379.3922C559.4369,-347.9305 576.0927,-296.0553 610,-266 611.3355,-264.8162 612.7224,-263.6844 614.1537,-262.6021"/>
<polygon fill="#000000" stroke="#000000" points="616.35,-265.347 622.7854,-256.9305 612.506,-259.4968 616.35,-265.347"/>
</g>
<!-- 140531496430168&#45;&gt;140531497677992 -->
<g id="edge36" class="edge">
<title>140531496430168&#45;&gt;140531497677992</title>
<path fill="none" stroke="#000000" d="M552.4707,-379.429C562.718,-332.065 585.9503,-235.776 610,-212 619.2691,-202.8363 631.5987,-196.7761 644.037,-192.7703"/>
<polygon fill="#000000" stroke="#000000" points="645.298,-196.0516 653.9791,-189.9781 643.4052,-189.3124 645.298,-196.0516"/>
</g>
<!-- 140531496430168&#45;&gt;140531497766192 -->
<g id="edge31" class="edge">
<title>140531496430168&#45;&gt;140531497766192</title>
<path fill="none" stroke="#000000" d="M550.5428,-378.9537C558.5748,-321.553 579.8417,-190.1621 610,-158 616.1188,-151.4746 623.7676,-146.4662 631.9691,-142.6228"/>
<polygon fill="#000000" stroke="#000000" points="633.4815,-145.7857 641.4116,-138.7598 630.8309,-139.3069 633.4815,-145.7857"/>
</g>
<!-- 140531496430168&#45;&gt;140531497678160 -->
<g id="edge37" class="edge">
<title>140531496430168&#45;&gt;140531497678160</title>
<path fill="none" stroke="#000000" d="M549.2114,-378.6224C555.1244,-311.9782 573.3971,-143.7882 610,-103 618.7345,-93.2668 630.8755,-86.9009 643.3033,-82.7422"/>
<polygon fill="#000000" stroke="#000000" points="644.6387,-85.9994 653.2719,-79.858 642.6932,-79.2752 644.6387,-85.9994"/>
</g>
<!-- 140531496430168&#45;&gt;140531497766360 -->
<g id="edge35" class="edge">
<title>140531496430168&#45;&gt;140531497766360</title>
<path fill="none" stroke="#000000" d="M548.2956,-378.7711C552.378,-304.0586 567.3371,-98.0818 610,-48 616.1965,-40.7259 624.2529,-35.2139 632.9539,-31.0374"/>
<polygon fill="#000000" stroke="#000000" points="634.3405,-34.2512 642.2038,-27.1506 631.6287,-27.7978 634.3405,-34.2512"/>
</g>
<!-- 140531496430168&#45;&gt;140531497677320 -->
<g id="edge33" class="edge">
<title>140531496430168&#45;&gt;140531497677320</title>
<path fill="none" stroke="#000000" d="M548.6476,-432.9609C553.5966,-505.9626 570.4971,-705.3794 610,-756 614.6682,-761.982 620.457,-767.074 626.8119,-771.4025"/>
<polygon fill="#000000" stroke="#000000" points="625.412,-774.6471 635.7766,-776.8437 629.0441,-768.6631 625.412,-774.6471"/>
</g>
<!-- 140531497765464&#45;&gt;140531497678384 -->
<g id="edge38" class="edge">
<title>140531497765464&#45;&gt;140531497678384</title>
<path fill="none" stroke="#000000" d="M188.0317,-427.769C196.4054,-425.4429 205.8517,-422.819 214.8638,-420.3156"/>
<polygon fill="#000000" stroke="#000000" points="216.0754,-423.6117 224.7738,-417.5628 214.2018,-416.867 216.0754,-423.6117"/>
</g>
<!-- 140531497765464&#45;&gt;140531497678608 -->
<g id="edge39" class="edge">
<title>140531497765464&#45;&gt;140531497678608</title>
<path fill="none" stroke="#000000" d="M166.1195,-461.9798C173.5651,-506.1271 191.6724,-595.8086 225,-665 226.6499,-668.4254 228.6254,-671.862 230.7472,-675.186"/>
<polygon fill="#000000" stroke="#000000" points="228.0204,-677.3969 236.5825,-683.6372 233.7807,-673.4195 228.0204,-677.3969"/>
</g>
<!-- 140531497765576&#45;&gt;140531497765352 -->
<g id="edge40" class="edge">
<title>140531497765576&#45;&gt;140531497765352</title>
<path fill="none" stroke="#000000" d="M369.199,-406C380.7828,-406 394.4866,-406 407.0073,-406"/>
<polygon fill="#000000" stroke="#000000" points="407.1739,-409.5001 417.1739,-406 407.1739,-402.5001 407.1739,-409.5001"/>
</g>
</g>
</svg>
