<?xml version="1.0" encoding="UTF-8" standalone="no"?>
<!DOCTYPE svg PUBLIC "-//W3C//DTD SVG 1.1//EN"
 "http://www.w3.org/Graphics/SVG/1.1/DTD/svg11.dtd">
<!-- Generated by graphviz version 2.40.1 (20161225.0304)
 -->
<!-- Title: alpha_classic_net_1586496251.4314582 Pages: 1 -->
<svg width="1031pt" height="1088pt"
 viewBox="0.00 0.00 1031.00 1088.00" xmlns="http://www.w3.org/2000/svg" xmlns:xlink="http://www.w3.org/1999/xlink">
<g id="graph0" class="graph" transform="scale(1 1) rotate(0) translate(4 1084)">
<title>alpha_classic_net_1586496251.4314582</title>
<!-- 139748202265792 -->
<g id="node1" class="node">
<title>139748202265792</title>
<polygon fill="none" stroke="#000000" points="316,-36 105,-36 105,0 316,0 316,-36"/>
<text text-anchor="middle" x="210.5" y="-14.3" font-family="Times,serif" font-size="14.00" fill="#000000">FinancialUtils:computeGainPercent</text>
</g>
<!-- 139748204552264 -->
<g id="node2" class="node">
<title>139748204552264</title>
<polygon fill="none" stroke="#000000" points="253.5,-90 167.5,-90 167.5,-54 253.5,-54 253.5,-90"/>
<text text-anchor="middle" x="210.5" y="-68.3" font-family="Times,serif" font-size="14.00" fill="#000000">Log:doTrace</text>
</g>
<!-- 139748204552320 -->
<g id="node3" class="node">
<title>139748204552320</title>
<polygon fill="none" stroke="#000000" points="255,-144 166,-144 166,-108 255,-108 255,-144"/>
<text text-anchor="middle" x="210.5" y="-122.3" font-family="Times,serif" font-size="14.00" fill="#000000">Log:getTrace</text>
</g>
<!-- 139748204552376 -->
<g id="node4" class="node">
<title>139748204552376</title>
<polygon fill="none" stroke="#000000" points="421,-198 0,-198 0,-162 421,-162 421,-198"/>
<text text-anchor="middle" x="210.5" y="-176.3" font-family="Times,serif" font-size="14.00" fill="#000000">MarketSummaryDataBean:MarketSummaryDataBean [overloaded_#002]</text>
</g>
<!-- 139748202266464 -->
<g id="node5" class="node">
<title>139748202266464</title>
<polygon fill="none" stroke="#000000" points="332,-252 89,-252 89,-216 332,-216 332,-252"/>
<text text-anchor="middle" x="210.5" y="-230.3" font-family="Times,serif" font-size="14.00" fill="#000000">MarketSummaryDataBean:getOpenTSIA</text>
</g>
<!-- 139748204552600 -->
<g id="node6" class="node">
<title>139748204552600</title>
<polygon fill="none" stroke="#000000" points="317.5,-306 103.5,-306 103.5,-270 317.5,-270 317.5,-306"/>
<text text-anchor="middle" x="210.5" y="-284.3" font-family="Times,serif" font-size="14.00" fill="#000000">MarketSummaryDataBean:getTSIA</text>
</g>
<!-- 139748204552712 -->
<g id="node7" class="node">
<title>139748204552712</title>
<polygon fill="none" stroke="#000000" points="331.5,-360 89.5,-360 89.5,-324 331.5,-324 331.5,-360"/>
<text text-anchor="middle" x="210.5" y="-338.3" font-family="Times,serif" font-size="14.00" fill="#000000">MarketSummaryDataBean:setOpenTSIA</text>
</g>
<!-- 139748202266352 -->
<g id="node8" class="node">
<title>139748202266352</title>
<polygon fill="none" stroke="#000000" points="341.5,-414 79.5,-414 79.5,-378 341.5,-378 341.5,-414"/>
<text text-anchor="middle" x="210.5" y="-392.3" font-family="Times,serif" font-size="14.00" fill="#000000">MarketSummaryDataBean:setSummaryDate</text>
</g>
<!-- 139748202266408 -->
<g id="node9" class="node">
<title>139748202266408</title>
<polygon fill="none" stroke="#000000" points="316.5,-468 104.5,-468 104.5,-432 316.5,-432 316.5,-468"/>
<text text-anchor="middle" x="210.5" y="-446.3" font-family="Times,serif" font-size="14.00" fill="#000000">MarketSummaryDataBean:setTSIA</text>
</g>
<!-- 139748204552488 -->
<g id="node10" class="node">
<title>139748204552488</title>
<polygon fill="none" stroke="#000000" points="333.5,-522 87.5,-522 87.5,-486 333.5,-486 333.5,-522"/>
<text text-anchor="middle" x="210.5" y="-500.3" font-family="Times,serif" font-size="14.00" fill="#000000">MarketSummaryDataBean:setTopGainers</text>
</g>
<!-- 139748204552544 -->
<g id="node11" class="node">
<title>139748204552544</title>
<polygon fill="none" stroke="#000000" points="330.5,-576 90.5,-576 90.5,-540 330.5,-540 330.5,-576"/>
<text text-anchor="middle" x="210.5" y="-554.3" font-family="Times,serif" font-size="14.00" fill="#000000">MarketSummaryDataBean:setTopLosers</text>
</g>
<!-- 139748202266296 -->
<g id="node12" class="node">
<title>139748202266296</title>
<polygon fill="none" stroke="#000000" points="324,-630 97,-630 97,-594 324,-594 324,-630"/>
<text text-anchor="middle" x="210.5" y="-608.3" font-family="Times,serif" font-size="14.00" fill="#000000">MarketSummaryDataBean:setVolume</text>
</g>
<!-- 139748204552656 -->
<g id="node13" class="node">
<title>139748204552656</title>
<polygon fill="none" stroke="#000000" points="374.5,-684 46.5,-684 46.5,-648 374.5,-648 374.5,-684"/>
<text text-anchor="middle" x="210.5" y="-662.3" font-family="Times,serif" font-size="14.00" fill="#000000">MarketSummarySingleton:setMarketSummaryDataBean</text>
</g>
<!-- 139748204552432 -->
<g id="node14" class="node">
<title>139748204552432</title>
<polygon fill="none" stroke="#000000" points="753,-801 457,-801 457,-765 753,-765 753,-801"/>
<text text-anchor="middle" x="605" y="-779.3" font-family="Times,serif" font-size="14.00" fill="#000000">MarketSummarySingleton:updateMarketSummary</text>
</g>
<!-- 139748204553216 -->
<g id="node25" class="node">
<title>139748204553216</title>
<ellipse fill="none" stroke="#000000" cx="816" cy="-729" rx="27" ry="27"/>
<text text-anchor="middle" x="816" y="-725.3" font-family="Times,serif" font-size="14.00" fill="#000000">({&#39;MarketSummarySingleton:updateMarketSummary&#39;, &#39;PingServletWriter:doGet&#39;, &#39;PingServletWriter:init&#39;}, {&#39;Root&#39;})</text>
</g>
<!-- 139748204552432&#45;&gt;139748204553216 -->
<g id="edge2" class="edge">
<title>139748204552432&#45;&gt;139748204553216</title>
<path fill="none" stroke="#000000" d="M718.7484,-764.9401C730.4034,-762.2891 741.9965,-759.3156 753,-756 762.7246,-753.0697 772.9678,-749.0921 782.3027,-745.0913"/>
<polygon fill="#000000" stroke="#000000" points="783.9151,-748.2052 791.6422,-740.9564 781.0813,-741.8044 783.9151,-748.2052"/>
</g>
<!-- 139748204552768 -->
<g id="node15" class="node">
<title>139748204552768</title>
<polygon fill="none" stroke="#000000" points="681,-747 529,-747 529,-711 681,-711 681,-747"/>
<text text-anchor="middle" x="605" y="-725.3" font-family="Times,serif" font-size="14.00" fill="#000000">PingServletWriter:doGet</text>
</g>
<!-- 139748204552768&#45;&gt;139748204553216 -->
<g id="edge3" class="edge">
<title>139748204552768&#45;&gt;139748204553216</title>
<path fill="none" stroke="#000000" d="M681.1758,-729C714.3148,-729 751.6469,-729 778.6109,-729"/>
<polygon fill="#000000" stroke="#000000" points="778.7666,-732.5001 788.7666,-729 778.7666,-725.5001 778.7666,-732.5001"/>
</g>
<!-- 139748202266520 -->
<g id="node16" class="node">
<title>139748202266520</title>
<polygon fill="none" stroke="#000000" points="673.5,-693 536.5,-693 536.5,-657 673.5,-657 673.5,-693"/>
<text text-anchor="middle" x="605" y="-671.3" font-family="Times,serif" font-size="14.00" fill="#000000">PingServletWriter:init</text>
</g>
<!-- 139748202266520&#45;&gt;139748204553216 -->
<g id="edge4" class="edge">
<title>139748202266520&#45;&gt;139748204553216</title>
<path fill="none" stroke="#000000" d="M673.5444,-684.2124C698.8153,-688.4663 727.492,-694.3138 753,-702 762.7246,-704.9303 772.9678,-708.9079 782.3027,-712.9087"/>
<polygon fill="#000000" stroke="#000000" points="781.0813,-716.1956 791.6422,-717.0436 783.9151,-709.7948 781.0813,-716.1956"/>
</g>
<!-- 139748202266240 -->
<g id="node17" class="node">
<title>139748202266240</title>
<polygon fill="none" stroke="#000000" points="360,-810 61,-810 61,-774 360,-774 360,-810"/>
<text text-anchor="middle" x="210.5" y="-788.3" font-family="Times,serif" font-size="14.00" fill="#000000">QuoteDataBean:QuoteDataBean [overloaded_#001]</text>
</g>
<!-- 139748202266576 -->
<g id="node18" class="node">
<title>139748202266576</title>
<polygon fill="none" stroke="#000000" points="286.5,-864 134.5,-864 134.5,-828 286.5,-828 286.5,-864"/>
<text text-anchor="middle" x="210.5" y="-842.3" font-family="Times,serif" font-size="14.00" fill="#000000">QuoteDataBean:getOpen</text>
</g>
<!-- 139748202266128 -->
<g id="node19" class="node">
<title>139748202266128</title>
<polygon fill="none" stroke="#000000" points="286,-918 135,-918 135,-882 286,-882 286,-918"/>
<text text-anchor="middle" x="210.5" y="-896.3" font-family="Times,serif" font-size="14.00" fill="#000000">QuoteDataBean:getPrice</text>
</g>
<!-- 139748202266072 -->
<g id="node20" class="node">
<title>139748202266072</title>
<polygon fill="none" stroke="#000000" points="294,-972 127,-972 127,-936 294,-936 294,-972"/>
<text text-anchor="middle" x="210.5" y="-950.3" font-family="Times,serif" font-size="14.00" fill="#000000">QuoteDataBean:getVolume</text>
</g>
<!-- 139748202265960 -->
<g id="node21" class="node">
<title>139748202265960</title>
<polygon fill="none" stroke="#000000" points="933,-747 879,-747 879,-711 933,-711 933,-747"/>
<text text-anchor="middle" x="906" y="-725.3" font-family="Times,serif" font-size="14.00" fill="#000000">Root</text>
</g>
<!-- 139748204553048 -->
<g id="node26" class="node">
<title>139748204553048</title>
<ellipse fill="#ffa500" stroke="#000000" cx="996" cy="-729" rx="27" ry="27"/>
</g>
<!-- 139748202265960&#45;&gt;139748204553048 -->
<g id="edge5" class="edge">
<title>139748202265960&#45;&gt;139748204553048</title>
<path fill="none" stroke="#000000" d="M933.003,-729C941.0277,-729 949.9665,-729 958.5309,-729"/>
<polygon fill="#000000" stroke="#000000" points="958.7051,-732.5001 968.705,-729 958.705,-725.5001 958.7051,-732.5001"/>
</g>
<!-- 139748202266184 -->
<g id="node22" class="node">
<title>139748202266184</title>
<polygon fill="none" stroke="#000000" points="305.5,-1026 115.5,-1026 115.5,-990 305.5,-990 305.5,-1026"/>
<text text-anchor="middle" x="210.5" y="-1004.3" font-family="Times,serif" font-size="14.00" fill="#000000">TradeConfig:getRunTimeMode</text>
</g>
<!-- 139748202266016 -->
<g id="node23" class="node">
<title>139748202266016</title>
<polygon fill="none" stroke="#000000" points="279,-1080 142,-1080 142,-1044 279,-1044 279,-1080"/>
<text text-anchor="middle" x="210.5" y="-1058.3" font-family="Times,serif" font-size="14.00" fill="#000000">TradeConfig:getTrace</text>
</g>
<!-- 139748204552824 -->
<g id="node24" class="node">
<title>139748204552824</title>
<ellipse fill="#00ff00" stroke="#000000" cx="210.5" cy="-729" rx="27" ry="27"/>
<text text-anchor="middle" x="210.5" y="-725.3" font-family="Times,serif" font-size="14.00" fill="#000000">1</text>
</g>
<!-- 139748204552824&#45;&gt;139748204552432 -->
<g id="edge6" class="edge">
<title>139748204552824&#45;&gt;139748204552432</title>
<path fill="none" stroke="#000000" d="M237.3054,-732.6692C283.2999,-738.965 380.3069,-752.2435 463.1353,-763.5813"/>
<polygon fill="#000000" stroke="#000000" points="462.7793,-767.0651 473.1616,-764.9537 463.7287,-760.1298 462.7793,-767.0651"/>
</g>
<!-- 139748204552824&#45;&gt;139748204552768 -->
<g id="edge7" class="edge">
<title>139748204552824&#45;&gt;139748204552768</title>
<path fill="none" stroke="#000000" d="M237.6156,-729C294.6901,-729 429.3181,-729 518.7713,-729"/>
<polygon fill="#000000" stroke="#000000" points="518.9054,-732.5001 528.9054,-729 518.9054,-725.5001 518.9054,-732.5001"/>
</g>
<!-- 139748204552824&#45;&gt;139748202266520 -->
<g id="edge8" class="edge">
<title>139748204552824&#45;&gt;139748202266520</title>
<path fill="none" stroke="#000000" d="M237.3054,-725.3308C295.8338,-717.3193 436.9657,-698.0009 526.3716,-685.7628"/>
<polygon fill="#000000" stroke="#000000" points="527.0375,-689.2044 536.4704,-684.3805 526.0881,-682.2691 527.0375,-689.2044"/>
</g>
<!-- 139748204553216&#45;&gt;139748202265960 -->
<g id="edge1" class="edge">
<title>139748204553216&#45;&gt;139748202265960</title>
<path fill="none" stroke="#000000" d="M843.003,-729C851.0277,-729 859.9665,-729 868.5309,-729"/>
<polygon fill="#000000" stroke="#000000" points="868.7051,-732.5001 878.705,-729 868.705,-725.5001 868.7051,-732.5001"/>
</g>
</g>
</svg>
