<?xml version="1.0" encoding="UTF-8" standalone="no"?>
<!DOCTYPE svg PUBLIC "-//W3C//DTD SVG 1.1//EN"
 "http://www.w3.org/Graphics/SVG/1.1/DTD/svg11.dtd">
<!-- Generated by graphviz version 2.40.1 (20161225.0304)
 -->
<!-- Title: imdf_net_1586496251.493596 Pages: 1 -->
<svg width="1810pt" height="1188pt"
 viewBox="0.00 0.00 1810.00 1188.00" xmlns="http://www.w3.org/2000/svg" xmlns:xlink="http://www.w3.org/1999/xlink">
<g id="graph0" class="graph" transform="scale(1 1) rotate(0) translate(4 1184)">
<title>imdf_net_1586496251.493596</title>
<!-- 139748202264784 -->
<g id="node1" class="node">
<title>139748202264784</title>
<polygon fill="none" stroke="#000000" points="211,-570 0,-570 0,-534 211,-534 211,-570"/>
<text text-anchor="middle" x="105.5" y="-548.3" font-family="Times,serif" font-size="14.00" fill="#000000">FinancialUtils:computeGainPercent</text>
</g>
<!-- 139748202264056 -->
<g id="node41" class="node">
<title>139748202264056</title>
<ellipse fill="none" stroke="#000000" cx="274" cy="-755" rx="27" ry="27"/>
<text text-anchor="middle" x="274" y="-751.3" font-family="Times,serif" font-size="14.00" fill="#000000">p_8</text>
</g>
<!-- 139748202264784&#45;&gt;139748202264056 -->
<g id="edge13" class="edge">
<title>139748202264784&#45;&gt;139748202264056</title>
<path fill="none" stroke="#000000" d="M120.4533,-570.0149C149.7363,-605.2936 214.8554,-683.7457 250.1511,-726.2681"/>
<polygon fill="#000000" stroke="#000000" points="247.5061,-728.5615 256.5862,-734.0208 252.8924,-724.0907 247.5061,-728.5615"/>
</g>
<!-- 139748202264952 -->
<g id="node2" class="node">
<title>139748202264952</title>
<polygon fill="none" stroke="#000000" points="1634.5,-1180 1548.5,-1180 1548.5,-1144 1634.5,-1144 1634.5,-1180"/>
<text text-anchor="middle" x="1591.5" y="-1158.3" font-family="Times,serif" font-size="14.00" fill="#000000">Log:doTrace</text>
</g>
<!-- 139748202264952&#45;&gt;139748202264056 -->
<g id="edge23" class="edge">
<title>139748202264952&#45;&gt;139748202264056</title>
<path fill="none" stroke="#000000" d="M1548.3612,-1162C1478.4602,-1162 1336.1007,-1162 1215.5,-1162 454,-1162 454,-1162 454,-1162 395.1501,-1162 371.7691,-1147.4807 337,-1100 301.3554,-1051.3236 283.1433,-871.2578 276.7348,-792.4001"/>
<polygon fill="#000000" stroke="#000000" points="280.1873,-791.6612 275.9082,-781.9689 273.2091,-792.2141 280.1873,-791.6612"/>
</g>
<!-- 139748202265120 -->
<g id="node3" class="node">
<title>139748202265120</title>
<polygon fill="none" stroke="#000000" points="1636,-1126 1547,-1126 1547,-1090 1636,-1090 1636,-1126"/>
<text text-anchor="middle" x="1591.5" y="-1104.3" font-family="Times,serif" font-size="14.00" fill="#000000">Log:getTrace</text>
</g>
<!-- 139748202265120&#45;&gt;139748202264056 -->
<g id="edge2" class="edge">
<title>139748202265120&#45;&gt;139748202264056</title>
<path fill="none" stroke="#000000" d="M1546.9586,-1111.1229C1476.5962,-1115.7792 1335.3931,-1124 1215.5,-1124 454,-1124 454,-1124 454,-1124 394.9407,-1124 372.2676,-1108.373 337,-1061 305.5116,-1018.7034 285.5124,-864.134 277.7147,-792.2388"/>
<polygon fill="#000000" stroke="#000000" points="281.1908,-791.8282 276.6528,-782.2544 274.2301,-792.5685 281.1908,-791.8282"/>
</g>
<!-- 139748202265288 -->
<g id="node4" class="node">
<title>139748202265288</title>
<polygon fill="none" stroke="#000000" points="1802,-1072 1381,-1072 1381,-1036 1802,-1036 1802,-1072"/>
<text text-anchor="middle" x="1591.5" y="-1050.3" font-family="Times,serif" font-size="14.00" fill="#000000">MarketSummaryDataBean:MarketSummaryDataBean [overloaded_#002]</text>
</g>
<!-- 139748202265288&#45;&gt;139748202264056 -->
<g id="edge5" class="edge">
<title>139748202265288&#45;&gt;139748202264056</title>
<path fill="none" stroke="#000000" d="M1447.5665,-1072.0109C1377.6401,-1079.2873 1292.3149,-1086 1215.5,-1086 454,-1086 454,-1086 454,-1086 394.5141,-1086 372.9113,-1068.4231 337,-1021 309.8606,-985.1608 288.3867,-856.6855 279.0564,-792.3133"/>
<polygon fill="#000000" stroke="#000000" points="282.4889,-791.5912 277.6122,-782.1855 275.559,-792.5795 282.4889,-791.5912"/>
</g>
<!-- 139748202264616 -->
<g id="node5" class="node">
<title>139748202264616</title>
<polygon fill="none" stroke="#000000" points="1713,-1018 1470,-1018 1470,-982 1713,-982 1713,-1018"/>
<text text-anchor="middle" x="1591.5" y="-996.3" font-family="Times,serif" font-size="14.00" fill="#000000">MarketSummaryDataBean:getOpenTSIA</text>
</g>
<!-- 139748202264616&#45;&gt;139748202264056 -->
<g id="edge16" class="edge">
<title>139748202264616&#45;&gt;139748202264056</title>
<path fill="none" stroke="#000000" d="M1469.7782,-1015.5842C1360.2547,-1029.5999 1216.3149,-1048 1215.5,-1048 454,-1048 454,-1048 454,-1048 394.297,-1048 373.7911,-1029.0197 337,-982 313.807,-952.3589 291.4003,-848.0115 280.6367,-791.6944"/>
<polygon fill="#000000" stroke="#000000" points="284.0571,-790.9449 278.7648,-781.7665 277.1783,-792.2419 284.0571,-790.9449"/>
</g>
<!-- 139748203198336 -->
<g id="node6" class="node">
<title>139748203198336</title>
<polygon fill="none" stroke="#000000" points="1698.5,-963 1484.5,-963 1484.5,-927 1698.5,-927 1698.5,-963"/>
<text text-anchor="middle" x="1591.5" y="-941.3" font-family="Times,serif" font-size="14.00" fill="#000000">MarketSummaryDataBean:getTSIA</text>
</g>
<!-- 139748203198336&#45;&gt;139748202264056 -->
<g id="edge14" class="edge">
<title>139748203198336&#45;&gt;139748202264056</title>
<path fill="none" stroke="#000000" d="M1484.4024,-957.3995C1451.1699,-961.742 1414.4839,-967.042 1381,-973 1306.7942,-986.204 1290.8713,-1010 1215.5,-1010 454,-1010 454,-1010 454,-1010 393.8553,-1010 375.035,-988.591 337,-942 301.1265,-898.0567 285.3027,-832.7239 278.6001,-792.0567"/>
<polygon fill="#000000" stroke="#000000" points="282.0365,-791.3756 277.0499,-782.0277 275.1187,-792.445 282.0365,-791.3756"/>
</g>
<!-- 139748203197888 -->
<g id="node7" class="node">
<title>139748203197888</title>
<polygon fill="none" stroke="#000000" points="1712.5,-907 1470.5,-907 1470.5,-871 1712.5,-871 1712.5,-907"/>
<text text-anchor="middle" x="1591.5" y="-885.3" font-family="Times,serif" font-size="14.00" fill="#000000">MarketSummaryDataBean:setOpenTSIA</text>
</g>
<!-- 139748203197888&#45;&gt;139748202264056 -->
<g id="edge8" class="edge">
<title>139748203197888&#45;&gt;139748202264056</title>
<path fill="none" stroke="#000000" d="M1470.3273,-901.9298C1440.9069,-906.1022 1409.6709,-911.4033 1381,-918 1305.5982,-935.3488 1292.872,-972 1215.5,-972 454,-972 454,-972 454,-972 393.4038,-972 376.877,-947.6259 337,-902 308.9709,-869.9301 291.9121,-823.5124 282.7405,-791.4565"/>
<polygon fill="#000000" stroke="#000000" points="286.055,-790.3088 280.0359,-781.5898 279.3041,-792.1593 286.055,-790.3088"/>
</g>
<!-- 139748203197832 -->
<g id="node8" class="node">
<title>139748203197832</title>
<polygon fill="none" stroke="#000000" points="1722.5,-850 1460.5,-850 1460.5,-814 1722.5,-814 1722.5,-850"/>
<text text-anchor="middle" x="1591.5" y="-828.3" font-family="Times,serif" font-size="14.00" fill="#000000">MarketSummaryDataBean:setSummaryDate</text>
</g>
<!-- 139748203197832&#45;&gt;139748202264056 -->
<g id="edge18" class="edge">
<title>139748203197832&#45;&gt;139748202264056</title>
<path fill="none" stroke="#000000" d="M1460.3813,-845.1249C1433.832,-849.3326 1406.3064,-854.8337 1381,-862 1303.8201,-883.8559 1295.7148,-934 1215.5,-934 454,-934 454,-934 454,-934 372.681,-934 315.0755,-841.0093 289.2451,-789.0767"/>
<polygon fill="#000000" stroke="#000000" points="292.3036,-787.3621 284.7932,-779.8892 286.0042,-790.4146 292.3036,-787.3621"/>
</g>
<!-- 139748202264448 -->
<g id="node9" class="node">
<title>139748202264448</title>
<polygon fill="none" stroke="#000000" points="1697.5,-790 1485.5,-790 1485.5,-754 1697.5,-754 1697.5,-790"/>
<text text-anchor="middle" x="1591.5" y="-768.3" font-family="Times,serif" font-size="14.00" fill="#000000">MarketSummaryDataBean:setTSIA</text>
</g>
<!-- 139748202264448&#45;&gt;139748202264056 -->
<g id="edge10" class="edge">
<title>139748202264448&#45;&gt;139748202264056</title>
<path fill="none" stroke="#000000" d="M1485.4739,-773.8815C1448.6075,-769.3807 1409.4178,-758.0924 1381,-733 1242.235,-610.4728 1369.3842,-481.5503 1255,-336 1242.3071,-319.8487 1236.042,-312 1215.5,-312 908,-312 908,-312 908,-312 729.1665,-312 664.6191,-306.0542 517,-407 397.617,-488.6372 318.457,-649.6468 288.0161,-720.3378"/>
<polygon fill="#000000" stroke="#000000" points="284.7296,-719.1228 284.045,-729.6955 291.1734,-721.8574 284.7296,-719.1228"/>
</g>
<!-- 139748202265680 -->
<g id="node10" class="node">
<title>139748202265680</title>
<polygon fill="none" stroke="#000000" points="1714.5,-724 1468.5,-724 1468.5,-688 1714.5,-688 1714.5,-724"/>
<text text-anchor="middle" x="1591.5" y="-702.3" font-family="Times,serif" font-size="14.00" fill="#000000">MarketSummaryDataBean:setTopGainers</text>
</g>
<!-- 139748202265680&#45;&gt;139748202264056 -->
<g id="edge12" class="edge">
<title>139748202265680&#45;&gt;139748202264056</title>
<path fill="none" stroke="#000000" d="M1468.3397,-700.853C1435.776,-693.5056 1403.4835,-679.7887 1381,-655 1304.1045,-570.2207 1392.8818,-503.9605 1345,-400 1328.8015,-364.8299 1268.9397,-274 1215.5,-274 454,-274 454,-274 454,-274 359.31,-274 297.8382,-605.1066 279.6455,-717.8938"/>
<polygon fill="#000000" stroke="#000000" points="276.1351,-717.6829 278.0203,-728.1087 283.0481,-718.7828 276.1351,-717.6829"/>
</g>
<!-- 139748202265904 -->
<g id="node11" class="node">
<title>139748202265904</title>
<polygon fill="none" stroke="#000000" points="1711.5,-646 1471.5,-646 1471.5,-610 1711.5,-610 1711.5,-646"/>
<text text-anchor="middle" x="1591.5" y="-624.3" font-family="Times,serif" font-size="14.00" fill="#000000">MarketSummaryDataBean:setTopLosers</text>
</g>
<!-- 139748202265904&#45;&gt;139748202264056 -->
<g id="edge20" class="edge">
<title>139748202265904&#45;&gt;139748202264056</title>
<path fill="none" stroke="#000000" d="M1475.9036,-609.9916C1440.5729,-598.8967 1404.8041,-580.9686 1381,-552 1313.6384,-470.0238 1403.3936,-404.5882 1345,-316 1316.0148,-272.027 1235.861,-236 1215.5,-236 454,-236 454,-236 454,-236 387.5738,-236 370.179,-271.4535 337,-329 298.8791,-395.1177 281.492,-626.7297 276.014,-717.8107"/>
<polygon fill="#000000" stroke="#000000" points="272.5109,-717.7615 275.4187,-727.9495 279.4989,-718.1719 272.5109,-717.7615"/>
</g>
<!-- 139748203197384 -->
<g id="node12" class="node">
<title>139748203197384</title>
<polygon fill="none" stroke="#000000" points="1705,-543 1478,-543 1478,-507 1705,-507 1705,-543"/>
<text text-anchor="middle" x="1591.5" y="-521.3" font-family="Times,serif" font-size="14.00" fill="#000000">MarketSummaryDataBean:setVolume</text>
</g>
<!-- 139748203197384&#45;&gt;139748202264056 -->
<g id="edge9" class="edge">
<title>139748203197384&#45;&gt;139748202264056</title>
<path fill="none" stroke="#000000" d="M1538.5488,-506.8843C1490.4233,-487.7246 1421.0086,-452.8735 1381,-400 1343.5304,-350.482 1383.8997,-313.4026 1345,-265 1304.4053,-214.4883 1280.3025,-198 1215.5,-198 454,-198 454,-198 454,-198 396.7287,-198 370.8102,-205.7737 337,-252 309.5651,-289.5099 284.5152,-607.5317 276.5906,-717.6503"/>
<polygon fill="#000000" stroke="#000000" points="273.077,-717.7176 275.8564,-727.9414 280.0592,-718.2158 273.077,-717.7176"/>
</g>
<!-- 139748204554392 -->
<g id="node13" class="node">
<title>139748204554392</title>
<polygon fill="none" stroke="#000000" points="845,-506 517,-506 517,-470 845,-470 845,-506"/>
<text text-anchor="middle" x="681" y="-484.3" font-family="Times,serif" font-size="14.00" fill="#000000">MarketSummarySingleton:setMarketSummaryDataBean</text>
</g>
<!-- 139748202263552 -->
<g id="node35" class="node">
<title>139748202263552</title>
<ellipse fill="none" stroke="#000000" cx="908" cy="-668" rx="27" ry="27"/>
<text text-anchor="middle" x="908" y="-664.3" font-family="Times,serif" font-size="14.00" fill="#000000">p_10</text>
</g>
<!-- 139748204554392&#45;&gt;139748202263552 -->
<g id="edge1" class="edge">
<title>139748204554392&#45;&gt;139748202263552</title>
<path fill="none" stroke="#000000" d="M831.7648,-506.0197C836.3901,-508.6951 840.8213,-511.678 845,-515 880.8155,-543.473 896.4514,-595.7425 903.1539,-631.1752"/>
<polygon fill="#000000" stroke="#000000" points="899.7249,-631.8855 904.8885,-641.1368 906.6211,-630.6846 899.7249,-631.8855"/>
</g>
<!-- 139748202264280 -->
<g id="node14" class="node">
<title>139748202264280</title>
<polygon fill="none" stroke="#000000" points="1739.5,-391 1443.5,-391 1443.5,-355 1739.5,-355 1739.5,-391"/>
<text text-anchor="middle" x="1591.5" y="-369.3" font-family="Times,serif" font-size="14.00" fill="#000000">MarketSummarySingleton:updateMarketSummary</text>
</g>
<!-- 139748202264280&#45;&gt;139748202264056 -->
<g id="edge7" class="edge">
<title>139748202264280&#45;&gt;139748202264056</title>
<path fill="none" stroke="#000000" d="M1574.7033,-354.8397C1525.135,-303.3304 1373.0511,-160 1215.5,-160 454,-160 454,-160 454,-160 398.5993,-160 371.2342,-159.4425 337,-203 305.2105,-243.447 282.6524,-599.837 276.017,-717.4924"/>
<polygon fill="#000000" stroke="#000000" points="272.5047,-717.6171 275.4423,-727.7966 279.4938,-718.007 272.5047,-717.6171"/>
</g>
<!-- 139748204555176 -->
<g id="node15" class="node">
<title>139748204555176</title>
<polygon fill="none" stroke="#000000" points="757,-90 605,-90 605,-54 757,-54 757,-90"/>
<text text-anchor="middle" x="681" y="-68.3" font-family="Times,serif" font-size="14.00" fill="#000000">PingServletWriter:doGet</text>
</g>
<!-- 139748203322448 -->
<g id="node37" class="node">
<title>139748203322448</title>
<ellipse fill="none" stroke="#000000" cx="908" cy="-67" rx="27" ry="27"/>
<text text-anchor="middle" x="908" y="-63.3" font-family="Times,serif" font-size="14.00" fill="#000000">p_4</text>
</g>
<!-- 139748204555176&#45;&gt;139748203322448 -->
<g id="edge19" class="edge">
<title>139748204555176&#45;&gt;139748203322448</title>
<path fill="none" stroke="#000000" d="M757.2192,-70.3212C795.3557,-69.4812 839.8094,-68.502 870.5197,-67.8256"/>
<polygon fill="#000000" stroke="#000000" points="870.8558,-71.3191 880.7762,-67.5996 870.7015,-64.3208 870.8558,-71.3191"/>
</g>
<!-- 139748202263384 -->
<g id="node16" class="node">
<title>139748202263384</title>
<polygon fill="none" stroke="#000000" points="749.5,-36 612.5,-36 612.5,0 749.5,0 749.5,-36"/>
<text text-anchor="middle" x="681" y="-14.3" font-family="Times,serif" font-size="14.00" fill="#000000">PingServletWriter:init</text>
</g>
<!-- 139748202263384&#45;&gt;139748203322448 -->
<g id="edge22" class="edge">
<title>139748202263384&#45;&gt;139748203322448</title>
<path fill="none" stroke="#000000" d="M749.769,-26.6194C779.3228,-31.0176 814.1025,-37.1248 845,-45 854.3161,-47.3745 864.2123,-50.5213 873.3337,-53.6902"/>
<polygon fill="#000000" stroke="#000000" points="872.2685,-57.0263 882.8631,-57.102 874.6281,-50.436 872.2685,-57.0263"/>
</g>
<!-- 139748204554224 -->
<g id="node17" class="node">
<title>139748204554224</title>
<polygon fill="none" stroke="#000000" points="830.5,-830 531.5,-830 531.5,-794 830.5,-794 830.5,-830"/>
<text text-anchor="middle" x="681" y="-808.3" font-family="Times,serif" font-size="14.00" fill="#000000">QuoteDataBean:QuoteDataBean [overloaded_#001]</text>
</g>
<!-- 139748204554224&#45;&gt;139748202263552 -->
<g id="edge15" class="edge">
<title>139748204554224&#45;&gt;139748202263552</title>
<path fill="none" stroke="#000000" d="M830.565,-793.8171C835.5871,-791.1975 840.4205,-788.2694 845,-785 872.2212,-765.566 888.8159,-730.6195 898.0897,-703.9635"/>
<polygon fill="#000000" stroke="#000000" points="901.5002,-704.7957 901.2924,-694.2029 894.8491,-702.6132 901.5002,-704.7957"/>
</g>
<!-- 139748204553552 -->
<g id="node18" class="node">
<title>139748204553552</title>
<polygon fill="none" stroke="#000000" points="757,-776 605,-776 605,-740 757,-740 757,-776"/>
<text text-anchor="middle" x="681" y="-754.3" font-family="Times,serif" font-size="14.00" fill="#000000">QuoteDataBean:getOpen</text>
</g>
<!-- 139748204553552&#45;&gt;139748202263552 -->
<g id="edge4" class="edge">
<title>139748204553552&#45;&gt;139748202263552</title>
<path fill="none" stroke="#000000" d="M757.1434,-755.2932C785.9221,-751.7987 818.1744,-744.7714 845,-731 860.4646,-723.061 874.4925,-709.9512 885.365,-697.7405"/>
<polygon fill="#000000" stroke="#000000" points="888.2159,-699.7912 892.0374,-689.9095 882.8877,-695.2512 888.2159,-699.7912"/>
</g>
<!-- 139748204553888 -->
<g id="node19" class="node">
<title>139748204553888</title>
<polygon fill="none" stroke="#000000" points="756.5,-722 605.5,-722 605.5,-686 756.5,-686 756.5,-722"/>
<text text-anchor="middle" x="681" y="-700.3" font-family="Times,serif" font-size="14.00" fill="#000000">QuoteDataBean:getPrice</text>
</g>
<!-- 139748204553888&#45;&gt;139748202263552 -->
<g id="edge21" class="edge">
<title>139748204553888&#45;&gt;139748202263552</title>
<path fill="none" stroke="#000000" d="M756.5877,-692.0125C795.174,-685.8931 840.365,-678.7263 871.2668,-673.8255"/>
<polygon fill="#000000" stroke="#000000" points="871.8402,-677.2784 881.1685,-672.2552 870.7437,-670.3648 871.8402,-677.2784"/>
</g>
<!-- 139748204553720 -->
<g id="node20" class="node">
<title>139748204553720</title>
<polygon fill="none" stroke="#000000" points="764.5,-668 597.5,-668 597.5,-632 764.5,-632 764.5,-668"/>
<text text-anchor="middle" x="681" y="-646.3" font-family="Times,serif" font-size="14.00" fill="#000000">QuoteDataBean:getVolume</text>
</g>
<!-- 139748204553720&#45;&gt;139748202263552 -->
<g id="edge6" class="edge">
<title>139748204553720&#45;&gt;139748202263552</title>
<path fill="none" stroke="#000000" d="M764.5593,-656.6259C801.1509,-659.5274 842.2139,-662.7835 870.9977,-665.0659"/>
<polygon fill="#000000" stroke="#000000" points="870.7703,-668.5588 881.0157,-665.8603 871.3236,-661.5807 870.7703,-668.5588"/>
</g>
<!-- 139748202262936 -->
<g id="node21" class="node">
<title>139748202262936</title>
<polygon fill="none" stroke="#000000" points="1037.5,-85 983.5,-85 983.5,-49 1037.5,-49 1037.5,-85"/>
<text text-anchor="middle" x="1010.5" y="-63.3" font-family="Times,serif" font-size="14.00" fill="#000000">Root</text>
</g>
<!-- 139748203302864 -->
<g id="node43" class="node">
<title>139748203302864</title>
<ellipse fill="#ffa500" stroke="#000000" cx="1113" cy="-67" rx="27" ry="27"/>
</g>
<!-- 139748202262936&#45;&gt;139748203302864 -->
<g id="edge17" class="edge">
<title>139748202262936&#45;&gt;139748203302864</title>
<path fill="none" stroke="#000000" d="M1037.699,-67C1049.2828,-67 1062.9866,-67 1075.5073,-67"/>
<polygon fill="#000000" stroke="#000000" points="1075.6739,-70.5001 1085.6739,-67 1075.6739,-63.5001 1075.6739,-70.5001"/>
</g>
<!-- 139748204554056 -->
<g id="node22" class="node">
<title>139748204554056</title>
<polygon fill="none" stroke="#000000" points="776,-614 586,-614 586,-578 776,-578 776,-614"/>
<text text-anchor="middle" x="681" y="-592.3" font-family="Times,serif" font-size="14.00" fill="#000000">TradeConfig:getRunTimeMode</text>
</g>
<!-- 139748204554056&#45;&gt;139748202263552 -->
<g id="edge11" class="edge">
<title>139748204554056&#45;&gt;139748202263552</title>
<path fill="none" stroke="#000000" d="M776.2792,-604.1665C799.3472,-608.1714 823.5307,-614.132 845,-623 857.3512,-628.1017 869.6111,-636.0281 879.9876,-643.8156"/>
<polygon fill="#000000" stroke="#000000" points="877.8362,-646.5763 887.8713,-649.9746 882.1457,-641.0601 877.8362,-646.5763"/>
</g>
<!-- 139748202265456 -->
<g id="node23" class="node">
<title>139748202265456</title>
<polygon fill="none" stroke="#000000" points="1660,-141 1523,-141 1523,-105 1660,-105 1660,-141"/>
<text text-anchor="middle" x="1591.5" y="-119.3" font-family="Times,serif" font-size="14.00" fill="#000000">TradeConfig:getTrace</text>
</g>
<!-- 139748202265456&#45;&gt;139748202264056 -->
<g id="edge3" class="edge">
<title>139748202265456&#45;&gt;139748202264056</title>
<path fill="none" stroke="#000000" d="M1522.8889,-122.7081C1447.5145,-122.4129 1322.8823,-122 1215.5,-122 454,-122 454,-122 454,-122 399.1872,-122 371.3531,-118.2881 337,-161 302.0286,-204.4808 281.3301,-594.7062 275.6239,-717.9051"/>
<polygon fill="#000000" stroke="#000000" points="272.1237,-717.8321 275.1632,-727.9816 279.1164,-718.1519 272.1237,-717.8321"/>
</g>
<!-- 139748202263104 -->
<g id="node24" class="node">
<title>139748202263104</title>
<polygon fill="none" stroke="#000000" points="1050,-564 971,-564 971,-528 1050,-528 1050,-564"/>
<text text-anchor="middle" x="1010.5" y="-542.3" font-family="Times,serif" font-size="14.00" fill="#000000">init_loop_2</text>
</g>
<!-- 139748202262992 -->
<g id="node38" class="node">
<title>139748202262992</title>
<ellipse fill="none" stroke="#000000" cx="1113" cy="-765" rx="27" ry="27"/>
<text text-anchor="middle" x="1113" y="-761.3" font-family="Times,serif" font-size="14.00" fill="#000000">p_5</text>
</g>
<!-- 139748202263104&#45;&gt;139748202262992 -->
<g id="edge24" class="edge">
<title>139748202263104&#45;&gt;139748202262992</title>
<path fill="none" stroke="#000000" d="M1019.0628,-564.2951C1036.258,-601.0343 1075.2159,-684.271 1097.1777,-731.1943"/>
<polygon fill="#000000" stroke="#000000" points="1094.0531,-732.775 1101.4621,-740.3484 1100.393,-729.8076 1094.0531,-732.775"/>
</g>
<!-- 139748202263720 -->
<g id="node25" class="node">
<title>139748202263720</title>
<polygon fill="none" stroke="#000000" points="1255,-792 1176,-792 1176,-756 1255,-756 1255,-792"/>
<text text-anchor="middle" x="1215.5" y="-770.3" font-family="Times,serif" font-size="14.00" fill="#000000">init_loop_4</text>
</g>
<!-- 139748202263608 -->
<g id="node40" class="node">
<title>139748202263608</title>
<ellipse fill="none" stroke="#000000" cx="1318" cy="-802" rx="27" ry="27"/>
<text text-anchor="middle" x="1318" y="-798.3" font-family="Times,serif" font-size="14.00" fill="#000000">p_7</text>
</g>
<!-- 139748202263720&#45;&gt;139748202263608 -->
<g id="edge25" class="edge">
<title>139748202263720&#45;&gt;139748202263608</title>
<path fill="none" stroke="#000000" d="M1255.1292,-784.8255C1263.9562,-787.2368 1273.2686,-789.7807 1281.9428,-792.1502"/>
<polygon fill="#000000" stroke="#000000" points="1281.196,-795.5744 1291.7649,-794.8333 1283.0406,-788.8218 1281.196,-795.5744"/>
</g>
<!-- 139748202263328 -->
<g id="node26" class="node">
<title>139748202263328</title>
<polygon fill="none" stroke="#000000" points="1037.5,-718 983.5,-718 983.5,-682 1037.5,-682 1037.5,-718"/>
<text text-anchor="middle" x="1010.5" y="-696.3" font-family="Times,serif" font-size="14.00" fill="#000000">loop_3</text>
</g>
<!-- 139748202263328&#45;&gt;139748202262992 -->
<g id="edge26" class="edge">
<title>139748202263328&#45;&gt;139748202262992</title>
<path fill="none" stroke="#000000" d="M1037.699,-717.2482C1051.1269,-725.7634 1067.4036,-736.0852 1081.3839,-744.9507"/>
<polygon fill="#000000" stroke="#000000" points="1079.8668,-748.1331 1090.1863,-750.5328 1083.6156,-742.2215 1079.8668,-748.1331"/>
</g>
<!-- 139748202263944 -->
<g id="node27" class="node">
<title>139748202263944</title>
<polygon fill="none" stroke="#000000" points="935,-906 881,-906 881,-870 935,-870 935,-906"/>
<text text-anchor="middle" x="908" y="-884.3" font-family="Times,serif" font-size="14.00" fill="#000000">loop_5</text>
</g>
<!-- 139748202263944&#45;&gt;139748202263608 -->
<g id="edge27" class="edge">
<title>139748202263944&#45;&gt;139748202263608</title>
<path fill="none" stroke="#000000" d="M935.1031,-891.571C995.503,-898.3322 1144.5289,-908.3177 1255,-860 1269.8298,-853.5138 1283.4407,-842.0539 1294.1871,-831.0242"/>
<polygon fill="#000000" stroke="#000000" points="1296.9115,-833.2338 1301.149,-823.5233 1291.7808,-828.4718 1296.9115,-833.2338"/>
</g>
<!-- 139748204554728 -->
<g id="node28" class="node">
<title>139748204554728</title>
<polygon fill="none" stroke="#000000" points="710.5,-452 651.5,-452 651.5,-416 710.5,-416 710.5,-452"/>
<text text-anchor="middle" x="681" y="-430.3" font-family="Times,serif" font-size="14.00" fill="#000000">skip_10</text>
</g>
<!-- 139748204554728&#45;&gt;139748203322448 -->
<g id="edge60" class="edge">
<title>139748204554728&#45;&gt;139748203322448</title>
<path fill="none" stroke="#000000" d="M692.257,-415.8004C728.4487,-357.2877 842.1419,-173.4754 888.266,-98.9047"/>
<polygon fill="#000000" stroke="#000000" points="891.2624,-100.7138 893.5462,-90.368 885.3092,-97.0315 891.2624,-100.7138"/>
</g>
<!-- 139748203198000 -->
<g id="node29" class="node">
<title>139748203198000</title>
<polygon fill="none" stroke="#000000" points="391,-811 337,-811 337,-775 391,-775 391,-811"/>
<text text-anchor="middle" x="364" y="-789.3" font-family="Times,serif" font-size="14.00" fill="#000000">skip_6</text>
</g>
<!-- 139748202264168 -->
<g id="node42" class="node">
<title>139748202264168</title>
<ellipse fill="none" stroke="#000000" cx="454" cy="-814" rx="27" ry="27"/>
<text text-anchor="middle" x="454" y="-810.3" font-family="Times,serif" font-size="14.00" fill="#000000">p_9</text>
</g>
<!-- 139748203198000&#45;&gt;139748202264168 -->
<g id="edge61" class="edge">
<title>139748203198000&#45;&gt;139748202264168</title>
<path fill="none" stroke="#000000" d="M391.003,-799.3007C399.4298,-801.2669 408.8646,-803.4684 417.8152,-805.5569"/>
<polygon fill="#000000" stroke="#000000" points="417.1017,-808.9843 427.6355,-807.8483 418.6924,-802.1675 417.1017,-808.9843"/>
</g>
<!-- 139748203196936 -->
<g id="node30" class="node">
<title>139748203196936</title>
<polygon fill="none" stroke="#000000" points="391,-736 337,-736 337,-700 391,-700 391,-736"/>
<text text-anchor="middle" x="364" y="-714.3" font-family="Times,serif" font-size="14.00" fill="#000000">skip_7</text>
</g>
<!-- 139748202263440 -->
<g id="node39" class="node">
<title>139748202263440</title>
<ellipse fill="none" stroke="#000000" cx="454" cy="-677" rx="27" ry="27"/>
<text text-anchor="middle" x="454" y="-673.3" font-family="Times,serif" font-size="14.00" fill="#000000">p_6</text>
</g>
<!-- 139748203196936&#45;&gt;139748202263440 -->
<g id="edge62" class="edge">
<title>139748203196936&#45;&gt;139748202263440</title>
<path fill="none" stroke="#000000" d="M391.003,-705.6986C400.0899,-701.559 410.3491,-696.8854 419.9092,-692.5303"/>
<polygon fill="#000000" stroke="#000000" points="421.5178,-695.6436 429.167,-688.3128 418.6158,-689.2734 421.5178,-695.6436"/>
</g>
<!-- 139748203197552 -->
<g id="node31" class="node">
<title>139748203197552</title>
<polygon fill="none" stroke="#000000" points="1242.5,-851 1188.5,-851 1188.5,-815 1242.5,-815 1242.5,-851"/>
<text text-anchor="middle" x="1215.5" y="-829.3" font-family="Times,serif" font-size="14.00" fill="#000000">skip_8</text>
</g>
<!-- 139748203197552&#45;&gt;139748202263440 -->
<g id="edge63" class="edge">
<title>139748203197552&#45;&gt;139748202263440</title>
<path fill="none" stroke="#000000" d="M1188.1138,-835.0552C1065.8021,-843.9921 573.0522,-877.3435 517,-839 495.6134,-824.3701 474.5696,-756.4665 463.0328,-713.348"/>
<polygon fill="#000000" stroke="#000000" points="466.3709,-712.2793 460.4462,-703.4959 459.6004,-714.0569 466.3709,-712.2793"/>
</g>
<!-- 139748204554560 -->
<g id="node32" class="node">
<title>139748204554560</title>
<polygon fill="none" stroke="#000000" points="708,-560 654,-560 654,-524 708,-524 708,-560"/>
<text text-anchor="middle" x="681" y="-538.3" font-family="Times,serif" font-size="14.00" fill="#000000">skip_9</text>
</g>
<!-- 139748204554560&#45;&gt;139748202263552 -->
<g id="edge64" class="edge">
<title>139748204554560&#45;&gt;139748202263552</title>
<path fill="none" stroke="#000000" d="M708.1025,-540.0095C742.7441,-538.8171 803.2226,-541.4122 845,-569 868.1019,-584.2554 884.4294,-611.2105 894.6651,-633.1458"/>
<polygon fill="#000000" stroke="#000000" points="891.5592,-634.7759 898.8112,-642.4999 897.9588,-631.9394 891.5592,-634.7759"/>
</g>
<!-- 139748205541472 -->
<g id="node33" class="node">
<title>139748205541472</title>
<polygon fill="none" stroke="#000000" points="391,-85 337,-85 337,-49 391,-49 391,-85"/>
<text text-anchor="middle" x="364" y="-63.3" font-family="Times,serif" font-size="14.00" fill="#000000">tau_1</text>
</g>
<!-- 139748203302528 -->
<g id="node36" class="node">
<title>139748203302528</title>
<ellipse fill="none" stroke="#000000" cx="454" cy="-67" rx="27" ry="27"/>
<text text-anchor="middle" x="454" y="-63.3" font-family="Times,serif" font-size="14.00" fill="#000000">p_3</text>
</g>
<!-- 139748205541472&#45;&gt;139748203302528 -->
<g id="edge66" class="edge">
<title>139748205541472&#45;&gt;139748203302528</title>
<path fill="none" stroke="#000000" d="M391.003,-67C399.0277,-67 407.9665,-67 416.5309,-67"/>
<polygon fill="#000000" stroke="#000000" points="416.7051,-70.5001 426.705,-67 416.705,-63.5001 416.7051,-70.5001"/>
</g>
<!-- 139748203300568 -->
<g id="node34" class="node">
<title>139748203300568</title>
<ellipse fill="#00ff00" stroke="#000000" cx="274" cy="-67" rx="27" ry="27"/>
<text text-anchor="middle" x="274" y="-63.3" font-family="Times,serif" font-size="14.00" fill="#000000">1</text>
</g>
<!-- 139748203300568&#45;&gt;139748205541472 -->
<g id="edge65" class="edge">
<title>139748203300568&#45;&gt;139748205541472</title>
<path fill="none" stroke="#000000" d="M301.003,-67C309.0277,-67 317.9665,-67 326.5309,-67"/>
<polygon fill="#000000" stroke="#000000" points="326.7051,-70.5001 336.705,-67 326.705,-63.5001 326.7051,-70.5001"/>
</g>
<!-- 139748202263552&#45;&gt;139748202263328 -->
<g id="edge28" class="edge">
<title>139748202263552&#45;&gt;139748202263328</title>
<path fill="none" stroke="#000000" d="M933.8651,-676.075C945.869,-679.8225 960.3587,-684.3461 973.4927,-688.4465"/>
<polygon fill="#000000" stroke="#000000" points="972.6199,-691.8406 983.2086,-691.4797 974.706,-685.1586 972.6199,-691.8406"/>
</g>
<!-- 139748203302528&#45;&gt;139748204555176 -->
<g id="edge29" class="edge">
<title>139748203302528&#45;&gt;139748204555176</title>
<path fill="none" stroke="#000000" d="M481.3815,-67.6031C509.4281,-68.2209 554.4941,-69.2135 594.7149,-70.0994"/>
<polygon fill="#000000" stroke="#000000" points="594.7481,-73.6009 604.8228,-70.3221 594.9023,-66.6026 594.7481,-73.6009"/>
</g>
<!-- 139748203302528&#45;&gt;139748202263384 -->
<g id="edge30" class="edge">
<title>139748203302528&#45;&gt;139748202263384</title>
<path fill="none" stroke="#000000" d="M479.1369,-57.102C490.5528,-52.8987 504.3143,-48.2334 517,-45 544.3974,-38.0169 574.8472,-32.4239 601.9994,-28.18"/>
<polygon fill="#000000" stroke="#000000" points="602.8731,-31.5873 612.231,-26.6194 601.8176,-24.6673 602.8731,-31.5873"/>
</g>
<!-- 139748203302528&#45;&gt;139748202263104 -->
<g id="edge31" class="edge">
<title>139748203302528&#45;&gt;139748202263104</title>
<path fill="none" stroke="#000000" d="M474.4661,-84.6159C559.2464,-157.5895 883.0665,-436.3133 981.7711,-521.2719"/>
<polygon fill="#000000" stroke="#000000" points="979.6891,-524.0979 989.5515,-527.9688 984.2556,-518.7925 979.6891,-524.0979"/>
</g>
<!-- 139748203322448&#45;&gt;139748202262936 -->
<g id="edge32" class="edge">
<title>139748203322448&#45;&gt;139748202262936</title>
<path fill="none" stroke="#000000" d="M935.199,-67C946.7828,-67 960.4866,-67 973.0073,-67"/>
<polygon fill="#000000" stroke="#000000" points="973.1739,-70.5001 983.1739,-67 973.1739,-63.5001 973.1739,-70.5001"/>
</g>
<!-- 139748202262992&#45;&gt;139748202263720 -->
<g id="edge33" class="edge">
<title>139748202262992&#45;&gt;139748202263720</title>
<path fill="none" stroke="#000000" d="M1139.9307,-767.3646C1147.775,-768.0534 1156.6089,-768.8291 1165.3977,-769.6008"/>
<polygon fill="#000000" stroke="#000000" points="1165.3645,-773.1112 1175.6324,-770.4994 1165.9769,-766.1381 1165.3645,-773.1112"/>
</g>
<!-- 139748202262992&#45;&gt;139748203197552 -->
<g id="edge34" class="edge">
<title>139748202262992&#45;&gt;139748203197552</title>
<path fill="none" stroke="#000000" d="M1135.7481,-780.0914C1148.764,-788.7264 1165.3763,-799.7472 1180.0665,-809.4929"/>
<polygon fill="#000000" stroke="#000000" points="1178.1841,-812.4443 1188.452,-815.056 1182.0539,-806.6112 1178.1841,-812.4443"/>
</g>
<!-- 139748202263440&#45;&gt;139748204554392 -->
<g id="edge35" class="edge">
<title>139748202263440&#45;&gt;139748204554392</title>
<path fill="none" stroke="#000000" d="M456.445,-649.8531C461.2818,-613.211 475.5191,-548.6496 517,-515 518.3866,-513.8752 519.8019,-512.789 521.2439,-511.7402"/>
<polygon fill="#000000" stroke="#000000" points="523.3416,-514.5498 529.7775,-506.1338 519.498,-508.6994 523.3416,-514.5498"/>
</g>
<!-- 139748202263440&#45;&gt;139748204554224 -->
<g id="edge39" class="edge">
<title>139748202263440&#45;&gt;139748204554224</title>
<path fill="none" stroke="#000000" d="M461.865,-702.863C470.9354,-728.0412 488.3931,-765.305 517,-785 518.9311,-786.3295 520.9048,-787.6018 522.9165,-788.8192"/>
<polygon fill="#000000" stroke="#000000" points="521.5193,-792.0457 531.9658,-793.8124 524.9011,-785.9168 521.5193,-792.0457"/>
</g>
<!-- 139748202263440&#45;&gt;139748204553552 -->
<g id="edge36" class="edge">
<title>139748202263440&#45;&gt;139748204553552</title>
<path fill="none" stroke="#000000" d="M472.1572,-697.3519C483.7974,-709.0786 499.8934,-723.0321 517,-731 541.0156,-742.186 568.8996,-748.8213 594.7883,-752.7313"/>
<polygon fill="#000000" stroke="#000000" points="594.5919,-756.2376 604.9787,-754.1485 595.5562,-749.3043 594.5919,-756.2376"/>
</g>
<!-- 139748202263440&#45;&gt;139748204553888 -->
<g id="edge40" class="edge">
<title>139748202263440&#45;&gt;139748204553888</title>
<path fill="none" stroke="#000000" d="M480.9313,-680.2033C508.9722,-683.5385 554.3694,-688.9382 594.8368,-693.7515"/>
<polygon fill="#000000" stroke="#000000" points="594.662,-697.2553 605.0054,-694.961 595.4888,-690.3043 594.662,-697.2553"/>
</g>
<!-- 139748202263440&#45;&gt;139748204553720 -->
<g id="edge37" class="edge">
<title>139748202263440&#45;&gt;139748204553720</title>
<path fill="none" stroke="#000000" d="M480.9313,-673.7967C507.2363,-670.6679 548.8151,-665.7224 587.2698,-661.1485"/>
<polygon fill="#000000" stroke="#000000" points="587.9744,-664.5895 597.491,-659.9328 587.1475,-657.6385 587.9744,-664.5895"/>
</g>
<!-- 139748202263440&#45;&gt;139748204554056 -->
<g id="edge38" class="edge">
<title>139748202263440&#45;&gt;139748204554056</title>
<path fill="none" stroke="#000000" d="M472.1572,-656.6481C483.7974,-644.9214 499.8934,-630.9679 517,-623 535.3203,-614.4668 555.8917,-608.5818 576.1113,-604.5347"/>
<polygon fill="#000000" stroke="#000000" points="576.8082,-607.9651 585.9975,-602.692 575.5255,-601.0836 576.8082,-607.9651"/>
</g>
<!-- 139748202263440&#45;&gt;139748204554728 -->
<g id="edge41" class="edge">
<title>139748202263440&#45;&gt;139748204554728</title>
<path fill="none" stroke="#000000" d="M458.2381,-649.9537C466.9729,-597.7895 488.568,-486.1938 517,-461 550.7106,-431.1288 604.2834,-427.6466 640.9642,-429.4783"/>
<polygon fill="#000000" stroke="#000000" points="641.0901,-432.9939 651.2977,-430.1558 641.5481,-426.0089 641.0901,-432.9939"/>
</g>
<!-- 139748202263440&#45;&gt;139748204554560 -->
<g id="edge42" class="edge">
<title>139748202263440&#45;&gt;139748204554560</title>
<path fill="none" stroke="#000000" d="M461.865,-651.137C470.9354,-625.9588 488.3931,-588.695 517,-569 554.3705,-543.2715 607.7023,-538.9623 643.2911,-539.4669"/>
<polygon fill="#000000" stroke="#000000" points="643.6347,-542.9778 653.7289,-539.7596 643.831,-535.9805 643.6347,-542.9778"/>
</g>
<!-- 139748202263608&#45;&gt;139748202264784 -->
<g id="edge51" class="edge">
<title>139748202263608&#45;&gt;139748202264784</title>
<path fill="none" stroke="#000000" d="M1312.0755,-775.4128C1289.7297,-678.5239 1207.0285,-350 1113,-350 364,-350 364,-350 364,-350 251.5099,-350 158.729,-470.2339 122.202,-525.18"/>
<polygon fill="#000000" stroke="#000000" points="119.1647,-523.4301 116.631,-533.7176 125.027,-527.2555 119.1647,-523.4301"/>
</g>
<!-- 139748202263608&#45;&gt;139748202264952 -->
<g id="edge56" class="edge">
<title>139748202263608&#45;&gt;139748202264952</title>
<path fill="none" stroke="#000000" d="M1319.1562,-829.0791C1322.8091,-900.8254 1336.6256,-1093.1866 1381,-1135 1422.4705,-1174.0772 1490.6574,-1175.7941 1538.1467,-1171.029"/>
<polygon fill="#000000" stroke="#000000" points="1538.7036,-1174.4885 1548.2473,-1169.8876 1537.9175,-1167.5327 1538.7036,-1174.4885"/>
</g>
<!-- 139748202263608&#45;&gt;139748202265120 -->
<g id="edge43" class="edge">
<title>139748202263608&#45;&gt;139748202265120</title>
<path fill="none" stroke="#000000" d="M1320.2315,-829.0296C1326.0357,-892.2871 1343.8085,-1047.1674 1381,-1081 1422.6421,-1118.8813 1489.5595,-1121.1627 1536.7486,-1116.8449"/>
<polygon fill="#000000" stroke="#000000" points="1537.2156,-1120.3153 1546.7997,-1115.7993 1536.4912,-1113.3528 1537.2156,-1120.3153"/>
</g>
<!-- 139748202263608&#45;&gt;139748202265288 -->
<g id="edge45" class="edge">
<title>139748202263608&#45;&gt;139748202265288</title>
<path fill="none" stroke="#000000" d="M1321.8032,-829.0017C1329.9715,-882.9247 1350.9219,-1001.0066 1381,-1027 1382.1761,-1028.0164 1383.3705,-1029.0065 1384.5825,-1029.9711"/>
<polygon fill="#000000" stroke="#000000" points="1382.6808,-1032.916 1392.8253,-1035.9724 1386.801,-1027.2569 1382.6808,-1032.916"/>
</g>
<!-- 139748202263608&#45;&gt;139748202264616 -->
<g id="edge53" class="edge">
<title>139748202263608&#45;&gt;139748202264616</title>
<path fill="none" stroke="#000000" d="M1319.6898,-829.0221C1323.6452,-867.3448 1336.8586,-936.7354 1381,-972 1403.3519,-989.8569 1431.4949,-999.4608 1459.8643,-1004.1743"/>
<polygon fill="#000000" stroke="#000000" points="1459.4977,-1007.6579 1469.8992,-1005.6431 1460.5115,-1000.7317 1459.4977,-1007.6579"/>
</g>
<!-- 139748202263608&#45;&gt;139748203198336 -->
<g id="edge52" class="edge">
<title>139748202263608&#45;&gt;139748203198336</title>
<path fill="none" stroke="#000000" d="M1325.0271,-828.4394C1333.5898,-855.1269 1350.7951,-895.2727 1381,-916 1408.0833,-934.5852 1441.7913,-943.7503 1474.2396,-947.7999"/>
<polygon fill="#000000" stroke="#000000" points="1473.9389,-951.2879 1484.2605,-948.8972 1474.701,-944.3294 1473.9389,-951.2879"/>
</g>
<!-- 139748202263608&#45;&gt;139748203197888 -->
<g id="edge47" class="edge">
<title>139748202263608&#45;&gt;139748203197888</title>
<path fill="none" stroke="#000000" d="M1335.3547,-823.0626C1346.9281,-835.6112 1363.2388,-850.6708 1381,-859 1405.5573,-870.5162 1433.3586,-877.893 1460.5188,-882.558"/>
<polygon fill="#000000" stroke="#000000" points="1460.061,-886.0292 1470.489,-884.1566 1461.1692,-879.1175 1460.061,-886.0292"/>
</g>
<!-- 139748202263608&#45;&gt;139748203197832 -->
<g id="edge54" class="edge">
<title>139748202263608&#45;&gt;139748203197832</title>
<path fill="none" stroke="#000000" d="M1345.2241,-804.9862C1370.5007,-807.7588 1410.1848,-812.1117 1450.3734,-816.5199"/>
<polygon fill="#000000" stroke="#000000" points="1449.9948,-819.9993 1460.3168,-817.6106 1450.7581,-813.041 1449.9948,-819.9993"/>
</g>
<!-- 139748202263608&#45;&gt;139748202264448 -->
<g id="edge49" class="edge">
<title>139748202263608&#45;&gt;139748202264448</title>
<path fill="none" stroke="#000000" d="M1345.2241,-799.0138C1375.6874,-795.6723 1427.0777,-790.0354 1475.057,-784.7725"/>
<polygon fill="#000000" stroke="#000000" points="1475.676,-788.2257 1485.2347,-783.6562 1474.9127,-781.2675 1475.676,-788.2257"/>
</g>
<!-- 139748202263608&#45;&gt;139748202265680 -->
<g id="edge50" class="edge">
<title>139748202263608&#45;&gt;139748202265680</title>
<path fill="none" stroke="#000000" d="M1335.4774,-781.1922C1347.0984,-768.7423 1363.416,-753.697 1381,-745 1404.8543,-733.2017 1431.8322,-724.9523 1458.3202,-719.1895"/>
<polygon fill="#000000" stroke="#000000" points="1459.3546,-722.5499 1468.4405,-717.1005 1457.9394,-715.6944 1459.3546,-722.5499"/>
</g>
<!-- 139748202263608&#45;&gt;139748202265904 -->
<g id="edge55" class="edge">
<title>139748202263608&#45;&gt;139748202265904</title>
<path fill="none" stroke="#000000" d="M1324.4372,-775.7135C1332.7262,-747.5201 1349.911,-703.5077 1381,-679 1404.1484,-660.752 1432.8573,-648.8974 1461.551,-641.2318"/>
<polygon fill="#000000" stroke="#000000" points="1462.4273,-644.6205 1471.2733,-638.7896 1460.7219,-637.8314 1462.4273,-644.6205"/>
</g>
<!-- 139748202263608&#45;&gt;139748203197384 -->
<g id="edge48" class="edge">
<title>139748202263608&#45;&gt;139748203197384</title>
<path fill="none" stroke="#000000" d="M1323.2897,-775.3467C1333.4184,-726.7371 1356.7118,-626.3492 1381,-601 1406.3076,-574.5868 1441.4713,-557.3222 1475.8187,-546.0495"/>
<polygon fill="#000000" stroke="#000000" points="1476.9783,-549.3541 1485.4759,-543.0263 1474.8869,-542.6738 1476.9783,-549.3541"/>
</g>
<!-- 139748202263608&#45;&gt;139748202264280 -->
<g id="edge46" class="edge">
<title>139748202263608&#45;&gt;139748202264280</title>
<path fill="none" stroke="#000000" d="M1320.7901,-775.0066C1328.0239,-709.2252 1349.0726,-542.7563 1381,-498 1416.752,-447.8824 1479.4336,-414.4618 1527.1264,-394.888"/>
<polygon fill="#000000" stroke="#000000" points="1528.4682,-398.121 1536.4527,-391.157 1525.8681,-391.6217 1528.4682,-398.121"/>
</g>
<!-- 139748202263608&#45;&gt;139748202265456 -->
<g id="edge44" class="edge">
<title>139748202263608&#45;&gt;139748202265456</title>
<path fill="none" stroke="#000000" d="M1319.5838,-774.8304C1324.9389,-688.706 1344.1277,-422.9335 1381,-346 1422.4597,-259.4948 1509.836,-184.2899 1557.9551,-147.3314"/>
<polygon fill="#000000" stroke="#000000" points="1560.3269,-149.9254 1566.1795,-141.0937 1556.0968,-144.348 1560.3269,-149.9254"/>
</g>
<!-- 139748202264056&#45;&gt;139748203198000 -->
<g id="edge57" class="edge">
<title>139748202264056&#45;&gt;139748203198000</title>
<path fill="none" stroke="#000000" d="M299.07,-765.5851C307.8861,-769.3075 317.9811,-773.5698 327.542,-777.6066"/>
<polygon fill="#000000" stroke="#000000" points="326.2839,-780.8746 336.8578,-781.54 329.0067,-774.4258 326.2839,-780.8746"/>
</g>
<!-- 139748202264056&#45;&gt;139748203196936 -->
<g id="edge58" class="edge">
<title>139748202264056&#45;&gt;139748203196936</title>
<path fill="none" stroke="#000000" d="M299.07,-744.6934C307.8861,-741.0691 317.9811,-736.9189 327.542,-732.9883"/>
<polygon fill="#000000" stroke="#000000" points="328.9397,-736.198 336.8578,-729.1585 326.2781,-729.7237 328.9397,-736.198"/>
</g>
<!-- 139748202264168&#45;&gt;139748202263944 -->
<g id="edge59" class="edge">
<title>139748202264168&#45;&gt;139748202263944</title>
<path fill="none" stroke="#000000" d="M470.4902,-835.4784C481.9504,-848.6137 498.456,-864.3232 517,-872 638.1557,-922.1559 798.8764,-905.7778 870.6357,-894.6809"/>
<polygon fill="#000000" stroke="#000000" points="871.242,-898.1285 880.5623,-893.0905 870.1345,-891.2166 871.242,-898.1285"/>
</g>
</g>
</svg>
