<?xml version="1.0" encoding="UTF-8" standalone="no"?>
<!DOCTYPE svg PUBLIC "-//W3C//DTD SVG 1.1//EN"
 "http://www.w3.org/Graphics/SVG/1.1/DTD/svg11.dtd">
<!-- Generated by graphviz version 2.40.1 (20161225.0304)
 -->
<!-- Title: alpha_plus_net_1585280321.13756 Pages: 1 -->
<svg width="848pt" height="2870pt"
 viewBox="0.00 0.00 848.00 2870.00" xmlns="http://www.w3.org/2000/svg" xmlns:xlink="http://www.w3.org/1999/xlink">
<g id="graph0" class="graph" transform="scale(1 1) rotate(0) translate(4 2866)">
<title>alpha_plus_net_1585280321.13756</title>
<!-- 140633490414728 -->
<g id="node1" class="node">
<title>140633490414728</title>
<polygon fill="none" stroke="#000000" points="212,-36 16,-36 16,0 212,0 212,-36"/>
<text text-anchor="middle" x="114" y="-14.3" font-family="Times,serif" font-size="14.00" fill="#000000">AccountDataBean:getAccountID</text>
</g>
<!-- 140633493954912 -->
<g id="node2" class="node">
<title>140633493954912</title>
<polygon fill="none" stroke="#000000" points="203.5,-90 24.5,-90 24.5,-54 203.5,-54 203.5,-90"/>
<text text-anchor="middle" x="114" y="-68.3" font-family="Times,serif" font-size="14.00" fill="#000000">AccountDataBean:getBalance</text>
</g>
<!-- 140633490414056 -->
<g id="node3" class="node">
<title>140633490414056</title>
<polygon fill="none" stroke="#000000" points="218,-144 10,-144 10,-108 218,-108 218,-144"/>
<text text-anchor="middle" x="114" y="-122.3" font-family="Times,serif" font-size="14.00" fill="#000000">AccountDataBean:getCreationDate</text>
</g>
<!-- 140633493954688 -->
<g id="node4" class="node">
<title>140633493954688</title>
<polygon fill="none" stroke="#000000" points="214.5,-198 13.5,-198 13.5,-162 214.5,-162 214.5,-198"/>
<text text-anchor="middle" x="114" y="-176.3" font-family="Times,serif" font-size="14.00" fill="#000000">AccountDataBean:getLoginCount</text>
</g>
<!-- 140633493955584 -->
<g id="node5" class="node">
<title>140633493955584</title>
<polygon fill="none" stroke="#000000" points="218.5,-252 9.5,-252 9.5,-216 218.5,-216 218.5,-252"/>
<text text-anchor="middle" x="114" y="-230.3" font-family="Times,serif" font-size="14.00" fill="#000000">AccountDataBean:getOpenBalance</text>
</g>
<!-- 140633490414560 -->
<g id="node6" class="node">
<title>140633490414560</title>
<polygon fill="none" stroke="#000000" points="207.5,-306 20.5,-306 20.5,-270 207.5,-270 207.5,-306"/>
<text text-anchor="middle" x="114" y="-284.3" font-family="Times,serif" font-size="14.00" fill="#000000">AccountDataBean:getProfileID</text>
</g>
<!-- 140633493955640 -->
<g id="node7" class="node">
<title>140633493955640</title>
<polygon fill="none" stroke="#000000" points="200.5,-360 27.5,-360 27.5,-324 200.5,-324 200.5,-360"/>
<text text-anchor="middle" x="114" y="-338.3" font-family="Times,serif" font-size="14.00" fill="#000000">AccountDataBean:hashCode</text>
</g>
<!-- 140633493957376 -->
<g id="node58" class="node">
<title>140633493957376</title>
<ellipse fill="none" stroke="#000000" cx="342.5" cy="-369" rx="27" ry="27"/>
<text text-anchor="middle" x="342.5" y="-365.3" font-family="Times,serif" font-size="14.00" fill="#000000">({&#39;AccountDataBean:hashCode&#39;}, {&#39;TradeAction:login&#39;})</text>
</g>
<!-- 140633493955640&#45;&gt;140633493957376 -->
<g id="edge7" class="edge">
<title>140633493955640&#45;&gt;140633493957376</title>
<path fill="none" stroke="#000000" d="M200.7119,-352.246C236.8717,-356.5188 276.945,-361.2539 305.2382,-364.5971"/>
<polygon fill="#000000" stroke="#000000" points="305.1307,-368.1086 315.4723,-365.8064 305.9521,-361.157 305.1307,-368.1086"/>
</g>
<!-- 140633493955360 -->
<g id="node8" class="node">
<title>140633493955360</title>
<polygon fill="none" stroke="#000000" points="187.5,-414 40.5,-414 40.5,-378 187.5,-378 187.5,-414"/>
<text text-anchor="middle" x="114" y="-392.3" font-family="Times,serif" font-size="14.00" fill="#000000">AccountDataBean:login</text>
</g>
<!-- 140633493956200 -->
<g id="node9" class="node">
<title>140633493956200</title>
<polygon fill="none" stroke="#000000" points="206.5,-468 21.5,-468 21.5,-432 206.5,-432 206.5,-468"/>
<text text-anchor="middle" x="114" y="-446.3" font-family="Times,serif" font-size="14.00" fill="#000000">AccountDataBean:setProfileID</text>
</g>
<!-- 140633493954632 -->
<g id="node10" class="node">
<title>140633493954632</title>
<polygon fill="none" stroke="#000000" points="223,-522 5,-522 5,-486 223,-486 223,-522"/>
<text text-anchor="middle" x="114" y="-500.3" font-family="Times,serif" font-size="14.00" fill="#000000">AccountProfileDataBean:getAccount</text>
</g>
<!-- 140633493954968 -->
<g id="node11" class="node">
<title>140633493954968</title>
<polygon fill="none" stroke="#000000" points="226,-576 2,-576 2,-540 226,-540 226,-576"/>
<text text-anchor="middle" x="114" y="-554.3" font-family="Times,serif" font-size="14.00" fill="#000000">AccountProfileDataBean:getPassword</text>
</g>
<!-- 140633493956144 -->
<g id="node12" class="node">
<title>140633493956144</title>
<polygon fill="none" stroke="#000000" points="220,-630 8,-630 8,-594 220,-594 220,-630"/>
<text text-anchor="middle" x="114" y="-608.3" font-family="Times,serif" font-size="14.00" fill="#000000">AccountProfileDataBean:getUserID</text>
</g>
<!-- 140633493954856 -->
<g id="node13" class="node">
<title>140633493954856</title>
<polygon fill="none" stroke="#000000" points="199,-684 29,-684 29,-648 199,-648 199,-684"/>
<text text-anchor="middle" x="114" y="-662.3" font-family="Times,serif" font-size="14.00" fill="#000000">FinancialUtils:computeGain</text>
</g>
<!-- 140633493955248 -->
<g id="node14" class="node">
<title>140633493955248</title>
<polygon fill="none" stroke="#000000" points="219.5,-738 8.5,-738 8.5,-702 219.5,-702 219.5,-738"/>
<text text-anchor="middle" x="114" y="-716.3" font-family="Times,serif" font-size="14.00" fill="#000000">FinancialUtils:computeGainPercent</text>
</g>
<!-- 140633490414952 -->
<g id="node15" class="node">
<title>140633490414952</title>
<polygon fill="none" stroke="#000000" points="225,-792 3,-792 3,-756 225,-756 225,-792"/>
<text text-anchor="middle" x="114" y="-770.3" font-family="Times,serif" font-size="14.00" fill="#000000">FinancialUtils:computeHoldingsTotal</text>
</g>
<!-- 140633490415512 -->
<g id="node16" class="node">
<title>140633490415512</title>
<polygon fill="none" stroke="#000000" points="208,-846 20,-846 20,-810 208,-810 208,-846"/>
<text text-anchor="middle" x="114" y="-824.3" font-family="Times,serif" font-size="14.00" fill="#000000">FinancialUtils:printGainHTML</text>
</g>
<!-- 140633490414392 -->
<g id="node17" class="node">
<title>140633490414392</title>
<polygon fill="none" stroke="#000000" points="228,-900 0,-900 0,-864 228,-864 228,-900"/>
<text text-anchor="middle" x="114" y="-878.3" font-family="Times,serif" font-size="14.00" fill="#000000">FinancialUtils:printGainPercentHTML</text>
</g>
<!-- 140633490414784 -->
<g id="node18" class="node">
<title>140633490414784</title>
<polygon fill="none" stroke="#000000" points="204.5,-954 23.5,-954 23.5,-918 204.5,-918 204.5,-954"/>
<text text-anchor="middle" x="114" y="-932.3" font-family="Times,serif" font-size="14.00" fill="#000000">FinancialUtils:printQuoteLink</text>
</g>
<!-- 140633490415456 -->
<g id="node19" class="node">
<title>140633490415456</title>
<polygon fill="none" stroke="#000000" points="219.5,-1008 8.5,-1008 8.5,-972 219.5,-972 219.5,-1008"/>
<text text-anchor="middle" x="114" y="-986.3" font-family="Times,serif" font-size="14.00" fill="#000000">HoldingDataBean:getPurchasePrice</text>
</g>
<!-- 140633493955192 -->
<g id="node20" class="node">
<title>140633493955192</title>
<polygon fill="none" stroke="#000000" points="205,-1062 23,-1062 23,-1026 205,-1026 205,-1062"/>
<text text-anchor="middle" x="114" y="-1040.3" font-family="Times,serif" font-size="14.00" fill="#000000">HoldingDataBean:getQuantity</text>
</g>
<!-- 140633493954744 -->
<g id="node21" class="node">
<title>140633493954744</title>
<polygon fill="none" stroke="#000000" points="175.5,-1116 52.5,-1116 52.5,-1080 175.5,-1080 175.5,-1116"/>
<text text-anchor="middle" x="114" y="-1094.3" font-family="Times,serif" font-size="14.00" fill="#000000">Log:doActionTrace</text>
</g>
<!-- 140633490414280 -->
<g id="node22" class="node">
<title>140633490414280</title>
<polygon fill="none" stroke="#000000" points="157,-1170 71,-1170 71,-1134 157,-1134 157,-1170"/>
<text text-anchor="middle" x="114" y="-1148.3" font-family="Times,serif" font-size="14.00" fill="#000000">Log:doTrace</text>
</g>
<!-- 140633493956088 -->
<g id="node23" class="node">
<title>140633493956088</title>
<polygon fill="none" stroke="#000000" points="220,-1224 8,-1224 8,-1188 220,-1188 220,-1224"/>
<text text-anchor="middle" x="114" y="-1202.3" font-family="Times,serif" font-size="14.00" fill="#000000">OrderDataBean:getCompletionDate</text>
</g>
<!-- 140633490414840 -->
<g id="node24" class="node">
<title>140633490414840</title>
<polygon fill="none" stroke="#000000" points="202,-1278 26,-1278 26,-1242 202,-1242 202,-1278"/>
<text text-anchor="middle" x="114" y="-1256.3" font-family="Times,serif" font-size="14.00" fill="#000000">OrderDataBean:getOpenDate</text>
</g>
<!-- 140633493955920 -->
<g id="node25" class="node">
<title>140633493955920</title>
<polygon fill="none" stroke="#000000" points="200.5,-1332 27.5,-1332 27.5,-1296 200.5,-1296 200.5,-1332"/>
<text text-anchor="middle" x="114" y="-1310.3" font-family="Times,serif" font-size="14.00" fill="#000000">OrderDataBean:getOrderFee</text>
</g>
<!-- 140633493955696 -->
<g id="node26" class="node">
<title>140633493955696</title>
<polygon fill="none" stroke="#000000" points="197.5,-1386 30.5,-1386 30.5,-1350 197.5,-1350 197.5,-1386"/>
<text text-anchor="middle" x="114" y="-1364.3" font-family="Times,serif" font-size="14.00" fill="#000000">OrderDataBean:getOrderID</text>
</g>
<!-- 140633490414504 -->
<g id="node27" class="node">
<title>140633490414504</title>
<polygon fill="none" stroke="#000000" points="207,-1440 21,-1440 21,-1404 207,-1404 207,-1440"/>
<text text-anchor="middle" x="114" y="-1418.3" font-family="Times,serif" font-size="14.00" fill="#000000">OrderDataBean:getOrderStatus</text>
</g>
<!-- 140633493955416 -->
<g id="node28" class="node">
<title>140633493955416</title>
<polygon fill="none" stroke="#000000" points="204.5,-1494 23.5,-1494 23.5,-1458 204.5,-1458 204.5,-1494"/>
<text text-anchor="middle" x="114" y="-1472.3" font-family="Times,serif" font-size="14.00" fill="#000000">OrderDataBean:getOrderType</text>
</g>
<!-- 140633493955472 -->
<g id="node29" class="node">
<title>140633493955472</title>
<polygon fill="none" stroke="#000000" points="198.5,-1548 29.5,-1548 29.5,-1512 198.5,-1512 198.5,-1548"/>
<text text-anchor="middle" x="114" y="-1526.3" font-family="Times,serif" font-size="14.00" fill="#000000">OrderDataBean:getQuantity</text>
</g>
<!-- 140633493954800 -->
<g id="node30" class="node">
<title>140633493954800</title>
<polygon fill="none" stroke="#000000" points="196,-1602 32,-1602 32,-1566 196,-1566 196,-1602"/>
<text text-anchor="middle" x="114" y="-1580.3" font-family="Times,serif" font-size="14.00" fill="#000000">OrderDataBean:getSymbol</text>
</g>
<!-- 140633490415568 -->
<g id="node31" class="node">
<title>140633490415568</title>
<polygon fill="none" stroke="#000000" points="421,-1665 264,-1665 264,-1629 421,-1629 421,-1665"/>
<text text-anchor="middle" x="342.5" y="-1643.3" font-family="Times,serif" font-size="14.00" fill="#000000">OrdersAlertFilter:doFilter</text>
</g>
<!-- 140633493956760 -->
<g id="node59" class="node">
<title>140633493956760</title>
<ellipse fill="none" stroke="#000000" cx="558.5" cy="-1647" rx="27" ry="27"/>
<text text-anchor="middle" x="558.5" y="-1643.3" font-family="Times,serif" font-size="14.00" fill="#000000">({&#39;OrdersAlertFilter:doFilter&#39;}, {&#39;Root&#39;})</text>
</g>
<!-- 140633490415568&#45;&gt;140633493956760 -->
<g id="edge8" class="edge">
<title>140633490415568&#45;&gt;140633493956760</title>
<path fill="none" stroke="#000000" d="M421.092,-1647C455.1684,-1647 493.473,-1647 520.9658,-1647"/>
<polygon fill="#000000" stroke="#000000" points="521.3076,-1650.5001 531.3075,-1647 521.3075,-1643.5001 521.3076,-1650.5001"/>
</g>
<!-- 140633493956256 -->
<g id="node32" class="node">
<title>140633493956256</title>
<polygon fill="none" stroke="#000000" points="197,-1728 31,-1728 31,-1692 197,-1692 197,-1728"/>
<text text-anchor="middle" x="114" y="-1706.3" font-family="Times,serif" font-size="14.00" fill="#000000">QuoteDataBean:getSymbol</text>
</g>
<!-- 140633490415008 -->
<g id="node33" class="node">
<title>140633490415008</title>
<polygon fill="none" stroke="#000000" points="750,-1665 696,-1665 696,-1629 750,-1629 750,-1665"/>
<text text-anchor="middle" x="723" y="-1643.3" font-family="Times,serif" font-size="14.00" fill="#000000">Root</text>
</g>
<!-- 140633493956368 -->
<g id="node63" class="node">
<title>140633493956368</title>
<ellipse fill="#ffa500" stroke="#000000" cx="813" cy="-1647" rx="27" ry="27"/>
</g>
<!-- 140633490415008&#45;&gt;140633493956368 -->
<g id="edge9" class="edge">
<title>140633490415008&#45;&gt;140633493956368</title>
<path fill="none" stroke="#000000" d="M750.003,-1647C758.0277,-1647 766.9665,-1647 775.5309,-1647"/>
<polygon fill="#000000" stroke="#000000" points="775.7051,-1650.5001 785.705,-1647 775.705,-1643.5001 775.7051,-1650.5001"/>
</g>
<!-- 140633490414672 -->
<g id="node34" class="node">
<title>140633490414672</title>
<polygon fill="none" stroke="#000000" points="202,-1782 26,-1782 26,-1746 202,-1746 202,-1782"/>
<text text-anchor="middle" x="114" y="-1760.3" font-family="Times,serif" font-size="14.00" fill="#000000">TradeAction:getAccountData</text>
</g>
<!-- 140633490414616 -->
<g id="node35" class="node">
<title>140633490414616</title>
<polygon fill="none" stroke="#000000" points="203.5,-1836 24.5,-1836 24.5,-1800 203.5,-1800 203.5,-1836"/>
<text text-anchor="middle" x="114" y="-1814.3" font-family="Times,serif" font-size="14.00" fill="#000000">TradeAction:getClosedOrders</text>
</g>
<!-- 140633493955752 -->
<g id="node36" class="node">
<title>140633493955752</title>
<polygon fill="none" stroke="#000000" points="191.5,-1890 36.5,-1890 36.5,-1854 191.5,-1854 191.5,-1890"/>
<text text-anchor="middle" x="114" y="-1868.3" font-family="Times,serif" font-size="14.00" fill="#000000">TradeAction:getHoldings</text>
</g>
<!-- 140633490415344 -->
<g id="node37" class="node">
<title>140633490415344</title>
<polygon fill="none" stroke="#000000" points="616.5,-383 500.5,-383 500.5,-347 616.5,-347 616.5,-383"/>
<text text-anchor="middle" x="558.5" y="-361.3" font-family="Times,serif" font-size="14.00" fill="#000000">TradeAction:login</text>
</g>
<!-- 140633493957208 -->
<g id="node60" class="node">
<title>140633493957208</title>
<ellipse fill="none" stroke="#000000" cx="723" cy="-338" rx="27" ry="27"/>
<text text-anchor="middle" x="723" y="-334.3" font-family="Times,serif" font-size="14.00" fill="#000000">({&#39;TradeAction:login&#39;}, {&#39;AccountDataBean:hashCode&#39;})</text>
</g>
<!-- 140633490415344&#45;&gt;140633493957208 -->
<g id="edge10" class="edge">
<title>140633490415344&#45;&gt;140633493957208</title>
<path fill="none" stroke="#000000" d="M616.9597,-355.4048C639.9226,-351.6358 665.5922,-347.4226 685.9234,-344.0855"/>
<polygon fill="#000000" stroke="#000000" points="686.7251,-347.5009 696.0261,-342.4273 685.5912,-340.5933 686.7251,-347.5009"/>
</g>
<!-- 140633490415176 -->
<g id="node38" class="node">
<title>140633490415176</title>
<polygon fill="none" stroke="#000000" points="206,-1944 22,-1944 22,-1908 206,-1908 206,-1944"/>
<text text-anchor="middle" x="114" y="-1922.3" font-family="Times,serif" font-size="14.00" fill="#000000">TradeAppServlet:performTask</text>
</g>
<!-- 140633493956032 -->
<g id="node39" class="node">
<title>140633493956032</title>
<polygon fill="none" stroke="#000000" points="200.5,-1998 27.5,-1998 27.5,-1962 200.5,-1962 200.5,-1998"/>
<text text-anchor="middle" x="114" y="-1976.3" font-family="Times,serif" font-size="14.00" fill="#000000">TradeConfig:getActionTrace</text>
</g>
<!-- 140633493955304 -->
<g id="node40" class="node">
<title>140633493955304</title>
<polygon fill="none" stroke="#000000" points="220,-2052 8,-2052 8,-2016 220,-2016 220,-2052"/>
<text text-anchor="middle" x="114" y="-2030.3" font-family="Times,serif" font-size="14.00" fill="#000000">TradeConfig:getDisplayOrderAlerts</text>
</g>
<!-- 140633493955528 -->
<g id="node41" class="node">
<title>140633493955528</title>
<polygon fill="none" stroke="#000000" points="192.5,-2106 35.5,-2106 35.5,-2070 192.5,-2070 192.5,-2106"/>
<text text-anchor="middle" x="114" y="-2084.3" font-family="Times,serif" font-size="14.00" fill="#000000">TradeConfig:getLongRun</text>
</g>
<!-- 140633493957040 -->
<g id="node61" class="node">
<title>140633493957040</title>
<ellipse fill="none" stroke="#000000" cx="342.5" cy="-2115" rx="27" ry="27"/>
<text text-anchor="middle" x="342.5" y="-2111.3" font-family="Times,serif" font-size="14.00" fill="#000000">({&#39;TradeConfig:getLongRun&#39;}, {&#39;TradeSLSBBean:getClosedOrders&#39;})</text>
</g>
<!-- 140633493955528&#45;&gt;140633493957040 -->
<g id="edge11" class="edge">
<title>140633493955528&#45;&gt;140633493957040</title>
<path fill="none" stroke="#000000" d="M192.6367,-2097.2919C230.8606,-2101.8085 274.9937,-2107.0233 305.4181,-2110.6183"/>
<polygon fill="#000000" stroke="#000000" points="305.2341,-2114.1209 315.5758,-2111.8186 306.0556,-2107.1692 305.2341,-2114.1209"/>
</g>
<!-- 140633490414448 -->
<g id="node42" class="node">
<title>140633490414448</title>
<polygon fill="none" stroke="#000000" points="180,-2160 48,-2160 48,-2124 180,-2124 180,-2160"/>
<text text-anchor="middle" x="114" y="-2138.3" font-family="Times,serif" font-size="14.00" fill="#000000">TradeConfig:getPage</text>
</g>
<!-- 140633490415064 -->
<g id="node43" class="node">
<title>140633490415064</title>
<polygon fill="none" stroke="#000000" points="182.5,-2214 45.5,-2214 45.5,-2178 182.5,-2178 182.5,-2214"/>
<text text-anchor="middle" x="114" y="-2192.3" font-family="Times,serif" font-size="14.00" fill="#000000">TradeConfig:getTrace</text>
</g>
<!-- 140633490414896 -->
<g id="node44" class="node">
<title>140633490414896</title>
<polygon fill="none" stroke="#000000" points="224.5,-2268 3.5,-2268 3.5,-2232 224.5,-2232 224.5,-2268"/>
<text text-anchor="middle" x="114" y="-2246.3" font-family="Times,serif" font-size="14.00" fill="#000000">TradeConfig:useRemoteEJBInterface</text>
</g>
<!-- 140633490415288 -->
<g id="node45" class="node">
<title>140633490415288</title>
<polygon fill="none" stroke="#000000" points="214,-2322 14,-2322 14,-2286 214,-2286 214,-2322"/>
<text text-anchor="middle" x="114" y="-2300.3" font-family="Times,serif" font-size="14.00" fill="#000000">TradeSLSBBean:getAccountData</text>
</g>
<!-- 140633490414000 -->
<g id="node46" class="node">
<title>140633490414000</title>
<polygon fill="none" stroke="#000000" points="660,-2128 457,-2128 457,-2092 660,-2092 660,-2128"/>
<text text-anchor="middle" x="558.5" y="-2106.3" font-family="Times,serif" font-size="14.00" fill="#000000">TradeSLSBBean:getClosedOrders</text>
</g>
<!-- 140633493956872 -->
<g id="node62" class="node">
<title>140633493956872</title>
<ellipse fill="none" stroke="#000000" cx="723" cy="-2083" rx="27" ry="27"/>
<text text-anchor="middle" x="723" y="-2079.3" font-family="Times,serif" font-size="14.00" fill="#000000">({&#39;TradeSLSBBean:getClosedOrders&#39;}, {&#39;TradeConfig:getLongRun&#39;})</text>
</g>
<!-- 140633490414000&#45;&gt;140633493956872 -->
<g id="edge12" class="edge">
<title>140633490414000&#45;&gt;140633493956872</title>
<path fill="none" stroke="#000000" d="M660.3403,-2093.2846C669.4806,-2091.7843 678.2782,-2090.3404 686.2449,-2089.0327"/>
<polygon fill="#000000" stroke="#000000" points="686.8973,-2092.4726 696.1984,-2087.399 685.7635,-2085.565 686.8973,-2092.4726"/>
</g>
<!-- 140633493955808 -->
<g id="node47" class="node">
<title>140633493955808</title>
<polygon fill="none" stroke="#000000" points="203,-2376 25,-2376 25,-2340 203,-2340 203,-2376"/>
<text text-anchor="middle" x="114" y="-2354.3" font-family="Times,serif" font-size="14.00" fill="#000000">TradeSLSBBean:getHoldings</text>
</g>
<!-- 140633493955864 -->
<g id="node48" class="node">
<title>140633493955864</title>
<polygon fill="none" stroke="#000000" points="184,-2430 44,-2430 44,-2394 184,-2394 184,-2430"/>
<text text-anchor="middle" x="114" y="-2408.3" font-family="Times,serif" font-size="14.00" fill="#000000">TradeSLSBBean:login</text>
</g>
<!-- 140633490415232 -->
<g id="node49" class="node">
<title>140633490415232</title>
<polygon fill="none" stroke="#000000" points="207.5,-2484 20.5,-2484 20.5,-2448 207.5,-2448 207.5,-2484"/>
<text text-anchor="middle" x="114" y="-2462.3" font-family="Times,serif" font-size="14.00" fill="#000000">TradeSLSBBean:postConstruct</text>
</g>
<!-- 140633493955136 -->
<g id="node50" class="node">
<title>140633493955136</title>
<polygon fill="none" stroke="#000000" points="185,-2538 43,-2538 43,-2502 185,-2502 185,-2538"/>
<text text-anchor="middle" x="114" y="-2516.3" font-family="Times,serif" font-size="14.00" fill="#000000">new AccountDataBean</text>
</g>
<!-- 140633490414336 -->
<g id="node51" class="node">
<title>140633490414336</title>
<polygon fill="none" stroke="#000000" points="203.5,-2592 24.5,-2592 24.5,-2556 203.5,-2556 203.5,-2592"/>
<text text-anchor="middle" x="114" y="-2570.3" font-family="Times,serif" font-size="14.00" fill="#000000">new AccountProfileDataBean</text>
</g>
<!-- 140633490414168 -->
<g id="node52" class="node">
<title>140633490414168</title>
<polygon fill="none" stroke="#000000" points="184,-2646 44,-2646 44,-2610 184,-2610 184,-2646"/>
<text text-anchor="middle" x="114" y="-2624.3" font-family="Times,serif" font-size="14.00" fill="#000000">new HoldingDataBean</text>
</g>
<!-- 140633490415400 -->
<g id="node53" class="node">
<title>140633490415400</title>
<polygon fill="none" stroke="#000000" points="178,-2700 50,-2700 50,-2664 178,-2664 178,-2700"/>
<text text-anchor="middle" x="114" y="-2678.3" font-family="Times,serif" font-size="14.00" fill="#000000">new OrderDataBean</text>
</g>
<!-- 140633493955080 -->
<g id="node54" class="node">
<title>140633493955080</title>
<polygon fill="none" stroke="#000000" points="178.5,-2754 49.5,-2754 49.5,-2718 178.5,-2718 178.5,-2754"/>
<text text-anchor="middle" x="114" y="-2732.3" font-family="Times,serif" font-size="14.00" fill="#000000">new QuoteDataBean</text>
</g>
<!-- 140633490414112 -->
<g id="node55" class="node">
<title>140633490414112</title>
<polygon fill="none" stroke="#000000" points="169.5,-2808 58.5,-2808 58.5,-2772 169.5,-2772 169.5,-2808"/>
<text text-anchor="middle" x="114" y="-2786.3" font-family="Times,serif" font-size="14.00" fill="#000000">new TradeAction</text>
</g>
<!-- 140633493955024 -->
<g id="node56" class="node">
<title>140633493955024</title>
<polygon fill="none" stroke="#000000" points="181,-2862 47,-2862 47,-2826 181,-2826 181,-2862"/>
<text text-anchor="middle" x="114" y="-2840.3" font-family="Times,serif" font-size="14.00" fill="#000000">new TradeSLSBBean</text>
</g>
<!-- 140633493956536 -->
<g id="node57" class="node">
<title>140633493956536</title>
<ellipse fill="#00ff00" stroke="#000000" cx="114" cy="-1647" rx="27" ry="27"/>
<text text-anchor="middle" x="114" y="-1643.3" font-family="Times,serif" font-size="14.00" fill="#000000">1</text>
</g>
<!-- 140633493956536&#45;&gt;140633490415568 -->
<g id="edge6" class="edge">
<title>140633493956536&#45;&gt;140633490415568</title>
<path fill="none" stroke="#000000" d="M141.1093,-1647C168.8451,-1647 213.45,-1647 253.6399,-1647"/>
<polygon fill="#000000" stroke="#000000" points="253.7496,-1650.5001 263.7496,-1647 253.7495,-1643.5001 253.7496,-1650.5001"/>
</g>
<!-- 140633493957376&#45;&gt;140633490415344 -->
<g id="edge1" class="edge">
<title>140633493957376&#45;&gt;140633490415344</title>
<path fill="none" stroke="#000000" d="M369.8565,-368.4934C399.8916,-367.9372 449.2596,-367.023 489.9593,-366.2693"/>
<polygon fill="#000000" stroke="#000000" points="490.1694,-369.7661 500.1029,-366.0814 490.0398,-362.7673 490.1694,-369.7661"/>
</g>
<!-- 140633493956760&#45;&gt;140633490415008 -->
<g id="edge2" class="edge">
<title>140633493956760&#45;&gt;140633490415008</title>
<path fill="none" stroke="#000000" d="M585.6638,-1647C612.9284,-1647 655.1388,-1647 685.5678,-1647"/>
<polygon fill="#000000" stroke="#000000" points="685.7958,-1650.5001 695.7958,-1647 685.7958,-1643.5001 685.7958,-1650.5001"/>
</g>
<!-- 140633493957208&#45;&gt;140633493955640 -->
<g id="edge3" class="edge">
<title>140633493957208&#45;&gt;140633493955640</title>
<path fill="none" stroke="#000000" d="M695.8319,-336.9299C624.8325,-334.3013 427.8932,-328.0876 264,-333 246.8881,-333.5129 228.693,-334.3542 211.0942,-335.3219"/>
<polygon fill="#000000" stroke="#000000" points="210.5998,-331.8442 200.814,-335.9047 210.9961,-338.833 210.5998,-331.8442"/>
</g>
<!-- 140633493957040&#45;&gt;140633490414000 -->
<g id="edge4" class="edge">
<title>140633493957040&#45;&gt;140633490414000</title>
<path fill="none" stroke="#000000" d="M369.8565,-2114.3667C389.6584,-2113.9084 417.8635,-2113.2555 446.4476,-2112.5938"/>
<polygon fill="#000000" stroke="#000000" points="446.6445,-2116.0903 456.5608,-2112.3597 446.4824,-2109.0922 446.6445,-2116.0903"/>
</g>
<!-- 140633493956872&#45;&gt;140633493955528 -->
<g id="edge5" class="edge">
<title>140633493956872&#45;&gt;140633493955528</title>
<path fill="none" stroke="#000000" d="M695.8315,-2082.0303C624.8311,-2079.6554 427.8897,-2074.0877 264,-2079 244.146,-2079.5951 222.8337,-2080.6323 202.6866,-2081.796"/>
<polygon fill="#000000" stroke="#000000" points="202.3627,-2078.3089 192.5875,-2082.3951 202.7773,-2085.2966 202.3627,-2078.3089"/>
</g>
</g>
</svg>
