<?xml version="1.0" encoding="UTF-8" standalone="no"?>
<!DOCTYPE svg PUBLIC "-//W3C//DTD SVG 1.1//EN"
 "http://www.w3.org/Graphics/SVG/1.1/DTD/svg11.dtd">
<!-- Generated by graphviz version 2.40.1 (20161225.0304)
 -->
<!-- Title: alpha_plus_net_1585280321.112139 Pages: 1 -->
<svg width="953pt" height="530pt"
 viewBox="0.00 0.00 953.00 530.00" xmlns="http://www.w3.org/2000/svg" xmlns:xlink="http://www.w3.org/1999/xlink">
<g id="graph0" class="graph" transform="scale(1 1) rotate(0) translate(4 526)">
<title>alpha_plus_net_1585280321.112139</title>
<!-- 140633490230352 -->
<g id="node1" class="node">
<title>140633490230352</title>
<polygon fill="none" stroke="#000000" points="134,-177 18,-177 18,-141 134,-141 134,-177"/>
<text text-anchor="middle" x="76" y="-155.3" font-family="Times,serif" font-size="14.00" fill="#000000">AccountDataBean</text>
</g>
<!-- 140633490412432 -->
<g id="node15" class="node">
<title>140633490412432</title>
<ellipse fill="none" stroke="#000000" cx="243" cy="-196" rx="27" ry="27"/>
<text text-anchor="middle" x="243" y="-192.3" font-family="Times,serif" font-size="14.00" fill="#000000">({&#39;AccountDataBean&#39;}, {&#39;TradeAction&#39;})</text>
</g>
<!-- 140633490230352&#45;&gt;140633490412432 -->
<g id="edge15" class="edge">
<title>140633490230352&#45;&gt;140633490412432</title>
<path fill="none" stroke="#000000" d="M134.4085,-171.9408C158.4963,-177.2776 185.6552,-183.2949 206.7867,-187.9767"/>
<polygon fill="#000000" stroke="#000000" points="206.1159,-191.4129 216.6363,-190.1589 207.6301,-184.5786 206.1159,-191.4129"/>
</g>
<!-- 140633490413552 -->
<g id="node16" class="node">
<title>140633490413552</title>
<ellipse fill="none" stroke="#000000" cx="243" cy="-118" rx="27" ry="27"/>
<text text-anchor="middle" x="243" y="-114.3" font-family="Times,serif" font-size="14.00" fill="#000000">({&#39;FinancialUtils&#39;, &#39;OrderDataBean&#39;, &#39;AccountDataBean&#39;}, {&#39;TradeAppServlet&#39;, &#39;HoldingDataBean&#39;})</text>
</g>
<!-- 140633490230352&#45;&gt;140633490413552 -->
<g id="edge16" class="edge">
<title>140633490230352&#45;&gt;140633490413552</title>
<path fill="none" stroke="#000000" d="M134.4085,-144.6602C158.4963,-138.7464 185.6552,-132.0787 206.7867,-126.8907"/>
<polygon fill="#000000" stroke="#000000" points="207.7592,-130.256 216.6363,-124.4725 206.0901,-123.4578 207.7592,-130.256"/>
</g>
<!-- 140633490230744 -->
<g id="node2" class="node">
<title>140633490230744</title>
<polygon fill="none" stroke="#000000" points="152,-339 0,-339 0,-303 152,-303 152,-339"/>
<text text-anchor="middle" x="76" y="-317.3" font-family="Times,serif" font-size="14.00" fill="#000000">AccountProfileDataBean</text>
</g>
<!-- 140633490412768 -->
<g id="node21" class="node">
<title>140633490412768</title>
<ellipse fill="none" stroke="#000000" cx="243" cy="-349" rx="27" ry="27"/>
<text text-anchor="middle" x="243" y="-345.3" font-family="Times,serif" font-size="14.00" fill="#000000">({&#39;TradeConfig&#39;, &#39;AccountProfileDataBean&#39;}, {&#39;TradeSLSBBean&#39;})</text>
</g>
<!-- 140633490230744&#45;&gt;140633490412768 -->
<g id="edge17" class="edge">
<title>140633490230744&#45;&gt;140633490412768</title>
<path fill="none" stroke="#000000" d="M152.1695,-333.7709C170.9404,-336.9181 190.2091,-340.1488 206.142,-342.8202"/>
<polygon fill="#000000" stroke="#000000" points="205.6506,-346.2866 216.0918,-344.4884 206.8082,-339.383 205.6506,-346.2866"/>
</g>
<!-- 140633490230688 -->
<g id="node3" class="node">
<title>140633490230688</title>
<polygon fill="none" stroke="#000000" points="671,-36 578,-36 578,0 671,0 671,-36"/>
<text text-anchor="middle" x="624.5" y="-14.3" font-family="Times,serif" font-size="14.00" fill="#000000">FinancialUtils</text>
</g>
<!-- 140633490230688&#45;&gt;140633490413552 -->
<g id="edge18" class="edge">
<title>140633490230688&#45;&gt;140633490413552</title>
<path fill="none" stroke="#000000" d="M577.8706,-12.0282C518.6671,-6.4273 414.5433,-3.2959 334,-37 307.3672,-48.1448 283.2639,-70.4334 266.5646,-88.8136"/>
<polygon fill="#000000" stroke="#000000" points="263.8589,-86.5902 259.8753,-96.4076 269.1116,-91.2172 263.8589,-86.5902"/>
</g>
<!-- 140633490230968 -->
<g id="node4" class="node">
<title>140633490230968</title>
<polygon fill="none" stroke="#000000" points="448,-136 334,-136 334,-100 448,-100 448,-136"/>
<text text-anchor="middle" x="391" y="-114.3" font-family="Times,serif" font-size="14.00" fill="#000000">HoldingDataBean</text>
</g>
<!-- 140633490413216 -->
<g id="node20" class="node">
<title>140633490413216</title>
<ellipse fill="none" stroke="#000000" cx="511" cy="-73" rx="27" ry="27"/>
<text text-anchor="middle" x="511" y="-69.3" font-family="Times,serif" font-size="14.00" fill="#000000">({&#39;TradeAppServlet&#39;, &#39;HoldingDataBean&#39;}, {&#39;FinancialUtils&#39;, &#39;OrderDataBean&#39;, &#39;AccountDataBean&#39;})</text>
</g>
<!-- 140633490230968&#45;&gt;140633490413216 -->
<g id="edge19" class="edge">
<title>140633490230968&#45;&gt;140633490413216</title>
<path fill="none" stroke="#000000" d="M439.1172,-99.9561C451.4225,-95.3415 464.4226,-90.4665 475.9334,-86.15"/>
<polygon fill="#000000" stroke="#000000" points="477.4763,-89.3094 485.6107,-82.521 475.0184,-82.7551 477.4763,-89.3094"/>
</g>
<!-- 140633490230240 -->
<g id="node5" class="node">
<title>140633490230240</title>
<polygon fill="none" stroke="#000000" points="855,-394 801,-394 801,-358 855,-358 855,-394"/>
<text text-anchor="middle" x="828" y="-372.3" font-family="Times,serif" font-size="14.00" fill="#000000">Log</text>
</g>
<!-- 140633490412320 -->
<g id="node17" class="node">
<title>140633490412320</title>
<ellipse fill="none" stroke="#000000" cx="918" cy="-349" rx="27" ry="27"/>
<text text-anchor="middle" x="918" y="-345.3" font-family="Times,serif" font-size="14.00" fill="#000000">({&#39;Log&#39;}, {&#39;TradeConfig&#39;})</text>
</g>
<!-- 140633490230240&#45;&gt;140633490412320 -->
<g id="edge20" class="edge">
<title>140633490230240&#45;&gt;140633490412320</title>
<path fill="none" stroke="#000000" d="M855.003,-367.8991C863.5964,-365.3211 873.2382,-362.4285 882.3457,-359.6963"/>
<polygon fill="#000000" stroke="#000000" points="883.3712,-363.0428 891.9437,-356.8169 881.3597,-356.338 883.3712,-363.0428"/>
</g>
<!-- 140633490230912 -->
<g id="node6" class="node">
<title>140633490230912</title>
<polygon fill="none" stroke="#000000" points="675,-136 574,-136 574,-100 675,-100 675,-136"/>
<text text-anchor="middle" x="624.5" y="-114.3" font-family="Times,serif" font-size="14.00" fill="#000000">OrderDataBean</text>
</g>
<!-- 140633490230912&#45;&gt;140633490413552 -->
<g id="edge21" class="edge">
<title>140633490230912&#45;&gt;140633490413552</title>
<path fill="none" stroke="#000000" d="M573.9323,-129.9289C515.8274,-141.9627 417.7097,-157.1566 334,-145 315.2276,-142.2738 294.9386,-136.5404 278.2922,-131.0553"/>
<polygon fill="#000000" stroke="#000000" points="279.0388,-127.6122 268.4444,-127.7012 276.782,-134.2384 279.0388,-127.6122"/>
</g>
<!-- 140633490231024 -->
<g id="node7" class="node">
<title>140633490231024</title>
<polygon fill="none" stroke="#000000" points="298,-459 188,-459 188,-423 298,-423 298,-459"/>
<text text-anchor="middle" x="243" y="-437.3" font-family="Times,serif" font-size="14.00" fill="#000000">OrdersAlertFilter</text>
</g>
<!-- 140633490411816 -->
<g id="node18" class="node">
<title>140633490411816</title>
<ellipse fill="none" stroke="#000000" cx="391" cy="-441" rx="27" ry="27"/>
<text text-anchor="middle" x="391" y="-437.3" font-family="Times,serif" font-size="14.00" fill="#000000">({&#39;OrdersAlertFilter&#39;}, {&#39;Root&#39;})</text>
</g>
<!-- 140633490231024&#45;&gt;140633490411816 -->
<g id="edge22" class="edge">
<title>140633490231024&#45;&gt;140633490411816</title>
<path fill="none" stroke="#000000" d="M298.1097,-441C316.4472,-441 336.4432,-441 353.1696,-441"/>
<polygon fill="#000000" stroke="#000000" points="353.6389,-444.5001 363.6389,-441 353.6388,-437.5001 353.6389,-444.5001"/>
</g>
<!-- 140633490230464 -->
<g id="node8" class="node">
<title>140633490230464</title>
<polygon fill="none" stroke="#000000" points="127.5,-522 24.5,-522 24.5,-486 127.5,-486 127.5,-522"/>
<text text-anchor="middle" x="76" y="-500.3" font-family="Times,serif" font-size="14.00" fill="#000000">QuoteDataBean</text>
</g>
<!-- 140633490230800 -->
<g id="node9" class="node">
<title>140633490230800</title>
<polygon fill="none" stroke="#000000" points="538,-459 484,-459 484,-423 538,-423 538,-459"/>
<text text-anchor="middle" x="511" y="-437.3" font-family="Times,serif" font-size="14.00" fill="#000000">Root</text>
</g>
<!-- 140633490231136 -->
<g id="node24" class="node">
<title>140633490231136</title>
<ellipse fill="#ffa500" stroke="#000000" cx="624.5" cy="-441" rx="27" ry="27"/>
</g>
<!-- 140633490230800&#45;&gt;140633490231136 -->
<g id="edge23" class="edge">
<title>140633490230800&#45;&gt;140633490231136</title>
<path fill="none" stroke="#000000" d="M538.1861,-441C552.8191,-441 571.0904,-441 587.05,-441"/>
<polygon fill="#000000" stroke="#000000" points="587.1424,-444.5001 597.1424,-441 587.1423,-437.5001 587.1424,-444.5001"/>
</g>
<!-- 140633490230856 -->
<g id="node10" class="node">
<title>140633490230856</title>
<polygon fill="none" stroke="#000000" points="433.5,-228 348.5,-228 348.5,-192 433.5,-192 433.5,-228"/>
<text text-anchor="middle" x="391" y="-206.3" font-family="Times,serif" font-size="14.00" fill="#000000">TradeAction</text>
</g>
<!-- 140633490412096 -->
<g id="node19" class="node">
<title>140633490412096</title>
<ellipse fill="none" stroke="#000000" cx="511" cy="-238" rx="27" ry="27"/>
<text text-anchor="middle" x="511" y="-234.3" font-family="Times,serif" font-size="14.00" fill="#000000">({&#39;TradeAction&#39;}, {&#39;AccountDataBean&#39;})</text>
</g>
<!-- 140633490230856&#45;&gt;140633490412096 -->
<g id="edge24" class="edge">
<title>140633490230856&#45;&gt;140633490412096</title>
<path fill="none" stroke="#000000" d="M433.6454,-219.9506C447.0407,-223.0762 461.6987,-226.4964 474.6183,-229.5109"/>
<polygon fill="#000000" stroke="#000000" points="474.0157,-232.9643 484.5495,-231.8282 475.6064,-226.1474 474.0157,-232.9643"/>
</g>
<!-- 140633490230128 -->
<g id="node11" class="node">
<title>140633490230128</title>
<polygon fill="none" stroke="#000000" points="446,-82 336,-82 336,-46 446,-46 446,-82"/>
<text text-anchor="middle" x="391" y="-60.3" font-family="Times,serif" font-size="14.00" fill="#000000">TradeAppServlet</text>
</g>
<!-- 140633490230128&#45;&gt;140633490413216 -->
<g id="edge25" class="edge">
<title>140633490230128&#45;&gt;140633490413216</title>
<path fill="none" stroke="#000000" d="M446.083,-68.1312C455.4569,-68.8343 464.9919,-69.5494 473.7646,-70.2073"/>
<polygon fill="#000000" stroke="#000000" points="473.7915,-73.7191 484.0253,-70.9769 474.3151,-66.7387 473.7915,-73.7191"/>
</g>
<!-- 140633490230520 -->
<g id="node12" class="node">
<title>140633490230520</title>
<polygon fill="none" stroke="#000000" points="667.5,-372 581.5,-372 581.5,-336 667.5,-336 667.5,-372"/>
<text text-anchor="middle" x="624.5" y="-350.3" font-family="Times,serif" font-size="14.00" fill="#000000">TradeConfig</text>
</g>
<!-- 140633490230520&#45;&gt;140633490412768 -->
<g id="edge26" class="edge">
<title>140633490230520&#45;&gt;140633490412768</title>
<path fill="none" stroke="#000000" d="M581.0819,-361.8196C567.3504,-363.9442 552.0837,-365.9476 538,-367 447.5854,-373.7562 424.2348,-375.8387 334,-367 315.8157,-365.2188 295.8763,-361.4811 279.3088,-357.8708"/>
<polygon fill="#000000" stroke="#000000" points="279.9992,-354.4388 269.4748,-355.6581 278.4625,-361.268 279.9992,-354.4388"/>
</g>
<!-- 140633490411928 -->
<g id="node22" class="node">
<title>140633490411928</title>
<ellipse fill="none" stroke="#000000" cx="738" cy="-381" rx="27" ry="27"/>
<text text-anchor="middle" x="738" y="-377.3" font-family="Times,serif" font-size="14.00" fill="#000000">({&#39;TradeConfig&#39;}, {&#39;Log&#39;})</text>
</g>
<!-- 140633490230520&#45;&gt;140633490411928 -->
<g id="edge27" class="edge">
<title>140633490230520&#45;&gt;140633490411928</title>
<path fill="none" stroke="#000000" d="M667.7333,-364.2846C678.9372,-366.9498 690.8875,-369.7926 701.6956,-372.3637"/>
<polygon fill="#000000" stroke="#000000" points="701.108,-375.8215 711.6465,-374.7309 702.728,-369.0116 701.108,-375.8215"/>
</g>
<!-- 140633490230576 -->
<g id="node13" class="node">
<title>140633490230576</title>
<polygon fill="none" stroke="#000000" points="445,-358 337,-358 337,-322 445,-322 445,-358"/>
<text text-anchor="middle" x="391" y="-336.3" font-family="Times,serif" font-size="14.00" fill="#000000">TradeSLSBBean</text>
</g>
<!-- 140633490412992 -->
<g id="node23" class="node">
<title>140633490412992</title>
<ellipse fill="none" stroke="#000000" cx="511" cy="-331" rx="27" ry="27"/>
<text text-anchor="middle" x="511" y="-327.3" font-family="Times,serif" font-size="14.00" fill="#000000">({&#39;TradeSLSBBean&#39;}, {&#39;TradeConfig&#39;, &#39;AccountProfileDataBean&#39;})</text>
</g>
<!-- 140633490230576&#45;&gt;140633490412992 -->
<g id="edge28" class="edge">
<title>140633490230576&#45;&gt;140633490412992</title>
<path fill="none" stroke="#000000" d="M445.0322,-335.9476C454.6902,-335.2232 464.5565,-334.4833 473.6168,-333.8037"/>
<polygon fill="#000000" stroke="#000000" points="474.1115,-337.2766 483.8217,-333.0384 473.5879,-330.2962 474.1115,-337.2766"/>
</g>
<!-- 140633490411592 -->
<g id="node14" class="node">
<title>140633490411592</title>
<ellipse fill="#00ff00" stroke="#000000" cx="76" cy="-441" rx="27" ry="27"/>
<text text-anchor="middle" x="76" y="-437.3" font-family="Times,serif" font-size="14.00" fill="#000000">1</text>
</g>
<!-- 140633490411592&#45;&gt;140633490231024 -->
<g id="edge14" class="edge">
<title>140633490411592&#45;&gt;140633490231024</title>
<path fill="none" stroke="#000000" d="M103.2031,-441C123.3567,-441 151.7004,-441 177.6026,-441"/>
<polygon fill="#000000" stroke="#000000" points="177.7638,-444.5001 187.7637,-441 177.7637,-437.5001 177.7638,-444.5001"/>
</g>
<!-- 140633490412432&#45;&gt;140633490230856 -->
<g id="edge1" class="edge">
<title>140633490412432&#45;&gt;140633490230856</title>
<path fill="none" stroke="#000000" d="M270.1455,-198.5678C289.191,-200.3694 315.2707,-202.8364 338.3293,-205.0176"/>
<polygon fill="#000000" stroke="#000000" points="338.0498,-208.5067 348.335,-205.9641 338.7091,-201.5378 338.0498,-208.5067"/>
</g>
<!-- 140633490413552&#45;&gt;140633490230968 -->
<g id="edge2" class="edge">
<title>140633490413552&#45;&gt;140633490230968</title>
<path fill="none" stroke="#000000" d="M270.1455,-118C285.2832,-118 304.8646,-118 323.8409,-118"/>
<polygon fill="#000000" stroke="#000000" points="323.9845,-121.5001 333.9844,-118 323.9844,-114.5001 323.9845,-121.5001"/>
</g>
<!-- 140633490413552&#45;&gt;140633490230128 -->
<g id="edge3" class="edge">
<title>140633490413552&#45;&gt;140633490230128</title>
<path fill="none" stroke="#000000" d="M268.4421,-108.7171C285.8645,-102.3602 309.7164,-93.6575 331.7498,-85.6183"/>
<polygon fill="#000000" stroke="#000000" points="333.1908,-88.8183 341.3853,-82.1027 330.7914,-82.2424 333.1908,-88.8183"/>
</g>
<!-- 140633490412320&#45;&gt;140633490230520 -->
<g id="edge4" class="edge">
<title>140633490412320&#45;&gt;140633490230520</title>
<path fill="none" stroke="#000000" d="M890.8546,-347.2463C851.2788,-344.9686 775.4332,-341.657 711,-345 700.1484,-345.563 688.5619,-346.5208 677.5112,-347.6068"/>
<polygon fill="#000000" stroke="#000000" points="677.1386,-344.1266 667.5498,-348.6326 677.8557,-351.0898 677.1386,-344.1266"/>
</g>
<!-- 140633490411816&#45;&gt;140633490230800 -->
<g id="edge5" class="edge">
<title>140633490411816&#45;&gt;140633490230800</title>
<path fill="none" stroke="#000000" d="M418.2299,-441C434.6466,-441 455.7848,-441 473.7363,-441"/>
<polygon fill="#000000" stroke="#000000" points="473.8779,-444.5001 483.8779,-441 473.8779,-437.5001 473.8779,-444.5001"/>
</g>
<!-- 140633490412096&#45;&gt;140633490230352 -->
<g id="edge6" class="edge">
<title>140633490412096&#45;&gt;140633490230352</title>
<path fill="none" stroke="#000000" d="M484.2275,-242.4935C427.8376,-250.8919 293.3592,-265.2774 188,-232 156.5427,-222.0643 125.4915,-200.6588 104.0923,-183.5824"/>
<polygon fill="#000000" stroke="#000000" points="106.0591,-180.6694 96.1024,-177.0479 101.6275,-186.088 106.0591,-180.6694"/>
</g>
<!-- 140633490413216&#45;&gt;140633490230352 -->
<g id="edge7" class="edge">
<title>140633490413216&#45;&gt;140633490230352</title>
<path fill="none" stroke="#000000" d="M489.2092,-56.7889C477.6122,-49.1688 462.7321,-40.9123 448,-37 399.0307,-23.9955 384.1016,-29.454 334,-37 266.8561,-47.1128 249.1227,-52.4266 188,-82 158.3724,-96.3349 127.7808,-117.908 106.0714,-134.576"/>
<polygon fill="#000000" stroke="#000000" points="103.6572,-132.0199 97.9186,-140.9261 107.9586,-137.5425 103.6572,-132.0199"/>
</g>
<!-- 140633490413216&#45;&gt;140633490230688 -->
<g id="edge8" class="edge">
<title>140633490413216&#45;&gt;140633490230688</title>
<path fill="none" stroke="#000000" d="M535.3486,-61.2011C547.7449,-55.1941 563.2433,-47.6839 577.8248,-40.618"/>
<polygon fill="#000000" stroke="#000000" points="579.7599,-43.5696 587.2327,-36.059 576.7073,-37.2702 579.7599,-43.5696"/>
</g>
<!-- 140633490413216&#45;&gt;140633490230912 -->
<g id="edge9" class="edge">
<title>140633490413216&#45;&gt;140633490230912</title>
<path fill="none" stroke="#000000" d="M536.1893,-82.987C546.0836,-86.9098 557.8546,-91.5767 569.5253,-96.2039"/>
<polygon fill="#000000" stroke="#000000" points="568.2398,-99.4592 578.8258,-99.8913 570.8198,-92.952 568.2398,-99.4592"/>
</g>
<!-- 140633490412768&#45;&gt;140633490230576 -->
<g id="edge10" class="edge">
<title>140633490412768&#45;&gt;140633490230576</title>
<path fill="none" stroke="#000000" d="M270.1455,-347.3493C285.9925,-346.3856 306.7095,-345.1258 326.504,-343.9221"/>
<polygon fill="#000000" stroke="#000000" points="326.9714,-347.4002 336.7405,-343.2996 326.5464,-340.4131 326.9714,-347.4002"/>
</g>
<!-- 140633490411928&#45;&gt;140633490230240 -->
<g id="edge11" class="edge">
<title>140633490411928&#45;&gt;140633490230240</title>
<path fill="none" stroke="#000000" d="M765.003,-379.4998C773.0277,-379.054 781.9665,-378.5574 790.5309,-378.0816"/>
<polygon fill="#000000" stroke="#000000" points="790.9146,-381.5658 800.705,-377.5164 790.5262,-374.5766 790.9146,-381.5658"/>
</g>
<!-- 140633490412992&#45;&gt;140633490230744 -->
<g id="edge12" class="edge">
<title>140633490412992&#45;&gt;140633490230744</title>
<path fill="none" stroke="#000000" d="M485.2963,-321.9031C474.0094,-318.368 460.5044,-314.7513 448,-313 333.5614,-296.9723 303.4821,-308.8809 188,-313 179.6686,-313.2972 170.9952,-313.7183 162.3266,-314.2137"/>
<polygon fill="#000000" stroke="#000000" points="161.9443,-310.7303 152.1733,-314.8264 162.366,-317.7176 161.9443,-310.7303"/>
</g>
<!-- 140633490412992&#45;&gt;140633490230520 -->
<g id="edge13" class="edge">
<title>140633490412992&#45;&gt;140633490230520</title>
<path fill="none" stroke="#000000" d="M537.6107,-336.3925C547.6448,-338.4258 559.4497,-340.818 571.0685,-343.1725"/>
<polygon fill="#000000" stroke="#000000" points="570.686,-346.666 581.1819,-345.2219 572.0763,-339.8055 570.686,-346.666"/>
</g>
</g>
</svg>
