<?xml version="1.0" encoding="UTF-8" standalone="no"?>
<!DOCTYPE svg PUBLIC "-//W3C//DTD SVG 1.1//EN"
 "http://www.w3.org/Graphics/SVG/1.1/DTD/svg11.dtd">
<!-- Generated by graphviz version 2.40.1 (20161225.0304)
 -->
<!-- Title: alpha_classic_net_1585321017.9633625 Pages: 1 -->
<svg width="791pt" height="5300pt"
 viewBox="0.00 0.00 791.00 5300.00" xmlns="http://www.w3.org/2000/svg" xmlns:xlink="http://www.w3.org/1999/xlink">
<g id="graph0" class="graph" transform="scale(1 1) rotate(0) translate(4 5296)">
<title>alpha_classic_net_1585321017.9633625</title>
<!-- 140531499581392 -->
<g id="node1" class="node">
<title>140531499581392</title>
<polygon fill="none" stroke="#000000" points="217.5,-36 38.5,-36 38.5,0 217.5,0 217.5,-36"/>
<text text-anchor="middle" x="128" y="-14.3" font-family="Times,serif" font-size="14.00" fill="#000000">AccountDataBean:getBalance</text>
</g>
<!-- 140531499773400 -->
<g id="node2" class="node">
<title>140531499773400</title>
<polygon fill="none" stroke="#000000" points="214.5,-90 41.5,-90 41.5,-54 214.5,-54 214.5,-90"/>
<text text-anchor="middle" x="128" y="-68.3" font-family="Times,serif" font-size="14.00" fill="#000000">AccountDataBean:getProfile</text>
</g>
<!-- 140531499580776 -->
<g id="node3" class="node">
<title>140531499580776</title>
<polygon fill="none" stroke="#000000" points="214.5,-144 41.5,-144 41.5,-108 214.5,-108 214.5,-144"/>
<text text-anchor="middle" x="128" y="-122.3" font-family="Times,serif" font-size="14.00" fill="#000000">AccountDataBean:hashCode</text>
</g>
<!-- 140531499772448 -->
<g id="node4" class="node">
<title>140531499772448</title>
<polygon fill="none" stroke="#000000" points="217,-198 39,-198 39,-162 217,-162 217,-198"/>
<text text-anchor="middle" x="128" y="-176.3" font-family="Times,serif" font-size="14.00" fill="#000000">AccountDataBean:setBalance</text>
</g>
<!-- 140531499770656 -->
<g id="node5" class="node">
<title>140531499770656</title>
<polygon fill="none" stroke="#000000" points="237,-252 19,-252 19,-216 237,-216 237,-252"/>
<text text-anchor="middle" x="128" y="-230.3" font-family="Times,serif" font-size="14.00" fill="#000000">AccountProfileDataBean:getAccount</text>
</g>
<!-- 140531499772616 -->
<g id="node6" class="node">
<title>140531499772616</title>
<polygon fill="none" stroke="#000000" points="234,-306 22,-306 22,-270 234,-270 234,-306"/>
<text text-anchor="middle" x="128" y="-284.3" font-family="Times,serif" font-size="14.00" fill="#000000">AccountProfileDataBean:getUserID</text>
</g>
<!-- 140531499772336 -->
<g id="node7" class="node">
<title>140531499772336</title>
<polygon fill="none" stroke="#000000" points="474,-477 331,-477 331,-441 474,-441 474,-477"/>
<text text-anchor="middle" x="402.5" y="-455.3" font-family="Times,serif" font-size="14.00" fill="#000000">ActionDecoder:destroy</text>
</g>
<!-- 140531498557792 -->
<g id="node105" class="node">
<title>140531498557792</title>
<ellipse fill="none" stroke="#000000" cx="576" cy="-351" rx="27" ry="27"/>
<text text-anchor="middle" x="576" y="-347.3" font-family="Times,serif" font-size="14.00" fill="#000000">({&#39;ActionDecoder:destroy&#39;, &#39;MarketSummaryWebSocket:onClose&#39;, &#39;OrdersAlertFilter:doFilter&#39;, &#39;DTStreamer3MDB:onMessage&#39;, &#39;new DTStreamer3MDB&#39;}, {&#39;Root&#39;})</text>
</g>
<!-- 140531499772336&#45;&gt;140531498557792 -->
<g id="edge2" class="edge">
<title>140531499772336&#45;&gt;140531498557792</title>
<path fill="none" stroke="#000000" d="M474.0672,-448.9363C487.6841,-445.0155 501.314,-439.5681 513,-432 531.5912,-419.96 546.9838,-400.5097 557.8998,-383.6867"/>
<polygon fill="#000000" stroke="#000000" points="560.8804,-385.5213 563.1933,-375.182 554.9375,-381.8223 560.8804,-385.5213"/>
</g>
<!-- 140531499772504 -->
<g id="node8" class="node">
<title>140531499772504</title>
<polygon fill="none" stroke="#000000" points="496.5,-423 308.5,-423 308.5,-387 496.5,-387 496.5,-423"/>
<text text-anchor="middle" x="402.5" y="-401.3" font-family="Times,serif" font-size="14.00" fill="#000000">DTStreamer3MDB:onMessage</text>
</g>
<!-- 140531499772504&#45;&gt;140531498557792 -->
<g id="edge3" class="edge">
<title>140531499772504&#45;&gt;140531498557792</title>
<path fill="none" stroke="#000000" d="M483.2128,-386.9244C493.3144,-384.1804 503.4468,-381.1899 513,-378 522.6337,-374.7832 532.8465,-370.7101 542.1815,-366.7093"/>
<polygon fill="#000000" stroke="#000000" points="543.7809,-369.8296 551.5306,-362.6051 540.9671,-363.42 543.7809,-369.8296"/>
</g>
<!-- 140531499580664 -->
<g id="node9" class="node">
<title>140531499580664</title>
<polygon fill="none" stroke="#000000" points="233.5,-432 22.5,-432 22.5,-396 233.5,-396 233.5,-432"/>
<text text-anchor="middle" x="128" y="-410.3" font-family="Times,serif" font-size="14.00" fill="#000000">FinancialUtils:computeGainPercent</text>
</g>
<!-- 140531499580048 -->
<g id="node10" class="node">
<title>140531499580048</title>
<polygon fill="none" stroke="#000000" points="222,-486 34,-486 34,-450 222,-450 222,-486"/>
<text text-anchor="middle" x="128" y="-464.3" font-family="Times,serif" font-size="14.00" fill="#000000">FinancialUtils:printGainHTML</text>
</g>
<!-- 140531499770768 -->
<g id="node11" class="node">
<title>140531499770768</title>
<polygon fill="none" stroke="#000000" points="242,-540 14,-540 14,-504 242,-504 242,-540"/>
<text text-anchor="middle" x="128" y="-518.3" font-family="Times,serif" font-size="14.00" fill="#000000">FinancialUtils:printGainPercentHTML</text>
</g>
<!-- 140531499773120 -->
<g id="node12" class="node">
<title>140531499773120</title>
<polygon fill="none" stroke="#000000" points="218.5,-594 37.5,-594 37.5,-558 218.5,-558 218.5,-594"/>
<text text-anchor="middle" x="128" y="-572.3" font-family="Times,serif" font-size="14.00" fill="#000000">FinancialUtils:printQuoteLink</text>
</g>
<!-- 140531499580384 -->
<g id="node13" class="node">
<title>140531499580384</title>
<polygon fill="none" stroke="#000000" points="224.5,-648 31.5,-648 31.5,-612 224.5,-612 224.5,-648"/>
<text text-anchor="middle" x="128" y="-626.3" font-family="Times,serif" font-size="14.00" fill="#000000">HoldingDataBean:getHoldingID</text>
</g>
<!-- 140531499772840 -->
<g id="node14" class="node">
<title>140531499772840</title>
<polygon fill="none" stroke="#000000" points="232.5,-702 23.5,-702 23.5,-666 232.5,-666 232.5,-702"/>
<text text-anchor="middle" x="128" y="-680.3" font-family="Times,serif" font-size="14.00" fill="#000000">HoldingDataBean:getPurchaseDate</text>
</g>
<!-- 140531499770208 -->
<g id="node15" class="node">
<title>140531499770208</title>
<polygon fill="none" stroke="#000000" points="233.5,-756 22.5,-756 22.5,-720 233.5,-720 233.5,-756"/>
<text text-anchor="middle" x="128" y="-734.3" font-family="Times,serif" font-size="14.00" fill="#000000">HoldingDataBean:getPurchasePrice</text>
</g>
<!-- 140531499771832 -->
<g id="node16" class="node">
<title>140531499771832</title>
<polygon fill="none" stroke="#000000" points="219,-810 37,-810 37,-774 219,-774 219,-810"/>
<text text-anchor="middle" x="128" y="-788.3" font-family="Times,serif" font-size="14.00" fill="#000000">HoldingDataBean:getQuantity</text>
</g>
<!-- 140531499770824 -->
<g id="node17" class="node">
<title>140531499770824</title>
<polygon fill="none" stroke="#000000" points="211.5,-864 44.5,-864 44.5,-828 211.5,-828 211.5,-864"/>
<text text-anchor="middle" x="128" y="-842.3" font-family="Times,serif" font-size="14.00" fill="#000000">HoldingDataBean:getQuote</text>
</g>
<!-- 140531499580272 -->
<g id="node18" class="node">
<title>140531499580272</title>
<polygon fill="none" stroke="#000000" points="219,-918 37,-918 37,-882 219,-882 219,-918"/>
<text text-anchor="middle" x="128" y="-896.3" font-family="Times,serif" font-size="14.00" fill="#000000">HoldingDataBean:getQuoteID</text>
</g>
<!-- 140531499771160 -->
<g id="node19" class="node">
<title>140531499771160</title>
<polygon fill="none" stroke="#000000" points="231.5,-972 24.5,-972 24.5,-936 231.5,-936 231.5,-972"/>
<text text-anchor="middle" x="128" y="-950.3" font-family="Times,serif" font-size="14.00" fill="#000000">HoldingDataBean:setPurchaseDate</text>
</g>
<!-- 140531499581168 -->
<g id="node20" class="node">
<title>140531499581168</title>
<polygon fill="none" stroke="#000000" points="189.5,-1026 66.5,-1026 66.5,-990 189.5,-990 189.5,-1026"/>
<text text-anchor="middle" x="128" y="-1004.3" font-family="Times,serif" font-size="14.00" fill="#000000">Log:doActionTrace</text>
</g>
<!-- 140531499772112 -->
<g id="node21" class="node">
<title>140531499772112</title>
<polygon fill="none" stroke="#000000" points="171,-1080 85,-1080 85,-1044 171,-1044 171,-1080"/>
<text text-anchor="middle" x="128" y="-1058.3" font-family="Times,serif" font-size="14.00" fill="#000000">Log:doTrace</text>
</g>
<!-- 140531499771216 -->
<g id="node22" class="node">
<title>140531499771216</title>
<polygon fill="none" stroke="#000000" points="197,-1134 59,-1134 59,-1098 197,-1098 197,-1134"/>
<text text-anchor="middle" x="128" y="-1112.3" font-family="Times,serif" font-size="14.00" fill="#000000">MDBStats:addTiming</text>
</g>
<!-- 140531499773680 -->
<g id="node23" class="node">
<title>140531499773680</title>
<polygon fill="none" stroke="#000000" points="198,-1188 58,-1188 58,-1152 198,-1152 198,-1188"/>
<text text-anchor="middle" x="128" y="-1166.3" font-family="Times,serif" font-size="14.00" fill="#000000">MDBStats:getInstance</text>
</g>
<!-- 140531499772000 -->
<g id="node24" class="node">
<title>140531499772000</title>
<polygon fill="none" stroke="#000000" points="513,-369 292,-369 292,-333 513,-333 513,-369"/>
<text text-anchor="middle" x="402.5" y="-347.3" font-family="Times,serif" font-size="14.00" fill="#000000">MarketSummaryWebSocket:onClose</text>
</g>
<!-- 140531499772000&#45;&gt;140531498557792 -->
<g id="edge4" class="edge">
<title>140531499772000&#45;&gt;140531498557792</title>
<path fill="none" stroke="#000000" d="M513.3625,-351C522.3116,-351 530.8888,-351 538.67,-351"/>
<polygon fill="#000000" stroke="#000000" points="538.7476,-354.5001 548.7475,-351 538.7475,-347.5001 538.7476,-354.5001"/>
</g>
<!-- 140531499580552 -->
<g id="node25" class="node">
<title>140531499580552</title>
<polygon fill="none" stroke="#000000" points="211.5,-1242 44.5,-1242 44.5,-1206 211.5,-1206 211.5,-1242"/>
<text text-anchor="middle" x="128" y="-1220.3" font-family="Times,serif" font-size="14.00" fill="#000000">OrderDataBean:getAccount</text>
</g>
<!-- 140531499773232 -->
<g id="node26" class="node">
<title>140531499773232</title>
<polygon fill="none" stroke="#000000" points="234,-1296 22,-1296 22,-1260 234,-1260 234,-1296"/>
<text text-anchor="middle" x="128" y="-1274.3" font-family="Times,serif" font-size="14.00" fill="#000000">OrderDataBean:getCompletionDate</text>
</g>
<!-- 140531499769984 -->
<g id="node27" class="node">
<title>140531499769984</title>
<polygon fill="none" stroke="#000000" points="211,-1350 45,-1350 45,-1314 211,-1314 211,-1350"/>
<text text-anchor="middle" x="128" y="-1328.3" font-family="Times,serif" font-size="14.00" fill="#000000">OrderDataBean:getHolding</text>
</g>
<!-- 140531499769928 -->
<g id="node28" class="node">
<title>140531499769928</title>
<polygon fill="none" stroke="#000000" points="216,-1404 40,-1404 40,-1368 216,-1368 216,-1404"/>
<text text-anchor="middle" x="128" y="-1382.3" font-family="Times,serif" font-size="14.00" fill="#000000">OrderDataBean:getOpenDate</text>
</g>
<!-- 140531499580944 -->
<g id="node29" class="node">
<title>140531499580944</title>
<polygon fill="none" stroke="#000000" points="214.5,-1458 41.5,-1458 41.5,-1422 214.5,-1422 214.5,-1458"/>
<text text-anchor="middle" x="128" y="-1436.3" font-family="Times,serif" font-size="14.00" fill="#000000">OrderDataBean:getOrderFee</text>
</g>
<!-- 140531499770264 -->
<g id="node30" class="node">
<title>140531499770264</title>
<polygon fill="none" stroke="#000000" points="211.5,-1512 44.5,-1512 44.5,-1476 211.5,-1476 211.5,-1512"/>
<text text-anchor="middle" x="128" y="-1490.3" font-family="Times,serif" font-size="14.00" fill="#000000">OrderDataBean:getOrderID</text>
</g>
<!-- 140531499580720 -->
<g id="node31" class="node">
<title>140531499580720</title>
<polygon fill="none" stroke="#000000" points="221,-1566 35,-1566 35,-1530 221,-1530 221,-1566"/>
<text text-anchor="middle" x="128" y="-1544.3" font-family="Times,serif" font-size="14.00" fill="#000000">OrderDataBean:getOrderStatus</text>
</g>
<!-- 140531499579432 -->
<g id="node32" class="node">
<title>140531499579432</title>
<polygon fill="none" stroke="#000000" points="218.5,-1620 37.5,-1620 37.5,-1584 218.5,-1584 218.5,-1620"/>
<text text-anchor="middle" x="128" y="-1598.3" font-family="Times,serif" font-size="14.00" fill="#000000">OrderDataBean:getOrderType</text>
</g>
<!-- 140531499581280 -->
<g id="node33" class="node">
<title>140531499581280</title>
<polygon fill="none" stroke="#000000" points="202.5,-1674 53.5,-1674 53.5,-1638 202.5,-1638 202.5,-1674"/>
<text text-anchor="middle" x="128" y="-1652.3" font-family="Times,serif" font-size="14.00" fill="#000000">OrderDataBean:getPrice</text>
</g>
<!-- 140531499772952 -->
<g id="node34" class="node">
<title>140531499772952</title>
<polygon fill="none" stroke="#000000" points="212.5,-1728 43.5,-1728 43.5,-1692 212.5,-1692 212.5,-1728"/>
<text text-anchor="middle" x="128" y="-1706.3" font-family="Times,serif" font-size="14.00" fill="#000000">OrderDataBean:getQuantity</text>
</g>
<!-- 140531499773176 -->
<g id="node35" class="node">
<title>140531499773176</title>
<polygon fill="none" stroke="#000000" points="205.5,-1782 50.5,-1782 50.5,-1746 205.5,-1746 205.5,-1782"/>
<text text-anchor="middle" x="128" y="-1760.3" font-family="Times,serif" font-size="14.00" fill="#000000">OrderDataBean:getQuote</text>
</g>
<!-- 140531499580888 -->
<g id="node36" class="node">
<title>140531499580888</title>
<polygon fill="none" stroke="#000000" points="210,-1836 46,-1836 46,-1800 210,-1800 210,-1836"/>
<text text-anchor="middle" x="128" y="-1814.3" font-family="Times,serif" font-size="14.00" fill="#000000">OrderDataBean:getSymbol</text>
</g>
<!-- 140531499773568 -->
<g id="node37" class="node">
<title>140531499773568</title>
<polygon fill="none" stroke="#000000" points="207,-1890 49,-1890 49,-1854 207,-1854 207,-1890"/>
<text text-anchor="middle" x="128" y="-1868.3" font-family="Times,serif" font-size="14.00" fill="#000000">OrderDataBean:hashCode</text>
</g>
<!-- 140531499770096 -->
<g id="node38" class="node">
<title>140531499770096</title>
<polygon fill="none" stroke="#000000" points="196.5,-1944 59.5,-1944 59.5,-1908 196.5,-1908 196.5,-1944"/>
<text text-anchor="middle" x="128" y="-1922.3" font-family="Times,serif" font-size="14.00" fill="#000000">OrderDataBean:isBuy</text>
</g>
<!-- 140531499773344 -->
<g id="node39" class="node">
<title>140531499773344</title>
<polygon fill="none" stroke="#000000" points="215,-1998 41,-1998 41,-1962 215,-1962 215,-1998"/>
<text text-anchor="middle" x="128" y="-1976.3" font-family="Times,serif" font-size="14.00" fill="#000000">OrderDataBean:isCompleted</text>
</g>
<!-- 140531499770376 -->
<g id="node40" class="node">
<title>140531499770376</title>
<polygon fill="none" stroke="#000000" points="195.5,-2052 60.5,-2052 60.5,-2016 195.5,-2016 195.5,-2052"/>
<text text-anchor="middle" x="128" y="-2030.3" font-family="Times,serif" font-size="14.00" fill="#000000">OrderDataBean:isSell</text>
</g>
<!-- 140531499772392 -->
<g id="node41" class="node">
<title>140531499772392</title>
<polygon fill="none" stroke="#000000" points="211,-2106 45,-2106 45,-2070 211,-2070 211,-2106"/>
<text text-anchor="middle" x="128" y="-2084.3" font-family="Times,serif" font-size="14.00" fill="#000000">OrderDataBean:setAccount</text>
</g>
<!-- 140531499580216 -->
<g id="node42" class="node">
<title>140531499580216</title>
<polygon fill="none" stroke="#000000" points="233,-2160 23,-2160 23,-2124 233,-2124 233,-2160"/>
<text text-anchor="middle" x="128" y="-2138.3" font-family="Times,serif" font-size="14.00" fill="#000000">OrderDataBean:setCompletionDate</text>
</g>
<!-- 140531499581000 -->
<g id="node43" class="node">
<title>140531499581000</title>
<polygon fill="none" stroke="#000000" points="210,-2214 46,-2214 46,-2178 210,-2178 210,-2214"/>
<text text-anchor="middle" x="128" y="-2192.3" font-family="Times,serif" font-size="14.00" fill="#000000">OrderDataBean:setHolding</text>
</g>
<!-- 140531499581224 -->
<g id="node44" class="node">
<title>140531499581224</title>
<polygon fill="none" stroke="#000000" points="215.5,-2268 40.5,-2268 40.5,-2232 215.5,-2232 215.5,-2268"/>
<text text-anchor="middle" x="128" y="-2246.3" font-family="Times,serif" font-size="14.00" fill="#000000">OrderDataBean:setOpenDate</text>
</g>
<!-- 140531499773064 -->
<g id="node45" class="node">
<title>140531499773064</title>
<polygon fill="none" stroke="#000000" points="213.5,-2322 42.5,-2322 42.5,-2286 213.5,-2286 213.5,-2322"/>
<text text-anchor="middle" x="128" y="-2300.3" font-family="Times,serif" font-size="14.00" fill="#000000">OrderDataBean:setOrderFee</text>
</g>
<!-- 140531499771104 -->
<g id="node46" class="node">
<title>140531499771104</title>
<polygon fill="none" stroke="#000000" points="220.5,-2376 35.5,-2376 35.5,-2340 220.5,-2340 220.5,-2376"/>
<text text-anchor="middle" x="128" y="-2354.3" font-family="Times,serif" font-size="14.00" fill="#000000">OrderDataBean:setOrderStatus</text>
</g>
<!-- 140531499770992 -->
<g id="node47" class="node">
<title>140531499770992</title>
<polygon fill="none" stroke="#000000" points="217.5,-2430 38.5,-2430 38.5,-2394 217.5,-2394 217.5,-2430"/>
<text text-anchor="middle" x="128" y="-2408.3" font-family="Times,serif" font-size="14.00" fill="#000000">OrderDataBean:setOrderType</text>
</g>
<!-- 140531499772168 -->
<g id="node48" class="node">
<title>140531499772168</title>
<polygon fill="none" stroke="#000000" points="202,-2484 54,-2484 54,-2448 202,-2448 202,-2484"/>
<text text-anchor="middle" x="128" y="-2462.3" font-family="Times,serif" font-size="14.00" fill="#000000">OrderDataBean:setPrice</text>
</g>
<!-- 140531499579712 -->
<g id="node49" class="node">
<title>140531499579712</title>
<polygon fill="none" stroke="#000000" points="211.5,-2538 44.5,-2538 44.5,-2502 211.5,-2502 211.5,-2538"/>
<text text-anchor="middle" x="128" y="-2516.3" font-family="Times,serif" font-size="14.00" fill="#000000">OrderDataBean:setQuantity</text>
</g>
<!-- 140531499580496 -->
<g id="node50" class="node">
<title>140531499580496</title>
<polygon fill="none" stroke="#000000" points="204.5,-2592 51.5,-2592 51.5,-2556 204.5,-2556 204.5,-2592"/>
<text text-anchor="middle" x="128" y="-2570.3" font-family="Times,serif" font-size="14.00" fill="#000000">OrderDataBean:setQuote</text>
</g>
<!-- 140531499579768 -->
<g id="node51" class="node">
<title>140531499579768</title>
<polygon fill="none" stroke="#000000" points="481,-315 324,-315 324,-279 481,-279 481,-315"/>
<text text-anchor="middle" x="402.5" y="-293.3" font-family="Times,serif" font-size="14.00" fill="#000000">OrdersAlertFilter:doFilter</text>
</g>
<!-- 140531499579768&#45;&gt;140531498557792 -->
<g id="edge5" class="edge">
<title>140531499579768&#45;&gt;140531498557792</title>
<path fill="none" stroke="#000000" d="M481.1337,-314.5142C491.921,-317.4101 502.7912,-320.5912 513,-324 522.6337,-327.2168 532.8465,-331.2899 542.1815,-335.2907"/>
<polygon fill="#000000" stroke="#000000" points="540.9671,-338.58 551.5306,-339.3949 543.7809,-332.1704 540.9671,-338.58"/>
</g>
<!-- 140531499579880 -->
<g id="node52" class="node">
<title>140531499579880</title>
<polygon fill="none" stroke="#000000" points="232.5,-2646 23.5,-2646 23.5,-2610 232.5,-2610 232.5,-2646"/>
<text text-anchor="middle" x="128" y="-2624.3" font-family="Times,serif" font-size="14.00" fill="#000000">QuoteDataBean:getCompanyName</text>
</g>
<!-- 140531499770320 -->
<g id="node53" class="node">
<title>140531499770320</title>
<polygon fill="none" stroke="#000000" points="203,-2700 53,-2700 53,-2664 203,-2664 203,-2700"/>
<text text-anchor="middle" x="128" y="-2678.3" font-family="Times,serif" font-size="14.00" fill="#000000">QuoteDataBean:getHigh</text>
</g>
<!-- 140531499772672 -->
<g id="node54" class="node">
<title>140531499772672</title>
<polygon fill="none" stroke="#000000" points="202,-2754 54,-2754 54,-2718 202,-2718 202,-2754"/>
<text text-anchor="middle" x="128" y="-2732.3" font-family="Times,serif" font-size="14.00" fill="#000000">QuoteDataBean:getLow</text>
</g>
<!-- 140531499579992 -->
<g id="node55" class="node">
<title>140531499579992</title>
<polygon fill="none" stroke="#000000" points="204,-2808 52,-2808 52,-2772 204,-2772 204,-2808"/>
<text text-anchor="middle" x="128" y="-2786.3" font-family="Times,serif" font-size="14.00" fill="#000000">QuoteDataBean:getOpen</text>
</g>
<!-- 140531499771496 -->
<g id="node56" class="node">
<title>140531499771496</title>
<polygon fill="none" stroke="#000000" points="203.5,-2862 52.5,-2862 52.5,-2826 203.5,-2826 203.5,-2862"/>
<text text-anchor="middle" x="128" y="-2840.3" font-family="Times,serif" font-size="14.00" fill="#000000">QuoteDataBean:getPrice</text>
</g>
<!-- 140531499773624 -->
<g id="node57" class="node">
<title>140531499773624</title>
<polygon fill="none" stroke="#000000" points="211,-2916 45,-2916 45,-2880 211,-2880 211,-2916"/>
<text text-anchor="middle" x="128" y="-2894.3" font-family="Times,serif" font-size="14.00" fill="#000000">QuoteDataBean:getSymbol</text>
</g>
<!-- 140531499772784 -->
<g id="node58" class="node">
<title>140531499772784</title>
<polygon fill="none" stroke="#000000" points="211.5,-2970 44.5,-2970 44.5,-2934 211.5,-2934 211.5,-2970"/>
<text text-anchor="middle" x="128" y="-2948.3" font-family="Times,serif" font-size="14.00" fill="#000000">QuoteDataBean:getVolume</text>
</g>
<!-- 140531499772224 -->
<g id="node59" class="node">
<title>140531499772224</title>
<polygon fill="none" stroke="#000000" points="208,-3024 48,-3024 48,-2988 208,-2988 208,-3024"/>
<text text-anchor="middle" x="128" y="-3002.3" font-family="Times,serif" font-size="14.00" fill="#000000">QuoteDataBean:hashCode</text>
</g>
<!-- 140531499770488 -->
<g id="node60" class="node">
<title>140531499770488</title>
<polygon fill="none" stroke="#000000" points="209.5,-3078 46.5,-3078 46.5,-3042 209.5,-3042 209.5,-3078"/>
<text text-anchor="middle" x="128" y="-3056.3" font-family="Times,serif" font-size="14.00" fill="#000000">QuoteDataBean:setChange</text>
</g>
<!-- 140531499580328 -->
<g id="node61" class="node">
<title>140531499580328</title>
<polygon fill="none" stroke="#000000" points="202.5,-3132 53.5,-3132 53.5,-3096 202.5,-3096 202.5,-3132"/>
<text text-anchor="middle" x="128" y="-3110.3" font-family="Times,serif" font-size="14.00" fill="#000000">QuoteDataBean:setPrice</text>
</g>
<!-- 140531499771384 -->
<g id="node62" class="node">
<title>140531499771384</title>
<polygon fill="none" stroke="#000000" points="211,-3186 45,-3186 45,-3150 211,-3150 211,-3186"/>
<text text-anchor="middle" x="128" y="-3164.3" font-family="Times,serif" font-size="14.00" fill="#000000">QuoteDataBean:setVolume</text>
</g>
<!-- 140531499770712 -->
<g id="node63" class="node">
<title>140531499770712</title>
<polygon fill="none" stroke="#000000" points="693,-369 639,-369 639,-333 693,-333 693,-369"/>
<text text-anchor="middle" x="666" y="-347.3" font-family="Times,serif" font-size="14.00" fill="#000000">Root</text>
</g>
<!-- 140531498557624 -->
<g id="node106" class="node">
<title>140531498557624</title>
<ellipse fill="#ffa500" stroke="#000000" cx="756" cy="-351" rx="27" ry="27"/>
</g>
<!-- 140531499770712&#45;&gt;140531498557624 -->
<g id="edge6" class="edge">
<title>140531499770712&#45;&gt;140531498557624</title>
<path fill="none" stroke="#000000" d="M693.003,-351C701.0277,-351 709.9665,-351 718.5309,-351"/>
<polygon fill="#000000" stroke="#000000" points="718.7051,-354.5001 728.705,-351 718.705,-347.5001 718.7051,-354.5001"/>
</g>
<!-- 140531499580104 -->
<g id="node64" class="node">
<title>140531499580104</title>
<polygon fill="none" stroke="#000000" points="190.5,-3240 65.5,-3240 65.5,-3204 190.5,-3204 190.5,-3240"/>
<text text-anchor="middle" x="128" y="-3218.3" font-family="Times,serif" font-size="14.00" fill="#000000">TimerStat:getCount</text>
</g>
<!-- 140531499771608 -->
<g id="node65" class="node">
<title>140531499771608</title>
<polygon fill="none" stroke="#000000" points="186.5,-3294 69.5,-3294 69.5,-3258 186.5,-3258 186.5,-3294"/>
<text text-anchor="middle" x="128" y="-3272.3" font-family="Times,serif" font-size="14.00" fill="#000000">TimerStat:getMax</text>
</g>
<!-- 140531499772896 -->
<g id="node66" class="node">
<title>140531499772896</title>
<polygon fill="none" stroke="#000000" points="185.5,-3348 70.5,-3348 70.5,-3312 185.5,-3312 185.5,-3348"/>
<text text-anchor="middle" x="128" y="-3326.3" font-family="Times,serif" font-size="14.00" fill="#000000">TimerStat:getMin</text>
</g>
<!-- 140531499771440 -->
<g id="node67" class="node">
<title>140531499771440</title>
<polygon fill="none" stroke="#000000" points="202.5,-3402 53.5,-3402 53.5,-3366 202.5,-3366 202.5,-3402"/>
<text text-anchor="middle" x="128" y="-3380.3" font-family="Times,serif" font-size="14.00" fill="#000000">TimerStat:getTotalTime</text>
</g>
<!-- 140531499771776 -->
<g id="node68" class="node">
<title>140531499771776</title>
<polygon fill="none" stroke="#000000" points="189.5,-3456 66.5,-3456 66.5,-3420 189.5,-3420 189.5,-3456"/>
<text text-anchor="middle" x="128" y="-3434.3" font-family="Times,serif" font-size="14.00" fill="#000000">TimerStat:setCount</text>
</g>
<!-- 140531499773512 -->
<g id="node69" class="node">
<title>140531499773512</title>
<polygon fill="none" stroke="#000000" points="186,-3510 70,-3510 70,-3474 186,-3474 186,-3510"/>
<text text-anchor="middle" x="128" y="-3488.3" font-family="Times,serif" font-size="14.00" fill="#000000">TimerStat:setMax</text>
</g>
<!-- 140531499771664 -->
<g id="node70" class="node">
<title>140531499771664</title>
<polygon fill="none" stroke="#000000" points="184.5,-3564 71.5,-3564 71.5,-3528 184.5,-3528 184.5,-3564"/>
<text text-anchor="middle" x="128" y="-3542.3" font-family="Times,serif" font-size="14.00" fill="#000000">TimerStat:setMin</text>
</g>
<!-- 140531499771328 -->
<g id="node71" class="node">
<title>140531499771328</title>
<polygon fill="none" stroke="#000000" points="202,-3618 54,-3618 54,-3582 202,-3582 202,-3618"/>
<text text-anchor="middle" x="128" y="-3596.3" font-family="Times,serif" font-size="14.00" fill="#000000">TimerStat:setTotalTime</text>
</g>
<!-- 140531499580440 -->
<g id="node72" class="node">
<title>140531499580440</title>
<polygon fill="none" stroke="#000000" points="217.5,-3672 38.5,-3672 38.5,-3636 217.5,-3636 217.5,-3672"/>
<text text-anchor="middle" x="128" y="-3650.3" font-family="Times,serif" font-size="14.00" fill="#000000">TradeAction:getClosedOrders</text>
</g>
<!-- 140531499773288 -->
<g id="node73" class="node">
<title>140531499773288</title>
<polygon fill="none" stroke="#000000" points="205.5,-3726 50.5,-3726 50.5,-3690 205.5,-3690 205.5,-3726"/>
<text text-anchor="middle" x="128" y="-3704.3" font-family="Times,serif" font-size="14.00" fill="#000000">TradeAction:getHoldings</text>
</g>
<!-- 140531499579488 -->
<g id="node74" class="node">
<title>140531499579488</title>
<polygon fill="none" stroke="#000000" points="197,-3780 59,-3780 59,-3744 197,-3744 197,-3780"/>
<text text-anchor="middle" x="128" y="-3758.3" font-family="Times,serif" font-size="14.00" fill="#000000">TradeAction:getQuote</text>
</g>
<!-- 140531499579600 -->
<g id="node75" class="node">
<title>140531499579600</title>
<polygon fill="none" stroke="#000000" points="216.5,-3834 39.5,-3834 39.5,-3798 216.5,-3798 216.5,-3834"/>
<text text-anchor="middle" x="128" y="-3812.3" font-family="Times,serif" font-size="14.00" fill="#000000">TradeAction:orderCompleted</text>
</g>
<!-- 140531499770152 -->
<g id="node76" class="node">
<title>140531499770152</title>
<polygon fill="none" stroke="#000000" points="181.5,-3888 74.5,-3888 74.5,-3852 181.5,-3852 181.5,-3888"/>
<text text-anchor="middle" x="128" y="-3866.3" font-family="Times,serif" font-size="14.00" fill="#000000">TradeAction:sell</text>
</g>
<!-- 140531499581112 -->
<g id="node77" class="node">
<title>140531499581112</title>
<polygon fill="none" stroke="#000000" points="220,-3942 36,-3942 36,-3906 220,-3906 220,-3942"/>
<text text-anchor="middle" x="128" y="-3920.3" font-family="Times,serif" font-size="14.00" fill="#000000">TradeAppServlet:performTask</text>
</g>
<!-- 140531499773008 -->
<g id="node78" class="node">
<title>140531499773008</title>
<polygon fill="none" stroke="#000000" points="214.5,-3996 41.5,-3996 41.5,-3960 214.5,-3960 214.5,-3996"/>
<text text-anchor="middle" x="128" y="-3974.3" font-family="Times,serif" font-size="14.00" fill="#000000">TradeConfig:getActionTrace</text>
</g>
<!-- 140531499770040 -->
<g id="node79" class="node">
<title>140531499770040</title>
<polygon fill="none" stroke="#000000" points="234,-4050 22,-4050 22,-4014 234,-4014 234,-4050"/>
<text text-anchor="middle" x="128" y="-4028.3" font-family="Times,serif" font-size="14.00" fill="#000000">TradeConfig:getDisplayOrderAlerts</text>
</g>
<!-- 140531499772280 -->
<g id="node80" class="node">
<title>140531499772280</title>
<polygon fill="none" stroke="#000000" points="206.5,-4104 49.5,-4104 49.5,-4068 206.5,-4068 206.5,-4104"/>
<text text-anchor="middle" x="128" y="-4082.3" font-family="Times,serif" font-size="14.00" fill="#000000">TradeConfig:getLongRun</text>
</g>
<!-- 140531499581056 -->
<g id="node81" class="node">
<title>140531499581056</title>
<polygon fill="none" stroke="#000000" points="227,-4158 29,-4158 29,-4122 227,-4122 227,-4158"/>
<text text-anchor="middle" x="128" y="-4136.3" font-family="Times,serif" font-size="14.00" fill="#000000">TradeConfig:getMAX_QUOTES</text>
</g>
<!-- 140531499772728 -->
<g id="node82" class="node">
<title>140531499772728</title>
<polygon fill="none" stroke="#000000" points="206.5,-4212 49.5,-4212 49.5,-4176 206.5,-4176 206.5,-4212"/>
<text text-anchor="middle" x="128" y="-4190.3" font-family="Times,serif" font-size="14.00" fill="#000000">TradeConfig:getOrderFee</text>
</g>
<!-- 140531499770936 -->
<g id="node83" class="node">
<title>140531499770936</title>
<polygon fill="none" stroke="#000000" points="194,-4266 62,-4266 62,-4230 194,-4230 194,-4266"/>
<text text-anchor="middle" x="128" y="-4244.3" font-family="Times,serif" font-size="14.00" fill="#000000">TradeConfig:getPage</text>
</g>
<!-- 140531499772056 -->
<g id="node84" class="node">
<title>140531499772056</title>
<polygon fill="none" stroke="#000000" points="251,-4320 5,-4320 5,-4284 251,-4284 251,-4320"/>
<text text-anchor="middle" x="128" y="-4298.3" font-family="Times,serif" font-size="14.00" fill="#000000">TradeConfig:getPercentSentToWebsocket</text>
</g>
<!-- 140531499579936 -->
<g id="node85" class="node">
<title>140531499579936</title>
<polygon fill="none" stroke="#000000" points="252,-4374 4,-4374 4,-4338 252,-4338 252,-4374"/>
<text text-anchor="middle" x="128" y="-4352.3" font-family="Times,serif" font-size="14.00" fill="#000000">TradeConfig:getPublishQuotePriceChange</text>
</g>
<!-- 140531499581336 -->
<g id="node86" class="node">
<title>140531499581336</title>
<polygon fill="none" stroke="#000000" points="256,-4428 0,-4428 0,-4392 256,-4392 256,-4428"/>
<text text-anchor="middle" x="128" y="-4406.3" font-family="Times,serif" font-size="14.00" fill="#000000">TradeConfig:getRandomPriceChangeFactor</text>
</g>
<!-- 140531499771888 -->
<g id="node87" class="node">
<title>140531499771888</title>
<polygon fill="none" stroke="#000000" points="196.5,-4482 59.5,-4482 59.5,-4446 196.5,-4446 196.5,-4482"/>
<text text-anchor="middle" x="128" y="-4460.3" font-family="Times,serif" font-size="14.00" fill="#000000">TradeConfig:getTrace</text>
</g>
<!-- 140531499580832 -->
<g id="node88" class="node">
<title>140531499580832</title>
<polygon fill="none" stroke="#000000" points="233.5,-4536 22.5,-4536 22.5,-4500 233.5,-4500 233.5,-4536"/>
<text text-anchor="middle" x="128" y="-4514.3" font-family="Times,serif" font-size="14.00" fill="#000000">TradeConfig:getUpdateQuotePrices</text>
</g>
<!-- 140531499772560 -->
<g id="node89" class="node">
<title>140531499772560</title>
<polygon fill="none" stroke="#000000" points="238.5,-4590 17.5,-4590 17.5,-4554 238.5,-4554 238.5,-4590"/>
<text text-anchor="middle" x="128" y="-4568.3" font-family="Times,serif" font-size="14.00" fill="#000000">TradeConfig:useRemoteEJBInterface</text>
</g>
<!-- 140531499770880 -->
<g id="node90" class="node">
<title>140531499770880</title>
<polygon fill="none" stroke="#000000" points="229.5,-4644 26.5,-4644 26.5,-4608 229.5,-4608 229.5,-4644"/>
<text text-anchor="middle" x="128" y="-4622.3" font-family="Times,serif" font-size="14.00" fill="#000000">TradeSLSBBean:getClosedOrders</text>
</g>
<!-- 140531499771720 -->
<g id="node91" class="node">
<title>140531499771720</title>
<polygon fill="none" stroke="#000000" points="217,-4698 39,-4698 39,-4662 217,-4662 217,-4698"/>
<text text-anchor="middle" x="128" y="-4676.3" font-family="Times,serif" font-size="14.00" fill="#000000">TradeSLSBBean:getHoldings</text>
</g>
<!-- 140531499770432 -->
<g id="node92" class="node">
<title>140531499770432</title>
<polygon fill="none" stroke="#000000" points="208.5,-4752 47.5,-4752 47.5,-4716 208.5,-4716 208.5,-4752"/>
<text text-anchor="middle" x="128" y="-4730.3" font-family="Times,serif" font-size="14.00" fill="#000000">TradeSLSBBean:getQuote</text>
</g>
<!-- 140531499770600 -->
<g id="node93" class="node">
<title>140531499770600</title>
<polygon fill="none" stroke="#000000" points="193.5,-4806 62.5,-4806 62.5,-4770 193.5,-4770 193.5,-4806"/>
<text text-anchor="middle" x="128" y="-4784.3" font-family="Times,serif" font-size="14.00" fill="#000000">TradeSLSBBean:sell</text>
</g>
<!-- 140531499580608 -->
<g id="node94" class="node">
<title>140531499580608</title>
<polygon fill="none" stroke="#000000" points="254.5,-4860 1.5,-4860 1.5,-4824 254.5,-4824 254.5,-4860"/>
<text text-anchor="middle" x="128" y="-4838.3" font-family="Times,serif" font-size="14.00" fill="#000000">TradeSLSBBean:updateQuotePriceVolume</text>
</g>
<!-- 140531499771552 -->
<g id="node95" class="node">
<title>140531499771552</title>
<polygon fill="none" stroke="#000000" points="222,-4914 34,-4914 34,-4878 222,-4878 222,-4914"/>
<text text-anchor="middle" x="128" y="-4892.3" font-family="Times,serif" font-size="14.00" fill="#000000">TradeServletAction:doPortfolio</text>
</g>
<!-- 140531499771048 -->
<g id="node96" class="node">
<title>140531499771048</title>
<polygon fill="none" stroke="#000000" points="208.5,-4968 47.5,-4968 47.5,-4932 208.5,-4932 208.5,-4968"/>
<text text-anchor="middle" x="128" y="-4946.3" font-family="Times,serif" font-size="14.00" fill="#000000">TradeServletAction:doSell</text>
</g>
<!-- 140531499579824 -->
<g id="node97" class="node">
<title>140531499579824</title>
<polygon fill="none" stroke="#000000" points="199,-5022 57,-5022 57,-4986 199,-4986 199,-5022"/>
<text text-anchor="middle" x="128" y="-5000.3" font-family="Times,serif" font-size="14.00" fill="#000000">new AccountDataBean</text>
</g>
<!-- 140531499580160 -->
<g id="node98" class="node">
<title>140531499580160</title>
<polygon fill="none" stroke="#000000" points="217.5,-5076 38.5,-5076 38.5,-5040 217.5,-5040 217.5,-5076"/>
<text text-anchor="middle" x="128" y="-5054.3" font-family="Times,serif" font-size="14.00" fill="#000000">new AccountProfileDataBean</text>
</g>
<!-- 140531499771272 -->
<g id="node99" class="node">
<title>140531499771272</title>
<polygon fill="none" stroke="#000000" points="477,-261 328,-261 328,-225 477,-225 477,-261"/>
<text text-anchor="middle" x="402.5" y="-239.3" font-family="Times,serif" font-size="14.00" fill="#000000">new DTStreamer3MDB</text>
</g>
<!-- 140531499771272&#45;&gt;140531498557792 -->
<g id="edge7" class="edge">
<title>140531499771272&#45;&gt;140531498557792</title>
<path fill="none" stroke="#000000" d="M477.2534,-254.0095C489.7989,-257.8473 502.2256,-263.0223 513,-270 531.5912,-282.04 546.9838,-301.4903 557.8998,-318.3133"/>
<polygon fill="#000000" stroke="#000000" points="554.9375,-320.1777 563.1933,-326.818 560.8804,-316.4787 554.9375,-320.1777"/>
</g>
<!-- 140531499770544 -->
<g id="node100" class="node">
<title>140531499770544</title>
<polygon fill="none" stroke="#000000" points="198,-5130 58,-5130 58,-5094 198,-5094 198,-5130"/>
<text text-anchor="middle" x="128" y="-5108.3" font-family="Times,serif" font-size="14.00" fill="#000000">new HoldingDataBean</text>
</g>
<!-- 140531499579656 -->
<g id="node101" class="node">
<title>140531499579656</title>
<polygon fill="none" stroke="#000000" points="192,-5184 64,-5184 64,-5148 192,-5148 192,-5184"/>
<text text-anchor="middle" x="128" y="-5162.3" font-family="Times,serif" font-size="14.00" fill="#000000">new OrderDataBean</text>
</g>
<!-- 140531499771944 -->
<g id="node102" class="node">
<title>140531499771944</title>
<polygon fill="none" stroke="#000000" points="192.5,-5238 63.5,-5238 63.5,-5202 192.5,-5202 192.5,-5238"/>
<text text-anchor="middle" x="128" y="-5216.3" font-family="Times,serif" font-size="14.00" fill="#000000">new QuoteDataBean</text>
</g>
<!-- 140531499773456 -->
<g id="node103" class="node">
<title>140531499773456</title>
<polygon fill="none" stroke="#000000" points="183.5,-5292 72.5,-5292 72.5,-5256 183.5,-5256 183.5,-5292"/>
<text text-anchor="middle" x="128" y="-5270.3" font-family="Times,serif" font-size="14.00" fill="#000000">new TradeAction</text>
</g>
<!-- 140531499773736 -->
<g id="node104" class="node">
<title>140531499773736</title>
<ellipse fill="#00ff00" stroke="#000000" cx="128" cy="-351" rx="27" ry="27"/>
<text text-anchor="middle" x="128" y="-347.3" font-family="Times,serif" font-size="14.00" fill="#000000">1</text>
</g>
<!-- 140531499773736&#45;&gt;140531499772336 -->
<g id="edge8" class="edge">
<title>140531499773736&#45;&gt;140531499772336</title>
<path fill="none" stroke="#000000" d="M154.9981,-353.7132C182.3776,-357.5267 225.0166,-366.4736 256,-387 277.3519,-401.1456 270.4072,-418.225 292,-432 300.8318,-437.6342 310.7481,-442.0927 320.9202,-445.6209"/>
<polygon fill="#000000" stroke="#000000" points="320.134,-449.0432 330.7241,-448.7265 322.248,-442.37 320.134,-449.0432"/>
</g>
<!-- 140531499773736&#45;&gt;140531499772504 -->
<g id="edge9" class="edge">
<title>140531499773736&#45;&gt;140531499772504</title>
<path fill="none" stroke="#000000" d="M154.82,-356.2761C188.532,-362.9079 248.3377,-374.673 300.735,-384.9806"/>
<polygon fill="#000000" stroke="#000000" points="300.277,-388.4576 310.7645,-386.9537 301.6282,-381.5892 300.277,-388.4576"/>
</g>
<!-- 140531499773736&#45;&gt;140531499772000 -->
<g id="edge10" class="edge">
<title>140531499773736&#45;&gt;140531499772000</title>
<path fill="none" stroke="#000000" d="M155.3237,-351C185.0132,-351 234.5077,-351 281.4409,-351"/>
<polygon fill="#000000" stroke="#000000" points="281.7219,-354.5001 291.7219,-351 281.7219,-347.5001 281.7219,-354.5001"/>
</g>
<!-- 140531499773736&#45;&gt;140531499579768 -->
<g id="edge11" class="edge">
<title>140531499773736&#45;&gt;140531499579768</title>
<path fill="none" stroke="#000000" d="M154.82,-345.7239C191.3326,-338.5411 258.4544,-325.3368 313.6209,-314.4844"/>
<polygon fill="#000000" stroke="#000000" points="314.6362,-317.8518 323.7725,-312.4874 313.285,-310.9835 314.6362,-317.8518"/>
</g>
<!-- 140531499773736&#45;&gt;140531499771272 -->
<g id="edge12" class="edge">
<title>140531499773736&#45;&gt;140531499771272</title>
<path fill="none" stroke="#000000" d="M154.9981,-348.2868C182.3776,-344.4733 225.0166,-335.5264 256,-315 277.3519,-300.8544 270.4072,-283.775 292,-270 300.0319,-264.8761 308.9607,-260.7246 318.1631,-257.3609"/>
<polygon fill="#000000" stroke="#000000" points="319.4501,-260.6211 327.8259,-254.133 317.2322,-253.9818 319.4501,-260.6211"/>
</g>
<!-- 140531498557792&#45;&gt;140531499770712 -->
<g id="edge1" class="edge">
<title>140531498557792&#45;&gt;140531499770712</title>
<path fill="none" stroke="#000000" d="M603.003,-351C611.0277,-351 619.9665,-351 628.5309,-351"/>
<polygon fill="#000000" stroke="#000000" points="628.7051,-354.5001 638.705,-351 628.705,-347.5001 628.7051,-354.5001"/>
</g>
</g>
</svg>
