<?xml version="1.0" encoding="UTF-8" standalone="no"?>
<!DOCTYPE svg PUBLIC "-//W3C//DTD SVG 1.1//EN"
 "http://www.w3.org/Graphics/SVG/1.1/DTD/svg11.dtd">
<!-- Generated by graphviz version 2.40.1 (20161225.0304)
 -->
<!-- Title: %3 Pages: 1 -->
<svg width="1973pt" height="599pt"
 viewBox="0.00 0.00 1973.00 599.00" xmlns="http://www.w3.org/2000/svg" xmlns:xlink="http://www.w3.org/1999/xlink">
<g id="graph0" class="graph" transform="scale(1 1) rotate(0) translate(4 595)">
<title>%3</title>
<!-- 140531499373064 -->
<g id="node1" class="node">
<title>140531499373064</title>
<polygon fill="none" stroke="#000000" points="824,-397 681,-397 681,-361 824,-361 824,-397"/>
<text text-anchor="middle" x="752.5" y="-375.3" font-family="Times,serif" font-size="14.00" fill="#000000">ActionDecoder:destroy</text>
</g>
<!-- 140531499373960 -->
<g id="node50" class="node">
<title>140531499373960</title>
<ellipse fill="none" stroke="#000000" cx="926" cy="-379" rx="27" ry="27"/>
<text text-anchor="middle" x="926" y="-375.3" font-family="Times,serif" font-size="14.00" fill="#000000">splace_in_Root_0</text>
</g>
<!-- 140531499373064&#45;&gt;140531499373960 -->
<g id="edge1" class="edge">
<title>140531499373064&#45;&gt;140531499373960</title>
<path fill="none" stroke="#000000" d="M824.0708,-379C846.1782,-379 869.6431,-379 888.4792,-379"/>
<polygon fill="#000000" stroke="#000000" points="888.7088,-382.5001 898.7087,-379 888.7087,-375.5001 888.7088,-382.5001"/>
</g>
<!-- 140531499373232 -->
<g id="node2" class="node">
<title>140531499373232</title>
<polygon fill="none" stroke="#000000" points="1177,-58 989,-58 989,-22 1177,-22 1177,-58"/>
<text text-anchor="middle" x="1083" y="-36.3" font-family="Times,serif" font-size="14.00" fill="#000000">DTStreamer3MDB:onMessage</text>
</g>
<!-- 140531499727280 -->
<g id="node34" class="node">
<title>140531499727280</title>
<ellipse fill="none" stroke="#000000" cx="27" cy="-127" rx="27" ry="27"/>
<text text-anchor="middle" x="27" y="-123.3" font-family="Times,serif" font-size="14.00" fill="#000000">intplace_DTStreamer3MDB:onMessage</text>
</g>
<!-- 140531499373232&#45;&gt;140531499727280 -->
<g id="edge2" class="edge">
<title>140531499373232&#45;&gt;140531499727280</title>
<path fill="none" stroke="#000000" d="M988.9856,-22.5136C923.0448,-11.7502 832.6936,0 752.5,0 207,0 207,0 207,0 152.4618,0 133.966,-4.7291 90,-37 70.18,-51.5478 54.3465,-74.2645 43.5102,-93.2348"/>
<polygon fill="#000000" stroke="#000000" points="40.3364,-91.7433 38.5964,-102.1943 46.474,-95.1094 40.3364,-91.7433"/>
</g>
<!-- 140531499373512 -->
<g id="node3" class="node">
<title>140531499373512</title>
<polygon fill="none" stroke="#000000" points="1659,-198 1519,-198 1519,-162 1659,-162 1659,-198"/>
<text text-anchor="middle" x="1589" y="-176.3" font-family="Times,serif" font-size="14.00" fill="#000000">MDBStats:getInstance</text>
</g>
<!-- 140531499725992 -->
<g id="node55" class="node">
<title>140531499725992</title>
<ellipse fill="none" stroke="#000000" cx="1758" cy="-180" rx="27" ry="27"/>
<text text-anchor="middle" x="1758" y="-176.3" font-family="Times,serif" font-size="14.00" fill="#000000">splace_in_new DTStreamer3MDB_0</text>
</g>
<!-- 140531499373512&#45;&gt;140531499725992 -->
<g id="edge3" class="edge">
<title>140531499373512&#45;&gt;140531499725992</title>
<path fill="none" stroke="#000000" d="M1659.203,-180C1680.2782,-180 1702.5754,-180 1720.6436,-180"/>
<polygon fill="#000000" stroke="#000000" points="1720.7519,-183.5001 1730.7519,-180 1720.7519,-176.5001 1720.7519,-183.5001"/>
</g>
<!-- 140531499372728 -->
<g id="node4" class="node">
<title>140531499372728</title>
<polygon fill="none" stroke="#000000" points="863,-343 642,-343 642,-307 863,-307 863,-343"/>
<text text-anchor="middle" x="752.5" y="-321.3" font-family="Times,serif" font-size="14.00" fill="#000000">MarketSummaryWebSocket:onClose</text>
</g>
<!-- 140531499374520 -->
<g id="node52" class="node">
<title>140531499374520</title>
<ellipse fill="none" stroke="#000000" cx="926" cy="-307" rx="27" ry="27"/>
<text text-anchor="middle" x="926" y="-303.3" font-family="Times,serif" font-size="14.00" fill="#000000">splace_in_Root_2</text>
</g>
<!-- 140531499372728&#45;&gt;140531499374520 -->
<g id="edge4" class="edge">
<title>140531499372728&#45;&gt;140531499374520</title>
<path fill="none" stroke="#000000" d="M863.3625,-313.4984C872.4029,-312.5605 881.0638,-311.662 888.908,-310.8482"/>
<polygon fill="#000000" stroke="#000000" points="889.4718,-314.3085 899.0572,-309.7952 888.7494,-307.3459 889.4718,-314.3085"/>
</g>
<!-- 140531499373120 -->
<g id="node5" class="node">
<title>140531499373120</title>
<polygon fill="none" stroke="#000000" points="1161.5,-476 1004.5,-476 1004.5,-440 1161.5,-440 1161.5,-476"/>
<text text-anchor="middle" x="1083" y="-454.3" font-family="Times,serif" font-size="14.00" fill="#000000">OrdersAlertFilter:doFilter</text>
</g>
<!-- 140531499726552 -->
<g id="node35" class="node">
<title>140531499726552</title>
<ellipse fill="none" stroke="#000000" cx="1240" cy="-458" rx="27" ry="27"/>
<text text-anchor="middle" x="1240" y="-454.3" font-family="Times,serif" font-size="14.00" fill="#000000">intplace_OrdersAlertFilter:doFilter</text>
</g>
<!-- 140531499373120&#45;&gt;140531499726552 -->
<g id="edge5" class="edge">
<title>140531499373120&#45;&gt;140531499726552</title>
<path fill="none" stroke="#000000" d="M1161.96,-458C1176.1342,-458 1190.2884,-458 1202.5741,-458"/>
<polygon fill="#000000" stroke="#000000" points="1202.8431,-461.5001 1212.8431,-458 1202.8431,-454.5001 1202.8431,-461.5001"/>
</g>
<!-- 140531499373008 -->
<g id="node6" class="node">
<title>140531499373008</title>
<polygon fill="none" stroke="#000000" points="1875,-363 1821,-363 1821,-327 1875,-327 1875,-363"/>
<text text-anchor="middle" x="1848" y="-341.3" font-family="Times,serif" font-size="14.00" fill="#000000">Root</text>
</g>
<!-- 140531499372896 -->
<g id="node56" class="node">
<title>140531499372896</title>
<ellipse fill="#ffa500" stroke="#000000" cx="1938" cy="-345" rx="27" ry="27"/>
</g>
<!-- 140531499373008&#45;&gt;140531499372896 -->
<g id="edge6" class="edge">
<title>140531499373008&#45;&gt;140531499372896</title>
<path fill="none" stroke="#000000" d="M1875.003,-345C1883.0277,-345 1891.9665,-345 1900.5309,-345"/>
<polygon fill="#000000" stroke="#000000" points="1900.7051,-348.5001 1910.705,-345 1900.705,-341.5001 1900.7051,-348.5001"/>
</g>
<!-- 140531499373288 -->
<g id="node7" class="node">
<title>140531499373288</title>
<polygon fill="none" stroke="#000000" points="455.5,-217 330.5,-217 330.5,-181 455.5,-181 455.5,-217"/>
<text text-anchor="middle" x="393" y="-195.3" font-family="Times,serif" font-size="14.00" fill="#000000">TimerStat:getCount</text>
</g>
<!-- 140531499376312 -->
<g id="node46" class="node">
<title>140531499376312</title>
<ellipse fill="none" stroke="#000000" cx="579" cy="-199" rx="27" ry="27"/>
<text text-anchor="middle" x="579" y="-195.3" font-family="Times,serif" font-size="14.00" fill="#000000">splace_in_DTStreamer3MDB:onMessage_0</text>
</g>
<!-- 140531499373288&#45;&gt;140531499376312 -->
<g id="edge7" class="edge">
<title>140531499373288&#45;&gt;140531499376312</title>
<path fill="none" stroke="#000000" d="M455.7118,-199C484.319,-199 517.2185,-199 541.833,-199"/>
<polygon fill="#000000" stroke="#000000" points="541.8382,-202.5001 551.8381,-199 541.8381,-195.5001 541.8382,-202.5001"/>
</g>
<!-- 140531499373176 -->
<g id="node8" class="node">
<title>140531499373176</title>
<polygon fill="none" stroke="#000000" points="1695,-490 1483,-490 1483,-454 1695,-454 1695,-490"/>
<text text-anchor="middle" x="1589" y="-468.3" font-family="Times,serif" font-size="14.00" fill="#000000">TradeConfig:getDisplayOrderAlerts</text>
</g>
<!-- 140531499375528 -->
<g id="node49" class="node">
<title>140531499375528</title>
<ellipse fill="none" stroke="#000000" cx="1758" cy="-472" rx="27" ry="27"/>
<text text-anchor="middle" x="1758" y="-468.3" font-family="Times,serif" font-size="14.00" fill="#000000">splace_in_OrdersAlertFilter:doFilter_0</text>
</g>
<!-- 140531499373176&#45;&gt;140531499375528 -->
<g id="edge8" class="edge">
<title>140531499373176&#45;&gt;140531499375528</title>
<path fill="none" stroke="#000000" d="M1695.0706,-472C1704.0981,-472 1712.7736,-472 1720.6462,-472"/>
<polygon fill="#000000" stroke="#000000" points="1720.8414,-475.5001 1730.8414,-472 1720.8413,-468.5001 1720.8414,-475.5001"/>
</g>
<!-- 140531499373344 -->
<g id="node9" class="node">
<title>140531499373344</title>
<polygon fill="none" stroke="#000000" points="492,-145 294,-145 294,-109 492,-109 492,-145"/>
<text text-anchor="middle" x="393" y="-123.3" font-family="Times,serif" font-size="14.00" fill="#000000">TradeConfig:getMAX_QUOTES</text>
</g>
<!-- 140531499376592 -->
<g id="node47" class="node">
<title>140531499376592</title>
<ellipse fill="none" stroke="#000000" cx="579" cy="-127" rx="27" ry="27"/>
<text text-anchor="middle" x="579" y="-123.3" font-family="Times,serif" font-size="14.00" fill="#000000">splace_in_DTStreamer3MDB:onMessage_1</text>
</g>
<!-- 140531499373344&#45;&gt;140531499376592 -->
<g id="edge9" class="edge">
<title>140531499373344&#45;&gt;140531499376592</title>
<path fill="none" stroke="#000000" d="M492.2624,-127C509.9556,-127 527.3451,-127 541.8538,-127"/>
<polygon fill="#000000" stroke="#000000" points="541.8724,-130.5001 551.8724,-127 541.8723,-123.5001 541.8724,-130.5001"/>
</g>
<!-- 140531499373400 -->
<g id="node10" class="node">
<title>140531499373400</title>
<polygon fill="none" stroke="#000000" points="516,-73 270,-73 270,-37 516,-37 516,-73"/>
<text text-anchor="middle" x="393" y="-51.3" font-family="Times,serif" font-size="14.00" fill="#000000">TradeConfig:getPercentSentToWebsocket</text>
</g>
<!-- 140531499725096 -->
<g id="node48" class="node">
<title>140531499725096</title>
<ellipse fill="none" stroke="#000000" cx="579" cy="-55" rx="27" ry="27"/>
<text text-anchor="middle" x="579" y="-51.3" font-family="Times,serif" font-size="14.00" fill="#000000">splace_in_DTStreamer3MDB:onMessage_2</text>
</g>
<!-- 140531499373400&#45;&gt;140531499725096 -->
<g id="edge10" class="edge">
<title>140531499373400&#45;&gt;140531499725096</title>
<path fill="none" stroke="#000000" d="M516.0289,-55C525.1323,-55 533.8058,-55 541.645,-55"/>
<polygon fill="#000000" stroke="#000000" points="541.7798,-58.5001 551.7797,-55 541.7797,-51.5001 541.7798,-58.5001"/>
</g>
<!-- 140531499373456 -->
<g id="node11" class="node">
<title>140531499373456</title>
<polygon fill="none" stroke="#000000" points="1157.5,-226 1008.5,-226 1008.5,-190 1157.5,-190 1157.5,-226"/>
<text text-anchor="middle" x="1083" y="-204.3" font-family="Times,serif" font-size="14.00" fill="#000000">new DTStreamer3MDB</text>
</g>
<!-- 140531499728344 -->
<g id="node36" class="node">
<title>140531499728344</title>
<ellipse fill="none" stroke="#000000" cx="1240" cy="-208" rx="27" ry="27"/>
<text text-anchor="middle" x="1240" y="-204.3" font-family="Times,serif" font-size="14.00" fill="#000000">intplace_new DTStreamer3MDB</text>
</g>
<!-- 140531499373456&#45;&gt;140531499728344 -->
<g id="edge40" class="edge">
<title>140531499373456&#45;&gt;140531499728344</title>
<path fill="none" stroke="#000000" d="M1157.8215,-208C1173.4013,-208 1189.1747,-208 1202.6798,-208"/>
<polygon fill="#000000" stroke="#000000" points="1202.9773,-211.5001 1212.9772,-208 1202.9772,-204.5001 1202.9773,-211.5001"/>
</g>
<!-- 140531499373792 -->
<g id="node12" class="node">
<title>140531499373792</title>
<polygon fill="none" stroke="#000000" points="1267,-378 1213,-378 1213,-342 1267,-342 1267,-378"/>
<text text-anchor="middle" x="1240" y="-356.3" font-family="Times,serif" font-size="14.00" fill="#000000">hid_1</text>
</g>
<!-- 140531499373568 -->
<g id="node40" class="node">
<title>140531499373568</title>
<ellipse fill="none" stroke="#000000" cx="1758" cy="-345" rx="27" ry="27"/>
<text text-anchor="middle" x="1758" y="-341.3" font-family="Times,serif" font-size="14.00" fill="#000000">pre_Root</text>
</g>
<!-- 140531499373792&#45;&gt;140531499373568 -->
<g id="edge11" class="edge">
<title>140531499373792&#45;&gt;140531499373568</title>
<path fill="none" stroke="#000000" d="M1267.1206,-359.2147C1353.3858,-356.7166 1621.5788,-348.9504 1720.6923,-346.0803"/>
<polygon fill="#000000" stroke="#000000" points="1720.9417,-349.5747 1730.8362,-345.7866 1720.739,-342.5776 1720.9417,-349.5747"/>
</g>
<!-- 140531499724928 -->
<g id="node13" class="node">
<title>140531499724928</title>
<polygon fill="none" stroke="#000000" points="779.5,-73 725.5,-73 725.5,-37 779.5,-37 779.5,-73"/>
<text text-anchor="middle" x="752.5" y="-51.3" font-family="Times,serif" font-size="14.00" fill="#000000">hid_10</text>
</g>
<!-- 140531499375976 -->
<g id="node37" class="node">
<title>140531499375976</title>
<ellipse fill="none" stroke="#000000" cx="926" cy="-109" rx="27" ry="27"/>
<text text-anchor="middle" x="926" y="-105.3" font-family="Times,serif" font-size="14.00" fill="#000000">pre_DTStreamer3MDB:onMessage</text>
</g>
<!-- 140531499724928&#45;&gt;140531499375976 -->
<g id="edge12" class="edge">
<title>140531499724928&#45;&gt;140531499375976</title>
<path fill="none" stroke="#000000" d="M779.6477,-60.3232C802.2357,-65.0629 835.0897,-72.6805 863,-82 872.6337,-85.2168 882.8465,-89.2899 892.1815,-93.2907"/>
<polygon fill="#000000" stroke="#000000" points="890.9671,-96.58 901.5306,-97.3949 893.7809,-90.1704 890.9671,-96.58"/>
</g>
<!-- 140531499725208 -->
<g id="node14" class="node">
<title>140531499725208</title>
<polygon fill="none" stroke="#000000" points="779.5,-235 725.5,-235 725.5,-199 779.5,-199 779.5,-235"/>
<text text-anchor="middle" x="752.5" y="-213.3" font-family="Times,serif" font-size="14.00" fill="#000000">hid_11</text>
</g>
<!-- 140531499725208&#45;&gt;140531499375976 -->
<g id="edge13" class="edge">
<title>140531499725208&#45;&gt;140531499375976</title>
<path fill="none" stroke="#000000" d="M779.9184,-215.3312C803.5732,-212.7762 837.8046,-206.3171 863,-190 881.5912,-177.96 896.9838,-158.5097 907.8998,-141.6867"/>
<polygon fill="#000000" stroke="#000000" points="910.8804,-143.5213 913.1933,-133.182 904.9375,-139.8223 910.8804,-143.5213"/>
</g>
<!-- 140531499725824 -->
<g id="node15" class="node">
<title>140531499725824</title>
<polygon fill="none" stroke="#000000" points="1875,-170 1821,-170 1821,-134 1875,-134 1875,-170"/>
<text text-anchor="middle" x="1848" y="-148.3" font-family="Times,serif" font-size="14.00" fill="#000000">hid_12</text>
</g>
<!-- 140531499725656 -->
<g id="node45" class="node">
<title>140531499725656</title>
<ellipse fill="none" stroke="#000000" cx="926" cy="-208" rx="27" ry="27"/>
<text text-anchor="middle" x="926" y="-204.3" font-family="Times,serif" font-size="14.00" fill="#000000">pre_new DTStreamer3MDB</text>
</g>
<!-- 140531499725824&#45;&gt;140531499725656 -->
<g id="edge14" class="edge">
<title>140531499725824&#45;&gt;140531499725656</title>
<path fill="none" stroke="#000000" d="M1820.8761,-147.297C1773.8329,-139.5613 1673.9928,-125 1589,-125 1240,-125 1240,-125 1240,-125 1125.7017,-125 1097.7731,-145.8927 989,-181 979.3344,-184.1196 969.111,-188.1603 959.776,-192.1612"/>
<polygon fill="#000000" stroke="#000000" points="958.1723,-189.043 950.4303,-196.2758 960.9929,-195.4496 958.1723,-189.043"/>
</g>
<!-- 140531499726104 -->
<g id="node16" class="node">
<title>140531499726104</title>
<polygon fill="none" stroke="#000000" points="779.5,-289 725.5,-289 725.5,-253 779.5,-253 779.5,-289"/>
<text text-anchor="middle" x="752.5" y="-267.3" font-family="Times,serif" font-size="14.00" fill="#000000">hid_13</text>
</g>
<!-- 140531499726104&#45;&gt;140531499725656 -->
<g id="edge15" class="edge">
<title>140531499726104&#45;&gt;140531499725656</title>
<path fill="none" stroke="#000000" d="M779.9504,-266.504C802.7186,-262.2565 835.6674,-254.8979 863,-244 873.7507,-239.7135 884.8992,-233.867 894.7753,-228.1323"/>
<polygon fill="#000000" stroke="#000000" points="896.6576,-231.0848 903.4396,-222.945 893.0618,-225.0788 896.6576,-231.0848"/>
</g>
<!-- 140531499726720 -->
<g id="node17" class="node">
<title>140531499726720</title>
<polygon fill="none" stroke="#000000" points="1357,-423 1303,-423 1303,-387 1357,-387 1357,-423"/>
<text text-anchor="middle" x="1330" y="-401.3" font-family="Times,serif" font-size="14.00" fill="#000000">hid_14</text>
</g>
<!-- 140531499374800 -->
<g id="node53" class="node">
<title>140531499374800</title>
<ellipse fill="none" stroke="#000000" cx="1420" cy="-400" rx="27" ry="27"/>
<text text-anchor="middle" x="1420" y="-396.3" font-family="Times,serif" font-size="14.00" fill="#000000">splace_in_Root_3</text>
</g>
<!-- 140531499726720&#45;&gt;140531499374800 -->
<g id="edge16" class="edge">
<title>140531499726720&#45;&gt;140531499374800</title>
<path fill="none" stroke="#000000" d="M1357.003,-403.4998C1365.1013,-403.0499 1374.1306,-402.5483 1382.7665,-402.0685"/>
<polygon fill="#000000" stroke="#000000" points="1383.2257,-405.5485 1393.0161,-401.4991 1382.8373,-398.5593 1383.2257,-405.5485"/>
</g>
<!-- 140531499726944 -->
<g id="node18" class="node">
<title>140531499726944</title>
<polygon fill="none" stroke="#000000" points="1357,-486 1303,-486 1303,-450 1357,-450 1357,-486"/>
<text text-anchor="middle" x="1330" y="-464.3" font-family="Times,serif" font-size="14.00" fill="#000000">hid_15</text>
</g>
<!-- 140531499375304 -->
<g id="node42" class="node">
<title>140531499375304</title>
<ellipse fill="none" stroke="#000000" cx="1420" cy="-472" rx="27" ry="27"/>
<text text-anchor="middle" x="1420" y="-468.3" font-family="Times,serif" font-size="14.00" fill="#000000">pre_TradeConfig:getDisplayOrderAlerts</text>
</g>
<!-- 140531499726944&#45;&gt;140531499375304 -->
<g id="edge17" class="edge">
<title>140531499726944&#45;&gt;140531499375304</title>
<path fill="none" stroke="#000000" d="M1357.003,-469.2001C1365.1013,-469.5601 1374.1306,-469.9614 1382.7665,-470.3452"/>
<polygon fill="#000000" stroke="#000000" points="1382.8705,-473.8532 1393.0161,-470.8007 1383.1814,-466.8601 1382.8705,-473.8532"/>
</g>
<!-- 140531499727448 -->
<g id="node19" class="node">
<title>140531499727448</title>
<polygon fill="none" stroke="#000000" points="234,-355 180,-355 180,-319 234,-319 234,-355"/>
<text text-anchor="middle" x="207" y="-333.3" font-family="Times,serif" font-size="14.00" fill="#000000">hid_16</text>
</g>
<!-- 140531499374240 -->
<g id="node51" class="node">
<title>140531499374240</title>
<ellipse fill="none" stroke="#000000" cx="393" cy="-413" rx="27" ry="27"/>
<text text-anchor="middle" x="393" y="-409.3" font-family="Times,serif" font-size="14.00" fill="#000000">splace_in_Root_1</text>
</g>
<!-- 140531499727448&#45;&gt;140531499374240 -->
<g id="edge18" class="edge">
<title>140531499727448&#45;&gt;140531499374240</title>
<path fill="none" stroke="#000000" d="M234.046,-348.0511C266.8324,-361.4476 322.1505,-384.0508 358.1163,-398.7465"/>
<polygon fill="#000000" stroke="#000000" points="357.1316,-402.125 367.7126,-402.6675 359.7794,-395.645 357.1316,-402.125"/>
</g>
<!-- 140531499727672 -->
<g id="node20" class="node">
<title>140531499727672</title>
<polygon fill="none" stroke="#000000" points="144,-208 90,-208 90,-172 144,-172 144,-208"/>
<text text-anchor="middle" x="117" y="-186.3" font-family="Times,serif" font-size="14.00" fill="#000000">hid_17</text>
</g>
<!-- 140531499375920 -->
<g id="node41" class="node">
<title>140531499375920</title>
<ellipse fill="none" stroke="#000000" cx="207" cy="-199" rx="27" ry="27"/>
<text text-anchor="middle" x="207" y="-195.3" font-family="Times,serif" font-size="14.00" fill="#000000">pre_TimerStat:getCount</text>
</g>
<!-- 140531499727672&#45;&gt;140531499375920 -->
<g id="edge19" class="edge">
<title>140531499727672&#45;&gt;140531499375920</title>
<path fill="none" stroke="#000000" d="M144.003,-192.7003C152.1903,-193.519 161.3292,-194.4329 170.051,-195.3051"/>
<polygon fill="#000000" stroke="#000000" points="169.7174,-198.7891 180.0161,-196.3016 170.414,-191.8239 169.7174,-198.7891"/>
</g>
<!-- 140531499727896 -->
<g id="node21" class="node">
<title>140531499727896</title>
<polygon fill="none" stroke="#000000" points="144,-145 90,-145 90,-109 144,-109 144,-145"/>
<text text-anchor="middle" x="117" y="-123.3" font-family="Times,serif" font-size="14.00" fill="#000000">hid_18</text>
</g>
<!-- 140531499725432 -->
<g id="node43" class="node">
<title>140531499725432</title>
<ellipse fill="none" stroke="#000000" cx="207" cy="-127" rx="27" ry="27"/>
<text text-anchor="middle" x="207" y="-123.3" font-family="Times,serif" font-size="14.00" fill="#000000">pre_TradeConfig:getMAX_QUOTES</text>
</g>
<!-- 140531499727896&#45;&gt;140531499725432 -->
<g id="edge20" class="edge">
<title>140531499727896&#45;&gt;140531499725432</title>
<path fill="none" stroke="#000000" d="M144.003,-127C152.0277,-127 160.9665,-127 169.5309,-127"/>
<polygon fill="#000000" stroke="#000000" points="169.7051,-130.5001 179.705,-127 169.705,-123.5001 169.7051,-130.5001"/>
</g>
<!-- 140531499728120 -->
<g id="node22" class="node">
<title>140531499728120</title>
<polygon fill="none" stroke="#000000" points="144,-82 90,-82 90,-46 144,-46 144,-82"/>
<text text-anchor="middle" x="117" y="-60.3" font-family="Times,serif" font-size="14.00" fill="#000000">hid_19</text>
</g>
<!-- 140531499725544 -->
<g id="node44" class="node">
<title>140531499725544</title>
<ellipse fill="none" stroke="#000000" cx="207" cy="-55" rx="27" ry="27"/>
<text text-anchor="middle" x="207" y="-51.3" font-family="Times,serif" font-size="14.00" fill="#000000">pre_TradeConfig:getPercentSentToWebsocket</text>
</g>
<!-- 140531499728120&#45;&gt;140531499725544 -->
<g id="edge21" class="edge">
<title>140531499728120&#45;&gt;140531499725544</title>
<path fill="none" stroke="#000000" d="M144.003,-61.2997C152.1903,-60.481 161.3292,-59.5671 170.051,-58.6949"/>
<polygon fill="#000000" stroke="#000000" points="170.414,-62.1761 180.0161,-57.6984 169.7174,-55.2109 170.414,-62.1761"/>
</g>
<!-- 140531499374072 -->
<g id="node23" class="node">
<title>140531499374072</title>
<polygon fill="none" stroke="#000000" points="1267,-591 1213,-591 1213,-555 1267,-555 1267,-591"/>
<text text-anchor="middle" x="1240" y="-569.3" font-family="Times,serif" font-size="14.00" fill="#000000">hid_2</text>
</g>
<!-- 140531499374072&#45;&gt;140531499373568 -->
<g id="edge22" class="edge">
<title>140531499374072&#45;&gt;140531499373568</title>
<path fill="none" stroke="#000000" d="M1267.1403,-576.9608C1343.6641,-586.5509 1564.0869,-603.1116 1695,-499 1714.123,-483.792 1735.4823,-421.4383 1747.7723,-380.8869"/>
<polygon fill="#000000" stroke="#000000" points="1751.1904,-381.6722 1750.6946,-371.089 1744.4824,-379.6715 1751.1904,-381.6722"/>
</g>
<!-- 140531499728512 -->
<g id="node24" class="node">
<title>140531499728512</title>
<polygon fill="none" stroke="#000000" points="1357,-198 1303,-198 1303,-162 1357,-162 1357,-198"/>
<text text-anchor="middle" x="1330" y="-176.3" font-family="Times,serif" font-size="14.00" fill="#000000">hid_20</text>
</g>
<!-- 140531499725768 -->
<g id="node38" class="node">
<title>140531499725768</title>
<ellipse fill="none" stroke="#000000" cx="1420" cy="-180" rx="27" ry="27"/>
<text text-anchor="middle" x="1420" y="-176.3" font-family="Times,serif" font-size="14.00" fill="#000000">pre_MDBStats:getInstance</text>
</g>
<!-- 140531499728512&#45;&gt;140531499725768 -->
<g id="edge23" class="edge">
<title>140531499728512&#45;&gt;140531499725768</title>
<path fill="none" stroke="#000000" d="M1357.003,-180C1365.0277,-180 1373.9665,-180 1382.5309,-180"/>
<polygon fill="#000000" stroke="#000000" points="1382.7051,-183.5001 1392.705,-180 1382.705,-176.5001 1382.7051,-183.5001"/>
</g>
<!-- 140531499728736 -->
<g id="node25" class="node">
<title>140531499728736</title>
<polygon fill="none" stroke="#000000" points="1357,-252 1303,-252 1303,-216 1357,-216 1357,-252"/>
<text text-anchor="middle" x="1330" y="-230.3" font-family="Times,serif" font-size="14.00" fill="#000000">hid_21</text>
</g>
<!-- 140531499375080 -->
<g id="node54" class="node">
<title>140531499375080</title>
<ellipse fill="none" stroke="#000000" cx="1420" cy="-252" rx="27" ry="27"/>
<text text-anchor="middle" x="1420" y="-248.3" font-family="Times,serif" font-size="14.00" fill="#000000">splace_in_Root_4</text>
</g>
<!-- 140531499728736&#45;&gt;140531499375080 -->
<g id="edge24" class="edge">
<title>140531499728736&#45;&gt;140531499375080</title>
<path fill="none" stroke="#000000" d="M1357.003,-239.4006C1365.2647,-241.0529 1374.4954,-242.8991 1383.2888,-244.6578"/>
<polygon fill="#000000" stroke="#000000" points="1382.834,-248.136 1393.3262,-246.6652 1384.2069,-241.272 1382.834,-248.136"/>
</g>
<!-- 140531499374352 -->
<g id="node26" class="node">
<title>140531499374352</title>
<polygon fill="none" stroke="#000000" points="1110,-325 1056,-325 1056,-289 1110,-289 1110,-325"/>
<text text-anchor="middle" x="1083" y="-303.3" font-family="Times,serif" font-size="14.00" fill="#000000">hid_3</text>
</g>
<!-- 140531499374352&#45;&gt;140531499373568 -->
<g id="edge25" class="edge">
<title>140531499374352&#45;&gt;140531499373568</title>
<path fill="none" stroke="#000000" d="M1110.0465,-307C1155.4846,-307 1250.0252,-307 1330,-307 1330,-307 1330,-307 1420,-307 1530.2463,-307 1659.4606,-327.211 1721.3398,-338.1535"/>
<polygon fill="#000000" stroke="#000000" points="1720.9257,-341.635 1731.3863,-339.9539 1722.1605,-334.7448 1720.9257,-341.635"/>
</g>
<!-- 140531499374632 -->
<g id="node27" class="node">
<title>140531499374632</title>
<polygon fill="none" stroke="#000000" points="1616,-413 1562,-413 1562,-377 1616,-377 1616,-413"/>
<text text-anchor="middle" x="1589" y="-391.3" font-family="Times,serif" font-size="14.00" fill="#000000">hid_4</text>
</g>
<!-- 140531499374632&#45;&gt;140531499373568 -->
<g id="edge26" class="edge">
<title>140531499374632&#45;&gt;140531499373568</title>
<path fill="none" stroke="#000000" d="M1616.1528,-386.9666C1644.947,-378.4476 1690.5625,-364.9519 1722.261,-355.5737"/>
<polygon fill="#000000" stroke="#000000" points="1723.4285,-358.8783 1732.0247,-352.685 1721.4426,-352.1659 1723.4285,-358.8783"/>
</g>
<!-- 140531499374912 -->
<g id="node28" class="node">
<title>140531499374912</title>
<polygon fill="none" stroke="#000000" points="1616,-275 1562,-275 1562,-239 1616,-239 1616,-275"/>
<text text-anchor="middle" x="1589" y="-253.3" font-family="Times,serif" font-size="14.00" fill="#000000">hid_5</text>
</g>
<!-- 140531499374912&#45;&gt;140531499373568 -->
<g id="edge27" class="edge">
<title>140531499374912&#45;&gt;140531499373568</title>
<path fill="none" stroke="#000000" d="M1616.2659,-263.3353C1638.3754,-269.1471 1669.8784,-278.9903 1695,-293 1707.7326,-300.1007 1720.3979,-309.8834 1730.9969,-319.0493"/>
<polygon fill="#000000" stroke="#000000" points="1728.8719,-321.8436 1738.6662,-325.8836 1733.529,-316.6176 1728.8719,-321.8436"/>
</g>
<!-- 140531499375360 -->
<g id="node29" class="node">
<title>140531499375360</title>
<polygon fill="none" stroke="#000000" points="1875,-517 1821,-517 1821,-481 1875,-481 1875,-517"/>
<text text-anchor="middle" x="1848" y="-495.3" font-family="Times,serif" font-size="14.00" fill="#000000">hid_6</text>
</g>
<!-- 140531499373736 -->
<g id="node39" class="node">
<title>140531499373736</title>
<ellipse fill="none" stroke="#000000" cx="926" cy="-458" rx="27" ry="27"/>
<text text-anchor="middle" x="926" y="-454.3" font-family="Times,serif" font-size="14.00" fill="#000000">pre_OrdersAlertFilter:doFilter</text>
</g>
<!-- 140531499375360&#45;&gt;140531499373736 -->
<g id="edge28" class="edge">
<title>140531499375360&#45;&gt;140531499373736</title>
<path fill="none" stroke="#000000" d="M1820.8834,-503.8772C1773.8512,-511.8994 1674.0273,-527 1589,-527 1240,-527 1240,-527 1240,-527 1126.8935,-527 1097.5331,-516.838 989,-485 979.2541,-482.1411 969.0039,-478.1872 959.669,-474.1863"/>
<polygon fill="#000000" stroke="#000000" points="960.892,-470.9 950.3318,-470.0439 958.0533,-477.2986 960.892,-470.9"/>
</g>
<!-- 140531499375640 -->
<g id="node30" class="node">
<title>140531499375640</title>
<polygon fill="none" stroke="#000000" points="779.5,-470 725.5,-470 725.5,-434 779.5,-434 779.5,-470"/>
<text text-anchor="middle" x="752.5" y="-448.3" font-family="Times,serif" font-size="14.00" fill="#000000">hid_7</text>
</g>
<!-- 140531499375640&#45;&gt;140531499373736 -->
<g id="edge29" class="edge">
<title>140531499375640&#45;&gt;140531499373736</title>
<path fill="none" stroke="#000000" d="M779.6094,-452.9375C808.9351,-453.9516 855.8848,-455.5753 888.6838,-456.7095"/>
<polygon fill="#000000" stroke="#000000" points="888.6802,-460.2114 898.7953,-457.0592 888.9222,-453.2156 888.6802,-460.2114"/>
</g>
<!-- 140531499376144 -->
<g id="node31" class="node">
<title>140531499376144</title>
<polygon fill="none" stroke="#000000" points="779.5,-181 725.5,-181 725.5,-145 779.5,-145 779.5,-181"/>
<text text-anchor="middle" x="752.5" y="-159.3" font-family="Times,serif" font-size="14.00" fill="#000000">hid_8</text>
</g>
<!-- 140531499376144&#45;&gt;140531499375976 -->
<g id="edge30" class="edge">
<title>140531499376144&#45;&gt;140531499375976</title>
<path fill="none" stroke="#000000" d="M779.6477,-157.6768C802.2357,-152.9371 835.0897,-145.3195 863,-136 872.6337,-132.7832 882.8465,-128.7101 892.1815,-124.7093"/>
<polygon fill="#000000" stroke="#000000" points="893.7809,-127.8296 901.5306,-120.6051 890.9671,-121.42 893.7809,-127.8296"/>
</g>
<!-- 140531499376424 -->
<g id="node32" class="node">
<title>140531499376424</title>
<polygon fill="none" stroke="#000000" points="779.5,-127 725.5,-127 725.5,-91 779.5,-91 779.5,-127"/>
<text text-anchor="middle" x="752.5" y="-105.3" font-family="Times,serif" font-size="14.00" fill="#000000">hid_9</text>
</g>
<!-- 140531499376424&#45;&gt;140531499375976 -->
<g id="edge31" class="edge">
<title>140531499376424&#45;&gt;140531499375976</title>
<path fill="none" stroke="#000000" d="M779.6094,-109C808.9351,-109 855.8848,-109 888.6838,-109"/>
<polygon fill="#000000" stroke="#000000" points="888.7953,-112.5001 898.7953,-109 888.7952,-105.5001 888.7953,-112.5001"/>
</g>
<!-- 140531499372784 -->
<g id="node33" class="node">
<title>140531499372784</title>
<ellipse fill="#00ff00" stroke="#000000" cx="579" cy="-325" rx="27" ry="27"/>
<text text-anchor="middle" x="579" y="-321.3" font-family="Times,serif" font-size="14.00" fill="#000000">1</text>
</g>
<!-- 140531499372784&#45;&gt;140531499373064 -->
<g id="edge50" class="edge">
<title>140531499372784&#45;&gt;140531499373064</title>
<path fill="none" stroke="#000000" d="M603.4694,-336.6051C614.9884,-341.7771 629.0199,-347.6658 642,-352 651.3425,-355.1195 661.2388,-358.0484 671.1187,-360.7424"/>
<polygon fill="#000000" stroke="#000000" points="670.4087,-364.1751 680.9719,-363.3566 672.2038,-357.4092 670.4087,-364.1751"/>
</g>
<!-- 140531499372784&#45;&gt;140531499372728 -->
<g id="edge51" class="edge">
<title>140531499372784&#45;&gt;140531499372728</title>
<path fill="none" stroke="#000000" d="M606.1094,-325C613.5984,-325 622.2367,-325 631.4953,-325"/>
<polygon fill="#000000" stroke="#000000" points="631.7601,-328.5001 641.7601,-325 631.7601,-321.5001 631.7601,-328.5001"/>
</g>
<!-- 140531499372784&#45;&gt;140531499725208 -->
<g id="edge52" class="edge">
<title>140531499372784&#45;&gt;140531499725208</title>
<path fill="none" stroke="#000000" d="M591.8067,-300.818C602.7471,-282.4962 620.1682,-258.1387 642,-244 663.8491,-229.85 692.4935,-223.1134 715.1429,-219.9073"/>
<polygon fill="#000000" stroke="#000000" points="715.5913,-223.3786 725.0816,-218.6688 714.7255,-216.4324 715.5913,-223.3786"/>
</g>
<!-- 140531499372784&#45;&gt;140531499726104 -->
<g id="edge53" class="edge">
<title>140531499372784&#45;&gt;140531499726104</title>
<path fill="none" stroke="#000000" d="M603.4694,-313.3949C614.9884,-308.2229 629.0199,-302.3342 642,-298 666.0944,-289.9546 693.8732,-283.1777 715.5509,-278.4256"/>
<polygon fill="#000000" stroke="#000000" points="716.3088,-281.8427 725.3523,-276.3232 714.8406,-274.9984 716.3088,-281.8427"/>
</g>
<!-- 140531499372784&#45;&gt;140531499375640 -->
<g id="edge54" class="edge">
<title>140531499372784&#45;&gt;140531499375640</title>
<path fill="none" stroke="#000000" d="M592.6815,-348.6373C603.984,-366.4193 621.4685,-390.3234 642,-406 663.8682,-422.6973 692.675,-434.4278 715.3931,-441.8628"/>
<polygon fill="#000000" stroke="#000000" points="714.4475,-445.2342 725.0365,-444.8834 716.5399,-438.5542 714.4475,-445.2342"/>
</g>
<!-- 140531499727280&#45;&gt;140531499727448 -->
<g id="edge32" class="edge">
<title>140531499727280&#45;&gt;140531499727448</title>
<path fill="none" stroke="#000000" d="M41.5634,-149.9316C53.7513,-168.5769 71.9943,-195.2607 90,-217 118.6384,-251.5768 155.2591,-288.0672 179.8356,-311.6029"/>
<polygon fill="#000000" stroke="#000000" points="177.7097,-314.4115 187.3664,-318.7704 182.5356,-309.3409 177.7097,-314.4115"/>
</g>
<!-- 140531499727280&#45;&gt;140531499727672 -->
<g id="edge33" class="edge">
<title>140531499727280&#45;&gt;140531499727672</title>
<path fill="none" stroke="#000000" d="M49.2472,-142.573C59.3684,-149.6579 71.5735,-158.2015 82.8201,-166.0741"/>
<polygon fill="#000000" stroke="#000000" points="80.9838,-169.0609 91.1832,-171.9283 84.998,-163.3263 80.9838,-169.0609"/>
</g>
<!-- 140531499727280&#45;&gt;140531499727896 -->
<g id="edge34" class="edge">
<title>140531499727280&#45;&gt;140531499727896</title>
<path fill="none" stroke="#000000" d="M54.003,-127C62.0277,-127 70.9665,-127 79.5309,-127"/>
<polygon fill="#000000" stroke="#000000" points="79.7051,-130.5001 89.705,-127 79.705,-123.5001 79.7051,-130.5001"/>
</g>
<!-- 140531499727280&#45;&gt;140531499728120 -->
<g id="edge35" class="edge">
<title>140531499727280&#45;&gt;140531499728120</title>
<path fill="none" stroke="#000000" d="M49.2472,-111.427C59.3684,-104.3421 71.5735,-95.7985 82.8201,-87.9259"/>
<polygon fill="#000000" stroke="#000000" points="84.998,-90.6737 91.1832,-82.0717 80.9838,-84.9391 84.998,-90.6737"/>
</g>
<!-- 140531499726552&#45;&gt;140531499726720 -->
<g id="edge36" class="edge">
<title>140531499726552&#45;&gt;140531499726720</title>
<path fill="none" stroke="#000000" d="M1263.6464,-444.0749C1272.9112,-438.619 1283.7479,-432.2373 1293.9459,-426.2318"/>
<polygon fill="#000000" stroke="#000000" points="1295.847,-429.1742 1302.6878,-421.0838 1292.2949,-423.1424 1295.847,-429.1742"/>
</g>
<!-- 140531499726552&#45;&gt;140531499726944 -->
<g id="edge37" class="edge">
<title>140531499726552&#45;&gt;140531499726944</title>
<path fill="none" stroke="#000000" d="M1267.003,-461.0003C1275.0277,-461.892 1283.9665,-462.8852 1292.5309,-463.8368"/>
<polygon fill="#000000" stroke="#000000" points="1292.3796,-467.3414 1302.705,-464.9672 1293.1527,-460.3842 1292.3796,-467.3414"/>
</g>
<!-- 140531499728344&#45;&gt;140531499728512 -->
<g id="edge38" class="edge">
<title>140531499728344&#45;&gt;140531499728512</title>
<path fill="none" stroke="#000000" d="M1266.0317,-199.9012C1274.4955,-197.2681 1284.055,-194.294 1293.1543,-191.4631"/>
<polygon fill="#000000" stroke="#000000" points="1294.265,-194.7831 1302.7738,-188.4704 1292.1855,-188.0991 1294.265,-194.7831"/>
</g>
<!-- 140531499728344&#45;&gt;140531499728736 -->
<g id="edge39" class="edge">
<title>140531499728344&#45;&gt;140531499728736</title>
<path fill="none" stroke="#000000" d="M1266.0317,-215.5203C1274.4955,-217.9654 1284.055,-220.727 1293.1543,-223.3557"/>
<polygon fill="#000000" stroke="#000000" points="1292.1952,-226.7217 1302.7738,-226.1347 1294.1381,-219.9967 1292.1952,-226.7217"/>
</g>
<!-- 140531499375976&#45;&gt;140531499373232 -->
<g id="edge41" class="edge">
<title>140531499375976&#45;&gt;140531499373232</title>
<path fill="none" stroke="#000000" d="M950.8771,-98.0667C972.7658,-88.4469 1005.3092,-74.1444 1032.6201,-62.1415"/>
<polygon fill="#000000" stroke="#000000" points="1034.2894,-65.231 1042.036,-58.0033 1031.4729,-58.8226 1034.2894,-65.231"/>
</g>
<!-- 140531499725768&#45;&gt;140531499373512 -->
<g id="edge42" class="edge">
<title>140531499725768&#45;&gt;140531499373512</title>
<path fill="none" stroke="#000000" d="M1447.1528,-180C1463.9827,-180 1486.5594,-180 1508.7449,-180"/>
<polygon fill="#000000" stroke="#000000" points="1508.8886,-183.5001 1518.8886,-180 1508.8886,-176.5001 1508.8886,-183.5001"/>
</g>
<!-- 140531499373736&#45;&gt;140531499373120 -->
<g id="edge43" class="edge">
<title>140531499373736&#45;&gt;140531499373120</title>
<path fill="none" stroke="#000000" d="M953.3473,-458C964.9826,-458 979.2734,-458 994.0674,-458"/>
<polygon fill="#000000" stroke="#000000" points="994.3635,-461.5001 1004.3634,-458 994.3634,-454.5001 994.3635,-461.5001"/>
</g>
<!-- 140531499373568&#45;&gt;140531499373008 -->
<g id="edge44" class="edge">
<title>140531499373568&#45;&gt;140531499373008</title>
<path fill="none" stroke="#000000" d="M1785.003,-345C1793.0277,-345 1801.9665,-345 1810.5309,-345"/>
<polygon fill="#000000" stroke="#000000" points="1810.7051,-348.5001 1820.705,-345 1810.705,-341.5001 1810.7051,-348.5001"/>
</g>
<!-- 140531499375920&#45;&gt;140531499373288 -->
<g id="edge45" class="edge">
<title>140531499375920&#45;&gt;140531499373288</title>
<path fill="none" stroke="#000000" d="M234.046,-199C256.586,-199 289.7753,-199 320.0046,-199"/>
<polygon fill="#000000" stroke="#000000" points="320.1231,-202.5001 330.1231,-199 320.1231,-195.5001 320.1231,-202.5001"/>
</g>
<!-- 140531499375304&#45;&gt;140531499373176 -->
<g id="edge46" class="edge">
<title>140531499375304&#45;&gt;140531499373176</title>
<path fill="none" stroke="#000000" d="M1447.1528,-472C1454.6901,-472 1463.3801,-472 1472.6713,-472"/>
<polygon fill="#000000" stroke="#000000" points="1472.9632,-475.5001 1482.9631,-472 1472.9631,-468.5001 1472.9632,-475.5001"/>
</g>
<!-- 140531499725432&#45;&gt;140531499373344 -->
<g id="edge47" class="edge">
<title>140531499725432&#45;&gt;140531499373344</title>
<path fill="none" stroke="#000000" d="M234.046,-127C247.7109,-127 265.2899,-127 283.7504,-127"/>
<polygon fill="#000000" stroke="#000000" points="283.7716,-130.5001 293.7716,-127 283.7716,-123.5001 283.7716,-130.5001"/>
</g>
<!-- 140531499725544&#45;&gt;140531499373400 -->
<g id="edge48" class="edge">
<title>140531499725544&#45;&gt;140531499373400</title>
<path fill="none" stroke="#000000" d="M234.046,-55C241.5987,-55 250.3471,-55 259.7791,-55"/>
<polygon fill="#000000" stroke="#000000" points="259.8344,-58.5001 269.8343,-55 259.8343,-51.5001 259.8344,-58.5001"/>
</g>
<!-- 140531499725656&#45;&gt;140531499373456 -->
<g id="edge49" class="edge">
<title>140531499725656&#45;&gt;140531499373456</title>
<path fill="none" stroke="#000000" d="M953.3473,-208C966.0794,-208 981.9912,-208 998.2628,-208"/>
<polygon fill="#000000" stroke="#000000" points="998.4154,-211.5001 1008.4154,-208 998.4154,-204.5001 998.4154,-211.5001"/>
</g>
<!-- 140531499376312&#45;&gt;140531499376144 -->
<g id="edge55" class="edge">
<title>140531499376312&#45;&gt;140531499376144</title>
<path fill="none" stroke="#000000" d="M605.7291,-193.4539C635.0633,-187.3673 682.3566,-177.5543 715.3029,-170.7181"/>
<polygon fill="#000000" stroke="#000000" points="716.3743,-174.0705 725.4546,-168.6117 714.9521,-167.2164 716.3743,-174.0705"/>
</g>
<!-- 140531499376592&#45;&gt;140531499376424 -->
<g id="edge56" class="edge">
<title>140531499376592&#45;&gt;140531499376424</title>
<path fill="none" stroke="#000000" d="M606.1094,-124.1875C635.4351,-121.1451 682.3848,-116.2742 715.1838,-112.8714"/>
<polygon fill="#000000" stroke="#000000" points="715.7098,-116.3357 725.2953,-111.8224 714.9874,-109.3731 715.7098,-116.3357"/>
</g>
<!-- 140531499725096&#45;&gt;140531499724928 -->
<g id="edge57" class="edge">
<title>140531499725096&#45;&gt;140531499724928</title>
<path fill="none" stroke="#000000" d="M606.1094,-55C635.4351,-55 682.3848,-55 715.1838,-55"/>
<polygon fill="#000000" stroke="#000000" points="715.2953,-58.5001 725.2953,-55 715.2952,-51.5001 715.2953,-58.5001"/>
</g>
<!-- 140531499375528&#45;&gt;140531499375360 -->
<g id="edge58" class="edge">
<title>140531499375528&#45;&gt;140531499375360</title>
<path fill="none" stroke="#000000" d="M1784.0317,-479.8095C1792.4955,-482.3486 1802.055,-485.2165 1811.1543,-487.9463"/>
<polygon fill="#000000" stroke="#000000" points="1810.1898,-491.311 1820.7738,-490.8321 1812.2013,-484.6062 1810.1898,-491.311"/>
</g>
<!-- 140531499373960&#45;&gt;140531499373792 -->
<g id="edge59" class="edge">
<title>140531499373960&#45;&gt;140531499373792</title>
<path fill="none" stroke="#000000" d="M953.0432,-377.3636C1009.2683,-373.9615 1138.857,-366.1201 1202.8558,-362.2476"/>
<polygon fill="#000000" stroke="#000000" points="1203.1402,-365.7369 1212.9105,-361.6392 1202.7173,-358.7496 1203.1402,-365.7369"/>
</g>
<!-- 140531499374240&#45;&gt;140531499374072 -->
<g id="edge60" class="edge">
<title>140531499374240&#45;&gt;140531499374072</title>
<path fill="none" stroke="#000000" d="M414.293,-429.6947C467.8291,-469.9385 613.7063,-569 752.5,-569 752.5,-569 752.5,-569 926,-569 1025.8249,-569 1143.4868,-571.0463 1202.4014,-572.2117"/>
<polygon fill="#000000" stroke="#000000" points="1202.6327,-575.717 1212.7009,-572.4184 1202.7732,-568.7184 1202.6327,-575.717"/>
</g>
<!-- 140531499374520&#45;&gt;140531499374352 -->
<g id="edge61" class="edge">
<title>140531499374520&#45;&gt;140531499374352</title>
<path fill="none" stroke="#000000" d="M953.3473,-307C978.8993,-307 1017.2585,-307 1045.6293,-307"/>
<polygon fill="#000000" stroke="#000000" points="1045.9661,-310.5001 1055.9661,-307 1045.966,-303.5001 1045.9661,-310.5001"/>
</g>
<!-- 140531499374800&#45;&gt;140531499374632 -->
<g id="edge62" class="edge">
<title>140531499374800&#45;&gt;140531499374632</title>
<path fill="none" stroke="#000000" d="M1447.1528,-399.1967C1475.487,-398.3584 1520.1095,-397.0382 1551.7314,-396.1026"/>
<polygon fill="#000000" stroke="#000000" points="1552.0225,-399.5956 1561.9146,-395.8013 1551.8154,-392.5987 1552.0225,-399.5956"/>
</g>
<!-- 140531499375080&#45;&gt;140531499374912 -->
<g id="edge63" class="edge">
<title>140531499375080&#45;&gt;140531499374912</title>
<path fill="none" stroke="#000000" d="M1447.1528,-252.8033C1475.487,-253.6416 1520.1095,-254.9618 1551.7314,-255.8974"/>
<polygon fill="#000000" stroke="#000000" points="1551.8154,-259.4013 1561.9146,-256.1987 1552.0225,-252.4044 1551.8154,-259.4013"/>
</g>
<!-- 140531499725992&#45;&gt;140531499725824 -->
<g id="edge64" class="edge">
<title>140531499725992&#45;&gt;140531499725824</title>
<path fill="none" stroke="#000000" d="M1784.0317,-171.9012C1792.4955,-169.2681 1802.055,-166.294 1811.1543,-163.4631"/>
<polygon fill="#000000" stroke="#000000" points="1812.265,-166.7831 1820.7738,-160.4704 1810.1855,-160.0991 1812.265,-166.7831"/>
</g>
</g>
</svg>
