<?xml version="1.0" encoding="UTF-8" standalone="no"?>
<!DOCTYPE svg PUBLIC "-//W3C//DTD SVG 1.1//EN"
 "http://www.w3.org/Graphics/SVG/1.1/DTD/svg11.dtd">
<!-- Generated by graphviz version 2.40.1 (20161225.0304)
 -->
<!-- Title: alpha_classic_net_1585315546.2804046 Pages: 1 -->
<svg width="640pt" height="548pt"
 viewBox="0.00 0.00 640.00 548.00" xmlns="http://www.w3.org/2000/svg" xmlns:xlink="http://www.w3.org/1999/xlink">
<g id="graph0" class="graph" transform="scale(1 1) rotate(0) translate(4 544)">
<title>alpha_classic_net_1585315546.2804046</title>
<!-- 140178132633248 -->
<g id="node1" class="node">
<title>140178132633248</title>
<polygon fill="none" stroke="#000000" points="128.5,-36 35.5,-36 35.5,0 128.5,0 128.5,-36"/>
<text text-anchor="middle" x="82" y="-14.3" font-family="Times,serif" font-size="14.00" fill="#000000">FinancialUtils</text>
</g>
<!-- 140178132634200 -->
<g id="node2" class="node">
<title>140178132634200</title>
<polygon fill="none" stroke="#000000" points="109,-90 55,-90 55,-54 109,-54 109,-90"/>
<text text-anchor="middle" x="82" y="-68.3" font-family="Times,serif" font-size="14.00" fill="#000000">Log</text>
</g>
<!-- 140178132634760 -->
<g id="node3" class="node">
<title>140178132634760</title>
<polygon fill="none" stroke="#000000" points="164,-144 0,-144 0,-108 164,-108 164,-144"/>
<text text-anchor="middle" x="82" y="-122.3" font-family="Times,serif" font-size="14.00" fill="#000000">MarketSummaryDataBean</text>
</g>
<!-- 140178132634480 -->
<g id="node4" class="node">
<title>140178132634480</title>
<polygon fill="none" stroke="#000000" points="362,-234 200,-234 200,-198 362,-198 362,-234"/>
<text text-anchor="middle" x="281" y="-212.3" font-family="Times,serif" font-size="14.00" fill="#000000">MarketSummarySingleton</text>
</g>
<!-- 140178132633640 -->
<g id="node5" class="node">
<title>140178132633640</title>
<polygon fill="none" stroke="#000000" points="128,-270 36,-270 36,-234 128,-234 128,-270"/>
<text text-anchor="middle" x="82" y="-248.3" font-family="Times,serif" font-size="14.00" fill="#000000">PingCDIBean</text>
</g>
<!-- 140178132635488 -->
<g id="node6" class="node">
<title>140178132635488</title>
<polygon fill="none" stroke="#000000" points="129.5,-324 34.5,-324 34.5,-288 129.5,-288 129.5,-324"/>
<text text-anchor="middle" x="82" y="-302.3" font-family="Times,serif" font-size="14.00" fill="#000000">PingEJBLocal</text>
</g>
<!-- 140178132634648 -->
<g id="node7" class="node">
<title>140178132634648</title>
<polygon fill="none" stroke="#000000" points="156.5,-378 7.5,-378 7.5,-342 156.5,-342 156.5,-378"/>
<text text-anchor="middle" x="82" y="-356.3" font-family="Times,serif" font-size="14.00" fill="#000000">PingEJBLocalDecorator</text>
</g>
<!-- 140178132634312 -->
<g id="node8" class="node">
<title>140178132634312</title>
<polygon fill="none" stroke="#000000" points="132.5,-432 31.5,-432 31.5,-396 132.5,-396 132.5,-432"/>
<text text-anchor="middle" x="82" y="-410.3" font-family="Times,serif" font-size="14.00" fill="#000000">PingInterceptor</text>
</g>
<!-- 140178132632352 -->
<g id="node9" class="node">
<title>140178132632352</title>
<polygon fill="none" stroke="#000000" points="332.5,-180 229.5,-180 229.5,-144 332.5,-144 332.5,-180"/>
<text text-anchor="middle" x="281" y="-158.3" font-family="Times,serif" font-size="14.00" fill="#000000">PingServletCDI</text>
</g>
<!-- 140178132634536 -->
<g id="node14" class="node">
<title>140178132634536</title>
<ellipse fill="none" stroke="#000000" cx="425" cy="-162" rx="27" ry="27"/>
<text text-anchor="middle" x="425" y="-158.3" font-family="Times,serif" font-size="14.00" fill="#000000">({&#39;PingServletCDI&#39;}, {&#39;Root&#39;})</text>
</g>
<!-- 140178132632352&#45;&gt;140178132634536 -->
<g id="edge2" class="edge">
<title>140178132632352&#45;&gt;140178132634536</title>
<path fill="none" stroke="#000000" d="M332.5806,-162C350.8923,-162 371.125,-162 387.9796,-162"/>
<polygon fill="#000000" stroke="#000000" points="387.99,-165.5001 397.99,-162 387.9899,-158.5001 387.99,-165.5001"/>
</g>
<!-- 140178132635320 -->
<g id="node10" class="node">
<title>140178132635320</title>
<polygon fill="none" stroke="#000000" points="133.5,-486 30.5,-486 30.5,-450 133.5,-450 133.5,-486"/>
<text text-anchor="middle" x="82" y="-464.3" font-family="Times,serif" font-size="14.00" fill="#000000">QuoteDataBean</text>
</g>
<!-- 140178132633080 -->
<g id="node11" class="node">
<title>140178132633080</title>
<polygon fill="none" stroke="#000000" points="542,-180 488,-180 488,-144 542,-144 542,-180"/>
<text text-anchor="middle" x="515" y="-158.3" font-family="Times,serif" font-size="14.00" fill="#000000">Root</text>
</g>
<!-- 140178132633024 -->
<g id="node15" class="node">
<title>140178132633024</title>
<ellipse fill="#ffa500" stroke="#000000" cx="605" cy="-162" rx="27" ry="27"/>
</g>
<!-- 140178132633080&#45;&gt;140178132633024 -->
<g id="edge3" class="edge">
<title>140178132633080&#45;&gt;140178132633024</title>
<path fill="none" stroke="#000000" d="M542.003,-162C550.0277,-162 558.9665,-162 567.5309,-162"/>
<polygon fill="#000000" stroke="#000000" points="567.7051,-165.5001 577.705,-162 567.705,-158.5001 567.7051,-165.5001"/>
</g>
<!-- 140178132632688 -->
<g id="node12" class="node">
<title>140178132632688</title>
<polygon fill="none" stroke="#000000" points="125,-540 39,-540 39,-504 125,-504 125,-540"/>
<text text-anchor="middle" x="82" y="-518.3" font-family="Times,serif" font-size="14.00" fill="#000000">TradeConfig</text>
</g>
<!-- 140178132634368 -->
<g id="node13" class="node">
<title>140178132634368</title>
<ellipse fill="#00ff00" stroke="#000000" cx="82" cy="-189" rx="27" ry="27"/>
<text text-anchor="middle" x="82" y="-185.3" font-family="Times,serif" font-size="14.00" fill="#000000">1</text>
</g>
<!-- 140178132634368&#45;&gt;140178132634480 -->
<g id="edge4" class="edge">
<title>140178132634368&#45;&gt;140178132634480</title>
<path fill="none" stroke="#000000" d="M108.838,-192.6413C129.8075,-195.4864 160.2443,-199.6161 189.7136,-203.6144"/>
<polygon fill="#000000" stroke="#000000" points="189.2756,-207.087 199.6554,-204.9633 190.2168,-200.1505 189.2756,-207.087"/>
</g>
<!-- 140178132634368&#45;&gt;140178132632352 -->
<g id="edge5" class="edge">
<title>140178132634368&#45;&gt;140178132632352</title>
<path fill="none" stroke="#000000" d="M108.838,-185.3587C136.9604,-181.5431 182.1103,-175.4172 219.1183,-170.396"/>
<polygon fill="#000000" stroke="#000000" points="219.881,-173.8247 229.3197,-169.0119 218.9399,-166.8882 219.881,-173.8247"/>
</g>
<!-- 140178132634536&#45;&gt;140178132633080 -->
<g id="edge1" class="edge">
<title>140178132634536&#45;&gt;140178132633080</title>
<path fill="none" stroke="#000000" d="M452.003,-162C460.0277,-162 468.9665,-162 477.5309,-162"/>
<polygon fill="#000000" stroke="#000000" points="477.7051,-165.5001 487.705,-162 477.705,-158.5001 477.7051,-165.5001"/>
</g>
</g>
</svg>
