<?xml version="1.0" encoding="UTF-8" standalone="no"?>
<!DOCTYPE svg PUBLIC "-//W3C//DTD SVG 1.1//EN"
 "http://www.w3.org/Graphics/SVG/1.1/DTD/svg11.dtd">
<!-- Generated by graphviz version 2.40.1 (20161225.0304)
 -->
<!-- Title: alpha_plus_net_1585321101.9089704 Pages: 1 -->
<svg width="581pt" height="836pt"
 viewBox="0.00 0.00 581.00 836.00" xmlns="http://www.w3.org/2000/svg" xmlns:xlink="http://www.w3.org/1999/xlink">
<g id="graph0" class="graph" transform="scale(1 1) rotate(0) translate(4 832)">
<title>alpha_plus_net_1585321101.9089704</title>
<!-- 140531499204736 -->
<g id="node1" class="node">
<title>140531499204736</title>
<polygon fill="none" stroke="#000000" points="298,-99 205,-99 205,-63 298,-63 298,-99"/>
<text text-anchor="middle" x="251.5" y="-77.3" font-family="Times,serif" font-size="14.00" fill="#000000">FinancialUtils</text>
</g>
<!-- 140531500685072 -->
<g id="node14" class="node">
<title>140531500685072</title>
<ellipse fill="none" stroke="#000000" cx="366" cy="-54" rx="27" ry="27"/>
<text text-anchor="middle" x="366" y="-50.3" font-family="Times,serif" font-size="14.00" fill="#000000">({&#39;PingServletCDI&#39;, &#39;FinancialUtils&#39;}, {&#39;Root&#39;})</text>
</g>
<!-- 140531499204736&#45;&gt;140531500685072 -->
<g id="edge9" class="edge">
<title>140531499204736&#45;&gt;140531500685072</title>
<path fill="none" stroke="#000000" d="M298.0715,-70.0181C308.5485,-67.5475 319.5202,-64.9603 329.5151,-62.6034"/>
<polygon fill="#000000" stroke="#000000" points="330.5859,-65.947 339.5156,-60.2452 328.9793,-59.1339 330.5859,-65.947"/>
</g>
<!-- 140531496215272 -->
<g id="node2" class="node">
<title>140531496215272</title>
<polygon fill="none" stroke="#000000" points="109,-234 55,-234 55,-198 109,-198 109,-234"/>
<text text-anchor="middle" x="82" y="-212.3" font-family="Times,serif" font-size="14.00" fill="#000000">Log</text>
</g>
<!-- 140531477784728 -->
<g id="node16" class="node">
<title>140531477784728</title>
<ellipse fill="none" stroke="#000000" cx="251.5" cy="-288" rx="27" ry="27"/>
<text text-anchor="middle" x="251.5" y="-284.3" font-family="Times,serif" font-size="14.00" fill="#000000">140531477784728</text>
</g>
<!-- 140531496215272&#45;&gt;140531477784728 -->
<g id="edge10" class="edge">
<title>140531496215272&#45;&gt;140531477784728</title>
<path fill="none" stroke="#000000" d="M109.2331,-222.4532C139.2552,-233.1351 187.51,-253.5288 219.3617,-268.9218"/>
<polygon fill="#000000" stroke="#000000" points="218.1654,-272.2344 228.6817,-273.5221 221.2637,-265.9574 218.1654,-272.2344"/>
</g>
<!-- 140531477784056 -->
<g id="node18" class="node">
<title>140531477784056</title>
<ellipse fill="none" stroke="#000000" cx="251.5" cy="-216" rx="27" ry="27"/>
<text text-anchor="middle" x="251.5" y="-212.3" font-family="Times,serif" font-size="14.00" fill="#000000">140531477784056</text>
</g>
<!-- 140531496215272&#45;&gt;140531477784056 -->
<g id="edge11" class="edge">
<title>140531496215272&#45;&gt;140531477784056</title>
<path fill="none" stroke="#000000" d="M109.2331,-210.8852C137.8193,-208.9134 182.9358,-208.7249 214.6827,-210.3197"/>
<polygon fill="#000000" stroke="#000000" points="214.7026,-213.827 224.8933,-210.9289 215.1196,-206.8394 214.7026,-213.827"/>
</g>
<!-- 140531496215776 -->
<g id="node20" class="node">
<title>140531496215776</title>
<ellipse fill="none" stroke="#000000" cx="251.5" cy="-144" rx="27" ry="27"/>
<text text-anchor="middle" x="251.5" y="-140.3" font-family="Times,serif" font-size="14.00" fill="#000000">140531496215776</text>
</g>
<!-- 140531496215272&#45;&gt;140531496215776 -->
<g id="edge12" class="edge">
<title>140531496215272&#45;&gt;140531496215776</title>
<path fill="none" stroke="#000000" d="M109.2331,-199.3171C138.0281,-185.0994 183.5956,-165.5666 215.376,-153.6996"/>
<polygon fill="#000000" stroke="#000000" points="216.9725,-156.8431 225.1711,-150.1325 214.5771,-150.2657 216.9725,-156.8431"/>
</g>
<!-- 140531496217344 -->
<g id="node3" class="node">
<title>140531496217344</title>
<polygon fill="none" stroke="#000000" points="164,-450 0,-450 0,-414 164,-414 164,-450"/>
<text text-anchor="middle" x="82" y="-428.3" font-family="Times,serif" font-size="14.00" fill="#000000">MarketSummaryDataBean</text>
</g>
<!-- 140531477785176 -->
<g id="node17" class="node">
<title>140531477785176</title>
<ellipse fill="none" stroke="#000000" cx="251.5" cy="-504" rx="27" ry="27"/>
<text text-anchor="middle" x="251.5" y="-500.3" font-family="Times,serif" font-size="14.00" fill="#000000">140531477785176</text>
</g>
<!-- 140531496217344&#45;&gt;140531477785176 -->
<g id="edge13" class="edge">
<title>140531496217344&#45;&gt;140531477785176</title>
<path fill="none" stroke="#000000" d="M164.473,-450.1984C184.4955,-458.6148 206.1437,-469.7593 222.8402,-479.9369"/>
<polygon fill="#000000" stroke="#000000" points="221.2451,-483.0697 231.5649,-485.4681 224.9932,-477.1577 221.2451,-483.0697"/>
</g>
<!-- 140531477785568 -->
<g id="node19" class="node">
<title>140531477785568</title>
<ellipse fill="none" stroke="#000000" cx="251.5" cy="-432" rx="27" ry="27"/>
<text text-anchor="middle" x="251.5" y="-428.3" font-family="Times,serif" font-size="14.00" fill="#000000">140531477785568</text>
</g>
<!-- 140531496217344&#45;&gt;140531477785568 -->
<g id="edge14" class="edge">
<title>140531496217344&#45;&gt;140531477785568</title>
<path fill="none" stroke="#000000" d="M164.2674,-425.2526C181.9146,-425.216 199.7054,-425.5699 214.5758,-426.3143"/>
<polygon fill="#000000" stroke="#000000" points="214.6535,-429.825 224.8437,-426.9254 215.0694,-422.8374 214.6535,-429.825"/>
</g>
<!-- 140531477786296 -->
<g id="node21" class="node">
<title>140531477786296</title>
<ellipse fill="none" stroke="#000000" cx="251.5" cy="-360" rx="27" ry="27"/>
<text text-anchor="middle" x="251.5" y="-356.3" font-family="Times,serif" font-size="14.00" fill="#000000">140531477786296</text>
</g>
<!-- 140531496217344&#45;&gt;140531477786296 -->
<g id="edge15" class="edge">
<title>140531496217344&#45;&gt;140531477786296</title>
<path fill="none" stroke="#000000" d="M112.3032,-413.812C141.2596,-399.7121 184.9214,-381.0597 215.6065,-369.6135"/>
<polygon fill="#000000" stroke="#000000" points="216.8788,-372.8752 225.0782,-366.1654 214.4841,-366.2975 216.8788,-372.8752"/>
</g>
<!-- 140531496217680 -->
<g id="node4" class="node">
<title>140531496217680</title>
<polygon fill="none" stroke="#000000" points="163,-504 1,-504 1,-468 163,-468 163,-504"/>
<text text-anchor="middle" x="82" y="-482.3" font-family="Times,serif" font-size="14.00" fill="#000000">MarketSummarySingleton</text>
</g>
<!-- 140531499205016 -->
<g id="node5" class="node">
<title>140531499205016</title>
<polygon fill="none" stroke="#000000" points="128,-558 36,-558 36,-522 128,-522 128,-558"/>
<text text-anchor="middle" x="82" y="-536.3" font-family="Times,serif" font-size="14.00" fill="#000000">PingCDIBean</text>
</g>
<!-- 140531498257432 -->
<g id="node6" class="node">
<title>140531498257432</title>
<polygon fill="none" stroke="#000000" points="129.5,-612 34.5,-612 34.5,-576 129.5,-576 129.5,-612"/>
<text text-anchor="middle" x="82" y="-590.3" font-family="Times,serif" font-size="14.00" fill="#000000">PingEJBLocal</text>
</g>
<!-- 140531499205240 -->
<g id="node7" class="node">
<title>140531499205240</title>
<polygon fill="none" stroke="#000000" points="156.5,-666 7.5,-666 7.5,-630 156.5,-630 156.5,-666"/>
<text text-anchor="middle" x="82" y="-644.3" font-family="Times,serif" font-size="14.00" fill="#000000">PingEJBLocalDecorator</text>
</g>
<!-- 140531498257544 -->
<g id="node8" class="node">
<title>140531498257544</title>
<polygon fill="none" stroke="#000000" points="132.5,-720 31.5,-720 31.5,-684 132.5,-684 132.5,-720"/>
<text text-anchor="middle" x="82" y="-698.3" font-family="Times,serif" font-size="14.00" fill="#000000">PingInterceptor</text>
</g>
<!-- 140531499204680 -->
<g id="node9" class="node">
<title>140531499204680</title>
<polygon fill="none" stroke="#000000" points="303,-45 200,-45 200,-9 303,-9 303,-45"/>
<text text-anchor="middle" x="251.5" y="-23.3" font-family="Times,serif" font-size="14.00" fill="#000000">PingServletCDI</text>
</g>
<!-- 140531499204680&#45;&gt;140531500685072 -->
<g id="edge16" class="edge">
<title>140531499204680&#45;&gt;140531500685072</title>
<path fill="none" stroke="#000000" d="M303.0557,-39.1573C312.0021,-41.2669 321.1358,-43.4207 329.5712,-45.4098"/>
<polygon fill="#000000" stroke="#000000" points="328.9185,-48.8518 339.4549,-47.7404 330.5251,-42.0387 328.9185,-48.8518"/>
</g>
<!-- 140531498257488 -->
<g id="node10" class="node">
<title>140531498257488</title>
<polygon fill="none" stroke="#000000" points="133.5,-774 30.5,-774 30.5,-738 133.5,-738 133.5,-774"/>
<text text-anchor="middle" x="82" y="-752.3" font-family="Times,serif" font-size="14.00" fill="#000000">QuoteDataBean</text>
</g>
<!-- 140531499205520 -->
<g id="node11" class="node">
<title>140531499205520</title>
<polygon fill="none" stroke="#000000" points="483,-72 429,-72 429,-36 483,-36 483,-72"/>
<text text-anchor="middle" x="456" y="-50.3" font-family="Times,serif" font-size="14.00" fill="#000000">Root</text>
</g>
<!-- 140531499205296 -->
<g id="node15" class="node">
<title>140531499205296</title>
<ellipse fill="#ffa500" stroke="#000000" cx="546" cy="-54" rx="27" ry="27"/>
</g>
<!-- 140531499205520&#45;&gt;140531499205296 -->
<g id="edge17" class="edge">
<title>140531499205520&#45;&gt;140531499205296</title>
<path fill="none" stroke="#000000" d="M483.003,-54C491.0277,-54 499.9665,-54 508.5309,-54"/>
<polygon fill="#000000" stroke="#000000" points="508.7051,-57.5001 518.705,-54 508.705,-50.5001 508.7051,-57.5001"/>
</g>
<!-- 140531499204960 -->
<g id="node12" class="node">
<title>140531499204960</title>
<polygon fill="none" stroke="#000000" points="125,-828 39,-828 39,-792 125,-792 125,-828"/>
<text text-anchor="middle" x="82" y="-806.3" font-family="Times,serif" font-size="14.00" fill="#000000">TradeConfig</text>
</g>
<!-- 140531499205632 -->
<g id="node13" class="node">
<title>140531499205632</title>
<ellipse fill="#00ff00" stroke="#000000" cx="82" cy="-27" rx="27" ry="27"/>
<text text-anchor="middle" x="82" y="-23.3" font-family="Times,serif" font-size="14.00" fill="#000000">1</text>
</g>
<!-- 140531499205632&#45;&gt;140531499204680 -->
<g id="edge8" class="edge">
<title>140531499205632&#45;&gt;140531499204680</title>
<path fill="none" stroke="#000000" d="M109.2331,-27C130.9031,-27 162.0722,-27 189.7155,-27"/>
<polygon fill="#000000" stroke="#000000" points="189.7162,-30.5001 199.7162,-27 189.7162,-23.5001 189.7162,-30.5001"/>
</g>
<!-- 140531500685072&#45;&gt;140531499205520 -->
<g id="edge3" class="edge">
<title>140531500685072&#45;&gt;140531499205520</title>
<path fill="none" stroke="#000000" d="M393.003,-54C401.0277,-54 409.9665,-54 418.5309,-54"/>
<polygon fill="#000000" stroke="#000000" points="418.7051,-57.5001 428.705,-54 418.705,-50.5001 418.7051,-57.5001"/>
</g>
<!-- 140531477784728&#45;&gt;140531496215272 -->
<g id="edge1" class="edge">
<title>140531477784728&#45;&gt;140531496215272</title>
<path fill="none" stroke="#000000" d="M225.1711,-281.8675C196.4867,-271.7248 150.4105,-252.3536 118.3029,-237.075"/>
<polygon fill="#000000" stroke="#000000" points="119.7588,-233.8913 109.2331,-232.6829 116.7079,-240.1914 119.7588,-233.8913"/>
</g>
<!-- 140531477785176&#45;&gt;140531496217344 -->
<g id="edge2" class="edge">
<title>140531477785176&#45;&gt;140531496217344</title>
<path fill="none" stroke="#000000" d="M225.2095,-496.8138C208.098,-488.756 185.1138,-476.841 164,-468 151.7822,-462.884 138.2278,-458.0826 125.7155,-453.618"/>
<polygon fill="#000000" stroke="#000000" points="126.5443,-450.1968 115.9499,-450.1101 124.1779,-456.7847 126.5443,-450.1968"/>
</g>
<!-- 140531477784056&#45;&gt;140531496215272 -->
<g id="edge4" class="edge">
<title>140531477784056&#45;&gt;140531496215272</title>
<path fill="none" stroke="#000000" d="M224.8933,-221.0711C196.5512,-223.0691 151.4595,-223.2838 119.5181,-221.7152"/>
<polygon fill="#000000" stroke="#000000" points="119.4201,-218.2036 109.2331,-221.1148 119.0121,-225.1917 119.4201,-218.2036"/>
</g>
<!-- 140531477785568&#45;&gt;140531496217344 -->
<g id="edge5" class="edge">
<title>140531477785568&#45;&gt;140531496217344</title>
<path fill="none" stroke="#000000" d="M224.8437,-437.0746C210.8629,-438.0585 192.8161,-438.609 174.285,-438.7262"/>
<polygon fill="#000000" stroke="#000000" points="174.2599,-435.2262 164.2674,-438.7474 174.2748,-442.2262 174.2599,-435.2262"/>
</g>
<!-- 140531496215776&#45;&gt;140531496215272 -->
<g id="edge6" class="edge">
<title>140531496215776&#45;&gt;140531496215272</title>
<path fill="none" stroke="#000000" d="M228.6817,-158.4779C200.4734,-172.74 152.1063,-193.5812 118.6659,-206.0978"/>
<polygon fill="#000000" stroke="#000000" points="117.4231,-202.8256 109.2331,-209.5468 119.8269,-209.3999 117.4231,-202.8256"/>
</g>
<!-- 140531477786296&#45;&gt;140531496217344 -->
<g id="edge7" class="edge">
<title>140531477786296&#45;&gt;140531496217344</title>
<path fill="none" stroke="#000000" d="M228.6969,-374.4703C208.3377,-384.7647 177.469,-398.4895 149.2917,-410.037"/>
<polygon fill="#000000" stroke="#000000" points="147.8105,-406.8607 139.8582,-413.8615 150.4406,-413.3478 147.8105,-406.8607"/>
</g>
</g>
</svg>
