<?xml version="1.0" encoding="UTF-8" standalone="no"?>
<!DOCTYPE svg PUBLIC "-//W3C//DTD SVG 1.1//EN"
 "http://www.w3.org/Graphics/SVG/1.1/DTD/svg11.dtd">
<!-- Generated by graphviz version 2.40.1 (20161225.0304)
 -->
<!-- Title: %3 Pages: 1 -->
<svg width="2159pt" height="523pt"
 viewBox="0.00 0.00 2159.00 523.00" xmlns="http://www.w3.org/2000/svg" xmlns:xlink="http://www.w3.org/1999/xlink">
<g id="graph0" class="graph" transform="scale(1 1) rotate(0) translate(4 519)">
<title>%3</title>
<!-- 140531495939544 -->
<g id="node1" class="node">
<title>140531495939544</title>
<polygon fill="none" stroke="#000000" points="93,-59 0,-59 0,-23 93,-23 93,-59"/>
<text text-anchor="middle" x="46.5" y="-37.3" font-family="Times,serif" font-size="14.00" fill="#000000">FinancialUtils</text>
</g>
<!-- 140531497916624 -->
<g id="node43" class="node">
<title>140531497916624</title>
<ellipse fill="none" stroke="#000000" cx="156" cy="-74" rx="27" ry="27"/>
<text text-anchor="middle" x="156" y="-70.3" font-family="Times,serif" font-size="14.00" fill="#000000">splace_in_MarketSummaryDataBean_0</text>
</g>
<!-- 140531495939544&#45;&gt;140531497916624 -->
<g id="edge1" class="edge">
<title>140531495939544&#45;&gt;140531497916624</title>
<path fill="none" stroke="#000000" d="M93.2555,-55.0907C102.2799,-57.8104 111.6005,-60.6193 120.2079,-63.2133"/>
<polygon fill="#000000" stroke="#000000" points="119.3396,-66.6071 129.9242,-66.1415 121.3595,-59.9048 119.3396,-66.6071"/>
</g>
<!-- 140531495938648 -->
<g id="node2" class="node">
<title>140531495938648</title>
<polygon fill="none" stroke="#000000" points="73.5,-275 19.5,-275 19.5,-239 73.5,-239 73.5,-275"/>
<text text-anchor="middle" x="46.5" y="-253.3" font-family="Times,serif" font-size="14.00" fill="#000000">Log</text>
</g>
<!-- 140531497915560 -->
<g id="node30" class="node">
<title>140531497915560</title>
<ellipse fill="none" stroke="#000000" cx="156" cy="-313" rx="27" ry="27"/>
<text text-anchor="middle" x="156" y="-309.3" font-family="Times,serif" font-size="14.00" fill="#000000">intplace_Log</text>
</g>
<!-- 140531495938648&#45;&gt;140531497915560 -->
<g id="edge2" class="edge">
<title>140531495938648&#45;&gt;140531497915560</title>
<path fill="none" stroke="#000000" d="M73.5674,-270.8427C88.497,-278.4779 107.1534,-288.0191 122.9399,-296.0926"/>
<polygon fill="#000000" stroke="#000000" points="121.3564,-299.2138 131.8533,-300.651 124.5437,-292.9815 121.3564,-299.2138"/>
</g>
<!-- 140531495939432 -->
<g id="node3" class="node">
<title>140531495939432</title>
<polygon fill="none" stroke="#000000" points="563,-115 399,-115 399,-79 563,-79 563,-115"/>
<text text-anchor="middle" x="481" y="-93.3" font-family="Times,serif" font-size="14.00" fill="#000000">MarketSummaryDataBean</text>
</g>
<!-- 140531497914832 -->
<g id="node31" class="node">
<title>140531497914832</title>
<ellipse fill="none" stroke="#000000" cx="626" cy="-97" rx="27" ry="27"/>
<text text-anchor="middle" x="626" y="-93.3" font-family="Times,serif" font-size="14.00" fill="#000000">intplace_MarketSummaryDataBean</text>
</g>
<!-- 140531495939432&#45;&gt;140531497914832 -->
<g id="edge3" class="edge">
<title>140531495939432&#45;&gt;140531497914832</title>
<path fill="none" stroke="#000000" d="M563.2442,-97C572.0332,-97 580.6275,-97 588.498,-97"/>
<polygon fill="#000000" stroke="#000000" points="588.732,-100.5001 598.7319,-97 588.7319,-93.5001 588.732,-100.5001"/>
</g>
<!-- 140531495939040 -->
<g id="node4" class="node">
<title>140531495939040</title>
<polygon fill="none" stroke="#000000" points="1472,-403 1310,-403 1310,-367 1472,-367 1472,-403"/>
<text text-anchor="middle" x="1391" y="-381.3" font-family="Times,serif" font-size="14.00" fill="#000000">MarketSummarySingleton</text>
</g>
<!-- 140531497916456 -->
<g id="node32" class="node">
<title>140531497916456</title>
<ellipse fill="none" stroke="#000000" cx="1535" cy="-362" rx="27" ry="27"/>
<text text-anchor="middle" x="1535" y="-358.3" font-family="Times,serif" font-size="14.00" fill="#000000">intplace_MarketSummarySingleton</text>
</g>
<!-- 140531495939040&#45;&gt;140531497916456 -->
<g id="edge4" class="edge">
<title>140531495939040&#45;&gt;140531497916456</title>
<path fill="none" stroke="#000000" d="M1472.2584,-372.0212C1481.3074,-370.5759 1490.158,-369.1623 1498.2256,-367.8737"/>
<polygon fill="#000000" stroke="#000000" points="1499.0083,-371.2931 1508.3311,-366.2596 1497.9042,-364.3807 1499.0083,-371.2931"/>
</g>
<!-- 140531495939768 -->
<g id="node5" class="node">
<title>140531495939768</title>
<polygon fill="none" stroke="#000000" points="1274,-356 1171,-356 1171,-320 1274,-320 1274,-356"/>
<text text-anchor="middle" x="1222.5" y="-334.3" font-family="Times,serif" font-size="14.00" fill="#000000">PingServletCDI</text>
</g>
<!-- 140531495909248 -->
<g id="node48" class="node">
<title>140531495909248</title>
<ellipse fill="none" stroke="#000000" cx="1391" cy="-301" rx="27" ry="27"/>
<text text-anchor="middle" x="1391" y="-297.3" font-family="Times,serif" font-size="14.00" fill="#000000">splace_in_Root_1</text>
</g>
<!-- 140531495939768&#45;&gt;140531495909248 -->
<g id="edge5" class="edge">
<title>140531495939768&#45;&gt;140531495909248</title>
<path fill="none" stroke="#000000" d="M1274.4305,-326.5969C1300.3742,-320.9 1331.1373,-314.1449 1354.5449,-309.005"/>
<polygon fill="#000000" stroke="#000000" points="1355.3974,-312.4013 1364.414,-306.8379 1353.896,-305.5642 1355.3974,-312.4013"/>
</g>
<!-- 140531495940048 -->
<g id="node6" class="node">
<title>140531495940048</title>
<polygon fill="none" stroke="#000000" points="1881,-358 1778,-358 1778,-322 1881,-322 1881,-358"/>
<text text-anchor="middle" x="1829.5" y="-336.3" font-family="Times,serif" font-size="14.00" fill="#000000">QuoteDataBean</text>
</g>
<!-- 140531497999160 -->
<g id="node45" class="node">
<title>140531497999160</title>
<ellipse fill="none" stroke="#000000" cx="1944" cy="-372" rx="27" ry="27"/>
<text text-anchor="middle" x="1944" y="-368.3" font-family="Times,serif" font-size="14.00" fill="#000000">splace_in_MarketSummarySingleton_0</text>
</g>
<!-- 140531495940048&#45;&gt;140531497999160 -->
<g id="edge6" class="edge">
<title>140531495940048&#45;&gt;140531497999160</title>
<path fill="none" stroke="#000000" d="M1881.0557,-354.4086C1890.1857,-356.9602 1899.5108,-359.5663 1908.0898,-361.964"/>
<polygon fill="#000000" stroke="#000000" points="1907.1886,-365.3462 1917.7617,-364.667 1909.0728,-358.6045 1907.1886,-365.3462"/>
</g>
<!-- 140531495939376 -->
<g id="node7" class="node">
<title>140531495939376</title>
<polygon fill="none" stroke="#000000" points="2061,-239 2007,-239 2007,-203 2061,-203 2061,-239"/>
<text text-anchor="middle" x="2034" y="-217.3" font-family="Times,serif" font-size="14.00" fill="#000000">Root</text>
</g>
<!-- 140531495939936 -->
<g id="node51" class="node">
<title>140531495939936</title>
<ellipse fill="#ffa500" stroke="#000000" cx="2124" cy="-221" rx="27" ry="27"/>
</g>
<!-- 140531495939376&#45;&gt;140531495939936 -->
<g id="edge7" class="edge">
<title>140531495939376&#45;&gt;140531495939936</title>
<path fill="none" stroke="#000000" d="M2061.003,-221C2069.0277,-221 2077.9665,-221 2086.5309,-221"/>
<polygon fill="#000000" stroke="#000000" points="2086.7051,-224.5001 2096.705,-221 2086.705,-217.5001 2086.7051,-224.5001"/>
</g>
<!-- 140531495939264 -->
<g id="node8" class="node">
<title>140531495939264</title>
<polygon fill="none" stroke="#000000" points="775,-323 689,-323 689,-287 775,-287 775,-323"/>
<text text-anchor="middle" x="732" y="-301.3" font-family="Times,serif" font-size="14.00" fill="#000000">TradeConfig</text>
</g>
<!-- 140531497915896 -->
<g id="node33" class="node">
<title>140531497915896</title>
<ellipse fill="none" stroke="#000000" cx="838" cy="-301" rx="27" ry="27"/>
<text text-anchor="middle" x="838" y="-297.3" font-family="Times,serif" font-size="14.00" fill="#000000">intplace_TradeConfig</text>
</g>
<!-- 140531495939264&#45;&gt;140531497915896 -->
<g id="edge8" class="edge">
<title>140531495939264&#45;&gt;140531497915896</title>
<path fill="none" stroke="#000000" d="M775.1143,-303.373C783.5776,-303.0537 792.3896,-302.7211 800.6453,-302.4096"/>
<polygon fill="#000000" stroke="#000000" points="800.8759,-305.9035 810.7368,-302.0288 800.6119,-298.9085 800.8759,-305.9035"/>
</g>
<!-- 140531497999384 -->
<g id="node9" class="node">
<title>140531497999384</title>
<polygon fill="none" stroke="#000000" points="2061,-453 2007,-453 2007,-417 2061,-417 2061,-453"/>
<text text-anchor="middle" x="2034" y="-431.3" font-family="Times,serif" font-size="14.00" fill="#000000">hid_1</text>
</g>
<!-- 140531495939600 -->
<g id="node37" class="node">
<title>140531495939600</title>
<ellipse fill="none" stroke="#000000" cx="1222.5" cy="-420" rx="27" ry="27"/>
<text text-anchor="middle" x="1222.5" y="-416.3" font-family="Times,serif" font-size="14.00" fill="#000000">pre_MarketSummarySingleton</text>
</g>
<!-- 140531497999384&#45;&gt;140531495939600 -->
<g id="edge9" class="edge">
<title>140531497999384&#45;&gt;140531495939600</title>
<path fill="none" stroke="#000000" d="M2006.9276,-438.4718C1967.8283,-443.1775 1893.2454,-451 1829.5,-451 1535,-451 1535,-451 1535,-451 1434.9158,-451 1317.678,-435.0594 1259.3525,-426.0398"/>
<polygon fill="#000000" stroke="#000000" points="1259.5865,-422.5337 1249.1648,-424.4415 1258.5015,-429.4492 1259.5865,-422.5337"/>
</g>
<!-- 140531497916680 -->
<g id="node10" class="node">
<title>140531497916680</title>
<polygon fill="none" stroke="#000000" points="273,-97 219,-97 219,-61 273,-61 273,-97"/>
<text text-anchor="middle" x="246" y="-75.3" font-family="Times,serif" font-size="14.00" fill="#000000">hid_10</text>
</g>
<!-- 140531497025776 -->
<g id="node36" class="node">
<title>140531497025776</title>
<ellipse fill="none" stroke="#000000" cx="336" cy="-97" rx="27" ry="27"/>
<text text-anchor="middle" x="336" y="-93.3" font-family="Times,serif" font-size="14.00" fill="#000000">pre_MarketSummaryDataBean</text>
</g>
<!-- 140531497916680&#45;&gt;140531497025776 -->
<g id="edge10" class="edge">
<title>140531497916680&#45;&gt;140531497025776</title>
<path fill="none" stroke="#000000" d="M273.003,-84.4006C281.2647,-86.0529 290.4954,-87.8991 299.2888,-89.6578"/>
<polygon fill="#000000" stroke="#000000" points="298.834,-93.136 309.3262,-91.6652 300.2069,-86.272 298.834,-93.136"/>
</g>
<!-- 140531497917016 -->
<g id="node11" class="node">
<title>140531497917016</title>
<polygon fill="none" stroke="#000000" points="955,-149 901,-149 901,-113 955,-113 955,-149"/>
<text text-anchor="middle" x="928" y="-127.3" font-family="Times,serif" font-size="14.00" fill="#000000">hid_11</text>
</g>
<!-- 140531497917016&#45;&gt;140531497025776 -->
<g id="edge11" class="edge">
<title>140531497917016&#45;&gt;140531497025776</title>
<path fill="none" stroke="#000000" d="M900.9593,-138.2613C863.3612,-147.7026 793.0266,-163 732,-163 626,-163 626,-163 626,-163 523.633,-163 497.1649,-153.0286 399,-124 389.2604,-121.1199 379.0122,-117.159 369.6773,-113.1581"/>
<polygon fill="#000000" stroke="#000000" points="370.8999,-109.8716 360.3395,-109.0179 368.0626,-116.2708 370.8999,-109.8716"/>
</g>
<!-- 140531497915784 -->
<g id="node12" class="node">
<title>140531497915784</title>
<polygon fill="none" stroke="#000000" points="1652,-351 1598,-351 1598,-315 1652,-315 1652,-351"/>
<text text-anchor="middle" x="1625" y="-329.3" font-family="Times,serif" font-size="14.00" fill="#000000">hid_12</text>
</g>
<!-- 140531495909696 -->
<g id="node38" class="node">
<title>140531495909696</title>
<ellipse fill="none" stroke="#000000" cx="1715" cy="-324" rx="27" ry="27"/>
<text text-anchor="middle" x="1715" y="-320.3" font-family="Times,serif" font-size="14.00" fill="#000000">pre_QuoteDataBean</text>
</g>
<!-- 140531497915784&#45;&gt;140531495909696 -->
<g id="edge12" class="edge">
<title>140531497915784&#45;&gt;140531495909696</title>
<path fill="none" stroke="#000000" d="M1652.003,-330.2997C1660.1903,-329.481 1669.3292,-328.5671 1678.051,-327.6949"/>
<polygon fill="#000000" stroke="#000000" points="1678.414,-331.1761 1688.0161,-326.6984 1677.7174,-324.2109 1678.414,-331.1761"/>
</g>
<!-- 140531497916120 -->
<g id="node13" class="node">
<title>140531497916120</title>
<polygon fill="none" stroke="#000000" points="1652,-288 1598,-288 1598,-252 1652,-252 1652,-288"/>
<text text-anchor="middle" x="1625" y="-266.3" font-family="Times,serif" font-size="14.00" fill="#000000">hid_13</text>
</g>
<!-- 140531497996472 -->
<g id="node47" class="node">
<title>140531497996472</title>
<ellipse fill="none" stroke="#000000" cx="1715" cy="-252" rx="27" ry="27"/>
<text text-anchor="middle" x="1715" y="-248.3" font-family="Times,serif" font-size="14.00" fill="#000000">splace_in_Root_0</text>
</g>
<!-- 140531497916120&#45;&gt;140531497996472 -->
<g id="edge13" class="edge">
<title>140531497916120&#45;&gt;140531497996472</title>
<path fill="none" stroke="#000000" d="M1652.003,-264.5994C1660.2647,-262.9471 1669.4954,-261.1009 1678.2888,-259.3422"/>
<polygon fill="#000000" stroke="#000000" points="1679.2069,-262.728 1688.3262,-257.3348 1677.834,-255.864 1679.2069,-262.728"/>
</g>
<!-- 140531497914664 -->
<g id="node14" class="node">
<title>140531497914664</title>
<polygon fill="none" stroke="#000000" points="1652,-410 1598,-410 1598,-374 1652,-374 1652,-410"/>
<text text-anchor="middle" x="1625" y="-388.3" font-family="Times,serif" font-size="14.00" fill="#000000">hid_14</text>
</g>
<!-- 140531496369288 -->
<g id="node50" class="node">
<title>140531496369288</title>
<ellipse fill="none" stroke="#000000" cx="1715" cy="-396" rx="27" ry="27"/>
<text text-anchor="middle" x="1715" y="-392.3" font-family="Times,serif" font-size="14.00" fill="#000000">splace_in_TradeConfig_1</text>
</g>
<!-- 140531497914664&#45;&gt;140531496369288 -->
<g id="edge14" class="edge">
<title>140531497914664&#45;&gt;140531496369288</title>
<path fill="none" stroke="#000000" d="M1652.003,-393.2001C1660.1013,-393.5601 1669.1306,-393.9614 1677.7665,-394.3452"/>
<polygon fill="#000000" stroke="#000000" points="1677.8705,-397.8532 1688.0161,-394.8007 1678.1814,-390.8601 1677.8705,-397.8532"/>
</g>
<!-- 140531497915616 -->
<g id="node15" class="node">
<title>140531497915616</title>
<polygon fill="none" stroke="#000000" points="955,-274 901,-274 901,-238 955,-238 955,-274"/>
<text text-anchor="middle" x="928" y="-252.3" font-family="Times,serif" font-size="14.00" fill="#000000">hid_15</text>
</g>
<!-- 140531497025664 -->
<g id="node42" class="node">
<title>140531497025664</title>
<ellipse fill="none" stroke="#000000" cx="1018" cy="-256" rx="27" ry="27"/>
<text text-anchor="middle" x="1018" y="-252.3" font-family="Times,serif" font-size="14.00" fill="#000000">splace_in_Log_1</text>
</g>
<!-- 140531497915616&#45;&gt;140531497025664 -->
<g id="edge15" class="edge">
<title>140531497915616&#45;&gt;140531497025664</title>
<path fill="none" stroke="#000000" d="M955.003,-256C963.0277,-256 971.9665,-256 980.5309,-256"/>
<polygon fill="#000000" stroke="#000000" points="980.7051,-259.5001 990.705,-256 980.705,-252.5001 980.7051,-259.5001"/>
</g>
<!-- 140531497915056 -->
<g id="node16" class="node">
<title>140531497915056</title>
<polygon fill="none" stroke="#000000" points="955,-328 901,-328 901,-292 955,-292 955,-328"/>
<text text-anchor="middle" x="928" y="-306.3" font-family="Times,serif" font-size="14.00" fill="#000000">hid_16</text>
</g>
<!-- 140531497997648 -->
<g id="node46" class="node">
<title>140531497997648</title>
<ellipse fill="none" stroke="#000000" cx="1018" cy="-328" rx="27" ry="27"/>
<text text-anchor="middle" x="1018" y="-324.3" font-family="Times,serif" font-size="14.00" fill="#000000">splace_in_MarketSummarySingleton_1</text>
</g>
<!-- 140531497915056&#45;&gt;140531497997648 -->
<g id="edge16" class="edge">
<title>140531497915056&#45;&gt;140531497997648</title>
<path fill="none" stroke="#000000" d="M955.003,-315.4006C963.2647,-317.0529 972.4954,-318.8991 981.2888,-320.6578"/>
<polygon fill="#000000" stroke="#000000" points="980.834,-324.136 991.3262,-322.6652 982.2069,-317.272 980.834,-324.136"/>
</g>
<!-- 140531497914888 -->
<g id="node17" class="node">
<title>140531497914888</title>
<polygon fill="none" stroke="#000000" points="273,-394 219,-394 219,-358 273,-358 273,-394"/>
<text text-anchor="middle" x="246" y="-372.3" font-family="Times,serif" font-size="14.00" fill="#000000">hid_17</text>
</g>
<!-- 140531497025720 -->
<g id="node41" class="node">
<title>140531497025720</title>
<ellipse fill="none" stroke="#000000" cx="336" cy="-386" rx="27" ry="27"/>
<text text-anchor="middle" x="336" y="-382.3" font-family="Times,serif" font-size="14.00" fill="#000000">splace_in_Log_0</text>
</g>
<!-- 140531497914888&#45;&gt;140531497025720 -->
<g id="edge17" class="edge">
<title>140531497914888&#45;&gt;140531497025720</title>
<path fill="none" stroke="#000000" d="M273.003,-379.0003C281.1903,-379.91 290.3292,-380.9255 299.051,-381.8946"/>
<polygon fill="#000000" stroke="#000000" points="298.6907,-385.376 309.0161,-383.0018 299.4638,-378.4188 298.6907,-385.376"/>
</g>
<!-- 140531497916064 -->
<g id="node18" class="node">
<title>140531497916064</title>
<polygon fill="none" stroke="#000000" points="273,-331 219,-331 219,-295 273,-295 273,-331"/>
<text text-anchor="middle" x="246" y="-309.3" font-family="Times,serif" font-size="14.00" fill="#000000">hid_18</text>
</g>
<!-- 140531496583352 -->
<g id="node49" class="node">
<title>140531496583352</title>
<ellipse fill="none" stroke="#000000" cx="336" cy="-313" rx="27" ry="27"/>
<text text-anchor="middle" x="336" y="-309.3" font-family="Times,serif" font-size="14.00" fill="#000000">splace_in_TradeConfig_0</text>
</g>
<!-- 140531497916064&#45;&gt;140531496583352 -->
<g id="edge18" class="edge">
<title>140531497916064&#45;&gt;140531496583352</title>
<path fill="none" stroke="#000000" d="M273.003,-313C281.0277,-313 289.9665,-313 298.5309,-313"/>
<polygon fill="#000000" stroke="#000000" points="298.7051,-316.5001 308.705,-313 298.705,-309.5001 298.7051,-316.5001"/>
</g>
<!-- 140531497917128 -->
<g id="node19" class="node">
<title>140531497917128</title>
<polygon fill="none" stroke="#000000" points="759,-77 705,-77 705,-41 759,-41 759,-77"/>
<text text-anchor="middle" x="732" y="-55.3" font-family="Times,serif" font-size="14.00" fill="#000000">hid_19</text>
</g>
<!-- 140531497916288 -->
<g id="node34" class="node">
<title>140531497916288</title>
<ellipse fill="none" stroke="#000000" cx="838" cy="-27" rx="27" ry="27"/>
<text text-anchor="middle" x="838" y="-23.3" font-family="Times,serif" font-size="14.00" fill="#000000">pre_FinancialUtils</text>
</g>
<!-- 140531497917128&#45;&gt;140531497916288 -->
<g id="edge19" class="edge">
<title>140531497917128&#45;&gt;140531497916288</title>
<path fill="none" stroke="#000000" d="M759.0225,-50.8423C772.1518,-46.8787 788.1066,-42.0621 802.2299,-37.7985"/>
<polygon fill="#000000" stroke="#000000" points="803.5618,-41.0525 812.1235,-34.8118 801.5387,-34.3512 803.5618,-41.0525"/>
</g>
<!-- 140531497997592 -->
<g id="node20" class="node">
<title>140531497997592</title>
<polygon fill="none" stroke="#000000" points="1135,-373 1081,-373 1081,-337 1135,-337 1135,-373"/>
<text text-anchor="middle" x="1108" y="-351.3" font-family="Times,serif" font-size="14.00" fill="#000000">hid_2</text>
</g>
<!-- 140531497997592&#45;&gt;140531495939600 -->
<g id="edge20" class="edge">
<title>140531497997592&#45;&gt;140531495939600</title>
<path fill="none" stroke="#000000" d="M1135.1349,-370.4041C1151.428,-379.6534 1172.2704,-391.4854 1189.511,-401.2726"/>
<polygon fill="#000000" stroke="#000000" points="1188.2425,-404.5771 1198.6669,-406.4703 1191.6984,-398.4896 1188.2425,-404.5771"/>
</g>
<!-- 140531496576952 -->
<g id="node21" class="node">
<title>140531496576952</title>
<polygon fill="none" stroke="#000000" points="759,-131 705,-131 705,-95 759,-95 759,-131"/>
<text text-anchor="middle" x="732" y="-109.3" font-family="Times,serif" font-size="14.00" fill="#000000">hid_20</text>
</g>
<!-- 140531497916568 -->
<g id="node44" class="node">
<title>140531497916568</title>
<ellipse fill="none" stroke="#000000" cx="838" cy="-108" rx="27" ry="27"/>
<text text-anchor="middle" x="838" y="-104.3" font-family="Times,serif" font-size="14.00" fill="#000000">splace_in_MarketSummaryDataBean_1</text>
</g>
<!-- 140531496576952&#45;&gt;140531497916568 -->
<g id="edge21" class="edge">
<title>140531496576952&#45;&gt;140531497916568</title>
<path fill="none" stroke="#000000" d="M759.0225,-111.7254C771.731,-111.1259 787.087,-110.4016 800.8666,-109.7516"/>
<polygon fill="#000000" stroke="#000000" points="801.2029,-113.2397 811.0268,-109.2723 800.873,-106.2475 801.2029,-113.2397"/>
</g>
<!-- 140531497998880 -->
<g id="node22" class="node">
<title>140531497998880</title>
<polygon fill="none" stroke="#000000" points="1135,-465 1081,-465 1081,-429 1135,-429 1135,-465"/>
<text text-anchor="middle" x="1108" y="-443.3" font-family="Times,serif" font-size="14.00" fill="#000000">hid_3</text>
</g>
<!-- 140531497998880&#45;&gt;140531495939600 -->
<g id="edge22" class="edge">
<title>140531497998880&#45;&gt;140531495939600</title>
<path fill="none" stroke="#000000" d="M1135.1349,-440.6014C1150.3596,-437.0113 1169.5564,-432.4845 1186.0752,-428.5893"/>
<polygon fill="#000000" stroke="#000000" points="1187.0251,-431.9613 1195.9549,-426.2596 1185.4185,-425.1482 1187.0251,-431.9613"/>
</g>
<!-- 140531497998376 -->
<g id="node23" class="node">
<title>140531497998376</title>
<polygon fill="none" stroke="#000000" points="1856.5,-266 1802.5,-266 1802.5,-230 1856.5,-230 1856.5,-266"/>
<text text-anchor="middle" x="1829.5" y="-244.3" font-family="Times,serif" font-size="14.00" fill="#000000">hid_4</text>
</g>
<!-- 140531497997256 -->
<g id="node39" class="node">
<title>140531497997256</title>
<ellipse fill="none" stroke="#000000" cx="1944" cy="-221" rx="27" ry="27"/>
<text text-anchor="middle" x="1944" y="-217.3" font-family="Times,serif" font-size="14.00" fill="#000000">pre_Root</text>
</g>
<!-- 140531497998376&#45;&gt;140531497997256 -->
<g id="edge23" class="edge">
<title>140531497998376&#45;&gt;140531497997256</title>
<path fill="none" stroke="#000000" d="M1856.6349,-241.6014C1871.8596,-238.0113 1891.0564,-233.4845 1907.5752,-229.5893"/>
<polygon fill="#000000" stroke="#000000" points="1908.5251,-232.9613 1917.4549,-227.2596 1906.9185,-226.1482 1908.5251,-232.9613"/>
</g>
<!-- 140531497999552 -->
<g id="node24" class="node">
<title>140531497999552</title>
<polygon fill="none" stroke="#000000" points="1562,-247 1508,-247 1508,-211 1562,-211 1562,-247"/>
<text text-anchor="middle" x="1535" y="-225.3" font-family="Times,serif" font-size="14.00" fill="#000000">hid_5</text>
</g>
<!-- 140531497999552&#45;&gt;140531497997256 -->
<g id="edge24" class="edge">
<title>140531497999552&#45;&gt;140531497997256</title>
<path fill="none" stroke="#000000" d="M1562.0408,-226.0047C1592.5807,-222.7844 1643.7871,-217.8749 1688,-216 1765.7444,-212.7031 1856.8637,-216.2527 1906.7165,-218.8273"/>
<polygon fill="#000000" stroke="#000000" points="1906.5366,-222.3226 1916.7085,-219.3591 1906.9086,-215.3325 1906.5366,-222.3226"/>
</g>
<!-- 140531496583408 -->
<g id="node25" class="node">
<title>140531496583408</title>
<polygon fill="none" stroke="#000000" points="508,-331 454,-331 454,-295 508,-295 508,-331"/>
<text text-anchor="middle" x="481" y="-309.3" font-family="Times,serif" font-size="14.00" fill="#000000">hid_6</text>
</g>
<!-- 140531497998656 -->
<g id="node40" class="node">
<title>140531497998656</title>
<ellipse fill="none" stroke="#000000" cx="626" cy="-313" rx="27" ry="27"/>
<text text-anchor="middle" x="626" y="-309.3" font-family="Times,serif" font-size="14.00" fill="#000000">pre_TradeConfig</text>
</g>
<!-- 140531496583408&#45;&gt;140531497998656 -->
<g id="edge25" class="edge">
<title>140531496583408&#45;&gt;140531497998656</title>
<path fill="none" stroke="#000000" d="M508.2734,-313C530.9566,-313 563.4742,-313 588.589,-313"/>
<polygon fill="#000000" stroke="#000000" points="588.8489,-316.5001 598.8489,-313 588.8489,-309.5001 588.8489,-316.5001"/>
</g>
<!-- 140531497564312 -->
<g id="node26" class="node">
<title>140531497564312</title>
<polygon fill="none" stroke="#000000" points="1856.5,-515 1802.5,-515 1802.5,-479 1856.5,-479 1856.5,-515"/>
<text text-anchor="middle" x="1829.5" y="-493.3" font-family="Times,serif" font-size="14.00" fill="#000000">hid_7</text>
</g>
<!-- 140531497564312&#45;&gt;140531497998656 -->
<g id="edge26" class="edge">
<title>140531497564312&#45;&gt;140531497998656</title>
<path fill="none" stroke="#000000" d="M1802.3782,-496.1321C1763.2188,-494.9556 1688.5634,-493 1625,-493 1108,-493 1108,-493 1108,-493 1055.3188,-493 1041.5084,-488.9737 991,-474 863.4168,-436.1766 721.7397,-364.4372 658.9924,-330.998"/>
<polygon fill="#000000" stroke="#000000" points="660.433,-327.7991 649.9656,-326.1608 657.1266,-333.9691 660.433,-327.7991"/>
</g>
<!-- 140531497025832 -->
<g id="node27" class="node">
<title>140531497025832</title>
<polygon fill="none" stroke="#000000" points="653,-410 599,-410 599,-374 653,-374 653,-410"/>
<text text-anchor="middle" x="626" y="-388.3" font-family="Times,serif" font-size="14.00" fill="#000000">hid_8</text>
</g>
<!-- 140531497026056 -->
<g id="node35" class="node">
<title>140531497026056</title>
<ellipse fill="none" stroke="#000000" cx="1222.5" cy="-256" rx="27" ry="27"/>
<text text-anchor="middle" x="1222.5" y="-252.3" font-family="Times,serif" font-size="14.00" fill="#000000">pre_Log</text>
</g>
<!-- 140531497025832&#45;&gt;140531497026056 -->
<g id="edge27" class="edge">
<title>140531497025832&#45;&gt;140531497026056</title>
<path fill="none" stroke="#000000" d="M653.0582,-396.4634C722.0908,-406.5659 908.9055,-425.7684 1045,-364 1065.6045,-354.6484 1062.6904,-341.295 1081,-328 1114.7648,-303.4826 1158.0782,-282.7838 1187.8395,-269.961"/>
<polygon fill="#000000" stroke="#000000" points="1189.5365,-273.0432 1197.3795,-265.9202 1186.8063,-266.5976 1189.5365,-273.0432"/>
</g>
<!-- 140531497026168 -->
<g id="node28" class="node">
<title>140531497026168</title>
<polygon fill="none" stroke="#000000" points="1135,-274 1081,-274 1081,-238 1135,-238 1135,-274"/>
<text text-anchor="middle" x="1108" y="-252.3" font-family="Times,serif" font-size="14.00" fill="#000000">hid_9</text>
</g>
<!-- 140531497026168&#45;&gt;140531497026056 -->
<g id="edge28" class="edge">
<title>140531497026168&#45;&gt;140531497026056</title>
<path fill="none" stroke="#000000" d="M1135.1349,-256C1149.9989,-256 1168.6492,-256 1184.8969,-256"/>
<polygon fill="#000000" stroke="#000000" points="1185.1631,-259.5001 1195.1631,-256 1185.163,-252.5001 1185.1631,-259.5001"/>
</g>
<!-- 140531495939656 -->
<g id="node29" class="node">
<title>140531495939656</title>
<ellipse fill="#00ff00" stroke="#000000" cx="1018" cy="-438" rx="27" ry="27"/>
<text text-anchor="middle" x="1018" y="-434.3" font-family="Times,serif" font-size="14.00" fill="#000000">1</text>
</g>
<!-- 140531495939656&#45;&gt;140531495939768 -->
<g id="edge45" class="edge">
<title>140531495939656&#45;&gt;140531495939768</title>
<path fill="none" stroke="#000000" d="M1042.719,-426.3404C1066.4457,-415.1082 1103.2599,-397.5745 1135,-382 1148.891,-375.1839 1163.9627,-367.6538 1177.6204,-360.7787"/>
<polygon fill="#000000" stroke="#000000" points="1179.4651,-363.7684 1186.818,-356.1405 1176.3131,-357.5181 1179.4651,-363.7684"/>
</g>
<!-- 140531495939656&#45;&gt;140531497998880 -->
<g id="edge46" class="edge">
<title>140531495939656&#45;&gt;140531497998880</title>
<path fill="none" stroke="#000000" d="M1045.003,-440.7003C1053.0277,-441.5028 1061.9665,-442.3967 1070.5309,-443.2531"/>
<polygon fill="#000000" stroke="#000000" points="1070.4064,-446.758 1080.705,-444.2705 1071.1029,-439.7927 1070.4064,-446.758"/>
</g>
<!-- 140531497915560&#45;&gt;140531497914888 -->
<g id="edge29" class="edge">
<title>140531497915560&#45;&gt;140531497914888</title>
<path fill="none" stroke="#000000" d="M178.2472,-328.573C188.3684,-335.6579 200.5735,-344.2015 211.8201,-352.0741"/>
<polygon fill="#000000" stroke="#000000" points="209.9838,-355.0609 220.1832,-357.9283 213.998,-349.3263 209.9838,-355.0609"/>
</g>
<!-- 140531497915560&#45;&gt;140531497916064 -->
<g id="edge30" class="edge">
<title>140531497915560&#45;&gt;140531497916064</title>
<path fill="none" stroke="#000000" d="M183.003,-313C191.0277,-313 199.9665,-313 208.5309,-313"/>
<polygon fill="#000000" stroke="#000000" points="208.7051,-316.5001 218.705,-313 208.705,-309.5001 208.7051,-316.5001"/>
</g>
<!-- 140531497914832&#45;&gt;140531497917128 -->
<g id="edge31" class="edge">
<title>140531497914832&#45;&gt;140531497917128</title>
<path fill="none" stroke="#000000" d="M651.6596,-87.8013C664.7028,-83.1254 680.7881,-77.359 695.1312,-72.2171"/>
<polygon fill="#000000" stroke="#000000" points="696.4916,-75.4476 704.7239,-68.7782 694.1294,-68.8582 696.4916,-75.4476"/>
</g>
<!-- 140531497914832&#45;&gt;140531496576952 -->
<g id="edge32" class="edge">
<title>140531497914832&#45;&gt;140531496576952</title>
<path fill="none" stroke="#000000" d="M652.7483,-101.0375C665.4554,-102.9555 680.8559,-105.2801 694.6892,-107.3682"/>
<polygon fill="#000000" stroke="#000000" points="694.4812,-110.8764 704.8916,-108.9082 695.526,-103.9548 694.4812,-110.8764"/>
</g>
<!-- 140531497916456&#45;&gt;140531497915784 -->
<g id="edge33" class="edge">
<title>140531497916456&#45;&gt;140531497915784</title>
<path fill="none" stroke="#000000" d="M1561.0317,-353.612C1569.4955,-350.8848 1579.055,-347.8045 1588.1543,-344.8725"/>
<polygon fill="#000000" stroke="#000000" points="1589.3292,-348.1712 1597.7738,-341.7729 1587.1823,-341.5086 1589.3292,-348.1712"/>
</g>
<!-- 140531497916456&#45;&gt;140531497916120 -->
<g id="edge34" class="edge">
<title>140531497916456&#45;&gt;140531497916120</title>
<path fill="none" stroke="#000000" d="M1554.0867,-342.4892C1567.4444,-328.8346 1585.4231,-310.4564 1599.9351,-295.6219"/>
<polygon fill="#000000" stroke="#000000" points="1602.6741,-297.8271 1607.1651,-288.2312 1597.6702,-292.932 1602.6741,-297.8271"/>
</g>
<!-- 140531497916456&#45;&gt;140531497914664 -->
<g id="edge35" class="edge">
<title>140531497916456&#45;&gt;140531497914664</title>
<path fill="none" stroke="#000000" d="M1561.0317,-370.6772C1569.4955,-373.4985 1579.055,-376.685 1588.1543,-379.7181"/>
<polygon fill="#000000" stroke="#000000" points="1587.1801,-383.0827 1597.7738,-382.9246 1589.3938,-376.4419 1587.1801,-383.0827"/>
</g>
<!-- 140531497915896&#45;&gt;140531497915616 -->
<g id="edge36" class="edge">
<title>140531497915896&#45;&gt;140531497915616</title>
<path fill="none" stroke="#000000" d="M862.5929,-288.7036C871.5854,-284.2073 881.9573,-279.0214 891.7535,-274.1233"/>
<polygon fill="#000000" stroke="#000000" points="893.5265,-277.1499 900.9055,-269.5472 890.396,-270.8889 893.5265,-277.1499"/>
</g>
<!-- 140531497915896&#45;&gt;140531497915056 -->
<g id="edge37" class="edge">
<title>140531497915896&#45;&gt;140531497915056</title>
<path fill="none" stroke="#000000" d="M865.003,-303.7003C873.0277,-304.5028 881.9665,-305.3967 890.5309,-306.2531"/>
<polygon fill="#000000" stroke="#000000" points="890.4064,-309.758 900.705,-307.2705 891.1029,-302.7927 890.4064,-309.758"/>
</g>
<!-- 140531497916288&#45;&gt;140531495939544 -->
<g id="edge38" class="edge">
<title>140531497916288&#45;&gt;140531495939544</title>
<path fill="none" stroke="#000000" d="M810.9307,-24.0651C770.6637,-19.9599 692.5787,-13 626,-13 246,-13 246,-13 246,-13 197.417,-13 142.8193,-21.2439 103.0383,-28.7853"/>
<polygon fill="#000000" stroke="#000000" points="102.1505,-25.3922 93.0002,-30.7328 103.4838,-32.2641 102.1505,-25.3922"/>
</g>
<!-- 140531497026056&#45;&gt;140531495938648 -->
<g id="edge39" class="edge">
<title>140531497026056&#45;&gt;140531495938648</title>
<path fill="none" stroke="#000000" d="M1197.8894,-244.8699C1160.0446,-228.7988 1084.9125,-201 1018,-201 246,-201 246,-201 246,-201 187.3004,-201 122.3798,-223.7509 83.0163,-240.2503"/>
<polygon fill="#000000" stroke="#000000" points="81.3928,-237.1381 73.5786,-244.2927 84.1489,-243.5727 81.3928,-237.1381"/>
</g>
<!-- 140531497025776&#45;&gt;140531495939432 -->
<g id="edge40" class="edge">
<title>140531497025776&#45;&gt;140531495939432</title>
<path fill="none" stroke="#000000" d="M363.2734,-97C370.8644,-97 379.5567,-97 388.7044,-97"/>
<polygon fill="#000000" stroke="#000000" points="388.7789,-100.5001 398.7788,-97 388.7788,-93.5001 388.7789,-100.5001"/>
</g>
<!-- 140531495939600&#45;&gt;140531495939040 -->
<g id="edge41" class="edge">
<title>140531495939600&#45;&gt;140531495939040</title>
<path fill="none" stroke="#000000" d="M1249.1993,-414.4541C1263.2009,-411.5458 1281.2647,-407.7937 1299.7805,-403.9477"/>
<polygon fill="#000000" stroke="#000000" points="1300.7074,-407.3299 1309.7865,-401.8693 1299.2837,-400.4762 1300.7074,-407.3299"/>
</g>
<!-- 140531495909696&#45;&gt;140531495940048 -->
<g id="edge42" class="edge">
<title>140531495909696&#45;&gt;140531495940048</title>
<path fill="none" stroke="#000000" d="M1741.8452,-327.7513C1749.6252,-328.8385 1758.4607,-330.0731 1767.4551,-331.33"/>
<polygon fill="#000000" stroke="#000000" points="1767.2416,-334.8341 1777.6298,-332.7518 1768.2104,-327.9014 1767.2416,-334.8341"/>
</g>
<!-- 140531497997256&#45;&gt;140531495939376 -->
<g id="edge43" class="edge">
<title>140531497997256&#45;&gt;140531495939376</title>
<path fill="none" stroke="#000000" d="M1971.003,-221C1979.0277,-221 1987.9665,-221 1996.5309,-221"/>
<polygon fill="#000000" stroke="#000000" points="1996.7051,-224.5001 2006.705,-221 1996.705,-217.5001 1996.7051,-224.5001"/>
</g>
<!-- 140531497998656&#45;&gt;140531495939264 -->
<g id="edge44" class="edge">
<title>140531497998656&#45;&gt;140531495939264</title>
<path fill="none" stroke="#000000" d="M653.0225,-310.9606C660.9553,-310.3619 669.9196,-309.6853 678.8881,-309.0084"/>
<polygon fill="#000000" stroke="#000000" points="679.2528,-312.491 688.961,-308.2482 678.7259,-305.5108 679.2528,-312.491"/>
</g>
<!-- 140531497025720&#45;&gt;140531497025832 -->
<g id="edge47" class="edge">
<title>140531497025720&#45;&gt;140531497025832</title>
<path fill="none" stroke="#000000" d="M363.0221,-386.5591C415.152,-387.6376 529.6727,-390.007 588.8967,-391.2323"/>
<polygon fill="#000000" stroke="#000000" points="588.8706,-394.7325 598.9409,-391.4402 589.0154,-387.734 588.8706,-394.7325"/>
</g>
<!-- 140531497025664&#45;&gt;140531497026168 -->
<g id="edge48" class="edge">
<title>140531497025664&#45;&gt;140531497026168</title>
<path fill="none" stroke="#000000" d="M1045.003,-256C1053.0277,-256 1061.9665,-256 1070.5309,-256"/>
<polygon fill="#000000" stroke="#000000" points="1070.7051,-259.5001 1080.705,-256 1070.705,-252.5001 1070.7051,-259.5001"/>
</g>
<!-- 140531497916624&#45;&gt;140531497916680 -->
<g id="edge49" class="edge">
<title>140531497916624&#45;&gt;140531497916680</title>
<path fill="none" stroke="#000000" d="M183.003,-75.5002C191.0277,-75.946 199.9665,-76.4426 208.5309,-76.9184"/>
<polygon fill="#000000" stroke="#000000" points="208.5262,-80.4234 218.705,-77.4836 208.9146,-73.4342 208.5262,-80.4234"/>
</g>
<!-- 140531497916568&#45;&gt;140531497917016 -->
<g id="edge50" class="edge">
<title>140531497916568&#45;&gt;140531497917016</title>
<path fill="none" stroke="#000000" d="M864.5162,-114.7764C872.8043,-116.8944 882.1048,-119.2712 890.9779,-121.5388"/>
<polygon fill="#000000" stroke="#000000" points="890.1823,-124.9479 900.7375,-124.0329 891.9155,-118.1658 890.1823,-124.9479"/>
</g>
<!-- 140531497999160&#45;&gt;140531497999384 -->
<g id="edge51" class="edge">
<title>140531497999160&#45;&gt;140531497999384</title>
<path fill="none" stroke="#000000" d="M1966.2472,-387.573C1976.3684,-394.6579 1988.5735,-403.2015 1999.8201,-411.0741"/>
<polygon fill="#000000" stroke="#000000" points="1997.9838,-414.0609 2008.1832,-416.9283 2001.998,-408.3263 1997.9838,-414.0609"/>
</g>
<!-- 140531497997648&#45;&gt;140531497997592 -->
<g id="edge52" class="edge">
<title>140531497997648&#45;&gt;140531497997592</title>
<path fill="none" stroke="#000000" d="M1044.0317,-335.8095C1052.4955,-338.3486 1062.055,-341.2165 1071.1543,-343.9463"/>
<polygon fill="#000000" stroke="#000000" points="1070.1898,-347.311 1080.7738,-346.8321 1072.2013,-340.6062 1070.1898,-347.311"/>
</g>
<!-- 140531497996472&#45;&gt;140531497998376 -->
<g id="edge53" class="edge">
<title>140531497996472&#45;&gt;140531497998376</title>
<path fill="none" stroke="#000000" d="M1742.1349,-251.0521C1756.9989,-250.5328 1775.6492,-249.8813 1791.8969,-249.3136"/>
<polygon fill="#000000" stroke="#000000" points="1792.2914,-252.8021 1802.1631,-248.955 1792.0469,-245.8064 1792.2914,-252.8021"/>
</g>
<!-- 140531495909248&#45;&gt;140531497999552 -->
<g id="edge54" class="edge">
<title>140531495909248&#45;&gt;140531497999552</title>
<path fill="none" stroke="#000000" d="M1415.4276,-288.7862C1438.2966,-277.3517 1472.7553,-260.1223 1498.8152,-247.0924"/>
<polygon fill="#000000" stroke="#000000" points="1500.6202,-250.1031 1507.9992,-242.5004 1497.4897,-243.8421 1500.6202,-250.1031"/>
</g>
<!-- 140531496583352&#45;&gt;140531496583408 -->
<g id="edge55" class="edge">
<title>140531496583352&#45;&gt;140531496583408</title>
<path fill="none" stroke="#000000" d="M363.2734,-313C385.9566,-313 418.4742,-313 443.589,-313"/>
<polygon fill="#000000" stroke="#000000" points="443.8489,-316.5001 453.8489,-313 443.8489,-309.5001 443.8489,-316.5001"/>
</g>
<!-- 140531496369288&#45;&gt;140531497564312 -->
<g id="edge56" class="edge">
<title>140531496369288&#45;&gt;140531497564312</title>
<path fill="none" stroke="#000000" d="M1735.4703,-414.0568C1753.7556,-430.1862 1780.7217,-453.9729 1801.0928,-471.9421"/>
<polygon fill="#000000" stroke="#000000" points="1799.0062,-474.7686 1808.8209,-478.759 1803.6368,-469.5191 1799.0062,-474.7686"/>
</g>
</g>
</svg>
