<?xml version="1.0" encoding="UTF-8" standalone="no"?>
<!DOCTYPE svg PUBLIC "-//W3C//DTD SVG 1.1//EN"
 "http://www.w3.org/Graphics/SVG/1.1/DTD/svg11.dtd">
<!-- Generated by graphviz version 2.40.1 (20161225.0304)
 -->
<!-- Title: imdf_net_1585321101.937419 Pages: 1 -->
<svg width="1287pt" height="820pt"
 viewBox="0.00 0.00 1287.00 820.00" xmlns="http://www.w3.org/2000/svg" xmlns:xlink="http://www.w3.org/1999/xlink">
<g id="graph0" class="graph" transform="scale(1 1) rotate(0) translate(4 816)">
<title>imdf_net_1585321101.937419</title>
<!-- 140531498222480 -->
<g id="node1" class="node">
<title>140531498222480</title>
<polygon fill="none" stroke="#000000" points="93,-764 0,-764 0,-728 93,-728 93,-764"/>
<text text-anchor="middle" x="46.5" y="-742.3" font-family="Times,serif" font-size="14.00" fill="#000000">FinancialUtils</text>
</g>
<!-- 140531477741408 -->
<g id="node37" class="node">
<title>140531477741408</title>
<ellipse fill="none" stroke="#000000" cx="156" cy="-681" rx="27" ry="27"/>
<text text-anchor="middle" x="156" y="-677.3" font-family="Times,serif" font-size="14.00" fill="#000000">p_8</text>
</g>
<!-- 140531498222480&#45;&gt;140531477741408 -->
<g id="edge3" class="edge">
<title>140531498222480&#45;&gt;140531477741408</title>
<path fill="none" stroke="#000000" d="M77.0019,-727.8939C91.5705,-719.2458 109.0096,-708.8938 123.7923,-700.1187"/>
<polygon fill="#000000" stroke="#000000" points="125.7914,-703.0023 132.604,-694.8881 122.2183,-696.9829 125.7914,-703.0023"/>
</g>
<!-- 140531498223040 -->
<g id="node2" class="node">
<title>140531498223040</title>
<polygon fill="none" stroke="#000000" points="1224,-455 1170,-455 1170,-419 1224,-419 1224,-455"/>
<text text-anchor="middle" x="1197" y="-433.3" font-family="Times,serif" font-size="14.00" fill="#000000">Log</text>
</g>
<!-- 140531498223040&#45;&gt;140531477741408 -->
<g id="edge5" class="edge">
<title>140531498223040&#45;&gt;140531477741408</title>
<path fill="none" stroke="#000000" d="M1179.7231,-418.9901C1138.2065,-377.7513 1027.8428,-280 914.5,-280 336,-280 336,-280 336,-280 256.4941,-280 187.1609,-545.6799 164.1159,-644.53"/>
<polygon fill="#000000" stroke="#000000" points="160.6814,-643.848 161.8448,-654.3787 167.5024,-645.4209 160.6814,-643.848"/>
</g>
<!-- 140531477741296 -->
<g id="node3" class="node">
<title>140531477741296</title>
<polygon fill="none" stroke="#000000" points="1279,-782 1115,-782 1115,-746 1279,-746 1279,-782"/>
<text text-anchor="middle" x="1197" y="-760.3" font-family="Times,serif" font-size="14.00" fill="#000000">MarketSummaryDataBean</text>
</g>
<!-- 140531477741296&#45;&gt;140531477741408 -->
<g id="edge11" class="edge">
<title>140531477741296&#45;&gt;140531477741408</title>
<path fill="none" stroke="#000000" d="M1114.8221,-768.4444C1058.4685,-771.1151 981.9793,-774 914.5,-774 336,-774 336,-774 336,-774 280.8996,-774 266.9929,-760.0691 219,-733 206.3019,-725.838 193.6433,-716.0431 183.0401,-706.8847"/>
<polygon fill="#000000" stroke="#000000" points="185.164,-704.0898 175.3657,-700.0595 180.5121,-709.3204 185.164,-704.0898"/>
</g>
<!-- 140531477741184 -->
<g id="node4" class="node">
<title>140531477741184</title>
<polygon fill="none" stroke="#000000" points="1278,-709 1116,-709 1116,-673 1278,-673 1278,-709"/>
<text text-anchor="middle" x="1197" y="-687.3" font-family="Times,serif" font-size="14.00" fill="#000000">MarketSummarySingleton</text>
</g>
<!-- 140531477741184&#45;&gt;140531477741408 -->
<g id="edge2" class="edge">
<title>140531477741184&#45;&gt;140531477741408</title>
<path fill="none" stroke="#000000" d="M1124.3398,-709.0439C1067.5785,-721.5633 986.512,-736 914.5,-736 336,-736 336,-736 336,-736 282.984,-736 224.8679,-713.9082 189.4111,-697.727"/>
<polygon fill="#000000" stroke="#000000" points="190.5757,-694.4079 180.0345,-693.3431 187.6109,-700.749 190.5757,-694.4079"/>
</g>
<!-- 140531498224048 -->
<g id="node5" class="node">
<title>140531498224048</title>
<polygon fill="none" stroke="#000000" points="960.5,-252 868.5,-252 868.5,-216 960.5,-216 960.5,-252"/>
<text text-anchor="middle" x="914.5" y="-230.3" font-family="Times,serif" font-size="14.00" fill="#000000">PingCDIBean</text>
</g>
<!-- 140531498223656 -->
<g id="node30" class="node">
<title>140531498223656</title>
<ellipse fill="none" stroke="#000000" cx="336" cy="-149" rx="27" ry="27"/>
<text text-anchor="middle" x="336" y="-145.3" font-family="Times,serif" font-size="14.00" fill="#000000">p_12</text>
</g>
<!-- 140531498224048&#45;&gt;140531498223656 -->
<g id="edge9" class="edge">
<title>140531498224048&#45;&gt;140531498223656</title>
<path fill="none" stroke="#000000" d="M868.2872,-236.422C819.32,-238.7766 739.7328,-242 671,-242 565,-242 565,-242 565,-242 489.2134,-242 466.5795,-237.3018 399,-203 385.459,-196.1269 372.3875,-185.758 361.6949,-175.9377"/>
<polygon fill="#000000" stroke="#000000" points="364.0097,-173.3088 354.3567,-168.9417 359.1794,-178.3753 364.0097,-173.3088"/>
</g>
<!-- 140531498225000 -->
<g id="node6" class="node">
<title>140531498225000</title>
<polygon fill="none" stroke="#000000" points="962,-198 867,-198 867,-162 962,-162 962,-198"/>
<text text-anchor="middle" x="914.5" y="-176.3" font-family="Times,serif" font-size="14.00" fill="#000000">PingEJBLocal</text>
</g>
<!-- 140531498225000&#45;&gt;140531498223656 -->
<g id="edge6" class="edge">
<title>140531498225000&#45;&gt;140531498223656</title>
<path fill="none" stroke="#000000" d="M866.5874,-187.5279C817.5805,-194.5663 739.179,-204 671,-204 565,-204 565,-204 565,-204 490.1801,-204 470.7808,-197.1077 399,-176 389.256,-173.1347 379.0064,-169.1787 369.6715,-165.1779"/>
<polygon fill="#000000" stroke="#000000" points="370.8944,-161.8915 360.3341,-161.0361 368.0561,-168.2902 370.8944,-161.8915"/>
</g>
<!-- 140531498224328 -->
<g id="node7" class="node">
<title>140531498224328</title>
<polygon fill="none" stroke="#000000" points="989,-144 840,-144 840,-108 989,-108 989,-144"/>
<text text-anchor="middle" x="914.5" y="-122.3" font-family="Times,serif" font-size="14.00" fill="#000000">PingEJBLocalDecorator</text>
</g>
<!-- 140531498224328&#45;&gt;140531498223656 -->
<g id="edge10" class="edge">
<title>140531498224328&#45;&gt;140531498223656</title>
<path fill="none" stroke="#000000" d="M839.963,-111.0774C791.9333,-102.7349 728.028,-94 671,-94 565,-94 565,-94 565,-94 490.1801,-94 470.7808,-100.8923 399,-122 389.256,-124.8653 379.0064,-128.8213 369.6715,-132.8221"/>
<polygon fill="#000000" stroke="#000000" points="368.0561,-129.7098 360.3341,-136.9639 370.8944,-136.1085 368.0561,-129.7098"/>
</g>
<!-- 140531498225112 -->
<g id="node8" class="node">
<title>140531498225112</title>
<polygon fill="none" stroke="#000000" points="965,-90 864,-90 864,-54 965,-54 965,-90"/>
<text text-anchor="middle" x="914.5" y="-68.3" font-family="Times,serif" font-size="14.00" fill="#000000">PingInterceptor</text>
</g>
<!-- 140531498225112&#45;&gt;140531498223656 -->
<g id="edge1" class="edge">
<title>140531498225112&#45;&gt;140531498223656</title>
<path fill="none" stroke="#000000" d="M863.7292,-66.7167C814.5154,-62.0562 737.7256,-56 671,-56 565,-56 565,-56 565,-56 489.3138,-56 466.4323,-59.6302 399,-94 385.3639,-100.9502 372.2756,-111.5023 361.5962,-121.5114"/>
<polygon fill="#000000" stroke="#000000" points="358.9941,-119.16 354.2722,-128.6444 363.878,-124.1747 358.9941,-119.16"/>
</g>
<!-- 140531498224216 -->
<g id="node9" class="node">
<title>140531498224216</title>
<polygon fill="none" stroke="#000000" points="966,-36 863,-36 863,0 966,0 966,-36"/>
<text text-anchor="middle" x="914.5" y="-14.3" font-family="Times,serif" font-size="14.00" fill="#000000">PingServletCDI</text>
</g>
<!-- 140531498224216&#45;&gt;140531498223656 -->
<g id="edge4" class="edge">
<title>140531498224216&#45;&gt;140531498223656</title>
<path fill="none" stroke="#000000" d="M862.7239,-18C813.4298,-18 737.1593,-18 671,-18 565,-18 565,-18 565,-18 489.4118,-18 461.3931,-12.3306 399,-55 377.4844,-69.7141 361.3483,-94.4259 350.7949,-114.8197"/>
<polygon fill="#000000" stroke="#000000" points="347.6326,-113.319 346.3397,-123.8346 353.908,-116.4204 347.6326,-113.319"/>
</g>
<!-- 140531498222704 -->
<g id="node10" class="node">
<title>140531498222704</title>
<polygon fill="none" stroke="#000000" points="502,-544 399,-544 399,-508 502,-508 502,-544"/>
<text text-anchor="middle" x="450.5" y="-522.3" font-family="Times,serif" font-size="14.00" fill="#000000">QuoteDataBean</text>
</g>
<!-- 140531496455976 -->
<g id="node28" class="node">
<title>140531496455976</title>
<ellipse fill="none" stroke="#000000" cx="565" cy="-535" rx="27" ry="27"/>
<text text-anchor="middle" x="565" y="-531.3" font-family="Times,serif" font-size="14.00" fill="#000000">p_10</text>
</g>
<!-- 140531498222704&#45;&gt;140531496455976 -->
<g id="edge8" class="edge">
<title>140531498222704&#45;&gt;140531496455976</title>
<path fill="none" stroke="#000000" d="M502.0557,-530.0524C510.7368,-530.7348 519.5943,-531.431 527.8191,-532.0775"/>
<polygon fill="#000000" stroke="#000000" points="527.5943,-535.5705 537.8379,-532.865 528.1429,-528.592 527.5943,-535.5705"/>
</g>
<!-- 140531498223600 -->
<g id="node11" class="node">
<title>140531498223600</title>
<polygon fill="none" stroke="#000000" points="698,-344 644,-344 644,-308 698,-308 698,-344"/>
<text text-anchor="middle" x="671" y="-322.3" font-family="Times,serif" font-size="14.00" fill="#000000">Root</text>
</g>
<!-- 140531498257656 -->
<g id="node39" class="node">
<title>140531498257656</title>
<ellipse fill="#ffa500" stroke="#000000" cx="777" cy="-335" rx="27" ry="27"/>
</g>
<!-- 140531498223600&#45;&gt;140531498257656 -->
<g id="edge12" class="edge">
<title>140531498223600&#45;&gt;140531498257656</title>
<path fill="none" stroke="#000000" d="M698.0225,-328.2944C710.731,-329.3734 726.087,-330.6772 739.8666,-331.8472"/>
<polygon fill="#000000" stroke="#000000" points="739.7665,-335.3512 750.0268,-332.7098 740.3588,-328.3763 739.7665,-335.3512"/>
</g>
<!-- 140531498221976 -->
<g id="node12" class="node">
<title>140531498221976</title>
<polygon fill="none" stroke="#000000" points="1240,-655 1154,-655 1154,-619 1240,-619 1240,-655"/>
<text text-anchor="middle" x="1197" y="-633.3" font-family="Times,serif" font-size="14.00" fill="#000000">TradeConfig</text>
</g>
<!-- 140531498221976&#45;&gt;140531477741408 -->
<g id="edge7" class="edge">
<title>140531498221976&#45;&gt;140531477741408</title>
<path fill="none" stroke="#000000" d="M1153.9459,-634.2809C1098.5726,-631.0235 999.4124,-626 914.5,-626 336,-626 336,-626 336,-626 282.984,-626 224.8679,-648.0918 189.4111,-664.273"/>
<polygon fill="#000000" stroke="#000000" points="187.6109,-661.251 180.0345,-668.6569 190.5757,-667.5921 187.6109,-661.251"/>
</g>
<!-- 140531498223320 -->
<g id="node13" class="node">
<title>140531498223320</title>
<polygon fill="none" stroke="#000000" points="714,-398 628,-398 628,-362 714,-362 714,-398"/>
<text text-anchor="middle" x="671" y="-376.3" font-family="Times,serif" font-size="14.00" fill="#000000">init_loop_11</text>
</g>
<!-- 140531477784616 -->
<g id="node29" class="node">
<title>140531477784616</title>
<ellipse fill="none" stroke="#000000" cx="777" cy="-149" rx="27" ry="27"/>
<text text-anchor="middle" x="777" y="-145.3" font-family="Times,serif" font-size="14.00" fill="#000000">p_11</text>
</g>
<!-- 140531498223320&#45;&gt;140531477784616 -->
<g id="edge13" class="edge">
<title>140531498223320&#45;&gt;140531477784616</title>
<path fill="none" stroke="#000000" d="M705.3486,-361.7946C708.5601,-359.1483 711.5305,-356.2161 714,-353 752.2452,-303.1911 767.4617,-229.9634 773.3797,-186.128"/>
<polygon fill="#000000" stroke="#000000" points="776.8556,-186.5378 774.6308,-176.1792 769.9103,-185.6644 776.8556,-186.5378"/>
</g>
<!-- 140531477785288 -->
<g id="node14" class="node">
<title>140531477785288</title>
<polygon fill="none" stroke="#000000" points="710.5,-452 631.5,-452 631.5,-416 710.5,-416 710.5,-452"/>
<text text-anchor="middle" x="671" y="-430.3" font-family="Times,serif" font-size="14.00" fill="#000000">init_loop_2</text>
</g>
<!-- 140531477784280 -->
<g id="node34" class="node">
<title>140531477784280</title>
<ellipse fill="none" stroke="#000000" cx="777" cy="-535" rx="27" ry="27"/>
<text text-anchor="middle" x="777" y="-531.3" font-family="Times,serif" font-size="14.00" fill="#000000">p_5</text>
</g>
<!-- 140531477785288&#45;&gt;140531477784280 -->
<g id="edge14" class="edge">
<title>140531477785288&#45;&gt;140531477784280</title>
<path fill="none" stroke="#000000" d="M689.9507,-452.0568C706.5203,-467.8448 730.7898,-490.9696 749.4963,-508.7937"/>
<polygon fill="#000000" stroke="#000000" points="747.48,-511.7068 757.1341,-516.0712 752.3088,-506.639 747.48,-511.7068"/>
</g>
<!-- 140531496455752 -->
<g id="node15" class="node">
<title>140531496455752</title>
<polygon fill="none" stroke="#000000" points="954,-575 875,-575 875,-539 954,-539 954,-575"/>
<text text-anchor="middle" x="914.5" y="-553.3" font-family="Times,serif" font-size="14.00" fill="#000000">init_loop_4</text>
</g>
<!-- 140531496455920 -->
<g id="node36" class="node">
<title>140531496455920</title>
<ellipse fill="none" stroke="#000000" cx="1052" cy="-681" rx="27" ry="27"/>
<text text-anchor="middle" x="1052" y="-677.3" font-family="Times,serif" font-size="14.00" fill="#000000">p_7</text>
</g>
<!-- 140531496455752&#45;&gt;140531496455920 -->
<g id="edge15" class="edge">
<title>140531496455752&#45;&gt;140531496455920</title>
<path fill="none" stroke="#000000" d="M934.4937,-575.0307C958.085,-596.3058 997.457,-631.8121 1024.0568,-655.8003"/>
<polygon fill="#000000" stroke="#000000" points="1021.763,-658.4447 1031.5332,-662.5427 1026.451,-653.2464 1021.763,-658.4447"/>
</g>
<!-- 140531498223712 -->
<g id="node16" class="node">
<title>140531498223712</title>
<polygon fill="none" stroke="#000000" points="701.5,-167 640.5,-167 640.5,-131 701.5,-131 701.5,-167"/>
<text text-anchor="middle" x="671" y="-145.3" font-family="Times,serif" font-size="14.00" fill="#000000">loop_12</text>
</g>
<!-- 140531498223712&#45;&gt;140531477784616 -->
<g id="edge16" class="edge">
<title>140531498223712&#45;&gt;140531477784616</title>
<path fill="none" stroke="#000000" d="M701.6596,-149C713.5063,-149 727.1757,-149 739.592,-149"/>
<polygon fill="#000000" stroke="#000000" points="739.6593,-152.5001 749.6593,-149 739.6593,-145.5001 739.6593,-152.5001"/>
</g>
<!-- 140531477786520 -->
<g id="node17" class="node">
<title>140531477786520</title>
<polygon fill="none" stroke="#000000" points="698,-553 644,-553 644,-517 698,-517 698,-553"/>
<text text-anchor="middle" x="671" y="-531.3" font-family="Times,serif" font-size="14.00" fill="#000000">loop_3</text>
</g>
<!-- 140531477786520&#45;&gt;140531477784280 -->
<g id="edge17" class="edge">
<title>140531477786520&#45;&gt;140531477784280</title>
<path fill="none" stroke="#000000" d="M698.0225,-535C710.6333,-535 725.8509,-535 739.5484,-535"/>
<polygon fill="#000000" stroke="#000000" points="739.6583,-538.5001 749.6582,-535 739.6582,-531.5001 739.6583,-538.5001"/>
</g>
<!-- 140531477741016 -->
<g id="node18" class="node">
<title>140531477741016</title>
<polygon fill="none" stroke="#000000" points="804,-699 750,-699 750,-663 804,-663 804,-699"/>
<text text-anchor="middle" x="777" y="-677.3" font-family="Times,serif" font-size="14.00" fill="#000000">loop_5</text>
</g>
<!-- 140531477741016&#45;&gt;140531496455920 -->
<g id="edge18" class="edge">
<title>140531477741016&#45;&gt;140531496455920</title>
<path fill="none" stroke="#000000" d="M804.1207,-681C853.5131,-681 958.2137,-681 1014.4372,-681"/>
<polygon fill="#000000" stroke="#000000" points="1014.676,-684.5001 1024.676,-681 1014.676,-677.5001 1014.676,-684.5001"/>
</g>
<!-- 140531498225392 -->
<g id="node19" class="node">
<title>140531498225392</title>
<polygon fill="none" stroke="#000000" points="480,-452 421,-452 421,-416 480,-416 480,-452"/>
<text text-anchor="middle" x="450.5" y="-430.3" font-family="Times,serif" font-size="14.00" fill="#000000">skip_10</text>
</g>
<!-- 140531477784952 -->
<g id="node33" class="node">
<title>140531477784952</title>
<ellipse fill="none" stroke="#000000" cx="565" cy="-335" rx="27" ry="27"/>
<text text-anchor="middle" x="565" y="-331.3" font-family="Times,serif" font-size="14.00" fill="#000000">p_4</text>
</g>
<!-- 140531498225392&#45;&gt;140531477784952 -->
<g id="edge44" class="edge">
<title>140531498225392&#45;&gt;140531477784952</title>
<path fill="none" stroke="#000000" d="M480.2533,-420.7796C487.6917,-416.8478 495.4189,-412.1863 502,-407 517.2673,-394.9683 531.742,-378.8901 542.958,-364.9796"/>
<polygon fill="#000000" stroke="#000000" points="545.7349,-367.1104 549.1666,-357.0867 540.233,-362.7826 545.7349,-367.1104"/>
</g>
<!-- 140531496361936 -->
<g id="node20" class="node">
<title>140531496361936</title>
<polygon fill="none" stroke="#000000" points="480,-167 421,-167 421,-131 480,-131 480,-167"/>
<text text-anchor="middle" x="450.5" y="-145.3" font-family="Times,serif" font-size="14.00" fill="#000000">skip_13</text>
</g>
<!-- 140531498225224 -->
<g id="node31" class="node">
<title>140531498225224</title>
<ellipse fill="none" stroke="#000000" cx="565" cy="-149" rx="27" ry="27"/>
<text text-anchor="middle" x="565" y="-145.3" font-family="Times,serif" font-size="14.00" fill="#000000">p_13</text>
</g>
<!-- 140531496361936&#45;&gt;140531498225224 -->
<g id="edge45" class="edge">
<title>140531496361936&#45;&gt;140531498225224</title>
<path fill="none" stroke="#000000" d="M480.2846,-149C494.713,-149 512.1917,-149 527.5163,-149"/>
<polygon fill="#000000" stroke="#000000" points="527.7176,-152.5001 537.7176,-149 527.7176,-145.5001 527.7176,-152.5001"/>
</g>
<!-- 140531497513480 -->
<g id="node21" class="node">
<title>140531497513480</title>
<polygon fill="none" stroke="#000000" points="480,-344 421,-344 421,-308 480,-308 480,-344"/>
<text text-anchor="middle" x="450.5" y="-322.3" font-family="Times,serif" font-size="14.00" fill="#000000">skip_14</text>
</g>
<!-- 140531497513480&#45;&gt;140531477784952 -->
<g id="edge46" class="edge">
<title>140531497513480&#45;&gt;140531477784952</title>
<path fill="none" stroke="#000000" d="M480.2846,-328.3411C494.713,-329.4753 512.1917,-330.8491 527.5163,-332.0537"/>
<polygon fill="#000000" stroke="#000000" points="527.4741,-335.5611 537.7176,-332.8555 528.0226,-328.5826 527.4741,-335.5611"/>
</g>
<!-- 140531498223152 -->
<g id="node22" class="node">
<title>140531498223152</title>
<polygon fill="none" stroke="#000000" points="273,-699 219,-699 219,-663 273,-663 273,-699"/>
<text text-anchor="middle" x="246" y="-677.3" font-family="Times,serif" font-size="14.00" fill="#000000">skip_6</text>
</g>
<!-- 140531477741128 -->
<g id="node38" class="node">
<title>140531477741128</title>
<ellipse fill="none" stroke="#000000" cx="336" cy="-681" rx="27" ry="27"/>
<text text-anchor="middle" x="336" y="-677.3" font-family="Times,serif" font-size="14.00" fill="#000000">p_9</text>
</g>
<!-- 140531498223152&#45;&gt;140531477741128 -->
<g id="edge47" class="edge">
<title>140531498223152&#45;&gt;140531477741128</title>
<path fill="none" stroke="#000000" d="M273.003,-681C281.0277,-681 289.9665,-681 298.5309,-681"/>
<polygon fill="#000000" stroke="#000000" points="298.7051,-684.5001 308.705,-681 298.705,-677.5001 298.7051,-684.5001"/>
</g>
<!-- 140531498221864 -->
<g id="node23" class="node">
<title>140531498221864</title>
<polygon fill="none" stroke="#000000" points="273,-571 219,-571 219,-535 273,-535 273,-571"/>
<text text-anchor="middle" x="246" y="-549.3" font-family="Times,serif" font-size="14.00" fill="#000000">skip_7</text>
</g>
<!-- 140531477784224 -->
<g id="node35" class="node">
<title>140531477784224</title>
<ellipse fill="none" stroke="#000000" cx="336" cy="-526" rx="27" ry="27"/>
<text text-anchor="middle" x="336" y="-522.3" font-family="Times,serif" font-size="14.00" fill="#000000">p_6</text>
</g>
<!-- 140531498221864&#45;&gt;140531477784224 -->
<g id="edge48" class="edge">
<title>140531498221864&#45;&gt;140531477784224</title>
<path fill="none" stroke="#000000" d="M273.003,-544.8991C281.5964,-542.3211 291.2382,-539.4285 300.3457,-536.6963"/>
<polygon fill="#000000" stroke="#000000" points="301.3712,-540.0428 309.9437,-533.8169 299.3597,-533.338 301.3712,-540.0428"/>
</g>
<!-- 140531498222648 -->
<g id="node24" class="node">
<title>140531498222648</title>
<polygon fill="none" stroke="#000000" points="941.5,-521 887.5,-521 887.5,-485 941.5,-485 941.5,-521"/>
<text text-anchor="middle" x="914.5" y="-499.3" font-family="Times,serif" font-size="14.00" fill="#000000">skip_8</text>
</g>
<!-- 140531498222648&#45;&gt;140531477784224 -->
<g id="edge49" class="edge">
<title>140531498222648&#45;&gt;140531477784224</title>
<path fill="none" stroke="#000000" d="M887.1914,-498.7278C842.2357,-492.0764 749.7679,-480 671,-480 565,-480 565,-480 565,-480 490.7405,-480 470.7745,-479.9505 399,-499 389.1833,-501.6054 378.9095,-505.4748 369.5746,-509.4757"/>
<polygon fill="#000000" stroke="#000000" points="367.9467,-506.3696 360.245,-513.6452 370.8028,-512.7604 367.9467,-506.3696"/>
</g>
<!-- 140531498223488 -->
<g id="node25" class="node">
<title>140531498223488</title>
<polygon fill="none" stroke="#000000" points="477.5,-598 423.5,-598 423.5,-562 477.5,-562 477.5,-598"/>
<text text-anchor="middle" x="450.5" y="-576.3" font-family="Times,serif" font-size="14.00" fill="#000000">skip_9</text>
</g>
<!-- 140531498223488&#45;&gt;140531496455976 -->
<g id="edge50" class="edge">
<title>140531498223488&#45;&gt;140531496455976</title>
<path fill="none" stroke="#000000" d="M477.6349,-569.3356C493.3349,-563.1653 513.2589,-555.3349 530.1143,-548.7105"/>
<polygon fill="#000000" stroke="#000000" points="531.6019,-551.8866 539.6287,-544.9713 529.0414,-545.3716 531.6019,-551.8866"/>
</g>
<!-- 140531499205688 -->
<g id="node26" class="node">
<title>140531499205688</title>
<polygon fill="none" stroke="#000000" points="477.5,-398 423.5,-398 423.5,-362 477.5,-362 477.5,-398"/>
<text text-anchor="middle" x="450.5" y="-376.3" font-family="Times,serif" font-size="14.00" fill="#000000">tau_1</text>
</g>
<!-- 140531499205184 -->
<g id="node32" class="node">
<title>140531499205184</title>
<ellipse fill="none" stroke="#000000" cx="565" cy="-407" rx="27" ry="27"/>
<text text-anchor="middle" x="565" y="-403.3" font-family="Times,serif" font-size="14.00" fill="#000000">p_3</text>
</g>
<!-- 140531499205688&#45;&gt;140531499205184 -->
<g id="edge52" class="edge">
<title>140531499205688&#45;&gt;140531499205184</title>
<path fill="none" stroke="#000000" d="M477.6349,-386.3986C492.8596,-389.9887 512.0564,-394.5155 528.5752,-398.4107"/>
<polygon fill="#000000" stroke="#000000" points="527.9185,-401.8518 538.4549,-400.7404 529.5251,-395.0387 527.9185,-401.8518"/>
</g>
<!-- 140531498258104 -->
<g id="node27" class="node">
<title>140531498258104</title>
<ellipse fill="#00ff00" stroke="#000000" cx="336" cy="-380" rx="27" ry="27"/>
<text text-anchor="middle" x="336" y="-376.3" font-family="Times,serif" font-size="14.00" fill="#000000">1</text>
</g>
<!-- 140531498258104&#45;&gt;140531499205688 -->
<g id="edge51" class="edge">
<title>140531498258104&#45;&gt;140531499205688</title>
<path fill="none" stroke="#000000" d="M363.1349,-380C377.9989,-380 396.6492,-380 412.8969,-380"/>
<polygon fill="#000000" stroke="#000000" points="413.1631,-383.5001 423.1631,-380 413.163,-376.5001 413.1631,-383.5001"/>
</g>
<!-- 140531496455976&#45;&gt;140531477786520 -->
<g id="edge19" class="edge">
<title>140531496455976&#45;&gt;140531477786520</title>
<path fill="none" stroke="#000000" d="M592.0225,-535C604.6333,-535 619.8509,-535 633.5484,-535"/>
<polygon fill="#000000" stroke="#000000" points="633.6583,-538.5001 643.6582,-535 633.6582,-531.5001 633.6583,-538.5001"/>
</g>
<!-- 140531477784616&#45;&gt;140531498224048 -->
<g id="edge23" class="edge">
<title>140531477784616&#45;&gt;140531498224048</title>
<path fill="none" stroke="#000000" d="M794.9517,-169.1921C806.7565,-181.4803 823.1009,-196.7342 840,-207 845.8458,-210.5512 852.231,-213.7414 858.7256,-216.5769"/>
<polygon fill="#000000" stroke="#000000" points="857.6883,-219.934 868.2691,-220.4782 860.3371,-213.4544 857.6883,-219.934"/>
</g>
<!-- 140531477784616&#45;&gt;140531498225000 -->
<g id="edge22" class="edge">
<title>140531477784616&#45;&gt;140531498225000</title>
<path fill="none" stroke="#000000" d="M803.5114,-154.9771C818.7259,-158.4073 838.4465,-162.8534 857.0353,-167.0443"/>
<polygon fill="#000000" stroke="#000000" points="856.3906,-170.4867 866.9155,-169.2719 857.9302,-163.6581 856.3906,-170.4867"/>
</g>
<!-- 140531477784616&#45;&gt;140531498224328 -->
<g id="edge24" class="edge">
<title>140531477784616&#45;&gt;140531498224328</title>
<path fill="none" stroke="#000000" d="M803.8378,-144.5108C811.5287,-143.2243 820.3511,-141.7485 829.5861,-140.2038"/>
<polygon fill="#000000" stroke="#000000" points="830.4493,-143.6081 839.7348,-138.5062 829.2944,-136.704 830.4493,-143.6081"/>
</g>
<!-- 140531477784616&#45;&gt;140531498225112 -->
<g id="edge20" class="edge">
<title>140531477784616&#45;&gt;140531498225112</title>
<path fill="none" stroke="#000000" d="M796.7961,-130.5355C808.6448,-120.2141 824.3948,-107.7141 840,-99 844.5381,-96.4659 849.3593,-94.0917 854.2813,-91.8854"/>
<polygon fill="#000000" stroke="#000000" points="855.975,-94.9694 863.8229,-87.8516 853.2492,-88.5219 855.975,-94.9694"/>
</g>
<!-- 140531477784616&#45;&gt;140531498224216 -->
<g id="edge21" class="edge">
<title>140531477784616&#45;&gt;140531498224216</title>
<path fill="none" stroke="#000000" d="M786.673,-123.3502C796.7129,-99.9346 814.5372,-65.8838 840,-45 844.1884,-41.5648 848.8508,-38.5476 853.7423,-35.9011"/>
<polygon fill="#000000" stroke="#000000" points="855.2775,-39.0465 862.7417,-31.5274 852.2177,-32.7507 855.2775,-39.0465"/>
</g>
<!-- 140531498223656&#45;&gt;140531496361936 -->
<g id="edge25" class="edge">
<title>140531498223656&#45;&gt;140531496361936</title>
<path fill="none" stroke="#000000" d="M363.1349,-149C377.2126,-149 394.6865,-149 410.299,-149"/>
<polygon fill="#000000" stroke="#000000" points="410.7457,-152.5001 420.7457,-149 410.7456,-145.5001 410.7457,-152.5001"/>
</g>
<!-- 140531498223656&#45;&gt;140531497513480 -->
<g id="edge26" class="edge">
<title>140531498223656&#45;&gt;140531497513480</title>
<path fill="none" stroke="#000000" d="M349.0883,-172.7996C361.385,-194.7675 380.5988,-228.1098 399,-256 408.8148,-270.876 420.537,-286.9276 430.3167,-299.9026"/>
<polygon fill="#000000" stroke="#000000" points="427.5872,-302.0956 436.4233,-307.9415 433.1614,-297.8613 427.5872,-302.0956"/>
</g>
<!-- 140531498225224&#45;&gt;140531498223712 -->
<g id="edge27" class="edge">
<title>140531498225224&#45;&gt;140531498223712</title>
<path fill="none" stroke="#000000" d="M592.0225,-149C603.5235,-149 617.1925,-149 629.8994,-149"/>
<polygon fill="#000000" stroke="#000000" points="630.2782,-152.5001 640.2781,-149 630.2781,-145.5001 630.2782,-152.5001"/>
</g>
<!-- 140531499205184&#45;&gt;140531498223320 -->
<g id="edge28" class="edge">
<title>140531499205184&#45;&gt;140531498223320</title>
<path fill="none" stroke="#000000" d="M591.2023,-400.3258C599.3064,-398.2616 608.5449,-395.9084 617.7919,-393.553"/>
<polygon fill="#000000" stroke="#000000" points="618.9492,-396.8701 627.7759,-391.0099 617.2213,-390.0866 618.9492,-396.8701"/>
</g>
<!-- 140531499205184&#45;&gt;140531477785288 -->
<g id="edge29" class="edge">
<title>140531499205184&#45;&gt;140531477785288</title>
<path fill="none" stroke="#000000" d="M591.2023,-413.6742C600.4013,-416.0173 611.062,-418.7328 621.5375,-421.4011"/>
<polygon fill="#000000" stroke="#000000" points="620.9161,-424.8545 631.4706,-423.9312 622.644,-418.0711 620.9161,-424.8545"/>
</g>
<!-- 140531477784952&#45;&gt;140531498223600 -->
<g id="edge30" class="edge">
<title>140531477784952&#45;&gt;140531498223600</title>
<path fill="none" stroke="#000000" d="M592.0225,-332.7056C604.6333,-331.6349 619.8509,-330.3429 633.5484,-329.1799"/>
<polygon fill="#000000" stroke="#000000" points="633.9902,-332.655 643.6582,-328.3215 633.3979,-325.6801 633.9902,-332.655"/>
</g>
<!-- 140531477784280&#45;&gt;140531496455752 -->
<g id="edge31" class="edge">
<title>140531477784280&#45;&gt;140531496455752</title>
<path fill="none" stroke="#000000" d="M803.8378,-539.294C821.2332,-542.0773 844.4177,-545.7868 865.0704,-549.0913"/>
<polygon fill="#000000" stroke="#000000" points="864.5418,-552.5511 874.9692,-550.6751 865.6478,-545.639 864.5418,-552.5511"/>
</g>
<!-- 140531477784280&#45;&gt;140531498222648 -->
<g id="edge32" class="edge">
<title>140531477784280&#45;&gt;140531498222648</title>
<path fill="none" stroke="#000000" d="M803.5114,-528.8301C824.449,-523.9573 853.9201,-517.0986 877.2319,-511.6733"/>
<polygon fill="#000000" stroke="#000000" points="878.1825,-515.0457 887.1289,-509.37 876.5958,-508.2279 878.1825,-515.0457"/>
</g>
<!-- 140531477784224&#45;&gt;140531498222704 -->
<g id="edge33" class="edge">
<title>140531477784224&#45;&gt;140531498222704</title>
<path fill="none" stroke="#000000" d="M363.1349,-526C370.9188,-526 379.7409,-526 388.7126,-526"/>
<polygon fill="#000000" stroke="#000000" points="388.8582,-529.5001 398.8581,-526 388.8581,-522.5001 388.8582,-529.5001"/>
</g>
<!-- 140531477784224&#45;&gt;140531498225392 -->
<g id="edge34" class="edge">
<title>140531477784224&#45;&gt;140531498225392</title>
<path fill="none" stroke="#000000" d="M354.6518,-506.2703C366.7278,-494.0073 383.1117,-478.2927 399,-466 403.1601,-462.7813 407.6584,-459.6 412.2042,-456.564"/>
<polygon fill="#000000" stroke="#000000" points="414.4243,-459.2968 420.9283,-450.9333 410.6283,-453.4154 414.4243,-459.2968"/>
</g>
<!-- 140531477784224&#45;&gt;140531498223488 -->
<g id="edge35" class="edge">
<title>140531477784224&#45;&gt;140531498223488</title>
<path fill="none" stroke="#000000" d="M360.5631,-537.5844C376.0873,-544.9058 396.4337,-554.5015 413.8469,-562.7138"/>
<polygon fill="#000000" stroke="#000000" points="412.6323,-566.0107 423.1699,-567.1107 415.6182,-559.6794 412.6323,-566.0107"/>
</g>
<!-- 140531496455920&#45;&gt;140531498222480 -->
<g id="edge37" class="edge">
<title>140531496455920&#45;&gt;140531498222480</title>
<path fill="none" stroke="#000000" d="M1031.5131,-698.6672C987.8696,-734.4246 881.1801,-812 777,-812 246,-812 246,-812 246,-812 189.2597,-812 127.8265,-787.6388 88.3461,-768.5173"/>
<polygon fill="#000000" stroke="#000000" points="89.8028,-765.3331 79.2878,-764.0348 86.6981,-771.607 89.8028,-765.3331"/>
</g>
<!-- 140531496455920&#45;&gt;140531498223040 -->
<g id="edge38" class="edge">
<title>140531496455920&#45;&gt;140531498223040</title>
<path fill="none" stroke="#000000" d="M1065.9032,-657.6043C1092.9394,-612.1088 1152.4476,-511.9709 1181.0433,-463.8513"/>
<polygon fill="#000000" stroke="#000000" points="1184.0701,-465.609 1186.17,-455.2243 1178.0525,-462.0329 1184.0701,-465.609"/>
</g>
<!-- 140531496455920&#45;&gt;140531477741296 -->
<g id="edge40" class="edge">
<title>140531496455920&#45;&gt;140531477741296</title>
<path fill="none" stroke="#000000" d="M1075.2725,-694.816C1087.1315,-701.8185 1101.7993,-710.422 1115,-718 1128.1123,-725.5273 1142.4709,-733.6295 1155.4572,-740.9052"/>
<polygon fill="#000000" stroke="#000000" points="1153.7602,-743.9663 1164.1964,-745.793 1157.1772,-737.8569 1153.7602,-743.9663"/>
</g>
<!-- 140531496455920&#45;&gt;140531477741184 -->
<g id="edge36" class="edge">
<title>140531496455920&#45;&gt;140531477741184</title>
<path fill="none" stroke="#000000" d="M1079.2734,-682.8809C1087.1887,-683.4268 1096.3015,-684.0553 1105.8793,-684.7158"/>
<polygon fill="#000000" stroke="#000000" points="1105.781,-688.2173 1115.9981,-685.4137 1106.2626,-681.2338 1105.781,-688.2173"/>
</g>
<!-- 140531496455920&#45;&gt;140531498221976 -->
<g id="edge39" class="edge">
<title>140531496455920&#45;&gt;140531498221976</title>
<path fill="none" stroke="#000000" d="M1077.9231,-673.1337C1096.3014,-667.5568 1121.6044,-659.8787 1144.1608,-653.034"/>
<polygon fill="#000000" stroke="#000000" points="1145.41,-656.3126 1153.9628,-650.0596 1143.3774,-649.6142 1145.41,-656.3126"/>
</g>
<!-- 140531477741408&#45;&gt;140531498223152 -->
<g id="edge41" class="edge">
<title>140531477741408&#45;&gt;140531498223152</title>
<path fill="none" stroke="#000000" d="M183.003,-681C191.0277,-681 199.9665,-681 208.5309,-681"/>
<polygon fill="#000000" stroke="#000000" points="208.7051,-684.5001 218.705,-681 208.705,-677.5001 208.7051,-684.5001"/>
</g>
<!-- 140531477741408&#45;&gt;140531498221864 -->
<g id="edge42" class="edge">
<title>140531477741408&#45;&gt;140531498221864</title>
<path fill="none" stroke="#000000" d="M171.6768,-658.7041C187.1283,-636.7287 210.7494,-603.1342 227.2009,-579.7365"/>
<polygon fill="#000000" stroke="#000000" points="230.2344,-581.5072 233.1231,-571.3138 224.5082,-577.4809 230.2344,-581.5072"/>
</g>
<!-- 140531477741128&#45;&gt;140531477741016 -->
<g id="edge43" class="edge">
<title>140531477741128&#45;&gt;140531477741016</title>
<path fill="none" stroke="#000000" d="M363.2537,-681C439.1474,-681 653.0185,-681 739.7575,-681"/>
<polygon fill="#000000" stroke="#000000" points="739.9282,-684.5001 749.9282,-681 739.9282,-677.5001 739.9282,-684.5001"/>
</g>
</g>
</svg>
