<?xml version="1.0" encoding="UTF-8" standalone="no"?>
<!DOCTYPE svg PUBLIC "-//W3C//DTD SVG 1.1//EN"
 "http://www.w3.org/Graphics/SVG/1.1/DTD/svg11.dtd">
<!-- Generated by graphviz version 2.40.1 (20161225.0304)
 -->
<!-- Title: alpha_classic_net_1585321097.2104568 Pages: 1 -->
<svg width="254pt" height="224pt"
 viewBox="0.00 0.00 254.00 224.00" xmlns="http://www.w3.org/2000/svg" xmlns:xlink="http://www.w3.org/1999/xlink">
<g id="graph0" class="graph" transform="scale(1 1) rotate(0) translate(4 220)">
<title>alpha_classic_net_1585321097.2104568</title>
<!-- 140531499647272 -->
<g id="node1" class="node">
<title>140531499647272</title>
<polygon fill="none" stroke="#000000" points="70,-36 16,-36 16,0 70,0 70,-36"/>
<text text-anchor="middle" x="43" y="-14.3" font-family="Times,serif" font-size="14.00" fill="#000000">Log</text>
</g>
<!-- 140531499647664 -->
<g id="node2" class="node">
<title>140531499647664</title>
<polygon fill="none" stroke="#000000" points="70,-90 16,-90 16,-54 70,-54 70,-90"/>
<text text-anchor="middle" x="43" y="-68.3" font-family="Times,serif" font-size="14.00" fill="#000000">Root</text>
</g>
<!-- 140531499647104 -->
<g id="node6" class="node">
<title>140531499647104</title>
<ellipse fill="#ffa500" stroke="#000000" cx="184" cy="-72" rx="27" ry="27"/>
</g>
<!-- 140531499647664&#45;&gt;140531499647104 -->
<g id="edge1" class="edge">
<title>140531499647664&#45;&gt;140531499647104</title>
<path fill="none" stroke="#000000" d="M70.1862,-72C91.9356,-72 122.6645,-72 146.7114,-72"/>
<polygon fill="#000000" stroke="#000000" points="146.8973,-75.5001 156.8972,-72 146.8972,-68.5001 146.8973,-75.5001"/>
</g>
<!-- 140531499647496 -->
<g id="node3" class="node">
<title>140531499647496</title>
<polygon fill="none" stroke="#000000" points="86,-144 0,-144 0,-108 86,-108 86,-144"/>
<text text-anchor="middle" x="43" y="-122.3" font-family="Times,serif" font-size="14.00" fill="#000000">TradeConfig</text>
</g>
<!-- 140531499647552 -->
<g id="node4" class="node">
<title>140531499647552</title>
<polygon fill="none" stroke="#000000" points="246,-207 122,-207 122,-171 246,-171 246,-207"/>
<text text-anchor="middle" x="184" y="-185.3" font-family="Times,serif" font-size="14.00" fill="#000000">TradeConfigServlet</text>
</g>
<!-- 140531499647328 -->
<g id="node5" class="node">
<title>140531499647328</title>
<ellipse fill="#00ff00" stroke="#000000" cx="43" cy="-189" rx="27" ry="27"/>
<text text-anchor="middle" x="43" y="-185.3" font-family="Times,serif" font-size="14.00" fill="#000000">1</text>
</g>
<!-- 140531499647328&#45;&gt;140531499647552 -->
<g id="edge2" class="edge">
<title>140531499647328&#45;&gt;140531499647552</title>
<path fill="none" stroke="#000000" d="M70.1862,-189C82.15,-189 96.8308,-189 111.6219,-189"/>
<polygon fill="#000000" stroke="#000000" points="111.8476,-192.5001 121.8475,-189 111.8475,-185.5001 111.8476,-192.5001"/>
</g>
</g>
</svg>
