<?xml version="1.0" encoding="UTF-8" standalone="no"?>
<!DOCTYPE svg PUBLIC "-//W3C//DTD SVG 1.1//EN"
 "http://www.w3.org/Graphics/SVG/1.1/DTD/svg11.dtd">
<!-- Generated by graphviz version 2.40.1 (20161225.0304)
 -->
<!-- Title: alpha_plus_net_1586496217.7836452 Pages: 1 -->
<svg width="312pt" height="224pt"
 viewBox="0.00 0.00 312.00 224.00" xmlns="http://www.w3.org/2000/svg" xmlns:xlink="http://www.w3.org/1999/xlink">
<g id="graph0" class="graph" transform="scale(1 1) rotate(0) translate(4 220)">
<title>alpha_plus_net_1586496217.7836452</title>
<!-- 139748197736520 -->
<g id="node1" class="node">
<title>139748197736520</title>
<polygon fill="none" stroke="#000000" points="89,-36 35,-36 35,0 89,0 89,-36"/>
<text text-anchor="middle" x="62" y="-14.3" font-family="Times,serif" font-size="14.00" fill="#000000">Log</text>
</g>
<!-- 139748197736912 -->
<g id="node2" class="node">
<title>139748197736912</title>
<polygon fill="none" stroke="#000000" points="214,-99 160,-99 160,-63 214,-63 214,-99"/>
<text text-anchor="middle" x="187" y="-77.3" font-family="Times,serif" font-size="14.00" fill="#000000">Root</text>
</g>
<!-- 139748197737640 -->
<g id="node6" class="node">
<title>139748197737640</title>
<ellipse fill="#ffa500" stroke="#000000" cx="277" cy="-81" rx="27" ry="27"/>
</g>
<!-- 139748197736912&#45;&gt;139748197737640 -->
<g id="edge2" class="edge">
<title>139748197736912&#45;&gt;139748197737640</title>
<path fill="none" stroke="#000000" d="M214.003,-81C222.0277,-81 230.9665,-81 239.5309,-81"/>
<polygon fill="#000000" stroke="#000000" points="239.7051,-84.5001 249.705,-81 239.705,-77.5001 239.7051,-84.5001"/>
</g>
<!-- 139748197737248 -->
<g id="node3" class="node">
<title>139748197737248</title>
<polygon fill="none" stroke="#000000" points="105,-162 19,-162 19,-126 105,-126 105,-162"/>
<text text-anchor="middle" x="62" y="-140.3" font-family="Times,serif" font-size="14.00" fill="#000000">TradeConfig</text>
</g>
<!-- 139748197738984 -->
<g id="node4" class="node">
<title>139748197738984</title>
<polygon fill="none" stroke="#000000" points="124,-216 0,-216 0,-180 124,-180 124,-216"/>
<text text-anchor="middle" x="62" y="-194.3" font-family="Times,serif" font-size="14.00" fill="#000000">TradeConfigServlet</text>
</g>
<!-- 139748197737976 -->
<g id="node5" class="node">
<title>139748197737976</title>
<ellipse fill="#00ff00" stroke="#000000" cx="62" cy="-81" rx="27" ry="27"/>
<text text-anchor="middle" x="62" y="-77.3" font-family="Times,serif" font-size="14.00" fill="#000000">1</text>
</g>
<!-- 139748197737976&#45;&gt;139748197736912 -->
<g id="edge1" class="edge">
<title>139748197737976&#45;&gt;139748197736912</title>
<path fill="none" stroke="#000000" d="M89.1231,-81C106.8957,-81 130.3589,-81 149.8572,-81"/>
<polygon fill="#000000" stroke="#000000" points="149.9298,-84.5001 159.9298,-81 149.9298,-77.5001 149.9298,-84.5001"/>
</g>
</g>
</svg>
