<?xml version="1.0" encoding="UTF-8" standalone="no"?>
<!DOCTYPE svg PUBLIC "-//W3C//DTD SVG 1.1//EN"
 "http://www.w3.org/Graphics/SVG/1.1/DTD/svg11.dtd">
<!-- Generated by graphviz version 2.40.1 (20161225.0304)
 -->
<!-- Title: %3 Pages: 1 -->
<svg width="1694pt" height="370pt"
 viewBox="0.00 0.00 1694.00 370.00" xmlns="http://www.w3.org/2000/svg" xmlns:xlink="http://www.w3.org/1999/xlink">
<g id="graph0" class="graph" transform="scale(1 1) rotate(0) translate(4 366)">
<title>%3</title>
<!-- 139748197737808 -->
<g id="node1" class="node">
<title>139748197737808</title>
<polygon fill="none" stroke="#000000" points="54,-45 0,-45 0,-9 54,-9 54,-45"/>
<text text-anchor="middle" x="27" y="-23.3" font-family="Times,serif" font-size="14.00" fill="#000000">Log</text>
</g>
<!-- 139748197607912 -->
<g id="node13" class="node">
<title>139748197607912</title>
<ellipse fill="none" stroke="#000000" cx="117" cy="-55" rx="27" ry="27"/>
<text text-anchor="middle" x="117" y="-51.3" font-family="Times,serif" font-size="14.00" fill="#000000">intplace_Log</text>
</g>
<!-- 139748197737808&#45;&gt;139748197607912 -->
<g id="edge1" class="edge">
<title>139748197737808&#45;&gt;139748197607912</title>
<path fill="none" stroke="#000000" d="M54.003,-35.4009C62.5964,-38.0744 72.2382,-41.0741 81.3457,-43.9076"/>
<polygon fill="#000000" stroke="#000000" points="80.3554,-47.2649 90.9437,-46.8936 82.4349,-40.5809 80.3554,-47.2649"/>
</g>
<!-- 139748197737696 -->
<g id="node2" class="node">
<title>139748197737696</title>
<polygon fill="none" stroke="#000000" points="1024,-353 970,-353 970,-317 1024,-317 1024,-353"/>
<text text-anchor="middle" x="997" y="-331.3" font-family="Times,serif" font-size="14.00" fill="#000000">Root</text>
</g>
<!-- 139748197737304 -->
<g id="node27" class="node">
<title>139748197737304</title>
<ellipse fill="#ffa500" stroke="#000000" cx="1087" cy="-335" rx="27" ry="27"/>
</g>
<!-- 139748197737696&#45;&gt;139748197737304 -->
<g id="edge2" class="edge">
<title>139748197737696&#45;&gt;139748197737304</title>
<path fill="none" stroke="#000000" d="M1024.003,-335C1032.0277,-335 1040.9665,-335 1049.5309,-335"/>
<polygon fill="#000000" stroke="#000000" points="1049.7051,-338.5001 1059.705,-335 1049.705,-331.5001 1049.7051,-338.5001"/>
</g>
<!-- 139748197738032 -->
<g id="node3" class="node">
<title>139748197738032</title>
<polygon fill="none" stroke="#000000" points="1236,-181 1150,-181 1150,-145 1236,-145 1236,-181"/>
<text text-anchor="middle" x="1193" y="-159.3" font-family="Times,serif" font-size="14.00" fill="#000000">TradeConfig</text>
</g>
<!-- 139748197740440 -->
<g id="node14" class="node">
<title>139748197740440</title>
<ellipse fill="none" stroke="#000000" cx="1299" cy="-163" rx="27" ry="27"/>
<text text-anchor="middle" x="1299" y="-159.3" font-family="Times,serif" font-size="14.00" fill="#000000">intplace_TradeConfig</text>
</g>
<!-- 139748197738032&#45;&gt;139748197740440 -->
<g id="edge3" class="edge">
<title>139748197738032&#45;&gt;139748197740440</title>
<path fill="none" stroke="#000000" d="M1236.1143,-163C1244.5776,-163 1253.3896,-163 1261.6453,-163"/>
<polygon fill="#000000" stroke="#000000" points="1261.7368,-166.5001 1271.7368,-163 1261.7368,-159.5001 1261.7368,-166.5001"/>
</g>
<!-- 139748197740328 -->
<g id="node4" class="node">
<title>139748197740328</title>
<polygon fill="none" stroke="#000000" points="664,-235 540,-235 540,-199 664,-199 664,-235"/>
<text text-anchor="middle" x="602" y="-213.3" font-family="Times,serif" font-size="14.00" fill="#000000">TradeConfigServlet</text>
</g>
<!-- 139748197606008 -->
<g id="node15" class="node">
<title>139748197606008</title>
<ellipse fill="none" stroke="#000000" cx="727" cy="-220" rx="27" ry="27"/>
<text text-anchor="middle" x="727" y="-216.3" font-family="Times,serif" font-size="14.00" fill="#000000">intplace_TradeConfigServlet</text>
</g>
<!-- 139748197740328&#45;&gt;139748197606008 -->
<g id="edge4" class="edge">
<title>139748197740328&#45;&gt;139748197606008</title>
<path fill="none" stroke="#000000" d="M664.1338,-218.4912C672.9101,-218.7018 681.6961,-218.9127 689.7995,-219.1072"/>
<polygon fill="#000000" stroke="#000000" points="689.9196,-222.611 700.0007,-219.352 690.0876,-215.613 689.9196,-222.611"/>
</g>
<!-- 139748197739488 -->
<g id="node5" class="node">
<title>139748197739488</title>
<polygon fill="none" stroke="#000000" points="414,-160 360,-160 360,-124 414,-124 414,-160"/>
<text text-anchor="middle" x="387" y="-138.3" font-family="Times,serif" font-size="14.00" fill="#000000">hid_1</text>
</g>
<!-- 139748197738704 -->
<g id="node19" class="node">
<title>139748197738704</title>
<ellipse fill="none" stroke="#000000" cx="477" cy="-207" rx="27" ry="27"/>
<text text-anchor="middle" x="477" y="-203.3" font-family="Times,serif" font-size="14.00" fill="#000000">pre_TradeConfigServlet</text>
</g>
<!-- 139748197739488&#45;&gt;139748197738704 -->
<g id="edge5" class="edge">
<title>139748197739488&#45;&gt;139748197738704</title>
<path fill="none" stroke="#000000" d="M412.07,-160.1061C422.7634,-167.8291 435.3384,-176.9111 446.5597,-185.0153"/>
<polygon fill="#000000" stroke="#000000" points="444.6671,-187.9658 454.8232,-190.9834 448.7656,-182.2911 444.6671,-187.9658"/>
</g>
<!-- 139748197740160 -->
<g id="node6" class="node">
<title>139748197740160</title>
<polygon fill="none" stroke="#000000" points="414,-225 360,-225 360,-189 414,-189 414,-225"/>
<text text-anchor="middle" x="387" y="-203.3" font-family="Times,serif" font-size="14.00" fill="#000000">hid_2</text>
</g>
<!-- 139748197740160&#45;&gt;139748197738704 -->
<g id="edge6" class="edge">
<title>139748197740160&#45;&gt;139748197738704</title>
<path fill="none" stroke="#000000" d="M414.003,-207C422.0277,-207 430.9665,-207 439.5309,-207"/>
<polygon fill="#000000" stroke="#000000" points="439.7051,-210.5001 449.705,-207 439.705,-203.5001 439.7051,-210.5001"/>
</g>
<!-- 139748197737472 -->
<g id="node7" class="node">
<title>139748197737472</title>
<polygon fill="none" stroke="#000000" points="1024,-181 970,-181 970,-145 1024,-145 1024,-181"/>
<text text-anchor="middle" x="997" y="-159.3" font-family="Times,serif" font-size="14.00" fill="#000000">hid_3</text>
</g>
<!-- 139748197739152 -->
<g id="node18" class="node">
<title>139748197739152</title>
<ellipse fill="none" stroke="#000000" cx="1087" cy="-163" rx="27" ry="27"/>
<text text-anchor="middle" x="1087" y="-159.3" font-family="Times,serif" font-size="14.00" fill="#000000">pre_TradeConfig</text>
</g>
<!-- 139748197737472&#45;&gt;139748197739152 -->
<g id="edge7" class="edge">
<title>139748197737472&#45;&gt;139748197739152</title>
<path fill="none" stroke="#000000" d="M1024.003,-163C1032.0277,-163 1040.9665,-163 1049.5309,-163"/>
<polygon fill="#000000" stroke="#000000" points="1049.7051,-166.5001 1059.705,-163 1049.705,-159.5001 1049.7051,-166.5001"/>
</g>
<!-- 139748197736576 -->
<g id="node8" class="node">
<title>139748197736576</title>
<polygon fill="none" stroke="#000000" points="1596,-188 1542,-188 1542,-152 1596,-152 1596,-188"/>
<text text-anchor="middle" x="1569" y="-166.3" font-family="Times,serif" font-size="14.00" fill="#000000">hid_4</text>
</g>
<!-- 139748197739376 -->
<g id="node16" class="node">
<title>139748197739376</title>
<ellipse fill="none" stroke="#000000" cx="1659" cy="-82" rx="27" ry="27"/>
<text text-anchor="middle" x="1659" y="-78.3" font-family="Times,serif" font-size="14.00" fill="#000000">pre_Log</text>
</g>
<!-- 139748197736576&#45;&gt;139748197739376 -->
<g id="edge8" class="edge">
<title>139748197736576&#45;&gt;139748197739376</title>
<path fill="none" stroke="#000000" d="M1587.6481,-151.7663C1600.5384,-139.1624 1617.883,-122.2033 1632.2436,-108.1618"/>
<polygon fill="#000000" stroke="#000000" points="1634.7387,-110.6172 1639.4419,-101.1235 1629.8449,-105.6122 1634.7387,-110.6172"/>
</g>
<!-- 139748197606120 -->
<g id="node9" class="node">
<title>139748197606120</title>
<polygon fill="none" stroke="#000000" points="844,-243 790,-243 790,-207 844,-207 844,-243"/>
<text text-anchor="middle" x="817" y="-221.3" font-family="Times,serif" font-size="14.00" fill="#000000">hid_5</text>
</g>
<!-- 139748197738368 -->
<g id="node17" class="node">
<title>139748197738368</title>
<ellipse fill="none" stroke="#000000" cx="907" cy="-335" rx="27" ry="27"/>
<text text-anchor="middle" x="907" y="-331.3" font-family="Times,serif" font-size="14.00" fill="#000000">pre_Root</text>
</g>
<!-- 139748197606120&#45;&gt;139748197738368 -->
<g id="edge9" class="edge">
<title>139748197606120&#45;&gt;139748197738368</title>
<path fill="none" stroke="#000000" d="M831.8617,-243.1643C845.8158,-260.2193 866.9257,-286.0202 883.2207,-305.9364"/>
<polygon fill="#000000" stroke="#000000" points="880.6092,-308.2717 889.6504,-313.795 886.0269,-303.839 880.6092,-308.2717"/>
</g>
<!-- 139748197605784 -->
<g id="node20" class="node">
<title>139748197605784</title>
<ellipse fill="none" stroke="#000000" cx="1193" cy="-249" rx="27" ry="27"/>
<text text-anchor="middle" x="1193" y="-245.3" font-family="Times,serif" font-size="14.00" fill="#000000">splace_in_Log_TradeConfigServlet_0</text>
</g>
<!-- 139748197606120&#45;&gt;139748197605784 -->
<g id="edge10" class="edge">
<title>139748197606120&#45;&gt;139748197605784</title>
<path fill="none" stroke="#000000" d="M841.7314,-243.1106C852.8463,-250.1662 866.4855,-257.411 880,-261 977.1797,-286.8075 1097.2607,-269.0757 1156.467,-257.2352"/>
<polygon fill="#000000" stroke="#000000" points="1157.3672,-260.6233 1166.455,-255.1768 1155.9543,-253.7674 1157.3672,-260.6233"/>
</g>
<!-- 139748197736968 -->
<g id="node23" class="node">
<title>139748197736968</title>
<ellipse fill="none" stroke="#000000" cx="907" cy="-153" rx="27" ry="27"/>
<text text-anchor="middle" x="907" y="-149.3" font-family="Times,serif" font-size="14.00" fill="#000000">splace_in_TradeConfigServlet_TradeConfigServlet_0</text>
</g>
<!-- 139748197606120&#45;&gt;139748197736968 -->
<g id="edge11" class="edge">
<title>139748197606120&#45;&gt;139748197736968</title>
<path fill="none" stroke="#000000" d="M839.7108,-206.8314C851.3298,-197.5362 865.601,-186.1192 878.0062,-176.195"/>
<polygon fill="#000000" stroke="#000000" points="880.2199,-178.9063 885.8421,-169.9263 875.847,-173.4402 880.2199,-178.9063"/>
</g>
<!-- 139748197738816 -->
<g id="node26" class="node">
<title>139748197738816</title>
<ellipse fill="none" stroke="#000000" cx="907" cy="-225" rx="27" ry="27"/>
<text text-anchor="middle" x="907" y="-221.3" font-family="Times,serif" font-size="14.00" fill="#000000">splace_in_TradeConfig_TradeConfigServlet_0</text>
</g>
<!-- 139748197606120&#45;&gt;139748197738816 -->
<g id="edge12" class="edge">
<title>139748197606120&#45;&gt;139748197738816</title>
<path fill="none" stroke="#000000" d="M844.003,-225C852.0277,-225 860.9665,-225 869.5309,-225"/>
<polygon fill="#000000" stroke="#000000" points="869.7051,-228.5001 879.705,-225 869.705,-221.5001 869.7051,-228.5001"/>
</g>
<!-- 139748197608248 -->
<g id="node10" class="node">
<title>139748197608248</title>
<polygon fill="none" stroke="#000000" points="1416,-181 1362,-181 1362,-145 1416,-145 1416,-181"/>
<text text-anchor="middle" x="1389" y="-159.3" font-family="Times,serif" font-size="14.00" fill="#000000">hid_7</text>
</g>
<!-- 139748197739712 -->
<g id="node21" class="node">
<title>139748197739712</title>
<ellipse fill="none" stroke="#000000" cx="1479" cy="-170" rx="27" ry="27"/>
<text text-anchor="middle" x="1479" y="-166.3" font-family="Times,serif" font-size="14.00" fill="#000000">splace_in_Log_TradeConfig_0</text>
</g>
<!-- 139748197608248&#45;&gt;139748197739712 -->
<g id="edge13" class="edge">
<title>139748197608248&#45;&gt;139748197739712</title>
<path fill="none" stroke="#000000" d="M1416.003,-165.1002C1424.1013,-165.7301 1433.1306,-166.4324 1441.7665,-167.1041"/>
<polygon fill="#000000" stroke="#000000" points="1441.7748,-170.6152 1452.0161,-167.9013 1442.3176,-163.6363 1441.7748,-170.6152"/>
</g>
<!-- 139748197739992 -->
<g id="node24" class="node">
<title>139748197739992</title>
<ellipse fill="none" stroke="#000000" cx="1479" cy="-98" rx="27" ry="27"/>
<text text-anchor="middle" x="1479" y="-94.3" font-family="Times,serif" font-size="14.00" fill="#000000">splace_in_TradeConfigServlet_TradeConfig_0</text>
</g>
<!-- 139748197608248&#45;&gt;139748197739992 -->
<g id="edge14" class="edge">
<title>139748197608248&#45;&gt;139748197739992</title>
<path fill="none" stroke="#000000" d="M1414.07,-144.8939C1424.7634,-137.1709 1437.3384,-128.0889 1448.5597,-119.9847"/>
<polygon fill="#000000" stroke="#000000" points="1450.7656,-122.7089 1456.8232,-114.0166 1446.6671,-117.0342 1450.7656,-122.7089"/>
</g>
<!-- 139748197605504 -->
<g id="node11" class="node">
<title>139748197605504</title>
<polygon fill="none" stroke="#000000" points="234,-73 180,-73 180,-37 234,-37 234,-73"/>
<text text-anchor="middle" x="207" y="-51.3" font-family="Times,serif" font-size="14.00" fill="#000000">hid_9</text>
</g>
<!-- 139748197737752 -->
<g id="node22" class="node">
<title>139748197737752</title>
<ellipse fill="none" stroke="#000000" cx="297" cy="-123" rx="27" ry="27"/>
<text text-anchor="middle" x="297" y="-119.3" font-family="Times,serif" font-size="14.00" fill="#000000">splace_in_TradeConfigServlet_Log_0</text>
</g>
<!-- 139748197605504&#45;&gt;139748197737752 -->
<g id="edge15" class="edge">
<title>139748197605504&#45;&gt;139748197737752</title>
<path fill="none" stroke="#000000" d="M231.1183,-73.2228C242.1797,-81.5802 255.4038,-91.5718 267.0918,-100.4027"/>
<polygon fill="#000000" stroke="#000000" points="265.1894,-103.352 275.2781,-106.5879 269.4093,-97.767 265.1894,-103.352"/>
</g>
<!-- 139748197737920 -->
<g id="node25" class="node">
<title>139748197737920</title>
<ellipse fill="none" stroke="#000000" cx="477" cy="-55" rx="27" ry="27"/>
<text text-anchor="middle" x="477" y="-51.3" font-family="Times,serif" font-size="14.00" fill="#000000">splace_in_TradeConfig_Log_0</text>
</g>
<!-- 139748197605504&#45;&gt;139748197737920 -->
<g id="edge16" class="edge">
<title>139748197605504&#45;&gt;139748197737920</title>
<path fill="none" stroke="#000000" d="M234.1248,-55C282.7438,-55 384.7806,-55 439.8565,-55"/>
<polygon fill="#000000" stroke="#000000" points="439.8932,-58.5001 449.8932,-55 439.8932,-51.5001 439.8932,-58.5001"/>
</g>
<!-- 139748197740496 -->
<g id="node12" class="node">
<title>139748197740496</title>
<ellipse fill="#00ff00" stroke="#000000" cx="297" cy="-207" rx="27" ry="27"/>
<text text-anchor="middle" x="297" y="-203.3" font-family="Times,serif" font-size="14.00" fill="#000000">1</text>
</g>
<!-- 139748197740496&#45;&gt;139748197740160 -->
<g id="edge24" class="edge">
<title>139748197740496&#45;&gt;139748197740160</title>
<path fill="none" stroke="#000000" d="M324.003,-207C332.0277,-207 340.9665,-207 349.5309,-207"/>
<polygon fill="#000000" stroke="#000000" points="349.7051,-210.5001 359.705,-207 349.705,-203.5001 349.7051,-210.5001"/>
</g>
<!-- 139748197607912&#45;&gt;139748197605504 -->
<g id="edge17" class="edge">
<title>139748197607912&#45;&gt;139748197605504</title>
<path fill="none" stroke="#000000" d="M144.003,-55C152.0277,-55 160.9665,-55 169.5309,-55"/>
<polygon fill="#000000" stroke="#000000" points="169.7051,-58.5001 179.705,-55 169.705,-51.5001 169.7051,-58.5001"/>
</g>
<!-- 139748197740440&#45;&gt;139748197608248 -->
<g id="edge18" class="edge">
<title>139748197740440&#45;&gt;139748197608248</title>
<path fill="none" stroke="#000000" d="M1326.003,-163C1334.0277,-163 1342.9665,-163 1351.5309,-163"/>
<polygon fill="#000000" stroke="#000000" points="1351.7051,-166.5001 1361.705,-163 1351.705,-159.5001 1351.7051,-166.5001"/>
</g>
<!-- 139748197606008&#45;&gt;139748197606120 -->
<g id="edge19" class="edge">
<title>139748197606008&#45;&gt;139748197606120</title>
<path fill="none" stroke="#000000" d="M754.003,-221.5002C762.0277,-221.946 770.9665,-222.4426 779.5309,-222.9184"/>
<polygon fill="#000000" stroke="#000000" points="779.5262,-226.4234 789.705,-223.4836 779.9146,-219.4342 779.5262,-226.4234"/>
</g>
<!-- 139748197739376&#45;&gt;139748197737808 -->
<g id="edge20" class="edge">
<title>139748197739376&#45;&gt;139748197737808</title>
<path fill="none" stroke="#000000" d="M1637.7084,-65.0095C1605.3999,-40.9912 1541.1552,0 1479,0 207,0 207,0 207,0 157.2442,0 100.5994,-10.2143 64.363,-18.0779"/>
<polygon fill="#000000" stroke="#000000" points="63.2566,-14.7384 54.2549,-20.3258 64.7762,-21.5715 63.2566,-14.7384"/>
</g>
<!-- 139748197738368&#45;&gt;139748197737696 -->
<g id="edge21" class="edge">
<title>139748197738368&#45;&gt;139748197737696</title>
<path fill="none" stroke="#000000" d="M934.003,-335C942.0277,-335 950.9665,-335 959.5309,-335"/>
<polygon fill="#000000" stroke="#000000" points="959.7051,-338.5001 969.705,-335 959.705,-331.5001 959.7051,-338.5001"/>
</g>
<!-- 139748197739152&#45;&gt;139748197738032 -->
<g id="edge22" class="edge">
<title>139748197739152&#45;&gt;139748197738032</title>
<path fill="none" stroke="#000000" d="M1114.0225,-163C1121.9553,-163 1130.9196,-163 1139.8881,-163"/>
<polygon fill="#000000" stroke="#000000" points="1139.961,-166.5001 1149.961,-163 1139.9609,-159.5001 1139.961,-166.5001"/>
</g>
<!-- 139748197738704&#45;&gt;139748197740328 -->
<g id="edge23" class="edge">
<title>139748197738704&#45;&gt;139748197740328</title>
<path fill="none" stroke="#000000" d="M504.1231,-209.1699C511.7921,-209.7834 520.5207,-210.4817 529.533,-211.2026"/>
<polygon fill="#000000" stroke="#000000" points="529.5402,-214.7143 539.7875,-212.023 530.0985,-207.7366 529.5402,-214.7143"/>
</g>
<!-- 139748197605784&#45;&gt;139748197736576 -->
<g id="edge25" class="edge">
<title>139748197605784&#45;&gt;139748197736576</title>
<path fill="none" stroke="#000000" d="M1220.1711,-248.7157C1275.475,-247.3975 1404.478,-240.5285 1506,-206 1515.3827,-202.8089 1524.9483,-198.1792 1533.6983,-193.2966"/>
<polygon fill="#000000" stroke="#000000" points="1535.6107,-196.2329 1542.4797,-188.1664 1532.0796,-190.1888 1535.6107,-196.2329"/>
</g>
<!-- 139748197739712&#45;&gt;139748197736576 -->
<g id="edge26" class="edge">
<title>139748197739712&#45;&gt;139748197736576</title>
<path fill="none" stroke="#000000" d="M1506.003,-170C1514.0277,-170 1522.9665,-170 1531.5309,-170"/>
<polygon fill="#000000" stroke="#000000" points="1531.7051,-173.5001 1541.705,-170 1531.705,-166.5001 1531.7051,-173.5001"/>
</g>
<!-- 139748197737752&#45;&gt;139748197739488 -->
<g id="edge27" class="edge">
<title>139748197737752&#45;&gt;139748197739488</title>
<path fill="none" stroke="#000000" d="M323.5162,-128.5979C331.7151,-130.3288 340.9049,-132.2688 349.6915,-134.1238"/>
<polygon fill="#000000" stroke="#000000" points="349.2302,-137.6034 359.7375,-136.2446 350.6761,-130.7544 349.2302,-137.6034"/>
</g>
<!-- 139748197736968&#45;&gt;139748197739488 -->
<g id="edge28" class="edge">
<title>139748197736968&#45;&gt;139748197739488</title>
<path fill="none" stroke="#000000" d="M879.8639,-152.0215C844.6326,-150.8373 781.2321,-149 727,-149 602,-149 602,-149 602,-149 539.6844,-149 467.263,-146.0261 424.3835,-143.9551"/>
<polygon fill="#000000" stroke="#000000" points="424.3028,-140.447 414.1426,-143.4504 423.9581,-147.4385 424.3028,-140.447"/>
</g>
<!-- 139748197739992&#45;&gt;139748197739488 -->
<g id="edge29" class="edge">
<title>139748197739992&#45;&gt;139748197739488</title>
<path fill="none" stroke="#000000" d="M1451.8597,-98C1416.624,-98 1353.2188,-98 1299,-98 997,-98 997,-98 997,-98 779.2686,-98 518.952,-126.2323 423.9798,-137.4673"/>
<polygon fill="#000000" stroke="#000000" points="423.5222,-133.997 414.0071,-138.6567 424.3513,-140.9477 423.5222,-133.997"/>
</g>
<!-- 139748197737920&#45;&gt;139748197737472 -->
<g id="edge30" class="edge">
<title>139748197737920&#45;&gt;139748197737472</title>
<path fill="none" stroke="#000000" d="M504.0049,-55.5363C549.8487,-56.3992 645.831,-58 727,-58 727,-58 727,-58 817,-58 879.9671,-58 940.5156,-106.5335 972.8292,-137.6075"/>
<polygon fill="#000000" stroke="#000000" points="970.4618,-140.1884 980.0431,-144.7104 975.373,-135.2004 970.4618,-140.1884"/>
</g>
<!-- 139748197738816&#45;&gt;139748197737472 -->
<g id="edge31" class="edge">
<title>139748197738816&#45;&gt;139748197737472</title>
<path fill="none" stroke="#000000" d="M929.2472,-209.6742C939.2855,-202.7589 951.3736,-194.4315 962.5434,-186.7368"/>
<polygon fill="#000000" stroke="#000000" points="964.6073,-189.5651 970.8568,-181.0097 960.6362,-183.8006 964.6073,-189.5651"/>
</g>
</g>
</svg>
