<?xml version="1.0" encoding="UTF-8" standalone="no"?>
<!DOCTYPE svg PUBLIC "-//W3C//DTD SVG 1.1//EN"
 "http://www.w3.org/Graphics/SVG/1.1/DTD/svg11.dtd">
<!-- Generated by graphviz version 2.40.1 (20161225.0304)
 -->
<!-- Title: %3 Pages: 1 -->
<svg width="794pt" height="272pt"
 viewBox="0.00 0.00 794.00 272.00" xmlns="http://www.w3.org/2000/svg" xmlns:xlink="http://www.w3.org/1999/xlink">
<g id="graph0" class="graph" transform="scale(1 1) rotate(0) translate(4 268)">
<title>%3</title>
<!-- 140531500823832 -->
<g id="node1" class="node">
<title>140531500823832</title>
<polygon fill="none" stroke="#000000" points="340,-227 286,-227 286,-191 340,-191 340,-227"/>
<text text-anchor="middle" x="313" y="-205.3" font-family="Times,serif" font-size="14.00" fill="#000000">Root</text>
</g>
<!-- 140531500823944 -->
<g id="node17" class="node">
<title>140531500823944</title>
<ellipse fill="#ffa500" stroke="#000000" cx="419" cy="-209" rx="27" ry="27"/>
</g>
<!-- 140531500823832&#45;&gt;140531500823944 -->
<g id="edge1" class="edge">
<title>140531500823832&#45;&gt;140531500823944</title>
<path fill="none" stroke="#000000" d="M340.0225,-209C352.6333,-209 367.8509,-209 381.5484,-209"/>
<polygon fill="#000000" stroke="#000000" points="381.6583,-212.5001 391.6582,-209 381.6582,-205.5001 381.6583,-212.5001"/>
</g>
<!-- 140531500823776 -->
<g id="node2" class="node">
<title>140531500823776</title>
<polygon fill="none" stroke="#000000" points="356,-155 270,-155 270,-119 356,-119 356,-155"/>
<text text-anchor="middle" x="313" y="-133.3" font-family="Times,serif" font-size="14.00" fill="#000000">TradeConfig</text>
</g>
<!-- 140531500823384 -->
<g id="node15" class="node">
<title>140531500823384</title>
<ellipse fill="none" stroke="#000000" cx="419" cy="-137" rx="27" ry="27"/>
<text text-anchor="middle" x="419" y="-133.3" font-family="Times,serif" font-size="14.00" fill="#000000">splace_in_TradeConfigServlet_0</text>
</g>
<!-- 140531500823776&#45;&gt;140531500823384 -->
<g id="edge2" class="edge">
<title>140531500823776&#45;&gt;140531500823384</title>
<path fill="none" stroke="#000000" d="M356.1143,-137C364.5776,-137 373.3896,-137 381.6453,-137"/>
<polygon fill="#000000" stroke="#000000" points="381.7368,-140.5001 391.7368,-137 381.7368,-133.5001 381.7368,-140.5001"/>
</g>
<!-- 140531500824616 -->
<g id="node3" class="node">
<title>140531500824616</title>
<polygon fill="none" stroke="#000000" points="786,-191 662,-191 662,-155 786,-155 786,-191"/>
<text text-anchor="middle" x="724" y="-169.3" font-family="Times,serif" font-size="14.00" fill="#000000">TradeConfigServlet</text>
</g>
<!-- 140531500822600 -->
<g id="node11" class="node">
<title>140531500822600</title>
<ellipse fill="none" stroke="#000000" cx="27" cy="-169" rx="27" ry="27"/>
<text text-anchor="middle" x="27" y="-165.3" font-family="Times,serif" font-size="14.00" fill="#000000">intplace_TradeConfigServlet</text>
</g>
<!-- 140531500824616&#45;&gt;140531500822600 -->
<g id="edge3" class="edge">
<title>140531500824616&#45;&gt;140531500822600</title>
<path fill="none" stroke="#000000" d="M699.301,-191.1965C660.7414,-217.7526 582.9712,-264 509,-264 207,-264 207,-264 207,-264 152.4618,-264 137.188,-254.3444 90,-227 76.0997,-218.9451 62.709,-207.3557 51.8744,-196.6511"/>
<polygon fill="#000000" stroke="#000000" points="54.3049,-194.1307 44.8071,-189.4359 49.3042,-199.0289 54.3049,-194.1307"/>
</g>
<!-- 140531500823552 -->
<g id="node4" class="node">
<title>140531500823552</title>
<polygon fill="none" stroke="#000000" points="536,-155 482,-155 482,-119 536,-119 536,-155"/>
<text text-anchor="middle" x="509" y="-133.3" font-family="Times,serif" font-size="14.00" fill="#000000">hid_1</text>
</g>
<!-- 140531500823720 -->
<g id="node14" class="node">
<title>140531500823720</title>
<ellipse fill="none" stroke="#000000" cx="599" cy="-110" rx="27" ry="27"/>
<text text-anchor="middle" x="599" y="-106.3" font-family="Times,serif" font-size="14.00" fill="#000000">pre_TradeConfigServlet</text>
</g>
<!-- 140531500823552&#45;&gt;140531500823720 -->
<g id="edge4" class="edge">
<title>140531500823552&#45;&gt;140531500823720</title>
<path fill="none" stroke="#000000" d="M536.003,-128.8991C544.5964,-126.3211 554.2382,-123.4285 563.3457,-120.6963"/>
<polygon fill="#000000" stroke="#000000" points="564.3712,-124.0428 572.9437,-117.8169 562.3597,-117.338 564.3712,-124.0428"/>
</g>
<!-- 140531500823272 -->
<g id="node5" class="node">
<title>140531500823272</title>
<polygon fill="none" stroke="#000000" points="536,-101 482,-101 482,-65 536,-65 536,-101"/>
<text text-anchor="middle" x="509" y="-79.3" font-family="Times,serif" font-size="14.00" fill="#000000">hid_2</text>
</g>
<!-- 140531500823272&#45;&gt;140531500823720 -->
<g id="edge5" class="edge">
<title>140531500823272&#45;&gt;140531500823720</title>
<path fill="none" stroke="#000000" d="M536.003,-91.1009C544.5964,-93.6789 554.2382,-96.5715 563.3457,-99.3037"/>
<polygon fill="#000000" stroke="#000000" points="562.3597,-102.662 572.9437,-102.1831 564.3712,-95.9572 562.3597,-102.662"/>
</g>
<!-- 140531500822992 -->
<g id="node6" class="node">
<title>140531500822992</title>
<polygon fill="none" stroke="#000000" points="536,-46 482,-46 482,-10 536,-10 536,-46"/>
<text text-anchor="middle" x="509" y="-24.3" font-family="Times,serif" font-size="14.00" fill="#000000">hid_3</text>
</g>
<!-- 140531500822992&#45;&gt;140531500823720 -->
<g id="edge6" class="edge">
<title>140531500822992&#45;&gt;140531500823720</title>
<path fill="none" stroke="#000000" d="M528.9739,-46.1985C541.355,-57.479 557.442,-72.136 571.0744,-84.5566"/>
<polygon fill="#000000" stroke="#000000" points="569.0215,-87.4211 578.7707,-91.5689 573.7359,-82.2467 569.0215,-87.4211"/>
</g>
<!-- 140531500685352 -->
<g id="node7" class="node">
<title>140531500685352</title>
<polygon fill="none" stroke="#000000" points="144,-218 90,-218 90,-182 144,-182 144,-218"/>
<text text-anchor="middle" x="117" y="-196.3" font-family="Times,serif" font-size="14.00" fill="#000000">hid_4</text>
</g>
<!-- 140531500823608 -->
<g id="node12" class="node">
<title>140531500823608</title>
<ellipse fill="none" stroke="#000000" cx="207" cy="-209" rx="27" ry="27"/>
<text text-anchor="middle" x="207" y="-205.3" font-family="Times,serif" font-size="14.00" fill="#000000">pre_Root</text>
</g>
<!-- 140531500685352&#45;&gt;140531500823608 -->
<g id="edge7" class="edge">
<title>140531500685352&#45;&gt;140531500823608</title>
<path fill="none" stroke="#000000" d="M144.003,-202.7003C152.1903,-203.519 161.3292,-204.4329 170.051,-205.3051"/>
<polygon fill="#000000" stroke="#000000" points="169.7174,-208.7891 180.0161,-206.3016 170.414,-201.8239 169.7174,-208.7891"/>
</g>
<!-- 140531499789728 -->
<g id="node8" class="node">
<title>140531499789728</title>
<polygon fill="none" stroke="#000000" points="144,-160 90,-160 90,-124 144,-124 144,-160"/>
<text text-anchor="middle" x="117" y="-138.3" font-family="Times,serif" font-size="14.00" fill="#000000">hid_5</text>
</g>
<!-- 140531500822712 -->
<g id="node13" class="node">
<title>140531500822712</title>
<ellipse fill="none" stroke="#000000" cx="207" cy="-137" rx="27" ry="27"/>
<text text-anchor="middle" x="207" y="-133.3" font-family="Times,serif" font-size="14.00" fill="#000000">pre_TradeConfig</text>
</g>
<!-- 140531499789728&#45;&gt;140531500822712 -->
<g id="edge8" class="edge">
<title>140531499789728&#45;&gt;140531500822712</title>
<path fill="none" stroke="#000000" d="M144.003,-140.4998C152.1013,-140.0499 161.1306,-139.5483 169.7665,-139.0685"/>
<polygon fill="#000000" stroke="#000000" points="170.2257,-142.5485 180.0161,-138.4991 169.8373,-135.5593 170.2257,-142.5485"/>
</g>
<!-- 140531499789336 -->
<g id="node9" class="node">
<title>140531499789336</title>
<polygon fill="none" stroke="#000000" points="234,-92 180,-92 180,-56 234,-56 234,-92"/>
<text text-anchor="middle" x="207" y="-70.3" font-family="Times,serif" font-size="14.00" fill="#000000">hid_6</text>
</g>
<!-- 140531500823104 -->
<g id="node16" class="node">
<title>140531500823104</title>
<ellipse fill="none" stroke="#000000" cx="313" cy="-74" rx="27" ry="27"/>
<text text-anchor="middle" x="313" y="-70.3" font-family="Times,serif" font-size="14.00" fill="#000000">splace_in_TradeConfigServlet_1</text>
</g>
<!-- 140531499789336&#45;&gt;140531500823104 -->
<g id="edge9" class="edge">
<title>140531499789336&#45;&gt;140531500823104</title>
<path fill="none" stroke="#000000" d="M234.0225,-74C246.6333,-74 261.8509,-74 275.5484,-74"/>
<polygon fill="#000000" stroke="#000000" points="275.6583,-77.5001 285.6582,-74 275.6582,-70.5001 275.6583,-77.5001"/>
</g>
<!-- 140531500824784 -->
<g id="node10" class="node">
<title>140531500824784</title>
<ellipse fill="#00ff00" stroke="#000000" cx="419" cy="-27" rx="27" ry="27"/>
<text text-anchor="middle" x="419" y="-23.3" font-family="Times,serif" font-size="14.00" fill="#000000">1</text>
</g>
<!-- 140531500824784&#45;&gt;140531500822992 -->
<g id="edge16" class="edge">
<title>140531500824784&#45;&gt;140531500822992</title>
<path fill="none" stroke="#000000" d="M446.003,-27.3C454.0277,-27.3892 462.9665,-27.4885 471.5309,-27.5837"/>
<polygon fill="#000000" stroke="#000000" points="471.6667,-31.0853 481.705,-27.6967 471.7446,-24.0857 471.6667,-31.0853"/>
</g>
<!-- 140531500822600&#45;&gt;140531500685352 -->
<g id="edge10" class="edge">
<title>140531500822600&#45;&gt;140531500685352</title>
<path fill="none" stroke="#000000" d="M52.5497,-177.8004C61.1894,-180.7764 71.0137,-184.1603 80.3423,-187.3735"/>
<polygon fill="#000000" stroke="#000000" points="79.2192,-190.6884 89.8139,-190.6359 81.4989,-184.07 79.2192,-190.6884"/>
</g>
<!-- 140531500822600&#45;&gt;140531499789728 -->
<g id="edge11" class="edge">
<title>140531500822600&#45;&gt;140531499789728</title>
<path fill="none" stroke="#000000" d="M53.0317,-161.1905C61.4955,-158.6514 71.055,-155.7835 80.1543,-153.0537"/>
<polygon fill="#000000" stroke="#000000" points="81.2013,-156.3938 89.7738,-150.1679 79.1898,-149.689 81.2013,-156.3938"/>
</g>
<!-- 140531500822600&#45;&gt;140531499789336 -->
<g id="edge12" class="edge">
<title>140531500822600&#45;&gt;140531499789336</title>
<path fill="none" stroke="#000000" d="M45.9701,-149.4288C57.7822,-138.1304 73.7747,-124.3513 90,-115 115.1283,-100.5175 146.2195,-89.9217 170.0341,-83.1334"/>
<polygon fill="#000000" stroke="#000000" points="171.0439,-86.4858 179.7563,-80.4571 169.186,-79.7368 171.0439,-86.4858"/>
</g>
<!-- 140531500823608&#45;&gt;140531500823832 -->
<g id="edge13" class="edge">
<title>140531500823608&#45;&gt;140531500823832</title>
<path fill="none" stroke="#000000" d="M234.0225,-209C246.6333,-209 261.8509,-209 275.5484,-209"/>
<polygon fill="#000000" stroke="#000000" points="275.6583,-212.5001 285.6582,-209 275.6582,-205.5001 275.6583,-212.5001"/>
</g>
<!-- 140531500822712&#45;&gt;140531500823776 -->
<g id="edge14" class="edge">
<title>140531500822712&#45;&gt;140531500823776</title>
<path fill="none" stroke="#000000" d="M234.0225,-137C241.9553,-137 250.9196,-137 259.8881,-137"/>
<polygon fill="#000000" stroke="#000000" points="259.961,-140.5001 269.961,-137 259.9609,-133.5001 259.961,-140.5001"/>
</g>
<!-- 140531500823720&#45;&gt;140531500824616 -->
<g id="edge15" class="edge">
<title>140531500823720&#45;&gt;140531500824616</title>
<path fill="none" stroke="#000000" d="M623.398,-122.2966C639.151,-130.2361 660.1261,-140.8076 678.8464,-150.2426"/>
<polygon fill="#000000" stroke="#000000" points="677.3173,-153.3913 687.8225,-154.7666 680.4678,-147.1403 677.3173,-153.3913"/>
</g>
<!-- 140531500823384&#45;&gt;140531500823552 -->
<g id="edge17" class="edge">
<title>140531500823384&#45;&gt;140531500823552</title>
<path fill="none" stroke="#000000" d="M446.003,-137C454.0277,-137 462.9665,-137 471.5309,-137"/>
<polygon fill="#000000" stroke="#000000" points="471.7051,-140.5001 481.705,-137 471.705,-133.5001 471.7051,-140.5001"/>
</g>
<!-- 140531500823104&#45;&gt;140531500823272 -->
<g id="edge18" class="edge">
<title>140531500823104&#45;&gt;140531500823272</title>
<path fill="none" stroke="#000000" d="M340.253,-75.2514C374.4813,-76.8231 433.3642,-79.5269 471.7369,-81.2889"/>
<polygon fill="#000000" stroke="#000000" points="471.8284,-84.7967 481.9785,-81.7592 472.1496,-77.8041 471.8284,-84.7967"/>
</g>
</g>
</svg>
