<?xml version="1.0" encoding="UTF-8" standalone="no"?>
<!DOCTYPE svg PUBLIC "-//W3C//DTD SVG 1.1//EN"
 "http://www.w3.org/Graphics/SVG/1.1/DTD/svg11.dtd">
<!-- Generated by graphviz version 2.40.1 (20161225.0304)
 -->
<!-- Title: imdf_net_1586496217.806601 Pages: 1 -->
<svg width="697pt" height="302pt"
 viewBox="0.00 0.00 697.00 301.64" xmlns="http://www.w3.org/2000/svg" xmlns:xlink="http://www.w3.org/1999/xlink">
<g id="graph0" class="graph" transform="scale(1 1) rotate(0) translate(4 297.6389)">
<title>imdf_net_1586496217.806601</title>
<!-- 139748197569648 -->
<g id="node1" class="node">
<title>139748197569648</title>
<polygon fill="none" stroke="#000000" points="54,-110.6389 0,-110.6389 0,-74.6389 54,-74.6389 54,-110.6389"/>
<text text-anchor="middle" x="27" y="-88.9389" font-family="Times,serif" font-size="14.00" fill="#000000">Log</text>
</g>
<!-- 139748197678160 -->
<g id="node14" class="node">
<title>139748197678160</title>
<ellipse fill="none" stroke="#000000" cx="117" cy="-183.6389" rx="27" ry="27"/>
<text text-anchor="middle" x="117" y="-179.9389" font-family="Times,serif" font-size="14.00" fill="#000000">p_6</text>
</g>
<!-- 139748197569648&#45;&gt;139748197678160 -->
<g id="edge2" class="edge">
<title>139748197569648&#45;&gt;139748197678160</title>
<path fill="none" stroke="#000000" d="M45.2128,-111.0541C58.2472,-124.2333 75.9959,-142.1792 90.5837,-156.9291"/>
<polygon fill="#000000" stroke="#000000" points="88.3619,-159.66 97.8823,-164.3088 93.3389,-154.7376 88.3619,-159.66"/>
</g>
<!-- 139748197677488 -->
<g id="node2" class="node">
<title>139748197677488</title>
<polygon fill="none" stroke="#000000" points="426.5,-256.6389 372.5,-256.6389 372.5,-220.6389 426.5,-220.6389 426.5,-256.6389"/>
<text text-anchor="middle" x="399.5" y="-234.9389" font-family="Times,serif" font-size="14.00" fill="#000000">Root</text>
</g>
<!-- 139748195416720 -->
<g id="node16" class="node">
<title>139748195416720</title>
<ellipse fill="#ffa500" stroke="#000000" cx="502" cy="-238.6389" rx="27" ry="27"/>
</g>
<!-- 139748197677488&#45;&gt;139748195416720 -->
<g id="edge3" class="edge">
<title>139748197677488&#45;&gt;139748195416720</title>
<path fill="none" stroke="#000000" d="M426.699,-238.6389C438.2828,-238.6389 451.9866,-238.6389 464.5073,-238.6389"/>
<polygon fill="#000000" stroke="#000000" points="464.6739,-242.139 474.6739,-238.6389 464.6739,-235.139 464.6739,-242.139"/>
</g>
<!-- 139748197677208 -->
<g id="node3" class="node">
<title>139748197677208</title>
<polygon fill="none" stroke="#000000" points="670,-173.6389 584,-173.6389 584,-137.6389 670,-137.6389 670,-173.6389"/>
<text text-anchor="middle" x="627" y="-151.9389" font-family="Times,serif" font-size="14.00" fill="#000000">TradeConfig</text>
</g>
<!-- 139748197677208&#45;&gt;139748197678160 -->
<g id="edge4" class="edge">
<title>139748197677208&#45;&gt;139748197678160</title>
<path fill="none" stroke="#000000" d="M583.582,-164.192C537.9458,-172.4263 463.9672,-183.6389 399.5,-183.6389 297,-183.6389 297,-183.6389 297,-183.6389 247.6525,-183.6389 190.695,-183.6389 154.2925,-183.6389"/>
<polygon fill="#000000" stroke="#000000" points="154.1403,-180.139 144.1403,-183.6389 154.1402,-187.139 154.1403,-180.139"/>
</g>
<!-- 139748197676032 -->
<g id="node4" class="node">
<title>139748197676032</title>
<polygon fill="none" stroke="#000000" points="689,-269.6389 565,-269.6389 565,-233.6389 689,-233.6389 689,-269.6389"/>
<text text-anchor="middle" x="627" y="-247.9389" font-family="Times,serif" font-size="14.00" fill="#000000">TradeConfigServlet</text>
</g>
<!-- 139748197676032&#45;&gt;139748197678160 -->
<g id="edge1" class="edge">
<title>139748197676032&#45;&gt;139748197678160</title>
<path fill="none" stroke="#000000" d="M564.8036,-269.4507C519.394,-280.8978 456.1312,-293.6389 399.5,-293.6389 297,-293.6389 297,-293.6389 297,-293.6389 243.0902,-293.6389 225.1178,-291.1458 180,-261.6389 162.1767,-249.9826 147.0004,-231.6528 136.0116,-215.6904"/>
<polygon fill="#000000" stroke="#000000" points="138.7822,-213.5346 130.3474,-207.1233 132.9431,-217.3953 138.7822,-213.5346"/>
</g>
<!-- 139748197567176 -->
<g id="node5" class="node">
<title>139748197567176</title>
<polygon fill="none" stroke="#000000" points="439,-83.6389 360,-83.6389 360,-47.6389 439,-47.6389 439,-83.6389"/>
<text text-anchor="middle" x="399.5" y="-61.9389" font-family="Times,serif" font-size="14.00" fill="#000000">init_loop_2</text>
</g>
<!-- 139748197565272 -->
<g id="node13" class="node">
<title>139748197565272</title>
<ellipse fill="none" stroke="#000000" cx="502" cy="-128.6389" rx="27" ry="27"/>
<text text-anchor="middle" x="502" y="-124.9389" font-family="Times,serif" font-size="14.00" fill="#000000">p_5</text>
</g>
<!-- 139748197567176&#45;&gt;139748197565272 -->
<g id="edge5" class="edge">
<title>139748197567176&#45;&gt;139748197565272</title>
<path fill="none" stroke="#000000" d="M428.8724,-83.6922C441.7539,-91.6096 456.9055,-100.9223 470.0663,-109.0114"/>
<polygon fill="#000000" stroke="#000000" points="468.455,-112.1292 478.8072,-114.3838 472.1205,-106.1656 468.455,-112.1292"/>
</g>
<!-- 139748197676704 -->
<g id="node6" class="node">
<title>139748197676704</title>
<polygon fill="none" stroke="#000000" points="426.5,-146.6389 372.5,-146.6389 372.5,-110.6389 426.5,-110.6389 426.5,-146.6389"/>
<text text-anchor="middle" x="399.5" y="-124.9389" font-family="Times,serif" font-size="14.00" fill="#000000">loop_3</text>
</g>
<!-- 139748197676704&#45;&gt;139748197565272 -->
<g id="edge6" class="edge">
<title>139748197676704&#45;&gt;139748197565272</title>
<path fill="none" stroke="#000000" d="M426.699,-128.6389C438.2828,-128.6389 451.9866,-128.6389 464.5073,-128.6389"/>
<polygon fill="#000000" stroke="#000000" points="464.6739,-132.139 474.6739,-128.6389 464.6739,-125.139 464.6739,-132.139"/>
</g>
<!-- 139748197571832 -->
<g id="node7" class="node">
<title>139748197571832</title>
<polygon fill="none" stroke="#000000" points="234,-151.6389 180,-151.6389 180,-115.6389 234,-115.6389 234,-151.6389"/>
<text text-anchor="middle" x="207" y="-129.9389" font-family="Times,serif" font-size="14.00" fill="#000000">skip_4</text>
</g>
<!-- 139748197675080 -->
<g id="node15" class="node">
<title>139748197675080</title>
<ellipse fill="none" stroke="#000000" cx="297" cy="-128.6389" rx="27" ry="27"/>
<text text-anchor="middle" x="297" y="-124.9389" font-family="Times,serif" font-size="14.00" fill="#000000">p_7</text>
</g>
<!-- 139748197571832&#45;&gt;139748197675080 -->
<g id="edge15" class="edge">
<title>139748197571832&#45;&gt;139748197675080</title>
<path fill="none" stroke="#000000" d="M234.003,-132.1387C242.1013,-131.6888 251.1306,-131.1872 259.7665,-130.7074"/>
<polygon fill="#000000" stroke="#000000" points="260.2257,-134.1874 270.0161,-130.138 259.8373,-127.1982 260.2257,-134.1874"/>
</g>
<!-- 139748197572112 -->
<g id="node8" class="node">
<title>139748197572112</title>
<polygon fill="none" stroke="#000000" points="234,-252.6389 180,-252.6389 180,-216.6389 234,-216.6389 234,-252.6389"/>
<text text-anchor="middle" x="207" y="-230.9389" font-family="Times,serif" font-size="14.00" fill="#000000">skip_5</text>
</g>
<!-- 139748197298128 -->
<g id="node12" class="node">
<title>139748197298128</title>
<ellipse fill="none" stroke="#000000" cx="297" cy="-238.6389" rx="27" ry="27"/>
<text text-anchor="middle" x="297" y="-234.9389" font-family="Times,serif" font-size="14.00" fill="#000000">p_4</text>
</g>
<!-- 139748197572112&#45;&gt;139748197298128 -->
<g id="edge16" class="edge">
<title>139748197572112&#45;&gt;139748197298128</title>
<path fill="none" stroke="#000000" d="M234.003,-235.839C242.1013,-236.199 251.1306,-236.6003 259.7665,-236.9841"/>
<polygon fill="#000000" stroke="#000000" points="259.8705,-240.4921 270.0161,-237.4396 260.1814,-233.499 259.8705,-240.4921"/>
</g>
<!-- 139748197294600 -->
<g id="node9" class="node">
<title>139748197294600</title>
<polygon fill="none" stroke="#000000" points="234,-74.6389 180,-74.6389 180,-38.6389 234,-38.6389 234,-74.6389"/>
<text text-anchor="middle" x="207" y="-52.9389" font-family="Times,serif" font-size="14.00" fill="#000000">tau_1</text>
</g>
<!-- 139748195417000 -->
<g id="node11" class="node">
<title>139748195417000</title>
<ellipse fill="none" stroke="#000000" cx="297" cy="-56.6389" rx="27" ry="27"/>
<text text-anchor="middle" x="297" y="-52.9389" font-family="Times,serif" font-size="14.00" fill="#000000">p_3</text>
</g>
<!-- 139748197294600&#45;&gt;139748195417000 -->
<g id="edge18" class="edge">
<title>139748197294600&#45;&gt;139748195417000</title>
<path fill="none" stroke="#000000" d="M234.003,-56.6389C242.0277,-56.6389 250.9665,-56.6389 259.5309,-56.6389"/>
<polygon fill="#000000" stroke="#000000" points="259.7051,-60.139 269.705,-56.6389 259.705,-53.139 259.7051,-60.139"/>
</g>
<!-- 139748195414704 -->
<g id="node10" class="node">
<title>139748195414704</title>
<ellipse fill="#00ff00" stroke="#000000" cx="117" cy="-56.6389" rx="27" ry="27"/>
<text text-anchor="middle" x="117" y="-52.9389" font-family="Times,serif" font-size="14.00" fill="#000000">1</text>
</g>
<!-- 139748195414704&#45;&gt;139748197294600 -->
<g id="edge17" class="edge">
<title>139748195414704&#45;&gt;139748197294600</title>
<path fill="none" stroke="#000000" d="M144.003,-56.6389C152.0277,-56.6389 160.9665,-56.6389 169.5309,-56.6389"/>
<polygon fill="#000000" stroke="#000000" points="169.7051,-60.139 179.705,-56.6389 169.705,-53.139 169.7051,-60.139"/>
</g>
<!-- 139748195417000&#45;&gt;139748197567176 -->
<g id="edge7" class="edge">
<title>139748195417000&#45;&gt;139748197567176</title>
<path fill="none" stroke="#000000" d="M323.9307,-59.0036C331.775,-59.6923 340.6089,-60.468 349.3977,-61.2397"/>
<polygon fill="#000000" stroke="#000000" points="349.3645,-64.7501 359.6324,-62.1383 349.9769,-57.777 349.3645,-64.7501"/>
</g>
<!-- 139748197298128&#45;&gt;139748197677488 -->
<g id="edge8" class="edge">
<title>139748197298128&#45;&gt;139748197677488</title>
<path fill="none" stroke="#000000" d="M324.199,-238.6389C335.7828,-238.6389 349.4866,-238.6389 362.0073,-238.6389"/>
<polygon fill="#000000" stroke="#000000" points="362.1739,-242.139 372.1739,-238.6389 362.1739,-235.139 362.1739,-242.139"/>
</g>
<!-- 139748197565272&#45;&gt;139748197569648 -->
<g id="edge10" class="edge">
<title>139748197565272&#45;&gt;139748197569648</title>
<path fill="none" stroke="#000000" d="M490.8332,-103.9338C480.3168,-83.4365 462.6472,-55.0779 439,-38.6389 385.45,-1.4121 362.2183,-1.6389 297,-1.6389 207,-1.6389 207,-1.6389 207,-1.6389 154.3188,-1.6389 136.0675,4.9167 90,-20.6389 70.7597,-31.3123 54.5625,-50.2185 43.4108,-65.9793"/>
<polygon fill="#000000" stroke="#000000" points="40.4583,-64.0973 37.7473,-74.3394 46.2536,-68.0234 40.4583,-64.0973"/>
</g>
<!-- 139748197565272&#45;&gt;139748197677208 -->
<g id="edge11" class="edge">
<title>139748197565272&#45;&gt;139748197677208</title>
<path fill="none" stroke="#000000" d="M528.5093,-134.3649C541.6778,-137.2093 558.0798,-140.7522 573.6984,-144.1258"/>
<polygon fill="#000000" stroke="#000000" points="573.2935,-147.6189 583.8071,-146.3092 574.7715,-140.7767 573.2935,-147.6189"/>
</g>
<!-- 139748197565272&#45;&gt;139748197676032 -->
<g id="edge9" class="edge">
<title>139748197565272&#45;&gt;139748197676032</title>
<path fill="none" stroke="#000000" d="M521.2573,-147.5881C542.6386,-168.6273 577.2632,-202.6979 601.0295,-226.0839"/>
<polygon fill="#000000" stroke="#000000" points="598.751,-228.7522 608.3337,-233.2713 603.6607,-223.7627 598.751,-228.7522"/>
</g>
<!-- 139748197678160&#45;&gt;139748197571832 -->
<g id="edge12" class="edge">
<title>139748197678160&#45;&gt;139748197571832</title>
<path fill="none" stroke="#000000" d="M140.6464,-170.502C149.9112,-165.3549 160.7479,-159.3345 170.9459,-153.6689"/>
<polygon fill="#000000" stroke="#000000" points="172.646,-156.7284 179.6878,-148.8123 169.2465,-150.6093 172.646,-156.7284"/>
</g>
<!-- 139748197678160&#45;&gt;139748197572112 -->
<g id="edge13" class="edge">
<title>139748197678160&#45;&gt;139748197572112</title>
<path fill="none" stroke="#000000" d="M140.6464,-197.0386C149.9112,-202.2886 160.7479,-208.4294 170.9459,-214.2083"/>
<polygon fill="#000000" stroke="#000000" points="169.262,-217.2769 179.6878,-219.162 172.7132,-211.1867 169.262,-217.2769"/>
</g>
<!-- 139748197675080&#45;&gt;139748197676704 -->
<g id="edge14" class="edge">
<title>139748197675080&#45;&gt;139748197676704</title>
<path fill="none" stroke="#000000" d="M324.199,-128.6389C335.7828,-128.6389 349.4866,-128.6389 362.0073,-128.6389"/>
<polygon fill="#000000" stroke="#000000" points="362.1739,-132.139 372.1739,-128.6389 362.1739,-125.139 362.1739,-132.139"/>
</g>
</g>
</svg>
