<?xml version="1.0" encoding="UTF-8" standalone="no"?>
<!DOCTYPE svg PUBLIC "-//W3C//DTD SVG 1.1//EN"
 "http://www.w3.org/Graphics/SVG/1.1/DTD/svg11.dtd">
<!-- Generated by graphviz version 2.40.1 (20161225.0304)
 -->
<!-- Title: imdf_net_1585321101.7027848 Pages: 1 -->
<svg width="446pt" height="62pt"
 viewBox="0.00 0.00 446.00 62.00" xmlns="http://www.w3.org/2000/svg" xmlns:xlink="http://www.w3.org/1999/xlink">
<g id="graph0" class="graph" transform="scale(1 1) rotate(0) translate(4 58)">
<title>imdf_net_1585321101.7027848</title>
<!-- 140531497115208 -->
<g id="node1" class="node">
<title>140531497115208</title>
<polygon fill="none" stroke="#000000" points="168,-45 90,-45 90,-9 168,-9 168,-45"/>
<text text-anchor="middle" x="129" y="-23.3" font-family="Times,serif" font-size="14.00" fill="#000000">ExplicitGC</text>
</g>
<!-- 140531497376344 -->
<g id="node4" class="node">
<title>140531497376344</title>
<ellipse fill="none" stroke="#000000" cx="231" cy="-27" rx="27" ry="27"/>
<text text-anchor="middle" x="231" y="-23.3" font-family="Times,serif" font-size="14.00" fill="#000000">p_3</text>
</g>
<!-- 140531497115208&#45;&gt;140531497376344 -->
<g id="edge1" class="edge">
<title>140531497115208&#45;&gt;140531497376344</title>
<path fill="none" stroke="#000000" d="M168.1441,-27C176.5186,-27 185.3445,-27 193.6493,-27"/>
<polygon fill="#000000" stroke="#000000" points="193.8166,-30.5001 203.8166,-27 193.8166,-23.5001 193.8166,-30.5001"/>
</g>
<!-- 140531497113472 -->
<g id="node2" class="node">
<title>140531497113472</title>
<polygon fill="none" stroke="#000000" points="348,-45 294,-45 294,-9 348,-9 348,-45"/>
<text text-anchor="middle" x="321" y="-23.3" font-family="Times,serif" font-size="14.00" fill="#000000">Root</text>
</g>
<!-- 140531497376176 -->
<g id="node5" class="node">
<title>140531497376176</title>
<ellipse fill="#ffa500" stroke="#000000" cx="411" cy="-27" rx="27" ry="27"/>
</g>
<!-- 140531497113472&#45;&gt;140531497376176 -->
<g id="edge2" class="edge">
<title>140531497113472&#45;&gt;140531497376176</title>
<path fill="none" stroke="#000000" d="M348.003,-27C356.0277,-27 364.9665,-27 373.5309,-27"/>
<polygon fill="#000000" stroke="#000000" points="373.7051,-30.5001 383.705,-27 373.705,-23.5001 373.7051,-30.5001"/>
</g>
<!-- 140531497181256 -->
<g id="node3" class="node">
<title>140531497181256</title>
<ellipse fill="#00ff00" stroke="#000000" cx="27" cy="-27" rx="27" ry="27"/>
<text text-anchor="middle" x="27" y="-23.3" font-family="Times,serif" font-size="14.00" fill="#000000">1</text>
</g>
<!-- 140531497181256&#45;&gt;140531497115208 -->
<g id="edge4" class="edge">
<title>140531497181256&#45;&gt;140531497115208</title>
<path fill="none" stroke="#000000" d="M54.0663,-27C61.9565,-27 70.8351,-27 79.648,-27"/>
<polygon fill="#000000" stroke="#000000" points="79.9003,-30.5001 89.9003,-27 79.9002,-23.5001 79.9003,-30.5001"/>
</g>
<!-- 140531497376344&#45;&gt;140531497113472 -->
<g id="edge3" class="edge">
<title>140531497376344&#45;&gt;140531497113472</title>
<path fill="none" stroke="#000000" d="M258.003,-27C266.0277,-27 274.9665,-27 283.5309,-27"/>
<polygon fill="#000000" stroke="#000000" points="283.7051,-30.5001 293.705,-27 283.705,-23.5001 283.7051,-30.5001"/>
</g>
</g>
</svg>
