<?xml version="1.0" encoding="UTF-8" standalone="no"?>
<!DOCTYPE svg PUBLIC "-//W3C//DTD SVG 1.1//EN"
 "http://www.w3.org/Graphics/SVG/1.1/DTD/svg11.dtd">
<!-- Generated by graphviz version 2.40.1 (20161225.0304)
 -->
<!-- Title: alpha_plus_net_1585315546.426007 Pages: 1 -->
<svg width="1120pt" height="1232pt"
 viewBox="0.00 0.00 1120.00 1232.00" xmlns="http://www.w3.org/2000/svg" xmlns:xlink="http://www.w3.org/1999/xlink">
<g id="graph0" class="graph" transform="scale(1 1) rotate(0) translate(4 1228)">
<title>alpha_plus_net_1585315546.426007</title>
<!-- 140178132322624 -->
<g id="node1" class="node">
<title>140178132322624</title>
<polygon fill="none" stroke="#000000" points="316,-36 105,-36 105,0 316,0 316,-36"/>
<text text-anchor="middle" x="210.5" y="-14.3" font-family="Times,serif" font-size="14.00" fill="#000000">FinancialUtils:computeGainPercent</text>
</g>
<!-- 140178132322064 -->
<g id="node2" class="node">
<title>140178132322064</title>
<polygon fill="none" stroke="#000000" points="253.5,-90 167.5,-90 167.5,-54 253.5,-54 253.5,-90"/>
<text text-anchor="middle" x="210.5" y="-68.3" font-family="Times,serif" font-size="14.00" fill="#000000">Log:doTrace</text>
</g>
<!-- 140178132322456 -->
<g id="node3" class="node">
<title>140178132322456</title>
<polygon fill="none" stroke="#000000" points="255,-144 166,-144 166,-108 255,-108 255,-144"/>
<text text-anchor="middle" x="210.5" y="-122.3" font-family="Times,serif" font-size="14.00" fill="#000000">Log:getTrace</text>
</g>
<!-- 140178132322568 -->
<g id="node4" class="node">
<title>140178132322568</title>
<polygon fill="none" stroke="#000000" points="421,-198 0,-198 0,-162 421,-162 421,-198"/>
<text text-anchor="middle" x="210.5" y="-176.3" font-family="Times,serif" font-size="14.00" fill="#000000">MarketSummaryDataBean:MarketSummaryDataBean [overloaded_#002]</text>
</g>
<!-- 140178132322120 -->
<g id="node5" class="node">
<title>140178132322120</title>
<polygon fill="none" stroke="#000000" points="332,-252 89,-252 89,-216 332,-216 332,-252"/>
<text text-anchor="middle" x="210.5" y="-230.3" font-family="Times,serif" font-size="14.00" fill="#000000">MarketSummaryDataBean:getOpenTSIA</text>
</g>
<!-- 140178132324192 -->
<g id="node6" class="node">
<title>140178132324192</title>
<polygon fill="none" stroke="#000000" points="317.5,-306 103.5,-306 103.5,-270 317.5,-270 317.5,-306"/>
<text text-anchor="middle" x="210.5" y="-284.3" font-family="Times,serif" font-size="14.00" fill="#000000">MarketSummaryDataBean:getTSIA</text>
</g>
<!-- 140178132321616 -->
<g id="node7" class="node">
<title>140178132321616</title>
<polygon fill="none" stroke="#000000" points="331.5,-360 89.5,-360 89.5,-324 331.5,-324 331.5,-360"/>
<text text-anchor="middle" x="210.5" y="-338.3" font-family="Times,serif" font-size="14.00" fill="#000000">MarketSummaryDataBean:setOpenTSIA</text>
</g>
<!-- 140178132323240 -->
<g id="node8" class="node">
<title>140178132323240</title>
<polygon fill="none" stroke="#000000" points="341.5,-414 79.5,-414 79.5,-378 341.5,-378 341.5,-414"/>
<text text-anchor="middle" x="210.5" y="-392.3" font-family="Times,serif" font-size="14.00" fill="#000000">MarketSummaryDataBean:setSummaryDate</text>
</g>
<!-- 140178132324304 -->
<g id="node9" class="node">
<title>140178132324304</title>
<polygon fill="none" stroke="#000000" points="316.5,-468 104.5,-468 104.5,-432 316.5,-432 316.5,-468"/>
<text text-anchor="middle" x="210.5" y="-446.3" font-family="Times,serif" font-size="14.00" fill="#000000">MarketSummaryDataBean:setTSIA</text>
</g>
<!-- 140178132320776 -->
<g id="node10" class="node">
<title>140178132320776</title>
<polygon fill="none" stroke="#000000" points="333.5,-522 87.5,-522 87.5,-486 333.5,-486 333.5,-522"/>
<text text-anchor="middle" x="210.5" y="-500.3" font-family="Times,serif" font-size="14.00" fill="#000000">MarketSummaryDataBean:setTopGainers</text>
</g>
<!-- 140178132322848 -->
<g id="node11" class="node">
<title>140178132322848</title>
<polygon fill="none" stroke="#000000" points="330.5,-576 90.5,-576 90.5,-540 330.5,-540 330.5,-576"/>
<text text-anchor="middle" x="210.5" y="-554.3" font-family="Times,serif" font-size="14.00" fill="#000000">MarketSummaryDataBean:setTopLosers</text>
</g>
<!-- 140178132322176 -->
<g id="node12" class="node">
<title>140178132322176</title>
<polygon fill="none" stroke="#000000" points="324,-630 97,-630 97,-594 324,-594 324,-630"/>
<text text-anchor="middle" x="210.5" y="-608.3" font-family="Times,serif" font-size="14.00" fill="#000000">MarketSummaryDataBean:setVolume</text>
</g>
<!-- 140178132321896 -->
<g id="node13" class="node">
<title>140178132321896</title>
<polygon fill="none" stroke="#000000" points="374.5,-684 46.5,-684 46.5,-648 374.5,-648 374.5,-684"/>
<text text-anchor="middle" x="210.5" y="-662.3" font-family="Times,serif" font-size="14.00" fill="#000000">MarketSummarySingleton:setMarketSummaryDataBean</text>
</g>
<!-- 140178132324136 -->
<g id="node14" class="node">
<title>140178132324136</title>
<polygon fill="none" stroke="#000000" points="358.5,-738 62.5,-738 62.5,-702 358.5,-702 358.5,-738"/>
<text text-anchor="middle" x="210.5" y="-716.3" font-family="Times,serif" font-size="14.00" fill="#000000">MarketSummarySingleton:updateMarketSummary</text>
</g>
<!-- 140178132323072 -->
<g id="node30" class="node">
<title>140178132323072</title>
<ellipse fill="none" stroke="#000000" cx="484" cy="-770" rx="27" ry="27"/>
<text text-anchor="middle" x="484" y="-766.3" font-family="Times,serif" font-size="14.00" fill="#000000">({&#39;PingServletCDI:init&#39;, &#39;MarketSummarySingleton:updateMarketSummary&#39;, &#39;PingServletCDI:doGet&#39;}, {&#39;Root&#39;, &#39;QuoteDataBean:QuoteDataBean [overloaded_#001]&#39;})</text>
</g>
<!-- 140178132324136&#45;&gt;140178132323072 -->
<g id="edge6" class="edge">
<title>140178132324136&#45;&gt;140178132323072</title>
<path fill="none" stroke="#000000" d="M358.7636,-734.7973C379.7938,-738.1181 401.0421,-742.1412 421,-747 430.3882,-749.2856 440.3098,-752.5062 449.4325,-755.8154"/>
<polygon fill="#000000" stroke="#000000" points="448.3631,-759.1526 458.955,-759.4011 450.8298,-752.6016 448.3631,-759.1526"/>
</g>
<!-- 140178132323464 -->
<g id="node15" class="node">
<title>140178132323464</title>
<polygon fill="none" stroke="#000000" points="272,-792 149,-792 149,-756 272,-756 272,-792"/>
<text text-anchor="middle" x="210.5" y="-770.3" font-family="Times,serif" font-size="14.00" fill="#000000">PingCDIBean:hello</text>
</g>
<!-- 140178132324080 -->
<g id="node16" class="node">
<title>140178132324080</title>
<polygon fill="none" stroke="#000000" points="280.5,-846 140.5,-846 140.5,-810 280.5,-810 280.5,-846"/>
<text text-anchor="middle" x="210.5" y="-824.3" font-family="Times,serif" font-size="14.00" fill="#000000">PingEJBLocal:getMsg</text>
</g>
<!-- 140178132323576 -->
<g id="node17" class="node">
<title>140178132323576</title>
<polygon fill="none" stroke="#000000" points="307.5,-900 113.5,-900 113.5,-864 307.5,-864 307.5,-900"/>
<text text-anchor="middle" x="210.5" y="-878.3" font-family="Times,serif" font-size="14.00" fill="#000000">PingEJBLocalDecorator:getMsg</text>
</g>
<!-- 140178132323632 -->
<g id="node18" class="node">
<title>140178132323632</title>
<polygon fill="none" stroke="#000000" points="313,-954 108,-954 108,-918 313,-918 313,-954"/>
<text text-anchor="middle" x="210.5" y="-932.3" font-family="Times,serif" font-size="14.00" fill="#000000">PingInterceptor:methodInterceptor</text>
</g>
<!-- 140178132323968 -->
<g id="node19" class="node">
<title>140178132323968</title>
<polygon fill="none" stroke="#000000" points="1112,-844 972,-844 972,-808 1112,-808 1112,-844"/>
<text text-anchor="middle" x="1042" y="-822.3" font-family="Times,serif" font-size="14.00" fill="#000000">PingServletCDI:doGet</text>
</g>
<!-- 140178132323968&#45;&gt;140178132323072 -->
<g id="edge7" class="edge">
<title>140178132323968&#45;&gt;140178132323072</title>
<path fill="none" stroke="#000000" d="M971.6548,-840.4896C873.1581,-857.5401 690.1594,-877.2871 547,-824 532.6598,-818.6623 519.3738,-808.4575 508.7359,-798.3435"/>
<polygon fill="#000000" stroke="#000000" points="511.0195,-795.6768 501.4806,-791.0659 506.0621,-800.6189 511.0195,-795.6768"/>
</g>
<!-- 140178132322232 -->
<g id="node20" class="node">
<title>140178132322232</title>
<polygon fill="none" stroke="#000000" points="1104.5,-762 979.5,-762 979.5,-726 1104.5,-726 1104.5,-762"/>
<text text-anchor="middle" x="1042" y="-740.3" font-family="Times,serif" font-size="14.00" fill="#000000">PingServletCDI:init</text>
</g>
<!-- 140178132322232&#45;&gt;140178132323072 -->
<g id="edge8" class="edge">
<title>140178132322232&#45;&gt;140178132323072</title>
<path fill="none" stroke="#000000" d="M1014.5768,-762.1763C993.9387,-774.7147 964.4348,-790.2874 936,-797 767.7361,-836.7217 716.3581,-831.7621 547,-797 536.9644,-794.9401 526.5535,-791.212 517.1547,-787.1707"/>
<polygon fill="#000000" stroke="#000000" points="518.3361,-783.8629 507.7848,-782.9027 515.4344,-790.2332 518.3361,-783.8629"/>
</g>
<!-- 140178132324248 -->
<g id="node21" class="node">
<title>140178132324248</title>
<polygon fill="none" stroke="#000000" points="846,-734 547,-734 547,-698 846,-698 846,-734"/>
<text text-anchor="middle" x="696.5" y="-712.3" font-family="Times,serif" font-size="14.00" fill="#000000">QuoteDataBean:QuoteDataBean [overloaded_#001]</text>
</g>
<!-- 140178132322904 -->
<g id="node31" class="node">
<title>140178132322904</title>
<ellipse fill="none" stroke="#000000" cx="909" cy="-689" rx="27" ry="27"/>
<text text-anchor="middle" x="909" y="-685.3" font-family="Times,serif" font-size="14.00" fill="#000000">({&#39;QuoteDataBean:QuoteDataBean [overloaded_#001]&#39;, &#39;artificial_start&#39;}, {&#39;PingServletCDI:init&#39;, &#39;MarketSummarySingleton:updateMarketSummary&#39;, &#39;PingServletCDI:doGet&#39;})</text>
</g>
<!-- 140178132324248&#45;&gt;140178132322904 -->
<g id="edge9" class="edge">
<title>140178132324248&#45;&gt;140178132322904</title>
<path fill="none" stroke="#000000" d="M838.2406,-697.9906C850.3171,-696.4562 861.7025,-695.0096 871.6658,-693.7436"/>
<polygon fill="#000000" stroke="#000000" points="872.4053,-697.1779 881.8844,-692.4453 871.523,-690.2337 872.4053,-697.1779"/>
</g>
<!-- 140178132323800 -->
<g id="node22" class="node">
<title>140178132323800</title>
<polygon fill="none" stroke="#000000" points="286.5,-1008 134.5,-1008 134.5,-972 286.5,-972 286.5,-1008"/>
<text text-anchor="middle" x="210.5" y="-986.3" font-family="Times,serif" font-size="14.00" fill="#000000">QuoteDataBean:getOpen</text>
</g>
<!-- 140178132323744 -->
<g id="node23" class="node">
<title>140178132323744</title>
<polygon fill="none" stroke="#000000" points="286,-1062 135,-1062 135,-1026 286,-1026 286,-1062"/>
<text text-anchor="middle" x="210.5" y="-1040.3" font-family="Times,serif" font-size="14.00" fill="#000000">QuoteDataBean:getPrice</text>
</g>
<!-- 140178132323016 -->
<g id="node24" class="node">
<title>140178132323016</title>
<polygon fill="none" stroke="#000000" points="294,-1116 127,-1116 127,-1080 294,-1080 294,-1116"/>
<text text-anchor="middle" x="210.5" y="-1094.3" font-family="Times,serif" font-size="14.00" fill="#000000">QuoteDataBean:getVolume</text>
</g>
<!-- 140178132322960 -->
<g id="node25" class="node">
<title>140178132322960</title>
<polygon fill="none" stroke="#000000" points="723.5,-788 669.5,-788 669.5,-752 723.5,-752 723.5,-788"/>
<text text-anchor="middle" x="696.5" y="-766.3" font-family="Times,serif" font-size="14.00" fill="#000000">Root</text>
</g>
<!-- 140178132323352 -->
<g id="node32" class="node">
<title>140178132323352</title>
<ellipse fill="#ffa500" stroke="#000000" cx="909" cy="-761" rx="27" ry="27"/>
</g>
<!-- 140178132322960&#45;&gt;140178132323352 -->
<g id="edge10" class="edge">
<title>140178132322960&#45;&gt;140178132323352</title>
<path fill="none" stroke="#000000" d="M723.8456,-768.8418C761.4607,-767.2487 829.3021,-764.3754 871.5921,-762.5843"/>
<polygon fill="#000000" stroke="#000000" points="871.9164,-766.0738 881.7593,-762.1537 871.6202,-759.0801 871.9164,-766.0738"/>
</g>
<!-- 140178132324024 -->
<g id="node26" class="node">
<title>140178132324024</title>
<polygon fill="none" stroke="#000000" points="305.5,-1170 115.5,-1170 115.5,-1134 305.5,-1134 305.5,-1170"/>
<text text-anchor="middle" x="210.5" y="-1148.3" font-family="Times,serif" font-size="14.00" fill="#000000">TradeConfig:getRunTimeMode</text>
</g>
<!-- 140178132321392 -->
<g id="node27" class="node">
<title>140178132321392</title>
<polygon fill="none" stroke="#000000" points="279,-1224 142,-1224 142,-1188 279,-1188 279,-1224"/>
<text text-anchor="middle" x="210.5" y="-1202.3" font-family="Times,serif" font-size="14.00" fill="#000000">TradeConfig:getTrace</text>
</g>
<!-- 140178132322288 -->
<g id="node28" class="node">
<title>140178132322288</title>
<polygon fill="none" stroke="#000000" points="742.5,-638 650.5,-638 650.5,-602 742.5,-602 742.5,-638"/>
<text text-anchor="middle" x="696.5" y="-616.3" font-family="Times,serif" font-size="14.00" fill="#000000">artificial_start</text>
</g>
<!-- 140178132322288&#45;&gt;140178132322904 -->
<g id="edge11" class="edge">
<title>140178132322288&#45;&gt;140178132322904</title>
<path fill="none" stroke="#000000" d="M742.5128,-628.0291C772.5325,-634.0057 812.2622,-643.3238 846,-656 856.3356,-659.8834 867.1375,-665.0802 876.8189,-670.1991"/>
<polygon fill="#000000" stroke="#000000" points="875.2496,-673.3298 885.7059,-675.0377 878.5968,-667.1819 875.2496,-673.3298"/>
</g>
<!-- 140178132321784 -->
<g id="node29" class="node">
<title>140178132321784</title>
<ellipse fill="#00ff00" stroke="#000000" cx="484" cy="-615" rx="27" ry="27"/>
<text text-anchor="middle" x="484" y="-611.3" font-family="Times,serif" font-size="14.00" fill="#000000">1</text>
</g>
<!-- 140178132321784&#45;&gt;140178132322288 -->
<g id="edge12" class="edge">
<title>140178132321784&#45;&gt;140178132322288</title>
<path fill="none" stroke="#000000" d="M511.3456,-615.6434C543.7589,-616.4061 598.6168,-617.6969 640.2291,-618.676"/>
<polygon fill="#000000" stroke="#000000" points="640.1524,-622.175 650.232,-618.9113 640.3172,-615.177 640.1524,-622.175"/>
</g>
<!-- 140178132323072&#45;&gt;140178132324248 -->
<g id="edge1" class="edge">
<title>140178132323072&#45;&gt;140178132324248</title>
<path fill="none" stroke="#000000" d="M508.3547,-758.033C519.8495,-752.7849 533.8938,-746.9365 547,-743 554.9885,-740.6006 563.2847,-738.382 571.6908,-736.3361"/>
<polygon fill="#000000" stroke="#000000" points="572.6605,-739.7038 581.5974,-734.0133 571.0625,-732.8886 572.6605,-739.7038"/>
</g>
<!-- 140178132323072&#45;&gt;140178132322960 -->
<g id="edge2" class="edge">
<title>140178132323072&#45;&gt;140178132322960</title>
<path fill="none" stroke="#000000" d="M511.3456,-770C548.9607,-770 616.8021,-770 659.0921,-770"/>
<polygon fill="#000000" stroke="#000000" points="659.2594,-773.5001 669.2593,-770 659.2593,-766.5001 659.2594,-773.5001"/>
</g>
<!-- 140178132322904&#45;&gt;140178132324136 -->
<g id="edge3" class="edge">
<title>140178132322904&#45;&gt;140178132324136</title>
<path fill="none" stroke="#000000" d="M881.7336,-688.1459C821.378,-686.4427 671.9341,-683.2574 547,-689 488.6731,-691.681 424.8387,-696.9628 368.5947,-702.4179"/>
<polygon fill="#000000" stroke="#000000" points="368.1599,-698.9437 358.5488,-703.4019 368.8423,-705.9103 368.1599,-698.9437"/>
</g>
<!-- 140178132322904&#45;&gt;140178132323968 -->
<g id="edge4" class="edge">
<title>140178132322904&#45;&gt;140178132323968</title>
<path fill="none" stroke="#000000" d="M925.248,-710.722C942.126,-733.1926 966.7921,-765.7352 972,-771 982.7578,-781.8753 995.6607,-792.5626 1007.4419,-801.5817"/>
<polygon fill="#000000" stroke="#000000" points="1005.6758,-804.6322 1015.7756,-807.833 1009.8763,-799.0325 1005.6758,-804.6322"/>
</g>
<!-- 140178132322904&#45;&gt;140178132322232 -->
<g id="edge5" class="edge">
<title>140178132322904&#45;&gt;140178132322232</title>
<path fill="none" stroke="#000000" d="M934.0163,-699.3451C949.4656,-705.7339 969.8885,-714.1795 988.8119,-722.0049"/>
<polygon fill="#000000" stroke="#000000" points="987.665,-725.3181 998.2436,-725.9052 990.3401,-718.8493 987.665,-725.3181"/>
</g>
</g>
</svg>
