<?xml version="1.0" encoding="UTF-8" standalone="no"?>
<!DOCTYPE svg PUBLIC "-//W3C//DTD SVG 1.1//EN"
 "http://www.w3.org/Graphics/SVG/1.1/DTD/svg11.dtd">
<!-- Generated by graphviz version 2.40.1 (20161225.0304)
 -->
<!-- Title: %3 Pages: 1 -->
<svg width="1970pt" height="829pt"
 viewBox="0.00 0.00 1970.00 829.00" xmlns="http://www.w3.org/2000/svg" xmlns:xlink="http://www.w3.org/1999/xlink">
<g id="graph0" class="graph" transform="scale(1 1) rotate(0) translate(4 825)">
<title>%3</title>
<!-- 140178132632464 -->
<g id="node1" class="node">
<title>140178132632464</title>
<polygon fill="none" stroke="#000000" points="328,-739 0,-739 0,-703 328,-703 328,-739"/>
<text text-anchor="middle" x="164" y="-717.3" font-family="Times,serif" font-size="14.00" fill="#000000">MarketSummarySingleton:setMarketSummaryDataBean</text>
</g>
<!-- 140178132633472 -->
<g id="node38" class="node">
<title>140178132633472</title>
<ellipse fill="none" stroke="#000000" cx="391" cy="-622" rx="27" ry="27"/>
<text text-anchor="middle" x="391" y="-618.3" font-family="Times,serif" font-size="14.00" fill="#000000">splace_in_MarketSummarySingleton:updateMarketSummary_0</text>
</g>
<!-- 140178132632464&#45;&gt;140178132633472 -->
<g id="edge1" class="edge">
<title>140178132632464&#45;&gt;140178132633472</title>
<path fill="none" stroke="#000000" d="M205.3713,-702.957C248.8201,-684.008 316.3476,-654.5577 356.8635,-636.8877"/>
<polygon fill="#000000" stroke="#000000" points="358.2936,-640.0825 366.0607,-632.8766 355.4953,-633.6661 358.2936,-640.0825"/>
</g>
<!-- 140178132272408 -->
<g id="node2" class="node">
<title>140178132272408</title>
<polygon fill="none" stroke="#000000" points="1087,-495 791,-495 791,-459 1087,-459 1087,-495"/>
<text text-anchor="middle" x="939" y="-473.3" font-family="Times,serif" font-size="14.00" fill="#000000">MarketSummarySingleton:updateMarketSummary</text>
</g>
<!-- 140178123092488 -->
<g id="node29" class="node">
<title>140178123092488</title>
<ellipse fill="none" stroke="#000000" cx="1150" cy="-473" rx="27" ry="27"/>
<text text-anchor="middle" x="1150" y="-469.3" font-family="Times,serif" font-size="14.00" fill="#000000">intplace_MarketSummarySingleton:updateMarketSummary</text>
</g>
<!-- 140178132272408&#45;&gt;140178123092488 -->
<g id="edge2" class="edge">
<title>140178132272408&#45;&gt;140178123092488</title>
<path fill="none" stroke="#000000" d="M1087.2643,-474.1893C1096.4307,-474.0155 1105.0786,-473.8516 1112.8562,-473.7041"/>
<polygon fill="#000000" stroke="#000000" points="1112.9576,-477.203 1122.8894,-473.5139 1112.8249,-470.2042 1112.9576,-477.203"/>
</g>
<!-- 140178132633248 -->
<g id="node3" class="node">
<title>140178132633248</title>
<polygon fill="none" stroke="#000000" points="594,-108 454,-108 454,-72 594,-72 594,-108"/>
<text text-anchor="middle" x="524" y="-86.3" font-family="Times,serif" font-size="14.00" fill="#000000">PingServletCDI:doGet</text>
</g>
<!-- 140178123092040 -->
<g id="node45" class="node">
<title>140178123092040</title>
<ellipse fill="none" stroke="#000000" cx="692.5" cy="-90" rx="27" ry="27"/>
<text text-anchor="middle" x="692.5" y="-86.3" font-family="Times,serif" font-size="14.00" fill="#000000">splace_in_Root_1</text>
</g>
<!-- 140178132633248&#45;&gt;140178123092040 -->
<g id="edge3" class="edge">
<title>140178132633248&#45;&gt;140178123092040</title>
<path fill="none" stroke="#000000" d="M594.4829,-90C615.1924,-90 637.0426,-90 654.8442,-90"/>
<polygon fill="#000000" stroke="#000000" points="655.0878,-93.5001 665.0878,-90 655.0878,-86.5001 655.0878,-93.5001"/>
</g>
<!-- 140178132632912 -->
<g id="node4" class="node">
<title>140178132632912</title>
<polygon fill="none" stroke="#000000" points="755,-45 630,-45 630,-9 755,-9 755,-45"/>
<text text-anchor="middle" x="692.5" y="-23.3" font-family="Times,serif" font-size="14.00" fill="#000000">PingServletCDI:init</text>
</g>
<!-- 140178123092376 -->
<g id="node46" class="node">
<title>140178123092376</title>
<ellipse fill="none" stroke="#000000" cx="939" cy="-27" rx="27" ry="27"/>
<text text-anchor="middle" x="939" y="-23.3" font-family="Times,serif" font-size="14.00" fill="#000000">splace_in_Root_2</text>
</g>
<!-- 140178132632912&#45;&gt;140178123092376 -->
<g id="edge4" class="edge">
<title>140178132632912&#45;&gt;140178123092376</title>
<path fill="none" stroke="#000000" d="M755.021,-27C801.3044,-27 862.8201,-27 901.6698,-27"/>
<polygon fill="#000000" stroke="#000000" points="901.9949,-30.5001 911.9949,-27 901.9948,-23.5001 901.9949,-30.5001"/>
</g>
<!-- 140178132632296 -->
<g id="node5" class="node">
<title>140178132632296</title>
<polygon fill="none" stroke="#000000" points="1692,-382 1393,-382 1393,-346 1692,-346 1692,-382"/>
<text text-anchor="middle" x="1542.5" y="-360.3" font-family="Times,serif" font-size="14.00" fill="#000000">QuoteDataBean:QuoteDataBean [overloaded_#001]</text>
</g>
<!-- 140178132632968 -->
<g id="node39" class="node">
<title>140178132632968</title>
<ellipse fill="none" stroke="#000000" cx="1755" cy="-364" rx="27" ry="27"/>
<text text-anchor="middle" x="1755" y="-360.3" font-family="Times,serif" font-size="14.00" fill="#000000">splace_in_MarketSummarySingleton:updateMarketSummary_1</text>
</g>
<!-- 140178132632296&#45;&gt;140178132632968 -->
<g id="edge5" class="edge">
<title>140178132632296&#45;&gt;140178132632968</title>
<path fill="none" stroke="#000000" d="M1692.1055,-364C1701.3013,-364 1709.974,-364 1717.7723,-364"/>
<polygon fill="#000000" stroke="#000000" points="1717.8312,-367.5001 1727.8312,-364 1717.8312,-360.5001 1717.8312,-367.5001"/>
</g>
<!-- 140178132633080 -->
<g id="node6" class="node">
<title>140178132633080</title>
<polygon fill="none" stroke="#000000" points="1618.5,-454 1466.5,-454 1466.5,-418 1618.5,-418 1618.5,-454"/>
<text text-anchor="middle" x="1542.5" y="-432.3" font-family="Times,serif" font-size="14.00" fill="#000000">QuoteDataBean:getOpen</text>
</g>
<!-- 140178132632632 -->
<g id="node40" class="node">
<title>140178132632632</title>
<ellipse fill="none" stroke="#000000" cx="1755" cy="-436" rx="27" ry="27"/>
<text text-anchor="middle" x="1755" y="-432.3" font-family="Times,serif" font-size="14.00" fill="#000000">splace_in_MarketSummarySingleton:updateMarketSummary_2</text>
</g>
<!-- 140178132633080&#45;&gt;140178132632632 -->
<g id="edge6" class="edge">
<title>140178132633080&#45;&gt;140178132632632</title>
<path fill="none" stroke="#000000" d="M1618.6172,-436C1652.2604,-436 1690.2977,-436 1717.638,-436"/>
<polygon fill="#000000" stroke="#000000" points="1717.9249,-439.5001 1727.9249,-436 1717.9249,-432.5001 1717.9249,-439.5001"/>
</g>
<!-- 140178132635544 -->
<g id="node7" class="node">
<title>140178132635544</title>
<polygon fill="none" stroke="#000000" points="1618,-526 1467,-526 1467,-490 1618,-490 1618,-526"/>
<text text-anchor="middle" x="1542.5" y="-504.3" font-family="Times,serif" font-size="14.00" fill="#000000">QuoteDataBean:getPrice</text>
</g>
<!-- 140178132634592 -->
<g id="node41" class="node">
<title>140178132634592</title>
<ellipse fill="none" stroke="#000000" cx="1755" cy="-508" rx="27" ry="27"/>
<text text-anchor="middle" x="1755" y="-504.3" font-family="Times,serif" font-size="14.00" fill="#000000">splace_in_MarketSummarySingleton:updateMarketSummary_3</text>
</g>
<!-- 140178132635544&#45;&gt;140178132634592 -->
<g id="edge7" class="edge">
<title>140178132635544&#45;&gt;140178132634592</title>
<path fill="none" stroke="#000000" d="M1618.0179,-508C1651.7185,-508 1689.9323,-508 1717.4193,-508"/>
<polygon fill="#000000" stroke="#000000" points="1717.7627,-511.5001 1727.7627,-508 1717.7627,-504.5001 1717.7627,-511.5001"/>
</g>
<!-- 140178132632184 -->
<g id="node8" class="node">
<title>140178132632184</title>
<polygon fill="none" stroke="#000000" points="1626,-310 1459,-310 1459,-274 1626,-274 1626,-310"/>
<text text-anchor="middle" x="1542.5" y="-288.3" font-family="Times,serif" font-size="14.00" fill="#000000">QuoteDataBean:getVolume</text>
</g>
<!-- 140178132633304 -->
<g id="node42" class="node">
<title>140178132633304</title>
<ellipse fill="none" stroke="#000000" cx="1755" cy="-292" rx="27" ry="27"/>
<text text-anchor="middle" x="1755" y="-288.3" font-family="Times,serif" font-size="14.00" fill="#000000">splace_in_MarketSummarySingleton:updateMarketSummary_4</text>
</g>
<!-- 140178132632184&#45;&gt;140178132633304 -->
<g id="edge8" class="edge">
<title>140178132632184&#45;&gt;140178132633304</title>
<path fill="none" stroke="#000000" d="M1626.1806,-292C1657.8878,-292 1692.4063,-292 1717.7236,-292"/>
<polygon fill="#000000" stroke="#000000" points="1717.9756,-295.5001 1727.9755,-292 1717.9755,-288.5001 1717.9756,-295.5001"/>
</g>
<!-- 140178132632240 -->
<g id="node9" class="node">
<title>140178132632240</title>
<polygon fill="none" stroke="#000000" points="1872,-90 1818,-90 1818,-54 1872,-54 1872,-90"/>
<text text-anchor="middle" x="1845" y="-68.3" font-family="Times,serif" font-size="14.00" fill="#000000">Root</text>
</g>
<!-- 140178132634928 -->
<g id="node47" class="node">
<title>140178132634928</title>
<ellipse fill="#ffa500" stroke="#000000" cx="1935" cy="-72" rx="27" ry="27"/>
</g>
<!-- 140178132632240&#45;&gt;140178132634928 -->
<g id="edge9" class="edge">
<title>140178132632240&#45;&gt;140178132634928</title>
<path fill="none" stroke="#000000" d="M1872.003,-72C1880.0277,-72 1888.9665,-72 1897.5309,-72"/>
<polygon fill="#000000" stroke="#000000" points="1897.7051,-75.5001 1907.705,-72 1897.705,-68.5001 1897.7051,-75.5001"/>
</g>
<!-- 140178132632016 -->
<g id="node10" class="node">
<title>140178132632016</title>
<polygon fill="none" stroke="#000000" points="1637.5,-649 1447.5,-649 1447.5,-613 1637.5,-613 1637.5,-649"/>
<text text-anchor="middle" x="1542.5" y="-627.3" font-family="Times,serif" font-size="14.00" fill="#000000">TradeConfig:getRunTimeMode</text>
</g>
<!-- 140178132635600 -->
<g id="node43" class="node">
<title>140178132635600</title>
<ellipse fill="none" stroke="#000000" cx="1755" cy="-645" rx="27" ry="27"/>
<text text-anchor="middle" x="1755" y="-641.3" font-family="Times,serif" font-size="14.00" fill="#000000">splace_in_MarketSummarySingleton:updateMarketSummary_5</text>
</g>
<!-- 140178132632016&#45;&gt;140178132635600 -->
<g id="edge10" class="edge">
<title>140178132632016&#45;&gt;140178132635600</title>
<path fill="none" stroke="#000000" d="M1637.5624,-637.2629C1665.991,-639.1359 1695.5,-641.08 1717.8264,-642.5509"/>
<polygon fill="#000000" stroke="#000000" points="1717.6523,-646.0469 1727.8608,-643.212 1718.1125,-639.0621 1717.6523,-646.0469"/>
</g>
<!-- 140178132633976 -->
<g id="node11" class="node">
<title>140178132633976</title>
<polygon fill="none" stroke="#000000" points="551,-603 497,-603 497,-567 551,-567 551,-603"/>
<text text-anchor="middle" x="524" y="-581.3" font-family="Times,serif" font-size="14.00" fill="#000000">hid_1</text>
</g>
<!-- 140178132632352 -->
<g id="node31" class="node">
<title>140178132632352</title>
<ellipse fill="none" stroke="#000000" cx="692.5" cy="-513" rx="27" ry="27"/>
<text text-anchor="middle" x="692.5" y="-509.3" font-family="Times,serif" font-size="14.00" fill="#000000">pre_MarketSummarySingleton:updateMarketSummary</text>
</g>
<!-- 140178132633976&#45;&gt;140178132632352 -->
<g id="edge11" class="edge">
<title>140178132633976&#45;&gt;140178132632352</title>
<path fill="none" stroke="#000000" d="M551.0724,-573.432C580.1587,-561.0034 626.4601,-541.2188 658.1052,-527.6969"/>
<polygon fill="#000000" stroke="#000000" points="659.5999,-530.8644 667.4203,-523.7165 656.8493,-524.4274 659.5999,-530.8644"/>
</g>
<!-- 140178123092208 -->
<g id="node12" class="node">
<title>140178123092208</title>
<polygon fill="none" stroke="#000000" points="1177,-45 1123,-45 1123,-9 1177,-9 1177,-45"/>
<text text-anchor="middle" x="1150" y="-23.3" font-family="Times,serif" font-size="14.00" fill="#000000">hid_10</text>
</g>
<!-- 140178132633024 -->
<g id="node36" class="node">
<title>140178132633024</title>
<ellipse fill="none" stroke="#000000" cx="1755" cy="-72" rx="27" ry="27"/>
<text text-anchor="middle" x="1755" y="-68.3" font-family="Times,serif" font-size="14.00" fill="#000000">pre_Root</text>
</g>
<!-- 140178123092208&#45;&gt;140178132633024 -->
<g id="edge12" class="edge">
<title>140178123092208&#45;&gt;140178132633024</title>
<path fill="none" stroke="#000000" d="M1177.1709,-29.021C1274.509,-36.261 1605.9247,-60.9118 1717.7799,-69.2316"/>
<polygon fill="#000000" stroke="#000000" points="1717.6719,-72.7331 1727.904,-69.9846 1718.1911,-65.7524 1717.6719,-72.7331"/>
</g>
<!-- 140178123093104 -->
<g id="node13" class="node">
<title>140178123093104</title>
<polygon fill="none" stroke="#000000" points="1267,-697 1213,-697 1213,-661 1267,-661 1267,-697"/>
<text text-anchor="middle" x="1240" y="-675.3" font-family="Times,serif" font-size="14.00" fill="#000000">hid_11</text>
</g>
<!-- 140178123094000 -->
<g id="node30" class="node">
<title>140178123094000</title>
<ellipse fill="none" stroke="#000000" cx="1330" cy="-690" rx="27" ry="27"/>
<text text-anchor="middle" x="1330" y="-686.3" font-family="Times,serif" font-size="14.00" fill="#000000">pre_MarketSummarySingleton:setMarketSummaryDataBean</text>
</g>
<!-- 140178123093104&#45;&gt;140178123094000 -->
<g id="edge13" class="edge">
<title>140178123093104&#45;&gt;140178123094000</title>
<path fill="none" stroke="#000000" d="M1267.003,-682.3004C1275.1903,-683.301 1284.3292,-684.418 1293.051,-685.484"/>
<polygon fill="#000000" stroke="#000000" points="1292.6653,-688.9628 1303.0161,-686.702 1293.5146,-682.0145 1292.6653,-688.9628"/>
</g>
<!-- 140178109558912 -->
<g id="node14" class="node">
<title>140178109558912</title>
<polygon fill="none" stroke="#000000" points="1267,-395 1213,-395 1213,-359 1267,-359 1267,-395"/>
<text text-anchor="middle" x="1240" y="-373.3" font-family="Times,serif" font-size="14.00" fill="#000000">hid_12</text>
</g>
<!-- 140178123093888 -->
<g id="node32" class="node">
<title>140178123093888</title>
<ellipse fill="none" stroke="#000000" cx="1330" cy="-364" rx="27" ry="27"/>
<text text-anchor="middle" x="1330" y="-360.3" font-family="Times,serif" font-size="14.00" fill="#000000">pre_QuoteDataBean:QuoteDataBean [overloaded_#001]</text>
</g>
<!-- 140178109558912&#45;&gt;140178123093888 -->
<g id="edge14" class="edge">
<title>140178109558912&#45;&gt;140178123093888</title>
<path fill="none" stroke="#000000" d="M1267.003,-373.0996C1275.1903,-371.917 1284.3292,-370.5969 1293.051,-369.3371"/>
<polygon fill="#000000" stroke="#000000" points="1293.6192,-372.7914 1303.0161,-367.8977 1292.6184,-365.8633 1293.6192,-372.7914"/>
</g>
<!-- 140178109559136 -->
<g id="node15" class="node">
<title>140178109559136</title>
<polygon fill="none" stroke="#000000" points="1267,-462 1213,-462 1213,-426 1267,-426 1267,-462"/>
<text text-anchor="middle" x="1240" y="-440.3" font-family="Times,serif" font-size="14.00" fill="#000000">hid_13</text>
</g>
<!-- 140178123092992 -->
<g id="node33" class="node">
<title>140178123092992</title>
<ellipse fill="none" stroke="#000000" cx="1330" cy="-436" rx="27" ry="27"/>
<text text-anchor="middle" x="1330" y="-432.3" font-family="Times,serif" font-size="14.00" fill="#000000">pre_QuoteDataBean:getOpen</text>
</g>
<!-- 140178109559136&#45;&gt;140178123092992 -->
<g id="edge15" class="edge">
<title>140178109559136&#45;&gt;140178123092992</title>
<path fill="none" stroke="#000000" d="M1267.003,-441.5997C1275.1903,-440.872 1284.3292,-440.0596 1293.051,-439.2844"/>
<polygon fill="#000000" stroke="#000000" points="1293.3653,-442.7703 1303.0161,-438.3986 1292.7454,-435.7978 1293.3653,-442.7703"/>
</g>
<!-- 140178109559360 -->
<g id="node16" class="node">
<title>140178109559360</title>
<polygon fill="none" stroke="#000000" points="1267,-519 1213,-519 1213,-483 1267,-483 1267,-519"/>
<text text-anchor="middle" x="1240" y="-497.3" font-family="Times,serif" font-size="14.00" fill="#000000">hid_14</text>
</g>
<!-- 140178123095848 -->
<g id="node34" class="node">
<title>140178123095848</title>
<ellipse fill="none" stroke="#000000" cx="1330" cy="-508" rx="27" ry="27"/>
<text text-anchor="middle" x="1330" y="-504.3" font-family="Times,serif" font-size="14.00" fill="#000000">pre_QuoteDataBean:getPrice</text>
</g>
<!-- 140178109559360&#45;&gt;140178123095848 -->
<g id="edge16" class="edge">
<title>140178109559360&#45;&gt;140178123095848</title>
<path fill="none" stroke="#000000" d="M1267.003,-503.1002C1275.1013,-503.7301 1284.1306,-504.4324 1292.7665,-505.1041"/>
<polygon fill="#000000" stroke="#000000" points="1292.7748,-508.6152 1303.0161,-505.9013 1293.3176,-501.6363 1292.7748,-508.6152"/>
</g>
<!-- 140178109559584 -->
<g id="node17" class="node">
<title>140178109559584</title>
<polygon fill="none" stroke="#000000" points="1267,-337 1213,-337 1213,-301 1267,-301 1267,-337"/>
<text text-anchor="middle" x="1240" y="-315.3" font-family="Times,serif" font-size="14.00" fill="#000000">hid_15</text>
</g>
<!-- 140178123093272 -->
<g id="node35" class="node">
<title>140178123093272</title>
<ellipse fill="none" stroke="#000000" cx="1330" cy="-292" rx="27" ry="27"/>
<text text-anchor="middle" x="1330" y="-288.3" font-family="Times,serif" font-size="14.00" fill="#000000">pre_QuoteDataBean:getVolume</text>
</g>
<!-- 140178109559584&#45;&gt;140178123093272 -->
<g id="edge17" class="edge">
<title>140178109559584&#45;&gt;140178123093272</title>
<path fill="none" stroke="#000000" d="M1267.003,-310.8991C1275.5964,-308.3211 1285.2382,-305.4285 1294.3457,-302.6963"/>
<polygon fill="#000000" stroke="#000000" points="1295.3712,-306.0428 1303.9437,-299.8169 1293.3597,-299.338 1295.3712,-306.0428"/>
</g>
<!-- 140178109559808 -->
<g id="node18" class="node">
<title>140178109559808</title>
<polygon fill="none" stroke="#000000" points="1267,-205 1213,-205 1213,-169 1267,-169 1267,-205"/>
<text text-anchor="middle" x="1240" y="-183.3" font-family="Times,serif" font-size="14.00" fill="#000000">hid_16</text>
</g>
<!-- 140178123093216 -->
<g id="node44" class="node">
<title>140178123093216</title>
<ellipse fill="none" stroke="#000000" cx="1330" cy="-182" rx="27" ry="27"/>
<text text-anchor="middle" x="1330" y="-178.3" font-family="Times,serif" font-size="14.00" fill="#000000">splace_in_Root_0</text>
</g>
<!-- 140178109559808&#45;&gt;140178123093216 -->
<g id="edge18" class="edge">
<title>140178109559808&#45;&gt;140178123093216</title>
<path fill="none" stroke="#000000" d="M1267.003,-185.4998C1275.1013,-185.0499 1284.1306,-184.5483 1292.7665,-184.0685"/>
<polygon fill="#000000" stroke="#000000" points="1293.2257,-187.5485 1303.0161,-183.4991 1292.8373,-180.5593 1293.2257,-187.5485"/>
</g>
<!-- 140178109560032 -->
<g id="node19" class="node">
<title>140178109560032</title>
<polygon fill="none" stroke="#000000" points="1267,-632 1213,-632 1213,-596 1267,-596 1267,-632"/>
<text text-anchor="middle" x="1240" y="-610.3" font-family="Times,serif" font-size="14.00" fill="#000000">hid_17</text>
</g>
<!-- 140178123092432 -->
<g id="node37" class="node">
<title>140178123092432</title>
<ellipse fill="none" stroke="#000000" cx="1330" cy="-618" rx="27" ry="27"/>
<text text-anchor="middle" x="1330" y="-614.3" font-family="Times,serif" font-size="14.00" fill="#000000">pre_TradeConfig:getRunTimeMode</text>
</g>
<!-- 140178109560032&#45;&gt;140178123092432 -->
<g id="edge19" class="edge">
<title>140178109560032&#45;&gt;140178123092432</title>
<path fill="none" stroke="#000000" d="M1267.003,-615.2001C1275.1013,-615.5601 1284.1306,-615.9614 1292.7665,-616.3452"/>
<polygon fill="#000000" stroke="#000000" points="1292.8705,-619.8532 1303.0161,-616.8007 1293.1814,-612.8601 1292.8705,-619.8532"/>
</g>
<!-- 140178132634256 -->
<g id="node20" class="node">
<title>140178132634256</title>
<polygon fill="none" stroke="#000000" points="1872,-332 1818,-332 1818,-296 1872,-296 1872,-332"/>
<text text-anchor="middle" x="1845" y="-310.3" font-family="Times,serif" font-size="14.00" fill="#000000">hid_2</text>
</g>
<!-- 140178132634256&#45;&gt;140178132632352 -->
<g id="edge20" class="edge">
<title>140178132634256&#45;&gt;140178132632352</title>
<path fill="none" stroke="#000000" d="M1831.1191,-295.8872C1819.5862,-282.3281 1801.8925,-264.6845 1782,-256 1684.1405,-213.2771 1649.2789,-237 1542.5,-237 1150,-237 1150,-237 1150,-237 959.7505,-237 780.6936,-414.1505 717.0068,-484.6014"/>
<polygon fill="#000000" stroke="#000000" points="714.2197,-482.4675 710.1634,-492.2551 719.438,-487.1333 714.2197,-482.4675"/>
</g>
<!-- 140178132633360 -->
<g id="node21" class="node">
<title>140178132633360</title>
<polygon fill="none" stroke="#000000" points="1872,-554 1818,-554 1818,-518 1872,-518 1872,-554"/>
<text text-anchor="middle" x="1845" y="-532.3" font-family="Times,serif" font-size="14.00" fill="#000000">hid_3</text>
</g>
<!-- 140178132633360&#45;&gt;140178132632352 -->
<g id="edge21" class="edge">
<title>140178132633360&#45;&gt;140178132632352</title>
<path fill="none" stroke="#000000" d="M1817.9562,-540.0422C1765.1423,-547.5743 1644.5251,-563 1542.5,-563 1150,-563 1150,-563 1150,-563 992.7998,-563 807.005,-533.4674 729.4185,-519.7961"/>
<polygon fill="#000000" stroke="#000000" points="729.6619,-516.2844 719.2031,-517.977 728.4346,-523.176 729.6619,-516.2844"/>
</g>
<!-- 140178132631736 -->
<g id="node22" class="node">
<title>140178132631736</title>
<polygon fill="none" stroke="#000000" points="1872,-645 1818,-645 1818,-609 1872,-609 1872,-645"/>
<text text-anchor="middle" x="1845" y="-623.3" font-family="Times,serif" font-size="14.00" fill="#000000">hid_4</text>
</g>
<!-- 140178132631736&#45;&gt;140178132632352 -->
<g id="edge22" class="edge">
<title>140178132631736&#45;&gt;140178132632352</title>
<path fill="none" stroke="#000000" d="M1828.1355,-645.1941C1816.2757,-656.9829 1799.4607,-671.8013 1782,-681 1684.5206,-732.3543 1652.6794,-745 1542.5,-745 1150,-745 1150,-745 1150,-745 969.0042,-745 787.0419,-598.7759 719.7251,-538.5021"/>
<polygon fill="#000000" stroke="#000000" points="721.8547,-535.7089 712.0918,-531.5934 717.1573,-540.8988 721.8547,-535.7089"/>
</g>
<!-- 140178132633528 -->
<g id="node23" class="node">
<title>140178132633528</title>
<polygon fill="none" stroke="#000000" points="1872,-228 1818,-228 1818,-192 1872,-192 1872,-228"/>
<text text-anchor="middle" x="1845" y="-206.3" font-family="Times,serif" font-size="14.00" fill="#000000">hid_5</text>
</g>
<!-- 140178132633528&#45;&gt;140178132632352 -->
<g id="edge23" class="edge">
<title>140178132633528&#45;&gt;140178132632352</title>
<path fill="none" stroke="#000000" d="M1817.9375,-197.5746C1787.8012,-184.2117 1737.3512,-163.24 1692,-151 1627.0295,-133.4648 1609.7952,-127 1542.5,-127 1150,-127 1150,-127 1150,-127 982.5931,-127 911.7162,-125.0143 791,-241 724.3469,-305.0412 702.6209,-417.5849 695.6735,-475.7919"/>
<polygon fill="#000000" stroke="#000000" points="692.1646,-475.6792 694.5407,-486.0041 699.1219,-476.4509 692.1646,-475.6792"/>
</g>
<!-- 140178132635096 -->
<g id="node24" class="node">
<title>140178132635096</title>
<polygon fill="none" stroke="#000000" points="1872,-717 1818,-717 1818,-681 1872,-681 1872,-717"/>
<text text-anchor="middle" x="1845" y="-695.3" font-family="Times,serif" font-size="14.00" fill="#000000">hid_6</text>
</g>
<!-- 140178132635096&#45;&gt;140178132632352 -->
<g id="edge24" class="edge">
<title>140178132635096&#45;&gt;140178132632352</title>
<path fill="none" stroke="#000000" d="M1817.9623,-711.6555C1787.8476,-725.2619 1737.4164,-746.6039 1692,-759 1627.0796,-776.7195 1609.7952,-783 1542.5,-783 1150,-783 1150,-783 1150,-783 984.37,-783 921.9825,-784.375 791,-683 746.4284,-648.5034 718.3587,-587.716 704.0574,-548.9477"/>
<polygon fill="#000000" stroke="#000000" points="707.207,-547.3598 700.5513,-539.1165 700.6138,-549.7112 707.207,-547.3598"/>
</g>
<!-- 140178132633136 -->
<g id="node25" class="node">
<title>140178132633136</title>
<polygon fill="none" stroke="#000000" points="551,-410 497,-410 497,-374 551,-374 551,-410"/>
<text text-anchor="middle" x="524" y="-388.3" font-family="Times,serif" font-size="14.00" fill="#000000">hid_7</text>
</g>
<!-- 140178132633136&#45;&gt;140178132632352 -->
<g id="edge25" class="edge">
<title>140178132633136&#45;&gt;140178132632352</title>
<path fill="none" stroke="#000000" d="M549.2262,-410.1149C579.3974,-431.7809 629.8639,-468.021 662.1421,-491.1999"/>
<polygon fill="#000000" stroke="#000000" points="660.168,-494.0913 670.3322,-497.0813 664.251,-488.4054 660.168,-494.0913"/>
</g>
<!-- 140178123094504 -->
<g id="node26" class="node">
<title>140178123094504</title>
<polygon fill="none" stroke="#000000" points="1569.5,-196 1515.5,-196 1515.5,-160 1569.5,-160 1569.5,-196"/>
<text text-anchor="middle" x="1542.5" y="-174.3" font-family="Times,serif" font-size="14.00" fill="#000000">hid_8</text>
</g>
<!-- 140178123094504&#45;&gt;140178132633024 -->
<g id="edge26" class="edge">
<title>140178123094504&#45;&gt;140178132633024</title>
<path fill="none" stroke="#000000" d="M1569.8456,-164.3594C1608.7173,-144.9692 1679.8689,-109.4772 1721.7431,-88.5893"/>
<polygon fill="#000000" stroke="#000000" points="1723.3288,-91.7097 1730.715,-84.114 1720.2041,-85.4457 1723.3288,-91.7097"/>
</g>
<!-- 140178123092152 -->
<g id="node27" class="node">
<title>140178123092152</title>
<polygon fill="none" stroke="#000000" points="1177,-99 1123,-99 1123,-63 1177,-63 1177,-99"/>
<text text-anchor="middle" x="1150" y="-77.3" font-family="Times,serif" font-size="14.00" fill="#000000">hid_9</text>
</g>
<!-- 140178123092152&#45;&gt;140178132633024 -->
<g id="edge27" class="edge">
<title>140178123092152&#45;&gt;140178132633024</title>
<path fill="none" stroke="#000000" d="M1177.1709,-80.5958C1274.509,-79.1478 1605.9247,-74.2176 1717.7799,-72.5537"/>
<polygon fill="#000000" stroke="#000000" points="1717.9572,-76.0515 1727.904,-72.4031 1717.853,-69.0523 1717.9572,-76.0515"/>
</g>
<!-- 140178132635040 -->
<g id="node28" class="node">
<title>140178132635040</title>
<ellipse fill="#00ff00" stroke="#000000" cx="391" cy="-90" rx="27" ry="27"/>
<text text-anchor="middle" x="391" y="-86.3" font-family="Times,serif" font-size="14.00" fill="#000000">1</text>
</g>
<!-- 140178132635040&#45;&gt;140178132633248 -->
<g id="edge43" class="edge">
<title>140178132635040&#45;&gt;140178132633248</title>
<path fill="none" stroke="#000000" d="M418.2355,-90C425.9374,-90 434.7341,-90 443.8904,-90"/>
<polygon fill="#000000" stroke="#000000" points="443.9323,-93.5001 453.9323,-90 443.9322,-86.5001 443.9323,-93.5001"/>
</g>
<!-- 140178132635040&#45;&gt;140178132632912 -->
<g id="edge44" class="edge">
<title>140178132635040&#45;&gt;140178132632912</title>
<path fill="none" stroke="#000000" d="M415.3042,-77.8605C426.7884,-72.5761 440.8384,-66.747 454,-63 508.5207,-47.4785 572.071,-38.3059 619.856,-33.1079"/>
<polygon fill="#000000" stroke="#000000" points="620.2272,-36.5883 629.8046,-32.0582 619.4926,-29.6269 620.2272,-36.5883"/>
</g>
<!-- 140178132635040&#45;&gt;140178132633136 -->
<g id="edge45" class="edge">
<title>140178132635040&#45;&gt;140178132633136</title>
<path fill="none" stroke="#000000" d="M401.8839,-114.7139C426.457,-170.5113 486.0926,-305.9245 511.8354,-364.3782"/>
<polygon fill="#000000" stroke="#000000" points="508.7159,-365.9789 515.9496,-373.7201 515.1222,-363.1576 508.7159,-365.9789"/>
</g>
<!-- 140178123092488&#45;&gt;140178123093104 -->
<g id="edge28" class="edge">
<title>140178123092488&#45;&gt;140178123093104</title>
<path fill="none" stroke="#000000" d="M1157.5127,-499.2264C1167.7223,-533.0701 1187.6478,-593.27 1213,-641 1215.0073,-644.7791 1217.3373,-648.6182 1219.7709,-652.3313"/>
<polygon fill="#000000" stroke="#000000" points="1216.9727,-654.4386 1225.5347,-660.679 1222.733,-650.4613 1216.9727,-654.4386"/>
</g>
<!-- 140178123092488&#45;&gt;140178109558912 -->
<g id="edge29" class="edge">
<title>140178123092488&#45;&gt;140178109558912</title>
<path fill="none" stroke="#000000" d="M1168.6481,-453.1087C1182.3646,-438.4777 1201.1247,-418.467 1215.9662,-402.636"/>
<polygon fill="#000000" stroke="#000000" points="1218.6119,-404.9314 1222.898,-395.2422 1213.5051,-400.1437 1218.6119,-404.9314"/>
</g>
<!-- 140178123092488&#45;&gt;140178109559136 -->
<g id="edge30" class="edge">
<title>140178123092488&#45;&gt;140178109559136</title>
<path fill="none" stroke="#000000" d="M1176.0317,-464.612C1184.4955,-461.8848 1194.055,-458.8045 1203.1543,-455.8725"/>
<polygon fill="#000000" stroke="#000000" points="1204.3292,-459.1712 1212.7738,-452.7729 1202.1823,-452.5086 1204.3292,-459.1712"/>
</g>
<!-- 140178123092488&#45;&gt;140178109559360 -->
<g id="edge31" class="edge">
<title>140178123092488&#45;&gt;140178109559360</title>
<path fill="none" stroke="#000000" d="M1176.0317,-481.0988C1184.4955,-483.7319 1194.055,-486.706 1203.1543,-489.5369"/>
<polygon fill="#000000" stroke="#000000" points="1202.1855,-492.9009 1212.7738,-492.5296 1204.265,-486.2169 1202.1855,-492.9009"/>
</g>
<!-- 140178123092488&#45;&gt;140178109559584 -->
<g id="edge32" class="edge">
<title>140178123092488&#45;&gt;140178109559584</title>
<path fill="none" stroke="#000000" d="M1160.6442,-447.9725C1172.0141,-422.3923 1191.3505,-381.9905 1213,-350 1214.11,-348.3598 1215.2967,-346.7109 1216.5302,-345.0745"/>
<polygon fill="#000000" stroke="#000000" points="1219.4094,-347.0794 1222.9522,-337.0945 1213.9559,-342.6907 1219.4094,-347.0794"/>
</g>
<!-- 140178123092488&#45;&gt;140178109559808 -->
<g id="edge33" class="edge">
<title>140178123092488&#45;&gt;140178109559808</title>
<path fill="none" stroke="#000000" d="M1158.1456,-447.115C1175.0155,-393.5063 1213.6558,-270.716 1231.1296,-215.188"/>
<polygon fill="#000000" stroke="#000000" points="1234.5697,-215.916 1234.2329,-205.3265 1227.8925,-213.8147 1234.5697,-215.916"/>
</g>
<!-- 140178123092488&#45;&gt;140178109560032 -->
<g id="edge34" class="edge">
<title>140178123092488&#45;&gt;140178109560032</title>
<path fill="none" stroke="#000000" d="M1164.6604,-495.9679C1180.6115,-520.9581 1206.0828,-560.863 1222.9246,-587.2485"/>
<polygon fill="#000000" stroke="#000000" points="1220.1615,-589.4249 1228.4921,-595.971 1226.062,-585.6586 1220.1615,-589.4249"/>
</g>
<!-- 140178123094000&#45;&gt;140178132632464 -->
<g id="edge35" class="edge">
<title>140178123094000&#45;&gt;140178132632464</title>
<path fill="none" stroke="#000000" d="M1314.4761,-712.2224C1286.3468,-749.5972 1223.0482,-821 1150,-821 524,-821 524,-821 524,-821 408.4585,-821 279.4179,-772.5877 211.5995,-743.1327"/>
<polygon fill="#000000" stroke="#000000" points="213.0073,-739.9283 202.4441,-739.1092 210.191,-746.3368 213.0073,-739.9283"/>
</g>
<!-- 140178132632352&#45;&gt;140178132272408 -->
<g id="edge36" class="edge">
<title>140178132632352&#45;&gt;140178132272408</title>
<path fill="none" stroke="#000000" d="M719.3491,-509.0788C740.7781,-505.9492 772.5437,-501.31 805.3009,-496.526"/>
<polygon fill="#000000" stroke="#000000" points="806.0991,-499.9467 815.4884,-495.0382 805.0875,-493.0201 806.0991,-499.9467"/>
</g>
<!-- 140178123093888&#45;&gt;140178132632296 -->
<g id="edge37" class="edge">
<title>140178123093888&#45;&gt;140178132632296</title>
<path fill="none" stroke="#000000" d="M1357.3456,-364C1364.6721,-364 1373.1453,-364 1382.3531,-364"/>
<polygon fill="#000000" stroke="#000000" points="1382.6133,-367.5001 1392.6133,-364 1382.6132,-360.5001 1382.6133,-367.5001"/>
</g>
<!-- 140178123092992&#45;&gt;140178132633080 -->
<g id="edge38" class="edge">
<title>140178123092992&#45;&gt;140178132633080</title>
<path fill="none" stroke="#000000" d="M1357.3456,-436C1382.3416,-436 1420.6852,-436 1456.0087,-436"/>
<polygon fill="#000000" stroke="#000000" points="1456.3653,-439.5001 1466.3653,-436 1456.3652,-432.5001 1456.3653,-439.5001"/>
</g>
<!-- 140178123095848&#45;&gt;140178132635544 -->
<g id="edge39" class="edge">
<title>140178123095848&#45;&gt;140178132635544</title>
<path fill="none" stroke="#000000" d="M1357.3456,-508C1382.4436,-508 1420.9984,-508 1456.4411,-508"/>
<polygon fill="#000000" stroke="#000000" points="1456.8301,-511.5001 1466.83,-508 1456.83,-504.5001 1456.8301,-511.5001"/>
</g>
<!-- 140178123093272&#45;&gt;140178132632184 -->
<g id="edge40" class="edge">
<title>140178123093272&#45;&gt;140178132632184</title>
<path fill="none" stroke="#000000" d="M1357.3456,-292C1380.6089,-292 1415.4335,-292 1448.625,-292"/>
<polygon fill="#000000" stroke="#000000" points="1448.8588,-295.5001 1458.8587,-292 1448.8587,-288.5001 1448.8588,-295.5001"/>
</g>
<!-- 140178132633024&#45;&gt;140178132632240 -->
<g id="edge41" class="edge">
<title>140178132633024&#45;&gt;140178132632240</title>
<path fill="none" stroke="#000000" d="M1782.003,-72C1790.0277,-72 1798.9665,-72 1807.5309,-72"/>
<polygon fill="#000000" stroke="#000000" points="1807.7051,-75.5001 1817.705,-72 1807.705,-68.5001 1807.7051,-75.5001"/>
</g>
<!-- 140178123092432&#45;&gt;140178132632016 -->
<g id="edge42" class="edge">
<title>140178123092432&#45;&gt;140178132632016</title>
<path fill="none" stroke="#000000" d="M1357.3456,-619.6729C1377.9913,-620.9359 1407.7429,-622.756 1437.3776,-624.569"/>
<polygon fill="#000000" stroke="#000000" points="1437.2147,-628.0655 1447.4098,-625.1827 1437.6422,-621.0785 1437.2147,-628.0655"/>
</g>
<!-- 140178132633472&#45;&gt;140178132633976 -->
<g id="edge46" class="edge">
<title>140178132633472&#45;&gt;140178132633976</title>
<path fill="none" stroke="#000000" d="M417.2765,-614.69C437.2339,-609.1379 464.9334,-601.4321 487.1113,-595.2623"/>
<polygon fill="#000000" stroke="#000000" points="488.1689,-598.601 496.865,-592.5488 486.2927,-591.8571 488.1689,-598.601"/>
</g>
<!-- 140178132632968&#45;&gt;140178132634256 -->
<g id="edge47" class="edge">
<title>140178132632968&#45;&gt;140178132634256</title>
<path fill="none" stroke="#000000" d="M1778.6464,-350.8631C1787.9112,-345.716 1798.7479,-339.6956 1808.9459,-334.03"/>
<polygon fill="#000000" stroke="#000000" points="1810.646,-337.0895 1817.6878,-329.1734 1807.2465,-330.9704 1810.646,-337.0895"/>
</g>
<!-- 140178132632632&#45;&gt;140178132633360 -->
<g id="edge48" class="edge">
<title>140178132632632&#45;&gt;140178132633360</title>
<path fill="none" stroke="#000000" d="M1773.2128,-456.2365C1787.1613,-471.7348 1806.5085,-493.2317 1821.6035,-510.0039"/>
<polygon fill="#000000" stroke="#000000" points="1819.3387,-512.7194 1828.6299,-517.811 1824.5418,-508.0367 1819.3387,-512.7194"/>
</g>
<!-- 140178132634592&#45;&gt;140178132631736 -->
<g id="edge49" class="edge">
<title>140178132634592&#45;&gt;140178132631736</title>
<path fill="none" stroke="#000000" d="M1771.2983,-529.55C1786.4134,-549.5355 1808.9432,-579.3249 1825.1114,-600.7029"/>
<polygon fill="#000000" stroke="#000000" points="1822.3579,-602.8644 1831.1816,-608.729 1827.941,-598.6419 1822.3579,-602.8644"/>
</g>
<!-- 140178132633304&#45;&gt;140178132633528 -->
<g id="edge50" class="edge">
<title>140178132633304&#45;&gt;140178132633528</title>
<path fill="none" stroke="#000000" d="M1774.9739,-273.8015C1787.4415,-262.4422 1803.6671,-247.6588 1817.36,-235.1831"/>
<polygon fill="#000000" stroke="#000000" points="1820.0472,-237.4697 1825.0819,-228.1476 1815.3327,-232.2953 1820.0472,-237.4697"/>
</g>
<!-- 140178132635600&#45;&gt;140178132635096 -->
<g id="edge51" class="edge">
<title>140178132635600&#45;&gt;140178132635096</title>
<path fill="none" stroke="#000000" d="M1778.1772,-658.9063C1787.5228,-664.5137 1798.5253,-671.1152 1808.8755,-677.3253"/>
<polygon fill="#000000" stroke="#000000" points="1807.3695,-680.5033 1817.7452,-682.6471 1810.971,-674.5009 1807.3695,-680.5033"/>
</g>
<!-- 140178123093216&#45;&gt;140178123094504 -->
<g id="edge52" class="edge">
<title>140178123093216&#45;&gt;140178123094504</title>
<path fill="none" stroke="#000000" d="M1357.3456,-181.4853C1394.9607,-180.7772 1462.8021,-179.5002 1505.0921,-178.7041"/>
<polygon fill="#000000" stroke="#000000" points="1505.327,-182.2004 1515.2593,-178.5128 1505.1952,-175.2017 1505.327,-182.2004"/>
</g>
<!-- 140178123092040&#45;&gt;140178123092152 -->
<g id="edge53" class="edge">
<title>140178123092040&#45;&gt;140178123092152</title>
<path fill="none" stroke="#000000" d="M719.7486,-89.464C797.9408,-87.9258 1023.1568,-83.4953 1112.6697,-81.7344"/>
<polygon fill="#000000" stroke="#000000" points="1112.965,-85.2293 1122.8942,-81.5332 1112.8272,-78.2307 1112.965,-85.2293"/>
</g>
<!-- 140178123092376&#45;&gt;140178123092208 -->
<g id="edge54" class="edge">
<title>140178123092376&#45;&gt;140178123092208</title>
<path fill="none" stroke="#000000" d="M966.1526,-27C1003.5021,-27 1070.8646,-27 1112.8561,-27"/>
<polygon fill="#000000" stroke="#000000" points="1112.9517,-30.5001 1122.9516,-27 1112.9516,-23.5001 1112.9517,-30.5001"/>
</g>
</g>
</svg>
