<?xml version="1.0" encoding="UTF-8" standalone="no"?>
<!DOCTYPE svg PUBLIC "-//W3C//DTD SVG 1.1//EN"
 "http://www.w3.org/Graphics/SVG/1.1/DTD/svg11.dtd">
<!-- Generated by graphviz version 2.40.1 (20161225.0304)
 -->
<!-- Title: alpha_plus_net_1585315547.2469795 Pages: 1 -->
<svg width="658pt" height="278pt"
 viewBox="0.00 0.00 658.00 278.00" xmlns="http://www.w3.org/2000/svg" xmlns:xlink="http://www.w3.org/1999/xlink">
<g id="graph0" class="graph" transform="scale(1 1) rotate(0) translate(4 274)">
<title>alpha_plus_net_1585315547.2469795</title>
<!-- 140178132634480 -->
<g id="node1" class="node">
<title>140178132634480</title>
<polygon fill="none" stroke="#000000" points="148.5,-36 34.5,-36 34.5,0 148.5,0 148.5,-36"/>
<text text-anchor="middle" x="91.5" y="-14.3" font-family="Times,serif" font-size="14.00" fill="#000000">PingBean:getMsg</text>
</g>
<!-- 140178132632072 -->
<g id="node2" class="node">
<title>140178132632072</title>
<polygon fill="none" stroke="#000000" points="148,-90 35,-90 35,-54 148,-54 148,-90"/>
<text text-anchor="middle" x="91.5" y="-68.3" font-family="Times,serif" font-size="14.00" fill="#000000">PingBean:setMsg</text>
</g>
<!-- 140178132633248 -->
<g id="node3" class="node">
<title>140178132633248</title>
<polygon fill="none" stroke="#000000" points="380,-153 219,-153 219,-117 380,-117 380,-153"/>
<text text-anchor="middle" x="299.5" y="-131.3" font-family="Times,serif" font-size="14.00" fill="#000000">PingServlet2Servlet:doGet</text>
</g>
<!-- 140178132634984 -->
<g id="node8" class="node">
<title>140178132634984</title>
<ellipse fill="none" stroke="#000000" cx="443" cy="-135" rx="27" ry="27"/>
<text text-anchor="middle" x="443" y="-131.3" font-family="Times,serif" font-size="14.00" fill="#000000">({&#39;PingServlet2Servlet:doGet&#39;}, {&#39;Root&#39;})</text>
</g>
<!-- 140178132633248&#45;&gt;140178132634984 -->
<g id="edge3" class="edge">
<title>140178132633248&#45;&gt;140178132634984</title>
<path fill="none" stroke="#000000" d="M380.0588,-135C389.032,-135 397.8187,-135 405.8458,-135"/>
<polygon fill="#000000" stroke="#000000" points="405.9126,-138.5001 415.9126,-135 405.9125,-131.5001 405.9126,-138.5001"/>
</g>
<!-- 140178132631680 -->
<g id="node4" class="node">
<title>140178132631680</title>
<polygon fill="none" stroke="#000000" points="183,-216 0,-216 0,-180 183,-180 183,-216"/>
<text text-anchor="middle" x="91.5" y="-194.3" font-family="Times,serif" font-size="14.00" fill="#000000">PingServlet2ServletRcv:doGet</text>
</g>
<!-- 140178132634088 -->
<g id="node5" class="node">
<title>140178132634088</title>
<polygon fill="none" stroke="#000000" points="175.5,-270 7.5,-270 7.5,-234 175.5,-234 175.5,-270"/>
<text text-anchor="middle" x="91.5" y="-248.3" font-family="Times,serif" font-size="14.00" fill="#000000">PingServlet2ServletRcv:init</text>
</g>
<!-- 140178132631624 -->
<g id="node6" class="node">
<title>140178132631624</title>
<polygon fill="none" stroke="#000000" points="560,-153 506,-153 506,-117 560,-117 560,-153"/>
<text text-anchor="middle" x="533" y="-131.3" font-family="Times,serif" font-size="14.00" fill="#000000">Root</text>
</g>
<!-- 140178132633360 -->
<g id="node9" class="node">
<title>140178132633360</title>
<ellipse fill="#ffa500" stroke="#000000" cx="623" cy="-135" rx="27" ry="27"/>
</g>
<!-- 140178132631624&#45;&gt;140178132633360 -->
<g id="edge4" class="edge">
<title>140178132631624&#45;&gt;140178132633360</title>
<path fill="none" stroke="#000000" d="M560.003,-135C568.0277,-135 576.9665,-135 585.5309,-135"/>
<polygon fill="#000000" stroke="#000000" points="585.7051,-138.5001 595.705,-135 585.705,-131.5001 585.7051,-138.5001"/>
</g>
<!-- 140178132632912 -->
<g id="node7" class="node">
<title>140178132632912</title>
<ellipse fill="#00ff00" stroke="#000000" cx="91.5" cy="-135" rx="27" ry="27"/>
<text text-anchor="middle" x="91.5" y="-131.3" font-family="Times,serif" font-size="14.00" fill="#000000">1</text>
</g>
<!-- 140178132632912&#45;&gt;140178132633248 -->
<g id="edge2" class="edge">
<title>140178132632912&#45;&gt;140178132633248</title>
<path fill="none" stroke="#000000" d="M118.6924,-135C141.7451,-135 176.1736,-135 208.8214,-135"/>
<polygon fill="#000000" stroke="#000000" points="208.8818,-138.5001 218.8818,-135 208.8817,-131.5001 208.8818,-138.5001"/>
</g>
<!-- 140178132634984&#45;&gt;140178132631624 -->
<g id="edge1" class="edge">
<title>140178132634984&#45;&gt;140178132631624</title>
<path fill="none" stroke="#000000" d="M470.003,-135C478.0277,-135 486.9665,-135 495.5309,-135"/>
<polygon fill="#000000" stroke="#000000" points="495.7051,-138.5001 505.705,-135 495.705,-131.5001 495.7051,-138.5001"/>
</g>
</g>
</svg>
