<?xml version="1.0" encoding="UTF-8" standalone="no"?>
<!DOCTYPE svg PUBLIC "-//W3C//DTD SVG 1.1//EN"
 "http://www.w3.org/Graphics/SVG/1.1/DTD/svg11.dtd">
<!-- Generated by graphviz version 2.40.1 (20161225.0304)
 -->
<!-- Title: %3 Pages: 1 -->
<svg width="1242pt" height="241pt"
 viewBox="0.00 0.00 1242.00 241.09" xmlns="http://www.w3.org/2000/svg" xmlns:xlink="http://www.w3.org/1999/xlink">
<g id="graph0" class="graph" transform="scale(1 1) rotate(0) translate(4 237.0868)">
<title>%3</title>
<!-- 140178132321784 -->
<g id="node1" class="node">
<title>140178132321784</title>
<polygon fill="none" stroke="#000000" points="113,-201.0868 0,-201.0868 0,-165.0868 113,-165.0868 113,-201.0868"/>
<text text-anchor="middle" x="56.5" y="-179.3868" font-family="Times,serif" font-size="14.00" fill="#000000">PingBean:setMsg</text>
</g>
<!-- 140178132323408 -->
<g id="node17" class="node">
<title>140178132323408</title>
<ellipse fill="none" stroke="#000000" cx="176" cy="-156.0868" rx="27" ry="27"/>
<text text-anchor="middle" x="176" y="-152.3868" font-family="Times,serif" font-size="14.00" fill="#000000">splace_in_PingServlet2Servlet:doGet_0</text>
</g>
<!-- 140178132321784&#45;&gt;140178132323408 -->
<g id="edge1" class="edge">
<title>140178132321784&#45;&gt;140178132323408</title>
<path fill="none" stroke="#000000" d="M113.1004,-170.2984C122.1069,-168.2634 131.2092,-166.2069 139.5855,-164.3143"/>
<polygon fill="#000000" stroke="#000000" points="140.4047,-167.7175 149.3875,-162.0996 138.862,-160.8896 140.4047,-167.7175"/>
</g>
<!-- 140178132322960 -->
<g id="node2" class="node">
<title>140178132322960</title>
<polygon fill="none" stroke="#000000" points="580,-123.0868 419,-123.0868 419,-87.0868 580,-87.0868 580,-123.0868"/>
<text text-anchor="middle" x="499.5" y="-101.3868" font-family="Times,serif" font-size="14.00" fill="#000000">PingServlet2Servlet:doGet</text>
</g>
<!-- 140178132321840 -->
<g id="node12" class="node">
<title>140178132321840</title>
<ellipse fill="none" stroke="#000000" cx="643" cy="-107.0868" rx="27" ry="27"/>
<text text-anchor="middle" x="643" y="-103.3868" font-family="Times,serif" font-size="14.00" fill="#000000">intplace_PingServlet2Servlet:doGet</text>
</g>
<!-- 140178132322960&#45;&gt;140178132321840 -->
<g id="edge2" class="edge">
<title>140178132322960&#45;&gt;140178132321840</title>
<path fill="none" stroke="#000000" d="M580.0588,-106.2095C589.032,-106.3346 597.8187,-106.4571 605.8458,-106.5689"/>
<polygon fill="#000000" stroke="#000000" points="605.8647,-110.0695 615.9126,-106.7093 605.9624,-103.0701 605.8647,-110.0695"/>
</g>
<!-- 140178132323016 -->
<g id="node3" class="node">
<title>140178132323016</title>
<polygon fill="none" stroke="#000000" points="1054,-147.0868 886,-147.0868 886,-111.0868 1054,-111.0868 1054,-147.0868"/>
<text text-anchor="middle" x="970" y="-125.3868" font-family="Times,serif" font-size="14.00" fill="#000000">PingServlet2ServletRcv:init</text>
</g>
<!-- 140179082132672 -->
<g id="node18" class="node">
<title>140179082132672</title>
<ellipse fill="none" stroke="#000000" cx="1117" cy="-129.0868" rx="27" ry="27"/>
<text text-anchor="middle" x="1117" y="-125.3868" font-family="Times,serif" font-size="14.00" fill="#000000">splace_in_PingServlet2Servlet:doGet_1</text>
</g>
<!-- 140178132323016&#45;&gt;140179082132672 -->
<g id="edge3" class="edge">
<title>140178132323016&#45;&gt;140179082132672</title>
<path fill="none" stroke="#000000" d="M1054.2324,-129.0868C1063.053,-129.0868 1071.6629,-129.0868 1079.5391,-129.0868"/>
<polygon fill="#000000" stroke="#000000" points="1079.7755,-132.5869 1089.7755,-129.0868 1079.7754,-125.5869 1079.7755,-132.5869"/>
</g>
<!-- 140178132322008 -->
<g id="node4" class="node">
<title>140178132322008</title>
<polygon fill="none" stroke="#000000" points="997,-75.0868 943,-75.0868 943,-39.0868 997,-39.0868 997,-75.0868"/>
<text text-anchor="middle" x="970" y="-53.3868" font-family="Times,serif" font-size="14.00" fill="#000000">Root</text>
</g>
<!-- 140178132322680 -->
<g id="node19" class="node">
<title>140178132322680</title>
<ellipse fill="#ffa500" stroke="#000000" cx="1117" cy="-57.0868" rx="27" ry="27"/>
</g>
<!-- 140178132322008&#45;&gt;140178132322680 -->
<g id="edge4" class="edge">
<title>140178132322008&#45;&gt;140178132322680</title>
<path fill="none" stroke="#000000" d="M997.3051,-57.0868C1020.5113,-57.0868 1054.0494,-57.0868 1079.7243,-57.0868"/>
<polygon fill="#000000" stroke="#000000" points="1079.8412,-60.5869 1089.8412,-57.0868 1079.8411,-53.5869 1079.8412,-60.5869"/>
</g>
<!-- 140178132323856 -->
<g id="node5" class="node">
<title>140178132323856</title>
<polygon fill="none" stroke="#000000" points="293,-170.0868 239,-170.0868 239,-134.0868 293,-134.0868 293,-170.0868"/>
<text text-anchor="middle" x="266" y="-148.3868" font-family="Times,serif" font-size="14.00" fill="#000000">hid_1</text>
</g>
<!-- 140178132322904 -->
<g id="node14" class="node">
<title>140178132322904</title>
<ellipse fill="none" stroke="#000000" cx="356" cy="-102.0868" rx="27" ry="27"/>
<text text-anchor="middle" x="356" y="-98.3868" font-family="Times,serif" font-size="14.00" fill="#000000">pre_PingServlet2Servlet:doGet</text>
</g>
<!-- 140178132323856&#45;&gt;140178132322904 -->
<g id="edge5" class="edge">
<title>140178132323856&#45;&gt;140178132322904</title>
<path fill="none" stroke="#000000" d="M293.003,-137.0851C302.5964,-131.7555 313.4963,-125.7 323.5008,-120.1419"/>
<polygon fill="#000000" stroke="#000000" points="325.332,-123.1285 332.3738,-115.2125 321.9324,-117.0094 325.332,-123.1285"/>
</g>
<!-- 140178132322624 -->
<g id="node6" class="node">
<title>140178132322624</title>
<polygon fill="none" stroke="#000000" points="1234,-83.0868 1180,-83.0868 1180,-47.0868 1234,-47.0868 1234,-83.0868"/>
<text text-anchor="middle" x="1207" y="-61.3868" font-family="Times,serif" font-size="14.00" fill="#000000">hid_2</text>
</g>
<!-- 140178132322624&#45;&gt;140178132322904 -->
<g id="edge6" class="edge">
<title>140178132322624&#45;&gt;140178132322904</title>
<path fill="none" stroke="#000000" d="M1186.6569,-46.9187C1174.9981,-37.5769 1159.6118,-26.9491 1144,-21.0868 1071.1722,6.2603 1047.793,-2.0868 970,-2.0868 643,-2.0868 643,-2.0868 643,-2.0868 545.6884,-2.0868 439.6335,-53.9868 387.9377,-83.0076"/>
<polygon fill="#000000" stroke="#000000" points="386.1829,-79.9791 379.2276,-87.9713 389.6488,-86.0609 386.1829,-79.9791"/>
</g>
<!-- 140179082316992 -->
<g id="node7" class="node">
<title>140179082316992</title>
<polygon fill="none" stroke="#000000" points="293,-111.0868 239,-111.0868 239,-75.0868 293,-75.0868 293,-111.0868"/>
<text text-anchor="middle" x="266" y="-89.3868" font-family="Times,serif" font-size="14.00" fill="#000000">hid_3</text>
</g>
<!-- 140179082316992&#45;&gt;140178132322904 -->
<g id="edge7" class="edge">
<title>140179082316992&#45;&gt;140178132322904</title>
<path fill="none" stroke="#000000" d="M293.003,-95.7871C301.1903,-96.6058 310.3292,-97.5197 319.051,-98.3919"/>
<polygon fill="#000000" stroke="#000000" points="318.7174,-101.8759 329.0161,-99.3884 319.414,-94.9106 318.7174,-101.8759"/>
</g>
<!-- 140178132323352 -->
<g id="node8" class="node">
<title>140178132323352</title>
<polygon fill="none" stroke="#000000" points="760,-183.0868 706,-183.0868 706,-147.0868 760,-147.0868 760,-183.0868"/>
<text text-anchor="middle" x="733" y="-161.3868" font-family="Times,serif" font-size="14.00" fill="#000000">hid_4</text>
</g>
<!-- 140178132324080 -->
<g id="node13" class="node">
<title>140178132324080</title>
<ellipse fill="none" stroke="#000000" cx="823" cy="-206.0868" rx="27" ry="27"/>
<text text-anchor="middle" x="823" y="-202.3868" font-family="Times,serif" font-size="14.00" fill="#000000">pre_PingBean:setMsg</text>
</g>
<!-- 140178132323352&#45;&gt;140178132324080 -->
<g id="edge8" class="edge">
<title>140178132323352&#45;&gt;140178132324080</title>
<path fill="none" stroke="#000000" d="M760.003,-177.3881C769.0899,-181.5277 779.3491,-186.2014 788.9092,-190.5565"/>
<polygon fill="#000000" stroke="#000000" points="787.6158,-193.8133 798.167,-194.774 790.5178,-187.4432 787.6158,-193.8133"/>
</g>
<!-- 140178132321896 -->
<g id="node9" class="node">
<title>140178132321896</title>
<polygon fill="none" stroke="#000000" points="760,-129.0868 706,-129.0868 706,-93.0868 760,-93.0868 760,-129.0868"/>
<text text-anchor="middle" x="733" y="-107.3868" font-family="Times,serif" font-size="14.00" fill="#000000">hid_5</text>
</g>
<!-- 140178132322792 -->
<g id="node15" class="node">
<title>140178132322792</title>
<ellipse fill="none" stroke="#000000" cx="823" cy="-129.0868" rx="27" ry="27"/>
<text text-anchor="middle" x="823" y="-125.3868" font-family="Times,serif" font-size="14.00" fill="#000000">pre_PingServlet2ServletRcv:init</text>
</g>
<!-- 140178132321896&#45;&gt;140178132322792 -->
<g id="edge9" class="edge">
<title>140178132321896&#45;&gt;140178132322792</title>
<path fill="none" stroke="#000000" d="M760.003,-116.4874C768.2647,-118.1397 777.4954,-119.9859 786.2888,-121.7445"/>
<polygon fill="#000000" stroke="#000000" points="785.834,-125.2228 796.3262,-123.752 787.2069,-118.3588 785.834,-125.2228"/>
</g>
<!-- 140178132323464 -->
<g id="node10" class="node">
<title>140178132323464</title>
<polygon fill="none" stroke="#000000" points="760,-75.0868 706,-75.0868 706,-39.0868 760,-39.0868 760,-75.0868"/>
<text text-anchor="middle" x="733" y="-53.3868" font-family="Times,serif" font-size="14.00" fill="#000000">hid_6</text>
</g>
<!-- 140178132321392 -->
<g id="node16" class="node">
<title>140178132321392</title>
<ellipse fill="none" stroke="#000000" cx="823" cy="-57.0868" rx="27" ry="27"/>
<text text-anchor="middle" x="823" y="-53.3868" font-family="Times,serif" font-size="14.00" fill="#000000">pre_Root</text>
</g>
<!-- 140178132323464&#45;&gt;140178132321392 -->
<g id="edge10" class="edge">
<title>140178132323464&#45;&gt;140178132321392</title>
<path fill="none" stroke="#000000" d="M760.003,-57.0868C768.0277,-57.0868 776.9665,-57.0868 785.5309,-57.0868"/>
<polygon fill="#000000" stroke="#000000" points="785.7051,-60.5869 795.705,-57.0868 785.705,-53.5869 785.7051,-60.5869"/>
</g>
<!-- 140178132322232 -->
<g id="node11" class="node">
<title>140178132322232</title>
<ellipse fill="#00ff00" stroke="#000000" cx="176" cy="-84.0868" rx="27" ry="27"/>
<text text-anchor="middle" x="176" y="-80.3868" font-family="Times,serif" font-size="14.00" fill="#000000">1</text>
</g>
<!-- 140178132322232&#45;&gt;140179082316992 -->
<g id="edge18" class="edge">
<title>140178132322232&#45;&gt;140179082316992</title>
<path fill="none" stroke="#000000" d="M203.003,-86.7871C211.0277,-87.5895 219.9665,-88.4834 228.5309,-89.3399"/>
<polygon fill="#000000" stroke="#000000" points="228.4064,-92.8448 238.705,-90.3573 229.1029,-85.8795 228.4064,-92.8448"/>
</g>
<!-- 140178132321840&#45;&gt;140178132323352 -->
<g id="edge11" class="edge">
<title>140178132321840&#45;&gt;140178132323352</title>
<path fill="none" stroke="#000000" d="M665.7108,-121.7226C675.2305,-127.8576 686.5307,-135.1399 697.1263,-141.9682"/>
<polygon fill="#000000" stroke="#000000" points="695.5046,-145.0869 705.8063,-147.5619 699.2965,-139.2029 695.5046,-145.0869"/>
</g>
<!-- 140178132321840&#45;&gt;140178132321896 -->
<g id="edge12" class="edge">
<title>140178132321840&#45;&gt;140178132321896</title>
<path fill="none" stroke="#000000" d="M670.003,-108.2869C678.0277,-108.6436 686.9665,-109.0408 695.5309,-109.4215"/>
<polygon fill="#000000" stroke="#000000" points="695.5595,-112.9261 705.705,-109.8737 695.8703,-105.933 695.5595,-112.9261"/>
</g>
<!-- 140178132321840&#45;&gt;140178132323464 -->
<g id="edge13" class="edge">
<title>140178132321840&#45;&gt;140178132323464</title>
<path fill="none" stroke="#000000" d="M666.6464,-93.9499C675.9112,-88.8028 686.7479,-82.7824 696.9459,-77.1168"/>
<polygon fill="#000000" stroke="#000000" points="698.646,-80.1762 705.6878,-72.2602 695.2465,-74.0571 698.646,-80.1762"/>
</g>
<!-- 140178132324080&#45;&gt;140178132321784 -->
<g id="edge14" class="edge">
<title>140178132324080&#45;&gt;140178132321784</title>
<path fill="none" stroke="#000000" d="M795.8662,-207.3099C760.6375,-208.7902 697.2397,-211.0868 643,-211.0868 266,-211.0868 266,-211.0868 266,-211.0868 217.8623,-211.0868 164.0468,-203.7342 123.0131,-196.5646"/>
<polygon fill="#000000" stroke="#000000" points="123.5939,-193.113 113.1341,-194.7991 122.3624,-200.0038 123.5939,-193.113"/>
</g>
<!-- 140178132322904&#45;&gt;140178132322960 -->
<g id="edge15" class="edge">
<title>140178132322904&#45;&gt;140178132322960</title>
<path fill="none" stroke="#000000" d="M383.329,-102.6581C390.9133,-102.8167 399.5892,-102.998 408.7075,-103.1887"/>
<polygon fill="#000000" stroke="#000000" points="408.6737,-106.6886 418.7447,-103.3985 408.82,-99.6902 408.6737,-106.6886"/>
</g>
<!-- 140178132322792&#45;&gt;140178132323016 -->
<g id="edge16" class="edge">
<title>140178132322792&#45;&gt;140178132323016</title>
<path fill="none" stroke="#000000" d="M850.3051,-129.0868C857.866,-129.0868 866.5237,-129.0868 875.6488,-129.0868"/>
<polygon fill="#000000" stroke="#000000" points="875.7043,-132.5869 885.7043,-129.0868 875.7043,-125.5869 875.7043,-132.5869"/>
</g>
<!-- 140178132321392&#45;&gt;140178132322008 -->
<g id="edge17" class="edge">
<title>140178132321392&#45;&gt;140178132322008</title>
<path fill="none" stroke="#000000" d="M850.3051,-57.0868C873.5113,-57.0868 907.0494,-57.0868 932.7243,-57.0868"/>
<polygon fill="#000000" stroke="#000000" points="932.8412,-60.5869 942.8412,-57.0868 932.8411,-53.5869 932.8412,-60.5869"/>
</g>
<!-- 140178132323408&#45;&gt;140178132323856 -->
<g id="edge19" class="edge">
<title>140178132323408&#45;&gt;140178132323856</title>
<path fill="none" stroke="#000000" d="M203.003,-154.8866C211.0277,-154.53 219.9665,-154.1327 228.5309,-153.7521"/>
<polygon fill="#000000" stroke="#000000" points="228.8703,-157.2405 238.705,-153.2999 228.5595,-150.2474 228.8703,-157.2405"/>
</g>
<!-- 140179082132672&#45;&gt;140178132322624 -->
<g id="edge20" class="edge">
<title>140179082132672&#45;&gt;140178132322624</title>
<path fill="none" stroke="#000000" d="M1139.2472,-113.2665C1149.4514,-106.0102 1161.7738,-97.2477 1173.0965,-89.1959"/>
<polygon fill="#000000" stroke="#000000" points="1175.3873,-91.8617 1181.5086,-83.214 1171.3306,-86.157 1175.3873,-91.8617"/>
</g>
</g>
</svg>
