<?xml version="1.0" encoding="UTF-8" standalone="no"?>
<!DOCTYPE svg PUBLIC "-//W3C//DTD SVG 1.1//EN"
 "http://www.w3.org/Graphics/SVG/1.1/DTD/svg11.dtd">
<!-- Generated by graphviz version 2.40.1 (20161225.0304)
 -->
<!-- Title: %3 Pages: 1 -->
<svg width="1822pt" height="344pt"
 viewBox="0.00 0.00 1822.00 344.00" xmlns="http://www.w3.org/2000/svg" xmlns:xlink="http://www.w3.org/1999/xlink">
<g id="graph0" class="graph" transform="scale(1 1) rotate(0) translate(4 340)">
<title>%3</title>
<!-- 139748204498840 -->
<g id="node1" class="node">
<title>139748204498840</title>
<polygon fill="none" stroke="#000000" points="114,-90 0,-90 0,-54 114,-54 114,-90"/>
<text text-anchor="middle" x="57" y="-68.3" font-family="Times,serif" font-size="14.00" fill="#000000">PingBean:getMsg</text>
</g>
<!-- 139748205137032 -->
<g id="node24" class="node">
<title>139748205137032</title>
<ellipse fill="none" stroke="#000000" cx="177" cy="-100" rx="27" ry="27"/>
<text text-anchor="middle" x="177" y="-96.3" font-family="Times,serif" font-size="14.00" fill="#000000">splace_in_PingServlet2ServletRcv:doGet_PingBean:getMsg_0</text>
</g>
<!-- 139748204498840&#45;&gt;139748205137032 -->
<g id="edge1" class="edge">
<title>139748204498840&#45;&gt;139748205137032</title>
<path fill="none" stroke="#000000" d="M114.1884,-85.344C123.2008,-87.4469 132.298,-89.5695 140.6643,-91.5217"/>
<polygon fill="#000000" stroke="#000000" points="139.9181,-94.9415 150.4519,-93.8054 141.5088,-88.1246 139.9181,-94.9415"/>
</g>
<!-- 139748204496152 -->
<g id="node2" class="node">
<title>139748204496152</title>
<polygon fill="none" stroke="#000000" points="1696.5,-179 1583.5,-179 1583.5,-143 1696.5,-143 1696.5,-179"/>
<text text-anchor="middle" x="1640" y="-157.3" font-family="Times,serif" font-size="14.00" fill="#000000">PingBean:setMsg</text>
</g>
<!-- 139748204495200 -->
<g id="node21" class="node">
<title>139748204495200</title>
<ellipse fill="none" stroke="#000000" cx="1787" cy="-138" rx="27" ry="27"/>
<text text-anchor="middle" x="1787" y="-134.3" font-family="Times,serif" font-size="14.00" fill="#000000">splace_in_PingServlet2Servlet:doGet_PingBean:setMsg_0</text>
</g>
<!-- 139748204496152&#45;&gt;139748204495200 -->
<g id="edge2" class="edge">
<title>139748204496152&#45;&gt;139748204495200</title>
<path fill="none" stroke="#000000" d="M1696.834,-152.1076C1714.7283,-149.3078 1734.0138,-146.2904 1750.1383,-143.7675"/>
<polygon fill="#000000" stroke="#000000" points="1750.8928,-147.1921 1760.2315,-142.1883 1749.8107,-140.2762 1750.8928,-147.1921"/>
</g>
<!-- 139748204497216 -->
<g id="node3" class="node">
<title>139748204497216</title>
<polygon fill="none" stroke="#000000" points="1250,-191 1089,-191 1089,-155 1250,-155 1250,-191"/>
<text text-anchor="middle" x="1169.5" y="-169.3" font-family="Times,serif" font-size="14.00" fill="#000000">PingServlet2Servlet:doGet</text>
</g>
<!-- 139748205345256 -->
<g id="node13" class="node">
<title>139748205345256</title>
<ellipse fill="none" stroke="#000000" cx="1313" cy="-173" rx="27" ry="27"/>
<text text-anchor="middle" x="1313" y="-169.3" font-family="Times,serif" font-size="14.00" fill="#000000">intplace_PingServlet2Servlet:doGet</text>
</g>
<!-- 139748204497216&#45;&gt;139748205345256 -->
<g id="edge3" class="edge">
<title>139748204497216&#45;&gt;139748205345256</title>
<path fill="none" stroke="#000000" d="M1250.0588,-173C1259.032,-173 1267.8187,-173 1275.8458,-173"/>
<polygon fill="#000000" stroke="#000000" points="1275.9126,-176.5001 1285.9126,-173 1275.9125,-169.5001 1275.9126,-176.5001"/>
</g>
<!-- 139748204496488 -->
<g id="node4" class="node">
<title>139748204496488</title>
<polygon fill="none" stroke="#000000" points="603,-120 420,-120 420,-84 603,-84 603,-120"/>
<text text-anchor="middle" x="511.5" y="-98.3" font-family="Times,serif" font-size="14.00" fill="#000000">PingServlet2ServletRcv:doGet</text>
</g>
<!-- 139748204313792 -->
<g id="node14" class="node">
<title>139748204313792</title>
<ellipse fill="none" stroke="#000000" cx="666" cy="-102" rx="27" ry="27"/>
<text text-anchor="middle" x="666" y="-98.3" font-family="Times,serif" font-size="14.00" fill="#000000">intplace_PingServlet2ServletRcv:doGet</text>
</g>
<!-- 139748204496488&#45;&gt;139748204313792 -->
<g id="edge4" class="edge">
<title>139748204496488&#45;&gt;139748204313792</title>
<path fill="none" stroke="#000000" d="M603.1589,-102C612.0934,-102 620.7613,-102 628.6614,-102"/>
<polygon fill="#000000" stroke="#000000" points="628.9114,-105.5001 638.9114,-102 628.9113,-98.5001 628.9114,-105.5001"/>
</g>
<!-- 139748204496712 -->
<g id="node5" class="node">
<title>139748204496712</title>
<polygon fill="none" stroke="#000000" points="1724,-68 1556,-68 1556,-32 1724,-32 1724,-68"/>
<text text-anchor="middle" x="1640" y="-46.3" font-family="Times,serif" font-size="14.00" fill="#000000">PingServlet2ServletRcv:init</text>
</g>
<!-- 139748204495648 -->
<g id="node23" class="node">
<title>139748204495648</title>
<ellipse fill="none" stroke="#000000" cx="1787" cy="-27" rx="27" ry="27"/>
<text text-anchor="middle" x="1787" y="-23.3" font-family="Times,serif" font-size="14.00" fill="#000000">splace_in_PingServlet2Servlet:doGet_PingServlet2ServletRcv:init_0</text>
</g>
<!-- 139748204496712&#45;&gt;139748204495648 -->
<g id="edge5" class="edge">
<title>139748204496712&#45;&gt;139748204495648</title>
<path fill="none" stroke="#000000" d="M1724.2324,-36.8208C1733.2425,-35.411 1742.0327,-34.0357 1750.0456,-32.782"/>
<polygon fill="#000000" stroke="#000000" points="1750.746,-36.2151 1760.0847,-31.2112 1749.6638,-29.2992 1750.746,-36.2151"/>
</g>
<!-- 139748204497944 -->
<g id="node6" class="node">
<title>139748204497944</title>
<polygon fill="none" stroke="#000000" points="1667,-255 1613,-255 1613,-219 1667,-219 1667,-255"/>
<text text-anchor="middle" x="1640" y="-233.3" font-family="Times,serif" font-size="14.00" fill="#000000">Root</text>
</g>
<!-- 139748204498896 -->
<g id="node26" class="node">
<title>139748204498896</title>
<ellipse fill="#ffa500" stroke="#000000" cx="1787" cy="-237" rx="27" ry="27"/>
</g>
<!-- 139748204497944&#45;&gt;139748204498896 -->
<g id="edge6" class="edge">
<title>139748204497944&#45;&gt;139748204498896</title>
<path fill="none" stroke="#000000" d="M1667.3051,-237C1690.5113,-237 1724.0494,-237 1749.7243,-237"/>
<polygon fill="#000000" stroke="#000000" points="1749.8412,-240.5001 1759.8412,-237 1749.8411,-233.5001 1749.8412,-240.5001"/>
</g>
<!-- 139748204496600 -->
<g id="node7" class="node">
<title>139748204496600</title>
<polygon fill="none" stroke="#000000" points="963,-128 909,-128 909,-92 963,-92 963,-128"/>
<text text-anchor="middle" x="936" y="-106.3" font-family="Times,serif" font-size="14.00" fill="#000000">hid_1</text>
</g>
<!-- 139748204496824 -->
<g id="node17" class="node">
<title>139748204496824</title>
<ellipse fill="none" stroke="#000000" cx="1026" cy="-173" rx="27" ry="27"/>
<text text-anchor="middle" x="1026" y="-169.3" font-family="Times,serif" font-size="14.00" fill="#000000">pre_PingServlet2Servlet:doGet</text>
</g>
<!-- 139748204496600&#45;&gt;139748204496824 -->
<g id="edge7" class="edge">
<title>139748204496600&#45;&gt;139748204496824</title>
<path fill="none" stroke="#000000" d="M962.0317,-128.2222C972.4366,-135.5056 984.4975,-143.9483 995.3236,-151.5265"/>
<polygon fill="#000000" stroke="#000000" points="993.4865,-154.5128 1003.686,-157.3802 997.5008,-148.7782 993.4865,-154.5128"/>
</g>
<!-- 139748204496376 -->
<g id="node8" class="node">
<title>139748204496376</title>
<polygon fill="none" stroke="#000000" points="963,-195 909,-195 909,-159 963,-159 963,-195"/>
<text text-anchor="middle" x="936" y="-173.3" font-family="Times,serif" font-size="14.00" fill="#000000">hid_2</text>
</g>
<!-- 139748204496376&#45;&gt;139748204496824 -->
<g id="edge8" class="edge">
<title>139748204496376&#45;&gt;139748204496824</title>
<path fill="none" stroke="#000000" d="M963.003,-175.7999C971.1013,-175.4399 980.1306,-175.0386 988.7665,-174.6548"/>
<polygon fill="#000000" stroke="#000000" points="989.1814,-178.1399 999.0161,-174.1993 988.8705,-171.1468 989.1814,-178.1399"/>
</g>
<!-- 139748205136920 -->
<g id="node9" class="node">
<title>139748205136920</title>
<polygon fill="none" stroke="#000000" points="294,-120 240,-120 240,-84 294,-84 294,-120"/>
<text text-anchor="middle" x="267" y="-98.3" font-family="Times,serif" font-size="14.00" fill="#000000">hid_3</text>
</g>
<!-- 139748205135688 -->
<g id="node18" class="node">
<title>139748205135688</title>
<ellipse fill="none" stroke="#000000" cx="357" cy="-102" rx="27" ry="27"/>
<text text-anchor="middle" x="357" y="-98.3" font-family="Times,serif" font-size="14.00" fill="#000000">pre_PingServlet2ServletRcv:doGet</text>
</g>
<!-- 139748205136920&#45;&gt;139748205135688 -->
<g id="edge9" class="edge">
<title>139748205136920&#45;&gt;139748205135688</title>
<path fill="none" stroke="#000000" d="M294.003,-102C302.0277,-102 310.9665,-102 319.5309,-102"/>
<polygon fill="#000000" stroke="#000000" points="319.7051,-105.5001 329.705,-102 319.705,-98.5001 319.7051,-105.5001"/>
</g>
<!-- 139748206635440 -->
<g id="node10" class="node">
<title>139748206635440</title>
<polygon fill="none" stroke="#000000" points="1430,-191 1376,-191 1376,-155 1430,-155 1430,-191"/>
<text text-anchor="middle" x="1403" y="-169.3" font-family="Times,serif" font-size="14.00" fill="#000000">hid_4</text>
</g>
<!-- 139748191397144 -->
<g id="node16" class="node">
<title>139748191397144</title>
<ellipse fill="none" stroke="#000000" cx="1493" cy="-165" rx="27" ry="27"/>
<text text-anchor="middle" x="1493" y="-161.3" font-family="Times,serif" font-size="14.00" fill="#000000">pre_PingBean:setMsg</text>
</g>
<!-- 139748206635440&#45;&gt;139748191397144 -->
<g id="edge10" class="edge">
<title>139748206635440&#45;&gt;139748191397144</title>
<path fill="none" stroke="#000000" d="M1430.003,-170.5997C1438.1903,-169.872 1447.3292,-169.0596 1456.051,-168.2844"/>
<polygon fill="#000000" stroke="#000000" points="1456.3653,-171.7703 1466.0161,-167.3986 1455.7454,-164.7978 1456.3653,-171.7703"/>
</g>
<!-- 139748205137872 -->
<g id="node19" class="node">
<title>139748205137872</title>
<ellipse fill="none" stroke="#000000" cx="1493" cy="-55" rx="27" ry="27"/>
<text text-anchor="middle" x="1493" y="-51.3" font-family="Times,serif" font-size="14.00" fill="#000000">pre_PingServlet2ServletRcv:init</text>
</g>
<!-- 139748206635440&#45;&gt;139748205137872 -->
<g id="edge11" class="edge">
<title>139748206635440&#45;&gt;139748205137872</title>
<path fill="none" stroke="#000000" d="M1416.8653,-154.8211C1431.1188,-136.1332 1453.5464,-106.7281 1470.3746,-84.6645"/>
<polygon fill="#000000" stroke="#000000" points="1473.2397,-86.6793 1476.5213,-76.6055 1467.6738,-82.4341 1473.2397,-86.6793"/>
</g>
<!-- 139748205136976 -->
<g id="node20" class="node">
<title>139748205136976</title>
<ellipse fill="none" stroke="#000000" cx="1493" cy="-237" rx="27" ry="27"/>
<text text-anchor="middle" x="1493" y="-233.3" font-family="Times,serif" font-size="14.00" fill="#000000">pre_Root</text>
</g>
<!-- 139748206635440&#45;&gt;139748205136976 -->
<g id="edge12" class="edge">
<title>139748206635440&#45;&gt;139748205136976</title>
<path fill="none" stroke="#000000" d="M1428.5497,-191.1686C1439.1513,-198.7076 1451.5364,-207.5147 1462.6007,-215.3827"/>
<polygon fill="#000000" stroke="#000000" points="1460.5749,-218.2368 1470.7528,-221.1798 1464.6316,-212.5321 1460.5749,-218.2368"/>
</g>
<!-- 139748205135912 -->
<g id="node25" class="node">
<title>139748205135912</title>
<ellipse fill="none" stroke="#000000" cx="1493" cy="-309" rx="27" ry="27"/>
<text text-anchor="middle" x="1493" y="-305.3" font-family="Times,serif" font-size="14.00" fill="#000000">splace_in_PingServlet2ServletRcv:doGet_PingServlet2Servlet:doGet_0</text>
</g>
<!-- 139748206635440&#45;&gt;139748205135912 -->
<g id="edge13" class="edge">
<title>139748206635440&#45;&gt;139748205135912</title>
<path fill="none" stroke="#000000" d="M1413.9454,-191.3523C1426.1811,-211.6309 1446.8037,-245.1114 1466,-273 1467.4341,-275.0834 1468.9373,-277.2157 1470.4691,-279.3511"/>
<polygon fill="#000000" stroke="#000000" points="1467.7053,-281.5011 1476.4341,-287.506 1473.3552,-277.3684 1467.7053,-281.5011"/>
</g>
<!-- 139748204005080 -->
<g id="node11" class="node">
<title>139748204005080</title>
<polygon fill="none" stroke="#000000" points="783,-120 729,-120 729,-84 783,-84 783,-120"/>
<text text-anchor="middle" x="756" y="-98.3" font-family="Times,serif" font-size="14.00" fill="#000000">hid_6</text>
</g>
<!-- 139748205342792 -->
<g id="node15" class="node">
<title>139748205342792</title>
<ellipse fill="none" stroke="#000000" cx="846" cy="-38" rx="27" ry="27"/>
<text text-anchor="middle" x="846" y="-34.3" font-family="Times,serif" font-size="14.00" fill="#000000">pre_PingBean:getMsg</text>
</g>
<!-- 139748204005080&#45;&gt;139748205342792 -->
<g id="edge14" class="edge">
<title>139748204005080&#45;&gt;139748205342792</title>
<path fill="none" stroke="#000000" d="M781.5497,-83.8314C792.1513,-76.2924 804.5364,-67.4853 815.6007,-59.6173"/>
<polygon fill="#000000" stroke="#000000" points="817.6316,-62.4679 823.7528,-53.8202 813.5749,-56.7632 817.6316,-62.4679"/>
</g>
<!-- 139748204498616 -->
<g id="node22" class="node">
<title>139748204498616</title>
<ellipse fill="none" stroke="#000000" cx="846" cy="-110" rx="27" ry="27"/>
<text text-anchor="middle" x="846" y="-106.3" font-family="Times,serif" font-size="14.00" fill="#000000">splace_in_PingServlet2Servlet:doGet_PingServlet2ServletRcv:doGet_0</text>
</g>
<!-- 139748204005080&#45;&gt;139748204498616 -->
<g id="edge15" class="edge">
<title>139748204005080&#45;&gt;139748204498616</title>
<path fill="none" stroke="#000000" d="M783.003,-104.4003C791.1903,-105.128 800.3292,-105.9404 809.051,-106.7156"/>
<polygon fill="#000000" stroke="#000000" points="808.7454,-110.2022 819.0161,-107.6014 809.3653,-103.2297 808.7454,-110.2022"/>
</g>
<!-- 139748204497440 -->
<g id="node12" class="node">
<title>139748204497440</title>
<ellipse fill="#00ff00" stroke="#000000" cx="846" cy="-182" rx="27" ry="27"/>
<text text-anchor="middle" x="846" y="-178.3" font-family="Times,serif" font-size="14.00" fill="#000000">1</text>
</g>
<!-- 139748204497440&#45;&gt;139748204496376 -->
<g id="edge24" class="edge">
<title>139748204497440&#45;&gt;139748204496376</title>
<path fill="none" stroke="#000000" d="M873.003,-180.4998C881.0277,-180.054 889.9665,-179.5574 898.5309,-179.0816"/>
<polygon fill="#000000" stroke="#000000" points="898.9146,-182.5658 908.705,-178.5164 898.5262,-175.5766 898.9146,-182.5658"/>
</g>
<!-- 139748205345256&#45;&gt;139748206635440 -->
<g id="edge16" class="edge">
<title>139748205345256&#45;&gt;139748206635440</title>
<path fill="none" stroke="#000000" d="M1340.003,-173C1348.0277,-173 1356.9665,-173 1365.5309,-173"/>
<polygon fill="#000000" stroke="#000000" points="1365.7051,-176.5001 1375.705,-173 1365.705,-169.5001 1365.7051,-176.5001"/>
</g>
<!-- 139748204313792&#45;&gt;139748204005080 -->
<g id="edge17" class="edge">
<title>139748204313792&#45;&gt;139748204005080</title>
<path fill="none" stroke="#000000" d="M693.003,-102C701.0277,-102 709.9665,-102 718.5309,-102"/>
<polygon fill="#000000" stroke="#000000" points="718.7051,-105.5001 728.705,-102 718.705,-98.5001 718.7051,-105.5001"/>
</g>
<!-- 139748205342792&#45;&gt;139748204498840 -->
<g id="edge18" class="edge">
<title>139748205342792&#45;&gt;139748204498840</title>
<path fill="none" stroke="#000000" d="M818.8662,-39.2231C783.6375,-40.7034 720.2397,-43 666,-43 267,-43 267,-43 267,-43 218.8888,-43 165.1554,-50.5616 124.0863,-57.9624"/>
<polygon fill="#000000" stroke="#000000" points="123.396,-54.5306 114.1961,-59.7854 124.6649,-61.4146 123.396,-54.5306"/>
</g>
<!-- 139748191397144&#45;&gt;139748204496152 -->
<g id="edge19" class="edge">
<title>139748191397144&#45;&gt;139748204496152</title>
<path fill="none" stroke="#000000" d="M1520.3051,-164.257C1535.2962,-163.8491 1554.5989,-163.3238 1573.3082,-162.8147"/>
<polygon fill="#000000" stroke="#000000" points="1573.4087,-166.3134 1583.3097,-162.5426 1573.2182,-159.316 1573.4087,-166.3134"/>
</g>
<!-- 139748204496824&#45;&gt;139748204497216 -->
<g id="edge20" class="edge">
<title>139748204496824&#45;&gt;139748204497216</title>
<path fill="none" stroke="#000000" d="M1053.329,-173C1060.9133,-173 1069.5892,-173 1078.7075,-173"/>
<polygon fill="#000000" stroke="#000000" points="1078.7447,-176.5001 1088.7447,-173 1078.7446,-169.5001 1078.7447,-176.5001"/>
</g>
<!-- 139748205135688&#45;&gt;139748204496488 -->
<g id="edge21" class="edge">
<title>139748205135688&#45;&gt;139748204496488</title>
<path fill="none" stroke="#000000" d="M384.2659,-102C391.8364,-102 400.5293,-102 409.741,-102"/>
<polygon fill="#000000" stroke="#000000" points="409.9116,-105.5001 419.9116,-102 409.9115,-98.5001 409.9116,-105.5001"/>
</g>
<!-- 139748205137872&#45;&gt;139748204496712 -->
<g id="edge22" class="edge">
<title>139748205137872&#45;&gt;139748204496712</title>
<path fill="none" stroke="#000000" d="M1520.3051,-54.0713C1527.866,-53.8141 1536.5237,-53.5196 1545.6488,-53.2092"/>
<polygon fill="#000000" stroke="#000000" points="1545.8291,-56.7052 1555.7043,-52.8672 1545.5911,-49.7093 1545.8291,-56.7052"/>
</g>
<!-- 139748205136976&#45;&gt;139748204497944 -->
<g id="edge23" class="edge">
<title>139748205136976&#45;&gt;139748204497944</title>
<path fill="none" stroke="#000000" d="M1520.3051,-237C1543.5113,-237 1577.0494,-237 1602.7243,-237"/>
<polygon fill="#000000" stroke="#000000" points="1602.8412,-240.5001 1612.8412,-237 1602.8411,-233.5001 1602.8412,-240.5001"/>
</g>
<!-- 139748204495200&#45;&gt;139748204496600 -->
<g id="edge25" class="edge">
<title>139748204495200&#45;&gt;139748204496600</title>
<path fill="none" stroke="#000000" d="M1760.3267,-133.7474C1708.8071,-125.9145 1591.9562,-110 1493,-110 1169.5,-110 1169.5,-110 1169.5,-110 1100.3,-110 1019.5643,-110 973.4458,-110"/>
<polygon fill="#000000" stroke="#000000" points="973.3206,-106.5001 963.3205,-110 973.3205,-113.5001 973.3206,-106.5001"/>
</g>
<!-- 139748204498616&#45;&gt;139748204496600 -->
<g id="edge26" class="edge">
<title>139748204498616&#45;&gt;139748204496600</title>
<path fill="none" stroke="#000000" d="M873.003,-110C881.0277,-110 889.9665,-110 898.5309,-110"/>
<polygon fill="#000000" stroke="#000000" points="898.7051,-113.5001 908.705,-110 898.705,-106.5001 898.7051,-113.5001"/>
</g>
<!-- 139748204495648&#45;&gt;139748204496600 -->
<g id="edge27" class="edge">
<title>139748204495648&#45;&gt;139748204496600</title>
<path fill="none" stroke="#000000" d="M1759.9192,-22.8404C1708.1864,-15.2667 1591.6687,0 1493,0 1169.5,0 1169.5,0 1169.5,0 1089.6799,0 1007.8912,-53.2553 965.5174,-85.6557"/>
<polygon fill="#000000" stroke="#000000" points="963.3204,-82.9305 957.5804,-91.8357 967.621,-88.4536 963.3204,-82.9305"/>
</g>
<!-- 139748205137032&#45;&gt;139748205136920 -->
<g id="edge28" class="edge">
<title>139748205137032&#45;&gt;139748205136920</title>
<path fill="none" stroke="#000000" d="M204.003,-100.6001C212.0277,-100.7784 220.9665,-100.977 229.5309,-101.1674"/>
<polygon fill="#000000" stroke="#000000" points="229.6297,-104.6703 239.705,-101.3934 229.7853,-97.672 229.6297,-104.6703"/>
</g>
<!-- 139748205135912&#45;&gt;139748205136920 -->
<g id="edge29" class="edge">
<title>139748205135912&#45;&gt;139748205136920</title>
<path fill="none" stroke="#000000" d="M1467.0926,-300.4685C1432.4064,-289.8228 1368.7705,-273 1313,-273 511.5,-273 511.5,-273 511.5,-273 411.8146,-273 323.8341,-176.3658 286.2939,-128.3849"/>
<polygon fill="#000000" stroke="#000000" points="288.9523,-126.0999 280.0859,-120.3 283.4002,-130.3631 288.9523,-126.0999"/>
</g>
</g>
</svg>
