<?xml version="1.0" encoding="UTF-8" standalone="no"?>
<!DOCTYPE svg PUBLIC "-//W3C//DTD SVG 1.1//EN"
 "http://www.w3.org/Graphics/SVG/1.1/DTD/svg11.dtd">
<!-- Generated by graphviz version 2.40.1 (20161225.0304)
 -->
<!-- Title: imdf_net_1585315547.2671666 Pages: 1 -->
<svg width="1315pt" height="453pt"
 viewBox="0.00 0.00 1315.00 453.00" xmlns="http://www.w3.org/2000/svg" xmlns:xlink="http://www.w3.org/1999/xlink">
<g id="graph0" class="graph" transform="scale(1 1) rotate(0) translate(4 449)">
<title>imdf_net_1585315547.2671666</title>
<!-- 140178123093888 -->
<g id="node1" class="node">
<title>140178123093888</title>
<polygon fill="none" stroke="#000000" points="114,-187 0,-187 0,-151 114,-151 114,-187"/>
<text text-anchor="middle" x="57" y="-165.3" font-family="Times,serif" font-size="14.00" fill="#000000">PingBean:getMsg</text>
</g>
<!-- 140178123092880 -->
<g id="node24" class="node">
<title>140178123092880</title>
<ellipse fill="none" stroke="#000000" cx="177" cy="-344" rx="27" ry="27"/>
<text text-anchor="middle" x="177" y="-340.3" font-family="Times,serif" font-size="14.00" fill="#000000">p_8</text>
</g>
<!-- 140178123093888&#45;&gt;140178123092880 -->
<g id="edge2" class="edge">
<title>140178123093888&#45;&gt;140178123092880</title>
<path fill="none" stroke="#000000" d="M69.3901,-187.0689C89.8468,-216.9015 130.9106,-276.7863 155.9761,-313.3401"/>
<polygon fill="#000000" stroke="#000000" points="153.1353,-315.3863 161.6772,-321.6542 158.9084,-311.4275 153.1353,-315.3863"/>
</g>
<!-- 140178132322064 -->
<g id="node2" class="node">
<title>140178132322064</title>
<polygon fill="none" stroke="#000000" points="560.5,-171 447.5,-171 447.5,-135 560.5,-135 560.5,-171"/>
<text text-anchor="middle" x="504" y="-149.3" font-family="Times,serif" font-size="14.00" fill="#000000">PingBean:setMsg</text>
</g>
<!-- 140178123094504 -->
<g id="node18" class="node">
<title>140178123094504</title>
<ellipse fill="none" stroke="#000000" cx="651" cy="-214" rx="27" ry="27"/>
<text text-anchor="middle" x="651" y="-210.3" font-family="Times,serif" font-size="14.00" fill="#000000">p_10</text>
</g>
<!-- 140178132322064&#45;&gt;140178123094504 -->
<g id="edge3" class="edge">
<title>140178132322064&#45;&gt;140178123094504</title>
<path fill="none" stroke="#000000" d="M560.5537,-169.6C569.8315,-172.7719 579.2634,-176.2759 588,-180 598.2238,-184.3581 608.9921,-189.82 618.6769,-195.0829"/>
<polygon fill="#000000" stroke="#000000" points="617.1356,-198.2304 627.5773,-200.0253 620.5339,-192.1106 617.1356,-198.2304"/>
</g>
<!-- 140178123092992 -->
<g id="node3" class="node">
<title>140178123092992</title>
<polygon fill="none" stroke="#000000" points="1296,-445 1135,-445 1135,-409 1296,-409 1296,-445"/>
<text text-anchor="middle" x="1215.5" y="-423.3" font-family="Times,serif" font-size="14.00" fill="#000000">PingServlet2Servlet:doGet</text>
</g>
<!-- 140178123092992&#45;&gt;140178123092880 -->
<g id="edge4" class="edge">
<title>140178123092992&#45;&gt;140178123092880</title>
<path fill="none" stroke="#000000" d="M1134.7943,-431.7511C1084.1788,-434.3312 1017.552,-437 958.5,-437 357,-437 357,-437 357,-437 301.8996,-437 287.9929,-423.0691 240,-396 227.3019,-388.838 214.6433,-379.0431 204.0401,-369.8847"/>
<polygon fill="#000000" stroke="#000000" points="206.164,-367.0898 196.3657,-363.0595 201.5121,-372.3204 206.164,-367.0898"/>
</g>
<!-- 140178123093552 -->
<g id="node4" class="node">
<title>140178123093552</title>
<polygon fill="none" stroke="#000000" points="1307,-381 1124,-381 1124,-345 1307,-345 1307,-381"/>
<text text-anchor="middle" x="1215.5" y="-359.3" font-family="Times,serif" font-size="14.00" fill="#000000">PingServlet2ServletRcv:doGet</text>
</g>
<!-- 140178123093552&#45;&gt;140178123092880 -->
<g id="edge1" class="edge">
<title>140178123093552&#45;&gt;140178123092880</title>
<path fill="none" stroke="#000000" d="M1129.9594,-381.0527C1080.1677,-390.0351 1016.0561,-399 958.5,-399 357,-399 357,-399 357,-399 303.984,-399 245.8679,-376.9082 210.4111,-360.727"/>
<polygon fill="#000000" stroke="#000000" points="211.5757,-357.4079 201.0345,-356.3431 208.6109,-363.749 211.5757,-357.4079"/>
</g>
<!-- 140178132322512 -->
<g id="node5" class="node">
<title>140178132322512</title>
<polygon fill="none" stroke="#000000" points="588,-279 420,-279 420,-243 588,-243 588,-279"/>
<text text-anchor="middle" x="504" y="-257.3" font-family="Times,serif" font-size="14.00" fill="#000000">PingServlet2ServletRcv:init</text>
</g>
<!-- 140178132322512&#45;&gt;140178123094504 -->
<g id="edge6" class="edge">
<title>140178132322512&#45;&gt;140178123094504</title>
<path fill="none" stroke="#000000" d="M560.4136,-242.963C578.9195,-237.0461 598.9552,-230.6402 615.467,-225.3609"/>
<polygon fill="#000000" stroke="#000000" points="616.7883,-228.6131 625.2474,-222.2338 614.6565,-221.9456 616.7883,-228.6131"/>
</g>
<!-- 140178123094224 -->
<g id="node6" class="node">
<title>140178123094224</title>
<polygon fill="none" stroke="#000000" points="780.5,-73 726.5,-73 726.5,-37 780.5,-37 780.5,-73"/>
<text text-anchor="middle" x="753.5" y="-51.3" font-family="Times,serif" font-size="14.00" fill="#000000">Root</text>
</g>
<!-- 140178132635320 -->
<g id="node26" class="node">
<title>140178132635320</title>
<ellipse fill="#ffa500" stroke="#000000" cx="856" cy="-55" rx="27" ry="27"/>
</g>
<!-- 140178123094224&#45;&gt;140178132635320 -->
<g id="edge5" class="edge">
<title>140178123094224&#45;&gt;140178132635320</title>
<path fill="none" stroke="#000000" d="M780.699,-55C792.2828,-55 805.9866,-55 818.5073,-55"/>
<polygon fill="#000000" stroke="#000000" points="818.6739,-58.5001 828.6739,-55 818.6739,-51.5001 818.6739,-58.5001"/>
</g>
<!-- 140178132633472 -->
<g id="node7" class="node">
<title>140178132633472</title>
<polygon fill="none" stroke="#000000" points="793,-308 714,-308 714,-272 793,-272 793,-308"/>
<text text-anchor="middle" x="753.5" y="-286.3" font-family="Times,serif" font-size="14.00" fill="#000000">init_loop_2</text>
</g>
<!-- 140178132632408 -->
<g id="node21" class="node">
<title>140178132632408</title>
<ellipse fill="none" stroke="#000000" cx="856" cy="-269" rx="27" ry="27"/>
<text text-anchor="middle" x="856" y="-265.3" font-family="Times,serif" font-size="14.00" fill="#000000">p_5</text>
</g>
<!-- 140178132633472&#45;&gt;140178132632408 -->
<g id="edge7" class="edge">
<title>140178132633472&#45;&gt;140178132632408</title>
<path fill="none" stroke="#000000" d="M793.1292,-281.8809C801.7801,-280.1085 810.8974,-278.2405 819.423,-276.4938"/>
<polygon fill="#000000" stroke="#000000" points="820.3639,-279.8738 829.4579,-274.4379 818.9589,-273.0163 820.3639,-279.8738"/>
</g>
<!-- 140178123094392 -->
<g id="node8" class="node">
<title>140178123094392</title>
<polygon fill="none" stroke="#000000" points="998,-313 919,-313 919,-277 998,-277 998,-313"/>
<text text-anchor="middle" x="958.5" y="-291.3" font-family="Times,serif" font-size="14.00" fill="#000000">init_loop_4</text>
</g>
<!-- 140178123093608 -->
<g id="node23" class="node">
<title>140178123093608</title>
<ellipse fill="none" stroke="#000000" cx="1061" cy="-344" rx="27" ry="27"/>
<text text-anchor="middle" x="1061" y="-340.3" font-family="Times,serif" font-size="14.00" fill="#000000">p_7</text>
</g>
<!-- 140178123094392&#45;&gt;140178123093608 -->
<g id="edge8" class="edge">
<title>140178123094392&#45;&gt;140178123093608</title>
<path fill="none" stroke="#000000" d="M996.376,-313.1066C1006.4887,-317.9409 1017.3484,-323.1324 1027.2245,-327.8537"/>
<polygon fill="#000000" stroke="#000000" points="1025.8039,-331.0539 1036.3356,-332.2092 1028.8231,-324.7384 1025.8039,-331.0539"/>
</g>
<!-- 140178123092488 -->
<g id="node9" class="node">
<title>140178123092488</title>
<polygon fill="none" stroke="#000000" points="780.5,-250 726.5,-250 726.5,-214 780.5,-214 780.5,-250"/>
<text text-anchor="middle" x="753.5" y="-228.3" font-family="Times,serif" font-size="14.00" fill="#000000">loop_3</text>
</g>
<!-- 140178123092488&#45;&gt;140178132632408 -->
<g id="edge9" class="edge">
<title>140178123092488&#45;&gt;140178132632408</title>
<path fill="none" stroke="#000000" d="M780.699,-241.8182C792.9871,-246.2539 807.6608,-251.5507 820.7772,-256.2854"/>
<polygon fill="#000000" stroke="#000000" points="819.8442,-259.6696 830.4385,-259.7729 822.2209,-253.0855 819.8442,-259.6696"/>
</g>
<!-- 140178123092768 -->
<g id="node10" class="node">
<title>140178123092768</title>
<polygon fill="none" stroke="#000000" points="883,-369 829,-369 829,-333 883,-333 883,-369"/>
<text text-anchor="middle" x="856" y="-347.3" font-family="Times,serif" font-size="14.00" fill="#000000">loop_5</text>
</g>
<!-- 140178123092768&#45;&gt;140178123093608 -->
<g id="edge10" class="edge">
<title>140178123092768&#45;&gt;140178123093608</title>
<path fill="none" stroke="#000000" d="M883.2224,-350.0705C919.3919,-348.8354 983.4328,-346.6486 1023.9728,-345.2643"/>
<polygon fill="#000000" stroke="#000000" points="1024.1168,-348.7616 1033.9915,-344.9222 1023.8778,-341.7656 1024.1168,-348.7616"/>
</g>
<!-- 140178132322736 -->
<g id="node11" class="node">
<title>140178132322736</title>
<polygon fill="none" stroke="#000000" points="533.5,-77 474.5,-77 474.5,-41 533.5,-41 533.5,-77"/>
<text text-anchor="middle" x="504" y="-55.3" font-family="Times,serif" font-size="14.00" fill="#000000">skip_10</text>
</g>
<!-- 140178132634592 -->
<g id="node20" class="node">
<title>140178132634592</title>
<ellipse fill="none" stroke="#000000" cx="651" cy="-55" rx="27" ry="27"/>
<text text-anchor="middle" x="651" y="-51.3" font-family="Times,serif" font-size="14.00" fill="#000000">p_4</text>
</g>
<!-- 140178132322736&#45;&gt;140178132634592 -->
<g id="edge26" class="edge">
<title>140178132322736&#45;&gt;140178132634592</title>
<path fill="none" stroke="#000000" d="M533.7476,-58.1905C556.7976,-57.5633 588.8736,-56.6905 613.651,-56.0163"/>
<polygon fill="#000000" stroke="#000000" points="613.8744,-59.5116 623.7755,-55.7408 613.6839,-52.5142 613.8744,-59.5116"/>
</g>
<!-- 140178123093272 -->
<g id="node12" class="node">
<title>140178123093272</title>
<polygon fill="none" stroke="#000000" points="294,-362 240,-362 240,-326 294,-326 294,-362"/>
<text text-anchor="middle" x="267" y="-340.3" font-family="Times,serif" font-size="14.00" fill="#000000">skip_6</text>
</g>
<!-- 140178123093160 -->
<g id="node25" class="node">
<title>140178123093160</title>
<ellipse fill="none" stroke="#000000" cx="357" cy="-344" rx="27" ry="27"/>
<text text-anchor="middle" x="357" y="-340.3" font-family="Times,serif" font-size="14.00" fill="#000000">p_9</text>
</g>
<!-- 140178123093272&#45;&gt;140178123093160 -->
<g id="edge27" class="edge">
<title>140178123093272&#45;&gt;140178123093160</title>
<path fill="none" stroke="#000000" d="M294.003,-344C302.0277,-344 310.9665,-344 319.5309,-344"/>
<polygon fill="#000000" stroke="#000000" points="319.7051,-347.5001 329.705,-344 319.705,-340.5001 319.7051,-347.5001"/>
</g>
<!-- 140178123093720 -->
<g id="node13" class="node">
<title>140178123093720</title>
<polygon fill="none" stroke="#000000" points="294,-251 240,-251 240,-215 294,-215 294,-251"/>
<text text-anchor="middle" x="267" y="-229.3" font-family="Times,serif" font-size="14.00" fill="#000000">skip_7</text>
</g>
<!-- 140178123092040 -->
<g id="node22" class="node">
<title>140178123092040</title>
<ellipse fill="none" stroke="#000000" cx="357" cy="-176" rx="27" ry="27"/>
<text text-anchor="middle" x="357" y="-172.3" font-family="Times,serif" font-size="14.00" fill="#000000">p_6</text>
</g>
<!-- 140178123093720&#45;&gt;140178123092040 -->
<g id="edge28" class="edge">
<title>140178123093720&#45;&gt;140178123092040</title>
<path fill="none" stroke="#000000" d="M294.003,-215.8981C303.8544,-209.6589 315.0837,-202.547 325.3063,-196.0727"/>
<polygon fill="#000000" stroke="#000000" points="327.3951,-198.8927 333.9706,-190.5853 323.6497,-192.9789 327.3951,-198.8927"/>
</g>
<!-- 140178132323296 -->
<g id="node14" class="node">
<title>140178132323296</title>
<polygon fill="none" stroke="#000000" points="985.5,-191 931.5,-191 931.5,-155 985.5,-155 985.5,-191"/>
<text text-anchor="middle" x="958.5" y="-169.3" font-family="Times,serif" font-size="14.00" fill="#000000">skip_8</text>
</g>
<!-- 140178132323296&#45;&gt;140178123092040 -->
<g id="edge29" class="edge">
<title>140178132323296&#45;&gt;140178123092040</title>
<path fill="none" stroke="#000000" d="M931.4788,-163.0117C850.9775,-134.8381 606.756,-60.8965 420,-126 406.3408,-130.7616 393.4199,-139.8572 382.8766,-148.9993"/>
<polygon fill="#000000" stroke="#000000" points="380.3191,-146.5954 375.3047,-155.9285 385.0448,-151.7595 380.3191,-146.5954"/>
</g>
<!-- 140178132323072 -->
<g id="node15" class="node">
<title>140178132323072</title>
<polygon fill="none" stroke="#000000" points="531,-225 477,-225 477,-189 531,-189 531,-225"/>
<text text-anchor="middle" x="504" y="-203.3" font-family="Times,serif" font-size="14.00" fill="#000000">skip_9</text>
</g>
<!-- 140178132323072&#45;&gt;140178123094504 -->
<g id="edge30" class="edge">
<title>140178132323072&#45;&gt;140178123094504</title>
<path fill="none" stroke="#000000" d="M531.3051,-208.3002C554.5113,-209.4053 588.0494,-211.0024 613.7243,-212.225"/>
<polygon fill="#000000" stroke="#000000" points="613.686,-215.727 623.8412,-212.7067 614.019,-208.7349 613.686,-215.727"/>
</g>
<!-- 140178132633416 -->
<g id="node16" class="node">
<title>140178132633416</title>
<polygon fill="none" stroke="#000000" points="531,-333 477,-333 477,-297 531,-297 531,-333"/>
<text text-anchor="middle" x="504" y="-311.3" font-family="Times,serif" font-size="14.00" fill="#000000">tau_1</text>
</g>
<!-- 140178132632240 -->
<g id="node19" class="node">
<title>140178132632240</title>
<ellipse fill="none" stroke="#000000" cx="651" cy="-299" rx="27" ry="27"/>
<text text-anchor="middle" x="651" y="-295.3" font-family="Times,serif" font-size="14.00" fill="#000000">p_3</text>
</g>
<!-- 140178132633416&#45;&gt;140178132632240 -->
<g id="edge32" class="edge">
<title>140178132633416&#45;&gt;140178132632240</title>
<path fill="none" stroke="#000000" d="M531.3051,-312.028C554.5113,-309.5022 588.0494,-305.8518 613.7243,-303.0572"/>
<polygon fill="#000000" stroke="#000000" points="614.2786,-306.5176 623.8412,-301.9561 613.5211,-299.5587 614.2786,-306.5176"/>
</g>
<!-- 140178132632072 -->
<g id="node17" class="node">
<title>140178132632072</title>
<ellipse fill="#00ff00" stroke="#000000" cx="357" cy="-272" rx="27" ry="27"/>
<text text-anchor="middle" x="357" y="-268.3" font-family="Times,serif" font-size="14.00" fill="#000000">1</text>
</g>
<!-- 140178132632072&#45;&gt;140178132633416 -->
<g id="edge31" class="edge">
<title>140178132632072&#45;&gt;140178132633416</title>
<path fill="none" stroke="#000000" d="M382.9423,-279.5886C406.3299,-286.4298 440.976,-296.5644 467.2185,-304.2408"/>
<polygon fill="#000000" stroke="#000000" points="466.2433,-307.6021 476.8237,-307.0505 468.2086,-300.8837 466.2433,-307.6021"/>
</g>
<!-- 140178123094504&#45;&gt;140178123092488 -->
<g id="edge11" class="edge">
<title>140178123094504&#45;&gt;140178123092488</title>
<path fill="none" stroke="#000000" d="M677.6631,-218.6823C689.4579,-220.7536 703.5297,-223.2247 716.3308,-225.4727"/>
<polygon fill="#000000" stroke="#000000" points="715.8022,-228.9334 726.2569,-227.2158 717.013,-222.0389 715.8022,-228.9334"/>
</g>
<!-- 140178132632240&#45;&gt;140178132633472 -->
<g id="edge12" class="edge">
<title>140178132632240&#45;&gt;140178132633472</title>
<path fill="none" stroke="#000000" d="M677.9307,-296.6354C685.775,-295.9466 694.6089,-295.1709 703.3977,-294.3992"/>
<polygon fill="#000000" stroke="#000000" points="703.9769,-297.8619 713.6324,-293.5006 703.3645,-290.8888 703.9769,-297.8619"/>
</g>
<!-- 140178132634592&#45;&gt;140178123094224 -->
<g id="edge13" class="edge">
<title>140178132634592&#45;&gt;140178123094224</title>
<path fill="none" stroke="#000000" d="M678.199,-55C689.7828,-55 703.4866,-55 716.0073,-55"/>
<polygon fill="#000000" stroke="#000000" points="716.1739,-58.5001 726.1739,-55 716.1739,-51.5001 716.1739,-58.5001"/>
</g>
<!-- 140178132632408&#45;&gt;140178123094392 -->
<g id="edge14" class="edge">
<title>140178132632408&#45;&gt;140178123094392</title>
<path fill="none" stroke="#000000" d="M882.3963,-275.6956C890.4986,-277.7509 899.6943,-280.0834 908.8234,-282.3991"/>
<polygon fill="#000000" stroke="#000000" points="908.0948,-285.8251 918.6484,-284.8913 909.816,-279.04 908.0948,-285.8251"/>
</g>
<!-- 140178132632408&#45;&gt;140178132323296 -->
<g id="edge15" class="edge">
<title>140178132632408&#45;&gt;140178132323296</title>
<path fill="none" stroke="#000000" d="M875.763,-250.4902C891.6037,-235.6541 913.9969,-214.6809 931.4925,-198.2948"/>
<polygon fill="#000000" stroke="#000000" points="934.2391,-200.5178 939.1453,-191.1274 929.454,-195.4087 934.2391,-200.5178"/>
</g>
<!-- 140178123092040&#45;&gt;140178132322064 -->
<g id="edge16" class="edge">
<title>140178123092040&#45;&gt;140178132322064</title>
<path fill="none" stroke="#000000" d="M383.9621,-171.7814C398.9975,-169.429 418.4466,-166.3859 437.2947,-163.4369"/>
<polygon fill="#000000" stroke="#000000" points="438.0309,-166.8644 447.3697,-161.8605 436.9488,-159.9485 438.0309,-166.8644"/>
</g>
<!-- 140178123092040&#45;&gt;140178132322512 -->
<g id="edge17" class="edge">
<title>140178123092040&#45;&gt;140178132322512</title>
<path fill="none" stroke="#000000" d="M374.8233,-196.408C386.5782,-208.7799 402.9154,-224.046 420,-234 422.8456,-235.658 425.8058,-237.2279 428.8411,-238.7128"/>
<polygon fill="#000000" stroke="#000000" points="427.5797,-241.9836 438.1335,-242.916 430.4647,-235.6057 427.5797,-241.9836"/>
</g>
<!-- 140178123092040&#45;&gt;140178132322736 -->
<g id="edge18" class="edge">
<title>140178123092040&#45;&gt;140178132322736</title>
<path fill="none" stroke="#000000" d="M370.2801,-152.0856C381.4816,-133.7882 399.0228,-109.0488 420,-93 433.2225,-82.884 449.8665,-75.3216 464.8441,-69.9302"/>
<polygon fill="#000000" stroke="#000000" points="466.0446,-73.219 474.3931,-66.6958 463.7988,-66.589 466.0446,-73.219"/>
</g>
<!-- 140178123092040&#45;&gt;140178132323072 -->
<g id="edge19" class="edge">
<title>140178123092040&#45;&gt;140178132323072</title>
<path fill="none" stroke="#000000" d="M383.6206,-181.6139C406.9208,-186.5275 441.0084,-193.7161 466.9674,-199.1904"/>
<polygon fill="#000000" stroke="#000000" points="466.3241,-202.6316 476.8311,-201.2705 467.7686,-195.7823 466.3241,-202.6316"/>
</g>
<!-- 140178123093608&#45;&gt;140178123093888 -->
<g id="edge21" class="edge">
<title>140178123093608&#45;&gt;140178123093888</title>
<path fill="none" stroke="#000000" d="M1057.976,-317.0069C1047.2519,-235.9121 1003.3882,0 856,0 267,0 267,0 267,0 177.3122,0 104.2169,-94.7147 73.1358,-142.3322"/>
<polygon fill="#000000" stroke="#000000" points="70.088,-140.6019 67.6567,-150.914 75.9881,-144.3689 70.088,-140.6019"/>
</g>
<!-- 140178123093608&#45;&gt;140178123092992 -->
<g id="edge22" class="edge">
<title>140178123093608&#45;&gt;140178123092992</title>
<path fill="none" stroke="#000000" d="M1081.9847,-361.3458C1093.8378,-370.6132 1109.2049,-381.7732 1124,-390 1133.6312,-395.3554 1144.198,-400.3552 1154.6225,-404.84"/>
<polygon fill="#000000" stroke="#000000" points="1153.5487,-408.1845 1164.1251,-408.8094 1156.2468,-401.7253 1153.5487,-408.1845"/>
</g>
<!-- 140178123093608&#45;&gt;140178123093552 -->
<g id="edge20" class="edge">
<title>140178123093608&#45;&gt;140178123093552</title>
<path fill="none" stroke="#000000" d="M1087.9118,-347.3095C1095.6118,-348.2565 1104.4936,-349.3487 1113.9131,-350.5071"/>
<polygon fill="#000000" stroke="#000000" points="1113.5443,-353.988 1123.8968,-351.7349 1114.3988,-347.0404 1113.5443,-353.988"/>
</g>
<!-- 140178123092880&#45;&gt;140178123093272 -->
<g id="edge23" class="edge">
<title>140178123092880&#45;&gt;140178123093272</title>
<path fill="none" stroke="#000000" d="M204.003,-344C212.0277,-344 220.9665,-344 229.5309,-344"/>
<polygon fill="#000000" stroke="#000000" points="229.7051,-347.5001 239.705,-344 229.705,-340.5001 229.7051,-347.5001"/>
</g>
<!-- 140178123092880&#45;&gt;140178123093720 -->
<g id="edge24" class="edge">
<title>140178123092880&#45;&gt;140178123093720</title>
<path fill="none" stroke="#000000" d="M194.1402,-322.8605C208.8668,-304.6976 230.1563,-278.4405 245.9224,-258.9957"/>
<polygon fill="#000000" stroke="#000000" points="248.7265,-261.0946 252.3059,-251.1227 243.2892,-256.686 248.7265,-261.0946"/>
</g>
<!-- 140178123093160&#45;&gt;140178123092768 -->
<g id="edge25" class="edge">
<title>140178123093160&#45;&gt;140178123092768</title>
<path fill="none" stroke="#000000" d="M384.1828,-344.3813C467.9858,-345.5569 722.4919,-349.1271 818.662,-350.4762"/>
<polygon fill="#000000" stroke="#000000" points="818.7444,-353.9776 828.7926,-350.6183 818.8427,-346.9783 818.7444,-353.9776"/>
</g>
</g>
</svg>
