<?xml version="1.0" encoding="UTF-8" standalone="no"?>
<!DOCTYPE svg PUBLIC "-//W3C//DTD SVG 1.1//EN"
 "http://www.w3.org/Graphics/SVG/1.1/DTD/svg11.dtd">
<!-- Generated by graphviz version 2.40.1 (20161225.0304)
 -->
<!-- Title: alpha_plus_net_1585280321.184416 Pages: 1 -->
<svg width="707pt" height="1898pt"
 viewBox="0.00 0.00 707.00 1898.00" xmlns="http://www.w3.org/2000/svg" xmlns:xlink="http://www.w3.org/1999/xlink">
<g id="graph0" class="graph" transform="scale(1 1) rotate(0) translate(4 1894)">
<title>alpha_plus_net_1585280321.184416</title>
<!-- 140633493958384 -->
<g id="node1" class="node">
<title>140633493958384</title>
<polygon fill="none" stroke="#000000" points="216,-36 20,-36 20,0 216,0 216,-36"/>
<text text-anchor="middle" x="118" y="-14.3" font-family="Times,serif" font-size="14.00" fill="#000000">AccountDataBean:getAccountID</text>
</g>
<!-- 140633490366816 -->
<g id="node2" class="node">
<title>140633490366816</title>
<polygon fill="none" stroke="#000000" points="207.5,-90 28.5,-90 28.5,-54 207.5,-54 207.5,-90"/>
<text text-anchor="middle" x="118" y="-68.3" font-family="Times,serif" font-size="14.00" fill="#000000">AccountDataBean:getBalance</text>
</g>
<!-- 140633493954632 -->
<g id="node3" class="node">
<title>140633493954632</title>
<polygon fill="none" stroke="#000000" points="222,-144 14,-144 14,-108 222,-108 222,-144"/>
<text text-anchor="middle" x="118" y="-122.3" font-family="Times,serif" font-size="14.00" fill="#000000">AccountDataBean:getCreationDate</text>
</g>
<!-- 140633490367208 -->
<g id="node4" class="node">
<title>140633490367208</title>
<polygon fill="none" stroke="#000000" points="213.5,-198 22.5,-198 22.5,-162 213.5,-162 213.5,-198"/>
<text text-anchor="middle" x="118" y="-176.3" font-family="Times,serif" font-size="14.00" fill="#000000">AccountDataBean:getLastLogin</text>
</g>
<!-- 140633490366704 -->
<g id="node5" class="node">
<title>140633490366704</title>
<polygon fill="none" stroke="#000000" points="218.5,-252 17.5,-252 17.5,-216 218.5,-216 218.5,-252"/>
<text text-anchor="middle" x="118" y="-230.3" font-family="Times,serif" font-size="14.00" fill="#000000">AccountDataBean:getLoginCount</text>
</g>
<!-- 140633493957880 -->
<g id="node6" class="node">
<title>140633493957880</title>
<polygon fill="none" stroke="#000000" points="222,-306 14,-306 14,-270 222,-270 222,-306"/>
<text text-anchor="middle" x="118" y="-284.3" font-family="Times,serif" font-size="14.00" fill="#000000">AccountDataBean:getLogoutCount</text>
</g>
<!-- 140633490367264 -->
<g id="node7" class="node">
<title>140633490367264</title>
<polygon fill="none" stroke="#000000" points="222.5,-360 13.5,-360 13.5,-324 222.5,-324 222.5,-360"/>
<text text-anchor="middle" x="118" y="-338.3" font-family="Times,serif" font-size="14.00" fill="#000000">AccountDataBean:getOpenBalance</text>
</g>
<!-- 140633493954688 -->
<g id="node8" class="node">
<title>140633493954688</title>
<polygon fill="none" stroke="#000000" points="211.5,-414 24.5,-414 24.5,-378 211.5,-378 211.5,-414"/>
<text text-anchor="middle" x="118" y="-392.3" font-family="Times,serif" font-size="14.00" fill="#000000">AccountDataBean:getProfileID</text>
</g>
<!-- 140633490367544 -->
<g id="node9" class="node">
<title>140633490367544</title>
<polygon fill="none" stroke="#000000" points="210.5,-468 25.5,-468 25.5,-432 210.5,-432 210.5,-468"/>
<text text-anchor="middle" x="118" y="-446.3" font-family="Times,serif" font-size="14.00" fill="#000000">AccountDataBean:setProfileID</text>
</g>
<!-- 140633490366648 -->
<g id="node10" class="node">
<title>140633490366648</title>
<polygon fill="none" stroke="#000000" points="227,-522 9,-522 9,-486 227,-486 227,-522"/>
<text text-anchor="middle" x="118" y="-500.3" font-family="Times,serif" font-size="14.00" fill="#000000">AccountProfileDataBean:getAccount</text>
</g>
<!-- 140633490367432 -->
<g id="node11" class="node">
<title>140633490367432</title>
<polygon fill="none" stroke="#000000" points="226.5,-576 9.5,-576 9.5,-540 226.5,-540 226.5,-576"/>
<text text-anchor="middle" x="118" y="-554.3" font-family="Times,serif" font-size="14.00" fill="#000000">AccountProfileDataBean:getAddress</text>
</g>
<!-- 140633490367600 -->
<g id="node12" class="node">
<title>140633490367600</title>
<polygon fill="none" stroke="#000000" points="234.5,-630 1.5,-630 1.5,-594 234.5,-594 234.5,-630"/>
<text text-anchor="middle" x="118" y="-608.3" font-family="Times,serif" font-size="14.00" fill="#000000">AccountProfileDataBean:getCreditCard</text>
</g>
<!-- 140633490367040 -->
<g id="node13" class="node">
<title>140633490367040</title>
<polygon fill="none" stroke="#000000" points="221,-684 15,-684 15,-648 221,-648 221,-684"/>
<text text-anchor="middle" x="118" y="-662.3" font-family="Times,serif" font-size="14.00" fill="#000000">AccountProfileDataBean:getEmail</text>
</g>
<!-- 140633493958440 -->
<g id="node14" class="node">
<title>140633493958440</title>
<polygon fill="none" stroke="#000000" points="231.5,-738 4.5,-738 4.5,-702 231.5,-702 231.5,-738"/>
<text text-anchor="middle" x="118" y="-716.3" font-family="Times,serif" font-size="14.00" fill="#000000">AccountProfileDataBean:getFullName</text>
</g>
<!-- 140633490366872 -->
<g id="node15" class="node">
<title>140633490366872</title>
<polygon fill="none" stroke="#000000" points="230,-792 6,-792 6,-756 230,-756 230,-792"/>
<text text-anchor="middle" x="118" y="-770.3" font-family="Times,serif" font-size="14.00" fill="#000000">AccountProfileDataBean:getPassword</text>
</g>
<!-- 140633490367488 -->
<g id="node16" class="node">
<title>140633490367488</title>
<polygon fill="none" stroke="#000000" points="224,-846 12,-846 12,-810 224,-810 224,-846"/>
<text text-anchor="middle" x="118" y="-824.3" font-family="Times,serif" font-size="14.00" fill="#000000">AccountProfileDataBean:getUserID</text>
</g>
<!-- 140633490366760 -->
<g id="node17" class="node">
<title>140633490366760</title>
<polygon fill="none" stroke="#000000" points="179.5,-900 56.5,-900 56.5,-864 179.5,-864 179.5,-900"/>
<text text-anchor="middle" x="118" y="-878.3" font-family="Times,serif" font-size="14.00" fill="#000000">Log:doActionTrace</text>
</g>
<!-- 140633493958328 -->
<g id="node18" class="node">
<title>140633493958328</title>
<polygon fill="none" stroke="#000000" points="161,-954 75,-954 75,-918 161,-918 161,-954"/>
<text text-anchor="middle" x="118" y="-932.3" font-family="Times,serif" font-size="14.00" fill="#000000">Log:doTrace</text>
</g>
<!-- 140633490366592 -->
<g id="node19" class="node">
<title>140633490366592</title>
<polygon fill="none" stroke="#000000" points="429,-1017 272,-1017 272,-981 429,-981 429,-1017"/>
<text text-anchor="middle" x="350.5" y="-995.3" font-family="Times,serif" font-size="14.00" fill="#000000">OrdersAlertFilter:doFilter</text>
</g>
<!-- 140633490368104 -->
<g id="node38" class="node">
<title>140633490368104</title>
<ellipse fill="none" stroke="#000000" cx="492" cy="-999" rx="27" ry="27"/>
<text text-anchor="middle" x="492" y="-995.3" font-family="Times,serif" font-size="14.00" fill="#000000">({&#39;OrdersAlertFilter:doFilter&#39;}, {&#39;Root&#39;})</text>
</g>
<!-- 140633490366592&#45;&gt;140633490368104 -->
<g id="edge3" class="edge">
<title>140633490366592&#45;&gt;140633490368104</title>
<path fill="none" stroke="#000000" d="M429.112,-999C438.0464,-999 446.8115,-999 454.8279,-999"/>
<polygon fill="#000000" stroke="#000000" points="454.8861,-1002.5001 464.8861,-999 454.8861,-995.5001 454.8861,-1002.5001"/>
</g>
<!-- 140633493958272 -->
<g id="node20" class="node">
<title>140633493958272</title>
<polygon fill="none" stroke="#000000" points="609,-1017 555,-1017 555,-981 609,-981 609,-1017"/>
<text text-anchor="middle" x="582" y="-995.3" font-family="Times,serif" font-size="14.00" fill="#000000">Root</text>
</g>
<!-- 140633490367712 -->
<g id="node39" class="node">
<title>140633490367712</title>
<ellipse fill="#ffa500" stroke="#000000" cx="672" cy="-999" rx="27" ry="27"/>
</g>
<!-- 140633493958272&#45;&gt;140633490367712 -->
<g id="edge4" class="edge">
<title>140633493958272&#45;&gt;140633490367712</title>
<path fill="none" stroke="#000000" d="M609.003,-999C617.0277,-999 625.9665,-999 634.5309,-999"/>
<polygon fill="#000000" stroke="#000000" points="634.7051,-1002.5001 644.705,-999 634.705,-995.5001 634.7051,-1002.5001"/>
</g>
<!-- 140633493958048 -->
<g id="node21" class="node">
<title>140633493958048</title>
<polygon fill="none" stroke="#000000" points="206,-1080 30,-1080 30,-1044 206,-1044 206,-1080"/>
<text text-anchor="middle" x="118" y="-1058.3" font-family="Times,serif" font-size="14.00" fill="#000000">TradeAction:getAccountData</text>
</g>
<!-- 140633493958608 -->
<g id="node22" class="node">
<title>140633493958608</title>
<polygon fill="none" stroke="#000000" points="224.5,-1134 11.5,-1134 11.5,-1098 224.5,-1098 224.5,-1134"/>
<text text-anchor="middle" x="118" y="-1112.3" font-family="Times,serif" font-size="14.00" fill="#000000">TradeAction:getAccountProfileData</text>
</g>
<!-- 140633493958160 -->
<g id="node23" class="node">
<title>140633493958160</title>
<polygon fill="none" stroke="#000000" points="207.5,-1188 28.5,-1188 28.5,-1152 207.5,-1152 207.5,-1188"/>
<text text-anchor="middle" x="118" y="-1166.3" font-family="Times,serif" font-size="14.00" fill="#000000">TradeAction:getClosedOrders</text>
</g>
<!-- 140633493958552 -->
<g id="node24" class="node">
<title>140633493958552</title>
<polygon fill="none" stroke="#000000" points="210,-1242 26,-1242 26,-1206 210,-1206 210,-1242"/>
<text text-anchor="middle" x="118" y="-1220.3" font-family="Times,serif" font-size="14.00" fill="#000000">TradeAppServlet:performTask</text>
</g>
<!-- 140633490367376 -->
<g id="node25" class="node">
<title>140633490367376</title>
<polygon fill="none" stroke="#000000" points="204.5,-1296 31.5,-1296 31.5,-1260 204.5,-1260 204.5,-1296"/>
<text text-anchor="middle" x="118" y="-1274.3" font-family="Times,serif" font-size="14.00" fill="#000000">TradeConfig:getActionTrace</text>
</g>
<!-- 140633490367096 -->
<g id="node26" class="node">
<title>140633490367096</title>
<polygon fill="none" stroke="#000000" points="224,-1350 12,-1350 12,-1314 224,-1314 224,-1350"/>
<text text-anchor="middle" x="118" y="-1328.3" font-family="Times,serif" font-size="14.00" fill="#000000">TradeConfig:getDisplayOrderAlerts</text>
</g>
<!-- 140633490367152 -->
<g id="node27" class="node">
<title>140633490367152</title>
<polygon fill="none" stroke="#000000" points="196.5,-1404 39.5,-1404 39.5,-1368 196.5,-1368 196.5,-1404"/>
<text text-anchor="middle" x="118" y="-1382.3" font-family="Times,serif" font-size="14.00" fill="#000000">TradeConfig:getLongRun</text>
</g>
<!-- 140633493957992 -->
<g id="node28" class="node">
<title>140633493957992</title>
<polygon fill="none" stroke="#000000" points="184,-1458 52,-1458 52,-1422 184,-1422 184,-1458"/>
<text text-anchor="middle" x="118" y="-1436.3" font-family="Times,serif" font-size="14.00" fill="#000000">TradeConfig:getPage</text>
</g>
<!-- 140633493958496 -->
<g id="node29" class="node">
<title>140633493958496</title>
<polygon fill="none" stroke="#000000" points="186.5,-1512 49.5,-1512 49.5,-1476 186.5,-1476 186.5,-1512"/>
<text text-anchor="middle" x="118" y="-1490.3" font-family="Times,serif" font-size="14.00" fill="#000000">TradeConfig:getTrace</text>
</g>
<!-- 140633493958104 -->
<g id="node30" class="node">
<title>140633493958104</title>
<polygon fill="none" stroke="#000000" points="228.5,-1566 7.5,-1566 7.5,-1530 228.5,-1530 228.5,-1566"/>
<text text-anchor="middle" x="118" y="-1544.3" font-family="Times,serif" font-size="14.00" fill="#000000">TradeConfig:useRemoteEJBInterface</text>
</g>
<!-- 140633490366536 -->
<g id="node31" class="node">
<title>140633490366536</title>
<polygon fill="none" stroke="#000000" points="218,-1620 18,-1620 18,-1584 218,-1584 218,-1620"/>
<text text-anchor="middle" x="118" y="-1598.3" font-family="Times,serif" font-size="14.00" fill="#000000">TradeSLSBBean:getAccountData</text>
</g>
<!-- 140633490366928 -->
<g id="node32" class="node">
<title>140633490366928</title>
<polygon fill="none" stroke="#000000" points="236,-1674 0,-1674 0,-1638 236,-1638 236,-1674"/>
<text text-anchor="middle" x="118" y="-1652.3" font-family="Times,serif" font-size="14.00" fill="#000000">TradeSLSBBean:getAccountProfileData</text>
</g>
<!-- 140633493954744 -->
<g id="node33" class="node">
<title>140633493954744</title>
<polygon fill="none" stroke="#000000" points="219.5,-1728 16.5,-1728 16.5,-1692 219.5,-1692 219.5,-1728"/>
<text text-anchor="middle" x="118" y="-1706.3" font-family="Times,serif" font-size="14.00" fill="#000000">TradeSLSBBean:getClosedOrders</text>
</g>
<!-- 140633490366984 -->
<g id="node34" class="node">
<title>140633490366984</title>
<polygon fill="none" stroke="#000000" points="189,-1782 47,-1782 47,-1746 189,-1746 189,-1782"/>
<text text-anchor="middle" x="118" y="-1760.3" font-family="Times,serif" font-size="14.00" fill="#000000">new AccountDataBean</text>
</g>
<!-- 140633493957936 -->
<g id="node35" class="node">
<title>140633493957936</title>
<polygon fill="none" stroke="#000000" points="207.5,-1836 28.5,-1836 28.5,-1800 207.5,-1800 207.5,-1836"/>
<text text-anchor="middle" x="118" y="-1814.3" font-family="Times,serif" font-size="14.00" fill="#000000">new AccountProfileDataBean</text>
</g>
<!-- 140633493954800 -->
<g id="node36" class="node">
<title>140633493954800</title>
<polygon fill="none" stroke="#000000" points="173.5,-1890 62.5,-1890 62.5,-1854 173.5,-1854 173.5,-1890"/>
<text text-anchor="middle" x="118" y="-1868.3" font-family="Times,serif" font-size="14.00" fill="#000000">new TradeAction</text>
</g>
<!-- 140633490367880 -->
<g id="node37" class="node">
<title>140633490367880</title>
<ellipse fill="#00ff00" stroke="#000000" cx="118" cy="-999" rx="27" ry="27"/>
<text text-anchor="middle" x="118" y="-995.3" font-family="Times,serif" font-size="14.00" fill="#000000">1</text>
</g>
<!-- 140633490367880&#45;&gt;140633490366592 -->
<g id="edge2" class="edge">
<title>140633490367880&#45;&gt;140633490366592</title>
<path fill="none" stroke="#000000" d="M145.1257,-999C173.6767,-999 220.1524,-999 261.6767,-999"/>
<polygon fill="#000000" stroke="#000000" points="261.8343,-1002.5001 271.8342,-999 261.8342,-995.5001 261.8343,-1002.5001"/>
</g>
<!-- 140633490368104&#45;&gt;140633493958272 -->
<g id="edge1" class="edge">
<title>140633490368104&#45;&gt;140633493958272</title>
<path fill="none" stroke="#000000" d="M519.003,-999C527.0277,-999 535.9665,-999 544.5309,-999"/>
<polygon fill="#000000" stroke="#000000" points="544.7051,-1002.5001 554.705,-999 544.705,-995.5001 544.7051,-1002.5001"/>
</g>
</g>
</svg>
