<?xml version="1.0" encoding="UTF-8" standalone="no"?>
<!DOCTYPE svg PUBLIC "-//W3C//DTD SVG 1.1//EN"
 "http://www.w3.org/Graphics/SVG/1.1/DTD/svg11.dtd">
<!-- Generated by graphviz version 2.40.1 (20161225.0304)
 -->
<!-- Title: alpha_plus_net_1585315545.4665236 Pages: 1 -->
<svg width="939pt" height="2537pt"
 viewBox="0.00 0.00 939.00 2537.00" xmlns="http://www.w3.org/2000/svg" xmlns:xlink="http://www.w3.org/1999/xlink">
<g id="graph0" class="graph" transform="scale(1 1) rotate(0) translate(4 2533)">
<title>alpha_plus_net_1585315545.4665236</title>
<!-- 140178132304952 -->
<g id="node1" class="node">
<title>140178132304952</title>
<polygon fill="none" stroke="#000000" points="583.5,-360 442.5,-360 442.5,-324 583.5,-324 583.5,-360"/>
<text text-anchor="middle" x="513" y="-338.3" font-family="Times,serif" font-size="14.00" fill="#000000">ActionDecoder:decode</text>
</g>
<!-- 140178132307360 -->
<g id="node53" class="node">
<title>140178132307360</title>
<ellipse fill="none" stroke="#000000" cx="724" cy="-180" rx="27" ry="27"/>
<text text-anchor="middle" x="724" y="-176.3" font-family="Times,serif" font-size="14.00" fill="#000000">({&#39;MarketSummaryWebSocket:onOpen&#39;, &#39;ActionDecoder:decode&#39;, &#39;OrdersAlertFilter:doFilter&#39;, &#39;new ActionDecoder&#39;, &#39;ActionDecoder:init&#39;, &#39;ActionDecoder:willDecode&#39;, &#39;MarketSummaryWebSocket:sendMarketSummary&#39;}, {&#39;Root&#39;})</text>
</g>
<!-- 140178132304952&#45;&gt;140178132307360 -->
<g id="edge9" class="edge">
<title>140178132304952&#45;&gt;140178132307360</title>
<path fill="none" stroke="#000000" d="M583.6933,-342.4332C610.2165,-339.3808 639.1863,-331.8358 661,-315 692.1803,-290.935 708.5579,-247.7293 716.7104,-216.6708"/>
<polygon fill="#000000" stroke="#000000" points="720.1856,-217.1948 719.1694,-206.6488 713.3873,-215.5267 720.1856,-217.1948"/>
</g>
<!-- 140178109607272 -->
<g id="node2" class="node">
<title>140178109607272</title>
<polygon fill="none" stroke="#000000" points="573.5,-306 452.5,-306 452.5,-270 573.5,-270 573.5,-306"/>
<text text-anchor="middle" x="513" y="-284.3" font-family="Times,serif" font-size="14.00" fill="#000000">ActionDecoder:init</text>
</g>
<!-- 140178109607272&#45;&gt;140178132307360 -->
<g id="edge10" class="edge">
<title>140178109607272&#45;&gt;140178132307360</title>
<path fill="none" stroke="#000000" d="M573.7682,-286.7401C601.9939,-283.7861 634.9817,-276.7771 661,-261 680.0691,-249.4368 695.5528,-229.8146 706.3981,-212.7796"/>
<polygon fill="#000000" stroke="#000000" points="709.4326,-214.5257 711.641,-204.1636 703.4527,-210.8868 709.4326,-214.5257"/>
</g>
<!-- 140178132306240 -->
<g id="node3" class="node">
<title>140178132306240</title>
<polygon fill="none" stroke="#000000" points="595.5,-252 430.5,-252 430.5,-216 595.5,-216 595.5,-252"/>
<text text-anchor="middle" x="513" y="-230.3" font-family="Times,serif" font-size="14.00" fill="#000000">ActionDecoder:willDecode</text>
</g>
<!-- 140178132306240&#45;&gt;140178132307360 -->
<g id="edge11" class="edge">
<title>140178132306240&#45;&gt;140178132307360</title>
<path fill="none" stroke="#000000" d="M595.5916,-222.3143C617.1134,-218.3521 640.1184,-213.2921 661,-207 670.7246,-204.0697 680.9678,-200.0921 690.3027,-196.0913"/>
<polygon fill="#000000" stroke="#000000" points="691.9151,-199.2052 699.6422,-191.9564 689.0813,-192.8044 691.9151,-199.2052"/>
</g>
<!-- 140178132305232 -->
<g id="node4" class="node">
<title>140178132305232</title>
<polygon fill="none" stroke="#000000" points="250,-261 79,-261 79,-225 250,-225 250,-261"/>
<text text-anchor="middle" x="164.5" y="-239.3" font-family="Times,serif" font-size="14.00" fill="#000000">ActionMessage:doDecoding</text>
</g>
<!-- 140178132306184 -->
<g id="node5" class="node">
<title>140178132306184</title>
<polygon fill="none" stroke="#000000" points="267.5,-315 61.5,-315 61.5,-279 267.5,-279 267.5,-315"/>
<text text-anchor="middle" x="164.5" y="-293.3" font-family="Times,serif" font-size="14.00" fill="#000000">ActionMessage:getDecodedAction</text>
</g>
<!-- 140178132304672 -->
<g id="node6" class="node">
<title>140178132304672</title>
<polygon fill="none" stroke="#000000" points="255,-369 74,-369 74,-333 255,-333 255,-369"/>
<text text-anchor="middle" x="164.5" y="-347.3" font-family="Times,serif" font-size="14.00" fill="#000000">FinancialUtils:printQuoteLink</text>
</g>
<!-- 140178132304056 -->
<g id="node7" class="node">
<title>140178132304056</title>
<polygon fill="none" stroke="#000000" points="226,-423 103,-423 103,-387 226,-387 226,-423"/>
<text text-anchor="middle" x="164.5" y="-401.3" font-family="Times,serif" font-size="14.00" fill="#000000">Log:doActionTrace</text>
</g>
<!-- 140178132305568 -->
<g id="node8" class="node">
<title>140178132305568</title>
<polygon fill="none" stroke="#000000" points="207.5,-477 121.5,-477 121.5,-441 207.5,-441 207.5,-477"/>
<text text-anchor="middle" x="164.5" y="-455.3" font-family="Times,serif" font-size="14.00" fill="#000000">Log:doTrace</text>
</g>
<!-- 140178132306128 -->
<g id="node9" class="node">
<title>140178132306128</title>
<polygon fill="none" stroke="#000000" points="227.5,-531 101.5,-531 101.5,-495 227.5,-495 227.5,-531"/>
<text text-anchor="middle" x="164.5" y="-509.3" font-family="Times,serif" font-size="14.00" fill="#000000">Log:getActionTrace</text>
</g>
<!-- 140178132304448 -->
<g id="node10" class="node">
<title>140178132304448</title>
<polygon fill="none" stroke="#000000" points="209,-585 120,-585 120,-549 209,-549 209,-585"/>
<text text-anchor="middle" x="164.5" y="-563.3" font-family="Times,serif" font-size="14.00" fill="#000000">Log:getTrace</text>
</g>
<!-- 140178132305960 -->
<g id="node11" class="node">
<title>140178132305960</title>
<polygon fill="none" stroke="#000000" points="269.5,-639 59.5,-639 59.5,-603 269.5,-603 269.5,-639"/>
<text text-anchor="middle" x="164.5" y="-617.3" font-family="Times,serif" font-size="14.00" fill="#000000">MarketSummaryDataBean:toJSON</text>
</g>
<!-- 140178132304784 -->
<g id="node12" class="node">
<title>140178132304784</title>
<polygon fill="none" stroke="#000000" points="329,-693 0,-693 0,-657 329,-657 329,-693"/>
<text text-anchor="middle" x="164.5" y="-671.3" font-family="Times,serif" font-size="14.00" fill="#000000">MarketSummarySingleton:getMarketSummaryDataBean</text>
</g>
<!-- 140178132305120 -->
<g id="node13" class="node">
<title>140178132305120</title>
<polygon fill="none" stroke="#000000" points="303,-747 26,-747 26,-711 303,-711 303,-747"/>
<text text-anchor="middle" x="164.5" y="-725.3" font-family="Times,serif" font-size="14.00" fill="#000000">MarketSummaryWebSocket:mergeJsonObjects</text>
</g>
<!-- 140178132305288 -->
<g id="node14" class="node">
<title>140178132305288</title>
<polygon fill="none" stroke="#000000" points="623,-198 403,-198 403,-162 623,-162 623,-198"/>
<text text-anchor="middle" x="513" y="-176.3" font-family="Times,serif" font-size="14.00" fill="#000000">MarketSummaryWebSocket:onOpen</text>
</g>
<!-- 140178132305288&#45;&gt;140178132307360 -->
<g id="edge12" class="edge">
<title>140178132305288&#45;&gt;140178132307360</title>
<path fill="none" stroke="#000000" d="M623.1349,-180C646.022,-180 668.6176,-180 686.6023,-180"/>
<polygon fill="#000000" stroke="#000000" points="686.6259,-183.5001 696.6258,-180 686.6258,-176.5001 686.6259,-183.5001"/>
</g>
<!-- 140178132304112 -->
<g id="node15" class="node">
<title>140178132304112</title>
<polygon fill="none" stroke="#000000" points="661,-144 365,-144 365,-108 661,-108 661,-144"/>
<text text-anchor="middle" x="513" y="-122.3" font-family="Times,serif" font-size="14.00" fill="#000000">MarketSummaryWebSocket:sendMarketSummary</text>
</g>
<!-- 140178132304112&#45;&gt;140178132307360 -->
<g id="edge13" class="edge">
<title>140178132304112&#45;&gt;140178132307360</title>
<path fill="none" stroke="#000000" d="M626.7484,-144.0599C638.4034,-146.7109 649.9965,-149.6844 661,-153 670.7246,-155.9303 680.9678,-159.9079 690.3027,-163.9087"/>
<polygon fill="#000000" stroke="#000000" points="689.0813,-167.1956 699.6422,-168.0436 691.9151,-160.7948 689.0813,-167.1956"/>
</g>
<!-- 140179082316992 -->
<g id="node16" class="node">
<title>140179082316992</title>
<polygon fill="none" stroke="#000000" points="312.5,-801 16.5,-801 16.5,-765 312.5,-765 312.5,-801"/>
<text text-anchor="middle" x="164.5" y="-779.3" font-family="Times,serif" font-size="14.00" fill="#000000">OrderDataBean:OrderDataBean [overloaded_#001]</text>
</g>
<!-- 140178132304168 -->
<g id="node17" class="node">
<title>140178132304168</title>
<polygon fill="none" stroke="#000000" points="270.5,-855 58.5,-855 58.5,-819 270.5,-819 270.5,-855"/>
<text text-anchor="middle" x="164.5" y="-833.3" font-family="Times,serif" font-size="14.00" fill="#000000">OrderDataBean:getCompletionDate</text>
</g>
<!-- 140178109605816 -->
<g id="node18" class="node">
<title>140178109605816</title>
<polygon fill="none" stroke="#000000" points="252.5,-909 76.5,-909 76.5,-873 252.5,-873 252.5,-909"/>
<text text-anchor="middle" x="164.5" y="-887.3" font-family="Times,serif" font-size="14.00" fill="#000000">OrderDataBean:getOpenDate</text>
</g>
<!-- 140178132306072 -->
<g id="node19" class="node">
<title>140178132306072</title>
<polygon fill="none" stroke="#000000" points="251,-963 78,-963 78,-927 251,-927 251,-963"/>
<text text-anchor="middle" x="164.5" y="-941.3" font-family="Times,serif" font-size="14.00" fill="#000000">OrderDataBean:getOrderFee</text>
</g>
<!-- 140178132305456 -->
<g id="node20" class="node">
<title>140178132305456</title>
<polygon fill="none" stroke="#000000" points="248,-1017 81,-1017 81,-981 248,-981 248,-1017"/>
<text text-anchor="middle" x="164.5" y="-995.3" font-family="Times,serif" font-size="14.00" fill="#000000">OrderDataBean:getOrderID</text>
</g>
<!-- 140178132305680 -->
<g id="node21" class="node">
<title>140178132305680</title>
<polygon fill="none" stroke="#000000" points="257.5,-1071 71.5,-1071 71.5,-1035 257.5,-1035 257.5,-1071"/>
<text text-anchor="middle" x="164.5" y="-1049.3" font-family="Times,serif" font-size="14.00" fill="#000000">OrderDataBean:getOrderStatus</text>
</g>
<!-- 140178109607048 -->
<g id="node22" class="node">
<title>140178109607048</title>
<polygon fill="none" stroke="#000000" points="255,-1125 74,-1125 74,-1089 255,-1089 255,-1125"/>
<text text-anchor="middle" x="164.5" y="-1103.3" font-family="Times,serif" font-size="14.00" fill="#000000">OrderDataBean:getOrderType</text>
</g>
<!-- 140178132304000 -->
<g id="node23" class="node">
<title>140178132304000</title>
<polygon fill="none" stroke="#000000" points="249,-1179 80,-1179 80,-1143 249,-1143 249,-1179"/>
<text text-anchor="middle" x="164.5" y="-1157.3" font-family="Times,serif" font-size="14.00" fill="#000000">OrderDataBean:getQuantity</text>
</g>
<!-- 140178109606992 -->
<g id="node24" class="node">
<title>140178109606992</title>
<polygon fill="none" stroke="#000000" points="246.5,-1233 82.5,-1233 82.5,-1197 246.5,-1197 246.5,-1233"/>
<text text-anchor="middle" x="164.5" y="-1211.3" font-family="Times,serif" font-size="14.00" fill="#000000">OrderDataBean:getSymbol</text>
</g>
<!-- 140178132304392 -->
<g id="node25" class="node">
<title>140178132304392</title>
<polygon fill="none" stroke="#000000" points="591.5,-90 434.5,-90 434.5,-54 591.5,-54 591.5,-90"/>
<text text-anchor="middle" x="513" y="-68.3" font-family="Times,serif" font-size="14.00" fill="#000000">OrdersAlertFilter:doFilter</text>
</g>
<!-- 140178132304392&#45;&gt;140178132307360 -->
<g id="edge14" class="edge">
<title>140178132304392&#45;&gt;140178132307360</title>
<path fill="none" stroke="#000000" d="M591.7162,-75.643C615.2897,-79.4738 640.3417,-86.4731 661,-99 680.0691,-110.5632 695.5528,-130.1854 706.3981,-147.2204"/>
<polygon fill="#000000" stroke="#000000" points="703.4527,-149.1132 711.641,-155.8364 709.4326,-145.4743 703.4527,-149.1132"/>
</g>
<!-- 140178132304896 -->
<g id="node26" class="node">
<title>140178132304896</title>
<polygon fill="none" stroke="#000000" points="314,-1287 15,-1287 15,-1251 314,-1251 314,-1287"/>
<text text-anchor="middle" x="164.5" y="-1265.3" font-family="Times,serif" font-size="14.00" fill="#000000">QuoteDataBean:QuoteDataBean [overloaded_#001]</text>
</g>
<!-- 140178132305176 -->
<g id="node27" class="node">
<title>140178132305176</title>
<polygon fill="none" stroke="#000000" points="246.5,-1341 82.5,-1341 82.5,-1305 246.5,-1305 246.5,-1341"/>
<text text-anchor="middle" x="164.5" y="-1319.3" font-family="Times,serif" font-size="14.00" fill="#000000">QuoteDataBean:getChange</text>
</g>
<!-- 140178132304280 -->
<g id="node28" class="node">
<title>140178132304280</title>
<polygon fill="none" stroke="#000000" points="240,-1395 89,-1395 89,-1359 240,-1359 240,-1395"/>
<text text-anchor="middle" x="164.5" y="-1373.3" font-family="Times,serif" font-size="14.00" fill="#000000">QuoteDataBean:getPrice</text>
</g>
<!-- 140178132306296 -->
<g id="node29" class="node">
<title>140178132306296</title>
<polygon fill="none" stroke="#000000" points="247.5,-1449 81.5,-1449 81.5,-1413 247.5,-1413 247.5,-1449"/>
<text text-anchor="middle" x="164.5" y="-1427.3" font-family="Times,serif" font-size="14.00" fill="#000000">QuoteDataBean:getSymbol</text>
</g>
<!-- 140178132305400 -->
<g id="node30" class="node">
<title>140178132305400</title>
<polygon fill="none" stroke="#000000" points="263,-1503 66,-1503 66,-1467 263,-1467 263,-1503"/>
<text text-anchor="middle" x="164.5" y="-1481.3" font-family="Times,serif" font-size="14.00" fill="#000000">RecentStockChangeList:isEmpty</text>
</g>
<!-- 140178132305904 -->
<g id="node31" class="node">
<title>140178132305904</title>
<polygon fill="none" stroke="#000000" points="299,-1557 30,-1557 30,-1521 299,-1521 299,-1557"/>
<text text-anchor="middle" x="164.5" y="-1535.3" font-family="Times,serif" font-size="14.00" fill="#000000">RecentStockChangeList:stockChangesInJSON</text>
</g>
<!-- 140178132304504 -->
<g id="node32" class="node">
<title>140178132304504</title>
<polygon fill="none" stroke="#000000" points="841,-198 787,-198 787,-162 841,-162 841,-198"/>
<text text-anchor="middle" x="814" y="-176.3" font-family="Times,serif" font-size="14.00" fill="#000000">Root</text>
</g>
<!-- 140178132306464 -->
<g id="node54" class="node">
<title>140178132306464</title>
<ellipse fill="#ffa500" stroke="#000000" cx="904" cy="-180" rx="27" ry="27"/>
</g>
<!-- 140178132304504&#45;&gt;140178132306464 -->
<g id="edge15" class="edge">
<title>140178132304504&#45;&gt;140178132306464</title>
<path fill="none" stroke="#000000" d="M841.003,-180C849.0277,-180 857.9665,-180 866.5309,-180"/>
<polygon fill="#000000" stroke="#000000" points="866.7051,-183.5001 876.705,-180 866.705,-176.5001 866.7051,-183.5001"/>
</g>
<!-- 140178109606880 -->
<g id="node33" class="node">
<title>140178109606880</title>
<polygon fill="none" stroke="#000000" points="296,-1611 33,-1611 33,-1575 296,-1575 296,-1611"/>
<text text-anchor="middle" x="164.5" y="-1589.3" font-family="Times,serif" font-size="14.00" fill="#000000">TradeAction:TradeAction [overloaded_#001]</text>
</g>
<!-- 140178132306016 -->
<g id="node34" class="node">
<title>140178132306016</title>
<polygon fill="none" stroke="#000000" points="240.5,-1665 88.5,-1665 88.5,-1629 240.5,-1629 240.5,-1665"/>
<text text-anchor="middle" x="164.5" y="-1643.3" font-family="Times,serif" font-size="14.00" fill="#000000">TradeAction:createTrade</text>
</g>
<!-- 140178109607776 -->
<g id="node35" class="node">
<title>140178109607776</title>
<polygon fill="none" stroke="#000000" points="254,-1719 75,-1719 75,-1683 254,-1683 254,-1719"/>
<text text-anchor="middle" x="164.5" y="-1697.3" font-family="Times,serif" font-size="14.00" fill="#000000">TradeAction:getClosedOrders</text>
</g>
<!-- 140178132305512 -->
<g id="node36" class="node">
<title>140178132305512</title>
<polygon fill="none" stroke="#000000" points="264,-1773 65,-1773 65,-1737 264,-1737 264,-1773"/>
<text text-anchor="middle" x="164.5" y="-1751.3" font-family="Times,serif" font-size="14.00" fill="#000000">TradeAction:getMarketSummary</text>
</g>
<!-- 140178132304840 -->
<g id="node37" class="node">
<title>140178132304840</title>
<polygon fill="none" stroke="#000000" points="237.5,-1827 91.5,-1827 91.5,-1791 237.5,-1791 237.5,-1827"/>
<text text-anchor="middle" x="164.5" y="-1805.3" font-family="Times,serif" font-size="14.00" fill="#000000">TradeAppServlet:doGet</text>
</g>
<!-- 140178132305064 -->
<g id="node38" class="node">
<title>140178132305064</title>
<polygon fill="none" stroke="#000000" points="256.5,-1881 72.5,-1881 72.5,-1845 256.5,-1845 256.5,-1881"/>
<text text-anchor="middle" x="164.5" y="-1859.3" font-family="Times,serif" font-size="14.00" fill="#000000">TradeAppServlet:performTask</text>
</g>
<!-- 140178109606936 -->
<g id="node39" class="node">
<title>140178109606936</title>
<polygon fill="none" stroke="#000000" points="251,-1935 78,-1935 78,-1899 251,-1899 251,-1935"/>
<text text-anchor="middle" x="164.5" y="-1913.3" font-family="Times,serif" font-size="14.00" fill="#000000">TradeConfig:getActionTrace</text>
</g>
<!-- 140178132304616 -->
<g id="node40" class="node">
<title>140178132304616</title>
<polygon fill="none" stroke="#000000" points="270.5,-1989 58.5,-1989 58.5,-1953 270.5,-1953 270.5,-1989"/>
<text text-anchor="middle" x="164.5" y="-1967.3" font-family="Times,serif" font-size="14.00" fill="#000000">TradeConfig:getDisplayOrderAlerts</text>
</g>
<!-- 140178132305008 -->
<g id="node41" class="node">
<title>140178132305008</title>
<polygon fill="none" stroke="#000000" points="243,-2043 86,-2043 86,-2007 243,-2007 243,-2043"/>
<text text-anchor="middle" x="164.5" y="-2021.3" font-family="Times,serif" font-size="14.00" fill="#000000">TradeConfig:getLongRun</text>
</g>
<!-- 140178132305624 -->
<g id="node42" class="node">
<title>140178132305624</title>
<polygon fill="none" stroke="#000000" points="230.5,-2097 98.5,-2097 98.5,-2061 230.5,-2061 230.5,-2097"/>
<text text-anchor="middle" x="164.5" y="-2075.3" font-family="Times,serif" font-size="14.00" fill="#000000">TradeConfig:getPage</text>
</g>
<!-- 140178132305736 -->
<g id="node43" class="node">
<title>140178132305736</title>
<polygon fill="none" stroke="#000000" points="259.5,-2151 69.5,-2151 69.5,-2115 259.5,-2115 259.5,-2151"/>
<text text-anchor="middle" x="164.5" y="-2129.3" font-family="Times,serif" font-size="14.00" fill="#000000">TradeConfig:getRunTimeMode</text>
</g>
<!-- 140178132306352 -->
<g id="node44" class="node">
<title>140178132306352</title>
<polygon fill="none" stroke="#000000" points="233,-2205 96,-2205 96,-2169 233,-2169 233,-2205"/>
<text text-anchor="middle" x="164.5" y="-2183.3" font-family="Times,serif" font-size="14.00" fill="#000000">TradeConfig:getTrace</text>
</g>
<!-- 140178132305848 -->
<g id="node45" class="node">
<title>140178132305848</title>
<polygon fill="none" stroke="#000000" points="275,-2259 54,-2259 54,-2223 275,-2223 275,-2259"/>
<text text-anchor="middle" x="164.5" y="-2237.3" font-family="Times,serif" font-size="14.00" fill="#000000">TradeConfig:useRemoteEJBInterface</text>
</g>
<!-- 140178109606768 -->
<g id="node46" class="node">
<title>140178109606768</title>
<polygon fill="none" stroke="#000000" points="266,-2313 63,-2313 63,-2277 266,-2277 266,-2313"/>
<text text-anchor="middle" x="164.5" y="-2291.3" font-family="Times,serif" font-size="14.00" fill="#000000">TradeSLSBBean:getClosedOrders</text>
</g>
<!-- 140178132304728 -->
<g id="node47" class="node">
<title>140178132304728</title>
<polygon fill="none" stroke="#000000" points="275.5,-2367 53.5,-2367 53.5,-2331 275.5,-2331 275.5,-2367"/>
<text text-anchor="middle" x="164.5" y="-2345.3" font-family="Times,serif" font-size="14.00" fill="#000000">TradeSLSBBean:getMarketSummary</text>
</g>
<!-- 140178132305792 -->
<g id="node48" class="node">
<title>140178132305792</title>
<polygon fill="none" stroke="#000000" points="281.5,-2421 47.5,-2421 47.5,-2385 281.5,-2385 281.5,-2421"/>
<text text-anchor="middle" x="164.5" y="-2399.3" font-family="Times,serif" font-size="14.00" fill="#000000">TradeServletAction:doMarketSummary</text>
</g>
<!-- 140178132304336 -->
<g id="node49" class="node">
<title>140178132304336</title>
<polygon fill="none" stroke="#000000" points="271.5,-2475 57.5,-2475 57.5,-2439 271.5,-2439 271.5,-2475"/>
<text text-anchor="middle" x="164.5" y="-2453.3" font-family="Times,serif" font-size="14.00" fill="#000000">TradeServletAction:requestDispatch</text>
</g>
<!-- 140178132303944 -->
<g id="node50" class="node">
<title>140178132303944</title>
<polygon fill="none" stroke="#000000" points="575.5,-36 450.5,-36 450.5,0 575.5,0 575.5,-36"/>
<text text-anchor="middle" x="513" y="-14.3" font-family="Times,serif" font-size="14.00" fill="#000000">new ActionDecoder</text>
</g>
<!-- 140178132303944&#45;&gt;140178132307360 -->
<g id="edge16" class="edge">
<title>140178132303944&#45;&gt;140178132307360</title>
<path fill="none" stroke="#000000" d="M575.8563,-16.7841C604.3791,-19.2094 637.0153,-26.4886 661,-45 692.1803,-69.065 708.5579,-112.2707 716.7104,-143.3292"/>
<polygon fill="#000000" stroke="#000000" points="713.3873,-144.4733 719.1694,-153.3512 720.1856,-142.8052 713.3873,-144.4733"/>
</g>
<!-- 140178132305344 -->
<g id="node51" class="node">
<title>140178132305344</title>
<polygon fill="none" stroke="#000000" points="228.5,-2529 100.5,-2529 100.5,-2493 228.5,-2493 228.5,-2529"/>
<text text-anchor="middle" x="164.5" y="-2507.3" font-family="Times,serif" font-size="14.00" fill="#000000">new ActionMessage</text>
</g>
<!-- 140178132306800 -->
<g id="node52" class="node">
<title>140178132306800</title>
<ellipse fill="#00ff00" stroke="#000000" cx="164.5" cy="-180" rx="27" ry="27"/>
<text text-anchor="middle" x="164.5" y="-176.3" font-family="Times,serif" font-size="14.00" fill="#000000">1</text>
</g>
<!-- 140178132306800&#45;&gt;140178132304952 -->
<g id="edge2" class="edge">
<title>140178132306800&#45;&gt;140178132304952</title>
<path fill="none" stroke="#000000" d="M191.6129,-178.4191C227.4035,-177.8349 290.3842,-182.2175 329,-216 364.2376,-246.8271 329.2283,-284.7942 365,-315 383.5962,-330.7028 408.2648,-338.5511 432.1207,-342.1826"/>
<polygon fill="#000000" stroke="#000000" points="431.9095,-345.6843 442.2749,-343.4914 432.8044,-338.7417 431.9095,-345.6843"/>
</g>
<!-- 140178132306800&#45;&gt;140178109607272 -->
<g id="edge3" class="edge">
<title>140178132306800&#45;&gt;140178109607272</title>
<path fill="none" stroke="#000000" d="M191.6138,-180.4842C226.0161,-182.2571 286.0351,-189.3168 329,-216 350.7579,-229.5127 343.009,-247.8701 365,-261 388.0641,-274.7706 416.4838,-281.8344 442.2332,-285.3577"/>
<polygon fill="#000000" stroke="#000000" points="441.979,-288.8524 452.3275,-286.581 442.8212,-281.9033 441.979,-288.8524"/>
</g>
<!-- 140178132306800&#45;&gt;140178132306240 -->
<g id="edge4" class="edge">
<title>140178132306800&#45;&gt;140178132306240</title>
<path fill="none" stroke="#000000" d="M191.2675,-184.1476C239.5456,-191.6283 343.3051,-207.7058 420.003,-219.5901"/>
<polygon fill="#000000" stroke="#000000" points="419.7446,-223.0918 430.1627,-221.1644 420.8166,-216.1743 419.7446,-223.0918"/>
</g>
<!-- 140178132306800&#45;&gt;140178132305288 -->
<g id="edge5" class="edge">
<title>140178132306800&#45;&gt;140178132305288</title>
<path fill="none" stroke="#000000" d="M191.5562,-180C234.4,-180 320.4138,-180 392.6912,-180"/>
<polygon fill="#000000" stroke="#000000" points="392.7927,-183.5001 402.7927,-180 392.7927,-176.5001 392.7927,-183.5001"/>
</g>
<!-- 140178132306800&#45;&gt;140178132304112 -->
<g id="edge6" class="edge">
<title>140178132306800&#45;&gt;140178132304112</title>
<path fill="none" stroke="#000000" d="M191.2675,-175.8524C232.8253,-169.413 315.4933,-156.6036 386.6233,-145.582"/>
<polygon fill="#000000" stroke="#000000" points="387.2318,-149.0296 396.5779,-144.0396 386.1599,-142.1122 387.2318,-149.0296"/>
</g>
<!-- 140178132306800&#45;&gt;140178132304392 -->
<g id="edge7" class="edge">
<title>140178132306800&#45;&gt;140178132304392</title>
<path fill="none" stroke="#000000" d="M188.9306,-168.2338C226.1264,-150.759 299.5559,-117.9743 365,-99 383.9919,-93.4936 404.6948,-88.8827 424.4356,-85.1192"/>
<polygon fill="#000000" stroke="#000000" points="425.1505,-88.5464 434.346,-83.284 423.8758,-81.6634 425.1505,-88.5464"/>
</g>
<!-- 140178132306800&#45;&gt;140178132303944 -->
<g id="edge8" class="edge">
<title>140178132306800&#45;&gt;140178132303944</title>
<path fill="none" stroke="#000000" d="M184.7808,-162.0759C219.2282,-132.6682 292.5107,-74.5026 365,-45 388.601,-35.3945 415.7077,-29.189 440.2206,-25.187"/>
<polygon fill="#000000" stroke="#000000" points="440.8365,-28.6335 450.1889,-23.6552 439.7733,-21.7147 440.8365,-28.6335"/>
</g>
<!-- 140178132307360&#45;&gt;140178132304504 -->
<g id="edge1" class="edge">
<title>140178132307360&#45;&gt;140178132304504</title>
<path fill="none" stroke="#000000" d="M751.003,-180C759.0277,-180 767.9665,-180 776.5309,-180"/>
<polygon fill="#000000" stroke="#000000" points="776.7051,-183.5001 786.705,-180 776.705,-176.5001 776.7051,-183.5001"/>
</g>
</g>
</svg>
