<?xml version="1.0" encoding="UTF-8" standalone="no"?>
<!DOCTYPE svg PUBLIC "-//W3C//DTD SVG 1.1//EN"
 "http://www.w3.org/Graphics/SVG/1.1/DTD/svg11.dtd">
<!-- Generated by graphviz version 2.40.1 (20161225.0304)
 -->
<!-- Title: alpha_classic_net_1585315462.7657175 Pages: 1 -->
<svg width="651pt" height="809pt"
 viewBox="0.00 0.00 651.00 809.00" xmlns="http://www.w3.org/2000/svg" xmlns:xlink="http://www.w3.org/1999/xlink">
<g id="graph0" class="graph" transform="scale(1 1) rotate(0) translate(4 805)">
<title>alpha_classic_net_1585315462.7657175</title>
<!-- 140178132618208 -->
<g id="node1" class="node">
<title>140178132618208</title>
<polygon fill="none" stroke="#000000" points="336,-360 237,-360 237,-324 336,-324 336,-360"/>
<text text-anchor="middle" x="286.5" y="-338.3" font-family="Times,serif" font-size="14.00" fill="#000000">ActionDecoder</text>
</g>
<!-- 140178132617984 -->
<g id="node21" class="node">
<title>140178132617984</title>
<ellipse fill="none" stroke="#000000" cx="436" cy="-126" rx="27" ry="27"/>
<text text-anchor="middle" x="436" y="-122.3" font-family="Times,serif" font-size="14.00" fill="#000000">({&#39;ActionDecoder&#39;, &#39;JSFLoginFilter&#39;, &#39;PingServlet&#39;, &#39;TradeWebContextListener&#39;, &#39;OrdersAlertFilter&#39;}, {&#39;Root&#39;})</text>
</g>
<!-- 140178132618208&#45;&gt;140178132617984 -->
<g id="edge2" class="edge">
<title>140178132618208&#45;&gt;140178132617984</title>
<path fill="none" stroke="#000000" d="M336.1447,-335.0387C349.5048,-331.0558 363.0049,-324.805 373,-315 394.8984,-293.5179 416.697,-211.0645 428.0205,-162.4478"/>
<polygon fill="#000000" stroke="#000000" points="431.4501,-163.1506 430.274,-152.6213 424.6272,-161.5858 431.4501,-163.1506"/>
</g>
<!-- 140178132617088 -->
<g id="node2" class="node">
<title>140178132617088</title>
<polygon fill="none" stroke="#000000" points="132.5,-261 31.5,-261 31.5,-225 132.5,-225 132.5,-261"/>
<text text-anchor="middle" x="82" y="-239.3" font-family="Times,serif" font-size="14.00" fill="#000000">ActionMessage</text>
</g>
<!-- 140178132618040 -->
<g id="node3" class="node">
<title>140178132618040</title>
<polygon fill="none" stroke="#000000" points="128.5,-315 35.5,-315 35.5,-279 128.5,-279 128.5,-315"/>
<text text-anchor="middle" x="82" y="-293.3" font-family="Times,serif" font-size="14.00" fill="#000000">FinancialUtils</text>
</g>
<!-- 140178132618600 -->
<g id="node4" class="node">
<title>140178132618600</title>
<polygon fill="none" stroke="#000000" points="335.5,-306 237.5,-306 237.5,-270 335.5,-270 335.5,-306"/>
<text text-anchor="middle" x="286.5" y="-284.3" font-family="Times,serif" font-size="14.00" fill="#000000">JSFLoginFilter</text>
</g>
<!-- 140178132618600&#45;&gt;140178132617984 -->
<g id="edge3" class="edge">
<title>140178132618600&#45;&gt;140178132617984</title>
<path fill="none" stroke="#000000" d="M335.897,-280.1499C349.0986,-276.1493 362.577,-270.1115 373,-261 402.4789,-235.2303 419.124,-192.7291 427.8051,-162.2966"/>
<polygon fill="#000000" stroke="#000000" points="431.2278,-163.0466 430.4508,-152.4803 424.469,-161.2249 431.2278,-163.0466"/>
</g>
<!-- 140178132618936 -->
<g id="node5" class="node">
<title>140178132618936</title>
<polygon fill="none" stroke="#000000" points="109,-369 55,-369 55,-333 109,-333 109,-369"/>
<text text-anchor="middle" x="82" y="-347.3" font-family="Times,serif" font-size="14.00" fill="#000000">Log</text>
</g>
<!-- 140178132618432 -->
<g id="node6" class="node">
<title>140178132618432</title>
<polygon fill="none" stroke="#000000" points="164,-423 0,-423 0,-387 164,-387 164,-423"/>
<text text-anchor="middle" x="82" y="-401.3" font-family="Times,serif" font-size="14.00" fill="#000000">MarketSummaryDataBean</text>
</g>
<!-- 140178132616864 -->
<g id="node7" class="node">
<title>140178132616864</title>
<polygon fill="none" stroke="#000000" points="367.5,-252 205.5,-252 205.5,-216 367.5,-216 367.5,-252"/>
<text text-anchor="middle" x="286.5" y="-230.3" font-family="Times,serif" font-size="14.00" fill="#000000">MarketSummarySingleton</text>
</g>
<!-- 140178132617872 -->
<g id="node8" class="node">
<title>140178132617872</title>
<polygon fill="none" stroke="#000000" points="373,-198 200,-198 200,-162 373,-162 373,-198"/>
<text text-anchor="middle" x="286.5" y="-176.3" font-family="Times,serif" font-size="14.00" fill="#000000">MarketSummaryWebSocket</text>
</g>
<!-- 140178132617032 -->
<g id="node9" class="node">
<title>140178132617032</title>
<polygon fill="none" stroke="#000000" points="341.5,-144 231.5,-144 231.5,-108 341.5,-108 341.5,-144"/>
<text text-anchor="middle" x="286.5" y="-122.3" font-family="Times,serif" font-size="14.00" fill="#000000">OrdersAlertFilter</text>
</g>
<!-- 140178132617032&#45;&gt;140178132617984 -->
<g id="edge4" class="edge">
<title>140178132617032&#45;&gt;140178132617984</title>
<path fill="none" stroke="#000000" d="M341.7435,-126C360.6171,-126 381.2745,-126 398.4277,-126"/>
<polygon fill="#000000" stroke="#000000" points="398.608,-129.5001 408.6079,-126 398.6079,-122.5001 398.608,-129.5001"/>
</g>
<!-- 140178132619216 -->
<g id="node10" class="node">
<title>140178132619216</title>
<polygon fill="none" stroke="#000000" points="326.5,-90 246.5,-90 246.5,-54 326.5,-54 326.5,-90"/>
<text text-anchor="middle" x="286.5" y="-68.3" font-family="Times,serif" font-size="14.00" fill="#000000">PingServlet</text>
</g>
<!-- 140178132619216&#45;&gt;140178132617984 -->
<g id="edge5" class="edge">
<title>140178132619216&#45;&gt;140178132617984</title>
<path fill="none" stroke="#000000" d="M326.8388,-83.655C341.4862,-88.1324 358.0945,-93.4961 373,-99 382.5277,-102.5182 392.7053,-106.6917 402.0402,-110.6924"/>
<polygon fill="#000000" stroke="#000000" points="400.8346,-113.9847 411.4007,-114.7644 403.627,-107.5658 400.8346,-113.9847"/>
</g>
<!-- 140178132617368 -->
<g id="node11" class="node">
<title>140178132617368</title>
<polygon fill="none" stroke="#000000" points="133.5,-477 30.5,-477 30.5,-441 133.5,-441 133.5,-477"/>
<text text-anchor="middle" x="82" y="-455.3" font-family="Times,serif" font-size="14.00" fill="#000000">QuoteDataBean</text>
</g>
<!-- 140178132617536 -->
<g id="node12" class="node">
<title>140178132617536</title>
<polygon fill="none" stroke="#000000" points="155.5,-531 8.5,-531 8.5,-495 155.5,-495 155.5,-531"/>
<text text-anchor="middle" x="82" y="-509.3" font-family="Times,serif" font-size="14.00" fill="#000000">RecentStockChangeList</text>
</g>
<!-- 140178132615464 -->
<g id="node13" class="node">
<title>140178132615464</title>
<polygon fill="none" stroke="#000000" points="553,-144 499,-144 499,-108 553,-108 553,-144"/>
<text text-anchor="middle" x="526" y="-122.3" font-family="Times,serif" font-size="14.00" fill="#000000">Root</text>
</g>
<!-- 140178132618096 -->
<g id="node22" class="node">
<title>140178132618096</title>
<ellipse fill="#ffa500" stroke="#000000" cx="616" cy="-126" rx="27" ry="27"/>
</g>
<!-- 140178132615464&#45;&gt;140178132618096 -->
<g id="edge6" class="edge">
<title>140178132615464&#45;&gt;140178132618096</title>
<path fill="none" stroke="#000000" d="M553.003,-126C561.0277,-126 569.9665,-126 578.5309,-126"/>
<polygon fill="#000000" stroke="#000000" points="578.7051,-129.5001 588.705,-126 578.705,-122.5001 578.7051,-129.5001"/>
</g>
<!-- 140178132618768 -->
<g id="node14" class="node">
<title>140178132618768</title>
<polygon fill="none" stroke="#000000" points="124.5,-585 39.5,-585 39.5,-549 124.5,-549 124.5,-585"/>
<text text-anchor="middle" x="82" y="-563.3" font-family="Times,serif" font-size="14.00" fill="#000000">TradeAction</text>
</g>
<!-- 140178132618824 -->
<g id="node15" class="node">
<title>140178132618824</title>
<polygon fill="none" stroke="#000000" points="137,-639 27,-639 27,-603 137,-603 137,-639"/>
<text text-anchor="middle" x="82" y="-617.3" font-family="Times,serif" font-size="14.00" fill="#000000">TradeAppServlet</text>
</g>
<!-- 140178132617760 -->
<g id="node16" class="node">
<title>140178132617760</title>
<polygon fill="none" stroke="#000000" points="125,-693 39,-693 39,-657 125,-657 125,-693"/>
<text text-anchor="middle" x="82" y="-671.3" font-family="Times,serif" font-size="14.00" fill="#000000">TradeConfig</text>
</g>
<!-- 140178132617144 -->
<g id="node17" class="node">
<title>140178132617144</title>
<polygon fill="none" stroke="#000000" points="136,-747 28,-747 28,-711 136,-711 136,-747"/>
<text text-anchor="middle" x="82" y="-725.3" font-family="Times,serif" font-size="14.00" fill="#000000">TradeSLSBBean</text>
</g>
<!-- 140178132615520 -->
<g id="node18" class="node">
<title>140178132615520</title>
<polygon fill="none" stroke="#000000" points="143.5,-801 20.5,-801 20.5,-765 143.5,-765 143.5,-801"/>
<text text-anchor="middle" x="82" y="-779.3" font-family="Times,serif" font-size="14.00" fill="#000000">TradeServletAction</text>
</g>
<!-- 140178132618656 -->
<g id="node19" class="node">
<title>140178132618656</title>
<polygon fill="none" stroke="#000000" points="367,-36 206,-36 206,0 367,0 367,-36"/>
<text text-anchor="middle" x="286.5" y="-14.3" font-family="Times,serif" font-size="14.00" fill="#000000">TradeWebContextListener</text>
</g>
<!-- 140178132618656&#45;&gt;140178132617984 -->
<g id="edge7" class="edge">
<title>140178132618656&#45;&gt;140178132617984</title>
<path fill="none" stroke="#000000" d="M357.5988,-36.1904C363.0083,-38.7622 368.2162,-41.6838 373,-45 391.0363,-57.503 406.3024,-76.729 417.2879,-93.3126"/>
<polygon fill="#000000" stroke="#000000" points="414.6188,-95.6376 422.941,-102.1944 420.5242,-91.8789 414.6188,-95.6376"/>
</g>
<!-- 140178132615912 -->
<g id="node20" class="node">
<title>140178132615912</title>
<ellipse fill="#00ff00" stroke="#000000" cx="82" cy="-180" rx="27" ry="27"/>
<text text-anchor="middle" x="82" y="-176.3" font-family="Times,serif" font-size="14.00" fill="#000000">1</text>
</g>
<!-- 140178132615912&#45;&gt;140178132618208 -->
<g id="edge8" class="edge">
<title>140178132615912&#45;&gt;140178132618208</title>
<path fill="none" stroke="#000000" d="M108.4678,-185.8038C126.3176,-190.9725 149.2225,-200.2307 164,-216 196.0141,-250.1629 166.138,-282.6679 200,-315 207.5878,-322.245 217.0923,-327.5476 226.9999,-331.4282"/>
<polygon fill="#000000" stroke="#000000" points="225.9783,-334.7781 236.573,-334.7299 228.2607,-328.1606 225.9783,-334.7781"/>
</g>
<!-- 140178132615912&#45;&gt;140178132618600 -->
<g id="edge9" class="edge">
<title>140178132615912&#45;&gt;140178132618600</title>
<path fill="none" stroke="#000000" d="M108.1065,-187.8255C125.1351,-193.7663 147.2295,-203.1216 164,-216 184.3139,-231.5995 178.8511,-246.5528 200,-261 208.2813,-266.6571 217.8022,-271.1711 227.4318,-274.7604"/>
<polygon fill="#000000" stroke="#000000" points="226.4612,-278.1274 237.0558,-278.0496 228.7251,-271.5035 226.4612,-278.1274"/>
</g>
<!-- 140178132615912&#45;&gt;140178132616864 -->
<g id="edge10" class="edge">
<title>140178132615912&#45;&gt;140178132616864</title>
<path fill="none" stroke="#000000" d="M108.3161,-186.949C133.559,-193.6146 172.9469,-204.0153 208.2777,-213.3447"/>
<polygon fill="#000000" stroke="#000000" points="207.5579,-216.7746 218.1201,-215.9437 209.3451,-210.0065 207.5579,-216.7746"/>
</g>
<!-- 140178132615912&#45;&gt;140178132617872 -->
<g id="edge11" class="edge">
<title>140178132615912&#45;&gt;140178132617872</title>
<path fill="none" stroke="#000000" d="M109.156,-180C129.9546,-180 159.9916,-180 189.4514,-180"/>
<polygon fill="#000000" stroke="#000000" points="189.8315,-183.5001 199.8315,-180 189.8315,-176.5001 189.8315,-183.5001"/>
</g>
<!-- 140178132615912&#45;&gt;140178132617032 -->
<g id="edge12" class="edge">
<title>140178132615912&#45;&gt;140178132617032</title>
<path fill="none" stroke="#000000" d="M108.3161,-173.051C136.7367,-165.5463 183.0877,-153.3069 221.3914,-143.1925"/>
<polygon fill="#000000" stroke="#000000" points="222.6737,-146.4739 231.4487,-140.5368 220.8865,-139.7059 222.6737,-146.4739"/>
</g>
<!-- 140178132615912&#45;&gt;140178132619216 -->
<g id="edge13" class="edge">
<title>140178132615912&#45;&gt;140178132619216</title>
<path fill="none" stroke="#000000" d="M102.9789,-162.7021C125.6899,-144.6929 163.5659,-116.6924 200,-99 211.5015,-93.4149 224.4185,-88.6547 236.693,-84.7585"/>
<polygon fill="#000000" stroke="#000000" points="237.8101,-88.0772 246.3598,-81.8199 235.7741,-81.3798 237.8101,-88.0772"/>
</g>
<!-- 140178132615912&#45;&gt;140178132618656 -->
<g id="edge14" class="edge">
<title>140178132615912&#45;&gt;140178132618656</title>
<path fill="none" stroke="#000000" d="M96.2568,-156.9392C115.9768,-126.9059 154.3597,-74.7408 200,-45 202.4096,-43.4298 204.9161,-41.9463 207.4935,-40.5449"/>
<polygon fill="#000000" stroke="#000000" points="209.0822,-43.6639 216.4914,-36.0906 205.9766,-37.3904 209.0822,-43.6639"/>
</g>
<!-- 140178132617984&#45;&gt;140178132615464 -->
<g id="edge1" class="edge">
<title>140178132617984&#45;&gt;140178132615464</title>
<path fill="none" stroke="#000000" d="M463.003,-126C471.0277,-126 479.9665,-126 488.5309,-126"/>
<polygon fill="#000000" stroke="#000000" points="488.7051,-129.5001 498.705,-126 488.705,-122.5001 488.7051,-129.5001"/>
</g>
</g>
</svg>
