<?xml version="1.0" encoding="UTF-8" standalone="no"?>
<!DOCTYPE svg PUBLIC "-//W3C//DTD SVG 1.1//EN"
 "http://www.w3.org/Graphics/SVG/1.1/DTD/svg11.dtd">
<!-- Generated by graphviz version 2.40.1 (20161225.0304)
 -->
<!-- Title: alpha_plus_net_1586496135.381 Pages: 1 -->
<svg width="803pt" height="1358pt"
 viewBox="0.00 0.00 803.00 1358.00" xmlns="http://www.w3.org/2000/svg" xmlns:xlink="http://www.w3.org/1999/xlink">
<g id="graph0" class="graph" transform="scale(1 1) rotate(0) translate(4 1354)">
<title>alpha_plus_net_1586496135.381</title>
<!-- 139748205783752 -->
<g id="node1" class="node">
<title>139748205783752</title>
<polygon fill="none" stroke="#000000" points="136,-36 37,-36 37,0 136,0 136,-36"/>
<text text-anchor="middle" x="86.5" y="-14.3" font-family="Times,serif" font-size="14.00" fill="#000000">ActionDecoder</text>
</g>
<!-- 139748205783416 -->
<g id="node2" class="node">
<title>139748205783416</title>
<polygon fill="none" stroke="#000000" points="137,-90 36,-90 36,-54 137,-54 137,-90"/>
<text text-anchor="middle" x="86.5" y="-68.3" font-family="Times,serif" font-size="14.00" fill="#000000">ActionMessage</text>
</g>
<!-- 139748205783472 -->
<g id="node3" class="node">
<title>139748205783472</title>
<polygon fill="none" stroke="#000000" points="522.5,-280 429.5,-280 429.5,-244 522.5,-244 522.5,-280"/>
<text text-anchor="middle" x="476" y="-258.3" font-family="Times,serif" font-size="14.00" fill="#000000">FinancialUtils</text>
</g>
<!-- 139748205784872 -->
<g id="node22" class="node">
<title>139748205784872</title>
<ellipse fill="none" stroke="#000000" cx="588" cy="-201" rx="27" ry="27"/>
<text text-anchor="middle" x="588" y="-197.3" font-family="Times,serif" font-size="14.00" fill="#000000">({&#39;JSFLoginFilter&#39;, &#39;FinancialUtils&#39;, &#39;PingServlet&#39;}, {&#39;Root&#39;})</text>
</g>
<!-- 139748205783472&#45;&gt;139748205784872 -->
<g id="edge22" class="edge">
<title>139748205783472&#45;&gt;139748205784872</title>
<path fill="none" stroke="#000000" d="M509.3005,-243.8631C523.7937,-235.9695 540.7287,-226.746 555.1686,-218.8814"/>
<polygon fill="#000000" stroke="#000000" points="557.1387,-221.7939 564.2466,-213.9371 553.7906,-215.6465 557.1387,-221.7939"/>
</g>
<!-- 139748205783640 -->
<g id="node4" class="node">
<title>139748205783640</title>
<polygon fill="none" stroke="#000000" points="525,-226 427,-226 427,-190 525,-190 525,-226"/>
<text text-anchor="middle" x="476" y="-204.3" font-family="Times,serif" font-size="14.00" fill="#000000">JSFLoginFilter</text>
</g>
<!-- 139748205783640&#45;&gt;139748205784872 -->
<g id="edge23" class="edge">
<title>139748205783640&#45;&gt;139748205784872</title>
<path fill="none" stroke="#000000" d="M525.1248,-204.9297C533.7207,-204.3925 542.5361,-203.8415 550.7441,-203.3285"/>
<polygon fill="#000000" stroke="#000000" points="550.9917,-206.8199 560.7539,-202.7029 550.555,-199.8336 550.9917,-206.8199"/>
</g>
<!-- 139748195414088 -->
<g id="node5" class="node">
<title>139748195414088</title>
<polygon fill="none" stroke="#000000" points="113.5,-234 59.5,-234 59.5,-198 113.5,-198 113.5,-234"/>
<text text-anchor="middle" x="86.5" y="-212.3" font-family="Times,serif" font-size="14.00" fill="#000000">Log</text>
</g>
<!-- 139748195414144 -->
<g id="node6" class="node">
<title>139748195414144</title>
<polygon fill="none" stroke="#000000" points="168.5,-306 4.5,-306 4.5,-270 168.5,-270 168.5,-306"/>
<text text-anchor="middle" x="86.5" y="-284.3" font-family="Times,serif" font-size="14.00" fill="#000000">MarketSummaryDataBean</text>
</g>
<!-- 139748195415824 -->
<g id="node26" class="node">
<title>139748195415824</title>
<ellipse fill="none" stroke="#000000" cx="255" cy="-414" rx="27" ry="27"/>
<text text-anchor="middle" x="255" y="-410.3" font-family="Times,serif" font-size="14.00" fill="#000000">139748195415824</text>
</g>
<!-- 139748195414144&#45;&gt;139748195415824 -->
<g id="edge24" class="edge">
<title>139748195414144&#45;&gt;139748195415824</title>
<path fill="none" stroke="#000000" d="M168.8216,-303.8543C170.2538,-304.8614 171.6487,-305.9097 173,-307 197.7987,-327.0084 188.0756,-344.9692 209,-369 214.7437,-375.5964 221.8387,-381.8344 228.7224,-387.5509"/>
<polygon fill="#000000" stroke="#000000" points="226.6582,-390.3844 236.6126,-394.0122 231.0933,-384.9686 226.6582,-390.3844"/>
</g>
<!-- 139748195415432 -->
<g id="node30" class="node">
<title>139748195415432</title>
<ellipse fill="none" stroke="#000000" cx="255" cy="-342" rx="27" ry="27"/>
<text text-anchor="middle" x="255" y="-338.3" font-family="Times,serif" font-size="14.00" fill="#000000">139748195415432</text>
</g>
<!-- 139748195414144&#45;&gt;139748195415432 -->
<g id="edge25" class="edge">
<title>139748195414144&#45;&gt;139748195415432</title>
<path fill="none" stroke="#000000" d="M163.8458,-306.0576C183.9065,-312.369 204.4928,-319.3621 221.0142,-325.5659"/>
<polygon fill="#000000" stroke="#000000" points="220.1451,-328.9819 230.7347,-329.3135 222.6632,-322.4505 220.1451,-328.9819"/>
</g>
<!-- 139748195415600 -->
<g id="node34" class="node">
<title>139748195415600</title>
<ellipse fill="none" stroke="#000000" cx="255" cy="-270" rx="27" ry="27"/>
<text text-anchor="middle" x="255" y="-266.3" font-family="Times,serif" font-size="14.00" fill="#000000">139748195415600</text>
</g>
<!-- 139748195414144&#45;&gt;139748195415600 -->
<g id="edge26" class="edge">
<title>139748195414144&#45;&gt;139748195415600</title>
<path fill="none" stroke="#000000" d="M168.7756,-272.4626C185.9849,-270.5954 203.3042,-269.0923 217.859,-268.2601"/>
<polygon fill="#000000" stroke="#000000" points="218.1068,-271.7524 227.9276,-267.7772 217.7713,-264.7604 218.1068,-271.7524"/>
</g>
<!-- 139748195415320 -->
<g id="node38" class="node">
<title>139748195415320</title>
<ellipse fill="none" stroke="#000000" cx="255" cy="-198" rx="27" ry="27"/>
<text text-anchor="middle" x="255" y="-194.3" font-family="Times,serif" font-size="14.00" fill="#000000">139748195415320</text>
</g>
<!-- 139748195414144&#45;&gt;139748195415320 -->
<g id="edge27" class="edge">
<title>139748195414144&#45;&gt;139748195415320</title>
<path fill="none" stroke="#000000" d="M107.5433,-269.9926C125.1016,-259.1821 150.7547,-245.8883 173,-234 188.273,-225.8378 205.0508,-216.667 219.4294,-209.395"/>
<polygon fill="#000000" stroke="#000000" points="221.075,-212.4859 228.4918,-204.92 217.9757,-206.2094 221.075,-212.4859"/>
</g>
<!-- 139748195414200 -->
<g id="node7" class="node">
<title>139748195414200</title>
<polygon fill="none" stroke="#000000" points="167.5,-361 5.5,-361 5.5,-325 167.5,-325 167.5,-361"/>
<text text-anchor="middle" x="86.5" y="-339.3" font-family="Times,serif" font-size="14.00" fill="#000000">MarketSummarySingleton</text>
</g>
<!-- 139748195414536 -->
<g id="node8" class="node">
<title>139748195414536</title>
<polygon fill="none" stroke="#000000" points="173,-416 0,-416 0,-380 173,-380 173,-416"/>
<text text-anchor="middle" x="86.5" y="-394.3" font-family="Times,serif" font-size="14.00" fill="#000000">MarketSummaryWebSocket</text>
</g>
<!-- 139748205783360 -->
<g id="node9" class="node">
<title>139748205783360</title>
<polygon fill="none" stroke="#000000" points="141.5,-472 31.5,-472 31.5,-436 141.5,-436 141.5,-472"/>
<text text-anchor="middle" x="86.5" y="-450.3" font-family="Times,serif" font-size="14.00" fill="#000000">OrdersAlertFilter</text>
</g>
<!-- 139748205783584 -->
<g id="node10" class="node">
<title>139748205783584</title>
<polygon fill="none" stroke="#000000" points="516,-172 436,-172 436,-136 516,-136 516,-172"/>
<text text-anchor="middle" x="476" y="-150.3" font-family="Times,serif" font-size="14.00" fill="#000000">PingServlet</text>
</g>
<!-- 139748205783584&#45;&gt;139748205784872 -->
<g id="edge28" class="edge">
<title>139748205783584&#45;&gt;139748205784872</title>
<path fill="none" stroke="#000000" d="M516.1182,-170.8353C528.2795,-175.9387 541.5302,-181.4993 553.3043,-186.4402"/>
<polygon fill="#000000" stroke="#000000" points="552.2155,-189.7789 562.7909,-190.4212 554.9242,-183.3242 552.2155,-189.7789"/>
</g>
<!-- 139748195414368 -->
<g id="node11" class="node">
<title>139748195414368</title>
<polygon fill="none" stroke="#000000" points="138,-530 35,-530 35,-494 138,-494 138,-530"/>
<text text-anchor="middle" x="86.5" y="-508.3" font-family="Times,serif" font-size="14.00" fill="#000000">QuoteDataBean</text>
</g>
<!-- 139748205783528 -->
<g id="node12" class="node">
<title>139748205783528</title>
<polygon fill="none" stroke="#000000" points="160,-593 13,-593 13,-557 160,-557 160,-593"/>
<text text-anchor="middle" x="86.5" y="-571.3" font-family="Times,serif" font-size="14.00" fill="#000000">RecentStockChangeList</text>
</g>
<!-- 139748205783696 -->
<g id="node13" class="node">
<title>139748205783696</title>
<polygon fill="none" stroke="#000000" points="705,-176 651,-176 651,-140 705,-140 705,-176"/>
<text text-anchor="middle" x="678" y="-154.3" font-family="Times,serif" font-size="14.00" fill="#000000">Root</text>
</g>
<!-- 139748205784032 -->
<g id="node25" class="node">
<title>139748205784032</title>
<ellipse fill="#ffa500" stroke="#000000" cx="768" cy="-158" rx="27" ry="27"/>
</g>
<!-- 139748205783696&#45;&gt;139748205784032 -->
<g id="edge29" class="edge">
<title>139748205783696&#45;&gt;139748205784032</title>
<path fill="none" stroke="#000000" d="M705.003,-158C713.0277,-158 721.9665,-158 730.5309,-158"/>
<polygon fill="#000000" stroke="#000000" points="730.7051,-161.5001 740.705,-158 730.705,-154.5001 730.7051,-161.5001"/>
</g>
<!-- 139748195414424 -->
<g id="node14" class="node">
<title>139748195414424</title>
<polygon fill="none" stroke="#000000" points="129,-648 44,-648 44,-612 129,-612 129,-648"/>
<text text-anchor="middle" x="86.5" y="-626.3" font-family="Times,serif" font-size="14.00" fill="#000000">TradeAction</text>
</g>
<!-- 139748195415152 -->
<g id="node27" class="node">
<title>139748195415152</title>
<ellipse fill="none" stroke="#000000" cx="255" cy="-702" rx="27" ry="27"/>
<text text-anchor="middle" x="255" y="-698.3" font-family="Times,serif" font-size="14.00" fill="#000000">139748195415152</text>
</g>
<!-- 139748195414424&#45;&gt;139748195415152 -->
<g id="edge30" class="edge">
<title>139748195414424&#45;&gt;139748195415152</title>
<path fill="none" stroke="#000000" d="M129.0197,-642.2162C158.1946,-653.4678 196.3016,-669.9239 222.9331,-682.8644"/>
<polygon fill="#000000" stroke="#000000" points="221.6742,-686.1468 232.1877,-687.4567 224.7857,-679.8764 221.6742,-686.1468"/>
</g>
<!-- 139748195414760 -->
<g id="node31" class="node">
<title>139748195414760</title>
<ellipse fill="none" stroke="#000000" cx="255" cy="-630" rx="27" ry="27"/>
<text text-anchor="middle" x="255" y="-626.3" font-family="Times,serif" font-size="14.00" fill="#000000">139748195414760</text>
</g>
<!-- 139748195414424&#45;&gt;139748195414760 -->
<g id="edge31" class="edge">
<title>139748195414424&#45;&gt;139748195414760</title>
<path fill="none" stroke="#000000" d="M129.0197,-624.0476C156.4397,-622.9058 191.7496,-622.9899 218.0073,-624.2999"/>
<polygon fill="#000000" stroke="#000000" points="218.1107,-627.8122 228.3007,-624.9112 218.5258,-620.8245 218.1107,-627.8122"/>
</g>
<!-- 139748195414928 -->
<g id="node35" class="node">
<title>139748195414928</title>
<ellipse fill="none" stroke="#000000" cx="255" cy="-558" rx="27" ry="27"/>
<text text-anchor="middle" x="255" y="-554.3" font-family="Times,serif" font-size="14.00" fill="#000000">139748195414928</text>
</g>
<!-- 139748195414424&#45;&gt;139748195414928 -->
<g id="edge32" class="edge">
<title>139748195414424&#45;&gt;139748195414928</title>
<path fill="none" stroke="#000000" d="M121.9574,-611.8688C137.8142,-606.2662 156.5908,-599.9914 173,-593 188.8503,-586.2468 205.7244,-577.4847 220.0189,-570.2099"/>
<polygon fill="#000000" stroke="#000000" points="221.6497,-573.3074 229.0032,-565.6801 218.4982,-567.0569 221.6497,-573.3074"/>
</g>
<!-- 139748195414648 -->
<g id="node39" class="node">
<title>139748195414648</title>
<ellipse fill="none" stroke="#000000" cx="255" cy="-486" rx="27" ry="27"/>
<text text-anchor="middle" x="255" y="-482.3" font-family="Times,serif" font-size="14.00" fill="#000000">139748195414648</text>
</g>
<!-- 139748195414424&#45;&gt;139748195414648 -->
<g id="edge33" class="edge">
<title>139748195414424&#45;&gt;139748195414648</title>
<path fill="none" stroke="#000000" d="M129.2833,-615.1613C144.5225,-610.4995 160.8903,-603.8481 173,-593 202.0412,-566.9845 184.9471,-543.6864 209,-513 212.519,-508.5105 216.7125,-504.2558 221.1141,-500.445"/>
<polygon fill="#000000" stroke="#000000" points="223.4686,-503.0459 229.161,-494.1102 219.1386,-497.5457 223.4686,-503.0459"/>
</g>
<!-- 139748195414256 -->
<g id="node15" class="node">
<title>139748195414256</title>
<polygon fill="none" stroke="#000000" points="141.5,-900 31.5,-900 31.5,-864 141.5,-864 141.5,-900"/>
<text text-anchor="middle" x="86.5" y="-878.3" font-family="Times,serif" font-size="14.00" fill="#000000">TradeAppServlet</text>
</g>
<!-- 139748195417168 -->
<g id="node28" class="node">
<title>139748195417168</title>
<ellipse fill="none" stroke="#000000" cx="255" cy="-990" rx="27" ry="27"/>
<text text-anchor="middle" x="255" y="-986.3" font-family="Times,serif" font-size="14.00" fill="#000000">139748195417168</text>
</g>
<!-- 139748195414256&#45;&gt;139748195417168 -->
<g id="edge34" class="edge">
<title>139748195414256&#45;&gt;139748195417168</title>
<path fill="none" stroke="#000000" d="M123.478,-900.0017C154.3816,-918.2668 197.8316,-946.2721 226.1976,-966.3078"/>
<polygon fill="#000000" stroke="#000000" points="224.3196,-969.2679 234.486,-972.2503 228.3984,-963.579 224.3196,-969.2679"/>
</g>
<!-- 139748195416776 -->
<g id="node32" class="node">
<title>139748195416776</title>
<ellipse fill="none" stroke="#000000" cx="255" cy="-918" rx="27" ry="27"/>
<text text-anchor="middle" x="255" y="-914.3" font-family="Times,serif" font-size="14.00" fill="#000000">139748195416776</text>
</g>
<!-- 139748195414256&#45;&gt;139748195416776 -->
<g id="edge35" class="edge">
<title>139748195414256&#45;&gt;139748195416776</title>
<path fill="none" stroke="#000000" d="M141.6732,-887.4085C167.4753,-892.2376 197.4246,-898.8978 220.0529,-904.939"/>
<polygon fill="#000000" stroke="#000000" points="219.322,-908.3683 229.8933,-907.6624 221.1891,-901.6218 219.322,-908.3683"/>
</g>
<!-- 139748195416944 -->
<g id="node36" class="node">
<title>139748195416944</title>
<ellipse fill="none" stroke="#000000" cx="255" cy="-846" rx="27" ry="27"/>
<text text-anchor="middle" x="255" y="-842.3" font-family="Times,serif" font-size="14.00" fill="#000000">139748195416944</text>
</g>
<!-- 139748195414256&#45;&gt;139748195416944 -->
<g id="edge36" class="edge">
<title>139748195414256&#45;&gt;139748195416944</title>
<path fill="none" stroke="#000000" d="M141.2071,-863.9451C166.2603,-857.9164 195.3041,-851.9296 217.7786,-848.2409"/>
<polygon fill="#000000" stroke="#000000" points="218.5738,-851.6596 227.9203,-846.6703 217.5024,-844.7421 218.5738,-851.6596"/>
</g>
<!-- 139748195416664 -->
<g id="node40" class="node">
<title>139748195416664</title>
<ellipse fill="none" stroke="#000000" cx="255" cy="-774" rx="27" ry="27"/>
<text text-anchor="middle" x="255" y="-770.3" font-family="Times,serif" font-size="14.00" fill="#000000">139748195416664</text>
</g>
<!-- 139748195414256&#45;&gt;139748195416664 -->
<g id="edge37" class="edge">
<title>139748195414256&#45;&gt;139748195416664</title>
<path fill="none" stroke="#000000" d="M107.4999,-863.8963C135.9658,-843.1821 187.1337,-810.0878 221.0844,-790.1996"/>
<polygon fill="#000000" stroke="#000000" points="223.2551,-792.9882 230.1705,-784.9616 219.7589,-786.9238 223.2551,-792.9882"/>
</g>
<!-- 139748195414312 -->
<g id="node16" class="node">
<title>139748195414312</title>
<polygon fill="none" stroke="#000000" points="129.5,-1188 43.5,-1188 43.5,-1152 129.5,-1152 129.5,-1188"/>
<text text-anchor="middle" x="86.5" y="-1166.3" font-family="Times,serif" font-size="14.00" fill="#000000">TradeConfig</text>
</g>
<!-- 139748195416496 -->
<g id="node29" class="node">
<title>139748195416496</title>
<ellipse fill="none" stroke="#000000" cx="255" cy="-1278" rx="27" ry="27"/>
<text text-anchor="middle" x="255" y="-1274.3" font-family="Times,serif" font-size="14.00" fill="#000000">139748195416496</text>
</g>
<!-- 139748195414312&#45;&gt;139748195416496 -->
<g id="edge38" class="edge">
<title>139748195414312&#45;&gt;139748195416496</title>
<path fill="none" stroke="#000000" d="M129.6858,-1169.6172C144.2897,-1173.1866 160.1396,-1179.2148 173,-1188 194.1489,-1202.4472 190.7926,-1214.9863 209,-1233 215.2178,-1239.1516 222.4674,-1245.2445 229.3477,-1250.9642"/>
<polygon fill="#000000" stroke="#000000" points="227.2494,-1253.7717 237.171,-1257.4882 231.7326,-1248.3957 227.2494,-1253.7717"/>
</g>
<!-- 139748195416104 -->
<g id="node33" class="node">
<title>139748195416104</title>
<ellipse fill="none" stroke="#000000" cx="255" cy="-1206" rx="27" ry="27"/>
<text text-anchor="middle" x="255" y="-1202.3" font-family="Times,serif" font-size="14.00" fill="#000000">139748195416104</text>
</g>
<!-- 139748195414312&#45;&gt;139748195416104 -->
<g id="edge39" class="edge">
<title>139748195414312&#45;&gt;139748195416104</title>
<path fill="none" stroke="#000000" d="M129.8929,-1173.2827C157.784,-1178.1133 193.5574,-1185.8813 219.7015,-1192.8453"/>
<polygon fill="#000000" stroke="#000000" points="218.992,-1196.2803 229.5629,-1195.5673 220.8546,-1189.5326 218.992,-1196.2803"/>
</g>
<!-- 139748195416272 -->
<g id="node37" class="node">
<title>139748195416272</title>
<ellipse fill="none" stroke="#000000" cx="255" cy="-1134" rx="27" ry="27"/>
<text text-anchor="middle" x="255" y="-1130.3" font-family="Times,serif" font-size="14.00" fill="#000000">139748195416272</text>
</g>
<!-- 139748195414312&#45;&gt;139748195416272 -->
<g id="edge40" class="edge">
<title>139748195414312&#45;&gt;139748195416272</title>
<path fill="none" stroke="#000000" d="M129.8929,-1154.7409C157.0606,-1147.8375 191.7072,-1140.5254 217.6483,-1136.2623"/>
<polygon fill="#000000" stroke="#000000" points="218.4871,-1139.6742 227.8325,-1134.6829 217.4142,-1132.7569 218.4871,-1139.6742"/>
</g>
<!-- 139748195415992 -->
<g id="node41" class="node">
<title>139748195415992</title>
<ellipse fill="none" stroke="#000000" cx="255" cy="-1062" rx="27" ry="27"/>
<text text-anchor="middle" x="255" y="-1058.3" font-family="Times,serif" font-size="14.00" fill="#000000">139748195415992</text>
</g>
<!-- 139748195414312&#45;&gt;139748195415992 -->
<g id="edge41" class="edge">
<title>139748195414312&#45;&gt;139748195415992</title>
<path fill="none" stroke="#000000" d="M107.4999,-1151.8963C135.9658,-1131.1821 187.1337,-1098.0878 221.0844,-1078.1996"/>
<polygon fill="#000000" stroke="#000000" points="223.2551,-1080.9882 230.1705,-1072.9616 219.7589,-1074.9238 223.2551,-1080.9882"/>
</g>
<!-- 139748205783920 -->
<g id="node17" class="node">
<title>139748205783920</title>
<polygon fill="none" stroke="#000000" points="140.5,-1242 32.5,-1242 32.5,-1206 140.5,-1206 140.5,-1242"/>
<text text-anchor="middle" x="86.5" y="-1220.3" font-family="Times,serif" font-size="14.00" fill="#000000">TradeSLSBBean</text>
</g>
<!-- 139748195414480 -->
<g id="node18" class="node">
<title>139748195414480</title>
<polygon fill="none" stroke="#000000" points="148,-1296 25,-1296 25,-1260 148,-1260 148,-1296"/>
<text text-anchor="middle" x="86.5" y="-1274.3" font-family="Times,serif" font-size="14.00" fill="#000000">TradeServletAction</text>
</g>
<!-- 139748205783304 -->
<g id="node19" class="node">
<title>139748205783304</title>
<polygon fill="none" stroke="#000000" points="167,-1350 6,-1350 6,-1314 167,-1314 167,-1350"/>
<text text-anchor="middle" x="86.5" y="-1328.3" font-family="Times,serif" font-size="14.00" fill="#000000">TradeWebContextListener</text>
</g>
<!-- 139748205783864 -->
<g id="node20" class="node">
<title>139748205783864</title>
<polygon fill="none" stroke="#000000" points="301,-153 209,-153 209,-117 301,-117 301,-153"/>
<text text-anchor="middle" x="255" y="-131.3" font-family="Times,serif" font-size="14.00" fill="#000000">artificial_start</text>
</g>
<!-- 139748205784536 -->
<g id="node23" class="node">
<title>139748205784536</title>
<ellipse fill="none" stroke="#000000" cx="364" cy="-185" rx="27" ry="27"/>
<text text-anchor="middle" x="364" y="-181.3" font-family="Times,serif" font-size="14.00" fill="#000000">({&#39;artificial_start&#39;}, {&#39;JSFLoginFilter&#39;, &#39;FinancialUtils&#39;, &#39;PingServlet&#39;})</text>
</g>
<!-- 139748205783864&#45;&gt;139748205784536 -->
<g id="edge42" class="edge">
<title>139748205783864&#45;&gt;139748205784536</title>
<path fill="none" stroke="#000000" d="M294.3515,-153.0511C306.0711,-158.4271 318.8059,-164.2687 330.1424,-169.469"/>
<polygon fill="#000000" stroke="#000000" points="328.7346,-172.6738 339.2832,-173.662 331.6532,-166.3113 328.7346,-172.6738"/>
</g>
<!-- 139748205784256 -->
<g id="node24" class="node">
<title>139748205784256</title>
<ellipse fill="none" stroke="#000000" cx="588" cy="-122" rx="27" ry="27"/>
<text text-anchor="middle" x="588" y="-118.3" font-family="Times,serif" font-size="14.00" fill="#000000">({&#39;artificial_start&#39;}, {&#39;Root&#39;})</text>
</g>
<!-- 139748205783864&#45;&gt;139748205784256 -->
<g id="edge43" class="edge">
<title>139748205783864&#45;&gt;139748205784256</title>
<path fill="none" stroke="#000000" d="M301.3479,-132.6502C335.9619,-130.9426 384.4339,-128.6508 427,-127 469.4872,-125.3523 518.2983,-123.8981 550.9342,-122.9887"/>
<polygon fill="#000000" stroke="#000000" points="551.0336,-126.4874 560.9334,-122.7131 550.8407,-119.4901 551.0336,-126.4874"/>
</g>
<!-- 139748205783192 -->
<g id="node21" class="node">
<title>139748205783192</title>
<ellipse fill="#00ff00" stroke="#000000" cx="86.5" cy="-135" rx="27" ry="27"/>
<text text-anchor="middle" x="86.5" y="-131.3" font-family="Times,serif" font-size="14.00" fill="#000000">1</text>
</g>
<!-- 139748205783192&#45;&gt;139748205783864 -->
<g id="edge44" class="edge">
<title>139748205783192&#45;&gt;139748205783864</title>
<path fill="none" stroke="#000000" d="M113.5724,-135C136.4402,-135 169.9491,-135 198.6104,-135"/>
<polygon fill="#000000" stroke="#000000" points="198.9219,-138.5001 208.9218,-135 198.9218,-131.5001 198.9219,-138.5001"/>
</g>
<!-- 139748205784872&#45;&gt;139748205783696 -->
<g id="edge2" class="edge">
<title>139748205784872&#45;&gt;139748205783696</title>
<path fill="none" stroke="#000000" d="M612.5929,-189.2501C621.5854,-184.9536 631.9573,-179.9982 641.7535,-175.3178"/>
<polygon fill="#000000" stroke="#000000" points="643.3913,-178.4143 650.9055,-170.9451 640.3736,-172.0981 643.3913,-178.4143"/>
</g>
<!-- 139748205784536&#45;&gt;139748205783472 -->
<g id="edge10" class="edge">
<title>139748205784536&#45;&gt;139748205783472</title>
<path fill="none" stroke="#000000" d="M384.6233,-202.8081C396.617,-212.7921 412.2372,-225.1743 427,-235 428.8724,-236.2462 430.8069,-237.4878 432.7771,-238.7156"/>
<polygon fill="#000000" stroke="#000000" points="431.1841,-241.8413 441.5608,-243.9803 434.7829,-235.8372 431.1841,-241.8413"/>
</g>
<!-- 139748205784536&#45;&gt;139748205783640 -->
<g id="edge11" class="edge">
<title>139748205784536&#45;&gt;139748205783640</title>
<path fill="none" stroke="#000000" d="M390.5424,-190.4507C398.5232,-192.0896 407.6199,-193.9577 416.8313,-195.8493"/>
<polygon fill="#000000" stroke="#000000" points="416.3246,-199.3182 426.8242,-197.9014 417.7327,-192.4613 416.3246,-199.3182"/>
</g>
<!-- 139748205784536&#45;&gt;139748205783584 -->
<g id="edge13" class="edge">
<title>139748205784536&#45;&gt;139748205783584</title>
<path fill="none" stroke="#000000" d="M390.259,-177.7319C400.9727,-174.7665 413.7324,-171.2348 426.0915,-167.814"/>
<polygon fill="#000000" stroke="#000000" points="427.1667,-171.148 435.8707,-165.1072 425.2993,-164.4017 427.1667,-171.148"/>
</g>
<!-- 139748205784256&#45;&gt;139748205783696 -->
<g id="edge18" class="edge">
<title>139748205784256&#45;&gt;139748205783696</title>
<path fill="none" stroke="#000000" d="M613.07,-132.028C621.8861,-135.5544 631.9811,-139.5924 641.542,-143.4168"/>
<polygon fill="#000000" stroke="#000000" points="640.2731,-146.6788 650.8578,-147.1431 642.8729,-140.1795 640.2731,-146.6788"/>
</g>
<!-- 139748195415824&#45;&gt;139748195414144 -->
<g id="edge1" class="edge">
<title>139748195415824&#45;&gt;139748195414144</title>
<path fill="none" stroke="#000000" d="M229.1411,-405.1671C222.1272,-400.0874 214.8603,-393.7303 209,-387 188.0756,-362.9692 197.7987,-345.0084 173,-325 164.9939,-318.5404 155.4581,-313.5551 145.6903,-309.5636"/>
<polygon fill="#000000" stroke="#000000" points="146.8885,-306.2749 136.2966,-306.0254 144.4212,-312.8256 146.8885,-306.2749"/>
</g>
<!-- 139748195415152&#45;&gt;139748195414424 -->
<g id="edge3" class="edge">
<title>139748195415152&#45;&gt;139748195414424</title>
<path fill="none" stroke="#000000" d="M228.4633,-695.7382C200.9326,-685.9206 157.5713,-667.6402 126.0099,-652.7032"/>
<polygon fill="#000000" stroke="#000000" points="127.1532,-649.3693 116.6244,-648.188 124.1185,-655.6773 127.1532,-649.3693"/>
</g>
<!-- 139748195417168&#45;&gt;139748195414256 -->
<g id="edge4" class="edge">
<title>139748195417168&#45;&gt;139748195414256</title>
<path fill="none" stroke="#000000" d="M230.1705,-979.0384C199.6803,-961.7862 148.0403,-928.7886 115.6835,-905.9613"/>
<polygon fill="#000000" stroke="#000000" points="117.6687,-903.0781 107.4999,-900.1037 113.5945,-908.7702 117.6687,-903.0781"/>
</g>
<!-- 139748195416496&#45;&gt;139748195414312 -->
<g id="edge5" class="edge">
<title>139748195416496&#45;&gt;139748195414312</title>
<path fill="none" stroke="#000000" d="M229.2879,-1268.232C222.4254,-1263.2092 215.1998,-1257.1338 209,-1251 190.7926,-1232.9863 194.1489,-1220.4472 173,-1206 162.9528,-1199.1366 151.081,-1193.9559 139.4042,-1189.8193"/>
<polygon fill="#000000" stroke="#000000" points="140.2796,-1186.4218 129.6858,-1186.5762 138.0637,-1193.0618 140.2796,-1186.4218"/>
</g>
<!-- 139748195415432&#45;&gt;139748195414144 -->
<g id="edge6" class="edge">
<title>139748195415432&#45;&gt;139748195414144</title>
<path fill="none" stroke="#000000" d="M228.1916,-338.505C203.0003,-332.1959 164.7293,-320.2836 134.3094,-309.4759"/>
<polygon fill="#000000" stroke="#000000" points="135.3295,-306.1231 124.7353,-306.0143 132.9493,-312.706 135.3295,-306.1231"/>
</g>
<!-- 139748195414760&#45;&gt;139748195414424 -->
<g id="edge7" class="edge">
<title>139748195414760&#45;&gt;139748195414424</title>
<path fill="none" stroke="#000000" d="M228.3007,-635.0888C204.4422,-636.7659 168.7889,-637.1731 139.2025,-636.3105"/>
<polygon fill="#000000" stroke="#000000" points="139.1365,-632.8061 129.0197,-635.9524 138.8904,-639.8018 139.1365,-632.8061"/>
</g>
<!-- 139748195416776&#45;&gt;139748195414256 -->
<g id="edge8" class="edge">
<title>139748195416776&#45;&gt;139748195414256</title>
<path fill="none" stroke="#000000" d="M227.9203,-917.3297C207.2449,-914.3467 177.8743,-908.5621 151.252,-902.4209"/>
<polygon fill="#000000" stroke="#000000" points="151.7432,-898.9409 141.2071,-900.0549 150.1383,-905.7545 151.7432,-898.9409"/>
</g>
<!-- 139748195416104&#45;&gt;139748195414312 -->
<g id="edge9" class="edge">
<title>139748195416104&#45;&gt;139748195414312</title>
<path fill="none" stroke="#000000" d="M227.8325,-1205.3171C204.1844,-1201.9001 169.2088,-1194.8313 139.9684,-1187.756"/>
<polygon fill="#000000" stroke="#000000" points="140.4412,-1184.2674 129.8929,-1185.2591 138.7574,-1191.0619 140.4412,-1184.2674"/>
</g>
<!-- 139748195415600&#45;&gt;139748195414144 -->
<g id="edge12" class="edge">
<title>139748195415600&#45;&gt;139748195414144</title>
<path fill="none" stroke="#000000" d="M229.0584,-277.806C215.2163,-280.284 197.2531,-282.7656 178.7703,-284.866"/>
<polygon fill="#000000" stroke="#000000" points="178.3356,-281.3925 168.7756,-285.9593 179.0969,-288.351 178.3356,-281.3925"/>
</g>
<!-- 139748195414928&#45;&gt;139748195414424 -->
<g id="edge14" class="edge">
<title>139748195414928&#45;&gt;139748195414424</title>
<path fill="none" stroke="#000000" d="M235.606,-576.9148C219.2912,-588.2069 195.1463,-601.5643 173,-611 162.2178,-615.5939 150.4136,-619.8784 139.0871,-623.4269"/>
<polygon fill="#000000" stroke="#000000" points="137.8782,-620.135 129.2942,-626.3452 139.8774,-626.8435 137.8782,-620.135"/>
</g>
<!-- 139748195416944&#45;&gt;139748195414256 -->
<g id="edge15" class="edge">
<title>139748195416944&#45;&gt;139748195414256</title>
<path fill="none" stroke="#000000" d="M229.8933,-856.3376C209.2328,-862.2884 178.9976,-869.2878 151.6111,-874.6818"/>
<polygon fill="#000000" stroke="#000000" points="150.833,-871.2672 141.6732,-876.5915 152.154,-878.1414 150.833,-871.2672"/>
</g>
<!-- 139748195416272&#45;&gt;139748195414312 -->
<g id="edge16" class="edge">
<title>139748195416272&#45;&gt;139748195414312</title>
<path fill="none" stroke="#000000" d="M229.5629,-1144.4327C205.8718,-1151.2356 169.7999,-1159.3856 139.8054,-1164.9392"/>
<polygon fill="#000000" stroke="#000000" points="139.1178,-1161.5066 129.8929,-1166.7173 140.3538,-1168.3966 139.1178,-1161.5066"/>
</g>
<!-- 139748195415320&#45;&gt;139748195414144 -->
<g id="edge17" class="edge">
<title>139748195415320&#45;&gt;139748195414144</title>
<path fill="none" stroke="#000000" d="M234.8487,-216.4821C218.2913,-227.4018 194.1965,-240.6721 173,-252 164.8866,-256.336 156.32,-260.8589 147.858,-265.2079"/>
<polygon fill="#000000" stroke="#000000" points="146.0714,-262.1898 138.7434,-269.8417 149.2438,-268.4297 146.0714,-262.1898"/>
</g>
<!-- 139748195414648&#45;&gt;139748195414424 -->
<g id="edge19" class="edge">
<title>139748195414648&#45;&gt;139748195414424</title>
<path fill="none" stroke="#000000" d="M236.2028,-505.6491C227.0839,-512.9136 216.5072,-521.4223 209,-531 184.9471,-561.6864 202.0412,-584.9845 173,-611 163.4447,-619.5598 151.2382,-625.5067 139.0269,-629.349"/>
<polygon fill="#000000" stroke="#000000" points="138.02,-625.9955 129.2833,-631.989 139.8506,-632.7519 138.02,-625.9955"/>
</g>
<!-- 139748195416664&#45;&gt;139748195414256 -->
<g id="edge20" class="edge">
<title>139748195416664&#45;&gt;139748195414256</title>
<path fill="none" stroke="#000000" d="M234.486,-791.7497C209.2139,-810.1823 165.5325,-838.6717 132.1579,-858.8121"/>
<polygon fill="#000000" stroke="#000000" points="130.2672,-855.8645 123.478,-863.9983 133.8577,-861.8736 130.2672,-855.8645"/>
</g>
<!-- 139748195415992&#45;&gt;139748195414312 -->
<g id="edge21" class="edge">
<title>139748195415992&#45;&gt;139748195414312</title>
<path fill="none" stroke="#000000" d="M234.486,-1079.7497C209.2139,-1098.1823 165.5325,-1126.6717 132.1579,-1146.8121"/>
<polygon fill="#000000" stroke="#000000" points="130.2672,-1143.8645 123.478,-1151.9983 133.8577,-1149.8736 130.2672,-1143.8645"/>
</g>
</g>
</svg>
