<?xml version="1.0" encoding="UTF-8" standalone="no"?>
<!DOCTYPE svg PUBLIC "-//W3C//DTD SVG 1.1//EN"
 "http://www.w3.org/Graphics/SVG/1.1/DTD/svg11.dtd">
<!-- Generated by graphviz version 2.40.1 (20161225.0304)
 -->
<!-- Title: alpha_classic_net_1585281872.0847378 Pages: 1 -->
<svg width="651pt" height="647pt"
 viewBox="0.00 0.00 651.00 647.00" xmlns="http://www.w3.org/2000/svg" xmlns:xlink="http://www.w3.org/1999/xlink">
<g id="graph0" class="graph" transform="scale(1 1) rotate(0) translate(4 643)">
<title>alpha_classic_net_1585281872.0847378</title>
<!-- 140543358556368 -->
<g id="node1" class="node">
<title>140543358556368</title>
<polygon fill="none" stroke="#000000" points="336,-252 237,-252 237,-216 336,-216 336,-252"/>
<text text-anchor="middle" x="286.5" y="-230.3" font-family="Times,serif" font-size="14.00" fill="#000000">ActionDecoder</text>
</g>
<!-- 140543358557096 -->
<g id="node17" class="node">
<title>140543358557096</title>
<ellipse fill="none" stroke="#000000" cx="436" cy="-126" rx="27" ry="27"/>
<text text-anchor="middle" x="436" y="-122.3" font-family="Times,serif" font-size="14.00" fill="#000000">({&#39;TradeWebContextListener&#39;, &#39;MarketSummaryWebSocket&#39;, &#39;ActionDecoder&#39;, &#39;JSFLoginFilter&#39;, &#39;OrdersAlertFilter&#39;}, {&#39;Root&#39;})</text>
</g>
<!-- 140543358556368&#45;&gt;140543358557096 -->
<g id="edge2" class="edge">
<title>140543358556368&#45;&gt;140543358557096</title>
<path fill="none" stroke="#000000" d="M336.0137,-224.1506C348.7821,-220.1541 362.0102,-214.6183 373,-207 391.0363,-194.497 406.3024,-175.271 417.2879,-158.6874"/>
<polygon fill="#000000" stroke="#000000" points="420.5242,-160.1211 422.941,-149.8056 414.6188,-156.3624 420.5242,-160.1211"/>
</g>
<!-- 140543358557544 -->
<g id="node2" class="node">
<title>140543358557544</title>
<polygon fill="none" stroke="#000000" points="132.5,-207 31.5,-207 31.5,-171 132.5,-171 132.5,-207"/>
<text text-anchor="middle" x="82" y="-185.3" font-family="Times,serif" font-size="14.00" fill="#000000">ActionMessage</text>
</g>
<!-- 140543358558104 -->
<g id="node3" class="node">
<title>140543358558104</title>
<polygon fill="none" stroke="#000000" points="335.5,-198 237.5,-198 237.5,-162 335.5,-162 335.5,-198"/>
<text text-anchor="middle" x="286.5" y="-176.3" font-family="Times,serif" font-size="14.00" fill="#000000">JSFLoginFilter</text>
</g>
<!-- 140543358558104&#45;&gt;140543358557096 -->
<g id="edge3" class="edge">
<title>140543358558104&#45;&gt;140543358557096</title>
<path fill="none" stroke="#000000" d="M335.7425,-165.5867C347.9969,-161.7379 361.0461,-157.414 373,-153 382.5277,-149.4818 392.7053,-145.3083 402.0402,-141.3076"/>
<polygon fill="#000000" stroke="#000000" points="403.627,-144.4342 411.4007,-137.2356 400.8346,-138.0153 403.627,-144.4342"/>
</g>
<!-- 140543358557600 -->
<g id="node4" class="node">
<title>140543358557600</title>
<polygon fill="none" stroke="#000000" points="109,-261 55,-261 55,-225 109,-225 109,-261"/>
<text text-anchor="middle" x="82" y="-239.3" font-family="Times,serif" font-size="14.00" fill="#000000">Log</text>
</g>
<!-- 140543358558160 -->
<g id="node5" class="node">
<title>140543358558160</title>
<polygon fill="none" stroke="#000000" points="164,-315 0,-315 0,-279 164,-279 164,-315"/>
<text text-anchor="middle" x="82" y="-293.3" font-family="Times,serif" font-size="14.00" fill="#000000">MarketSummaryDataBean</text>
</g>
<!-- 140543358557824 -->
<g id="node6" class="node">
<title>140543358557824</title>
<polygon fill="none" stroke="#000000" points="163,-369 1,-369 1,-333 163,-333 163,-369"/>
<text text-anchor="middle" x="82" y="-347.3" font-family="Times,serif" font-size="14.00" fill="#000000">MarketSummarySingleton</text>
</g>
<!-- 140543358557992 -->
<g id="node7" class="node">
<title>140543358557992</title>
<polygon fill="none" stroke="#000000" points="373,-144 200,-144 200,-108 373,-108 373,-144"/>
<text text-anchor="middle" x="286.5" y="-122.3" font-family="Times,serif" font-size="14.00" fill="#000000">MarketSummaryWebSocket</text>
</g>
<!-- 140543358557992&#45;&gt;140543358557096 -->
<g id="edge4" class="edge">
<title>140543358557992&#45;&gt;140543358557096</title>
<path fill="none" stroke="#000000" d="M373.0318,-126C382.0115,-126 390.7584,-126 398.7366,-126"/>
<polygon fill="#000000" stroke="#000000" points="398.737,-129.5001 408.737,-126 398.7369,-122.5001 398.737,-129.5001"/>
</g>
<!-- 140543358556424 -->
<g id="node8" class="node">
<title>140543358556424</title>
<polygon fill="none" stroke="#000000" points="341.5,-90 231.5,-90 231.5,-54 341.5,-54 341.5,-90"/>
<text text-anchor="middle" x="286.5" y="-68.3" font-family="Times,serif" font-size="14.00" fill="#000000">OrdersAlertFilter</text>
</g>
<!-- 140543358556424&#45;&gt;140543358557096 -->
<g id="edge5" class="edge">
<title>140543358556424&#45;&gt;140543358557096</title>
<path fill="none" stroke="#000000" d="M341.6964,-88.3016C352.1573,-91.6523 362.9646,-95.2944 373,-99 382.5277,-102.5182 392.7053,-106.6917 402.0402,-110.6924"/>
<polygon fill="#000000" stroke="#000000" points="400.8346,-113.9847 411.4007,-114.7644 403.627,-107.5658 400.8346,-113.9847"/>
</g>
<!-- 140543358558048 -->
<g id="node9" class="node">
<title>140543358558048</title>
<polygon fill="none" stroke="#000000" points="133.5,-423 30.5,-423 30.5,-387 133.5,-387 133.5,-423"/>
<text text-anchor="middle" x="82" y="-401.3" font-family="Times,serif" font-size="14.00" fill="#000000">QuoteDataBean</text>
</g>
<!-- 140543358557936 -->
<g id="node10" class="node">
<title>140543358557936</title>
<polygon fill="none" stroke="#000000" points="155.5,-477 8.5,-477 8.5,-441 155.5,-441 155.5,-477"/>
<text text-anchor="middle" x="82" y="-455.3" font-family="Times,serif" font-size="14.00" fill="#000000">RecentStockChangeList</text>
</g>
<!-- 140543358555248 -->
<g id="node11" class="node">
<title>140543358555248</title>
<polygon fill="none" stroke="#000000" points="553,-144 499,-144 499,-108 553,-108 553,-144"/>
<text text-anchor="middle" x="526" y="-122.3" font-family="Times,serif" font-size="14.00" fill="#000000">Root</text>
</g>
<!-- 140543358557264 -->
<g id="node18" class="node">
<title>140543358557264</title>
<ellipse fill="#ffa500" stroke="#000000" cx="616" cy="-126" rx="27" ry="27"/>
</g>
<!-- 140543358555248&#45;&gt;140543358557264 -->
<g id="edge6" class="edge">
<title>140543358555248&#45;&gt;140543358557264</title>
<path fill="none" stroke="#000000" d="M553.003,-126C561.0277,-126 569.9665,-126 578.5309,-126"/>
<polygon fill="#000000" stroke="#000000" points="578.7051,-129.5001 588.705,-126 578.705,-122.5001 578.7051,-129.5001"/>
</g>
<!-- 140543358557656 -->
<g id="node12" class="node">
<title>140543358557656</title>
<polygon fill="none" stroke="#000000" points="124.5,-531 39.5,-531 39.5,-495 124.5,-495 124.5,-531"/>
<text text-anchor="middle" x="82" y="-509.3" font-family="Times,serif" font-size="14.00" fill="#000000">TradeAction</text>
</g>
<!-- 140543358555920 -->
<g id="node13" class="node">
<title>140543358555920</title>
<polygon fill="none" stroke="#000000" points="125,-585 39,-585 39,-549 125,-549 125,-585"/>
<text text-anchor="middle" x="82" y="-563.3" font-family="Times,serif" font-size="14.00" fill="#000000">TradeConfig</text>
</g>
<!-- 140543358557488 -->
<g id="node14" class="node">
<title>140543358557488</title>
<polygon fill="none" stroke="#000000" points="136,-639 28,-639 28,-603 136,-603 136,-639"/>
<text text-anchor="middle" x="82" y="-617.3" font-family="Times,serif" font-size="14.00" fill="#000000">TradeSLSBBean</text>
</g>
<!-- 140543358557768 -->
<g id="node15" class="node">
<title>140543358557768</title>
<polygon fill="none" stroke="#000000" points="367,-36 206,-36 206,0 367,0 367,-36"/>
<text text-anchor="middle" x="286.5" y="-14.3" font-family="Times,serif" font-size="14.00" fill="#000000">TradeWebContextListener</text>
</g>
<!-- 140543358557768&#45;&gt;140543358557096 -->
<g id="edge7" class="edge">
<title>140543358557768&#45;&gt;140543358557096</title>
<path fill="none" stroke="#000000" d="M357.5988,-36.1904C363.0083,-38.7622 368.2162,-41.6838 373,-45 391.0363,-57.503 406.3024,-76.729 417.2879,-93.3126"/>
<polygon fill="#000000" stroke="#000000" points="414.6188,-95.6376 422.941,-102.1944 420.5242,-91.8789 414.6188,-95.6376"/>
</g>
<!-- 140543358556536 -->
<g id="node16" class="node">
<title>140543358556536</title>
<ellipse fill="#00ff00" stroke="#000000" cx="82" cy="-126" rx="27" ry="27"/>
<text text-anchor="middle" x="82" y="-122.3" font-family="Times,serif" font-size="14.00" fill="#000000">1</text>
</g>
<!-- 140543358556536&#45;&gt;140543358556368 -->
<g id="edge8" class="edge">
<title>140543358556536&#45;&gt;140543358556368</title>
<path fill="none" stroke="#000000" d="M108.1065,-133.8255C125.1351,-139.7663 147.2295,-149.1216 164,-162 184.3139,-177.5995 178.8511,-192.5528 200,-207 208.1839,-212.5906 217.5784,-217.0647 227.092,-220.6333"/>
<polygon fill="#000000" stroke="#000000" points="226.0102,-223.9624 236.6049,-223.9079 228.2887,-217.3436 226.0102,-223.9624"/>
</g>
<!-- 140543358556536&#45;&gt;140543358558104 -->
<g id="edge9" class="edge">
<title>140543358556536&#45;&gt;140543358558104</title>
<path fill="none" stroke="#000000" d="M108.3161,-132.949C138.2499,-140.8533 188.0743,-154.0098 227.4373,-164.404"/>
<polygon fill="#000000" stroke="#000000" points="226.6387,-167.813 237.201,-166.9822 228.426,-161.045 226.6387,-167.813"/>
</g>
<!-- 140543358556536&#45;&gt;140543358557992 -->
<g id="edge10" class="edge">
<title>140543358556536&#45;&gt;140543358557992</title>
<path fill="none" stroke="#000000" d="M109.156,-126C129.9546,-126 159.9916,-126 189.4514,-126"/>
<polygon fill="#000000" stroke="#000000" points="189.8315,-129.5001 199.8315,-126 189.8315,-122.5001 189.8315,-129.5001"/>
</g>
<!-- 140543358556536&#45;&gt;140543358556424 -->
<g id="edge11" class="edge">
<title>140543358556536&#45;&gt;140543358556424</title>
<path fill="none" stroke="#000000" d="M108.3161,-119.051C136.7367,-111.5463 183.0877,-99.3069 221.3914,-89.1925"/>
<polygon fill="#000000" stroke="#000000" points="222.6737,-92.4739 231.4487,-86.5368 220.8865,-85.7059 222.6737,-92.4739"/>
</g>
<!-- 140543358556536&#45;&gt;140543358557768 -->
<g id="edge12" class="edge">
<title>140543358556536&#45;&gt;140543358557768</title>
<path fill="none" stroke="#000000" d="M102.9789,-108.7021C125.6899,-90.6929 163.5659,-62.6924 200,-45 203.7413,-43.1832 207.6325,-41.4537 211.6025,-39.8128"/>
<polygon fill="#000000" stroke="#000000" points="212.9385,-43.0486 220.9759,-36.1456 210.388,-36.5297 212.9385,-43.0486"/>
</g>
<!-- 140543358557096&#45;&gt;140543358555248 -->
<g id="edge1" class="edge">
<title>140543358557096&#45;&gt;140543358555248</title>
<path fill="none" stroke="#000000" d="M463.003,-126C471.0277,-126 479.9665,-126 488.5309,-126"/>
<polygon fill="#000000" stroke="#000000" points="488.7051,-129.5001 498.705,-126 488.705,-122.5001 488.7051,-129.5001"/>
</g>
</g>
</svg>
