<?xml version="1.0" encoding="UTF-8" standalone="no"?>
<!DOCTYPE svg PUBLIC "-//W3C//DTD SVG 1.1//EN"
 "http://www.w3.org/Graphics/SVG/1.1/DTD/svg11.dtd">
<!-- Generated by graphviz version 2.40.1 (20161225.0304)
 -->
<!-- Title: %3 Pages: 1 -->
<svg width="2132pt" height="618pt"
 viewBox="0.00 0.00 2132.00 618.00" xmlns="http://www.w3.org/2000/svg" xmlns:xlink="http://www.w3.org/1999/xlink">
<g id="graph0" class="graph" transform="scale(1 1) rotate(0) translate(4 614)">
<title>%3</title>
<!-- 140543360936648 -->
<g id="node1" class="node">
<title>140543360936648</title>
<polygon fill="none" stroke="#000000" points="99,-573 0,-573 0,-537 99,-537 99,-573"/>
<text text-anchor="middle" x="49.5" y="-551.3" font-family="Times,serif" font-size="14.00" fill="#000000">ActionDecoder</text>
</g>
<!-- 140543358689408 -->
<g id="node34" class="node">
<title>140543358689408</title>
<ellipse fill="none" stroke="#000000" cx="162" cy="-583" rx="27" ry="27"/>
<text text-anchor="middle" x="162" y="-579.3" font-family="Times,serif" font-size="14.00" fill="#000000">intplace_ActionDecoder</text>
</g>
<!-- 140543360936648&#45;&gt;140543358689408 -->
<g id="edge1" class="edge">
<title>140543360936648&#45;&gt;140543358689408</title>
<path fill="none" stroke="#000000" d="M99.1716,-567.3627C108.1269,-569.5916 117.3076,-571.8766 125.7892,-573.9875"/>
<polygon fill="#000000" stroke="#000000" points="125.1765,-577.4418 135.7258,-576.4606 126.8672,-570.649 125.1765,-577.4418"/>
</g>
<!-- 140543360936984 -->
<g id="node2" class="node">
<title>140543360936984</title>
<polygon fill="none" stroke="#000000" points="686,-245 585,-245 585,-209 686,-209 686,-245"/>
<text text-anchor="middle" x="635.5" y="-223.3" font-family="Times,serif" font-size="14.00" fill="#000000">ActionMessage</text>
</g>
<!-- 140543358689520 -->
<g id="node35" class="node">
<title>140543358689520</title>
<ellipse fill="none" stroke="#000000" cx="749" cy="-227" rx="27" ry="27"/>
<text text-anchor="middle" x="749" y="-223.3" font-family="Times,serif" font-size="14.00" fill="#000000">intplace_ActionMessage</text>
</g>
<!-- 140543360936984&#45;&gt;140543358689520 -->
<g id="edge2" class="edge">
<title>140543360936984&#45;&gt;140543358689520</title>
<path fill="none" stroke="#000000" d="M686.2745,-227C694.8108,-227 703.5294,-227 711.6462,-227"/>
<polygon fill="#000000" stroke="#000000" points="711.9041,-230.5001 721.9041,-227 711.904,-223.5001 711.9041,-230.5001"/>
</g>
<!-- 140543360937152 -->
<g id="node3" class="node">
<title>140543360937152</title>
<polygon fill="none" stroke="#000000" points="1096,-338 998,-338 998,-302 1096,-302 1096,-338"/>
<text text-anchor="middle" x="1047" y="-316.3" font-family="Times,serif" font-size="14.00" fill="#000000">JSFLoginFilter</text>
</g>
<!-- 140543358534320 -->
<g id="node51" class="node">
<title>140543358534320</title>
<ellipse fill="none" stroke="#000000" cx="1165" cy="-338" rx="27" ry="27"/>
<text text-anchor="middle" x="1165" y="-334.3" font-family="Times,serif" font-size="14.00" fill="#000000">splace_in_Root_1</text>
</g>
<!-- 140543360937152&#45;&gt;140543358534320 -->
<g id="edge3" class="edge">
<title>140543360937152&#45;&gt;140543358534320</title>
<path fill="none" stroke="#000000" d="M1096.0175,-327.4772C1106.7326,-329.1118 1117.9001,-330.8153 1128.0506,-332.3636"/>
<polygon fill="#000000" stroke="#000000" points="1127.7851,-335.8636 1138.1986,-333.9117 1128.8408,-328.9436 1127.7851,-335.8636"/>
</g>
<!-- 140543360937320 -->
<g id="node4" class="node">
<title>140543360937320</title>
<polygon fill="none" stroke="#000000" points="1807.5,-513 1753.5,-513 1753.5,-477 1807.5,-477 1807.5,-513"/>
<text text-anchor="middle" x="1780.5" y="-491.3" font-family="Times,serif" font-size="14.00" fill="#000000">Log</text>
</g>
<!-- 140543358537344 -->
<g id="node55" class="node">
<title>140543358537344</title>
<ellipse fill="none" stroke="#000000" cx="1917" cy="-495" rx="27" ry="27"/>
<text text-anchor="middle" x="1917" y="-491.3" font-family="Times,serif" font-size="14.00" fill="#000000">splace_in_TradeWebContextListener_0</text>
</g>
<!-- 140543360937320&#45;&gt;140543358537344 -->
<g id="edge4" class="edge">
<title>140543360937320&#45;&gt;140543358537344</title>
<path fill="none" stroke="#000000" d="M1807.7947,-495C1828.347,-495 1856.762,-495 1879.4552,-495"/>
<polygon fill="#000000" stroke="#000000" points="1879.7526,-498.5001 1889.7526,-495 1879.7525,-491.5001 1879.7526,-498.5001"/>
</g>
<!-- 140543360937040 -->
<g id="node5" class="node">
<title>140543360937040</title>
<polygon fill="none" stroke="#000000" points="1401,-179 1228,-179 1228,-143 1401,-143 1401,-179"/>
<text text-anchor="middle" x="1314.5" y="-157.3" font-family="Times,serif" font-size="14.00" fill="#000000">MarketSummaryWebSocket</text>
</g>
<!-- 140543358690136 -->
<g id="node36" class="node">
<title>140543358690136</title>
<ellipse fill="none" stroke="#000000" cx="1464" cy="-161" rx="27" ry="27"/>
<text text-anchor="middle" x="1464" y="-157.3" font-family="Times,serif" font-size="14.00" fill="#000000">intplace_MarketSummaryWebSocket</text>
</g>
<!-- 140543360937040&#45;&gt;140543358690136 -->
<g id="edge5" class="edge">
<title>140543360937040&#45;&gt;140543358690136</title>
<path fill="none" stroke="#000000" d="M1401.0318,-161C1410.0115,-161 1418.7584,-161 1426.7366,-161"/>
<polygon fill="#000000" stroke="#000000" points="1426.737,-164.5001 1436.737,-161 1426.7369,-157.5001 1426.737,-164.5001"/>
</g>
<!-- 140543360937208 -->
<g id="node6" class="node">
<title>140543360937208</title>
<polygon fill="none" stroke="#000000" points="1102,-284 992,-284 992,-248 1102,-248 1102,-284"/>
<text text-anchor="middle" x="1047" y="-262.3" font-family="Times,serif" font-size="14.00" fill="#000000">OrdersAlertFilter</text>
</g>
<!-- 140543358534880 -->
<g id="node53" class="node">
<title>140543358534880</title>
<ellipse fill="none" stroke="#000000" cx="1165" cy="-266" rx="27" ry="27"/>
<text text-anchor="middle" x="1165" y="-262.3" font-family="Times,serif" font-size="14.00" fill="#000000">splace_in_Root_3</text>
</g>
<!-- 140543360937208&#45;&gt;140543358534880 -->
<g id="edge6" class="edge">
<title>140543360937208&#45;&gt;140543358534880</title>
<path fill="none" stroke="#000000" d="M1102.1996,-266C1110.7911,-266 1119.4905,-266 1127.565,-266"/>
<polygon fill="#000000" stroke="#000000" points="1127.7583,-269.5001 1137.7582,-266 1127.7582,-262.5001 1127.7583,-269.5001"/>
</g>
<!-- 140543360937096 -->
<g id="node7" class="node">
<title>140543360937096</title>
<polygon fill="none" stroke="#000000" points="1854,-162 1707,-162 1707,-126 1854,-126 1854,-162"/>
<text text-anchor="middle" x="1780.5" y="-140.3" font-family="Times,serif" font-size="14.00" fill="#000000">RecentStockChangeList</text>
</g>
<!-- 140543358536504 -->
<g id="node49" class="node">
<title>140543358536504</title>
<ellipse fill="none" stroke="#000000" cx="1917" cy="-122" rx="27" ry="27"/>
<text text-anchor="middle" x="1917" y="-118.3" font-family="Times,serif" font-size="14.00" fill="#000000">splace_in_MarketSummaryWebSocket_1</text>
</g>
<!-- 140543360937096&#45;&gt;140543358536504 -->
<g id="edge7" class="edge">
<title>140543360937096&#45;&gt;140543358536504</title>
<path fill="none" stroke="#000000" d="M1854.3431,-132.0986C1863.2533,-130.6625 1872.0355,-129.247 1880.0767,-127.951"/>
<polygon fill="#000000" stroke="#000000" points="1880.8538,-131.371 1890.1694,-126.3243 1879.7399,-124.4602 1880.8538,-131.371"/>
</g>
<!-- 140543360936928 -->
<g id="node8" class="node">
<title>140543360936928</title>
<polygon fill="none" stroke="#000000" points="2034,-348 1980,-348 1980,-312 2034,-312 2034,-348"/>
<text text-anchor="middle" x="2007" y="-326.3" font-family="Times,serif" font-size="14.00" fill="#000000">Root</text>
</g>
<!-- 140543360936816 -->
<g id="node56" class="node">
<title>140543360936816</title>
<ellipse fill="#ffa500" stroke="#000000" cx="2097" cy="-330" rx="27" ry="27"/>
</g>
<!-- 140543360936928&#45;&gt;140543360936816 -->
<g id="edge8" class="edge">
<title>140543360936928&#45;&gt;140543360936816</title>
<path fill="none" stroke="#000000" d="M2034.003,-330C2042.0277,-330 2050.9665,-330 2059.5309,-330"/>
<polygon fill="#000000" stroke="#000000" points="2059.7051,-333.5001 2069.705,-330 2059.705,-326.5001 2059.7051,-333.5001"/>
</g>
<!-- 140543360937264 -->
<g id="node9" class="node">
<title>140543360937264</title>
<polygon fill="none" stroke="#000000" points="1395,-428 1234,-428 1234,-392 1395,-392 1395,-428"/>
<text text-anchor="middle" x="1314.5" y="-406.3" font-family="Times,serif" font-size="14.00" fill="#000000">TradeWebContextListener</text>
</g>
<!-- 140543358691536 -->
<g id="node37" class="node">
<title>140543358691536</title>
<ellipse fill="none" stroke="#000000" cx="1464" cy="-410" rx="27" ry="27"/>
<text text-anchor="middle" x="1464" y="-406.3" font-family="Times,serif" font-size="14.00" fill="#000000">intplace_TradeWebContextListener</text>
</g>
<!-- 140543360937264&#45;&gt;140543358691536 -->
<g id="edge9" class="edge">
<title>140543360937264&#45;&gt;140543358691536</title>
<path fill="none" stroke="#000000" d="M1395.3757,-410C1406.3901,-410 1417.2259,-410 1426.9179,-410"/>
<polygon fill="#000000" stroke="#000000" points="1426.9402,-413.5001 1436.9402,-410 1426.9402,-406.5001 1426.9402,-413.5001"/>
</g>
<!-- 140543360937544 -->
<g id="node10" class="node">
<title>140543360937544</title>
<polygon fill="none" stroke="#000000" points="1074,-500 1020,-500 1020,-464 1074,-464 1074,-500"/>
<text text-anchor="middle" x="1047" y="-478.3" font-family="Times,serif" font-size="14.00" fill="#000000">hid_1</text>
</g>
<!-- 140543360937376 -->
<g id="node38" class="node">
<title>140543360937376</title>
<ellipse fill="none" stroke="#000000" cx="1165" cy="-482" rx="27" ry="27"/>
<text text-anchor="middle" x="1165" y="-478.3" font-family="Times,serif" font-size="14.00" fill="#000000">pre_ActionDecoder</text>
</g>
<!-- 140543360937544&#45;&gt;140543360937376 -->
<g id="edge10" class="edge">
<title>140543360937544&#45;&gt;140543360937376</title>
<path fill="none" stroke="#000000" d="M1074.0716,-482C1089.8489,-482 1109.9852,-482 1127.2964,-482"/>
<polygon fill="#000000" stroke="#000000" points="1127.6458,-485.5001 1137.6458,-482 1127.6457,-478.5001 1127.6458,-485.5001"/>
</g>
<!-- 140543358536056 -->
<g id="node11" class="node">
<title>140543358536056</title>
<polygon fill="none" stroke="#000000" points="1074,-176 1020,-176 1020,-140 1074,-140 1074,-176"/>
<text text-anchor="middle" x="1047" y="-154.3" font-family="Times,serif" font-size="14.00" fill="#000000">hid_10</text>
</g>
<!-- 140543358535328 -->
<g id="node41" class="node">
<title>140543358535328</title>
<ellipse fill="none" stroke="#000000" cx="1165" cy="-159" rx="27" ry="27"/>
<text text-anchor="middle" x="1165" y="-155.3" font-family="Times,serif" font-size="14.00" fill="#000000">pre_MarketSummaryWebSocket</text>
</g>
<!-- 140543358536056&#45;&gt;140543358535328 -->
<g id="edge11" class="edge">
<title>140543358536056&#45;&gt;140543358535328</title>
<path fill="none" stroke="#000000" d="M1074.0716,-158.2294C1089.8489,-158.3631 1109.9852,-158.5338 1127.2964,-158.6805"/>
<polygon fill="#000000" stroke="#000000" points="1127.6164,-162.1832 1137.6458,-158.7682 1127.6758,-155.1835 1127.6164,-162.1832"/>
</g>
<!-- 140543358536336 -->
<g id="node12" class="node">
<title>140543358536336</title>
<polygon fill="none" stroke="#000000" points="2034,-90 1980,-90 1980,-54 2034,-54 2034,-90"/>
<text text-anchor="middle" x="2007" y="-68.3" font-family="Times,serif" font-size="14.00" fill="#000000">hid_11</text>
</g>
<!-- 140543358536336&#45;&gt;140543358535328 -->
<g id="edge12" class="edge">
<title>140543358536336&#45;&gt;140543358535328</title>
<path fill="none" stroke="#000000" d="M1979.9889,-57.4297C1938.3956,-36.3911 1855.5966,0 1780.5,0 1554,0 1554,0 1554,0 1410.8056,0 1258.5281,-93.4585 1195.2632,-137.071"/>
<polygon fill="#000000" stroke="#000000" points="1193.1363,-134.2872 1186.9372,-142.8792 1197.1413,-140.0283 1193.1363,-134.2872"/>
</g>
<!-- 140543358536616 -->
<g id="node13" class="node">
<title>140543358536616</title>
<polygon fill="none" stroke="#000000" points="1074,-230 1020,-230 1020,-194 1074,-194 1074,-230"/>
<text text-anchor="middle" x="1047" y="-208.3" font-family="Times,serif" font-size="14.00" fill="#000000">hid_12</text>
</g>
<!-- 140543358536616&#45;&gt;140543358535328 -->
<g id="edge13" class="edge">
<title>140543358536616&#45;&gt;140543358535328</title>
<path fill="none" stroke="#000000" d="M1074.0716,-199.8407C1090.8355,-192.3112 1112.5207,-182.5712 1130.5091,-174.4917"/>
<polygon fill="#000000" stroke="#000000" points="1132.3796,-177.4884 1140.0676,-170.1984 1129.5115,-171.103 1132.3796,-177.4884"/>
</g>
<!-- 140543358537176 -->
<g id="node14" class="node">
<title>140543358537176</title>
<polygon fill="none" stroke="#000000" points="2034,-540 1980,-540 1980,-504 2034,-504 2034,-540"/>
<text text-anchor="middle" x="2007" y="-518.3" font-family="Times,serif" font-size="14.00" fill="#000000">hid_13</text>
</g>
<!-- 140543358536896 -->
<g id="node44" class="node">
<title>140543358536896</title>
<ellipse fill="none" stroke="#000000" cx="1165" cy="-410" rx="27" ry="27"/>
<text text-anchor="middle" x="1165" y="-406.3" font-family="Times,serif" font-size="14.00" fill="#000000">pre_TradeWebContextListener</text>
</g>
<!-- 140543358537176&#45;&gt;140543358536896 -->
<g id="edge14" class="edge">
<title>140543358537176&#45;&gt;140543358536896</title>
<path fill="none" stroke="#000000" d="M1979.8018,-526.7458C1968.7328,-528.4522 1955.7922,-530.162 1944,-531 1799.0323,-541.3025 1761.3133,-548.1889 1617,-531 1440.3834,-509.9635 1396.7799,-493.1185 1228,-437 1218.3622,-433.7955 1208.148,-429.7265 1198.8131,-425.7257"/>
<polygon fill="#000000" stroke="#000000" points="1200.0277,-422.4365 1189.4644,-421.6202 1197.2131,-428.8457 1200.0277,-422.4365"/>
</g>
<!-- 140543358537456 -->
<g id="node15" class="node">
<title>140543358537456</title>
<polygon fill="none" stroke="#000000" points="1074,-392 1020,-392 1020,-356 1074,-356 1074,-392"/>
<text text-anchor="middle" x="1047" y="-370.3" font-family="Times,serif" font-size="14.00" fill="#000000">hid_14</text>
</g>
<!-- 140543358537456&#45;&gt;140543358536896 -->
<g id="edge15" class="edge">
<title>140543358537456&#45;&gt;140543358536896</title>
<path fill="none" stroke="#000000" d="M1074.0716,-382.2591C1090.339,-387.2221 1111.2405,-393.5988 1128.9013,-398.9868"/>
<polygon fill="#000000" stroke="#000000" points="1128.2796,-402.4564 1138.8657,-402.0268 1130.3223,-395.761 1128.2796,-402.4564"/>
</g>
<!-- 140543358689576 -->
<g id="node16" class="node">
<title>140543358689576</title>
<polygon fill="none" stroke="#000000" points="279,-496 225,-496 225,-460 279,-460 279,-496"/>
<text text-anchor="middle" x="252" y="-474.3" font-family="Times,serif" font-size="14.00" fill="#000000">hid_15</text>
</g>
<!-- 140543358535552 -->
<g id="node46" class="node">
<title>140543358535552</title>
<ellipse fill="none" stroke="#000000" cx="342" cy="-394" rx="27" ry="27"/>
<text text-anchor="middle" x="342" y="-390.3" font-family="Times,serif" font-size="14.00" fill="#000000">splace_in_ActionMessage_0</text>
</g>
<!-- 140543358689576&#45;&gt;140543358535552 -->
<g id="edge16" class="edge">
<title>140543358689576&#45;&gt;140543358535552</title>
<path fill="none" stroke="#000000" d="M271.5287,-459.7733C284.1787,-447.9666 300.8329,-432.4227 314.7748,-419.4102"/>
<polygon fill="#000000" stroke="#000000" points="317.2762,-421.8632 322.1987,-412.4813 312.5,-416.7458 317.2762,-421.8632"/>
</g>
<!-- 140543358689800 -->
<g id="node17" class="node">
<title>140543358689800</title>
<polygon fill="none" stroke="#000000" points="369,-601 315,-601 315,-565 369,-565 369,-601"/>
<text text-anchor="middle" x="342" y="-579.3" font-family="Times,serif" font-size="14.00" fill="#000000">hid_16</text>
</g>
<!-- 140543358534040 -->
<g id="node50" class="node">
<title>140543358534040</title>
<ellipse fill="none" stroke="#000000" cx="432" cy="-583" rx="27" ry="27"/>
<text text-anchor="middle" x="432" y="-579.3" font-family="Times,serif" font-size="14.00" fill="#000000">splace_in_Root_0</text>
</g>
<!-- 140543358689800&#45;&gt;140543358534040 -->
<g id="edge17" class="edge">
<title>140543358689800&#45;&gt;140543358534040</title>
<path fill="none" stroke="#000000" d="M369.003,-583C377.0277,-583 385.9665,-583 394.5309,-583"/>
<polygon fill="#000000" stroke="#000000" points="394.7051,-586.5001 404.705,-583 394.705,-579.5001 394.7051,-586.5001"/>
</g>
<!-- 140543358690192 -->
<g id="node18" class="node">
<title>140543358690192</title>
<polygon fill="none" stroke="#000000" points="866,-351 812,-351 812,-315 866,-315 866,-351"/>
<text text-anchor="middle" x="839" y="-329.3" font-family="Times,serif" font-size="14.00" fill="#000000">hid_17</text>
</g>
<!-- 140543360937712 -->
<g id="node45" class="node">
<title>140543360937712</title>
<ellipse fill="none" stroke="#000000" cx="929" cy="-433" rx="27" ry="27"/>
<text text-anchor="middle" x="929" y="-429.3" font-family="Times,serif" font-size="14.00" fill="#000000">splace_in_ActionDecoder_0</text>
</g>
<!-- 140543358690192&#45;&gt;140543360937712 -->
<g id="edge18" class="edge">
<title>140543358690192&#45;&gt;140543360937712</title>
<path fill="none" stroke="#000000" d="M855.5074,-351.3415C869.0615,-366.4016 888.4742,-387.9713 903.9444,-405.1605"/>
<polygon fill="#000000" stroke="#000000" points="901.4485,-407.6192 910.7397,-412.7108 906.6516,-402.9364 901.4485,-407.6192"/>
</g>
<!-- 140543358690416 -->
<g id="node19" class="node">
<title>140543358690416</title>
<polygon fill="none" stroke="#000000" points="866,-206 812,-206 812,-170 866,-170 866,-206"/>
<text text-anchor="middle" x="839" y="-184.3" font-family="Times,serif" font-size="14.00" fill="#000000">hid_18</text>
</g>
<!-- 140543358536224 -->
<g id="node48" class="node">
<title>140543358536224</title>
<ellipse fill="none" stroke="#000000" cx="929" cy="-168" rx="27" ry="27"/>
<text text-anchor="middle" x="929" y="-164.3" font-family="Times,serif" font-size="14.00" fill="#000000">splace_in_MarketSummaryWebSocket_0</text>
</g>
<!-- 140543358690416&#45;&gt;140543358536224 -->
<g id="edge19" class="edge">
<title>140543358690416&#45;&gt;140543358536224</title>
<path fill="none" stroke="#000000" d="M866.003,-181.9993C874.4298,-180.1267 883.8646,-178.0301 892.8152,-176.0411"/>
<polygon fill="#000000" stroke="#000000" points="893.6329,-179.4448 902.6355,-173.8588 892.1143,-172.6115 893.6329,-179.4448"/>
</g>
<!-- 140543358690752 -->
<g id="node20" class="node">
<title>140543358690752</title>
<polygon fill="none" stroke="#000000" points="1581,-119 1527,-119 1527,-83 1581,-83 1581,-119"/>
<text text-anchor="middle" x="1554" y="-97.3" font-family="Times,serif" font-size="14.00" fill="#000000">hid_19</text>
</g>
<!-- 140543358535832 -->
<g id="node47" class="node">
<title>140543358535832</title>
<ellipse fill="none" stroke="#000000" cx="1644" cy="-93" rx="27" ry="27"/>
<text text-anchor="middle" x="1644" y="-89.3" font-family="Times,serif" font-size="14.00" fill="#000000">splace_in_ActionMessage_1</text>
</g>
<!-- 140543358690752&#45;&gt;140543358535832 -->
<g id="edge20" class="edge">
<title>140543358690752&#45;&gt;140543358535832</title>
<path fill="none" stroke="#000000" d="M1581.003,-98.5997C1589.1903,-97.872 1598.3292,-97.0596 1607.051,-96.2844"/>
<polygon fill="#000000" stroke="#000000" points="1607.3653,-99.7703 1617.0161,-95.3986 1606.7454,-92.7978 1607.3653,-99.7703"/>
</g>
<!-- 140543360937824 -->
<g id="node21" class="node">
<title>140543360937824</title>
<polygon fill="none" stroke="#000000" points="1074,-446 1020,-446 1020,-410 1074,-410 1074,-446"/>
<text text-anchor="middle" x="1047" y="-424.3" font-family="Times,serif" font-size="14.00" fill="#000000">hid_2</text>
</g>
<!-- 140543360937824&#45;&gt;140543360937376 -->
<g id="edge21" class="edge">
<title>140543360937824&#45;&gt;140543360937376</title>
<path fill="none" stroke="#000000" d="M1074.0716,-440.3887C1090.8355,-448.0603 1112.5207,-457.984 1130.5091,-466.216"/>
<polygon fill="#000000" stroke="#000000" points="1129.5181,-469.6116 1140.0676,-470.5903 1132.431,-463.2464 1129.5181,-469.6116"/>
</g>
<!-- 140543358690976 -->
<g id="node22" class="node">
<title>140543358690976</title>
<polygon fill="none" stroke="#000000" points="1581,-180 1527,-180 1527,-144 1581,-144 1581,-180"/>
<text text-anchor="middle" x="1554" y="-158.3" font-family="Times,serif" font-size="14.00" fill="#000000">hid_20</text>
</g>
<!-- 140543358536000 -->
<g id="node42" class="node">
<title>140543358536000</title>
<ellipse fill="none" stroke="#000000" cx="1644" cy="-165" rx="27" ry="27"/>
<text text-anchor="middle" x="1644" y="-161.3" font-family="Times,serif" font-size="14.00" fill="#000000">pre_RecentStockChangeList</text>
</g>
<!-- 140543358690976&#45;&gt;140543358536000 -->
<g id="edge22" class="edge">
<title>140543358690976&#45;&gt;140543358536000</title>
<path fill="none" stroke="#000000" d="M1581.003,-162.9001C1589.0277,-163.1676 1597.9665,-163.4656 1606.5309,-163.751"/>
<polygon fill="#000000" stroke="#000000" points="1606.5939,-167.255 1616.705,-164.0902 1606.8272,-160.2589 1606.5939,-167.255"/>
</g>
<!-- 140543358691200 -->
<g id="node23" class="node">
<title>140543358691200</title>
<polygon fill="none" stroke="#000000" points="1581,-245 1527,-245 1527,-209 1581,-209 1581,-245"/>
<text text-anchor="middle" x="1554" y="-223.3" font-family="Times,serif" font-size="14.00" fill="#000000">hid_21</text>
</g>
<!-- 140543358534600 -->
<g id="node52" class="node">
<title>140543358534600</title>
<ellipse fill="none" stroke="#000000" cx="1644" cy="-237" rx="27" ry="27"/>
<text text-anchor="middle" x="1644" y="-233.3" font-family="Times,serif" font-size="14.00" fill="#000000">splace_in_Root_2</text>
</g>
<!-- 140543358691200&#45;&gt;140543358534600 -->
<g id="edge23" class="edge">
<title>140543358691200&#45;&gt;140543358534600</title>
<path fill="none" stroke="#000000" d="M1581.003,-230.0003C1589.1903,-230.91 1598.3292,-231.9255 1607.051,-232.8946"/>
<polygon fill="#000000" stroke="#000000" points="1606.6907,-236.376 1617.0161,-234.0018 1607.4638,-229.4188 1606.6907,-236.376"/>
</g>
<!-- 140543358691704 -->
<g id="node24" class="node">
<title>140543358691704</title>
<polygon fill="none" stroke="#000000" points="1581,-472 1527,-472 1527,-436 1581,-436 1581,-472"/>
<text text-anchor="middle" x="1554" y="-450.3" font-family="Times,serif" font-size="14.00" fill="#000000">hid_22</text>
</g>
<!-- 140543358537680 -->
<g id="node40" class="node">
<title>140543358537680</title>
<ellipse fill="none" stroke="#000000" cx="1644" cy="-495" rx="27" ry="27"/>
<text text-anchor="middle" x="1644" y="-491.3" font-family="Times,serif" font-size="14.00" fill="#000000">pre_Log</text>
</g>
<!-- 140543358691704&#45;&gt;140543358537680 -->
<g id="edge24" class="edge">
<title>140543358691704&#45;&gt;140543358537680</title>
<path fill="none" stroke="#000000" d="M1581.003,-466.3014C1590.0899,-470.441 1600.3491,-475.1146 1609.9092,-479.4697"/>
<polygon fill="#000000" stroke="#000000" points="1608.6158,-482.7266 1619.167,-483.6872 1611.5178,-476.3564 1608.6158,-482.7266"/>
</g>
<!-- 140543358691928 -->
<g id="node25" class="node">
<title>140543358691928</title>
<polygon fill="none" stroke="#000000" points="1581,-416 1527,-416 1527,-380 1581,-380 1581,-416"/>
<text text-anchor="middle" x="1554" y="-394.3" font-family="Times,serif" font-size="14.00" fill="#000000">hid_23</text>
</g>
<!-- 140543358535160 -->
<g id="node54" class="node">
<title>140543358535160</title>
<ellipse fill="none" stroke="#000000" cx="1644" cy="-385" rx="27" ry="27"/>
<text text-anchor="middle" x="1644" y="-381.3" font-family="Times,serif" font-size="14.00" fill="#000000">splace_in_Root_4</text>
</g>
<!-- 140543358691928&#45;&gt;140543358535160 -->
<g id="edge25" class="edge">
<title>140543358691928&#45;&gt;140543358535160</title>
<path fill="none" stroke="#000000" d="M1581.003,-394.0996C1589.1903,-392.917 1598.3292,-391.5969 1607.051,-390.3371"/>
<polygon fill="#000000" stroke="#000000" points="1607.6192,-393.7914 1617.0161,-388.8977 1606.6184,-386.8633 1607.6192,-393.7914"/>
</g>
<!-- 140543358533872 -->
<g id="node26" class="node">
<title>140543358533872</title>
<polygon fill="none" stroke="#000000" points="549,-596 495,-596 495,-560 549,-560 549,-596"/>
<text text-anchor="middle" x="522" y="-574.3" font-family="Times,serif" font-size="14.00" fill="#000000">hid_3</text>
</g>
<!-- 140543360937488 -->
<g id="node43" class="node">
<title>140543360937488</title>
<ellipse fill="none" stroke="#000000" cx="1917" cy="-330" rx="27" ry="27"/>
<text text-anchor="middle" x="1917" y="-326.3" font-family="Times,serif" font-size="14.00" fill="#000000">pre_Root</text>
</g>
<!-- 140543358533872&#45;&gt;140543360937488 -->
<g id="edge26" class="edge">
<title>140543358533872&#45;&gt;140543360937488</title>
<path fill="none" stroke="#000000" d="M549.2487,-576.8146C591.8575,-575.066 676.855,-572 749,-572 749,-572 749,-572 1314.5,-572 1439.6593,-572 1467.698,-534.1743 1581,-481 1597.9747,-473.0335 1599.5883,-465.9596 1617,-459 1717.0484,-419.01 1762.2393,-464.47 1854,-408 1872.1371,-396.8383 1887.3274,-378.5304 1898.245,-362.4559"/>
<polygon fill="#000000" stroke="#000000" points="1901.3464,-364.1068 1903.8624,-353.815 1895.4775,-360.2915 1901.3464,-364.1068"/>
</g>
<!-- 140543358534152 -->
<g id="node27" class="node">
<title>140543358534152</title>
<polygon fill="none" stroke="#000000" points="1491,-356 1437,-356 1437,-320 1491,-320 1491,-356"/>
<text text-anchor="middle" x="1464" y="-334.3" font-family="Times,serif" font-size="14.00" fill="#000000">hid_4</text>
</g>
<!-- 140543358534152&#45;&gt;140543360937488 -->
<g id="edge27" class="edge">
<title>140543358534152&#45;&gt;140543360937488</title>
<path fill="none" stroke="#000000" d="M1491.317,-337.5176C1568.9789,-336.1461 1791.1392,-332.2227 1879.8018,-330.6569"/>
<polygon fill="#000000" stroke="#000000" points="1879.9972,-334.1541 1889.9338,-330.478 1879.8735,-327.1552 1879.9972,-334.1541"/>
</g>
<!-- 140543358534432 -->
<g id="node28" class="node">
<title>140543358534432</title>
<polygon fill="none" stroke="#000000" points="1807.5,-260 1753.5,-260 1753.5,-224 1807.5,-224 1807.5,-260"/>
<text text-anchor="middle" x="1780.5" y="-238.3" font-family="Times,serif" font-size="14.00" fill="#000000">hid_5</text>
</g>
<!-- 140543358534432&#45;&gt;140543360937488 -->
<g id="edge28" class="edge">
<title>140543358534432&#45;&gt;140543360937488</title>
<path fill="none" stroke="#000000" d="M1807.5089,-253.3848C1821.7709,-259.848 1839.3121,-268.5286 1854,-278 1866.1572,-285.8395 1878.628,-295.687 1889.2326,-304.6979"/>
<polygon fill="#000000" stroke="#000000" points="1887.0926,-307.4747 1896.9421,-311.3784 1891.6767,-302.1845 1887.0926,-307.4747"/>
</g>
<!-- 140543358534712 -->
<g id="node29" class="node">
<title>140543358534712</title>
<polygon fill="none" stroke="#000000" points="1341.5,-297 1287.5,-297 1287.5,-261 1341.5,-261 1341.5,-297"/>
<text text-anchor="middle" x="1314.5" y="-275.3" font-family="Times,serif" font-size="14.00" fill="#000000">hid_6</text>
</g>
<!-- 140543358534712&#45;&gt;140543360937488 -->
<g id="edge29" class="edge">
<title>140543358534712&#45;&gt;140543360937488</title>
<path fill="none" stroke="#000000" d="M1341.7714,-281.4452C1386.1945,-285.211 1476.964,-292 1554,-292 1554,-292 1554,-292 1644,-292 1729.4621,-292 1828.5484,-310.4942 1880.6561,-321.6784"/>
<polygon fill="#000000" stroke="#000000" points="1879.9172,-325.0994 1890.4333,-323.8101 1881.4084,-318.2601 1879.9172,-325.0994"/>
</g>
<!-- 140543358534992 -->
<g id="node30" class="node">
<title>140543358534992</title>
<polygon fill="none" stroke="#000000" points="1807.5,-399 1753.5,-399 1753.5,-363 1807.5,-363 1807.5,-399"/>
<text text-anchor="middle" x="1780.5" y="-377.3" font-family="Times,serif" font-size="14.00" fill="#000000">hid_7</text>
</g>
<!-- 140543358534992&#45;&gt;140543360937488 -->
<g id="edge30" class="edge">
<title>140543358534992&#45;&gt;140543360937488</title>
<path fill="none" stroke="#000000" d="M1807.7947,-370.802C1829.1706,-362.8154 1859.052,-351.6509 1882.1549,-343.019"/>
<polygon fill="#000000" stroke="#000000" points="1883.4541,-346.27 1891.5967,-339.4914 1881.0041,-339.7127 1883.4541,-346.27"/>
</g>
<!-- 140543358535384 -->
<g id="node31" class="node">
<title>140543358535384</title>
<polygon fill="none" stroke="#000000" points="459,-255 405,-255 405,-219 459,-219 459,-255"/>
<text text-anchor="middle" x="432" y="-233.3" font-family="Times,serif" font-size="14.00" fill="#000000">hid_8</text>
</g>
<!-- 140543358533816 -->
<g id="node39" class="node">
<title>140543358533816</title>
<ellipse fill="none" stroke="#000000" cx="522" cy="-227" rx="27" ry="27"/>
<text text-anchor="middle" x="522" y="-223.3" font-family="Times,serif" font-size="14.00" fill="#000000">pre_ActionMessage</text>
</g>
<!-- 140543358535384&#45;&gt;140543358533816 -->
<g id="edge31" class="edge">
<title>140543358535384&#45;&gt;140543358533816</title>
<path fill="none" stroke="#000000" d="M459.003,-233.9997C467.1903,-233.09 476.3292,-232.0745 485.051,-231.1054"/>
<polygon fill="#000000" stroke="#000000" points="485.4638,-234.5812 495.0161,-229.9982 484.6907,-227.624 485.4638,-234.5812"/>
</g>
<!-- 140543358535664 -->
<g id="node32" class="node">
<title>140543358535664</title>
<polygon fill="none" stroke="#000000" points="1807.5,-87 1753.5,-87 1753.5,-51 1807.5,-51 1807.5,-87"/>
<text text-anchor="middle" x="1780.5" y="-65.3" font-family="Times,serif" font-size="14.00" fill="#000000">hid_9</text>
</g>
<!-- 140543358535664&#45;&gt;140543358533816 -->
<g id="edge32" class="edge">
<title>140543358535664&#45;&gt;140543358533816</title>
<path fill="none" stroke="#000000" d="M1753.4689,-62.8754C1711.1647,-53.841 1626.6318,-38 1554,-38 749,-38 749,-38 749,-38 652.0886,-38 574.5558,-140.9938 540.602,-194.9212"/>
<polygon fill="#000000" stroke="#000000" points="537.6148,-193.0972 535.3407,-203.4452 543.5715,-196.7739 537.6148,-193.0972"/>
</g>
<!-- 140543360936704 -->
<g id="node33" class="node">
<title>140543360936704</title>
<ellipse fill="#00ff00" stroke="#000000" cx="929" cy="-320" rx="27" ry="27"/>
<text text-anchor="middle" x="929" y="-316.3" font-family="Times,serif" font-size="14.00" fill="#000000">1</text>
</g>
<!-- 140543360936704&#45;&gt;140543360937152 -->
<g id="edge49" class="edge">
<title>140543360936704&#45;&gt;140543360937152</title>
<path fill="none" stroke="#000000" d="M956.0716,-320C965.5528,-320 976.6083,-320 987.6788,-320"/>
<polygon fill="#000000" stroke="#000000" points="987.8052,-323.5001 997.8052,-320 987.8051,-316.5001 987.8052,-323.5001"/>
</g>
<!-- 140543360936704&#45;&gt;140543360937208 -->
<g id="edge50" class="edge">
<title>140543360936704&#45;&gt;140543360937208</title>
<path fill="none" stroke="#000000" d="M953.7367,-308.6798C966.6087,-302.7892 982.8105,-295.3749 998.0833,-288.3856"/>
<polygon fill="#000000" stroke="#000000" points="999.798,-291.4501 1007.4346,-284.1062 996.8851,-285.0849 999.798,-291.4501"/>
</g>
<!-- 140543360936704&#45;&gt;140543358536616 -->
<g id="edge51" class="edge">
<title>140543360936704&#45;&gt;140543358536616</title>
<path fill="none" stroke="#000000" d="M942.9606,-296.7167C954.413,-279.1249 971.9633,-255.3042 992,-239 997.5434,-234.4892 1003.9655,-230.4863 1010.4233,-227.0355"/>
<polygon fill="#000000" stroke="#000000" points="1012.4079,-229.9582 1019.8119,-222.3798 1009.298,-223.6869 1012.4079,-229.9582"/>
</g>
<!-- 140543360936704&#45;&gt;140543358537456 -->
<g id="edge52" class="edge">
<title>140543360936704&#45;&gt;140543358537456</title>
<path fill="none" stroke="#000000" d="M953.7367,-331.3202C970.1958,-338.8523 992.099,-348.8758 1010.5429,-357.3163"/>
<polygon fill="#000000" stroke="#000000" points="1009.2759,-360.5855 1019.8254,-361.5642 1012.1888,-354.2203 1009.2759,-360.5855"/>
</g>
<!-- 140543360936704&#45;&gt;140543360937824 -->
<g id="edge53" class="edge">
<title>140543360936704&#45;&gt;140543360937824</title>
<path fill="none" stroke="#000000" d="M942.9606,-343.2833C954.413,-360.8751 971.9633,-384.6958 992,-401 997.5434,-405.5108 1003.9655,-409.5137 1010.4233,-412.9645"/>
<polygon fill="#000000" stroke="#000000" points="1009.298,-416.3131 1019.8119,-417.6202 1012.4079,-410.0418 1009.298,-416.3131"/>
</g>
<!-- 140543358689408&#45;&gt;140543358689576 -->
<g id="edge33" class="edge">
<title>140543358689408&#45;&gt;140543358689576</title>
<path fill="none" stroke="#000000" d="M179.7811,-562.2554C194.0857,-545.5666 214.2682,-522.0205 229.6624,-504.0606"/>
<polygon fill="#000000" stroke="#000000" points="232.5096,-506.1169 236.3601,-496.2465 227.1948,-501.5613 232.5096,-506.1169"/>
</g>
<!-- 140543358689408&#45;&gt;140543358689800 -->
<g id="edge34" class="edge">
<title>140543358689408&#45;&gt;140543358689800</title>
<path fill="none" stroke="#000000" d="M189.3381,-583C220.1765,-583 270.5008,-583 304.8771,-583"/>
<polygon fill="#000000" stroke="#000000" points="304.9944,-586.5001 314.9944,-583 304.9943,-579.5001 304.9944,-586.5001"/>
</g>
<!-- 140543358689520&#45;&gt;140543358690192 -->
<g id="edge35" class="edge">
<title>140543358689520&#45;&gt;140543358690192</title>
<path fill="none" stroke="#000000" d="M766.5666,-247.6895C780.9397,-264.6178 801.3508,-288.6576 816.8446,-306.9059"/>
<polygon fill="#000000" stroke="#000000" points="814.4376,-309.4787 823.578,-314.8363 819.7737,-304.948 814.4376,-309.4787"/>
</g>
<!-- 140543358689520&#45;&gt;140543358690416 -->
<g id="edge36" class="edge">
<title>140543358689520&#45;&gt;140543358690416</title>
<path fill="none" stroke="#000000" d="M774.07,-216.1363C782.8861,-212.316 792.9811,-207.9415 802.542,-203.7984"/>
<polygon fill="#000000" stroke="#000000" points="804.0739,-206.9492 811.8578,-199.7616 801.2906,-200.5263 804.0739,-206.9492"/>
</g>
<!-- 140543358690136&#45;&gt;140543358690752 -->
<g id="edge37" class="edge">
<title>140543358690136&#45;&gt;140543358690752</title>
<path fill="none" stroke="#000000" d="M1486.7108,-145.8595C1496.3257,-139.4495 1507.7569,-131.8287 1518.4439,-124.704"/>
<polygon fill="#000000" stroke="#000000" points="1520.4272,-127.5884 1526.8063,-119.1292 1516.5443,-121.764 1520.4272,-127.5884"/>
</g>
<!-- 140543358690136&#45;&gt;140543358690976 -->
<g id="edge38" class="edge">
<title>140543358690136&#45;&gt;140543358690976</title>
<path fill="none" stroke="#000000" d="M1491.003,-161.3C1499.0277,-161.3892 1507.9665,-161.4885 1516.5309,-161.5837"/>
<polygon fill="#000000" stroke="#000000" points="1516.6667,-165.0853 1526.705,-161.6967 1516.7446,-158.0857 1516.6667,-165.0853"/>
</g>
<!-- 140543358690136&#45;&gt;140543358691200 -->
<g id="edge39" class="edge">
<title>140543358690136&#45;&gt;140543358691200</title>
<path fill="none" stroke="#000000" d="M1485.7865,-176.9768C1496.3358,-184.7129 1509.2289,-194.1678 1520.9544,-202.7666"/>
<polygon fill="#000000" stroke="#000000" points="1519.1021,-205.7484 1529.2359,-208.8397 1523.2416,-200.1036 1519.1021,-205.7484"/>
</g>
<!-- 140543358691536&#45;&gt;140543358691704 -->
<g id="edge40" class="edge">
<title>140543358691536&#45;&gt;140543358691704</title>
<path fill="none" stroke="#000000" d="M1488.5929,-422.0232C1497.5854,-426.4195 1507.9573,-431.4902 1517.7535,-436.2795"/>
<polygon fill="#000000" stroke="#000000" points="1516.3844,-439.506 1526.9055,-440.7538 1519.4589,-433.2173 1516.3844,-439.506"/>
</g>
<!-- 140543358691536&#45;&gt;140543358691928 -->
<g id="edge41" class="edge">
<title>140543358691536&#45;&gt;140543358691928</title>
<path fill="none" stroke="#000000" d="M1491.003,-406.3996C1499.0277,-405.3296 1507.9665,-404.1378 1516.5309,-402.9959"/>
<polygon fill="#000000" stroke="#000000" points="1517.2553,-406.4303 1526.705,-401.6393 1516.3301,-399.4918 1517.2553,-406.4303"/>
</g>
<!-- 140543360937376&#45;&gt;140543360936648 -->
<g id="edge42" class="edge">
<title>140543360937376&#45;&gt;140543360936648</title>
<path fill="none" stroke="#000000" d="M1140.7623,-494.3823C1129.292,-499.7178 1115.2347,-505.5198 1102,-509 1027.192,-528.6716 1006.3512,-528 929,-528 252,-528 252,-528 252,-528 203.6092,-528 149.2799,-535.6692 109.0871,-542.8329"/>
<polygon fill="#000000" stroke="#000000" points="108.3954,-539.4012 99.1855,-544.6383 109.6511,-546.2877 108.3954,-539.4012"/>
</g>
<!-- 140543358533816&#45;&gt;140543360936984 -->
<g id="edge43" class="edge">
<title>140543358533816&#45;&gt;140543360936984</title>
<path fill="none" stroke="#000000" d="M549.1861,-227C557.0006,-227 565.8527,-227 574.8363,-227"/>
<polygon fill="#000000" stroke="#000000" points="574.9865,-230.5001 584.9865,-227 574.9865,-223.5001 574.9865,-230.5001"/>
</g>
<!-- 140543358537680&#45;&gt;140543360937320 -->
<g id="edge44" class="edge">
<title>140543358537680&#45;&gt;140543360937320</title>
<path fill="none" stroke="#000000" d="M1671.2947,-495C1691.847,-495 1720.262,-495 1742.9552,-495"/>
<polygon fill="#000000" stroke="#000000" points="1743.2526,-498.5001 1753.2526,-495 1743.2525,-491.5001 1743.2526,-498.5001"/>
</g>
<!-- 140543358535328&#45;&gt;140543360937040 -->
<g id="edge45" class="edge">
<title>140543358535328&#45;&gt;140543360937040</title>
<path fill="none" stroke="#000000" d="M1192.0733,-159.3622C1199.6739,-159.4639 1208.4032,-159.5806 1217.6263,-159.704"/>
<polygon fill="#000000" stroke="#000000" points="1217.7522,-163.2059 1227.7982,-159.8401 1217.8459,-156.2066 1217.7522,-163.2059"/>
</g>
<!-- 140543358536000&#45;&gt;140543360937096 -->
<g id="edge46" class="edge">
<title>140543358536000&#45;&gt;140543360937096</title>
<path fill="none" stroke="#000000" d="M1670.968,-160.8511C1678.6708,-159.666 1687.4974,-158.3081 1696.7237,-156.8887"/>
<polygon fill="#000000" stroke="#000000" points="1697.5064,-160.3095 1706.8579,-155.3296 1696.4419,-153.3909 1697.5064,-160.3095"/>
</g>
<!-- 140543360937488&#45;&gt;140543360936928 -->
<g id="edge47" class="edge">
<title>140543360937488&#45;&gt;140543360936928</title>
<path fill="none" stroke="#000000" d="M1944.003,-330C1952.0277,-330 1960.9665,-330 1969.5309,-330"/>
<polygon fill="#000000" stroke="#000000" points="1969.7051,-333.5001 1979.705,-330 1969.705,-326.5001 1969.7051,-333.5001"/>
</g>
<!-- 140543358536896&#45;&gt;140543360937264 -->
<g id="edge48" class="edge">
<title>140543358536896&#45;&gt;140543360937264</title>
<path fill="none" stroke="#000000" d="M1192.0733,-410C1201.3147,-410 1212.2247,-410 1223.6622,-410"/>
<polygon fill="#000000" stroke="#000000" points="1223.8205,-413.5001 1233.8205,-410 1223.8204,-406.5001 1223.8205,-413.5001"/>
</g>
<!-- 140543360937712&#45;&gt;140543360937544 -->
<g id="edge54" class="edge">
<title>140543360937712&#45;&gt;140543360937544</title>
<path fill="none" stroke="#000000" d="M954.0248,-443.3916C970.5012,-450.2336 992.3401,-459.3023 1010.7118,-466.9312"/>
<polygon fill="#000000" stroke="#000000" points="1009.3785,-470.1672 1019.9562,-470.7699 1012.0631,-463.7024 1009.3785,-470.1672"/>
</g>
<!-- 140543358535552&#45;&gt;140543358535384 -->
<g id="edge55" class="edge">
<title>140543358535552&#45;&gt;140543358535384</title>
<path fill="none" stroke="#000000" d="M355.4739,-370.4955C371.8278,-341.9671 399.3453,-293.9643 416.5446,-263.961"/>
<polygon fill="#000000" stroke="#000000" points="419.5905,-265.6853 421.5273,-255.269 413.5175,-262.204 419.5905,-265.6853"/>
</g>
<!-- 140543358535832&#45;&gt;140543358535664 -->
<g id="edge56" class="edge">
<title>140543358535832&#45;&gt;140543358535664</title>
<path fill="none" stroke="#000000" d="M1670.6426,-88.3156C1691.3653,-84.672 1720.3636,-79.5734 1743.3638,-75.5294"/>
<polygon fill="#000000" stroke="#000000" points="1744.2153,-78.9335 1753.4581,-73.7546 1743.003,-72.0393 1744.2153,-78.9335"/>
</g>
<!-- 140543358536224&#45;&gt;140543358536056 -->
<g id="edge57" class="edge">
<title>140543358536224&#45;&gt;140543358536056</title>
<path fill="none" stroke="#000000" d="M956.0716,-165.7058C971.8489,-164.3687 991.9852,-162.6623 1009.2964,-161.1952"/>
<polygon fill="#000000" stroke="#000000" points="1009.9771,-164.6502 1019.6458,-160.3182 1009.3859,-157.6752 1009.9771,-164.6502"/>
</g>
<!-- 140543358536504&#45;&gt;140543358536336 -->
<g id="edge58" class="edge">
<title>140543358536504&#45;&gt;140543358536336</title>
<path fill="none" stroke="#000000" d="M1940.6464,-108.8631C1949.9112,-103.716 1960.7479,-97.6956 1970.9459,-92.03"/>
<polygon fill="#000000" stroke="#000000" points="1972.646,-95.0895 1979.6878,-87.1734 1969.2465,-88.9704 1972.646,-95.0895"/>
</g>
<!-- 140543358534040&#45;&gt;140543358533872 -->
<g id="edge59" class="edge">
<title>140543358534040&#45;&gt;140543358533872</title>
<path fill="none" stroke="#000000" d="M459.003,-581.4998C467.0277,-581.054 475.9665,-580.5574 484.5309,-580.0816"/>
<polygon fill="#000000" stroke="#000000" points="484.9146,-583.5658 494.705,-579.5164 484.5262,-576.5766 484.9146,-583.5658"/>
</g>
<!-- 140543358534320&#45;&gt;140543358534152 -->
<g id="edge60" class="edge">
<title>140543358534320&#45;&gt;140543358534152</title>
<path fill="none" stroke="#000000" d="M1192.0616,-338C1245.6279,-338 1365.2632,-338 1426.4265,-338"/>
<polygon fill="#000000" stroke="#000000" points="1426.7842,-341.5001 1436.7841,-338 1426.7841,-334.5001 1426.7842,-341.5001"/>
</g>
<!-- 140543358534600&#45;&gt;140543358534432 -->
<g id="edge61" class="edge">
<title>140543358534600&#45;&gt;140543358534432</title>
<path fill="none" stroke="#000000" d="M1671.2947,-237.9998C1691.847,-238.7526 1720.262,-239.7935 1742.9552,-240.6247"/>
<polygon fill="#000000" stroke="#000000" points="1743.1311,-244.1334 1753.2526,-241.0019 1743.3874,-237.1381 1743.1311,-244.1334"/>
</g>
<!-- 140543358534880&#45;&gt;140543358534712 -->
<g id="edge62" class="edge">
<title>140543358534880&#45;&gt;140543358534712</title>
<path fill="none" stroke="#000000" d="M1192.0733,-268.3542C1215.9183,-270.4277 1250.8722,-273.4672 1277.3332,-275.7681"/>
<polygon fill="#000000" stroke="#000000" points="1277.1103,-279.2618 1287.3759,-276.6414 1277.7167,-272.2882 1277.1103,-279.2618"/>
</g>
<!-- 140543358535160&#45;&gt;140543358534992 -->
<g id="edge63" class="edge">
<title>140543358535160&#45;&gt;140543358534992</title>
<path fill="none" stroke="#000000" d="M1671.2947,-384.2002C1691.847,-383.5979 1720.262,-382.7652 1742.9552,-382.1002"/>
<polygon fill="#000000" stroke="#000000" points="1743.3594,-385.59 1753.2526,-381.7985 1743.1543,-378.593 1743.3594,-385.59"/>
</g>
<!-- 140543358537344&#45;&gt;140543358537176 -->
<g id="edge64" class="edge">
<title>140543358537344&#45;&gt;140543358537176</title>
<path fill="none" stroke="#000000" d="M1943.0317,-502.8095C1951.4955,-505.3486 1961.055,-508.2165 1970.1543,-510.9463"/>
<polygon fill="#000000" stroke="#000000" points="1969.1898,-514.311 1979.7738,-513.8321 1971.2013,-507.6062 1969.1898,-514.311"/>
</g>
</g>
</svg>
