<?xml version="1.0" encoding="UTF-8" standalone="no"?>
<!DOCTYPE svg PUBLIC "-//W3C//DTD SVG 1.1//EN"
 "http://www.w3.org/Graphics/SVG/1.1/DTD/svg11.dtd">
<!-- Generated by graphviz version 2.40.1 (20161225.0304)
 -->
<!-- Title: imdf_net_1585281872.1408067 Pages: 1 -->
<svg width="912pt" height="751pt"
 viewBox="0.00 0.00 912.00 751.00" xmlns="http://www.w3.org/2000/svg" xmlns:xlink="http://www.w3.org/1999/xlink">
<g id="graph0" class="graph" transform="scale(1 1) rotate(0) translate(4 747)">
<title>imdf_net_1585281872.1408067</title>
<!-- 140543358094304 -->
<g id="node1" class="node">
<title>140543358094304</title>
<polygon fill="none" stroke="#000000" points="99,-283 0,-283 0,-247 99,-247 99,-283"/>
<text text-anchor="middle" x="49.5" y="-261.3" font-family="Times,serif" font-size="14.00" fill="#000000">ActionDecoder</text>
</g>
<!-- 140543358092904 -->
<g id="node25" class="node">
<title>140543358092904</title>
<ellipse fill="none" stroke="#000000" cx="162" cy="-312" rx="27" ry="27"/>
<text text-anchor="middle" x="162" y="-308.3" font-family="Times,serif" font-size="14.00" fill="#000000">p_6</text>
</g>
<!-- 140543358094304&#45;&gt;140543358092904 -->
<g id="edge1" class="edge">
<title>140543358094304&#45;&gt;140543358092904</title>
<path fill="none" stroke="#000000" d="M92.6737,-283.037C104.2716,-287.8824 116.6547,-293.0557 127.6989,-297.6698"/>
<polygon fill="#000000" stroke="#000000" points="126.4301,-300.9328 137.0064,-301.5582 129.1285,-294.4738 126.4301,-300.9328"/>
</g>
<!-- 140543358094640 -->
<g id="node2" class="node">
<title>140543358094640</title>
<polygon fill="none" stroke="#000000" points="778,-414 677,-414 677,-378 778,-378 778,-414"/>
<text text-anchor="middle" x="727.5" y="-392.3" font-family="Times,serif" font-size="14.00" fill="#000000">ActionMessage</text>
</g>
<!-- 140543358094640&#45;&gt;140543358092904 -->
<g id="edge4" class="edge">
<title>140543358094640&#45;&gt;140543358092904</title>
<path fill="none" stroke="#000000" d="M676.7922,-401.7522C623.0479,-407.3444 535.6567,-415 460,-415 342,-415 342,-415 342,-415 286.4444,-415 272.1826,-400.3296 225,-371 211.2474,-362.4511 197.8797,-350.6066 187.0223,-339.7721"/>
<polygon fill="#000000" stroke="#000000" points="189.415,-337.2122 179.9329,-332.4855 184.3978,-342.0937 189.415,-337.2122"/>
</g>
<!-- 140543358092848 -->
<g id="node3" class="node">
<title>140543358092848</title>
<polygon fill="none" stroke="#000000" points="509,-689 411,-689 411,-653 509,-653 509,-689"/>
<text text-anchor="middle" x="460" y="-667.3" font-family="Times,serif" font-size="14.00" fill="#000000">JSFLoginFilter</text>
</g>
<!-- 140543358092288 -->
<g id="node23" class="node">
<title>140543358092288</title>
<ellipse fill="none" stroke="#000000" cx="578" cy="-671" rx="27" ry="27"/>
<text text-anchor="middle" x="578" y="-667.3" font-family="Times,serif" font-size="14.00" fill="#000000">p_4</text>
</g>
<!-- 140543358092848&#45;&gt;140543358092288 -->
<g id="edge13" class="edge">
<title>140543358092848&#45;&gt;140543358092288</title>
<path fill="none" stroke="#000000" d="M509.0175,-671C519.6386,-671 530.7042,-671 540.7832,-671"/>
<polygon fill="#000000" stroke="#000000" points="540.8694,-674.5001 550.8694,-671 540.8694,-667.5001 540.8694,-674.5001"/>
</g>
<!-- 140543358094136 -->
<g id="node4" class="node">
<title>140543358094136</title>
<polygon fill="none" stroke="#000000" points="754.5,-360 700.5,-360 700.5,-324 754.5,-324 754.5,-360"/>
<text text-anchor="middle" x="727.5" y="-338.3" font-family="Times,serif" font-size="14.00" fill="#000000">Log</text>
</g>
<!-- 140543358094136&#45;&gt;140543358092904 -->
<g id="edge7" class="edge">
<title>140543358094136&#45;&gt;140543358092904</title>
<path fill="none" stroke="#000000" d="M700.3126,-347.9373C652.1388,-357.9229 548.5216,-377 460,-377 342,-377 342,-377 342,-377 287.5582,-377 229.0656,-350.3703 194.0119,-331.2006"/>
<polygon fill="#000000" stroke="#000000" points="195.6311,-328.0959 185.1957,-326.2645 192.2113,-334.2038 195.6311,-328.0959"/>
</g>
<!-- 140543358093632 -->
<g id="node5" class="node">
<title>140543358093632</title>
<polygon fill="none" stroke="#000000" points="809.5,-306 645.5,-306 645.5,-270 809.5,-270 809.5,-306"/>
<text text-anchor="middle" x="727.5" y="-284.3" font-family="Times,serif" font-size="14.00" fill="#000000">MarketSummaryDataBean</text>
</g>
<!-- 140543358093632&#45;&gt;140543358092904 -->
<g id="edge11" class="edge">
<title>140543358093632&#45;&gt;140543358092904</title>
<path fill="none" stroke="#000000" d="M667.8285,-306.0525C614.0219,-320.7236 532.4527,-339 460,-339 342,-339 342,-339 342,-339 291.8128,-339 234.6166,-328.6078 198.425,-320.7181"/>
<polygon fill="#000000" stroke="#000000" points="198.8708,-317.2315 188.3483,-318.4672 197.3448,-324.0631 198.8708,-317.2315"/>
</g>
<!-- 140543358093464 -->
<g id="node6" class="node">
<title>140543358093464</title>
<polygon fill="none" stroke="#000000" points="808.5,-252 646.5,-252 646.5,-216 808.5,-216 808.5,-252"/>
<text text-anchor="middle" x="727.5" y="-230.3" font-family="Times,serif" font-size="14.00" fill="#000000">MarketSummarySingleton</text>
</g>
<!-- 140543358093464&#45;&gt;140543358092904 -->
<g id="edge14" class="edge">
<title>140543358093464&#45;&gt;140543358092904</title>
<path fill="none" stroke="#000000" d="M646.4422,-231.6976C593.4037,-230.3853 522.5901,-229 460,-229 342,-229 342,-229 342,-229 288.0902,-229 272.9725,-236.405 225,-261 212.1275,-267.5996 199.4346,-277.1225 188.8527,-286.1567"/>
<polygon fill="#000000" stroke="#000000" points="186.3813,-283.6698 181.2041,-292.9136 191.0158,-288.9159 186.3813,-283.6698"/>
</g>
<!-- 140543358093968 -->
<g id="node7" class="node">
<title>140543358093968</title>
<polygon fill="none" stroke="#000000" points="814,-198 641,-198 641,-162 814,-162 814,-198"/>
<text text-anchor="middle" x="727.5" y="-176.3" font-family="Times,serif" font-size="14.00" fill="#000000">MarketSummaryWebSocket</text>
</g>
<!-- 140543358093968&#45;&gt;140543358092904 -->
<g id="edge6" class="edge">
<title>140543358093968&#45;&gt;140543358092904</title>
<path fill="none" stroke="#000000" d="M640.9834,-166.8164C588.7131,-159.9626 520.68,-153 460,-153 342,-153 342,-153 342,-153 266.5564,-153 207.8393,-232.4281 179.8922,-279.0068"/>
<polygon fill="#000000" stroke="#000000" points="176.7465,-277.4526 174.7172,-287.8513 182.7883,-280.9878 176.7465,-277.4526"/>
</g>
<!-- 140543360934464 -->
<g id="node8" class="node">
<title>140543360934464</title>
<polygon fill="none" stroke="#000000" points="515,-743 405,-743 405,-707 515,-707 515,-743"/>
<text text-anchor="middle" x="460" y="-721.3" font-family="Times,serif" font-size="14.00" fill="#000000">OrdersAlertFilter</text>
</g>
<!-- 140543360934464&#45;&gt;140543358092288 -->
<g id="edge3" class="edge">
<title>140543360934464&#45;&gt;140543358092288</title>
<path fill="none" stroke="#000000" d="M499.6206,-706.8686C514.0909,-700.2465 530.3108,-692.8239 544.2249,-686.4564"/>
<polygon fill="#000000" stroke="#000000" points="545.8028,-689.5834 553.4395,-682.2396 542.8899,-683.2183 545.8028,-689.5834"/>
</g>
<!-- 140543358093800 -->
<g id="node9" class="node">
<title>140543358093800</title>
<polygon fill="none" stroke="#000000" points="779,-90 676,-90 676,-54 779,-54 779,-90"/>
<text text-anchor="middle" x="727.5" y="-68.3" font-family="Times,serif" font-size="14.00" fill="#000000">QuoteDataBean</text>
</g>
<!-- 140543358093800&#45;&gt;140543358092904 -->
<g id="edge8" class="edge">
<title>140543358093800&#45;&gt;140543358092904</title>
<path fill="none" stroke="#000000" d="M675.9692,-72.3068C622.1025,-72.6008 535.1188,-73 460,-73 342,-73 342,-73 342,-73 285.4507,-73 263.3116,-81.4061 225,-123 185.7925,-165.5666 170.9239,-233.2288 165.3276,-274.998"/>
<polygon fill="#000000" stroke="#000000" points="161.8409,-274.6762 164.0954,-285.0284 168.7886,-275.5298 161.8409,-274.6762"/>
</g>
<!-- 140543358093128 -->
<g id="node10" class="node">
<title>140543358093128</title>
<polygon fill="none" stroke="#000000" points="801,-576 654,-576 654,-540 801,-540 801,-576"/>
<text text-anchor="middle" x="727.5" y="-554.3" font-family="Times,serif" font-size="14.00" fill="#000000">RecentStockChangeList</text>
</g>
<!-- 140543358093128&#45;&gt;140543358092904 -->
<g id="edge12" class="edge">
<title>140543358093128&#45;&gt;140543358092904</title>
<path fill="none" stroke="#000000" d="M653.9304,-545.7014C600.3248,-537.7974 525.8655,-529 460,-529 342,-529 342,-529 342,-529 283.561,-529 264.3734,-512.1839 225,-469 193.8868,-434.8757 177.2269,-383.4431 169.003,-348.8367"/>
<polygon fill="#000000" stroke="#000000" points="172.3261,-347.6616 166.7149,-338.6747 165.4971,-349.1993 172.3261,-347.6616"/>
</g>
<!-- 140543358092400 -->
<g id="node11" class="node">
<title>140543358092400</title>
<polygon fill="none" stroke="#000000" points="754.5,-689 700.5,-689 700.5,-653 754.5,-653 754.5,-689"/>
<text text-anchor="middle" x="727.5" y="-667.3" font-family="Times,serif" font-size="14.00" fill="#000000">Root</text>
</g>
<!-- 140543358556928 -->
<g id="node27" class="node">
<title>140543358556928</title>
<ellipse fill="#ffa500" stroke="#000000" cx="877" cy="-671" rx="27" ry="27"/>
</g>
<!-- 140543358092400&#45;&gt;140543358556928 -->
<g id="edge2" class="edge">
<title>140543358092400&#45;&gt;140543358556928</title>
<path fill="none" stroke="#000000" d="M754.5733,-671C778.4183,-671 813.3722,-671 839.8332,-671"/>
<polygon fill="#000000" stroke="#000000" points="839.8759,-674.5001 849.8759,-671 839.8759,-667.5001 839.8759,-674.5001"/>
</g>
<!-- 140543358093296 -->
<g id="node12" class="node">
<title>140543358093296</title>
<polygon fill="none" stroke="#000000" points="770,-144 685,-144 685,-108 770,-108 770,-144"/>
<text text-anchor="middle" x="727.5" y="-122.3" font-family="Times,serif" font-size="14.00" fill="#000000">TradeAction</text>
</g>
<!-- 140543358093296&#45;&gt;140543358092904 -->
<g id="edge10" class="edge">
<title>140543358093296&#45;&gt;140543358092904</title>
<path fill="none" stroke="#000000" d="M684.8993,-123.1672C632.1342,-119.908 539.4812,-115 460,-115 342,-115 342,-115 342,-115 284.7287,-115 265.1424,-128.1517 225,-169 195.8311,-198.6819 178.9984,-244.1372 170.1912,-275.8053"/>
<polygon fill="#000000" stroke="#000000" points="166.7832,-275.0025 167.6083,-285.5652 173.5503,-276.7934 166.7832,-275.0025"/>
</g>
<!-- 140543358094808 -->
<g id="node13" class="node">
<title>140543358094808</title>
<polygon fill="none" stroke="#000000" points="770.5,-522 684.5,-522 684.5,-486 770.5,-486 770.5,-522"/>
<text text-anchor="middle" x="727.5" y="-500.3" font-family="Times,serif" font-size="14.00" fill="#000000">TradeConfig</text>
</g>
<!-- 140543358094808&#45;&gt;140543358092904 -->
<g id="edge15" class="edge">
<title>140543358094808&#45;&gt;140543358092904</title>
<path fill="none" stroke="#000000" d="M684.4443,-500.6183C631.6102,-496.7665 539.2753,-491 460,-491 342,-491 342,-491 342,-491 284.1573,-491 266.3754,-474.4209 225,-434 200.3546,-409.9232 183.4563,-374.1444 173.4132,-347.5521"/>
<polygon fill="#000000" stroke="#000000" points="176.5962,-346.0625 169.8979,-337.8537 170.0152,-348.4479 176.5962,-346.0625"/>
</g>
<!-- 140543358094976 -->
<g id="node14" class="node">
<title>140543358094976</title>
<polygon fill="none" stroke="#000000" points="781.5,-36 673.5,-36 673.5,0 781.5,0 781.5,-36"/>
<text text-anchor="middle" x="727.5" y="-14.3" font-family="Times,serif" font-size="14.00" fill="#000000">TradeSLSBBean</text>
</g>
<!-- 140543358094976&#45;&gt;140543358092904 -->
<g id="edge5" class="edge">
<title>140543358094976&#45;&gt;140543358092904</title>
<path fill="none" stroke="#000000" d="M673.4619,-20.5643C619.4411,-22.9042 533.9903,-26 460,-26 342,-26 342,-26 342,-26 285.0955,-26 261.9965,-34.7637 225,-78 199.6479,-107.6279 177.9784,-217.0403 167.9511,-275.1584"/>
<polygon fill="#000000" stroke="#000000" points="164.4961,-274.5989 166.2726,-285.0437 171.3973,-275.7708 164.4961,-274.5989"/>
</g>
<!-- 140543358094472 -->
<g id="node15" class="node">
<title>140543358094472</title>
<polygon fill="none" stroke="#000000" points="808,-468 647,-468 647,-432 808,-432 808,-468"/>
<text text-anchor="middle" x="727.5" y="-446.3" font-family="Times,serif" font-size="14.00" fill="#000000">TradeWebContextListener</text>
</g>
<!-- 140543358094472&#45;&gt;140543358092904 -->
<g id="edge9" class="edge">
<title>140543358094472&#45;&gt;140543358092904</title>
<path fill="none" stroke="#000000" d="M646.7325,-451.3771C593.6598,-452.1657 522.6993,-453 460,-453 342,-453 342,-453 342,-453 285.0955,-453 269.0132,-437.0688 225,-401 206.2512,-385.6354 190.4965,-363.3747 179.4314,-344.9605"/>
<polygon fill="#000000" stroke="#000000" points="182.4351,-343.1633 174.3835,-336.2769 176.3833,-346.6813 182.4351,-343.1633"/>
</g>
<!-- 140543358092568 -->
<g id="node16" class="node">
<title>140543358092568</title>
<polygon fill="none" stroke="#000000" points="499.5,-635 420.5,-635 420.5,-599 499.5,-599 499.5,-635"/>
<text text-anchor="middle" x="460" y="-613.3" font-family="Times,serif" font-size="14.00" fill="#000000">init_loop_2</text>
</g>
<!-- 140543358092456 -->
<g id="node24" class="node">
<title>140543358092456</title>
<ellipse fill="none" stroke="#000000" cx="578" cy="-284" rx="27" ry="27"/>
<text text-anchor="middle" x="578" y="-280.3" font-family="Times,serif" font-size="14.00" fill="#000000">p_5</text>
</g>
<!-- 140543358092568&#45;&gt;140543358092456 -->
<g id="edge16" class="edge">
<title>140543358092568&#45;&gt;140543358092456</title>
<path fill="none" stroke="#000000" d="M466.5123,-598.6221C485.393,-545.3402 540.3988,-390.1118 565.3863,-319.5962"/>
<polygon fill="#000000" stroke="#000000" points="568.8062,-320.4239 568.8473,-309.8291 562.2082,-318.0858 568.8062,-320.4239"/>
</g>
<!-- 140543358092792 -->
<g id="node17" class="node">
<title>140543358092792</title>
<polygon fill="none" stroke="#000000" points="487,-302 433,-302 433,-266 487,-266 487,-302"/>
<text text-anchor="middle" x="460" y="-280.3" font-family="Times,serif" font-size="14.00" fill="#000000">loop_3</text>
</g>
<!-- 140543358092792&#45;&gt;140543358092456 -->
<g id="edge17" class="edge">
<title>140543358092792&#45;&gt;140543358092456</title>
<path fill="none" stroke="#000000" d="M487.0716,-284C502.8489,-284 522.9852,-284 540.2964,-284"/>
<polygon fill="#000000" stroke="#000000" points="540.6458,-287.5001 550.6458,-284 540.6457,-280.5001 540.6458,-287.5001"/>
</g>
<!-- 140543358095200 -->
<g id="node18" class="node">
<title>140543358095200</title>
<polygon fill="none" stroke="#000000" points="279,-306 225,-306 225,-270 279,-270 279,-306"/>
<text text-anchor="middle" x="252" y="-284.3" font-family="Times,serif" font-size="14.00" fill="#000000">skip_4</text>
</g>
<!-- 140543358093016 -->
<g id="node26" class="node">
<title>140543358093016</title>
<ellipse fill="none" stroke="#000000" cx="342" cy="-284" rx="27" ry="27"/>
<text text-anchor="middle" x="342" y="-280.3" font-family="Times,serif" font-size="14.00" fill="#000000">p_7</text>
</g>
<!-- 140543358095200&#45;&gt;140543358093016 -->
<g id="edge37" class="edge">
<title>140543358095200&#45;&gt;140543358093016</title>
<path fill="none" stroke="#000000" d="M279.003,-286.7999C287.1013,-286.4399 296.1306,-286.0386 304.7665,-285.6548"/>
<polygon fill="#000000" stroke="#000000" points="305.1814,-289.1399 315.0161,-285.1993 304.8705,-282.1468 305.1814,-289.1399"/>
</g>
<!-- 140543360934016 -->
<g id="node19" class="node">
<title>140543360934016</title>
<polygon fill="none" stroke="#000000" points="369,-593 315,-593 315,-557 369,-557 369,-593"/>
<text text-anchor="middle" x="342" y="-571.3" font-family="Times,serif" font-size="14.00" fill="#000000">skip_5</text>
</g>
<!-- 140543360934016&#45;&gt;140543358092288 -->
<g id="edge38" class="edge">
<title>140543360934016&#45;&gt;140543358092288</title>
<path fill="none" stroke="#000000" d="M369.0788,-570.9843C404.8281,-567.0395 468.6531,-564.7935 515,-590 534.7244,-600.7274 550.297,-620.5243 561.0251,-637.8606"/>
<polygon fill="#000000" stroke="#000000" points="558.1031,-639.7963 566.19,-646.6411 564.1366,-636.2471 558.1031,-639.7963"/>
</g>
<!-- 140543358555976 -->
<g id="node20" class="node">
<title>140543358555976</title>
<polygon fill="none" stroke="#000000" points="279,-689 225,-689 225,-653 279,-653 279,-689"/>
<text text-anchor="middle" x="252" y="-667.3" font-family="Times,serif" font-size="14.00" fill="#000000">tau_1</text>
</g>
<!-- 140543358557208 -->
<g id="node22" class="node">
<title>140543358557208</title>
<ellipse fill="none" stroke="#000000" cx="342" cy="-671" rx="27" ry="27"/>
<text text-anchor="middle" x="342" y="-667.3" font-family="Times,serif" font-size="14.00" fill="#000000">p_3</text>
</g>
<!-- 140543358555976&#45;&gt;140543358557208 -->
<g id="edge40" class="edge">
<title>140543358555976&#45;&gt;140543358557208</title>
<path fill="none" stroke="#000000" d="M279.003,-671C287.0277,-671 295.9665,-671 304.5309,-671"/>
<polygon fill="#000000" stroke="#000000" points="304.7051,-674.5001 314.705,-671 304.705,-667.5001 304.7051,-674.5001"/>
</g>
<!-- 140543358556312 -->
<g id="node21" class="node">
<title>140543358556312</title>
<ellipse fill="#00ff00" stroke="#000000" cx="162" cy="-671" rx="27" ry="27"/>
<text text-anchor="middle" x="162" y="-667.3" font-family="Times,serif" font-size="14.00" fill="#000000">1</text>
</g>
<!-- 140543358556312&#45;&gt;140543358555976 -->
<g id="edge39" class="edge">
<title>140543358556312&#45;&gt;140543358555976</title>
<path fill="none" stroke="#000000" d="M189.003,-671C197.0277,-671 205.9665,-671 214.5309,-671"/>
<polygon fill="#000000" stroke="#000000" points="214.7051,-674.5001 224.705,-671 214.705,-667.5001 214.7051,-674.5001"/>
</g>
<!-- 140543358557208&#45;&gt;140543358092848 -->
<g id="edge19" class="edge">
<title>140543358557208&#45;&gt;140543358092848</title>
<path fill="none" stroke="#000000" d="M369.0716,-671C378.5528,-671 389.6083,-671 400.6788,-671"/>
<polygon fill="#000000" stroke="#000000" points="400.8052,-674.5001 410.8052,-671 400.8051,-667.5001 400.8052,-674.5001"/>
</g>
<!-- 140543358557208&#45;&gt;140543360934464 -->
<g id="edge18" class="edge">
<title>140543358557208&#45;&gt;140543360934464</title>
<path fill="none" stroke="#000000" d="M366.7367,-682.3202C379.6087,-688.2108 395.8105,-695.6251 411.0833,-702.6144"/>
<polygon fill="#000000" stroke="#000000" points="409.8851,-705.9151 420.4346,-706.8938 412.798,-699.5499 409.8851,-705.9151"/>
</g>
<!-- 140543358557208&#45;&gt;140543358092568 -->
<g id="edge20" class="edge">
<title>140543358557208&#45;&gt;140543358092568</title>
<path fill="none" stroke="#000000" d="M366.7367,-659.6798C379.6087,-653.7892 395.8105,-646.3749 411.0833,-639.3856"/>
<polygon fill="#000000" stroke="#000000" points="412.798,-642.4501 420.4346,-635.1062 409.8851,-636.0849 412.798,-642.4501"/>
</g>
<!-- 140543358092288&#45;&gt;140543358092400 -->
<g id="edge21" class="edge">
<title>140543358092288&#45;&gt;140543358092400</title>
<path fill="none" stroke="#000000" d="M605.0733,-671C628.9183,-671 663.8722,-671 690.3332,-671"/>
<polygon fill="#000000" stroke="#000000" points="690.3759,-674.5001 700.3759,-671 690.3759,-667.5001 690.3759,-674.5001"/>
</g>
<!-- 140543358092456&#45;&gt;140543358094304 -->
<g id="edge22" class="edge">
<title>140543358092456&#45;&gt;140543358094304</title>
<path fill="none" stroke="#000000" d="M555.7141,-268.6429C515.143,-242.2283 425.6736,-191 342,-191 252,-191 252,-191 252,-191 191.7518,-191 127.2111,-220.2549 87.594,-241.9762"/>
<polygon fill="#000000" stroke="#000000" points="85.8194,-238.9584 78.8036,-246.8976 89.239,-245.0664 85.8194,-238.9584"/>
</g>
<!-- 140543358092456&#45;&gt;140543358094640 -->
<g id="edge23" class="edge">
<title>140543358092456&#45;&gt;140543358094640</title>
<path fill="none" stroke="#000000" d="M590.3449,-308.2128C601.2455,-327.3049 618.8393,-353.254 641,-369 648.9,-374.6132 658.0066,-379.0884 667.2818,-382.6482"/>
<polygon fill="#000000" stroke="#000000" points="666.3702,-386.0372 676.965,-386.0359 668.6818,-379.4299 666.3702,-386.0372"/>
</g>
<!-- 140543358092456&#45;&gt;140543358094136 -->
<g id="edge26" class="edge">
<title>140543358092456&#45;&gt;140543358094136</title>
<path fill="none" stroke="#000000" d="M601.8359,-296.8153C613.4572,-302.7812 627.7548,-309.711 641,-315 656.9399,-321.3651 675.0042,-327.2088 690.4869,-331.8195"/>
<polygon fill="#000000" stroke="#000000" points="689.6602,-335.2241 700.2402,-334.6643 691.6203,-328.5041 689.6602,-335.2241"/>
</g>
<!-- 140543358092456&#45;&gt;140543358093632 -->
<g id="edge30" class="edge">
<title>140543358092456&#45;&gt;140543358093632</title>
<path fill="none" stroke="#000000" d="M605.0733,-284.7244C613.8993,-284.9605 624.2471,-285.2374 635.1229,-285.5284"/>
<polygon fill="#000000" stroke="#000000" points="635.1408,-289.03 645.2308,-285.7988 635.3281,-282.0325 635.1408,-289.03"/>
</g>
<!-- 140543358092456&#45;&gt;140543358093464 -->
<g id="edge32" class="edge">
<title>140543358092456&#45;&gt;140543358093464</title>
<path fill="none" stroke="#000000" d="M603.3454,-274.4356C614.8016,-270.193 628.537,-265.2174 641,-261 646.6324,-259.094 652.4873,-257.1623 658.376,-255.2539"/>
<polygon fill="#000000" stroke="#000000" points="659.8335,-258.4621 668.2852,-252.0731 657.694,-251.797 659.8335,-258.4621"/>
</g>
<!-- 140543358092456&#45;&gt;140543358093968 -->
<g id="edge25" class="edge">
<title>140543358092456&#45;&gt;140543358093968</title>
<path fill="none" stroke="#000000" d="M591.7873,-260.6723C603.0288,-243.5403 620.3856,-220.9166 641,-207 643.1677,-205.5366 645.4187,-204.1494 647.7329,-202.8347"/>
<polygon fill="#000000" stroke="#000000" points="649.6316,-205.7944 656.9309,-198.1151 646.4359,-199.5664 649.6316,-205.7944"/>
</g>
<!-- 140543358092456&#45;&gt;140543358093800 -->
<g id="edge27" class="edge">
<title>140543358092456&#45;&gt;140543358093800</title>
<path fill="none" stroke="#000000" d="M579.6965,-257.0366C583.6649,-217.009 596.8999,-141.9824 641,-99 648.0976,-92.0823 656.9404,-86.9342 666.2397,-83.1037"/>
<polygon fill="#000000" stroke="#000000" points="667.4344,-86.3936 675.6434,-79.6957 665.0493,-79.8125 667.4344,-86.3936"/>
</g>
<!-- 140543358092456&#45;&gt;140543358093128 -->
<g id="edge31" class="edge">
<title>140543358092456&#45;&gt;140543358093128</title>
<path fill="none" stroke="#000000" d="M581.5323,-310.9622C589.5438,-368.1806 610.7728,-499.1325 641,-531 642.421,-532.4981 643.9236,-533.9135 645.4958,-535.2509"/>
<polygon fill="#000000" stroke="#000000" points="643.7247,-538.2891 653.8804,-541.3077 647.8237,-532.6148 643.7247,-538.2891"/>
</g>
<!-- 140543358092456&#45;&gt;140543358093296 -->
<g id="edge29" class="edge">
<title>140543358092456&#45;&gt;140543358093296</title>
<path fill="none" stroke="#000000" d="M583.9855,-257.4996C592.016,-227.905 609.109,-180.5526 641,-153 650.6751,-144.6411 662.9253,-138.8683 675.1405,-134.8821"/>
<polygon fill="#000000" stroke="#000000" points="676.2528,-138.2038 684.8794,-132.053 674.3,-131.4817 676.2528,-138.2038"/>
</g>
<!-- 140543358092456&#45;&gt;140543358094808 -->
<g id="edge33" class="edge">
<title>140543358092456&#45;&gt;140543358094808</title>
<path fill="none" stroke="#000000" d="M583.5699,-310.8064C593.8876,-358.0582 617.1071,-453.4149 641,-477 650.0994,-485.9822 662.1395,-491.9825 674.3359,-495.9889"/>
<polygon fill="#000000" stroke="#000000" points="673.5199,-499.396 684.0976,-498.7934 675.4528,-492.6681 673.5199,-499.396"/>
</g>
<!-- 140543358092456&#45;&gt;140543358094976 -->
<g id="edge24" class="edge">
<title>140543358092456&#45;&gt;140543358094976</title>
<path fill="none" stroke="#000000" d="M581.7783,-257.0606C590.1194,-201.2474 611.716,-75.6269 641,-45 647.3874,-38.3198 655.3987,-33.2836 663.9522,-29.4888"/>
<polygon fill="#000000" stroke="#000000" points="665.3294,-32.7089 673.3953,-25.8392 662.8059,-26.1796 665.3294,-32.7089"/>
</g>
<!-- 140543358092456&#45;&gt;140543358094472 -->
<g id="edge28" class="edge">
<title>140543358092456&#45;&gt;140543358094472</title>
<path fill="none" stroke="#000000" d="M583.1931,-310.697C590.6436,-341.9636 607.3531,-393.2562 641,-423 642.2965,-424.1461 643.6414,-425.2436 645.0279,-426.2946"/>
<polygon fill="#000000" stroke="#000000" points="643.1085,-429.2213 653.3801,-431.8185 646.97,-423.3827 643.1085,-429.2213"/>
</g>
<!-- 140543358092904&#45;&gt;140543358095200 -->
<g id="edge34" class="edge">
<title>140543358092904&#45;&gt;140543358095200</title>
<path fill="none" stroke="#000000" d="M188.5162,-304.929C196.8043,-302.7189 206.1048,-300.2387 214.9779,-297.8726"/>
<polygon fill="#000000" stroke="#000000" points="215.977,-301.2285 224.7375,-295.27 214.1733,-294.4649 215.977,-301.2285"/>
</g>
<!-- 140543358092904&#45;&gt;140543360934016 -->
<g id="edge35" class="edge">
<title>140543358092904&#45;&gt;140543360934016</title>
<path fill="none" stroke="#000000" d="M165.9493,-338.9534C174.4624,-393.4711 196.1312,-514.1103 225,-543 245.867,-563.8821 278.9647,-571.4898 304.6408,-574.0994"/>
<polygon fill="#000000" stroke="#000000" points="304.531,-577.6018 314.7795,-574.9151 305.0924,-570.6244 304.531,-577.6018"/>
</g>
<!-- 140543358093016&#45;&gt;140543358092792 -->
<g id="edge36" class="edge">
<title>140543358093016&#45;&gt;140543358092792</title>
<path fill="none" stroke="#000000" d="M369.0716,-284C384.8489,-284 404.9852,-284 422.2964,-284"/>
<polygon fill="#000000" stroke="#000000" points="422.6458,-287.5001 432.6458,-284 422.6457,-280.5001 422.6458,-287.5001"/>
</g>
</g>
</svg>
