<?xml version="1.0" encoding="UTF-8" standalone="no"?>
<!DOCTYPE svg PUBLIC "-//W3C//DTD SVG 1.1//EN"
 "http://www.w3.org/Graphics/SVG/1.1/DTD/svg11.dtd">
<!-- Generated by graphviz version 2.40.1 (20161225.0304)
 -->
<!-- Title: imdf_net_1586496135.427121 Pages: 1 -->
<svg width="900pt" height="935pt"
 viewBox="0.00 0.00 900.00 935.00" xmlns="http://www.w3.org/2000/svg" xmlns:xlink="http://www.w3.org/1999/xlink">
<g id="graph0" class="graph" transform="scale(1 1) rotate(0) translate(4 931)">
<title>imdf_net_1586496135.427121</title>
<!-- 139748193449856 -->
<g id="node1" class="node">
<title>139748193449856</title>
<polygon fill="none" stroke="#000000" points="99,-391 0,-391 0,-355 99,-355 99,-391"/>
<text text-anchor="middle" x="49.5" y="-369.3" font-family="Times,serif" font-size="14.00" fill="#000000">ActionDecoder</text>
</g>
<!-- 139748193448400 -->
<g id="node29" class="node">
<title>139748193448400</title>
<ellipse fill="none" stroke="#000000" cx="162" cy="-420" rx="27" ry="27"/>
<text text-anchor="middle" x="162" y="-416.3" font-family="Times,serif" font-size="14.00" fill="#000000">p_6</text>
</g>
<!-- 139748193449856&#45;&gt;139748193448400 -->
<g id="edge14" class="edge">
<title>139748193449856&#45;&gt;139748193448400</title>
<path fill="none" stroke="#000000" d="M92.6737,-391.037C104.2716,-395.8824 116.6547,-401.0557 127.6989,-405.6698"/>
<polygon fill="#000000" stroke="#000000" points="126.4301,-408.9328 137.0064,-409.5582 129.1285,-402.4738 126.4301,-408.9328"/>
</g>
<!-- 139748193448848 -->
<g id="node2" class="node">
<title>139748193448848</title>
<polygon fill="none" stroke="#000000" points="766,-630 665,-630 665,-594 766,-594 766,-630"/>
<text text-anchor="middle" x="715.5" y="-608.3" font-family="Times,serif" font-size="14.00" fill="#000000">ActionMessage</text>
</g>
<!-- 139748193448848&#45;&gt;139748193448400 -->
<g id="edge11" class="edge">
<title>139748193448848&#45;&gt;139748193448400</title>
<path fill="none" stroke="#000000" d="M664.9174,-607.9935C612.2702,-604.1738 527.4104,-599 454,-599 342,-599 342,-599 342,-599 284.1573,-599 266.3754,-582.4209 225,-542 200.3546,-517.9232 183.4563,-482.1444 173.4132,-455.5521"/>
<polygon fill="#000000" stroke="#000000" points="176.5962,-454.0625 169.8979,-445.8537 170.0152,-456.4479 176.5962,-454.0625"/>
</g>
<!-- 139748193450864 -->
<g id="node3" class="node">
<title>139748193450864</title>
<polygon fill="none" stroke="#000000" points="762,-576 669,-576 669,-540 762,-540 762,-576"/>
<text text-anchor="middle" x="715.5" y="-554.3" font-family="Times,serif" font-size="14.00" fill="#000000">FinancialUtils</text>
</g>
<!-- 139748193450864&#45;&gt;139748193448400 -->
<g id="edge6" class="edge">
<title>139748193450864&#45;&gt;139748193448400</title>
<path fill="none" stroke="#000000" d="M668.7364,-558.8597C616.4187,-559.7462 529.1408,-561 454,-561 342,-561 342,-561 342,-561 285.0955,-561 269.0132,-545.0688 225,-509 206.2512,-493.6354 190.4965,-471.3747 179.4314,-452.9605"/>
<polygon fill="#000000" stroke="#000000" points="182.4351,-451.1633 174.3835,-444.2769 176.3833,-454.6813 182.4351,-451.1633"/>
</g>
<!-- 139748193451928 -->
<g id="node4" class="node">
<title>139748193451928</title>
<polygon fill="none" stroke="#000000" points="503,-927 405,-927 405,-891 503,-891 503,-927"/>
<text text-anchor="middle" x="454" y="-905.3" font-family="Times,serif" font-size="14.00" fill="#000000">JSFLoginFilter</text>
</g>
<!-- 139748191080176 -->
<g id="node27" class="node">
<title>139748191080176</title>
<ellipse fill="none" stroke="#000000" cx="566" cy="-855" rx="27" ry="27"/>
<text text-anchor="middle" x="566" y="-851.3" font-family="Times,serif" font-size="14.00" fill="#000000">p_4</text>
</g>
<!-- 139748193451928&#45;&gt;139748191080176 -->
<g id="edge8" class="edge">
<title>139748193451928&#45;&gt;139748191080176</title>
<path fill="none" stroke="#000000" d="M491.6059,-890.8686C504.6713,-884.5692 519.2393,-877.5453 531.9966,-871.3945"/>
<polygon fill="#000000" stroke="#000000" points="533.8566,-874.3833 541.3442,-866.8876 530.8165,-868.0779 533.8566,-874.3833"/>
</g>
<!-- 139748193450696 -->
<g id="node5" class="node">
<title>139748193450696</title>
<polygon fill="none" stroke="#000000" points="742.5,-522 688.5,-522 688.5,-486 742.5,-486 742.5,-522"/>
<text text-anchor="middle" x="715.5" y="-500.3" font-family="Times,serif" font-size="14.00" fill="#000000">Log</text>
</g>
<!-- 139748193450696&#45;&gt;139748193448400 -->
<g id="edge10" class="edge">
<title>139748193450696&#45;&gt;139748193448400</title>
<path fill="none" stroke="#000000" d="M688.4424,-507.2662C641.0277,-512.6986 539.8033,-523 454,-523 342,-523 342,-523 342,-523 286.4444,-523 272.1826,-508.3296 225,-479 211.2474,-470.4511 197.8797,-458.6066 187.0223,-447.7721"/>
<polygon fill="#000000" stroke="#000000" points="189.415,-445.2122 179.9329,-440.4855 184.3978,-450.0937 189.415,-445.2122"/>
</g>
<!-- 139748193449016 -->
<g id="node6" class="node">
<title>139748193449016</title>
<polygon fill="none" stroke="#000000" points="797.5,-468 633.5,-468 633.5,-432 797.5,-432 797.5,-468"/>
<text text-anchor="middle" x="715.5" y="-446.3" font-family="Times,serif" font-size="14.00" fill="#000000">MarketSummaryDataBean</text>
</g>
<!-- 139748193449016&#45;&gt;139748193448400 -->
<g id="edge18" class="edge">
<title>139748193449016&#45;&gt;139748193448400</title>
<path fill="none" stroke="#000000" d="M633.4332,-466.68C582.0968,-475.6946 514.4615,-485 454,-485 342,-485 342,-485 342,-485 287.5582,-485 229.0656,-458.3703 194.0119,-439.2006"/>
<polygon fill="#000000" stroke="#000000" points="195.6311,-436.0959 185.1957,-434.2645 192.2113,-442.2038 195.6311,-436.0959"/>
</g>
<!-- 139748193451032 -->
<g id="node7" class="node">
<title>139748193451032</title>
<polygon fill="none" stroke="#000000" points="796.5,-414 634.5,-414 634.5,-378 796.5,-378 796.5,-414"/>
<text text-anchor="middle" x="715.5" y="-392.3" font-family="Times,serif" font-size="14.00" fill="#000000">MarketSummarySingleton</text>
</g>
<!-- 139748193451032&#45;&gt;139748193448400 -->
<g id="edge3" class="edge">
<title>139748193451032&#45;&gt;139748193448400</title>
<path fill="none" stroke="#000000" d="M657.1948,-414.0525C604.6135,-428.7236 524.8853,-447 454,-447 342,-447 342,-447 342,-447 291.8128,-447 234.6166,-436.6078 198.425,-428.7181"/>
<polygon fill="#000000" stroke="#000000" points="198.8708,-425.2315 188.3483,-426.4672 197.3448,-432.0631 198.8708,-425.2315"/>
</g>
<!-- 139748193449520 -->
<g id="node8" class="node">
<title>139748193449520</title>
<polygon fill="none" stroke="#000000" points="802,-360 629,-360 629,-324 802,-324 802,-360"/>
<text text-anchor="middle" x="715.5" y="-338.3" font-family="Times,serif" font-size="14.00" fill="#000000">MarketSummaryWebSocket</text>
</g>
<!-- 139748193449520&#45;&gt;139748193448400 -->
<g id="edge1" class="edge">
<title>139748193449520&#45;&gt;139748193448400</title>
<path fill="none" stroke="#000000" d="M628.9365,-339.5146C578.0076,-338.2598 512.3488,-337 454,-337 342,-337 342,-337 342,-337 288.0902,-337 272.9725,-344.405 225,-369 212.1275,-375.5996 199.4346,-385.1225 188.8527,-394.1567"/>
<polygon fill="#000000" stroke="#000000" points="186.3813,-391.6698 181.2041,-400.9136 191.0158,-396.9159 186.3813,-391.6698"/>
</g>
<!-- 139748193448624 -->
<g id="node9" class="node">
<title>139748193448624</title>
<polygon fill="none" stroke="#000000" points="770.5,-306 660.5,-306 660.5,-270 770.5,-270 770.5,-306"/>
<text text-anchor="middle" x="715.5" y="-284.3" font-family="Times,serif" font-size="14.00" fill="#000000">OrdersAlertFilter</text>
</g>
<!-- 139748193448624&#45;&gt;139748193448400 -->
<g id="edge15" class="edge">
<title>139748193448624&#45;&gt;139748193448400</title>
<path fill="none" stroke="#000000" d="M660.3205,-278.9719C607.5136,-271.1228 525.5417,-261 454,-261 342,-261 342,-261 342,-261 266.5564,-261 207.8393,-340.4281 179.8922,-387.0068"/>
<polygon fill="#000000" stroke="#000000" points="176.7465,-385.4526 174.7172,-395.8513 182.7883,-388.9878 176.7465,-385.4526"/>
</g>
<!-- 139748193448288 -->
<g id="node10" class="node">
<title>139748193448288</title>
<polygon fill="none" stroke="#000000" points="494,-873 414,-873 414,-837 494,-837 494,-873"/>
<text text-anchor="middle" x="454" y="-851.3" font-family="Times,serif" font-size="14.00" fill="#000000">PingServlet</text>
</g>
<!-- 139748193448288&#45;&gt;139748191080176 -->
<g id="edge16" class="edge">
<title>139748193448288&#45;&gt;139748191080176</title>
<path fill="none" stroke="#000000" d="M494.1182,-855C505.3439,-855 517.4977,-855 528.5617,-855"/>
<polygon fill="#000000" stroke="#000000" points="528.7696,-858.5001 538.7695,-855 528.7695,-851.5001 528.7696,-858.5001"/>
</g>
<!-- 139748193450024 -->
<g id="node11" class="node">
<title>139748193450024</title>
<polygon fill="none" stroke="#000000" points="767,-198 664,-198 664,-162 767,-162 767,-198"/>
<text text-anchor="middle" x="715.5" y="-176.3" font-family="Times,serif" font-size="14.00" fill="#000000">QuoteDataBean</text>
</g>
<!-- 139748193450024&#45;&gt;139748193448400 -->
<g id="edge9" class="edge">
<title>139748193450024&#45;&gt;139748193448400</title>
<path fill="none" stroke="#000000" d="M663.8984,-180.3137C611.153,-180.6069 526.8664,-181 454,-181 342,-181 342,-181 342,-181 285.4507,-181 263.3116,-189.4061 225,-231 185.7925,-273.5666 170.9239,-341.2288 165.3276,-382.998"/>
<polygon fill="#000000" stroke="#000000" points="161.8409,-382.6762 164.0954,-393.0284 168.7886,-383.5298 161.8409,-382.6762"/>
</g>
<!-- 139748193449184 -->
<g id="node12" class="node">
<title>139748193449184</title>
<polygon fill="none" stroke="#000000" points="789,-90 642,-90 642,-54 789,-54 789,-90"/>
<text text-anchor="middle" x="715.5" y="-68.3" font-family="Times,serif" font-size="14.00" fill="#000000">RecentStockChangeList</text>
</g>
<!-- 139748193449184&#45;&gt;139748193448400 -->
<g id="edge7" class="edge">
<title>139748193449184&#45;&gt;139748193448400</title>
<path fill="none" stroke="#000000" d="M641.7442,-78.9248C589.3996,-83.249 517.4505,-88 454,-88 342,-88 342,-88 342,-88 285.2745,-88 261.1141,-95.2558 225,-139 194.4846,-175.9626 174.3384,-315.1941 166.1474,-382.7614"/>
<polygon fill="#000000" stroke="#000000" points="162.6396,-382.6206 164.9357,-392.9636 169.5907,-383.4462 162.6396,-382.6206"/>
</g>
<!-- 139748191080288 -->
<g id="node13" class="node">
<title>139748191080288</title>
<polygon fill="none" stroke="#000000" points="742.5,-873 688.5,-873 688.5,-837 742.5,-837 742.5,-873"/>
<text text-anchor="middle" x="715.5" y="-851.3" font-family="Times,serif" font-size="14.00" fill="#000000">Root</text>
</g>
<!-- 139748191076424 -->
<g id="node31" class="node">
<title>139748191076424</title>
<ellipse fill="#ffa500" stroke="#000000" cx="865" cy="-855" rx="27" ry="27"/>
</g>
<!-- 139748191080288&#45;&gt;139748191076424 -->
<g id="edge13" class="edge">
<title>139748191080288&#45;&gt;139748191076424</title>
<path fill="none" stroke="#000000" d="M742.5733,-855C766.4183,-855 801.3722,-855 827.8332,-855"/>
<polygon fill="#000000" stroke="#000000" points="827.8759,-858.5001 837.8759,-855 827.8759,-851.5001 827.8759,-858.5001"/>
</g>
<!-- 139748193449352 -->
<g id="node14" class="node">
<title>139748193449352</title>
<polygon fill="none" stroke="#000000" points="758,-36 673,-36 673,0 758,0 758,-36"/>
<text text-anchor="middle" x="715.5" y="-14.3" font-family="Times,serif" font-size="14.00" fill="#000000">TradeAction</text>
</g>
<!-- 139748193449352&#45;&gt;139748193448400 -->
<g id="edge4" class="edge">
<title>139748193449352&#45;&gt;139748193448400</title>
<path fill="none" stroke="#000000" d="M672.9513,-21.1529C621.2251,-24.7083 531.26,-30 454,-30 342,-30 342,-30 342,-30 282.9407,-30 259.9657,-45.4037 225,-93 191.328,-138.8353 172.2014,-307.3616 165.1512,-382.9204"/>
<polygon fill="#000000" stroke="#000000" points="161.66,-382.6658 164.2363,-392.9427 168.631,-383.3023 161.66,-382.6658"/>
</g>
<!-- 139748193450192 -->
<g id="node15" class="node">
<title>139748193450192</title>
<polygon fill="none" stroke="#000000" points="770.5,-792 660.5,-792 660.5,-756 770.5,-756 770.5,-792"/>
<text text-anchor="middle" x="715.5" y="-770.3" font-family="Times,serif" font-size="14.00" fill="#000000">TradeAppServlet</text>
</g>
<!-- 139748193450192&#45;&gt;139748193448400 -->
<g id="edge12" class="edge">
<title>139748193450192&#45;&gt;139748193448400</title>
<path fill="none" stroke="#000000" d="M660.4929,-758.0526C596.2404,-739.9789 493.6837,-713 454,-713 342,-713 342,-713 342,-713 283.3569,-713 261.7684,-697.6847 225,-652 200.8578,-622.0034 178.7887,-514.7235 168.3462,-457.1497"/>
<polygon fill="#000000" stroke="#000000" points="171.7384,-456.236 166.5337,-447.0076 164.8476,-457.4674 171.7384,-456.236"/>
</g>
<!-- 139748193449688 -->
<g id="node16" class="node">
<title>139748193449688</title>
<polygon fill="none" stroke="#000000" points="758.5,-252 672.5,-252 672.5,-216 758.5,-216 758.5,-252"/>
<text text-anchor="middle" x="715.5" y="-230.3" font-family="Times,serif" font-size="14.00" fill="#000000">TradeConfig</text>
</g>
<!-- 139748193449688&#45;&gt;139748193448400 -->
<g id="edge17" class="edge">
<title>139748193449688&#45;&gt;139748193448400</title>
<path fill="none" stroke="#000000" d="M672.4894,-231.0811C620.6873,-227.8223 531.0199,-223 454,-223 342,-223 342,-223 342,-223 284.7287,-223 265.1424,-236.1517 225,-277 195.8311,-306.6819 178.9984,-352.1372 170.1912,-383.8053"/>
<polygon fill="#000000" stroke="#000000" points="166.7832,-383.0025 167.6083,-393.5652 173.5503,-384.7934 166.7832,-383.0025"/>
</g>
<!-- 139748193450360 -->
<g id="node17" class="node">
<title>139748193450360</title>
<polygon fill="none" stroke="#000000" points="769.5,-738 661.5,-738 661.5,-702 769.5,-702 769.5,-738"/>
<text text-anchor="middle" x="715.5" y="-716.3" font-family="Times,serif" font-size="14.00" fill="#000000">TradeSLSBBean</text>
</g>
<!-- 139748193450360&#45;&gt;139748193448400 -->
<g id="edge19" class="edge">
<title>139748193450360&#45;&gt;139748193448400</title>
<path fill="none" stroke="#000000" d="M661.3745,-705.1406C608.8145,-692.0331 526.5549,-675 454,-675 342,-675 342,-675 342,-675 283.3569,-675 262.873,-658.7733 225,-614 186.6287,-568.6376 171.4929,-499.4045 165.6179,-457.0752"/>
<polygon fill="#000000" stroke="#000000" points="169.0597,-456.3973 164.3153,-446.9241 162.1166,-457.2883 169.0597,-456.3973"/>
</g>
<!-- 139748193451200 -->
<g id="node18" class="node">
<title>139748193451200</title>
<polygon fill="none" stroke="#000000" points="777,-144 654,-144 654,-108 777,-108 777,-144"/>
<text text-anchor="middle" x="715.5" y="-122.3" font-family="Times,serif" font-size="14.00" fill="#000000">TradeServletAction</text>
</g>
<!-- 139748193451200&#45;&gt;139748193448400 -->
<g id="edge5" class="edge">
<title>139748193451200&#45;&gt;139748193448400</title>
<path fill="none" stroke="#000000" d="M653.9623,-128.9448C600.9807,-131.2259 522.4715,-134 454,-134 342,-134 342,-134 342,-134 285.0955,-134 261.9965,-142.7637 225,-186 199.6479,-215.6279 177.9784,-325.0403 167.9511,-383.1584"/>
<polygon fill="#000000" stroke="#000000" points="164.4961,-382.5989 166.2726,-393.0437 171.3973,-383.7708 164.4961,-382.5989"/>
</g>
<!-- 139748193450528 -->
<g id="node19" class="node">
<title>139748193450528</title>
<polygon fill="none" stroke="#000000" points="796,-684 635,-684 635,-648 796,-648 796,-684"/>
<text text-anchor="middle" x="715.5" y="-662.3" font-family="Times,serif" font-size="14.00" fill="#000000">TradeWebContextListener</text>
</g>
<!-- 139748193450528&#45;&gt;139748193448400 -->
<g id="edge2" class="edge">
<title>139748193450528&#45;&gt;139748193448400</title>
<path fill="none" stroke="#000000" d="M634.7709,-652.3916C583.2168,-644.8569 514.8654,-637 454,-637 342,-637 342,-637 342,-637 283.561,-637 264.3734,-620.1839 225,-577 193.8868,-542.8757 177.2269,-491.4431 169.003,-456.8367"/>
<polygon fill="#000000" stroke="#000000" points="172.3261,-455.6616 166.7149,-446.6747 165.4971,-457.1993 172.3261,-455.6616"/>
</g>
<!-- 139748193448008 -->
<g id="node20" class="node">
<title>139748193448008</title>
<polygon fill="none" stroke="#000000" points="493.5,-819 414.5,-819 414.5,-783 493.5,-783 493.5,-819"/>
<text text-anchor="middle" x="454" y="-797.3" font-family="Times,serif" font-size="14.00" fill="#000000">init_loop_2</text>
</g>
<!-- 139748191080344 -->
<g id="node28" class="node">
<title>139748191080344</title>
<ellipse fill="none" stroke="#000000" cx="566" cy="-392" rx="27" ry="27"/>
<text text-anchor="middle" x="566" y="-388.3" font-family="Times,serif" font-size="14.00" fill="#000000">p_5</text>
</g>
<!-- 139748193448008&#45;&gt;139748191080344 -->
<g id="edge20" class="edge">
<title>139748193448008&#45;&gt;139748191080344</title>
<path fill="none" stroke="#000000" d="M458.957,-782.898C476.0866,-720.3443 532.9948,-512.5279 556.1109,-428.1128"/>
<polygon fill="#000000" stroke="#000000" points="559.5562,-428.783 558.8217,-418.2137 552.8047,-426.9342 559.5562,-428.783"/>
</g>
<!-- 139748193448232 -->
<g id="node21" class="node">
<title>139748193448232</title>
<polygon fill="none" stroke="#000000" points="481,-410 427,-410 427,-374 481,-374 481,-410"/>
<text text-anchor="middle" x="454" y="-388.3" font-family="Times,serif" font-size="14.00" fill="#000000">loop_3</text>
</g>
<!-- 139748193448232&#45;&gt;139748191080344 -->
<g id="edge21" class="edge">
<title>139748193448232&#45;&gt;139748191080344</title>
<path fill="none" stroke="#000000" d="M481.1121,-392C495.3143,-392 512.9303,-392 528.4272,-392"/>
<polygon fill="#000000" stroke="#000000" points="528.7494,-395.5001 538.7494,-392 528.7494,-388.5001 528.7494,-395.5001"/>
</g>
<!-- 139748193451424 -->
<g id="node22" class="node">
<title>139748193451424</title>
<polygon fill="none" stroke="#000000" points="279,-414 225,-414 225,-378 279,-378 279,-414"/>
<text text-anchor="middle" x="252" y="-392.3" font-family="Times,serif" font-size="14.00" fill="#000000">skip_4</text>
</g>
<!-- 139748193448512 -->
<g id="node30" class="node">
<title>139748193448512</title>
<ellipse fill="none" stroke="#000000" cx="342" cy="-392" rx="27" ry="27"/>
<text text-anchor="middle" x="342" y="-388.3" font-family="Times,serif" font-size="14.00" fill="#000000">p_7</text>
</g>
<!-- 139748193451424&#45;&gt;139748193448512 -->
<g id="edge45" class="edge">
<title>139748193451424&#45;&gt;139748193448512</title>
<path fill="none" stroke="#000000" d="M279.003,-394.7999C287.1013,-394.4399 296.1306,-394.0386 304.7665,-393.6548"/>
<polygon fill="#000000" stroke="#000000" points="305.1814,-397.1399 315.0161,-393.1993 304.8705,-390.1468 305.1814,-397.1399"/>
</g>
<!-- 139748193451648 -->
<g id="node23" class="node">
<title>139748193451648</title>
<polygon fill="none" stroke="#000000" points="369,-777 315,-777 315,-741 369,-741 369,-777"/>
<text text-anchor="middle" x="342" y="-755.3" font-family="Times,serif" font-size="14.00" fill="#000000">skip_5</text>
</g>
<!-- 139748193451648&#45;&gt;139748191080176 -->
<g id="edge46" class="edge">
<title>139748193451648&#45;&gt;139748191080176</title>
<path fill="none" stroke="#000000" d="M369.2439,-755.2613C402.8722,-751.9936 460.7801,-750.8624 503,-774 522.6899,-784.7906 538.2619,-804.5884 548.9985,-821.9095"/>
<polygon fill="#000000" stroke="#000000" points="546.0754,-823.843 554.1684,-830.6807 552.1058,-820.2886 546.0754,-823.843"/>
</g>
<!-- 139748191076592 -->
<g id="node24" class="node">
<title>139748191076592</title>
<polygon fill="none" stroke="#000000" points="279,-873 225,-873 225,-837 279,-837 279,-873"/>
<text text-anchor="middle" x="252" y="-851.3" font-family="Times,serif" font-size="14.00" fill="#000000">tau_1</text>
</g>
<!-- 139748191076984 -->
<g id="node26" class="node">
<title>139748191076984</title>
<ellipse fill="none" stroke="#000000" cx="342" cy="-855" rx="27" ry="27"/>
<text text-anchor="middle" x="342" y="-851.3" font-family="Times,serif" font-size="14.00" fill="#000000">p_3</text>
</g>
<!-- 139748191076592&#45;&gt;139748191076984 -->
<g id="edge48" class="edge">
<title>139748191076592&#45;&gt;139748191076984</title>
<path fill="none" stroke="#000000" d="M279.003,-855C287.0277,-855 295.9665,-855 304.5309,-855"/>
<polygon fill="#000000" stroke="#000000" points="304.7051,-858.5001 314.705,-855 304.705,-851.5001 304.7051,-858.5001"/>
</g>
<!-- 139748204486440 -->
<g id="node25" class="node">
<title>139748204486440</title>
<ellipse fill="#00ff00" stroke="#000000" cx="162" cy="-855" rx="27" ry="27"/>
<text text-anchor="middle" x="162" y="-851.3" font-family="Times,serif" font-size="14.00" fill="#000000">1</text>
</g>
<!-- 139748204486440&#45;&gt;139748191076592 -->
<g id="edge47" class="edge">
<title>139748204486440&#45;&gt;139748191076592</title>
<path fill="none" stroke="#000000" d="M189.003,-855C197.0277,-855 205.9665,-855 214.5309,-855"/>
<polygon fill="#000000" stroke="#000000" points="214.7051,-858.5001 224.705,-855 214.705,-851.5001 214.7051,-858.5001"/>
</g>
<!-- 139748191076984&#45;&gt;139748193451928 -->
<g id="edge22" class="edge">
<title>139748191076984&#45;&gt;139748193451928</title>
<path fill="none" stroke="#000000" d="M366.5789,-866.8505C378.5167,-872.6063 393.2711,-879.72 407.2373,-886.4537"/>
<polygon fill="#000000" stroke="#000000" points="405.7359,-889.6153 416.2637,-890.8057 408.776,-883.3099 405.7359,-889.6153"/>
</g>
<!-- 139748191076984&#45;&gt;139748193448288 -->
<g id="edge23" class="edge">
<title>139748191076984&#45;&gt;139748193448288</title>
<path fill="none" stroke="#000000" d="M369.1121,-855C379.4269,-855 391.5424,-855 403.339,-855"/>
<polygon fill="#000000" stroke="#000000" points="403.5704,-858.5001 413.5704,-855 403.5703,-851.5001 403.5704,-858.5001"/>
</g>
<!-- 139748191076984&#45;&gt;139748193448008 -->
<g id="edge24" class="edge">
<title>139748191076984&#45;&gt;139748193448008</title>
<path fill="none" stroke="#000000" d="M366.5789,-843.1495C378.5167,-837.3937 393.2711,-830.28 407.2373,-823.5463"/>
<polygon fill="#000000" stroke="#000000" points="408.776,-826.6901 416.2637,-819.1943 405.7359,-820.3847 408.776,-826.6901"/>
</g>
<!-- 139748191080176&#45;&gt;139748191080288 -->
<g id="edge25" class="edge">
<title>139748191080176&#45;&gt;139748191080288</title>
<path fill="none" stroke="#000000" d="M593.0733,-855C616.9183,-855 651.8722,-855 678.3332,-855"/>
<polygon fill="#000000" stroke="#000000" points="678.3759,-858.5001 688.3759,-855 678.3759,-851.5001 678.3759,-858.5001"/>
</g>
<!-- 139748191080344&#45;&gt;139748193449856 -->
<g id="edge37" class="edge">
<title>139748191080344&#45;&gt;139748193449856</title>
<path fill="none" stroke="#000000" d="M544.0476,-376.0127C505.3047,-349.4227 421.3725,-299 342,-299 252,-299 252,-299 252,-299 191.7518,-299 127.2111,-328.2549 87.594,-349.9762"/>
<polygon fill="#000000" stroke="#000000" points="85.8194,-346.9584 78.8036,-354.8976 89.239,-353.0664 85.8194,-346.9584"/>
</g>
<!-- 139748191080344&#45;&gt;139748193448848 -->
<g id="edge35" class="edge">
<title>139748191080344&#45;&gt;139748193448848</title>
<path fill="none" stroke="#000000" d="M571.5699,-418.8064C581.8876,-466.0582 605.1071,-561.4149 629,-585 636.3815,-592.2864 645.6982,-597.6106 655.4636,-601.4999"/>
<polygon fill="#000000" stroke="#000000" points="654.3206,-604.808 664.9154,-604.8064 656.6321,-598.2006 654.3206,-604.808"/>
</g>
<!-- 139748191080344&#45;&gt;139748193450864 -->
<g id="edge31" class="edge">
<title>139748191080344&#45;&gt;139748193450864</title>
<path fill="none" stroke="#000000" d="M571.1931,-418.697C578.6436,-449.9636 595.3531,-501.2562 629,-531 637.5693,-538.5753 648.2479,-544.0255 659.1466,-547.9468"/>
<polygon fill="#000000" stroke="#000000" points="658.1424,-551.3002 668.7333,-551.0141 660.2756,-544.6331 658.1424,-551.3002"/>
</g>
<!-- 139748191080344&#45;&gt;139748193450696 -->
<g id="edge34" class="edge">
<title>139748191080344&#45;&gt;139748193450696</title>
<path fill="none" stroke="#000000" d="M578.3449,-416.2128C589.2455,-435.3049 606.8393,-461.254 629,-477 643.4123,-487.2405 661.8408,-493.6932 677.9817,-497.7104"/>
<polygon fill="#000000" stroke="#000000" points="677.668,-501.2275 688.1931,-500.0138 679.2084,-494.3991 677.668,-501.2275"/>
</g>
<!-- 139748191080344&#45;&gt;139748193449016 -->
<g id="edge40" class="edge">
<title>139748191080344&#45;&gt;139748193449016</title>
<path fill="none" stroke="#000000" d="M589.8359,-404.8153C601.4572,-410.7812 615.7548,-417.711 629,-423 633.8077,-424.9198 638.8086,-426.7921 643.8736,-428.5975"/>
<polygon fill="#000000" stroke="#000000" points="643.0643,-432.021 653.6591,-431.9818 645.3523,-425.4055 643.0643,-432.021"/>
</g>
<!-- 139748191080344&#45;&gt;139748193451032 -->
<g id="edge28" class="edge">
<title>139748191080344&#45;&gt;139748193451032</title>
<path fill="none" stroke="#000000" d="M593.0733,-392.7244C602.1846,-392.9681 612.9177,-393.2553 624.1793,-393.5566"/>
<polygon fill="#000000" stroke="#000000" points="624.0942,-397.0555 634.1843,-393.8243 624.2815,-390.058 624.0942,-397.0555"/>
</g>
<!-- 139748191080344&#45;&gt;139748193449520 -->
<g id="edge26" class="edge">
<title>139748191080344&#45;&gt;139748193449520</title>
<path fill="none" stroke="#000000" d="M591.3454,-382.4356C602.8016,-378.193 616.537,-373.2174 629,-369 634.6324,-367.094 640.4873,-365.1623 646.376,-363.2539"/>
<polygon fill="#000000" stroke="#000000" points="647.8335,-366.4621 656.2852,-360.0731 645.694,-359.797 647.8335,-366.4621"/>
</g>
<!-- 139748191080344&#45;&gt;139748193448624 -->
<g id="edge38" class="edge">
<title>139748191080344&#45;&gt;139748193448624</title>
<path fill="none" stroke="#000000" d="M579.7873,-368.6723C591.0288,-351.5403 608.3856,-328.9166 629,-315 635.6743,-310.4943 643.1378,-306.7109 650.8081,-303.5412"/>
<polygon fill="#000000" stroke="#000000" points="652.1167,-306.7883 660.2276,-299.9719 649.6362,-300.2425 652.1167,-306.7883"/>
</g>
<!-- 139748191080344&#45;&gt;139748193450024 -->
<g id="edge33" class="edge">
<title>139748191080344&#45;&gt;139748193450024</title>
<path fill="none" stroke="#000000" d="M567.6965,-365.0366C571.6649,-325.009 584.8999,-249.9824 629,-207 636.0976,-200.0823 644.9404,-194.9342 654.2397,-191.1037"/>
<polygon fill="#000000" stroke="#000000" points="655.4344,-194.3936 663.6434,-187.6957 653.0493,-187.8125 655.4344,-194.3936"/>
</g>
<!-- 139748191080344&#45;&gt;139748193449184 -->
<g id="edge32" class="edge">
<title>139748191080344&#45;&gt;139748193449184</title>
<path fill="none" stroke="#000000" d="M568.3579,-365.0187C574.5484,-300.1819 593.3018,-138.0948 629,-99 630.3923,-97.4752 631.8692,-96.0358 633.4184,-94.6771"/>
<polygon fill="#000000" stroke="#000000" points="635.7588,-97.299 641.7094,-88.5332 631.5911,-91.6749 635.7588,-97.299"/>
</g>
<!-- 139748191080344&#45;&gt;139748193449352 -->
<g id="edge29" class="edge">
<title>139748191080344&#45;&gt;139748193449352</title>
<path fill="none" stroke="#000000" d="M567.3658,-365.0087C571.5945,-291.9646 586.825,-92.7078 629,-45 637.8014,-35.044 650.212,-28.7186 662.8918,-24.7118"/>
<polygon fill="#000000" stroke="#000000" points="663.8529,-28.0776 672.5853,-22.078 662.0174,-21.3225 663.8529,-28.0776"/>
</g>
<!-- 139748191080344&#45;&gt;139748193450192 -->
<g id="edge36" class="edge">
<title>139748191080344&#45;&gt;139748193450192</title>
<path fill="none" stroke="#000000" d="M567.248,-419.0716C571.2072,-493.3419 585.8767,-698.0243 629,-747 634.9673,-753.7772 642.6072,-758.8726 650.8697,-762.6997"/>
<polygon fill="#000000" stroke="#000000" points="649.8217,-766.0498 660.4068,-766.5038 652.4151,-759.548 649.8217,-766.0498"/>
</g>
<!-- 139748191080344&#45;&gt;139748193449688 -->
<g id="edge39" class="edge">
<title>139748191080344&#45;&gt;139748193449688</title>
<path fill="none" stroke="#000000" d="M571.9855,-365.4996C580.016,-335.905 597.109,-288.5526 629,-261 638.5812,-252.7222 650.6877,-246.9807 662.7847,-242.9987"/>
<polygon fill="#000000" stroke="#000000" points="663.8253,-246.3411 672.4358,-240.1678 661.8549,-239.6241 663.8253,-246.3411"/>
</g>
<!-- 139748191080344&#45;&gt;139748193450360 -->
<g id="edge41" class="edge">
<title>139748191080344&#45;&gt;139748193450360</title>
<path fill="none" stroke="#000000" d="M568.2105,-419.2222C574.1214,-485.4843 592.3897,-652.6855 629,-693 635.2135,-699.8422 643.1308,-704.966 651.6426,-708.7996"/>
<polygon fill="#000000" stroke="#000000" points="650.4714,-712.0996 661.0597,-712.4735 653.0156,-705.5783 650.4714,-712.0996"/>
</g>
<!-- 139748191080344&#45;&gt;139748193451200 -->
<g id="edge30" class="edge">
<title>139748191080344&#45;&gt;139748193451200</title>
<path fill="none" stroke="#000000" d="M569.7783,-365.0606C578.1194,-309.2474 599.716,-183.6269 629,-153 633.4949,-148.299 638.7941,-144.4121 644.5205,-141.1991"/>
<polygon fill="#000000" stroke="#000000" points="646.3502,-144.2015 653.8166,-136.6846 643.2922,-137.9048 646.3502,-144.2015"/>
</g>
<!-- 139748191080344&#45;&gt;139748193450528 -->
<g id="edge27" class="edge">
<title>139748191080344&#45;&gt;139748193450528</title>
<path fill="none" stroke="#000000" d="M569.5323,-418.9622C577.5438,-476.1806 598.7728,-607.1325 629,-639 629.7849,-639.8275 630.5948,-640.6298 631.4275,-641.4077"/>
<polygon fill="#000000" stroke="#000000" points="629.467,-644.3192 639.4845,-647.7688 633.8046,-638.8251 629.467,-644.3192"/>
</g>
<!-- 139748193448400&#45;&gt;139748193451424 -->
<g id="edge42" class="edge">
<title>139748193448400&#45;&gt;139748193451424</title>
<path fill="none" stroke="#000000" d="M188.5162,-412.929C196.8043,-410.7189 206.1048,-408.2387 214.9779,-405.8726"/>
<polygon fill="#000000" stroke="#000000" points="215.977,-409.2285 224.7375,-403.27 214.1733,-402.4649 215.977,-409.2285"/>
</g>
<!-- 139748193448400&#45;&gt;139748193451648 -->
<g id="edge43" class="edge">
<title>139748193448400&#45;&gt;139748193451648</title>
<path fill="none" stroke="#000000" d="M164.0036,-447.3463C169.4895,-514.7648 186.9516,-686.4118 225,-727 245.2531,-748.605 278.56,-756.13 304.4681,-758.5245"/>
<polygon fill="#000000" stroke="#000000" points="304.4807,-762.0339 314.7019,-759.2454 304.9727,-755.0512 304.4807,-762.0339"/>
</g>
<!-- 139748193448512&#45;&gt;139748193448232 -->
<g id="edge44" class="edge">
<title>139748193448512&#45;&gt;139748193448232</title>
<path fill="none" stroke="#000000" d="M369.1121,-392C383.3143,-392 400.9303,-392 416.4272,-392"/>
<polygon fill="#000000" stroke="#000000" points="416.7494,-395.5001 426.7494,-392 416.7494,-388.5001 416.7494,-395.5001"/>
</g>
</g>
</svg>
