<?xml version="1.0" encoding="UTF-8" standalone="no"?>
<!DOCTYPE svg PUBLIC "-//W3C//DTD SVG 1.1//EN"
 "http://www.w3.org/Graphics/SVG/1.1/DTD/svg11.dtd">
<!-- Generated by graphviz version 2.40.1 (20161225.0304)
 -->
<!-- Title: alpha_classic_net_1586496217.0589588 Pages: 1 -->
<svg width="370pt" height="521pt"
 viewBox="0.00 0.00 370.00 521.00" xmlns="http://www.w3.org/2000/svg" xmlns:xlink="http://www.w3.org/1999/xlink">
<g id="graph0" class="graph" transform="scale(1 1) rotate(0) translate(4 517)">
<title>alpha_classic_net_1586496217.0589588</title>
<!-- 139748197434984 -->
<g id="node1" class="node">
<title>139748197434984</title>
<polygon fill="none" stroke="#000000" points="128.5,-36 35.5,-36 35.5,0 128.5,0 128.5,-36"/>
<text text-anchor="middle" x="82" y="-14.3" font-family="Times,serif" font-size="14.00" fill="#000000">FinancialUtils</text>
</g>
<!-- 139748197434312 -->
<g id="node2" class="node">
<title>139748197434312</title>
<polygon fill="none" stroke="#000000" points="109,-90 55,-90 55,-54 109,-54 109,-90"/>
<text text-anchor="middle" x="82" y="-68.3" font-family="Times,serif" font-size="14.00" fill="#000000">Log</text>
</g>
<!-- 139748197435208 -->
<g id="node3" class="node">
<title>139748197435208</title>
<polygon fill="none" stroke="#000000" points="119,-144 45,-144 45,-108 119,-108 119,-144"/>
<text text-anchor="middle" x="82" y="-122.3" font-family="Times,serif" font-size="14.00" fill="#000000">MDBStats</text>
</g>
<!-- 139748197434704 -->
<g id="node4" class="node">
<title>139748197434704</title>
<polygon fill="none" stroke="#000000" points="164,-198 0,-198 0,-162 164,-162 164,-198"/>
<text text-anchor="middle" x="82" y="-176.3" font-family="Times,serif" font-size="14.00" fill="#000000">MarketSummaryDataBean</text>
</g>
<!-- 139748197434928 -->
<g id="node5" class="node">
<title>139748197434928</title>
<polygon fill="none" stroke="#000000" points="362,-288 200,-288 200,-252 362,-252 362,-288"/>
<text text-anchor="middle" x="281" y="-266.3" font-family="Times,serif" font-size="14.00" fill="#000000">MarketSummarySingleton</text>
</g>
<!-- 139748197435488 -->
<g id="node6" class="node">
<title>139748197435488</title>
<polygon fill="none" stroke="#000000" points="109,-351 55,-351 55,-315 109,-315 109,-351"/>
<text text-anchor="middle" x="82" y="-329.3" font-family="Times,serif" font-size="14.00" fill="#000000">Root</text>
</g>
<!-- 139748197436216 -->
<g id="node12" class="node">
<title>139748197436216</title>
<ellipse fill="#ffa500" stroke="#000000" cx="281" cy="-333" rx="27" ry="27"/>
</g>
<!-- 139748197435488&#45;&gt;139748197436216 -->
<g id="edge1" class="edge">
<title>139748197435488&#45;&gt;139748197436216</title>
<path fill="none" stroke="#000000" d="M109.2528,-333C144.063,-333 204.4698,-333 243.575,-333"/>
<polygon fill="#000000" stroke="#000000" points="243.7578,-336.5001 253.7577,-333 243.7577,-329.5001 243.7578,-336.5001"/>
</g>
<!-- 139748197435320 -->
<g id="node7" class="node">
<title>139748197435320</title>
<polygon fill="none" stroke="#000000" points="130.5,-405 33.5,-405 33.5,-369 130.5,-369 130.5,-405"/>
<text text-anchor="middle" x="82" y="-383.3" font-family="Times,serif" font-size="14.00" fill="#000000">TradeBuildDB</text>
</g>
<!-- 139748197435432 -->
<g id="node8" class="node">
<title>139748197435432</title>
<polygon fill="none" stroke="#000000" points="125,-459 39,-459 39,-423 125,-423 125,-459"/>
<text text-anchor="middle" x="82" y="-437.3" font-family="Times,serif" font-size="14.00" fill="#000000">TradeConfig</text>
</g>
<!-- 139748197434816 -->
<g id="node9" class="node">
<title>139748197434816</title>
<polygon fill="none" stroke="#000000" points="343,-234 219,-234 219,-198 343,-198 343,-234"/>
<text text-anchor="middle" x="281" y="-212.3" font-family="Times,serif" font-size="14.00" fill="#000000">TradeConfigServlet</text>
</g>
<!-- 139748197435712 -->
<g id="node10" class="node">
<title>139748197435712</title>
<polygon fill="none" stroke="#000000" points="123,-513 41,-513 41,-477 123,-477 123,-513"/>
<text text-anchor="middle" x="82" y="-491.3" font-family="Times,serif" font-size="14.00" fill="#000000">TradeDirect</text>
</g>
<!-- 139748197435992 -->
<g id="node11" class="node">
<title>139748197435992</title>
<ellipse fill="#00ff00" stroke="#000000" cx="82" cy="-243" rx="27" ry="27"/>
<text text-anchor="middle" x="82" y="-239.3" font-family="Times,serif" font-size="14.00" fill="#000000">1</text>
</g>
<!-- 139748197435992&#45;&gt;139748197434928 -->
<g id="edge2" class="edge">
<title>139748197435992&#45;&gt;139748197434928</title>
<path fill="none" stroke="#000000" d="M108.838,-246.6413C129.8075,-249.4864 160.2443,-253.6161 189.7136,-257.6144"/>
<polygon fill="#000000" stroke="#000000" points="189.2756,-261.087 199.6554,-258.9633 190.2168,-254.1505 189.2756,-261.087"/>
</g>
<!-- 139748197435992&#45;&gt;139748197434816 -->
<g id="edge3" class="edge">
<title>139748197435992&#45;&gt;139748197434816</title>
<path fill="none" stroke="#000000" d="M108.838,-239.3587C134.3297,-235.9 173.8121,-230.5431 208.5394,-225.8313"/>
<polygon fill="#000000" stroke="#000000" points="209.2277,-229.2701 218.6664,-224.4573 208.2866,-222.3337 209.2277,-229.2701"/>
</g>
</g>
</svg>
