<?xml version="1.0" encoding="UTF-8" standalone="no"?>
<!DOCTYPE svg PUBLIC "-//W3C//DTD SVG 1.1//EN"
 "http://www.w3.org/Graphics/SVG/1.1/DTD/svg11.dtd">
<!-- Generated by graphviz version 2.40.1 (20161225.0304)
 -->
<!-- Title: alpha_plus_net_1585315460.9756775 Pages: 1 -->
<svg width="480pt" height="701pt"
 viewBox="0.00 0.00 480.00 701.00" xmlns="http://www.w3.org/2000/svg" xmlns:xlink="http://www.w3.org/1999/xlink">
<g id="graph0" class="graph" transform="scale(1 1) rotate(0) translate(4 697)">
<title>alpha_plus_net_1585315460.9756775</title>
<!-- 140178132615688 -->
<g id="node1" class="node">
<title>140178132615688</title>
<polygon fill="none" stroke="#000000" points="128.5,-45 35.5,-45 35.5,-9 128.5,-9 128.5,-45"/>
<text text-anchor="middle" x="82" y="-23.3" font-family="Times,serif" font-size="14.00" fill="#000000">FinancialUtils</text>
</g>
<!-- 140178132616416 -->
<g id="node13" class="node">
<title>140178132616416</title>
<ellipse fill="none" stroke="#000000" cx="246" cy="-27" rx="27" ry="27"/>
<text text-anchor="middle" x="246" y="-23.3" font-family="Times,serif" font-size="14.00" fill="#000000">({&#39;FinancialUtils&#39;}, {&#39;Root&#39;})</text>
</g>
<!-- 140178132615688&#45;&gt;140178132616416 -->
<g id="edge8" class="edge">
<title>140178132615688&#45;&gt;140178132616416</title>
<path fill="none" stroke="#000000" d="M128.5571,-27C153.9644,-27 184.9931,-27 208.7751,-27"/>
<polygon fill="#000000" stroke="#000000" points="208.8153,-30.5001 218.8152,-27 208.8152,-23.5001 208.8153,-30.5001"/>
</g>
<!-- 140178132616752 -->
<g id="node2" class="node">
<title>140178132616752</title>
<polygon fill="none" stroke="#000000" points="109,-126 55,-126 55,-90 109,-90 109,-126"/>
<text text-anchor="middle" x="82" y="-104.3" font-family="Times,serif" font-size="14.00" fill="#000000">Log</text>
</g>
<!-- 140178132617760 -->
<g id="node15" class="node">
<title>140178132617760</title>
<ellipse fill="none" stroke="#000000" cx="246" cy="-171" rx="27" ry="27"/>
<text text-anchor="middle" x="246" y="-167.3" font-family="Times,serif" font-size="14.00" fill="#000000">140178132617760</text>
</g>
<!-- 140178132616752&#45;&gt;140178132617760 -->
<g id="edge9" class="edge">
<title>140178132616752&#45;&gt;140178132617760</title>
<path fill="none" stroke="#000000" d="M109.0813,-113.2368C137.6497,-122.227 182.6776,-139.4047 213.2293,-152.8863"/>
<polygon fill="#000000" stroke="#000000" points="212.0465,-156.1924 222.6008,-157.1185 214.9276,-149.8128 212.0465,-156.1924"/>
</g>
<!-- 140178132617536 -->
<g id="node19" class="node">
<title>140178132617536</title>
<ellipse fill="none" stroke="#000000" cx="246" cy="-99" rx="27" ry="27"/>
<text text-anchor="middle" x="246" y="-95.3" font-family="Times,serif" font-size="14.00" fill="#000000">140178132617536</text>
</g>
<!-- 140178132616752&#45;&gt;140178132617536 -->
<g id="edge10" class="edge">
<title>140178132616752&#45;&gt;140178132617536</title>
<path fill="none" stroke="#000000" d="M109.0813,-101.3475C136.3444,-97.9577 178.5972,-95.4435 208.9538,-95.2805"/>
<polygon fill="#000000" stroke="#000000" points="209.1364,-98.7812 219.1511,-95.3233 209.1659,-91.7813 209.1364,-98.7812"/>
</g>
<!-- 140178132616864 -->
<g id="node3" class="node">
<title>140178132616864</title>
<polygon fill="none" stroke="#000000" points="119,-198 45,-198 45,-162 119,-162 119,-198"/>
<text text-anchor="middle" x="82" y="-176.3" font-family="Times,serif" font-size="14.00" fill="#000000">MDBStats</text>
</g>
<!-- 140178132617256 -->
<g id="node4" class="node">
<title>140178132617256</title>
<polygon fill="none" stroke="#000000" points="164,-297 0,-297 0,-261 164,-261 164,-297"/>
<text text-anchor="middle" x="82" y="-275.3" font-family="Times,serif" font-size="14.00" fill="#000000">MarketSummaryDataBean</text>
</g>
<!-- 140178132618264 -->
<g id="node16" class="node">
<title>140178132618264</title>
<ellipse fill="none" stroke="#000000" cx="246" cy="-315" rx="27" ry="27"/>
<text text-anchor="middle" x="246" y="-311.3" font-family="Times,serif" font-size="14.00" fill="#000000">140178132618264</text>
</g>
<!-- 140178132617256&#45;&gt;140178132618264 -->
<g id="edge11" class="edge">
<title>140178132617256&#45;&gt;140178132618264</title>
<path fill="none" stroke="#000000" d="M164.4805,-290.3556C180.8795,-293.9624 197.2528,-297.9235 210.977,-301.6631"/>
<polygon fill="#000000" stroke="#000000" points="210.3371,-305.1193 220.912,-304.4701 212.2403,-298.383 210.3371,-305.1193"/>
</g>
<!-- 140178132618040 -->
<g id="node20" class="node">
<title>140178132618040</title>
<ellipse fill="none" stroke="#000000" cx="246" cy="-243" rx="27" ry="27"/>
<text text-anchor="middle" x="246" y="-239.3" font-family="Times,serif" font-size="14.00" fill="#000000">140178132618040</text>
</g>
<!-- 140178132617256&#45;&gt;140178132618040 -->
<g id="edge12" class="edge">
<title>140178132617256&#45;&gt;140178132618040</title>
<path fill="none" stroke="#000000" d="M135.2461,-260.9451C159.1983,-255.0231 186.8983,-249.1417 208.6045,-245.439"/>
<polygon fill="#000000" stroke="#000000" points="209.4206,-248.8528 218.7361,-243.8058 208.3065,-241.942 209.4206,-248.8528"/>
</g>
<!-- 140178132617312 -->
<g id="node5" class="node">
<title>140178132617312</title>
<polygon fill="none" stroke="#000000" points="163,-405 1,-405 1,-369 163,-369 163,-405"/>
<text text-anchor="middle" x="82" y="-383.3" font-family="Times,serif" font-size="14.00" fill="#000000">MarketSummarySingleton</text>
</g>
<!-- 140178132617928 -->
<g id="node17" class="node">
<title>140178132617928</title>
<ellipse fill="none" stroke="#000000" cx="246" cy="-387" rx="27" ry="27"/>
<text text-anchor="middle" x="246" y="-383.3" font-family="Times,serif" font-size="14.00" fill="#000000">140178132617928</text>
</g>
<!-- 140178132617312&#45;&gt;140178132617928 -->
<g id="edge13" class="edge">
<title>140178132617312&#45;&gt;140178132617928</title>
<path fill="none" stroke="#000000" d="M163.0391,-380.2504C179.2444,-380.2365 195.4998,-380.5742 209.2731,-381.2634"/>
<polygon fill="#000000" stroke="#000000" points="209.0895,-384.7585 219.2798,-381.8589 209.5055,-377.7709 209.0895,-384.7585"/>
</g>
<!-- 140178132615800 -->
<g id="node6" class="node">
<title>140178132615800</title>
<polygon fill="none" stroke="#000000" points="382,-45 328,-45 328,-9 382,-9 382,-45"/>
<text text-anchor="middle" x="355" y="-23.3" font-family="Times,serif" font-size="14.00" fill="#000000">Root</text>
</g>
<!-- 140178132616584 -->
<g id="node14" class="node">
<title>140178132616584</title>
<ellipse fill="#ffa500" stroke="#000000" cx="445" cy="-27" rx="27" ry="27"/>
</g>
<!-- 140178132615800&#45;&gt;140178132616584 -->
<g id="edge14" class="edge">
<title>140178132615800&#45;&gt;140178132616584</title>
<path fill="none" stroke="#000000" d="M382.003,-27C390.0277,-27 398.9665,-27 407.5309,-27"/>
<polygon fill="#000000" stroke="#000000" points="407.7051,-30.5001 417.705,-27 407.705,-23.5001 407.7051,-30.5001"/>
</g>
<!-- 140178132616976 -->
<g id="node7" class="node">
<title>140178132616976</title>
<polygon fill="none" stroke="#000000" points="130.5,-459 33.5,-459 33.5,-423 130.5,-423 130.5,-459"/>
<text text-anchor="middle" x="82" y="-437.3" font-family="Times,serif" font-size="14.00" fill="#000000">TradeBuildDB</text>
</g>
<!-- 140178132616248 -->
<g id="node8" class="node">
<title>140178132616248</title>
<polygon fill="none" stroke="#000000" points="125,-513 39,-513 39,-477 125,-477 125,-513"/>
<text text-anchor="middle" x="82" y="-491.3" font-family="Times,serif" font-size="14.00" fill="#000000">TradeConfig</text>
</g>
<!-- 140178132617200 -->
<g id="node9" class="node">
<title>140178132617200</title>
<polygon fill="none" stroke="#000000" points="144,-567 20,-567 20,-531 144,-531 144,-567"/>
<text text-anchor="middle" x="82" y="-545.3" font-family="Times,serif" font-size="14.00" fill="#000000">TradeConfigServlet</text>
</g>
<!-- 140178132617424 -->
<g id="node18" class="node">
<title>140178132617424</title>
<ellipse fill="none" stroke="#000000" cx="246" cy="-549" rx="27" ry="27"/>
<text text-anchor="middle" x="246" y="-545.3" font-family="Times,serif" font-size="14.00" fill="#000000">140178132617424</text>
</g>
<!-- 140178132617200&#45;&gt;140178132617424 -->
<g id="edge15" class="edge">
<title>140178132617200&#45;&gt;140178132617424</title>
<path fill="none" stroke="#000000" d="M144.0014,-542.4317C165.8901,-542.0266 189.8035,-542.2988 208.9708,-543.2483"/>
<polygon fill="#000000" stroke="#000000" points="208.8992,-546.7501 219.088,-543.8455 209.3117,-539.7622 208.8992,-546.7501"/>
</g>
<!-- 140178132617088 -->
<g id="node10" class="node">
<title>140178132617088</title>
<polygon fill="none" stroke="#000000" points="123,-621 41,-621 41,-585 123,-585 123,-621"/>
<text text-anchor="middle" x="82" y="-599.3" font-family="Times,serif" font-size="14.00" fill="#000000">TradeDirect</text>
</g>
<!-- 140178132615744 -->
<g id="node11" class="node">
<title>140178132615744</title>
<polygon fill="none" stroke="#000000" points="292,-684 200,-684 200,-648 292,-648 292,-684"/>
<text text-anchor="middle" x="246" y="-662.3" font-family="Times,serif" font-size="14.00" fill="#000000">artificial_start</text>
</g>
<!-- 140178132615352 -->
<g id="node12" class="node">
<title>140178132615352</title>
<ellipse fill="#00ff00" stroke="#000000" cx="82" cy="-666" rx="27" ry="27"/>
<text text-anchor="middle" x="82" y="-662.3" font-family="Times,serif" font-size="14.00" fill="#000000">1</text>
</g>
<!-- 140178132615352&#45;&gt;140178132615744 -->
<g id="edge16" class="edge">
<title>140178132615352&#45;&gt;140178132615744</title>
<path fill="none" stroke="#000000" d="M109.0813,-666C130.9433,-666 162.4441,-666 189.7203,-666"/>
<polygon fill="#000000" stroke="#000000" points="189.9385,-669.5001 199.9385,-666 189.9384,-662.5001 189.9385,-669.5001"/>
</g>
<!-- 140178132616416&#45;&gt;140178132615800 -->
<g id="edge4" class="edge">
<title>140178132616416&#45;&gt;140178132615800</title>
<path fill="none" stroke="#000000" d="M273.2241,-27C286.6197,-27 302.9774,-27 317.533,-27"/>
<polygon fill="#000000" stroke="#000000" points="317.7452,-30.5001 327.7452,-27 317.7451,-23.5001 317.7452,-30.5001"/>
</g>
<!-- 140178132617760&#45;&gt;140178132616752 -->
<g id="edge1" class="edge">
<title>140178132617760&#45;&gt;140178132616752</title>
<path fill="none" stroke="#000000" d="M219.4227,-165.9214C192.0279,-157.335 149.1191,-141.0505 118.5407,-127.7643"/>
<polygon fill="#000000" stroke="#000000" points="119.6416,-124.4238 109.0813,-123.5695 116.8039,-130.8229 119.6416,-124.4238"/>
</g>
<!-- 140178132618264&#45;&gt;140178132617256 -->
<g id="edge2" class="edge">
<title>140178132618264&#45;&gt;140178132617256</title>
<path fill="none" stroke="#000000" d="M218.7361,-314.1942C198.721,-311.1819 170.6985,-305.5011 145.2291,-299.4698"/>
<polygon fill="#000000" stroke="#000000" points="145.7887,-296.0043 135.2461,-297.0549 144.1428,-302.8081 145.7887,-296.0043"/>
</g>
<!-- 140178132617928&#45;&gt;140178132617312 -->
<g id="edge3" class="edge">
<title>140178132617928&#45;&gt;140178132617312</title>
<path fill="none" stroke="#000000" d="M219.2798,-392.1411C206.4524,-393.0436 190.2473,-393.5664 173.5065,-393.7095"/>
<polygon fill="#000000" stroke="#000000" points="173.0256,-390.2112 163.0391,-393.7496 173.0524,-397.2112 173.0256,-390.2112"/>
</g>
<!-- 140178132617424&#45;&gt;140178132617200 -->
<g id="edge5" class="edge">
<title>140178132617424&#45;&gt;140178132617200</title>
<path fill="none" stroke="#000000" d="M219.088,-554.1545C201.3541,-555.3937 177.2249,-555.9111 154.1513,-555.7065"/>
<polygon fill="#000000" stroke="#000000" points="154.0481,-552.2049 144.0014,-555.5683 153.9527,-559.2043 154.0481,-552.2049"/>
</g>
<!-- 140178132617536&#45;&gt;140178132616752 -->
<g id="edge6" class="edge">
<title>140178132617536&#45;&gt;140178132616752</title>
<path fill="none" stroke="#000000" d="M219.6932,-105.5554C192.5569,-108.9822 149.9923,-111.5369 119.3699,-111.7177"/>
<polygon fill="#000000" stroke="#000000" points="119.094,-108.2167 109.0813,-111.6802 119.0684,-115.2167 119.094,-108.2167"/>
</g>
<!-- 140178132618040&#45;&gt;140178132617256 -->
<g id="edge7" class="edge">
<title>140178132618040&#45;&gt;140178132617256</title>
<path fill="none" stroke="#000000" d="M220.912,-253.5299C208.1108,-257.2951 191.6583,-261.4656 174.5831,-265.3767"/>
<polygon fill="#000000" stroke="#000000" points="173.4711,-262.0391 164.4805,-267.6444 175.0043,-268.8691 173.4711,-262.0391"/>
</g>
</g>
</svg>
