<?xml version="1.0" encoding="UTF-8" standalone="no"?>
<!DOCTYPE svg PUBLIC "-//W3C//DTD SVG 1.1//EN"
 "http://www.w3.org/Graphics/SVG/1.1/DTD/svg11.dtd">
<!-- Generated by graphviz version 2.40.1 (20161225.0304)
 -->
<!-- Title: imdf_net_1586496217.1042597 Pages: 1 -->
<svg width="776pt" height="554pt"
 viewBox="0.00 0.00 776.00 554.00" xmlns="http://www.w3.org/2000/svg" xmlns:xlink="http://www.w3.org/1999/xlink">
<g id="graph0" class="graph" transform="scale(1 1) rotate(0) translate(4 550)">
<title>imdf_net_1586496217.1042597</title>
<!-- 139748197404624 -->
<g id="node1" class="node">
<title>139748197404624</title>
<polygon fill="none" stroke="#000000" points="93,-263 0,-263 0,-227 93,-227 93,-263"/>
<text text-anchor="middle" x="46.5" y="-241.3" font-family="Times,serif" font-size="14.00" fill="#000000">FinancialUtils</text>
</g>
<!-- 139748197403560 -->
<g id="node20" class="node">
<title>139748197403560</title>
<ellipse fill="none" stroke="#000000" cx="156" cy="-292" rx="27" ry="27"/>
<text text-anchor="middle" x="156" y="-288.3" font-family="Times,serif" font-size="14.00" fill="#000000">p_6</text>
</g>
<!-- 139748197404624&#45;&gt;139748197403560 -->
<g id="edge1" class="edge">
<title>139748197404624&#45;&gt;139748197403560</title>
<path fill="none" stroke="#000000" d="M88.5224,-263.037C99.5123,-267.7541 111.2265,-272.7822 121.7575,-277.3023"/>
<polygon fill="#000000" stroke="#000000" points="120.4717,-280.5591 131.0414,-281.2872 123.2327,-274.1266 120.4717,-280.5591"/>
</g>
<!-- 139748197403112 -->
<g id="node2" class="node">
<title>139748197403112</title>
<polygon fill="none" stroke="#000000" points="713,-413 659,-413 659,-377 713,-377 713,-413"/>
<text text-anchor="middle" x="686" y="-391.3" font-family="Times,serif" font-size="14.00" fill="#000000">Log</text>
</g>
<!-- 139748197403112&#45;&gt;139748197403560 -->
<g id="edge7" class="edge">
<title>139748197403112&#45;&gt;139748197403560</title>
<path fill="none" stroke="#000000" d="M658.7225,-406.5164C613.7097,-424.4464 520.6699,-457 438.5,-457 336,-457 336,-457 336,-457 279.9612,-457 260.7142,-447.4202 219,-410 194.1678,-387.724 177.3672,-353.2935 167.4035,-327.3627"/>
<polygon fill="#000000" stroke="#000000" points="170.654,-326.0609 163.9171,-317.8838 164.0843,-328.4773 170.654,-326.0609"/>
</g>
<!-- 139748191303440 -->
<g id="node3" class="node">
<title>139748191303440</title>
<polygon fill="none" stroke="#000000" points="723,-325 649,-325 649,-289 723,-289 723,-325"/>
<text text-anchor="middle" x="686" y="-303.3" font-family="Times,serif" font-size="14.00" fill="#000000">MDBStats</text>
</g>
<!-- 139748191303440&#45;&gt;139748197403560 -->
<g id="edge10" class="edge">
<title>139748191303440&#45;&gt;139748197403560</title>
<path fill="none" stroke="#000000" d="M660.4451,-325.1318C644.0433,-336.9827 622.4408,-352.9924 604,-368 587.3963,-381.5125 587.4031,-390.9562 568,-400 515.2743,-424.5754 496.6717,-419 438.5,-419 336,-419 336,-419 336,-419 281.4618,-419 262.966,-414.2709 219,-382 199.18,-367.4522 183.3465,-344.7355 172.5102,-325.7652"/>
<polygon fill="#000000" stroke="#000000" points="175.474,-323.8906 167.5964,-316.8057 169.3364,-327.2567 175.474,-323.8906"/>
</g>
<!-- 139748197403952 -->
<g id="node4" class="node">
<title>139748197403952</title>
<polygon fill="none" stroke="#000000" points="768,-204 604,-204 604,-168 768,-168 768,-204"/>
<text text-anchor="middle" x="686" y="-182.3" font-family="Times,serif" font-size="14.00" fill="#000000">MarketSummaryDataBean</text>
</g>
<!-- 139748197403952&#45;&gt;139748197403560 -->
<g id="edge5" class="edge">
<title>139748197403952&#45;&gt;139748197403560</title>
<path fill="none" stroke="#000000" d="M630.6418,-204.1243C580.9186,-218.7832 505.6234,-237 438.5,-237 336,-237 336,-237 336,-237 282.984,-237 224.8679,-259.0918 189.4111,-275.273"/>
<polygon fill="#000000" stroke="#000000" points="187.6109,-272.251 180.0345,-279.6569 190.5757,-278.5921 187.6109,-272.251"/>
</g>
<!-- 139748205783248 -->
<g id="node5" class="node">
<title>139748205783248</title>
<polygon fill="none" stroke="#000000" points="767,-149 605,-149 605,-113 767,-113 767,-149"/>
<text text-anchor="middle" x="686" y="-127.3" font-family="Times,serif" font-size="14.00" fill="#000000">MarketSummarySingleton</text>
</g>
<!-- 139748205783248&#45;&gt;139748197403560 -->
<g id="edge6" class="edge">
<title>139748205783248&#45;&gt;139748197403560</title>
<path fill="none" stroke="#000000" d="M617.1854,-112.9445C567.8164,-101.561 499.5163,-89 438.5,-89 336,-89 336,-89 336,-89 282.5317,-89 258.8408,-81.3408 219,-117 198.0291,-135.7699 176.407,-210.118 164.7438,-255.6525"/>
<polygon fill="#000000" stroke="#000000" points="161.3239,-254.9007 162.273,-265.4529 168.1115,-256.612 161.3239,-254.9007"/>
</g>
<!-- 139748197402440 -->
<g id="node6" class="node">
<title>139748197402440</title>
<polygon fill="none" stroke="#000000" points="465.5,-382 411.5,-382 411.5,-346 465.5,-346 465.5,-382"/>
<text text-anchor="middle" x="438.5" y="-360.3" font-family="Times,serif" font-size="14.00" fill="#000000">Root</text>
</g>
<!-- 139748197372088 -->
<g id="node22" class="node">
<title>139748197372088</title>
<ellipse fill="#ffa500" stroke="#000000" cx="541" cy="-364" rx="27" ry="27"/>
</g>
<!-- 139748197402440&#45;&gt;139748197372088 -->
<g id="edge4" class="edge">
<title>139748197402440&#45;&gt;139748197372088</title>
<path fill="none" stroke="#000000" d="M465.699,-364C477.2828,-364 490.9866,-364 503.5073,-364"/>
<polygon fill="#000000" stroke="#000000" points="503.6739,-367.5001 513.6739,-364 503.6739,-360.5001 503.6739,-367.5001"/>
</g>
<!-- 139748191305008 -->
<g id="node7" class="node">
<title>139748191305008</title>
<polygon fill="none" stroke="#000000" points="734.5,-93 637.5,-93 637.5,-57 734.5,-57 734.5,-93"/>
<text text-anchor="middle" x="686" y="-71.3" font-family="Times,serif" font-size="14.00" fill="#000000">TradeBuildDB</text>
</g>
<!-- 139748191305008&#45;&gt;139748197403560 -->
<g id="edge2" class="edge">
<title>139748191305008&#45;&gt;139748197403560</title>
<path fill="none" stroke="#000000" d="M637.2958,-67.4721C587.4805,-60.4337 507.7883,-51 438.5,-51 336,-51 336,-51 336,-51 281.8489,-51 257.5317,-46.952 219,-85 206.6384,-97.2064 179.2461,-199.8581 165.0002,-255.8694"/>
<polygon fill="#000000" stroke="#000000" points="161.5594,-255.1998 162.4998,-265.7529 168.3456,-256.9168 161.5594,-255.1998"/>
</g>
<!-- 139748191303496 -->
<g id="node8" class="node">
<title>139748191303496</title>
<polygon fill="none" stroke="#000000" points="729,-36 643,-36 643,0 729,0 729,-36"/>
<text text-anchor="middle" x="686" y="-14.3" font-family="Times,serif" font-size="14.00" fill="#000000">TradeConfig</text>
</g>
<!-- 139748191303496&#45;&gt;139748197403560 -->
<g id="edge8" class="edge">
<title>139748191303496&#45;&gt;139748197403560</title>
<path fill="none" stroke="#000000" d="M642.6375,-16.5939C593.2289,-15.115 510.0576,-13 438.5,-13 336,-13 336,-13 336,-13 281.4618,-13 256.5565,-10.4534 219,-50 215.3995,-53.7912 181.526,-188.9823 164.9924,-255.6157"/>
<polygon fill="#000000" stroke="#000000" points="161.5039,-255.1423 162.4951,-265.6907 168.2983,-256.8266 161.5039,-255.1423"/>
</g>
<!-- 139748195417784 -->
<g id="node9" class="node">
<title>139748195417784</title>
<polygon fill="none" stroke="#000000" points="748,-546 624,-546 624,-510 748,-510 748,-546"/>
<text text-anchor="middle" x="686" y="-524.3" font-family="Times,serif" font-size="14.00" fill="#000000">TradeConfigServlet</text>
</g>
<!-- 139748195417784&#45;&gt;139748197403560 -->
<g id="edge3" class="edge">
<title>139748195417784&#45;&gt;139748197403560</title>
<path fill="none" stroke="#000000" d="M623.9613,-529.9474C573.9066,-531.3514 501.677,-533 438.5,-533 336,-533 336,-533 336,-533 278.1573,-533 257.2999,-519.3462 219,-476 181.9797,-434.102 166.4927,-369.4237 160.171,-328.9638"/>
<polygon fill="#000000" stroke="#000000" points="163.6219,-328.3721 158.7203,-318.9793 156.6946,-329.3787 163.6219,-328.3721"/>
</g>
<!-- 139748191302880 -->
<g id="node10" class="node">
<title>139748191302880</title>
<polygon fill="none" stroke="#000000" points="727,-484 645,-484 645,-448 727,-448 727,-484"/>
<text text-anchor="middle" x="686" y="-462.3" font-family="Times,serif" font-size="14.00" fill="#000000">TradeDirect</text>
</g>
<!-- 139748191302880&#45;&gt;139748197403560 -->
<g id="edge9" class="edge">
<title>139748191302880&#45;&gt;139748197403560</title>
<path fill="none" stroke="#000000" d="M644.5718,-473.8478C595.5571,-482.4363 511.3977,-495 438.5,-495 336,-495 336,-495 336,-495 278.9135,-495 258.8031,-482.9216 219,-442 188.3023,-410.4396 171.6306,-361.7012 163.2854,-328.4044"/>
<polygon fill="#000000" stroke="#000000" points="166.6735,-327.5229 160.9565,-318.6028 159.8631,-329.1411 166.6735,-327.5229"/>
</g>
<!-- 139748197622672 -->
<g id="node11" class="node">
<title>139748197622672</title>
<polygon fill="none" stroke="#000000" points="478,-167 399,-167 399,-131 478,-131 478,-167"/>
<text text-anchor="middle" x="438.5" y="-145.3" font-family="Times,serif" font-size="14.00" fill="#000000">init_loop_2</text>
</g>
<!-- 139748197624576 -->
<g id="node19" class="node">
<title>139748197624576</title>
<ellipse fill="none" stroke="#000000" cx="541" cy="-182" rx="27" ry="27"/>
<text text-anchor="middle" x="541" y="-178.3" font-family="Times,serif" font-size="14.00" fill="#000000">p_5</text>
</g>
<!-- 139748197622672&#45;&gt;139748197624576 -->
<g id="edge11" class="edge">
<title>139748197622672&#45;&gt;139748197624576</title>
<path fill="none" stroke="#000000" d="M478.1292,-161.7587C487.134,-164.6578 496.644,-167.7195 505.4662,-170.5598"/>
<polygon fill="#000000" stroke="#000000" points="504.4793,-173.919 515.0708,-173.6521 506.6246,-167.2558 504.4793,-173.919"/>
</g>
<!-- 139748197402608 -->
<g id="node12" class="node">
<title>139748197402608</title>
<polygon fill="none" stroke="#000000" points="465.5,-306 411.5,-306 411.5,-270 465.5,-270 465.5,-306"/>
<text text-anchor="middle" x="438.5" y="-284.3" font-family="Times,serif" font-size="14.00" fill="#000000">loop_3</text>
</g>
<!-- 139748197402608&#45;&gt;139748197624576 -->
<g id="edge12" class="edge">
<title>139748197402608&#45;&gt;139748197624576</title>
<path fill="none" stroke="#000000" d="M456.3541,-269.5362C472.5576,-252.7795 496.6496,-227.8648 514.9921,-208.896"/>
<polygon fill="#000000" stroke="#000000" points="517.5254,-211.3111 521.9608,-201.6894 512.4933,-206.4452 517.5254,-211.3111"/>
</g>
<!-- 139748191303216 -->
<g id="node13" class="node">
<title>139748191303216</title>
<polygon fill="none" stroke="#000000" points="273,-310 219,-310 219,-274 273,-274 273,-310"/>
<text text-anchor="middle" x="246" y="-288.3" font-family="Times,serif" font-size="14.00" fill="#000000">skip_4</text>
</g>
<!-- 139748197404568 -->
<g id="node21" class="node">
<title>139748197404568</title>
<ellipse fill="none" stroke="#000000" cx="336" cy="-292" rx="27" ry="27"/>
<text text-anchor="middle" x="336" y="-288.3" font-family="Times,serif" font-size="14.00" fill="#000000">p_7</text>
</g>
<!-- 139748191303216&#45;&gt;139748197404568 -->
<g id="edge27" class="edge">
<title>139748191303216&#45;&gt;139748197404568</title>
<path fill="none" stroke="#000000" d="M273.003,-292C281.0277,-292 289.9665,-292 298.5309,-292"/>
<polygon fill="#000000" stroke="#000000" points="298.7051,-295.5001 308.705,-292 298.705,-288.5001 298.7051,-295.5001"/>
</g>
<!-- 139748184438768 -->
<g id="node14" class="node">
<title>139748184438768</title>
<polygon fill="none" stroke="#000000" points="273,-373 219,-373 219,-337 273,-337 273,-373"/>
<text text-anchor="middle" x="246" y="-351.3" font-family="Times,serif" font-size="14.00" fill="#000000">skip_5</text>
</g>
<!-- 139748197313224 -->
<g id="node18" class="node">
<title>139748197313224</title>
<ellipse fill="none" stroke="#000000" cx="336" cy="-364" rx="27" ry="27"/>
<text text-anchor="middle" x="336" y="-360.3" font-family="Times,serif" font-size="14.00" fill="#000000">p_4</text>
</g>
<!-- 139748184438768&#45;&gt;139748197313224 -->
<g id="edge28" class="edge">
<title>139748184438768&#45;&gt;139748197313224</title>
<path fill="none" stroke="#000000" d="M273.003,-357.7003C281.1903,-358.519 290.3292,-359.4329 299.051,-360.3051"/>
<polygon fill="#000000" stroke="#000000" points="298.7174,-363.7891 309.0161,-361.3016 299.414,-356.8239 298.7174,-363.7891"/>
</g>
<!-- 139748197312160 -->
<g id="node15" class="node">
<title>139748197312160</title>
<polygon fill="none" stroke="#000000" points="273,-162 219,-162 219,-126 273,-126 273,-162"/>
<text text-anchor="middle" x="246" y="-140.3" font-family="Times,serif" font-size="14.00" fill="#000000">tau_1</text>
</g>
<!-- 139748197373488 -->
<g id="node17" class="node">
<title>139748197373488</title>
<ellipse fill="none" stroke="#000000" cx="336" cy="-144" rx="27" ry="27"/>
<text text-anchor="middle" x="336" y="-140.3" font-family="Times,serif" font-size="14.00" fill="#000000">p_3</text>
</g>
<!-- 139748197312160&#45;&gt;139748197373488 -->
<g id="edge30" class="edge">
<title>139748197312160&#45;&gt;139748197373488</title>
<path fill="none" stroke="#000000" d="M273.003,-144C281.0277,-144 289.9665,-144 298.5309,-144"/>
<polygon fill="#000000" stroke="#000000" points="298.7051,-147.5001 308.705,-144 298.705,-140.5001 298.7051,-147.5001"/>
</g>
<!-- 139748197374160 -->
<g id="node16" class="node">
<title>139748197374160</title>
<ellipse fill="#00ff00" stroke="#000000" cx="156" cy="-144" rx="27" ry="27"/>
<text text-anchor="middle" x="156" y="-140.3" font-family="Times,serif" font-size="14.00" fill="#000000">1</text>
</g>
<!-- 139748197374160&#45;&gt;139748197312160 -->
<g id="edge29" class="edge">
<title>139748197374160&#45;&gt;139748197312160</title>
<path fill="none" stroke="#000000" d="M183.003,-144C191.0277,-144 199.9665,-144 208.5309,-144"/>
<polygon fill="#000000" stroke="#000000" points="208.7051,-147.5001 218.705,-144 208.705,-140.5001 208.7051,-147.5001"/>
</g>
<!-- 139748197373488&#45;&gt;139748197622672 -->
<g id="edge13" class="edge">
<title>139748197373488&#45;&gt;139748197622672</title>
<path fill="none" stroke="#000000" d="M363.199,-145.3268C371.0426,-145.7094 379.8582,-146.1394 388.6204,-146.5668"/>
<polygon fill="#000000" stroke="#000000" points="388.6617,-150.0729 398.8204,-147.0644 389.0028,-143.0812 388.6617,-150.0729"/>
</g>
<!-- 139748197313224&#45;&gt;139748197402440 -->
<g id="edge14" class="edge">
<title>139748197313224&#45;&gt;139748197402440</title>
<path fill="none" stroke="#000000" d="M363.199,-364C374.7828,-364 388.4866,-364 401.0073,-364"/>
<polygon fill="#000000" stroke="#000000" points="401.1739,-367.5001 411.1739,-364 401.1739,-360.5001 401.1739,-367.5001"/>
</g>
<!-- 139748197624576&#45;&gt;139748197404624 -->
<g id="edge15" class="edge">
<title>139748197624576&#45;&gt;139748197404624</title>
<path fill="none" stroke="#000000" d="M514.1954,-185.6469C475.0987,-190.6421 400.1038,-199 336,-199 246,-199 246,-199 246,-199 196.849,-199 142.588,-212.4216 103.0785,-224.7652"/>
<polygon fill="#000000" stroke="#000000" points="101.8226,-221.4921 93.3636,-227.8713 103.9545,-228.1596 101.8226,-221.4921"/>
</g>
<!-- 139748197624576&#45;&gt;139748197403112 -->
<g id="edge20" class="edge">
<title>139748197624576&#45;&gt;139748197403112</title>
<path fill="none" stroke="#000000" d="M547.2925,-208.4015C555.9495,-240.5958 573.9712,-295.4728 604,-334 616.5164,-350.0587 634.2876,-363.9772 650.0879,-374.4476"/>
<polygon fill="#000000" stroke="#000000" points="648.3068,-377.4631 658.6172,-379.9015 652.0778,-371.5656 648.3068,-377.4631"/>
</g>
<!-- 139748197624576&#45;&gt;139748191303440 -->
<g id="edge23" class="edge">
<title>139748197624576&#45;&gt;139748191303440</title>
<path fill="none" stroke="#000000" d="M561.4674,-199.6443C586.4422,-221.1743 628.8279,-257.7137 657.1152,-282.0993"/>
<polygon fill="#000000" stroke="#000000" points="654.8342,-284.7539 664.6936,-288.6324 659.4048,-279.452 654.8342,-284.7539"/>
</g>
<!-- 139748197624576&#45;&gt;139748197403952 -->
<g id="edge18" class="edge">
<title>139748197624576&#45;&gt;139748197403952</title>
<path fill="none" stroke="#000000" d="M568.2734,-182.7524C575.8644,-182.9618 584.5567,-183.2016 593.7044,-183.4539"/>
<polygon fill="#000000" stroke="#000000" points="593.6861,-186.9546 603.7788,-183.7318 593.8792,-179.9573 593.6861,-186.9546"/>
</g>
<!-- 139748197624576&#45;&gt;139748205783248 -->
<g id="edge19" class="edge">
<title>139748197624576&#45;&gt;139748205783248</title>
<path fill="none" stroke="#000000" d="M566.3987,-172.5898C577.8652,-168.377 591.5939,-163.3822 604,-159 610.0505,-156.8628 616.3613,-154.6604 622.6777,-152.4739"/>
<polygon fill="#000000" stroke="#000000" points="624.2585,-155.6312 632.5715,-149.0628 621.9768,-149.0135 624.2585,-155.6312"/>
</g>
<!-- 139748197624576&#45;&gt;139748191305008 -->
<g id="edge16" class="edge">
<title>139748197624576&#45;&gt;139748191305008</title>
<path fill="none" stroke="#000000" d="M554.8738,-158.5866C566.1605,-141.3458 583.5361,-118.4756 604,-104 611.255,-98.868 619.508,-94.5629 627.9166,-90.9759"/>
<polygon fill="#000000" stroke="#000000" points="629.4117,-94.1487 637.4315,-87.2252 626.8446,-87.6364 629.4117,-94.1487"/>
</g>
<!-- 139748197624576&#45;&gt;139748191303496 -->
<g id="edge21" class="edge">
<title>139748197624576&#45;&gt;139748191303496</title>
<path fill="none" stroke="#000000" d="M546.992,-155.4505C555.0649,-125.4627 572.2321,-77.0665 604,-48 612.3058,-40.4005 622.6936,-34.6854 633.2563,-30.4011"/>
<polygon fill="#000000" stroke="#000000" points="634.7617,-33.5774 642.9513,-26.8557 632.3575,-27.0032 634.7617,-33.5774"/>
</g>
<!-- 139748197624576&#45;&gt;139748195417784 -->
<g id="edge17" class="edge">
<title>139748197624576&#45;&gt;139748195417784</title>
<path fill="none" stroke="#000000" d="M546.0803,-208.7678C560.2468,-283.1762 599.4495,-487.4143 604,-493 607.4828,-497.2752 611.5843,-501.0383 616.0648,-504.349"/>
<polygon fill="#000000" stroke="#000000" points="614.1972,-507.3095 624.4872,-509.8327 618.0167,-501.4433 614.1972,-507.3095"/>
</g>
<!-- 139748197624576&#45;&gt;139748191302880 -->
<g id="edge22" class="edge">
<title>139748197624576&#45;&gt;139748191302880</title>
<path fill="none" stroke="#000000" d="M545.3109,-209.0573C554.5854,-264.5166 577.7332,-388.6753 604,-422 612.2884,-432.5156 623.8042,-440.834 635.589,-447.2757"/>
<polygon fill="#000000" stroke="#000000" points="634.1018,-450.4458 644.6044,-451.8413 637.2644,-444.2009 634.1018,-450.4458"/>
</g>
<!-- 139748197403560&#45;&gt;139748191303216 -->
<g id="edge24" class="edge">
<title>139748197403560&#45;&gt;139748191303216</title>
<path fill="none" stroke="#000000" d="M183.003,-292C191.0277,-292 199.9665,-292 208.5309,-292"/>
<polygon fill="#000000" stroke="#000000" points="208.7051,-295.5001 218.705,-292 208.705,-288.5001 208.7051,-295.5001"/>
</g>
<!-- 139748197403560&#45;&gt;139748184438768 -->
<g id="edge25" class="edge">
<title>139748197403560&#45;&gt;139748184438768</title>
<path fill="none" stroke="#000000" d="M178.2472,-307.573C188.3684,-314.6579 200.5735,-323.2015 211.8201,-331.0741"/>
<polygon fill="#000000" stroke="#000000" points="209.9838,-334.0609 220.1832,-336.9283 213.998,-328.3263 209.9838,-334.0609"/>
</g>
<!-- 139748197404568&#45;&gt;139748197402608 -->
<g id="edge26" class="edge">
<title>139748197404568&#45;&gt;139748197402608</title>
<path fill="none" stroke="#000000" d="M363.199,-290.9386C374.7828,-290.4865 388.4866,-289.9517 401.0073,-289.4631"/>
<polygon fill="#000000" stroke="#000000" points="401.318,-292.9538 411.1739,-289.0664 401.045,-285.9591 401.318,-292.9538"/>
</g>
</g>
</svg>
