<?xml version="1.0" encoding="UTF-8" standalone="no"?>
<!DOCTYPE svg PUBLIC "-//W3C//DTD SVG 1.1//EN"
 "http://www.w3.org/Graphics/SVG/1.1/DTD/svg11.dtd">
<!-- Generated by graphviz version 2.40.1 (20161225.0304)
 -->
<!-- Title: alpha_classic_net_1585281871.9030688 Pages: 1 -->
<svg width="576pt" height="494pt"
 viewBox="0.00 0.00 576.00 494.00" xmlns="http://www.w3.org/2000/svg" xmlns:xlink="http://www.w3.org/1999/xlink">
<g id="graph0" class="graph" transform="scale(1 1) rotate(0) translate(4 490)">
<title>alpha_classic_net_1585281871.9030688</title>
<!-- 140543358555696 -->
<g id="node1" class="node">
<title>140543358555696</title>
<polygon fill="none" stroke="#000000" points="134,-36 18,-36 18,0 134,0 134,-36"/>
<text text-anchor="middle" x="76" y="-14.3" font-family="Times,serif" font-size="14.00" fill="#000000">AccountDataBean</text>
</g>
<!-- 140543358556032 -->
<g id="node2" class="node">
<title>140543358556032</title>
<polygon fill="none" stroke="#000000" points="152,-90 0,-90 0,-54 152,-54 152,-90"/>
<text text-anchor="middle" x="76" y="-68.3" font-family="Times,serif" font-size="14.00" fill="#000000">AccountProfileDataBean</text>
</g>
<!-- 140543358555920 -->
<g id="node3" class="node">
<title>140543358555920</title>
<polygon fill="none" stroke="#000000" points="103,-144 49,-144 49,-108 103,-108 103,-144"/>
<text text-anchor="middle" x="76" y="-122.3" font-family="Times,serif" font-size="14.00" fill="#000000">Log</text>
</g>
<!-- 140543358555304 -->
<g id="node4" class="node">
<title>140543358555304</title>
<polygon fill="none" stroke="#000000" points="298,-207 188,-207 188,-171 298,-171 298,-207"/>
<text text-anchor="middle" x="243" y="-185.3" font-family="Times,serif" font-size="14.00" fill="#000000">OrdersAlertFilter</text>
</g>
<!-- 140543358556256 -->
<g id="node12" class="node">
<title>140543358556256</title>
<ellipse fill="none" stroke="#000000" cx="361" cy="-189" rx="27" ry="27"/>
<text text-anchor="middle" x="361" y="-185.3" font-family="Times,serif" font-size="14.00" fill="#000000">({&#39;OrdersAlertFilter&#39;}, {&#39;Root&#39;})</text>
</g>
<!-- 140543358555304&#45;&gt;140543358556256 -->
<g id="edge2" class="edge">
<title>140543358555304&#45;&gt;140543358556256</title>
<path fill="none" stroke="#000000" d="M298.1996,-189C306.7911,-189 315.4905,-189 323.565,-189"/>
<polygon fill="#000000" stroke="#000000" points="323.7583,-192.5001 333.7582,-189 323.7582,-185.5001 323.7583,-192.5001"/>
</g>
<!-- 140543358555584 -->
<g id="node5" class="node">
<title>140543358555584</title>
<polygon fill="none" stroke="#000000" points="478,-207 424,-207 424,-171 478,-171 478,-207"/>
<text text-anchor="middle" x="451" y="-185.3" font-family="Times,serif" font-size="14.00" fill="#000000">Root</text>
</g>
<!-- 140543358555976 -->
<g id="node13" class="node">
<title>140543358555976</title>
<ellipse fill="#ffa500" stroke="#000000" cx="541" cy="-189" rx="27" ry="27"/>
</g>
<!-- 140543358555584&#45;&gt;140543358555976 -->
<g id="edge3" class="edge">
<title>140543358555584&#45;&gt;140543358555976</title>
<path fill="none" stroke="#000000" d="M478.003,-189C486.0277,-189 494.9665,-189 503.5309,-189"/>
<polygon fill="#000000" stroke="#000000" points="503.7051,-192.5001 513.705,-189 503.705,-185.5001 503.7051,-192.5001"/>
</g>
<!-- 140543358555248 -->
<g id="node6" class="node">
<title>140543358555248</title>
<polygon fill="none" stroke="#000000" points="118.5,-270 33.5,-270 33.5,-234 118.5,-234 118.5,-270"/>
<text text-anchor="middle" x="76" y="-248.3" font-family="Times,serif" font-size="14.00" fill="#000000">TradeAction</text>
</g>
<!-- 140543358555640 -->
<g id="node7" class="node">
<title>140543358555640</title>
<polygon fill="none" stroke="#000000" points="131,-324 21,-324 21,-288 131,-288 131,-324"/>
<text text-anchor="middle" x="76" y="-302.3" font-family="Times,serif" font-size="14.00" fill="#000000">TradeAppServlet</text>
</g>
<!-- 140543358556144 -->
<g id="node8" class="node">
<title>140543358556144</title>
<polygon fill="none" stroke="#000000" points="119,-378 33,-378 33,-342 119,-342 119,-378"/>
<text text-anchor="middle" x="76" y="-356.3" font-family="Times,serif" font-size="14.00" fill="#000000">TradeConfig</text>
</g>
<!-- 140543358555808 -->
<g id="node9" class="node">
<title>140543358555808</title>
<polygon fill="none" stroke="#000000" points="130,-432 22,-432 22,-396 130,-396 130,-432"/>
<text text-anchor="middle" x="76" y="-410.3" font-family="Times,serif" font-size="14.00" fill="#000000">TradeSLSBBean</text>
</g>
<!-- 140543358555472 -->
<g id="node10" class="node">
<title>140543358555472</title>
<polygon fill="none" stroke="#000000" points="137.5,-486 14.5,-486 14.5,-450 137.5,-450 137.5,-486"/>
<text text-anchor="middle" x="76" y="-464.3" font-family="Times,serif" font-size="14.00" fill="#000000">TradeServletAction</text>
</g>
<!-- 140543358555752 -->
<g id="node11" class="node">
<title>140543358555752</title>
<ellipse fill="#00ff00" stroke="#000000" cx="76" cy="-189" rx="27" ry="27"/>
<text text-anchor="middle" x="76" y="-185.3" font-family="Times,serif" font-size="14.00" fill="#000000">1</text>
</g>
<!-- 140543358555752&#45;&gt;140543358555304 -->
<g id="edge4" class="edge">
<title>140543358555752&#45;&gt;140543358555304</title>
<path fill="none" stroke="#000000" d="M103.2031,-189C123.3567,-189 151.7004,-189 177.6026,-189"/>
<polygon fill="#000000" stroke="#000000" points="177.7638,-192.5001 187.7637,-189 177.7637,-185.5001 177.7638,-192.5001"/>
</g>
<!-- 140543358556256&#45;&gt;140543358555584 -->
<g id="edge1" class="edge">
<title>140543358556256&#45;&gt;140543358555584</title>
<path fill="none" stroke="#000000" d="M388.003,-189C396.0277,-189 404.9665,-189 413.5309,-189"/>
<polygon fill="#000000" stroke="#000000" points="413.7051,-192.5001 423.705,-189 413.705,-185.5001 413.7051,-192.5001"/>
</g>
</g>
</svg>
