<?xml version="1.0" encoding="UTF-8" standalone="no"?>
<!DOCTYPE svg PUBLIC "-//W3C//DTD SVG 1.1//EN"
 "http://www.w3.org/Graphics/SVG/1.1/DTD/svg11.dtd">
<!-- Generated by graphviz version 2.40.1 (20161225.0304)
 -->
<!-- Title: %3 Pages: 1 -->
<svg width="780pt" height="244pt"
 viewBox="0.00 0.00 780.00 244.00" xmlns="http://www.w3.org/2000/svg" xmlns:xlink="http://www.w3.org/1999/xlink">
<g id="graph0" class="graph" transform="scale(1 1) rotate(0) translate(4 240)">
<title>%3</title>
<!-- 140531498559360 -->
<g id="node1" class="node">
<title>140531498559360</title>
<polygon fill="none" stroke="#000000" points="110,-127 0,-127 0,-91 110,-91 110,-127"/>
<text text-anchor="middle" x="55" y="-105.3" font-family="Times,serif" font-size="14.00" fill="#000000">OrdersAlertFilter</text>
</g>
<!-- 140531498687344 -->
<g id="node9" class="node">
<title>140531498687344</title>
<ellipse fill="none" stroke="#000000" cx="173" cy="-137" rx="27" ry="27"/>
<text text-anchor="middle" x="173" y="-133.3" font-family="Times,serif" font-size="14.00" fill="#000000">intplace_OrdersAlertFilter</text>
</g>
<!-- 140531498559360&#45;&gt;140531498687344 -->
<g id="edge1" class="edge">
<title>140531498559360&#45;&gt;140531498687344</title>
<path fill="none" stroke="#000000" d="M110.1996,-122.0982C119.24,-124.2434 128.3999,-126.4169 136.8255,-128.4162"/>
<polygon fill="#000000" stroke="#000000" points="136.1435,-131.8515 146.6814,-130.7549 137.7597,-125.0406 136.1435,-131.8515"/>
</g>
<!-- 140531498558688 -->
<g id="node2" class="node">
<title>140531498558688</title>
<polygon fill="none" stroke="#000000" points="486,-227 432,-227 432,-191 486,-191 486,-227"/>
<text text-anchor="middle" x="459" y="-205.3" font-family="Times,serif" font-size="14.00" fill="#000000">Root</text>
</g>
<!-- 140531498558464 -->
<g id="node14" class="node">
<title>140531498558464</title>
<ellipse fill="#ffa500" stroke="#000000" cx="565" cy="-209" rx="27" ry="27"/>
</g>
<!-- 140531498558688&#45;&gt;140531498558464 -->
<g id="edge2" class="edge">
<title>140531498558688&#45;&gt;140531498558464</title>
<path fill="none" stroke="#000000" d="M486.0225,-209C498.6333,-209 513.8509,-209 527.5484,-209"/>
<polygon fill="#000000" stroke="#000000" points="527.6583,-212.5001 537.6582,-209 527.6582,-205.5001 527.6583,-212.5001"/>
</g>
<!-- 140531498558352 -->
<g id="node3" class="node">
<title>140531498558352</title>
<polygon fill="none" stroke="#000000" points="502,-155 416,-155 416,-119 502,-119 502,-155"/>
<text text-anchor="middle" x="459" y="-133.3" font-family="Times,serif" font-size="14.00" fill="#000000">TradeConfig</text>
</g>
<!-- 140531498686840 -->
<g id="node13" class="node">
<title>140531498686840</title>
<ellipse fill="none" stroke="#000000" cx="565" cy="-137" rx="27" ry="27"/>
<text text-anchor="middle" x="565" y="-133.3" font-family="Times,serif" font-size="14.00" fill="#000000">splace_in_OrdersAlertFilter_0</text>
</g>
<!-- 140531498558352&#45;&gt;140531498686840 -->
<g id="edge3" class="edge">
<title>140531498558352&#45;&gt;140531498686840</title>
<path fill="none" stroke="#000000" d="M502.1143,-137C510.5776,-137 519.3896,-137 527.6453,-137"/>
<polygon fill="#000000" stroke="#000000" points="527.7368,-140.5001 537.7368,-137 527.7368,-133.5001 527.7368,-140.5001"/>
</g>
<!-- 140531498560648 -->
<g id="node4" class="node">
<title>140531498560648</title>
<polygon fill="none" stroke="#000000" points="682,-150 628,-150 628,-114 682,-114 682,-150"/>
<text text-anchor="middle" x="655" y="-128.3" font-family="Times,serif" font-size="14.00" fill="#000000">hid_1</text>
</g>
<!-- 140531498558240 -->
<g id="node10" class="node">
<title>140531498558240</title>
<ellipse fill="none" stroke="#000000" cx="745" cy="-82" rx="27" ry="27"/>
<text text-anchor="middle" x="745" y="-78.3" font-family="Times,serif" font-size="14.00" fill="#000000">pre_OrdersAlertFilter</text>
</g>
<!-- 140531498560648&#45;&gt;140531498558240 -->
<g id="edge4" class="edge">
<title>140531498560648&#45;&gt;140531498558240</title>
<path fill="none" stroke="#000000" d="M682.003,-116.9984C691.5964,-111.6687 702.4963,-105.6132 712.5008,-100.0551"/>
<polygon fill="#000000" stroke="#000000" points="714.332,-103.0417 721.3738,-95.1257 710.9324,-96.9226 714.332,-103.0417"/>
</g>
<!-- 140531498686952 -->
<g id="node5" class="node">
<title>140531498686952</title>
<polygon fill="none" stroke="#000000" points="682,-50 628,-50 628,-14 682,-14 682,-50"/>
<text text-anchor="middle" x="655" y="-28.3" font-family="Times,serif" font-size="14.00" fill="#000000">hid_2</text>
</g>
<!-- 140531498686952&#45;&gt;140531498558240 -->
<g id="edge5" class="edge">
<title>140531498686952&#45;&gt;140531498558240</title>
<path fill="none" stroke="#000000" d="M682.003,-47.0016C691.5964,-52.3313 702.4963,-58.3868 712.5008,-63.9449"/>
<polygon fill="#000000" stroke="#000000" points="710.9324,-67.0774 721.3738,-68.8743 714.332,-60.9583 710.9324,-67.0774"/>
</g>
<!-- 140531498687512 -->
<g id="node6" class="node">
<title>140531498687512</title>
<polygon fill="none" stroke="#000000" points="290,-218 236,-218 236,-182 290,-182 290,-218"/>
<text text-anchor="middle" x="263" y="-196.3" font-family="Times,serif" font-size="14.00" fill="#000000">hid_3</text>
</g>
<!-- 140531498558128 -->
<g id="node11" class="node">
<title>140531498558128</title>
<ellipse fill="none" stroke="#000000" cx="353" cy="-209" rx="27" ry="27"/>
<text text-anchor="middle" x="353" y="-205.3" font-family="Times,serif" font-size="14.00" fill="#000000">pre_Root</text>
</g>
<!-- 140531498687512&#45;&gt;140531498558128 -->
<g id="edge6" class="edge">
<title>140531498687512&#45;&gt;140531498558128</title>
<path fill="none" stroke="#000000" d="M290.003,-202.7003C298.1903,-203.519 307.3292,-204.4329 316.051,-205.3051"/>
<polygon fill="#000000" stroke="#000000" points="315.7174,-208.7891 326.0161,-206.3016 316.414,-201.8239 315.7174,-208.7891"/>
</g>
<!-- 140531498687736 -->
<g id="node7" class="node">
<title>140531498687736</title>
<polygon fill="none" stroke="#000000" points="290,-155 236,-155 236,-119 290,-119 290,-155"/>
<text text-anchor="middle" x="263" y="-133.3" font-family="Times,serif" font-size="14.00" fill="#000000">hid_4</text>
</g>
<!-- 140531498687232 -->
<g id="node12" class="node">
<title>140531498687232</title>
<ellipse fill="none" stroke="#000000" cx="353" cy="-137" rx="27" ry="27"/>
<text text-anchor="middle" x="353" y="-133.3" font-family="Times,serif" font-size="14.00" fill="#000000">pre_TradeConfig</text>
</g>
<!-- 140531498687736&#45;&gt;140531498687232 -->
<g id="edge7" class="edge">
<title>140531498687736&#45;&gt;140531498687232</title>
<path fill="none" stroke="#000000" d="M290.003,-137C298.0277,-137 306.9665,-137 315.5309,-137"/>
<polygon fill="#000000" stroke="#000000" points="315.7051,-140.5001 325.705,-137 315.705,-133.5001 315.7051,-140.5001"/>
</g>
<!-- 140531498558856 -->
<g id="node8" class="node">
<title>140531498558856</title>
<ellipse fill="#00ff00" stroke="#000000" cx="565" cy="-27" rx="27" ry="27"/>
<text text-anchor="middle" x="565" y="-23.3" font-family="Times,serif" font-size="14.00" fill="#000000">1</text>
</g>
<!-- 140531498558856&#45;&gt;140531498686952 -->
<g id="edge13" class="edge">
<title>140531498558856&#45;&gt;140531498686952</title>
<path fill="none" stroke="#000000" d="M592.003,-28.5002C600.0277,-28.946 608.9665,-29.4426 617.5309,-29.9184"/>
<polygon fill="#000000" stroke="#000000" points="617.5262,-33.4234 627.705,-30.4836 617.9146,-26.4342 617.5262,-33.4234"/>
</g>
<!-- 140531498687344&#45;&gt;140531498687512 -->
<g id="edge8" class="edge">
<title>140531498687344&#45;&gt;140531498687512</title>
<path fill="none" stroke="#000000" d="M195.2472,-152.573C205.3684,-159.6579 217.5735,-168.2015 228.8201,-176.0741"/>
<polygon fill="#000000" stroke="#000000" points="226.9838,-179.0609 237.1832,-181.9283 230.998,-173.3263 226.9838,-179.0609"/>
</g>
<!-- 140531498687344&#45;&gt;140531498687736 -->
<g id="edge9" class="edge">
<title>140531498687344&#45;&gt;140531498687736</title>
<path fill="none" stroke="#000000" d="M200.003,-137C208.0277,-137 216.9665,-137 225.5309,-137"/>
<polygon fill="#000000" stroke="#000000" points="225.7051,-140.5001 235.705,-137 225.705,-133.5001 225.7051,-140.5001"/>
</g>
<!-- 140531498558240&#45;&gt;140531498559360 -->
<g id="edge10" class="edge">
<title>140531498558240&#45;&gt;140531498559360</title>
<path fill="none" stroke="#000000" d="M717.8597,-82C682.624,-82 619.2188,-82 565,-82 263,-82 263,-82 263,-82 214.996,-82 161.2748,-89.1598 120.4542,-96.1054"/>
<polygon fill="#000000" stroke="#000000" points="119.6166,-92.6985 110.3653,-97.8622 120.8175,-99.5948 119.6166,-92.6985"/>
</g>
<!-- 140531498558128&#45;&gt;140531498558688 -->
<g id="edge11" class="edge">
<title>140531498558128&#45;&gt;140531498558688</title>
<path fill="none" stroke="#000000" d="M380.0225,-209C392.6333,-209 407.8509,-209 421.5484,-209"/>
<polygon fill="#000000" stroke="#000000" points="421.6583,-212.5001 431.6582,-209 421.6582,-205.5001 421.6583,-212.5001"/>
</g>
<!-- 140531498687232&#45;&gt;140531498558352 -->
<g id="edge12" class="edge">
<title>140531498687232&#45;&gt;140531498558352</title>
<path fill="none" stroke="#000000" d="M380.0225,-137C387.9553,-137 396.9196,-137 405.8881,-137"/>
<polygon fill="#000000" stroke="#000000" points="405.961,-140.5001 415.961,-137 405.9609,-133.5001 405.961,-140.5001"/>
</g>
<!-- 140531498686840&#45;&gt;140531498560648 -->
<g id="edge14" class="edge">
<title>140531498686840&#45;&gt;140531498560648</title>
<path fill="none" stroke="#000000" d="M592.003,-135.4998C600.0277,-135.054 608.9665,-134.5574 617.5309,-134.0816"/>
<polygon fill="#000000" stroke="#000000" points="617.9146,-137.5658 627.705,-133.5164 617.5262,-130.5766 617.9146,-137.5658"/>
</g>
</g>
</svg>
