<?xml version="1.0" encoding="UTF-8" standalone="no"?>
<!DOCTYPE svg PUBLIC "-//W3C//DTD SVG 1.1//EN"
 "http://www.w3.org/Graphics/SVG/1.1/DTD/svg11.dtd">
<!-- Generated by graphviz version 2.40.1 (20161225.0304)
 -->
<!-- Title: imdf_net_1586496134.537816 Pages: 1 -->
<svg width="787pt" height="554pt"
 viewBox="0.00 0.00 787.00 554.00" xmlns="http://www.w3.org/2000/svg" xmlns:xlink="http://www.w3.org/1999/xlink">
<g id="graph0" class="graph" transform="scale(1 1) rotate(0) translate(4 550)">
<title>imdf_net_1586496134.537816</title>
<!-- 139748202037376 -->
<g id="node1" class="node">
<title>139748202037376</title>
<polygon fill="none" stroke="#000000" points="116,-263 0,-263 0,-227 116,-227 116,-263"/>
<text text-anchor="middle" x="58" y="-241.3" font-family="Times,serif" font-size="14.00" fill="#000000">AccountDataBean</text>
</g>
<!-- 139748202040624 -->
<g id="node20" class="node">
<title>139748202040624</title>
<ellipse fill="none" stroke="#000000" cx="179" cy="-292" rx="27" ry="27"/>
<text text-anchor="middle" x="179" y="-288.3" font-family="Times,serif" font-size="14.00" fill="#000000">p_6</text>
</g>
<!-- 139748202037376&#45;&gt;139748202040624 -->
<g id="edge9" class="edge">
<title>139748202037376&#45;&gt;139748202040624</title>
<path fill="none" stroke="#000000" d="M104.4357,-263.037C117.5826,-268.1437 131.6676,-273.6147 144.0161,-278.4112"/>
<polygon fill="#000000" stroke="#000000" points="142.9073,-281.7352 153.4961,-282.0935 145.4419,-275.2102 142.9073,-281.7352"/>
</g>
<!-- 139748202040792 -->
<g id="node2" class="node">
<title>139748202040792</title>
<polygon fill="none" stroke="#000000" points="779,-413 627,-413 627,-377 779,-377 779,-413"/>
<text text-anchor="middle" x="703" y="-391.3" font-family="Times,serif" font-size="14.00" fill="#000000">AccountProfileDataBean</text>
</g>
<!-- 139748202040792&#45;&gt;139748202040624 -->
<g id="edge5" class="edge">
<title>139748202040792&#45;&gt;139748202040624</title>
<path fill="none" stroke="#000000" d="M659.789,-413.0996C612.1186,-431.3998 532.7067,-457 461.5,-457 359,-457 359,-457 359,-457 302.9612,-457 283.7142,-447.4202 242,-410 217.1678,-387.724 200.3672,-353.2935 190.4035,-327.3627"/>
<polygon fill="#000000" stroke="#000000" points="193.654,-326.0609 186.9171,-317.8838 187.0843,-328.4773 193.654,-326.0609"/>
</g>
<!-- 139748202037712 -->
<g id="node3" class="node">
<title>139748202037712</title>
<polygon fill="none" stroke="#000000" points="730,-325 676,-325 676,-289 730,-289 730,-325"/>
<text text-anchor="middle" x="703" y="-303.3" font-family="Times,serif" font-size="14.00" fill="#000000">Log</text>
</g>
<!-- 139748202037712&#45;&gt;139748202040624 -->
<g id="edge4" class="edge">
<title>139748202037712&#45;&gt;139748202040624</title>
<path fill="none" stroke="#000000" d="M679.8075,-325.1214C664.6281,-337.1023 644.4473,-353.2597 627,-368 610.6474,-381.8154 610.4031,-390.9562 591,-400 538.2743,-424.5754 519.6717,-419 461.5,-419 359,-419 359,-419 359,-419 304.4618,-419 285.966,-414.2709 242,-382 222.18,-367.4522 206.3465,-344.7355 195.5102,-325.7652"/>
<polygon fill="#000000" stroke="#000000" points="198.474,-323.8906 190.5964,-316.8057 192.3364,-327.2567 198.474,-323.8906"/>
</g>
<!-- 139748202039392 -->
<g id="node4" class="node">
<title>139748202039392</title>
<polygon fill="none" stroke="#000000" points="758,-204 648,-204 648,-168 758,-168 758,-204"/>
<text text-anchor="middle" x="703" y="-182.3" font-family="Times,serif" font-size="14.00" fill="#000000">OrdersAlertFilter</text>
</g>
<!-- 139748202039392&#45;&gt;139748202040624 -->
<g id="edge7" class="edge">
<title>139748202039392&#45;&gt;139748202040624</title>
<path fill="none" stroke="#000000" d="M649.0164,-204.1243C600.52,-218.7832 527.0633,-237 461.5,-237 359,-237 359,-237 359,-237 305.984,-237 247.8679,-259.0918 212.4111,-275.273"/>
<polygon fill="#000000" stroke="#000000" points="210.6109,-272.251 203.0345,-279.6569 213.5757,-278.5921 210.6109,-272.251"/>
</g>
<!-- 139748202040176 -->
<g id="node5" class="node">
<title>139748202040176</title>
<polygon fill="none" stroke="#000000" points="488.5,-382 434.5,-382 434.5,-346 488.5,-346 488.5,-382"/>
<text text-anchor="middle" x="461.5" y="-360.3" font-family="Times,serif" font-size="14.00" fill="#000000">Root</text>
</g>
<!-- 139748202038776 -->
<g id="node22" class="node">
<title>139748202038776</title>
<ellipse fill="#ffa500" stroke="#000000" cx="564" cy="-364" rx="27" ry="27"/>
</g>
<!-- 139748202040176&#45;&gt;139748202038776 -->
<g id="edge6" class="edge">
<title>139748202040176&#45;&gt;139748202038776</title>
<path fill="none" stroke="#000000" d="M488.699,-364C500.2828,-364 513.9866,-364 526.5073,-364"/>
<polygon fill="#000000" stroke="#000000" points="526.6739,-367.5001 536.6739,-364 526.6739,-360.5001 526.6739,-367.5001"/>
</g>
<!-- 139748202040064 -->
<g id="node6" class="node">
<title>139748202040064</title>
<polygon fill="none" stroke="#000000" points="745.5,-149 660.5,-149 660.5,-113 745.5,-113 745.5,-149"/>
<text text-anchor="middle" x="703" y="-127.3" font-family="Times,serif" font-size="14.00" fill="#000000">TradeAction</text>
</g>
<!-- 139748202040064&#45;&gt;139748202040624 -->
<g id="edge10" class="edge">
<title>139748202040064&#45;&gt;139748202040624</title>
<path fill="none" stroke="#000000" d="M660.2017,-118.9645C612.2298,-106.5536 531.9309,-89 461.5,-89 359,-89 359,-89 359,-89 305.5317,-89 281.8408,-81.3408 242,-117 221.0291,-135.7699 199.407,-210.118 187.7438,-255.6525"/>
<polygon fill="#000000" stroke="#000000" points="184.3239,-254.9007 185.273,-265.4529 191.1115,-256.612 184.3239,-254.9007"/>
</g>
<!-- 139748202037320 -->
<g id="node7" class="node">
<title>139748202037320</title>
<polygon fill="none" stroke="#000000" points="758,-93 648,-93 648,-57 758,-57 758,-93"/>
<text text-anchor="middle" x="703" y="-71.3" font-family="Times,serif" font-size="14.00" fill="#000000">TradeAppServlet</text>
</g>
<!-- 139748202037320&#45;&gt;139748202040624 -->
<g id="edge2" class="edge">
<title>139748202037320&#45;&gt;139748202040624</title>
<path fill="none" stroke="#000000" d="M647.5218,-66.3354C598.6732,-59.4609 525.5431,-51 461.5,-51 359,-51 359,-51 359,-51 304.8489,-51 280.5317,-46.952 242,-85 229.6384,-97.2064 202.2461,-199.8581 188.0002,-255.8694"/>
<polygon fill="#000000" stroke="#000000" points="184.5594,-255.1998 185.4998,-265.7529 191.3456,-256.9168 184.5594,-255.1998"/>
</g>
<!-- 139748202038664 -->
<g id="node8" class="node">
<title>139748202038664</title>
<polygon fill="none" stroke="#000000" points="746,-36 660,-36 660,0 746,0 746,-36"/>
<text text-anchor="middle" x="703" y="-14.3" font-family="Times,serif" font-size="14.00" fill="#000000">TradeConfig</text>
</g>
<!-- 139748202038664&#45;&gt;139748202040624 -->
<g id="edge3" class="edge">
<title>139748202038664&#45;&gt;139748202040624</title>
<path fill="none" stroke="#000000" d="M659.8168,-16.5672C611.5039,-15.0897 530.9042,-13 461.5,-13 359,-13 359,-13 359,-13 304.4618,-13 279.5565,-10.4534 242,-50 238.3995,-53.7912 204.526,-188.9823 187.9924,-255.6157"/>
<polygon fill="#000000" stroke="#000000" points="184.5039,-255.1423 185.4951,-265.6907 191.2983,-256.8266 184.5039,-255.1423"/>
</g>
<!-- 139748203815600 -->
<g id="node9" class="node">
<title>139748203815600</title>
<polygon fill="none" stroke="#000000" points="757,-546 649,-546 649,-510 757,-510 757,-546"/>
<text text-anchor="middle" x="703" y="-524.3" font-family="Times,serif" font-size="14.00" fill="#000000">TradeSLSBBean</text>
</g>
<!-- 139748203815600&#45;&gt;139748202040624 -->
<g id="edge1" class="edge">
<title>139748203815600&#45;&gt;139748202040624</title>
<path fill="none" stroke="#000000" d="M648.815,-529.7628C599.8746,-531.2023 525.8719,-533 461.5,-533 359,-533 359,-533 359,-533 301.1573,-533 280.2999,-519.3462 242,-476 204.9797,-434.102 189.4927,-369.4237 183.171,-328.9638"/>
<polygon fill="#000000" stroke="#000000" points="186.6219,-328.3721 181.7203,-318.9793 179.6946,-329.3787 186.6219,-328.3721"/>
</g>
<!-- 139748203817504 -->
<g id="node10" class="node">
<title>139748203817504</title>
<polygon fill="none" stroke="#000000" points="764.5,-484 641.5,-484 641.5,-448 764.5,-448 764.5,-484"/>
<text text-anchor="middle" x="703" y="-462.3" font-family="Times,serif" font-size="14.00" fill="#000000">TradeServletAction</text>
</g>
<!-- 139748203817504&#45;&gt;139748202040624 -->
<g id="edge8" class="edge">
<title>139748203817504&#45;&gt;139748202040624</title>
<path fill="none" stroke="#000000" d="M641.452,-477.5032C592.7934,-485.5998 523.0477,-495 461.5,-495 359,-495 359,-495 359,-495 301.9135,-495 281.8031,-482.9216 242,-442 211.3023,-410.4396 194.6306,-361.7012 186.2854,-328.4044"/>
<polygon fill="#000000" stroke="#000000" points="189.6735,-327.5229 183.9565,-318.6028 182.8631,-329.1411 189.6735,-327.5229"/>
</g>
<!-- 139748202038944 -->
<g id="node11" class="node">
<title>139748202038944</title>
<polygon fill="none" stroke="#000000" points="501,-167 422,-167 422,-131 501,-131 501,-167"/>
<text text-anchor="middle" x="461.5" y="-145.3" font-family="Times,serif" font-size="14.00" fill="#000000">init_loop_2</text>
</g>
<!-- 139748202039616 -->
<g id="node19" class="node">
<title>139748202039616</title>
<ellipse fill="none" stroke="#000000" cx="564" cy="-182" rx="27" ry="27"/>
<text text-anchor="middle" x="564" y="-178.3" font-family="Times,serif" font-size="14.00" fill="#000000">p_5</text>
</g>
<!-- 139748202038944&#45;&gt;139748202039616 -->
<g id="edge11" class="edge">
<title>139748202038944&#45;&gt;139748202039616</title>
<path fill="none" stroke="#000000" d="M501.1292,-161.7587C510.134,-164.6578 519.644,-167.7195 528.4662,-170.5598"/>
<polygon fill="#000000" stroke="#000000" points="527.4793,-173.919 538.0708,-173.6521 529.6246,-167.2558 527.4793,-173.919"/>
</g>
<!-- 139748202039504 -->
<g id="node12" class="node">
<title>139748202039504</title>
<polygon fill="none" stroke="#000000" points="488.5,-306 434.5,-306 434.5,-270 488.5,-270 488.5,-306"/>
<text text-anchor="middle" x="461.5" y="-284.3" font-family="Times,serif" font-size="14.00" fill="#000000">loop_3</text>
</g>
<!-- 139748202039504&#45;&gt;139748202039616 -->
<g id="edge12" class="edge">
<title>139748202039504&#45;&gt;139748202039616</title>
<path fill="none" stroke="#000000" d="M479.3541,-269.5362C495.5576,-252.7795 519.6496,-227.8648 537.9921,-208.896"/>
<polygon fill="#000000" stroke="#000000" points="540.5254,-211.3111 544.9608,-201.6894 535.4933,-206.4452 540.5254,-211.3111"/>
</g>
<!-- 139748203816104 -->
<g id="node13" class="node">
<title>139748203816104</title>
<polygon fill="none" stroke="#000000" points="296,-310 242,-310 242,-274 296,-274 296,-310"/>
<text text-anchor="middle" x="269" y="-288.3" font-family="Times,serif" font-size="14.00" fill="#000000">skip_4</text>
</g>
<!-- 139748202041016 -->
<g id="node21" class="node">
<title>139748202041016</title>
<ellipse fill="none" stroke="#000000" cx="359" cy="-292" rx="27" ry="27"/>
<text text-anchor="middle" x="359" y="-288.3" font-family="Times,serif" font-size="14.00" fill="#000000">p_7</text>
</g>
<!-- 139748203816104&#45;&gt;139748202041016 -->
<g id="edge27" class="edge">
<title>139748203816104&#45;&gt;139748202041016</title>
<path fill="none" stroke="#000000" d="M296.003,-292C304.0277,-292 312.9665,-292 321.5309,-292"/>
<polygon fill="#000000" stroke="#000000" points="321.7051,-295.5001 331.705,-292 321.705,-288.5001 321.7051,-295.5001"/>
</g>
<!-- 139748203816440 -->
<g id="node14" class="node">
<title>139748203816440</title>
<polygon fill="none" stroke="#000000" points="296,-373 242,-373 242,-337 296,-337 296,-373"/>
<text text-anchor="middle" x="269" y="-351.3" font-family="Times,serif" font-size="14.00" fill="#000000">skip_5</text>
</g>
<!-- 139748202037824 -->
<g id="node18" class="node">
<title>139748202037824</title>
<ellipse fill="none" stroke="#000000" cx="359" cy="-364" rx="27" ry="27"/>
<text text-anchor="middle" x="359" y="-360.3" font-family="Times,serif" font-size="14.00" fill="#000000">p_4</text>
</g>
<!-- 139748203816440&#45;&gt;139748202037824 -->
<g id="edge28" class="edge">
<title>139748203816440&#45;&gt;139748202037824</title>
<path fill="none" stroke="#000000" d="M296.003,-357.7003C304.1903,-358.519 313.3292,-359.4329 322.051,-360.3051"/>
<polygon fill="#000000" stroke="#000000" points="321.7174,-363.7891 332.0161,-361.3016 322.414,-356.8239 321.7174,-363.7891"/>
</g>
<!-- 139748202038384 -->
<g id="node15" class="node">
<title>139748202038384</title>
<polygon fill="none" stroke="#000000" points="296,-162 242,-162 242,-126 296,-126 296,-162"/>
<text text-anchor="middle" x="269" y="-140.3" font-family="Times,serif" font-size="14.00" fill="#000000">tau_1</text>
</g>
<!-- 139748202040568 -->
<g id="node17" class="node">
<title>139748202040568</title>
<ellipse fill="none" stroke="#000000" cx="359" cy="-144" rx="27" ry="27"/>
<text text-anchor="middle" x="359" y="-140.3" font-family="Times,serif" font-size="14.00" fill="#000000">p_3</text>
</g>
<!-- 139748202038384&#45;&gt;139748202040568 -->
<g id="edge30" class="edge">
<title>139748202038384&#45;&gt;139748202040568</title>
<path fill="none" stroke="#000000" d="M296.003,-144C304.0277,-144 312.9665,-144 321.5309,-144"/>
<polygon fill="#000000" stroke="#000000" points="321.7051,-147.5001 331.705,-144 321.705,-140.5001 321.7051,-147.5001"/>
</g>
<!-- 139748202040008 -->
<g id="node16" class="node">
<title>139748202040008</title>
<ellipse fill="#00ff00" stroke="#000000" cx="179" cy="-144" rx="27" ry="27"/>
<text text-anchor="middle" x="179" y="-140.3" font-family="Times,serif" font-size="14.00" fill="#000000">1</text>
</g>
<!-- 139748202040008&#45;&gt;139748202038384 -->
<g id="edge29" class="edge">
<title>139748202040008&#45;&gt;139748202038384</title>
<path fill="none" stroke="#000000" d="M206.003,-144C214.0277,-144 222.9665,-144 231.5309,-144"/>
<polygon fill="#000000" stroke="#000000" points="231.7051,-147.5001 241.705,-144 231.705,-140.5001 231.7051,-147.5001"/>
</g>
<!-- 139748202040568&#45;&gt;139748202038944 -->
<g id="edge13" class="edge">
<title>139748202040568&#45;&gt;139748202038944</title>
<path fill="none" stroke="#000000" d="M386.199,-145.3268C394.0426,-145.7094 402.8582,-146.1394 411.6204,-146.5668"/>
<polygon fill="#000000" stroke="#000000" points="411.6617,-150.0729 421.8204,-147.0644 412.0028,-143.0812 411.6617,-150.0729"/>
</g>
<!-- 139748202037824&#45;&gt;139748202040176 -->
<g id="edge14" class="edge">
<title>139748202037824&#45;&gt;139748202040176</title>
<path fill="none" stroke="#000000" d="M386.199,-364C397.7828,-364 411.4866,-364 424.0073,-364"/>
<polygon fill="#000000" stroke="#000000" points="424.1739,-367.5001 434.1739,-364 424.1739,-360.5001 424.1739,-367.5001"/>
</g>
<!-- 139748202039616&#45;&gt;139748202037376 -->
<g id="edge22" class="edge">
<title>139748202039616&#45;&gt;139748202037376</title>
<path fill="none" stroke="#000000" d="M537.1954,-185.6469C498.0987,-190.6421 423.1038,-199 359,-199 269,-199 269,-199 269,-199 218.1502,-199 161.9566,-211.9113 120.3539,-224.0533"/>
<polygon fill="#000000" stroke="#000000" points="119.2216,-220.7385 110.6398,-226.9516 121.2231,-227.4463 119.2216,-220.7385"/>
</g>
<!-- 139748202039616&#45;&gt;139748202040792 -->
<g id="edge19" class="edge">
<title>139748202039616&#45;&gt;139748202040792</title>
<path fill="none" stroke="#000000" d="M570.5284,-208.2212C579.423,-240.2337 597.6843,-294.9275 627,-334 637.5949,-348.121 652.179,-360.8649 665.7402,-371.0082"/>
<polygon fill="#000000" stroke="#000000" points="663.8505,-373.9607 674.007,-376.9769 667.9482,-368.2854 663.8505,-373.9607"/>
</g>
<!-- 139748202039616&#45;&gt;139748202037712 -->
<g id="edge18" class="edge">
<title>139748202039616&#45;&gt;139748202037712</title>
<path fill="none" stroke="#000000" d="M584.2118,-200.1761C608.1975,-221.746 648.32,-257.8273 675.2143,-282.0129"/>
<polygon fill="#000000" stroke="#000000" points="672.9878,-284.7177 682.7638,-288.802 677.6685,-279.5128 672.9878,-284.7177"/>
</g>
<!-- 139748202039616&#45;&gt;139748202039392 -->
<g id="edge20" class="edge">
<title>139748202039616&#45;&gt;139748202039392</title>
<path fill="none" stroke="#000000" d="M591.1306,-182.7807C604.4778,-183.1648 621.1964,-183.6459 637.6084,-184.1182"/>
<polygon fill="#000000" stroke="#000000" points="637.6581,-187.621 647.7547,-184.4102 637.8595,-180.6239 637.6581,-187.621"/>
</g>
<!-- 139748202039616&#45;&gt;139748202040064 -->
<g id="edge23" class="edge">
<title>139748202039616&#45;&gt;139748202040064</title>
<path fill="none" stroke="#000000" d="M589.4947,-172.6458C606.6901,-166.3367 629.9908,-157.7875 651.007,-150.0766"/>
<polygon fill="#000000" stroke="#000000" points="652.2897,-153.3342 660.4721,-146.6038 649.8785,-146.7625 652.2897,-153.3342"/>
</g>
<!-- 139748202039616&#45;&gt;139748202037320 -->
<g id="edge16" class="edge">
<title>139748202039616&#45;&gt;139748202037320</title>
<path fill="none" stroke="#000000" d="M577.9769,-158.7304C589.3176,-141.5651 606.7157,-118.7261 627,-104 630.6338,-101.3619 634.5374,-98.9317 638.5878,-96.6986"/>
<polygon fill="#000000" stroke="#000000" points="640.2969,-99.7564 647.6412,-92.1202 637.1379,-93.5097 640.2969,-99.7564"/>
</g>
<!-- 139748202039616&#45;&gt;139748202038664 -->
<g id="edge17" class="edge">
<title>139748202039616&#45;&gt;139748202038664</title>
<path fill="none" stroke="#000000" d="M570.1244,-155.5933C578.3202,-125.7382 595.6013,-77.465 627,-48 633.7607,-41.6556 642.0232,-36.5954 650.5799,-32.577"/>
<polygon fill="#000000" stroke="#000000" points="652.0837,-35.741 659.9233,-28.6141 649.3504,-29.2967 652.0837,-35.741"/>
</g>
<!-- 139748202039616&#45;&gt;139748203815600 -->
<g id="edge15" class="edge">
<title>139748202039616&#45;&gt;139748203815600</title>
<path fill="none" stroke="#000000" d="M569.0883,-208.7614C583.2756,-283.153 622.5285,-487.3508 627,-493 630.7541,-497.7429 635.2977,-501.869 640.2747,-505.4532"/>
<polygon fill="#000000" stroke="#000000" points="638.6779,-508.5851 648.9969,-510.9872 642.4281,-502.6744 638.6779,-508.5851"/>
</g>
<!-- 139748202039616&#45;&gt;139748203817504 -->
<g id="edge21" class="edge">
<title>139748202039616&#45;&gt;139748203817504</title>
<path fill="none" stroke="#000000" d="M568.3972,-208.9903C577.8351,-264.323 601.2749,-388.2553 627,-422 633.1005,-430.0023 641.107,-436.803 649.6311,-442.4898"/>
<polygon fill="#000000" stroke="#000000" points="647.9252,-445.5495 658.2764,-447.8084 651.5932,-439.5875 647.9252,-445.5495"/>
</g>
<!-- 139748202040624&#45;&gt;139748203816104 -->
<g id="edge24" class="edge">
<title>139748202040624&#45;&gt;139748203816104</title>
<path fill="none" stroke="#000000" d="M206.003,-292C214.0277,-292 222.9665,-292 231.5309,-292"/>
<polygon fill="#000000" stroke="#000000" points="231.7051,-295.5001 241.705,-292 231.705,-288.5001 231.7051,-295.5001"/>
</g>
<!-- 139748202040624&#45;&gt;139748203816440 -->
<g id="edge25" class="edge">
<title>139748202040624&#45;&gt;139748203816440</title>
<path fill="none" stroke="#000000" d="M201.2472,-307.573C211.3684,-314.6579 223.5735,-323.2015 234.8201,-331.0741"/>
<polygon fill="#000000" stroke="#000000" points="232.9838,-334.0609 243.1832,-336.9283 236.998,-328.3263 232.9838,-334.0609"/>
</g>
<!-- 139748202041016&#45;&gt;139748202039504 -->
<g id="edge26" class="edge">
<title>139748202041016&#45;&gt;139748202039504</title>
<path fill="none" stroke="#000000" d="M386.199,-290.9386C397.7828,-290.4865 411.4866,-289.9517 424.0073,-289.4631"/>
<polygon fill="#000000" stroke="#000000" points="424.318,-292.9538 434.1739,-289.0664 424.045,-285.9591 424.318,-292.9538"/>
</g>
</g>
</svg>
