<?xml version="1.0" encoding="UTF-8" standalone="no"?>
<!DOCTYPE svg PUBLIC "-//W3C//DTD SVG 1.1//EN"
 "http://www.w3.org/Graphics/SVG/1.1/DTD/svg11.dtd">
<!-- Generated by graphviz version 2.40.1 (20161225.0304)
 -->
<!-- Title: alpha_plus_net_1585315547.1619487 Pages: 1 -->
<svg width="495pt" height="217pt"
 viewBox="0.00 0.00 495.00 217.00" xmlns="http://www.w3.org/2000/svg" xmlns:xlink="http://www.w3.org/1999/xlink">
<g id="graph0" class="graph" transform="scale(1 1) rotate(0) translate(4 213)">
<title>alpha_plus_net_1585315547.1619487</title>
<!-- 140178123166272 -->
<g id="node1" class="node">
<title>140178123166272</title>
<polygon fill="none" stroke="#000000" points="97,-73 28,-73 28,-37 97,-37 97,-73"/>
<text text-anchor="middle" x="62.5" y="-51.3" font-family="Times,serif" font-size="14.00" fill="#000000">PingBean</text>
</g>
<!-- 140178132273080 -->
<g id="node2" class="node">
<title>140178132273080</title>
<polygon fill="none" stroke="#000000" points="125,-127 0,-127 0,-91 125,-91 125,-127"/>
<text text-anchor="middle" x="62.5" y="-105.3" font-family="Times,serif" font-size="14.00" fill="#000000">PingServlet2Servlet</text>
</g>
<!-- 140178123167056 -->
<g id="node7" class="node">
<title>140178123167056</title>
<ellipse fill="none" stroke="#000000" cx="188" cy="-137" rx="27" ry="27"/>
<text text-anchor="middle" x="188" y="-133.3" font-family="Times,serif" font-size="14.00" fill="#000000">({&#39;PingServlet2Servlet&#39;}, {&#39;Root&#39;, &#39;PingServlet2ServletRcv&#39;})</text>
</g>
<!-- 140178132273080&#45;&gt;140178123167056 -->
<g id="edge4" class="edge">
<title>140178132273080&#45;&gt;140178123167056</title>
<path fill="none" stroke="#000000" d="M125.25,-123C134.2121,-124.9995 143.1742,-126.999 151.405,-128.8354"/>
<polygon fill="#000000" stroke="#000000" points="150.8625,-132.3003 161.3847,-131.0619 152.3868,-125.4683 150.8625,-132.3003"/>
</g>
<!-- 140178123166216 -->
<g id="node3" class="node">
<title>140178123166216</title>
<polygon fill="none" stroke="#000000" points="397,-146 251,-146 251,-110 397,-110 397,-146"/>
<text text-anchor="middle" x="324" y="-124.3" font-family="Times,serif" font-size="14.00" fill="#000000">PingServlet2ServletRcv</text>
</g>
<!-- 140178123166832 -->
<g id="node8" class="node">
<title>140178123166832</title>
<ellipse fill="none" stroke="#000000" cx="460" cy="-82" rx="27" ry="27"/>
<text text-anchor="middle" x="460" y="-78.3" font-family="Times,serif" font-size="14.00" fill="#000000">({&#39;artificial_start&#39;, &#39;PingServlet2ServletRcv&#39;}, {&#39;PingServlet2Servlet&#39;})</text>
</g>
<!-- 140178123166216&#45;&gt;140178123166832 -->
<g id="edge5" class="edge">
<title>140178123166216&#45;&gt;140178123166832</title>
<path fill="none" stroke="#000000" d="M377.3605,-109.9516C393.2018,-104.5935 410.156,-98.859 424.5592,-93.9873"/>
<polygon fill="#000000" stroke="#000000" points="425.7266,-97.2873 434.078,-90.7677 423.4838,-90.6564 425.7266,-97.2873"/>
</g>
<!-- 140178132274144 -->
<g id="node4" class="node">
<title>140178132274144</title>
<polygon fill="none" stroke="#000000" points="351,-200 297,-200 297,-164 351,-164 351,-200"/>
<text text-anchor="middle" x="324" y="-178.3" font-family="Times,serif" font-size="14.00" fill="#000000">Root</text>
</g>
<!-- 140178123166664 -->
<g id="node9" class="node">
<title>140178123166664</title>
<ellipse fill="#ffa500" stroke="#000000" cx="460" cy="-182" rx="27" ry="27"/>
</g>
<!-- 140178132274144&#45;&gt;140178123166664 -->
<g id="edge6" class="edge">
<title>140178132274144&#45;&gt;140178123166664</title>
<path fill="none" stroke="#000000" d="M351.1948,-182C371.6717,-182 399.9826,-182 422.5927,-182"/>
<polygon fill="#000000" stroke="#000000" points="422.8524,-185.5001 432.8524,-182 422.8523,-178.5001 422.8524,-185.5001"/>
</g>
<!-- 140178132273864 -->
<g id="node5" class="node">
<title>140178132273864</title>
<polygon fill="none" stroke="#000000" points="370,-50 278,-50 278,-14 370,-14 370,-50"/>
<text text-anchor="middle" x="324" y="-28.3" font-family="Times,serif" font-size="14.00" fill="#000000">artificial_start</text>
</g>
<!-- 140178132273864&#45;&gt;140178123166832 -->
<g id="edge7" class="edge">
<title>140178132273864&#45;&gt;140178123166832</title>
<path fill="none" stroke="#000000" d="M370.0434,-48.9277C388.0802,-55.5589 408.4258,-63.0389 425.1997,-69.2058"/>
<polygon fill="#000000" stroke="#000000" points="424.0253,-72.503 434.6188,-72.6687 426.4408,-65.9329 424.0253,-72.503"/>
</g>
<!-- 140178132274704 -->
<g id="node6" class="node">
<title>140178132274704</title>
<ellipse fill="#00ff00" stroke="#000000" cx="188" cy="-27" rx="27" ry="27"/>
<text text-anchor="middle" x="188" y="-23.3" font-family="Times,serif" font-size="14.00" fill="#000000">1</text>
</g>
<!-- 140178132274704&#45;&gt;140178132273864 -->
<g id="edge8" class="edge">
<title>140178132274704&#45;&gt;140178132273864</title>
<path fill="none" stroke="#000000" d="M215.1948,-27.9998C230.2332,-28.5527 249.4969,-29.2609 267.6246,-29.9274"/>
<polygon fill="#000000" stroke="#000000" points="267.7124,-33.4329 277.8343,-30.3027 267.9697,-26.4376 267.7124,-33.4329"/>
</g>
<!-- 140178123167056&#45;&gt;140178123166216 -->
<g id="edge1" class="edge">
<title>140178123167056&#45;&gt;140178123166216</title>
<path fill="none" stroke="#000000" d="M215.1948,-135.2003C222.8798,-134.6918 231.6682,-134.1102 240.8445,-133.5029"/>
<polygon fill="#000000" stroke="#000000" points="241.1732,-136.9889 250.9202,-132.8362 240.7109,-130.0042 241.1732,-136.9889"/>
</g>
<!-- 140178123167056&#45;&gt;140178132274144 -->
<g id="edge2" class="edge">
<title>140178123167056&#45;&gt;140178132274144</title>
<path fill="none" stroke="#000000" d="M213.9007,-145.5701C234.6707,-152.4425 264.0798,-162.1735 287.2787,-169.8496"/>
<polygon fill="#000000" stroke="#000000" points="286.2043,-173.1806 296.7976,-172.9992 288.4033,-166.535 286.2043,-173.1806"/>
</g>
<!-- 140178123166832&#45;&gt;140178132273080 -->
<g id="edge3" class="edge">
<title>140178123166832&#45;&gt;140178132273080</title>
<path fill="none" stroke="#000000" d="M432.7799,-83.5691C380.2247,-86.6341 261.1259,-93.7533 161,-101 152.6364,-101.6053 143.876,-102.2711 135.1752,-102.9522"/>
<polygon fill="#000000" stroke="#000000" points="134.7087,-99.4781 125.016,-103.7561 135.2609,-106.4563 134.7087,-99.4781"/>
</g>
</g>
</svg>
