<?xml version="1.0" encoding="UTF-8" standalone="no"?>
<!DOCTYPE svg PUBLIC "-//W3C//DTD SVG 1.1//EN"
 "http://www.w3.org/Graphics/SVG/1.1/DTD/svg11.dtd">
<!-- Generated by graphviz version 2.40.1 (20161225.0304)
 -->
<!-- Title: alpha_classic_net_1586496251.5885775 Pages: 1 -->
<svg width="585pt" height="170pt"
 viewBox="0.00 0.00 585.00 170.00" xmlns="http://www.w3.org/2000/svg" xmlns:xlink="http://www.w3.org/1999/xlink">
<g id="graph0" class="graph" transform="scale(1 1) rotate(0) translate(4 166)">
<title>alpha_classic_net_1586496251.5885775</title>
<!-- 139748206014080 -->
<g id="node1" class="node">
<title>139748206014080</title>
<polygon fill="none" stroke="#000000" points="107.5,-36 38.5,-36 38.5,0 107.5,0 107.5,-36"/>
<text text-anchor="middle" x="73" y="-14.3" font-family="Times,serif" font-size="14.00" fill="#000000">PingBean</text>
</g>
<!-- 139748206010944 -->
<g id="node2" class="node">
<title>139748206010944</title>
<polygon fill="none" stroke="#000000" points="307,-99 182,-99 182,-63 307,-63 307,-99"/>
<text text-anchor="middle" x="244.5" y="-77.3" font-family="Times,serif" font-size="14.00" fill="#000000">PingServlet2Servlet</text>
</g>
<!-- 139748205241680 -->
<g id="node6" class="node">
<title>139748205241680</title>
<ellipse fill="none" stroke="#000000" cx="370" cy="-81" rx="27" ry="27"/>
<text text-anchor="middle" x="370" y="-77.3" font-family="Times,serif" font-size="14.00" fill="#000000">({&#39;PingServlet2Servlet&#39;}, {&#39;Root&#39;})</text>
</g>
<!-- 139748206010944&#45;&gt;139748205241680 -->
<g id="edge2" class="edge">
<title>139748206010944&#45;&gt;139748205241680</title>
<path fill="none" stroke="#000000" d="M307.25,-81C315.9421,-81 324.6342,-81 332.6591,-81"/>
<polygon fill="#000000" stroke="#000000" points="332.7684,-84.5001 342.7684,-81 332.7683,-77.5001 332.7684,-84.5001"/>
</g>
<!-- 139748206011336 -->
<g id="node3" class="node">
<title>139748206011336</title>
<polygon fill="none" stroke="#000000" points="146,-162 0,-162 0,-126 146,-126 146,-162"/>
<text text-anchor="middle" x="73" y="-140.3" font-family="Times,serif" font-size="14.00" fill="#000000">PingServlet2ServletRcv</text>
</g>
<!-- 139748206010664 -->
<g id="node4" class="node">
<title>139748206010664</title>
<polygon fill="none" stroke="#000000" points="487,-99 433,-99 433,-63 487,-63 487,-99"/>
<text text-anchor="middle" x="460" y="-77.3" font-family="Times,serif" font-size="14.00" fill="#000000">Root</text>
</g>
<!-- 139748205241400 -->
<g id="node7" class="node">
<title>139748205241400</title>
<ellipse fill="#ffa500" stroke="#000000" cx="550" cy="-81" rx="27" ry="27"/>
</g>
<!-- 139748206010664&#45;&gt;139748205241400 -->
<g id="edge3" class="edge">
<title>139748206010664&#45;&gt;139748205241400</title>
<path fill="none" stroke="#000000" d="M487.003,-81C495.0277,-81 503.9665,-81 512.5309,-81"/>
<polygon fill="#000000" stroke="#000000" points="512.7051,-84.5001 522.705,-81 512.705,-77.5001 512.7051,-84.5001"/>
</g>
<!-- 139748205241960 -->
<g id="node5" class="node">
<title>139748205241960</title>
<ellipse fill="#00ff00" stroke="#000000" cx="73" cy="-81" rx="27" ry="27"/>
<text text-anchor="middle" x="73" y="-77.3" font-family="Times,serif" font-size="14.00" fill="#000000">1</text>
</g>
<!-- 139748205241960&#45;&gt;139748206010944 -->
<g id="edge4" class="edge">
<title>139748205241960&#45;&gt;139748206010944</title>
<path fill="none" stroke="#000000" d="M100.1747,-81C119.5192,-81 146.482,-81 171.8727,-81"/>
<polygon fill="#000000" stroke="#000000" points="171.8794,-84.5001 181.8794,-81 171.8793,-77.5001 171.8794,-84.5001"/>
</g>
<!-- 139748205241680&#45;&gt;139748206010664 -->
<g id="edge1" class="edge">
<title>139748205241680&#45;&gt;139748206010664</title>
<path fill="none" stroke="#000000" d="M397.003,-81C405.0277,-81 413.9665,-81 422.5309,-81"/>
<polygon fill="#000000" stroke="#000000" points="422.7051,-84.5001 432.705,-81 422.705,-77.5001 422.7051,-84.5001"/>
</g>
</g>
</svg>
