<?xml version="1.0" encoding="UTF-8" standalone="no"?>
<!DOCTYPE svg PUBLIC "-//W3C//DTD SVG 1.1//EN"
 "http://www.w3.org/Graphics/SVG/1.1/DTD/svg11.dtd">
<!-- Generated by graphviz version 2.40.1 (20161225.0304)
 -->
<!-- Title: %3 Pages: 1 -->
<svg width="1770pt" height="318pt"
 viewBox="0.00 0.00 1770.00 318.00" xmlns="http://www.w3.org/2000/svg" xmlns:xlink="http://www.w3.org/1999/xlink">
<g id="graph0" class="graph" transform="scale(1 1) rotate(0) translate(4 314)">
<title>%3</title>
<!-- 139748191273256 -->
<g id="node1" class="node">
<title>139748191273256</title>
<polygon fill="none" stroke="#000000" points="69,-281 0,-281 0,-245 69,-245 69,-281"/>
<text text-anchor="middle" x="34.5" y="-259.3" font-family="Times,serif" font-size="14.00" fill="#000000">PingBean</text>
</g>
<!-- 139748191276056 -->
<g id="node13" class="node">
<title>139748191276056</title>
<ellipse fill="none" stroke="#000000" cx="132" cy="-236" rx="27" ry="27"/>
<text text-anchor="middle" x="132" y="-232.3" font-family="Times,serif" font-size="14.00" fill="#000000">intplace_PingBean</text>
</g>
<!-- 139748191273256&#45;&gt;139748191276056 -->
<g id="edge1" class="edge">
<title>139748191273256&#45;&gt;139748191276056</title>
<path fill="none" stroke="#000000" d="M69.1494,-253.4048C77.8043,-251.008 87.1081,-248.4316 95.8344,-246.0151"/>
<polygon fill="#000000" stroke="#000000" points="97.0363,-249.3141 105.7395,-243.2721 95.1681,-242.5679 97.0363,-249.3141"/>
</g>
<!-- 139748191276672 -->
<g id="node2" class="node">
<title>139748191276672</title>
<polygon fill="none" stroke="#000000" points="1312,-117 1187,-117 1187,-81 1312,-81 1312,-117"/>
<text text-anchor="middle" x="1249.5" y="-95.3" font-family="Times,serif" font-size="14.00" fill="#000000">PingServlet2Servlet</text>
</g>
<!-- 139748191273984 -->
<g id="node14" class="node">
<title>139748191273984</title>
<ellipse fill="none" stroke="#000000" cx="1375" cy="-99" rx="27" ry="27"/>
<text text-anchor="middle" x="1375" y="-95.3" font-family="Times,serif" font-size="14.00" fill="#000000">intplace_PingServlet2Servlet</text>
</g>
<!-- 139748191276672&#45;&gt;139748191273984 -->
<g id="edge2" class="edge">
<title>139748191276672&#45;&gt;139748191273984</title>
<path fill="none" stroke="#000000" d="M1312.25,-99C1320.9421,-99 1329.6342,-99 1337.6591,-99"/>
<polygon fill="#000000" stroke="#000000" points="1337.7684,-102.5001 1347.7684,-99 1337.7683,-95.5001 1337.7684,-102.5001"/>
</g>
<!-- 139748191273088 -->
<g id="node3" class="node">
<title>139748191273088</title>
<polygon fill="none" stroke="#000000" points="701,-235 555,-235 555,-199 701,-199 701,-235"/>
<text text-anchor="middle" x="628" y="-213.3" font-family="Times,serif" font-size="14.00" fill="#000000">PingServlet2ServletRcv</text>
</g>
<!-- 139748205349912 -->
<g id="node15" class="node">
<title>139748205349912</title>
<ellipse fill="none" stroke="#000000" cx="764" cy="-217" rx="27" ry="27"/>
<text text-anchor="middle" x="764" y="-213.3" font-family="Times,serif" font-size="14.00" fill="#000000">intplace_PingServlet2ServletRcv</text>
</g>
<!-- 139748191273088&#45;&gt;139748205349912 -->
<g id="edge3" class="edge">
<title>139748191273088&#45;&gt;139748205349912</title>
<path fill="none" stroke="#000000" d="M701.1752,-217C710.0057,-217 718.7192,-217 726.7152,-217"/>
<polygon fill="#000000" stroke="#000000" points="726.7632,-220.5001 736.7632,-217 726.7631,-213.5001 726.7632,-220.5001"/>
</g>
<!-- 139748191274768 -->
<g id="node4" class="node">
<title>139748191274768</title>
<polygon fill="none" stroke="#000000" points="1672,-45 1618,-45 1618,-9 1672,-9 1672,-45"/>
<text text-anchor="middle" x="1645" y="-23.3" font-family="Times,serif" font-size="14.00" fill="#000000">Root</text>
</g>
<!-- 139748191275776 -->
<g id="node26" class="node">
<title>139748191275776</title>
<ellipse fill="#ffa500" stroke="#000000" cx="1735" cy="-27" rx="27" ry="27"/>
</g>
<!-- 139748191274768&#45;&gt;139748191275776 -->
<g id="edge4" class="edge">
<title>139748191274768&#45;&gt;139748191275776</title>
<path fill="none" stroke="#000000" d="M1672.003,-27C1680.0277,-27 1688.9665,-27 1697.5309,-27"/>
<polygon fill="#000000" stroke="#000000" points="1697.7051,-30.5001 1707.705,-27 1697.705,-23.5001 1697.7051,-30.5001"/>
</g>
<!-- 139748191274040 -->
<g id="node5" class="node">
<title>139748191274040</title>
<polygon fill="none" stroke="#000000" points="1061,-134 1007,-134 1007,-98 1061,-98 1061,-134"/>
<text text-anchor="middle" x="1034" y="-112.3" font-family="Times,serif" font-size="14.00" fill="#000000">hid_1</text>
</g>
<!-- 139748191276112 -->
<g id="node17" class="node">
<title>139748191276112</title>
<ellipse fill="none" stroke="#000000" cx="1124" cy="-99" rx="27" ry="27"/>
<text text-anchor="middle" x="1124" y="-95.3" font-family="Times,serif" font-size="14.00" fill="#000000">pre_PingServlet2Servlet</text>
</g>
<!-- 139748191274040&#45;&gt;139748191276112 -->
<g id="edge5" class="edge">
<title>139748191274040&#45;&gt;139748191276112</title>
<path fill="none" stroke="#000000" d="M1061.003,-110.8994C1069.2647,-109.3389 1078.4954,-107.5953 1087.2888,-105.9343"/>
<polygon fill="#000000" stroke="#000000" points="1088.1496,-109.3337 1097.3262,-104.0384 1086.8503,-102.4553 1088.1496,-109.3337"/>
</g>
<!-- 139748191273816 -->
<g id="node6" class="node">
<title>139748191273816</title>
<polygon fill="none" stroke="#000000" points="1061,-80 1007,-80 1007,-44 1061,-44 1061,-80"/>
<text text-anchor="middle" x="1034" y="-58.3" font-family="Times,serif" font-size="14.00" fill="#000000">hid_2</text>
</g>
<!-- 139748191273816&#45;&gt;139748191276112 -->
<g id="edge6" class="edge">
<title>139748191273816&#45;&gt;139748191276112</title>
<path fill="none" stroke="#000000" d="M1061.003,-73.1012C1069.9184,-76.7665 1079.9622,-80.8956 1089.3671,-84.762"/>
<polygon fill="#000000" stroke="#000000" points="1088.2829,-88.1005 1098.8627,-88.6658 1090.9446,-81.6263 1088.2829,-88.1005"/>
</g>
<!-- 139748191275608 -->
<g id="node7" class="node">
<title>139748191275608</title>
<polygon fill="none" stroke="#000000" points="1672,-273 1618,-273 1618,-237 1672,-237 1672,-273"/>
<text text-anchor="middle" x="1645" y="-251.3" font-family="Times,serif" font-size="14.00" fill="#000000">hid_3</text>
</g>
<!-- 139748191276896 -->
<g id="node16" class="node">
<title>139748191276896</title>
<ellipse fill="none" stroke="#000000" cx="1735" cy="-282" rx="27" ry="27"/>
<text text-anchor="middle" x="1735" y="-278.3" font-family="Times,serif" font-size="14.00" fill="#000000">pre_PingBean</text>
</g>
<!-- 139748191275608&#45;&gt;139748191276896 -->
<g id="edge7" class="edge">
<title>139748191275608&#45;&gt;139748191276896</title>
<path fill="none" stroke="#000000" d="M1672.003,-263.1009C1680.5964,-265.6789 1690.2382,-268.5715 1699.3457,-271.3037"/>
<polygon fill="#000000" stroke="#000000" points="1698.3597,-274.662 1708.9437,-274.1831 1700.3712,-267.9572 1698.3597,-274.662"/>
</g>
<!-- 139748191274600 -->
<g id="node8" class="node">
<title>139748191274600</title>
<polygon fill="none" stroke="#000000" points="429,-229 375,-229 375,-193 429,-193 429,-229"/>
<text text-anchor="middle" x="402" y="-207.3" font-family="Times,serif" font-size="14.00" fill="#000000">hid_4</text>
</g>
<!-- 139748191275272 -->
<g id="node18" class="node">
<title>139748191275272</title>
<ellipse fill="none" stroke="#000000" cx="492" cy="-217" rx="27" ry="27"/>
<text text-anchor="middle" x="492" y="-213.3" font-family="Times,serif" font-size="14.00" fill="#000000">pre_PingServlet2ServletRcv</text>
</g>
<!-- 139748191274600&#45;&gt;139748191275272 -->
<g id="edge8" class="edge">
<title>139748191274600&#45;&gt;139748191275272</title>
<path fill="none" stroke="#000000" d="M429.003,-212.8002C437.1013,-213.3401 446.1306,-213.942 454.7665,-214.5178"/>
<polygon fill="#000000" stroke="#000000" points="454.8054,-218.028 465.0161,-215.2011 455.2711,-211.0435 454.8054,-218.028"/>
</g>
<!-- 139748191276616 -->
<g id="node9" class="node">
<title>139748191276616</title>
<polygon fill="none" stroke="#000000" points="1492,-117 1438,-117 1438,-81 1492,-81 1492,-117"/>
<text text-anchor="middle" x="1465" y="-95.3" font-family="Times,serif" font-size="14.00" fill="#000000">hid_5</text>
</g>
<!-- 139748191275328 -->
<g id="node19" class="node">
<title>139748191275328</title>
<ellipse fill="none" stroke="#000000" cx="1555" cy="-27" rx="27" ry="27"/>
<text text-anchor="middle" x="1555" y="-23.3" font-family="Times,serif" font-size="14.00" fill="#000000">pre_Root</text>
</g>
<!-- 139748191276616&#45;&gt;139748191275328 -->
<g id="edge9" class="edge">
<title>139748191276616&#45;&gt;139748191275328</title>
<path fill="none" stroke="#000000" d="M1487.7108,-80.8314C1499.3298,-71.5362 1513.601,-60.1192 1526.0062,-50.195"/>
<polygon fill="#000000" stroke="#000000" points="1528.2199,-52.9063 1533.8421,-43.9263 1523.847,-47.4402 1528.2199,-52.9063"/>
</g>
<!-- 139748191276392 -->
<g id="node21" class="node">
<title>139748191276392</title>
<ellipse fill="none" stroke="#000000" cx="1555" cy="-99" rx="27" ry="27"/>
<text text-anchor="middle" x="1555" y="-95.3" font-family="Times,serif" font-size="14.00" fill="#000000">splace_in_PingBean_PingServlet2Servlet_0</text>
</g>
<!-- 139748191276616&#45;&gt;139748191276392 -->
<g id="edge10" class="edge">
<title>139748191276616&#45;&gt;139748191276392</title>
<path fill="none" stroke="#000000" d="M1492.003,-99C1500.0277,-99 1508.9665,-99 1517.5309,-99"/>
<polygon fill="#000000" stroke="#000000" points="1517.7051,-102.5001 1527.705,-99 1517.705,-95.5001 1517.7051,-102.5001"/>
</g>
<!-- 139748191274152 -->
<g id="node23" class="node">
<title>139748191274152</title>
<ellipse fill="none" stroke="#000000" cx="1555" cy="-171" rx="27" ry="27"/>
<text text-anchor="middle" x="1555" y="-167.3" font-family="Times,serif" font-size="14.00" fill="#000000">splace_in_PingServlet2ServletRcv_PingServlet2Servlet_0</text>
</g>
<!-- 139748191276616&#45;&gt;139748191274152 -->
<g id="edge11" class="edge">
<title>139748191276616&#45;&gt;139748191274152</title>
<path fill="none" stroke="#000000" d="M1487.7108,-117.1686C1499.3298,-126.4638 1513.601,-137.8808 1526.0062,-147.805"/>
<polygon fill="#000000" stroke="#000000" points="1523.847,-150.5598 1533.8421,-154.0737 1528.2199,-145.0937 1523.847,-150.5598"/>
</g>
<!-- 139748203976296 -->
<g id="node10" class="node">
<title>139748203976296</title>
<polygon fill="none" stroke="#000000" points="249,-229 195,-229 195,-193 249,-193 249,-229"/>
<text text-anchor="middle" x="222" y="-207.3" font-family="Times,serif" font-size="14.00" fill="#000000">hid_7</text>
</g>
<!-- 139748191275888 -->
<g id="node22" class="node">
<title>139748191275888</title>
<ellipse fill="none" stroke="#000000" cx="312" cy="-211" rx="27" ry="27"/>
<text text-anchor="middle" x="312" y="-207.3" font-family="Times,serif" font-size="14.00" fill="#000000">splace_in_PingServlet2ServletRcv_PingBean_0</text>
</g>
<!-- 139748203976296&#45;&gt;139748191275888 -->
<g id="edge12" class="edge">
<title>139748203976296&#45;&gt;139748191275888</title>
<path fill="none" stroke="#000000" d="M249.003,-211C257.0277,-211 265.9665,-211 274.5309,-211"/>
<polygon fill="#000000" stroke="#000000" points="274.7051,-214.5001 284.705,-211 274.705,-207.5001 274.7051,-214.5001"/>
</g>
<!-- 139748191274544 -->
<g id="node24" class="node">
<title>139748191274544</title>
<ellipse fill="none" stroke="#000000" cx="402" cy="-130" rx="27" ry="27"/>
<text text-anchor="middle" x="402" y="-126.3" font-family="Times,serif" font-size="14.00" fill="#000000">splace_in_PingServlet2Servlet_PingBean_0</text>
</g>
<!-- 139748203976296&#45;&gt;139748191274544 -->
<g id="edge13" class="edge">
<title>139748203976296&#45;&gt;139748191274544</title>
<path fill="none" stroke="#000000" d="M249.1164,-194.3024C260.0622,-187.882 272.9368,-180.7258 285,-175 311.665,-162.3436 342.9152,-150.4673 366.4082,-142.0968"/>
<polygon fill="#000000" stroke="#000000" points="367.6954,-145.3542 375.9656,-138.732 365.3708,-138.7515 367.6954,-145.3542"/>
</g>
<!-- 139748205350696 -->
<g id="node11" class="node">
<title>139748205350696</title>
<polygon fill="none" stroke="#000000" points="881,-235 827,-235 827,-199 881,-199 881,-235"/>
<text text-anchor="middle" x="854" y="-213.3" font-family="Times,serif" font-size="14.00" fill="#000000">hid_9</text>
</g>
<!-- 139748191276224 -->
<g id="node20" class="node">
<title>139748191276224</title>
<ellipse fill="none" stroke="#000000" cx="1124" cy="-255" rx="27" ry="27"/>
<text text-anchor="middle" x="1124" y="-251.3" font-family="Times,serif" font-size="14.00" fill="#000000">splace_in_PingBean_PingServlet2ServletRcv_0</text>
</g>
<!-- 139748205350696&#45;&gt;139748191276224 -->
<g id="edge14" class="edge">
<title>139748205350696&#45;&gt;139748191276224</title>
<path fill="none" stroke="#000000" d="M878.7483,-235.0479C889.8662,-242.0923 903.503,-249.3458 917,-253 974.8839,-268.6716 1045.252,-264.7636 1087.2389,-260.1418"/>
<polygon fill="#000000" stroke="#000000" points="1087.7538,-263.6055 1097.2772,-258.9629 1086.9372,-256.6533 1087.7538,-263.6055"/>
</g>
<!-- 139748191273760 -->
<g id="node25" class="node">
<title>139748191273760</title>
<ellipse fill="none" stroke="#000000" cx="944" cy="-217" rx="27" ry="27"/>
<text text-anchor="middle" x="944" y="-213.3" font-family="Times,serif" font-size="14.00" fill="#000000">splace_in_PingServlet2Servlet_PingServlet2ServletRcv_0</text>
</g>
<!-- 139748205350696&#45;&gt;139748191273760 -->
<g id="edge15" class="edge">
<title>139748205350696&#45;&gt;139748191273760</title>
<path fill="none" stroke="#000000" d="M881.003,-217C889.0277,-217 897.9665,-217 906.5309,-217"/>
<polygon fill="#000000" stroke="#000000" points="906.7051,-220.5001 916.705,-217 906.705,-213.5001 906.7051,-220.5001"/>
</g>
<!-- 139748191273424 -->
<g id="node12" class="node">
<title>139748191273424</title>
<ellipse fill="#00ff00" stroke="#000000" cx="944" cy="-62" rx="27" ry="27"/>
<text text-anchor="middle" x="944" y="-58.3" font-family="Times,serif" font-size="14.00" fill="#000000">1</text>
</g>
<!-- 139748191273424&#45;&gt;139748191273816 -->
<g id="edge23" class="edge">
<title>139748191273424&#45;&gt;139748191273816</title>
<path fill="none" stroke="#000000" d="M971.003,-62C979.0277,-62 987.9665,-62 996.5309,-62"/>
<polygon fill="#000000" stroke="#000000" points="996.7051,-65.5001 1006.705,-62 996.705,-58.5001 996.7051,-65.5001"/>
</g>
<!-- 139748191276056&#45;&gt;139748203976296 -->
<g id="edge16" class="edge">
<title>139748191276056&#45;&gt;139748203976296</title>
<path fill="none" stroke="#000000" d="M158.0317,-228.769C166.4054,-226.4429 175.8517,-223.819 184.8638,-221.3156"/>
<polygon fill="#000000" stroke="#000000" points="186.0754,-224.6117 194.7738,-218.5628 184.2018,-217.867 186.0754,-224.6117"/>
</g>
<!-- 139748191273984&#45;&gt;139748191276616 -->
<g id="edge17" class="edge">
<title>139748191273984&#45;&gt;139748191276616</title>
<path fill="none" stroke="#000000" d="M1402.003,-99C1410.0277,-99 1418.9665,-99 1427.5309,-99"/>
<polygon fill="#000000" stroke="#000000" points="1427.7051,-102.5001 1437.705,-99 1427.705,-95.5001 1427.7051,-102.5001"/>
</g>
<!-- 139748205349912&#45;&gt;139748205350696 -->
<g id="edge18" class="edge">
<title>139748205349912&#45;&gt;139748205350696</title>
<path fill="none" stroke="#000000" d="M791.003,-217C799.0277,-217 807.9665,-217 816.5309,-217"/>
<polygon fill="#000000" stroke="#000000" points="816.7051,-220.5001 826.705,-217 816.705,-213.5001 816.7051,-220.5001"/>
</g>
<!-- 139748191276896&#45;&gt;139748191273256 -->
<g id="edge19" class="edge">
<title>139748191276896&#45;&gt;139748191273256</title>
<path fill="none" stroke="#000000" d="M1708.6656,-288.7067C1673.7727,-296.9902 1610.1871,-310 1555,-310 222,-310 222,-310 222,-310 171.7858,-310 116.2158,-293.9436 78.7054,-280.6003"/>
<polygon fill="#000000" stroke="#000000" points="79.6928,-277.235 69.0988,-277.1015 77.2973,-283.8124 79.6928,-277.235"/>
</g>
<!-- 139748191276112&#45;&gt;139748191276672 -->
<g id="edge20" class="edge">
<title>139748191276112&#45;&gt;139748191276672</title>
<path fill="none" stroke="#000000" d="M1151.2316,-99C1158.8789,-99 1167.5756,-99 1176.5586,-99"/>
<polygon fill="#000000" stroke="#000000" points="1176.7816,-102.5001 1186.7816,-99 1176.7816,-95.5001 1176.7816,-102.5001"/>
</g>
<!-- 139748191275272&#45;&gt;139748191273088 -->
<g id="edge21" class="edge">
<title>139748191275272&#45;&gt;139748191273088</title>
<path fill="none" stroke="#000000" d="M519.1948,-217C526.8798,-217 535.6682,-217 544.8445,-217"/>
<polygon fill="#000000" stroke="#000000" points="544.9203,-220.5001 554.9202,-217 544.9202,-213.5001 544.9203,-220.5001"/>
</g>
<!-- 139748191275328&#45;&gt;139748191274768 -->
<g id="edge22" class="edge">
<title>139748191275328&#45;&gt;139748191274768</title>
<path fill="none" stroke="#000000" d="M1582.003,-27C1590.0277,-27 1598.9665,-27 1607.5309,-27"/>
<polygon fill="#000000" stroke="#000000" points="1607.7051,-30.5001 1617.705,-27 1607.705,-23.5001 1607.7051,-30.5001"/>
</g>
<!-- 139748191276224&#45;&gt;139748191275608 -->
<g id="edge24" class="edge">
<title>139748191276224&#45;&gt;139748191275608</title>
<path fill="none" stroke="#000000" d="M1151.1142,-255C1197.1432,-255 1293.5122,-255 1375,-255 1375,-255 1375,-255 1465,-255 1514.3475,-255 1571.305,-255 1607.7075,-255"/>
<polygon fill="#000000" stroke="#000000" points="1607.8598,-258.5001 1617.8597,-255 1607.8597,-251.5001 1607.8598,-258.5001"/>
</g>
<!-- 139748191276392&#45;&gt;139748191275608 -->
<g id="edge25" class="edge">
<title>139748191276392&#45;&gt;139748191275608</title>
<path fill="none" stroke="#000000" d="M1571.8539,-120.304C1575.3533,-125.0425 1578.9121,-130.1125 1582,-135 1601.3055,-165.5564 1620.1258,-202.6482 1632.0923,-227.4307"/>
<polygon fill="#000000" stroke="#000000" points="1629.0081,-229.0942 1636.4805,-236.6051 1635.3229,-226.0737 1629.0081,-229.0942"/>
</g>
<!-- 139748191275888&#45;&gt;139748191274600 -->
<g id="edge26" class="edge">
<title>139748191275888&#45;&gt;139748191274600</title>
<path fill="none" stroke="#000000" d="M339.003,-211C347.0277,-211 355.9665,-211 364.5309,-211"/>
<polygon fill="#000000" stroke="#000000" points="364.7051,-214.5001 374.705,-211 364.705,-207.5001 364.7051,-214.5001"/>
</g>
<!-- 139748191274152&#45;&gt;139748191274600 -->
<g id="edge27" class="edge">
<title>139748191274152&#45;&gt;139748191274600</title>
<path fill="none" stroke="#000000" d="M1527.8808,-168.7984C1492.6676,-166.1339 1429.2865,-162 1375,-162 628,-162 628,-162 628,-162 555.0651,-162 535.0899,-160.8279 465,-181 456.0231,-183.5836 446.7383,-187.3325 438.1455,-191.3105"/>
<polygon fill="#000000" stroke="#000000" points="436.6143,-188.1631 429.1403,-195.6725 439.6659,-194.463 436.6143,-188.1631"/>
</g>
<!-- 139748191274544&#45;&gt;139748191274040 -->
<g id="edge28" class="edge">
<title>139748191274544&#45;&gt;139748191274040</title>
<path fill="none" stroke="#000000" d="M429.1209,-128.2219C471.5316,-125.599 556.141,-121 628,-121 628,-121 628,-121 854,-121 903.3666,-121 960.3196,-119.0975 996.7159,-117.6396"/>
<polygon fill="#000000" stroke="#000000" points="997.0182,-121.1303 1006.8662,-117.2231 996.7311,-114.1361 997.0182,-121.1303"/>
</g>
<!-- 139748191273760&#45;&gt;139748191274040 -->
<g id="edge29" class="edge">
<title>139748191273760&#45;&gt;139748191274040</title>
<path fill="none" stroke="#000000" d="M962.2128,-196.5611C976.2496,-180.8088 995.7536,-158.9209 1010.8896,-141.935"/>
<polygon fill="#000000" stroke="#000000" points="1013.8863,-143.833 1017.926,-134.0386 1008.6601,-139.176 1013.8863,-143.833"/>
</g>
</g>
</svg>
