<?xml version="1.0" encoding="UTF-8" standalone="no"?>
<!DOCTYPE svg PUBLIC "-//W3C//DTD SVG 1.1//EN"
 "http://www.w3.org/Graphics/SVG/1.1/DTD/svg11.dtd">
<!-- Generated by graphviz version 2.40.1 (20161225.0304)
 -->
<!-- Title: %3 Pages: 1 -->
<svg width="1140pt" height="241pt"
 viewBox="0.00 0.00 1140.00 240.72" xmlns="http://www.w3.org/2000/svg" xmlns:xlink="http://www.w3.org/1999/xlink">
<g id="graph0" class="graph" transform="scale(1 1) rotate(0) translate(4 236.7219)">
<title>%3</title>
<!-- 140531497867640 -->
<g id="node1" class="node">
<title>140531497867640</title>
<polygon fill="none" stroke="#000000" points="69,-200.7219 0,-200.7219 0,-164.7219 69,-164.7219 69,-200.7219"/>
<text text-anchor="middle" x="34.5" y="-179.0219" font-family="Times,serif" font-size="14.00" fill="#000000">PingBean</text>
</g>
<!-- 140531497868088 -->
<g id="node17" class="node">
<title>140531497868088</title>
<ellipse fill="none" stroke="#000000" cx="132" cy="-155.7219" rx="27" ry="27"/>
<text text-anchor="middle" x="132" y="-152.0219" font-family="Times,serif" font-size="14.00" fill="#000000">splace_in_PingServlet2Servlet_0</text>
</g>
<!-- 140531497867640&#45;&gt;140531497868088 -->
<g id="edge1" class="edge">
<title>140531497867640&#45;&gt;140531497868088</title>
<path fill="none" stroke="#000000" d="M69.1494,-173.1267C77.8043,-170.7299 87.1081,-168.1535 95.8344,-165.737"/>
<polygon fill="#000000" stroke="#000000" points="97.0363,-169.0359 105.7395,-162.994 95.1681,-162.2898 97.0363,-169.0359"/>
</g>
<!-- 140531497867304 -->
<g id="node2" class="node">
<title>140531497867304</title>
<polygon fill="none" stroke="#000000" points="500,-122.7219 375,-122.7219 375,-86.7219 500,-86.7219 500,-122.7219"/>
<text text-anchor="middle" x="437.5" y="-101.0219" font-family="Times,serif" font-size="14.00" fill="#000000">PingServlet2Servlet</text>
</g>
<!-- 140531497868984 -->
<g id="node12" class="node">
<title>140531497868984</title>
<ellipse fill="none" stroke="#000000" cx="563" cy="-106.7219" rx="27" ry="27"/>
<text text-anchor="middle" x="563" y="-103.0219" font-family="Times,serif" font-size="14.00" fill="#000000">intplace_PingServlet2Servlet</text>
</g>
<!-- 140531497867304&#45;&gt;140531497868984 -->
<g id="edge2" class="edge">
<title>140531497867304&#45;&gt;140531497868984</title>
<path fill="none" stroke="#000000" d="M500.25,-105.7219C508.9421,-105.8604 517.6342,-105.9989 525.6591,-106.1268"/>
<polygon fill="#000000" stroke="#000000" points="525.7138,-109.628 535.7684,-106.2879 525.8254,-102.6289 525.7138,-109.628"/>
</g>
<!-- 140531497867696 -->
<g id="node3" class="node">
<title>140531497867696</title>
<polygon fill="none" stroke="#000000" points="952,-146.7219 806,-146.7219 806,-110.7219 952,-110.7219 952,-146.7219"/>
<text text-anchor="middle" x="879" y="-125.0219" font-family="Times,serif" font-size="14.00" fill="#000000">PingServlet2ServletRcv</text>
</g>
<!-- 140531497868368 -->
<g id="node18" class="node">
<title>140531497868368</title>
<ellipse fill="none" stroke="#000000" cx="1015" cy="-128.7219" rx="27" ry="27"/>
<text text-anchor="middle" x="1015" y="-125.0219" font-family="Times,serif" font-size="14.00" fill="#000000">splace_in_PingServlet2Servlet_1</text>
</g>
<!-- 140531497867696&#45;&gt;140531497868368 -->
<g id="edge3" class="edge">
<title>140531497867696&#45;&gt;140531497868368</title>
<path fill="none" stroke="#000000" d="M952.1752,-128.7219C961.0057,-128.7219 969.7192,-128.7219 977.7152,-128.7219"/>
<polygon fill="#000000" stroke="#000000" points="977.7632,-132.222 987.7632,-128.7219 977.7631,-125.222 977.7632,-132.222"/>
</g>
<!-- 140531497867584 -->
<g id="node4" class="node">
<title>140531497867584</title>
<polygon fill="none" stroke="#000000" points="906,-74.7219 852,-74.7219 852,-38.7219 906,-38.7219 906,-74.7219"/>
<text text-anchor="middle" x="879" y="-53.0219" font-family="Times,serif" font-size="14.00" fill="#000000">Root</text>
</g>
<!-- 140531497867472 -->
<g id="node19" class="node">
<title>140531497867472</title>
<ellipse fill="#ffa500" stroke="#000000" cx="1015" cy="-56.7219" rx="27" ry="27"/>
</g>
<!-- 140531497867584&#45;&gt;140531497867472 -->
<g id="edge4" class="edge">
<title>140531497867584&#45;&gt;140531497867472</title>
<path fill="none" stroke="#000000" d="M906.1948,-56.7219C926.6717,-56.7219 954.9826,-56.7219 977.5927,-56.7219"/>
<polygon fill="#000000" stroke="#000000" points="977.8524,-60.222 987.8524,-56.7219 977.8523,-53.222 977.8524,-60.222"/>
</g>
<!-- 140531497867920 -->
<g id="node5" class="node">
<title>140531497867920</title>
<polygon fill="none" stroke="#000000" points="249,-169.7219 195,-169.7219 195,-133.7219 249,-133.7219 249,-169.7219"/>
<text text-anchor="middle" x="222" y="-148.0219" font-family="Times,serif" font-size="14.00" fill="#000000">hid_1</text>
</g>
<!-- 140531497867752 -->
<g id="node14" class="node">
<title>140531497867752</title>
<ellipse fill="none" stroke="#000000" cx="312" cy="-101.7219" rx="27" ry="27"/>
<text text-anchor="middle" x="312" y="-98.0219" font-family="Times,serif" font-size="14.00" fill="#000000">pre_PingServlet2Servlet</text>
</g>
<!-- 140531497867920&#45;&gt;140531497867752 -->
<g id="edge5" class="edge">
<title>140531497867920&#45;&gt;140531497867752</title>
<path fill="none" stroke="#000000" d="M249.003,-136.7202C258.5964,-131.3906 269.4963,-125.3351 279.5008,-119.777"/>
<polygon fill="#000000" stroke="#000000" points="281.332,-122.7636 288.3738,-114.8476 277.9324,-116.6445 281.332,-122.7636"/>
</g>
<!-- 140531497868200 -->
<g id="node6" class="node">
<title>140531497868200</title>
<polygon fill="none" stroke="#000000" points="1132,-82.7219 1078,-82.7219 1078,-46.7219 1132,-46.7219 1132,-82.7219"/>
<text text-anchor="middle" x="1105" y="-61.0219" font-family="Times,serif" font-size="14.00" fill="#000000">hid_2</text>
</g>
<!-- 140531497868200&#45;&gt;140531497867752 -->
<g id="edge6" class="edge">
<title>140531497868200&#45;&gt;140531497867752</title>
<path fill="none" stroke="#000000" d="M1084.6401,-46.5984C1072.9762,-37.2701 1057.5904,-26.641 1042,-20.7219 973.8139,5.1657 951.9349,-1.7219 879,-1.7219 563,-1.7219 563,-1.7219 563,-1.7219 478.5666,-1.7219 388.7771,-51.1604 342.9061,-80.5145"/>
<polygon fill="#000000" stroke="#000000" points="340.8026,-77.7075 334.3321,-86.0969 344.6221,-83.5737 340.8026,-77.7075"/>
</g>
<!-- 140531497868480 -->
<g id="node7" class="node">
<title>140531497868480</title>
<polygon fill="none" stroke="#000000" points="249,-110.7219 195,-110.7219 195,-74.7219 249,-74.7219 249,-110.7219"/>
<text text-anchor="middle" x="222" y="-89.0219" font-family="Times,serif" font-size="14.00" fill="#000000">hid_3</text>
</g>
<!-- 140531497868480&#45;&gt;140531497867752 -->
<g id="edge7" class="edge">
<title>140531497868480&#45;&gt;140531497867752</title>
<path fill="none" stroke="#000000" d="M249.003,-95.4222C257.1903,-96.2409 266.3292,-97.1548 275.051,-98.027"/>
<polygon fill="#000000" stroke="#000000" points="274.7174,-101.511 285.0161,-99.0235 275.414,-94.5457 274.7174,-101.511"/>
</g>
<!-- 140531497869152 -->
<g id="node8" class="node">
<title>140531497869152</title>
<polygon fill="none" stroke="#000000" points="680,-182.7219 626,-182.7219 626,-146.7219 680,-146.7219 680,-182.7219"/>
<text text-anchor="middle" x="653" y="-161.0219" font-family="Times,serif" font-size="14.00" fill="#000000">hid_4</text>
</g>
<!-- 140531497868760 -->
<g id="node13" class="node">
<title>140531497868760</title>
<ellipse fill="none" stroke="#000000" cx="743" cy="-205.7219" rx="27" ry="27"/>
<text text-anchor="middle" x="743" y="-202.0219" font-family="Times,serif" font-size="14.00" fill="#000000">pre_PingBean</text>
</g>
<!-- 140531497869152&#45;&gt;140531497868760 -->
<g id="edge8" class="edge">
<title>140531497869152&#45;&gt;140531497868760</title>
<path fill="none" stroke="#000000" d="M680.003,-177.0232C689.0899,-181.1628 699.3491,-185.8365 708.9092,-190.1916"/>
<polygon fill="#000000" stroke="#000000" points="707.6158,-193.4484 718.167,-194.4091 710.5178,-187.0783 707.6158,-193.4484"/>
</g>
<!-- 140531495714944 -->
<g id="node9" class="node">
<title>140531495714944</title>
<polygon fill="none" stroke="#000000" points="680,-128.7219 626,-128.7219 626,-92.7219 680,-92.7219 680,-128.7219"/>
<text text-anchor="middle" x="653" y="-107.0219" font-family="Times,serif" font-size="14.00" fill="#000000">hid_5</text>
</g>
<!-- 140531497868872 -->
<g id="node15" class="node">
<title>140531497868872</title>
<ellipse fill="none" stroke="#000000" cx="743" cy="-128.7219" rx="27" ry="27"/>
<text text-anchor="middle" x="743" y="-125.0219" font-family="Times,serif" font-size="14.00" fill="#000000">pre_PingServlet2ServletRcv</text>
</g>
<!-- 140531495714944&#45;&gt;140531497868872 -->
<g id="edge9" class="edge">
<title>140531495714944&#45;&gt;140531497868872</title>
<path fill="none" stroke="#000000" d="M680.003,-116.1225C688.2647,-117.7748 697.4954,-119.621 706.2888,-121.3796"/>
<polygon fill="#000000" stroke="#000000" points="705.834,-124.8579 716.3262,-123.3871 707.2069,-117.9939 705.834,-124.8579"/>
</g>
<!-- 140531495715168 -->
<g id="node10" class="node">
<title>140531495715168</title>
<polygon fill="none" stroke="#000000" points="680,-74.7219 626,-74.7219 626,-38.7219 680,-38.7219 680,-74.7219"/>
<text text-anchor="middle" x="653" y="-53.0219" font-family="Times,serif" font-size="14.00" fill="#000000">hid_6</text>
</g>
<!-- 140531497867864 -->
<g id="node16" class="node">
<title>140531497867864</title>
<ellipse fill="none" stroke="#000000" cx="743" cy="-56.7219" rx="27" ry="27"/>
<text text-anchor="middle" x="743" y="-53.0219" font-family="Times,serif" font-size="14.00" fill="#000000">pre_Root</text>
</g>
<!-- 140531495715168&#45;&gt;140531497867864 -->
<g id="edge10" class="edge">
<title>140531495715168&#45;&gt;140531497867864</title>
<path fill="none" stroke="#000000" d="M680.003,-56.7219C688.0277,-56.7219 696.9665,-56.7219 705.5309,-56.7219"/>
<polygon fill="#000000" stroke="#000000" points="705.7051,-60.222 715.705,-56.7219 705.705,-53.222 705.7051,-60.222"/>
</g>
<!-- 140531497867360 -->
<g id="node11" class="node">
<title>140531497867360</title>
<ellipse fill="#00ff00" stroke="#000000" cx="132" cy="-83.7219" rx="27" ry="27"/>
<text text-anchor="middle" x="132" y="-80.0219" font-family="Times,serif" font-size="14.00" fill="#000000">1</text>
</g>
<!-- 140531497867360&#45;&gt;140531497868480 -->
<g id="edge18" class="edge">
<title>140531497867360&#45;&gt;140531497868480</title>
<path fill="none" stroke="#000000" d="M159.003,-86.4222C167.0277,-87.2247 175.9665,-88.1185 184.5309,-88.975"/>
<polygon fill="#000000" stroke="#000000" points="184.4064,-92.4799 194.705,-89.9924 185.1029,-85.5146 184.4064,-92.4799"/>
</g>
<!-- 140531497868984&#45;&gt;140531497869152 -->
<g id="edge11" class="edge">
<title>140531497868984&#45;&gt;140531497869152</title>
<path fill="none" stroke="#000000" d="M585.7108,-121.3577C595.2305,-127.4927 606.5307,-134.775 617.1263,-141.6033"/>
<polygon fill="#000000" stroke="#000000" points="615.5046,-144.722 625.8063,-147.197 619.2965,-138.838 615.5046,-144.722"/>
</g>
<!-- 140531497868984&#45;&gt;140531495714944 -->
<g id="edge12" class="edge">
<title>140531497868984&#45;&gt;140531495714944</title>
<path fill="none" stroke="#000000" d="M590.003,-107.922C598.0277,-108.2787 606.9665,-108.676 615.5309,-109.0566"/>
<polygon fill="#000000" stroke="#000000" points="615.5595,-112.5612 625.705,-109.5088 615.8703,-105.5681 615.5595,-112.5612"/>
</g>
<!-- 140531497868984&#45;&gt;140531495715168 -->
<g id="edge13" class="edge">
<title>140531497868984&#45;&gt;140531495715168</title>
<path fill="none" stroke="#000000" d="M586.6464,-93.585C595.9112,-88.4379 606.7479,-82.4175 616.9459,-76.7519"/>
<polygon fill="#000000" stroke="#000000" points="618.646,-79.8114 625.6878,-71.8953 615.2465,-73.6922 618.646,-79.8114"/>
</g>
<!-- 140531497868760&#45;&gt;140531497867640 -->
<g id="edge14" class="edge">
<title>140531497868760&#45;&gt;140531497867640</title>
<path fill="none" stroke="#000000" d="M715.8662,-206.945C680.6375,-208.4253 617.2397,-210.7219 563,-210.7219 222,-210.7219 222,-210.7219 222,-210.7219 172.8117,-210.7219 117.1531,-201.1793 79.3425,-193.2358"/>
<polygon fill="#000000" stroke="#000000" points="79.684,-189.7293 69.1714,-191.047 78.2113,-196.5726 79.684,-189.7293"/>
</g>
<!-- 140531497867752&#45;&gt;140531497867304 -->
<g id="edge15" class="edge">
<title>140531497867752&#45;&gt;140531497867304</title>
<path fill="none" stroke="#000000" d="M339.2316,-102.3728C346.8789,-102.5556 355.5756,-102.7635 364.5586,-102.9783"/>
<polygon fill="#000000" stroke="#000000" points="364.7008,-106.4826 374.7816,-103.2226 364.8681,-99.4846 364.7008,-106.4826"/>
</g>
<!-- 140531497868872&#45;&gt;140531497867696 -->
<g id="edge16" class="edge">
<title>140531497868872&#45;&gt;140531497867696</title>
<path fill="none" stroke="#000000" d="M770.1948,-128.7219C777.8798,-128.7219 786.6682,-128.7219 795.8445,-128.7219"/>
<polygon fill="#000000" stroke="#000000" points="795.9203,-132.222 805.9202,-128.7219 795.9202,-125.222 795.9203,-132.222"/>
</g>
<!-- 140531497867864&#45;&gt;140531497867584 -->
<g id="edge17" class="edge">
<title>140531497867864&#45;&gt;140531497867584</title>
<path fill="none" stroke="#000000" d="M770.1948,-56.7219C790.6717,-56.7219 818.9826,-56.7219 841.5927,-56.7219"/>
<polygon fill="#000000" stroke="#000000" points="841.8524,-60.222 851.8524,-56.7219 841.8523,-53.222 841.8524,-60.222"/>
</g>
<!-- 140531497868088&#45;&gt;140531497867920 -->
<g id="edge19" class="edge">
<title>140531497868088&#45;&gt;140531497867920</title>
<path fill="none" stroke="#000000" d="M159.003,-154.5218C167.0277,-154.1651 175.9665,-153.7678 184.5309,-153.3872"/>
<polygon fill="#000000" stroke="#000000" points="184.8703,-156.8756 194.705,-152.935 184.5595,-149.8826 184.8703,-156.8756"/>
</g>
<!-- 140531497868368&#45;&gt;140531497868200 -->
<g id="edge20" class="edge">
<title>140531497868368&#45;&gt;140531497868200</title>
<path fill="none" stroke="#000000" d="M1037.2472,-112.9017C1047.4514,-105.6454 1059.7738,-96.8828 1071.0965,-88.831"/>
<polygon fill="#000000" stroke="#000000" points="1073.3873,-91.4968 1079.5086,-82.8491 1069.3306,-85.7921 1073.3873,-91.4968"/>
</g>
</g>
</svg>
