<?xml version="1.0" encoding="UTF-8" standalone="no"?>
<!DOCTYPE svg PUBLIC "-//W3C//DTD SVG 1.1//EN"
 "http://www.w3.org/Graphics/SVG/1.1/DTD/svg11.dtd">
<!-- Generated by graphviz version 2.40.1 (20161225.0304)
 -->
<!-- Title: imdf_net_1585315547.182805 Pages: 1 -->
<svg width="734pt" height="301pt"
 viewBox="0.00 0.00 734.00 301.31" xmlns="http://www.w3.org/2000/svg" xmlns:xlink="http://www.w3.org/1999/xlink">
<g id="graph0" class="graph" transform="scale(1 1) rotate(0) translate(4 297.3137)">
<title>imdf_net_1585315547.182805</title>
<!-- 140178132272576 -->
<g id="node1" class="node">
<title>140178132272576</title>
<polygon fill="none" stroke="#000000" points="69,-110.3137 0,-110.3137 0,-74.3137 69,-74.3137 69,-110.3137"/>
<text text-anchor="middle" x="34.5" y="-88.6137" font-family="Times,serif" font-size="14.00" fill="#000000">PingBean</text>
</g>
<!-- 140178132619216 -->
<g id="node14" class="node">
<title>140178132619216</title>
<ellipse fill="none" stroke="#000000" cx="132" cy="-183.3137" rx="27" ry="27"/>
<text text-anchor="middle" x="132" y="-179.6137" font-family="Times,serif" font-size="14.00" fill="#000000">p_6</text>
</g>
<!-- 140178132272576&#45;&gt;140178132619216 -->
<g id="edge2" class="edge">
<title>140178132272576&#45;&gt;140178132619216</title>
<path fill="none" stroke="#000000" d="M54.2306,-110.7289C68.672,-124.2076 88.4552,-142.6719 104.4541,-157.6042"/>
<polygon fill="#000000" stroke="#000000" points="102.2654,-160.3491 111.9641,-164.6136 107.0417,-155.2317 102.2654,-160.3491"/>
</g>
<!-- 140178132274816 -->
<g id="node2" class="node">
<title>140178132274816</title>
<polygon fill="none" stroke="#000000" points="715.5,-173.3137 590.5,-173.3137 590.5,-137.3137 715.5,-137.3137 715.5,-173.3137"/>
<text text-anchor="middle" x="653" y="-151.6137" font-family="Times,serif" font-size="14.00" fill="#000000">PingServlet2Servlet</text>
</g>
<!-- 140178132274816&#45;&gt;140178132619216 -->
<g id="edge3" class="edge">
<title>140178132274816&#45;&gt;140178132619216</title>
<path fill="none" stroke="#000000" d="M590.4659,-166.7024C542.4931,-174.4544 474.5345,-183.3137 414.5,-183.3137 312,-183.3137 312,-183.3137 312,-183.3137 262.6525,-183.3137 205.695,-183.3137 169.2925,-183.3137"/>
<polygon fill="#000000" stroke="#000000" points="169.1403,-179.8138 159.1403,-183.3137 169.1402,-186.8138 169.1403,-179.8138"/>
</g>
<!-- 140178132273864 -->
<g id="node3" class="node">
<title>140178132273864</title>
<polygon fill="none" stroke="#000000" points="726,-269.3137 580,-269.3137 580,-233.3137 726,-233.3137 726,-269.3137"/>
<text text-anchor="middle" x="653" y="-247.6137" font-family="Times,serif" font-size="14.00" fill="#000000">PingServlet2ServletRcv</text>
</g>
<!-- 140178132273864&#45;&gt;140178132619216 -->
<g id="edge1" class="edge">
<title>140178132273864&#45;&gt;140178132619216</title>
<path fill="none" stroke="#000000" d="M586.7267,-269.3693C539.1713,-280.7527 473.3607,-293.3137 414.5,-293.3137 312,-293.3137 312,-293.3137 312,-293.3137 258.0902,-293.3137 240.1178,-290.8206 195,-261.3137 177.1767,-249.6574 162.0004,-231.3276 151.0116,-215.3652"/>
<polygon fill="#000000" stroke="#000000" points="153.7822,-213.2094 145.3474,-206.7981 147.9431,-217.0701 153.7822,-213.2094"/>
</g>
<!-- 140178132619160 -->
<g id="node4" class="node">
<title>140178132619160</title>
<polygon fill="none" stroke="#000000" points="441.5,-256.3137 387.5,-256.3137 387.5,-220.3137 441.5,-220.3137 441.5,-256.3137"/>
<text text-anchor="middle" x="414.5" y="-234.6137" font-family="Times,serif" font-size="14.00" fill="#000000">Root</text>
</g>
<!-- 140178132616528 -->
<g id="node16" class="node">
<title>140178132616528</title>
<ellipse fill="#ffa500" stroke="#000000" cx="517" cy="-238.3137" rx="27" ry="27"/>
</g>
<!-- 140178132619160&#45;&gt;140178132616528 -->
<g id="edge4" class="edge">
<title>140178132619160&#45;&gt;140178132616528</title>
<path fill="none" stroke="#000000" d="M441.699,-238.3137C453.2828,-238.3137 466.9866,-238.3137 479.5073,-238.3137"/>
<polygon fill="#000000" stroke="#000000" points="479.6739,-241.8138 489.6739,-238.3137 479.6739,-234.8138 479.6739,-241.8138"/>
</g>
<!-- 140178132617424 -->
<g id="node5" class="node">
<title>140178132617424</title>
<polygon fill="none" stroke="#000000" points="454,-83.3137 375,-83.3137 375,-47.3137 454,-47.3137 454,-83.3137"/>
<text text-anchor="middle" x="414.5" y="-61.6137" font-family="Times,serif" font-size="14.00" fill="#000000">init_loop_2</text>
</g>
<!-- 140178132618600 -->
<g id="node13" class="node">
<title>140178132618600</title>
<ellipse fill="none" stroke="#000000" cx="517" cy="-128.3137" rx="27" ry="27"/>
<text text-anchor="middle" x="517" y="-124.6137" font-family="Times,serif" font-size="14.00" fill="#000000">p_5</text>
</g>
<!-- 140178132617424&#45;&gt;140178132618600 -->
<g id="edge5" class="edge">
<title>140178132617424&#45;&gt;140178132618600</title>
<path fill="none" stroke="#000000" d="M443.8724,-83.367C456.7539,-91.2844 471.9055,-100.5971 485.0663,-108.6862"/>
<polygon fill="#000000" stroke="#000000" points="483.455,-111.8041 493.8072,-114.0586 487.1205,-105.8405 483.455,-111.8041"/>
</g>
<!-- 140178132617144 -->
<g id="node6" class="node">
<title>140178132617144</title>
<polygon fill="none" stroke="#000000" points="441.5,-146.3137 387.5,-146.3137 387.5,-110.3137 441.5,-110.3137 441.5,-146.3137"/>
<text text-anchor="middle" x="414.5" y="-124.6137" font-family="Times,serif" font-size="14.00" fill="#000000">loop_3</text>
</g>
<!-- 140178132617144&#45;&gt;140178132618600 -->
<g id="edge6" class="edge">
<title>140178132617144&#45;&gt;140178132618600</title>
<path fill="none" stroke="#000000" d="M441.699,-128.3137C453.2828,-128.3137 466.9866,-128.3137 479.5073,-128.3137"/>
<polygon fill="#000000" stroke="#000000" points="479.6739,-131.8138 489.6739,-128.3137 479.6739,-124.8138 479.6739,-131.8138"/>
</g>
<!-- 140178132274032 -->
<g id="node7" class="node">
<title>140178132274032</title>
<polygon fill="none" stroke="#000000" points="249,-151.3137 195,-151.3137 195,-115.3137 249,-115.3137 249,-151.3137"/>
<text text-anchor="middle" x="222" y="-129.6137" font-family="Times,serif" font-size="14.00" fill="#000000">skip_4</text>
</g>
<!-- 140178132274144 -->
<g id="node15" class="node">
<title>140178132274144</title>
<ellipse fill="none" stroke="#000000" cx="312" cy="-128.3137" rx="27" ry="27"/>
<text text-anchor="middle" x="312" y="-124.6137" font-family="Times,serif" font-size="14.00" fill="#000000">p_7</text>
</g>
<!-- 140178132274032&#45;&gt;140178132274144 -->
<g id="edge15" class="edge">
<title>140178132274032&#45;&gt;140178132274144</title>
<path fill="none" stroke="#000000" d="M249.003,-131.8136C257.1013,-131.3637 266.1306,-130.862 274.7665,-130.3823"/>
<polygon fill="#000000" stroke="#000000" points="275.2257,-133.8622 285.0161,-129.8128 274.8373,-126.873 275.2257,-133.8622"/>
</g>
<!-- 140178132273584 -->
<g id="node8" class="node">
<title>140178132273584</title>
<polygon fill="none" stroke="#000000" points="249,-252.3137 195,-252.3137 195,-216.3137 249,-216.3137 249,-252.3137"/>
<text text-anchor="middle" x="222" y="-230.6137" font-family="Times,serif" font-size="14.00" fill="#000000">skip_5</text>
</g>
<!-- 140178132615744 -->
<g id="node12" class="node">
<title>140178132615744</title>
<ellipse fill="none" stroke="#000000" cx="312" cy="-238.3137" rx="27" ry="27"/>
<text text-anchor="middle" x="312" y="-234.6137" font-family="Times,serif" font-size="14.00" fill="#000000">p_4</text>
</g>
<!-- 140178132273584&#45;&gt;140178132615744 -->
<g id="edge16" class="edge">
<title>140178132273584&#45;&gt;140178132615744</title>
<path fill="none" stroke="#000000" d="M249.003,-235.5139C257.1013,-235.8738 266.1306,-236.2751 274.7665,-236.6589"/>
<polygon fill="#000000" stroke="#000000" points="274.8705,-240.1669 285.0161,-237.1144 275.1814,-233.1738 274.8705,-240.1669"/>
</g>
<!-- 140178132616584 -->
<g id="node9" class="node">
<title>140178132616584</title>
<polygon fill="none" stroke="#000000" points="249,-74.3137 195,-74.3137 195,-38.3137 249,-38.3137 249,-74.3137"/>
<text text-anchor="middle" x="222" y="-52.6137" font-family="Times,serif" font-size="14.00" fill="#000000">tau_1</text>
</g>
<!-- 140178132615520 -->
<g id="node11" class="node">
<title>140178132615520</title>
<ellipse fill="none" stroke="#000000" cx="312" cy="-56.3137" rx="27" ry="27"/>
<text text-anchor="middle" x="312" y="-52.6137" font-family="Times,serif" font-size="14.00" fill="#000000">p_3</text>
</g>
<!-- 140178132616584&#45;&gt;140178132615520 -->
<g id="edge18" class="edge">
<title>140178132616584&#45;&gt;140178132615520</title>
<path fill="none" stroke="#000000" d="M249.003,-56.3137C257.0277,-56.3137 265.9665,-56.3137 274.5309,-56.3137"/>
<polygon fill="#000000" stroke="#000000" points="274.7051,-59.8138 284.705,-56.3137 274.705,-52.8138 274.7051,-59.8138"/>
</g>
<!-- 140178132616920 -->
<g id="node10" class="node">
<title>140178132616920</title>
<ellipse fill="#00ff00" stroke="#000000" cx="132" cy="-56.3137" rx="27" ry="27"/>
<text text-anchor="middle" x="132" y="-52.6137" font-family="Times,serif" font-size="14.00" fill="#000000">1</text>
</g>
<!-- 140178132616920&#45;&gt;140178132616584 -->
<g id="edge17" class="edge">
<title>140178132616920&#45;&gt;140178132616584</title>
<path fill="none" stroke="#000000" d="M159.003,-56.3137C167.0277,-56.3137 175.9665,-56.3137 184.5309,-56.3137"/>
<polygon fill="#000000" stroke="#000000" points="184.7051,-59.8138 194.705,-56.3137 184.705,-52.8138 184.7051,-59.8138"/>
</g>
<!-- 140178132615520&#45;&gt;140178132617424 -->
<g id="edge7" class="edge">
<title>140178132615520&#45;&gt;140178132617424</title>
<path fill="none" stroke="#000000" d="M338.9307,-58.6784C346.775,-59.3671 355.6089,-60.1428 364.3977,-60.9145"/>
<polygon fill="#000000" stroke="#000000" points="364.3645,-64.425 374.6324,-61.8132 364.9769,-57.4518 364.3645,-64.425"/>
</g>
<!-- 140178132615744&#45;&gt;140178132619160 -->
<g id="edge8" class="edge">
<title>140178132615744&#45;&gt;140178132619160</title>
<path fill="none" stroke="#000000" d="M339.199,-238.3137C350.7828,-238.3137 364.4866,-238.3137 377.0073,-238.3137"/>
<polygon fill="#000000" stroke="#000000" points="377.1739,-241.8138 387.1739,-238.3137 377.1739,-234.8138 377.1739,-241.8138"/>
</g>
<!-- 140178132618600&#45;&gt;140178132272576 -->
<g id="edge10" class="edge">
<title>140178132618600&#45;&gt;140178132272576</title>
<path fill="none" stroke="#000000" d="M505.8332,-103.6086C495.3168,-83.1113 477.6472,-54.7528 454,-38.3137 400.45,-1.0869 377.2183,-1.3137 312,-1.3137 222,-1.3137 222,-1.3137 222,-1.3137 169.3188,-1.3137 151.7655,3.9412 105,-20.3137 84.2371,-31.0824 65.9326,-50.2407 53.1817,-66.0886"/>
<polygon fill="#000000" stroke="#000000" points="50.3992,-63.9653 47.0364,-74.0123 55.9306,-68.2553 50.3992,-63.9653"/>
</g>
<!-- 140178132618600&#45;&gt;140178132274816 -->
<g id="edge11" class="edge">
<title>140178132618600&#45;&gt;140178132274816</title>
<path fill="none" stroke="#000000" d="M543.545,-133.5837C554.2634,-135.7116 567.2038,-138.2807 580.3767,-140.8959"/>
<polygon fill="#000000" stroke="#000000" points="579.9722,-144.3838 590.4624,-142.8982 581.3354,-137.5178 579.9722,-144.3838"/>
</g>
<!-- 140178132618600&#45;&gt;140178132273864 -->
<g id="edge9" class="edge">
<title>140178132618600&#45;&gt;140178132273864</title>
<path fill="none" stroke="#000000" d="M537.0673,-146.4628C560.3697,-167.5378 598.9517,-202.4318 625.1486,-226.1246"/>
<polygon fill="#000000" stroke="#000000" points="623.086,-228.9783 632.8504,-233.0902 627.7814,-223.7866 623.086,-228.9783"/>
</g>
<!-- 140178132619216&#45;&gt;140178132274032 -->
<g id="edge12" class="edge">
<title>140178132619216&#45;&gt;140178132274032</title>
<path fill="none" stroke="#000000" d="M155.6464,-170.1768C164.9112,-165.0298 175.7479,-159.0093 185.9459,-153.3438"/>
<polygon fill="#000000" stroke="#000000" points="187.646,-156.4032 194.6878,-148.4872 184.2465,-150.2841 187.646,-156.4032"/>
</g>
<!-- 140178132619216&#45;&gt;140178132273584 -->
<g id="edge13" class="edge">
<title>140178132619216&#45;&gt;140178132273584</title>
<path fill="none" stroke="#000000" d="M155.6464,-196.7134C164.9112,-201.9634 175.7479,-208.1042 185.9459,-213.8831"/>
<polygon fill="#000000" stroke="#000000" points="184.262,-216.9517 194.6878,-218.8368 187.7132,-210.8616 184.262,-216.9517"/>
</g>
<!-- 140178132274144&#45;&gt;140178132617144 -->
<g id="edge14" class="edge">
<title>140178132274144&#45;&gt;140178132617144</title>
<path fill="none" stroke="#000000" d="M339.199,-128.3137C350.7828,-128.3137 364.4866,-128.3137 377.0073,-128.3137"/>
<polygon fill="#000000" stroke="#000000" points="377.1739,-131.8138 387.1739,-128.3137 377.1739,-124.8138 377.1739,-131.8138"/>
</g>
</g>
</svg>
