<?xml version="1.0" encoding="UTF-8" standalone="no"?>
<!DOCTYPE svg PUBLIC "-//W3C//DTD SVG 1.1//EN"
 "http://www.w3.org/Graphics/SVG/1.1/DTD/svg11.dtd">
<!-- Generated by graphviz version 2.40.1 (20161225.0304)
 -->
<!-- Title: alpha_plus_net_1586496127.9594386 Pages: 1 -->
<svg width="707pt" height="1898pt"
 viewBox="0.00 0.00 707.00 1898.00" xmlns="http://www.w3.org/2000/svg" xmlns:xlink="http://www.w3.org/1999/xlink">
<g id="graph0" class="graph" transform="scale(1 1) rotate(0) translate(4 1894)">
<title>alpha_plus_net_1586496127.9594386</title>
<!-- 139748203909360 -->
<g id="node1" class="node">
<title>139748203909360</title>
<polygon fill="none" stroke="#000000" points="216,-36 20,-36 20,0 216,0 216,-36"/>
<text text-anchor="middle" x="118" y="-14.3" font-family="Times,serif" font-size="14.00" fill="#000000">AccountDataBean:getAccountID</text>
</g>
<!-- 139748206385976 -->
<g id="node2" class="node">
<title>139748206385976</title>
<polygon fill="none" stroke="#000000" points="207.5,-90 28.5,-90 28.5,-54 207.5,-54 207.5,-90"/>
<text text-anchor="middle" x="118" y="-68.3" font-family="Times,serif" font-size="14.00" fill="#000000">AccountDataBean:getBalance</text>
</g>
<!-- 139748206356968 -->
<g id="node3" class="node">
<title>139748206356968</title>
<polygon fill="none" stroke="#000000" points="222,-144 14,-144 14,-108 222,-108 222,-144"/>
<text text-anchor="middle" x="118" y="-122.3" font-family="Times,serif" font-size="14.00" fill="#000000">AccountDataBean:getCreationDate</text>
</g>
<!-- 139748206356800 -->
<g id="node4" class="node">
<title>139748206356800</title>
<polygon fill="none" stroke="#000000" points="213.5,-198 22.5,-198 22.5,-162 213.5,-162 213.5,-198"/>
<text text-anchor="middle" x="118" y="-176.3" font-family="Times,serif" font-size="14.00" fill="#000000">AccountDataBean:getLastLogin</text>
</g>
<!-- 139748203909416 -->
<g id="node5" class="node">
<title>139748203909416</title>
<polygon fill="none" stroke="#000000" points="218.5,-252 17.5,-252 17.5,-216 218.5,-216 218.5,-252"/>
<text text-anchor="middle" x="118" y="-230.3" font-family="Times,serif" font-size="14.00" fill="#000000">AccountDataBean:getLoginCount</text>
</g>
<!-- 139748203909248 -->
<g id="node6" class="node">
<title>139748203909248</title>
<polygon fill="none" stroke="#000000" points="222,-306 14,-306 14,-270 222,-270 222,-306"/>
<text text-anchor="middle" x="118" y="-284.3" font-family="Times,serif" font-size="14.00" fill="#000000">AccountDataBean:getLogoutCount</text>
</g>
<!-- 139748206386480 -->
<g id="node7" class="node">
<title>139748206386480</title>
<polygon fill="none" stroke="#000000" points="222.5,-360 13.5,-360 13.5,-324 222.5,-324 222.5,-360"/>
<text text-anchor="middle" x="118" y="-338.3" font-family="Times,serif" font-size="14.00" fill="#000000">AccountDataBean:getOpenBalance</text>
</g>
<!-- 139748206387096 -->
<g id="node8" class="node">
<title>139748206387096</title>
<polygon fill="none" stroke="#000000" points="211.5,-414 24.5,-414 24.5,-378 211.5,-378 211.5,-414"/>
<text text-anchor="middle" x="118" y="-392.3" font-family="Times,serif" font-size="14.00" fill="#000000">AccountDataBean:getProfileID</text>
</g>
<!-- 139748206386704 -->
<g id="node9" class="node">
<title>139748206386704</title>
<polygon fill="none" stroke="#000000" points="210.5,-468 25.5,-468 25.5,-432 210.5,-432 210.5,-468"/>
<text text-anchor="middle" x="118" y="-446.3" font-family="Times,serif" font-size="14.00" fill="#000000">AccountDataBean:setProfileID</text>
</g>
<!-- 139748206354504 -->
<g id="node10" class="node">
<title>139748206354504</title>
<polygon fill="none" stroke="#000000" points="227,-522 9,-522 9,-486 227,-486 227,-522"/>
<text text-anchor="middle" x="118" y="-500.3" font-family="Times,serif" font-size="14.00" fill="#000000">AccountProfileDataBean:getAccount</text>
</g>
<!-- 139748206386424 -->
<g id="node11" class="node">
<title>139748206386424</title>
<polygon fill="none" stroke="#000000" points="226.5,-576 9.5,-576 9.5,-540 226.5,-540 226.5,-576"/>
<text text-anchor="middle" x="118" y="-554.3" font-family="Times,serif" font-size="14.00" fill="#000000">AccountProfileDataBean:getAddress</text>
</g>
<!-- 139748206386088 -->
<g id="node12" class="node">
<title>139748206386088</title>
<polygon fill="none" stroke="#000000" points="234.5,-630 1.5,-630 1.5,-594 234.5,-594 234.5,-630"/>
<text text-anchor="middle" x="118" y="-608.3" font-family="Times,serif" font-size="14.00" fill="#000000">AccountProfileDataBean:getCreditCard</text>
</g>
<!-- 139748206386816 -->
<g id="node13" class="node">
<title>139748206386816</title>
<polygon fill="none" stroke="#000000" points="221,-684 15,-684 15,-648 221,-648 221,-684"/>
<text text-anchor="middle" x="118" y="-662.3" font-family="Times,serif" font-size="14.00" fill="#000000">AccountProfileDataBean:getEmail</text>
</g>
<!-- 139748203909192 -->
<g id="node14" class="node">
<title>139748203909192</title>
<polygon fill="none" stroke="#000000" points="231.5,-738 4.5,-738 4.5,-702 231.5,-702 231.5,-738"/>
<text text-anchor="middle" x="118" y="-716.3" font-family="Times,serif" font-size="14.00" fill="#000000">AccountProfileDataBean:getFullName</text>
</g>
<!-- 139748206387152 -->
<g id="node15" class="node">
<title>139748206387152</title>
<polygon fill="none" stroke="#000000" points="230,-792 6,-792 6,-756 230,-756 230,-792"/>
<text text-anchor="middle" x="118" y="-770.3" font-family="Times,serif" font-size="14.00" fill="#000000">AccountProfileDataBean:getPassword</text>
</g>
<!-- 139748206386592 -->
<g id="node16" class="node">
<title>139748206386592</title>
<polygon fill="none" stroke="#000000" points="224,-846 12,-846 12,-810 224,-810 224,-846"/>
<text text-anchor="middle" x="118" y="-824.3" font-family="Times,serif" font-size="14.00" fill="#000000">AccountProfileDataBean:getUserID</text>
</g>
<!-- 139748206386368 -->
<g id="node17" class="node">
<title>139748206386368</title>
<polygon fill="none" stroke="#000000" points="179.5,-900 56.5,-900 56.5,-864 179.5,-864 179.5,-900"/>
<text text-anchor="middle" x="118" y="-878.3" font-family="Times,serif" font-size="14.00" fill="#000000">Log:doActionTrace</text>
</g>
<!-- 139748203909304 -->
<g id="node18" class="node">
<title>139748203909304</title>
<polygon fill="none" stroke="#000000" points="161,-954 75,-954 75,-918 161,-918 161,-954"/>
<text text-anchor="middle" x="118" y="-932.3" font-family="Times,serif" font-size="14.00" fill="#000000">Log:doTrace</text>
</g>
<!-- 139748206386256 -->
<g id="node19" class="node">
<title>139748206386256</title>
<polygon fill="none" stroke="#000000" points="429,-1017 272,-1017 272,-981 429,-981 429,-1017"/>
<text text-anchor="middle" x="350.5" y="-995.3" font-family="Times,serif" font-size="14.00" fill="#000000">OrdersAlertFilter:doFilter</text>
</g>
<!-- 139748203909808 -->
<g id="node38" class="node">
<title>139748203909808</title>
<ellipse fill="none" stroke="#000000" cx="492" cy="-999" rx="27" ry="27"/>
<text text-anchor="middle" x="492" y="-995.3" font-family="Times,serif" font-size="14.00" fill="#000000">({&#39;OrdersAlertFilter:doFilter&#39;}, {&#39;Root&#39;})</text>
</g>
<!-- 139748206386256&#45;&gt;139748203909808 -->
<g id="edge3" class="edge">
<title>139748206386256&#45;&gt;139748203909808</title>
<path fill="none" stroke="#000000" d="M429.112,-999C438.0464,-999 446.8115,-999 454.8279,-999"/>
<polygon fill="#000000" stroke="#000000" points="454.8861,-1002.5001 464.8861,-999 454.8861,-995.5001 454.8861,-1002.5001"/>
</g>
<!-- 139748206386144 -->
<g id="node20" class="node">
<title>139748206386144</title>
<polygon fill="none" stroke="#000000" points="609,-1017 555,-1017 555,-981 609,-981 609,-1017"/>
<text text-anchor="middle" x="582" y="-995.3" font-family="Times,serif" font-size="14.00" fill="#000000">Root</text>
</g>
<!-- 139748206356016 -->
<g id="node39" class="node">
<title>139748206356016</title>
<ellipse fill="#ffa500" stroke="#000000" cx="672" cy="-999" rx="27" ry="27"/>
</g>
<!-- 139748206386144&#45;&gt;139748206356016 -->
<g id="edge4" class="edge">
<title>139748206386144&#45;&gt;139748206356016</title>
<path fill="none" stroke="#000000" d="M609.003,-999C617.0277,-999 625.9665,-999 634.5309,-999"/>
<polygon fill="#000000" stroke="#000000" points="634.7051,-1002.5001 644.705,-999 634.705,-995.5001 634.7051,-1002.5001"/>
</g>
<!-- 139748206355512 -->
<g id="node21" class="node">
<title>139748206355512</title>
<polygon fill="none" stroke="#000000" points="206,-1080 30,-1080 30,-1044 206,-1044 206,-1080"/>
<text text-anchor="middle" x="118" y="-1058.3" font-family="Times,serif" font-size="14.00" fill="#000000">TradeAction:getAccountData</text>
</g>
<!-- 139748206357752 -->
<g id="node22" class="node">
<title>139748206357752</title>
<polygon fill="none" stroke="#000000" points="224.5,-1134 11.5,-1134 11.5,-1098 224.5,-1098 224.5,-1134"/>
<text text-anchor="middle" x="118" y="-1112.3" font-family="Times,serif" font-size="14.00" fill="#000000">TradeAction:getAccountProfileData</text>
</g>
<!-- 139748206357472 -->
<g id="node23" class="node">
<title>139748206357472</title>
<polygon fill="none" stroke="#000000" points="207.5,-1188 28.5,-1188 28.5,-1152 207.5,-1152 207.5,-1188"/>
<text text-anchor="middle" x="118" y="-1166.3" font-family="Times,serif" font-size="14.00" fill="#000000">TradeAction:getClosedOrders</text>
</g>
<!-- 139748206355568 -->
<g id="node24" class="node">
<title>139748206355568</title>
<polygon fill="none" stroke="#000000" points="210,-1242 26,-1242 26,-1206 210,-1206 210,-1242"/>
<text text-anchor="middle" x="118" y="-1220.3" font-family="Times,serif" font-size="14.00" fill="#000000">TradeAppServlet:performTask</text>
</g>
<!-- 139748206068232 -->
<g id="node25" class="node">
<title>139748206068232</title>
<polygon fill="none" stroke="#000000" points="204.5,-1296 31.5,-1296 31.5,-1260 204.5,-1260 204.5,-1296"/>
<text text-anchor="middle" x="118" y="-1274.3" font-family="Times,serif" font-size="14.00" fill="#000000">TradeConfig:getActionTrace</text>
</g>
<!-- 139748206386648 -->
<g id="node26" class="node">
<title>139748206386648</title>
<polygon fill="none" stroke="#000000" points="224,-1350 12,-1350 12,-1314 224,-1314 224,-1350"/>
<text text-anchor="middle" x="118" y="-1328.3" font-family="Times,serif" font-size="14.00" fill="#000000">TradeConfig:getDisplayOrderAlerts</text>
</g>
<!-- 139748206386872 -->
<g id="node27" class="node">
<title>139748206386872</title>
<polygon fill="none" stroke="#000000" points="196.5,-1404 39.5,-1404 39.5,-1368 196.5,-1368 196.5,-1404"/>
<text text-anchor="middle" x="118" y="-1382.3" font-family="Times,serif" font-size="14.00" fill="#000000">TradeConfig:getLongRun</text>
</g>
<!-- 139748206386200 -->
<g id="node28" class="node">
<title>139748206386200</title>
<polygon fill="none" stroke="#000000" points="184,-1458 52,-1458 52,-1422 184,-1422 184,-1458"/>
<text text-anchor="middle" x="118" y="-1436.3" font-family="Times,serif" font-size="14.00" fill="#000000">TradeConfig:getPage</text>
</g>
<!-- 139748206386312 -->
<g id="node29" class="node">
<title>139748206386312</title>
<polygon fill="none" stroke="#000000" points="186.5,-1512 49.5,-1512 49.5,-1476 186.5,-1476 186.5,-1512"/>
<text text-anchor="middle" x="118" y="-1490.3" font-family="Times,serif" font-size="14.00" fill="#000000">TradeConfig:getTrace</text>
</g>
<!-- 139748206387040 -->
<g id="node30" class="node">
<title>139748206387040</title>
<polygon fill="none" stroke="#000000" points="228.5,-1566 7.5,-1566 7.5,-1530 228.5,-1530 228.5,-1566"/>
<text text-anchor="middle" x="118" y="-1544.3" font-family="Times,serif" font-size="14.00" fill="#000000">TradeConfig:useRemoteEJBInterface</text>
</g>
<!-- 139748206386536 -->
<g id="node31" class="node">
<title>139748206386536</title>
<polygon fill="none" stroke="#000000" points="218,-1620 18,-1620 18,-1584 218,-1584 218,-1620"/>
<text text-anchor="middle" x="118" y="-1598.3" font-family="Times,serif" font-size="14.00" fill="#000000">TradeSLSBBean:getAccountData</text>
</g>
<!-- 139748206386760 -->
<g id="node32" class="node">
<title>139748206386760</title>
<polygon fill="none" stroke="#000000" points="236,-1674 0,-1674 0,-1638 236,-1638 236,-1674"/>
<text text-anchor="middle" x="118" y="-1652.3" font-family="Times,serif" font-size="14.00" fill="#000000">TradeSLSBBean:getAccountProfileData</text>
</g>
<!-- 139748206386984 -->
<g id="node33" class="node">
<title>139748206386984</title>
<polygon fill="none" stroke="#000000" points="219.5,-1728 16.5,-1728 16.5,-1692 219.5,-1692 219.5,-1728"/>
<text text-anchor="middle" x="118" y="-1706.3" font-family="Times,serif" font-size="14.00" fill="#000000">TradeSLSBBean:getClosedOrders</text>
</g>
<!-- 139748206357080 -->
<g id="node34" class="node">
<title>139748206357080</title>
<polygon fill="none" stroke="#000000" points="189,-1782 47,-1782 47,-1746 189,-1746 189,-1782"/>
<text text-anchor="middle" x="118" y="-1760.3" font-family="Times,serif" font-size="14.00" fill="#000000">new AccountDataBean</text>
</g>
<!-- 139748206355008 -->
<g id="node35" class="node">
<title>139748206355008</title>
<polygon fill="none" stroke="#000000" points="207.5,-1836 28.5,-1836 28.5,-1800 207.5,-1800 207.5,-1836"/>
<text text-anchor="middle" x="118" y="-1814.3" font-family="Times,serif" font-size="14.00" fill="#000000">new AccountProfileDataBean</text>
</g>
<!-- 139748206386032 -->
<g id="node36" class="node">
<title>139748206386032</title>
<polygon fill="none" stroke="#000000" points="173.5,-1890 62.5,-1890 62.5,-1854 173.5,-1854 173.5,-1890"/>
<text text-anchor="middle" x="118" y="-1868.3" font-family="Times,serif" font-size="14.00" fill="#000000">new TradeAction</text>
</g>
<!-- 139748203909584 -->
<g id="node37" class="node">
<title>139748203909584</title>
<ellipse fill="#00ff00" stroke="#000000" cx="118" cy="-999" rx="27" ry="27"/>
<text text-anchor="middle" x="118" y="-995.3" font-family="Times,serif" font-size="14.00" fill="#000000">1</text>
</g>
<!-- 139748203909584&#45;&gt;139748206386256 -->
<g id="edge2" class="edge">
<title>139748203909584&#45;&gt;139748206386256</title>
<path fill="none" stroke="#000000" d="M145.1257,-999C173.6767,-999 220.1524,-999 261.6767,-999"/>
<polygon fill="#000000" stroke="#000000" points="261.8343,-1002.5001 271.8342,-999 261.8342,-995.5001 261.8343,-1002.5001"/>
</g>
<!-- 139748203909808&#45;&gt;139748206386144 -->
<g id="edge1" class="edge">
<title>139748203909808&#45;&gt;139748206386144</title>
<path fill="none" stroke="#000000" d="M519.003,-999C527.0277,-999 535.9665,-999 544.5309,-999"/>
<polygon fill="#000000" stroke="#000000" points="544.7051,-1002.5001 554.705,-999 544.705,-995.5001 544.7051,-1002.5001"/>
</g>
</g>
</svg>
