<?xml version="1.0" encoding="UTF-8" standalone="no"?>
<!DOCTYPE svg PUBLIC "-//W3C//DTD SVG 1.1//EN"
 "http://www.w3.org/Graphics/SVG/1.1/DTD/svg11.dtd">
<!-- Generated by graphviz version 2.40.1 (20161225.0304)
 -->
<!-- Title: %3 Pages: 1 -->
<svg width="953pt" height="244pt"
 viewBox="0.00 0.00 953.00 244.00" xmlns="http://www.w3.org/2000/svg" xmlns:xlink="http://www.w3.org/1999/xlink">
<g id="graph0" class="graph" transform="scale(1 1) rotate(0) translate(4 240)">
<title>%3</title>
<!-- 140219168594408 -->
<g id="node1" class="node">
<title>140219168594408</title>
<polygon fill="none" stroke="#000000" points="157,-127 0,-127 0,-91 157,-91 157,-127"/>
<text text-anchor="middle" x="78.5" y="-105.3" font-family="Times,serif" font-size="14.00" fill="#000000">OrdersAlertFilter:doFilter</text>
</g>
<!-- 140219168612424 -->
<g id="node9" class="node">
<title>140219168612424</title>
<ellipse fill="none" stroke="#000000" cx="220" cy="-137" rx="27" ry="27"/>
<text text-anchor="middle" x="220" y="-133.3" font-family="Times,serif" font-size="14.00" fill="#000000">intplace_OrdersAlertFilter:doFilter</text>
</g>
<!-- 140219168594408&#45;&gt;140219168612424 -->
<g id="edge1" class="edge">
<title>140219168594408&#45;&gt;140219168612424</title>
<path fill="none" stroke="#000000" d="M157.112,-124.5557C166.3257,-126.3789 175.3594,-128.1665 183.5774,-129.7927"/>
<polygon fill="#000000" stroke="#000000" points="183.0138,-133.249 193.503,-131.7568 184.3726,-126.3821 183.0138,-133.249"/>
</g>
<!-- 140219168593512 -->
<g id="node2" class="node">
<title>140219168593512</title>
<polygon fill="none" stroke="#000000" points="596,-227 542,-227 542,-191 596,-191 596,-227"/>
<text text-anchor="middle" x="569" y="-205.3" font-family="Times,serif" font-size="14.00" fill="#000000">Root</text>
</g>
<!-- 140219168593624 -->
<g id="node14" class="node">
<title>140219168593624</title>
<ellipse fill="#ffa500" stroke="#000000" cx="738" cy="-209" rx="27" ry="27"/>
</g>
<!-- 140219168593512&#45;&gt;140219168593624 -->
<g id="edge2" class="edge">
<title>140219168593512&#45;&gt;140219168593624</title>
<path fill="none" stroke="#000000" d="M596.1528,-209C624.487,-209 669.1095,-209 700.7314,-209"/>
<polygon fill="#000000" stroke="#000000" points="700.9146,-212.5001 710.9146,-209 700.9146,-205.5001 700.9146,-212.5001"/>
</g>
<!-- 140219168614832 -->
<g id="node3" class="node">
<title>140219168614832</title>
<polygon fill="none" stroke="#000000" points="675,-155 463,-155 463,-119 675,-119 675,-155"/>
<text text-anchor="middle" x="569" y="-133.3" font-family="Times,serif" font-size="14.00" fill="#000000">TradeConfig:getDisplayOrderAlerts</text>
</g>
<!-- 140219168614384 -->
<g id="node13" class="node">
<title>140219168614384</title>
<ellipse fill="none" stroke="#000000" cx="738" cy="-137" rx="27" ry="27"/>
<text text-anchor="middle" x="738" y="-133.3" font-family="Times,serif" font-size="14.00" fill="#000000">splace_in_OrdersAlertFilter:doFilter_0</text>
</g>
<!-- 140219168614832&#45;&gt;140219168614384 -->
<g id="edge3" class="edge">
<title>140219168614832&#45;&gt;140219168614384</title>
<path fill="none" stroke="#000000" d="M675.0706,-137C684.0981,-137 692.7736,-137 700.6462,-137"/>
<polygon fill="#000000" stroke="#000000" points="700.8414,-140.5001 710.8414,-137 700.8413,-133.5001 700.8414,-140.5001"/>
</g>
<!-- 140219168614216 -->
<g id="node4" class="node">
<title>140219168614216</title>
<polygon fill="none" stroke="#000000" points="855,-150 801,-150 801,-114 855,-114 855,-150"/>
<text text-anchor="middle" x="828" y="-128.3" font-family="Times,serif" font-size="14.00" fill="#000000">hid_1</text>
</g>
<!-- 140219168615112 -->
<g id="node10" class="node">
<title>140219168615112</title>
<ellipse fill="none" stroke="#000000" cx="918" cy="-82" rx="27" ry="27"/>
<text text-anchor="middle" x="918" y="-78.3" font-family="Times,serif" font-size="14.00" fill="#000000">pre_OrdersAlertFilter:doFilter</text>
</g>
<!-- 140219168614216&#45;&gt;140219168615112 -->
<g id="edge4" class="edge">
<title>140219168614216&#45;&gt;140219168615112</title>
<path fill="none" stroke="#000000" d="M855.003,-116.9984C864.5964,-111.6687 875.4963,-105.6132 885.5008,-100.0551"/>
<polygon fill="#000000" stroke="#000000" points="887.332,-103.0417 894.3738,-95.1257 883.9324,-96.9226 887.332,-103.0417"/>
</g>
<!-- 140219168613992 -->
<g id="node5" class="node">
<title>140219168613992</title>
<polygon fill="none" stroke="#000000" points="855,-50 801,-50 801,-14 855,-14 855,-50"/>
<text text-anchor="middle" x="828" y="-28.3" font-family="Times,serif" font-size="14.00" fill="#000000">hid_2</text>
</g>
<!-- 140219168613992&#45;&gt;140219168615112 -->
<g id="edge5" class="edge">
<title>140219168613992&#45;&gt;140219168615112</title>
<path fill="none" stroke="#000000" d="M855.003,-47.0016C864.5964,-52.3313 875.4963,-58.3868 885.5008,-63.9449"/>
<polygon fill="#000000" stroke="#000000" points="883.9324,-67.0774 894.3738,-68.8743 887.332,-60.9583 883.9324,-67.0774"/>
</g>
<!-- 140219168615392 -->
<g id="node6" class="node">
<title>140219168615392</title>
<polygon fill="none" stroke="#000000" points="337,-218 283,-218 283,-182 337,-182 337,-218"/>
<text text-anchor="middle" x="310" y="-196.3" font-family="Times,serif" font-size="14.00" fill="#000000">hid_3</text>
</g>
<!-- 140219168615000 -->
<g id="node11" class="node">
<title>140219168615000</title>
<ellipse fill="none" stroke="#000000" cx="400" cy="-209" rx="27" ry="27"/>
<text text-anchor="middle" x="400" y="-205.3" font-family="Times,serif" font-size="14.00" fill="#000000">pre_Root</text>
</g>
<!-- 140219168615392&#45;&gt;140219168615000 -->
<g id="edge6" class="edge">
<title>140219168615392&#45;&gt;140219168615000</title>
<path fill="none" stroke="#000000" d="M337.003,-202.7003C345.1903,-203.519 354.3292,-204.4329 363.051,-205.3051"/>
<polygon fill="#000000" stroke="#000000" points="362.7174,-208.7891 373.0161,-206.3016 363.414,-201.8239 362.7174,-208.7891"/>
</g>
<!-- 140219168615728 -->
<g id="node7" class="node">
<title>140219168615728</title>
<polygon fill="none" stroke="#000000" points="337,-155 283,-155 283,-119 337,-119 337,-155"/>
<text text-anchor="middle" x="310" y="-133.3" font-family="Times,serif" font-size="14.00" fill="#000000">hid_4</text>
</g>
<!-- 140219168613040 -->
<g id="node12" class="node">
<title>140219168613040</title>
<ellipse fill="none" stroke="#000000" cx="400" cy="-137" rx="27" ry="27"/>
<text text-anchor="middle" x="400" y="-133.3" font-family="Times,serif" font-size="14.00" fill="#000000">pre_TradeConfig:getDisplayOrderAlerts</text>
</g>
<!-- 140219168615728&#45;&gt;140219168613040 -->
<g id="edge7" class="edge">
<title>140219168615728&#45;&gt;140219168613040</title>
<path fill="none" stroke="#000000" d="M337.003,-137C345.0277,-137 353.9665,-137 362.5309,-137"/>
<polygon fill="#000000" stroke="#000000" points="362.7051,-140.5001 372.705,-137 362.705,-133.5001 362.7051,-140.5001"/>
</g>
<!-- 140219168594352 -->
<g id="node8" class="node">
<title>140219168594352</title>
<ellipse fill="#00ff00" stroke="#000000" cx="738" cy="-27" rx="27" ry="27"/>
<text text-anchor="middle" x="738" y="-23.3" font-family="Times,serif" font-size="14.00" fill="#000000">1</text>
</g>
<!-- 140219168594352&#45;&gt;140219168613992 -->
<g id="edge13" class="edge">
<title>140219168594352&#45;&gt;140219168613992</title>
<path fill="none" stroke="#000000" d="M765.003,-28.5002C773.0277,-28.946 781.9665,-29.4426 790.5309,-29.9184"/>
<polygon fill="#000000" stroke="#000000" points="790.5262,-33.4234 800.705,-30.4836 790.9146,-26.4342 790.5262,-33.4234"/>
</g>
<!-- 140219168612424&#45;&gt;140219168615392 -->
<g id="edge8" class="edge">
<title>140219168612424&#45;&gt;140219168615392</title>
<path fill="none" stroke="#000000" d="M242.2472,-152.573C252.3684,-159.6579 264.5735,-168.2015 275.8201,-176.0741"/>
<polygon fill="#000000" stroke="#000000" points="273.9838,-179.0609 284.1832,-181.9283 277.998,-173.3263 273.9838,-179.0609"/>
</g>
<!-- 140219168612424&#45;&gt;140219168615728 -->
<g id="edge9" class="edge">
<title>140219168612424&#45;&gt;140219168615728</title>
<path fill="none" stroke="#000000" d="M247.003,-137C255.0277,-137 263.9665,-137 272.5309,-137"/>
<polygon fill="#000000" stroke="#000000" points="272.7051,-140.5001 282.705,-137 272.705,-133.5001 272.7051,-140.5001"/>
</g>
<!-- 140219168615112&#45;&gt;140219168594408 -->
<g id="edge10" class="edge">
<title>140219168615112&#45;&gt;140219168594408</title>
<path fill="none" stroke="#000000" d="M890.8597,-82C855.624,-82 792.2188,-82 738,-82 310,-82 310,-82 310,-82 262.7064,-82 210.3418,-87.6281 167.395,-93.7452"/>
<polygon fill="#000000" stroke="#000000" points="166.6456,-90.3173 157.255,-95.2232 167.6553,-97.2441 166.6456,-90.3173"/>
</g>
<!-- 140219168615000&#45;&gt;140219168593512 -->
<g id="edge11" class="edge">
<title>140219168615000&#45;&gt;140219168593512</title>
<path fill="none" stroke="#000000" d="M427.1528,-209C455.487,-209 500.1095,-209 531.7314,-209"/>
<polygon fill="#000000" stroke="#000000" points="531.9146,-212.5001 541.9146,-209 531.9146,-205.5001 531.9146,-212.5001"/>
</g>
<!-- 140219168613040&#45;&gt;140219168614832 -->
<g id="edge12" class="edge">
<title>140219168613040&#45;&gt;140219168614832</title>
<path fill="none" stroke="#000000" d="M427.1528,-137C434.6901,-137 443.3801,-137 452.6713,-137"/>
<polygon fill="#000000" stroke="#000000" points="452.9632,-140.5001 462.9631,-137 452.9631,-133.5001 452.9632,-140.5001"/>
</g>
<!-- 140219168614384&#45;&gt;140219168614216 -->
<g id="edge14" class="edge">
<title>140219168614384&#45;&gt;140219168614216</title>
<path fill="none" stroke="#000000" d="M765.003,-135.4998C773.0277,-135.054 781.9665,-134.5574 790.5309,-134.0816"/>
<polygon fill="#000000" stroke="#000000" points="790.9146,-137.5658 800.705,-133.5164 790.5262,-130.5766 790.9146,-137.5658"/>
</g>
</g>
</svg>
