<?xml version="1.0" encoding="UTF-8" standalone="no"?>
<!DOCTYPE svg PUBLIC "-//W3C//DTD SVG 1.1//EN"
 "http://www.w3.org/Graphics/SVG/1.1/DTD/svg11.dtd">
<!-- Generated by graphviz version 2.40.1 (20161225.0304)
 -->
<!-- Title: imdf_net_1586496127.9876876 Pages: 1 -->
<svg width="1494pt" height="1772pt"
 viewBox="0.00 0.00 1494.00 1772.00" xmlns="http://www.w3.org/2000/svg" xmlns:xlink="http://www.w3.org/1999/xlink">
<g id="graph0" class="graph" transform="scale(1 1) rotate(0) translate(4 1768)">
<title>imdf_net_1586496127.9876876</title>
<!-- 139748203784400 -->
<g id="node1" class="node">
<title>139748203784400</title>
<polygon fill="none" stroke="#000000" points="196,-743 0,-743 0,-707 196,-707 196,-743"/>
<text text-anchor="middle" x="98" y="-721.3" font-family="Times,serif" font-size="14.00" fill="#000000">AccountDataBean:getAccountID</text>
</g>
<!-- 139748205696112 -->
<g id="node54" class="node">
<title>139748205696112</title>
<ellipse fill="none" stroke="#000000" cx="259" cy="-817" rx="27" ry="27"/>
<text text-anchor="middle" x="259" y="-813.3" font-family="Times,serif" font-size="14.00" fill="#000000">p_8</text>
</g>
<!-- 139748203784400&#45;&gt;139748205696112 -->
<g id="edge12" class="edge">
<title>139748203784400&#45;&gt;139748205696112</title>
<path fill="none" stroke="#000000" d="M129.8084,-743.1762C157.7583,-759.1476 198.2522,-782.287 226.4277,-798.3872"/>
<polygon fill="#000000" stroke="#000000" points="224.6922,-801.4267 235.1112,-803.3493 228.1653,-795.349 224.6922,-801.4267"/>
</g>
<!-- 139748205695664 -->
<g id="node2" class="node">
<title>139748205695664</title>
<polygon fill="none" stroke="#000000" points="1457.5,-1710 1278.5,-1710 1278.5,-1674 1457.5,-1674 1457.5,-1710"/>
<text text-anchor="middle" x="1368" y="-1688.3" font-family="Times,serif" font-size="14.00" fill="#000000">AccountDataBean:getBalance</text>
</g>
<!-- 139748205695664&#45;&gt;139748205696112 -->
<g id="edge24" class="edge">
<title>139748205695664&#45;&gt;139748205696112</title>
<path fill="none" stroke="#000000" d="M1278.3961,-1683.3954C1222.6613,-1678.7675 1149.4763,-1674 1084.5,-1674 439,-1674 439,-1674 439,-1674 372.017,-1674 353.2663,-1638.238 322,-1579 287.9219,-1514.4346 265.8893,-998.1094 260.3658,-854.1485"/>
<polygon fill="#000000" stroke="#000000" points="263.8595,-853.9129 259.9822,-844.0531 256.8645,-854.1788 263.8595,-853.9129"/>
</g>
<!-- 139748203783728 -->
<g id="node3" class="node">
<title>139748203783728</title>
<polygon fill="none" stroke="#000000" points="1472,-1656 1264,-1656 1264,-1620 1472,-1620 1472,-1656"/>
<text text-anchor="middle" x="1368" y="-1634.3" font-family="Times,serif" font-size="14.00" fill="#000000">AccountDataBean:getCreationDate</text>
</g>
<!-- 139748203783728&#45;&gt;139748205696112 -->
<g id="edge34" class="edge">
<title>139748203783728&#45;&gt;139748205696112</title>
<path fill="none" stroke="#000000" d="M1263.7421,-1628.7538C1210.2091,-1624.7665 1143.9151,-1621 1084.5,-1621 439,-1621 439,-1621 439,-1621 372.5738,-1621 353.4834,-1586.4914 322,-1528 289.9084,-1468.3788 266.6939,-992.3371 260.5894,-854.3561"/>
<polygon fill="#000000" stroke="#000000" points="264.0821,-854.1108 260.1473,-844.2737 257.0889,-854.4175 264.0821,-854.1108"/>
</g>
<!-- 139748203782832 -->
<g id="node4" class="node">
<title>139748203782832</title>
<polygon fill="none" stroke="#000000" points="1463.5,-1602 1272.5,-1602 1272.5,-1566 1463.5,-1566 1463.5,-1602"/>
<text text-anchor="middle" x="1368" y="-1580.3" font-family="Times,serif" font-size="14.00" fill="#000000">AccountDataBean:getLastLogin</text>
</g>
<!-- 139748203782832&#45;&gt;139748205696112 -->
<g id="edge21" class="edge">
<title>139748203782832&#45;&gt;139748205696112</title>
<path fill="none" stroke="#000000" d="M1272.471,-1568.8242C1217.6198,-1561.3833 1147.3568,-1554 1084.5,-1554 439,-1554 439,-1554 439,-1554 379.0774,-1554 354.4492,-1537.3763 322,-1487 287.5817,-1433.5667 266.156,-986.8671 260.5035,-854.0832"/>
<polygon fill="#000000" stroke="#000000" points="263.9967,-853.8439 260.0791,-844 257.0029,-854.1384 263.9967,-853.8439"/>
</g>
<!-- 139748203784512 -->
<g id="node5" class="node">
<title>139748203784512</title>
<polygon fill="none" stroke="#000000" points="1468.5,-1548 1267.5,-1548 1267.5,-1512 1468.5,-1512 1468.5,-1548"/>
<text text-anchor="middle" x="1368" y="-1526.3" font-family="Times,serif" font-size="14.00" fill="#000000">AccountDataBean:getLoginCount</text>
</g>
<!-- 139748203784512&#45;&gt;139748205696112 -->
<g id="edge4" class="edge">
<title>139748203784512&#45;&gt;139748205696112</title>
<path fill="none" stroke="#000000" d="M1267.3871,-1521.0271C1213.2386,-1516.9404 1145.2711,-1513 1084.5,-1513 439,-1513 439,-1513 439,-1513 379.0774,-1513 354.602,-1496.2775 322,-1446 289.7307,-1396.2355 267.037,-982.0049 260.7569,-854.3217"/>
<polygon fill="#000000" stroke="#000000" points="264.2487,-854.0649 260.2663,-844.247 257.2569,-854.4055 264.2487,-854.0649"/>
</g>
<!-- 139748203784904 -->
<g id="node6" class="node">
<title>139748203784904</title>
<polygon fill="none" stroke="#000000" points="1472,-1494 1264,-1494 1264,-1458 1472,-1458 1472,-1494"/>
<text text-anchor="middle" x="1368" y="-1472.3" font-family="Times,serif" font-size="14.00" fill="#000000">AccountDataBean:getLogoutCount</text>
</g>
<!-- 139748203784904&#45;&gt;139748205696112 -->
<g id="edge25" class="edge">
<title>139748203784904&#45;&gt;139748205696112</title>
<path fill="none" stroke="#000000" d="M1263.9969,-1472.7454C1210.3855,-1471.3349 1143.9449,-1470 1084.5,-1470 439,-1470 439,-1470 439,-1470 379.7287,-1470 354.8976,-1455.3035 322,-1406 291.3527,-1360.069 267.7873,-976.6565 260.9913,-854.3415"/>
<polygon fill="#000000" stroke="#000000" points="264.4663,-853.7892 260.4221,-843.9967 257.4769,-854.1739 264.4663,-853.7892"/>
</g>
<!-- 139748205696840 -->
<g id="node7" class="node">
<title>139748205696840</title>
<polygon fill="none" stroke="#000000" points="1472.5,-1440 1263.5,-1440 1263.5,-1404 1472.5,-1404 1472.5,-1440"/>
<text text-anchor="middle" x="1368" y="-1418.3" font-family="Times,serif" font-size="14.00" fill="#000000">AccountDataBean:getOpenBalance</text>
</g>
<!-- 139748205696840&#45;&gt;139748205696112 -->
<g id="edge13" class="edge">
<title>139748205696840&#45;&gt;139748205696112</title>
<path fill="none" stroke="#000000" d="M1263.3269,-1424.7268C1209.8311,-1425.8968 1143.6948,-1427 1084.5,-1427 439,-1427 439,-1427 439,-1427 380.7625,-1427 355.3046,-1415.7746 322,-1368 292.6328,-1325.8735 268.4598,-971.2977 261.2188,-854.2937"/>
<polygon fill="#000000" stroke="#000000" points="264.6961,-853.8139 260.5905,-844.0469 257.7092,-854.2424 264.6961,-853.8139"/>
</g>
<!-- 139748203784624 -->
<g id="node8" class="node">
<title>139748203784624</title>
<polygon fill="none" stroke="#000000" points="1461.5,-1386 1274.5,-1386 1274.5,-1350 1461.5,-1350 1461.5,-1386"/>
<text text-anchor="middle" x="1368" y="-1364.3" font-family="Times,serif" font-size="14.00" fill="#000000">AccountDataBean:getProfileID</text>
</g>
<!-- 139748203784624&#45;&gt;139748205696112 -->
<g id="edge30" class="edge">
<title>139748203784624&#45;&gt;139748205696112</title>
<path fill="none" stroke="#000000" d="M1274.2742,-1378.4385C1219.1014,-1383.7089 1147.9194,-1389 1084.5,-1389 439,-1389 439,-1389 439,-1389 380.561,-1389 355.4628,-1376.9098 322,-1329 294.8622,-1290.146 269.5306,-965.5054 261.5716,-854.243"/>
<polygon fill="#000000" stroke="#000000" points="265.0552,-853.8857 260.8562,-844.1585 258.0727,-854.3812 265.0552,-853.8857"/>
</g>
<!-- 139748205695048 -->
<g id="node9" class="node">
<title>139748205695048</title>
<polygon fill="none" stroke="#000000" points="1460.5,-1332 1275.5,-1332 1275.5,-1296 1460.5,-1296 1460.5,-1332"/>
<text text-anchor="middle" x="1368" y="-1310.3" font-family="Times,serif" font-size="14.00" fill="#000000">AccountDataBean:setProfileID</text>
</g>
<!-- 139748205695048&#45;&gt;139748205696112 -->
<g id="edge20" class="edge">
<title>139748205695048&#45;&gt;139748205696112</title>
<path fill="none" stroke="#000000" d="M1276.7858,-1332.0123C1221.4032,-1341.4219 1149.1511,-1351 1084.5,-1351 439,-1351 439,-1351 439,-1351 380.561,-1351 355.6949,-1338.7469 322,-1291 272.4115,-1220.7315 261.8239,-953.698 259.5892,-854.4453"/>
<polygon fill="#000000" stroke="#000000" points="263.0851,-854.2063 259.3768,-844.2817 256.0866,-854.3527 263.0851,-854.2063"/>
</g>
<!-- 139748203783840 -->
<g id="node10" class="node">
<title>139748203783840</title>
<polygon fill="none" stroke="#000000" points="1477,-1278 1259,-1278 1259,-1242 1477,-1242 1477,-1278"/>
<text text-anchor="middle" x="1368" y="-1256.3" font-family="Times,serif" font-size="14.00" fill="#000000">AccountProfileDataBean:getAccount</text>
</g>
<!-- 139748203783840&#45;&gt;139748205696112 -->
<g id="edge33" class="edge">
<title>139748203783840&#45;&gt;139748205696112</title>
<path fill="none" stroke="#000000" d="M1289.5633,-1278.0173C1219.9767,-1293.3821 1123.4931,-1313 1084.5,-1313 439,-1313 439,-1313 439,-1313 380.561,-1313 355.9657,-1300.5546 322,-1253 276.4156,-1189.1784 263.435,-947.7724 260.0752,-854.2912"/>
<polygon fill="#000000" stroke="#000000" points="263.5685,-854.0351 259.7283,-844.1608 256.5726,-854.2747 263.5685,-854.0351"/>
</g>
<!-- 139748205698856 -->
<g id="node11" class="node">
<title>139748205698856</title>
<polygon fill="none" stroke="#000000" points="1476.5,-1224 1259.5,-1224 1259.5,-1188 1476.5,-1188 1476.5,-1224"/>
<text text-anchor="middle" x="1368" y="-1202.3" font-family="Times,serif" font-size="14.00" fill="#000000">AccountProfileDataBean:getAddress</text>
</g>
<!-- 139748205698856&#45;&gt;139748205696112 -->
<g id="edge3" class="edge">
<title>139748205698856&#45;&gt;139748205696112</title>
<path fill="none" stroke="#000000" d="M1287.963,-1224.0453C1275.2514,-1226.9885 1262.2576,-1230.0427 1250,-1233 1176.2294,-1250.7979 1160.3872,-1275 1084.5,-1275 439,-1275 439,-1275 439,-1275 380.3569,-1275 356.2543,-1261.5989 322,-1214 280.7238,-1156.6437 265.3272,-941.5864 260.6955,-854.2321"/>
<polygon fill="#000000" stroke="#000000" points="264.1903,-854.0391 260.1831,-844.2314 257.1995,-854.3974 264.1903,-854.0391"/>
</g>
<!-- 139748205695552 -->
<g id="node12" class="node">
<title>139748205695552</title>
<polygon fill="none" stroke="#000000" points="1484.5,-1170 1251.5,-1170 1251.5,-1134 1484.5,-1134 1484.5,-1170"/>
<text text-anchor="middle" x="1368" y="-1148.3" font-family="Times,serif" font-size="14.00" fill="#000000">AccountProfileDataBean:getCreditCard</text>
</g>
<!-- 139748205695552&#45;&gt;139748205696112 -->
<g id="edge8" class="edge">
<title>139748205695552&#45;&gt;139748205696112</title>
<path fill="none" stroke="#000000" d="M1283.9019,-1170.0242C1272.4571,-1172.832 1260.9033,-1175.8528 1250,-1179 1175.1155,-1200.6153 1162.4417,-1237 1084.5,-1237 439,-1237 439,-1237 439,-1237 380.1501,-1237 356.6164,-1222.5922 322,-1175 285.0087,-1124.1426 267.4304,-935.4896 261.4585,-854.4195"/>
<polygon fill="#000000" stroke="#000000" points="264.9301,-853.8967 260.7236,-844.1727 257.948,-854.3975 264.9301,-853.8967"/>
</g>
<!-- 139748205697064 -->
<g id="node13" class="node">
<title>139748205697064</title>
<polygon fill="none" stroke="#000000" points="1471,-1116 1265,-1116 1265,-1080 1471,-1080 1471,-1116"/>
<text text-anchor="middle" x="1368" y="-1094.3" font-family="Times,serif" font-size="14.00" fill="#000000">AccountProfileDataBean:getEmail</text>
</g>
<!-- 139748205697064&#45;&gt;139748205696112 -->
<g id="edge36" class="edge">
<title>139748205697064&#45;&gt;139748205696112</title>
<path fill="none" stroke="#000000" d="M1280.4702,-1116.0056C1270.1167,-1118.7296 1259.7661,-1121.7343 1250,-1125 1173.5855,-1150.5524 1165.0736,-1199 1084.5,-1199 439,-1199 439,-1199 439,-1199 379.7287,-1199 357.0589,-1182.7908 322,-1135 289.4769,-1090.6659 269.8998,-928.7589 262.4528,-854.5792"/>
<polygon fill="#000000" stroke="#000000" points="265.9036,-853.9053 261.442,-844.2956 258.9371,-854.5901 265.9036,-853.9053"/>
</g>
<!-- 139748203783952 -->
<g id="node14" class="node">
<title>139748203783952</title>
<polygon fill="none" stroke="#000000" points="1481.5,-1062 1254.5,-1062 1254.5,-1026 1481.5,-1026 1481.5,-1062"/>
<text text-anchor="middle" x="1368" y="-1040.3" font-family="Times,serif" font-size="14.00" fill="#000000">AccountProfileDataBean:getFullName</text>
</g>
<!-- 139748203783952&#45;&gt;139748205696112 -->
<g id="edge6" class="edge">
<title>139748203783952&#45;&gt;139748205696112</title>
<path fill="none" stroke="#000000" d="M1277.369,-1062.0631C1268.0193,-1064.7188 1258.7475,-1067.6924 1250,-1071 1171.6836,-1100.6135 1168.2282,-1161 1084.5,-1161 439,-1161 439,-1161 439,-1161 379.297,-1161 357.6554,-1142.8867 322,-1095 293.7357,-1057.0399 272.5385,-920.6185 263.6257,-854.0543"/>
<polygon fill="#000000" stroke="#000000" points="267.077,-853.4543 262.3016,-843.9968 260.1369,-854.3681 267.077,-853.4543"/>
</g>
<!-- 139748203784848 -->
<g id="node15" class="node">
<title>139748203784848</title>
<polygon fill="none" stroke="#000000" points="1480,-1008 1256,-1008 1256,-972 1480,-972 1480,-1008"/>
<text text-anchor="middle" x="1368" y="-986.3" font-family="Times,serif" font-size="14.00" fill="#000000">AccountProfileDataBean:getPassword</text>
</g>
<!-- 139748203784848&#45;&gt;139748205696112 -->
<g id="edge35" class="edge">
<title>139748203784848&#45;&gt;139748205696112</title>
<path fill="none" stroke="#000000" d="M1274.8971,-1008.0284C1266.3518,-1010.659 1257.9331,-1013.6372 1250,-1017 1169.578,-1051.0907 1171.8492,-1123 1084.5,-1123 439,-1123 439,-1123 439,-1123 378.6308,-1123 358.481,-1102.0997 322,-1054 298.0935,-1022.4795 275.6959,-911.8254 265.215,-853.542"/>
<polygon fill="#000000" stroke="#000000" points="268.6512,-852.8736 263.4583,-843.6386 261.7588,-854.0962 268.6512,-852.8736"/>
</g>
<!-- 139748205697568 -->
<g id="node16" class="node">
<title>139748205697568</title>
<polygon fill="none" stroke="#000000" points="1474,-954 1262,-954 1262,-918 1474,-918 1474,-954"/>
<text text-anchor="middle" x="1368" y="-932.3" font-family="Times,serif" font-size="14.00" fill="#000000">AccountProfileDataBean:getUserID</text>
</g>
<!-- 139748205697568&#45;&gt;139748205696112 -->
<g id="edge32" class="edge">
<title>139748205697568&#45;&gt;139748205696112</title>
<path fill="none" stroke="#000000" d="M1272.415,-954.049C1264.6863,-956.6542 1257.1201,-959.6219 1250,-963 1217.9519,-978.2049 1153.2058,-1040.8682 1124,-1061 1107.0868,-1072.6584 1105.042,-1085 1084.5,-1085 439,-1085 439,-1085 439,-1085 377.4721,-1085 359.7441,-1059.5908 322,-1011 285.7525,-964.3359 269.9922,-896.0844 263.4114,-854.2112"/>
<polygon fill="#000000" stroke="#000000" points="266.8511,-853.5452 261.9292,-844.163 259.9261,-854.5667 266.8511,-853.5452"/>
</g>
<!-- 139748205698968 -->
<g id="node17" class="node">
<title>139748205698968</title>
<polygon fill="none" stroke="#000000" points="1429.5,-900 1306.5,-900 1306.5,-864 1429.5,-864 1429.5,-900"/>
<text text-anchor="middle" x="1368" y="-878.3" font-family="Times,serif" font-size="14.00" fill="#000000">Log:doActionTrace</text>
</g>
<!-- 139748205698968&#45;&gt;139748205696112 -->
<g id="edge2" class="edge">
<title>139748205698968&#45;&gt;139748205696112</title>
<path fill="none" stroke="#000000" d="M1306.3999,-890.4118C1287.6557,-894.4516 1267.4188,-900.3701 1250,-909 1164.1831,-951.5166 1180.2716,-1047 1084.5,-1047 439,-1047 439,-1047 439,-1047 341.7768,-1047 289.2143,-917.9722 268.9527,-853.1984"/>
<polygon fill="#000000" stroke="#000000" points="272.2279,-851.9378 265.9763,-843.3839 265.5291,-853.9693 272.2279,-851.9378"/>
</g>
<!-- 139748203784736 -->
<g id="node18" class="node">
<title>139748203784736</title>
<polygon fill="none" stroke="#000000" points="1411,-846 1325,-846 1325,-810 1411,-810 1411,-846"/>
<text text-anchor="middle" x="1368" y="-824.3" font-family="Times,serif" font-size="14.00" fill="#000000">Log:doTrace</text>
</g>
<!-- 139748203784736&#45;&gt;139748205696112 -->
<g id="edge1" class="edge">
<title>139748203784736&#45;&gt;139748205696112</title>
<path fill="none" stroke="#000000" d="M1324.9486,-820.7791C1302.2664,-816.3213 1274.2069,-809.7624 1250,-801 1172.4375,-772.924 1166.9876,-717 1084.5,-717 439,-717 439,-717 439,-717 384.4618,-717 368.6133,-725.6871 322,-754 307.2511,-762.9585 293.3925,-776.0735 282.4493,-788.0209"/>
<polygon fill="#000000" stroke="#000000" points="279.7055,-785.84 275.6989,-795.6481 284.9474,-790.4793 279.7055,-785.84"/>
</g>
<!-- 139748205698800 -->
<g id="node19" class="node">
<title>139748205698800</title>
<polygon fill="none" stroke="#000000" points="1446.5,-792 1289.5,-792 1289.5,-756 1446.5,-756 1446.5,-792"/>
<text text-anchor="middle" x="1368" y="-770.3" font-family="Times,serif" font-size="14.00" fill="#000000">OrdersAlertFilter:doFilter</text>
</g>
<!-- 139748205698800&#45;&gt;139748205696112 -->
<g id="edge23" class="edge">
<title>139748205698800&#45;&gt;139748205696112</title>
<path fill="none" stroke="#000000" d="M1289.3343,-760.0769C1275.95,-756.5614 1262.3833,-752.2493 1250,-747 1169.578,-712.9093 1171.8492,-641 1084.5,-641 439,-641 439,-641 439,-641 358.5615,-641 300.7479,-731.9663 274.6029,-783.1029"/>
<polygon fill="#000000" stroke="#000000" points="271.4187,-781.6454 270.0913,-792.1568 277.684,-784.7675 271.4187,-781.6454"/>
</g>
<!-- 139748205695160 -->
<g id="node20" class="node">
<title>139748205695160</title>
<polygon fill="none" stroke="#000000" points="906.5,-934 852.5,-934 852.5,-898 906.5,-898 906.5,-934"/>
<text text-anchor="middle" x="879.5" y="-912.3" font-family="Times,serif" font-size="14.00" fill="#000000">Root</text>
</g>
<!-- 139748203896728 -->
<g id="node56" class="node">
<title>139748203896728</title>
<ellipse fill="#ffa500" stroke="#000000" cx="982" cy="-864" rx="27" ry="27"/>
</g>
<!-- 139748205695160&#45;&gt;139748203896728 -->
<g id="edge11" class="edge">
<title>139748205695160&#45;&gt;139748203896728</title>
<path fill="none" stroke="#000000" d="M906.699,-902.2015C919.6135,-895.6497 935.1631,-887.7611 948.7706,-880.8579"/>
<polygon fill="#000000" stroke="#000000" points="950.49,-883.9103 957.8245,-876.2646 947.323,-877.6676 950.49,-883.9103"/>
</g>
<!-- 139748203784232 -->
<g id="node21" class="node">
<title>139748203784232</title>
<polygon fill="none" stroke="#000000" points="1456,-738 1280,-738 1280,-702 1456,-702 1456,-738"/>
<text text-anchor="middle" x="1368" y="-716.3" font-family="Times,serif" font-size="14.00" fill="#000000">TradeAction:getAccountData</text>
</g>
<!-- 139748203784232&#45;&gt;139748205696112 -->
<g id="edge5" class="edge">
<title>139748203784232&#45;&gt;139748205696112</title>
<path fill="none" stroke="#000000" d="M1279.944,-703.3937C1269.6828,-700.4241 1259.4978,-696.9791 1250,-693 1232.4881,-685.6634 1230.4487,-679.4833 1214,-670 1157.8596,-637.6331 1149.3025,-603 1084.5,-603 439,-603 439,-603 439,-603 381.3506,-603 361.3762,-616.8934 322,-659 290.0568,-693.1582 273.5255,-745.5199 265.5622,-780.4908"/>
<polygon fill="#000000" stroke="#000000" points="262.1326,-779.7915 263.4479,-790.3044 268.9756,-781.2659 262.1326,-779.7915"/>
</g>
<!-- 139748203783616 -->
<g id="node22" class="node">
<title>139748203783616</title>
<polygon fill="none" stroke="#000000" points="1474.5,-684 1261.5,-684 1261.5,-648 1474.5,-648 1474.5,-684"/>
<text text-anchor="middle" x="1368" y="-662.3" font-family="Times,serif" font-size="14.00" fill="#000000">TradeAction:getAccountProfileData</text>
</g>
<!-- 139748203783616&#45;&gt;139748205696112 -->
<g id="edge7" class="edge">
<title>139748203783616&#45;&gt;139748205696112</title>
<path fill="none" stroke="#000000" d="M1280.4702,-647.9944C1270.1167,-645.2704 1259.7661,-642.2657 1250,-639 1173.5855,-613.4476 1165.0736,-565 1084.5,-565 439,-565 439,-565 439,-565 383.1254,-565 359.9428,-569.9839 322,-611 299.0836,-635.7726 277.1686,-727.9924 266.2318,-780.2537"/>
<polygon fill="#000000" stroke="#000000" points="262.7846,-779.6407 264.1937,-790.1414 269.6405,-781.0538 262.7846,-779.6407"/>
</g>
<!-- 139748203783280 -->
<g id="node23" class="node">
<title>139748203783280</title>
<polygon fill="none" stroke="#000000" points="1457.5,-630 1278.5,-630 1278.5,-594 1457.5,-594 1457.5,-630"/>
<text text-anchor="middle" x="1368" y="-608.3" font-family="Times,serif" font-size="14.00" fill="#000000">TradeAction:getClosedOrders</text>
</g>
<!-- 139748203783280&#45;&gt;139748205696112 -->
<g id="edge19" class="edge">
<title>139748203783280&#45;&gt;139748205696112</title>
<path fill="none" stroke="#000000" d="M1283.9019,-593.9758C1272.4571,-591.168 1260.9033,-588.1472 1250,-585 1175.1155,-563.3847 1162.4417,-527 1084.5,-527 439,-527 439,-527 439,-527 383.8996,-527 359.1851,-527.339 322,-568 293.7661,-598.8731 273.0744,-718.2671 264.0374,-779.8256"/>
<polygon fill="#000000" stroke="#000000" points="260.5478,-779.5035 262.5868,-789.9003 267.4763,-780.5012 260.5478,-779.5035"/>
</g>
<!-- 139748203783000 -->
<g id="node24" class="node">
<title>139748203783000</title>
<polygon fill="none" stroke="#000000" points="1460,-576 1276,-576 1276,-540 1460,-540 1460,-576"/>
<text text-anchor="middle" x="1368" y="-554.3" font-family="Times,serif" font-size="14.00" fill="#000000">TradeAppServlet:performTask</text>
</g>
<!-- 139748203783000&#45;&gt;139748205696112 -->
<g id="edge22" class="edge">
<title>139748203783000&#45;&gt;139748205696112</title>
<path fill="none" stroke="#000000" d="M1287.963,-539.9547C1275.2514,-537.0115 1262.2576,-533.9573 1250,-531 1176.2294,-513.2021 1160.3872,-489 1084.5,-489 439,-489 439,-489 439,-489 384.1872,-489 358.6281,-487.2222 322,-528 288.8705,-564.8827 269.8766,-710.5378 262.5419,-779.8999"/>
<polygon fill="#000000" stroke="#000000" points="259.0495,-779.6473 261.5042,-789.9538 266.0125,-780.366 259.0495,-779.6473"/>
</g>
<!-- 139748205697176 -->
<g id="node25" class="node">
<title>139748205697176</title>
<polygon fill="none" stroke="#000000" points="1454.5,-522 1281.5,-522 1281.5,-486 1454.5,-486 1454.5,-522"/>
<text text-anchor="middle" x="1368" y="-500.3" font-family="Times,serif" font-size="14.00" fill="#000000">TradeConfig:getActionTrace</text>
</g>
<!-- 139748205697176&#45;&gt;139748205696112 -->
<g id="edge28" class="edge">
<title>139748205697176&#45;&gt;139748205696112</title>
<path fill="none" stroke="#000000" d="M1289.5633,-485.9827C1219.9767,-470.6179 1123.4931,-451 1084.5,-451 439,-451 439,-451 439,-451 384.3261,-451 358.1849,-448.0136 322,-489 284.1562,-531.8654 267.2305,-703.3591 261.4533,-779.8478"/>
<polygon fill="#000000" stroke="#000000" points="257.9506,-779.758 260.7111,-789.9868 264.9319,-780.2691 257.9506,-779.758"/>
</g>
<!-- 139748203838824 -->
<g id="node26" class="node">
<title>139748203838824</title>
<polygon fill="none" stroke="#000000" points="714,-911 502,-911 502,-875 714,-875 714,-911"/>
<text text-anchor="middle" x="608" y="-889.3" font-family="Times,serif" font-size="14.00" fill="#000000">TradeConfig:getDisplayOrderAlerts</text>
</g>
<!-- 139748205698240 -->
<g id="node48" class="node">
<title>139748205698240</title>
<ellipse fill="none" stroke="#000000" cx="777" cy="-848" rx="27" ry="27"/>
<text text-anchor="middle" x="777" y="-844.3" font-family="Times,serif" font-size="14.00" fill="#000000">p_10</text>
</g>
<!-- 139748203838824&#45;&gt;139748205698240 -->
<g id="edge15" class="edge">
<title>139748203838824&#45;&gt;139748205698240</title>
<path fill="none" stroke="#000000" d="M679.9173,-874.9801C691.3337,-872.0335 703.0001,-868.9717 714,-866 722.8564,-863.6074 732.3852,-860.9359 741.2837,-858.3986"/>
<polygon fill="#000000" stroke="#000000" points="742.3462,-861.7351 750.9932,-855.613 740.4158,-855.0065 742.3462,-861.7351"/>
</g>
<!-- 139748203786024 -->
<g id="node27" class="node">
<title>139748203786024</title>
<polygon fill="none" stroke="#000000" points="1446.5,-468 1289.5,-468 1289.5,-432 1446.5,-432 1446.5,-468"/>
<text text-anchor="middle" x="1368" y="-446.3" font-family="Times,serif" font-size="14.00" fill="#000000">TradeConfig:getLongRun</text>
</g>
<!-- 139748203786024&#45;&gt;139748205696112 -->
<g id="edge27" class="edge">
<title>139748203786024&#45;&gt;139748205696112</title>
<path fill="none" stroke="#000000" d="M1289.2325,-434.1477C1232.5424,-424.1052 1154.1147,-413 1084.5,-413 439,-413 439,-413 439,-413 384.3261,-413 357.7877,-409.6663 322,-451 279.6552,-499.9069 264.9857,-697.024 260.6226,-779.95"/>
<polygon fill="#000000" stroke="#000000" points="257.1268,-779.7792 260.1179,-789.943 264.1179,-780.1323 257.1268,-779.7792"/>
</g>
<!-- 139748205698632 -->
<g id="node28" class="node">
<title>139748205698632</title>
<polygon fill="none" stroke="#000000" points="1434,-414 1302,-414 1302,-378 1434,-378 1434,-414"/>
<text text-anchor="middle" x="1368" y="-392.3" font-family="Times,serif" font-size="14.00" fill="#000000">TradeConfig:getPage</text>
</g>
<!-- 139748205698632&#45;&gt;139748205696112 -->
<g id="edge18" class="edge">
<title>139748205698632&#45;&gt;139748205696112</title>
<path fill="none" stroke="#000000" d="M1301.9407,-388.3294C1244.5493,-382.3304 1159.1473,-375 1084.5,-375 439,-375 439,-375 439,-375 384.3261,-375 357.4608,-371.3855 322,-413 275.2136,-467.9056 263.0072,-690.2638 259.9631,-779.5879"/>
<polygon fill="#000000" stroke="#000000" points="256.4579,-779.6943 259.6355,-789.8013 263.4543,-779.9187 256.4579,-779.6943"/>
</g>
<!-- 139748205698352 -->
<g id="node29" class="node">
<title>139748205698352</title>
<polygon fill="none" stroke="#000000" points="1436.5,-360 1299.5,-360 1299.5,-324 1436.5,-324 1436.5,-360"/>
<text text-anchor="middle" x="1368" y="-338.3" font-family="Times,serif" font-size="14.00" fill="#000000">TradeConfig:getTrace</text>
</g>
<!-- 139748205698352&#45;&gt;139748205696112 -->
<g id="edge10" class="edge">
<title>139748205698352&#45;&gt;139748205696112</title>
<path fill="none" stroke="#000000" d="M1299.2617,-340.1097C1241.8524,-338.6938 1157.8473,-337 1084.5,-337 439,-337 439,-337 439,-337 384.4618,-337 357.2548,-332.3884 322,-374 295.8403,-404.8766 270.5267,-678.9948 262.0137,-779.9159"/>
<polygon fill="#000000" stroke="#000000" points="258.5193,-779.7044 261.1737,-789.9613 265.4949,-780.2878 258.5193,-779.7044"/>
</g>
<!-- 139748203785576 -->
<g id="node30" class="node">
<title>139748203785576</title>
<polygon fill="none" stroke="#000000" points="1478.5,-306 1257.5,-306 1257.5,-270 1478.5,-270 1478.5,-306"/>
<text text-anchor="middle" x="1368" y="-284.3" font-family="Times,serif" font-size="14.00" fill="#000000">TradeConfig:useRemoteEJBInterface</text>
</g>
<!-- 139748203785576&#45;&gt;139748205696112 -->
<g id="edge26" class="edge">
<title>139748203785576&#45;&gt;139748205696112</title>
<path fill="none" stroke="#000000" d="M1257.2639,-289.7147C1204.8847,-290.3867 1141.4739,-291 1084.5,-291 439,-291 439,-291 439,-291 383.2864,-291 356.4631,-292.2245 322,-336 294.6169,-370.7825 269.7184,-672.8706 261.6935,-779.7355"/>
<polygon fill="#000000" stroke="#000000" points="258.2005,-779.5125 260.9485,-789.7447 265.1812,-780.0321 258.2005,-779.5125"/>
</g>
<!-- 139748205695328 -->
<g id="node31" class="node">
<title>139748205695328</title>
<polygon fill="none" stroke="#000000" points="1468,-252 1268,-252 1268,-216 1468,-216 1468,-252"/>
<text text-anchor="middle" x="1368" y="-230.3" font-family="Times,serif" font-size="14.00" fill="#000000">TradeSLSBBean:getAccountData</text>
</g>
<!-- 139748205695328&#45;&gt;139748205696112 -->
<g id="edge29" class="edge">
<title>139748205695328&#45;&gt;139748205696112</title>
<path fill="none" stroke="#000000" d="M1267.9772,-238.1991C1213.7022,-240.1306 1145.4324,-242 1084.5,-242 439,-242 439,-242 439,-242 382.2745,-242 355.8622,-247.4904 322,-293 292.9893,-331.9894 268.7944,-666.2394 261.3579,-779.5862"/>
<polygon fill="#000000" stroke="#000000" points="257.847,-779.6424 260.691,-789.8483 264.8322,-780.0964 257.847,-779.6424"/>
</g>
<!-- 139748205698072 -->
<g id="node32" class="node">
<title>139748205698072</title>
<polygon fill="none" stroke="#000000" points="1486,-198 1250,-198 1250,-162 1486,-162 1486,-198"/>
<text text-anchor="middle" x="1368" y="-176.3" font-family="Times,serif" font-size="14.00" fill="#000000">TradeSLSBBean:getAccountProfileData</text>
</g>
<!-- 139748205698072&#45;&gt;139748205696112 -->
<g id="edge14" class="edge">
<title>139748205698072&#45;&gt;139748205696112</title>
<path fill="none" stroke="#000000" d="M1249.7425,-184.8267C1198.8943,-186.5162 1138.7853,-188 1084.5,-188 439,-188 439,-188 439,-188 380.9613,-188 355.2595,-198.4363 322,-246 291.4175,-289.7354 267.9343,-659.4963 261.0579,-779.5334"/>
<polygon fill="#000000" stroke="#000000" points="257.553,-779.5215 260.4809,-789.7037 264.5418,-779.9181 257.553,-779.5215"/>
</g>
<!-- 139748203786080 -->
<g id="node33" class="node">
<title>139748203786080</title>
<polygon fill="none" stroke="#000000" points="1469.5,-144 1266.5,-144 1266.5,-108 1469.5,-108 1469.5,-144"/>
<text text-anchor="middle" x="1368" y="-122.3" font-family="Times,serif" font-size="14.00" fill="#000000">TradeSLSBBean:getClosedOrders</text>
</g>
<!-- 139748203786080&#45;&gt;139748205696112 -->
<g id="edge9" class="edge">
<title>139748203786080&#45;&gt;139748205696112</title>
<path fill="none" stroke="#000000" d="M1266.3283,-130.2577C1212.3238,-132.1682 1144.817,-134 1084.5,-134 439,-134 439,-134 439,-134 380.561,-134 354.9423,-145.7308 322,-194 288.8818,-242.5271 266.7729,-653.3318 260.6953,-779.979"/>
<polygon fill="#000000" stroke="#000000" points="257.1991,-779.8172 260.2208,-789.972 264.1912,-780.1492 257.1991,-779.8172"/>
</g>
<!-- 139748203783168 -->
<g id="node34" class="node">
<title>139748203783168</title>
<polygon fill="none" stroke="#000000" points="1439,-90 1297,-90 1297,-54 1439,-54 1439,-90"/>
<text text-anchor="middle" x="1368" y="-68.3" font-family="Times,serif" font-size="14.00" fill="#000000">new AccountDataBean</text>
</g>
<!-- 139748203783168&#45;&gt;139748205696112 -->
<g id="edge16" class="edge">
<title>139748203783168&#45;&gt;139748205696112</title>
<path fill="none" stroke="#000000" d="M1296.9921,-78.2318C1239.6876,-82.7244 1156.9667,-88 1084.5,-88 439,-88 439,-88 439,-88 382.0955,-88 355.1876,-93.7755 322,-140 284.5476,-192.1648 265.2459,-644.8103 260.2988,-779.4061"/>
<polygon fill="#000000" stroke="#000000" points="256.793,-779.5069 259.9284,-789.6272 263.7884,-779.7605 256.793,-779.5069"/>
</g>
<!-- 139748203784064 -->
<g id="node35" class="node">
<title>139748203784064</title>
<polygon fill="none" stroke="#000000" points="1457.5,-36 1278.5,-36 1278.5,0 1457.5,0 1457.5,-36"/>
<text text-anchor="middle" x="1368" y="-14.3" font-family="Times,serif" font-size="14.00" fill="#000000">new AccountProfileDataBean</text>
</g>
<!-- 139748203784064&#45;&gt;139748205696112 -->
<g id="edge31" class="edge">
<title>139748203784064&#45;&gt;139748205696112</title>
<path fill="none" stroke="#000000" d="M1278.3449,-23.7364C1222.591,-26.8216 1149.4038,-30 1084.5,-30 439,-30 439,-30 439,-30 380.1501,-30 354.5014,-42.9391 322,-92 283.7901,-149.6779 264.8446,-639.4379 260.1708,-779.6409"/>
<polygon fill="#000000" stroke="#000000" points="256.665,-779.7635 259.8345,-789.8731 263.6612,-779.9935 256.665,-779.7635"/>
</g>
<!-- 139748205695608 -->
<g id="node36" class="node">
<title>139748205695608</title>
<polygon fill="none" stroke="#000000" points="1423.5,-1764 1312.5,-1764 1312.5,-1728 1423.5,-1728 1423.5,-1764"/>
<text text-anchor="middle" x="1368" y="-1742.3" font-family="Times,serif" font-size="14.00" fill="#000000">new TradeAction</text>
</g>
<!-- 139748205695608&#45;&gt;139748205696112 -->
<g id="edge17" class="edge">
<title>139748205695608&#45;&gt;139748205696112</title>
<path fill="none" stroke="#000000" d="M1312.3257,-1745.0631C1255.1619,-1744.1829 1163.6236,-1743 1084.5,-1743 439,-1743 439,-1743 439,-1743 367.0151,-1743 352.8067,-1696.0598 322,-1631 288.4563,-1560.1601 265.8457,-1004.0472 260.317,-854.1264"/>
<polygon fill="#000000" stroke="#000000" points="263.8116,-853.9117 259.9486,-844.0463 256.8163,-854.1675 263.8116,-853.9117"/>
</g>
<!-- 139748205719904 -->
<g id="node37" class="node">
<title>139748205719904</title>
<polygon fill="none" stroke="#000000" points="919,-994 840,-994 840,-958 919,-958 919,-994"/>
<text text-anchor="middle" x="879.5" y="-972.3" font-family="Times,serif" font-size="14.00" fill="#000000">init_loop_2</text>
</g>
<!-- 139748205721584 -->
<g id="node51" class="node">
<title>139748205721584</title>
<ellipse fill="none" stroke="#000000" cx="982" cy="-936" rx="27" ry="27"/>
<text text-anchor="middle" x="982" y="-932.3" font-family="Times,serif" font-size="14.00" fill="#000000">p_5</text>
</g>
<!-- 139748205719904&#45;&gt;139748205721584 -->
<g id="edge37" class="edge">
<title>139748205719904&#45;&gt;139748205721584</title>
<path fill="none" stroke="#000000" d="M919.1292,-960.535C928.3963,-956.9185 938.1985,-953.0933 947.2353,-949.5667"/>
<polygon fill="#000000" stroke="#000000" points="948.636,-952.7772 956.6794,-945.8812 946.0912,-946.2562 948.636,-952.7772"/>
</g>
<!-- 139748205697008 -->
<g id="node38" class="node">
<title>139748205697008</title>
<polygon fill="none" stroke="#000000" points="1124,-953 1045,-953 1045,-917 1124,-917 1124,-953"/>
<text text-anchor="middle" x="1084.5" y="-931.3" font-family="Times,serif" font-size="14.00" fill="#000000">init_loop_4</text>
</g>
<!-- 139748205697792 -->
<g id="node53" class="node">
<title>139748205697792</title>
<ellipse fill="none" stroke="#000000" cx="1187" cy="-836" rx="27" ry="27"/>
<text text-anchor="middle" x="1187" y="-832.3" font-family="Times,serif" font-size="14.00" fill="#000000">p_7</text>
</g>
<!-- 139748205697008&#45;&gt;139748205697792 -->
<g id="edge38" class="edge">
<title>139748205697008&#45;&gt;139748205697792</title>
<path fill="none" stroke="#000000" d="M1106.1308,-916.9942C1112.0219,-911.9258 1118.3376,-906.3374 1124,-901 1136.6642,-889.0626 1150.161,-875.2896 1161.4001,-863.5029"/>
<polygon fill="#000000" stroke="#000000" points="1164.0921,-865.7504 1168.4283,-856.0835 1159.0102,-860.9364 1164.0921,-865.7504"/>
</g>
<!-- 139748205695384 -->
<g id="node39" class="node">
<title>139748205695384</title>
<polygon fill="none" stroke="#000000" points="906.5,-877 852.5,-877 852.5,-841 906.5,-841 906.5,-877"/>
<text text-anchor="middle" x="879.5" y="-855.3" font-family="Times,serif" font-size="14.00" fill="#000000">loop_3</text>
</g>
<!-- 139748205695384&#45;&gt;139748205721584 -->
<g id="edge39" class="edge">
<title>139748205695384&#45;&gt;139748205721584</title>
<path fill="none" stroke="#000000" d="M903.5317,-877.0531C918.0103,-887.9297 936.5717,-901.8734 952.0068,-913.4685"/>
<polygon fill="#000000" stroke="#000000" points="950.1168,-916.4263 960.2144,-919.6342 954.3212,-910.8296 950.1168,-916.4263"/>
</g>
<!-- 139748205697400 -->
<g id="node40" class="node">
<title>139748205697400</title>
<polygon fill="none" stroke="#000000" points="1009,-781 955,-781 955,-745 1009,-745 1009,-781"/>
<text text-anchor="middle" x="982" y="-759.3" font-family="Times,serif" font-size="14.00" fill="#000000">loop_5</text>
</g>
<!-- 139748205697400&#45;&gt;139748205697792 -->
<g id="edge40" class="edge">
<title>139748205697400&#45;&gt;139748205697792</title>
<path fill="none" stroke="#000000" d="M1009.2224,-772.6938C1045.948,-785.7717 1111.4085,-809.082 1151.8256,-823.4745"/>
<polygon fill="#000000" stroke="#000000" points="1150.6875,-826.7845 1161.2822,-826.842 1153.0358,-820.1901 1150.6875,-826.7845"/>
</g>
<!-- 139748203839104 -->
<g id="node41" class="node">
<title>139748203839104</title>
<polygon fill="none" stroke="#000000" points="637.5,-965 578.5,-965 578.5,-929 637.5,-929 637.5,-965"/>
<text text-anchor="middle" x="608" y="-943.3" font-family="Times,serif" font-size="14.00" fill="#000000">skip_10</text>
</g>
<!-- 139748205720912 -->
<g id="node50" class="node">
<title>139748205720912</title>
<ellipse fill="none" stroke="#000000" cx="777" cy="-920" rx="27" ry="27"/>
<text text-anchor="middle" x="777" y="-916.3" font-family="Times,serif" font-size="14.00" fill="#000000">p_4</text>
</g>
<!-- 139748203839104&#45;&gt;139748205720912 -->
<g id="edge86" class="edge">
<title>139748203839104&#45;&gt;139748205720912</title>
<path fill="none" stroke="#000000" d="M637.8248,-942.2351C666.4301,-937.665 709.6852,-930.7544 740.3711,-925.852"/>
<polygon fill="#000000" stroke="#000000" points="740.9339,-929.3065 750.2564,-924.2726 739.8295,-922.3942 740.9339,-929.3065"/>
</g>
<!-- 139748203782552 -->
<g id="node42" class="node">
<title>139748203782552</title>
<polygon fill="none" stroke="#000000" points="376,-799 322,-799 322,-763 376,-763 376,-799"/>
<text text-anchor="middle" x="349" y="-777.3" font-family="Times,serif" font-size="14.00" fill="#000000">skip_6</text>
</g>
<!-- 139748205697288 -->
<g id="node55" class="node">
<title>139748205697288</title>
<ellipse fill="none" stroke="#000000" cx="439" cy="-772" rx="27" ry="27"/>
<text text-anchor="middle" x="439" y="-768.3" font-family="Times,serif" font-size="14.00" fill="#000000">p_9</text>
</g>
<!-- 139748203782552&#45;&gt;139748205697288 -->
<g id="edge87" class="edge">
<title>139748203782552&#45;&gt;139748205697288</title>
<path fill="none" stroke="#000000" d="M376.003,-778.2997C384.1903,-777.481 393.3292,-776.5671 402.051,-775.6949"/>
<polygon fill="#000000" stroke="#000000" points="402.414,-779.1761 412.0161,-774.6984 401.7174,-772.2109 402.414,-779.1761"/>
</g>
<!-- 139748203782272 -->
<g id="node43" class="node">
<title>139748203782272</title>
<polygon fill="none" stroke="#000000" points="376,-858 322,-858 322,-822 376,-822 376,-858"/>
<text text-anchor="middle" x="349" y="-836.3" font-family="Times,serif" font-size="14.00" fill="#000000">skip_7</text>
</g>
<!-- 139748205699024 -->
<g id="node52" class="node">
<title>139748205699024</title>
<ellipse fill="none" stroke="#000000" cx="439" cy="-844" rx="27" ry="27"/>
<text text-anchor="middle" x="439" y="-840.3" font-family="Times,serif" font-size="14.00" fill="#000000">p_6</text>
</g>
<!-- 139748203782272&#45;&gt;139748205699024 -->
<g id="edge88" class="edge">
<title>139748203782272&#45;&gt;139748205699024</title>
<path fill="none" stroke="#000000" d="M376.003,-841.2001C384.1013,-841.5601 393.1306,-841.9614 401.7665,-842.3452"/>
<polygon fill="#000000" stroke="#000000" points="401.8705,-845.8532 412.0161,-842.8007 402.1814,-838.8601 401.8705,-845.8532"/>
</g>
<!-- 139748203851960 -->
<g id="node44" class="node">
<title>139748203851960</title>
<polygon fill="none" stroke="#000000" points="1111.5,-892 1057.5,-892 1057.5,-856 1111.5,-856 1111.5,-892"/>
<text text-anchor="middle" x="1084.5" y="-870.3" font-family="Times,serif" font-size="14.00" fill="#000000">skip_8</text>
</g>
<!-- 139748203851960&#45;&gt;139748205699024 -->
<g id="edge89" class="edge">
<title>139748203851960&#45;&gt;139748205699024</title>
<path fill="none" stroke="#000000" d="M1061.4333,-855.9979C1047.1596,-845.9018 1027.9868,-834.1354 1009,-828 901.7384,-793.3393 611.6248,-785.7546 502,-812 491.2412,-814.5758 480.2446,-819.3077 470.5128,-824.3572"/>
<polygon fill="#000000" stroke="#000000" points="468.7033,-821.3577 461.6189,-829.2356 472.0698,-827.495 468.7033,-821.3577"/>
</g>
<!-- 139748203839216 -->
<g id="node45" class="node">
<title>139748203839216</title>
<polygon fill="none" stroke="#000000" points="635,-857 581,-857 581,-821 635,-821 635,-857"/>
<text text-anchor="middle" x="608" y="-835.3" font-family="Times,serif" font-size="14.00" fill="#000000">skip_9</text>
</g>
<!-- 139748203839216&#45;&gt;139748205698240 -->
<g id="edge90" class="edge">
<title>139748203839216&#45;&gt;139748205698240</title>
<path fill="none" stroke="#000000" d="M635.1528,-840.446C663.487,-841.9549 708.1095,-844.3313 739.7314,-846.0153"/>
<polygon fill="#000000" stroke="#000000" points="739.7426,-849.5207 749.9146,-846.5576 740.1149,-842.5307 739.7426,-849.5207"/>
</g>
<!-- 139748205720520 -->
<g id="node46" class="node">
<title>139748205720520</title>
<polygon fill="none" stroke="#000000" points="635,-1019 581,-1019 581,-983 635,-983 635,-1019"/>
<text text-anchor="middle" x="608" y="-997.3" font-family="Times,serif" font-size="14.00" fill="#000000">tau_1</text>
</g>
<!-- 139748203896336 -->
<g id="node49" class="node">
<title>139748203896336</title>
<ellipse fill="none" stroke="#000000" cx="777" cy="-992" rx="27" ry="27"/>
<text text-anchor="middle" x="777" y="-988.3" font-family="Times,serif" font-size="14.00" fill="#000000">p_3</text>
</g>
<!-- 139748205720520&#45;&gt;139748203896336 -->
<g id="edge92" class="edge">
<title>139748205720520&#45;&gt;139748203896336</title>
<path fill="none" stroke="#000000" d="M635.1528,-999.554C663.487,-998.0451 708.1095,-995.6687 739.7314,-993.9847"/>
<polygon fill="#000000" stroke="#000000" points="740.1149,-997.4693 749.9146,-993.4424 739.7426,-990.4793 740.1149,-997.4693"/>
</g>
<!-- 139748203896784 -->
<g id="node47" class="node">
<title>139748203896784</title>
<ellipse fill="#00ff00" stroke="#000000" cx="439" cy="-992" rx="27" ry="27"/>
<text text-anchor="middle" x="439" y="-988.3" font-family="Times,serif" font-size="14.00" fill="#000000">1</text>
</g>
<!-- 139748203896784&#45;&gt;139748205720520 -->
<g id="edge91" class="edge">
<title>139748203896784&#45;&gt;139748205720520</title>
<path fill="none" stroke="#000000" d="M466.1528,-993.446C494.487,-994.9549 539.1095,-997.3313 570.7314,-999.0153"/>
<polygon fill="#000000" stroke="#000000" points="570.7426,-1002.5207 580.9146,-999.5576 571.1149,-995.5307 570.7426,-1002.5207"/>
</g>
<!-- 139748205698240&#45;&gt;139748205695384 -->
<g id="edge41" class="edge">
<title>139748205698240&#45;&gt;139748205695384</title>
<path fill="none" stroke="#000000" d="M803.9307,-850.8901C815.6082,-852.1433 829.4786,-853.6319 842.129,-854.9894"/>
<polygon fill="#000000" stroke="#000000" points="842.0769,-858.5039 852.3933,-856.091 842.8239,-851.5438 842.0769,-858.5039"/>
</g>
<!-- 139748203896336&#45;&gt;139748205719904 -->
<g id="edge42" class="edge">
<title>139748203896336&#45;&gt;139748205719904</title>
<path fill="none" stroke="#000000" d="M803.9307,-987.7962C811.8603,-986.5584 820.801,-985.1628 829.6843,-983.7761"/>
<polygon fill="#000000" stroke="#000000" points="830.2919,-987.2237 839.6324,-982.2232 829.2122,-980.3075 830.2919,-987.2237"/>
</g>
<!-- 139748205720912&#45;&gt;139748205695160 -->
<g id="edge43" class="edge">
<title>139748205720912&#45;&gt;139748205695160</title>
<path fill="none" stroke="#000000" d="M804.199,-918.9386C815.7828,-918.4865 829.4866,-917.9517 842.0073,-917.4631"/>
<polygon fill="#000000" stroke="#000000" points="842.318,-920.9538 852.1739,-917.0664 842.045,-913.9591 842.318,-920.9538"/>
</g>
<!-- 139748205721584&#45;&gt;139748205697008 -->
<g id="edge44" class="edge">
<title>139748205721584&#45;&gt;139748205697008</title>
<path fill="none" stroke="#000000" d="M1009.199,-935.7346C1017.0426,-935.6581 1025.8582,-935.5721 1034.6204,-935.4866"/>
<polygon fill="#000000" stroke="#000000" points="1034.8551,-938.9846 1044.8204,-935.3871 1034.7867,-931.9849 1034.8551,-938.9846"/>
</g>
<!-- 139748205721584&#45;&gt;139748203851960 -->
<g id="edge45" class="edge">
<title>139748205721584&#45;&gt;139748203851960</title>
<path fill="none" stroke="#000000" d="M1005.2588,-921.9312C1018.0743,-914.1794 1034.2583,-904.3901 1048.6544,-895.6822"/>
<polygon fill="#000000" stroke="#000000" points="1050.5959,-898.5984 1057.3409,-890.428 1046.9729,-892.6089 1050.5959,-898.5984"/>
</g>
<!-- 139748205699024&#45;&gt;139748203838824 -->
<g id="edge46" class="edge">
<title>139748205699024&#45;&gt;139748203838824</title>
<path fill="none" stroke="#000000" d="M464.5828,-853.4981C475.9649,-857.5773 489.5764,-862.2562 502,-866 509.0799,-868.1335 516.4583,-870.2426 523.8807,-872.2854"/>
<polygon fill="#000000" stroke="#000000" points="523.0749,-875.6932 533.6421,-874.9291 524.9048,-868.9366 523.0749,-875.6932"/>
</g>
<!-- 139748205699024&#45;&gt;139748203839104 -->
<g id="edge47" class="edge">
<title>139748205699024&#45;&gt;139748203839104</title>
<path fill="none" stroke="#000000" d="M452.6483,-867.3362C463.8169,-884.4088 481.1435,-906.8065 502,-920 521.8605,-932.5634 547.2894,-939.2897 568.2623,-942.8865"/>
<polygon fill="#000000" stroke="#000000" points="567.7395,-946.3472 578.1562,-944.4127 568.8067,-939.429 567.7395,-946.3472"/>
</g>
<!-- 139748205699024&#45;&gt;139748203839216 -->
<g id="edge48" class="edge">
<title>139748205699024&#45;&gt;139748203839216</title>
<path fill="none" stroke="#000000" d="M466.1528,-843.1967C494.487,-842.3584 539.1095,-841.0382 570.7314,-840.1026"/>
<polygon fill="#000000" stroke="#000000" points="571.0225,-843.5956 580.9146,-839.8013 570.8154,-836.5987 571.0225,-843.5956"/>
</g>
<!-- 139748205697792&#45;&gt;139748203784400 -->
<g id="edge59" class="edge">
<title>139748205697792&#45;&gt;139748203784400</title>
<path fill="none" stroke="#000000" d="M1172.2874,-813.1709C1142.2279,-769.6273 1069.1917,-679 982,-679 349,-679 349,-679 349,-679 288.1538,-679 220.3498,-692.2402 170.5672,-704.514"/>
<polygon fill="#000000" stroke="#000000" points="169.705,-701.1217 160.8583,-706.9516 171.4096,-707.911 169.705,-701.1217"/>
</g>
<!-- 139748205697792&#45;&gt;139748205695664 -->
<g id="edge70" class="edge">
<title>139748205697792&#45;&gt;139748205695664</title>
<path fill="none" stroke="#000000" d="M1187.1846,-863.1148C1188.3561,-999.1185 1196.554,-1602.9265 1250,-1665 1255.351,-1671.2148 1261.8125,-1676.1622 1268.9217,-1680.0843"/>
<polygon fill="#000000" stroke="#000000" points="1267.7049,-1683.3815 1278.2382,-1684.5221 1270.7153,-1677.0618 1267.7049,-1683.3815"/>
</g>
<!-- 139748205697792&#45;&gt;139748203783728 -->
<g id="edge80" class="edge">
<title>139748205697792&#45;&gt;139748203783728</title>
<path fill="none" stroke="#000000" d="M1187.3362,-863.0587C1189.2011,-993.4819 1200.083,-1553.3327 1250,-1611 1251.7751,-1613.0507 1253.6712,-1614.9633 1255.6715,-1616.7465"/>
<polygon fill="#000000" stroke="#000000" points="1253.7951,-1619.7173 1263.8683,-1623.0011 1258.0415,-1614.1523 1253.7951,-1619.7173"/>
</g>
<!-- 139748205697792&#45;&gt;139748203782832 -->
<g id="edge67" class="edge">
<title>139748205697792&#45;&gt;139748203782832</title>
<path fill="none" stroke="#000000" d="M1187.5144,-863.2282C1190.1221,-988.2837 1203.6332,-1503.7603 1250,-1557 1253.9789,-1561.5687 1258.558,-1565.4508 1263.5517,-1568.743"/>
<polygon fill="#000000" stroke="#000000" points="1261.8943,-1571.827 1272.3144,-1573.7437 1265.3639,-1565.7473 1261.8943,-1571.827"/>
</g>
<!-- 139748205697792&#45;&gt;139748203784512 -->
<g id="edge52" class="edge">
<title>139748205697792&#45;&gt;139748203784512</title>
<path fill="none" stroke="#000000" d="M1187.7163,-863.1584C1191.0997,-982.1996 1207.1456,-1454.1404 1250,-1503 1252.7282,-1506.1105 1255.7347,-1508.9023 1258.9605,-1511.4059"/>
<polygon fill="#000000" stroke="#000000" points="1257.1401,-1514.3992 1267.3971,-1517.0534 1261.034,-1508.5821 1257.1401,-1514.3992"/>
</g>
<!-- 139748205697792&#45;&gt;139748203784904 -->
<g id="edge71" class="edge">
<title>139748205697792&#45;&gt;139748203784904</title>
<path fill="none" stroke="#000000" d="M1187.9571,-863.2126C1192.1745,-976.2011 1210.664,-1404.5229 1250,-1449 1251.7969,-1451.0317 1253.7125,-1452.9272 1255.7303,-1454.695"/>
<polygon fill="#000000" stroke="#000000" points="1253.8881,-1457.6888 1263.985,-1460.8989 1258.0938,-1452.093 1253.8881,-1457.6888"/>
</g>
<!-- 139748205697792&#45;&gt;139748205696840 -->
<g id="edge60" class="edge">
<title>139748205697792&#45;&gt;139748205696840</title>
<path fill="none" stroke="#000000" d="M1188.2468,-863.3131C1193.3619,-970.0239 1214.1771,-1354.8934 1250,-1395 1251.5925,-1396.7829 1253.2764,-1398.4606 1255.0405,-1400.0391"/>
<polygon fill="#000000" stroke="#000000" points="1253.1898,-1403.0307 1263.254,-1406.3417 1257.4512,-1397.4772 1253.1898,-1403.0307"/>
</g>
<!-- 139748205697792&#45;&gt;139748203784624 -->
<g id="edge76" class="edge">
<title>139748205697792&#45;&gt;139748203784624</title>
<path fill="none" stroke="#000000" d="M1188.5761,-863.0289C1194.6236,-962.6238 1217.6361,-1305.1965 1250,-1341 1254.4391,-1345.9109 1259.5724,-1350.0221 1265.1618,-1353.456"/>
<polygon fill="#000000" stroke="#000000" points="1263.8143,-1356.7036 1274.2863,-1358.3122 1267.1031,-1350.5242 1263.8143,-1356.7036"/>
</g>
<!-- 139748205697792&#45;&gt;139748205695048 -->
<g id="edge66" class="edge">
<title>139748205697792&#45;&gt;139748205695048</title>
<path fill="none" stroke="#000000" d="M1188.9952,-862.9658C1196.0729,-955.4021 1221.1069,-1255.504 1250,-1287 1254.7248,-1292.1504 1260.2135,-1296.4183 1266.1879,-1299.9461"/>
<polygon fill="#000000" stroke="#000000" points="1264.7615,-1303.1481 1275.2562,-1304.6016 1267.9586,-1296.9208 1264.7615,-1303.1481"/>
</g>
<!-- 139748205697792&#45;&gt;139748203783840 -->
<g id="edge79" class="edge">
<title>139748205697792&#45;&gt;139748203783840</title>
<path fill="none" stroke="#000000" d="M1187.4883,-863.2152C1189.5039,-943.8365 1199.6683,-1179.1474 1250,-1233 1250.7713,-1233.8253 1251.5622,-1234.6278 1252.3716,-1235.4081"/>
<polygon fill="#000000" stroke="#000000" points="1250.1951,-1238.1502 1260.1234,-1241.8489 1254.6686,-1232.7661 1250.1951,-1238.1502"/>
</g>
<!-- 139748205697792&#45;&gt;139748205698856 -->
<g id="edge51" class="edge">
<title>139748205697792&#45;&gt;139748205698856</title>
<path fill="none" stroke="#000000" d="M1188.2348,-863.1199C1192.1135,-935.9882 1206.5024,-1133.5773 1250,-1179 1250.7994,-1179.8348 1251.619,-1180.6462 1252.4574,-1181.4348"/>
<polygon fill="#000000" stroke="#000000" points="1250.5064,-1184.3587 1260.4798,-1187.9339 1254.9127,-1178.9195 1250.5064,-1184.3587"/>
</g>
<!-- 139748205697792&#45;&gt;139748205695552 -->
<g id="edge56" class="edge">
<title>139748205697792&#45;&gt;139748205695552</title>
<path fill="none" stroke="#000000" d="M1189.2681,-863.2688C1195.2038,-927.9379 1213.3344,-1087.9546 1250,-1125 1250.9355,-1125.9452 1251.8969,-1126.8602 1252.8823,-1127.7458"/>
<polygon fill="#000000" stroke="#000000" points="1250.8374,-1130.5896 1260.8762,-1133.9769 1255.1408,-1125.0686 1250.8374,-1130.5896"/>
</g>
<!-- 139748205697792&#45;&gt;139748205697064 -->
<g id="edge82" class="edge">
<title>139748205697792&#45;&gt;139748205697064</title>
<path fill="none" stroke="#000000" d="M1190.7226,-863.0927C1198.8837,-918.5305 1220.0414,-1042.1294 1250,-1071 1251.953,-1072.8821 1254.0091,-1074.6431 1256.1527,-1076.2903"/>
<polygon fill="#000000" stroke="#000000" points="1254.5665,-1079.4403 1264.8232,-1082.0958 1258.4612,-1073.6238 1254.5665,-1079.4403"/>
</g>
<!-- 139748205697792&#45;&gt;139748203783952 -->
<g id="edge54" class="edge">
<title>139748205697792&#45;&gt;139748203783952</title>
<path fill="none" stroke="#000000" d="M1192.8741,-862.3935C1203.4013,-907.3639 1226.578,-996.0226 1250,-1017 1251.1741,-1018.0516 1252.3807,-1019.0647 1253.6169,-1020.0407"/>
<polygon fill="#000000" stroke="#000000" points="1251.9583,-1023.1491 1262.174,-1025.9583 1255.9398,-1017.3917 1251.9583,-1023.1491"/>
</g>
<!-- 139748205697792&#45;&gt;139748203784848 -->
<g id="edge81" class="edge">
<title>139748205697792&#45;&gt;139748203784848</title>
<path fill="none" stroke="#000000" d="M1192.9165,-862.4114C1200.8488,-891.5379 1217.8189,-937.6287 1250,-963 1251.6091,-964.2686 1253.2668,-965.4797 1254.967,-966.6359"/>
<polygon fill="#000000" stroke="#000000" points="1253.4261,-969.7942 1263.7949,-971.9709 1257.0467,-963.8032 1253.4261,-969.7942"/>
</g>
<!-- 139748205697792&#45;&gt;139748205697568 -->
<g id="edge78" class="edge">
<title>139748205697792&#45;&gt;139748205697568</title>
<path fill="none" stroke="#000000" d="M1201.2365,-859.242C1212.4775,-875.6205 1229.6337,-896.74 1250,-909 1252.7036,-910.6275 1255.4959,-912.1569 1258.3574,-913.5942"/>
<polygon fill="#000000" stroke="#000000" points="1257.1577,-916.8944 1267.7067,-917.8783 1260.0737,-910.5307 1257.1577,-916.8944"/>
</g>
<!-- 139748205697792&#45;&gt;139748205698968 -->
<g id="edge50" class="edge">
<title>139748205697792&#45;&gt;139748205698968</title>
<path fill="none" stroke="#000000" d="M1212.9408,-844.2566C1224.2697,-847.7499 1237.742,-851.7532 1250,-855 1264.9149,-858.9505 1280.9801,-862.8558 1296.3093,-866.4169"/>
<polygon fill="#000000" stroke="#000000" points="1295.7269,-869.8743 1306.2569,-868.7043 1297.2956,-863.0523 1295.7269,-869.8743"/>
</g>
<!-- 139748205697792&#45;&gt;139748203784736 -->
<g id="edge49" class="edge">
<title>139748205697792&#45;&gt;139748203784736</title>
<path fill="none" stroke="#000000" d="M1214.0975,-834.8023C1240.527,-833.6342 1281.4546,-831.8252 1314.4616,-830.3663"/>
<polygon fill="#000000" stroke="#000000" points="1315.0358,-833.8445 1324.8715,-829.9062 1314.7266,-826.8513 1315.0358,-833.8445"/>
</g>
<!-- 139748205697792&#45;&gt;139748205698800 -->
<g id="edge69" class="edge">
<title>139748205697792&#45;&gt;139748205698800</title>
<path fill="none" stroke="#000000" d="M1209.8716,-821.2358C1221.5064,-814.2664 1236.0969,-806.3289 1250,-801 1259.443,-797.3806 1269.5054,-794.1678 1279.6206,-791.3368"/>
<polygon fill="#000000" stroke="#000000" points="1280.5631,-794.7078 1289.3163,-788.7386 1278.7512,-787.9463 1280.5631,-794.7078"/>
</g>
<!-- 139748205697792&#45;&gt;139748203784232 -->
<g id="edge53" class="edge">
<title>139748205697792&#45;&gt;139748203784232</title>
<path fill="none" stroke="#000000" d="M1198.1125,-811.39C1208.595,-791.0082 1226.2452,-762.9009 1250,-747 1256.2434,-742.8208 1263.0443,-739.2823 1270.1251,-736.287"/>
<polygon fill="#000000" stroke="#000000" points="1271.843,-739.377 1279.9283,-732.5302 1269.338,-732.8405 1271.843,-739.377"/>
</g>
<!-- 139748205697792&#45;&gt;139748203783616 -->
<g id="edge55" class="edge">
<title>139748205697792&#45;&gt;139748203783616</title>
<path fill="none" stroke="#000000" d="M1191.3357,-809.2295C1198.0449,-776.7377 1214.1282,-722.6293 1250,-693 1251.3925,-691.8499 1252.8244,-690.7465 1254.2916,-689.6881"/>
<polygon fill="#000000" stroke="#000000" points="1256.4994,-692.4314 1263.0509,-684.105 1252.737,-686.5285 1256.4994,-692.4314"/>
</g>
<!-- 139748205697792&#45;&gt;139748203783280 -->
<g id="edge65" class="edge">
<title>139748205697792&#45;&gt;139748203783280</title>
<path fill="none" stroke="#000000" d="M1192.161,-809.2148C1201.9892,-760.9579 1224.6825,-662.262 1250,-639 1255.5856,-633.8679 1261.9418,-629.6463 1268.7403,-626.1804"/>
<polygon fill="#000000" stroke="#000000" points="1270.5656,-629.1975 1278.2543,-621.908 1267.698,-622.8117 1270.5656,-629.1975"/>
</g>
<!-- 139748205697792&#45;&gt;139748203783000 -->
<g id="edge68" class="edge">
<title>139748205697792&#45;&gt;139748203783000</title>
<path fill="none" stroke="#000000" d="M1190.2287,-808.8624C1197.7082,-750.5981 1218.0601,-616.2769 1250,-585 1254.9433,-580.1593 1260.5667,-576.1171 1266.6135,-572.7481"/>
<polygon fill="#000000" stroke="#000000" points="1268.302,-575.8185 1275.7458,-568.2792 1265.2252,-569.5309 1268.302,-575.8185"/>
</g>
<!-- 139748205697792&#45;&gt;139748205697176 -->
<g id="edge74" class="edge">
<title>139748205697792&#45;&gt;139748205697176</title>
<path fill="none" stroke="#000000" d="M1188.9274,-808.7326C1194.2372,-741.5236 1211.3246,-570.5061 1250,-531 1256.3021,-524.5625 1263.8023,-519.5239 1271.9227,-515.5961"/>
<polygon fill="#000000" stroke="#000000" points="1273.478,-518.7385 1281.3235,-511.6182 1270.7501,-512.2919 1273.478,-518.7385"/>
</g>
<!-- 139748205697792&#45;&gt;139748203786024 -->
<g id="edge73" class="edge">
<title>139748205697792&#45;&gt;139748203786024</title>
<path fill="none" stroke="#000000" d="M1187.9853,-808.9889C1191.2855,-733.8835 1204.4544,-524.9405 1250,-477 1258.1986,-468.3703 1268.5457,-462.2375 1279.6893,-457.9193"/>
<polygon fill="#000000" stroke="#000000" points="1280.8537,-461.2203 1289.2075,-454.7037 1278.6133,-454.5885 1280.8537,-461.2203"/>
</g>
<!-- 139748205697792&#45;&gt;139748205698632 -->
<g id="edge64" class="edge">
<title>139748205697792&#45;&gt;139748205698632</title>
<path fill="none" stroke="#000000" d="M1189.3705,-808.9002C1197.2486,-721.5592 1223.5582,-451.4623 1250,-423 1261.0753,-411.0784 1276.2458,-403.8984 1292.0211,-399.6823"/>
<polygon fill="#000000" stroke="#000000" points="1292.9228,-403.0665 1301.8903,-397.4244 1291.3616,-396.2428 1292.9228,-403.0665"/>
</g>
<!-- 139748205697792&#45;&gt;139748205698352 -->
<g id="edge58" class="edge">
<title>139748205697792&#45;&gt;139748205698352</title>
<path fill="none" stroke="#000000" d="M1188.8808,-808.7415C1195.6716,-713.8154 1220.1088,-401.738 1250,-369 1260.4034,-357.6058 1274.5449,-350.5263 1289.4248,-346.2239"/>
<polygon fill="#000000" stroke="#000000" points="1290.4143,-349.5846 1299.2777,-343.7803 1288.7292,-342.7905 1290.4143,-349.5846"/>
</g>
<!-- 139748205697792&#45;&gt;139748203785576 -->
<g id="edge72" class="edge">
<title>139748205697792&#45;&gt;139748203785576</title>
<path fill="none" stroke="#000000" d="M1188.4758,-808.819C1194.2459,-706.9968 1216.6197,-352.0683 1250,-315 1250.7559,-314.1606 1251.5321,-313.3445 1252.3273,-312.5512"/>
<polygon fill="#000000" stroke="#000000" points="1254.6487,-315.1713 1259.9682,-306.0087 1250.0958,-309.8542 1254.6487,-315.1713"/>
</g>
<!-- 139748205697792&#45;&gt;139748205695328 -->
<g id="edge75" class="edge">
<title>139748205697792&#45;&gt;139748205695328</title>
<path fill="none" stroke="#000000" d="M1188.1418,-809.0188C1192.96,-700.8521 1213.1031,-302.438 1250,-261 1252.7896,-257.8671 1255.8616,-255.0585 1259.155,-252.5429"/>
<polygon fill="#000000" stroke="#000000" points="1261.3355,-255.2977 1267.7626,-246.8749 1257.4858,-249.4514 1261.3355,-255.2977"/>
</g>
<!-- 139748205697792&#45;&gt;139748205698072 -->
<g id="edge61" class="edge">
<title>139748205697792&#45;&gt;139748205698072</title>
<path fill="none" stroke="#000000" d="M1187.8795,-808.8576C1191.8403,-694.1318 1209.6162,-252.7811 1250,-207 1250.6386,-206.276 1251.2923,-205.5693 1251.9604,-204.8795"/>
<polygon fill="#000000" stroke="#000000" points="1254.4443,-207.3557 1259.6322,-198.118 1249.8159,-202.1042 1254.4443,-207.3557"/>
</g>
<!-- 139748205697792&#45;&gt;139748203786080 -->
<g id="edge57" class="edge">
<title>139748205697792&#45;&gt;139748203786080</title>
<path fill="none" stroke="#000000" d="M1187.6484,-809.0046C1190.7865,-688.4672 1206.0835,-203.1815 1250,-153 1252.4264,-150.2275 1255.0738,-147.7081 1257.9006,-145.4202"/>
<polygon fill="#000000" stroke="#000000" points="1260.1005,-148.1533 1266.3076,-139.5671 1256.1009,-142.4085 1260.1005,-148.1533"/>
</g>
<!-- 139748205697792&#45;&gt;139748203783168 -->
<g id="edge62" class="edge">
<title>139748205697792&#45;&gt;139748203783168</title>
<path fill="none" stroke="#000000" d="M1187.463,-808.5942C1189.8569,-681.5184 1202.6106,-153.5175 1250,-99 1259.6898,-87.8527 1272.9528,-80.7912 1287.0968,-76.4121"/>
<polygon fill="#000000" stroke="#000000" points="1288.225,-79.734 1296.9965,-73.7917 1286.4338,-72.9671 1288.225,-79.734"/>
</g>
<!-- 139748205697792&#45;&gt;139748203784064 -->
<g id="edge77" class="edge">
<title>139748205697792&#45;&gt;139748203784064</title>
<path fill="none" stroke="#000000" d="M1187.2905,-808.8241C1188.9501,-676.5396 1199.0509,-103.9568 1250,-45 1255.3622,-38.795 1261.8316,-33.8543 1268.946,-29.9366"/>
<polygon fill="#000000" stroke="#000000" points="1270.7402,-32.9591 1278.2677,-25.5033 1267.7337,-26.6376 1270.7402,-32.9591"/>
</g>
<!-- 139748205697792&#45;&gt;139748205695608 -->
<g id="edge63" class="edge">
<title>139748205697792&#45;&gt;139748205695608</title>
<path fill="none" stroke="#000000" d="M1188.0359,-863.225C1193.6711,-1008.3566 1221.4349,-1685.6683 1250,-1719 1262.9847,-1734.1514 1282.5699,-1741.7778 1302.0733,-1745.377"/>
<polygon fill="#000000" stroke="#000000" points="1301.8189,-1748.8782 1312.2294,-1746.9105 1302.8641,-1741.9566 1301.8189,-1748.8782"/>
</g>
<!-- 139748205696112&#45;&gt;139748203782552 -->
<g id="edge83" class="edge">
<title>139748205696112&#45;&gt;139748203782552</title>
<path fill="none" stroke="#000000" d="M284.07,-806.972C292.8861,-803.4456 302.9811,-799.4076 312.542,-795.5832"/>
<polygon fill="#000000" stroke="#000000" points="313.8729,-798.8205 321.8578,-791.8569 311.2731,-792.3212 313.8729,-798.8205"/>
</g>
<!-- 139748205696112&#45;&gt;139748203782272 -->
<g id="edge84" class="edge">
<title>139748205696112&#45;&gt;139748203782272</title>
<path fill="none" stroke="#000000" d="M285.5162,-823.7764C293.8043,-825.8944 303.1048,-828.2712 311.9779,-830.5388"/>
<polygon fill="#000000" stroke="#000000" points="311.1823,-833.9479 321.7375,-833.0329 312.9155,-827.1658 311.1823,-833.9479"/>
</g>
<!-- 139748205697288&#45;&gt;139748205697400 -->
<g id="edge85" class="edge">
<title>139748205697288&#45;&gt;139748205697400</title>
<path fill="none" stroke="#000000" d="M466.2996,-771.5475C556.0304,-770.0603 841.9822,-765.3207 944.7613,-763.6172"/>
<polygon fill="#000000" stroke="#000000" points="945.0275,-767.1134 954.9681,-763.448 944.9115,-760.1143 945.0275,-767.1134"/>
</g>
</g>
</svg>
