<?xml version="1.0" encoding="UTF-8" standalone="no"?>
<!DOCTYPE svg PUBLIC "-//W3C//DTD SVG 1.1//EN"
 "http://www.w3.org/Graphics/SVG/1.1/DTD/svg11.dtd">
<!-- Generated by graphviz version 2.40.1 (20161225.0304)
 -->
<!-- Title: alpha_plus_net_1586496229.3613389 Pages: 1 -->
<svg width="506pt" height="1133pt"
 viewBox="0.00 0.00 506.00 1133.00" xmlns="http://www.w3.org/2000/svg" xmlns:xlink="http://www.w3.org/1999/xlink">
<g id="graph0" class="graph" transform="scale(1 1) rotate(0) translate(4 1129)">
<title>alpha_plus_net_1586496229.3613389</title>
<!-- 139748191041744 -->
<g id="node1" class="node">
<title>139748191041744</title>
<polygon fill="none" stroke="#000000" points="144.5,-36 28.5,-36 28.5,0 144.5,0 144.5,-36"/>
<text text-anchor="middle" x="86.5" y="-14.3" font-family="Times,serif" font-size="14.00" fill="#000000">AccountDataBean</text>
</g>
<!-- 139748191041688 -->
<g id="node2" class="node">
<title>139748191041688</title>
<polygon fill="none" stroke="#000000" points="162.5,-90 10.5,-90 10.5,-54 162.5,-54 162.5,-90"/>
<text text-anchor="middle" x="86.5" y="-68.3" font-family="Times,serif" font-size="14.00" fill="#000000">AccountProfileDataBean</text>
</g>
<!-- 139748191041912 -->
<g id="node3" class="node">
<title>139748191041912</title>
<polygon fill="none" stroke="#000000" points="147.5,-144 25.5,-144 25.5,-108 147.5,-108 147.5,-144"/>
<text text-anchor="middle" x="86.5" y="-122.3" font-family="Times,serif" font-size="14.00" fill="#000000">DTStreamer3MDB</text>
</g>
<!-- 139748191041632 -->
<g id="node4" class="node">
<title>139748191041632</title>
<polygon fill="none" stroke="#000000" points="133,-198 40,-198 40,-162 133,-162 133,-198"/>
<text text-anchor="middle" x="86.5" y="-176.3" font-family="Times,serif" font-size="14.00" fill="#000000">FinancialUtils</text>
</g>
<!-- 139748191042136 -->
<g id="node5" class="node">
<title>139748191042136</title>
<polygon fill="none" stroke="#000000" points="143.5,-252 29.5,-252 29.5,-216 143.5,-216 143.5,-252"/>
<text text-anchor="middle" x="86.5" y="-230.3" font-family="Times,serif" font-size="14.00" fill="#000000">HoldingDataBean</text>
</g>
<!-- 139748191043088 -->
<g id="node6" class="node">
<title>139748191043088</title>
<polygon fill="none" stroke="#000000" points="113.5,-306 59.5,-306 59.5,-270 113.5,-270 113.5,-306"/>
<text text-anchor="middle" x="86.5" y="-284.3" font-family="Times,serif" font-size="14.00" fill="#000000">Log</text>
</g>
<!-- 139748191041968 -->
<g id="node7" class="node">
<title>139748191041968</title>
<polygon fill="none" stroke="#000000" points="123.5,-360 49.5,-360 49.5,-324 123.5,-324 123.5,-360"/>
<text text-anchor="middle" x="86.5" y="-338.3" font-family="Times,serif" font-size="14.00" fill="#000000">MDBStats</text>
</g>
<!-- 139748191042752 -->
<g id="node22" class="node">
<title>139748191042752</title>
<ellipse fill="none" stroke="#000000" cx="255" cy="-369" rx="27" ry="27"/>
<text text-anchor="middle" x="255" y="-365.3" font-family="Times,serif" font-size="14.00" fill="#000000">({&#39;MDBStats&#39;}, {&#39;TimerStat&#39;})</text>
</g>
<!-- 139748191041968&#45;&gt;139748191042752 -->
<g id="edge9" class="edge">
<title>139748191041968&#45;&gt;139748191042752</title>
<path fill="none" stroke="#000000" d="M123.8956,-347.9922C151.9227,-352.4832 190.0933,-358.5995 218.0195,-363.0743"/>
<polygon fill="#000000" stroke="#000000" points="217.7506,-366.5758 228.1785,-364.7022 218.8582,-359.664 217.7506,-366.5758"/>
</g>
<!-- 139748191042080 -->
<g id="node8" class="node">
<title>139748191042080</title>
<polygon fill="none" stroke="#000000" points="173,-446 0,-446 0,-410 173,-410 173,-446"/>
<text text-anchor="middle" x="86.5" y="-424.3" font-family="Times,serif" font-size="14.00" fill="#000000">MarketSummaryWebSocket</text>
</g>
<!-- 139748191043368 -->
<g id="node9" class="node">
<title>139748191043368</title>
<polygon fill="none" stroke="#000000" points="137,-531 36,-531 36,-495 137,-495 137,-531"/>
<text text-anchor="middle" x="86.5" y="-509.3" font-family="Times,serif" font-size="14.00" fill="#000000">OrderDataBean</text>
</g>
<!-- 139748195545720 -->
<g id="node25" class="node">
<title>139748195545720</title>
<ellipse fill="none" stroke="#000000" cx="255" cy="-585" rx="27" ry="27"/>
<text text-anchor="middle" x="255" y="-581.3" font-family="Times,serif" font-size="14.00" fill="#000000">139748195545720</text>
</g>
<!-- 139748191043368&#45;&gt;139748195545720 -->
<g id="edge10" class="edge">
<title>139748191043368&#45;&gt;139748195545720</title>
<path fill="none" stroke="#000000" d="M137.4258,-518.2952C149.2675,-521.8133 161.7084,-526.1963 173,-531 191.6121,-538.918 211.5243,-549.7837 227.0656,-559.8909"/>
<polygon fill="#000000" stroke="#000000" points="225.4277,-563.0091 235.6682,-565.7262 229.3572,-557.216 225.4277,-563.0091"/>
</g>
<!-- 139748195545552 -->
<g id="node27" class="node">
<title>139748195545552</title>
<ellipse fill="none" stroke="#000000" cx="255" cy="-513" rx="27" ry="27"/>
<text text-anchor="middle" x="255" y="-509.3" font-family="Times,serif" font-size="14.00" fill="#000000">139748195545552</text>
</g>
<!-- 139748191043368&#45;&gt;139748195545552 -->
<g id="edge11" class="edge">
<title>139748191043368&#45;&gt;139748195545552</title>
<path fill="none" stroke="#000000" d="M137.0556,-506.7547C163.2329,-505.9283 194.6061,-506.1168 218.4126,-507.3203"/>
<polygon fill="#000000" stroke="#000000" points="218.2515,-510.8168 228.443,-507.9213 218.6703,-503.8294 218.2515,-510.8168"/>
</g>
<!-- 139748195545888 -->
<g id="node29" class="node">
<title>139748195545888</title>
<ellipse fill="none" stroke="#000000" cx="255" cy="-441" rx="27" ry="27"/>
<text text-anchor="middle" x="255" y="-437.3" font-family="Times,serif" font-size="14.00" fill="#000000">139748195545888</text>
</g>
<!-- 139748191043368&#45;&gt;139748195545888 -->
<g id="edge12" class="edge">
<title>139748191043368&#45;&gt;139748195545888</title>
<path fill="none" stroke="#000000" d="M116.6244,-494.812C145.3245,-480.754 188.5567,-462.1704 219.0464,-450.7156"/>
<polygon fill="#000000" stroke="#000000" points="220.28,-453.9912 228.4633,-447.2618 217.8696,-447.4193 220.28,-453.9912"/>
</g>
<!-- 139748191041576 -->
<g id="node10" class="node">
<title>139748191041576</title>
<polygon fill="none" stroke="#000000" points="141.5,-585 31.5,-585 31.5,-549 141.5,-549 141.5,-585"/>
<text text-anchor="middle" x="86.5" y="-563.3" font-family="Times,serif" font-size="14.00" fill="#000000">OrdersAlertFilter</text>
</g>
<!-- 139748191042304 -->
<g id="node11" class="node">
<title>139748191042304</title>
<polygon fill="none" stroke="#000000" points="138,-639 35,-639 35,-603 138,-603 138,-639"/>
<text text-anchor="middle" x="86.5" y="-617.3" font-family="Times,serif" font-size="14.00" fill="#000000">QuoteDataBean</text>
</g>
<!-- 139748191041856 -->
<g id="node12" class="node">
<title>139748191041856</title>
<polygon fill="none" stroke="#000000" points="160,-693 13,-693 13,-657 160,-657 160,-693"/>
<text text-anchor="middle" x="86.5" y="-671.3" font-family="Times,serif" font-size="14.00" fill="#000000">RecentStockChangeList</text>
</g>
<!-- 139748191042024 -->
<g id="node13" class="node">
<title>139748191042024</title>
<polygon fill="none" stroke="#000000" points="113.5,-747 59.5,-747 59.5,-711 113.5,-711 113.5,-747"/>
<text text-anchor="middle" x="86.5" y="-725.3" font-family="Times,serif" font-size="14.00" fill="#000000">Root</text>
</g>
<!-- 139748191042416 -->
<g id="node24" class="node">
<title>139748191042416</title>
<ellipse fill="#ffa500" stroke="#000000" cx="255" cy="-729" rx="27" ry="27"/>
</g>
<!-- 139748191042024&#45;&gt;139748191042416 -->
<g id="edge13" class="edge">
<title>139748191042024&#45;&gt;139748191042416</title>
<path fill="none" stroke="#000000" d="M113.5724,-729C141.8228,-729 186.3133,-729 217.8416,-729"/>
<polygon fill="#000000" stroke="#000000" points="217.9948,-732.5001 227.9947,-729 217.9947,-725.5001 217.9948,-732.5001"/>
</g>
<!-- 139748191041800 -->
<g id="node14" class="node">
<title>139748191041800</title>
<polygon fill="none" stroke="#000000" points="408,-382 337,-382 337,-346 408,-346 408,-382"/>
<text text-anchor="middle" x="372.5" y="-360.3" font-family="Times,serif" font-size="14.00" fill="#000000">TimerStat</text>
</g>
<!-- 139748191042920 -->
<g id="node23" class="node">
<title>139748191042920</title>
<ellipse fill="none" stroke="#000000" cx="471" cy="-337" rx="27" ry="27"/>
<text text-anchor="middle" x="471" y="-333.3" font-family="Times,serif" font-size="14.00" fill="#000000">({&#39;TimerStat&#39;}, {&#39;MDBStats&#39;})</text>
</g>
<!-- 139748191041800&#45;&gt;139748191042920 -->
<g id="edge14" class="edge">
<title>139748191041800&#45;&gt;139748191042920</title>
<path fill="none" stroke="#000000" d="M408.0608,-354.2524C416.7744,-351.8639 426.109,-349.3052 434.8499,-346.9092"/>
<polygon fill="#000000" stroke="#000000" points="436.0466,-350.2103 444.7655,-344.1912 434.196,-343.4594 436.0466,-350.2103"/>
</g>
<!-- 139748191043144 -->
<g id="node15" class="node">
<title>139748191043144</title>
<polygon fill="none" stroke="#000000" points="129,-819 44,-819 44,-783 129,-783 129,-819"/>
<text text-anchor="middle" x="86.5" y="-797.3" font-family="Times,serif" font-size="14.00" fill="#000000">TradeAction</text>
</g>
<!-- 139748191043200 -->
<g id="node16" class="node">
<title>139748191043200</title>
<polygon fill="none" stroke="#000000" points="141.5,-891 31.5,-891 31.5,-855 141.5,-855 141.5,-891"/>
<text text-anchor="middle" x="86.5" y="-869.3" font-family="Times,serif" font-size="14.00" fill="#000000">TradeAppServlet</text>
</g>
<!-- 139748195545216 -->
<g id="node26" class="node">
<title>139748195545216</title>
<ellipse fill="none" stroke="#000000" cx="255" cy="-945" rx="27" ry="27"/>
<text text-anchor="middle" x="255" y="-941.3" font-family="Times,serif" font-size="14.00" fill="#000000">139748195545216</text>
</g>
<!-- 139748191043200&#45;&gt;139748195545216 -->
<g id="edge15" class="edge">
<title>139748191043200&#45;&gt;139748195545216</title>
<path fill="none" stroke="#000000" d="M141.5461,-879.5469C152.1232,-882.8304 163.0113,-886.7506 173,-891 191.6121,-898.918 211.5243,-909.7837 227.0656,-919.8909"/>
<polygon fill="#000000" stroke="#000000" points="225.4277,-923.0091 235.6682,-925.7262 229.3572,-917.216 225.4277,-923.0091"/>
</g>
<!-- 139748191043480 -->
<g id="node28" class="node">
<title>139748191043480</title>
<ellipse fill="none" stroke="#000000" cx="255" cy="-873" rx="27" ry="27"/>
<text text-anchor="middle" x="255" y="-869.3" font-family="Times,serif" font-size="14.00" fill="#000000">139748191043480</text>
</g>
<!-- 139748191043200&#45;&gt;139748191043480 -->
<g id="edge16" class="edge">
<title>139748191043200&#45;&gt;139748191043480</title>
<path fill="none" stroke="#000000" d="M141.6732,-866.6208C166.6962,-865.9579 195.6198,-866.1839 217.9834,-867.2987"/>
<polygon fill="#000000" stroke="#000000" points="217.8844,-870.7989 228.0735,-867.8953 218.2976,-863.8111 217.8844,-870.7989"/>
</g>
<!-- 139748195545384 -->
<g id="node30" class="node">
<title>139748195545384</title>
<ellipse fill="none" stroke="#000000" cx="255" cy="-801" rx="27" ry="27"/>
<text text-anchor="middle" x="255" y="-797.3" font-family="Times,serif" font-size="14.00" fill="#000000">139748195545384</text>
</g>
<!-- 139748191043200&#45;&gt;139748195545384 -->
<g id="edge17" class="edge">
<title>139748191043200&#45;&gt;139748195545384</title>
<path fill="none" stroke="#000000" d="M116.6244,-854.812C145.3245,-840.754 188.5567,-822.1704 219.0464,-810.7156"/>
<polygon fill="#000000" stroke="#000000" points="220.28,-813.9912 228.4633,-807.2618 217.8696,-807.4193 220.28,-813.9912"/>
</g>
<!-- 139748191043424 -->
<g id="node17" class="node">
<title>139748191043424</title>
<polygon fill="none" stroke="#000000" points="129.5,-945 43.5,-945 43.5,-909 129.5,-909 129.5,-945"/>
<text text-anchor="middle" x="86.5" y="-923.3" font-family="Times,serif" font-size="14.00" fill="#000000">TradeConfig</text>
</g>
<!-- 139748191043312 -->
<g id="node18" class="node">
<title>139748191043312</title>
<polygon fill="none" stroke="#000000" points="140.5,-999 32.5,-999 32.5,-963 140.5,-963 140.5,-999"/>
<text text-anchor="middle" x="86.5" y="-977.3" font-family="Times,serif" font-size="14.00" fill="#000000">TradeSLSBBean</text>
</g>
<!-- 139748191043256 -->
<g id="node19" class="node">
<title>139748191043256</title>
<polygon fill="none" stroke="#000000" points="148,-1053 25,-1053 25,-1017 148,-1017 148,-1053"/>
<text text-anchor="middle" x="86.5" y="-1031.3" font-family="Times,serif" font-size="14.00" fill="#000000">TradeServletAction</text>
</g>
<!-- 139748191042248 -->
<g id="node20" class="node">
<title>139748191042248</title>
<polygon fill="none" stroke="#000000" points="301,-1116 209,-1116 209,-1080 301,-1080 301,-1116"/>
<text text-anchor="middle" x="255" y="-1094.3" font-family="Times,serif" font-size="14.00" fill="#000000">artificial_start</text>
</g>
<!-- 139748191041520 -->
<g id="node21" class="node">
<title>139748191041520</title>
<ellipse fill="#00ff00" stroke="#000000" cx="86.5" cy="-1098" rx="27" ry="27"/>
<text text-anchor="middle" x="86.5" y="-1094.3" font-family="Times,serif" font-size="14.00" fill="#000000">1</text>
</g>
<!-- 139748191041520&#45;&gt;139748191042248 -->
<g id="edge18" class="edge">
<title>139748191041520&#45;&gt;139748191042248</title>
<path fill="none" stroke="#000000" d="M113.5724,-1098C136.4402,-1098 169.9491,-1098 198.6104,-1098"/>
<polygon fill="#000000" stroke="#000000" points="198.9219,-1101.5001 208.9218,-1098 198.9218,-1094.5001 198.9219,-1101.5001"/>
</g>
<!-- 139748191042752&#45;&gt;139748191041800 -->
<g id="edge2" class="edge">
<title>139748191042752&#45;&gt;139748191041800</title>
<path fill="none" stroke="#000000" d="M282.2522,-367.8403C295.4721,-367.2778 311.7129,-366.5867 326.756,-365.9466"/>
<polygon fill="#000000" stroke="#000000" points="327.0851,-369.4358 336.9273,-365.5137 326.7875,-362.4421 327.0851,-369.4358"/>
</g>
<!-- 139748191042920&#45;&gt;139748191041968 -->
<g id="edge6" class="edge">
<title>139748191042920&#45;&gt;139748191041968</title>
<path fill="none" stroke="#000000" d="M443.8336,-335.6567C396.2409,-333.5109 294.6937,-329.8563 209,-333 184.1443,-333.9118 156.5089,-335.861 133.7863,-337.713"/>
<polygon fill="#000000" stroke="#000000" points="133.3938,-334.2335 123.7195,-338.553 133.9759,-341.2093 133.3938,-334.2335"/>
</g>
<!-- 139748195545720&#45;&gt;139748191043368 -->
<g id="edge1" class="edge">
<title>139748195545720&#45;&gt;139748191043368</title>
<path fill="none" stroke="#000000" d="M229.0784,-576.8547C213.2678,-568.7394 192.4257,-557.2642 173,-549 160.3106,-543.6016 146.1695,-538.7345 133.0587,-534.3066"/>
<polygon fill="#000000" stroke="#000000" points="133.8689,-530.8861 123.2748,-531.0046 131.6305,-537.5186 133.8689,-530.8861"/>
</g>
<!-- 139748195545216&#45;&gt;139748191043200 -->
<g id="edge3" class="edge">
<title>139748195545216&#45;&gt;139748191043200</title>
<path fill="none" stroke="#000000" d="M229.0784,-936.8547C213.2678,-928.7394 192.4257,-917.2642 173,-909 160.3106,-903.6016 146.1695,-898.7345 133.0587,-894.3066"/>
<polygon fill="#000000" stroke="#000000" points="133.8689,-890.8861 123.2748,-891.0046 131.6305,-897.5186 133.8689,-890.8861"/>
</g>
<!-- 139748195545552&#45;&gt;139748191043368 -->
<g id="edge4" class="edge">
<title>139748195545552&#45;&gt;139748191043368</title>
<path fill="none" stroke="#000000" d="M228.443,-518.0787C206.6781,-519.6163 175.0291,-520.093 147.1365,-519.5086"/>
<polygon fill="#000000" stroke="#000000" points="147.1436,-516.0077 137.0556,-519.2453 146.9607,-523.0053 147.1436,-516.0077"/>
</g>
<!-- 139748191043480&#45;&gt;139748191043200 -->
<g id="edge5" class="edge">
<title>139748191043480&#45;&gt;139748191043200</title>
<path fill="none" stroke="#000000" d="M228.0735,-878.1047C207.5064,-879.539 178.2706,-880.0356 151.7017,-879.5943"/>
<polygon fill="#000000" stroke="#000000" points="151.746,-876.0945 141.6732,-879.3792 151.5958,-883.0929 151.746,-876.0945"/>
</g>
<!-- 139748195545888&#45;&gt;139748191043368 -->
<g id="edge7" class="edge">
<title>139748195545888&#45;&gt;139748191043368</title>
<path fill="none" stroke="#000000" d="M232.1247,-455.5753C210.2047,-466.711 176.167,-481.8202 146.5097,-493.8531"/>
<polygon fill="#000000" stroke="#000000" points="145.0353,-490.6734 137.0556,-497.6429 147.6399,-497.1708 145.0353,-490.6734"/>
</g>
<!-- 139748195545384&#45;&gt;139748191043200 -->
<g id="edge8" class="edge">
<title>139748195545384&#45;&gt;139748191043200</title>
<path fill="none" stroke="#000000" d="M232.1,-815.5879C211.3251,-826.1403 179.6802,-840.2565 151.1928,-851.9425"/>
<polygon fill="#000000" stroke="#000000" points="149.6244,-848.8016 141.6732,-855.8037 152.2555,-855.2883 149.6244,-848.8016"/>
</g>
</g>
</svg>
