<?xml version="1.0" encoding="UTF-8" standalone="no"?>
<!DOCTYPE svg PUBLIC "-//W3C//DTD SVG 1.1//EN"
 "http://www.w3.org/Graphics/SVG/1.1/DTD/svg11.dtd">
<!-- Generated by graphviz version 2.40.1 (20161225.0304)
 -->
<!-- Title: alpha_classic_net_1585315543.9681876 Pages: 1 -->
<svg width="609pt" height="926pt"
 viewBox="0.00 0.00 609.00 926.00" xmlns="http://www.w3.org/2000/svg" xmlns:xlink="http://www.w3.org/1999/xlink">
<g id="graph0" class="graph" transform="scale(1 1) rotate(0) translate(4 922)">
<title>alpha_classic_net_1585315543.9681876</title>
<!-- 140178109585056 -->
<g id="node1" class="node">
<title>140178109585056</title>
<polygon fill="none" stroke="#000000" points="144.5,-36 28.5,-36 28.5,0 144.5,0 144.5,-36"/>
<text text-anchor="middle" x="86.5" y="-14.3" font-family="Times,serif" font-size="14.00" fill="#000000">AccountDataBean</text>
</g>
<!-- 140178109584608 -->
<g id="node2" class="node">
<title>140178109584608</title>
<polygon fill="none" stroke="#000000" points="162.5,-90 10.5,-90 10.5,-54 162.5,-54 162.5,-90"/>
<text text-anchor="middle" x="86.5" y="-68.3" font-family="Times,serif" font-size="14.00" fill="#000000">AccountProfileDataBean</text>
</g>
<!-- 140178109585392 -->
<g id="node3" class="node">
<title>140178109585392</title>
<polygon fill="none" stroke="#000000" points="331,-180 209,-180 209,-144 331,-144 331,-180"/>
<text text-anchor="middle" x="270" y="-158.3" font-family="Times,serif" font-size="14.00" fill="#000000">DTStreamer3MDB</text>
</g>
<!-- 140178109585896 -->
<g id="node21" class="node">
<title>140178109585896</title>
<ellipse fill="none" stroke="#000000" cx="394" cy="-135" rx="27" ry="27"/>
<text text-anchor="middle" x="394" y="-131.3" font-family="Times,serif" font-size="14.00" fill="#000000">({&#39;OrdersAlertFilter&#39;, &#39;DTStreamer3MDB&#39;}, {&#39;Root&#39;})</text>
</g>
<!-- 140178109585392&#45;&gt;140178109585896 -->
<g id="edge2" class="edge">
<title>140178109585392&#45;&gt;140178109585896</title>
<path fill="none" stroke="#000000" d="M331.2735,-148.6582C340.1971,-146.7152 349.1408,-144.7677 357.3649,-142.977"/>
<polygon fill="#000000" stroke="#000000" points="358.3154,-146.3521 367.3418,-140.8046 356.8261,-139.5124 358.3154,-146.3521"/>
</g>
<!-- 140178109584944 -->
<g id="node4" class="node">
<title>140178109584944</title>
<polygon fill="none" stroke="#000000" points="133,-216 40,-216 40,-180 133,-180 133,-216"/>
<text text-anchor="middle" x="86.5" y="-194.3" font-family="Times,serif" font-size="14.00" fill="#000000">FinancialUtils</text>
</g>
<!-- 140178109584384 -->
<g id="node5" class="node">
<title>140178109584384</title>
<polygon fill="none" stroke="#000000" points="143.5,-270 29.5,-270 29.5,-234 143.5,-234 143.5,-270"/>
<text text-anchor="middle" x="86.5" y="-248.3" font-family="Times,serif" font-size="14.00" fill="#000000">HoldingDataBean</text>
</g>
<!-- 140178109584832 -->
<g id="node6" class="node">
<title>140178109584832</title>
<polygon fill="none" stroke="#000000" points="113.5,-324 59.5,-324 59.5,-288 113.5,-288 113.5,-324"/>
<text text-anchor="middle" x="86.5" y="-302.3" font-family="Times,serif" font-size="14.00" fill="#000000">Log</text>
</g>
<!-- 140178109584328 -->
<g id="node7" class="node">
<title>140178109584328</title>
<polygon fill="none" stroke="#000000" points="123.5,-378 49.5,-378 49.5,-342 123.5,-342 123.5,-378"/>
<text text-anchor="middle" x="86.5" y="-356.3" font-family="Times,serif" font-size="14.00" fill="#000000">MDBStats</text>
</g>
<!-- 140178109585448 -->
<g id="node8" class="node">
<title>140178109585448</title>
<polygon fill="none" stroke="#000000" points="173,-432 0,-432 0,-396 173,-396 173,-432"/>
<text text-anchor="middle" x="86.5" y="-410.3" font-family="Times,serif" font-size="14.00" fill="#000000">MarketSummaryWebSocket</text>
</g>
<!-- 140178109585224 -->
<g id="node9" class="node">
<title>140178109585224</title>
<polygon fill="none" stroke="#000000" points="137,-486 36,-486 36,-450 137,-450 137,-486"/>
<text text-anchor="middle" x="86.5" y="-464.3" font-family="Times,serif" font-size="14.00" fill="#000000">OrderDataBean</text>
</g>
<!-- 140178109584776 -->
<g id="node10" class="node">
<title>140178109584776</title>
<polygon fill="none" stroke="#000000" points="325,-126 215,-126 215,-90 325,-90 325,-126"/>
<text text-anchor="middle" x="270" y="-104.3" font-family="Times,serif" font-size="14.00" fill="#000000">OrdersAlertFilter</text>
</g>
<!-- 140178109584776&#45;&gt;140178109585896 -->
<g id="edge3" class="edge">
<title>140178109584776&#45;&gt;140178109585896</title>
<path fill="none" stroke="#000000" d="M325.1103,-119.9998C336.171,-122.4082 347.5278,-124.8811 357.7492,-127.1067"/>
<polygon fill="#000000" stroke="#000000" points="357.0234,-130.5306 367.5391,-129.2384 358.5127,-123.6908 357.0234,-130.5306"/>
</g>
<!-- 140178109585168 -->
<g id="node11" class="node">
<title>140178109585168</title>
<polygon fill="none" stroke="#000000" points="138,-540 35,-540 35,-504 138,-504 138,-540"/>
<text text-anchor="middle" x="86.5" y="-518.3" font-family="Times,serif" font-size="14.00" fill="#000000">QuoteDataBean</text>
</g>
<!-- 140178109585504 -->
<g id="node12" class="node">
<title>140178109585504</title>
<polygon fill="none" stroke="#000000" points="160,-594 13,-594 13,-558 160,-558 160,-594"/>
<text text-anchor="middle" x="86.5" y="-572.3" font-family="Times,serif" font-size="14.00" fill="#000000">RecentStockChangeList</text>
</g>
<!-- 140178109584888 -->
<g id="node13" class="node">
<title>140178109584888</title>
<polygon fill="none" stroke="#000000" points="511,-153 457,-153 457,-117 511,-117 511,-153"/>
<text text-anchor="middle" x="484" y="-131.3" font-family="Times,serif" font-size="14.00" fill="#000000">Root</text>
</g>
<!-- 140178109585728 -->
<g id="node22" class="node">
<title>140178109585728</title>
<ellipse fill="#ffa500" stroke="#000000" cx="574" cy="-135" rx="27" ry="27"/>
</g>
<!-- 140178109584888&#45;&gt;140178109585728 -->
<g id="edge4" class="edge">
<title>140178109584888&#45;&gt;140178109585728</title>
<path fill="none" stroke="#000000" d="M511.003,-135C519.0277,-135 527.9665,-135 536.5309,-135"/>
<polygon fill="#000000" stroke="#000000" points="536.7051,-138.5001 546.705,-135 536.705,-131.5001 536.7051,-138.5001"/>
</g>
<!-- 140178109585336 -->
<g id="node14" class="node">
<title>140178109585336</title>
<polygon fill="none" stroke="#000000" points="122,-648 51,-648 51,-612 122,-612 122,-648"/>
<text text-anchor="middle" x="86.5" y="-626.3" font-family="Times,serif" font-size="14.00" fill="#000000">TimerStat</text>
</g>
<!-- 140178109584664 -->
<g id="node15" class="node">
<title>140178109584664</title>
<polygon fill="none" stroke="#000000" points="129,-702 44,-702 44,-666 129,-666 129,-702"/>
<text text-anchor="middle" x="86.5" y="-680.3" font-family="Times,serif" font-size="14.00" fill="#000000">TradeAction</text>
</g>
<!-- 140178109585112 -->
<g id="node16" class="node">
<title>140178109585112</title>
<polygon fill="none" stroke="#000000" points="141.5,-756 31.5,-756 31.5,-720 141.5,-720 141.5,-756"/>
<text text-anchor="middle" x="86.5" y="-734.3" font-family="Times,serif" font-size="14.00" fill="#000000">TradeAppServlet</text>
</g>
<!-- 140178109585280 -->
<g id="node17" class="node">
<title>140178109585280</title>
<polygon fill="none" stroke="#000000" points="129.5,-810 43.5,-810 43.5,-774 129.5,-774 129.5,-810"/>
<text text-anchor="middle" x="86.5" y="-788.3" font-family="Times,serif" font-size="14.00" fill="#000000">TradeConfig</text>
</g>
<!-- 140178109584720 -->
<g id="node18" class="node">
<title>140178109584720</title>
<polygon fill="none" stroke="#000000" points="140.5,-864 32.5,-864 32.5,-828 140.5,-828 140.5,-864"/>
<text text-anchor="middle" x="86.5" y="-842.3" font-family="Times,serif" font-size="14.00" fill="#000000">TradeSLSBBean</text>
</g>
<!-- 140178109585000 -->
<g id="node19" class="node">
<title>140178109585000</title>
<polygon fill="none" stroke="#000000" points="148,-918 25,-918 25,-882 148,-882 148,-918"/>
<text text-anchor="middle" x="86.5" y="-896.3" font-family="Times,serif" font-size="14.00" fill="#000000">TradeServletAction</text>
</g>
<!-- 140178109585560 -->
<g id="node20" class="node">
<title>140178109585560</title>
<ellipse fill="#00ff00" stroke="#000000" cx="86.5" cy="-135" rx="27" ry="27"/>
<text text-anchor="middle" x="86.5" y="-131.3" font-family="Times,serif" font-size="14.00" fill="#000000">1</text>
</g>
<!-- 140178109585560&#45;&gt;140178109585392 -->
<g id="edge5" class="edge">
<title>140178109585560&#45;&gt;140178109585392</title>
<path fill="none" stroke="#000000" d="M113.5761,-138.9839C135.9684,-142.2787 168.8178,-147.1122 198.64,-151.5002"/>
<polygon fill="#000000" stroke="#000000" points="198.2151,-154.9752 208.6181,-152.9683 199.2342,-148.0498 198.2151,-154.9752"/>
</g>
<!-- 140178109585560&#45;&gt;140178109584776 -->
<g id="edge6" class="edge">
<title>140178109585560&#45;&gt;140178109584776</title>
<path fill="none" stroke="#000000" d="M113.5761,-131.0161C137.5051,-127.4952 173.3757,-122.2172 204.7326,-117.6034"/>
<polygon fill="#000000" stroke="#000000" points="205.3501,-121.0503 214.734,-116.1318 204.331,-114.1249 205.3501,-121.0503"/>
</g>
<!-- 140178109585896&#45;&gt;140178109584888 -->
<g id="edge1" class="edge">
<title>140178109585896&#45;&gt;140178109584888</title>
<path fill="none" stroke="#000000" d="M421.003,-135C429.0277,-135 437.9665,-135 446.5309,-135"/>
<polygon fill="#000000" stroke="#000000" points="446.7051,-138.5001 456.705,-135 446.705,-131.5001 446.7051,-138.5001"/>
</g>
</g>
</svg>
