<?xml version="1.0" encoding="UTF-8" standalone="no"?>
<!DOCTYPE svg PUBLIC "-//W3C//DTD SVG 1.1//EN"
 "http://www.w3.org/Graphics/SVG/1.1/DTD/svg11.dtd">
<!-- Generated by graphviz version 2.40.1 (20161225.0304)
 -->
<!-- Title: imdf_net_1586496229.3900094 Pages: 1 -->
<svg width="808pt" height="908pt"
 viewBox="0.00 0.00 808.00 908.00" xmlns="http://www.w3.org/2000/svg" xmlns:xlink="http://www.w3.org/1999/xlink">
<g id="graph0" class="graph" transform="scale(1 1) rotate(0) translate(4 904)">
<title>imdf_net_1586496229.3900094</title>
<!-- 139748202487424 -->
<g id="node1" class="node">
<title>139748202487424</title>
<polygon fill="none" stroke="#000000" points="116,-386 0,-386 0,-350 116,-350 116,-386"/>
<text text-anchor="middle" x="58" y="-364.3" font-family="Times,serif" font-size="14.00" fill="#000000">AccountDataBean</text>
</g>
<!-- 139748202573272 -->
<g id="node29" class="node">
<title>139748202573272</title>
<ellipse fill="none" stroke="#000000" cx="179" cy="-478" rx="27" ry="27"/>
<text text-anchor="middle" x="179" y="-474.3" font-family="Times,serif" font-size="14.00" fill="#000000">p_6</text>
</g>
<!-- 139748202487424&#45;&gt;139748202573272 -->
<g id="edge5" class="edge">
<title>139748202487424&#45;&gt;139748202573272</title>
<path fill="none" stroke="#000000" d="M77.9807,-386.1643C98.0355,-404.3959 129.0839,-432.6217 151.4663,-452.9694"/>
<polygon fill="#000000" stroke="#000000" points="149.2358,-455.6718 158.9896,-459.8088 153.9446,-450.4922 149.2358,-455.6718"/>
</g>
<!-- 139748202484344 -->
<g id="node2" class="node">
<title>139748202484344</title>
<polygon fill="none" stroke="#000000" points="789.5,-684 637.5,-684 637.5,-648 789.5,-648 789.5,-684"/>
<text text-anchor="middle" x="713.5" y="-662.3" font-family="Times,serif" font-size="14.00" fill="#000000">AccountProfileDataBean</text>
</g>
<!-- 139748202484344&#45;&gt;139748202573272 -->
<g id="edge3" class="edge">
<title>139748202484344&#45;&gt;139748202573272</title>
<path fill="none" stroke="#000000" d="M654.4189,-684.0163C592.3271,-702.3219 498.6138,-728 461.5,-728 359,-728 359,-728 359,-728 303.7511,-728 280.0672,-726.0417 242,-686 218.4806,-661.2607 196.7361,-567.5863 186.0066,-514.7801"/>
<polygon fill="#000000" stroke="#000000" points="189.4032,-513.9159 184.0103,-504.7963 182.5391,-515.2885 189.4032,-513.9159"/>
</g>
<!-- 139748202572992 -->
<g id="node3" class="node">
<title>139748202572992</title>
<polygon fill="none" stroke="#000000" points="774.5,-630 652.5,-630 652.5,-594 774.5,-594 774.5,-630"/>
<text text-anchor="middle" x="713.5" y="-608.3" font-family="Times,serif" font-size="14.00" fill="#000000">DTStreamer3MDB</text>
</g>
<!-- 139748202572992&#45;&gt;139748202573272 -->
<g id="edge15" class="edge">
<title>139748202572992&#45;&gt;139748202573272</title>
<path fill="none" stroke="#000000" d="M652.1057,-627.5796C643.424,-630.7998 634.8059,-634.5865 627,-639 608.3652,-649.5364 610.4031,-661.9562 591,-671 538.2743,-695.5754 519.6717,-690 461.5,-690 359,-690 359,-690 359,-690 305.0902,-690 281.4251,-694.7687 242,-658 201.7954,-620.5043 187.2412,-555.9226 181.9771,-515.1664"/>
<polygon fill="#000000" stroke="#000000" points="185.4378,-514.6254 180.8028,-505.0982 178.4849,-515.4364 185.4378,-514.6254"/>
</g>
<!-- 139748202485856 -->
<g id="node4" class="node">
<title>139748202485856</title>
<polygon fill="none" stroke="#000000" points="760,-576 667,-576 667,-540 760,-540 760,-576"/>
<text text-anchor="middle" x="713.5" y="-554.3" font-family="Times,serif" font-size="14.00" fill="#000000">FinancialUtils</text>
</g>
<!-- 139748202485856&#45;&gt;139748202573272 -->
<g id="edge8" class="edge">
<title>139748202485856&#45;&gt;139748202573272</title>
<path fill="none" stroke="#000000" d="M666.6975,-564.5412C616.1804,-571.0262 533.3033,-580 461.5,-580 359,-580 359,-580 359,-580 304.1872,-580 288.6266,-569.8168 242,-541 227.3208,-531.9278 213.4711,-518.7981 202.5158,-506.8704"/>
<polygon fill="#000000" stroke="#000000" points="205.0132,-504.4117 195.7549,-499.2605 199.7802,-509.061 205.0132,-504.4117"/>
</g>
<!-- 139748202485464 -->
<g id="node5" class="node">
<title>139748202485464</title>
<polygon fill="none" stroke="#000000" points="770.5,-522 656.5,-522 656.5,-486 770.5,-486 770.5,-522"/>
<text text-anchor="middle" x="713.5" y="-500.3" font-family="Times,serif" font-size="14.00" fill="#000000">HoldingDataBean</text>
</g>
<!-- 139748202485464&#45;&gt;139748202573272 -->
<g id="edge9" class="edge">
<title>139748202485464&#45;&gt;139748202573272</title>
<path fill="none" stroke="#000000" d="M656.3206,-517.6115C605.4836,-528.5152 528.973,-542 461.5,-542 359,-542 359,-542 359,-542 305.9173,-542 291.2167,-537.8871 242,-518 230.6653,-513.42 219.1272,-506.7819 209.0755,-500.2251"/>
<polygon fill="#000000" stroke="#000000" points="210.9115,-497.2415 200.6674,-494.5379 206.9896,-503.0397 210.9115,-497.2415"/>
</g>
<!-- 139748202486584 -->
<g id="node6" class="node">
<title>139748202486584</title>
<polygon fill="none" stroke="#000000" points="740.5,-468 686.5,-468 686.5,-432 740.5,-432 740.5,-468"/>
<text text-anchor="middle" x="713.5" y="-446.3" font-family="Times,serif" font-size="14.00" fill="#000000">Log</text>
</g>
<!-- 139748202486584&#45;&gt;139748202573272 -->
<g id="edge13" class="edge">
<title>139748202486584&#45;&gt;139748202573272</title>
<path fill="none" stroke="#000000" d="M686.0329,-458.9803C661.3781,-466.7686 624.0836,-477.8797 591,-485 534.1305,-497.2396 519.6717,-504 461.5,-504 359,-504 359,-504 359,-504 308.8529,-504 251.6471,-493.9927 215.4424,-486.3952"/>
<polygon fill="#000000" stroke="#000000" points="215.8741,-482.9081 205.3617,-484.2276 214.4025,-489.7517 215.8741,-482.9081"/>
</g>
<!-- 139748202569912 -->
<g id="node7" class="node">
<title>139748202569912</title>
<polygon fill="none" stroke="#000000" points="750.5,-414 676.5,-414 676.5,-378 750.5,-378 750.5,-414"/>
<text text-anchor="middle" x="713.5" y="-392.3" font-family="Times,serif" font-size="14.00" fill="#000000">MDBStats</text>
</g>
<!-- 139748202569912&#45;&gt;139748202573272 -->
<g id="edge1" class="edge">
<title>139748202569912&#45;&gt;139748202573272</title>
<path fill="none" stroke="#000000" d="M676.3534,-395.521C627.1988,-394.9293 537.8462,-394 461.5,-394 359,-394 359,-394 359,-394 305.0902,-394 289.8549,-401.177 242,-426 229.0587,-432.7128 216.3523,-442.4192 205.7788,-451.6326"/>
<polygon fill="#000000" stroke="#000000" points="203.2205,-449.2268 198.1404,-458.5243 207.9097,-454.424 203.2205,-449.2268"/>
</g>
<!-- 139748202571760 -->
<g id="node8" class="node">
<title>139748202571760</title>
<polygon fill="none" stroke="#000000" points="800,-360 627,-360 627,-324 800,-324 800,-360"/>
<text text-anchor="middle" x="713.5" y="-338.3" font-family="Times,serif" font-size="14.00" fill="#000000">MarketSummaryWebSocket</text>
</g>
<!-- 139748202571760&#45;&gt;139748202573272 -->
<g id="edge2" class="edge">
<title>139748202571760&#45;&gt;139748202573272</title>
<path fill="none" stroke="#000000" d="M653.2322,-323.975C644.3901,-321.103 635.4273,-318.0646 627,-315 552.106,-287.765 541.1923,-246 461.5,-246 359,-246 359,-246 359,-246 299.297,-246 280.9145,-266.7219 242,-312 224.7944,-332.0192 202.4124,-399.5518 189.4814,-442.0624"/>
<polygon fill="#000000" stroke="#000000" points="186.0913,-441.1822 186.5612,-451.7666 192.7944,-443.1994 186.0913,-441.1822"/>
</g>
<!-- 139748202487480 -->
<g id="node9" class="node">
<title>139748202487480</title>
<polygon fill="none" stroke="#000000" points="764,-306 663,-306 663,-270 764,-270 764,-306"/>
<text text-anchor="middle" x="713.5" y="-284.3" font-family="Times,serif" font-size="14.00" fill="#000000">OrderDataBean</text>
</g>
<!-- 139748202487480&#45;&gt;139748202573272 -->
<g id="edge16" class="edge">
<title>139748202487480&#45;&gt;139748202573272</title>
<path fill="none" stroke="#000000" d="M662.7098,-272.215C650.9775,-268.5497 638.55,-264.6519 627,-261 553.3582,-237.7155 538.7353,-208 461.5,-208 359,-208 359,-208 359,-208 302.794,-208 279.44,-214.0792 242,-256 235.6931,-263.0618 204.3403,-380.7761 188.3757,-441.852"/>
<polygon fill="#000000" stroke="#000000" points="184.9049,-441.2912 185.7673,-451.8508 191.6782,-443.0582 184.9049,-441.2912"/>
</g>
<!-- 139748202570416 -->
<g id="node10" class="node">
<title>139748202570416</title>
<polygon fill="none" stroke="#000000" points="768.5,-252 658.5,-252 658.5,-216 768.5,-216 768.5,-252"/>
<text text-anchor="middle" x="713.5" y="-230.3" font-family="Times,serif" font-size="14.00" fill="#000000">OrdersAlertFilter</text>
</g>
<!-- 139748202570416&#45;&gt;139748202573272 -->
<g id="edge19" class="edge">
<title>139748202570416&#45;&gt;139748202573272</title>
<path fill="none" stroke="#000000" d="M658.3575,-216.5963C596.3829,-197.6446 499.4731,-170 461.5,-170 359,-170 359,-170 359,-170 303.8996,-170 278.5354,-169.7542 242,-211 192.5188,-266.8606 223.4647,-302.4481 206,-375 200.6211,-397.3452 194.0985,-422.28 188.8118,-442.0187"/>
<polygon fill="#000000" stroke="#000000" points="185.3915,-441.2599 186.1724,-451.826 192.151,-443.0791 185.3915,-441.2599"/>
</g>
<!-- 139748202484512 -->
<g id="node11" class="node">
<title>139748202484512</title>
<polygon fill="none" stroke="#000000" points="765,-144 662,-144 662,-108 765,-108 765,-144"/>
<text text-anchor="middle" x="713.5" y="-122.3" font-family="Times,serif" font-size="14.00" fill="#000000">QuoteDataBean</text>
</g>
<!-- 139748202484512&#45;&gt;139748202573272 -->
<g id="edge18" class="edge">
<title>139748202484512&#45;&gt;139748202573272</title>
<path fill="none" stroke="#000000" d="M661.6197,-115.522C610.8408,-106.1895 531.1801,-94 461.5,-94 359,-94 359,-94 359,-94 304.4618,-94 277.3632,-89.4806 242,-131 206.4611,-172.7257 216.9655,-321.2989 206,-375 201.4018,-397.5188 194.9016,-422.4586 189.4314,-442.1565"/>
<polygon fill="#000000" stroke="#000000" points="186.0183,-441.3647 186.6802,-451.9389 192.7569,-443.2599 186.0183,-441.3647"/>
</g>
<!-- 139748202570360 -->
<g id="node12" class="node">
<title>139748202570360</title>
<polygon fill="none" stroke="#000000" points="787,-90 640,-90 640,-54 787,-54 787,-90"/>
<text text-anchor="middle" x="713.5" y="-68.3" font-family="Times,serif" font-size="14.00" fill="#000000">RecentStockChangeList</text>
</g>
<!-- 139748202570360&#45;&gt;139748202573272 -->
<g id="edge14" class="edge">
<title>139748202570360&#45;&gt;139748202573272</title>
<path fill="none" stroke="#000000" d="M639.9738,-64.8657C589.7542,-60.599 521.6678,-56 461.5,-56 359,-56 359,-56 359,-56 304.4618,-56 276.9565,-51.1376 242,-93 201.5076,-141.492 218.0348,-312.9817 206,-375 201.6217,-397.5626 195.1278,-422.5036 189.6059,-442.1913"/>
<polygon fill="#000000" stroke="#000000" points="186.1947,-441.3912 186.8233,-451.9674 192.9273,-443.3076 186.1947,-441.3912"/>
</g>
<!-- 139748202573328 -->
<g id="node13" class="node">
<title>139748202573328</title>
<polygon fill="none" stroke="#000000" points="488.5,-653 434.5,-653 434.5,-617 488.5,-617 488.5,-653"/>
<text text-anchor="middle" x="461.5" y="-631.3" font-family="Times,serif" font-size="14.00" fill="#000000">Root</text>
</g>
<!-- 139748203770768 -->
<g id="node31" class="node">
<title>139748203770768</title>
<ellipse fill="#ffa500" stroke="#000000" cx="564" cy="-635" rx="27" ry="27"/>
</g>
<!-- 139748202573328&#45;&gt;139748203770768 -->
<g id="edge7" class="edge">
<title>139748202573328&#45;&gt;139748203770768</title>
<path fill="none" stroke="#000000" d="M488.699,-635C500.2828,-635 513.9866,-635 526.5073,-635"/>
<polygon fill="#000000" stroke="#000000" points="526.6739,-638.5001 536.6739,-635 526.6739,-631.5001 526.6739,-638.5001"/>
</g>
<!-- 139748202573216 -->
<g id="node14" class="node">
<title>139748202573216</title>
<polygon fill="none" stroke="#000000" points="749,-36 678,-36 678,0 749,0 749,-36"/>
<text text-anchor="middle" x="713.5" y="-14.3" font-family="Times,serif" font-size="14.00" fill="#000000">TimerStat</text>
</g>
<!-- 139748202573216&#45;&gt;139748202573272 -->
<g id="edge11" class="edge">
<title>139748202573216&#45;&gt;139748202573272</title>
<path fill="none" stroke="#000000" d="M677.6113,-18C628.7344,-18 538.5,-18 461.5,-18 359,-18 359,-18 359,-18 304.4618,-18 276.6427,-12.8776 242,-55 196.5452,-110.2689 219.1068,-304.6509 206,-375 201.7904,-397.5946 195.3013,-422.5366 189.7398,-442.2167"/>
<polygon fill="#000000" stroke="#000000" points="186.3299,-441.4106 186.933,-451.9882 193.0578,-443.3432 186.3299,-441.4106"/>
</g>
<!-- 139748202571816 -->
<g id="node15" class="node">
<title>139748202571816</title>
<polygon fill="none" stroke="#000000" points="756,-900 671,-900 671,-864 756,-864 756,-900"/>
<text text-anchor="middle" x="713.5" y="-878.3" font-family="Times,serif" font-size="14.00" fill="#000000">TradeAction</text>
</g>
<!-- 139748202571816&#45;&gt;139748202573272 -->
<g id="edge6" class="edge">
<title>139748202571816&#45;&gt;139748202573272</title>
<path fill="none" stroke="#000000" d="M670.6953,-881.7267C620.559,-881.4307 535.0006,-881 461.5,-881 359,-881 359,-881 359,-881 300.9613,-881 276.9204,-869.3579 242,-823 205.6999,-774.8105 187.8472,-594.4778 181.6344,-515.4747"/>
<polygon fill="#000000" stroke="#000000" points="185.0876,-514.7274 180.8343,-505.0238 178.108,-515.2618 185.0876,-514.7274"/>
</g>
<!-- 139748202485240 -->
<g id="node16" class="node">
<title>139748202485240</title>
<polygon fill="none" stroke="#000000" points="768.5,-846 658.5,-846 658.5,-810 768.5,-810 768.5,-846"/>
<text text-anchor="middle" x="713.5" y="-824.3" font-family="Times,serif" font-size="14.00" fill="#000000">TradeAppServlet</text>
</g>
<!-- 139748202485240&#45;&gt;139748202573272 -->
<g id="edge10" class="edge">
<title>139748202485240&#45;&gt;139748202573272</title>
<path fill="none" stroke="#000000" d="M658.4908,-832.818C607.4721,-836.8677 529.4171,-842 461.5,-842 359,-842 359,-842 359,-842 301.5411,-842 277.5119,-832.1712 242,-787 209.0232,-745.0534 189.741,-587.8531 182.4165,-515.2201"/>
<polygon fill="#000000" stroke="#000000" points="185.8871,-514.7493 181.4224,-505.1412 178.9209,-515.4365 185.8871,-514.7493"/>
</g>
<!-- 139748202571312 -->
<g id="node17" class="node">
<title>139748202571312</title>
<polygon fill="none" stroke="#000000" points="756.5,-792 670.5,-792 670.5,-756 756.5,-756 756.5,-792"/>
<text text-anchor="middle" x="713.5" y="-770.3" font-family="Times,serif" font-size="14.00" fill="#000000">TradeConfig</text>
</g>
<!-- 139748202571312&#45;&gt;139748202573272 -->
<g id="edge17" class="edge">
<title>139748202571312&#45;&gt;139748202573272</title>
<path fill="none" stroke="#000000" d="M670.432,-782.277C620.4072,-791.1569 535.2987,-804 461.5,-804 359,-804 359,-804 359,-804 302.0955,-804 278.1905,-795.9132 242,-752 212.3862,-716.0668 191.9205,-581.5013 183.416,-515.281"/>
<polygon fill="#000000" stroke="#000000" points="186.8768,-514.7495 182.1542,-505.2654 179.9317,-515.6245 186.8768,-514.7495"/>
</g>
<!-- 139748202486304 -->
<g id="node18" class="node">
<title>139748202486304</title>
<polygon fill="none" stroke="#000000" points="767.5,-198 659.5,-198 659.5,-162 767.5,-162 767.5,-198"/>
<text text-anchor="middle" x="713.5" y="-176.3" font-family="Times,serif" font-size="14.00" fill="#000000">TradeSLSBBean</text>
</g>
<!-- 139748202486304&#45;&gt;139748202573272 -->
<g id="edge4" class="edge">
<title>139748202486304&#45;&gt;139748202573272</title>
<path fill="none" stroke="#000000" d="M659.0113,-163.4811C608.3516,-149.5964 530.5317,-132 461.5,-132 359,-132 359,-132 359,-132 304.3261,-132 277.8574,-128.7268 242,-170 181.3311,-239.8321 225.745,-284.6265 206,-375 201.0942,-397.4538 194.5852,-422.3917 189.1873,-442.1049"/>
<polygon fill="#000000" stroke="#000000" points="185.7716,-441.3255 186.4802,-451.8966 192.5185,-443.1909 185.7716,-441.3255"/>
</g>
<!-- 139748202485912 -->
<g id="node19" class="node">
<title>139748202485912</title>
<polygon fill="none" stroke="#000000" points="775,-738 652,-738 652,-702 775,-702 775,-738"/>
<text text-anchor="middle" x="713.5" y="-716.3" font-family="Times,serif" font-size="14.00" fill="#000000">TradeServletAction</text>
</g>
<!-- 139748202485912&#45;&gt;139748202573272 -->
<g id="edge12" class="edge">
<title>139748202485912&#45;&gt;139748202573272</title>
<path fill="none" stroke="#000000" d="M651.9345,-737.6532C601.2611,-750.6255 527.3199,-766 461.5,-766 359,-766 359,-766 359,-766 302.794,-766 279.0231,-760.2895 242,-718 215.566,-687.8058 194.2392,-574.4398 184.5871,-514.9577"/>
<polygon fill="#000000" stroke="#000000" points="188.0074,-514.18 182.9762,-504.856 181.0947,-515.2824 188.0074,-514.18"/>
</g>
<!-- 139748202570640 -->
<g id="node20" class="node">
<title>139748202570640</title>
<polygon fill="none" stroke="#000000" points="501,-362 422,-362 422,-326 501,-326 501,-362"/>
<text text-anchor="middle" x="461.5" y="-340.3" font-family="Times,serif" font-size="14.00" fill="#000000">init_loop_2</text>
</g>
<!-- 139748202570472 -->
<g id="node28" class="node">
<title>139748202570472</title>
<ellipse fill="none" stroke="#000000" cx="564" cy="-449" rx="27" ry="27"/>
<text text-anchor="middle" x="564" y="-445.3" font-family="Times,serif" font-size="14.00" fill="#000000">p_5</text>
</g>
<!-- 139748202570640&#45;&gt;139748202570472 -->
<g id="edge20" class="edge">
<title>139748202570640&#45;&gt;139748202570472</title>
<path fill="none" stroke="#000000" d="M479.3541,-362.2896C495.4142,-378.7414 519.2238,-403.1317 537.5037,-421.8575"/>
<polygon fill="#000000" stroke="#000000" points="535.4708,-424.7855 544.9608,-429.4964 540.4799,-419.8957 535.4708,-424.7855"/>
</g>
<!-- 139748202571368 -->
<g id="node21" class="node">
<title>139748202571368</title>
<polygon fill="none" stroke="#000000" points="488.5,-467 434.5,-467 434.5,-431 488.5,-431 488.5,-467"/>
<text text-anchor="middle" x="461.5" y="-445.3" font-family="Times,serif" font-size="14.00" fill="#000000">loop_3</text>
</g>
<!-- 139748202571368&#45;&gt;139748202570472 -->
<g id="edge21" class="edge">
<title>139748202571368&#45;&gt;139748202570472</title>
<path fill="none" stroke="#000000" d="M488.699,-449C500.2828,-449 513.9866,-449 526.5073,-449"/>
<polygon fill="#000000" stroke="#000000" points="526.6739,-452.5001 536.6739,-449 526.6739,-445.5001 526.6739,-452.5001"/>
</g>
<!-- 139748202484008 -->
<g id="node22" class="node">
<title>139748202484008</title>
<polygon fill="none" stroke="#000000" points="296,-471 242,-471 242,-435 296,-435 296,-471"/>
<text text-anchor="middle" x="269" y="-449.3" font-family="Times,serif" font-size="14.00" fill="#000000">skip_4</text>
</g>
<!-- 139748202573552 -->
<g id="node30" class="node">
<title>139748202573552</title>
<ellipse fill="none" stroke="#000000" cx="359" cy="-449" rx="27" ry="27"/>
<text text-anchor="middle" x="359" y="-445.3" font-family="Times,serif" font-size="14.00" fill="#000000">p_7</text>
</g>
<!-- 139748202484008&#45;&gt;139748202573552 -->
<g id="edge45" class="edge">
<title>139748202484008&#45;&gt;139748202573552</title>
<path fill="none" stroke="#000000" d="M296.003,-451.7999C304.1013,-451.4399 313.1306,-451.0386 321.7665,-450.6548"/>
<polygon fill="#000000" stroke="#000000" points="322.1814,-454.1399 332.0161,-450.1993 321.8705,-447.1468 322.1814,-454.1399"/>
</g>
<!-- 139748202549824 -->
<g id="node23" class="node">
<title>139748202549824</title>
<polygon fill="none" stroke="#000000" points="296,-649 242,-649 242,-613 296,-613 296,-649"/>
<text text-anchor="middle" x="269" y="-627.3" font-family="Times,serif" font-size="14.00" fill="#000000">skip_5</text>
</g>
<!-- 139748203773512 -->
<g id="node27" class="node">
<title>139748203773512</title>
<ellipse fill="none" stroke="#000000" cx="359" cy="-635" rx="27" ry="27"/>
<text text-anchor="middle" x="359" y="-631.3" font-family="Times,serif" font-size="14.00" fill="#000000">p_4</text>
</g>
<!-- 139748202549824&#45;&gt;139748203773512 -->
<g id="edge46" class="edge">
<title>139748202549824&#45;&gt;139748203773512</title>
<path fill="none" stroke="#000000" d="M296.003,-632.2001C304.1013,-632.5601 313.1306,-632.9614 321.7665,-633.3452"/>
<polygon fill="#000000" stroke="#000000" points="321.8705,-636.8532 332.0161,-633.8007 322.1814,-629.8601 321.8705,-636.8532"/>
</g>
<!-- 139748203770656 -->
<g id="node24" class="node">
<title>139748203770656</title>
<polygon fill="none" stroke="#000000" points="296,-357 242,-357 242,-321 296,-321 296,-357"/>
<text text-anchor="middle" x="269" y="-335.3" font-family="Times,serif" font-size="14.00" fill="#000000">tau_1</text>
</g>
<!-- 139748203772448 -->
<g id="node26" class="node">
<title>139748203772448</title>
<ellipse fill="none" stroke="#000000" cx="359" cy="-339" rx="27" ry="27"/>
<text text-anchor="middle" x="359" y="-335.3" font-family="Times,serif" font-size="14.00" fill="#000000">p_3</text>
</g>
<!-- 139748203770656&#45;&gt;139748203772448 -->
<g id="edge48" class="edge">
<title>139748203770656&#45;&gt;139748203772448</title>
<path fill="none" stroke="#000000" d="M296.003,-339C304.0277,-339 312.9665,-339 321.5309,-339"/>
<polygon fill="#000000" stroke="#000000" points="321.7051,-342.5001 331.705,-339 321.705,-335.5001 321.7051,-342.5001"/>
</g>
<!-- 139748203772056 -->
<g id="node25" class="node">
<title>139748203772056</title>
<ellipse fill="#00ff00" stroke="#000000" cx="179" cy="-339" rx="27" ry="27"/>
<text text-anchor="middle" x="179" y="-335.3" font-family="Times,serif" font-size="14.00" fill="#000000">1</text>
</g>
<!-- 139748203772056&#45;&gt;139748203770656 -->
<g id="edge47" class="edge">
<title>139748203772056&#45;&gt;139748203770656</title>
<path fill="none" stroke="#000000" d="M206.003,-339C214.0277,-339 222.9665,-339 231.5309,-339"/>
<polygon fill="#000000" stroke="#000000" points="231.7051,-342.5001 241.705,-339 231.705,-335.5001 231.7051,-342.5001"/>
</g>
<!-- 139748203772448&#45;&gt;139748202570640 -->
<g id="edge22" class="edge">
<title>139748203772448&#45;&gt;139748202570640</title>
<path fill="none" stroke="#000000" d="M386.199,-340.3268C394.0426,-340.7094 402.8582,-341.1394 411.6204,-341.5668"/>
<polygon fill="#000000" stroke="#000000" points="411.6617,-345.0729 421.8204,-342.0644 412.0028,-338.0812 411.6617,-345.0729"/>
</g>
<!-- 139748203773512&#45;&gt;139748202573328 -->
<g id="edge23" class="edge">
<title>139748203773512&#45;&gt;139748202573328</title>
<path fill="none" stroke="#000000" d="M386.199,-635C397.7828,-635 411.4866,-635 424.0073,-635"/>
<polygon fill="#000000" stroke="#000000" points="424.1739,-638.5001 434.1739,-635 424.1739,-631.5001 424.1739,-638.5001"/>
</g>
<!-- 139748202570472&#45;&gt;139748202487424 -->
<g id="edge28" class="edge">
<title>139748202570472&#45;&gt;139748202487424</title>
<path fill="none" stroke="#000000" d="M558.5732,-422.4032C550.9939,-392.2191 534.2539,-343.7221 501,-317 450.4935,-276.4141 423.7929,-284 359,-284 269,-284 269,-284 269,-284 216.3188,-284 200.8645,-283.3133 152,-303 128.1184,-312.6215 104.295,-329.1902 86.6071,-343.1908"/>
<polygon fill="#000000" stroke="#000000" points="84.0028,-340.7968 78.4434,-349.8159 88.4138,-346.2322 84.0028,-340.7968"/>
</g>
<!-- 139748202570472&#45;&gt;139748202484344 -->
<g id="edge26" class="edge">
<title>139748202570472&#45;&gt;139748202484344</title>
<path fill="none" stroke="#000000" d="M569.7074,-475.7608C580.1542,-522.4093 603.4505,-615.8617 627,-639 627.9468,-639.9303 628.9252,-640.8286 629.932,-641.696"/>
<polygon fill="#000000" stroke="#000000" points="628.0304,-644.6424 638.1564,-647.7592 632.1842,-639.008 628.0304,-644.6424"/>
</g>
<!-- 139748202570472&#45;&gt;139748202572992 -->
<g id="edge37" class="edge">
<title>139748202570472&#45;&gt;139748202572992</title>
<path fill="none" stroke="#000000" d="M569.4934,-475.6734C577.1681,-506.322 594.0297,-556.0961 627,-585 631.8132,-589.2196 637.2815,-592.7799 643.075,-595.784"/>
<polygon fill="#000000" stroke="#000000" points="641.8508,-599.073 652.3994,-600.0615 644.7696,-592.7106 641.8508,-599.073"/>
</g>
<!-- 139748202570472&#45;&gt;139748202485856 -->
<g id="edge30" class="edge">
<title>139748202570472&#45;&gt;139748202485856</title>
<path fill="none" stroke="#000000" d="M576.9923,-473.1021C588.0351,-491.4414 605.5032,-516.0035 627,-531 635.9894,-537.2712 646.4928,-542.1287 657.0201,-545.8776"/>
<polygon fill="#000000" stroke="#000000" points="656.0598,-549.2458 666.6521,-549.0175 658.2294,-542.5905 656.0598,-549.2458"/>
</g>
<!-- 139748202570472&#45;&gt;139748202485464 -->
<g id="edge31" class="edge">
<title>139748202570472&#45;&gt;139748202485464</title>
<path fill="none" stroke="#000000" d="M588.5603,-460.7081C600.0984,-466.0028 614.1198,-472.1461 627,-477 633.3302,-479.3855 639.9743,-481.7314 646.6482,-483.9837"/>
<polygon fill="#000000" stroke="#000000" points="645.8214,-487.3965 656.4146,-487.2103 648.0174,-480.7499 645.8214,-487.3965"/>
</g>
<!-- 139748202570472&#45;&gt;139748202486584 -->
<g id="edge35" class="edge">
<title>139748202570472&#45;&gt;139748202486584</title>
<path fill="none" stroke="#000000" d="M591.0733,-449.1811C614.9183,-449.3406 649.8722,-449.5744 676.3332,-449.7514"/>
<polygon fill="#000000" stroke="#000000" points="676.3527,-453.2515 686.3759,-449.8186 676.3996,-446.2517 676.3527,-453.2515"/>
</g>
<!-- 139748202570472&#45;&gt;139748202569912 -->
<g id="edge24" class="edge">
<title>139748202570472&#45;&gt;139748202569912</title>
<path fill="none" stroke="#000000" d="M588.9387,-438.1097C600.4345,-433.2446 614.315,-427.587 627,-423 639.7324,-418.3958 653.6801,-413.8358 666.5869,-409.8107"/>
<polygon fill="#000000" stroke="#000000" points="667.6897,-413.1334 676.2166,-406.845 665.6294,-406.4434 667.6897,-413.1334"/>
</g>
<!-- 139748202570472&#45;&gt;139748202571760 -->
<g id="edge25" class="edge">
<title>139748202570472&#45;&gt;139748202571760</title>
<path fill="none" stroke="#000000" d="M577.3547,-425.1228C588.4814,-407.2745 605.889,-383.5403 627,-369 629.154,-367.5164 631.393,-366.1117 633.6969,-364.7818"/>
<polygon fill="#000000" stroke="#000000" points="635.6056,-367.7342 642.8625,-360.0149 632.3757,-361.5239 635.6056,-367.7342"/>
</g>
<!-- 139748202570472&#45;&gt;139748202487480 -->
<g id="edge38" class="edge">
<title>139748202570472&#45;&gt;139748202487480</title>
<path fill="none" stroke="#000000" d="M569.6743,-422.4435C577.4862,-392.2185 594.4444,-343.3774 627,-315 634.5602,-308.4101 643.7191,-303.4279 653.2118,-299.6614"/>
<polygon fill="#000000" stroke="#000000" points="654.5054,-302.9165 662.7688,-296.2857 652.174,-296.3161 654.5054,-302.9165"/>
</g>
<!-- 139748202570472&#45;&gt;139748202570416 -->
<g id="edge41" class="edge">
<title>139748202570472&#45;&gt;139748202570416</title>
<path fill="none" stroke="#000000" d="M565.5295,-421.9441C569.2821,-381.3645 582.2421,-304.8369 627,-261 633.2878,-254.8416 640.9585,-250.0854 649.1073,-246.4126"/>
<polygon fill="#000000" stroke="#000000" points="650.4527,-249.6443 658.4625,-242.7093 647.8762,-243.1357 650.4527,-249.6443"/>
</g>
<!-- 139748202570472&#45;&gt;139748202484512 -->
<g id="edge40" class="edge">
<title>139748202570472&#45;&gt;139748202484512</title>
<path fill="none" stroke="#000000" d="M566.319,-421.745C572.4219,-356.25 590.9935,-192.515 627,-153 633.8344,-145.4997 642.7159,-140.0648 652.1792,-136.1308"/>
<polygon fill="#000000" stroke="#000000" points="653.5573,-139.3547 661.7821,-132.6761 651.1877,-132.768 653.5573,-139.3547"/>
</g>
<!-- 139748202570472&#45;&gt;139748202570360 -->
<g id="edge36" class="edge">
<title>139748202570472&#45;&gt;139748202570360</title>
<path fill="none" stroke="#000000" d="M565.3324,-421.7774C569.4757,-348.1069 584.5082,-147.1392 627,-99 628.5226,-97.2751 630.1535,-95.6591 631.8754,-94.1453"/>
<polygon fill="#000000" stroke="#000000" points="634.016,-96.9152 639.9543,-88.141 629.8404,-91.2969 634.016,-96.9152"/>
</g>
<!-- 139748202570472&#45;&gt;139748202573216 -->
<g id="edge33" class="edge">
<title>139748202570472&#45;&gt;139748202573216</title>
<path fill="none" stroke="#000000" d="M564.6059,-421.7759C566.9582,-340.5209 577.9845,-101.8571 627,-45 637.3644,-32.9775 652.9959,-26.2377 668.1327,-22.4841"/>
<polygon fill="#000000" stroke="#000000" points="668.8806,-25.9035 677.9479,-20.4231 667.4421,-19.0529 668.8806,-25.9035"/>
</g>
<!-- 139748202570472&#45;&gt;139748202571816 -->
<g id="edge29" class="edge">
<title>139748202570472&#45;&gt;139748202571816</title>
<path fill="none" stroke="#000000" d="M569.1392,-475.7725C574.8163,-505.7367 584.0707,-555.7601 591,-599 600.0903,-655.7249 589.8162,-811.2083 627,-855 635.6822,-865.2251 648.1767,-871.6341 660.9809,-875.6348"/>
<polygon fill="#000000" stroke="#000000" points="660.2103,-879.0516 670.7746,-878.248 662.015,-872.2882 660.2103,-879.0516"/>
</g>
<!-- 139748202570472&#45;&gt;139748202485240 -->
<g id="edge32" class="edge">
<title>139748202570472&#45;&gt;139748202485240</title>
<path fill="none" stroke="#000000" d="M568.8425,-475.8228C574.2569,-505.8317 583.2794,-555.8944 591,-599 607.0775,-688.7639 566.7114,-732.5797 627,-801 632.9698,-807.775 640.611,-812.8692 648.8741,-816.6958"/>
<polygon fill="#000000" stroke="#000000" points="647.8265,-820.0461 658.4117,-820.4995 650.4197,-813.5441 647.8265,-820.0461"/>
</g>
<!-- 139748202570472&#45;&gt;139748202571312 -->
<g id="edge39" class="edge">
<title>139748202570472&#45;&gt;139748202571312</title>
<path fill="none" stroke="#000000" d="M568.8854,-475.6851C582.0262,-546.9175 617.7579,-736.8434 627,-747 635.7723,-756.6403 647.9267,-762.8687 660.3552,-766.8839"/>
<polygon fill="#000000" stroke="#000000" points="659.75,-770.3482 670.322,-769.6524 661.6235,-763.6036 659.75,-770.3482"/>
</g>
<!-- 139748202570472&#45;&gt;139748202486304 -->
<g id="edge27" class="edge">
<title>139748202570472&#45;&gt;139748202486304</title>
<path fill="none" stroke="#000000" d="M567.6695,-422.1535C575.8755,-365.8626 597.3447,-238.1103 627,-207 633.3771,-200.31 641.3829,-195.2686 649.934,-191.4715"/>
<polygon fill="#000000" stroke="#000000" points="651.311,-194.6916 659.3756,-187.8204 648.7862,-188.1628 651.311,-194.6916"/>
</g>
<!-- 139748202570472&#45;&gt;139748202485912 -->
<g id="edge34" class="edge">
<title>139748202570472&#45;&gt;139748202485912</title>
<path fill="none" stroke="#000000" d="M569.376,-475.7425C581.6513,-535.7371 611.8471,-677.0718 627,-693 631.483,-697.7124 636.7741,-701.6069 642.4954,-704.8248"/>
<polygon fill="#000000" stroke="#000000" points="641.2622,-708.1171 651.7857,-709.3449 644.3248,-701.8225 641.2622,-708.1171"/>
</g>
<!-- 139748202573272&#45;&gt;139748202484008 -->
<g id="edge42" class="edge">
<title>139748202573272&#45;&gt;139748202484008</title>
<path fill="none" stroke="#000000" d="M205.0317,-470.769C213.4054,-468.4429 222.8517,-465.819 231.8638,-463.3156"/>
<polygon fill="#000000" stroke="#000000" points="233.0754,-466.6117 241.7738,-460.5628 231.2018,-459.867 233.0754,-466.6117"/>
</g>
<!-- 139748202573272&#45;&gt;139748202549824 -->
<g id="edge43" class="edge">
<title>139748202573272&#45;&gt;139748202549824</title>
<path fill="none" stroke="#000000" d="M191.1192,-502.529C203.183,-526.3836 222.6445,-563.398 242,-594 244.1851,-597.4548 246.5814,-601.0141 249.0159,-604.4966"/>
<polygon fill="#000000" stroke="#000000" points="246.3704,-606.8128 255.0478,-612.8917 252.0552,-602.7283 246.3704,-606.8128"/>
</g>
<!-- 139748202573552&#45;&gt;139748202571368 -->
<g id="edge44" class="edge">
<title>139748202573552&#45;&gt;139748202571368</title>
<path fill="none" stroke="#000000" d="M386.199,-449C397.7828,-449 411.4866,-449 424.0073,-449"/>
<polygon fill="#000000" stroke="#000000" points="424.1739,-452.5001 434.1739,-449 424.1739,-445.5001 424.1739,-452.5001"/>
</g>
</g>
</svg>
