<?xml version="1.0" encoding="UTF-8" standalone="no"?>
<!DOCTYPE svg PUBLIC "-//W3C//DTD SVG 1.1//EN"
 "http://www.w3.org/Graphics/SVG/1.1/DTD/svg11.dtd">
<!-- Generated by graphviz version 2.40.1 (20161225.0304)
 -->
<!-- Title: alpha_classic_net_1586496128.2171612 Pages: 1 -->
<svg width="588pt" height="872pt"
 viewBox="0.00 0.00 588.00 872.00" xmlns="http://www.w3.org/2000/svg" xmlns:xlink="http://www.w3.org/1999/xlink">
<g id="graph0" class="graph" transform="scale(1 1) rotate(0) translate(4 868)">
<title>alpha_classic_net_1586496128.2171612</title>
<!-- 139748202579000 -->
<g id="node1" class="node">
<title>139748202579000</title>
<polygon fill="none" stroke="#000000" points="134,-36 18,-36 18,0 134,0 134,-36"/>
<text text-anchor="middle" x="76" y="-14.3" font-family="Times,serif" font-size="14.00" fill="#000000">AccountDataBean</text>
</g>
<!-- 139748202578832 -->
<g id="node2" class="node">
<title>139748202578832</title>
<polygon fill="none" stroke="#000000" points="152,-90 0,-90 0,-54 152,-54 152,-90"/>
<text text-anchor="middle" x="76" y="-68.3" font-family="Times,serif" font-size="14.00" fill="#000000">AccountProfileDataBean</text>
</g>
<!-- 139748202578944 -->
<g id="node3" class="node">
<title>139748202578944</title>
<polygon fill="none" stroke="#000000" points="310,-180 188,-180 188,-144 310,-144 310,-180"/>
<text text-anchor="middle" x="249" y="-158.3" font-family="Times,serif" font-size="14.00" fill="#000000">DTStreamer3MDB</text>
</g>
<!-- 139748202579784 -->
<g id="node20" class="node">
<title>139748202579784</title>
<ellipse fill="none" stroke="#000000" cx="373" cy="-135" rx="27" ry="27"/>
<text text-anchor="middle" x="373" y="-131.3" font-family="Times,serif" font-size="14.00" fill="#000000">({&#39;OrdersAlertFilter&#39;, &#39;DTStreamer3MDB&#39;}, {&#39;Root&#39;})</text>
</g>
<!-- 139748202578944&#45;&gt;139748202579784 -->
<g id="edge2" class="edge">
<title>139748202578944&#45;&gt;139748202579784</title>
<path fill="none" stroke="#000000" d="M310.2735,-148.6582C319.1971,-146.7152 328.1408,-144.7677 336.3649,-142.977"/>
<polygon fill="#000000" stroke="#000000" points="337.3154,-146.3521 346.3418,-140.8046 335.8261,-139.5124 337.3154,-146.3521"/>
</g>
<!-- 139748202578776 -->
<g id="node4" class="node">
<title>139748202578776</title>
<polygon fill="none" stroke="#000000" points="122.5,-216 29.5,-216 29.5,-180 122.5,-180 122.5,-216"/>
<text text-anchor="middle" x="76" y="-194.3" font-family="Times,serif" font-size="14.00" fill="#000000">FinancialUtils</text>
</g>
<!-- 139748202579168 -->
<g id="node5" class="node">
<title>139748202579168</title>
<polygon fill="none" stroke="#000000" points="133,-270 19,-270 19,-234 133,-234 133,-270"/>
<text text-anchor="middle" x="76" y="-248.3" font-family="Times,serif" font-size="14.00" fill="#000000">HoldingDataBean</text>
</g>
<!-- 139748202881208 -->
<g id="node6" class="node">
<title>139748202881208</title>
<polygon fill="none" stroke="#000000" points="103,-324 49,-324 49,-288 103,-288 103,-324"/>
<text text-anchor="middle" x="76" y="-302.3" font-family="Times,serif" font-size="14.00" fill="#000000">Log</text>
</g>
<!-- 139748202578888 -->
<g id="node7" class="node">
<title>139748202578888</title>
<polygon fill="none" stroke="#000000" points="113,-378 39,-378 39,-342 113,-342 113,-378"/>
<text text-anchor="middle" x="76" y="-356.3" font-family="Times,serif" font-size="14.00" fill="#000000">MDBStats</text>
</g>
<!-- 139748202579224 -->
<g id="node8" class="node">
<title>139748202579224</title>
<polygon fill="none" stroke="#000000" points="126.5,-432 25.5,-432 25.5,-396 126.5,-396 126.5,-432"/>
<text text-anchor="middle" x="76" y="-410.3" font-family="Times,serif" font-size="14.00" fill="#000000">OrderDataBean</text>
</g>
<!-- 139748202578552 -->
<g id="node9" class="node">
<title>139748202578552</title>
<polygon fill="none" stroke="#000000" points="304,-126 194,-126 194,-90 304,-90 304,-126"/>
<text text-anchor="middle" x="249" y="-104.3" font-family="Times,serif" font-size="14.00" fill="#000000">OrdersAlertFilter</text>
</g>
<!-- 139748202578552&#45;&gt;139748202579784 -->
<g id="edge3" class="edge">
<title>139748202578552&#45;&gt;139748202579784</title>
<path fill="none" stroke="#000000" d="M304.1103,-119.9998C315.171,-122.4082 326.5278,-124.8811 336.7492,-127.1067"/>
<polygon fill="#000000" stroke="#000000" points="336.0234,-130.5306 346.5391,-129.2384 337.5127,-123.6908 336.0234,-130.5306"/>
</g>
<!-- 139748202579280 -->
<g id="node10" class="node">
<title>139748202579280</title>
<polygon fill="none" stroke="#000000" points="127.5,-486 24.5,-486 24.5,-450 127.5,-450 127.5,-486"/>
<text text-anchor="middle" x="76" y="-464.3" font-family="Times,serif" font-size="14.00" fill="#000000">QuoteDataBean</text>
</g>
<!-- 139748202578608 -->
<g id="node11" class="node">
<title>139748202578608</title>
<polygon fill="none" stroke="#000000" points="149.5,-540 2.5,-540 2.5,-504 149.5,-504 149.5,-540"/>
<text text-anchor="middle" x="76" y="-518.3" font-family="Times,serif" font-size="14.00" fill="#000000">RecentStockChangeList</text>
</g>
<!-- 139748202579056 -->
<g id="node12" class="node">
<title>139748202579056</title>
<polygon fill="none" stroke="#000000" points="490,-153 436,-153 436,-117 490,-117 490,-153"/>
<text text-anchor="middle" x="463" y="-131.3" font-family="Times,serif" font-size="14.00" fill="#000000">Root</text>
</g>
<!-- 139748202579616 -->
<g id="node21" class="node">
<title>139748202579616</title>
<ellipse fill="#ffa500" stroke="#000000" cx="553" cy="-135" rx="27" ry="27"/>
</g>
<!-- 139748202579056&#45;&gt;139748202579616 -->
<g id="edge4" class="edge">
<title>139748202579056&#45;&gt;139748202579616</title>
<path fill="none" stroke="#000000" d="M490.003,-135C498.0277,-135 506.9665,-135 515.5309,-135"/>
<polygon fill="#000000" stroke="#000000" points="515.7051,-138.5001 525.705,-135 515.705,-131.5001 515.7051,-138.5001"/>
</g>
<!-- 139748202578496 -->
<g id="node13" class="node">
<title>139748202578496</title>
<polygon fill="none" stroke="#000000" points="111.5,-594 40.5,-594 40.5,-558 111.5,-558 111.5,-594"/>
<text text-anchor="middle" x="76" y="-572.3" font-family="Times,serif" font-size="14.00" fill="#000000">TimerStat</text>
</g>
<!-- 139748202578664 -->
<g id="node14" class="node">
<title>139748202578664</title>
<polygon fill="none" stroke="#000000" points="118.5,-648 33.5,-648 33.5,-612 118.5,-612 118.5,-648"/>
<text text-anchor="middle" x="76" y="-626.3" font-family="Times,serif" font-size="14.00" fill="#000000">TradeAction</text>
</g>
<!-- 139748202579336 -->
<g id="node15" class="node">
<title>139748202579336</title>
<polygon fill="none" stroke="#000000" points="131,-702 21,-702 21,-666 131,-666 131,-702"/>
<text text-anchor="middle" x="76" y="-680.3" font-family="Times,serif" font-size="14.00" fill="#000000">TradeAppServlet</text>
</g>
<!-- 139748202579112 -->
<g id="node16" class="node">
<title>139748202579112</title>
<polygon fill="none" stroke="#000000" points="119,-756 33,-756 33,-720 119,-720 119,-756"/>
<text text-anchor="middle" x="76" y="-734.3" font-family="Times,serif" font-size="14.00" fill="#000000">TradeConfig</text>
</g>
<!-- 139748202579392 -->
<g id="node17" class="node">
<title>139748202579392</title>
<polygon fill="none" stroke="#000000" points="130,-810 22,-810 22,-774 130,-774 130,-810"/>
<text text-anchor="middle" x="76" y="-788.3" font-family="Times,serif" font-size="14.00" fill="#000000">TradeSLSBBean</text>
</g>
<!-- 139748202578720 -->
<g id="node18" class="node">
<title>139748202578720</title>
<polygon fill="none" stroke="#000000" points="137.5,-864 14.5,-864 14.5,-828 137.5,-828 137.5,-864"/>
<text text-anchor="middle" x="76" y="-842.3" font-family="Times,serif" font-size="14.00" fill="#000000">TradeServletAction</text>
</g>
<!-- 139748202579448 -->
<g id="node19" class="node">
<title>139748202579448</title>
<ellipse fill="#00ff00" stroke="#000000" cx="76" cy="-135" rx="27" ry="27"/>
<text text-anchor="middle" x="76" y="-131.3" font-family="Times,serif" font-size="14.00" fill="#000000">1</text>
</g>
<!-- 139748202579448&#45;&gt;139748202578944 -->
<g id="edge5" class="edge">
<title>139748202579448&#45;&gt;139748202578944</title>
<path fill="none" stroke="#000000" d="M103.0313,-139.2188C123.0867,-142.3488 151.4086,-146.769 177.7751,-150.884"/>
<polygon fill="#000000" stroke="#000000" points="177.3431,-154.3588 187.7632,-152.4428 178.4226,-147.4426 177.3431,-154.3588"/>
</g>
<!-- 139748202579448&#45;&gt;139748202578552 -->
<g id="edge6" class="edge">
<title>139748202579448&#45;&gt;139748202578552</title>
<path fill="none" stroke="#000000" d="M103.0313,-130.7813C124.6138,-127.4129 155.7699,-122.5504 183.7598,-118.182"/>
<polygon fill="#000000" stroke="#000000" points="184.5644,-121.5989 193.9051,-116.5986 183.4849,-114.6826 184.5644,-121.5989"/>
</g>
<!-- 139748202579784&#45;&gt;139748202579056 -->
<g id="edge1" class="edge">
<title>139748202579784&#45;&gt;139748202579056</title>
<path fill="none" stroke="#000000" d="M400.003,-135C408.0277,-135 416.9665,-135 425.5309,-135"/>
<polygon fill="#000000" stroke="#000000" points="425.7051,-138.5001 435.705,-135 425.705,-131.5001 425.7051,-138.5001"/>
</g>
</g>
</svg>
