<?xml version="1.0" encoding="UTF-8" standalone="no"?>
<!DOCTYPE svg PUBLIC "-//W3C//DTD SVG 1.1//EN"
 "http://www.w3.org/Graphics/SVG/1.1/DTD/svg11.dtd">
<!-- Generated by graphviz version 2.40.1 (20161225.0304)
 -->
<!-- Title: %3 Pages: 1 -->
<svg width="2021pt" height="423pt"
 viewBox="0.00 0.00 2021.00 423.00" xmlns="http://www.w3.org/2000/svg" xmlns:xlink="http://www.w3.org/1999/xlink">
<g id="graph0" class="graph" transform="scale(1 1) rotate(0) translate(4 419)">
<title>%3</title>
<!-- 140531499583472 -->
<g id="node1" class="node">
<title>140531499583472</title>
<polygon fill="none" stroke="#000000" points="122,-92 0,-92 0,-56 122,-56 122,-92"/>
<text text-anchor="middle" x="61" y="-70.3" font-family="Times,serif" font-size="14.00" fill="#000000">DTStreamer3MDB</text>
</g>
<!-- 140531499781704 -->
<g id="node26" class="node">
<title>140531499781704</title>
<ellipse fill="none" stroke="#000000" cx="185" cy="-148" rx="27" ry="27"/>
<text text-anchor="middle" x="185" y="-144.3" font-family="Times,serif" font-size="14.00" fill="#000000">intplace_DTStreamer3MDB</text>
</g>
<!-- 140531499583472&#45;&gt;140531499781704 -->
<g id="edge1" class="edge">
<title>140531499583472&#45;&gt;140531499781704</title>
<path fill="none" stroke="#000000" d="M91.3338,-92.1024C110.0266,-103.2578 133.9689,-117.546 152.9679,-128.884"/>
<polygon fill="#000000" stroke="#000000" points="151.2013,-131.9057 161.5821,-134.0248 154.7885,-125.8947 151.2013,-131.9057"/>
</g>
<!-- 140531499583248 -->
<g id="node2" class="node">
<title>140531499583248</title>
<polygon fill="none" stroke="#000000" points="1383,-269 1273,-269 1273,-233 1383,-233 1383,-269"/>
<text text-anchor="middle" x="1328" y="-247.3" font-family="Times,serif" font-size="14.00" fill="#000000">OrdersAlertFilter</text>
</g>
<!-- 140531500008616 -->
<g id="node27" class="node">
<title>140531500008616</title>
<ellipse fill="none" stroke="#000000" cx="1446" cy="-251" rx="27" ry="27"/>
<text text-anchor="middle" x="1446" y="-247.3" font-family="Times,serif" font-size="14.00" fill="#000000">intplace_OrdersAlertFilter</text>
</g>
<!-- 140531499583248&#45;&gt;140531500008616 -->
<g id="edge2" class="edge">
<title>140531499583248&#45;&gt;140531500008616</title>
<path fill="none" stroke="#000000" d="M1383.1996,-251C1391.7911,-251 1400.4905,-251 1408.565,-251"/>
<polygon fill="#000000" stroke="#000000" points="1408.7583,-254.5001 1418.7582,-251 1408.7582,-247.5001 1408.7583,-254.5001"/>
</g>
<!-- 140531499583192 -->
<g id="node3" class="node">
<title>140531499583192</title>
<polygon fill="none" stroke="#000000" points="575,-88 428,-88 428,-52 575,-52 575,-88"/>
<text text-anchor="middle" x="501.5" y="-66.3" font-family="Times,serif" font-size="14.00" fill="#000000">RecentStockChangeList</text>
</g>
<!-- 140531500686752 -->
<g id="node35" class="node">
<title>140531500686752</title>
<ellipse fill="none" stroke="#000000" cx="638" cy="-65" rx="27" ry="27"/>
<text text-anchor="middle" x="638" y="-61.3" font-family="Times,serif" font-size="14.00" fill="#000000">splace_in_DTStreamer3MDB_0</text>
</g>
<!-- 140531499583192&#45;&gt;140531500686752 -->
<g id="edge3" class="edge">
<title>140531499583192&#45;&gt;140531500686752</title>
<path fill="none" stroke="#000000" d="M575.3431,-67.2951C584.1659,-66.9719 592.8632,-66.6534 600.84,-66.3612"/>
<polygon fill="#000000" stroke="#000000" points="600.996,-69.8579 610.8611,-65.9941 600.7397,-62.8626 600.996,-69.8579"/>
</g>
<!-- 140531499582800 -->
<g id="node4" class="node">
<title>140531499582800</title>
<polygon fill="none" stroke="#000000" points="1923,-295 1869,-295 1869,-259 1923,-259 1923,-295"/>
<text text-anchor="middle" x="1896" y="-273.3" font-family="Times,serif" font-size="14.00" fill="#000000">Root</text>
</g>
<!-- 140531499582912 -->
<g id="node43" class="node">
<title>140531499582912</title>
<ellipse fill="#ffa500" stroke="#000000" cx="1986" cy="-277" rx="27" ry="27"/>
</g>
<!-- 140531499582800&#45;&gt;140531499582912 -->
<g id="edge4" class="edge">
<title>140531499582800&#45;&gt;140531499582912</title>
<path fill="none" stroke="#000000" d="M1923.003,-277C1931.0277,-277 1939.9665,-277 1948.5309,-277"/>
<polygon fill="#000000" stroke="#000000" points="1948.7051,-280.5001 1958.705,-277 1948.705,-273.5001 1948.7051,-280.5001"/>
</g>
<!-- 140531499583360 -->
<g id="node5" class="node">
<title>140531499583360</title>
<polygon fill="none" stroke="#000000" points="537,-166 466,-166 466,-130 537,-130 537,-166"/>
<text text-anchor="middle" x="501.5" y="-144.3" font-family="Times,serif" font-size="14.00" fill="#000000">TimerStat</text>
</g>
<!-- 140531499920856 -->
<g id="node36" class="node">
<title>140531499920856</title>
<ellipse fill="none" stroke="#000000" cx="638" cy="-148" rx="27" ry="27"/>
<text text-anchor="middle" x="638" y="-144.3" font-family="Times,serif" font-size="14.00" fill="#000000">splace_in_DTStreamer3MDB_1</text>
</g>
<!-- 140531499583360&#45;&gt;140531499920856 -->
<g id="edge5" class="edge">
<title>140531499583360&#45;&gt;140531499920856</title>
<path fill="none" stroke="#000000" d="M537.0074,-148C556.5594,-148 580.8097,-148 600.6464,-148"/>
<polygon fill="#000000" stroke="#000000" points="600.8612,-151.5001 610.8611,-148 600.8611,-144.5001 600.8612,-151.5001"/>
</g>
<!-- 140531499583024 -->
<g id="node6" class="node">
<title>140531499583024</title>
<polygon fill="none" stroke="#000000" points="787,-240 701,-240 701,-204 787,-204 787,-240"/>
<text text-anchor="middle" x="744" y="-218.3" font-family="Times,serif" font-size="14.00" fill="#000000">TradeConfig</text>
</g>
<!-- 140531499782040 -->
<g id="node28" class="node">
<title>140531499782040</title>
<ellipse fill="none" stroke="#000000" cx="850" cy="-222" rx="27" ry="27"/>
<text text-anchor="middle" x="850" y="-218.3" font-family="Times,serif" font-size="14.00" fill="#000000">intplace_TradeConfig</text>
</g>
<!-- 140531499583024&#45;&gt;140531499782040 -->
<g id="edge6" class="edge">
<title>140531499583024&#45;&gt;140531499782040</title>
<path fill="none" stroke="#000000" d="M787.1143,-222C795.5776,-222 804.3896,-222 812.6453,-222"/>
<polygon fill="#000000" stroke="#000000" points="812.7368,-225.5001 822.7368,-222 812.7368,-218.5001 812.7368,-225.5001"/>
</g>
<!-- 140531500686528 -->
<g id="node7" class="node">
<title>140531500686528</title>
<polygon fill="none" stroke="#000000" points="877,-72 823,-72 823,-36 877,-36 877,-72"/>
<text text-anchor="middle" x="850" y="-50.3" font-family="Times,serif" font-size="14.00" fill="#000000">hid_1</text>
</g>
<!-- 140531500685744 -->
<g id="node29" class="node">
<title>140531500685744</title>
<ellipse fill="none" stroke="#000000" cx="1210" cy="-86" rx="27" ry="27"/>
<text text-anchor="middle" x="1210" y="-82.3" font-family="Times,serif" font-size="14.00" fill="#000000">pre_DTStreamer3MDB</text>
</g>
<!-- 140531500686528&#45;&gt;140531500685744 -->
<g id="edge7" class="edge">
<title>140531500686528&#45;&gt;140531500685744</title>
<path fill="none" stroke="#000000" d="M877.0258,-50.9669C929.6994,-45.8169 1049.4792,-37.8515 1147,-59 1157.0121,-61.1712 1167.4153,-64.9358 1176.8142,-68.9764"/>
<polygon fill="#000000" stroke="#000000" points="1175.6344,-72.2846 1186.1868,-73.2319 1178.5283,-65.9108 1175.6344,-72.2846"/>
</g>
<!-- 140531499781312 -->
<g id="node8" class="node">
<title>140531499781312</title>
<polygon fill="none" stroke="#000000" points="1147,-196 1093,-196 1093,-160 1147,-160 1147,-196"/>
<text text-anchor="middle" x="1120" y="-174.3" font-family="Times,serif" font-size="14.00" fill="#000000">hid_10</text>
</g>
<!-- 140531499781424 -->
<g id="node30" class="node">
<title>140531499781424</title>
<ellipse fill="none" stroke="#000000" cx="1210" cy="-251" rx="27" ry="27"/>
<text text-anchor="middle" x="1210" y="-247.3" font-family="Times,serif" font-size="14.00" fill="#000000">pre_OrdersAlertFilter</text>
</g>
<!-- 140531499781312&#45;&gt;140531499781424 -->
<g id="edge8" class="edge">
<title>140531499781312&#45;&gt;140531499781424</title>
<path fill="none" stroke="#000000" d="M1142.2472,-196.0449C1153.9471,-205.5349 1168.4317,-217.2835 1181.0013,-227.4789"/>
<polygon fill="#000000" stroke="#000000" points="1178.965,-230.3338 1188.9363,-233.915 1183.3747,-224.8973 1178.965,-230.3338"/>
</g>
<!-- 140531499781480 -->
<g id="node9" class="node">
<title>140531499781480</title>
<polygon fill="none" stroke="#000000" points="302,-102 248,-102 248,-66 302,-66 302,-102"/>
<text text-anchor="middle" x="275" y="-80.3" font-family="Times,serif" font-size="14.00" fill="#000000">hid_11</text>
</g>
<!-- 140531499918000 -->
<g id="node31" class="node">
<title>140531499918000</title>
<ellipse fill="none" stroke="#000000" cx="365" cy="-73" rx="27" ry="27"/>
<text text-anchor="middle" x="365" y="-69.3" font-family="Times,serif" font-size="14.00" fill="#000000">pre_RecentStockChangeList</text>
</g>
<!-- 140531499781480&#45;&gt;140531499918000 -->
<g id="edge9" class="edge">
<title>140531499781480&#45;&gt;140531499918000</title>
<path fill="none" stroke="#000000" d="M302.003,-80.6996C310.1903,-79.699 319.3292,-78.582 328.051,-77.516"/>
<polygon fill="#000000" stroke="#000000" points="328.5146,-80.9855 338.0161,-76.298 327.6653,-74.0372 328.5146,-80.9855"/>
</g>
<!-- 140531499781984 -->
<g id="node10" class="node">
<title>140531499781984</title>
<polygon fill="none" stroke="#000000" points="392,-327 338,-327 338,-291 392,-291 392,-327"/>
<text text-anchor="middle" x="365" y="-305.3" font-family="Times,serif" font-size="14.00" fill="#000000">hid_12</text>
</g>
<!-- 140531499918112 -->
<g id="node39" class="node">
<title>140531499918112</title>
<ellipse fill="none" stroke="#000000" cx="744" cy="-388" rx="27" ry="27"/>
<text text-anchor="middle" x="744" y="-384.3" font-family="Times,serif" font-size="14.00" fill="#000000">splace_in_Root_0</text>
</g>
<!-- 140531499781984&#45;&gt;140531499918112 -->
<g id="edge10" class="edge">
<title>140531499781984&#45;&gt;140531499918112</title>
<path fill="none" stroke="#000000" d="M392.2567,-314.6815C459.2059,-328.6366 631.7671,-364.6058 707.4763,-380.3869"/>
<polygon fill="#000000" stroke="#000000" points="706.9916,-383.861 717.4954,-382.4753 708.42,-377.0083 706.9916,-383.861"/>
</g>
<!-- 140531500007608 -->
<g id="node11" class="node">
<title>140531500007608</title>
<polygon fill="none" stroke="#000000" points="302,-166 248,-166 248,-130 302,-130 302,-166"/>
<text text-anchor="middle" x="275" y="-144.3" font-family="Times,serif" font-size="14.00" fill="#000000">hid_13</text>
</g>
<!-- 140531499917832 -->
<g id="node33" class="node">
<title>140531499917832</title>
<ellipse fill="none" stroke="#000000" cx="365" cy="-148" rx="27" ry="27"/>
<text text-anchor="middle" x="365" y="-144.3" font-family="Times,serif" font-size="14.00" fill="#000000">pre_TimerStat</text>
</g>
<!-- 140531500007608&#45;&gt;140531499917832 -->
<g id="edge11" class="edge">
<title>140531500007608&#45;&gt;140531499917832</title>
<path fill="none" stroke="#000000" d="M302.003,-148C310.0277,-148 318.9665,-148 327.5309,-148"/>
<polygon fill="#000000" stroke="#000000" points="327.7051,-151.5001 337.705,-148 327.705,-144.5001 327.7051,-151.5001"/>
</g>
<!-- 140531500007832 -->
<g id="node12" class="node">
<title>140531500007832</title>
<polygon fill="none" stroke="#000000" points="302,-229 248,-229 248,-193 302,-193 302,-229"/>
<text text-anchor="middle" x="275" y="-207.3" font-family="Times,serif" font-size="14.00" fill="#000000">hid_14</text>
</g>
<!-- 140531499918224 -->
<g id="node41" class="node">
<title>140531499918224</title>
<ellipse fill="none" stroke="#000000" cx="365" cy="-220" rx="27" ry="27"/>
<text text-anchor="middle" x="365" y="-216.3" font-family="Times,serif" font-size="14.00" fill="#000000">splace_in_TradeConfig_0</text>
</g>
<!-- 140531500007832&#45;&gt;140531499918224 -->
<g id="edge12" class="edge">
<title>140531500007832&#45;&gt;140531499918224</title>
<path fill="none" stroke="#000000" d="M302.003,-213.7003C310.1903,-214.519 319.3292,-215.4329 328.051,-216.3051"/>
<polygon fill="#000000" stroke="#000000" points="327.7174,-219.7891 338.0161,-217.3016 328.414,-212.8239 327.7174,-219.7891"/>
</g>
<!-- 140531500008168 -->
<g id="node13" class="node">
<title>140531500008168</title>
<polygon fill="none" stroke="#000000" points="967,-238 913,-238 913,-202 967,-202 967,-238"/>
<text text-anchor="middle" x="940" y="-216.3" font-family="Times,serif" font-size="14.00" fill="#000000">hid_15</text>
</g>
<!-- 140531499918784 -->
<g id="node37" class="node">
<title>140531499918784</title>
<ellipse fill="none" stroke="#000000" cx="1030" cy="-206" rx="27" ry="27"/>
<text text-anchor="middle" x="1030" y="-202.3" font-family="Times,serif" font-size="14.00" fill="#000000">splace_in_DTStreamer3MDB_2</text>
</g>
<!-- 140531500008168&#45;&gt;140531499918784 -->
<g id="edge13" class="edge">
<title>140531500008168&#45;&gt;140531499918784</title>
<path fill="none" stroke="#000000" d="M967.003,-215.7995C975.1903,-214.526 984.3292,-213.1043 993.051,-211.7476"/>
<polygon fill="#000000" stroke="#000000" points="993.6729,-215.1931 1003.0161,-210.1975 992.5969,-208.2762 993.6729,-215.1931"/>
</g>
<!-- 140531500008392 -->
<g id="node14" class="node">
<title>140531500008392</title>
<polygon fill="none" stroke="#000000" points="967,-293 913,-293 913,-257 967,-257 967,-293"/>
<text text-anchor="middle" x="940" y="-271.3" font-family="Times,serif" font-size="14.00" fill="#000000">hid_16</text>
</g>
<!-- 140531499779128 -->
<g id="node38" class="node">
<title>140531499779128</title>
<ellipse fill="none" stroke="#000000" cx="1030" cy="-278" rx="27" ry="27"/>
<text text-anchor="middle" x="1030" y="-274.3" font-family="Times,serif" font-size="14.00" fill="#000000">splace_in_OrdersAlertFilter_0</text>
</g>
<!-- 140531500008392&#45;&gt;140531499779128 -->
<g id="edge14" class="edge">
<title>140531500008392&#45;&gt;140531499779128</title>
<path fill="none" stroke="#000000" d="M967.003,-275.9001C975.0277,-276.1676 983.9665,-276.4656 992.5309,-276.751"/>
<polygon fill="#000000" stroke="#000000" points="992.5939,-280.255 1002.705,-277.0902 992.8272,-273.2589 992.5939,-280.255"/>
</g>
<!-- 140531500008784 -->
<g id="node15" class="node">
<title>140531500008784</title>
<polygon fill="none" stroke="#000000" points="1563,-233 1509,-233 1509,-197 1563,-197 1563,-233"/>
<text text-anchor="middle" x="1536" y="-211.3" font-family="Times,serif" font-size="14.00" fill="#000000">hid_17</text>
</g>
<!-- 140531499918616 -->
<g id="node40" class="node">
<title>140531499918616</title>
<ellipse fill="none" stroke="#000000" cx="1626" cy="-206" rx="27" ry="27"/>
<text text-anchor="middle" x="1626" y="-202.3" font-family="Times,serif" font-size="14.00" fill="#000000">splace_in_Root_1</text>
</g>
<!-- 140531500008784&#45;&gt;140531499918616 -->
<g id="edge15" class="edge">
<title>140531500008784&#45;&gt;140531499918616</title>
<path fill="none" stroke="#000000" d="M1563.003,-212.2997C1571.1903,-211.481 1580.3292,-210.5671 1589.051,-209.6949"/>
<polygon fill="#000000" stroke="#000000" points="1589.414,-213.1761 1599.0161,-208.6984 1588.7174,-206.2109 1589.414,-213.1761"/>
</g>
<!-- 140531500009008 -->
<g id="node16" class="node">
<title>140531500009008</title>
<polygon fill="none" stroke="#000000" points="1563,-292 1509,-292 1509,-256 1563,-256 1563,-292"/>
<text text-anchor="middle" x="1536" y="-270.3" font-family="Times,serif" font-size="14.00" fill="#000000">hid_18</text>
</g>
<!-- 140531499921360 -->
<g id="node42" class="node">
<title>140531499921360</title>
<ellipse fill="none" stroke="#000000" cx="1626" cy="-278" rx="27" ry="27"/>
<text text-anchor="middle" x="1626" y="-274.3" font-family="Times,serif" font-size="14.00" fill="#000000">splace_in_TradeConfig_1</text>
</g>
<!-- 140531500009008&#45;&gt;140531499921360 -->
<g id="edge16" class="edge">
<title>140531500009008&#45;&gt;140531499921360</title>
<path fill="none" stroke="#000000" d="M1563.003,-275.2001C1571.1013,-275.5601 1580.1306,-275.9614 1588.7665,-276.3452"/>
<polygon fill="#000000" stroke="#000000" points="1588.8705,-279.8532 1599.0161,-276.8007 1589.1814,-272.8601 1588.8705,-279.8532"/>
</g>
<!-- 140531500686080 -->
<g id="node17" class="node">
<title>140531500686080</title>
<polygon fill="none" stroke="#000000" points="771,-166 717,-166 717,-130 771,-130 771,-166"/>
<text text-anchor="middle" x="744" y="-144.3" font-family="Times,serif" font-size="14.00" fill="#000000">hid_2</text>
</g>
<!-- 140531500686080&#45;&gt;140531500685744 -->
<g id="edge17" class="edge">
<title>140531500686080&#45;&gt;140531500685744</title>
<path fill="none" stroke="#000000" d="M771.1037,-149.37C837.0353,-151.9114 1010.4057,-153.8233 1147,-113 1156.7312,-110.0917 1166.9766,-106.1214 1176.3115,-102.1205"/>
<polygon fill="#000000" stroke="#000000" points="1177.9249,-105.2339 1185.6502,-97.9833 1175.0896,-98.8338 1177.9249,-105.2339"/>
</g>
<!-- 140531499918672 -->
<g id="node18" class="node">
<title>140531499918672</title>
<polygon fill="none" stroke="#000000" points="1147,-250 1093,-250 1093,-214 1147,-214 1147,-250"/>
<text text-anchor="middle" x="1120" y="-228.3" font-family="Times,serif" font-size="14.00" fill="#000000">hid_3</text>
</g>
<!-- 140531499918672&#45;&gt;140531500685744 -->
<g id="edge18" class="edge">
<title>140531499918672&#45;&gt;140531500685744</title>
<path fill="none" stroke="#000000" d="M1139.6509,-213.7785C1142.2619,-210.9578 1144.7945,-207.9861 1147,-205 1166.6167,-178.4398 1183.7656,-144.9612 1195.1979,-120.2847"/>
<polygon fill="#000000" stroke="#000000" points="1198.4849,-121.5115 1199.4408,-110.9599 1192.1134,-118.6124 1198.4849,-121.5115"/>
</g>
<!-- 140531499918728 -->
<g id="node19" class="node">
<title>140531499918728</title>
<polygon fill="none" stroke="#000000" points="1147,-104 1093,-104 1093,-68 1147,-68 1147,-104"/>
<text text-anchor="middle" x="1120" y="-82.3" font-family="Times,serif" font-size="14.00" fill="#000000">hid_4</text>
</g>
<!-- 140531499918728&#45;&gt;140531500685744 -->
<g id="edge19" class="edge">
<title>140531499918728&#45;&gt;140531500685744</title>
<path fill="none" stroke="#000000" d="M1147.003,-86C1155.0277,-86 1163.9665,-86 1172.5309,-86"/>
<polygon fill="#000000" stroke="#000000" points="1172.7051,-89.5001 1182.705,-86 1172.705,-82.5001 1172.7051,-89.5001"/>
</g>
<!-- 140531499917776 -->
<g id="node20" class="node">
<title>140531499917776</title>
<polygon fill="none" stroke="#000000" points="1355,-399 1301,-399 1301,-363 1355,-363 1355,-399"/>
<text text-anchor="middle" x="1328" y="-377.3" font-family="Times,serif" font-size="14.00" fill="#000000">hid_5</text>
</g>
<!-- 140531500686696 -->
<g id="node32" class="node">
<title>140531500686696</title>
<ellipse fill="none" stroke="#000000" cx="1806" cy="-277" rx="27" ry="27"/>
<text text-anchor="middle" x="1806" y="-273.3" font-family="Times,serif" font-size="14.00" fill="#000000">pre_Root</text>
</g>
<!-- 140531499917776&#45;&gt;140531500686696 -->
<g id="edge20" class="edge">
<title>140531499917776&#45;&gt;140531500686696</title>
<path fill="none" stroke="#000000" d="M1355.2492,-379.7128C1394.9826,-377.9499 1471.1536,-375 1536,-375 1536,-375 1536,-375 1626,-375 1680.2768,-375 1696.3915,-367.8142 1743,-340 1757.8184,-331.1569 1771.6859,-318.0568 1782.6171,-306.0893"/>
<polygon fill="#000000" stroke="#000000" points="1785.369,-308.2604 1789.3569,-298.4447 1780.1183,-303.6311 1785.369,-308.2604"/>
</g>
<!-- 140531499918336 -->
<g id="node21" class="node">
<title>140531499918336</title>
<polygon fill="none" stroke="#000000" points="1743,-245 1689,-245 1689,-209 1743,-209 1743,-245"/>
<text text-anchor="middle" x="1716" y="-223.3" font-family="Times,serif" font-size="14.00" fill="#000000">hid_6</text>
</g>
<!-- 140531499918336&#45;&gt;140531500686696 -->
<g id="edge21" class="edge">
<title>140531499918336&#45;&gt;140531500686696</title>
<path fill="none" stroke="#000000" d="M1743.003,-242.0016C1752.5964,-247.3313 1763.4963,-253.3868 1773.5008,-258.9449"/>
<polygon fill="#000000" stroke="#000000" points="1771.9324,-262.0774 1782.3738,-263.8743 1775.332,-255.9583 1771.9324,-262.0774"/>
</g>
<!-- 140531499917944 -->
<g id="node22" class="node">
<title>140531499917944</title>
<polygon fill="none" stroke="#000000" points="528.5,-239 474.5,-239 474.5,-203 528.5,-203 528.5,-239"/>
<text text-anchor="middle" x="501.5" y="-217.3" font-family="Times,serif" font-size="14.00" fill="#000000">hid_7</text>
</g>
<!-- 140531499917888 -->
<g id="node34" class="node">
<title>140531499917888</title>
<ellipse fill="none" stroke="#000000" cx="638" cy="-222" rx="27" ry="27"/>
<text text-anchor="middle" x="638" y="-218.3" font-family="Times,serif" font-size="14.00" fill="#000000">pre_TradeConfig</text>
</g>
<!-- 140531499917944&#45;&gt;140531499917888 -->
<g id="edge22" class="edge">
<title>140531499917944&#45;&gt;140531499917888</title>
<path fill="none" stroke="#000000" d="M528.7947,-221.2C549.347,-221.3505 577.762,-221.5587 600.4552,-221.7249"/>
<polygon fill="#000000" stroke="#000000" points="600.7272,-225.2269 610.7526,-221.8004 600.7785,-218.2271 600.7272,-225.2269"/>
</g>
<!-- 140531499920912 -->
<g id="node23" class="node">
<title>140531499920912</title>
<polygon fill="none" stroke="#000000" points="1743,-331 1689,-331 1689,-295 1743,-295 1743,-331"/>
<text text-anchor="middle" x="1716" y="-309.3" font-family="Times,serif" font-size="14.00" fill="#000000">hid_8</text>
</g>
<!-- 140531499920912&#45;&gt;140531499917888 -->
<g id="edge23" class="edge">
<title>140531499920912&#45;&gt;140531499917888</title>
<path fill="none" stroke="#000000" d="M1688.9637,-317.8926C1653.839,-323.8135 1590.5524,-333 1536,-333 850,-333 850,-333 850,-333 776.6936,-333 703.7255,-280.267 665.4551,-247.4939"/>
<polygon fill="#000000" stroke="#000000" points="667.6611,-244.7736 657.8277,-240.8296 663.0554,-250.045 667.6611,-244.7736"/>
</g>
<!-- 140531499781592 -->
<g id="node24" class="node">
<title>140531499781592</title>
<polygon fill="none" stroke="#000000" points="1147,-304 1093,-304 1093,-268 1147,-268 1147,-304"/>
<text text-anchor="middle" x="1120" y="-282.3" font-family="Times,serif" font-size="14.00" fill="#000000">hid_9</text>
</g>
<!-- 140531499781592&#45;&gt;140531499781424 -->
<g id="edge24" class="edge">
<title>140531499781592&#45;&gt;140531499781424</title>
<path fill="none" stroke="#000000" d="M1147.003,-275.4988C1155.8415,-272.0616 1165.7891,-268.1931 1175.1238,-264.563"/>
<polygon fill="#000000" stroke="#000000" points="1176.5059,-267.7809 1184.5574,-260.8944 1173.9687,-261.2569 1176.5059,-267.7809"/>
</g>
<!-- 140531499583304 -->
<g id="node25" class="node">
<title>140531499583304</title>
<ellipse fill="#00ff00" stroke="#000000" cx="1030" cy="-93" rx="27" ry="27"/>
<text text-anchor="middle" x="1030" y="-89.3" font-family="Times,serif" font-size="14.00" fill="#000000">1</text>
</g>
<!-- 140531499583304&#45;&gt;140531499781312 -->
<g id="edge39" class="edge">
<title>140531499583304&#45;&gt;140531499781312</title>
<path fill="none" stroke="#000000" d="M1049.9739,-111.8643C1062.7328,-123.9143 1079.4274,-139.6814 1093.3156,-152.798"/>
<polygon fill="#000000" stroke="#000000" points="1091.0263,-155.4502 1100.6996,-159.7719 1095.8327,-150.3611 1091.0263,-155.4502"/>
</g>
<!-- 140531499583304&#45;&gt;140531499918728 -->
<g id="edge40" class="edge">
<title>140531499583304&#45;&gt;140531499918728</title>
<path fill="none" stroke="#000000" d="M1057.003,-90.8998C1065.0277,-90.2756 1073.9665,-89.5804 1082.5309,-88.9143"/>
<polygon fill="#000000" stroke="#000000" points="1083.0066,-92.3879 1092.705,-88.1229 1082.4637,-85.409 1083.0066,-92.3879"/>
</g>
<!-- 140531499781704&#45;&gt;140531499781480 -->
<g id="edge25" class="edge">
<title>140531499781704&#45;&gt;140531499781480</title>
<path fill="none" stroke="#000000" d="M207.2472,-132.1798C217.4514,-124.9235 229.7738,-116.1609 241.0965,-108.1092"/>
<polygon fill="#000000" stroke="#000000" points="243.3873,-110.7749 249.5086,-102.1272 239.3306,-105.0702 243.3873,-110.7749"/>
</g>
<!-- 140531499781704&#45;&gt;140531499781984 -->
<g id="edge26" class="edge">
<title>140531499781704&#45;&gt;140531499781984</title>
<path fill="none" stroke="#000000" d="M197.9479,-171.8429C209.3207,-191.2708 227.26,-218.5718 248,-238 271.9865,-260.4693 304.2118,-279.3863 328.7689,-292.0295"/>
<polygon fill="#000000" stroke="#000000" points="327.2663,-295.1915 337.772,-296.5623 330.4141,-288.9392 327.2663,-295.1915"/>
</g>
<!-- 140531499781704&#45;&gt;140531500007608 -->
<g id="edge27" class="edge">
<title>140531499781704&#45;&gt;140531500007608</title>
<path fill="none" stroke="#000000" d="M212.003,-148C220.0277,-148 228.9665,-148 237.5309,-148"/>
<polygon fill="#000000" stroke="#000000" points="237.7051,-151.5001 247.705,-148 237.705,-144.5001 237.7051,-151.5001"/>
</g>
<!-- 140531499781704&#45;&gt;140531500007832 -->
<g id="edge28" class="edge">
<title>140531499781704&#45;&gt;140531500007832</title>
<path fill="none" stroke="#000000" d="M207.2472,-163.573C217.3684,-170.6579 229.5735,-179.2015 240.8201,-187.0741"/>
<polygon fill="#000000" stroke="#000000" points="238.9838,-190.0609 249.1832,-192.9283 242.998,-184.3263 238.9838,-190.0609"/>
</g>
<!-- 140531500008616&#45;&gt;140531500008784 -->
<g id="edge29" class="edge">
<title>140531500008616&#45;&gt;140531500008784</title>
<path fill="none" stroke="#000000" d="M1471.07,-240.972C1479.8861,-237.4456 1489.9811,-233.4076 1499.542,-229.5832"/>
<polygon fill="#000000" stroke="#000000" points="1500.8729,-232.8205 1508.8578,-225.8569 1498.2731,-226.3212 1500.8729,-232.8205"/>
</g>
<!-- 140531500008616&#45;&gt;140531500009008 -->
<g id="edge30" class="edge">
<title>140531500008616&#45;&gt;140531500009008</title>
<path fill="none" stroke="#000000" d="M1472.5162,-257.7764C1480.8043,-259.8944 1490.1048,-262.2712 1498.9779,-264.5388"/>
<polygon fill="#000000" stroke="#000000" points="1498.1823,-267.9479 1508.7375,-267.0329 1499.9155,-261.1658 1498.1823,-267.9479"/>
</g>
<!-- 140531499782040&#45;&gt;140531500008168 -->
<g id="edge31" class="edge">
<title>140531499782040&#45;&gt;140531500008168</title>
<path fill="none" stroke="#000000" d="M877.003,-221.3999C885.0277,-221.2216 893.9665,-221.023 902.5309,-220.8326"/>
<polygon fill="#000000" stroke="#000000" points="902.7853,-224.328 912.705,-220.6066 902.6297,-217.3297 902.7853,-224.328"/>
</g>
<!-- 140531499782040&#45;&gt;140531500008392 -->
<g id="edge32" class="edge">
<title>140531499782040&#45;&gt;140531500008392</title>
<path fill="none" stroke="#000000" d="M873.6464,-235.9251C882.9112,-241.381 893.7479,-247.7627 903.9459,-253.7682"/>
<polygon fill="#000000" stroke="#000000" points="902.2949,-256.8576 912.6878,-258.9162 905.847,-250.8258 902.2949,-256.8576"/>
</g>
<!-- 140531500685744&#45;&gt;140531499583472 -->
<g id="edge33" class="edge">
<title>140531500685744&#45;&gt;140531499583472</title>
<path fill="none" stroke="#000000" d="M1189.1108,-68.3891C1157.065,-43.2287 1092.8599,0 1030,0 275,0 275,0 275,0 211.5905,0 143.1288,-29.3782 101.1552,-51.1132"/>
<polygon fill="#000000" stroke="#000000" points="99.3067,-48.1314 92.0999,-55.8976 102.5768,-54.3206 99.3067,-48.1314"/>
</g>
<!-- 140531499781424&#45;&gt;140531499583248 -->
<g id="edge34" class="edge">
<title>140531499781424&#45;&gt;140531499583248</title>
<path fill="none" stroke="#000000" d="M1237.0716,-251C1244.7837,-251 1253.5375,-251 1262.4936,-251"/>
<polygon fill="#000000" stroke="#000000" points="1262.6468,-254.5001 1272.6467,-251 1262.6467,-247.5001 1262.6468,-254.5001"/>
</g>
<!-- 140531499918000&#45;&gt;140531499583192 -->
<g id="edge35" class="edge">
<title>140531499918000&#45;&gt;140531499583192</title>
<path fill="none" stroke="#000000" d="M392.2947,-72.4001C399.9509,-72.2318 408.6981,-72.0396 417.8342,-71.8388"/>
<polygon fill="#000000" stroke="#000000" points="417.9466,-75.3373 427.8672,-71.6183 417.7927,-68.339 417.9466,-75.3373"/>
</g>
<!-- 140531500686696&#45;&gt;140531499582800 -->
<g id="edge36" class="edge">
<title>140531500686696&#45;&gt;140531499582800</title>
<path fill="none" stroke="#000000" d="M1833.003,-277C1841.0277,-277 1849.9665,-277 1858.5309,-277"/>
<polygon fill="#000000" stroke="#000000" points="1858.7051,-280.5001 1868.705,-277 1858.705,-273.5001 1858.7051,-280.5001"/>
</g>
<!-- 140531499917832&#45;&gt;140531499583360 -->
<g id="edge37" class="edge">
<title>140531499917832&#45;&gt;140531499583360</title>
<path fill="none" stroke="#000000" d="M392.2947,-148C410.4808,-148 434.8232,-148 455.9102,-148"/>
<polygon fill="#000000" stroke="#000000" points="455.9592,-151.5001 465.9592,-148 455.9592,-144.5001 455.9592,-151.5001"/>
</g>
<!-- 140531499917888&#45;&gt;140531499583024 -->
<g id="edge38" class="edge">
<title>140531499917888&#45;&gt;140531499583024</title>
<path fill="none" stroke="#000000" d="M665.0225,-222C672.9553,-222 681.9196,-222 690.8881,-222"/>
<polygon fill="#000000" stroke="#000000" points="690.961,-225.5001 700.961,-222 690.9609,-218.5001 690.961,-225.5001"/>
</g>
<!-- 140531500686752&#45;&gt;140531500686528 -->
<g id="edge41" class="edge">
<title>140531500686752&#45;&gt;140531500686528</title>
<path fill="none" stroke="#000000" d="M665.2813,-63.5845C702.8078,-61.6373 770.4896,-58.1255 812.6801,-55.9364"/>
<polygon fill="#000000" stroke="#000000" points="813.0183,-59.4237 822.8234,-55.4101 812.6555,-52.4331 813.0183,-59.4237"/>
</g>
<!-- 140531499920856&#45;&gt;140531500686080 -->
<g id="edge42" class="edge">
<title>140531499920856&#45;&gt;140531500686080</title>
<path fill="none" stroke="#000000" d="M665.0225,-148C677.6333,-148 692.8509,-148 706.5484,-148"/>
<polygon fill="#000000" stroke="#000000" points="706.6583,-151.5001 716.6582,-148 706.6582,-144.5001 706.6583,-151.5001"/>
</g>
<!-- 140531499918784&#45;&gt;140531499918672 -->
<g id="edge43" class="edge">
<title>140531499918784&#45;&gt;140531499918672</title>
<path fill="none" stroke="#000000" d="M1056.0317,-213.5203C1064.4955,-215.9654 1074.055,-218.727 1083.1543,-221.3557"/>
<polygon fill="#000000" stroke="#000000" points="1082.1952,-224.7217 1092.7738,-224.1347 1084.1381,-217.9967 1082.1952,-224.7217"/>
</g>
<!-- 140531499779128&#45;&gt;140531499781592 -->
<g id="edge44" class="edge">
<title>140531499779128&#45;&gt;140531499781592</title>
<path fill="none" stroke="#000000" d="M1057.003,-280.4003C1065.0277,-281.1136 1073.9665,-281.9081 1082.5309,-282.6694"/>
<polygon fill="#000000" stroke="#000000" points="1082.4344,-286.1745 1092.705,-283.5738 1083.0542,-279.202 1082.4344,-286.1745"/>
</g>
<!-- 140531499918112&#45;&gt;140531499917776 -->
<g id="edge45" class="edge">
<title>140531499918112&#45;&gt;140531499917776</title>
<path fill="none" stroke="#000000" d="M771.265,-387.0923C809.1232,-385.9122 879.7583,-384 940,-384 940,-384 940,-384 1120,-384 1179.635,-384 1248.8775,-382.7518 1290.522,-381.8657"/>
<polygon fill="#000000" stroke="#000000" points="1290.8238,-385.3601 1300.7454,-381.6436 1290.6717,-378.3617 1290.8238,-385.3601"/>
</g>
<!-- 140531499918616&#45;&gt;140531499918336 -->
<g id="edge46" class="edge">
<title>140531499918616&#45;&gt;140531499918336</title>
<path fill="none" stroke="#000000" d="M1652.5162,-212.1871C1660.8043,-214.121 1670.1048,-216.2911 1678.9779,-218.3615"/>
<polygon fill="#000000" stroke="#000000" points="1678.2038,-221.7748 1688.7375,-220.6388 1679.7944,-214.9579 1678.2038,-221.7748"/>
</g>
<!-- 140531499918224&#45;&gt;140531499917944 -->
<g id="edge47" class="edge">
<title>140531499918224&#45;&gt;140531499917944</title>
<path fill="none" stroke="#000000" d="M392.2947,-220.2C412.847,-220.3505 441.262,-220.5587 463.9552,-220.7249"/>
<polygon fill="#000000" stroke="#000000" points="464.2272,-224.2269 474.2526,-220.8004 464.2785,-217.2271 464.2272,-224.2269"/>
</g>
<!-- 140531499921360&#45;&gt;140531499920912 -->
<g id="edge48" class="edge">
<title>140531499921360&#45;&gt;140531499920912</title>
<path fill="none" stroke="#000000" d="M1651.5497,-287.936C1660.1894,-291.2959 1670.0137,-295.1164 1679.3423,-298.7442"/>
<polygon fill="#000000" stroke="#000000" points="1678.2253,-302.0651 1688.8139,-302.4276 1680.7624,-295.5411 1678.2253,-302.0651"/>
</g>
</g>
</svg>
