<?xml version="1.0" encoding="UTF-8" standalone="no"?>
<!DOCTYPE svg PUBLIC "-//W3C//DTD SVG 1.1//EN"
 "http://www.w3.org/Graphics/SVG/1.1/DTD/svg11.dtd">
<!-- Generated by graphviz version 2.40.1 (20161225.0304)
 -->
<!-- Title: imdf_net_1585321016.7550597 Pages: 1 -->
<svg width="787pt" height="870pt"
 viewBox="0.00 0.00 787.00 870.00" xmlns="http://www.w3.org/2000/svg" xmlns:xlink="http://www.w3.org/1999/xlink">
<g id="graph0" class="graph" transform="scale(1 1) rotate(0) translate(4 866)">
<title>imdf_net_1585321016.7550597</title>
<!-- 140531501378024 -->
<g id="node1" class="node">
<title>140531501378024</title>
<polygon fill="none" stroke="#000000" points="116,-387 0,-387 0,-351 116,-351 116,-387"/>
<text text-anchor="middle" x="58" y="-365.3" font-family="Times,serif" font-size="14.00" fill="#000000">AccountDataBean</text>
</g>
<!-- 140531499819192 -->
<g id="node28" class="node">
<title>140531499819192</title>
<ellipse fill="none" stroke="#000000" cx="179" cy="-452" rx="27" ry="27"/>
<text text-anchor="middle" x="179" y="-448.3" font-family="Times,serif" font-size="14.00" fill="#000000">p_6</text>
</g>
<!-- 140531501378024&#45;&gt;140531499819192 -->
<g id="edge13" class="edge">
<title>140531501378024&#45;&gt;140531499819192</title>
<path fill="none" stroke="#000000" d="M84.2552,-387.0098C103.0245,-399.8846 128.3506,-417.257 148.0959,-430.8013"/>
<polygon fill="#000000" stroke="#000000" points="146.2296,-433.7654 156.4558,-436.5358 150.1893,-427.9929 146.2296,-433.7654"/>
</g>
<!-- 140531501378192 -->
<g id="node2" class="node">
<title>140531501378192</title>
<polygon fill="none" stroke="#000000" points="779,-751 627,-751 627,-715 779,-715 779,-751"/>
<text text-anchor="middle" x="703" y="-729.3" font-family="Times,serif" font-size="14.00" fill="#000000">AccountProfileDataBean</text>
</g>
<!-- 140531501378192&#45;&gt;140531499819192 -->
<g id="edge1" class="edge">
<title>140531501378192&#45;&gt;140531499819192</title>
<path fill="none" stroke="#000000" d="M626.7538,-750.2619C579.441,-759.5011 517.2433,-769 461.5,-769 359,-769 359,-769 359,-769 303.8996,-769 278.7069,-769.0932 242,-728 210.6873,-692.9456 190.9968,-556.2044 183.041,-489.2927"/>
<polygon fill="#000000" stroke="#000000" points="186.4967,-488.7084 181.8649,-479.1796 179.5436,-489.517 186.4967,-488.7084"/>
</g>
<!-- 140531499583136 -->
<g id="node3" class="node">
<title>140531499583136</title>
<polygon fill="none" stroke="#000000" points="764,-693 642,-693 642,-657 764,-657 764,-693"/>
<text text-anchor="middle" x="703" y="-671.3" font-family="Times,serif" font-size="14.00" fill="#000000">DTStreamer3MDB</text>
</g>
<!-- 140531499583136&#45;&gt;140531499819192 -->
<g id="edge9" class="edge">
<title>140531499583136&#45;&gt;140531499819192</title>
<path fill="none" stroke="#000000" d="M654.7333,-693.027C606.5197,-709.3976 529.9329,-731 461.5,-731 359,-731 359,-731 359,-731 305.0902,-731 279.79,-737.4472 242,-699 212.8945,-669.3883 192.6089,-550.4811 183.851,-489.0926"/>
<polygon fill="#000000" stroke="#000000" points="187.2972,-488.4639 182.4473,-479.0443 180.3645,-489.4324 187.2972,-488.4639"/>
</g>
<!-- 140531499584536 -->
<g id="node4" class="node">
<title>140531499584536</title>
<polygon fill="none" stroke="#000000" points="749.5,-638 656.5,-638 656.5,-602 749.5,-602 749.5,-638"/>
<text text-anchor="middle" x="703" y="-616.3" font-family="Times,serif" font-size="14.00" fill="#000000">FinancialUtils</text>
</g>
<!-- 140531499584536&#45;&gt;140531499819192 -->
<g id="edge18" class="edge">
<title>140531499584536&#45;&gt;140531499819192</title>
<path fill="none" stroke="#000000" d="M656.2521,-620.3082C607.6041,-620.602 529.2128,-621 461.5,-621 359,-621 359,-621 359,-621 301.1573,-621 284.0906,-603.6757 242,-564 219.3136,-542.6152 202.6221,-511.2029 192.1409,-487.0832"/>
<polygon fill="#000000" stroke="#000000" points="195.2511,-485.4488 188.1628,-477.5743 188.7934,-488.1504 195.2511,-485.4488"/>
</g>
<!-- 140531499584088 -->
<g id="node5" class="node">
<title>140531499584088</title>
<polygon fill="none" stroke="#000000" points="760,-583 646,-583 646,-547 760,-547 760,-583"/>
<text text-anchor="middle" x="703" y="-561.3" font-family="Times,serif" font-size="14.00" fill="#000000">HoldingDataBean</text>
</g>
<!-- 140531499584088&#45;&gt;140531499819192 -->
<g id="edge4" class="edge">
<title>140531499584088&#45;&gt;140531499819192</title>
<path fill="none" stroke="#000000" d="M645.9994,-571.6514C597.1188,-576.7789 524.7753,-583 461.5,-583 359,-583 359,-583 359,-583 302.2745,-583 286.9031,-566.6624 242,-532 224.8791,-518.7837 209.7338,-499.9282 198.586,-483.8421"/>
<polygon fill="#000000" stroke="#000000" points="201.295,-481.5976 192.8169,-475.2436 195.4821,-485.4977 201.295,-481.5976"/>
</g>
<!-- 140531499582968 -->
<g id="node6" class="node">
<title>140531499582968</title>
<polygon fill="none" stroke="#000000" points="730,-528 676,-528 676,-492 730,-492 730,-528"/>
<text text-anchor="middle" x="703" y="-506.3" font-family="Times,serif" font-size="14.00" fill="#000000">Log</text>
</g>
<!-- 140531499582968&#45;&gt;140531499819192 -->
<g id="edge8" class="edge">
<title>140531499582968&#45;&gt;140531499819192</title>
<path fill="none" stroke="#000000" d="M675.6615,-516.5832C631.0929,-526.7219 539.8755,-545 461.5,-545 359,-545 359,-545 359,-545 303.8996,-545 289.9929,-531.0691 242,-504 229.3019,-496.838 216.6433,-487.0431 206.0401,-477.8847"/>
<polygon fill="#000000" stroke="#000000" points="208.164,-475.0898 198.3657,-471.0595 203.5121,-480.3204 208.164,-475.0898"/>
</g>
<!-- 140531499584256 -->
<g id="node7" class="node">
<title>140531499584256</title>
<polygon fill="none" stroke="#000000" points="740,-472 666,-472 666,-436 740,-436 740,-472"/>
<text text-anchor="middle" x="703" y="-450.3" font-family="Times,serif" font-size="14.00" fill="#000000">MDBStats</text>
</g>
<!-- 140531499584256&#45;&gt;140531499819192 -->
<g id="edge6" class="edge">
<title>140531499584256&#45;&gt;140531499819192</title>
<path fill="none" stroke="#000000" d="M665.9066,-467.3741C618.9684,-483.075 535.3308,-507 461.5,-507 359,-507 359,-507 359,-507 305.984,-507 247.8679,-484.9082 212.4111,-468.727"/>
<polygon fill="#000000" stroke="#000000" points="213.5757,-465.4079 203.0345,-464.3431 210.6109,-471.749 213.5757,-465.4079"/>
</g>
<!-- 140531499585152 -->
<g id="node8" class="node">
<title>140531499585152</title>
<polygon fill="none" stroke="#000000" points="753.5,-414 652.5,-414 652.5,-378 753.5,-378 753.5,-414"/>
<text text-anchor="middle" x="703" y="-392.3" font-family="Times,serif" font-size="14.00" fill="#000000">OrderDataBean</text>
</g>
<!-- 140531499585152&#45;&gt;140531499819192 -->
<g id="edge3" class="edge">
<title>140531499585152&#45;&gt;140531499819192</title>
<path fill="none" stroke="#000000" d="M652.1171,-396.333C603.2439,-396.6239 527.3261,-397 461.5,-397 359,-397 359,-397 359,-397 305.984,-397 247.8679,-419.0918 212.4111,-435.273"/>
<polygon fill="#000000" stroke="#000000" points="210.6109,-432.251 203.0345,-439.6569 213.5757,-438.5921 210.6109,-432.251"/>
</g>
<!-- 140531499820088 -->
<g id="node9" class="node">
<title>140531499820088</title>
<polygon fill="none" stroke="#000000" points="758,-252 648,-252 648,-216 758,-216 758,-252"/>
<text text-anchor="middle" x="703" y="-230.3" font-family="Times,serif" font-size="14.00" fill="#000000">OrdersAlertFilter</text>
</g>
<!-- 140531499820088&#45;&gt;140531499819192 -->
<g id="edge17" class="edge">
<title>140531499820088&#45;&gt;140531499819192</title>
<path fill="none" stroke="#000000" d="M647.7503,-216.683C588.2807,-198.6487 497.3924,-173 461.5,-173 359,-173 359,-173 359,-173 303.7511,-173 278.5033,-173.5277 242,-215 192.982,-270.6905 226.7603,-306.7736 206,-378 202.1953,-391.0534 197.2735,-405.1291 192.6761,-417.4643"/>
<polygon fill="#000000" stroke="#000000" points="189.3594,-416.3395 189.0862,-426.9309 195.9046,-418.8217 189.3594,-416.3395"/>
</g>
<!-- 140531499584760 -->
<g id="node10" class="node">
<title>140531499584760</title>
<polygon fill="none" stroke="#000000" points="754.5,-144 651.5,-144 651.5,-108 754.5,-108 754.5,-144"/>
<text text-anchor="middle" x="703" y="-122.3" font-family="Times,serif" font-size="14.00" fill="#000000">QuoteDataBean</text>
</g>
<!-- 140531499584760&#45;&gt;140531499819192 -->
<g id="edge16" class="edge">
<title>140531499584760&#45;&gt;140531499819192</title>
<path fill="none" stroke="#000000" d="M651.3948,-116.1819C602.6438,-107.7688 527.3761,-97 461.5,-97 359,-97 359,-97 359,-97 304.4618,-97 277.3632,-92.4806 242,-134 170.9221,-217.4514 232.9256,-271.7399 206,-378 202.6603,-391.18 197.8422,-405.284 193.1979,-417.6064"/>
<polygon fill="#000000" stroke="#000000" points="189.8864,-416.4658 189.542,-427.055 196.4148,-418.9918 189.8864,-416.4658"/>
</g>
<!-- 140531499585320 -->
<g id="node11" class="node">
<title>140531499585320</title>
<polygon fill="none" stroke="#000000" points="776.5,-90 629.5,-90 629.5,-54 776.5,-54 776.5,-90"/>
<text text-anchor="middle" x="703" y="-68.3" font-family="Times,serif" font-size="14.00" fill="#000000">RecentStockChangeList</text>
</g>
<!-- 140531499585320&#45;&gt;140531499819192 -->
<g id="edge14" class="edge">
<title>140531499585320&#45;&gt;140531499819192</title>
<path fill="none" stroke="#000000" d="M629.3357,-65.9757C581.5312,-62.5751 517.8686,-59 461.5,-59 359,-59 359,-59 359,-59 304.4618,-59 276.9565,-54.1376 242,-96 201.5076,-144.492 220.9196,-316.6118 206,-378 202.789,-391.212 197.9997,-405.3231 193.3424,-417.6422"/>
<polygon fill="#000000" stroke="#000000" points="190.0321,-416.4977 189.6682,-427.0863 196.5558,-419.0358 190.0321,-416.4977"/>
</g>
<!-- 140531499819080 -->
<g id="node12" class="node">
<title>140531499819080</title>
<polygon fill="none" stroke="#000000" points="488.5,-694 434.5,-694 434.5,-658 488.5,-658 488.5,-694"/>
<text text-anchor="middle" x="461.5" y="-672.3" font-family="Times,serif" font-size="14.00" fill="#000000">Root</text>
</g>
<!-- 140531499717632 -->
<g id="node30" class="node">
<title>140531499717632</title>
<ellipse fill="#ffa500" stroke="#000000" cx="564" cy="-676" rx="27" ry="27"/>
</g>
<!-- 140531499819080&#45;&gt;140531499717632 -->
<g id="edge12" class="edge">
<title>140531499819080&#45;&gt;140531499717632</title>
<path fill="none" stroke="#000000" d="M488.699,-676C500.2828,-676 513.9866,-676 526.5073,-676"/>
<polygon fill="#000000" stroke="#000000" points="526.6739,-679.5001 536.6739,-676 526.6739,-672.5001 526.6739,-679.5001"/>
</g>
<!-- 140531501378248 -->
<g id="node13" class="node">
<title>140531501378248</title>
<polygon fill="none" stroke="#000000" points="738.5,-36 667.5,-36 667.5,0 738.5,0 738.5,-36"/>
<text text-anchor="middle" x="703" y="-14.3" font-family="Times,serif" font-size="14.00" fill="#000000">TimerStat</text>
</g>
<!-- 140531501378248&#45;&gt;140531499819192 -->
<g id="edge7" class="edge">
<title>140531501378248&#45;&gt;140531499819192</title>
<path fill="none" stroke="#000000" d="M667.4007,-18.2395C620.2936,-18.5354 534.6634,-19 461.5,-19 359,-19 359,-19 359,-19 304.1872,-19 276.4888,-15.3976 242,-58 196.9739,-113.6187 222.3796,-308.3401 206,-378 202.8878,-391.2356 198.1206,-405.352 193.4533,-417.6688"/>
<polygon fill="#000000" stroke="#000000" points="190.1439,-416.5214 189.7651,-427.1095 196.664,-419.0686 190.1439,-416.5214"/>
</g>
<!-- 140531499584424 -->
<g id="node14" class="node">
<title>140531499584424</title>
<polygon fill="none" stroke="#000000" points="745.5,-360 660.5,-360 660.5,-324 745.5,-324 745.5,-360"/>
<text text-anchor="middle" x="703" y="-338.3" font-family="Times,serif" font-size="14.00" fill="#000000">TradeAction</text>
</g>
<!-- 140531499584424&#45;&gt;140531499819192 -->
<g id="edge5" class="edge">
<title>140531499584424&#45;&gt;140531499819192</title>
<path fill="none" stroke="#000000" d="M660.2882,-327.1478C649.4031,-323.2746 637.7442,-319.0492 627,-315 552.8989,-287.0734 540.6888,-249 461.5,-249 359,-249 359,-249 359,-249 299.297,-249 282.4376,-271.0768 242,-315 227.5347,-330.7121 205.9171,-382.0467 192.14,-417.2137"/>
<polygon fill="#000000" stroke="#000000" points="188.8288,-416.072 188.4745,-426.6609 195.3548,-418.6041 188.8288,-416.072"/>
</g>
<!-- 140531501378416 -->
<g id="node15" class="node">
<title>140531501378416</title>
<polygon fill="none" stroke="#000000" points="758,-306 648,-306 648,-270 758,-270 758,-306"/>
<text text-anchor="middle" x="703" y="-284.3" font-family="Times,serif" font-size="14.00" fill="#000000">TradeAppServlet</text>
</g>
<!-- 140531501378416&#45;&gt;140531499819192 -->
<g id="edge10" class="edge">
<title>140531501378416&#45;&gt;140531499819192</title>
<path fill="none" stroke="#000000" d="M652.1065,-269.9469C587.1417,-247.188 480.8079,-211 461.5,-211 359,-211 359,-211 359,-211 302.6238,-211 279.8114,-218.1841 242,-260 205.225,-300.6697 223.4032,-326.0044 206,-378 201.7187,-390.7912 196.7284,-404.7108 192.2111,-416.9905"/>
<polygon fill="#000000" stroke="#000000" points="188.9045,-415.8409 188.7122,-426.434 195.4685,-418.273 188.9045,-415.8409"/>
</g>
<!-- 140531499581792 -->
<g id="node16" class="node">
<title>140531499581792</title>
<polygon fill="none" stroke="#000000" points="746,-862 660,-862 660,-826 746,-826 746,-862"/>
<text text-anchor="middle" x="703" y="-840.3" font-family="Times,serif" font-size="14.00" fill="#000000">TradeConfig</text>
</g>
<!-- 140531499581792&#45;&gt;140531499819192 -->
<g id="edge2" class="edge">
<title>140531499581792&#45;&gt;140531499819192</title>
<path fill="none" stroke="#000000" d="M659.8115,-844.2866C611.4938,-844.5821 530.8899,-845 461.5,-845 359,-845 359,-845 359,-845 302.2745,-845 277.2679,-838.4292 242,-794 204.8503,-747.2003 187.485,-568.3097 181.5191,-489.5732"/>
<polygon fill="#000000" stroke="#000000" points="184.9768,-488.8681 180.7521,-479.152 177.9956,-489.382 184.9768,-488.8681"/>
</g>
<!-- 140531501378136 -->
<g id="node17" class="node">
<title>140531501378136</title>
<polygon fill="none" stroke="#000000" points="757,-198 649,-198 649,-162 757,-162 757,-198"/>
<text text-anchor="middle" x="703" y="-176.3" font-family="Times,serif" font-size="14.00" fill="#000000">TradeSLSBBean</text>
</g>
<!-- 140531501378136&#45;&gt;140531499819192 -->
<g id="edge11" class="edge">
<title>140531501378136&#45;&gt;140531499819192</title>
<path fill="none" stroke="#000000" d="M648.8655,-164.008C600.27,-151.0737 526.7526,-135 461.5,-135 359,-135 359,-135 359,-135 304.3261,-135 277.8574,-131.7268 242,-173 181.3311,-242.8321 229.9463,-288.6478 206,-378 202.4803,-391.1331 197.6221,-405.2267 192.9959,-417.5537"/>
<polygon fill="#000000" stroke="#000000" points="189.6826,-416.4189 189.3656,-427.009 196.2175,-418.928 189.6826,-416.4189"/>
</g>
<!-- 140531499582856 -->
<g id="node18" class="node">
<title>140531499582856</title>
<polygon fill="none" stroke="#000000" points="764.5,-807 641.5,-807 641.5,-771 764.5,-771 764.5,-807"/>
<text text-anchor="middle" x="703" y="-785.3" font-family="Times,serif" font-size="14.00" fill="#000000">TradeServletAction</text>
</g>
<!-- 140531499582856&#45;&gt;140531499819192 -->
<g id="edge15" class="edge">
<title>140531499582856&#45;&gt;140531499819192</title>
<path fill="none" stroke="#000000" d="M641.302,-796.1399C592.5613,-801.1654 522.7782,-807 461.5,-807 359,-807 359,-807 359,-807 302.9612,-807 277.8989,-803.0304 242,-760 207.9251,-719.156 189.217,-561.959 182.2289,-489.2648"/>
<polygon fill="#000000" stroke="#000000" points="185.7013,-488.8058 181.2825,-479.1765 178.7319,-489.4597 185.7013,-488.8058"/>
</g>
<!-- 140531499821656 -->
<g id="node19" class="node">
<title>140531499821656</title>
<polygon fill="none" stroke="#000000" points="501,-360 422,-360 422,-324 501,-324 501,-360"/>
<text text-anchor="middle" x="461.5" y="-338.3" font-family="Times,serif" font-size="14.00" fill="#000000">init_loop_2</text>
</g>
<!-- 140531499821768 -->
<g id="node27" class="node">
<title>140531499821768</title>
<ellipse fill="none" stroke="#000000" cx="564" cy="-342" rx="27" ry="27"/>
<text text-anchor="middle" x="564" y="-338.3" font-family="Times,serif" font-size="14.00" fill="#000000">p_5</text>
</g>
<!-- 140531499821656&#45;&gt;140531499821768 -->
<g id="edge19" class="edge">
<title>140531499821656&#45;&gt;140531499821768</title>
<path fill="none" stroke="#000000" d="M501.1292,-342C509.5266,-342 518.3634,-342 526.672,-342"/>
<polygon fill="#000000" stroke="#000000" points="526.8409,-345.5001 536.8409,-342 526.8408,-338.5001 526.8409,-345.5001"/>
</g>
<!-- 140531499819248 -->
<g id="node20" class="node">
<title>140531499819248</title>
<polygon fill="none" stroke="#000000" points="488.5,-466 434.5,-466 434.5,-430 488.5,-430 488.5,-466"/>
<text text-anchor="middle" x="461.5" y="-444.3" font-family="Times,serif" font-size="14.00" fill="#000000">loop_3</text>
</g>
<!-- 140531499819248&#45;&gt;140531499821768 -->
<g id="edge20" class="edge">
<title>140531499819248&#45;&gt;140531499821768</title>
<path fill="none" stroke="#000000" d="M479.3541,-429.5362C495.5576,-412.7795 519.6496,-387.8648 537.9921,-368.896"/>
<polygon fill="#000000" stroke="#000000" points="540.5254,-371.3111 544.9608,-361.6894 535.4933,-366.4452 540.5254,-371.3111"/>
</g>
<!-- 140531499581512 -->
<g id="node21" class="node">
<title>140531499581512</title>
<polygon fill="none" stroke="#000000" points="296,-470 242,-470 242,-434 296,-434 296,-470"/>
<text text-anchor="middle" x="269" y="-448.3" font-family="Times,serif" font-size="14.00" fill="#000000">skip_4</text>
</g>
<!-- 140531499819864 -->
<g id="node29" class="node">
<title>140531499819864</title>
<ellipse fill="none" stroke="#000000" cx="359" cy="-452" rx="27" ry="27"/>
<text text-anchor="middle" x="359" y="-448.3" font-family="Times,serif" font-size="14.00" fill="#000000">p_7</text>
</g>
<!-- 140531499581512&#45;&gt;140531499819864 -->
<g id="edge43" class="edge">
<title>140531499581512&#45;&gt;140531499819864</title>
<path fill="none" stroke="#000000" d="M296.003,-452C304.0277,-452 312.9665,-452 321.5309,-452"/>
<polygon fill="#000000" stroke="#000000" points="321.7051,-455.5001 331.705,-452 321.705,-448.5001 321.7051,-455.5001"/>
</g>
<!-- 140531499583920 -->
<g id="node22" class="node">
<title>140531499583920</title>
<polygon fill="none" stroke="#000000" points="296,-690 242,-690 242,-654 296,-654 296,-690"/>
<text text-anchor="middle" x="269" y="-668.3" font-family="Times,serif" font-size="14.00" fill="#000000">skip_5</text>
</g>
<!-- 140531499820872 -->
<g id="node26" class="node">
<title>140531499820872</title>
<ellipse fill="none" stroke="#000000" cx="359" cy="-676" rx="27" ry="27"/>
<text text-anchor="middle" x="359" y="-672.3" font-family="Times,serif" font-size="14.00" fill="#000000">p_4</text>
</g>
<!-- 140531499583920&#45;&gt;140531499820872 -->
<g id="edge44" class="edge">
<title>140531499583920&#45;&gt;140531499820872</title>
<path fill="none" stroke="#000000" d="M296.003,-673.2001C304.1013,-673.5601 313.1306,-673.9614 321.7665,-674.3452"/>
<polygon fill="#000000" stroke="#000000" points="321.8705,-677.8532 332.0161,-674.8007 322.1814,-670.8601 321.8705,-677.8532"/>
</g>
<!-- 140531499820984 -->
<g id="node23" class="node">
<title>140531499820984</title>
<polygon fill="none" stroke="#000000" points="296,-360 242,-360 242,-324 296,-324 296,-360"/>
<text text-anchor="middle" x="269" y="-338.3" font-family="Times,serif" font-size="14.00" fill="#000000">tau_1</text>
</g>
<!-- 140531499720096 -->
<g id="node25" class="node">
<title>140531499720096</title>
<ellipse fill="none" stroke="#000000" cx="359" cy="-342" rx="27" ry="27"/>
<text text-anchor="middle" x="359" y="-338.3" font-family="Times,serif" font-size="14.00" fill="#000000">p_3</text>
</g>
<!-- 140531499820984&#45;&gt;140531499720096 -->
<g id="edge46" class="edge">
<title>140531499820984&#45;&gt;140531499720096</title>
<path fill="none" stroke="#000000" d="M296.003,-342C304.0277,-342 312.9665,-342 321.5309,-342"/>
<polygon fill="#000000" stroke="#000000" points="321.7051,-345.5001 331.705,-342 321.705,-338.5001 321.7051,-345.5001"/>
</g>
<!-- 140531499718752 -->
<g id="node24" class="node">
<title>140531499718752</title>
<ellipse fill="#00ff00" stroke="#000000" cx="179" cy="-342" rx="27" ry="27"/>
<text text-anchor="middle" x="179" y="-338.3" font-family="Times,serif" font-size="14.00" fill="#000000">1</text>
</g>
<!-- 140531499718752&#45;&gt;140531499820984 -->
<g id="edge45" class="edge">
<title>140531499718752&#45;&gt;140531499820984</title>
<path fill="none" stroke="#000000" d="M206.003,-342C214.0277,-342 222.9665,-342 231.5309,-342"/>
<polygon fill="#000000" stroke="#000000" points="231.7051,-345.5001 241.705,-342 231.705,-338.5001 231.7051,-345.5001"/>
</g>
<!-- 140531499720096&#45;&gt;140531499821656 -->
<g id="edge21" class="edge">
<title>140531499720096&#45;&gt;140531499821656</title>
<path fill="none" stroke="#000000" d="M386.199,-342C394.0426,-342 402.8582,-342 411.6204,-342"/>
<polygon fill="#000000" stroke="#000000" points="411.8204,-345.5001 421.8204,-342 411.8204,-338.5001 411.8204,-345.5001"/>
</g>
<!-- 140531499820872&#45;&gt;140531499819080 -->
<g id="edge22" class="edge">
<title>140531499820872&#45;&gt;140531499819080</title>
<path fill="none" stroke="#000000" d="M386.199,-676C397.7828,-676 411.4866,-676 424.0073,-676"/>
<polygon fill="#000000" stroke="#000000" points="424.1739,-679.5001 434.1739,-676 424.1739,-672.5001 424.1739,-679.5001"/>
</g>
<!-- 140531499821768&#45;&gt;140531501378024 -->
<g id="edge34" class="edge">
<title>140531499821768&#45;&gt;140531501378024</title>
<path fill="none" stroke="#000000" d="M539.6163,-330.1283C528.1153,-324.9003 514.0742,-319.0413 501,-315 439.5427,-296.0033 423.3263,-287 359,-287 269,-287 269,-287 269,-287 216.3188,-287 201.0063,-286.669 152,-306 128.5991,-315.2307 105.0904,-330.9889 87.4363,-344.4353"/>
<polygon fill="#000000" stroke="#000000" points="84.996,-341.9 79.2662,-350.8118 89.3029,-347.4183 84.996,-341.9"/>
</g>
<!-- 140531499821768&#45;&gt;140531501378192 -->
<g id="edge23" class="edge">
<title>140531499821768&#45;&gt;140531501378192</title>
<path fill="none" stroke="#000000" d="M565.3991,-368.9948C569.7688,-443.5928 585.4415,-650.437 627,-702 628.9282,-704.3923 631.0707,-706.6016 633.3778,-708.6416"/>
<polygon fill="#000000" stroke="#000000" points="631.6836,-711.746 641.7836,-714.9459 635.8836,-706.1459 631.6836,-711.746"/>
</g>
<!-- 140531499821768&#45;&gt;140531499583136 -->
<g id="edge31" class="edge">
<title>140531499821768&#45;&gt;140531499583136</title>
<path fill="none" stroke="#000000" d="M566.2439,-368.9768C572.2861,-435.5134 590.9315,-605.1004 627,-647 628.9781,-649.2979 631.1621,-651.4073 633.5034,-653.3437"/>
<polygon fill="#000000" stroke="#000000" points="631.7975,-656.4217 641.9986,-659.2834 635.8086,-650.6848 631.7975,-656.4217"/>
</g>
<!-- 140531499821768&#45;&gt;140531499584536 -->
<g id="edge39" class="edge">
<title>140531499821768&#45;&gt;140531499584536</title>
<path fill="none" stroke="#000000" d="M567.6118,-369.1716C575.7797,-426.8527 597.2978,-558.9656 627,-592 632.4867,-598.1022 639.4214,-602.8774 646.8589,-606.6134"/>
<polygon fill="#000000" stroke="#000000" points="645.9122,-610.019 656.4774,-610.8116 648.7124,-603.6035 645.9122,-610.019"/>
</g>
<!-- 140531499821768&#45;&gt;140531499584088 -->
<g id="edge26" class="edge">
<title>140531499821768&#45;&gt;140531499584088</title>
<path fill="none" stroke="#000000" d="M569.5706,-368.5905C579.9801,-416.0075 603.4666,-512.4937 627,-537 630.0132,-540.1377 633.408,-542.926 637.0483,-545.4035"/>
<polygon fill="#000000" stroke="#000000" points="635.532,-548.5726 645.9235,-550.6383 639.0883,-542.5432 635.532,-548.5726"/>
</g>
<!-- 140531499821768&#45;&gt;140531499582968 -->
<g id="edge30" class="edge">
<title>140531499821768&#45;&gt;140531499582968</title>
<path fill="none" stroke="#000000" d="M569.5831,-368.619C577.3777,-399.5693 594.3873,-450.3189 627,-481 637.8429,-491.2007 652.6425,-497.9178 666.3018,-502.2906"/>
<polygon fill="#000000" stroke="#000000" points="665.3954,-505.6718 675.9735,-505.0767 667.3331,-498.9453 665.3954,-505.6718"/>
</g>
<!-- 140531499821768&#45;&gt;140531499584256 -->
<g id="edge28" class="edge">
<title>140531499821768&#45;&gt;140531499584256</title>
<path fill="none" stroke="#000000" d="M577.6499,-365.6789C588.9353,-383.4833 606.4124,-407.3971 627,-423 635.782,-429.6557 646.193,-435.119 656.4475,-439.503"/>
<polygon fill="#000000" stroke="#000000" points="655.185,-442.7675 665.7697,-443.229 657.783,-436.2675 655.185,-442.7675"/>
</g>
<!-- 140531499821768&#45;&gt;140531499585152 -->
<g id="edge25" class="edge">
<title>140531499821768&#45;&gt;140531499585152</title>
<path fill="none" stroke="#000000" d="M588.6852,-353.0097C600.2495,-358.0564 614.257,-364.0116 627,-369 632.0526,-370.9779 637.3169,-372.9756 642.613,-374.9419"/>
<polygon fill="#000000" stroke="#000000" points="641.548,-378.2792 652.1417,-378.4361 643.9581,-371.7071 641.548,-378.2792"/>
</g>
<!-- 140531499821768&#45;&gt;140531499820088 -->
<g id="edge38" class="edge">
<title>140531499821768&#45;&gt;140531499820088</title>
<path fill="none" stroke="#000000" d="M577.2205,-318.4226C588.389,-300.4342 605.9151,-276.2302 627,-261 630.6748,-258.3456 634.6357,-255.9307 638.7515,-253.7372"/>
<polygon fill="#000000" stroke="#000000" points="640.4813,-256.7885 647.9581,-249.2821 637.4321,-250.4875 640.4813,-256.7885"/>
</g>
<!-- 140531499821768&#45;&gt;140531499584760 -->
<g id="edge37" class="edge">
<title>140531499821768&#45;&gt;140531499584760</title>
<path fill="none" stroke="#000000" d="M565.7011,-315.0197C569.6779,-274.511 582.9267,-197.9459 627,-153 631.4392,-148.4729 636.6858,-144.7026 642.3152,-141.5629"/>
<polygon fill="#000000" stroke="#000000" points="643.958,-144.6559 651.4156,-137.1302 640.8927,-138.3627 643.958,-144.6559"/>
</g>
<!-- 140531499821768&#45;&gt;140531499585320 -->
<g id="edge35" class="edge">
<title>140531499821768&#45;&gt;140531499585320</title>
<path fill="none" stroke="#000000" d="M567.7484,-315.1315C576.1078,-258.781 597.8573,-130.8169 627,-99 627.7803,-98.1481 628.5892,-97.3231 629.424,-96.5242"/>
<polygon fill="#000000" stroke="#000000" points="631.943,-98.9914 637.5678,-90.013 627.5717,-93.524 631.943,-98.9914"/>
</g>
<!-- 140531499821768&#45;&gt;140531501378248 -->
<g id="edge29" class="edge">
<title>140531499821768&#45;&gt;140531501378248</title>
<path fill="none" stroke="#000000" d="M566.404,-314.7412C572.6981,-249.2236 591.6667,-85.3482 627,-45 634.9997,-35.8649 646.3005,-29.8206 657.7481,-25.8212"/>
<polygon fill="#000000" stroke="#000000" points="658.7729,-29.1679 667.3293,-22.9198 656.7441,-22.4684 658.7729,-29.1679"/>
</g>
<!-- 140531499821768&#45;&gt;140531499584424 -->
<g id="edge27" class="edge">
<title>140531499821768&#45;&gt;140531499584424</title>
<path fill="none" stroke="#000000" d="M591.1306,-342C607.96,-342 630.1493,-342 650.3257,-342"/>
<polygon fill="#000000" stroke="#000000" points="650.3442,-345.5001 660.3441,-342 650.3441,-338.5001 650.3442,-345.5001"/>
</g>
<!-- 140531499821768&#45;&gt;140531501378416 -->
<g id="edge32" class="edge">
<title>140531499821768&#45;&gt;140531501378416</title>
<path fill="none" stroke="#000000" d="M588.6852,-330.9903C600.2495,-325.9436 614.257,-319.9884 627,-315 631.6879,-313.1649 636.558,-311.3127 641.4668,-309.4843"/>
<polygon fill="#000000" stroke="#000000" points="642.7394,-312.7456 650.9165,-306.0086 640.323,-306.1759 642.7394,-312.7456"/>
</g>
<!-- 140531499821768&#45;&gt;140531499581792 -->
<g id="edge24" class="edge">
<title>140531499821768&#45;&gt;140531499581792</title>
<path fill="none" stroke="#000000" d="M565.9815,-369.2027C573.1587,-464.708 598.8582,-780.8394 627,-816 633.0648,-823.5775 641.3842,-829.1043 650.3014,-833.1355"/>
<polygon fill="#000000" stroke="#000000" points="649.1528,-836.4443 659.741,-836.8182 651.697,-829.923 649.1528,-836.4443"/>
</g>
<!-- 140531499821768&#45;&gt;140531501378136 -->
<g id="edge33" class="edge">
<title>140531499821768&#45;&gt;140531501378136</title>
<path fill="none" stroke="#000000" d="M569.817,-315.4714C577.763,-285.2332 594.847,-236.2269 627,-207 630.8515,-203.499 635.1869,-200.4454 639.7845,-197.7832"/>
<polygon fill="#000000" stroke="#000000" points="641.5777,-200.7974 648.8906,-193.1311 638.3931,-194.5637 641.5777,-200.7974"/>
</g>
<!-- 140531499821768&#45;&gt;140531499582856 -->
<g id="edge36" class="edge">
<title>140531499821768&#45;&gt;140531499582856</title>
<path fill="none" stroke="#000000" d="M566.4841,-368.9764C574.7676,-456.6005 602.3173,-729.3476 627,-760 628.8683,-762.3202 630.9448,-764.455 633.1823,-766.419"/>
<polygon fill="#000000" stroke="#000000" points="631.2229,-769.3232 641.3425,-772.4609 635.3883,-763.6974 631.2229,-769.3232"/>
</g>
<!-- 140531499819192&#45;&gt;140531499581512 -->
<g id="edge40" class="edge">
<title>140531499819192&#45;&gt;140531499581512</title>
<path fill="none" stroke="#000000" d="M206.003,-452C214.0277,-452 222.9665,-452 231.5309,-452"/>
<polygon fill="#000000" stroke="#000000" points="231.7051,-455.5001 241.705,-452 231.705,-448.5001 231.7051,-455.5001"/>
</g>
<!-- 140531499819192&#45;&gt;140531499583920 -->
<g id="edge41" class="edge">
<title>140531499819192&#45;&gt;140531499583920</title>
<path fill="none" stroke="#000000" d="M185.4349,-478.4623C194.9013,-514.9765 214.4848,-582.2742 242,-635 243.851,-638.547 246.0173,-642.1289 248.3035,-645.595"/>
<polygon fill="#000000" stroke="#000000" points="245.5128,-647.7114 254.1221,-653.8865 251.2428,-643.6904 245.5128,-647.7114"/>
</g>
<!-- 140531499819864&#45;&gt;140531499819248 -->
<g id="edge42" class="edge">
<title>140531499819864&#45;&gt;140531499819248</title>
<path fill="none" stroke="#000000" d="M386.199,-450.9386C397.7828,-450.4865 411.4866,-449.9517 424.0073,-449.4631"/>
<polygon fill="#000000" stroke="#000000" points="424.318,-452.9538 434.1739,-449.0664 424.045,-445.9591 424.318,-452.9538"/>
</g>
</g>
</svg>
