<?xml version="1.0" encoding="UTF-8" standalone="no"?>
<!DOCTYPE svg PUBLIC "-//W3C//DTD SVG 1.1//EN"
 "http://www.w3.org/Graphics/SVG/1.1/DTD/svg11.dtd">
<!-- Generated by graphviz version 2.40.1 (20161225.0304)
 -->
<!-- Title: alpha_plus_net_1585315461.981363 Pages: 1 -->
<svg width="1137pt" height="3554pt"
 viewBox="0.00 0.00 1137.00 3554.00" xmlns="http://www.w3.org/2000/svg" xmlns:xlink="http://www.w3.org/1999/xlink">
<g id="graph0" class="graph" transform="scale(1 1) rotate(0) translate(4 3550)">
<title>alpha_plus_net_1585315461.981363</title>
<!-- 140178131752048 -->
<g id="node1" class="node">
<title>140178131752048</title>
<polygon fill="none" stroke="#000000" points="373,-36 48,-36 48,0 373,0 373,-36"/>
<text text-anchor="middle" x="210.5" y="-14.3" font-family="Times,serif" font-size="14.00" fill="#000000">AccountDataBean:AccountDataBean [overloaded_#001]</text>
</g>
<!-- 140178131753336 -->
<g id="node2" class="node">
<title>140178131753336</title>
<polygon fill="none" stroke="#000000" points="308.5,-90 112.5,-90 112.5,-54 308.5,-54 308.5,-90"/>
<text text-anchor="middle" x="210.5" y="-68.3" font-family="Times,serif" font-size="14.00" fill="#000000">AccountDataBean:getAccountID</text>
</g>
<!-- 140178131751768 -->
<g id="node3" class="node">
<title>140178131751768</title>
<polygon fill="none" stroke="#000000" points="300,-144 121,-144 121,-108 300,-108 300,-144"/>
<text text-anchor="middle" x="210.5" y="-122.3" font-family="Times,serif" font-size="14.00" fill="#000000">AccountDataBean:getBalance</text>
</g>
<!-- 140178131751656 -->
<g id="node4" class="node">
<title>140178131751656</title>
<polygon fill="none" stroke="#000000" points="314.5,-198 106.5,-198 106.5,-162 314.5,-162 314.5,-198"/>
<text text-anchor="middle" x="210.5" y="-176.3" font-family="Times,serif" font-size="14.00" fill="#000000">AccountDataBean:getCreationDate</text>
</g>
<!-- 140178131752720 -->
<g id="node5" class="node">
<title>140178131752720</title>
<polygon fill="none" stroke="#000000" points="306,-252 115,-252 115,-216 306,-216 306,-252"/>
<text text-anchor="middle" x="210.5" y="-230.3" font-family="Times,serif" font-size="14.00" fill="#000000">AccountDataBean:getLastLogin</text>
</g>
<!-- 140178131754288 -->
<g id="node6" class="node">
<title>140178131754288</title>
<polygon fill="none" stroke="#000000" points="311,-306 110,-306 110,-270 311,-270 311,-306"/>
<text text-anchor="middle" x="210.5" y="-284.3" font-family="Times,serif" font-size="14.00" fill="#000000">AccountDataBean:getLoginCount</text>
</g>
<!-- 140178131456128 -->
<g id="node7" class="node">
<title>140178131456128</title>
<polygon fill="none" stroke="#000000" points="314.5,-360 106.5,-360 106.5,-324 314.5,-324 314.5,-360"/>
<text text-anchor="middle" x="210.5" y="-338.3" font-family="Times,serif" font-size="14.00" fill="#000000">AccountDataBean:getLogoutCount</text>
</g>
<!-- 140178131753000 -->
<g id="node8" class="node">
<title>140178131753000</title>
<polygon fill="none" stroke="#000000" points="315,-414 106,-414 106,-378 315,-378 315,-414"/>
<text text-anchor="middle" x="210.5" y="-392.3" font-family="Times,serif" font-size="14.00" fill="#000000">AccountDataBean:getOpenBalance</text>
</g>
<!-- 140178131752664 -->
<g id="node9" class="node">
<title>140178131752664</title>
<polygon fill="none" stroke="#000000" points="304,-468 117,-468 117,-432 304,-432 304,-468"/>
<text text-anchor="middle" x="210.5" y="-446.3" font-family="Times,serif" font-size="14.00" fill="#000000">AccountDataBean:getProfileID</text>
</g>
<!-- 140178131754568 -->
<g id="node10" class="node">
<title>140178131754568</title>
<polygon fill="none" stroke="#000000" points="303,-522 118,-522 118,-486 303,-486 303,-522"/>
<text text-anchor="middle" x="210.5" y="-500.3" font-family="Times,serif" font-size="14.00" fill="#000000">AccountDataBean:setProfileID</text>
</g>
<!-- 140178131751488 -->
<g id="node11" class="node">
<title>140178131751488</title>
<polygon fill="none" stroke="#000000" points="409.5,-576 11.5,-576 11.5,-540 409.5,-540 409.5,-576"/>
<text text-anchor="middle" x="210.5" y="-554.3" font-family="Times,serif" font-size="14.00" fill="#000000">AccountProfileDataBean:AccountProfileDataBean [overloaded_#001]</text>
</g>
<!-- 140178131752384 -->
<g id="node12" class="node">
<title>140178131752384</title>
<polygon fill="none" stroke="#000000" points="409.5,-630 11.5,-630 11.5,-594 409.5,-594 409.5,-630"/>
<text text-anchor="middle" x="210.5" y="-608.3" font-family="Times,serif" font-size="14.00" fill="#000000">AccountProfileDataBean:AccountProfileDataBean [overloaded_#002]</text>
</g>
<!-- 140178131752608 -->
<g id="node13" class="node">
<title>140178131752608</title>
<polygon fill="none" stroke="#000000" points="319.5,-684 101.5,-684 101.5,-648 319.5,-648 319.5,-684"/>
<text text-anchor="middle" x="210.5" y="-662.3" font-family="Times,serif" font-size="14.00" fill="#000000">AccountProfileDataBean:getAccount</text>
</g>
<!-- 140178131753504 -->
<g id="node14" class="node">
<title>140178131753504</title>
<polygon fill="none" stroke="#000000" points="319,-738 102,-738 102,-702 319,-702 319,-738"/>
<text text-anchor="middle" x="210.5" y="-716.3" font-family="Times,serif" font-size="14.00" fill="#000000">AccountProfileDataBean:getAddress</text>
</g>
<!-- 140178131754512 -->
<g id="node15" class="node">
<title>140178131754512</title>
<polygon fill="none" stroke="#000000" points="327,-792 94,-792 94,-756 327,-756 327,-792"/>
<text text-anchor="middle" x="210.5" y="-770.3" font-family="Times,serif" font-size="14.00" fill="#000000">AccountProfileDataBean:getCreditCard</text>
</g>
<!-- 140178131754008 -->
<g id="node16" class="node">
<title>140178131754008</title>
<polygon fill="none" stroke="#000000" points="313.5,-846 107.5,-846 107.5,-810 313.5,-810 313.5,-846"/>
<text text-anchor="middle" x="210.5" y="-824.3" font-family="Times,serif" font-size="14.00" fill="#000000">AccountProfileDataBean:getEmail</text>
</g>
<!-- 140178131754064 -->
<g id="node17" class="node">
<title>140178131754064</title>
<polygon fill="none" stroke="#000000" points="324,-900 97,-900 97,-864 324,-864 324,-900"/>
<text text-anchor="middle" x="210.5" y="-878.3" font-family="Times,serif" font-size="14.00" fill="#000000">AccountProfileDataBean:getFullName</text>
</g>
<!-- 140178131754624 -->
<g id="node18" class="node">
<title>140178131754624</title>
<polygon fill="none" stroke="#000000" points="322.5,-954 98.5,-954 98.5,-918 322.5,-918 322.5,-954"/>
<text text-anchor="middle" x="210.5" y="-932.3" font-family="Times,serif" font-size="14.00" fill="#000000">AccountProfileDataBean:getPassword</text>
</g>
<!-- 140178131753392 -->
<g id="node19" class="node">
<title>140178131753392</title>
<polygon fill="none" stroke="#000000" points="316.5,-1008 104.5,-1008 104.5,-972 316.5,-972 316.5,-1008"/>
<text text-anchor="middle" x="210.5" y="-986.3" font-family="Times,serif" font-size="14.00" fill="#000000">AccountProfileDataBean:getUserID</text>
</g>
<!-- 140178131754736 -->
<g id="node20" class="node">
<title>140178131754736</title>
<polygon fill="none" stroke="#000000" points="315,-1062 106,-1062 106,-1026 315,-1026 315,-1062"/>
<text text-anchor="middle" x="210.5" y="-1040.3" font-family="Times,serif" font-size="14.00" fill="#000000">AccountProfileDataBean:hashCode</text>
</g>
<!-- 140178131721688 -->
<g id="node73" class="node">
<title>140178131721688</title>
<ellipse fill="none" stroke="#000000" cx="484" cy="-1072" rx="27" ry="27"/>
<text text-anchor="middle" x="484" y="-1068.3" font-family="Times,serif" font-size="14.00" fill="#000000">({&#39;AccountProfileDataBean:hashCode&#39;}, {&#39;TradeAction:updateAccountProfile&#39;})</text>
</g>
<!-- 140178131754736&#45;&gt;140178131721688 -->
<g id="edge7" class="edge">
<title>140178131754736&#45;&gt;140178131721688</title>
<path fill="none" stroke="#000000" d="M315.0693,-1054.7055C361.3346,-1059.4419 412.8099,-1064.7118 446.6396,-1068.1752"/>
<polygon fill="#000000" stroke="#000000" points="446.6698,-1071.6965 456.9743,-1069.2332 447.3828,-1064.7329 446.6698,-1071.6965"/>
</g>
<!-- 140178131751096 -->
<g id="node21" class="node">
<title>140178131751096</title>
<polygon fill="none" stroke="#000000" points="318,-1116 103,-1116 103,-1080 318,-1080 318,-1116"/>
<text text-anchor="middle" x="210.5" y="-1094.3" font-family="Times,serif" font-size="14.00" fill="#000000">AccountProfileDataBean:setAddress</text>
</g>
<!-- 140178131752888 -->
<g id="node22" class="node">
<title>140178131752888</title>
<polygon fill="none" stroke="#000000" points="326,-1170 95,-1170 95,-1134 326,-1134 326,-1170"/>
<text text-anchor="middle" x="210.5" y="-1148.3" font-family="Times,serif" font-size="14.00" fill="#000000">AccountProfileDataBean:setCreditCard</text>
</g>
<!-- 140178131752328 -->
<g id="node23" class="node">
<title>140178131752328</title>
<polygon fill="none" stroke="#000000" points="312.5,-1224 108.5,-1224 108.5,-1188 312.5,-1188 312.5,-1224"/>
<text text-anchor="middle" x="210.5" y="-1202.3" font-family="Times,serif" font-size="14.00" fill="#000000">AccountProfileDataBean:setEmail</text>
</g>
<!-- 140178131753448 -->
<g id="node24" class="node">
<title>140178131753448</title>
<polygon fill="none" stroke="#000000" points="323.5,-1278 97.5,-1278 97.5,-1242 323.5,-1242 323.5,-1278"/>
<text text-anchor="middle" x="210.5" y="-1256.3" font-family="Times,serif" font-size="14.00" fill="#000000">AccountProfileDataBean:setFullName</text>
</g>
<!-- 140178131752832 -->
<g id="node25" class="node">
<title>140178131752832</title>
<polygon fill="none" stroke="#000000" points="322,-1332 99,-1332 99,-1296 322,-1296 322,-1332"/>
<text text-anchor="middle" x="210.5" y="-1310.3" font-family="Times,serif" font-size="14.00" fill="#000000">AccountProfileDataBean:setPassword</text>
</g>
<!-- 140178131456352 -->
<g id="node26" class="node">
<title>140178131456352</title>
<polygon fill="none" stroke="#000000" points="316,-1386 105,-1386 105,-1350 316,-1350 316,-1386"/>
<text text-anchor="middle" x="210.5" y="-1364.3" font-family="Times,serif" font-size="14.00" fill="#000000">AccountProfileDataBean:setUserID</text>
</g>
<!-- 140178131754400 -->
<g id="node27" class="node">
<title>140178131754400</title>
<polygon fill="none" stroke="#000000" points="316,-1440 105,-1440 105,-1404 316,-1404 316,-1440"/>
<text text-anchor="middle" x="210.5" y="-1418.3" font-family="Times,serif" font-size="14.00" fill="#000000">FinancialUtils:computeGainPercent</text>
</g>
<!-- 140178131456072 -->
<g id="node28" class="node">
<title>140178131456072</title>
<polygon fill="none" stroke="#000000" points="272,-1494 149,-1494 149,-1458 272,-1458 272,-1494"/>
<text text-anchor="middle" x="210.5" y="-1472.3" font-family="Times,serif" font-size="14.00" fill="#000000">Log:doActionTrace</text>
</g>
<!-- 140178131751880 -->
<g id="node29" class="node">
<title>140178131751880</title>
<polygon fill="none" stroke="#000000" points="253.5,-1548 167.5,-1548 167.5,-1512 253.5,-1512 253.5,-1548"/>
<text text-anchor="middle" x="210.5" y="-1526.3" font-family="Times,serif" font-size="14.00" fill="#000000">Log:doTrace</text>
</g>
<!-- 140178131750984 -->
<g id="node30" class="node">
<title>140178131750984</title>
<polygon fill="none" stroke="#000000" points="273.5,-1602 147.5,-1602 147.5,-1566 273.5,-1566 273.5,-1602"/>
<text text-anchor="middle" x="210.5" y="-1580.3" font-family="Times,serif" font-size="14.00" fill="#000000">Log:getActionTrace</text>
</g>
<!-- 140178131753560 -->
<g id="node31" class="node">
<title>140178131753560</title>
<polygon fill="none" stroke="#000000" points="255,-1656 166,-1656 166,-1620 255,-1620 255,-1656"/>
<text text-anchor="middle" x="210.5" y="-1634.3" font-family="Times,serif" font-size="14.00" fill="#000000">Log:getTrace</text>
</g>
<!-- 140178131753896 -->
<g id="node32" class="node">
<title>140178131753896</title>
<polygon fill="none" stroke="#000000" points="421,-1710 0,-1710 0,-1674 421,-1674 421,-1710"/>
<text text-anchor="middle" x="210.5" y="-1688.3" font-family="Times,serif" font-size="14.00" fill="#000000">MarketSummaryDataBean:MarketSummaryDataBean [overloaded_#002]</text>
</g>
<!-- 140178131752160 -->
<g id="node33" class="node">
<title>140178131752160</title>
<polygon fill="none" stroke="#000000" points="332,-1764 89,-1764 89,-1728 332,-1728 332,-1764"/>
<text text-anchor="middle" x="210.5" y="-1742.3" font-family="Times,serif" font-size="14.00" fill="#000000">MarketSummaryDataBean:getOpenTSIA</text>
</g>
<!-- 140178131751992 -->
<g id="node34" class="node">
<title>140178131751992</title>
<polygon fill="none" stroke="#000000" points="317.5,-1818 103.5,-1818 103.5,-1782 317.5,-1782 317.5,-1818"/>
<text text-anchor="middle" x="210.5" y="-1796.3" font-family="Times,serif" font-size="14.00" fill="#000000">MarketSummaryDataBean:getTSIA</text>
</g>
<!-- 140178131751544 -->
<g id="node35" class="node">
<title>140178131751544</title>
<polygon fill="none" stroke="#000000" points="331.5,-1872 89.5,-1872 89.5,-1836 331.5,-1836 331.5,-1872"/>
<text text-anchor="middle" x="210.5" y="-1850.3" font-family="Times,serif" font-size="14.00" fill="#000000">MarketSummaryDataBean:setOpenTSIA</text>
</g>
<!-- 140178131753728 -->
<g id="node36" class="node">
<title>140178131753728</title>
<polygon fill="none" stroke="#000000" points="341.5,-1926 79.5,-1926 79.5,-1890 341.5,-1890 341.5,-1926"/>
<text text-anchor="middle" x="210.5" y="-1904.3" font-family="Times,serif" font-size="14.00" fill="#000000">MarketSummaryDataBean:setSummaryDate</text>
</g>
<!-- 140178131753224 -->
<g id="node37" class="node">
<title>140178131753224</title>
<polygon fill="none" stroke="#000000" points="316.5,-1980 104.5,-1980 104.5,-1944 316.5,-1944 316.5,-1980"/>
<text text-anchor="middle" x="210.5" y="-1958.3" font-family="Times,serif" font-size="14.00" fill="#000000">MarketSummaryDataBean:setTSIA</text>
</g>
<!-- 140178103076288 -->
<g id="node38" class="node">
<title>140178103076288</title>
<polygon fill="none" stroke="#000000" points="333.5,-2034 87.5,-2034 87.5,-1998 333.5,-1998 333.5,-2034"/>
<text text-anchor="middle" x="210.5" y="-2012.3" font-family="Times,serif" font-size="14.00" fill="#000000">MarketSummaryDataBean:setTopGainers</text>
</g>
<!-- 140178131456184 -->
<g id="node39" class="node">
<title>140178131456184</title>
<polygon fill="none" stroke="#000000" points="330.5,-2088 90.5,-2088 90.5,-2052 330.5,-2052 330.5,-2088"/>
<text text-anchor="middle" x="210.5" y="-2066.3" font-family="Times,serif" font-size="14.00" fill="#000000">MarketSummaryDataBean:setTopLosers</text>
</g>
<!-- 140178131752272 -->
<g id="node40" class="node">
<title>140178131752272</title>
<polygon fill="none" stroke="#000000" points="324,-2142 97,-2142 97,-2106 324,-2106 324,-2142"/>
<text text-anchor="middle" x="210.5" y="-2120.3" font-family="Times,serif" font-size="14.00" fill="#000000">MarketSummaryDataBean:setVolume</text>
</g>
<!-- 140178131751432 -->
<g id="node41" class="node">
<title>140178131751432</title>
<polygon fill="none" stroke="#000000" points="374.5,-2196 46.5,-2196 46.5,-2160 374.5,-2160 374.5,-2196"/>
<text text-anchor="middle" x="210.5" y="-2174.3" font-family="Times,serif" font-size="14.00" fill="#000000">MarketSummarySingleton:setMarketSummaryDataBean</text>
</g>
<!-- 140178131752104 -->
<g id="node42" class="node">
<title>140178131752104</title>
<polygon fill="none" stroke="#000000" points="358.5,-2250 62.5,-2250 62.5,-2214 358.5,-2214 358.5,-2250"/>
<text text-anchor="middle" x="210.5" y="-2228.3" font-family="Times,serif" font-size="14.00" fill="#000000">MarketSummarySingleton:updateMarketSummary</text>
</g>
<!-- 140178131721016 -->
<g id="node74" class="node">
<title>140178131721016</title>
<ellipse fill="none" stroke="#000000" cx="484" cy="-2270" rx="27" ry="27"/>
<text text-anchor="middle" x="484" y="-2266.3" font-family="Times,serif" font-size="14.00" fill="#000000">({&#39;MarketSummarySingleton:updateMarketSummary&#39;, &#39;OrdersAlertFilter:doFilter&#39;}, {&#39;Root&#39;, &#39;QuoteDataBean:QuoteDataBean [overloaded_#001]&#39;})</text>
</g>
<!-- 140178131752104&#45;&gt;140178131721016 -->
<g id="edge8" class="edge">
<title>140178131752104&#45;&gt;140178131721016</title>
<path fill="none" stroke="#000000" d="M357.834,-2250.0355C379.0513,-2252.8834 400.5994,-2255.9123 421,-2259 429.6005,-2260.3017 438.8372,-2261.8369 447.5153,-2263.3408"/>
<polygon fill="#000000" stroke="#000000" points="446.919,-2266.7896 457.3743,-2265.0759 448.1324,-2259.8955 446.919,-2266.7896"/>
</g>
<!-- 140178131753616 -->
<g id="node43" class="node">
<title>140178131753616</title>
<polygon fill="none" stroke="#000000" points="1129,-2288 972,-2288 972,-2252 1129,-2252 1129,-2288"/>
<text text-anchor="middle" x="1050.5" y="-2266.3" font-family="Times,serif" font-size="14.00" fill="#000000">OrdersAlertFilter:doFilter</text>
</g>
<!-- 140178131753616&#45;&gt;140178131721016 -->
<g id="edge9" class="edge">
<title>140178131753616&#45;&gt;140178131721016</title>
<path fill="none" stroke="#000000" d="M1018.622,-2288.1762C996.2849,-2299.8298 965.3017,-2313.8812 936,-2320 766.7616,-2355.3403 710.2537,-2376.9105 547,-2320 533.3408,-2315.2384 520.4199,-2306.1428 509.8766,-2297.0007"/>
<polygon fill="#000000" stroke="#000000" points="512.0448,-2294.2405 502.3047,-2290.0715 507.3191,-2299.4046 512.0448,-2294.2405"/>
</g>
<!-- 140178131752440 -->
<g id="node44" class="node">
<title>140178131752440</title>
<polygon fill="none" stroke="#000000" points="846,-2257 547,-2257 547,-2221 846,-2221 846,-2257"/>
<text text-anchor="middle" x="696.5" y="-2235.3" font-family="Times,serif" font-size="14.00" fill="#000000">QuoteDataBean:QuoteDataBean [overloaded_#001]</text>
</g>
<!-- 140178131719616 -->
<g id="node76" class="node">
<title>140178131719616</title>
<ellipse fill="none" stroke="#000000" cx="909" cy="-2202" rx="27" ry="27"/>
<text text-anchor="middle" x="909" y="-2198.3" font-family="Times,serif" font-size="14.00" fill="#000000">({&#39;artificial_start&#39;, &#39;QuoteDataBean:QuoteDataBean [overloaded_#001]&#39;}, {&#39;MarketSummarySingleton:updateMarketSummary&#39;, &#39;OrdersAlertFilter:doFilter&#39;})</text>
</g>
<!-- 140178131752440&#45;&gt;140178131719616 -->
<g id="edge10" class="edge">
<title>140178131752440&#45;&gt;140178131719616</title>
<path fill="none" stroke="#000000" d="M799.9488,-2220.9877C825.8352,-2216.4805 851.9434,-2211.9346 872.1215,-2208.4212"/>
<polygon fill="#000000" stroke="#000000" points="872.8488,-2211.8473 882.1002,-2206.6837 871.648,-2204.9511 872.8488,-2211.8473"/>
</g>
<!-- 140178131753840 -->
<g id="node45" class="node">
<title>140178131753840</title>
<polygon fill="none" stroke="#000000" points="286.5,-2304 134.5,-2304 134.5,-2268 286.5,-2268 286.5,-2304"/>
<text text-anchor="middle" x="210.5" y="-2282.3" font-family="Times,serif" font-size="14.00" fill="#000000">QuoteDataBean:getOpen</text>
</g>
<!-- 140178131753784 -->
<g id="node46" class="node">
<title>140178131753784</title>
<polygon fill="none" stroke="#000000" points="286,-2358 135,-2358 135,-2322 286,-2322 286,-2358"/>
<text text-anchor="middle" x="210.5" y="-2336.3" font-family="Times,serif" font-size="14.00" fill="#000000">QuoteDataBean:getPrice</text>
</g>
<!-- 140178131753112 -->
<g id="node47" class="node">
<title>140178131753112</title>
<polygon fill="none" stroke="#000000" points="294,-2412 127,-2412 127,-2376 294,-2376 294,-2412"/>
<text text-anchor="middle" x="210.5" y="-2390.3" font-family="Times,serif" font-size="14.00" fill="#000000">QuoteDataBean:getVolume</text>
</g>
<!-- 140178131753672 -->
<g id="node48" class="node">
<title>140178131753672</title>
<polygon fill="none" stroke="#000000" points="723.5,-2311 669.5,-2311 669.5,-2275 723.5,-2275 723.5,-2311"/>
<text text-anchor="middle" x="696.5" y="-2289.3" font-family="Times,serif" font-size="14.00" fill="#000000">Root</text>
</g>
<!-- 140178131718776 -->
<g id="node77" class="node">
<title>140178131718776</title>
<ellipse fill="#ffa500" stroke="#000000" cx="909" cy="-2284" rx="27" ry="27"/>
</g>
<!-- 140178131753672&#45;&gt;140178131718776 -->
<g id="edge11" class="edge">
<title>140178131753672&#45;&gt;140178131718776</title>
<path fill="none" stroke="#000000" d="M723.8456,-2291.8418C761.4607,-2290.2487 829.3021,-2287.3754 871.5921,-2285.5843"/>
<polygon fill="#000000" stroke="#000000" points="871.9164,-2289.0738 881.7593,-2285.1537 871.6202,-2282.0801 871.9164,-2289.0738"/>
</g>
<!-- 140178131754456 -->
<g id="node49" class="node">
<title>140178131754456</title>
<polygon fill="none" stroke="#000000" points="342,-2466 79,-2466 79,-2430 342,-2430 342,-2466"/>
<text text-anchor="middle" x="210.5" y="-2444.3" font-family="Times,serif" font-size="14.00" fill="#000000">TradeAction:TradeAction [overloaded_#001]</text>
</g>
<!-- 140178131751320 -->
<g id="node50" class="node">
<title>140178131751320</title>
<polygon fill="none" stroke="#000000" points="286.5,-2520 134.5,-2520 134.5,-2484 286.5,-2484 286.5,-2520"/>
<text text-anchor="middle" x="210.5" y="-2498.3" font-family="Times,serif" font-size="14.00" fill="#000000">TradeAction:createTrade</text>
</g>
<!-- 140178131751376 -->
<g id="node51" class="node">
<title>140178131751376</title>
<polygon fill="none" stroke="#000000" points="298.5,-2574 122.5,-2574 122.5,-2538 298.5,-2538 298.5,-2574"/>
<text text-anchor="middle" x="210.5" y="-2552.3" font-family="Times,serif" font-size="14.00" fill="#000000">TradeAction:getAccountData</text>
</g>
<!-- 140178131456240 -->
<g id="node52" class="node">
<title>140178131456240</title>
<polygon fill="none" stroke="#000000" points="317,-2628 104,-2628 104,-2592 317,-2592 317,-2628"/>
<text text-anchor="middle" x="210.5" y="-2606.3" font-family="Times,serif" font-size="14.00" fill="#000000">TradeAction:getAccountProfileData</text>
</g>
<!-- 140178131754680 -->
<g id="node53" class="node">
<title>140178131754680</title>
<polygon fill="none" stroke="#000000" points="300,-2682 121,-2682 121,-2646 300,-2646 300,-2682"/>
<text text-anchor="middle" x="210.5" y="-2660.3" font-family="Times,serif" font-size="14.00" fill="#000000">TradeAction:getClosedOrders</text>
</g>
<!-- 140178131751600 -->
<g id="node54" class="node">
<title>140178131751600</title>
<polygon fill="none" stroke="#000000" points="800,-1086 593,-1086 593,-1050 800,-1050 800,-1086"/>
<text text-anchor="middle" x="696.5" y="-1064.3" font-family="Times,serif" font-size="14.00" fill="#000000">TradeAction:updateAccountProfile</text>
</g>
<!-- 140178131719336 -->
<g id="node75" class="node">
<title>140178131719336</title>
<ellipse fill="none" stroke="#000000" cx="909" cy="-1044" rx="27" ry="27"/>
<text text-anchor="middle" x="909" y="-1040.3" font-family="Times,serif" font-size="14.00" fill="#000000">({&#39;TradeAction:updateAccountProfile&#39;}, {&#39;AccountProfileDataBean:hashCode&#39;})</text>
</g>
<!-- 140178131751600&#45;&gt;140178131719336 -->
<g id="edge12" class="edge">
<title>140178131751600&#45;&gt;140178131719336</title>
<path fill="none" stroke="#000000" d="M800.26,-1056.2812C825.8012,-1053.3966 851.5344,-1050.4902 871.5515,-1048.2295"/>
<polygon fill="#000000" stroke="#000000" points="872.2119,-1051.6772 881.7559,-1047.077 871.4263,-1044.7214 872.2119,-1051.6772"/>
</g>
<!-- 140178131752776 -->
<g id="node55" class="node">
<title>140178131752776</title>
<polygon fill="none" stroke="#000000" points="283.5,-2736 137.5,-2736 137.5,-2700 283.5,-2700 283.5,-2736"/>
<text text-anchor="middle" x="210.5" y="-2714.3" font-family="Times,serif" font-size="14.00" fill="#000000">TradeAppServlet:doGet</text>
</g>
<!-- 140178131752216 -->
<g id="node56" class="node">
<title>140178131752216</title>
<polygon fill="none" stroke="#000000" points="302.5,-2790 118.5,-2790 118.5,-2754 302.5,-2754 302.5,-2790"/>
<text text-anchor="middle" x="210.5" y="-2768.3" font-family="Times,serif" font-size="14.00" fill="#000000">TradeAppServlet:performTask</text>
</g>
<!-- 140178131754344 -->
<g id="node57" class="node">
<title>140178131754344</title>
<polygon fill="none" stroke="#000000" points="297,-2844 124,-2844 124,-2808 297,-2808 297,-2844"/>
<text text-anchor="middle" x="210.5" y="-2822.3" font-family="Times,serif" font-size="14.00" fill="#000000">TradeConfig:getActionTrace</text>
</g>
<!-- 140178131753168 -->
<g id="node58" class="node">
<title>140178131753168</title>
<polygon fill="none" stroke="#000000" points="316.5,-2898 104.5,-2898 104.5,-2862 316.5,-2862 316.5,-2898"/>
<text text-anchor="middle" x="210.5" y="-2876.3" font-family="Times,serif" font-size="14.00" fill="#000000">TradeConfig:getDisplayOrderAlerts</text>
</g>
<!-- 140178131752496 -->
<g id="node59" class="node">
<title>140178131752496</title>
<polygon fill="none" stroke="#000000" points="289,-2952 132,-2952 132,-2916 289,-2916 289,-2952"/>
<text text-anchor="middle" x="210.5" y="-2930.3" font-family="Times,serif" font-size="14.00" fill="#000000">TradeConfig:getLongRun</text>
</g>
<!-- 140178131751824 -->
<g id="node60" class="node">
<title>140178131751824</title>
<polygon fill="none" stroke="#000000" points="276.5,-3006 144.5,-3006 144.5,-2970 276.5,-2970 276.5,-3006"/>
<text text-anchor="middle" x="210.5" y="-2984.3" font-family="Times,serif" font-size="14.00" fill="#000000">TradeConfig:getPage</text>
</g>
<!-- 140178131751712 -->
<g id="node61" class="node">
<title>140178131751712</title>
<polygon fill="none" stroke="#000000" points="305.5,-3060 115.5,-3060 115.5,-3024 305.5,-3024 305.5,-3060"/>
<text text-anchor="middle" x="210.5" y="-3038.3" font-family="Times,serif" font-size="14.00" fill="#000000">TradeConfig:getRunTimeMode</text>
</g>
<!-- 140178131751040 -->
<g id="node62" class="node">
<title>140178131751040</title>
<polygon fill="none" stroke="#000000" points="279,-3114 142,-3114 142,-3078 279,-3078 279,-3114"/>
<text text-anchor="middle" x="210.5" y="-3092.3" font-family="Times,serif" font-size="14.00" fill="#000000">TradeConfig:getTrace</text>
</g>
<!-- 140178131751208 -->
<g id="node63" class="node">
<title>140178131751208</title>
<polygon fill="none" stroke="#000000" points="321,-3168 100,-3168 100,-3132 321,-3132 321,-3168"/>
<text text-anchor="middle" x="210.5" y="-3146.3" font-family="Times,serif" font-size="14.00" fill="#000000">TradeConfig:useRemoteEJBInterface</text>
</g>
<!-- 140178131751264 -->
<g id="node64" class="node">
<title>140178131751264</title>
<polygon fill="none" stroke="#000000" points="310.5,-3222 110.5,-3222 110.5,-3186 310.5,-3186 310.5,-3222"/>
<text text-anchor="middle" x="210.5" y="-3200.3" font-family="Times,serif" font-size="14.00" fill="#000000">TradeSLSBBean:getAccountData</text>
</g>
<!-- 140178131752552 -->
<g id="node65" class="node">
<title>140178131752552</title>
<polygon fill="none" stroke="#000000" points="328.5,-3276 92.5,-3276 92.5,-3240 328.5,-3240 328.5,-3276"/>
<text text-anchor="middle" x="210.5" y="-3254.3" font-family="Times,serif" font-size="14.00" fill="#000000">TradeSLSBBean:getAccountProfileData</text>
</g>
<!-- 140178131754232 -->
<g id="node66" class="node">
<title>140178131754232</title>
<polygon fill="none" stroke="#000000" points="312,-3330 109,-3330 109,-3294 312,-3294 312,-3330"/>
<text text-anchor="middle" x="210.5" y="-3308.3" font-family="Times,serif" font-size="14.00" fill="#000000">TradeSLSBBean:getClosedOrders</text>
</g>
<!-- 140178131751152 -->
<g id="node67" class="node">
<title>140178131751152</title>
<polygon fill="none" stroke="#000000" points="325.5,-3384 95.5,-3384 95.5,-3348 325.5,-3348 325.5,-3384"/>
<text text-anchor="middle" x="210.5" y="-3362.3" font-family="Times,serif" font-size="14.00" fill="#000000">TradeSLSBBean:updateAccountProfile</text>
</g>
<!-- 140178131753952 -->
<g id="node68" class="node">
<title>140178131753952</title>
<polygon fill="none" stroke="#000000" points="303.5,-3438 117.5,-3438 117.5,-3402 303.5,-3402 303.5,-3438"/>
<text text-anchor="middle" x="210.5" y="-3416.3" font-family="Times,serif" font-size="14.00" fill="#000000">TradeServletAction:doAccount</text>
</g>
<!-- 140178131751936 -->
<g id="node69" class="node">
<title>140178131751936</title>
<polygon fill="none" stroke="#000000" points="323,-3492 98,-3492 98,-3456 323,-3456 323,-3492"/>
<text text-anchor="middle" x="210.5" y="-3470.3" font-family="Times,serif" font-size="14.00" fill="#000000">TradeServletAction:doAccountUpdate</text>
</g>
<!-- 140178131752944 -->
<g id="node70" class="node">
<title>140178131752944</title>
<polygon fill="none" stroke="#000000" points="317.5,-3546 103.5,-3546 103.5,-3510 317.5,-3510 317.5,-3546"/>
<text text-anchor="middle" x="210.5" y="-3524.3" font-family="Times,serif" font-size="14.00" fill="#000000">TradeServletAction:requestDispatch</text>
</g>
<!-- 140178131753280 -->
<g id="node71" class="node">
<title>140178131753280</title>
<polygon fill="none" stroke="#000000" points="742.5,-2161 650.5,-2161 650.5,-2125 742.5,-2125 742.5,-2161"/>
<text text-anchor="middle" x="696.5" y="-2139.3" font-family="Times,serif" font-size="14.00" fill="#000000">artificial_start</text>
</g>
<!-- 140178131753280&#45;&gt;140178131719616 -->
<g id="edge13" class="edge">
<title>140178131753280&#45;&gt;140178131719616</title>
<path fill="none" stroke="#000000" d="M742.6641,-2152.6914C772.3971,-2159.2828 811.7527,-2168.6617 846,-2179 855.2501,-2181.7924 865.1231,-2185.1912 874.2433,-2188.5099"/>
<polygon fill="#000000" stroke="#000000" points="873.186,-2191.8507 883.779,-2192.0471 875.6205,-2185.2876 873.186,-2191.8507"/>
</g>
<!-- 140178131754176 -->
<g id="node72" class="node">
<title>140178131754176</title>
<ellipse fill="#00ff00" stroke="#000000" cx="484" cy="-2138" rx="27" ry="27"/>
<text text-anchor="middle" x="484" y="-2134.3" font-family="Times,serif" font-size="14.00" fill="#000000">1</text>
</g>
<!-- 140178131754176&#45;&gt;140178131753280 -->
<g id="edge14" class="edge">
<title>140178131754176&#45;&gt;140178131753280</title>
<path fill="none" stroke="#000000" d="M511.3456,-2138.6434C543.7589,-2139.4061 598.6168,-2140.6969 640.2291,-2141.676"/>
<polygon fill="#000000" stroke="#000000" points="640.1524,-2145.175 650.232,-2141.9113 640.3172,-2138.177 640.1524,-2145.175"/>
</g>
<!-- 140178131721688&#45;&gt;140178131751600 -->
<g id="edge1" class="edge">
<title>140178131721688&#45;&gt;140178131751600</title>
<path fill="none" stroke="#000000" d="M511.3456,-1071.4853C529.9329,-1071.1354 555.9008,-1070.6466 582.5192,-1070.1455"/>
<polygon fill="#000000" stroke="#000000" points="582.8065,-1073.6408 592.7388,-1069.9532 582.6747,-1066.6421 582.8065,-1073.6408"/>
</g>
<!-- 140178131721016&#45;&gt;140178131752440 -->
<g id="edge2" class="edge">
<title>140178131721016&#45;&gt;140178131752440</title>
<path fill="none" stroke="#000000" d="M510.9133,-2266.0738C524.9576,-2264.025 543.2987,-2261.3494 562.9786,-2258.4784"/>
<polygon fill="#000000" stroke="#000000" points="563.6637,-2261.9156 573.0537,-2257.0086 562.6531,-2254.9889 563.6637,-2261.9156"/>
</g>
<!-- 140178131721016&#45;&gt;140178131753672 -->
<g id="edge3" class="edge">
<title>140178131721016&#45;&gt;140178131753672</title>
<path fill="none" stroke="#000000" d="M510.9133,-2272.913C548.4923,-2276.9803 616.8339,-2284.3773 659.2733,-2288.9708"/>
<polygon fill="#000000" stroke="#000000" points="659.1519,-2292.478 669.4705,-2290.0744 659.9052,-2285.5186 659.1519,-2292.478"/>
</g>
<!-- 140178131719336&#45;&gt;140178131754736 -->
<g id="edge4" class="edge">
<title>140178131719336&#45;&gt;140178131754736</title>
<path fill="none" stroke="#000000" d="M882.0291,-1042.5218C870.8796,-1041.9612 857.8201,-1041.3695 846,-1041 673.1813,-1035.597 629.8804,-1033.1954 457,-1036 413.9883,-1036.6978 366.7717,-1038.08 325.275,-1039.502"/>
<polygon fill="#000000" stroke="#000000" points="325.0052,-1036.0091 315.1327,-1039.8541 325.2481,-1043.0049 325.0052,-1036.0091"/>
</g>
<!-- 140178131719616&#45;&gt;140178131752104 -->
<g id="edge5" class="edge">
<title>140178131719616&#45;&gt;140178131752104</title>
<path fill="none" stroke="#000000" d="M881.7427,-2202.4575C821.4053,-2203.535 671.9954,-2206.5603 547,-2212 488.8102,-2214.5324 425.0063,-2218.1185 368.7484,-2221.5564"/>
<polygon fill="#000000" stroke="#000000" points="368.466,-2218.067 358.6994,-2222.1737 368.8953,-2225.0539 368.466,-2218.067"/>
</g>
<!-- 140178131719616&#45;&gt;140178131753616 -->
<g id="edge6" class="edge">
<title>140178131719616&#45;&gt;140178131753616</title>
<path fill="none" stroke="#000000" d="M933.6474,-2213.8447C952.9404,-2223.1162 980.3345,-2236.2809 1003.75,-2247.5335"/>
<polygon fill="#000000" stroke="#000000" points="1002.3068,-2250.7232 1012.8361,-2251.9 1005.3389,-2244.4139 1002.3068,-2250.7232"/>
</g>
</g>
</svg>
