<?xml version="1.0" encoding="UTF-8" standalone="no"?>
<!DOCTYPE svg PUBLIC "-//W3C//DTD SVG 1.1//EN"
 "http://www.w3.org/Graphics/SVG/1.1/DTD/svg11.dtd">
<!-- Generated by graphviz version 2.40.1 (20161225.0304)
 -->
<!-- Title: alpha_classic_net_1585315461.9451363 Pages: 1 -->
<svg width="1031pt" height="3680pt"
 viewBox="0.00 0.00 1031.00 3680.00" xmlns="http://www.w3.org/2000/svg" xmlns:xlink="http://www.w3.org/1999/xlink">
<g id="graph0" class="graph" transform="scale(1 1) rotate(0) translate(4 3676)">
<title>alpha_classic_net_1585315461.9451363</title>
<!-- 140178132367344 -->
<g id="node1" class="node">
<title>140178132367344</title>
<polygon fill="none" stroke="#000000" points="373,-36 48,-36 48,0 373,0 373,-36"/>
<text text-anchor="middle" x="210.5" y="-14.3" font-family="Times,serif" font-size="14.00" fill="#000000">AccountDataBean:AccountDataBean [overloaded_#001]</text>
</g>
<!-- 140178132366056 -->
<g id="node2" class="node">
<title>140178132366056</title>
<polygon fill="none" stroke="#000000" points="308.5,-90 112.5,-90 112.5,-54 308.5,-54 308.5,-90"/>
<text text-anchor="middle" x="210.5" y="-68.3" font-family="Times,serif" font-size="14.00" fill="#000000">AccountDataBean:getAccountID</text>
</g>
<!-- 140178132367400 -->
<g id="node3" class="node">
<title>140178132367400</title>
<polygon fill="none" stroke="#000000" points="300,-144 121,-144 121,-108 300,-108 300,-144"/>
<text text-anchor="middle" x="210.5" y="-122.3" font-family="Times,serif" font-size="14.00" fill="#000000">AccountDataBean:getBalance</text>
</g>
<!-- 140178132367624 -->
<g id="node4" class="node">
<title>140178132367624</title>
<polygon fill="none" stroke="#000000" points="314.5,-198 106.5,-198 106.5,-162 314.5,-162 314.5,-198"/>
<text text-anchor="middle" x="210.5" y="-176.3" font-family="Times,serif" font-size="14.00" fill="#000000">AccountDataBean:getCreationDate</text>
</g>
<!-- 140178132366672 -->
<g id="node5" class="node">
<title>140178132366672</title>
<polygon fill="none" stroke="#000000" points="306,-252 115,-252 115,-216 306,-216 306,-252"/>
<text text-anchor="middle" x="210.5" y="-230.3" font-family="Times,serif" font-size="14.00" fill="#000000">AccountDataBean:getLastLogin</text>
</g>
<!-- 140178131754848 -->
<g id="node6" class="node">
<title>140178131754848</title>
<polygon fill="none" stroke="#000000" points="311,-306 110,-306 110,-270 311,-270 311,-306"/>
<text text-anchor="middle" x="210.5" y="-284.3" font-family="Times,serif" font-size="14.00" fill="#000000">AccountDataBean:getLoginCount</text>
</g>
<!-- 140178131754960 -->
<g id="node7" class="node">
<title>140178131754960</title>
<polygon fill="none" stroke="#000000" points="314.5,-360 106.5,-360 106.5,-324 314.5,-324 314.5,-360"/>
<text text-anchor="middle" x="210.5" y="-338.3" font-family="Times,serif" font-size="14.00" fill="#000000">AccountDataBean:getLogoutCount</text>
</g>
<!-- 140178132366448 -->
<g id="node8" class="node">
<title>140178132366448</title>
<polygon fill="none" stroke="#000000" points="315,-414 106,-414 106,-378 315,-378 315,-414"/>
<text text-anchor="middle" x="210.5" y="-392.3" font-family="Times,serif" font-size="14.00" fill="#000000">AccountDataBean:getOpenBalance</text>
</g>
<!-- 140178132366504 -->
<g id="node9" class="node">
<title>140178132366504</title>
<polygon fill="none" stroke="#000000" points="304,-468 117,-468 117,-432 304,-432 304,-468"/>
<text text-anchor="middle" x="210.5" y="-446.3" font-family="Times,serif" font-size="14.00" fill="#000000">AccountDataBean:getProfileID</text>
</g>
<!-- 140178131754400 -->
<g id="node10" class="node">
<title>140178131754400</title>
<polygon fill="none" stroke="#000000" points="303,-522 118,-522 118,-486 303,-486 303,-522"/>
<text text-anchor="middle" x="210.5" y="-500.3" font-family="Times,serif" font-size="14.00" fill="#000000">AccountDataBean:setProfileID</text>
</g>
<!-- 140178132367960 -->
<g id="node11" class="node">
<title>140178132367960</title>
<polygon fill="none" stroke="#000000" points="409.5,-576 11.5,-576 11.5,-540 409.5,-540 409.5,-576"/>
<text text-anchor="middle" x="210.5" y="-554.3" font-family="Times,serif" font-size="14.00" fill="#000000">AccountProfileDataBean:AccountProfileDataBean [overloaded_#001]</text>
</g>
<!-- 140178132367008 -->
<g id="node12" class="node">
<title>140178132367008</title>
<polygon fill="none" stroke="#000000" points="409.5,-630 11.5,-630 11.5,-594 409.5,-594 409.5,-630"/>
<text text-anchor="middle" x="210.5" y="-608.3" font-family="Times,serif" font-size="14.00" fill="#000000">AccountProfileDataBean:AccountProfileDataBean [overloaded_#002]</text>
</g>
<!-- 140178132366784 -->
<g id="node13" class="node">
<title>140178132366784</title>
<polygon fill="none" stroke="#000000" points="319.5,-684 101.5,-684 101.5,-648 319.5,-648 319.5,-684"/>
<text text-anchor="middle" x="210.5" y="-662.3" font-family="Times,serif" font-size="14.00" fill="#000000">AccountProfileDataBean:getAccount</text>
</g>
<!-- 140178132366112 -->
<g id="node14" class="node">
<title>140178132366112</title>
<polygon fill="none" stroke="#000000" points="319,-738 102,-738 102,-702 319,-702 319,-738"/>
<text text-anchor="middle" x="210.5" y="-716.3" font-family="Times,serif" font-size="14.00" fill="#000000">AccountProfileDataBean:getAddress</text>
</g>
<!-- 140178131754456 -->
<g id="node15" class="node">
<title>140178131754456</title>
<polygon fill="none" stroke="#000000" points="327,-792 94,-792 94,-756 327,-756 327,-792"/>
<text text-anchor="middle" x="210.5" y="-770.3" font-family="Times,serif" font-size="14.00" fill="#000000">AccountProfileDataBean:getCreditCard</text>
</g>
<!-- 140178131754512 -->
<g id="node16" class="node">
<title>140178131754512</title>
<polygon fill="none" stroke="#000000" points="313.5,-846 107.5,-846 107.5,-810 313.5,-810 313.5,-846"/>
<text text-anchor="middle" x="210.5" y="-824.3" font-family="Times,serif" font-size="14.00" fill="#000000">AccountProfileDataBean:getEmail</text>
</g>
<!-- 140178131754568 -->
<g id="node17" class="node">
<title>140178131754568</title>
<polygon fill="none" stroke="#000000" points="324,-900 97,-900 97,-864 324,-864 324,-900"/>
<text text-anchor="middle" x="210.5" y="-878.3" font-family="Times,serif" font-size="14.00" fill="#000000">AccountProfileDataBean:getFullName</text>
</g>
<!-- 140178131754344 -->
<g id="node18" class="node">
<title>140178131754344</title>
<polygon fill="none" stroke="#000000" points="322.5,-954 98.5,-954 98.5,-918 322.5,-918 322.5,-954"/>
<text text-anchor="middle" x="210.5" y="-932.3" font-family="Times,serif" font-size="14.00" fill="#000000">AccountProfileDataBean:getPassword</text>
</g>
<!-- 140178132366224 -->
<g id="node19" class="node">
<title>140178132366224</title>
<polygon fill="none" stroke="#000000" points="316.5,-1008 104.5,-1008 104.5,-972 316.5,-972 316.5,-1008"/>
<text text-anchor="middle" x="210.5" y="-986.3" font-family="Times,serif" font-size="14.00" fill="#000000">AccountProfileDataBean:getUserID</text>
</g>
<!-- 140178131754232 -->
<g id="node20" class="node">
<title>140178131754232</title>
<polygon fill="none" stroke="#000000" points="315,-1062 106,-1062 106,-1026 315,-1026 315,-1062"/>
<text text-anchor="middle" x="210.5" y="-1040.3" font-family="Times,serif" font-size="14.00" fill="#000000">AccountProfileDataBean:hashCode</text>
</g>
<!-- 140178132368352 -->
<g id="node21" class="node">
<title>140178132368352</title>
<polygon fill="none" stroke="#000000" points="318,-1116 103,-1116 103,-1080 318,-1080 318,-1116"/>
<text text-anchor="middle" x="210.5" y="-1094.3" font-family="Times,serif" font-size="14.00" fill="#000000">AccountProfileDataBean:setAddress</text>
</g>
<!-- 140178132367680 -->
<g id="node22" class="node">
<title>140178132367680</title>
<polygon fill="none" stroke="#000000" points="326,-1170 95,-1170 95,-1134 326,-1134 326,-1170"/>
<text text-anchor="middle" x="210.5" y="-1148.3" font-family="Times,serif" font-size="14.00" fill="#000000">AccountProfileDataBean:setCreditCard</text>
</g>
<!-- 140178132367064 -->
<g id="node23" class="node">
<title>140178132367064</title>
<polygon fill="none" stroke="#000000" points="312.5,-1224 108.5,-1224 108.5,-1188 312.5,-1188 312.5,-1224"/>
<text text-anchor="middle" x="210.5" y="-1202.3" font-family="Times,serif" font-size="14.00" fill="#000000">AccountProfileDataBean:setEmail</text>
</g>
<!-- 140178132366168 -->
<g id="node24" class="node">
<title>140178132366168</title>
<polygon fill="none" stroke="#000000" points="323.5,-1278 97.5,-1278 97.5,-1242 323.5,-1242 323.5,-1278"/>
<text text-anchor="middle" x="210.5" y="-1256.3" font-family="Times,serif" font-size="14.00" fill="#000000">AccountProfileDataBean:setFullName</text>
</g>
<!-- 140178132366560 -->
<g id="node25" class="node">
<title>140178132366560</title>
<polygon fill="none" stroke="#000000" points="322,-1332 99,-1332 99,-1296 322,-1296 322,-1332"/>
<text text-anchor="middle" x="210.5" y="-1310.3" font-family="Times,serif" font-size="14.00" fill="#000000">AccountProfileDataBean:setPassword</text>
</g>
<!-- 140178132365496 -->
<g id="node26" class="node">
<title>140178132365496</title>
<polygon fill="none" stroke="#000000" points="316,-1386 105,-1386 105,-1350 316,-1350 316,-1386"/>
<text text-anchor="middle" x="210.5" y="-1364.3" font-family="Times,serif" font-size="14.00" fill="#000000">AccountProfileDataBean:setUserID</text>
</g>
<!-- 140178131754792 -->
<g id="node27" class="node">
<title>140178131754792</title>
<polygon fill="none" stroke="#000000" points="316,-1440 105,-1440 105,-1404 316,-1404 316,-1440"/>
<text text-anchor="middle" x="210.5" y="-1418.3" font-family="Times,serif" font-size="14.00" fill="#000000">FinancialUtils:computeGainPercent</text>
</g>
<!-- 140178131754624 -->
<g id="node28" class="node">
<title>140178131754624</title>
<polygon fill="none" stroke="#000000" points="272,-1494 149,-1494 149,-1458 272,-1458 272,-1494"/>
<text text-anchor="middle" x="210.5" y="-1472.3" font-family="Times,serif" font-size="14.00" fill="#000000">Log:doActionTrace</text>
</g>
<!-- 140178132367512 -->
<g id="node29" class="node">
<title>140178132367512</title>
<polygon fill="none" stroke="#000000" points="253.5,-1548 167.5,-1548 167.5,-1512 253.5,-1512 253.5,-1548"/>
<text text-anchor="middle" x="210.5" y="-1526.3" font-family="Times,serif" font-size="14.00" fill="#000000">Log:doTrace</text>
</g>
<!-- 140178132368240 -->
<g id="node30" class="node">
<title>140178132368240</title>
<polygon fill="none" stroke="#000000" points="273.5,-1602 147.5,-1602 147.5,-1566 273.5,-1566 273.5,-1602"/>
<text text-anchor="middle" x="210.5" y="-1580.3" font-family="Times,serif" font-size="14.00" fill="#000000">Log:getActionTrace</text>
</g>
<!-- 140178132365832 -->
<g id="node31" class="node">
<title>140178132365832</title>
<polygon fill="none" stroke="#000000" points="255,-1656 166,-1656 166,-1620 255,-1620 255,-1656"/>
<text text-anchor="middle" x="210.5" y="-1634.3" font-family="Times,serif" font-size="14.00" fill="#000000">Log:getTrace</text>
</g>
<!-- 140178132365664 -->
<g id="node32" class="node">
<title>140178132365664</title>
<polygon fill="none" stroke="#000000" points="421,-1710 0,-1710 0,-1674 421,-1674 421,-1710"/>
<text text-anchor="middle" x="210.5" y="-1688.3" font-family="Times,serif" font-size="14.00" fill="#000000">MarketSummaryDataBean:MarketSummaryDataBean [overloaded_#002]</text>
</g>
<!-- 140178132367232 -->
<g id="node33" class="node">
<title>140178132367232</title>
<polygon fill="none" stroke="#000000" points="332,-1764 89,-1764 89,-1728 332,-1728 332,-1764"/>
<text text-anchor="middle" x="210.5" y="-1742.3" font-family="Times,serif" font-size="14.00" fill="#000000">MarketSummaryDataBean:getOpenTSIA</text>
</g>
<!-- 140178132367176 -->
<g id="node34" class="node">
<title>140178132367176</title>
<polygon fill="none" stroke="#000000" points="317.5,-1818 103.5,-1818 103.5,-1782 317.5,-1782 317.5,-1818"/>
<text text-anchor="middle" x="210.5" y="-1796.3" font-family="Times,serif" font-size="14.00" fill="#000000">MarketSummaryDataBean:getTSIA</text>
</g>
<!-- 140178132367904 -->
<g id="node35" class="node">
<title>140178132367904</title>
<polygon fill="none" stroke="#000000" points="331.5,-1872 89.5,-1872 89.5,-1836 331.5,-1836 331.5,-1872"/>
<text text-anchor="middle" x="210.5" y="-1850.3" font-family="Times,serif" font-size="14.00" fill="#000000">MarketSummaryDataBean:setOpenTSIA</text>
</g>
<!-- 140178132365888 -->
<g id="node36" class="node">
<title>140178132365888</title>
<polygon fill="none" stroke="#000000" points="341.5,-1926 79.5,-1926 79.5,-1890 341.5,-1890 341.5,-1926"/>
<text text-anchor="middle" x="210.5" y="-1904.3" font-family="Times,serif" font-size="14.00" fill="#000000">MarketSummaryDataBean:setSummaryDate</text>
</g>
<!-- 140178132366336 -->
<g id="node37" class="node">
<title>140178132366336</title>
<polygon fill="none" stroke="#000000" points="316.5,-1980 104.5,-1980 104.5,-1944 316.5,-1944 316.5,-1980"/>
<text text-anchor="middle" x="210.5" y="-1958.3" font-family="Times,serif" font-size="14.00" fill="#000000">MarketSummaryDataBean:setTSIA</text>
</g>
<!-- 140178131754736 -->
<g id="node38" class="node">
<title>140178131754736</title>
<polygon fill="none" stroke="#000000" points="333.5,-2034 87.5,-2034 87.5,-1998 333.5,-1998 333.5,-2034"/>
<text text-anchor="middle" x="210.5" y="-2012.3" font-family="Times,serif" font-size="14.00" fill="#000000">MarketSummaryDataBean:setTopGainers</text>
</g>
<!-- 140178132365384 -->
<g id="node39" class="node">
<title>140178132365384</title>
<polygon fill="none" stroke="#000000" points="330.5,-2088 90.5,-2088 90.5,-2052 330.5,-2052 330.5,-2088"/>
<text text-anchor="middle" x="210.5" y="-2066.3" font-family="Times,serif" font-size="14.00" fill="#000000">MarketSummaryDataBean:setTopLosers</text>
</g>
<!-- 140178132367120 -->
<g id="node40" class="node">
<title>140178132367120</title>
<polygon fill="none" stroke="#000000" points="324,-2142 97,-2142 97,-2106 324,-2106 324,-2142"/>
<text text-anchor="middle" x="210.5" y="-2120.3" font-family="Times,serif" font-size="14.00" fill="#000000">MarketSummaryDataBean:setVolume</text>
</g>
<!-- 140178132367792 -->
<g id="node41" class="node">
<title>140178132367792</title>
<polygon fill="none" stroke="#000000" points="374.5,-2196 46.5,-2196 46.5,-2160 374.5,-2160 374.5,-2196"/>
<text text-anchor="middle" x="210.5" y="-2174.3" font-family="Times,serif" font-size="14.00" fill="#000000">MarketSummarySingleton:setMarketSummaryDataBean</text>
</g>
<!-- 140178132367288 -->
<g id="node42" class="node">
<title>140178132367288</title>
<polygon fill="none" stroke="#000000" points="753,-2286 457,-2286 457,-2250 753,-2250 753,-2286"/>
<text text-anchor="middle" x="605" y="-2264.3" font-family="Times,serif" font-size="14.00" fill="#000000">MarketSummarySingleton:updateMarketSummary</text>
</g>
<!-- 140178132368800 -->
<g id="node72" class="node">
<title>140178132368800</title>
<ellipse fill="none" stroke="#000000" cx="816" cy="-2241" rx="27" ry="27"/>
<text text-anchor="middle" x="816" y="-2237.3" font-family="Times,serif" font-size="14.00" fill="#000000">({&#39;MarketSummarySingleton:updateMarketSummary&#39;, &#39;OrdersAlertFilter:doFilter&#39;}, {&#39;Root&#39;})</text>
</g>
<!-- 140178132367288&#45;&gt;140178132368800 -->
<g id="edge2" class="edge">
<title>140178132367288&#45;&gt;140178132368800</title>
<path fill="none" stroke="#000000" d="M745.7401,-2249.9906C757.7313,-2248.4562 769.0363,-2247.0096 778.9293,-2245.7436"/>
<polygon fill="#000000" stroke="#000000" points="779.601,-2249.1863 789.0758,-2244.4453 778.7124,-2242.2429 779.601,-2249.1863"/>
</g>
<!-- 140178132366000 -->
<g id="node43" class="node">
<title>140178132366000</title>
<polygon fill="none" stroke="#000000" points="683.5,-2232 526.5,-2232 526.5,-2196 683.5,-2196 683.5,-2232"/>
<text text-anchor="middle" x="605" y="-2210.3" font-family="Times,serif" font-size="14.00" fill="#000000">OrdersAlertFilter:doFilter</text>
</g>
<!-- 140178132366000&#45;&gt;140178132368800 -->
<g id="edge3" class="edge">
<title>140178132366000&#45;&gt;140178132368800</title>
<path fill="none" stroke="#000000" d="M683.5686,-2224.0538C716.3584,-2228.2497 752.868,-2232.9215 779.2348,-2236.2954"/>
<polygon fill="#000000" stroke="#000000" points="778.8029,-2239.7686 789.1663,-2237.5663 779.6914,-2232.8253 778.8029,-2239.7686"/>
</g>
<!-- 140178132366728 -->
<g id="node44" class="node">
<title>140178132366728</title>
<polygon fill="none" stroke="#000000" points="360,-2322 61,-2322 61,-2286 360,-2286 360,-2322"/>
<text text-anchor="middle" x="210.5" y="-2300.3" font-family="Times,serif" font-size="14.00" fill="#000000">QuoteDataBean:QuoteDataBean [overloaded_#001]</text>
</g>
<!-- 140178132365776 -->
<g id="node45" class="node">
<title>140178132365776</title>
<polygon fill="none" stroke="#000000" points="286.5,-2376 134.5,-2376 134.5,-2340 286.5,-2340 286.5,-2376"/>
<text text-anchor="middle" x="210.5" y="-2354.3" font-family="Times,serif" font-size="14.00" fill="#000000">QuoteDataBean:getOpen</text>
</g>
<!-- 140178132365552 -->
<g id="node46" class="node">
<title>140178132365552</title>
<polygon fill="none" stroke="#000000" points="286,-2430 135,-2430 135,-2394 286,-2394 286,-2430"/>
<text text-anchor="middle" x="210.5" y="-2408.3" font-family="Times,serif" font-size="14.00" fill="#000000">QuoteDataBean:getPrice</text>
</g>
<!-- 140178132366280 -->
<g id="node47" class="node">
<title>140178132366280</title>
<polygon fill="none" stroke="#000000" points="294,-2484 127,-2484 127,-2448 294,-2448 294,-2484"/>
<text text-anchor="middle" x="210.5" y="-2462.3" font-family="Times,serif" font-size="14.00" fill="#000000">QuoteDataBean:getVolume</text>
</g>
<!-- 140178132365944 -->
<g id="node48" class="node">
<title>140178132365944</title>
<polygon fill="none" stroke="#000000" points="933,-2259 879,-2259 879,-2223 933,-2223 933,-2259"/>
<text text-anchor="middle" x="906" y="-2237.3" font-family="Times,serif" font-size="14.00" fill="#000000">Root</text>
</g>
<!-- 140178132368632 -->
<g id="node73" class="node">
<title>140178132368632</title>
<ellipse fill="#ffa500" stroke="#000000" cx="996" cy="-2241" rx="27" ry="27"/>
</g>
<!-- 140178132365944&#45;&gt;140178132368632 -->
<g id="edge4" class="edge">
<title>140178132365944&#45;&gt;140178132368632</title>
<path fill="none" stroke="#000000" d="M933.003,-2241C941.0277,-2241 949.9665,-2241 958.5309,-2241"/>
<polygon fill="#000000" stroke="#000000" points="958.7051,-2244.5001 968.705,-2241 958.705,-2237.5001 958.7051,-2244.5001"/>
</g>
<!-- 140178131754680 -->
<g id="node49" class="node">
<title>140178131754680</title>
<polygon fill="none" stroke="#000000" points="342,-2538 79,-2538 79,-2502 342,-2502 342,-2538"/>
<text text-anchor="middle" x="210.5" y="-2516.3" font-family="Times,serif" font-size="14.00" fill="#000000">TradeAction:TradeAction [overloaded_#001]</text>
</g>
<!-- 140178132368128 -->
<g id="node50" class="node">
<title>140178132368128</title>
<polygon fill="none" stroke="#000000" points="286.5,-2592 134.5,-2592 134.5,-2556 286.5,-2556 286.5,-2592"/>
<text text-anchor="middle" x="210.5" y="-2570.3" font-family="Times,serif" font-size="14.00" fill="#000000">TradeAction:createTrade</text>
</g>
<!-- 140178132368072 -->
<g id="node51" class="node">
<title>140178132368072</title>
<polygon fill="none" stroke="#000000" points="298.5,-2646 122.5,-2646 122.5,-2610 298.5,-2610 298.5,-2646"/>
<text text-anchor="middle" x="210.5" y="-2624.3" font-family="Times,serif" font-size="14.00" fill="#000000">TradeAction:getAccountData</text>
</g>
<!-- 140178132365440 -->
<g id="node52" class="node">
<title>140178132365440</title>
<polygon fill="none" stroke="#000000" points="317,-2700 104,-2700 104,-2664 317,-2664 317,-2700"/>
<text text-anchor="middle" x="210.5" y="-2678.3" font-family="Times,serif" font-size="14.00" fill="#000000">TradeAction:getAccountProfileData</text>
</g>
<!-- 140178131754008 -->
<g id="node53" class="node">
<title>140178131754008</title>
<polygon fill="none" stroke="#000000" points="300,-2754 121,-2754 121,-2718 300,-2718 300,-2754"/>
<text text-anchor="middle" x="210.5" y="-2732.3" font-family="Times,serif" font-size="14.00" fill="#000000">TradeAction:getClosedOrders</text>
</g>
<!-- 140178132367848 -->
<g id="node54" class="node">
<title>140178132367848</title>
<polygon fill="none" stroke="#000000" points="314,-2808 107,-2808 107,-2772 314,-2772 314,-2808"/>
<text text-anchor="middle" x="210.5" y="-2786.3" font-family="Times,serif" font-size="14.00" fill="#000000">TradeAction:updateAccountProfile</text>
</g>
<!-- 140178132366616 -->
<g id="node55" class="node">
<title>140178132366616</title>
<polygon fill="none" stroke="#000000" points="283.5,-2862 137.5,-2862 137.5,-2826 283.5,-2826 283.5,-2862"/>
<text text-anchor="middle" x="210.5" y="-2840.3" font-family="Times,serif" font-size="14.00" fill="#000000">TradeAppServlet:doGet</text>
</g>
<!-- 140178132366952 -->
<g id="node56" class="node">
<title>140178132366952</title>
<polygon fill="none" stroke="#000000" points="302.5,-2916 118.5,-2916 118.5,-2880 302.5,-2880 302.5,-2916"/>
<text text-anchor="middle" x="210.5" y="-2894.3" font-family="Times,serif" font-size="14.00" fill="#000000">TradeAppServlet:performTask</text>
</g>
<!-- 140178131754904 -->
<g id="node57" class="node">
<title>140178131754904</title>
<polygon fill="none" stroke="#000000" points="297,-2970 124,-2970 124,-2934 297,-2934 297,-2970"/>
<text text-anchor="middle" x="210.5" y="-2948.3" font-family="Times,serif" font-size="14.00" fill="#000000">TradeConfig:getActionTrace</text>
</g>
<!-- 140178132366392 -->
<g id="node58" class="node">
<title>140178132366392</title>
<polygon fill="none" stroke="#000000" points="316.5,-3024 104.5,-3024 104.5,-2988 316.5,-2988 316.5,-3024"/>
<text text-anchor="middle" x="210.5" y="-3002.3" font-family="Times,serif" font-size="14.00" fill="#000000">TradeConfig:getDisplayOrderAlerts</text>
</g>
<!-- 140178132366896 -->
<g id="node59" class="node">
<title>140178132366896</title>
<polygon fill="none" stroke="#000000" points="289,-3078 132,-3078 132,-3042 289,-3042 289,-3078"/>
<text text-anchor="middle" x="210.5" y="-3056.3" font-family="Times,serif" font-size="14.00" fill="#000000">TradeConfig:getLongRun</text>
</g>
<!-- 140178132367568 -->
<g id="node60" class="node">
<title>140178132367568</title>
<polygon fill="none" stroke="#000000" points="276.5,-3132 144.5,-3132 144.5,-3096 276.5,-3096 276.5,-3132"/>
<text text-anchor="middle" x="210.5" y="-3110.3" font-family="Times,serif" font-size="14.00" fill="#000000">TradeConfig:getPage</text>
</g>
<!-- 140178132367736 -->
<g id="node61" class="node">
<title>140178132367736</title>
<polygon fill="none" stroke="#000000" points="305.5,-3186 115.5,-3186 115.5,-3150 305.5,-3150 305.5,-3186"/>
<text text-anchor="middle" x="210.5" y="-3164.3" font-family="Times,serif" font-size="14.00" fill="#000000">TradeConfig:getRunTimeMode</text>
</g>
<!-- 140178132368408 -->
<g id="node62" class="node">
<title>140178132368408</title>
<polygon fill="none" stroke="#000000" points="279,-3240 142,-3240 142,-3204 279,-3204 279,-3240"/>
<text text-anchor="middle" x="210.5" y="-3218.3" font-family="Times,serif" font-size="14.00" fill="#000000">TradeConfig:getTrace</text>
</g>
<!-- 140178132368016 -->
<g id="node63" class="node">
<title>140178132368016</title>
<polygon fill="none" stroke="#000000" points="321,-3294 100,-3294 100,-3258 321,-3258 321,-3294"/>
<text text-anchor="middle" x="210.5" y="-3272.3" font-family="Times,serif" font-size="14.00" fill="#000000">TradeConfig:useRemoteEJBInterface</text>
</g>
<!-- 140178132368184 -->
<g id="node64" class="node">
<title>140178132368184</title>
<polygon fill="none" stroke="#000000" points="310.5,-3348 110.5,-3348 110.5,-3312 310.5,-3312 310.5,-3348"/>
<text text-anchor="middle" x="210.5" y="-3326.3" font-family="Times,serif" font-size="14.00" fill="#000000">TradeSLSBBean:getAccountData</text>
</g>
<!-- 140178132366840 -->
<g id="node65" class="node">
<title>140178132366840</title>
<polygon fill="none" stroke="#000000" points="328.5,-3402 92.5,-3402 92.5,-3366 328.5,-3366 328.5,-3402"/>
<text text-anchor="middle" x="210.5" y="-3380.3" font-family="Times,serif" font-size="14.00" fill="#000000">TradeSLSBBean:getAccountProfileData</text>
</g>
<!-- 140178131754064 -->
<g id="node66" class="node">
<title>140178131754064</title>
<polygon fill="none" stroke="#000000" points="312,-3456 109,-3456 109,-3420 312,-3420 312,-3456"/>
<text text-anchor="middle" x="210.5" y="-3434.3" font-family="Times,serif" font-size="14.00" fill="#000000">TradeSLSBBean:getClosedOrders</text>
</g>
<!-- 140178132368296 -->
<g id="node67" class="node">
<title>140178132368296</title>
<polygon fill="none" stroke="#000000" points="325.5,-3510 95.5,-3510 95.5,-3474 325.5,-3474 325.5,-3510"/>
<text text-anchor="middle" x="210.5" y="-3488.3" font-family="Times,serif" font-size="14.00" fill="#000000">TradeSLSBBean:updateAccountProfile</text>
</g>
<!-- 140178132365608 -->
<g id="node68" class="node">
<title>140178132365608</title>
<polygon fill="none" stroke="#000000" points="303.5,-3564 117.5,-3564 117.5,-3528 303.5,-3528 303.5,-3564"/>
<text text-anchor="middle" x="210.5" y="-3542.3" font-family="Times,serif" font-size="14.00" fill="#000000">TradeServletAction:doAccount</text>
</g>
<!-- 140178132367456 -->
<g id="node69" class="node">
<title>140178132367456</title>
<polygon fill="none" stroke="#000000" points="323,-3618 98,-3618 98,-3582 323,-3582 323,-3618"/>
<text text-anchor="middle" x="210.5" y="-3596.3" font-family="Times,serif" font-size="14.00" fill="#000000">TradeServletAction:doAccountUpdate</text>
</g>
<!-- 140178132365720 -->
<g id="node70" class="node">
<title>140178132365720</title>
<polygon fill="none" stroke="#000000" points="317.5,-3672 103.5,-3672 103.5,-3636 317.5,-3636 317.5,-3672"/>
<text text-anchor="middle" x="210.5" y="-3650.3" font-family="Times,serif" font-size="14.00" fill="#000000">TradeServletAction:requestDispatch</text>
</g>
<!-- 140178132368464 -->
<g id="node71" class="node">
<title>140178132368464</title>
<ellipse fill="#00ff00" stroke="#000000" cx="210.5" cy="-2241" rx="27" ry="27"/>
<text text-anchor="middle" x="210.5" y="-2237.3" font-family="Times,serif" font-size="14.00" fill="#000000">1</text>
</g>
<!-- 140178132368464&#45;&gt;140178132367288 -->
<g id="edge5" class="edge">
<title>140178132368464&#45;&gt;140178132367288</title>
<path fill="none" stroke="#000000" d="M237.6156,-2242.8558C280.686,-2245.8036 367.9212,-2251.7741 446.5792,-2257.1575"/>
<polygon fill="#000000" stroke="#000000" points="446.4049,-2260.6537 456.6205,-2257.8448 446.8829,-2253.67 446.4049,-2260.6537"/>
</g>
<!-- 140178132368464&#45;&gt;140178132366000 -->
<g id="edge6" class="edge">
<title>140178132368464&#45;&gt;140178132366000</title>
<path fill="none" stroke="#000000" d="M237.6156,-2239.1442C294.1034,-2235.2781 426.5586,-2226.2127 515.9986,-2220.0914"/>
<polygon fill="#000000" stroke="#000000" points="516.4034,-2223.5719 526.1411,-2219.3972 515.9254,-2216.5883 516.4034,-2223.5719"/>
</g>
<!-- 140178132368800&#45;&gt;140178132365944 -->
<g id="edge1" class="edge">
<title>140178132368800&#45;&gt;140178132365944</title>
<path fill="none" stroke="#000000" d="M843.003,-2241C851.0277,-2241 859.9665,-2241 868.5309,-2241"/>
<polygon fill="#000000" stroke="#000000" points="868.7051,-2244.5001 878.705,-2241 868.705,-2237.5001 868.7051,-2244.5001"/>
</g>
</g>
</svg>
