<?xml version="1.0" encoding="UTF-8" standalone="no"?>
<!DOCTYPE svg PUBLIC "-//W3C//DTD SVG 1.1//EN"
 "http://www.w3.org/Graphics/SVG/1.1/DTD/svg11.dtd">
<!-- Generated by graphviz version 2.40.1 (20161225.0304)
 -->
<!-- Title: %3 Pages: 1 -->
<svg width="2083pt" height="793pt"
 viewBox="0.00 0.00 2083.00 792.65" xmlns="http://www.w3.org/2000/svg" xmlns:xlink="http://www.w3.org/1999/xlink">
<g id="graph0" class="graph" transform="scale(1 1) rotate(0) translate(4 788.6497)">
<title>%3</title>
<!-- 140219164137512 -->
<g id="node1" class="node">
<title>140219164137512</title>
<polygon fill="none" stroke="#000000" points="598,-170.6497 270,-170.6497 270,-134.6497 598,-134.6497 598,-170.6497"/>
<text text-anchor="middle" x="434" y="-148.9497" font-family="Times,serif" font-size="14.00" fill="#000000">MarketSummarySingleton:setMarketSummaryDataBean</text>
</g>
<!-- 140219164138576 -->
<g id="node44" class="node">
<title>140219164138576</title>
<ellipse fill="none" stroke="#000000" cx="661" cy="-179.6497" rx="27" ry="27"/>
<text text-anchor="middle" x="661" y="-175.9497" font-family="Times,serif" font-size="14.00" fill="#000000">splace_in_MarketSummarySingleton:updateMarketSummary_0</text>
</g>
<!-- 140219164137512&#45;&gt;140219164138576 -->
<g id="edge1" class="edge">
<title>140219164137512&#45;&gt;140219164138576</title>
<path fill="none" stroke="#000000" d="M585.4123,-170.6591C599.4641,-172.3305 612.64,-173.8976 623.931,-175.2406"/>
<polygon fill="#000000" stroke="#000000" points="623.8024,-178.7499 634.1458,-176.4556 624.6292,-171.7989 623.8024,-178.7499"/>
</g>
<!-- 140219164135552 -->
<g id="node2" class="node">
<title>140219164135552</title>
<polygon fill="none" stroke="#000000" points="1200,-328.6497 904,-328.6497 904,-292.6497 1200,-292.6497 1200,-328.6497"/>
<text text-anchor="middle" x="1052" y="-306.9497" font-family="Times,serif" font-size="14.00" fill="#000000">MarketSummarySingleton:updateMarketSummary</text>
</g>
<!-- 140219164220216 -->
<g id="node32" class="node">
<title>140219164220216</title>
<ellipse fill="none" stroke="#000000" cx="1263" cy="-326.6497" rx="27" ry="27"/>
<text text-anchor="middle" x="1263" y="-322.9497" font-family="Times,serif" font-size="14.00" fill="#000000">intplace_MarketSummarySingleton:updateMarketSummary</text>
</g>
<!-- 140219164135552&#45;&gt;140219164220216 -->
<g id="edge2" class="edge">
<title>140219164135552&#45;&gt;140219164220216</title>
<path fill="none" stroke="#000000" d="M1200.2643,-321.8925C1209.4307,-322.5876 1218.0786,-323.2434 1225.8562,-323.8331"/>
<polygon fill="#000000" stroke="#000000" points="1225.6534,-327.3277 1235.8894,-324.5939 1226.1827,-320.3477 1225.6534,-327.3277"/>
</g>
<!-- 140219164138016 -->
<g id="node3" class="node">
<title>140219164138016</title>
<polygon fill="none" stroke="#000000" points="1130.5,-723.6497 973.5,-723.6497 973.5,-687.6497 1130.5,-687.6497 1130.5,-723.6497"/>
<text text-anchor="middle" x="1052" y="-701.9497" font-family="Times,serif" font-size="14.00" fill="#000000">OrdersAlertFilter:doFilter</text>
</g>
<!-- 140219164242832 -->
<g id="node33" class="node">
<title>140219164242832</title>
<ellipse fill="none" stroke="#000000" cx="27" cy="-702.6497" rx="27" ry="27"/>
<text text-anchor="middle" x="27" y="-698.9497" font-family="Times,serif" font-size="14.00" fill="#000000">intplace_OrdersAlertFilter:doFilter</text>
</g>
<!-- 140219164138016&#45;&gt;140219164242832 -->
<g id="edge3" class="edge">
<title>140219164138016&#45;&gt;140219164242832</title>
<path fill="none" stroke="#000000" d="M973.4153,-704.4381C912.6815,-703.6055 826.515,-702.6497 751,-702.6497 207,-702.6497 207,-702.6497 207,-702.6497 157.6525,-702.6497 100.695,-702.6497 64.2925,-702.6497"/>
<polygon fill="#000000" stroke="#000000" points="64.1403,-699.1498 54.1403,-702.6497 64.1402,-706.1498 64.1403,-699.1498"/>
</g>
<!-- 140219164137904 -->
<g id="node4" class="node">
<title>140219164137904</title>
<polygon fill="none" stroke="#000000" points="1805,-150.6497 1506,-150.6497 1506,-114.6497 1805,-114.6497 1805,-150.6497"/>
<text text-anchor="middle" x="1655.5" y="-128.9497" font-family="Times,serif" font-size="14.00" fill="#000000">QuoteDataBean:QuoteDataBean [overloaded_#001]</text>
</g>
<!-- 140219164138856 -->
<g id="node45" class="node">
<title>140219164138856</title>
<ellipse fill="none" stroke="#000000" cx="1868" cy="-114.6497" rx="27" ry="27"/>
<text text-anchor="middle" x="1868" y="-110.9497" font-family="Times,serif" font-size="14.00" fill="#000000">splace_in_MarketSummarySingleton:updateMarketSummary_1</text>
</g>
<!-- 140219164137904&#45;&gt;140219164138856 -->
<g id="edge4" class="edge">
<title>140219164137904&#45;&gt;140219164138856</title>
<path fill="none" stroke="#000000" d="M1805.1055,-119.9772C1814.3013,-119.1983 1822.974,-118.4637 1830.7723,-117.8031"/>
<polygon fill="#000000" stroke="#000000" points="1831.1623,-121.2827 1840.8312,-116.9511 1830.5714,-114.3077 1831.1623,-121.2827"/>
</g>
<!-- 140219164138240 -->
<g id="node5" class="node">
<title>140219164138240</title>
<polygon fill="none" stroke="#000000" points="1731.5,-296.6497 1579.5,-296.6497 1579.5,-260.6497 1731.5,-260.6497 1731.5,-296.6497"/>
<text text-anchor="middle" x="1655.5" y="-274.9497" font-family="Times,serif" font-size="14.00" fill="#000000">QuoteDataBean:getOpen</text>
</g>
<!-- 140219164139136 -->
<g id="node46" class="node">
<title>140219164139136</title>
<ellipse fill="none" stroke="#000000" cx="1868" cy="-278.6497" rx="27" ry="27"/>
<text text-anchor="middle" x="1868" y="-274.9497" font-family="Times,serif" font-size="14.00" fill="#000000">splace_in_MarketSummarySingleton:updateMarketSummary_2</text>
</g>
<!-- 140219164138240&#45;&gt;140219164139136 -->
<g id="edge5" class="edge">
<title>140219164138240&#45;&gt;140219164139136</title>
<path fill="none" stroke="#000000" d="M1731.6172,-278.6497C1765.2604,-278.6497 1803.2977,-278.6497 1830.638,-278.6497"/>
<polygon fill="#000000" stroke="#000000" points="1830.9249,-282.1498 1840.9249,-278.6497 1830.9249,-275.1498 1830.9249,-282.1498"/>
</g>
<!-- 140219164138128 -->
<g id="node6" class="node">
<title>140219164138128</title>
<polygon fill="none" stroke="#000000" points="1731,-512.6497 1580,-512.6497 1580,-476.6497 1731,-476.6497 1731,-512.6497"/>
<text text-anchor="middle" x="1655.5" y="-490.9497" font-family="Times,serif" font-size="14.00" fill="#000000">QuoteDataBean:getPrice</text>
</g>
<!-- 140219164139416 -->
<g id="node47" class="node">
<title>140219164139416</title>
<ellipse fill="none" stroke="#000000" cx="1868" cy="-494.6497" rx="27" ry="27"/>
<text text-anchor="middle" x="1868" y="-490.9497" font-family="Times,serif" font-size="14.00" fill="#000000">splace_in_MarketSummarySingleton:updateMarketSummary_3</text>
</g>
<!-- 140219164138128&#45;&gt;140219164139416 -->
<g id="edge6" class="edge">
<title>140219164138128&#45;&gt;140219164139416</title>
<path fill="none" stroke="#000000" d="M1731.0179,-494.6497C1764.7185,-494.6497 1802.9323,-494.6497 1830.4193,-494.6497"/>
<polygon fill="#000000" stroke="#000000" points="1830.7627,-498.1498 1840.7627,-494.6497 1830.7627,-491.1498 1830.7627,-498.1498"/>
</g>
<!-- 140219164138352 -->
<g id="node7" class="node">
<title>140219164138352</title>
<polygon fill="none" stroke="#000000" points="1739,-368.6497 1572,-368.6497 1572,-332.6497 1739,-332.6497 1739,-368.6497"/>
<text text-anchor="middle" x="1655.5" y="-346.9497" font-family="Times,serif" font-size="14.00" fill="#000000">QuoteDataBean:getVolume</text>
</g>
<!-- 140219164217584 -->
<g id="node48" class="node">
<title>140219164217584</title>
<ellipse fill="none" stroke="#000000" cx="1868" cy="-350.6497" rx="27" ry="27"/>
<text text-anchor="middle" x="1868" y="-346.9497" font-family="Times,serif" font-size="14.00" fill="#000000">splace_in_MarketSummarySingleton:updateMarketSummary_4</text>
</g>
<!-- 140219164138352&#45;&gt;140219164217584 -->
<g id="edge7" class="edge">
<title>140219164138352&#45;&gt;140219164217584</title>
<path fill="none" stroke="#000000" d="M1739.1806,-350.6497C1770.8878,-350.6497 1805.4063,-350.6497 1830.7236,-350.6497"/>
<polygon fill="#000000" stroke="#000000" points="1830.9756,-354.1498 1840.9755,-350.6497 1830.9755,-347.1498 1830.9756,-354.1498"/>
</g>
<!-- 140219164137680 -->
<g id="node8" class="node">
<title>140219164137680</title>
<polygon fill="none" stroke="#000000" points="1985,-750.6497 1931,-750.6497 1931,-714.6497 1985,-714.6497 1985,-750.6497"/>
<text text-anchor="middle" x="1958" y="-728.9497" font-family="Times,serif" font-size="14.00" fill="#000000">Root</text>
</g>
<!-- 140219164137624 -->
<g id="node53" class="node">
<title>140219164137624</title>
<ellipse fill="#ffa500" stroke="#000000" cx="2048" cy="-732.6497" rx="27" ry="27"/>
</g>
<!-- 140219164137680&#45;&gt;140219164137624 -->
<g id="edge8" class="edge">
<title>140219164137680&#45;&gt;140219164137624</title>
<path fill="none" stroke="#000000" d="M1985.003,-732.6497C1993.0277,-732.6497 2001.9665,-732.6497 2010.5309,-732.6497"/>
<polygon fill="#000000" stroke="#000000" points="2010.7051,-736.1498 2020.705,-732.6497 2010.705,-729.1498 2010.7051,-736.1498"/>
</g>
<!-- 140219164137960 -->
<g id="node9" class="node">
<title>140219164137960</title>
<polygon fill="none" stroke="#000000" points="540,-665.6497 328,-665.6497 328,-629.6497 540,-629.6497 540,-665.6497"/>
<text text-anchor="middle" x="434" y="-643.9497" font-family="Times,serif" font-size="14.00" fill="#000000">TradeConfig:getDisplayOrderAlerts</text>
</g>
<!-- 140219164219824 -->
<g id="node50" class="node">
<title>140219164219824</title>
<ellipse fill="none" stroke="#000000" cx="661" cy="-647.6497" rx="27" ry="27"/>
<text text-anchor="middle" x="661" y="-643.9497" font-family="Times,serif" font-size="14.00" fill="#000000">splace_in_OrdersAlertFilter:doFilter_0</text>
</g>
<!-- 140219164137960&#45;&gt;140219164219824 -->
<g id="edge9" class="edge">
<title>140219164137960&#45;&gt;140219164219824</title>
<path fill="none" stroke="#000000" d="M540.1891,-647.6497C570.073,-647.6497 600.6357,-647.6497 623.5442,-647.6497"/>
<polygon fill="#000000" stroke="#000000" points="623.8194,-651.1498 633.8193,-647.6497 623.8193,-644.1498 623.8194,-651.1498"/>
</g>
<!-- 140219164137848 -->
<g id="node10" class="node">
<title>140219164137848</title>
<polygon fill="none" stroke="#000000" points="1750.5,-440.6497 1560.5,-440.6497 1560.5,-404.6497 1750.5,-404.6497 1750.5,-440.6497"/>
<text text-anchor="middle" x="1655.5" y="-418.9497" font-family="Times,serif" font-size="14.00" fill="#000000">TradeConfig:getRunTimeMode</text>
</g>
<!-- 140219164217864 -->
<g id="node49" class="node">
<title>140219164217864</title>
<ellipse fill="none" stroke="#000000" cx="1868" cy="-422.6497" rx="27" ry="27"/>
<text text-anchor="middle" x="1868" y="-418.9497" font-family="Times,serif" font-size="14.00" fill="#000000">splace_in_MarketSummarySingleton:updateMarketSummary_5</text>
</g>
<!-- 140219164137848&#45;&gt;140219164217864 -->
<g id="edge10" class="edge">
<title>140219164137848&#45;&gt;140219164217864</title>
<path fill="none" stroke="#000000" d="M1750.5624,-422.6497C1778.991,-422.6497 1808.5,-422.6497 1830.8264,-422.6497"/>
<polygon fill="#000000" stroke="#000000" points="1830.8608,-426.1498 1840.8608,-422.6497 1830.8607,-419.1498 1830.8608,-426.1498"/>
</g>
<!-- 140219164138408 -->
<g id="node11" class="node">
<title>140219164138408</title>
<polygon fill="none" stroke="#000000" points="778,-262.6497 724,-262.6497 724,-226.6497 778,-226.6497 778,-262.6497"/>
<text text-anchor="middle" x="751" y="-240.9497" font-family="Times,serif" font-size="14.00" fill="#000000">hid_1</text>
</g>
<!-- 140219164138296 -->
<g id="node35" class="node">
<title>140219164138296</title>
<ellipse fill="none" stroke="#000000" cx="841" cy="-267.6497" rx="27" ry="27"/>
<text text-anchor="middle" x="841" y="-263.9497" font-family="Times,serif" font-size="14.00" fill="#000000">pre_MarketSummarySingleton:updateMarketSummary</text>
</g>
<!-- 140219164138408&#45;&gt;140219164138296 -->
<g id="edge11" class="edge">
<title>140219164138408&#45;&gt;140219164138296</title>
<path fill="none" stroke="#000000" d="M778.003,-251.5505C786.4298,-253.704 795.8646,-256.1151 804.8152,-258.4025"/>
<polygon fill="#000000" stroke="#000000" points="804.0802,-261.8271 814.6355,-260.9121 805.8134,-255.045 804.0802,-261.8271"/>
</g>
<!-- 140219164219656 -->
<g id="node12" class="node">
<title>140219164219656</title>
<polygon fill="none" stroke="#000000" points="778,-665.6497 724,-665.6497 724,-629.6497 778,-629.6497 778,-665.6497"/>
<text text-anchor="middle" x="751" y="-643.9497" font-family="Times,serif" font-size="14.00" fill="#000000">hid_10</text>
</g>
<!-- 140219164219488 -->
<g id="node36" class="node">
<title>140219164219488</title>
<ellipse fill="none" stroke="#000000" cx="841" cy="-647.6497" rx="27" ry="27"/>
<text text-anchor="middle" x="841" y="-643.9497" font-family="Times,serif" font-size="14.00" fill="#000000">pre_OrdersAlertFilter:doFilter</text>
</g>
<!-- 140219164219656&#45;&gt;140219164219488 -->
<g id="edge12" class="edge">
<title>140219164219656&#45;&gt;140219164219488</title>
<path fill="none" stroke="#000000" d="M778.003,-647.6497C786.0277,-647.6497 794.9665,-647.6497 803.5309,-647.6497"/>
<polygon fill="#000000" stroke="#000000" points="803.7051,-651.1498 813.705,-647.6497 803.705,-644.1498 803.7051,-651.1498"/>
</g>
<!-- 140219164219936 -->
<g id="node13" class="node">
<title>140219164219936</title>
<polygon fill="none" stroke="#000000" points="778,-563.6497 724,-563.6497 724,-527.6497 778,-527.6497 778,-563.6497"/>
<text text-anchor="middle" x="751" y="-541.9497" font-family="Times,serif" font-size="14.00" fill="#000000">hid_11</text>
</g>
<!-- 140219164219936&#45;&gt;140219164219488 -->
<g id="edge13" class="edge">
<title>140219164219936&#45;&gt;140219164219488</title>
<path fill="none" stroke="#000000" d="M767.0902,-563.8853C780.6824,-579.2898 800.3769,-601.6102 816.0186,-619.3374"/>
<polygon fill="#000000" stroke="#000000" points="813.6429,-621.9351 822.8836,-627.1178 818.8918,-617.3037 813.6429,-621.9351"/>
</g>
<!-- 140219164220384 -->
<g id="node14" class="node">
<title>140219164220384</title>
<polygon fill="none" stroke="#000000" points="1380,-143.6497 1326,-143.6497 1326,-107.6497 1380,-107.6497 1380,-143.6497"/>
<text text-anchor="middle" x="1353" y="-121.9497" font-family="Times,serif" font-size="14.00" fill="#000000">hid_12</text>
</g>
<!-- 140219164219376 -->
<g id="node34" class="node">
<title>140219164219376</title>
<ellipse fill="none" stroke="#000000" cx="1443" cy="-96.6497" rx="27" ry="27"/>
<text text-anchor="middle" x="1443" y="-92.9497" font-family="Times,serif" font-size="14.00" fill="#000000">pre_MarketSummarySingleton:setMarketSummaryDataBean</text>
</g>
<!-- 140219164220384&#45;&gt;140219164219376 -->
<g id="edge14" class="edge">
<title>140219164220384&#45;&gt;140219164219376</title>
<path fill="none" stroke="#000000" d="M1380.003,-116.9488C1388.6725,-114.1553 1398.4089,-111.0179 1407.5874,-108.0604"/>
<polygon fill="#000000" stroke="#000000" points="1408.8064,-111.3449 1417.251,-104.9466 1406.6595,-104.6823 1408.8064,-111.3449"/>
</g>
<!-- 140219164220608 -->
<g id="node15" class="node">
<title>140219164220608</title>
<polygon fill="none" stroke="#000000" points="1380,-197.6497 1326,-197.6497 1326,-161.6497 1380,-161.6497 1380,-197.6497"/>
<text text-anchor="middle" x="1353" y="-175.9497" font-family="Times,serif" font-size="14.00" fill="#000000">hid_13</text>
</g>
<!-- 140219164218928 -->
<g id="node37" class="node">
<title>140219164218928</title>
<ellipse fill="none" stroke="#000000" cx="1443" cy="-168.6497" rx="27" ry="27"/>
<text text-anchor="middle" x="1443" y="-164.9497" font-family="Times,serif" font-size="14.00" fill="#000000">pre_QuoteDataBean:QuoteDataBean [overloaded_#001]</text>
</g>
<!-- 140219164220608&#45;&gt;140219164218928 -->
<g id="edge15" class="edge">
<title>140219164220608&#45;&gt;140219164218928</title>
<path fill="none" stroke="#000000" d="M1380.003,-176.3493C1388.1903,-175.3487 1397.3292,-174.2317 1406.051,-173.1657"/>
<polygon fill="#000000" stroke="#000000" points="1406.5146,-176.6352 1416.0161,-171.9477 1405.6653,-169.6869 1406.5146,-176.6352"/>
</g>
<!-- 140219164220832 -->
<g id="node16" class="node">
<title>140219164220832</title>
<polygon fill="none" stroke="#000000" points="1380,-301.6497 1326,-301.6497 1326,-265.6497 1380,-265.6497 1380,-301.6497"/>
<text text-anchor="middle" x="1353" y="-279.9497" font-family="Times,serif" font-size="14.00" fill="#000000">hid_14</text>
</g>
<!-- 140219164219152 -->
<g id="node38" class="node">
<title>140219164219152</title>
<ellipse fill="none" stroke="#000000" cx="1443" cy="-278.6497" rx="27" ry="27"/>
<text text-anchor="middle" x="1443" y="-274.9497" font-family="Times,serif" font-size="14.00" fill="#000000">pre_QuoteDataBean:getOpen</text>
</g>
<!-- 140219164220832&#45;&gt;140219164219152 -->
<g id="edge16" class="edge">
<title>140219164220832&#45;&gt;140219164219152</title>
<path fill="none" stroke="#000000" d="M1380.003,-282.1495C1388.1013,-281.6996 1397.1306,-281.198 1405.7665,-280.7182"/>
<polygon fill="#000000" stroke="#000000" points="1406.2257,-284.1982 1416.0161,-280.1488 1405.8373,-277.209 1406.2257,-284.1982"/>
</g>
<!-- 140219164221056 -->
<g id="node17" class="node">
<title>140219164221056</title>
<polygon fill="none" stroke="#000000" points="1380,-503.6497 1326,-503.6497 1326,-467.6497 1380,-467.6497 1380,-503.6497"/>
<text text-anchor="middle" x="1353" y="-481.9497" font-family="Times,serif" font-size="14.00" fill="#000000">hid_15</text>
</g>
<!-- 140219164219040 -->
<g id="node39" class="node">
<title>140219164219040</title>
<ellipse fill="none" stroke="#000000" cx="1443" cy="-494.6497" rx="27" ry="27"/>
<text text-anchor="middle" x="1443" y="-490.9497" font-family="Times,serif" font-size="14.00" fill="#000000">pre_QuoteDataBean:getPrice</text>
</g>
<!-- 140219164221056&#45;&gt;140219164219040 -->
<g id="edge17" class="edge">
<title>140219164221056&#45;&gt;140219164219040</title>
<path fill="none" stroke="#000000" d="M1380.003,-488.35C1388.1903,-489.1687 1397.3292,-490.0826 1406.051,-490.9548"/>
<polygon fill="#000000" stroke="#000000" points="1405.7174,-494.4388 1416.0161,-491.9513 1406.414,-487.4736 1405.7174,-494.4388"/>
</g>
<!-- 140219164221280 -->
<g id="node18" class="node">
<title>140219164221280</title>
<polygon fill="none" stroke="#000000" points="1380,-359.6497 1326,-359.6497 1326,-323.6497 1380,-323.6497 1380,-359.6497"/>
<text text-anchor="middle" x="1353" y="-337.9497" font-family="Times,serif" font-size="14.00" fill="#000000">hid_16</text>
</g>
<!-- 140219164219264 -->
<g id="node40" class="node">
<title>140219164219264</title>
<ellipse fill="none" stroke="#000000" cx="1443" cy="-350.6497" rx="27" ry="27"/>
<text text-anchor="middle" x="1443" y="-346.9497" font-family="Times,serif" font-size="14.00" fill="#000000">pre_QuoteDataBean:getVolume</text>
</g>
<!-- 140219164221280&#45;&gt;140219164219264 -->
<g id="edge18" class="edge">
<title>140219164221280&#45;&gt;140219164219264</title>
<path fill="none" stroke="#000000" d="M1380.003,-344.35C1388.1903,-345.1687 1397.3292,-346.0826 1406.051,-346.9548"/>
<polygon fill="#000000" stroke="#000000" points="1405.7174,-350.4388 1416.0161,-347.9513 1406.414,-343.4736 1405.7174,-350.4388"/>
</g>
<!-- 140219164242048 -->
<g id="node19" class="node">
<title>140219164242048</title>
<polygon fill="none" stroke="#000000" points="1380,-618.6497 1326,-618.6497 1326,-582.6497 1380,-582.6497 1380,-618.6497"/>
<text text-anchor="middle" x="1353" y="-596.9497" font-family="Times,serif" font-size="14.00" fill="#000000">hid_17</text>
</g>
<!-- 140219164218480 -->
<g id="node51" class="node">
<title>140219164218480</title>
<ellipse fill="none" stroke="#000000" cx="1443" cy="-604.6497" rx="27" ry="27"/>
<text text-anchor="middle" x="1443" y="-600.9497" font-family="Times,serif" font-size="14.00" fill="#000000">splace_in_Root_0</text>
</g>
<!-- 140219164242048&#45;&gt;140219164218480 -->
<g id="edge19" class="edge">
<title>140219164242048&#45;&gt;140219164218480</title>
<path fill="none" stroke="#000000" d="M1380.003,-601.8498C1388.1013,-602.2098 1397.1306,-602.6111 1405.7665,-602.9949"/>
<polygon fill="#000000" stroke="#000000" points="1405.8705,-606.5029 1416.0161,-603.4504 1406.1814,-599.5098 1405.8705,-606.5029"/>
</g>
<!-- 140219164242272 -->
<g id="node20" class="node">
<title>140219164242272</title>
<polygon fill="none" stroke="#000000" points="1380,-427.6497 1326,-427.6497 1326,-391.6497 1380,-391.6497 1380,-427.6497"/>
<text text-anchor="middle" x="1353" y="-405.9497" font-family="Times,serif" font-size="14.00" fill="#000000">hid_18</text>
</g>
<!-- 140219164218256 -->
<g id="node43" class="node">
<title>140219164218256</title>
<ellipse fill="none" stroke="#000000" cx="1443" cy="-422.6497" rx="27" ry="27"/>
<text text-anchor="middle" x="1443" y="-418.9497" font-family="Times,serif" font-size="14.00" fill="#000000">pre_TradeConfig:getRunTimeMode</text>
</g>
<!-- 140219164242272&#45;&gt;140219164218256 -->
<g id="edge20" class="edge">
<title>140219164242272&#45;&gt;140219164218256</title>
<path fill="none" stroke="#000000" d="M1380.003,-413.5501C1388.1903,-414.7328 1397.3292,-416.0528 1406.051,-417.3126"/>
<polygon fill="#000000" stroke="#000000" points="1405.6184,-420.7864 1416.0161,-418.752 1406.6192,-413.8583 1405.6184,-420.7864"/>
</g>
<!-- 140219164243000 -->
<g id="node21" class="node">
<title>140219164243000</title>
<polygon fill="none" stroke="#000000" points="144,-770.6497 90,-770.6497 90,-734.6497 144,-734.6497 144,-770.6497"/>
<text text-anchor="middle" x="117" y="-748.9497" font-family="Times,serif" font-size="14.00" fill="#000000">hid_19</text>
</g>
<!-- 140219164218760 -->
<g id="node52" class="node">
<title>140219164218760</title>
<ellipse fill="none" stroke="#000000" cx="207" cy="-757.6497" rx="27" ry="27"/>
<text text-anchor="middle" x="207" y="-753.9497" font-family="Times,serif" font-size="14.00" fill="#000000">splace_in_Root_1</text>
</g>
<!-- 140219164243000&#45;&gt;140219164218760 -->
<g id="edge21" class="edge">
<title>140219164243000&#45;&gt;140219164218760</title>
<path fill="none" stroke="#000000" d="M144.003,-754.1499C152.1013,-754.5998 161.1306,-755.1014 169.7665,-755.5812"/>
<polygon fill="#000000" stroke="#000000" points="169.8373,-759.0904 180.0161,-756.1506 170.2257,-752.1012 169.8373,-759.0904"/>
</g>
<!-- 140219164138688 -->
<g id="node22" class="node">
<title>140219164138688</title>
<polygon fill="none" stroke="#000000" points="1985,-77.6497 1931,-77.6497 1931,-41.6497 1985,-41.6497 1985,-77.6497"/>
<text text-anchor="middle" x="1958" y="-55.9497" font-family="Times,serif" font-size="14.00" fill="#000000">hid_2</text>
</g>
<!-- 140219164138688&#45;&gt;140219164138296 -->
<g id="edge22" class="edge">
<title>140219164138688&#45;&gt;140219164138296</title>
<path fill="none" stroke="#000000" d="M1930.7851,-51.1445C1878.1684,-35.4787 1758.5807,-3.6497 1655.5,-3.6497 1263,-3.6497 1263,-3.6497 1263,-3.6497 1099.5308,-3.6497 1025.8035,25.3736 904,-83.6497 881.7915,-103.528 860.2521,-183.4979 849.0211,-231.2233"/>
<polygon fill="#000000" stroke="#000000" points="845.5636,-230.6399 846.7191,-241.1716 852.3835,-232.218 845.5636,-230.6399"/>
</g>
<!-- 140219164243224 -->
<g id="node23" class="node">
<title>140219164243224</title>
<polygon fill="none" stroke="#000000" points="144,-670.6497 90,-670.6497 90,-634.6497 144,-634.6497 144,-670.6497"/>
<text text-anchor="middle" x="117" y="-648.9497" font-family="Times,serif" font-size="14.00" fill="#000000">hid_20</text>
</g>
<!-- 140219164219600 -->
<g id="node42" class="node">
<title>140219164219600</title>
<ellipse fill="none" stroke="#000000" cx="207" cy="-647.6497" rx="27" ry="27"/>
<text text-anchor="middle" x="207" y="-643.9497" font-family="Times,serif" font-size="14.00" fill="#000000">pre_TradeConfig:getDisplayOrderAlerts</text>
</g>
<!-- 140219164243224&#45;&gt;140219164219600 -->
<g id="edge23" class="edge">
<title>140219164243224&#45;&gt;140219164219600</title>
<path fill="none" stroke="#000000" d="M144.003,-651.1495C152.1013,-650.6996 161.1306,-650.198 169.7665,-649.7182"/>
<polygon fill="#000000" stroke="#000000" points="170.2257,-653.1982 180.0161,-649.1488 169.8373,-646.209 170.2257,-653.1982"/>
</g>
<!-- 140219164138968 -->
<g id="node24" class="node">
<title>140219164138968</title>
<polygon fill="none" stroke="#000000" points="1985,-222.6497 1931,-222.6497 1931,-186.6497 1985,-186.6497 1985,-222.6497"/>
<text text-anchor="middle" x="1958" y="-200.9497" font-family="Times,serif" font-size="14.00" fill="#000000">hid_3</text>
</g>
<!-- 140219164138968&#45;&gt;140219164138296 -->
<g id="edge24" class="edge">
<title>140219164138968&#45;&gt;140219164138296</title>
<path fill="none" stroke="#000000" d="M1954.4805,-186.6489C1947.9963,-158.6589 1931.3563,-105.1695 1895,-78.6497 1807.9831,-15.1761 1763.2072,-41.6497 1655.5,-41.6497 1443,-41.6497 1443,-41.6497 1443,-41.6497 1210.6469,-41.6497 958.184,-191.0377 871.8983,-246.9015"/>
<polygon fill="#000000" stroke="#000000" points="869.8295,-244.0722 863.3701,-252.4703 873.6568,-249.9333 869.8295,-244.0722"/>
</g>
<!-- 140219164139248 -->
<g id="node25" class="node">
<title>140219164139248</title>
<polygon fill="none" stroke="#000000" points="1985,-649.6497 1931,-649.6497 1931,-613.6497 1985,-613.6497 1985,-649.6497"/>
<text text-anchor="middle" x="1958" y="-627.9497" font-family="Times,serif" font-size="14.00" fill="#000000">hid_4</text>
</g>
<!-- 140219164139248&#45;&gt;140219164138296 -->
<g id="edge25" class="edge">
<title>140219164139248&#45;&gt;140219164138296</title>
<path fill="none" stroke="#000000" d="M1930.9616,-635.8416C1878.1571,-643.6527 1757.5555,-659.6497 1655.5,-659.6497 1263,-659.6497 1263,-659.6497 1263,-659.6497 1080.355,-659.6497 1020.2302,-600.5389 904,-459.6497 866.7484,-414.495 851.2929,-346.6349 845.0462,-304.8513"/>
<polygon fill="#000000" stroke="#000000" points="848.4951,-304.2413 843.6488,-294.8199 841.562,-305.2072 848.4951,-304.2413"/>
</g>
<!-- 140219164217416 -->
<g id="node26" class="node">
<title>140219164217416</title>
<polygon fill="none" stroke="#000000" points="1985,-304.6497 1931,-304.6497 1931,-268.6497 1985,-268.6497 1985,-304.6497"/>
<text text-anchor="middle" x="1958" y="-282.9497" font-family="Times,serif" font-size="14.00" fill="#000000">hid_5</text>
</g>
<!-- 140219164217416&#45;&gt;140219164138296 -->
<g id="edge26" class="edge">
<title>140219164217416&#45;&gt;140219164138296</title>
<path fill="none" stroke="#000000" d="M1938.7169,-268.4936C1927.0392,-258.7749 1911.2892,-247.7749 1895,-242.6497 1699.8061,-181.2346 1041.5543,-246.1704 878.0155,-263.5962"/>
<polygon fill="#000000" stroke="#000000" points="877.5389,-260.1272 867.9691,-264.6735 878.2852,-267.0873 877.5389,-260.1272"/>
</g>
<!-- 140219164217696 -->
<g id="node27" class="node">
<title>140219164217696</title>
<polygon fill="none" stroke="#000000" points="1985,-504.6497 1931,-504.6497 1931,-468.6497 1985,-468.6497 1985,-504.6497"/>
<text text-anchor="middle" x="1958" y="-482.9497" font-family="Times,serif" font-size="14.00" fill="#000000">hid_6</text>
</g>
<!-- 140219164217696&#45;&gt;140219164138296 -->
<g id="edge27" class="edge">
<title>140219164217696&#45;&gt;140219164138296</title>
<path fill="none" stroke="#000000" d="M1938.0024,-504.7745C1926.3313,-514.2264 1910.8225,-524.974 1895,-530.6497 1794.4918,-566.703 1762.2789,-549.6497 1655.5,-549.6497 1263,-549.6497 1263,-549.6497 1263,-549.6497 1082.7011,-549.6497 921.0285,-369.4969 863.3892,-297.1744"/>
<polygon fill="#000000" stroke="#000000" points="866.1311,-294.999 857.1935,-289.3095 860.6324,-299.3308 866.1311,-294.999"/>
</g>
<!-- 140219164217976 -->
<g id="node28" class="node">
<title>140219164217976</title>
<polygon fill="none" stroke="#000000" points="778,-380.6497 724,-380.6497 724,-344.6497 778,-344.6497 778,-380.6497"/>
<text text-anchor="middle" x="751" y="-358.9497" font-family="Times,serif" font-size="14.00" fill="#000000">hid_7</text>
</g>
<!-- 140219164217976&#45;&gt;140219164138296 -->
<g id="edge28" class="edge">
<title>140219164217976&#45;&gt;140219164138296</title>
<path fill="none" stroke="#000000" d="M768.3529,-344.3328C781.6098,-330.3394 800.0932,-310.8291 815.0982,-294.9905"/>
<polygon fill="#000000" stroke="#000000" points="817.8101,-297.217 822.1468,-287.5504 812.7284,-292.4028 817.8101,-297.217"/>
</g>
<!-- 140219164218312 -->
<g id="node29" class="node">
<title>140219164218312</title>
<polygon fill="none" stroke="#000000" points="1682.5,-627.6497 1628.5,-627.6497 1628.5,-591.6497 1682.5,-591.6497 1682.5,-627.6497"/>
<text text-anchor="middle" x="1655.5" y="-605.9497" font-family="Times,serif" font-size="14.00" fill="#000000">hid_8</text>
</g>
<!-- 140219164138072 -->
<g id="node41" class="node">
<title>140219164138072</title>
<ellipse fill="none" stroke="#000000" cx="1868" cy="-732.6497" rx="27" ry="27"/>
<text text-anchor="middle" x="1868" y="-728.9497" font-family="Times,serif" font-size="14.00" fill="#000000">pre_Root</text>
</g>
<!-- 140219164218312&#45;&gt;140219164138072 -->
<g id="edge29" class="edge">
<title>140219164218312&#45;&gt;140219164138072</title>
<path fill="none" stroke="#000000" d="M1682.8456,-625.478C1722.0079,-648.146 1793.9343,-689.7787 1835.6771,-713.9404"/>
<polygon fill="#000000" stroke="#000000" points="1833.9453,-716.982 1844.3534,-718.9625 1837.452,-710.9237 1833.9453,-716.982"/>
</g>
<!-- 140219164218592 -->
<g id="node30" class="node">
<title>140219164218592</title>
<polygon fill="none" stroke="#000000" points="1290,-764.6497 1236,-764.6497 1236,-728.6497 1290,-728.6497 1290,-764.6497"/>
<text text-anchor="middle" x="1263" y="-742.9497" font-family="Times,serif" font-size="14.00" fill="#000000">hid_9</text>
</g>
<!-- 140219164218592&#45;&gt;140219164138072 -->
<g id="edge30" class="edge">
<title>140219164218592&#45;&gt;140219164138072</title>
<path fill="none" stroke="#000000" d="M1290.1709,-746.021C1387.509,-743.7685 1718.9247,-736.0994 1830.7799,-733.511"/>
<polygon fill="#000000" stroke="#000000" points="1830.9876,-737.0072 1840.904,-733.2767 1830.8256,-730.0091 1830.9876,-737.0072"/>
</g>
<!-- 140219164135496 -->
<g id="node31" class="node">
<title>140219164135496</title>
<ellipse fill="#00ff00" stroke="#000000" cx="661" cy="-518.6497" rx="27" ry="27"/>
<text text-anchor="middle" x="661" y="-514.9497" font-family="Times,serif" font-size="14.00" fill="#000000">1</text>
</g>
<!-- 140219164135496&#45;&gt;140219164219936 -->
<g id="edge50" class="edge">
<title>140219164135496&#45;&gt;140219164219936</title>
<path fill="none" stroke="#000000" d="M687.0317,-526.4592C695.4955,-528.9984 705.055,-531.8662 714.1543,-534.596"/>
<polygon fill="#000000" stroke="#000000" points="713.1898,-537.9607 723.7738,-537.4819 715.2013,-531.2559 713.1898,-537.9607"/>
</g>
<!-- 140219164135496&#45;&gt;140219164217976 -->
<g id="edge51" class="edge">
<title>140219164135496&#45;&gt;140219164217976</title>
<path fill="none" stroke="#000000" d="M674.6691,-494.9567C690.998,-466.6532 718.2534,-419.4105 735.3939,-389.7003"/>
<polygon fill="#000000" stroke="#000000" points="738.6113,-391.1273 740.5769,-380.7164 732.548,-387.6292 738.6113,-391.1273"/>
</g>
<!-- 140219164220216&#45;&gt;140219164220384 -->
<g id="edge31" class="edge">
<title>140219164220216&#45;&gt;140219164220384</title>
<path fill="none" stroke="#000000" d="M1268.7958,-299.9684C1277.3641,-264.348 1295.745,-200.2286 1326,-152.6497 1326.1201,-152.4609 1326.2416,-152.2724 1326.3647,-152.0842"/>
<polygon fill="#000000" stroke="#000000" points="1329.3369,-153.9621 1332.6851,-143.9102 1323.7993,-149.6801 1329.3369,-153.9621"/>
</g>
<!-- 140219164220216&#45;&gt;140219164220608 -->
<g id="edge32" class="edge">
<title>140219164220216&#45;&gt;140219164220608</title>
<path fill="none" stroke="#000000" d="M1277.2608,-303.3571C1293.3812,-277.0271 1319.5829,-234.2309 1336.5535,-206.5124"/>
<polygon fill="#000000" stroke="#000000" points="1339.6903,-208.0919 1341.9269,-197.7358 1333.7203,-204.4368 1339.6903,-208.0919"/>
</g>
<!-- 140219164220216&#45;&gt;140219164220832 -->
<g id="edge33" class="edge">
<title>140219164220216&#45;&gt;140219164220832</title>
<path fill="none" stroke="#000000" d="M1287.5929,-314.8998C1296.5854,-310.6034 1306.9573,-305.6479 1316.7535,-300.9675"/>
<polygon fill="#000000" stroke="#000000" points="1318.3913,-304.064 1325.9055,-296.5949 1315.3736,-297.7479 1318.3913,-304.064"/>
</g>
<!-- 140219164220216&#45;&gt;140219164221056 -->
<g id="edge34" class="edge">
<title>140219164220216&#45;&gt;140219164221056</title>
<path fill="none" stroke="#000000" d="M1276.4739,-350.4536C1292.9167,-379.5025 1320.6448,-428.4888 1337.8241,-458.839"/>
<polygon fill="#000000" stroke="#000000" points="1334.8209,-460.6386 1342.7928,-467.6171 1340.9127,-457.1904 1334.8209,-460.6386"/>
</g>
<!-- 140219164220216&#45;&gt;140219164221280 -->
<g id="edge35" class="edge">
<title>140219164220216&#45;&gt;140219164221280</title>
<path fill="none" stroke="#000000" d="M1290.003,-331.1502C1298.1158,-332.5024 1307.1631,-334.0102 1315.8131,-335.4519"/>
<polygon fill="#000000" stroke="#000000" points="1315.2657,-338.9089 1325.705,-337.1005 1316.4165,-332.0041 1315.2657,-338.9089"/>
</g>
<!-- 140219164220216&#45;&gt;140219164242048 -->
<g id="edge36" class="edge">
<title>140219164220216&#45;&gt;140219164242048</title>
<path fill="none" stroke="#000000" d="M1271.467,-352.427C1288.4097,-404.008 1326.3542,-519.5281 1343.8472,-572.7846"/>
<polygon fill="#000000" stroke="#000000" points="1340.6149,-574.16 1347.0609,-582.5683 1347.2654,-571.9755 1340.6149,-574.16"/>
</g>
<!-- 140219164220216&#45;&gt;140219164242272 -->
<g id="edge37" class="edge">
<title>140219164220216&#45;&gt;140219164242272</title>
<path fill="none" stroke="#000000" d="M1282.9739,-345.0701C1295.6454,-356.7561 1312.1989,-372.022 1326.0298,-384.7772"/>
<polygon fill="#000000" stroke="#000000" points="1323.6676,-387.3599 1333.3916,-391.5664 1328.4132,-382.214 1323.6676,-387.3599"/>
</g>
<!-- 140219164242832&#45;&gt;140219164243000 -->
<g id="edge38" class="edge">
<title>140219164242832&#45;&gt;140219164243000</title>
<path fill="none" stroke="#000000" d="M50.6464,-715.7866C59.9112,-720.9337 70.7479,-726.9541 80.9459,-732.6197"/>
<polygon fill="#000000" stroke="#000000" points="79.2465,-735.6794 89.6878,-737.4763 82.646,-729.5602 79.2465,-735.6794"/>
</g>
<!-- 140219164242832&#45;&gt;140219164243224 -->
<g id="edge39" class="edge">
<title>140219164242832&#45;&gt;140219164243224</title>
<path fill="none" stroke="#000000" d="M50.6464,-689.5128C59.9112,-684.3657 70.7479,-678.3453 80.9459,-672.6798"/>
<polygon fill="#000000" stroke="#000000" points="82.646,-675.7392 89.6878,-667.8231 79.2465,-669.6201 82.646,-675.7392"/>
</g>
<!-- 140219164219376&#45;&gt;140219164137512 -->
<g id="edge40" class="edge">
<title>140219164219376&#45;&gt;140219164137512</title>
<path fill="none" stroke="#000000" d="M1416.2381,-92.5345C1381.1445,-87.5033 1317.617,-79.6497 1263,-79.6497 751,-79.6497 751,-79.6497 751,-79.6497 658.2594,-79.6497 554.0604,-109.6875 491.2638,-131.2267"/>
<polygon fill="#000000" stroke="#000000" points="489.8447,-128.0145 481.5489,-134.6048 492.1437,-134.6263 489.8447,-128.0145"/>
</g>
<!-- 140219164138296&#45;&gt;140219164135552 -->
<g id="edge41" class="edge">
<title>140219164138296&#45;&gt;140219164135552</title>
<path fill="none" stroke="#000000" d="M867.7233,-273.0957C889.5371,-277.5412 921.7903,-284.1141 953.2413,-290.5235"/>
<polygon fill="#000000" stroke="#000000" points="952.9127,-294.0284 963.4103,-292.5959 954.3106,-287.1694 952.9127,-294.0284"/>
</g>
<!-- 140219164219488&#45;&gt;140219164138016 -->
<g id="edge42" class="edge">
<title>140219164219488&#45;&gt;140219164138016</title>
<path fill="none" stroke="#000000" d="M865.7608,-659.0688C877.2207,-664.0406 891.1223,-669.6355 904,-673.6497 923.0008,-679.5726 943.7073,-684.791 963.4488,-689.2035"/>
<polygon fill="#000000" stroke="#000000" points="962.8424,-692.6536 973.3593,-691.3706 964.3377,-685.8151 962.8424,-692.6536"/>
</g>
<!-- 140219164218928&#45;&gt;140219164137904 -->
<g id="edge43" class="edge">
<title>140219164218928&#45;&gt;140219164137904</title>
<path fill="none" stroke="#000000" d="M1469.9133,-164.0903C1487.9367,-161.0369 1513.0365,-156.7847 1538.961,-152.3928"/>
<polygon fill="#000000" stroke="#000000" points="1539.6493,-155.8261 1548.9241,-150.7049 1538.48,-148.9245 1539.6493,-155.8261"/>
</g>
<!-- 140219164219152&#45;&gt;140219164138240 -->
<g id="edge44" class="edge">
<title>140219164219152&#45;&gt;140219164138240</title>
<path fill="none" stroke="#000000" d="M1470.3456,-278.6497C1495.3416,-278.6497 1533.6852,-278.6497 1569.0087,-278.6497"/>
<polygon fill="#000000" stroke="#000000" points="1569.3653,-282.1498 1579.3653,-278.6497 1569.3652,-275.1498 1569.3653,-282.1498"/>
</g>
<!-- 140219164219040&#45;&gt;140219164138128 -->
<g id="edge45" class="edge">
<title>140219164219040&#45;&gt;140219164138128</title>
<path fill="none" stroke="#000000" d="M1470.3456,-494.6497C1495.4436,-494.6497 1533.9984,-494.6497 1569.4411,-494.6497"/>
<polygon fill="#000000" stroke="#000000" points="1569.8301,-498.1498 1579.83,-494.6497 1569.83,-491.1498 1569.8301,-498.1498"/>
</g>
<!-- 140219164219264&#45;&gt;140219164138352 -->
<g id="edge46" class="edge">
<title>140219164219264&#45;&gt;140219164138352</title>
<path fill="none" stroke="#000000" d="M1470.3456,-350.6497C1493.6089,-350.6497 1528.4335,-350.6497 1561.625,-350.6497"/>
<polygon fill="#000000" stroke="#000000" points="1561.8588,-354.1498 1571.8587,-350.6497 1561.8587,-347.1498 1561.8588,-354.1498"/>
</g>
<!-- 140219164138072&#45;&gt;140219164137680 -->
<g id="edge47" class="edge">
<title>140219164138072&#45;&gt;140219164137680</title>
<path fill="none" stroke="#000000" d="M1895.003,-732.6497C1903.0277,-732.6497 1911.9665,-732.6497 1920.5309,-732.6497"/>
<polygon fill="#000000" stroke="#000000" points="1920.7051,-736.1498 1930.705,-732.6497 1920.705,-729.1498 1920.7051,-736.1498"/>
</g>
<!-- 140219164219600&#45;&gt;140219164137960 -->
<g id="edge48" class="edge">
<title>140219164219600&#45;&gt;140219164137960</title>
<path fill="none" stroke="#000000" d="M234.3815,-647.6497C255.6092,-647.6497 286.5866,-647.6497 317.8336,-647.6497"/>
<polygon fill="#000000" stroke="#000000" points="317.9763,-651.1498 327.9762,-647.6497 317.9762,-644.1498 317.9763,-651.1498"/>
</g>
<!-- 140219164218256&#45;&gt;140219164137848 -->
<g id="edge49" class="edge">
<title>140219164218256&#45;&gt;140219164137848</title>
<path fill="none" stroke="#000000" d="M1470.3456,-422.6497C1490.9913,-422.6497 1520.7429,-422.6497 1550.3776,-422.6497"/>
<polygon fill="#000000" stroke="#000000" points="1550.4098,-426.1498 1560.4098,-422.6497 1550.4097,-419.1498 1550.4098,-426.1498"/>
</g>
<!-- 140219164138576&#45;&gt;140219164138408 -->
<g id="edge52" class="edge">
<title>140219164138576&#45;&gt;140219164138408</title>
<path fill="none" stroke="#000000" d="M683.2472,-195.7171C693.6352,-203.2196 706.2184,-212.3074 717.7074,-220.6051"/>
<polygon fill="#000000" stroke="#000000" points="715.6767,-223.4558 725.8328,-226.4734 719.7752,-217.781 715.6767,-223.4558"/>
</g>
<!-- 140219164138856&#45;&gt;140219164138688 -->
<g id="edge53" class="edge">
<title>140219164138856&#45;&gt;140219164138688</title>
<path fill="none" stroke="#000000" d="M1891.1772,-100.4858C1900.6172,-94.717 1911.7478,-87.915 1922.189,-81.5342"/>
<polygon fill="#000000" stroke="#000000" points="1924.0374,-84.5065 1930.7452,-76.3055 1920.3872,-78.5335 1924.0374,-84.5065"/>
</g>
<!-- 140219164139136&#45;&gt;140219164138968 -->
<g id="edge54" class="edge">
<title>140219164139136&#45;&gt;140219164138968</title>
<path fill="none" stroke="#000000" d="M1888.874,-261.4866C1900.5707,-251.8694 1915.3549,-239.7135 1928.2461,-229.114"/>
<polygon fill="#000000" stroke="#000000" points="1930.4821,-231.8067 1935.9835,-222.7521 1926.0364,-226.3997 1930.4821,-231.8067"/>
</g>
<!-- 140219164139416&#45;&gt;140219164139248 -->
<g id="edge55" class="edge">
<title>140219164139416&#45;&gt;140219164139248</title>
<path fill="none" stroke="#000000" d="M1882.8617,-517.2725C1898.6717,-541.3388 1923.6674,-579.3878 1940.4386,-604.9174"/>
<polygon fill="#000000" stroke="#000000" points="1937.5834,-606.9458 1945.9993,-613.3819 1943.4339,-603.1023 1937.5834,-606.9458"/>
</g>
<!-- 140219164217584&#45;&gt;140219164217416 -->
<g id="edge56" class="edge">
<title>140219164217584&#45;&gt;140219164217416</title>
<path fill="none" stroke="#000000" d="M1890.2472,-334.8295C1900.4514,-327.5732 1912.7738,-318.8106 1924.0965,-310.7589"/>
<polygon fill="#000000" stroke="#000000" points="1926.3873,-313.4246 1932.5086,-304.777 1922.3306,-307.7199 1926.3873,-313.4246"/>
</g>
<!-- 140219164217864&#45;&gt;140219164217696 -->
<g id="edge57" class="edge">
<title>140219164217864&#45;&gt;140219164217696</title>
<path fill="none" stroke="#000000" d="M1890.2472,-438.4699C1900.4514,-445.7262 1912.7738,-454.4888 1924.0965,-462.5406"/>
<polygon fill="#000000" stroke="#000000" points="1922.3306,-465.5795 1932.5086,-468.5225 1926.3873,-459.8748 1922.3306,-465.5795"/>
</g>
<!-- 140219164219824&#45;&gt;140219164219656 -->
<g id="edge58" class="edge">
<title>140219164219824&#45;&gt;140219164219656</title>
<path fill="none" stroke="#000000" d="M688.003,-647.6497C696.0277,-647.6497 704.9665,-647.6497 713.5309,-647.6497"/>
<polygon fill="#000000" stroke="#000000" points="713.7051,-651.1498 723.705,-647.6497 713.705,-644.1498 713.7051,-651.1498"/>
</g>
<!-- 140219164218480&#45;&gt;140219164218312 -->
<g id="edge59" class="edge">
<title>140219164218480&#45;&gt;140219164218312</title>
<path fill="none" stroke="#000000" d="M1470.3456,-605.2931C1507.9607,-606.1782 1575.8021,-607.7745 1618.0921,-608.7695"/>
<polygon fill="#000000" stroke="#000000" points="1618.1797,-612.2725 1628.2593,-609.0088 1618.3445,-605.2744 1618.1797,-612.2725"/>
</g>
<!-- 140219164218760&#45;&gt;140219164218592 -->
<g id="edge60" class="edge">
<title>140219164218760&#45;&gt;140219164218592</title>
<path fill="none" stroke="#000000" d="M234.1212,-757.4469C304.5459,-756.9385 499.0245,-755.6497 661,-755.6497 661,-755.6497 661,-755.6497 841,-755.6497 983.1356,-755.6497 1152.1388,-750.4833 1225.7039,-747.9792"/>
<polygon fill="#000000" stroke="#000000" points="1225.977,-751.472 1235.8507,-747.63 1225.7362,-744.4761 1225.977,-751.472"/>
</g>
</g>
</svg>
