<?xml version="1.0" encoding="UTF-8" standalone="no"?>
<!DOCTYPE svg PUBLIC "-//W3C//DTD SVG 1.1//EN"
 "http://www.w3.org/Graphics/SVG/1.1/DTD/svg11.dtd">
<!-- Generated by graphviz version 2.40.1 (20161225.0304)
 -->
<!-- Title: alpha_plus_net_1585280321.743991 Pages: 1 -->
<svg width="1405pt" height="1754pt"
 viewBox="0.00 0.00 1405.00 1754.00" xmlns="http://www.w3.org/2000/svg" xmlns:xlink="http://www.w3.org/1999/xlink">
<g id="graph0" class="graph" transform="scale(1 1) rotate(0) translate(4 1750)">
<title>alpha_plus_net_1585280321.743991</title>
<!-- 140633492117600 -->
<g id="node1" class="node">
<title>140633492117600</title>
<polygon fill="none" stroke="#000000" points="243,-108 32,-108 32,-72 243,-72 243,-108"/>
<text text-anchor="middle" x="137.5" y="-86.3" font-family="Times,serif" font-size="14.00" fill="#000000">FinancialUtils:computeGainPercent</text>
</g>
<!-- 140633492117264 -->
<g id="node2" class="node">
<title>140633492117264</title>
<polygon fill="none" stroke="#000000" points="501,-306 381,-306 381,-270 501,-270 501,-306"/>
<text text-anchor="middle" x="441" y="-284.3" font-family="Times,serif" font-size="14.00" fill="#000000">JSFLoginFilter:init</text>
</g>
<!-- 140633490412880 -->
<g id="node46" class="node">
<title>140633490412880</title>
<ellipse fill="none" stroke="#000000" cx="693.5" cy="-153" rx="27" ry="27"/>
<text text-anchor="middle" x="693.5" y="-149.3" font-family="Times,serif" font-size="14.00" fill="#000000">({&#39;new JSFLoginFilter&#39;, &#39;OrdersAlertFilter:init&#39;, &#39;JSFLoginFilter:init&#39;, &#39;OrdersAlertFilter:doFilter&#39;, &#39;TradeWebContextListener:contextInitialized&#39;, &#39;new OrdersAlertFilter&#39;}, {&#39;Root&#39;})</text>
</g>
<!-- 140633492117264&#45;&gt;140633490412880 -->
<g id="edge13" class="edge">
<title>140633492117264&#45;&gt;140633490412880</title>
<path fill="none" stroke="#000000" d="M501.0626,-282.1432C523.8376,-278.2502 549.455,-271.7733 571,-261 609.9001,-241.5485 646.1657,-206.6301 668.9867,-181.765"/>
<polygon fill="#000000" stroke="#000000" points="671.8187,-183.8505 675.91,-174.0775 666.6171,-179.166 671.8187,-183.8505"/>
</g>
<!-- 140633492118496 -->
<g id="node3" class="node">
<title>140633492118496</title>
<polygon fill="none" stroke="#000000" points="180.5,-234 94.5,-234 94.5,-198 180.5,-198 180.5,-234"/>
<text text-anchor="middle" x="137.5" y="-212.3" font-family="Times,serif" font-size="14.00" fill="#000000">Log:doTrace</text>
</g>
<!-- 140633492117768 -->
<g id="node4" class="node">
<title>140633492117768</title>
<polygon fill="none" stroke="#000000" points="167,-288 108,-288 108,-252 167,-252 167,-288"/>
<text text-anchor="middle" x="137.5" y="-266.3" font-family="Times,serif" font-size="14.00" fill="#000000">Log:log</text>
</g>
<!-- 140633492115752 -->
<g id="node5" class="node">
<title>140633492115752</title>
<polygon fill="none" stroke="#000000" points="171.5,-342 103.5,-342 103.5,-306 171.5,-306 171.5,-342"/>
<text text-anchor="middle" x="137.5" y="-320.3" font-family="Times,serif" font-size="14.00" fill="#000000">Log:trace</text>
</g>
<!-- 140633492118328 -->
<g id="node6" class="node">
<title>140633492118328</title>
<polygon fill="none" stroke="#000000" points="275,-396 0,-396 0,-360 275,-360 275,-396"/>
<text text-anchor="middle" x="137.5" y="-374.3" font-family="Times,serif" font-size="14.00" fill="#000000">MarketSummaryDataBean:getRandomInstance</text>
</g>
<!-- 140633492116368 -->
<g id="node42" class="node">
<title>140633492116368</title>
<ellipse fill="none" stroke="#000000" cx="441" cy="-365" rx="27" ry="27"/>
<text text-anchor="middle" x="441" y="-361.3" font-family="Times,serif" font-size="14.00" fill="#000000">({&#39;MarketSummaryDataBean:getRandomInstance&#39;}, {&#39;TradeConfig:rndBigDecimal&#39;})</text>
</g>
<!-- 140633492118328&#45;&gt;140633492116368 -->
<g id="edge14" class="edge">
<title>140633492118328&#45;&gt;140633492116368</title>
<path fill="none" stroke="#000000" d="M275.042,-372.1086C322.1063,-370.0926 371.0096,-367.9979 403.4296,-366.6093"/>
<polygon fill="#000000" stroke="#000000" points="403.9248,-370.0914 413.7658,-366.1665 403.6252,-363.0978 403.9248,-370.0914"/>
</g>
<!-- 140633492117824 -->
<g id="node7" class="node">
<title>140633492117824</title>
<polygon fill="none" stroke="#000000" points="519.5,-252 362.5,-252 362.5,-216 519.5,-216 519.5,-252"/>
<text text-anchor="middle" x="441" y="-230.3" font-family="Times,serif" font-size="14.00" fill="#000000">OrdersAlertFilter:doFilter</text>
</g>
<!-- 140633492117824&#45;&gt;140633490412880 -->
<g id="edge15" class="edge">
<title>140633492117824&#45;&gt;140633490412880</title>
<path fill="none" stroke="#000000" d="M519.7166,-220.4286C536.8,-216.7147 554.6454,-212.2386 571,-207 602.0692,-197.0482 635.8961,-181.775 660.1159,-170.0079"/>
<polygon fill="#000000" stroke="#000000" points="661.7956,-173.0822 669.2241,-165.5278 658.706,-166.8009 661.7956,-173.0822"/>
</g>
<!-- 140633492115864 -->
<g id="node8" class="node">
<title>140633492115864</title>
<polygon fill="none" stroke="#000000" points="507,-198 375,-198 375,-162 507,-162 507,-198"/>
<text text-anchor="middle" x="441" y="-176.3" font-family="Times,serif" font-size="14.00" fill="#000000">OrdersAlertFilter:init</text>
</g>
<!-- 140633492115864&#45;&gt;140633490412880 -->
<g id="edge16" class="edge">
<title>140633492115864&#45;&gt;140633490412880</title>
<path fill="none" stroke="#000000" d="M507.0116,-172.9413C554.6616,-167.8461 617.2649,-161.1519 656.4436,-156.9625"/>
<polygon fill="#000000" stroke="#000000" points="657.0284,-160.42 666.5996,-155.8765 656.2841,-153.4597 657.0284,-160.42"/>
</g>
<!-- 140633492119000 -->
<g id="node9" class="node">
<title>140633492119000</title>
<polygon fill="none" stroke="#000000" points="1121,-369 906,-369 906,-333 1121,-333 1121,-369"/>
<text text-anchor="middle" x="1013.5" y="-347.3" font-family="Times,serif" font-size="14.00" fill="#000000">QuoteDataBean:getRandomInstance</text>
</g>
<!-- 140633490413048 -->
<g id="node43" class="node">
<title>140633490413048</title>
<ellipse fill="none" stroke="#000000" cx="1184" cy="-342" rx="27" ry="27"/>
<text text-anchor="middle" x="1184" y="-338.3" font-family="Times,serif" font-size="14.00" fill="#000000">({&#39;QuoteDataBean:getRandomInstance&#39;}, {&#39;TradeConfig:rndSymbol&#39;, &#39;TradeConfig:rndBigDecimal&#39;})</text>
</g>
<!-- 140633492119000&#45;&gt;140633490413048 -->
<g id="edge17" class="edge">
<title>140633492119000&#45;&gt;140633490413048</title>
<path fill="none" stroke="#000000" d="M1121.4802,-345.3002C1130.3855,-344.8301 1138.9339,-344.3789 1146.6963,-343.9691"/>
<polygon fill="#000000" stroke="#000000" points="1146.9524,-347.4606 1156.7539,-343.4382 1146.5833,-340.4703 1146.9524,-347.4606"/>
</g>
<!-- 140633492118552 -->
<g id="node10" class="node">
<title>140633492118552</title>
<polygon fill="none" stroke="#000000" points="870,-171 816,-171 816,-135 870,-135 870,-171"/>
<text text-anchor="middle" x="843" y="-149.3" font-family="Times,serif" font-size="14.00" fill="#000000">Root</text>
</g>
<!-- 140633492117208 -->
<g id="node47" class="node">
<title>140633492117208</title>
<ellipse fill="#ffa500" stroke="#000000" cx="1013.5" cy="-153" rx="27" ry="27"/>
</g>
<!-- 140633492118552&#45;&gt;140633492117208 -->
<g id="edge18" class="edge">
<title>140633492118552&#45;&gt;140633492117208</title>
<path fill="none" stroke="#000000" d="M870.0162,-153C898.6151,-153 943.9627,-153 976.0125,-153"/>
<polygon fill="#000000" stroke="#000000" points="976.3284,-156.5001 986.3284,-153 976.3284,-149.5001 976.3284,-156.5001"/>
</g>
<!-- 140633492117432 -->
<g id="node11" class="node">
<title>140633492117432</title>
<polygon fill="none" stroke="#000000" points="203,-450 72,-450 72,-414 203,-414 203,-450"/>
<text text-anchor="middle" x="137.5" y="-428.3" font-family="Times,serif" font-size="14.00" fill="#000000">TradeAppServlet:init</text>
</g>
<!-- 140633492116648 -->
<g id="node12" class="node">
<title>140633492116648</title>
<polygon fill="none" stroke="#000000" points="229.5,-504 45.5,-504 45.5,-468 229.5,-468 229.5,-504"/>
<text text-anchor="middle" x="137.5" y="-482.3" font-family="Times,serif" font-size="14.00" fill="#000000">TradeAppServlet:performTask</text>
</g>
<!-- 140633492118104 -->
<g id="node13" class="node">
<title>140633492118104</title>
<polygon fill="none" stroke="#000000" points="243.5,-558 31.5,-558 31.5,-522 243.5,-522 243.5,-558"/>
<text text-anchor="middle" x="137.5" y="-536.3" font-family="Times,serif" font-size="14.00" fill="#000000">TradeConfig:getDisplayOrderAlerts</text>
</g>
<!-- 140633451337544 -->
<g id="node14" class="node">
<title>140633451337544</title>
<polygon fill="none" stroke="#000000" points="203.5,-612 71.5,-612 71.5,-576 203.5,-576 203.5,-612"/>
<text text-anchor="middle" x="137.5" y="-590.3" font-family="Times,serif" font-size="14.00" fill="#000000">TradeConfig:getPage</text>
</g>
<!-- 140633492115640 -->
<g id="node15" class="node">
<title>140633492115640</title>
<polygon fill="none" stroke="#000000" points="206,-666 69,-666 69,-630 206,-630 206,-666"/>
<text text-anchor="middle" x="137.5" y="-644.3" font-family="Times,serif" font-size="14.00" fill="#000000">TradeConfig:getTrace</text>
</g>
<!-- 140633492117376 -->
<g id="node16" class="node">
<title>140633492117376</title>
<polygon fill="none" stroke="#000000" points="780,-381 607,-381 607,-345 780,-345 780,-381"/>
<text text-anchor="middle" x="693.5" y="-359.3" font-family="Times,serif" font-size="14.00" fill="#000000">TradeConfig:rndBigDecimal</text>
</g>
<!-- 140633492118048 -->
<g id="node44" class="node">
<title>140633492118048</title>
<ellipse fill="none" stroke="#000000" cx="843" cy="-432" rx="27" ry="27"/>
<text text-anchor="middle" x="843" y="-428.3" font-family="Times,serif" font-size="14.00" fill="#000000">({&#39;TradeConfig:rndBigDecimal&#39;}, {&#39;MarketSummaryDataBean:getRandomInstance&#39;})</text>
</g>
<!-- 140633492117376&#45;&gt;140633492118048 -->
<g id="edge19" class="edge">
<title>140633492117376&#45;&gt;140633492118048</title>
<path fill="none" stroke="#000000" d="M732.7794,-381.1289C756.3972,-392.0295 786.1652,-405.7685 808.8101,-416.22"/>
<polygon fill="#000000" stroke="#000000" points="807.4939,-419.4673 818.0402,-420.4801 810.4273,-413.1116 807.4939,-419.4673"/>
</g>
<!-- 140633490412656 -->
<g id="node45" class="node">
<title>140633490412656</title>
<ellipse fill="none" stroke="#000000" cx="843" cy="-360" rx="27" ry="27"/>
<text text-anchor="middle" x="843" y="-356.3" font-family="Times,serif" font-size="14.00" fill="#000000">({&#39;TradeConfig:rndSymbol&#39;, &#39;TradeConfig:rndBigDecimal&#39;}, {&#39;QuoteDataBean:getRandomInstance&#39;})</text>
</g>
<!-- 140633492117376&#45;&gt;140633490412656 -->
<g id="edge20" class="edge">
<title>140633492117376&#45;&gt;140633490412656</title>
<path fill="none" stroke="#000000" d="M780.0318,-361.2636C789.0115,-361.0834 797.7584,-360.9079 805.7366,-360.7478"/>
<polygon fill="#000000" stroke="#000000" points="805.8092,-364.2471 815.737,-360.5471 805.6687,-357.2485 805.8092,-364.2471"/>
</g>
<!-- 140633492116312 -->
<g id="node17" class="node">
<title>140633492116312</title>
<polygon fill="none" stroke="#000000" points="205,-720 70,-720 70,-684 205,-684 205,-720"/>
<text text-anchor="middle" x="137.5" y="-698.3" font-family="Times,serif" font-size="14.00" fill="#000000">TradeConfig:rndFloat</text>
</g>
<!-- 140633492117488 -->
<g id="node18" class="node">
<title>140633492117488</title>
<polygon fill="none" stroke="#000000" points="215,-774 60,-774 60,-738 215,-738 215,-774"/>
<text text-anchor="middle" x="137.5" y="-752.3" font-family="Times,serif" font-size="14.00" fill="#000000">TradeConfig:rndQuantity</text>
</g>
<!-- 140633492115920 -->
<g id="node19" class="node">
<title>140633492115920</title>
<polygon fill="none" stroke="#000000" points="1397,-387 1247,-387 1247,-351 1397,-351 1397,-387"/>
<text text-anchor="middle" x="1322" y="-365.3" font-family="Times,serif" font-size="14.00" fill="#000000">TradeConfig:rndSymbol</text>
</g>
<!-- 140633492115920&#45;&gt;140633490412656 -->
<g id="edge21" class="edge">
<title>140633492115920&#45;&gt;140633490412656</title>
<path fill="none" stroke="#000000" d="M1246.8173,-375.9236C1234.8461,-376.7873 1222.591,-377.5309 1211,-378 1075.5553,-383.482 1040.2453,-396.8017 906,-378 896.9148,-376.7276 887.3014,-374.4704 878.3942,-371.9753"/>
<polygon fill="#000000" stroke="#000000" points="879.2863,-368.5892 868.7037,-369.0969 877.2931,-375.2995 879.2863,-368.5892"/>
</g>
<!-- 140633492118384 -->
<g id="node20" class="node">
<title>140633492118384</title>
<polygon fill="none" stroke="#000000" points="223.5,-828 51.5,-828 51.5,-792 223.5,-792 223.5,-828"/>
<text text-anchor="middle" x="137.5" y="-806.3" font-family="Times,serif" font-size="14.00" fill="#000000">TradeConfig:setActionTrace</text>
</g>
<!-- 140633493955136 -->
<g id="node21" class="node">
<title>140633493955136</title>
<polygon fill="none" stroke="#000000" points="243,-882 32,-882 32,-846 243,-846 243,-882"/>
<text text-anchor="middle" x="137.5" y="-860.3" font-family="Times,serif" font-size="14.00" fill="#000000">TradeConfig:setDisplayOrderAlerts</text>
</g>
<!-- 140633492117936 -->
<g id="node22" class="node">
<title>140633492117936</title>
<polygon fill="none" stroke="#000000" points="215,-936 60,-936 60,-900 215,-900 215,-936"/>
<text text-anchor="middle" x="137.5" y="-914.3" font-family="Times,serif" font-size="14.00" fill="#000000">TradeConfig:setLongRun</text>
</g>
<!-- 140633492118216 -->
<g id="node23" class="node">
<title>140633492118216</title>
<polygon fill="none" stroke="#000000" points="236,-990 39,-990 39,-954 236,-954 236,-990"/>
<text text-anchor="middle" x="137.5" y="-968.3" font-family="Times,serif" font-size="14.00" fill="#000000">TradeConfig:setMAX_QUOTES</text>
</g>
<!-- 140633492115528 -->
<g id="node24" class="node">
<title>140633492115528</title>
<polygon fill="none" stroke="#000000" points="230,-1044 45,-1044 45,-1008 230,-1008 230,-1044"/>
<text text-anchor="middle" x="137.5" y="-1022.3" font-family="Times,serif" font-size="14.00" fill="#000000">TradeConfig:setMAX_USERS</text>
</g>
<!-- 140633492116256 -->
<g id="node25" class="node">
<title>140633492116256</title>
<polygon fill="none" stroke="#000000" points="257.5,-1098 17.5,-1098 17.5,-1062 257.5,-1062 257.5,-1098"/>
<text text-anchor="middle" x="137.5" y="-1076.3" font-family="Times,serif" font-size="14.00" fill="#000000">TradeConfig:setMarketSummaryInterval</text>
</g>
<!-- 140633492118440 -->
<g id="node26" class="node">
<title>140633492118440</title>
<polygon fill="none" stroke="#000000" points="251,-1152 24,-1152 24,-1116 251,-1116 251,-1152"/>
<text text-anchor="middle" x="137.5" y="-1130.3" font-family="Times,serif" font-size="14.00" fill="#000000">TradeConfig:setOrderProcessingMode</text>
</g>
<!-- 140633492116200 -->
<g id="node27" class="node">
<title>140633492116200</title>
<polygon fill="none" stroke="#000000" points="260,-1206 15,-1206 15,-1170 260,-1170 260,-1206"/>
<text text-anchor="middle" x="137.5" y="-1184.3" font-family="Times,serif" font-size="14.00" fill="#000000">TradeConfig:setPercentSentToWebsocket</text>
</g>
<!-- 140633492115584 -->
<g id="node28" class="node">
<title>140633492115584</title>
<polygon fill="none" stroke="#000000" points="228.5,-1260 46.5,-1260 46.5,-1224 228.5,-1224 228.5,-1260"/>
<text text-anchor="middle" x="137.5" y="-1238.3" font-family="Times,serif" font-size="14.00" fill="#000000">TradeConfig:setPrimIterations</text>
</g>
<!-- 140633492116088 -->
<g id="node29" class="node">
<title>140633492116088</title>
<polygon fill="none" stroke="#000000" points="261,-1314 14,-1314 14,-1278 261,-1278 261,-1314"/>
<text text-anchor="middle" x="137.5" y="-1292.3" font-family="Times,serif" font-size="14.00" fill="#000000">TradeConfig:setPublishQuotePriceChange</text>
</g>
<!-- 140633492117544 -->
<g id="node30" class="node">
<title>140633492117544</title>
<polygon fill="none" stroke="#000000" points="231.5,-1368 43.5,-1368 43.5,-1332 231.5,-1332 231.5,-1368"/>
<text text-anchor="middle" x="137.5" y="-1346.3" font-family="Times,serif" font-size="14.00" fill="#000000">TradeConfig:setRunTimeMode</text>
</g>
<!-- 140633492116480 -->
<g id="node31" class="node">
<title>140633492116480</title>
<polygon fill="none" stroke="#000000" points="205,-1422 70,-1422 70,-1386 205,-1386 205,-1422"/>
<text text-anchor="middle" x="137.5" y="-1400.3" font-family="Times,serif" font-size="14.00" fill="#000000">TradeConfig:setTrace</text>
</g>
<!-- 140633492118720 -->
<g id="node32" class="node">
<title>140633492118720</title>
<polygon fill="none" stroke="#000000" points="257,-1476 18,-1476 18,-1440 257,-1440 257,-1476"/>
<text text-anchor="middle" x="137.5" y="-1454.3" font-family="Times,serif" font-size="14.00" fill="#000000">TradeConfig:setUseRemoteEJBInterface</text>
</g>
<!-- 140633492117656 -->
<g id="node33" class="node">
<title>140633492117656</title>
<polygon fill="none" stroke="#000000" points="227,-1530 48,-1530 48,-1494 227,-1494 227,-1530"/>
<text text-anchor="middle" x="137.5" y="-1508.3" font-family="Times,serif" font-size="14.00" fill="#000000">TradeConfig:setWebInterface</text>
</g>
<!-- 140633492117880 -->
<g id="node34" class="node">
<title>140633492117880</title>
<polygon fill="none" stroke="#000000" points="248,-1584 27,-1584 27,-1548 248,-1548 248,-1584"/>
<text text-anchor="middle" x="137.5" y="-1562.3" font-family="Times,serif" font-size="14.00" fill="#000000">TradeConfig:useRemoteEJBInterface</text>
</g>
<!-- 140633492116928 -->
<g id="node35" class="node">
<title>140633492116928</title>
<polygon fill="none" stroke="#000000" points="189.5,-1638 85.5,-1638 85.5,-1602 189.5,-1602 189.5,-1638"/>
<text text-anchor="middle" x="137.5" y="-1616.3" font-family="Times,serif" font-size="14.00" fill="#000000">TradeDirect:init</text>
</g>
<!-- 140633492116536 -->
<g id="node36" class="node">
<title>140633492116536</title>
<polygon fill="none" stroke="#000000" points="234.5,-1692 40.5,-1692 40.5,-1656 234.5,-1656 234.5,-1692"/>
<text text-anchor="middle" x="137.5" y="-1670.3" font-family="Times,serif" font-size="14.00" fill="#000000">TradeServletAction:doWelcome</text>
</g>
<!-- 140633492118608 -->
<g id="node37" class="node">
<title>140633492118608</title>
<polygon fill="none" stroke="#000000" points="571,-144 311,-144 311,-108 571,-108 571,-144"/>
<text text-anchor="middle" x="441" y="-122.3" font-family="Times,serif" font-size="14.00" fill="#000000">TradeWebContextListener:contextInitialized</text>
</g>
<!-- 140633492118608&#45;&gt;140633490412880 -->
<g id="edge22" class="edge">
<title>140633492118608&#45;&gt;140633490412880</title>
<path fill="none" stroke="#000000" d="M571.318,-139.935C602.6893,-143.2895 633.7254,-146.6083 656.6673,-149.0615"/>
<polygon fill="#000000" stroke="#000000" points="656.2953,-152.5415 666.6108,-150.1247 657.0396,-145.5812 656.2953,-152.5415"/>
</g>
<!-- 140633492116816 -->
<g id="node38" class="node">
<title>140633492116816</title>
<polygon fill="none" stroke="#000000" points="503.5,-90 378.5,-90 378.5,-54 503.5,-54 503.5,-90"/>
<text text-anchor="middle" x="441" y="-68.3" font-family="Times,serif" font-size="14.00" fill="#000000">new JSFLoginFilter</text>
</g>
<!-- 140633492116816&#45;&gt;140633490412880 -->
<g id="edge23" class="edge">
<title>140633492116816&#45;&gt;140633490412880</title>
<path fill="none" stroke="#000000" d="M503.5189,-82.2194C525.1476,-86.4804 549.3769,-92.0739 571,-99 602.0692,-108.9518 635.8961,-124.225 660.1159,-135.9921"/>
<polygon fill="#000000" stroke="#000000" points="658.706,-139.1991 669.2241,-140.4722 661.7956,-132.9178 658.706,-139.1991"/>
</g>
<!-- 140633492117040 -->
<g id="node39" class="node">
<title>140633492117040</title>
<polygon fill="none" stroke="#000000" points="509.5,-36 372.5,-36 372.5,0 509.5,0 509.5,-36"/>
<text text-anchor="middle" x="441" y="-14.3" font-family="Times,serif" font-size="14.00" fill="#000000">new OrdersAlertFilter</text>
</g>
<!-- 140633492117040&#45;&gt;140633490412880 -->
<g id="edge24" class="edge">
<title>140633492117040&#45;&gt;140633490412880</title>
<path fill="none" stroke="#000000" d="M509.681,-25.433C530.1483,-29.4278 552.1353,-35.5669 571,-45 609.9001,-64.4515 646.1657,-99.3699 668.9867,-124.235"/>
<polygon fill="#000000" stroke="#000000" points="666.6171,-126.834 675.91,-131.9225 671.8187,-122.1495 666.6171,-126.834"/>
</g>
<!-- 140633493958216 -->
<g id="node40" class="node">
<title>140633493958216</title>
<polygon fill="none" stroke="#000000" points="193,-1746 82,-1746 82,-1710 193,-1710 193,-1746"/>
<text text-anchor="middle" x="137.5" y="-1724.3" font-family="Times,serif" font-size="14.00" fill="#000000">new TradeAction</text>
</g>
<!-- 140633490414840 -->
<g id="node41" class="node">
<title>140633490414840</title>
<ellipse fill="#00ff00" stroke="#000000" cx="137.5" cy="-153" rx="27" ry="27"/>
<text text-anchor="middle" x="137.5" y="-149.3" font-family="Times,serif" font-size="14.00" fill="#000000">1</text>
</g>
<!-- 140633490414840&#45;&gt;140633492117264 -->
<g id="edge6" class="edge">
<title>140633490414840&#45;&gt;140633492117264</title>
<path fill="none" stroke="#000000" d="M164.7395,-153.6505C194.819,-155.7167 243.1902,-163.1919 275,-189 302.783,-211.5411 282.6481,-239.1787 311,-261 327.9541,-274.0489 349.7023,-281.185 370.5398,-284.9805"/>
<polygon fill="#000000" stroke="#000000" points="370.2463,-288.4776 380.671,-286.5866 371.3424,-281.5639 370.2463,-288.4776"/>
</g>
<!-- 140633490414840&#45;&gt;140633492117824 -->
<g id="edge7" class="edge">
<title>140633490414840&#45;&gt;140633492117824</title>
<path fill="none" stroke="#000000" d="M164.1085,-158.248C192.1828,-164.1801 237.4697,-174.8795 275,-189 291.7427,-195.2993 294.1013,-201.1321 311,-207 324.1419,-211.5634 338.3125,-215.4758 352.2964,-218.7904"/>
<polygon fill="#000000" stroke="#000000" points="351.9007,-222.2899 362.4284,-221.0992 353.456,-215.4649 351.9007,-222.2899"/>
</g>
<!-- 140633490414840&#45;&gt;140633492115864 -->
<g id="edge8" class="edge">
<title>140633490414840&#45;&gt;140633492115864</title>
<path fill="none" stroke="#000000" d="M164.4336,-155.3961C208.9129,-159.353 299.2956,-167.3937 364.6557,-173.2083"/>
<polygon fill="#000000" stroke="#000000" points="364.6491,-176.7214 374.9199,-174.1214 365.2694,-169.7489 364.6491,-176.7214"/>
</g>
<!-- 140633490414840&#45;&gt;140633492118608 -->
<g id="edge9" class="edge">
<title>140633490414840&#45;&gt;140633492118608</title>
<path fill="none" stroke="#000000" d="M164.4336,-150.6039C195.5077,-147.8395 248.9859,-143.082 300.6842,-138.4828"/>
<polygon fill="#000000" stroke="#000000" points="301.0008,-141.9685 310.6513,-137.5961 300.3804,-134.9961 301.0008,-141.9685"/>
</g>
<!-- 140633490414840&#45;&gt;140633492116816 -->
<g id="edge10" class="edge">
<title>140633490414840&#45;&gt;140633492116816</title>
<path fill="none" stroke="#000000" d="M164.1085,-147.752C192.1828,-141.8199 237.4697,-131.1205 275,-117 291.7427,-110.7007 294.1013,-104.8679 311,-99 329.1814,-92.6867 349.3316,-87.6195 368.2324,-83.6571"/>
<polygon fill="#000000" stroke="#000000" points="369.1743,-87.0376 378.2833,-81.6269 367.7883,-80.1762 369.1743,-87.0376"/>
</g>
<!-- 140633490414840&#45;&gt;140633492117040 -->
<g id="edge11" class="edge">
<title>140633490414840&#45;&gt;140633492117040</title>
<path fill="none" stroke="#000000" d="M164.7395,-152.3495C194.819,-150.2833 243.1902,-142.8081 275,-117 302.783,-94.4589 282.6481,-66.8213 311,-45 325.7874,-33.6187 344.2218,-26.7356 362.5181,-22.6438"/>
<polygon fill="#000000" stroke="#000000" points="363.2174,-26.0733 372.3475,-20.6982 361.8582,-19.2065 363.2174,-26.0733"/>
</g>
<!-- 140633492116368&#45;&gt;140633492117376 -->
<g id="edge1" class="edge">
<title>140633492116368&#45;&gt;140633492117376</title>
<path fill="none" stroke="#000000" d="M468.0219,-364.786C498.7202,-364.5428 550.5631,-364.1322 596.8024,-363.7659"/>
<polygon fill="#000000" stroke="#000000" points="596.9079,-367.2653 606.8798,-363.6861 596.8524,-360.2655 596.9079,-367.2653"/>
</g>
<!-- 140633490413048&#45;&gt;140633492117376 -->
<g id="edge2" class="edge">
<title>140633490413048&#45;&gt;140633492117376</title>
<path fill="none" stroke="#000000" d="M1158.2963,-332.9031C1147.0094,-329.368 1133.5044,-325.7513 1121,-324 986.7547,-305.1983 949.949,-303.192 816,-324 793.3432,-327.5196 769.1436,-334.4947 748.288,-341.5853"/>
<polygon fill="#000000" stroke="#000000" points="746.938,-338.3494 738.6502,-344.9496 749.245,-344.9583 746.938,-338.3494"/>
</g>
<!-- 140633490413048&#45;&gt;140633492115920 -->
<g id="edge3" class="edge">
<title>140633490413048&#45;&gt;140633492115920</title>
<path fill="none" stroke="#000000" d="M1210.6078,-347.2059C1218.4554,-348.7413 1227.4974,-350.5104 1236.9658,-352.3629"/>
<polygon fill="#000000" stroke="#000000" points="1236.4691,-355.832 1246.9551,-354.3173 1237.8132,-348.9622 1236.4691,-355.832"/>
</g>
<!-- 140633492118048&#45;&gt;140633492118328 -->
<g id="edge4" class="edge">
<title>140633492118048&#45;&gt;140633492118328</title>
<path fill="none" stroke="#000000" d="M815.8174,-431.123C737.3822,-428.4403 503.9508,-419.3858 311,-401 299.4207,-399.8966 287.4248,-398.609 275.3958,-397.2167"/>
<polygon fill="#000000" stroke="#000000" points="275.6334,-393.7206 265.2921,-396.0245 274.813,-400.6723 275.6334,-393.7206"/>
</g>
<!-- 140633490412656&#45;&gt;140633492119000 -->
<g id="edge5" class="edge">
<title>140633490412656&#45;&gt;140633492119000</title>
<path fill="none" stroke="#000000" d="M870.0162,-358.5739C877.6125,-358.1729 886.3905,-357.7096 895.787,-357.2136"/>
<polygon fill="#000000" stroke="#000000" points="895.9779,-360.7085 905.7795,-356.6861 895.6089,-353.7182 895.9779,-360.7085"/>
</g>
<!-- 140633490412880&#45;&gt;140633492118552 -->
<g id="edge12" class="edge">
<title>140633490412880&#45;&gt;140633492118552</title>
<path fill="none" stroke="#000000" d="M720.5733,-153C744.4183,-153 779.3722,-153 805.8332,-153"/>
<polygon fill="#000000" stroke="#000000" points="805.8759,-156.5001 815.8759,-153 805.8759,-149.5001 805.8759,-156.5001"/>
</g>
</g>
</svg>
