<?xml version="1.0" encoding="UTF-8" standalone="no"?>
<!DOCTYPE svg PUBLIC "-//W3C//DTD SVG 1.1//EN"
 "http://www.w3.org/Graphics/SVG/1.1/DTD/svg11.dtd">
<!-- Generated by graphviz version 2.40.1 (20161225.0304)
 -->
<!-- Title: alpha_classic_net_1585321097.587373 Pages: 1 -->
<svg width="1031pt" height="2600pt"
 viewBox="0.00 0.00 1031.00 2600.00" xmlns="http://www.w3.org/2000/svg" xmlns:xlink="http://www.w3.org/1999/xlink">
<g id="graph0" class="graph" transform="scale(1 1) rotate(0) translate(4 2596)">
<title>alpha_classic_net_1585321097.587373</title>
<!-- 140531499804768 -->
<g id="node1" class="node">
<title>140531499804768</title>
<polygon fill="none" stroke="#000000" points="316,-36 105,-36 105,0 316,0 316,-36"/>
<text text-anchor="middle" x="210.5" y="-14.3" font-family="Times,serif" font-size="14.00" fill="#000000">FinancialUtils:computeGainPercent</text>
</g>
<!-- 140531499193288 -->
<g id="node2" class="node">
<title>140531499193288</title>
<polygon fill="none" stroke="#000000" points="253.5,-90 167.5,-90 167.5,-54 253.5,-54 253.5,-90"/>
<text text-anchor="middle" x="210.5" y="-68.3" font-family="Times,serif" font-size="14.00" fill="#000000">Log:doTrace</text>
</g>
<!-- 140531499983032 -->
<g id="node3" class="node">
<title>140531499983032</title>
<polygon fill="none" stroke="#000000" points="255,-144 166,-144 166,-108 255,-108 255,-144"/>
<text text-anchor="middle" x="210.5" y="-122.3" font-family="Times,serif" font-size="14.00" fill="#000000">Log:getTrace</text>
</g>
<!-- 140531499805104 -->
<g id="node4" class="node">
<title>140531499805104</title>
<polygon fill="none" stroke="#000000" points="273,-198 148,-198 148,-162 273,-162 273,-198"/>
<text text-anchor="middle" x="210.5" y="-176.3" font-family="Times,serif" font-size="14.00" fill="#000000">Log:setActionTrace</text>
</g>
<!-- 140531499627968 -->
<g id="node5" class="node">
<title>140531499627968</title>
<polygon fill="none" stroke="#000000" points="254.5,-252 166.5,-252 166.5,-216 254.5,-216 254.5,-252"/>
<text text-anchor="middle" x="210.5" y="-230.3" font-family="Times,serif" font-size="14.00" fill="#000000">Log:setTrace</text>
</g>
<!-- 140531499804936 -->
<g id="node6" class="node">
<title>140531499804936</title>
<polygon fill="none" stroke="#000000" points="421,-306 0,-306 0,-270 421,-270 421,-306"/>
<text text-anchor="middle" x="210.5" y="-284.3" font-family="Times,serif" font-size="14.00" fill="#000000">MarketSummaryDataBean:MarketSummaryDataBean [overloaded_#002]</text>
</g>
<!-- 140531499803424 -->
<g id="node7" class="node">
<title>140531499803424</title>
<polygon fill="none" stroke="#000000" points="332,-360 89,-360 89,-324 332,-324 332,-360"/>
<text text-anchor="middle" x="210.5" y="-338.3" font-family="Times,serif" font-size="14.00" fill="#000000">MarketSummaryDataBean:getOpenTSIA</text>
</g>
<!-- 140531499757296 -->
<g id="node8" class="node">
<title>140531499757296</title>
<polygon fill="none" stroke="#000000" points="317.5,-414 103.5,-414 103.5,-378 317.5,-378 317.5,-414"/>
<text text-anchor="middle" x="210.5" y="-392.3" font-family="Times,serif" font-size="14.00" fill="#000000">MarketSummaryDataBean:getTSIA</text>
</g>
<!-- 140531499804656 -->
<g id="node9" class="node">
<title>140531499804656</title>
<polygon fill="none" stroke="#000000" points="331.5,-468 89.5,-468 89.5,-432 331.5,-432 331.5,-468"/>
<text text-anchor="middle" x="210.5" y="-446.3" font-family="Times,serif" font-size="14.00" fill="#000000">MarketSummaryDataBean:setOpenTSIA</text>
</g>
<!-- 140531499983256 -->
<g id="node10" class="node">
<title>140531499983256</title>
<polygon fill="none" stroke="#000000" points="341.5,-522 79.5,-522 79.5,-486 341.5,-486 341.5,-522"/>
<text text-anchor="middle" x="210.5" y="-500.3" font-family="Times,serif" font-size="14.00" fill="#000000">MarketSummaryDataBean:setSummaryDate</text>
</g>
<!-- 140531499985272 -->
<g id="node11" class="node">
<title>140531499985272</title>
<polygon fill="none" stroke="#000000" points="316.5,-576 104.5,-576 104.5,-540 316.5,-540 316.5,-576"/>
<text text-anchor="middle" x="210.5" y="-554.3" font-family="Times,serif" font-size="14.00" fill="#000000">MarketSummaryDataBean:setTSIA</text>
</g>
<!-- 140531499805048 -->
<g id="node12" class="node">
<title>140531499805048</title>
<polygon fill="none" stroke="#000000" points="333.5,-630 87.5,-630 87.5,-594 333.5,-594 333.5,-630"/>
<text text-anchor="middle" x="210.5" y="-608.3" font-family="Times,serif" font-size="14.00" fill="#000000">MarketSummaryDataBean:setTopGainers</text>
</g>
<!-- 140531499803648 -->
<g id="node13" class="node">
<title>140531499803648</title>
<polygon fill="none" stroke="#000000" points="330.5,-684 90.5,-684 90.5,-648 330.5,-648 330.5,-684"/>
<text text-anchor="middle" x="210.5" y="-662.3" font-family="Times,serif" font-size="14.00" fill="#000000">MarketSummaryDataBean:setTopLosers</text>
</g>
<!-- 140531499983480 -->
<g id="node14" class="node">
<title>140531499983480</title>
<polygon fill="none" stroke="#000000" points="324,-738 97,-738 97,-702 324,-702 324,-738"/>
<text text-anchor="middle" x="210.5" y="-716.3" font-family="Times,serif" font-size="14.00" fill="#000000">MarketSummaryDataBean:setVolume</text>
</g>
<!-- 140531499802696 -->
<g id="node15" class="node">
<title>140531499802696</title>
<polygon fill="none" stroke="#000000" points="374.5,-792 46.5,-792 46.5,-756 374.5,-756 374.5,-792"/>
<text text-anchor="middle" x="210.5" y="-770.3" font-family="Times,serif" font-size="14.00" fill="#000000">MarketSummarySingleton:setMarketSummaryDataBean</text>
</g>
<!-- 140531499984152 -->
<g id="node16" class="node">
<title>140531499984152</title>
<polygon fill="none" stroke="#000000" points="753,-882 457,-882 457,-846 753,-846 753,-882"/>
<text text-anchor="middle" x="605" y="-860.3" font-family="Times,serif" font-size="14.00" fill="#000000">MarketSummarySingleton:updateMarketSummary</text>
</g>
<!-- 140531499805664 -->
<g id="node52" class="node">
<title>140531499805664</title>
<ellipse fill="none" stroke="#000000" cx="816" cy="-837" rx="27" ry="27"/>
<text text-anchor="middle" x="816" y="-833.3" font-family="Times,serif" font-size="14.00" fill="#000000">({&#39;MarketSummarySingleton:updateMarketSummary&#39;, &#39;TradeConfigServlet:service&#39;}, {&#39;Root&#39;})</text>
</g>
<!-- 140531499984152&#45;&gt;140531499805664 -->
<g id="edge2" class="edge">
<title>140531499984152&#45;&gt;140531499805664</title>
<path fill="none" stroke="#000000" d="M745.7401,-845.9906C757.7313,-844.4562 769.0363,-843.0096 778.9293,-841.7436"/>
<polygon fill="#000000" stroke="#000000" points="779.601,-845.1863 789.0758,-840.4453 778.7124,-838.2429 779.601,-845.1863"/>
</g>
<!-- 140531499803704 -->
<g id="node17" class="node">
<title>140531499803704</title>
<polygon fill="none" stroke="#000000" points="360,-918 61,-918 61,-882 360,-882 360,-918"/>
<text text-anchor="middle" x="210.5" y="-896.3" font-family="Times,serif" font-size="14.00" fill="#000000">QuoteDataBean:QuoteDataBean [overloaded_#001]</text>
</g>
<!-- 140531499803312 -->
<g id="node18" class="node">
<title>140531499803312</title>
<polygon fill="none" stroke="#000000" points="286.5,-972 134.5,-972 134.5,-936 286.5,-936 286.5,-972"/>
<text text-anchor="middle" x="210.5" y="-950.3" font-family="Times,serif" font-size="14.00" fill="#000000">QuoteDataBean:getOpen</text>
</g>
<!-- 140531499803200 -->
<g id="node19" class="node">
<title>140531499803200</title>
<polygon fill="none" stroke="#000000" points="286,-1026 135,-1026 135,-990 286,-990 286,-1026"/>
<text text-anchor="middle" x="210.5" y="-1004.3" font-family="Times,serif" font-size="14.00" fill="#000000">QuoteDataBean:getPrice</text>
</g>
<!-- 140531499802864 -->
<g id="node20" class="node">
<title>140531499802864</title>
<polygon fill="none" stroke="#000000" points="294,-1080 127,-1080 127,-1044 294,-1044 294,-1080"/>
<text text-anchor="middle" x="210.5" y="-1058.3" font-family="Times,serif" font-size="14.00" fill="#000000">QuoteDataBean:getVolume</text>
</g>
<!-- 140531499805272 -->
<g id="node21" class="node">
<title>140531499805272</title>
<polygon fill="none" stroke="#000000" points="933,-855 879,-855 879,-819 933,-819 933,-855"/>
<text text-anchor="middle" x="906" y="-833.3" font-family="Times,serif" font-size="14.00" fill="#000000">Root</text>
</g>
<!-- 140531499805496 -->
<g id="node53" class="node">
<title>140531499805496</title>
<ellipse fill="#ffa500" stroke="#000000" cx="996" cy="-837" rx="27" ry="27"/>
</g>
<!-- 140531499805272&#45;&gt;140531499805496 -->
<g id="edge3" class="edge">
<title>140531499805272&#45;&gt;140531499805496</title>
<path fill="none" stroke="#000000" d="M933.003,-837C941.0277,-837 949.9665,-837 958.5309,-837"/>
<polygon fill="#000000" stroke="#000000" points="958.7051,-840.5001 968.705,-837 958.705,-833.5001 958.7051,-840.5001"/>
</g>
<!-- 140531499804096 -->
<g id="node22" class="node">
<title>140531499804096</title>
<polygon fill="none" stroke="#000000" points="297,-1134 124,-1134 124,-1098 297,-1098 297,-1134"/>
<text text-anchor="middle" x="210.5" y="-1112.3" font-family="Times,serif" font-size="14.00" fill="#000000">TradeConfig:getActionTrace</text>
</g>
<!-- 140531499803032 -->
<g id="node23" class="node">
<title>140531499803032</title>
<polygon fill="none" stroke="#000000" points="316.5,-1188 104.5,-1188 104.5,-1152 316.5,-1152 316.5,-1188"/>
<text text-anchor="middle" x="210.5" y="-1166.3" font-family="Times,serif" font-size="14.00" fill="#000000">TradeConfig:getDisplayOrderAlerts</text>
</g>
<!-- 140531499803536 -->
<g id="node24" class="node">
<title>140531499803536</title>
<polygon fill="none" stroke="#000000" points="289,-1242 132,-1242 132,-1206 289,-1206 289,-1242"/>
<text text-anchor="middle" x="210.5" y="-1220.3" font-family="Times,serif" font-size="14.00" fill="#000000">TradeConfig:getLongRun</text>
</g>
<!-- 140531499984040 -->
<g id="node25" class="node">
<title>140531499984040</title>
<polygon fill="none" stroke="#000000" points="309.5,-1296 111.5,-1296 111.5,-1260 309.5,-1260 309.5,-1296"/>
<text text-anchor="middle" x="210.5" y="-1274.3" font-family="Times,serif" font-size="14.00" fill="#000000">TradeConfig:getMAX_QUOTES</text>
</g>
<!-- 140531499804040 -->
<g id="node26" class="node">
<title>140531499804040</title>
<polygon fill="none" stroke="#000000" points="304,-1350 117,-1350 117,-1314 304,-1314 304,-1350"/>
<text text-anchor="middle" x="210.5" y="-1328.3" font-family="Times,serif" font-size="14.00" fill="#000000">TradeConfig:getMAX_USERS</text>
</g>
<!-- 140531499803256 -->
<g id="node27" class="node">
<title>140531499803256</title>
<polygon fill="none" stroke="#000000" points="331.5,-1404 89.5,-1404 89.5,-1368 331.5,-1368 331.5,-1404"/>
<text text-anchor="middle" x="210.5" y="-1382.3" font-family="Times,serif" font-size="14.00" fill="#000000">TradeConfig:getMarketSummaryInterval</text>
</g>
<!-- 140531499983200 -->
<g id="node28" class="node">
<title>140531499983200</title>
<polygon fill="none" stroke="#000000" points="276.5,-1458 144.5,-1458 144.5,-1422 276.5,-1422 276.5,-1458"/>
<text text-anchor="middle" x="210.5" y="-1436.3" font-family="Times,serif" font-size="14.00" fill="#000000">TradeConfig:getPage</text>
</g>
<!-- 140531499802808 -->
<g id="node29" class="node">
<title>140531499802808</title>
<polygon fill="none" stroke="#000000" points="333.5,-1512 87.5,-1512 87.5,-1476 333.5,-1476 333.5,-1512"/>
<text text-anchor="middle" x="210.5" y="-1490.3" font-family="Times,serif" font-size="14.00" fill="#000000">TradeConfig:getPercentSentToWebsocket</text>
</g>
<!-- 140531499804880 -->
<g id="node30" class="node">
<title>140531499804880</title>
<polygon fill="none" stroke="#000000" points="302.5,-1566 118.5,-1566 118.5,-1530 302.5,-1530 302.5,-1566"/>
<text text-anchor="middle" x="210.5" y="-1544.3" font-family="Times,serif" font-size="14.00" fill="#000000">TradeConfig:getPrimIterations</text>
</g>
<!-- 140531499983312 -->
<g id="node31" class="node">
<title>140531499983312</title>
<polygon fill="none" stroke="#000000" points="334.5,-1620 86.5,-1620 86.5,-1584 334.5,-1584 334.5,-1620"/>
<text text-anchor="middle" x="210.5" y="-1598.3" font-family="Times,serif" font-size="14.00" fill="#000000">TradeConfig:getPublishQuotePriceChange</text>
</g>
<!-- 140531499192952 -->
<g id="node32" class="node">
<title>140531499192952</title>
<polygon fill="none" stroke="#000000" points="305.5,-1674 115.5,-1674 115.5,-1638 305.5,-1638 305.5,-1674"/>
<text text-anchor="middle" x="210.5" y="-1652.3" font-family="Times,serif" font-size="14.00" fill="#000000">TradeConfig:getRunTimeMode</text>
</g>
<!-- 140531499804712 -->
<g id="node33" class="node">
<title>140531499804712</title>
<polygon fill="none" stroke="#000000" points="279,-1728 142,-1728 142,-1692 279,-1692 279,-1728"/>
<text text-anchor="middle" x="210.5" y="-1706.3" font-family="Times,serif" font-size="14.00" fill="#000000">TradeConfig:getTrace</text>
</g>
<!-- 140531499803480 -->
<g id="node34" class="node">
<title>140531499803480</title>
<polygon fill="none" stroke="#000000" points="296.5,-1782 124.5,-1782 124.5,-1746 296.5,-1746 296.5,-1782"/>
<text text-anchor="middle" x="210.5" y="-1760.3" font-family="Times,serif" font-size="14.00" fill="#000000">TradeConfig:setActionTrace</text>
</g>
<!-- 140531499804824 -->
<g id="node35" class="node">
<title>140531499804824</title>
<polygon fill="none" stroke="#000000" points="316,-1836 105,-1836 105,-1800 316,-1800 316,-1836"/>
<text text-anchor="middle" x="210.5" y="-1814.3" font-family="Times,serif" font-size="14.00" fill="#000000">TradeConfig:setDisplayOrderAlerts</text>
</g>
<!-- 140531499804264 -->
<g id="node36" class="node">
<title>140531499804264</title>
<polygon fill="none" stroke="#000000" points="288,-1890 133,-1890 133,-1854 288,-1854 288,-1890"/>
<text text-anchor="middle" x="210.5" y="-1868.3" font-family="Times,serif" font-size="14.00" fill="#000000">TradeConfig:setLongRun</text>
</g>
<!-- 140531499805160 -->
<g id="node37" class="node">
<title>140531499805160</title>
<polygon fill="none" stroke="#000000" points="309,-1944 112,-1944 112,-1908 309,-1908 309,-1944"/>
<text text-anchor="middle" x="210.5" y="-1922.3" font-family="Times,serif" font-size="14.00" fill="#000000">TradeConfig:setMAX_QUOTES</text>
</g>
<!-- 140531499982920 -->
<g id="node38" class="node">
<title>140531499982920</title>
<polygon fill="none" stroke="#000000" points="303,-1998 118,-1998 118,-1962 303,-1962 303,-1998"/>
<text text-anchor="middle" x="210.5" y="-1976.3" font-family="Times,serif" font-size="14.00" fill="#000000">TradeConfig:setMAX_USERS</text>
</g>
<!-- 140531499803592 -->
<g id="node39" class="node">
<title>140531499803592</title>
<polygon fill="none" stroke="#000000" points="330.5,-2052 90.5,-2052 90.5,-2016 330.5,-2016 330.5,-2052"/>
<text text-anchor="middle" x="210.5" y="-2030.3" font-family="Times,serif" font-size="14.00" fill="#000000">TradeConfig:setMarketSummaryInterval</text>
</g>
<!-- 140531499802920 -->
<g id="node40" class="node">
<title>140531499802920</title>
<polygon fill="none" stroke="#000000" points="324,-2106 97,-2106 97,-2070 324,-2070 324,-2106"/>
<text text-anchor="middle" x="210.5" y="-2084.3" font-family="Times,serif" font-size="14.00" fill="#000000">TradeConfig:setOrderProcessingMode</text>
</g>
<!-- 140531499804992 -->
<g id="node41" class="node">
<title>140531499804992</title>
<polygon fill="none" stroke="#000000" points="333,-2160 88,-2160 88,-2124 333,-2124 333,-2160"/>
<text text-anchor="middle" x="210.5" y="-2138.3" font-family="Times,serif" font-size="14.00" fill="#000000">TradeConfig:setPercentSentToWebsocket</text>
</g>
<!-- 140531499804152 -->
<g id="node42" class="node">
<title>140531499804152</title>
<polygon fill="none" stroke="#000000" points="301.5,-2214 119.5,-2214 119.5,-2178 301.5,-2178 301.5,-2214"/>
<text text-anchor="middle" x="210.5" y="-2192.3" font-family="Times,serif" font-size="14.00" fill="#000000">TradeConfig:setPrimIterations</text>
</g>
<!-- 140531499802976 -->
<g id="node43" class="node">
<title>140531499802976</title>
<polygon fill="none" stroke="#000000" points="334,-2268 87,-2268 87,-2232 334,-2232 334,-2268"/>
<text text-anchor="middle" x="210.5" y="-2246.3" font-family="Times,serif" font-size="14.00" fill="#000000">TradeConfig:setPublishQuotePriceChange</text>
</g>
<!-- 140531499803144 -->
<g id="node44" class="node">
<title>140531499803144</title>
<polygon fill="none" stroke="#000000" points="304.5,-2322 116.5,-2322 116.5,-2286 304.5,-2286 304.5,-2322"/>
<text text-anchor="middle" x="210.5" y="-2300.3" font-family="Times,serif" font-size="14.00" fill="#000000">TradeConfig:setRunTimeMode</text>
</g>
<!-- 140531499803368 -->
<g id="node45" class="node">
<title>140531499803368</title>
<polygon fill="none" stroke="#000000" points="278,-2376 143,-2376 143,-2340 278,-2340 278,-2376"/>
<text text-anchor="middle" x="210.5" y="-2354.3" font-family="Times,serif" font-size="14.00" fill="#000000">TradeConfig:setTrace</text>
</g>
<!-- 140531499805216 -->
<g id="node46" class="node">
<title>140531499805216</title>
<polygon fill="none" stroke="#000000" points="300,-2430 121,-2430 121,-2394 300,-2394 300,-2430"/>
<text text-anchor="middle" x="210.5" y="-2408.3" font-family="Times,serif" font-size="14.00" fill="#000000">TradeConfig:setWebInterface</text>
</g>
<!-- 140531499803088 -->
<g id="node47" class="node">
<title>140531499803088</title>
<polygon fill="none" stroke="#000000" points="321,-2484 100,-2484 100,-2448 321,-2448 321,-2484"/>
<text text-anchor="middle" x="210.5" y="-2462.3" font-family="Times,serif" font-size="14.00" fill="#000000">TradeConfig:useRemoteEJBInterface</text>
</g>
<!-- 140531499629704 -->
<g id="node48" class="node">
<title>140531499629704</title>
<polygon fill="none" stroke="#000000" points="321,-2538 100,-2538 100,-2502 321,-2502 321,-2538"/>
<text text-anchor="middle" x="210.5" y="-2516.3" font-family="Times,serif" font-size="14.00" fill="#000000">TradeConfigServlet:doConfigDisplay</text>
</g>
<!-- 140531499630376 -->
<g id="node49" class="node">
<title>140531499630376</title>
<polygon fill="none" stroke="#000000" points="319.5,-2592 101.5,-2592 101.5,-2556 319.5,-2556 319.5,-2592"/>
<text text-anchor="middle" x="210.5" y="-2570.3" font-family="Times,serif" font-size="14.00" fill="#000000">TradeConfigServlet:doConfigUpdate</text>
</g>
<!-- 140531499985440 -->
<g id="node50" class="node">
<title>140531499985440</title>
<polygon fill="none" stroke="#000000" points="688,-828 522,-828 522,-792 688,-792 688,-828"/>
<text text-anchor="middle" x="605" y="-806.3" font-family="Times,serif" font-size="14.00" fill="#000000">TradeConfigServlet:service</text>
</g>
<!-- 140531499985440&#45;&gt;140531499805664 -->
<g id="edge4" class="edge">
<title>140531499985440&#45;&gt;140531499805664</title>
<path fill="none" stroke="#000000" d="M688.0899,-820.6324C719.5733,-824.661 753.8482,-829.0469 778.9867,-832.2637"/>
<polygon fill="#000000" stroke="#000000" points="778.8029,-835.7686 789.1663,-833.5663 779.6914,-828.8253 778.8029,-835.7686"/>
</g>
<!-- 140531499805328 -->
<g id="node51" class="node">
<title>140531499805328</title>
<ellipse fill="#00ff00" stroke="#000000" cx="210.5" cy="-837" rx="27" ry="27"/>
<text text-anchor="middle" x="210.5" y="-833.3" font-family="Times,serif" font-size="14.00" fill="#000000">1</text>
</g>
<!-- 140531499805328&#45;&gt;140531499984152 -->
<g id="edge5" class="edge">
<title>140531499805328&#45;&gt;140531499984152</title>
<path fill="none" stroke="#000000" d="M237.6156,-838.8558C280.686,-841.8036 367.9212,-847.7741 446.5792,-853.1575"/>
<polygon fill="#000000" stroke="#000000" points="446.4049,-856.6537 456.6205,-853.8448 446.8829,-849.67 446.4049,-856.6537"/>
</g>
<!-- 140531499805328&#45;&gt;140531499985440 -->
<g id="edge6" class="edge">
<title>140531499805328&#45;&gt;140531499985440</title>
<path fill="none" stroke="#000000" d="M237.6156,-835.1442C293.1815,-831.3412 422.2554,-822.5072 511.5856,-816.3934"/>
<polygon fill="#000000" stroke="#000000" points="511.9927,-819.8738 521.7303,-815.6991 511.5146,-812.8901 511.9927,-819.8738"/>
</g>
<!-- 140531499805664&#45;&gt;140531499805272 -->
<g id="edge1" class="edge">
<title>140531499805664&#45;&gt;140531499805272</title>
<path fill="none" stroke="#000000" d="M843.003,-837C851.0277,-837 859.9665,-837 868.5309,-837"/>
<polygon fill="#000000" stroke="#000000" points="868.7051,-840.5001 878.705,-837 868.705,-833.5001 868.7051,-840.5001"/>
</g>
</g>
</svg>
