<?xml version="1.0" encoding="UTF-8" standalone="no"?>
<!DOCTYPE svg PUBLIC "-//W3C//DTD SVG 1.1//EN"
 "http://www.w3.org/Graphics/SVG/1.1/DTD/svg11.dtd">
<!-- Generated by graphviz version 2.40.1 (20161225.0304)
 -->
<!-- Title: %3 Pages: 1 -->
<svg width="1925pt" height="759pt"
 viewBox="0.00 0.00 1925.00 759.16" xmlns="http://www.w3.org/2000/svg" xmlns:xlink="http://www.w3.org/1999/xlink">
<g id="graph0" class="graph" transform="scale(1 1) rotate(0) translate(4 755.1628)">
<title>%3</title>
<!-- 139748184450608 -->
<g id="node1" class="node">
<title>139748184450608</title>
<polygon fill="none" stroke="#000000" points="328,-223 0,-223 0,-187 328,-187 328,-223"/>
<text text-anchor="middle" x="164" y="-201.3" font-family="Times,serif" font-size="14.00" fill="#000000">MarketSummarySingleton:setMarketSummaryDataBean</text>
</g>
<!-- 139748197693704 -->
<g id="node36" class="node">
<title>139748197693704</title>
<ellipse fill="none" stroke="#000000" cx="391" cy="-299" rx="27" ry="27"/>
<text text-anchor="middle" x="391" y="-295.3" font-family="Times,serif" font-size="14.00" fill="#000000">splace_in_MarketSummarySingleton:updateMarketSummary_0</text>
</g>
<!-- 139748184450608&#45;&gt;139748197693704 -->
<g id="edge1" class="edge">
<title>139748184450608&#45;&gt;139748197693704</title>
<path fill="none" stroke="#000000" d="M207.4993,-223.0129C250.909,-240.9888 316.7318,-268.2458 356.6172,-284.7622"/>
<polygon fill="#000000" stroke="#000000" points="355.3488,-288.0251 365.9271,-288.6174 358.027,-281.5577 355.3488,-288.0251"/>
</g>
<!-- 139748197513592 -->
<g id="node2" class="node">
<title>139748197513592</title>
<polygon fill="none" stroke="#000000" points="1042,-449 746,-449 746,-413 1042,-413 1042,-449"/>
<text text-anchor="middle" x="894" y="-427.3" font-family="Times,serif" font-size="14.00" fill="#000000">MarketSummarySingleton:updateMarketSummary</text>
</g>
<!-- 139748191230664 -->
<g id="node27" class="node">
<title>139748191230664</title>
<ellipse fill="none" stroke="#000000" cx="1105" cy="-391" rx="27" ry="27"/>
<text text-anchor="middle" x="1105" y="-387.3" font-family="Times,serif" font-size="14.00" fill="#000000">intplace_MarketSummarySingleton:updateMarketSummary</text>
</g>
<!-- 139748197513592&#45;&gt;139748191230664 -->
<g id="edge2" class="edge">
<title>139748197513592&#45;&gt;139748191230664</title>
<path fill="none" stroke="#000000" d="M989.0067,-412.9893C1017.1467,-407.6547 1046.2924,-402.1294 1068.3289,-397.9519"/>
<polygon fill="#000000" stroke="#000000" points="1069.0585,-401.376 1078.2316,-396.0746 1067.7546,-394.4985 1069.0585,-401.376"/>
</g>
<!-- 139748184449656 -->
<g id="node3" class="node">
<title>139748184449656</title>
<polygon fill="none" stroke="#000000" points="1647,-676 1348,-676 1348,-640 1647,-640 1647,-676"/>
<text text-anchor="middle" x="1497.5" y="-654.3" font-family="Times,serif" font-size="14.00" fill="#000000">QuoteDataBean:QuoteDataBean [overloaded_#001]</text>
</g>
<!-- 139748197691856 -->
<g id="node37" class="node">
<title>139748197691856</title>
<ellipse fill="none" stroke="#000000" cx="1710" cy="-658" rx="27" ry="27"/>
<text text-anchor="middle" x="1710" y="-654.3" font-family="Times,serif" font-size="14.00" fill="#000000">splace_in_MarketSummarySingleton:updateMarketSummary_1</text>
</g>
<!-- 139748184449656&#45;&gt;139748197691856 -->
<g id="edge3" class="edge">
<title>139748184449656&#45;&gt;139748197691856</title>
<path fill="none" stroke="#000000" d="M1647.1055,-658C1656.3013,-658 1664.974,-658 1672.7723,-658"/>
<polygon fill="#000000" stroke="#000000" points="1672.8312,-661.5001 1682.8312,-658 1672.8312,-654.5001 1672.8312,-661.5001"/>
</g>
<!-- 139748184451560 -->
<g id="node4" class="node">
<title>139748184451560</title>
<polygon fill="none" stroke="#000000" points="1573.5,-384 1421.5,-384 1421.5,-348 1573.5,-348 1573.5,-384"/>
<text text-anchor="middle" x="1497.5" y="-362.3" font-family="Times,serif" font-size="14.00" fill="#000000">QuoteDataBean:getOpen</text>
</g>
<!-- 139748197694768 -->
<g id="node38" class="node">
<title>139748197694768</title>
<ellipse fill="none" stroke="#000000" cx="1710" cy="-366" rx="27" ry="27"/>
<text text-anchor="middle" x="1710" y="-362.3" font-family="Times,serif" font-size="14.00" fill="#000000">splace_in_MarketSummarySingleton:updateMarketSummary_2</text>
</g>
<!-- 139748184451560&#45;&gt;139748197694768 -->
<g id="edge4" class="edge">
<title>139748184451560&#45;&gt;139748197694768</title>
<path fill="none" stroke="#000000" d="M1573.6172,-366C1607.2604,-366 1645.2977,-366 1672.638,-366"/>
<polygon fill="#000000" stroke="#000000" points="1672.9249,-369.5001 1682.9249,-366 1672.9249,-362.5001 1672.9249,-369.5001"/>
</g>
<!-- 139748184449096 -->
<g id="node5" class="node">
<title>139748184449096</title>
<polygon fill="none" stroke="#000000" points="1573,-300 1422,-300 1422,-264 1573,-264 1573,-300"/>
<text text-anchor="middle" x="1497.5" y="-278.3" font-family="Times,serif" font-size="14.00" fill="#000000">QuoteDataBean:getPrice</text>
</g>
<!-- 139748205691176 -->
<g id="node39" class="node">
<title>139748205691176</title>
<ellipse fill="none" stroke="#000000" cx="1710" cy="-244" rx="27" ry="27"/>
<text text-anchor="middle" x="1710" y="-240.3" font-family="Times,serif" font-size="14.00" fill="#000000">splace_in_MarketSummarySingleton:updateMarketSummary_3</text>
</g>
<!-- 139748184449096&#45;&gt;139748205691176 -->
<g id="edge5" class="edge">
<title>139748184449096&#45;&gt;139748205691176</title>
<path fill="none" stroke="#000000" d="M1573.0179,-268.4956C1607.0792,-262.4047 1645.7508,-255.4893 1673.2981,-250.5632"/>
<polygon fill="#000000" stroke="#000000" points="1674.0507,-253.9842 1683.2784,-248.7785 1672.8184,-247.0935 1674.0507,-253.9842"/>
</g>
<!-- 139748184452792 -->
<g id="node6" class="node">
<title>139748184452792</title>
<polygon fill="none" stroke="#000000" points="1581,-456 1414,-456 1414,-420 1581,-420 1581,-456"/>
<text text-anchor="middle" x="1497.5" y="-434.3" font-family="Times,serif" font-size="14.00" fill="#000000">QuoteDataBean:getVolume</text>
</g>
<!-- 139748191220176 -->
<g id="node40" class="node">
<title>139748191220176</title>
<ellipse fill="none" stroke="#000000" cx="1710" cy="-438" rx="27" ry="27"/>
<text text-anchor="middle" x="1710" y="-434.3" font-family="Times,serif" font-size="14.00" fill="#000000">splace_in_MarketSummarySingleton:updateMarketSummary_4</text>
</g>
<!-- 139748184452792&#45;&gt;139748191220176 -->
<g id="edge6" class="edge">
<title>139748184452792&#45;&gt;139748191220176</title>
<path fill="none" stroke="#000000" d="M1581.1806,-438C1612.8878,-438 1647.4063,-438 1672.7236,-438"/>
<polygon fill="#000000" stroke="#000000" points="1672.9756,-441.5001 1682.9755,-438 1672.9755,-434.5001 1672.9756,-441.5001"/>
</g>
<!-- 139748184451168 -->
<g id="node7" class="node">
<title>139748184451168</title>
<polygon fill="none" stroke="#000000" points="1827,-98 1773,-98 1773,-62 1827,-62 1827,-98"/>
<text text-anchor="middle" x="1800" y="-76.3" font-family="Times,serif" font-size="14.00" fill="#000000">Root</text>
</g>
<!-- 139748184451056 -->
<g id="node44" class="node">
<title>139748184451056</title>
<ellipse fill="#ffa500" stroke="#000000" cx="1890" cy="-80" rx="27" ry="27"/>
</g>
<!-- 139748184451168&#45;&gt;139748184451056 -->
<g id="edge7" class="edge">
<title>139748184451168&#45;&gt;139748184451056</title>
<path fill="none" stroke="#000000" d="M1827.003,-80C1835.0277,-80 1843.9665,-80 1852.5309,-80"/>
<polygon fill="#000000" stroke="#000000" points="1852.7051,-83.5001 1862.705,-80 1852.705,-76.5001 1852.7051,-83.5001"/>
</g>
<!-- 139748184449600 -->
<g id="node8" class="node">
<title>139748184449600</title>
<polygon fill="none" stroke="#000000" points="1592.5,-566 1402.5,-566 1402.5,-530 1592.5,-530 1592.5,-566"/>
<text text-anchor="middle" x="1497.5" y="-544.3" font-family="Times,serif" font-size="14.00" fill="#000000">TradeConfig:getRunTimeMode</text>
</g>
<!-- 139748191230720 -->
<g id="node41" class="node">
<title>139748191230720</title>
<ellipse fill="none" stroke="#000000" cx="1710" cy="-548" rx="27" ry="27"/>
<text text-anchor="middle" x="1710" y="-544.3" font-family="Times,serif" font-size="14.00" fill="#000000">splace_in_MarketSummarySingleton:updateMarketSummary_5</text>
</g>
<!-- 139748184449600&#45;&gt;139748191230720 -->
<g id="edge8" class="edge">
<title>139748184449600&#45;&gt;139748191230720</title>
<path fill="none" stroke="#000000" d="M1592.5624,-548C1620.991,-548 1650.5,-548 1672.8264,-548"/>
<polygon fill="#000000" stroke="#000000" points="1672.8608,-551.5001 1682.8608,-548 1672.8607,-544.5001 1672.8608,-551.5001"/>
</g>
<!-- 139748184452624 -->
<g id="node9" class="node">
<title>139748184452624</title>
<polygon fill="none" stroke="#000000" points="710,-40 544,-40 544,-4 710,-4 710,-40"/>
<text text-anchor="middle" x="627" y="-18.3" font-family="Times,serif" font-size="14.00" fill="#000000">TradeConfigServlet:service</text>
</g>
<!-- 139748191231616 -->
<g id="node43" class="node">
<title>139748191231616</title>
<ellipse fill="none" stroke="#000000" cx="894" cy="-27" rx="27" ry="27"/>
<text text-anchor="middle" x="894" y="-23.3" font-family="Times,serif" font-size="14.00" fill="#000000">splace_in_Root_1</text>
</g>
<!-- 139748184452624&#45;&gt;139748191231616 -->
<g id="edge9" class="edge">
<title>139748184452624&#45;&gt;139748191231616</title>
<path fill="none" stroke="#000000" d="M710.0169,-23.5546C759.1314,-24.4744 818.9368,-25.5943 856.7488,-26.3024"/>
<polygon fill="#000000" stroke="#000000" points="856.7395,-29.8028 866.8033,-26.4907 856.8707,-22.804 856.7395,-29.8028"/>
</g>
<!-- 139748184450496 -->
<g id="node10" class="node">
<title>139748184450496</title>
<polygon fill="none" stroke="#000000" points="508,-414 454,-414 454,-378 508,-378 508,-414"/>
<text text-anchor="middle" x="481" y="-392.3" font-family="Times,serif" font-size="14.00" fill="#000000">hid_1</text>
</g>
<!-- 139748184450776 -->
<g id="node29" class="node">
<title>139748184450776</title>
<ellipse fill="none" stroke="#000000" cx="627" cy="-462" rx="27" ry="27"/>
<text text-anchor="middle" x="627" y="-458.3" font-family="Times,serif" font-size="14.00" fill="#000000">pre_MarketSummarySingleton:updateMarketSummary</text>
</g>
<!-- 139748184450496&#45;&gt;139748184450776 -->
<g id="edge10" class="edge">
<title>139748184450496&#45;&gt;139748184450776</title>
<path fill="none" stroke="#000000" d="M508.1193,-408.2594C531.9575,-419.0356 566.7728,-434.774 592.5713,-446.4363"/>
<polygon fill="#000000" stroke="#000000" points="591.4217,-449.7576 601.9756,-450.6876 594.3052,-443.3791 591.4217,-449.7576"/>
</g>
<!-- 139748191228368 -->
<g id="node11" class="node">
<title>139748191228368</title>
<polygon fill="none" stroke="#000000" points="1222,-176 1168,-176 1168,-140 1222,-140 1222,-176"/>
<text text-anchor="middle" x="1195" y="-154.3" font-family="Times,serif" font-size="14.00" fill="#000000">hid_10</text>
</g>
<!-- 139748191230776 -->
<g id="node28" class="node">
<title>139748191230776</title>
<ellipse fill="none" stroke="#000000" cx="1285" cy="-112" rx="27" ry="27"/>
<text text-anchor="middle" x="1285" y="-108.3" font-family="Times,serif" font-size="14.00" fill="#000000">pre_MarketSummarySingleton:setMarketSummaryDataBean</text>
</g>
<!-- 139748191228368&#45;&gt;139748191230776 -->
<g id="edge11" class="edge">
<title>139748191228368&#45;&gt;139748191230776</title>
<path fill="none" stroke="#000000" d="M1222.003,-144.1985C1231.3415,-139.4254 1241.9181,-134.0196 1251.7017,-129.0191"/>
<polygon fill="#000000" stroke="#000000" points="1253.4611,-132.0506 1260.7725,-124.3829 1250.2753,-125.8176 1253.4611,-132.0506"/>
</g>
<!-- 139748191229264 -->
<g id="node12" class="node">
<title>139748191229264</title>
<polygon fill="none" stroke="#000000" points="1222,-672 1168,-672 1168,-636 1222,-636 1222,-672"/>
<text text-anchor="middle" x="1195" y="-650.3" font-family="Times,serif" font-size="14.00" fill="#000000">hid_11</text>
</g>
<!-- 139748191229096 -->
<g id="node30" class="node">
<title>139748191229096</title>
<ellipse fill="none" stroke="#000000" cx="1285" cy="-658" rx="27" ry="27"/>
<text text-anchor="middle" x="1285" y="-654.3" font-family="Times,serif" font-size="14.00" fill="#000000">pre_QuoteDataBean:QuoteDataBean [overloaded_#001]</text>
</g>
<!-- 139748191229264&#45;&gt;139748191229096 -->
<g id="edge12" class="edge">
<title>139748191229264&#45;&gt;139748191229096</title>
<path fill="none" stroke="#000000" d="M1222.003,-655.2001C1230.1013,-655.5601 1239.1306,-655.9614 1247.7665,-656.3452"/>
<polygon fill="#000000" stroke="#000000" points="1247.8705,-659.8532 1258.0161,-656.8007 1248.1814,-652.8601 1247.8705,-659.8532"/>
</g>
<!-- 139748191228200 -->
<g id="node13" class="node">
<title>139748191228200</title>
<polygon fill="none" stroke="#000000" points="1222,-393 1168,-393 1168,-357 1222,-357 1222,-393"/>
<text text-anchor="middle" x="1195" y="-371.3" font-family="Times,serif" font-size="14.00" fill="#000000">hid_12</text>
</g>
<!-- 139748191231224 -->
<g id="node31" class="node">
<title>139748191231224</title>
<ellipse fill="none" stroke="#000000" cx="1285" cy="-366" rx="27" ry="27"/>
<text text-anchor="middle" x="1285" y="-362.3" font-family="Times,serif" font-size="14.00" fill="#000000">pre_QuoteDataBean:getOpen</text>
</g>
<!-- 139748191228200&#45;&gt;139748191231224 -->
<g id="edge13" class="edge">
<title>139748191228200&#45;&gt;139748191231224</title>
<path fill="none" stroke="#000000" d="M1222.003,-372.2997C1230.1903,-371.481 1239.3292,-370.5671 1248.051,-369.6949"/>
<polygon fill="#000000" stroke="#000000" points="1248.414,-373.1761 1258.0161,-368.6984 1247.7174,-366.2109 1248.414,-373.1761"/>
</g>
<!-- 139748169930344 -->
<g id="node14" class="node">
<title>139748169930344</title>
<polygon fill="none" stroke="#000000" points="1222,-337 1168,-337 1168,-301 1222,-301 1222,-337"/>
<text text-anchor="middle" x="1195" y="-315.3" font-family="Times,serif" font-size="14.00" fill="#000000">hid_13</text>
</g>
<!-- 139748191231896 -->
<g id="node32" class="node">
<title>139748191231896</title>
<ellipse fill="none" stroke="#000000" cx="1285" cy="-294" rx="27" ry="27"/>
<text text-anchor="middle" x="1285" y="-290.3" font-family="Times,serif" font-size="14.00" fill="#000000">pre_QuoteDataBean:getPrice</text>
</g>
<!-- 139748169930344&#45;&gt;139748191231896 -->
<g id="edge14" class="edge">
<title>139748169930344&#45;&gt;139748191231896</title>
<path fill="none" stroke="#000000" d="M1222.003,-311.4992C1230.505,-309.1375 1240.0332,-306.4908 1249.0549,-303.9848"/>
<polygon fill="#000000" stroke="#000000" points="1250.2453,-307.2867 1258.9437,-301.2379 1248.3718,-300.542 1250.2453,-307.2867"/>
</g>
<!-- 139748169931576 -->
<g id="node15" class="node">
<title>139748169931576</title>
<polygon fill="none" stroke="#000000" points="1222,-452 1168,-452 1168,-416 1222,-416 1222,-452"/>
<text text-anchor="middle" x="1195" y="-430.3" font-family="Times,serif" font-size="14.00" fill="#000000">hid_14</text>
</g>
<!-- 139748191231448 -->
<g id="node33" class="node">
<title>139748191231448</title>
<ellipse fill="none" stroke="#000000" cx="1285" cy="-438" rx="27" ry="27"/>
<text text-anchor="middle" x="1285" y="-434.3" font-family="Times,serif" font-size="14.00" fill="#000000">pre_QuoteDataBean:getVolume</text>
</g>
<!-- 139748169931576&#45;&gt;139748191231448 -->
<g id="edge15" class="edge">
<title>139748169931576&#45;&gt;139748191231448</title>
<path fill="none" stroke="#000000" d="M1222.003,-435.2001C1230.1013,-435.5601 1239.1306,-435.9614 1247.7665,-436.3452"/>
<polygon fill="#000000" stroke="#000000" points="1247.8705,-439.8532 1258.0161,-436.8007 1248.1814,-432.8601 1247.8705,-439.8532"/>
</g>
<!-- 139748169931128 -->
<g id="node16" class="node">
<title>139748169931128</title>
<polygon fill="none" stroke="#000000" points="1222,-279 1168,-279 1168,-243 1222,-243 1222,-279"/>
<text text-anchor="middle" x="1195" y="-257.3" font-family="Times,serif" font-size="14.00" fill="#000000">hid_15</text>
</g>
<!-- 139748191230328 -->
<g id="node42" class="node">
<title>139748191230328</title>
<ellipse fill="none" stroke="#000000" cx="1285" cy="-222" rx="27" ry="27"/>
<text text-anchor="middle" x="1285" y="-218.3" font-family="Times,serif" font-size="14.00" fill="#000000">splace_in_Root_0</text>
</g>
<!-- 139748169931128&#45;&gt;139748191230328 -->
<g id="edge16" class="edge">
<title>139748169931128&#45;&gt;139748191230328</title>
<path fill="none" stroke="#000000" d="M1222.003,-249.2987C1231.0899,-245.361 1241.3491,-240.9154 1250.9092,-236.7727"/>
<polygon fill="#000000" stroke="#000000" points="1252.3831,-239.9485 1260.167,-232.761 1249.5998,-233.5257 1252.3831,-239.9485"/>
</g>
<!-- 139748169930288 -->
<g id="node17" class="node">
<title>139748169930288</title>
<polygon fill="none" stroke="#000000" points="1222,-562 1168,-562 1168,-526 1222,-526 1222,-562"/>
<text text-anchor="middle" x="1195" y="-540.3" font-family="Times,serif" font-size="14.00" fill="#000000">hid_16</text>
</g>
<!-- 139748191231840 -->
<g id="node35" class="node">
<title>139748191231840</title>
<ellipse fill="none" stroke="#000000" cx="1285" cy="-548" rx="27" ry="27"/>
<text text-anchor="middle" x="1285" y="-544.3" font-family="Times,serif" font-size="14.00" fill="#000000">pre_TradeConfig:getRunTimeMode</text>
</g>
<!-- 139748169930288&#45;&gt;139748191231840 -->
<g id="edge17" class="edge">
<title>139748169930288&#45;&gt;139748191231840</title>
<path fill="none" stroke="#000000" d="M1222.003,-545.2001C1230.1013,-545.5601 1239.1306,-545.9614 1247.7665,-546.3452"/>
<polygon fill="#000000" stroke="#000000" points="1247.8705,-549.8532 1258.0161,-546.8007 1248.1814,-542.8601 1247.8705,-549.8532"/>
</g>
<!-- 139748197694376 -->
<g id="node18" class="node">
<title>139748197694376</title>
<polygon fill="none" stroke="#000000" points="1827,-717 1773,-717 1773,-681 1827,-681 1827,-717"/>
<text text-anchor="middle" x="1800" y="-695.3" font-family="Times,serif" font-size="14.00" fill="#000000">hid_2</text>
</g>
<!-- 139748197694376&#45;&gt;139748184450776 -->
<g id="edge18" class="edge">
<title>139748197694376&#45;&gt;139748184450776</title>
<path fill="none" stroke="#000000" d="M1772.9546,-708.1675C1761.9078,-711.6461 1748.9425,-715.3931 1737,-718 1632.0219,-740.9157 1604.9501,-751 1497.5,-751 1105,-751 1105,-751 1105,-751 939.8382,-751 878.4968,-753.6054 746,-655 691.3932,-614.3611 656.2617,-540.5637 639.2106,-496.9456"/>
<polygon fill="#000000" stroke="#000000" points="642.4798,-495.6953 635.6515,-487.5943 635.9376,-498.1853 642.4798,-495.6953"/>
</g>
<!-- 139748197693760 -->
<g id="node19" class="node">
<title>139748197693760</title>
<polygon fill="none" stroke="#000000" points="1827,-448 1773,-448 1773,-412 1827,-412 1827,-448"/>
<text text-anchor="middle" x="1800" y="-426.3" font-family="Times,serif" font-size="14.00" fill="#000000">hid_3</text>
</g>
<!-- 139748197693760&#45;&gt;139748184450776 -->
<g id="edge19" class="edge">
<title>139748197693760&#45;&gt;139748184450776</title>
<path fill="none" stroke="#000000" d="M1780.0024,-448.1248C1768.3313,-457.5767 1752.8225,-468.3243 1737,-474 1636.4918,-510.0533 1604.2789,-493 1497.5,-493 1105,-493 1105,-493 1105,-493 940.2546,-493 744.2385,-474.4359 664.006,-466.0393"/>
<polygon fill="#000000" stroke="#000000" points="664.2252,-462.543 653.9127,-464.9724 663.4893,-469.5043 664.2252,-462.543"/>
</g>
<!-- 139748197692192 -->
<g id="node20" class="node">
<title>139748197692192</title>
<polygon fill="none" stroke="#000000" points="1827,-235 1773,-235 1773,-199 1827,-199 1827,-235"/>
<text text-anchor="middle" x="1800" y="-213.3" font-family="Times,serif" font-size="14.00" fill="#000000">hid_4</text>
</g>
<!-- 139748197692192&#45;&gt;139748184450776 -->
<g id="edge20" class="edge">
<title>139748197692192&#45;&gt;139748184450776</title>
<path fill="none" stroke="#000000" d="M1772.8598,-210.5881C1692.9855,-192.7508 1452.1627,-146.3853 1258,-186 1013.6284,-235.8588 748.5695,-387.7006 658.7693,-442.2353"/>
<polygon fill="#000000" stroke="#000000" points="656.8557,-439.3028 650.1452,-447.5017 660.5039,-445.277 656.8557,-439.3028"/>
</g>
<!-- 139748191219784 -->
<g id="node21" class="node">
<title>139748191219784</title>
<polygon fill="none" stroke="#000000" points="1827,-580 1773,-580 1773,-544 1827,-544 1827,-580"/>
<text text-anchor="middle" x="1800" y="-558.3" font-family="Times,serif" font-size="14.00" fill="#000000">hid_5</text>
</g>
<!-- 139748191219784&#45;&gt;139748184450776 -->
<g id="edge21" class="edge">
<title>139748191219784&#45;&gt;139748184450776</title>
<path fill="none" stroke="#000000" d="M1772.8357,-573.2014C1761.8833,-577.2625 1749.0167,-581.4693 1737,-584 1632.5131,-606.0049 1604.2789,-603 1497.5,-603 1105,-603 1105,-603 1105,-603 931.5874,-603 736.7142,-516.5719 660.2802,-479.0485"/>
<polygon fill="#000000" stroke="#000000" points="661.6477,-475.82 651.1338,-474.5128 658.5378,-482.0912 661.6477,-475.82"/>
</g>
<!-- 139748191230104 -->
<g id="node22" class="node">
<title>139748191230104</title>
<polygon fill="none" stroke="#000000" points="1827,-635 1773,-635 1773,-599 1827,-599 1827,-635"/>
<text text-anchor="middle" x="1800" y="-613.3" font-family="Times,serif" font-size="14.00" fill="#000000">hid_6</text>
</g>
<!-- 139748191230104&#45;&gt;139748184450776 -->
<g id="edge22" class="edge">
<title>139748191230104&#45;&gt;139748184450776</title>
<path fill="none" stroke="#000000" d="M1790.7834,-635.2734C1780.4349,-653.6377 1761.7918,-681.0264 1737,-694 1642.3923,-743.5086 1604.2789,-713 1497.5,-713 1105,-713 1105,-713 1105,-713 933.7412,-713 890.9878,-664.1488 746,-573 709.5254,-550.0697 674.2793,-515.0703 651.7409,-490.5173"/>
<polygon fill="#000000" stroke="#000000" points="654.1896,-488.007 644.8843,-482.9412 648.9995,-492.7042 654.1896,-488.007"/>
</g>
<!-- 139748191231056 -->
<g id="node23" class="node">
<title>139748191231056</title>
<polygon fill="none" stroke="#000000" points="508,-84 454,-84 454,-48 508,-48 508,-84"/>
<text text-anchor="middle" x="481" y="-62.3" font-family="Times,serif" font-size="14.00" fill="#000000">hid_7</text>
</g>
<!-- 139748191231056&#45;&gt;139748184450776 -->
<g id="edge23" class="edge">
<title>139748191231056&#45;&gt;139748184450776</title>
<path fill="none" stroke="#000000" d="M487.6527,-84.0443C510.1978,-145.1941 583.9733,-345.2975 614.0555,-426.8903"/>
<polygon fill="#000000" stroke="#000000" points="610.8415,-428.2907 617.5847,-436.4626 617.4093,-425.8692 610.8415,-428.2907"/>
</g>
<!-- 139748191231784 -->
<g id="node24" class="node">
<title>139748191231784</title>
<polygon fill="none" stroke="#000000" points="1524.5,-235 1470.5,-235 1470.5,-199 1524.5,-199 1524.5,-235"/>
<text text-anchor="middle" x="1497.5" y="-213.3" font-family="Times,serif" font-size="14.00" fill="#000000">hid_8</text>
</g>
<!-- 139748184452288 -->
<g id="node34" class="node">
<title>139748184452288</title>
<ellipse fill="none" stroke="#000000" cx="1710" cy="-80" rx="27" ry="27"/>
<text text-anchor="middle" x="1710" y="-76.3" font-family="Times,serif" font-size="14.00" fill="#000000">pre_Root</text>
</g>
<!-- 139748191231784&#45;&gt;139748184452288 -->
<g id="edge24" class="edge">
<title>139748191231784&#45;&gt;139748184452288</title>
<path fill="none" stroke="#000000" d="M1524.8456,-199.3701C1564.3212,-173.92 1637.0872,-127.0073 1678.6731,-100.1966"/>
<polygon fill="#000000" stroke="#000000" points="1680.7899,-102.9963 1687.2981,-94.636 1676.9969,-97.113 1680.7899,-102.9963"/>
</g>
<!-- 139748191229992 -->
<g id="node25" class="node">
<title>139748191229992</title>
<polygon fill="none" stroke="#000000" points="1132,-63 1078,-63 1078,-27 1132,-27 1132,-63"/>
<text text-anchor="middle" x="1105" y="-41.3" font-family="Times,serif" font-size="14.00" fill="#000000">hid_9</text>
</g>
<!-- 139748191229992&#45;&gt;139748184452288 -->
<g id="edge25" class="edge">
<title>139748191229992&#45;&gt;139748184452288</title>
<path fill="none" stroke="#000000" d="M1132.1709,-46.5719C1229.509,-52.203 1560.9247,-71.3758 1672.7799,-77.8468"/>
<polygon fill="#000000" stroke="#000000" points="1672.7185,-81.349 1682.904,-78.4325 1673.1228,-74.3607 1672.7185,-81.349"/>
</g>
<!-- 139748197294544 -->
<g id="node26" class="node">
<title>139748197294544</title>
<ellipse fill="#00ff00" stroke="#000000" cx="391" cy="-39" rx="27" ry="27"/>
<text text-anchor="middle" x="391" y="-35.3" font-family="Times,serif" font-size="14.00" fill="#000000">1</text>
</g>
<!-- 139748197294544&#45;&gt;139748184452624 -->
<g id="edge41" class="edge">
<title>139748197294544&#45;&gt;139748184452624</title>
<path fill="none" stroke="#000000" d="M418.0722,-37.0499C446.3146,-35.0155 492.1898,-31.7109 533.7685,-28.7158"/>
<polygon fill="#000000" stroke="#000000" points="534.2308,-32.1917 543.9534,-27.9822 533.7278,-25.2098 534.2308,-32.1917"/>
</g>
<!-- 139748197294544&#45;&gt;139748191231056 -->
<g id="edge42" class="edge">
<title>139748197294544&#45;&gt;139748191231056</title>
<path fill="none" stroke="#000000" d="M417.0317,-46.8095C425.4955,-49.3486 435.055,-52.2165 444.1543,-54.9463"/>
<polygon fill="#000000" stroke="#000000" points="443.1898,-58.311 453.7738,-57.8321 445.2013,-51.6062 443.1898,-58.311"/>
</g>
<!-- 139748191230664&#45;&gt;139748191228368 -->
<g id="edge26" class="edge">
<title>139748191230664&#45;&gt;139748191228368</title>
<path fill="none" stroke="#000000" d="M1114.8029,-365.6214C1131.8297,-321.5408 1166.7303,-231.1872 1184.3383,-185.6019"/>
<polygon fill="#000000" stroke="#000000" points="1187.6831,-186.656 1188.0215,-176.0666 1181.1533,-184.1337 1187.6831,-186.656"/>
</g>
<!-- 139748191230664&#45;&gt;139748191229264 -->
<g id="edge27" class="edge">
<title>139748191230664&#45;&gt;139748191229264</title>
<path fill="none" stroke="#000000" d="M1113.7934,-416.6964C1130.7594,-466.2746 1167.8821,-574.7554 1185.4377,-626.0569"/>
<polygon fill="#000000" stroke="#000000" points="1182.2253,-627.4797 1188.7745,-635.8078 1188.8482,-625.2132 1182.2253,-627.4797"/>
</g>
<!-- 139748191230664&#45;&gt;139748191228200 -->
<g id="edge28" class="edge">
<title>139748191230664&#45;&gt;139748191228200</title>
<path fill="none" stroke="#000000" d="M1132.003,-386.1995C1140.1158,-384.7572 1149.1631,-383.1488 1157.8131,-381.611"/>
<polygon fill="#000000" stroke="#000000" points="1158.472,-385.0488 1167.705,-379.8524 1157.2468,-378.1569 1158.472,-385.0488"/>
</g>
<!-- 139748191230664&#45;&gt;139748169930344 -->
<g id="edge29" class="edge">
<title>139748191230664&#45;&gt;139748169930344</title>
<path fill="none" stroke="#000000" d="M1126.3287,-373.937C1137.6711,-364.8631 1151.8184,-353.5453 1164.3196,-343.5443"/>
<polygon fill="#000000" stroke="#000000" points="1166.6288,-346.1792 1172.251,-337.1992 1162.2559,-340.7131 1166.6288,-346.1792"/>
</g>
<!-- 139748191230664&#45;&gt;139748169931576 -->
<g id="edge30" class="edge">
<title>139748191230664&#45;&gt;139748169931576</title>
<path fill="none" stroke="#000000" d="M1129.5929,-402.7499C1138.5854,-407.0464 1148.9573,-412.0018 1158.7535,-416.6822"/>
<polygon fill="#000000" stroke="#000000" points="1157.3736,-419.9019 1167.9055,-421.0549 1160.3913,-413.5857 1157.3736,-419.9019"/>
</g>
<!-- 139748191230664&#45;&gt;139748169931128 -->
<g id="edge31" class="edge">
<title>139748191230664&#45;&gt;139748169931128</title>
<path fill="none" stroke="#000000" d="M1118.5682,-367.5414C1130.7316,-347.0575 1149.4665,-316.8076 1168,-292 1169.1854,-290.4134 1170.431,-288.8064 1171.7099,-287.2023"/>
<polygon fill="#000000" stroke="#000000" points="1174.5653,-289.2421 1178.2568,-279.3111 1169.178,-284.7725 1174.5653,-289.2421"/>
</g>
<!-- 139748191230664&#45;&gt;139748169930288 -->
<g id="edge32" class="edge">
<title>139748191230664&#45;&gt;139748169930288</title>
<path fill="none" stroke="#000000" d="M1118.8653,-414.5709C1135.1496,-442.2544 1162.1034,-488.0758 1179.1869,-517.1177"/>
<polygon fill="#000000" stroke="#000000" points="1176.2736,-519.0682 1184.3606,-525.913 1182.3071,-515.5191 1176.2736,-519.0682"/>
</g>
<!-- 139748191230776&#45;&gt;139748184450608 -->
<g id="edge33" class="edge">
<title>139748191230776&#45;&gt;139748184450608</title>
<path fill="none" stroke="#000000" d="M1257.8597,-112C1222.624,-112 1159.2188,-112 1105,-112 481,-112 481,-112 481,-112 381.0994,-112 270.391,-155.0534 209.8299,-182.5734"/>
<polygon fill="#000000" stroke="#000000" points="208.1686,-179.4852 200.5501,-186.8479 211.0972,-185.8431 208.1686,-179.4852"/>
</g>
<!-- 139748184450776&#45;&gt;139748197513592 -->
<g id="edge34" class="edge">
<title>139748184450776&#45;&gt;139748197513592</title>
<path fill="none" stroke="#000000" d="M654.0707,-458.857C674.3479,-456.5027 703.921,-453.0691 735.4267,-449.4111"/>
<polygon fill="#000000" stroke="#000000" points="736.1848,-452.8467 745.7144,-448.2167 735.3774,-445.8934 736.1848,-452.8467"/>
</g>
<!-- 139748191229096&#45;&gt;139748184449656 -->
<g id="edge35" class="edge">
<title>139748191229096&#45;&gt;139748184449656</title>
<path fill="none" stroke="#000000" d="M1312.3456,-658C1319.6721,-658 1328.1453,-658 1337.3531,-658"/>
<polygon fill="#000000" stroke="#000000" points="1337.6133,-661.5001 1347.6133,-658 1337.6132,-654.5001 1337.6133,-661.5001"/>
</g>
<!-- 139748191231224&#45;&gt;139748184451560 -->
<g id="edge36" class="edge">
<title>139748191231224&#45;&gt;139748184451560</title>
<path fill="none" stroke="#000000" d="M1312.3456,-366C1337.3416,-366 1375.6852,-366 1411.0087,-366"/>
<polygon fill="#000000" stroke="#000000" points="1411.3653,-369.5001 1421.3653,-366 1411.3652,-362.5001 1411.3653,-369.5001"/>
</g>
<!-- 139748191231896&#45;&gt;139748184449096 -->
<g id="edge37" class="edge">
<title>139748191231896&#45;&gt;139748184449096</title>
<path fill="none" stroke="#000000" d="M1312.3456,-292.4558C1337.4436,-291.0385 1375.9984,-288.8613 1411.4411,-286.8598"/>
<polygon fill="#000000" stroke="#000000" points="1412.0433,-290.3315 1421.83,-286.2731 1411.6486,-283.3426 1412.0433,-290.3315"/>
</g>
<!-- 139748191231448&#45;&gt;139748184452792 -->
<g id="edge38" class="edge">
<title>139748191231448&#45;&gt;139748184452792</title>
<path fill="none" stroke="#000000" d="M1312.3456,-438C1335.6089,-438 1370.4335,-438 1403.625,-438"/>
<polygon fill="#000000" stroke="#000000" points="1403.8588,-441.5001 1413.8587,-438 1403.8587,-434.5001 1403.8588,-441.5001"/>
</g>
<!-- 139748184452288&#45;&gt;139748184451168 -->
<g id="edge39" class="edge">
<title>139748184452288&#45;&gt;139748184451168</title>
<path fill="none" stroke="#000000" d="M1737.003,-80C1745.0277,-80 1753.9665,-80 1762.5309,-80"/>
<polygon fill="#000000" stroke="#000000" points="1762.7051,-83.5001 1772.705,-80 1762.705,-76.5001 1762.7051,-83.5001"/>
</g>
<!-- 139748191231840&#45;&gt;139748184449600 -->
<g id="edge40" class="edge">
<title>139748191231840&#45;&gt;139748184449600</title>
<path fill="none" stroke="#000000" d="M1312.3456,-548C1332.9913,-548 1362.7429,-548 1392.3776,-548"/>
<polygon fill="#000000" stroke="#000000" points="1392.4098,-551.5001 1402.4098,-548 1392.4097,-544.5001 1392.4098,-551.5001"/>
</g>
<!-- 139748197693704&#45;&gt;139748184450496 -->
<g id="edge43" class="edge">
<title>139748197693704&#45;&gt;139748184450496</title>
<path fill="none" stroke="#000000" d="M409.6481,-319.0985C423.4531,-333.9773 442.367,-354.3622 457.253,-370.406"/>
<polygon fill="#000000" stroke="#000000" points="454.8297,-372.9401 464.197,-377.8901 459.9611,-368.1789 454.8297,-372.9401"/>
</g>
<!-- 139748197691856&#45;&gt;139748197694376 -->
<g id="edge44" class="edge">
<title>139748197691856&#45;&gt;139748197694376</title>
<path fill="none" stroke="#000000" d="M1734.5929,-669.2034C1743.5854,-673.3 1753.9573,-678.025 1763.7535,-682.4877"/>
<polygon fill="#000000" stroke="#000000" points="1762.3543,-685.6963 1772.9055,-686.657 1765.2563,-679.3262 1762.3543,-685.6963"/>
</g>
<!-- 139748197694768&#45;&gt;139748197693760 -->
<g id="edge45" class="edge">
<title>139748197694768&#45;&gt;139748197693760</title>
<path fill="none" stroke="#000000" d="M1732.2472,-381.8202C1742.4514,-389.0765 1754.7738,-397.8391 1766.0965,-405.8908"/>
<polygon fill="#000000" stroke="#000000" points="1764.3306,-408.9298 1774.5086,-411.8728 1768.3873,-403.2251 1764.3306,-408.9298"/>
</g>
<!-- 139748205691176&#45;&gt;139748197692192 -->
<g id="edge46" class="edge">
<title>139748205691176&#45;&gt;139748197692192</title>
<path fill="none" stroke="#000000" d="M1736.0317,-236.1905C1744.4955,-233.6514 1754.055,-230.7835 1763.1543,-228.0537"/>
<polygon fill="#000000" stroke="#000000" points="1764.2013,-231.3938 1772.7738,-225.1679 1762.1898,-224.689 1764.2013,-231.3938"/>
</g>
<!-- 139748191220176&#45;&gt;139748191219784 -->
<g id="edge47" class="edge">
<title>139748191220176&#45;&gt;139748191219784</title>
<path fill="none" stroke="#000000" d="M1725.883,-459.8833C1741.2759,-481.0913 1764.6344,-513.2741 1781.0039,-535.8275"/>
<polygon fill="#000000" stroke="#000000" points="1778.1977,-537.9198 1786.9042,-543.9569 1783.8628,-533.808 1778.1977,-537.9198"/>
</g>
<!-- 139748191230720&#45;&gt;139748191230104 -->
<g id="edge48" class="edge">
<title>139748191230720&#45;&gt;139748191230104</title>
<path fill="none" stroke="#000000" d="M1731.7865,-564.703C1742.6918,-573.0637 1756.1018,-583.3447 1768.1375,-592.5721"/>
<polygon fill="#000000" stroke="#000000" points="1766.1371,-595.4487 1776.2027,-598.7554 1770.3961,-589.8934 1766.1371,-595.4487"/>
</g>
<!-- 139748191230328&#45;&gt;139748191231784 -->
<g id="edge49" class="edge">
<title>139748191230328&#45;&gt;139748191231784</title>
<path fill="none" stroke="#000000" d="M1312.3456,-221.3566C1349.9607,-220.4715 1417.8021,-218.8752 1460.0921,-217.8802"/>
<polygon fill="#000000" stroke="#000000" points="1460.3445,-221.3753 1470.2593,-217.641 1460.1797,-214.3773 1460.3445,-221.3753"/>
</g>
<!-- 139748191231616&#45;&gt;139748191229992 -->
<g id="edge50" class="edge">
<title>139748191231616&#45;&gt;139748191229992</title>
<path fill="none" stroke="#000000" d="M921.1526,-29.3163C958.5021,-32.5025 1025.8646,-38.2491 1067.8561,-41.8313"/>
<polygon fill="#000000" stroke="#000000" points="1067.6903,-45.3298 1077.9516,-42.6926 1068.2853,-38.3551 1067.6903,-45.3298"/>
</g>
</g>
</svg>
