<?xml version="1.0" encoding="UTF-8" standalone="no"?>
<!DOCTYPE svg PUBLIC "-//W3C//DTD SVG 1.1//EN"
 "http://www.w3.org/Graphics/SVG/1.1/DTD/svg11.dtd">
<!-- Generated by graphviz version 2.40.1 (20161225.0304)
 -->
<!-- Title: alpha_plus_net_1585315544.7415357 Pages: 1 -->
<svg width="862pt" height="1358pt"
 viewBox="0.00 0.00 862.00 1358.00" xmlns="http://www.w3.org/2000/svg" xmlns:xlink="http://www.w3.org/1999/xlink">
<g id="graph0" class="graph" transform="scale(1 1) rotate(0) translate(4 1354)">
<title>alpha_plus_net_1585315544.7415357</title>
<!-- 140178132273304 -->
<g id="node1" class="node">
<title>140178132273304</title>
<polygon fill="none" stroke="#000000" points="144.5,-189 28.5,-189 28.5,-153 144.5,-153 144.5,-189"/>
<text text-anchor="middle" x="86.5" y="-167.3" font-family="Times,serif" font-size="14.00" fill="#000000">AccountDataBean</text>
</g>
<!-- 140178109587408 -->
<g id="node26" class="node">
<title>140178109587408</title>
<ellipse fill="none" stroke="#000000" cx="255" cy="-315" rx="27" ry="27"/>
<text text-anchor="middle" x="255" y="-311.3" font-family="Times,serif" font-size="14.00" fill="#000000">140178109587408</text>
</g>
<!-- 140178132273304&#45;&gt;140178109587408 -->
<g id="edge23" class="edge">
<title>140178132273304&#45;&gt;140178109587408</title>
<path fill="none" stroke="#000000" d="M119.5487,-189.2275C135.9278,-201.6658 155.8262,-218.3256 173,-234 189.7129,-249.2538 192.0592,-254.9997 209,-270 215.5485,-275.7984 222.9059,-281.7761 229.7839,-287.4982"/>
<polygon fill="#000000" stroke="#000000" points="227.6641,-290.2893 237.5606,-294.0721 232.1831,-284.9434 227.6641,-290.2893"/>
</g>
<!-- 140178109585224 -->
<g id="node29" class="node">
<title>140178109585224</title>
<ellipse fill="none" stroke="#000000" cx="255" cy="-243" rx="27" ry="27"/>
<text text-anchor="middle" x="255" y="-239.3" font-family="Times,serif" font-size="14.00" fill="#000000">140178109585224</text>
</g>
<!-- 140178132273304&#45;&gt;140178109585224 -->
<g id="edge24" class="edge">
<title>140178132273304&#45;&gt;140178109585224</title>
<path fill="none" stroke="#000000" d="M144.0169,-189.1385C170.3779,-199.7683 200.6343,-213.031 222.8908,-223.8438"/>
<polygon fill="#000000" stroke="#000000" points="221.3908,-227.0067 231.9048,-228.313 224.5003,-220.7352 221.3908,-227.0067"/>
</g>
<!-- 140178857538840 -->
<g id="node32" class="node">
<title>140178857538840</title>
<ellipse fill="none" stroke="#000000" cx="255" cy="-171" rx="27" ry="27"/>
<text text-anchor="middle" x="255" y="-167.3" font-family="Times,serif" font-size="14.00" fill="#000000">140178857538840</text>
</g>
<!-- 140178132273304&#45;&gt;140178857538840 -->
<g id="edge25" class="edge">
<title>140178132273304&#45;&gt;140178857538840</title>
<path fill="none" stroke="#000000" d="M144.9602,-164.5393C169.3026,-163.9769 196.8237,-164.2345 218.2537,-165.3123"/>
<polygon fill="#000000" stroke="#000000" points="218.0535,-168.8065 228.244,-165.9073 218.4697,-161.8189 218.0535,-168.8065"/>
</g>
<!-- 140178109584552 -->
<g id="node35" class="node">
<title>140178109584552</title>
<ellipse fill="none" stroke="#000000" cx="255" cy="-99" rx="27" ry="27"/>
<text text-anchor="middle" x="255" y="-95.3" font-family="Times,serif" font-size="14.00" fill="#000000">140178109584552</text>
</g>
<!-- 140178132273304&#45;&gt;140178109584552 -->
<g id="edge26" class="edge">
<title>140178132273304&#45;&gt;140178109584552</title>
<path fill="none" stroke="#000000" d="M116.6244,-152.812C145.3245,-138.754 188.5567,-120.1704 219.0464,-108.7156"/>
<polygon fill="#000000" stroke="#000000" points="220.28,-111.9912 228.4633,-105.2618 217.8696,-105.4193 220.28,-111.9912"/>
</g>
<!-- 140178109584720 -->
<g id="node38" class="node">
<title>140178109584720</title>
<ellipse fill="none" stroke="#000000" cx="255" cy="-27" rx="27" ry="27"/>
<text text-anchor="middle" x="255" y="-23.3" font-family="Times,serif" font-size="14.00" fill="#000000">140178109584720</text>
</g>
<!-- 140178132273304&#45;&gt;140178109584720 -->
<g id="edge27" class="edge">
<title>140178132273304&#45;&gt;140178109584720</title>
<path fill="none" stroke="#000000" d="M100.2319,-152.8179C122.649,-128.995 168.6573,-87.5214 209,-54 213.0876,-50.6036 217.4293,-47.089 221.7499,-43.7243"/>
<polygon fill="#000000" stroke="#000000" points="224.0995,-46.3355 229.96,-37.509 219.8744,-40.7543 224.0995,-46.3355"/>
</g>
<!-- 140178132273752 -->
<g id="node2" class="node">
<title>140178132273752</title>
<polygon fill="none" stroke="#000000" points="162.5,-288 10.5,-288 10.5,-252 162.5,-252 162.5,-288"/>
<text text-anchor="middle" x="86.5" y="-266.3" font-family="Times,serif" font-size="14.00" fill="#000000">AccountProfileDataBean</text>
</g>
<!-- 140178132273640 -->
<g id="node3" class="node">
<title>140178132273640</title>
<polygon fill="none" stroke="#000000" points="531.5,-301 432.5,-301 432.5,-265 531.5,-265 531.5,-301"/>
<text text-anchor="middle" x="482" y="-279.3" font-family="Times,serif" font-size="14.00" fill="#000000">ActionDecoder</text>
</g>
<!-- 140178132274592 -->
<g id="node21" class="node">
<title>140178132274592</title>
<ellipse fill="none" stroke="#000000" cx="600" cy="-346" rx="27" ry="27"/>
<text text-anchor="middle" x="600" y="-342.3" font-family="Times,serif" font-size="14.00" fill="#000000">({&#39;ActionDecoder&#39;, &#39;OrdersAlertFilter&#39;, &#39;FinancialUtils&#39;}, {&#39;Root&#39;, &#39;ActionMessage&#39;})</text>
</g>
<!-- 140178132273640&#45;&gt;140178132274592 -->
<g id="edge28" class="edge">
<title>140178132273640&#45;&gt;140178132274592</title>
<path fill="none" stroke="#000000" d="M519.7332,-301.1337C525.5459,-304.0393 531.4559,-307.0589 537,-310 547.1389,-315.3787 558.0408,-321.4887 567.8782,-327.1282"/>
<polygon fill="#000000" stroke="#000000" points="566.1506,-330.1722 576.561,-332.1406 569.6504,-324.1098 566.1506,-330.1722"/>
</g>
<!-- 140178132273696 -->
<g id="node4" class="node">
<title>140178132273696</title>
<polygon fill="none" stroke="#000000" points="764,-418 663,-418 663,-382 764,-382 764,-418"/>
<text text-anchor="middle" x="713.5" y="-396.3" font-family="Times,serif" font-size="14.00" fill="#000000">ActionMessage</text>
</g>
<!-- 140178132272688 -->
<g id="node22" class="node">
<title>140178132272688</title>
<ellipse fill="none" stroke="#000000" cx="827" cy="-283" rx="27" ry="27"/>
<text text-anchor="middle" x="827" y="-279.3" font-family="Times,serif" font-size="14.00" fill="#000000">({&#39;ActionMessage&#39;}, {&#39;ActionDecoder&#39;})</text>
</g>
<!-- 140178132273696&#45;&gt;140178132272688 -->
<g id="edge29" class="edge">
<title>140178132273696&#45;&gt;140178132272688</title>
<path fill="none" stroke="#000000" d="M752.3406,-381.8426C756.4818,-379.1602 760.466,-376.2068 764,-373 785.3611,-353.6169 783.3403,-342.5468 800,-319 801.4609,-316.9352 802.984,-314.8169 804.5304,-312.6917"/>
<polygon fill="#000000" stroke="#000000" points="807.4095,-314.6846 810.5269,-304.5588 801.7754,-310.5305 807.4095,-314.6846"/>
</g>
<!-- 140178132272632 -->
<g id="node5" class="node">
<title>140178132272632</title>
<polygon fill="none" stroke="#000000" points="528.5,-355 435.5,-355 435.5,-319 528.5,-319 528.5,-355"/>
<text text-anchor="middle" x="482" y="-333.3" font-family="Times,serif" font-size="14.00" fill="#000000">FinancialUtils</text>
</g>
<!-- 140178132272632&#45;&gt;140178132274592 -->
<g id="edge30" class="edge">
<title>140178132272632&#45;&gt;140178132274592</title>
<path fill="none" stroke="#000000" d="M528.6367,-340.557C540.0602,-341.4283 552.1311,-342.349 563.0306,-343.1803"/>
<polygon fill="#000000" stroke="#000000" points="562.8252,-346.6747 573.0625,-343.9454 563.3576,-339.695 562.8252,-346.6747"/>
</g>
<!-- 140178132275152 -->
<g id="node6" class="node">
<title>140178132275152</title>
<polygon fill="none" stroke="#000000" points="113.5,-459 59.5,-459 59.5,-423 113.5,-423 113.5,-459"/>
<text text-anchor="middle" x="86.5" y="-437.3" font-family="Times,serif" font-size="14.00" fill="#000000">Log</text>
</g>
<!-- 140178132271568 -->
<g id="node7" class="node">
<title>140178132271568</title>
<polygon fill="none" stroke="#000000" points="168.5,-513 4.5,-513 4.5,-477 168.5,-477 168.5,-513"/>
<text text-anchor="middle" x="86.5" y="-491.3" font-family="Times,serif" font-size="14.00" fill="#000000">MarketSummaryDataBean</text>
</g>
<!-- 140178132272576 -->
<g id="node8" class="node">
<title>140178132272576</title>
<polygon fill="none" stroke="#000000" points="167.5,-567 5.5,-567 5.5,-531 167.5,-531 167.5,-567"/>
<text text-anchor="middle" x="86.5" y="-545.3" font-family="Times,serif" font-size="14.00" fill="#000000">MarketSummarySingleton</text>
</g>
<!-- 140178132272352 -->
<g id="node9" class="node">
<title>140178132272352</title>
<polygon fill="none" stroke="#000000" points="173,-621 0,-621 0,-585 173,-585 173,-621"/>
<text text-anchor="middle" x="86.5" y="-599.3" font-family="Times,serif" font-size="14.00" fill="#000000">MarketSummaryWebSocket</text>
</g>
<!-- 140178132273080 -->
<g id="node10" class="node">
<title>140178132273080</title>
<polygon fill="none" stroke="#000000" points="537,-409 427,-409 427,-373 537,-373 537,-409"/>
<text text-anchor="middle" x="482" y="-387.3" font-family="Times,serif" font-size="14.00" fill="#000000">OrdersAlertFilter</text>
</g>
<!-- 140178132273080&#45;&gt;140178132274592 -->
<g id="edge31" class="edge">
<title>140178132273080&#45;&gt;140178132274592</title>
<path fill="none" stroke="#000000" d="M529.3152,-372.9561C541.3163,-368.3794 553.9894,-363.5464 565.2392,-359.2562"/>
<polygon fill="#000000" stroke="#000000" points="566.6099,-362.4794 574.7064,-355.6459 564.1156,-355.9389 566.6099,-362.4794"/>
</g>
<!-- 140178132272968 -->
<g id="node11" class="node">
<title>140178132272968</title>
<polygon fill="none" stroke="#000000" points="138,-675 35,-675 35,-639 138,-639 138,-675"/>
<text text-anchor="middle" x="86.5" y="-653.3" font-family="Times,serif" font-size="14.00" fill="#000000">QuoteDataBean</text>
</g>
<!-- 140178132272520 -->
<g id="node12" class="node">
<title>140178132272520</title>
<polygon fill="none" stroke="#000000" points="160,-729 13,-729 13,-693 160,-693 160,-729"/>
<text text-anchor="middle" x="86.5" y="-707.3" font-family="Times,serif" font-size="14.00" fill="#000000">RecentStockChangeList</text>
</g>
<!-- 140178132273584 -->
<g id="node13" class="node">
<title>140178132273584</title>
<polygon fill="none" stroke="#000000" points="740.5,-364 686.5,-364 686.5,-328 740.5,-328 740.5,-364"/>
<text text-anchor="middle" x="713.5" y="-342.3" font-family="Times,serif" font-size="14.00" fill="#000000">Root</text>
</g>
<!-- 140178132272912 -->
<g id="node25" class="node">
<title>140178132272912</title>
<ellipse fill="#ffa500" stroke="#000000" cx="827" cy="-355" rx="27" ry="27"/>
</g>
<!-- 140178132273584&#45;&gt;140178132272912 -->
<g id="edge32" class="edge">
<title>140178132273584&#45;&gt;140178132272912</title>
<path fill="none" stroke="#000000" d="M740.6861,-348.1557C755.4267,-349.3246 773.8593,-350.7862 789.9016,-352.0583"/>
<polygon fill="#000000" stroke="#000000" points="789.7904,-355.5604 800.0358,-352.8619 790.3437,-348.5823 789.7904,-355.5604"/>
</g>
<!-- 140178132275096 -->
<g id="node14" class="node">
<title>140178132275096</title>
<polygon fill="none" stroke="#000000" points="129,-783 44,-783 44,-747 129,-747 129,-783"/>
<text text-anchor="middle" x="86.5" y="-761.3" font-family="Times,serif" font-size="14.00" fill="#000000">TradeAction</text>
</g>
<!-- 140178132275040 -->
<g id="node15" class="node">
<title>140178132275040</title>
<polygon fill="none" stroke="#000000" points="141.5,-837 31.5,-837 31.5,-801 141.5,-801 141.5,-837"/>
<text text-anchor="middle" x="86.5" y="-815.3" font-family="Times,serif" font-size="14.00" fill="#000000">TradeAppServlet</text>
</g>
<!-- 140178132271680 -->
<g id="node27" class="node">
<title>140178132271680</title>
<ellipse fill="none" stroke="#000000" cx="255" cy="-963" rx="27" ry="27"/>
<text text-anchor="middle" x="255" y="-959.3" font-family="Times,serif" font-size="14.00" fill="#000000">140178132271680</text>
</g>
<!-- 140178132275040&#45;&gt;140178132271680 -->
<g id="edge33" class="edge">
<title>140178132275040&#45;&gt;140178132271680</title>
<path fill="none" stroke="#000000" d="M116.1624,-837.06C132.8768,-850.649 154.1262,-869.3205 173,-886 189.041,-900.176 192.5628,-904.2854 209,-918 215.716,-923.6035 223.128,-929.5176 230.0048,-935.2412"/>
<polygon fill="#000000" stroke="#000000" points="227.8749,-938.0245 237.7579,-941.8426 232.413,-932.6947 227.8749,-938.0245"/>
</g>
<!-- 140178132272184 -->
<g id="node30" class="node">
<title>140178132272184</title>
<ellipse fill="none" stroke="#000000" cx="255" cy="-891" rx="27" ry="27"/>
<text text-anchor="middle" x="255" y="-887.3" font-family="Times,serif" font-size="14.00" fill="#000000">140178132272184</text>
</g>
<!-- 140178132275040&#45;&gt;140178132272184 -->
<g id="edge34" class="edge">
<title>140178132275040&#45;&gt;140178132272184</title>
<path fill="none" stroke="#000000" d="M141.6732,-836.1963C168.6675,-847.0158 200.2012,-860.8095 223.1416,-871.9657"/>
<polygon fill="#000000" stroke="#000000" points="221.5865,-875.1012 232.1,-876.4121 224.6987,-868.8311 221.5865,-875.1012"/>
</g>
<!-- 140178132272016 -->
<g id="node33" class="node">
<title>140178132272016</title>
<ellipse fill="none" stroke="#000000" cx="255" cy="-819" rx="27" ry="27"/>
<text text-anchor="middle" x="255" y="-815.3" font-family="Times,serif" font-size="14.00" fill="#000000">140178132272016</text>
</g>
<!-- 140178132275040&#45;&gt;140178132272016 -->
<g id="edge35" class="edge">
<title>140178132275040&#45;&gt;140178132272016</title>
<path fill="none" stroke="#000000" d="M141.6732,-812.6208C166.6962,-811.9579 195.6198,-812.1839 217.9834,-813.2987"/>
<polygon fill="#000000" stroke="#000000" points="217.8844,-816.7989 228.0735,-813.8953 218.2976,-809.8111 217.8844,-816.7989"/>
</g>
<!-- 140178132271848 -->
<g id="node36" class="node">
<title>140178132271848</title>
<ellipse fill="none" stroke="#000000" cx="255" cy="-747" rx="27" ry="27"/>
<text text-anchor="middle" x="255" y="-743.3" font-family="Times,serif" font-size="14.00" fill="#000000">140178132271848</text>
</g>
<!-- 140178132275040&#45;&gt;140178132271848 -->
<g id="edge36" class="edge">
<title>140178132275040&#45;&gt;140178132271848</title>
<path fill="none" stroke="#000000" d="M123.2748,-800.9954C138.8661,-795.7122 157.076,-789.7745 173,-783 188.9352,-776.2208 205.8234,-767.2808 220.1056,-759.8073"/>
<polygon fill="#000000" stroke="#000000" points="221.8184,-762.8617 229.0784,-755.1453 218.591,-756.65 221.8184,-762.8617"/>
</g>
<!-- 140178132271624 -->
<g id="node39" class="node">
<title>140178132271624</title>
<ellipse fill="none" stroke="#000000" cx="255" cy="-675" rx="27" ry="27"/>
<text text-anchor="middle" x="255" y="-671.3" font-family="Times,serif" font-size="14.00" fill="#000000">140178132271624</text>
</g>
<!-- 140178132275040&#45;&gt;140178132271624 -->
<g id="edge37" class="edge">
<title>140178132275040&#45;&gt;140178132271624</title>
<path fill="none" stroke="#000000" d="M140.9623,-800.9197C152.5236,-796.7087 163.9536,-791.0562 173,-783 202.4204,-756.8 184.7687,-733.0619 209,-702 212.5086,-697.5023 216.6962,-693.2431 221.0951,-689.4302"/>
<polygon fill="#000000" stroke="#000000" points="223.4498,-692.0308 229.14,-683.0937 219.1185,-686.5317 223.4498,-692.0308"/>
</g>
<!-- 140178132273136 -->
<g id="node16" class="node">
<title>140178132273136</title>
<polygon fill="none" stroke="#000000" points="129.5,-940 43.5,-940 43.5,-904 129.5,-904 129.5,-940"/>
<text text-anchor="middle" x="86.5" y="-918.3" font-family="Times,serif" font-size="14.00" fill="#000000">TradeConfig</text>
</g>
<!-- 140178132273808 -->
<g id="node17" class="node">
<title>140178132273808</title>
<polygon fill="none" stroke="#000000" points="140.5,-1093 32.5,-1093 32.5,-1057 140.5,-1057 140.5,-1093"/>
<text text-anchor="middle" x="86.5" y="-1071.3" font-family="Times,serif" font-size="14.00" fill="#000000">TradeSLSBBean</text>
</g>
<!-- 140178132272744 -->
<g id="node18" class="node">
<title>140178132272744</title>
<polygon fill="none" stroke="#000000" points="148,-1197 25,-1197 25,-1161 148,-1161 148,-1197"/>
<text text-anchor="middle" x="86.5" y="-1175.3" font-family="Times,serif" font-size="14.00" fill="#000000">TradeServletAction</text>
</g>
<!-- 140178109585840 -->
<g id="node28" class="node">
<title>140178109585840</title>
<ellipse fill="none" stroke="#000000" cx="255" cy="-1323" rx="27" ry="27"/>
<text text-anchor="middle" x="255" y="-1319.3" font-family="Times,serif" font-size="14.00" fill="#000000">140178109585840</text>
</g>
<!-- 140178132272744&#45;&gt;140178109585840 -->
<g id="edge38" class="edge">
<title>140178132272744&#45;&gt;140178109585840</title>
<path fill="none" stroke="#000000" d="M114.3139,-1197.2379C138.8825,-1217.548 175.8535,-1250.4581 209,-1278 215.7273,-1283.5899 223.1431,-1289.4995 230.0198,-1295.2232"/>
<polygon fill="#000000" stroke="#000000" points="227.8893,-1298.006 237.7713,-1301.8265 232.4286,-1292.6773 227.8893,-1298.006"/>
</g>
<!-- 140178109584048 -->
<g id="node31" class="node">
<title>140178109584048</title>
<ellipse fill="none" stroke="#000000" cx="255" cy="-1251" rx="27" ry="27"/>
<text text-anchor="middle" x="255" y="-1247.3" font-family="Times,serif" font-size="14.00" fill="#000000">140178109584048</text>
</g>
<!-- 140178132272744&#45;&gt;140178109584048 -->
<g id="edge39" class="edge">
<title>140178132272744&#45;&gt;140178109584048</title>
<path fill="none" stroke="#000000" d="M144.0169,-1197.1385C170.3779,-1207.7683 200.6343,-1221.031 222.8908,-1231.8438"/>
<polygon fill="#000000" stroke="#000000" points="221.3908,-1235.0067 231.9048,-1236.313 224.5003,-1228.7352 221.3908,-1235.0067"/>
</g>
<!-- 140178109583544 -->
<g id="node34" class="node">
<title>140178109583544</title>
<ellipse fill="none" stroke="#000000" cx="255" cy="-1179" rx="27" ry="27"/>
<text text-anchor="middle" x="255" y="-1175.3" font-family="Times,serif" font-size="14.00" fill="#000000">140178109583544</text>
</g>
<!-- 140178132272744&#45;&gt;140178109583544 -->
<g id="edge40" class="edge">
<title>140178132272744&#45;&gt;140178109583544</title>
<path fill="none" stroke="#000000" d="M148.2864,-1172.4679C171.8015,-1172.0015 197.8353,-1172.2838 218.3021,-1173.3147"/>
<polygon fill="#000000" stroke="#000000" points="218.2634,-1176.8186 228.4546,-1173.9221 218.6815,-1169.8311 218.2634,-1176.8186"/>
</g>
<!-- 140178109584272 -->
<g id="node37" class="node">
<title>140178109584272</title>
<ellipse fill="none" stroke="#000000" cx="255" cy="-1107" rx="27" ry="27"/>
<text text-anchor="middle" x="255" y="-1103.3" font-family="Times,serif" font-size="14.00" fill="#000000">140178109584272</text>
</g>
<!-- 140178132272744&#45;&gt;140178109584272 -->
<g id="edge41" class="edge">
<title>140178132272744&#45;&gt;140178109584272</title>
<path fill="none" stroke="#000000" d="M116.6244,-1160.812C145.3245,-1146.754 188.5567,-1128.1704 219.0464,-1116.7156"/>
<polygon fill="#000000" stroke="#000000" points="220.28,-1119.9912 228.4633,-1113.2618 217.8696,-1113.4193 220.28,-1119.9912"/>
</g>
<!-- 140178109585280 -->
<g id="node40" class="node">
<title>140178109585280</title>
<ellipse fill="none" stroke="#000000" cx="255" cy="-1035" rx="27" ry="27"/>
<text text-anchor="middle" x="255" y="-1031.3" font-family="Times,serif" font-size="14.00" fill="#000000">140178109585280</text>
</g>
<!-- 140178132272744&#45;&gt;140178109585280 -->
<g id="edge42" class="edge">
<title>140178132272744&#45;&gt;140178109585280</title>
<path fill="none" stroke="#000000" d="M101.2818,-1160.6305C129.0167,-1131.9906 187.9564,-1079.4855 209,-1062 213.0876,-1058.6036 217.4293,-1055.089 221.7499,-1051.7243"/>
<polygon fill="#000000" stroke="#000000" points="224.0995,-1054.3355 229.96,-1045.509 219.8744,-1048.7543 224.0995,-1054.3355"/>
</g>
<!-- 140178132273024 -->
<g id="node19" class="node">
<title>140178132273024</title>
<polygon fill="none" stroke="#000000" points="301,-396 209,-396 209,-360 301,-360 301,-396"/>
<text text-anchor="middle" x="255" y="-374.3" font-family="Times,serif" font-size="14.00" fill="#000000">artificial_start</text>
</g>
<!-- 140178132274200 -->
<g id="node23" class="node">
<title>140178132274200</title>
<ellipse fill="none" stroke="#000000" cx="364" cy="-342" rx="27" ry="27"/>
<text text-anchor="middle" x="364" y="-338.3" font-family="Times,serif" font-size="14.00" fill="#000000">({&#39;artificial_start&#39;}, {&#39;OrdersAlertFilter&#39;, &#39;ActionDecoder&#39;})</text>
</g>
<!-- 140178132273024&#45;&gt;140178132274200 -->
<g id="edge43" class="edge">
<title>140178132273024&#45;&gt;140178132274200</title>
<path fill="none" stroke="#000000" d="M301.2258,-362.7328C310.4162,-359.6974 319.9279,-356.5559 328.6827,-353.6644"/>
<polygon fill="#000000" stroke="#000000" points="329.7901,-356.9847 338.1879,-350.5251 327.5948,-350.3379 329.7901,-356.9847"/>
</g>
<!-- 140178132274536 -->
<g id="node24" class="node">
<title>140178132274536</title>
<ellipse fill="none" stroke="#000000" cx="364" cy="-414" rx="27" ry="27"/>
<text text-anchor="middle" x="364" y="-410.3" font-family="Times,serif" font-size="14.00" fill="#000000">({&#39;artificial_start&#39;}, {&#39;OrdersAlertFilter&#39;, &#39;ActionMessage&#39;})</text>
</g>
<!-- 140178132273024&#45;&gt;140178132274536 -->
<g id="edge44" class="edge">
<title>140178132273024&#45;&gt;140178132274536</title>
<path fill="none" stroke="#000000" d="M301.2258,-393.2672C310.4162,-396.3026 319.9279,-399.4441 328.6827,-402.3356"/>
<polygon fill="#000000" stroke="#000000" points="327.5948,-405.6621 338.1879,-405.4749 329.7901,-399.0153 327.5948,-405.6621"/>
</g>
<!-- 140178132272296 -->
<g id="node20" class="node">
<title>140178132272296</title>
<ellipse fill="#00ff00" stroke="#000000" cx="86.5" cy="-378" rx="27" ry="27"/>
<text text-anchor="middle" x="86.5" y="-374.3" font-family="Times,serif" font-size="14.00" fill="#000000">1</text>
</g>
<!-- 140178132272296&#45;&gt;140178132273024 -->
<g id="edge45" class="edge">
<title>140178132272296&#45;&gt;140178132273024</title>
<path fill="none" stroke="#000000" d="M113.5724,-378C136.4402,-378 169.9491,-378 198.6104,-378"/>
<polygon fill="#000000" stroke="#000000" points="198.9219,-381.5001 208.9218,-378 198.9218,-374.5001 198.9219,-381.5001"/>
</g>
<!-- 140178132274592&#45;&gt;140178132273696 -->
<g id="edge2" class="edge">
<title>140178132274592&#45;&gt;140178132273696</title>
<path fill="none" stroke="#000000" d="M624.6278,-357.7172C636.8218,-363.5188 651.9662,-370.724 666.2782,-377.5332"/>
<polygon fill="#000000" stroke="#000000" points="664.9899,-380.7962 675.5237,-381.932 667.9973,-374.4751 664.9899,-380.7962"/>
</g>
<!-- 140178132274592&#45;&gt;140178132273584 -->
<g id="edge3" class="edge">
<title>140178132274592&#45;&gt;140178132273584</title>
<path fill="none" stroke="#000000" d="M627.1861,-346C641.8191,-346 660.0904,-346 676.05,-346"/>
<polygon fill="#000000" stroke="#000000" points="676.1424,-349.5001 686.1424,-346 676.1423,-342.5001 676.1424,-349.5001"/>
</g>
<!-- 140178132272688&#45;&gt;140178132273640 -->
<g id="edge7" class="edge">
<title>140178132272688&#45;&gt;140178132273640</title>
<path fill="none" stroke="#000000" d="M799.7867,-283C744.4746,-283 617.7696,-283 542.1204,-283"/>
<polygon fill="#000000" stroke="#000000" points="541.7975,-279.5001 531.7975,-283 541.7975,-286.5001 541.7975,-279.5001"/>
</g>
<!-- 140178132274200&#45;&gt;140178132273640 -->
<g id="edge14" class="edge">
<title>140178132274200&#45;&gt;140178132273640</title>
<path fill="none" stroke="#000000" d="M388.1935,-329.6142C399.8963,-323.6478 414.1591,-316.4127 427,-310 429.9025,-308.5505 432.8941,-307.0631 435.9124,-305.5675"/>
<polygon fill="#000000" stroke="#000000" points="437.5694,-308.6528 444.9847,-301.0854 434.4688,-302.3769 437.5694,-308.6528"/>
</g>
<!-- 140178132274200&#45;&gt;140178132273080 -->
<g id="edge15" class="edge">
<title>140178132274200&#45;&gt;140178132273080</title>
<path fill="none" stroke="#000000" d="M389.0248,-352.3916C400.6778,-357.2306 415.0133,-363.1835 428.9073,-368.953"/>
<polygon fill="#000000" stroke="#000000" points="427.8397,-372.2994 438.4174,-372.9021 430.5242,-365.8346 427.8397,-372.2994"/>
</g>
<!-- 140178132274536&#45;&gt;140178132273696 -->
<g id="edge19" class="edge">
<title>140178132274536&#45;&gt;140178132273696</title>
<path fill="none" stroke="#000000" d="M390.9606,-416.0887C402.1085,-416.8543 415.1697,-417.6248 427,-418 475.8643,-419.5497 488.1742,-420.4833 537,-418 575.4711,-416.0434 618.477,-411.7026 652.4055,-407.7742"/>
<polygon fill="#000000" stroke="#000000" points="653.1061,-411.216 662.6286,-406.5713 652.288,-404.2639 653.1061,-411.216"/>
</g>
<!-- 140178132274536&#45;&gt;140178132273080 -->
<g id="edge20" class="edge">
<title>140178132274536&#45;&gt;140178132273080</title>
<path fill="none" stroke="#000000" d="M390.776,-408.7809C398.6659,-407.2431 407.6648,-405.4891 416.8649,-403.6958"/>
<polygon fill="#000000" stroke="#000000" points="417.7383,-407.0915 426.884,-401.743 416.399,-400.2208 417.7383,-407.0915"/>
</g>
<!-- 140178109587408&#45;&gt;140178132273304 -->
<g id="edge1" class="edge">
<title>140178109587408&#45;&gt;140178132273304</title>
<path fill="none" stroke="#000000" d="M229.7241,-304.766C222.8633,-299.7414 215.5295,-293.7816 209,-288 192.0592,-272.9997 189.7129,-267.2538 173,-252 151.9747,-232.8104 126.8657,-212.1438 109.1304,-196.2373"/>
<polygon fill="#000000" stroke="#000000" points="111.2799,-193.4599 101.5417,-189.2863 106.5518,-198.6217 111.2799,-193.4599"/>
</g>
<!-- 140178132271680&#45;&gt;140178132275040 -->
<g id="edge4" class="edge">
<title>140178132271680&#45;&gt;140178132275040</title>
<path fill="none" stroke="#000000" d="M229.945,-952.509C223.0851,-947.4834 215.6965,-941.5873 209,-936 192.5628,-922.2854 189.041,-918.176 173,-904 150.6575,-884.2551 124.9861,-861.7188 107.4495,-844.5666"/>
<polygon fill="#000000" stroke="#000000" points="109.5429,-841.7087 100.0058,-837.0941 104.5836,-846.6489 109.5429,-841.7087"/>
</g>
<!-- 140178109585840&#45;&gt;140178132272744 -->
<g id="edge5" class="edge">
<title>140178109585840&#45;&gt;140178132272744</title>
<path fill="none" stroke="#000000" d="M229.96,-1312.491C223.1001,-1307.4653 215.7078,-1301.5737 209,-1296 172.597,-1265.7521 131.5809,-1229.0295 107.4471,-1204.6426"/>
<polygon fill="#000000" stroke="#000000" points="109.6997,-1201.9372 100.2319,-1197.1821 104.6679,-1206.8035 109.6997,-1201.9372"/>
</g>
<!-- 140178109585224&#45;&gt;140178132273304 -->
<g id="edge6" class="edge">
<title>140178109585224&#45;&gt;140178132273304</title>
<path fill="none" stroke="#000000" d="M228.4633,-236.7382C200.9326,-226.9206 157.5713,-208.6402 126.0099,-193.7032"/>
<polygon fill="#000000" stroke="#000000" points="127.1532,-190.3693 116.6244,-189.188 124.1185,-196.6773 127.1532,-190.3693"/>
</g>
<!-- 140178132272184&#45;&gt;140178132275040 -->
<g id="edge8" class="edge">
<title>140178132272184&#45;&gt;140178132275040</title>
<path fill="none" stroke="#000000" d="M228.4633,-884.7382C200.9326,-874.9206 157.5713,-856.6402 126.0099,-841.7032"/>
<polygon fill="#000000" stroke="#000000" points="127.1532,-838.3693 116.6244,-837.188 124.1185,-844.6773 127.1532,-838.3693"/>
</g>
<!-- 140178109584048&#45;&gt;140178132272744 -->
<g id="edge9" class="edge">
<title>140178109584048&#45;&gt;140178132272744</title>
<path fill="none" stroke="#000000" d="M228.4633,-1244.7382C200.9326,-1234.9206 157.5713,-1216.6402 126.0099,-1201.7032"/>
<polygon fill="#000000" stroke="#000000" points="127.1532,-1198.3693 116.6244,-1197.188 124.1185,-1204.6773 127.1532,-1198.3693"/>
</g>
<!-- 140178857538840&#45;&gt;140178132273304 -->
<g id="edge10" class="edge">
<title>140178857538840&#45;&gt;140178132273304</title>
<path fill="none" stroke="#000000" d="M228.244,-176.0927C208.5324,-177.4756 180.792,-177.9931 155.0723,-177.645"/>
<polygon fill="#000000" stroke="#000000" points="155.0224,-174.1436 144.9602,-177.4607 154.8947,-181.1425 155.0224,-174.1436"/>
</g>
<!-- 140178132272016&#45;&gt;140178132275040 -->
<g id="edge11" class="edge">
<title>140178132272016&#45;&gt;140178132275040</title>
<path fill="none" stroke="#000000" d="M228.0735,-824.1047C207.5064,-825.539 178.2706,-826.0356 151.7017,-825.5943"/>
<polygon fill="#000000" stroke="#000000" points="151.746,-822.0945 141.6732,-825.3792 151.5958,-829.0929 151.746,-822.0945"/>
</g>
<!-- 140178109583544&#45;&gt;140178132272744 -->
<g id="edge12" class="edge">
<title>140178109583544&#45;&gt;140178132272744</title>
<path fill="none" stroke="#000000" d="M228.4546,-1184.0779C209.5874,-1185.4114 183.2884,-1185.9473 158.4476,-1185.6856"/>
<polygon fill="#000000" stroke="#000000" points="158.3382,-1182.1837 148.2864,-1185.5321 158.2323,-1189.1829 158.3382,-1182.1837"/>
</g>
<!-- 140178109584552&#45;&gt;140178132273304 -->
<g id="edge13" class="edge">
<title>140178109584552&#45;&gt;140178132273304</title>
<path fill="none" stroke="#000000" d="M231.9048,-113.687C211.6484,-123.9641 181.1661,-137.5898 153.335,-149.0616"/>
<polygon fill="#000000" stroke="#000000" points="151.9549,-145.8445 144.0169,-152.8615 154.5982,-152.3263 151.9549,-145.8445"/>
</g>
<!-- 140178132271848&#45;&gt;140178132275040 -->
<g id="edge16" class="edge">
<title>140178132271848&#45;&gt;140178132275040</title>
<path fill="none" stroke="#000000" d="M235.6682,-766.2738C219.3904,-777.8377 195.2649,-791.5279 173,-801 166.1328,-803.9215 158.8404,-806.6874 151.5163,-809.1977"/>
<polygon fill="#000000" stroke="#000000" points="149.9658,-806.0221 141.5461,-812.4531 152.1386,-812.6763 149.9658,-806.0221"/>
</g>
<!-- 140178109584272&#45;&gt;140178132272744 -->
<g id="edge17" class="edge">
<title>140178109584272&#45;&gt;140178132272744</title>
<path fill="none" stroke="#000000" d="M231.9048,-1121.687C211.6484,-1131.9641 181.1661,-1145.5898 153.335,-1157.0616"/>
<polygon fill="#000000" stroke="#000000" points="151.9549,-1153.8445 144.0169,-1160.8615 154.5982,-1160.3263 151.9549,-1153.8445"/>
</g>
<!-- 140178109584720&#45;&gt;140178132273304 -->
<g id="edge18" class="edge">
<title>140178109584720&#45;&gt;140178132273304</title>
<path fill="none" stroke="#000000" d="M237.7713,-48.1735C229.0522,-55.8266 218.3598,-64.2228 209,-72 179.22,-96.7447 146.3528,-125.8225 122.1665,-146.2028"/>
<polygon fill="#000000" stroke="#000000" points="119.7449,-143.6651 114.3139,-152.7621 124.2325,-149.0375 119.7449,-143.6651"/>
</g>
<!-- 140178132271624&#45;&gt;140178132275040 -->
<g id="edge21" class="edge">
<title>140178132271624&#45;&gt;140178132275040</title>
<path fill="none" stroke="#000000" d="M236.184,-694.6344C227.0603,-701.8951 216.4851,-710.405 209,-720 184.7687,-751.0619 202.4204,-774.8 173,-801 166.6668,-806.64 159.1653,-811.1019 151.2684,-814.5478"/>
<polygon fill="#000000" stroke="#000000" points="149.9585,-811.3014 141.8628,-818.136 152.4536,-817.8417 149.9585,-811.3014"/>
</g>
<!-- 140178109585280&#45;&gt;140178132272744 -->
<g id="edge22" class="edge">
<title>140178109585280&#45;&gt;140178132272744</title>
<path fill="none" stroke="#000000" d="M237.7713,-1056.1735C229.0522,-1063.8266 218.3598,-1072.2228 209,-1080 192.3561,-1093.8297 152.0058,-1129.5663 122.1384,-1154.2592"/>
<polygon fill="#000000" stroke="#000000" points="119.5422,-1151.8612 114.0207,-1160.9036 123.9759,-1157.2781 119.5422,-1151.8612"/>
</g>
</g>
</svg>
