<?xml version="1.0" encoding="UTF-8" standalone="no"?>
<!DOCTYPE svg PUBLIC "-//W3C//DTD SVG 1.1//EN"
 "http://www.w3.org/Graphics/SVG/1.1/DTD/svg11.dtd">
<!-- Generated by graphviz version 2.40.1 (20161225.0304)
 -->
<!-- Title: alpha_classic_net_1585321099.7372785 Pages: 1 -->
<svg width="651pt" height="764pt"
 viewBox="0.00 0.00 651.00 764.00" xmlns="http://www.w3.org/2000/svg" xmlns:xlink="http://www.w3.org/1999/xlink">
<g id="graph0" class="graph" transform="scale(1 1) rotate(0) translate(4 760)">
<title>alpha_classic_net_1585321099.7372785</title>
<!-- 140531495909192 -->
<g id="node1" class="node">
<title>140531495909192</title>
<polygon fill="none" stroke="#000000" points="140,-36 24,-36 24,0 140,0 140,-36"/>
<text text-anchor="middle" x="82" y="-14.3" font-family="Times,serif" font-size="14.00" fill="#000000">AccountDataBean</text>
</g>
<!-- 140531495909416 -->
<g id="node2" class="node">
<title>140531495909416</title>
<polygon fill="none" stroke="#000000" points="158,-90 6,-90 6,-54 158,-54 158,-90"/>
<text text-anchor="middle" x="82" y="-68.3" font-family="Times,serif" font-size="14.00" fill="#000000">AccountProfileDataBean</text>
</g>
<!-- 140531495909528 -->
<g id="node3" class="node">
<title>140531495909528</title>
<polygon fill="none" stroke="#000000" points="336,-234 237,-234 237,-198 336,-198 336,-234"/>
<text text-anchor="middle" x="286.5" y="-212.3" font-family="Times,serif" font-size="14.00" fill="#000000">ActionDecoder</text>
</g>
<!-- 140531495910368 -->
<g id="node20" class="node">
<title>140531495910368</title>
<ellipse fill="none" stroke="#000000" cx="436" cy="-135" rx="27" ry="27"/>
<text text-anchor="middle" x="436" y="-131.3" font-family="Times,serif" font-size="14.00" fill="#000000">({&#39;ActionDecoder&#39;, &#39;OrdersAlertFilter&#39;}, {&#39;Root&#39;})</text>
</g>
<!-- 140531495909528&#45;&gt;140531495910368 -->
<g id="edge2" class="edge">
<title>140531495909528&#45;&gt;140531495910368</title>
<path fill="none" stroke="#000000" d="M336.4189,-204.195C348.7829,-200.2634 361.7138,-195.2479 373,-189 386.1842,-181.7014 399.1131,-171.3509 409.7939,-161.6613"/>
<polygon fill="#000000" stroke="#000000" points="412.2394,-164.1662 417.1454,-154.7756 407.4542,-159.0572 412.2394,-164.1662"/>
</g>
<!-- 140531495909024 -->
<g id="node4" class="node">
<title>140531495909024</title>
<polygon fill="none" stroke="#000000" points="132.5,-216 31.5,-216 31.5,-180 132.5,-180 132.5,-216"/>
<text text-anchor="middle" x="82" y="-194.3" font-family="Times,serif" font-size="14.00" fill="#000000">ActionMessage</text>
</g>
<!-- 140531495909472 -->
<g id="node5" class="node">
<title>140531495909472</title>
<polygon fill="none" stroke="#000000" points="128.5,-270 35.5,-270 35.5,-234 128.5,-234 128.5,-270"/>
<text text-anchor="middle" x="82" y="-248.3" font-family="Times,serif" font-size="14.00" fill="#000000">FinancialUtils</text>
</g>
<!-- 140531495909752 -->
<g id="node6" class="node">
<title>140531495909752</title>
<polygon fill="none" stroke="#000000" points="109,-324 55,-324 55,-288 109,-288 109,-324"/>
<text text-anchor="middle" x="82" y="-302.3" font-family="Times,serif" font-size="14.00" fill="#000000">Log</text>
</g>
<!-- 140531495909360 -->
<g id="node7" class="node">
<title>140531495909360</title>
<polygon fill="none" stroke="#000000" points="164,-378 0,-378 0,-342 164,-342 164,-378"/>
<text text-anchor="middle" x="82" y="-356.3" font-family="Times,serif" font-size="14.00" fill="#000000">MarketSummaryDataBean</text>
</g>
<!-- 140531495908912 -->
<g id="node8" class="node">
<title>140531495908912</title>
<polygon fill="none" stroke="#000000" points="367.5,-180 205.5,-180 205.5,-144 367.5,-144 367.5,-180"/>
<text text-anchor="middle" x="286.5" y="-158.3" font-family="Times,serif" font-size="14.00" fill="#000000">MarketSummarySingleton</text>
</g>
<!-- 140531495909808 -->
<g id="node9" class="node">
<title>140531495909808</title>
<polygon fill="none" stroke="#000000" points="373,-126 200,-126 200,-90 373,-90 373,-126"/>
<text text-anchor="middle" x="286.5" y="-104.3" font-family="Times,serif" font-size="14.00" fill="#000000">MarketSummaryWebSocket</text>
</g>
<!-- 140531495909080 -->
<g id="node10" class="node">
<title>140531495909080</title>
<polygon fill="none" stroke="#000000" points="341.5,-72 231.5,-72 231.5,-36 341.5,-36 341.5,-72"/>
<text text-anchor="middle" x="286.5" y="-50.3" font-family="Times,serif" font-size="14.00" fill="#000000">OrdersAlertFilter</text>
</g>
<!-- 140531495909080&#45;&gt;140531495910368 -->
<g id="edge3" class="edge">
<title>140531495909080&#45;&gt;140531495910368</title>
<path fill="none" stroke="#000000" d="M341.8765,-67.6011C352.5323,-71.2309 363.3654,-75.6664 373,-81 386.1842,-88.2986 399.1131,-98.6491 409.7939,-108.3387"/>
<polygon fill="#000000" stroke="#000000" points="407.4542,-110.9428 417.1454,-115.2244 412.2394,-105.8338 407.4542,-110.9428"/>
</g>
<!-- 140531495909136 -->
<g id="node11" class="node">
<title>140531495909136</title>
<polygon fill="none" stroke="#000000" points="133.5,-432 30.5,-432 30.5,-396 133.5,-396 133.5,-432"/>
<text text-anchor="middle" x="82" y="-410.3" font-family="Times,serif" font-size="14.00" fill="#000000">QuoteDataBean</text>
</g>
<!-- 140531495909696 -->
<g id="node12" class="node">
<title>140531495909696</title>
<polygon fill="none" stroke="#000000" points="155.5,-486 8.5,-486 8.5,-450 155.5,-450 155.5,-486"/>
<text text-anchor="middle" x="82" y="-464.3" font-family="Times,serif" font-size="14.00" fill="#000000">RecentStockChangeList</text>
</g>
<!-- 140531495909304 -->
<g id="node13" class="node">
<title>140531495909304</title>
<polygon fill="none" stroke="#000000" points="553,-153 499,-153 499,-117 553,-117 553,-153"/>
<text text-anchor="middle" x="526" y="-131.3" font-family="Times,serif" font-size="14.00" fill="#000000">Root</text>
</g>
<!-- 140531495910200 -->
<g id="node21" class="node">
<title>140531495910200</title>
<ellipse fill="#ffa500" stroke="#000000" cx="616" cy="-135" rx="27" ry="27"/>
</g>
<!-- 140531495909304&#45;&gt;140531495910200 -->
<g id="edge4" class="edge">
<title>140531495909304&#45;&gt;140531495910200</title>
<path fill="none" stroke="#000000" d="M553.003,-135C561.0277,-135 569.9665,-135 578.5309,-135"/>
<polygon fill="#000000" stroke="#000000" points="578.7051,-138.5001 588.705,-135 578.705,-131.5001 578.7051,-138.5001"/>
</g>
<!-- 140531495908744 -->
<g id="node14" class="node">
<title>140531495908744</title>
<polygon fill="none" stroke="#000000" points="124.5,-540 39.5,-540 39.5,-504 124.5,-504 124.5,-540"/>
<text text-anchor="middle" x="82" y="-518.3" font-family="Times,serif" font-size="14.00" fill="#000000">TradeAction</text>
</g>
<!-- 140531495909584 -->
<g id="node15" class="node">
<title>140531495909584</title>
<polygon fill="none" stroke="#000000" points="137,-594 27,-594 27,-558 137,-558 137,-594"/>
<text text-anchor="middle" x="82" y="-572.3" font-family="Times,serif" font-size="14.00" fill="#000000">TradeAppServlet</text>
</g>
<!-- 140531495909640 -->
<g id="node16" class="node">
<title>140531495909640</title>
<polygon fill="none" stroke="#000000" points="125,-648 39,-648 39,-612 125,-612 125,-648"/>
<text text-anchor="middle" x="82" y="-626.3" font-family="Times,serif" font-size="14.00" fill="#000000">TradeConfig</text>
</g>
<!-- 140531495909248 -->
<g id="node17" class="node">
<title>140531495909248</title>
<polygon fill="none" stroke="#000000" points="136,-702 28,-702 28,-666 136,-666 136,-702"/>
<text text-anchor="middle" x="82" y="-680.3" font-family="Times,serif" font-size="14.00" fill="#000000">TradeSLSBBean</text>
</g>
<!-- 140531495909864 -->
<g id="node18" class="node">
<title>140531495909864</title>
<polygon fill="none" stroke="#000000" points="143.5,-756 20.5,-756 20.5,-720 143.5,-720 143.5,-756"/>
<text text-anchor="middle" x="82" y="-734.3" font-family="Times,serif" font-size="14.00" fill="#000000">TradeServletAction</text>
</g>
<!-- 140531495909920 -->
<g id="node19" class="node">
<title>140531495909920</title>
<ellipse fill="#00ff00" stroke="#000000" cx="82" cy="-135" rx="27" ry="27"/>
<text text-anchor="middle" x="82" y="-131.3" font-family="Times,serif" font-size="14.00" fill="#000000">1</text>
</g>
<!-- 140531495909920&#45;&gt;140531495909528 -->
<g id="edge5" class="edge">
<title>140531495909920&#45;&gt;140531495909528</title>
<path fill="none" stroke="#000000" d="M106.9047,-145.55C123.2337,-152.5614 144.998,-162.0851 164,-171 180.1948,-178.5979 183.4082,-182.3133 200,-189 208.5725,-192.4548 217.7661,-195.746 226.8441,-198.7666"/>
<polygon fill="#000000" stroke="#000000" points="226.0225,-202.1795 236.6145,-201.933 228.1807,-195.5204 226.0225,-202.1795"/>
</g>
<!-- 140531495909920&#45;&gt;140531495908912 -->
<g id="edge6" class="edge">
<title>140531495909920&#45;&gt;140531495908912</title>
<path fill="none" stroke="#000000" d="M109.156,-138.5854C131.3127,-141.5107 163.9537,-145.8203 195.2123,-149.9473"/>
<polygon fill="#000000" stroke="#000000" points="194.9254,-153.4398 205.2975,-151.2789 195.8417,-146.5 194.9254,-153.4398"/>
</g>
<!-- 140531495909920&#45;&gt;140531495909808 -->
<g id="edge7" class="edge">
<title>140531495909920&#45;&gt;140531495909808</title>
<path fill="none" stroke="#000000" d="M109.156,-131.4146C130.0454,-128.6566 160.2541,-124.6682 189.8373,-120.7623"/>
<polygon fill="#000000" stroke="#000000" points="190.3757,-124.2217 199.8315,-119.4428 189.4594,-117.2819 190.3757,-124.2217"/>
</g>
<!-- 140531495909920&#45;&gt;140531495909080 -->
<g id="edge8" class="edge">
<title>140531495909920&#45;&gt;140531495909080</title>
<path fill="none" stroke="#000000" d="M106.9047,-124.45C123.2337,-117.4386 144.998,-107.9149 164,-99 180.1948,-91.4021 183.4082,-87.6867 200,-81 206.8215,-78.2508 214.0363,-75.6053 221.2732,-73.1173"/>
<polygon fill="#000000" stroke="#000000" points="222.745,-76.3158 231.1205,-69.8272 220.5268,-69.6766 222.745,-76.3158"/>
</g>
<!-- 140531495910368&#45;&gt;140531495909304 -->
<g id="edge1" class="edge">
<title>140531495910368&#45;&gt;140531495909304</title>
<path fill="none" stroke="#000000" d="M463.003,-135C471.0277,-135 479.9665,-135 488.5309,-135"/>
<polygon fill="#000000" stroke="#000000" points="488.7051,-138.5001 498.705,-135 488.705,-131.5001 488.7051,-138.5001"/>
</g>
</g>
</svg>
