<?xml version="1.0" encoding="UTF-8" standalone="no"?>
<!DOCTYPE svg PUBLIC "-//W3C//DTD SVG 1.1//EN"
 "http://www.w3.org/Graphics/SVG/1.1/DTD/svg11.dtd">
<!-- Generated by graphviz version 2.40.1 (20161225.0304)
 -->
<!-- Title: imdf_net_1585315544.7719598 Pages: 1 -->
<svg width="808pt" height="870pt"
 viewBox="0.00 0.00 808.00 870.00" xmlns="http://www.w3.org/2000/svg" xmlns:xlink="http://www.w3.org/1999/xlink">
<g id="graph0" class="graph" transform="scale(1 1) rotate(0) translate(4 866)">
<title>imdf_net_1585315544.7719598</title>
<!-- 140178132272352 -->
<g id="node1" class="node">
<title>140178132272352</title>
<polygon fill="none" stroke="#000000" points="116,-387 0,-387 0,-351 116,-351 116,-387"/>
<text text-anchor="middle" x="58" y="-365.3" font-family="Times,serif" font-size="14.00" fill="#000000">AccountDataBean</text>
</g>
<!-- 140178132274480 -->
<g id="node28" class="node">
<title>140178132274480</title>
<ellipse fill="none" stroke="#000000" cx="179" cy="-452" rx="27" ry="27"/>
<text text-anchor="middle" x="179" y="-448.3" font-family="Times,serif" font-size="14.00" fill="#000000">p_6</text>
</g>
<!-- 140178132272352&#45;&gt;140178132274480 -->
<g id="edge7" class="edge">
<title>140178132272352&#45;&gt;140178132274480</title>
<path fill="none" stroke="#000000" d="M84.2552,-387.0098C103.0245,-399.8846 128.3506,-417.257 148.0959,-430.8013"/>
<polygon fill="#000000" stroke="#000000" points="146.2296,-433.7654 156.4558,-436.5358 150.1893,-427.9929 146.2296,-433.7654"/>
</g>
<!-- 140178132273528 -->
<g id="node2" class="node">
<title>140178132273528</title>
<polygon fill="none" stroke="#000000" points="789.5,-751 637.5,-751 637.5,-715 789.5,-715 789.5,-751"/>
<text text-anchor="middle" x="713.5" y="-729.3" font-family="Times,serif" font-size="14.00" fill="#000000">AccountProfileDataBean</text>
</g>
<!-- 140178132273528&#45;&gt;140178132274480 -->
<g id="edge15" class="edge">
<title>140178132273528&#45;&gt;140178132274480</title>
<path fill="none" stroke="#000000" d="M637.2575,-749.6301C587.4836,-759.0627 520.9412,-769 461.5,-769 359,-769 359,-769 359,-769 303.8996,-769 278.7069,-769.0932 242,-728 210.6873,-692.9456 190.9968,-556.2044 183.041,-489.2927"/>
<polygon fill="#000000" stroke="#000000" points="186.4967,-488.7084 181.8649,-479.1796 179.5436,-489.517 186.4967,-488.7084"/>
</g>
<!-- 140178132273360 -->
<g id="node3" class="node">
<title>140178132273360</title>
<polygon fill="none" stroke="#000000" points="763,-693 664,-693 664,-657 763,-657 763,-693"/>
<text text-anchor="middle" x="713.5" y="-671.3" font-family="Times,serif" font-size="14.00" fill="#000000">ActionDecoder</text>
</g>
<!-- 140178132273360&#45;&gt;140178132274480 -->
<g id="edge10" class="edge">
<title>140178132273360&#45;&gt;140178132274480</title>
<path fill="none" stroke="#000000" d="M663.5448,-692.8727C613.2151,-709.2615 532.9835,-731 461.5,-731 359,-731 359,-731 359,-731 305.0902,-731 279.79,-737.4472 242,-699 212.8945,-669.3883 192.6089,-550.4811 183.851,-489.0926"/>
<polygon fill="#000000" stroke="#000000" points="187.2972,-488.4639 182.4473,-479.0443 180.3645,-489.4324 187.2972,-488.4639"/>
</g>
<!-- 140178109583544 -->
<g id="node4" class="node">
<title>140178109583544</title>
<polygon fill="none" stroke="#000000" points="764,-638 663,-638 663,-602 764,-602 764,-638"/>
<text text-anchor="middle" x="713.5" y="-616.3" font-family="Times,serif" font-size="14.00" fill="#000000">ActionMessage</text>
</g>
<!-- 140178109583544&#45;&gt;140178132274480 -->
<g id="edge13" class="edge">
<title>140178109583544&#45;&gt;140178132274480</title>
<path fill="none" stroke="#000000" d="M662.8194,-620.3192C611.9322,-620.6118 531.2818,-621 461.5,-621 359,-621 359,-621 359,-621 301.1573,-621 284.0906,-603.6757 242,-564 219.3136,-542.6152 202.6221,-511.2029 192.1409,-487.0832"/>
<polygon fill="#000000" stroke="#000000" points="195.2511,-485.4488 188.1628,-477.5743 188.7934,-488.1504 195.2511,-485.4488"/>
</g>
<!-- 140178132274032 -->
<g id="node5" class="node">
<title>140178132274032</title>
<polygon fill="none" stroke="#000000" points="760,-583 667,-583 667,-547 760,-547 760,-583"/>
<text text-anchor="middle" x="713.5" y="-561.3" font-family="Times,serif" font-size="14.00" fill="#000000">FinancialUtils</text>
</g>
<!-- 140178132274032&#45;&gt;140178132274480 -->
<g id="edge8" class="edge">
<title>140178132274032&#45;&gt;140178132274480</title>
<path fill="none" stroke="#000000" d="M666.6623,-570.3519C616.1155,-575.6578 533.2135,-583 461.5,-583 359,-583 359,-583 359,-583 302.2745,-583 286.9031,-566.6624 242,-532 224.8791,-518.7837 209.7338,-499.9282 198.586,-483.8421"/>
<polygon fill="#000000" stroke="#000000" points="201.295,-481.5976 192.8169,-475.2436 195.4821,-485.4977 201.295,-481.5976"/>
</g>
<!-- 140178109584720 -->
<g id="node6" class="node">
<title>140178109584720</title>
<polygon fill="none" stroke="#000000" points="740.5,-528 686.5,-528 686.5,-492 740.5,-492 740.5,-528"/>
<text text-anchor="middle" x="713.5" y="-506.3" font-family="Times,serif" font-size="14.00" fill="#000000">Log</text>
</g>
<!-- 140178109584720&#45;&gt;140178132274480 -->
<g id="edge4" class="edge">
<title>140178109584720&#45;&gt;140178132274480</title>
<path fill="none" stroke="#000000" d="M686.4489,-516.2573C640.4887,-526.3245 544.0978,-545 461.5,-545 359,-545 359,-545 359,-545 303.8996,-545 289.9929,-531.0691 242,-504 229.3019,-496.838 216.6433,-487.0431 206.0401,-477.8847"/>
<polygon fill="#000000" stroke="#000000" points="208.164,-475.0898 198.3657,-471.0595 203.5121,-480.3204 208.164,-475.0898"/>
</g>
<!-- 140178132273416 -->
<g id="node7" class="node">
<title>140178132273416</title>
<polygon fill="none" stroke="#000000" points="795.5,-472 631.5,-472 631.5,-436 795.5,-436 795.5,-472"/>
<text text-anchor="middle" x="713.5" y="-450.3" font-family="Times,serif" font-size="14.00" fill="#000000">MarketSummaryDataBean</text>
</g>
<!-- 140178132273416&#45;&gt;140178132274480 -->
<g id="edge12" class="edge">
<title>140178132273416&#45;&gt;140178132274480</title>
<path fill="none" stroke="#000000" d="M659.6233,-472.0914C609.062,-487.445 531.0196,-507 461.5,-507 359,-507 359,-507 359,-507 305.984,-507 247.8679,-484.9082 212.4111,-468.727"/>
<polygon fill="#000000" stroke="#000000" points="213.5757,-465.4079 203.0345,-464.3431 210.6109,-471.749 213.5757,-465.4079"/>
</g>
<!-- 140178109587408 -->
<g id="node8" class="node">
<title>140178109587408</title>
<polygon fill="none" stroke="#000000" points="794.5,-414 632.5,-414 632.5,-378 794.5,-378 794.5,-414"/>
<text text-anchor="middle" x="713.5" y="-392.3" font-family="Times,serif" font-size="14.00" fill="#000000">MarketSummarySingleton</text>
</g>
<!-- 140178109587408&#45;&gt;140178132274480 -->
<g id="edge14" class="edge">
<title>140178109587408&#45;&gt;140178132274480</title>
<path fill="none" stroke="#000000" d="M632.3552,-396.4854C582.964,-396.7401 518.5942,-397 461.5,-397 359,-397 359,-397 359,-397 305.984,-397 247.8679,-419.0918 212.4111,-435.273"/>
<polygon fill="#000000" stroke="#000000" points="210.6109,-432.251 203.0345,-439.6569 213.5757,-438.5921 210.6109,-432.251"/>
</g>
<!-- 140178109584048 -->
<g id="node9" class="node">
<title>140178109584048</title>
<polygon fill="none" stroke="#000000" points="800,-252 627,-252 627,-216 800,-216 800,-252"/>
<text text-anchor="middle" x="713.5" y="-230.3" font-family="Times,serif" font-size="14.00" fill="#000000">MarketSummaryWebSocket</text>
</g>
<!-- 140178109584048&#45;&gt;140178132274480 -->
<g id="edge11" class="edge">
<title>140178109584048&#45;&gt;140178132274480</title>
<path fill="none" stroke="#000000" d="M653.2717,-215.9456C591.1672,-197.9582 498.3548,-173 461.5,-173 359,-173 359,-173 359,-173 303.7511,-173 278.5033,-173.5277 242,-215 192.982,-270.6905 226.7603,-306.7736 206,-378 202.1953,-391.0534 197.2735,-405.1291 192.6761,-417.4643"/>
<polygon fill="#000000" stroke="#000000" points="189.3594,-416.3395 189.0862,-426.9309 195.9046,-418.8217 189.3594,-416.3395"/>
</g>
<!-- 140178132273192 -->
<g id="node10" class="node">
<title>140178132273192</title>
<polygon fill="none" stroke="#000000" points="768.5,-144 658.5,-144 658.5,-108 768.5,-108 768.5,-144"/>
<text text-anchor="middle" x="713.5" y="-122.3" font-family="Times,serif" font-size="14.00" fill="#000000">OrdersAlertFilter</text>
</g>
<!-- 140178132273192&#45;&gt;140178132274480 -->
<g id="edge5" class="edge">
<title>140178132273192&#45;&gt;140178132274480</title>
<path fill="none" stroke="#000000" d="M658.1574,-115.9386C607.2397,-107.5627 529.5399,-97 461.5,-97 359,-97 359,-97 359,-97 304.4618,-97 277.3632,-92.4806 242,-134 170.9221,-217.4514 232.9256,-271.7399 206,-378 202.6603,-391.18 197.8422,-405.284 193.1979,-417.6064"/>
<polygon fill="#000000" stroke="#000000" points="189.8864,-416.4658 189.542,-427.055 196.4148,-418.9918 189.8864,-416.4658"/>
</g>
<!-- 140178132273136 -->
<g id="node11" class="node">
<title>140178132273136</title>
<polygon fill="none" stroke="#000000" points="765,-90 662,-90 662,-54 765,-54 765,-90"/>
<text text-anchor="middle" x="713.5" y="-68.3" font-family="Times,serif" font-size="14.00" fill="#000000">QuoteDataBean</text>
</g>
<!-- 140178132273136&#45;&gt;140178132274480 -->
<g id="edge6" class="edge">
<title>140178132273136&#45;&gt;140178132274480</title>
<path fill="none" stroke="#000000" d="M661.8987,-67.7793C610.9911,-63.9834 530.936,-59 461.5,-59 359,-59 359,-59 359,-59 304.4618,-59 276.9565,-54.1376 242,-96 201.5076,-144.492 220.9196,-316.6118 206,-378 202.789,-391.212 197.9997,-405.3231 193.3424,-417.6422"/>
<polygon fill="#000000" stroke="#000000" points="190.0321,-416.4977 189.6682,-427.0863 196.5558,-419.0358 190.0321,-416.4977"/>
</g>
<!-- 140178109584552 -->
<g id="node12" class="node">
<title>140178109584552</title>
<polygon fill="none" stroke="#000000" points="787,-36 640,-36 640,0 787,0 787,-36"/>
<text text-anchor="middle" x="713.5" y="-14.3" font-family="Times,serif" font-size="14.00" fill="#000000">RecentStockChangeList</text>
</g>
<!-- 140178109584552&#45;&gt;140178132274480 -->
<g id="edge3" class="edge">
<title>140178109584552&#45;&gt;140178132274480</title>
<path fill="none" stroke="#000000" d="M639.8961,-18.4459C589.6425,-18.7126 521.5473,-19 461.5,-19 359,-19 359,-19 359,-19 304.1872,-19 276.4888,-15.3976 242,-58 196.9739,-113.6187 222.3796,-308.3401 206,-378 202.8878,-391.2356 198.1206,-405.352 193.4533,-417.6688"/>
<polygon fill="#000000" stroke="#000000" points="190.1439,-416.5214 189.7651,-427.1095 196.664,-419.0686 190.1439,-416.5214"/>
</g>
<!-- 140178132274256 -->
<g id="node13" class="node">
<title>140178132274256</title>
<polygon fill="none" stroke="#000000" points="488.5,-694 434.5,-694 434.5,-658 488.5,-658 488.5,-694"/>
<text text-anchor="middle" x="461.5" y="-672.3" font-family="Times,serif" font-size="14.00" fill="#000000">Root</text>
</g>
<!-- 140178132271512 -->
<g id="node30" class="node">
<title>140178132271512</title>
<ellipse fill="#ffa500" stroke="#000000" cx="564" cy="-676" rx="27" ry="27"/>
</g>
<!-- 140178132274256&#45;&gt;140178132271512 -->
<g id="edge16" class="edge">
<title>140178132274256&#45;&gt;140178132271512</title>
<path fill="none" stroke="#000000" d="M488.699,-676C500.2828,-676 513.9866,-676 526.5073,-676"/>
<polygon fill="#000000" stroke="#000000" points="526.6739,-679.5001 536.6739,-676 526.6739,-672.5001 526.6739,-679.5001"/>
</g>
<!-- 140178132272968 -->
<g id="node14" class="node">
<title>140178132272968</title>
<polygon fill="none" stroke="#000000" points="756,-360 671,-360 671,-324 756,-324 756,-360"/>
<text text-anchor="middle" x="713.5" y="-338.3" font-family="Times,serif" font-size="14.00" fill="#000000">TradeAction</text>
</g>
<!-- 140178132272968&#45;&gt;140178132274480 -->
<g id="edge18" class="edge">
<title>140178132272968&#45;&gt;140178132274480</title>
<path fill="none" stroke="#000000" d="M670.6075,-329.3258C656.6279,-325.0051 641.0847,-319.9983 627,-315 552.3711,-288.5162 540.6888,-249 461.5,-249 359,-249 359,-249 359,-249 299.297,-249 282.4376,-271.0768 242,-315 227.5347,-330.7121 205.9171,-382.0467 192.14,-417.2137"/>
<polygon fill="#000000" stroke="#000000" points="188.8288,-416.072 188.4745,-426.6609 195.3548,-418.6041 188.8288,-416.072"/>
</g>
<!-- 140178109584272 -->
<g id="node15" class="node">
<title>140178109584272</title>
<polygon fill="none" stroke="#000000" points="768.5,-306 658.5,-306 658.5,-270 768.5,-270 768.5,-306"/>
<text text-anchor="middle" x="713.5" y="-284.3" font-family="Times,serif" font-size="14.00" fill="#000000">TradeAppServlet</text>
</g>
<!-- 140178109584272&#45;&gt;140178132274480 -->
<g id="edge2" class="edge">
<title>140178109584272&#45;&gt;140178132274480</title>
<path fill="none" stroke="#000000" d="M658.2817,-270.9112C584.8824,-248.2264 464.0447,-211 461.5,-211 359,-211 359,-211 359,-211 302.6238,-211 279.8114,-218.1841 242,-260 205.225,-300.6697 223.4032,-326.0044 206,-378 201.7187,-390.7912 196.7284,-404.7108 192.2111,-416.9905"/>
<polygon fill="#000000" stroke="#000000" points="188.9045,-415.8409 188.7122,-426.434 195.4685,-418.273 188.9045,-415.8409"/>
</g>
<!-- 140178109585280 -->
<g id="node16" class="node">
<title>140178109585280</title>
<polygon fill="none" stroke="#000000" points="756.5,-862 670.5,-862 670.5,-826 756.5,-826 756.5,-862"/>
<text text-anchor="middle" x="713.5" y="-840.3" font-family="Times,serif" font-size="14.00" fill="#000000">TradeConfig</text>
</g>
<!-- 140178109585280&#45;&gt;140178132274480 -->
<g id="edge9" class="edge">
<title>140178109585280&#45;&gt;140178132274480</title>
<path fill="none" stroke="#000000" d="M670.2467,-844.2759C620.0498,-844.5719 534.7818,-845 461.5,-845 359,-845 359,-845 359,-845 302.2745,-845 277.2679,-838.4292 242,-794 204.8503,-747.2003 187.485,-568.3097 181.5191,-489.5732"/>
<polygon fill="#000000" stroke="#000000" points="184.9768,-488.8681 180.7521,-479.152 177.9956,-489.382 184.9768,-488.8681"/>
</g>
<!-- 140178132271568 -->
<g id="node17" class="node">
<title>140178132271568</title>
<polygon fill="none" stroke="#000000" points="767.5,-198 659.5,-198 659.5,-162 767.5,-162 767.5,-198"/>
<text text-anchor="middle" x="713.5" y="-176.3" font-family="Times,serif" font-size="14.00" fill="#000000">TradeSLSBBean</text>
</g>
<!-- 140178132271568&#45;&gt;140178132274480 -->
<g id="edge1" class="edge">
<title>140178132271568&#45;&gt;140178132274480</title>
<path fill="none" stroke="#000000" d="M659.4327,-164.6394C608.7384,-151.6033 530.6074,-135 461.5,-135 359,-135 359,-135 359,-135 304.3261,-135 277.8574,-131.7268 242,-173 181.3311,-242.8321 229.9463,-288.6478 206,-378 202.4803,-391.1331 197.6221,-405.2267 192.9959,-417.5537"/>
<polygon fill="#000000" stroke="#000000" points="189.6826,-416.4189 189.3656,-427.009 196.2175,-418.928 189.6826,-416.4189"/>
</g>
<!-- 140178132273920 -->
<g id="node18" class="node">
<title>140178132273920</title>
<polygon fill="none" stroke="#000000" points="775,-807 652,-807 652,-771 775,-771 775,-807"/>
<text text-anchor="middle" x="713.5" y="-785.3" font-family="Times,serif" font-size="14.00" fill="#000000">TradeServletAction</text>
</g>
<!-- 140178132273920&#45;&gt;140178132274480 -->
<g id="edge17" class="edge">
<title>140178132273920&#45;&gt;140178132274480</title>
<path fill="none" stroke="#000000" d="M651.967,-795.8564C600.9983,-800.9432 526.6343,-807 461.5,-807 359,-807 359,-807 359,-807 302.9612,-807 277.8989,-803.0304 242,-760 207.9251,-719.156 189.217,-561.959 182.2289,-489.2648"/>
<polygon fill="#000000" stroke="#000000" points="185.7013,-488.8058 181.2825,-479.1765 178.7319,-489.4597 185.7013,-488.8058"/>
</g>
<!-- 140178132274872 -->
<g id="node19" class="node">
<title>140178132274872</title>
<polygon fill="none" stroke="#000000" points="501,-360 422,-360 422,-324 501,-324 501,-360"/>
<text text-anchor="middle" x="461.5" y="-338.3" font-family="Times,serif" font-size="14.00" fill="#000000">init_loop_2</text>
</g>
<!-- 140178132274536 -->
<g id="node27" class="node">
<title>140178132274536</title>
<ellipse fill="none" stroke="#000000" cx="564" cy="-342" rx="27" ry="27"/>
<text text-anchor="middle" x="564" y="-338.3" font-family="Times,serif" font-size="14.00" fill="#000000">p_5</text>
</g>
<!-- 140178132274872&#45;&gt;140178132274536 -->
<g id="edge19" class="edge">
<title>140178132274872&#45;&gt;140178132274536</title>
<path fill="none" stroke="#000000" d="M501.1292,-342C509.5266,-342 518.3634,-342 526.672,-342"/>
<polygon fill="#000000" stroke="#000000" points="526.8409,-345.5001 536.8409,-342 526.8408,-338.5001 526.8409,-345.5001"/>
</g>
<!-- 140178132274424 -->
<g id="node20" class="node">
<title>140178132274424</title>
<polygon fill="none" stroke="#000000" points="488.5,-466 434.5,-466 434.5,-430 488.5,-430 488.5,-466"/>
<text text-anchor="middle" x="461.5" y="-444.3" font-family="Times,serif" font-size="14.00" fill="#000000">loop_3</text>
</g>
<!-- 140178132274424&#45;&gt;140178132274536 -->
<g id="edge20" class="edge">
<title>140178132274424&#45;&gt;140178132274536</title>
<path fill="none" stroke="#000000" d="M479.3541,-429.5362C495.5576,-412.7795 519.6496,-387.8648 537.9921,-368.896"/>
<polygon fill="#000000" stroke="#000000" points="540.5254,-371.3111 544.9608,-361.6894 535.4933,-366.4452 540.5254,-371.3111"/>
</g>
<!-- 140178109583768 -->
<g id="node21" class="node">
<title>140178109583768</title>
<polygon fill="none" stroke="#000000" points="296,-470 242,-470 242,-434 296,-434 296,-470"/>
<text text-anchor="middle" x="269" y="-448.3" font-family="Times,serif" font-size="14.00" fill="#000000">skip_4</text>
</g>
<!-- 140178132274312 -->
<g id="node29" class="node">
<title>140178132274312</title>
<ellipse fill="none" stroke="#000000" cx="359" cy="-452" rx="27" ry="27"/>
<text text-anchor="middle" x="359" y="-448.3" font-family="Times,serif" font-size="14.00" fill="#000000">p_7</text>
</g>
<!-- 140178109583768&#45;&gt;140178132274312 -->
<g id="edge43" class="edge">
<title>140178109583768&#45;&gt;140178132274312</title>
<path fill="none" stroke="#000000" d="M296.003,-452C304.0277,-452 312.9665,-452 321.5309,-452"/>
<polygon fill="#000000" stroke="#000000" points="321.7051,-455.5001 331.705,-452 321.705,-448.5001 321.7051,-455.5001"/>
</g>
<!-- 140178109586624 -->
<g id="node22" class="node">
<title>140178109586624</title>
<polygon fill="none" stroke="#000000" points="296,-690 242,-690 242,-654 296,-654 296,-690"/>
<text text-anchor="middle" x="269" y="-668.3" font-family="Times,serif" font-size="14.00" fill="#000000">skip_5</text>
</g>
<!-- 140178132274984 -->
<g id="node26" class="node">
<title>140178132274984</title>
<ellipse fill="none" stroke="#000000" cx="359" cy="-676" rx="27" ry="27"/>
<text text-anchor="middle" x="359" y="-672.3" font-family="Times,serif" font-size="14.00" fill="#000000">p_4</text>
</g>
<!-- 140178109586624&#45;&gt;140178132274984 -->
<g id="edge44" class="edge">
<title>140178109586624&#45;&gt;140178132274984</title>
<path fill="none" stroke="#000000" d="M296.003,-673.2001C304.1013,-673.5601 313.1306,-673.9614 321.7665,-674.3452"/>
<polygon fill="#000000" stroke="#000000" points="321.8705,-677.8532 332.0161,-674.8007 322.1814,-670.8601 321.8705,-677.8532"/>
</g>
<!-- 140178132273304 -->
<g id="node23" class="node">
<title>140178132273304</title>
<polygon fill="none" stroke="#000000" points="296,-360 242,-360 242,-324 296,-324 296,-360"/>
<text text-anchor="middle" x="269" y="-338.3" font-family="Times,serif" font-size="14.00" fill="#000000">tau_1</text>
</g>
<!-- 140178132275040 -->
<g id="node25" class="node">
<title>140178132275040</title>
<ellipse fill="none" stroke="#000000" cx="359" cy="-342" rx="27" ry="27"/>
<text text-anchor="middle" x="359" y="-338.3" font-family="Times,serif" font-size="14.00" fill="#000000">p_3</text>
</g>
<!-- 140178132273304&#45;&gt;140178132275040 -->
<g id="edge46" class="edge">
<title>140178132273304&#45;&gt;140178132275040</title>
<path fill="none" stroke="#000000" d="M296.003,-342C304.0277,-342 312.9665,-342 321.5309,-342"/>
<polygon fill="#000000" stroke="#000000" points="321.7051,-345.5001 331.705,-342 321.705,-338.5001 321.7051,-345.5001"/>
</g>
<!-- 140178132271288 -->
<g id="node24" class="node">
<title>140178132271288</title>
<ellipse fill="#00ff00" stroke="#000000" cx="179" cy="-342" rx="27" ry="27"/>
<text text-anchor="middle" x="179" y="-338.3" font-family="Times,serif" font-size="14.00" fill="#000000">1</text>
</g>
<!-- 140178132271288&#45;&gt;140178132273304 -->
<g id="edge45" class="edge">
<title>140178132271288&#45;&gt;140178132273304</title>
<path fill="none" stroke="#000000" d="M206.003,-342C214.0277,-342 222.9665,-342 231.5309,-342"/>
<polygon fill="#000000" stroke="#000000" points="231.7051,-345.5001 241.705,-342 231.705,-338.5001 231.7051,-345.5001"/>
</g>
<!-- 140178132275040&#45;&gt;140178132274872 -->
<g id="edge21" class="edge">
<title>140178132275040&#45;&gt;140178132274872</title>
<path fill="none" stroke="#000000" d="M386.199,-342C394.0426,-342 402.8582,-342 411.6204,-342"/>
<polygon fill="#000000" stroke="#000000" points="411.8204,-345.5001 421.8204,-342 411.8204,-338.5001 411.8204,-345.5001"/>
</g>
<!-- 140178132274984&#45;&gt;140178132274256 -->
<g id="edge22" class="edge">
<title>140178132274984&#45;&gt;140178132274256</title>
<path fill="none" stroke="#000000" d="M386.199,-676C397.7828,-676 411.4866,-676 424.0073,-676"/>
<polygon fill="#000000" stroke="#000000" points="424.1739,-679.5001 434.1739,-676 424.1739,-672.5001 424.1739,-679.5001"/>
</g>
<!-- 140178132274536&#45;&gt;140178132272352 -->
<g id="edge29" class="edge">
<title>140178132274536&#45;&gt;140178132272352</title>
<path fill="none" stroke="#000000" d="M539.6163,-330.1283C528.1153,-324.9003 514.0742,-319.0413 501,-315 439.5427,-296.0033 423.3263,-287 359,-287 269,-287 269,-287 269,-287 216.3188,-287 201.0063,-286.669 152,-306 128.5991,-315.2307 105.0904,-330.9889 87.4363,-344.4353"/>
<polygon fill="#000000" stroke="#000000" points="84.996,-341.9 79.2662,-350.8118 89.3029,-347.4183 84.996,-341.9"/>
</g>
<!-- 140178132274536&#45;&gt;140178132273528 -->
<g id="edge37" class="edge">
<title>140178132274536&#45;&gt;140178132273528</title>
<path fill="none" stroke="#000000" d="M565.2863,-369.0877C569.3615,-443.9284 584.3382,-651.3461 627,-702 629.1581,-704.5623 631.5441,-706.9129 634.1063,-709.0692"/>
<polygon fill="#000000" stroke="#000000" points="632.115,-711.9485 642.2691,-714.9727 636.2172,-706.2764 632.115,-711.9485"/>
</g>
<!-- 140178132274536&#45;&gt;140178132273360 -->
<g id="edge32" class="edge">
<title>140178132274536&#45;&gt;140178132273360</title>
<path fill="none" stroke="#000000" d="M566.1432,-369.0653C571.9524,-435.8065 590.1021,-605.8289 627,-647 634.3397,-655.1897 644.0913,-660.9956 654.3982,-665.1086"/>
<polygon fill="#000000" stroke="#000000" points="653.3719,-668.4571 663.9667,-668.4297 655.6673,-661.8441 653.3719,-668.4571"/>
</g>
<!-- 140178132274536&#45;&gt;140178109583544 -->
<g id="edge35" class="edge">
<title>140178132274536&#45;&gt;140178109583544</title>
<path fill="none" stroke="#000000" d="M567.4529,-368.8266C575.3795,-426.4542 596.5677,-559.4835 627,-592 634.1928,-599.6855 643.5081,-605.2669 653.3518,-609.3189"/>
<polygon fill="#000000" stroke="#000000" points="652.3051,-612.6619 662.8996,-612.754 654.6749,-606.0753 652.3051,-612.6619"/>
</g>
<!-- 140178132274536&#45;&gt;140178132274032 -->
<g id="edge30" class="edge">
<title>140178132274536&#45;&gt;140178132274032</title>
<path fill="none" stroke="#000000" d="M569.4768,-368.6823C579.734,-416.2486 602.982,-512.9684 627,-537 635.285,-545.2896 646.0406,-551.1261 657.1368,-555.235"/>
<polygon fill="#000000" stroke="#000000" points="656.3299,-558.653 666.9221,-558.4194 658.4961,-551.9966 656.3299,-558.653"/>
</g>
<!-- 140178132274536&#45;&gt;140178109584720 -->
<g id="edge26" class="edge">
<title>140178132274536&#45;&gt;140178109584720</title>
<path fill="none" stroke="#000000" d="M569.3003,-368.5769C576.8552,-399.7268 593.6662,-450.9057 627,-481 640.6301,-493.3055 659.6559,-500.4131 676.3945,-504.507"/>
<polygon fill="#000000" stroke="#000000" points="675.9381,-507.9892 686.4524,-506.686 677.4203,-501.1479 675.9381,-507.9892"/>
</g>
<!-- 140178132274536&#45;&gt;140178132273416 -->
<g id="edge34" class="edge">
<title>140178132274536&#45;&gt;140178132273416</title>
<path fill="none" stroke="#000000" d="M577.2321,-365.5613C588.4071,-383.5407 605.9362,-407.7406 627,-423 631.2511,-426.0797 635.8386,-428.8798 640.6056,-431.4214"/>
<polygon fill="#000000" stroke="#000000" points="639.4326,-434.7439 649.9532,-435.9959 642.5096,-428.4564 639.4326,-434.7439"/>
</g>
<!-- 140178132274536&#45;&gt;140178109587408 -->
<g id="edge36" class="edge">
<title>140178132274536&#45;&gt;140178109587408</title>
<path fill="none" stroke="#000000" d="M588.5993,-353.2356C600.1456,-358.3298 614.1626,-364.2597 627,-369 632.1653,-370.9073 637.535,-372.7978 642.9568,-374.6403"/>
<polygon fill="#000000" stroke="#000000" points="642.1457,-378.0591 652.7393,-377.8985 644.3577,-371.4178 642.1457,-378.0591"/>
</g>
<!-- 140178132274536&#45;&gt;140178109584048 -->
<g id="edge33" class="edge">
<title>140178132274536&#45;&gt;140178109584048</title>
<path fill="none" stroke="#000000" d="M577.059,-318.1944C588.1385,-300.0803 605.6236,-275.8183 627,-261 629.0929,-259.5492 631.267,-258.1739 633.5036,-256.8703"/>
<polygon fill="#000000" stroke="#000000" points="635.1801,-259.9432 642.4012,-252.1904 631.9215,-253.7479 635.1801,-259.9432"/>
</g>
<!-- 140178132274536&#45;&gt;140178132273192 -->
<g id="edge27" class="edge">
<title>140178132274536&#45;&gt;140178132273192</title>
<path fill="none" stroke="#000000" d="M569.726,-315.3787C580.2024,-268.9738 603.5439,-176.0101 627,-153 633.2829,-146.8366 640.9508,-142.0775 649.0983,-138.4034"/>
<polygon fill="#000000" stroke="#000000" points="650.4436,-141.6352 658.4526,-134.6992 647.8663,-135.1269 650.4436,-141.6352"/>
</g>
<!-- 140178132274536&#45;&gt;140178132273136 -->
<g id="edge28" class="edge">
<title>140178132274536&#45;&gt;140178132273136</title>
<path fill="none" stroke="#000000" d="M567.6542,-315.0436C575.8306,-258.5221 597.2456,-130.2456 627,-99 633.9162,-91.7372 642.7519,-86.4172 652.1223,-82.5229"/>
<polygon fill="#000000" stroke="#000000" points="653.4081,-85.7797 661.6195,-79.0846 651.0253,-79.1978 653.4081,-85.7797"/>
</g>
<!-- 140178132274536&#45;&gt;140178109584552 -->
<g id="edge25" class="edge">
<title>140178132274536&#45;&gt;140178109584552</title>
<path fill="none" stroke="#000000" d="M566.3061,-314.6537C572.3798,-248.9393 590.8907,-84.6551 627,-45 628.3902,-43.4733 629.8652,-42.0322 631.4127,-40.6718"/>
<polygon fill="#000000" stroke="#000000" points="633.754,-43.2928 639.6969,-34.5217 629.5813,-37.6724 633.754,-43.2928"/>
</g>
<!-- 140178132274536&#45;&gt;140178132272968 -->
<g id="edge39" class="edge">
<title>140178132274536&#45;&gt;140178132272968</title>
<path fill="none" stroke="#000000" d="M591.0733,-342C610.4238,-342 637.0902,-342 660.5966,-342"/>
<polygon fill="#000000" stroke="#000000" points="660.7907,-345.5001 670.7906,-342 660.7906,-338.5001 660.7907,-345.5001"/>
</g>
<!-- 140178132274536&#45;&gt;140178109584272 -->
<g id="edge24" class="edge">
<title>140178132274536&#45;&gt;140178109584272</title>
<path fill="none" stroke="#000000" d="M588.5993,-330.7644C600.1456,-325.6702 614.1626,-319.7403 627,-315 633.8993,-312.4524 641.1635,-309.9348 648.4292,-307.5213"/>
<polygon fill="#000000" stroke="#000000" points="649.8813,-310.7292 658.3036,-304.3016 647.7113,-304.0741 649.8813,-310.7292"/>
</g>
<!-- 140178132274536&#45;&gt;140178109585280 -->
<g id="edge31" class="edge">
<title>140178132274536&#45;&gt;140178109585280</title>
<path fill="none" stroke="#000000" d="M565.933,-369.2423C572.9465,-464.8813 598.1618,-781.4083 627,-816 635.5376,-826.241 647.8585,-832.7722 660.5365,-836.9268"/>
<polygon fill="#000000" stroke="#000000" points="659.6699,-840.3189 670.2444,-839.6627 661.5687,-833.5813 659.6699,-840.3189"/>
</g>
<!-- 140178132274536&#45;&gt;140178132271568 -->
<g id="edge23" class="edge">
<title>140178132274536&#45;&gt;140178132271568</title>
<path fill="none" stroke="#000000" d="M569.5492,-315.5197C577.2768,-285.0936 594.1887,-235.6828 627,-207 633.6263,-201.2074 641.4876,-196.6571 649.7275,-193.0828"/>
<polygon fill="#000000" stroke="#000000" points="651.0768,-196.3138 659.1459,-189.4478 648.5564,-189.7833 651.0768,-196.3138"/>
</g>
<!-- 140178132274536&#45;&gt;140178132273920 -->
<g id="edge38" class="edge">
<title>140178132274536&#45;&gt;140178132273920</title>
<path fill="none" stroke="#000000" d="M566.4349,-369.0168C574.5653,-456.7668 601.6935,-729.8605 627,-760 631.4479,-765.2974 636.8956,-769.6314 642.8725,-773.1764"/>
<polygon fill="#000000" stroke="#000000" points="641.457,-776.3838 651.9532,-777.8262 644.6475,-770.1531 641.457,-776.3838"/>
</g>
<!-- 140178132274480&#45;&gt;140178109583768 -->
<g id="edge40" class="edge">
<title>140178132274480&#45;&gt;140178109583768</title>
<path fill="none" stroke="#000000" d="M206.003,-452C214.0277,-452 222.9665,-452 231.5309,-452"/>
<polygon fill="#000000" stroke="#000000" points="231.7051,-455.5001 241.705,-452 231.705,-448.5001 231.7051,-455.5001"/>
</g>
<!-- 140178132274480&#45;&gt;140178109586624 -->
<g id="edge41" class="edge">
<title>140178132274480&#45;&gt;140178109586624</title>
<path fill="none" stroke="#000000" d="M185.4349,-478.4623C194.9013,-514.9765 214.4848,-582.2742 242,-635 243.851,-638.547 246.0173,-642.1289 248.3035,-645.595"/>
<polygon fill="#000000" stroke="#000000" points="245.5128,-647.7114 254.1221,-653.8865 251.2428,-643.6904 245.5128,-647.7114"/>
</g>
<!-- 140178132274312&#45;&gt;140178132274424 -->
<g id="edge42" class="edge">
<title>140178132274312&#45;&gt;140178132274424</title>
<path fill="none" stroke="#000000" d="M386.199,-450.9386C397.7828,-450.4865 411.4866,-449.9517 424.0073,-449.4631"/>
<polygon fill="#000000" stroke="#000000" points="424.318,-452.9538 434.1739,-449.0664 424.045,-445.9591 424.318,-452.9538"/>
</g>
</g>
</svg>
