<?xml version="1.0" encoding="UTF-8" standalone="no"?>
<!DOCTYPE svg PUBLIC "-//W3C//DTD SVG 1.1//EN"
 "http://www.w3.org/Graphics/SVG/1.1/DTD/svg11.dtd">
<!-- Generated by graphviz version 2.40.1 (20161225.0304)
 -->
<!-- Title: alpha_plus_net_1586496217.2374864 Pages: 1 -->
<svg width="1031pt" height="3032pt"
 viewBox="0.00 0.00 1031.00 3032.00" xmlns="http://www.w3.org/2000/svg" xmlns:xlink="http://www.w3.org/1999/xlink">
<g id="graph0" class="graph" transform="scale(1 1) rotate(0) translate(4 3028)">
<title>alpha_plus_net_1586496217.2374864</title>
<!-- 139748184449880 -->
<g id="node1" class="node">
<title>139748184449880</title>
<polygon fill="none" stroke="#000000" points="316,-36 105,-36 105,0 316,0 316,-36"/>
<text text-anchor="middle" x="210.5" y="-14.3" font-family="Times,serif" font-size="14.00" fill="#000000">FinancialUtils:computeGainPercent</text>
</g>
<!-- 139748184451616 -->
<g id="node2" class="node">
<title>139748184451616</title>
<polygon fill="none" stroke="#000000" points="253.5,-90 167.5,-90 167.5,-54 253.5,-54 253.5,-90"/>
<text text-anchor="middle" x="210.5" y="-68.3" font-family="Times,serif" font-size="14.00" fill="#000000">Log:doTrace</text>
</g>
<!-- 139748184451728 -->
<g id="node3" class="node">
<title>139748184451728</title>
<polygon fill="none" stroke="#000000" points="255,-144 166,-144 166,-108 255,-108 255,-144"/>
<text text-anchor="middle" x="210.5" y="-122.3" font-family="Times,serif" font-size="14.00" fill="#000000">Log:getTrace</text>
</g>
<!-- 139748184452120 -->
<g id="node4" class="node">
<title>139748184452120</title>
<polygon fill="none" stroke="#000000" points="273,-198 148,-198 148,-162 273,-162 273,-198"/>
<text text-anchor="middle" x="210.5" y="-176.3" font-family="Times,serif" font-size="14.00" fill="#000000">Log:setActionTrace</text>
</g>
<!-- 139748184451672 -->
<g id="node5" class="node">
<title>139748184451672</title>
<polygon fill="none" stroke="#000000" points="254.5,-252 166.5,-252 166.5,-216 254.5,-216 254.5,-252"/>
<text text-anchor="middle" x="210.5" y="-230.3" font-family="Times,serif" font-size="14.00" fill="#000000">Log:setTrace</text>
</g>
<!-- 139748184452288 -->
<g id="node6" class="node">
<title>139748184452288</title>
<polygon fill="none" stroke="#000000" points="280.5,-306 140.5,-306 140.5,-270 280.5,-270 280.5,-306"/>
<text text-anchor="middle" x="210.5" y="-284.3" font-family="Times,serif" font-size="14.00" fill="#000000">MDBStats:getInstance</text>
</g>
<!-- 139748184451784 -->
<g id="node7" class="node">
<title>139748184451784</title>
<polygon fill="none" stroke="#000000" points="262.5,-360 158.5,-360 158.5,-324 262.5,-324 262.5,-360"/>
<text text-anchor="middle" x="210.5" y="-338.3" font-family="Times,serif" font-size="14.00" fill="#000000">MDBStats:reset</text>
</g>
<!-- 139748184451896 -->
<g id="node8" class="node">
<title>139748184451896</title>
<polygon fill="none" stroke="#000000" points="421,-414 0,-414 0,-378 421,-378 421,-414"/>
<text text-anchor="middle" x="210.5" y="-392.3" font-family="Times,serif" font-size="14.00" fill="#000000">MarketSummaryDataBean:MarketSummaryDataBean [overloaded_#002]</text>
</g>
<!-- 139748184451560 -->
<g id="node9" class="node">
<title>139748184451560</title>
<polygon fill="none" stroke="#000000" points="332,-468 89,-468 89,-432 332,-432 332,-468"/>
<text text-anchor="middle" x="210.5" y="-446.3" font-family="Times,serif" font-size="14.00" fill="#000000">MarketSummaryDataBean:getOpenTSIA</text>
</g>
<!-- 139748184452624 -->
<g id="node10" class="node">
<title>139748184452624</title>
<polygon fill="none" stroke="#000000" points="317.5,-522 103.5,-522 103.5,-486 317.5,-486 317.5,-522"/>
<text text-anchor="middle" x="210.5" y="-500.3" font-family="Times,serif" font-size="14.00" fill="#000000">MarketSummaryDataBean:getTSIA</text>
</g>
<!-- 139748184452792 -->
<g id="node11" class="node">
<title>139748184452792</title>
<polygon fill="none" stroke="#000000" points="331.5,-576 89.5,-576 89.5,-540 331.5,-540 331.5,-576"/>
<text text-anchor="middle" x="210.5" y="-554.3" font-family="Times,serif" font-size="14.00" fill="#000000">MarketSummaryDataBean:setOpenTSIA</text>
</g>
<!-- 139748184451112 -->
<g id="node12" class="node">
<title>139748184451112</title>
<polygon fill="none" stroke="#000000" points="341.5,-630 79.5,-630 79.5,-594 341.5,-594 341.5,-630"/>
<text text-anchor="middle" x="210.5" y="-608.3" font-family="Times,serif" font-size="14.00" fill="#000000">MarketSummaryDataBean:setSummaryDate</text>
</g>
<!-- 139748184451336 -->
<g id="node13" class="node">
<title>139748184451336</title>
<polygon fill="none" stroke="#000000" points="316.5,-684 104.5,-684 104.5,-648 316.5,-648 316.5,-684"/>
<text text-anchor="middle" x="210.5" y="-662.3" font-family="Times,serif" font-size="14.00" fill="#000000">MarketSummaryDataBean:setTSIA</text>
</g>
<!-- 139748184452176 -->
<g id="node14" class="node">
<title>139748184452176</title>
<polygon fill="none" stroke="#000000" points="333.5,-738 87.5,-738 87.5,-702 333.5,-702 333.5,-738"/>
<text text-anchor="middle" x="210.5" y="-716.3" font-family="Times,serif" font-size="14.00" fill="#000000">MarketSummaryDataBean:setTopGainers</text>
</g>
<!-- 139748184452400 -->
<g id="node15" class="node">
<title>139748184452400</title>
<polygon fill="none" stroke="#000000" points="330.5,-792 90.5,-792 90.5,-756 330.5,-756 330.5,-792"/>
<text text-anchor="middle" x="210.5" y="-770.3" font-family="Times,serif" font-size="14.00" fill="#000000">MarketSummaryDataBean:setTopLosers</text>
</g>
<!-- 139748184450776 -->
<g id="node16" class="node">
<title>139748184450776</title>
<polygon fill="none" stroke="#000000" points="324,-846 97,-846 97,-810 324,-810 324,-846"/>
<text text-anchor="middle" x="210.5" y="-824.3" font-family="Times,serif" font-size="14.00" fill="#000000">MarketSummaryDataBean:setVolume</text>
</g>
<!-- 139748184452680 -->
<g id="node17" class="node">
<title>139748184452680</title>
<polygon fill="none" stroke="#000000" points="374.5,-900 46.5,-900 46.5,-864 374.5,-864 374.5,-900"/>
<text text-anchor="middle" x="210.5" y="-878.3" font-family="Times,serif" font-size="14.00" fill="#000000">MarketSummarySingleton:setMarketSummaryDataBean</text>
</g>
<!-- 139748184452008 -->
<g id="node18" class="node">
<title>139748184452008</title>
<polygon fill="none" stroke="#000000" points="753,-990 457,-990 457,-954 753,-954 753,-990"/>
<text text-anchor="middle" x="605" y="-968.3" font-family="Times,serif" font-size="14.00" fill="#000000">MarketSummarySingleton:updateMarketSummary</text>
</g>
<!-- 139748184626008 -->
<g id="node60" class="node">
<title>139748184626008</title>
<ellipse fill="none" stroke="#000000" cx="816" cy="-945" rx="27" ry="27"/>
<text text-anchor="middle" x="816" y="-941.3" font-family="Times,serif" font-size="14.00" fill="#000000">({&#39;MarketSummarySingleton:updateMarketSummary&#39;, &#39;TradeConfigServlet:service&#39;}, {&#39;Root&#39;})</text>
</g>
<!-- 139748184452008&#45;&gt;139748184626008 -->
<g id="edge4" class="edge">
<title>139748184452008&#45;&gt;139748184626008</title>
<path fill="none" stroke="#000000" d="M745.7401,-953.9906C757.7313,-952.4562 769.0363,-951.0096 778.9293,-949.7436"/>
<polygon fill="#000000" stroke="#000000" points="779.601,-953.1863 789.0758,-948.4453 778.7124,-946.2429 779.601,-953.1863"/>
</g>
<!-- 139748184449936 -->
<g id="node19" class="node">
<title>139748184449936</title>
<polygon fill="none" stroke="#000000" points="933,-963 879,-963 879,-927 933,-927 933,-963"/>
<text text-anchor="middle" x="906" y="-941.3" font-family="Times,serif" font-size="14.00" fill="#000000">Root</text>
</g>
<!-- 139748184625504 -->
<g id="node61" class="node">
<title>139748184625504</title>
<ellipse fill="#ffa500" stroke="#000000" cx="996" cy="-945" rx="27" ry="27"/>
</g>
<!-- 139748184449936&#45;&gt;139748184625504 -->
<g id="edge5" class="edge">
<title>139748184449936&#45;&gt;139748184625504</title>
<path fill="none" stroke="#000000" d="M933.003,-945C941.0277,-945 949.9665,-945 958.5309,-945"/>
<polygon fill="#000000" stroke="#000000" points="958.7051,-948.5001 968.705,-945 958.705,-941.5001 958.7051,-948.5001"/>
</g>
<!-- 139748184451952 -->
<g id="node20" class="node">
<title>139748184451952</title>
<polygon fill="none" stroke="#000000" points="354,-1026 67,-1026 67,-990 354,-990 354,-1026"/>
<text text-anchor="middle" x="210.5" y="-1004.3" font-family="Times,serif" font-size="14.00" fill="#000000">TradeBuildDB:TradeBuildDB [overloaded_#002]</text>
</g>
<!-- 139748184450048 -->
<g id="node21" class="node">
<title>139748184450048</title>
<polygon fill="none" stroke="#000000" points="314,-1080 107,-1080 107,-1044 314,-1044 314,-1080"/>
<text text-anchor="middle" x="210.5" y="-1058.3" font-family="Times,serif" font-size="14.00" fill="#000000">TradeBuildDB:parseDDLToBuffer</text>
</g>
<!-- 139748184449768 -->
<g id="node22" class="node">
<title>139748184449768</title>
<polygon fill="none" stroke="#000000" points="297,-1134 124,-1134 124,-1098 297,-1098 297,-1134"/>
<text text-anchor="middle" x="210.5" y="-1112.3" font-family="Times,serif" font-size="14.00" fill="#000000">TradeConfig:getActionTrace</text>
</g>
<!-- 139748184450440 -->
<g id="node23" class="node">
<title>139748184450440</title>
<polygon fill="none" stroke="#000000" points="316.5,-1188 104.5,-1188 104.5,-1152 316.5,-1152 316.5,-1188"/>
<text text-anchor="middle" x="210.5" y="-1166.3" font-family="Times,serif" font-size="14.00" fill="#000000">TradeConfig:getDisplayOrderAlerts</text>
</g>
<!-- 139748184450552 -->
<g id="node24" class="node">
<title>139748184450552</title>
<polygon fill="none" stroke="#000000" points="289,-1242 132,-1242 132,-1206 289,-1206 289,-1242"/>
<text text-anchor="middle" x="210.5" y="-1220.3" font-family="Times,serif" font-size="14.00" fill="#000000">TradeConfig:getLongRun</text>
</g>
<!-- 139748184451448 -->
<g id="node25" class="node">
<title>139748184451448</title>
<polygon fill="none" stroke="#000000" points="309.5,-1296 111.5,-1296 111.5,-1260 309.5,-1260 309.5,-1296"/>
<text text-anchor="middle" x="210.5" y="-1274.3" font-family="Times,serif" font-size="14.00" fill="#000000">TradeConfig:getMAX_QUOTES</text>
</g>
<!-- 139748184450608 -->
<g id="node26" class="node">
<title>139748184450608</title>
<polygon fill="none" stroke="#000000" points="304,-1350 117,-1350 117,-1314 304,-1314 304,-1350"/>
<text text-anchor="middle" x="210.5" y="-1328.3" font-family="Times,serif" font-size="14.00" fill="#000000">TradeConfig:getMAX_USERS</text>
</g>
<!-- 139748184452512 -->
<g id="node27" class="node">
<title>139748184452512</title>
<polygon fill="none" stroke="#000000" points="331.5,-1404 89.5,-1404 89.5,-1368 331.5,-1368 331.5,-1404"/>
<text text-anchor="middle" x="210.5" y="-1382.3" font-family="Times,serif" font-size="14.00" fill="#000000">TradeConfig:getMarketSummaryInterval</text>
</g>
<!-- 139748184450104 -->
<g id="node28" class="node">
<title>139748184450104</title>
<polygon fill="none" stroke="#000000" points="276.5,-1458 144.5,-1458 144.5,-1422 276.5,-1422 276.5,-1458"/>
<text text-anchor="middle" x="210.5" y="-1436.3" font-family="Times,serif" font-size="14.00" fill="#000000">TradeConfig:getPage</text>
</g>
<!-- 139748184450888 -->
<g id="node29" class="node">
<title>139748184450888</title>
<polygon fill="none" stroke="#000000" points="333.5,-1512 87.5,-1512 87.5,-1476 333.5,-1476 333.5,-1512"/>
<text text-anchor="middle" x="210.5" y="-1490.3" font-family="Times,serif" font-size="14.00" fill="#000000">TradeConfig:getPercentSentToWebsocket</text>
</g>
<!-- 139748184452064 -->
<g id="node30" class="node">
<title>139748184452064</title>
<polygon fill="none" stroke="#000000" points="302.5,-1566 118.5,-1566 118.5,-1530 302.5,-1530 302.5,-1566"/>
<text text-anchor="middle" x="210.5" y="-1544.3" font-family="Times,serif" font-size="14.00" fill="#000000">TradeConfig:getPrimIterations</text>
</g>
<!-- 139748184451056 -->
<g id="node31" class="node">
<title>139748184451056</title>
<polygon fill="none" stroke="#000000" points="334.5,-1620 86.5,-1620 86.5,-1584 334.5,-1584 334.5,-1620"/>
<text text-anchor="middle" x="210.5" y="-1598.3" font-family="Times,serif" font-size="14.00" fill="#000000">TradeConfig:getPublishQuotePriceChange</text>
</g>
<!-- 139748184450384 -->
<g id="node32" class="node">
<title>139748184450384</title>
<polygon fill="none" stroke="#000000" points="305.5,-1674 115.5,-1674 115.5,-1638 305.5,-1638 305.5,-1674"/>
<text text-anchor="middle" x="210.5" y="-1652.3" font-family="Times,serif" font-size="14.00" fill="#000000">TradeConfig:getRunTimeMode</text>
</g>
<!-- 139748184450216 -->
<g id="node33" class="node">
<title>139748184450216</title>
<polygon fill="none" stroke="#000000" points="279,-1728 142,-1728 142,-1692 279,-1692 279,-1728"/>
<text text-anchor="middle" x="210.5" y="-1706.3" font-family="Times,serif" font-size="14.00" fill="#000000">TradeConfig:getTrace</text>
</g>
<!-- 139748184451392 -->
<g id="node34" class="node">
<title>139748184451392</title>
<polygon fill="none" stroke="#000000" points="296.5,-1782 124.5,-1782 124.5,-1746 296.5,-1746 296.5,-1782"/>
<text text-anchor="middle" x="210.5" y="-1760.3" font-family="Times,serif" font-size="14.00" fill="#000000">TradeConfig:setActionTrace</text>
</g>
<!-- 139748184450328 -->
<g id="node35" class="node">
<title>139748184450328</title>
<polygon fill="none" stroke="#000000" points="316,-1836 105,-1836 105,-1800 316,-1800 316,-1836"/>
<text text-anchor="middle" x="210.5" y="-1814.3" font-family="Times,serif" font-size="14.00" fill="#000000">TradeConfig:setDisplayOrderAlerts</text>
</g>
<!-- 139748184452904 -->
<g id="node36" class="node">
<title>139748184452904</title>
<polygon fill="none" stroke="#000000" points="288,-1890 133,-1890 133,-1854 288,-1854 288,-1890"/>
<text text-anchor="middle" x="210.5" y="-1868.3" font-family="Times,serif" font-size="14.00" fill="#000000">TradeConfig:setLongRun</text>
</g>
<!-- 139748184450832 -->
<g id="node37" class="node">
<title>139748184450832</title>
<polygon fill="none" stroke="#000000" points="309,-1944 112,-1944 112,-1908 309,-1908 309,-1944"/>
<text text-anchor="middle" x="210.5" y="-1922.3" font-family="Times,serif" font-size="14.00" fill="#000000">TradeConfig:setMAX_QUOTES</text>
</g>
<!-- 139748184453016 -->
<g id="node38" class="node">
<title>139748184453016</title>
<polygon fill="none" stroke="#000000" points="303,-1998 118,-1998 118,-1962 303,-1962 303,-1998"/>
<text text-anchor="middle" x="210.5" y="-1976.3" font-family="Times,serif" font-size="14.00" fill="#000000">TradeConfig:setMAX_USERS</text>
</g>
<!-- 139748184452736 -->
<g id="node39" class="node">
<title>139748184452736</title>
<polygon fill="none" stroke="#000000" points="330.5,-2052 90.5,-2052 90.5,-2016 330.5,-2016 330.5,-2052"/>
<text text-anchor="middle" x="210.5" y="-2030.3" font-family="Times,serif" font-size="14.00" fill="#000000">TradeConfig:setMarketSummaryInterval</text>
</g>
<!-- 139748184451224 -->
<g id="node40" class="node">
<title>139748184451224</title>
<polygon fill="none" stroke="#000000" points="324,-2106 97,-2106 97,-2070 324,-2070 324,-2106"/>
<text text-anchor="middle" x="210.5" y="-2084.3" font-family="Times,serif" font-size="14.00" fill="#000000">TradeConfig:setOrderProcessingMode</text>
</g>
<!-- 139748184452848 -->
<g id="node41" class="node">
<title>139748184452848</title>
<polygon fill="none" stroke="#000000" points="333,-2160 88,-2160 88,-2124 333,-2124 333,-2160"/>
<text text-anchor="middle" x="210.5" y="-2138.3" font-family="Times,serif" font-size="14.00" fill="#000000">TradeConfig:setPercentSentToWebsocket</text>
</g>
<!-- 139748184450272 -->
<g id="node42" class="node">
<title>139748184450272</title>
<polygon fill="none" stroke="#000000" points="301.5,-2214 119.5,-2214 119.5,-2178 301.5,-2178 301.5,-2214"/>
<text text-anchor="middle" x="210.5" y="-2192.3" font-family="Times,serif" font-size="14.00" fill="#000000">TradeConfig:setPrimIterations</text>
</g>
<!-- 139748184450160 -->
<g id="node43" class="node">
<title>139748184450160</title>
<polygon fill="none" stroke="#000000" points="334,-2268 87,-2268 87,-2232 334,-2232 334,-2268"/>
<text text-anchor="middle" x="210.5" y="-2246.3" font-family="Times,serif" font-size="14.00" fill="#000000">TradeConfig:setPublishQuotePriceChange</text>
</g>
<!-- 139748184449824 -->
<g id="node44" class="node">
<title>139748184449824</title>
<polygon fill="none" stroke="#000000" points="304.5,-2322 116.5,-2322 116.5,-2286 304.5,-2286 304.5,-2322"/>
<text text-anchor="middle" x="210.5" y="-2300.3" font-family="Times,serif" font-size="14.00" fill="#000000">TradeConfig:setRunTimeMode</text>
</g>
<!-- 139748184452960 -->
<g id="node45" class="node">
<title>139748184452960</title>
<polygon fill="none" stroke="#000000" points="278,-2376 143,-2376 143,-2340 278,-2340 278,-2376"/>
<text text-anchor="middle" x="210.5" y="-2354.3" font-family="Times,serif" font-size="14.00" fill="#000000">TradeConfig:setTrace</text>
</g>
<!-- 139748184449992 -->
<g id="node46" class="node">
<title>139748184449992</title>
<polygon fill="none" stroke="#000000" points="300,-2430 121,-2430 121,-2394 300,-2394 300,-2430"/>
<text text-anchor="middle" x="210.5" y="-2408.3" font-family="Times,serif" font-size="14.00" fill="#000000">TradeConfig:setWebInterface</text>
</g>
<!-- 139748184450944 -->
<g id="node47" class="node">
<title>139748184450944</title>
<polygon fill="none" stroke="#000000" points="321,-2484 100,-2484 100,-2448 321,-2448 321,-2484"/>
<text text-anchor="middle" x="210.5" y="-2462.3" font-family="Times,serif" font-size="14.00" fill="#000000">TradeConfig:useRemoteEJBInterface</text>
</g>
<!-- 139748184449712 -->
<g id="node48" class="node">
<title>139748184449712</title>
<polygon fill="none" stroke="#000000" points="321,-2538 100,-2538 100,-2502 321,-2502 321,-2538"/>
<text text-anchor="middle" x="210.5" y="-2516.3" font-family="Times,serif" font-size="14.00" fill="#000000">TradeConfigServlet:doConfigDisplay</text>
</g>
<!-- 139748184450496 -->
<g id="node49" class="node">
<title>139748184450496</title>
<polygon fill="none" stroke="#000000" points="319.5,-2592 101.5,-2592 101.5,-2556 319.5,-2556 319.5,-2592"/>
<text text-anchor="middle" x="210.5" y="-2570.3" font-family="Times,serif" font-size="14.00" fill="#000000">TradeConfigServlet:doConfigUpdate</text>
</g>
<!-- 139748184451280 -->
<g id="node50" class="node">
<title>139748184451280</title>
<polygon fill="none" stroke="#000000" points="688,-936 522,-936 522,-900 688,-900 688,-936"/>
<text text-anchor="middle" x="605" y="-914.3" font-family="Times,serif" font-size="14.00" fill="#000000">TradeConfigServlet:service</text>
</g>
<!-- 139748184451280&#45;&gt;139748184626008 -->
<g id="edge6" class="edge">
<title>139748184451280&#45;&gt;139748184626008</title>
<path fill="none" stroke="#000000" d="M688.0899,-928.6324C719.5733,-932.661 753.8482,-937.0469 778.9867,-940.2637"/>
<polygon fill="#000000" stroke="#000000" points="778.8029,-943.7686 789.1663,-941.5663 779.6914,-936.8253 778.8029,-943.7686"/>
</g>
<!-- 139748184450664 -->
<g id="node51" class="node">
<title>139748184450664</title>
<polygon fill="none" stroke="#000000" points="339,-2646 82,-2646 82,-2610 339,-2610 339,-2646"/>
<text text-anchor="middle" x="210.5" y="-2624.3" font-family="Times,serif" font-size="14.00" fill="#000000">TradeDirect:TradeDirect [overloaded_#001]</text>
</g>
<!-- 139748184452232 -->
<g id="node52" class="node">
<title>139748184452232</title>
<polygon fill="none" stroke="#000000" points="316,-2700 105,-2700 105,-2664 316,-2664 316,-2700"/>
<text text-anchor="middle" x="210.5" y="-2678.3" font-family="Times,serif" font-size="14.00" fill="#000000">TradeDirect:checkDBProductName</text>
</g>
<!-- 139748184451168 -->
<g id="node53" class="node">
<title>139748184451168</title>
<polygon fill="none" stroke="#000000" points="274.5,-2754 146.5,-2754 146.5,-2718 274.5,-2718 274.5,-2754"/>
<text text-anchor="middle" x="210.5" y="-2732.3" font-family="Times,serif" font-size="14.00" fill="#000000">TradeDirect:commit</text>
</g>
<!-- 139748184452568 -->
<g id="node54" class="node">
<title>139748184452568</title>
<polygon fill="none" stroke="#000000" points="276,-2808 145,-2808 145,-2772 276,-2772 276,-2808"/>
<text text-anchor="middle" x="210.5" y="-2786.3" font-family="Times,serif" font-size="14.00" fill="#000000">TradeDirect:getConn</text>
</g>
<!-- 139748184451504 -->
<g id="node55" class="node">
<title>139748184451504</title>
<polygon fill="none" stroke="#000000" points="296.5,-2862 124.5,-2862 124.5,-2826 296.5,-2826 296.5,-2862"/>
<text text-anchor="middle" x="210.5" y="-2840.3" font-family="Times,serif" font-size="14.00" fill="#000000">TradeDirect:getInGlobalTxn</text>
</g>
<!-- 139748184452344 -->
<g id="node56" class="node">
<title>139748184452344</title>
<polygon fill="none" stroke="#000000" points="302,-2916 119,-2916 119,-2880 302,-2880 302,-2916"/>
<text text-anchor="middle" x="210.5" y="-2894.3" font-family="Times,serif" font-size="14.00" fill="#000000">TradeDirect:recreateDBTables</text>
</g>
<!-- 139748184452456 -->
<g id="node57" class="node">
<title>139748184452456</title>
<polygon fill="none" stroke="#000000" points="286.5,-2970 134.5,-2970 134.5,-2934 286.5,-2934 286.5,-2970"/>
<text text-anchor="middle" x="210.5" y="-2948.3" font-family="Times,serif" font-size="14.00" fill="#000000">TradeDirect:releaseConn</text>
</g>
<!-- 139748184451000 -->
<g id="node58" class="node">
<title>139748184451000</title>
<polygon fill="none" stroke="#000000" points="261,-3024 160,-3024 160,-2988 261,-2988 261,-3024"/>
<text text-anchor="middle" x="210.5" y="-3002.3" font-family="Times,serif" font-size="14.00" fill="#000000">new MDBStats</text>
</g>
<!-- 139748184626904 -->
<g id="node59" class="node">
<title>139748184626904</title>
<ellipse fill="#00ff00" stroke="#000000" cx="210.5" cy="-945" rx="27" ry="27"/>
<text text-anchor="middle" x="210.5" y="-941.3" font-family="Times,serif" font-size="14.00" fill="#000000">1</text>
</g>
<!-- 139748184626904&#45;&gt;139748184452008 -->
<g id="edge2" class="edge">
<title>139748184626904&#45;&gt;139748184452008</title>
<path fill="none" stroke="#000000" d="M237.6156,-946.8558C280.686,-949.8036 367.9212,-955.7741 446.5792,-961.1575"/>
<polygon fill="#000000" stroke="#000000" points="446.4049,-964.6537 456.6205,-961.8448 446.8829,-957.67 446.4049,-964.6537"/>
</g>
<!-- 139748184626904&#45;&gt;139748184451280 -->
<g id="edge3" class="edge">
<title>139748184626904&#45;&gt;139748184451280</title>
<path fill="none" stroke="#000000" d="M237.6156,-943.1442C293.1815,-939.3412 422.2554,-930.5072 511.5856,-924.3934"/>
<polygon fill="#000000" stroke="#000000" points="511.9927,-927.8738 521.7303,-923.6991 511.5146,-920.8901 511.9927,-927.8738"/>
</g>
<!-- 139748184626008&#45;&gt;139748184449936 -->
<g id="edge1" class="edge">
<title>139748184626008&#45;&gt;139748184449936</title>
<path fill="none" stroke="#000000" d="M843.003,-945C851.0277,-945 859.9665,-945 868.5309,-945"/>
<polygon fill="#000000" stroke="#000000" points="868.7051,-948.5001 878.705,-945 868.705,-941.5001 868.7051,-948.5001"/>
</g>
</g>
</svg>
