<?xml version="1.0" encoding="UTF-8" standalone="no"?>
<!DOCTYPE svg PUBLIC "-//W3C//DTD SVG 1.1//EN"
 "http://www.w3.org/Graphics/SVG/1.1/DTD/svg11.dtd">
<!-- Generated by graphviz version 2.40.1 (20161225.0304)
 -->
<!-- Title: %3 Pages: 1 -->
<svg width="1974pt" height="344pt"
 viewBox="0.00 0.00 1974.00 344.00" xmlns="http://www.w3.org/2000/svg" xmlns:xlink="http://www.w3.org/1999/xlink">
<g id="graph0" class="graph" transform="scale(1 1) rotate(0) translate(4 340)">
<title>%3</title>
<!-- 140219167028952 -->
<g id="node1" class="node">
<title>140219167028952</title>
<polygon fill="none" stroke="#000000" points="598,-326 270,-326 270,-290 598,-290 598,-326"/>
<text text-anchor="middle" x="434" y="-304.3" font-family="Times,serif" font-size="14.00" fill="#000000">MarketSummarySingleton:setMarketSummaryDataBean</text>
</g>
<!-- 140219167027776 -->
<g id="node28" class="node">
<title>140219167027776</title>
<ellipse fill="none" stroke="#000000" cx="661" cy="-281" rx="27" ry="27"/>
<text text-anchor="middle" x="661" y="-277.3" font-family="Times,serif" font-size="14.00" fill="#000000">splace_in_MarketSummarySingleton:updateMarketSummary_0</text>
</g>
<!-- 140219167028952&#45;&gt;140219167027776 -->
<g id="edge1" class="edge">
<title>140219167028952&#45;&gt;140219167027776</title>
<path fill="none" stroke="#000000" d="M585.4123,-289.9906C599.4641,-288.3192 612.64,-286.7521 623.931,-285.4091"/>
<polygon fill="#000000" stroke="#000000" points="624.6292,-288.8508 634.1458,-284.1941 623.8024,-281.8998 624.6292,-288.8508"/>
</g>
<!-- 140219167028336 -->
<g id="node2" class="node">
<title>140219167028336</title>
<polygon fill="none" stroke="#000000" points="1200,-246 904,-246 904,-210 1200,-210 1200,-246"/>
<text text-anchor="middle" x="1052" y="-224.3" font-family="Times,serif" font-size="14.00" fill="#000000">MarketSummarySingleton:updateMarketSummary</text>
</g>
<!-- 140219167706360 -->
<g id="node20" class="node">
<title>140219167706360</title>
<ellipse fill="none" stroke="#000000" cx="1263" cy="-204" rx="27" ry="27"/>
<text text-anchor="middle" x="1263" y="-200.3" font-family="Times,serif" font-size="14.00" fill="#000000">intplace_MarketSummarySingleton:updateMarketSummary</text>
</g>
<!-- 140219167028336&#45;&gt;140219167706360 -->
<g id="edge2" class="edge">
<title>140219167028336&#45;&gt;140219167706360</title>
<path fill="none" stroke="#000000" d="M1200.2643,-211.1358C1209.4307,-210.0932 1218.0786,-209.1095 1225.8562,-208.2249"/>
<polygon fill="#000000" stroke="#000000" points="1226.3491,-211.6915 1235.8894,-207.0837 1225.5579,-204.7363 1226.3491,-211.6915"/>
</g>
<!-- 140219167030800 -->
<g id="node3" class="node">
<title>140219167030800</title>
<polygon fill="none" stroke="#000000" points="1876,-83 1822,-83 1822,-47 1876,-47 1876,-83"/>
<text text-anchor="middle" x="1849" y="-61.3" font-family="Times,serif" font-size="14.00" fill="#000000">Root</text>
</g>
<!-- 140219167030632 -->
<g id="node33" class="node">
<title>140219167030632</title>
<ellipse fill="#ffa500" stroke="#000000" cx="1939" cy="-65" rx="27" ry="27"/>
</g>
<!-- 140219167030800&#45;&gt;140219167030632 -->
<g id="edge3" class="edge">
<title>140219167030800&#45;&gt;140219167030632</title>
<path fill="none" stroke="#000000" d="M1876.003,-65C1884.0277,-65 1892.9665,-65 1901.5309,-65"/>
<polygon fill="#000000" stroke="#000000" points="1901.7051,-68.5001 1911.705,-65 1901.705,-61.5001 1901.7051,-68.5001"/>
</g>
<!-- 140219167028840 -->
<g id="node4" class="node">
<title>140219167028840</title>
<polygon fill="none" stroke="#000000" points="1696,-204 1506,-204 1506,-168 1696,-168 1696,-204"/>
<text text-anchor="middle" x="1601" y="-182.3" font-family="Times,serif" font-size="14.00" fill="#000000">TradeConfig:getRunTimeMode</text>
</g>
<!-- 140219167027272 -->
<g id="node29" class="node">
<title>140219167027272</title>
<ellipse fill="none" stroke="#000000" cx="1759" cy="-218" rx="27" ry="27"/>
<text text-anchor="middle" x="1759" y="-214.3" font-family="Times,serif" font-size="14.00" fill="#000000">splace_in_MarketSummarySingleton:updateMarketSummary_1</text>
</g>
<!-- 140219167028840&#45;&gt;140219167027272 -->
<g id="edge4" class="edge">
<title>140219167028840&#45;&gt;140219167027272</title>
<path fill="none" stroke="#000000" d="M1690.1585,-204.0574C1701.4675,-206.3479 1712.4941,-208.5811 1722.2905,-210.5652"/>
<polygon fill="#000000" stroke="#000000" points="1721.8971,-214.0565 1732.3928,-212.6112 1723.2866,-207.1958 1721.8971,-214.0565"/>
</g>
<!-- 140219167028784 -->
<g id="node5" class="node">
<title>140219167028784</title>
<polygon fill="none" stroke="#000000" points="1135,-128 969,-128 969,-92 1135,-92 1135,-128"/>
<text text-anchor="middle" x="1052" y="-106.3" font-family="Times,serif" font-size="14.00" fill="#000000">TradeConfigServlet:service</text>
</g>
<!-- 140219167707032 -->
<g id="node21" class="node">
<title>140219167707032</title>
<ellipse fill="none" stroke="#000000" cx="27" cy="-82" rx="27" ry="27"/>
<text text-anchor="middle" x="27" y="-78.3" font-family="Times,serif" font-size="14.00" fill="#000000">intplace_TradeConfigServlet:service</text>
</g>
<!-- 140219167028784&#45;&gt;140219167707032 -->
<g id="edge5" class="edge">
<title>140219167028784&#45;&gt;140219167707032</title>
<path fill="none" stroke="#000000" d="M968.8269,-98.0849C908.499,-90.464 824.8692,-82 751,-82 207,-82 207,-82 207,-82 157.6525,-82 100.695,-82 64.2925,-82"/>
<polygon fill="#000000" stroke="#000000" points="64.1403,-78.5001 54.1403,-82 64.1402,-85.5001 64.1403,-78.5001"/>
</g>
<!-- 140219167029176 -->
<g id="node6" class="node">
<title>140219167029176</title>
<polygon fill="none" stroke="#000000" points="562.5,-155 305.5,-155 305.5,-119 562.5,-119 562.5,-155"/>
<text text-anchor="middle" x="434" y="-133.3" font-family="Times,serif" font-size="14.00" fill="#000000">TradeDirect:TradeDirect [overloaded_#001]</text>
</g>
<!-- 140219167030520 -->
<g id="node32" class="node">
<title>140219167030520</title>
<ellipse fill="none" stroke="#000000" cx="661" cy="-137" rx="27" ry="27"/>
<text text-anchor="middle" x="661" y="-133.3" font-family="Times,serif" font-size="14.00" fill="#000000">splace_in_TradeConfigServlet:service_0</text>
</g>
<!-- 140219167029176&#45;&gt;140219167030520 -->
<g id="edge6" class="edge">
<title>140219167029176&#45;&gt;140219167030520</title>
<path fill="none" stroke="#000000" d="M562.7547,-137C584.9634,-137 606.3785,-137 623.515,-137"/>
<polygon fill="#000000" stroke="#000000" points="623.6009,-140.5001 633.6008,-137 623.6008,-133.5001 623.6009,-140.5001"/>
</g>
<!-- 140219167030464 -->
<g id="node7" class="node">
<title>140219167030464</title>
<polygon fill="none" stroke="#000000" points="778,-146 724,-146 724,-110 778,-110 778,-146"/>
<text text-anchor="middle" x="751" y="-124.3" font-family="Times,serif" font-size="14.00" fill="#000000">hid_1</text>
</g>
<!-- 140219167028560 -->
<g id="node26" class="node">
<title>140219167028560</title>
<ellipse fill="none" stroke="#000000" cx="841" cy="-137" rx="27" ry="27"/>
<text text-anchor="middle" x="841" y="-133.3" font-family="Times,serif" font-size="14.00" fill="#000000">pre_TradeConfigServlet:service</text>
</g>
<!-- 140219167030464&#45;&gt;140219167028560 -->
<g id="edge7" class="edge">
<title>140219167030464&#45;&gt;140219167028560</title>
<path fill="none" stroke="#000000" d="M778.003,-130.7003C786.1903,-131.519 795.3292,-132.4329 804.051,-133.3051"/>
<polygon fill="#000000" stroke="#000000" points="803.7174,-136.7891 814.0161,-134.3016 804.414,-129.8239 803.7174,-136.7891"/>
</g>
<!-- 140219167704512 -->
<g id="node8" class="node">
<title>140219167704512</title>
<polygon fill="none" stroke="#000000" points="1380,-251 1326,-251 1326,-215 1380,-215 1380,-251"/>
<text text-anchor="middle" x="1353" y="-229.3" font-family="Times,serif" font-size="14.00" fill="#000000">hid_10</text>
</g>
<!-- 140219167028112 -->
<g id="node22" class="node">
<title>140219167028112</title>
<ellipse fill="none" stroke="#000000" cx="1443" cy="-242" rx="27" ry="27"/>
<text text-anchor="middle" x="1443" y="-238.3" font-family="Times,serif" font-size="14.00" fill="#000000">pre_MarketSummarySingleton:setMarketSummaryDataBean</text>
</g>
<!-- 140219167704512&#45;&gt;140219167028112 -->
<g id="edge8" class="edge">
<title>140219167704512&#45;&gt;140219167028112</title>
<path fill="none" stroke="#000000" d="M1380.003,-235.7003C1388.1903,-236.519 1397.3292,-237.4329 1406.051,-238.3051"/>
<polygon fill="#000000" stroke="#000000" points="1405.7174,-241.7891 1416.0161,-239.3016 1406.414,-234.8239 1405.7174,-241.7891"/>
</g>
<!-- 140219167704064 -->
<g id="node9" class="node">
<title>140219167704064</title>
<polygon fill="none" stroke="#000000" points="1380,-119 1326,-119 1326,-83 1380,-83 1380,-119"/>
<text text-anchor="middle" x="1353" y="-97.3" font-family="Times,serif" font-size="14.00" fill="#000000">hid_11</text>
</g>
<!-- 140219167028280 -->
<g id="node30" class="node">
<title>140219167028280</title>
<ellipse fill="none" stroke="#000000" cx="1443" cy="-94" rx="27" ry="27"/>
<text text-anchor="middle" x="1443" y="-90.3" font-family="Times,serif" font-size="14.00" fill="#000000">splace_in_Root_0</text>
</g>
<!-- 140219167704064&#45;&gt;140219167028280 -->
<g id="edge9" class="edge">
<title>140219167704064&#45;&gt;140219167028280</title>
<path fill="none" stroke="#000000" d="M1380.003,-98.8998C1388.1013,-98.2699 1397.1306,-97.5676 1405.7665,-96.8959"/>
<polygon fill="#000000" stroke="#000000" points="1406.3176,-100.3637 1416.0161,-96.0987 1405.7748,-93.3848 1406.3176,-100.3637"/>
</g>
<!-- 140219167703504 -->
<g id="node10" class="node">
<title>140219167703504</title>
<polygon fill="none" stroke="#000000" points="1380,-193 1326,-193 1326,-157 1380,-157 1380,-193"/>
<text text-anchor="middle" x="1353" y="-171.3" font-family="Times,serif" font-size="14.00" fill="#000000">hid_12</text>
</g>
<!-- 140219167030744 -->
<g id="node25" class="node">
<title>140219167030744</title>
<ellipse fill="none" stroke="#000000" cx="1443" cy="-170" rx="27" ry="27"/>
<text text-anchor="middle" x="1443" y="-166.3" font-family="Times,serif" font-size="14.00" fill="#000000">pre_TradeConfig:getRunTimeMode</text>
</g>
<!-- 140219167703504&#45;&gt;140219167030744 -->
<g id="edge10" class="edge">
<title>140219167703504&#45;&gt;140219167030744</title>
<path fill="none" stroke="#000000" d="M1380.003,-173.4998C1388.1013,-173.0499 1397.1306,-172.5483 1405.7665,-172.0685"/>
<polygon fill="#000000" stroke="#000000" points="1406.2257,-175.5485 1416.0161,-171.4991 1405.8373,-168.5593 1406.2257,-175.5485"/>
</g>
<!-- 140219167030240 -->
<g id="node11" class="node">
<title>140219167030240</title>
<polygon fill="none" stroke="#000000" points="778,-200 724,-200 724,-164 778,-164 778,-200"/>
<text text-anchor="middle" x="751" y="-178.3" font-family="Times,serif" font-size="14.00" fill="#000000">hid_2</text>
</g>
<!-- 140219167030240&#45;&gt;140219167028560 -->
<g id="edge11" class="edge">
<title>140219167030240&#45;&gt;140219167028560</title>
<path fill="none" stroke="#000000" d="M778.003,-168.4985C787.3415,-163.8292 797.9181,-158.5409 807.7017,-153.6492"/>
<polygon fill="#000000" stroke="#000000" points="809.3935,-156.7164 816.7725,-149.1137 806.263,-150.4554 809.3935,-156.7164"/>
</g>
<!-- 140219167028616 -->
<g id="node12" class="node">
<title>140219167028616</title>
<polygon fill="none" stroke="#000000" points="1628,-108 1574,-108 1574,-72 1628,-72 1628,-108"/>
<text text-anchor="middle" x="1601" y="-86.3" font-family="Times,serif" font-size="14.00" fill="#000000">hid_3</text>
</g>
<!-- 140219167029848 -->
<g id="node24" class="node">
<title>140219167029848</title>
<ellipse fill="none" stroke="#000000" cx="1759" cy="-65" rx="27" ry="27"/>
<text text-anchor="middle" x="1759" y="-61.3" font-family="Times,serif" font-size="14.00" fill="#000000">pre_Root</text>
</g>
<!-- 140219167028616&#45;&gt;140219167029848 -->
<g id="edge12" class="edge">
<title>140219167028616&#45;&gt;140219167029848</title>
<path fill="none" stroke="#000000" d="M1628.1612,-85.7023C1654.093,-81.5992 1693.3668,-75.385 1722.1201,-70.8354"/>
<polygon fill="#000000" stroke="#000000" points="1722.8632,-74.2615 1732.1933,-69.2416 1721.7691,-67.3475 1722.8632,-74.2615"/>
</g>
<!-- 140219167029120 -->
<g id="node13" class="node">
<title>140219167029120</title>
<polygon fill="none" stroke="#000000" points="1290,-48 1236,-48 1236,-12 1290,-12 1290,-48"/>
<text text-anchor="middle" x="1263" y="-26.3" font-family="Times,serif" font-size="14.00" fill="#000000">hid_4</text>
</g>
<!-- 140219167029120&#45;&gt;140219167029848 -->
<g id="edge13" class="edge">
<title>140219167029120&#45;&gt;140219167029848</title>
<path fill="none" stroke="#000000" d="M1290.0194,-31.9066C1373.3186,-37.7846 1626.2945,-55.6357 1721.8864,-62.3811"/>
<polygon fill="#000000" stroke="#000000" points="1721.7346,-65.879 1731.9561,-63.0917 1722.2273,-58.8964 1721.7346,-65.879"/>
</g>
<!-- 140219167027720 -->
<g id="node14" class="node">
<title>140219167027720</title>
<polygon fill="none" stroke="#000000" points="778,-308 724,-308 724,-272 778,-272 778,-308"/>
<text text-anchor="middle" x="751" y="-286.3" font-family="Times,serif" font-size="14.00" fill="#000000">hid_5</text>
</g>
<!-- 140219167031248 -->
<g id="node23" class="node">
<title>140219167031248</title>
<ellipse fill="none" stroke="#000000" cx="841" cy="-267" rx="27" ry="27"/>
<text text-anchor="middle" x="841" y="-263.3" font-family="Times,serif" font-size="14.00" fill="#000000">pre_MarketSummarySingleton:updateMarketSummary</text>
</g>
<!-- 140219167027720&#45;&gt;140219167031248 -->
<g id="edge14" class="edge">
<title>140219167027720&#45;&gt;140219167031248</title>
<path fill="none" stroke="#000000" d="M778.003,-283.0992C786.4298,-280.9457 795.8646,-278.5346 804.8152,-276.2472"/>
<polygon fill="#000000" stroke="#000000" points="805.8134,-279.6047 814.6355,-273.7376 804.0802,-272.8226 805.8134,-279.6047"/>
</g>
<!-- 140219167027664 -->
<g id="node15" class="node">
<title>140219167027664</title>
<polygon fill="none" stroke="#000000" points="1876,-299 1822,-299 1822,-263 1876,-263 1876,-299"/>
<text text-anchor="middle" x="1849" y="-277.3" font-family="Times,serif" font-size="14.00" fill="#000000">hid_6</text>
</g>
<!-- 140219167027664&#45;&gt;140219167031248 -->
<g id="edge15" class="edge">
<title>140219167027664&#45;&gt;140219167031248</title>
<path fill="none" stroke="#000000" d="M1821.8809,-283.8975C1776.3126,-288.5082 1681.4656,-297 1601,-297 1263,-297 1263,-297 1263,-297 1120.538,-297 951.703,-279.7785 878.2387,-271.4316"/>
<polygon fill="#000000" stroke="#000000" points="878.4403,-267.9319 868.1061,-270.2676 877.6413,-274.8861 878.4403,-267.9319"/>
</g>
<!-- 140219167027384 -->
<g id="node16" class="node">
<title>140219167027384</title>
<polygon fill="none" stroke="#000000" points="778,-254 724,-254 724,-218 778,-218 778,-254"/>
<text text-anchor="middle" x="751" y="-232.3" font-family="Times,serif" font-size="14.00" fill="#000000">hid_7</text>
</g>
<!-- 140219167027384&#45;&gt;140219167031248 -->
<g id="edge16" class="edge">
<title>140219167027384&#45;&gt;140219167031248</title>
<path fill="none" stroke="#000000" d="M778.003,-245.301C786.6725,-248.2872 796.4089,-251.6409 805.5874,-254.8023"/>
<polygon fill="#000000" stroke="#000000" points="804.6563,-258.1834 815.251,-258.1309 806.936,-251.565 804.6563,-258.1834"/>
</g>
<!-- 140219167707088 -->
<g id="node17" class="node">
<title>140219167707088</title>
<polygon fill="none" stroke="#000000" points="144,-50 90,-50 90,-14 144,-14 144,-50"/>
<text text-anchor="middle" x="117" y="-28.3" font-family="Times,serif" font-size="14.00" fill="#000000">hid_8</text>
</g>
<!-- 140219167030576 -->
<g id="node31" class="node">
<title>140219167030576</title>
<ellipse fill="none" stroke="#000000" cx="207" cy="-27" rx="27" ry="27"/>
<text text-anchor="middle" x="207" y="-23.3" font-family="Times,serif" font-size="14.00" fill="#000000">splace_in_Root_1</text>
</g>
<!-- 140219167707088&#45;&gt;140219167030576 -->
<g id="edge17" class="edge">
<title>140219167707088&#45;&gt;140219167030576</title>
<path fill="none" stroke="#000000" d="M144.003,-30.4998C152.1013,-30.0499 161.1306,-29.5483 169.7665,-29.0685"/>
<polygon fill="#000000" stroke="#000000" points="170.2257,-32.5485 180.0161,-28.4991 169.8373,-25.5593 170.2257,-32.5485"/>
</g>
<!-- 140219167706304 -->
<g id="node18" class="node">
<title>140219167706304</title>
<polygon fill="none" stroke="#000000" points="144,-150 90,-150 90,-114 144,-114 144,-150"/>
<text text-anchor="middle" x="117" y="-128.3" font-family="Times,serif" font-size="14.00" fill="#000000">hid_9</text>
</g>
<!-- 140219167028504 -->
<g id="node27" class="node">
<title>140219167028504</title>
<ellipse fill="none" stroke="#000000" cx="207" cy="-137" rx="27" ry="27"/>
<text text-anchor="middle" x="207" y="-133.3" font-family="Times,serif" font-size="14.00" fill="#000000">pre_TradeDirect:TradeDirect [overloaded_#001]</text>
</g>
<!-- 140219167706304&#45;&gt;140219167028504 -->
<g id="edge18" class="edge">
<title>140219167706304&#45;&gt;140219167028504</title>
<path fill="none" stroke="#000000" d="M144.003,-133.5002C152.1013,-133.9501 161.1306,-134.4517 169.7665,-134.9315"/>
<polygon fill="#000000" stroke="#000000" points="169.8373,-138.4407 180.0161,-135.5009 170.2257,-131.4515 169.8373,-138.4407"/>
</g>
<!-- 140219167029568 -->
<g id="node19" class="node">
<title>140219167029568</title>
<ellipse fill="#00ff00" stroke="#000000" cx="661" cy="-209" rx="27" ry="27"/>
<text text-anchor="middle" x="661" y="-205.3" font-family="Times,serif" font-size="14.00" fill="#000000">1</text>
</g>
<!-- 140219167029568&#45;&gt;140219167030240 -->
<g id="edge30" class="edge">
<title>140219167029568&#45;&gt;140219167030240</title>
<path fill="none" stroke="#000000" d="M687.0317,-201.1905C695.4955,-198.6514 705.055,-195.7835 714.1543,-193.0537"/>
<polygon fill="#000000" stroke="#000000" points="715.2013,-196.3938 723.7738,-190.1679 713.1898,-189.689 715.2013,-196.3938"/>
</g>
<!-- 140219167029568&#45;&gt;140219167027384 -->
<g id="edge31" class="edge">
<title>140219167029568&#45;&gt;140219167027384</title>
<path fill="none" stroke="#000000" d="M687.0317,-216.8095C695.4955,-219.3486 705.055,-222.2165 714.1543,-224.9463"/>
<polygon fill="#000000" stroke="#000000" points="713.1898,-228.311 723.7738,-227.8321 715.2013,-221.6062 713.1898,-228.311"/>
</g>
<!-- 140219167706360&#45;&gt;140219167704512 -->
<g id="edge19" class="edge">
<title>140219167706360&#45;&gt;140219167704512</title>
<path fill="none" stroke="#000000" d="M1289.0317,-212.388C1297.4955,-215.1152 1307.055,-218.1955 1316.1543,-221.1275"/>
<polygon fill="#000000" stroke="#000000" points="1315.1823,-224.4914 1325.7738,-224.2271 1317.3292,-217.8288 1315.1823,-224.4914"/>
</g>
<!-- 140219167706360&#45;&gt;140219167704064 -->
<g id="edge20" class="edge">
<title>140219167706360&#45;&gt;140219167704064</title>
<path fill="none" stroke="#000000" d="M1280.7811,-183.6505C1294.9969,-167.3813 1315.0177,-144.4687 1330.375,-126.8931"/>
<polygon fill="#000000" stroke="#000000" points="1333.121,-129.0697 1337.0653,-119.2364 1327.8498,-124.4638 1333.121,-129.0697"/>
</g>
<!-- 140219167706360&#45;&gt;140219167703504 -->
<g id="edge21" class="edge">
<title>140219167706360&#45;&gt;140219167703504</title>
<path fill="none" stroke="#000000" d="M1289.0317,-195.612C1297.4955,-192.8848 1307.055,-189.8045 1316.1543,-186.8725"/>
<polygon fill="#000000" stroke="#000000" points="1317.3292,-190.1712 1325.7738,-183.7729 1315.1823,-183.5086 1317.3292,-190.1712"/>
</g>
<!-- 140219167707032&#45;&gt;140219167707088 -->
<g id="edge22" class="edge">
<title>140219167707032&#45;&gt;140219167707088</title>
<path fill="none" stroke="#000000" d="M50.6464,-68.8631C59.9112,-63.716 70.7479,-57.6956 80.9459,-52.03"/>
<polygon fill="#000000" stroke="#000000" points="82.646,-55.0895 89.6878,-47.1734 79.2465,-48.9704 82.646,-55.0895"/>
</g>
<!-- 140219167707032&#45;&gt;140219167706304 -->
<g id="edge23" class="edge">
<title>140219167707032&#45;&gt;140219167706304</title>
<path fill="none" stroke="#000000" d="M50.6464,-95.1369C59.9112,-100.284 70.7479,-106.3044 80.9459,-111.97"/>
<polygon fill="#000000" stroke="#000000" points="79.2465,-115.0296 89.6878,-116.8266 82.646,-108.9105 79.2465,-115.0296"/>
</g>
<!-- 140219167028112&#45;&gt;140219167028952 -->
<g id="edge24" class="edge">
<title>140219167028112&#45;&gt;140219167028952</title>
<path fill="none" stroke="#000000" d="M1423.176,-260.5714C1391.7745,-287.9659 1327.5159,-336 1263,-336 751,-336 751,-336 751,-336 697.4093,-336 638.9194,-331.9802 586.9367,-326.9867"/>
<polygon fill="#000000" stroke="#000000" points="587.2638,-323.5021 576.9701,-326.0099 586.581,-330.4687 587.2638,-323.5021"/>
</g>
<!-- 140219167031248&#45;&gt;140219167028336 -->
<g id="edge25" class="edge">
<title>140219167031248&#45;&gt;140219167028336</title>
<path fill="none" stroke="#000000" d="M867.7233,-262.0606C887.4635,-258.412 915.7527,-253.1831 944.2601,-247.914"/>
<polygon fill="#000000" stroke="#000000" points="945.1417,-251.3104 954.3389,-246.0511 943.8693,-244.427 945.1417,-251.3104"/>
</g>
<!-- 140219167029848&#45;&gt;140219167030800 -->
<g id="edge26" class="edge">
<title>140219167029848&#45;&gt;140219167030800</title>
<path fill="none" stroke="#000000" d="M1786.003,-65C1794.0277,-65 1802.9665,-65 1811.5309,-65"/>
<polygon fill="#000000" stroke="#000000" points="1811.7051,-68.5001 1821.705,-65 1811.705,-61.5001 1811.7051,-68.5001"/>
</g>
<!-- 140219167030744&#45;&gt;140219167028840 -->
<g id="edge27" class="edge">
<title>140219167030744&#45;&gt;140219167028840</title>
<path fill="none" stroke="#000000" d="M1470.1612,-172.7505C1477.7422,-173.5182 1486.4635,-174.4014 1495.7289,-175.3396"/>
<polygon fill="#000000" stroke="#000000" points="1495.6663,-178.8511 1505.9681,-176.3765 1496.3716,-171.8867 1495.6663,-178.8511"/>
</g>
<!-- 140219167028560&#45;&gt;140219167028784 -->
<g id="edge28" class="edge">
<title>140219167028560&#45;&gt;140219167028784</title>
<path fill="none" stroke="#000000" d="M868.1526,-133.5255C891.2517,-130.5697 925.8305,-126.1449 958.7876,-121.9277"/>
<polygon fill="#000000" stroke="#000000" points="959.4743,-125.3684 968.9491,-120.6274 958.5857,-118.425 959.4743,-125.3684"/>
</g>
<!-- 140219167028504&#45;&gt;140219167029176 -->
<g id="edge29" class="edge">
<title>140219167028504&#45;&gt;140219167029176</title>
<path fill="none" stroke="#000000" d="M234.3815,-137C250.4776,-137 272.1794,-137 295.3538,-137"/>
<polygon fill="#000000" stroke="#000000" points="295.3638,-140.5001 305.3638,-137 295.3638,-133.5001 295.3638,-140.5001"/>
</g>
<!-- 140219167027776&#45;&gt;140219167027720 -->
<g id="edge32" class="edge">
<title>140219167027776&#45;&gt;140219167027720</title>
<path fill="none" stroke="#000000" d="M688.003,-283.7003C696.0277,-284.5028 704.9665,-285.3967 713.5309,-286.2531"/>
<polygon fill="#000000" stroke="#000000" points="713.4064,-289.758 723.705,-287.2705 714.1029,-282.7927 713.4064,-289.758"/>
</g>
<!-- 140219167027272&#45;&gt;140219167027664 -->
<g id="edge33" class="edge">
<title>140219167027272&#45;&gt;140219167027664</title>
<path fill="none" stroke="#000000" d="M1781.2472,-233.573C1791.3684,-240.6579 1803.5735,-249.2015 1814.8201,-257.0741"/>
<polygon fill="#000000" stroke="#000000" points="1812.9838,-260.0609 1823.1832,-262.9283 1816.998,-254.3263 1812.9838,-260.0609"/>
</g>
<!-- 140219167028280&#45;&gt;140219167028616 -->
<g id="edge34" class="edge">
<title>140219167028280&#45;&gt;140219167028616</title>
<path fill="none" stroke="#000000" d="M1470.1612,-93.3124C1496.0144,-92.6579 1535.1289,-91.6676 1563.8584,-90.9403"/>
<polygon fill="#000000" stroke="#000000" points="1564.0212,-94.4374 1573.9293,-90.6853 1563.8439,-87.4396 1564.0212,-94.4374"/>
</g>
<!-- 140219167030576&#45;&gt;140219167029120 -->
<g id="edge35" class="edge">
<title>140219167030576&#45;&gt;140219167029120</title>
<path fill="none" stroke="#000000" d="M234.1213,-27.1014C304.5464,-27.3556 499.0256,-28 661,-28 661,-28 661,-28 841,-28 983.1049,-28 1152.1239,-29.1481 1225.6984,-29.7046"/>
<polygon fill="#000000" stroke="#000000" points="1225.8201,-33.2055 1235.8466,-29.7822 1225.8737,-26.2057 1225.8201,-33.2055"/>
</g>
<!-- 140219167030520&#45;&gt;140219167030464 -->
<g id="edge36" class="edge">
<title>140219167030520&#45;&gt;140219167030464</title>
<path fill="none" stroke="#000000" d="M688.003,-134.2997C696.0277,-133.4972 704.9665,-132.6033 713.5309,-131.7469"/>
<polygon fill="#000000" stroke="#000000" points="714.1029,-135.2073 723.705,-130.7295 713.4064,-128.242 714.1029,-135.2073"/>
</g>
</g>
</svg>
