<?xml version="1.0" encoding="UTF-8" standalone="no"?>
<!DOCTYPE svg PUBLIC "-//W3C//DTD SVG 1.1//EN"
 "http://www.w3.org/Graphics/SVG/1.1/DTD/svg11.dtd">
<!-- Generated by graphviz version 2.40.1 (20161225.0304)
 -->
<!-- Title: imdf_net_1585315461.118081 Pages: 1 -->
<svg width="1151pt" height="3014pt"
 viewBox="0.00 0.00 1151.00 3014.00" xmlns="http://www.w3.org/2000/svg" xmlns:xlink="http://www.w3.org/1999/xlink">
<g id="graph0" class="graph" transform="scale(1 1) rotate(0) translate(4 3010)">
<title>imdf_net_1585315461.118081</title>
<!-- 140178132028552 -->
<g id="node1" class="node">
<title>140178132028552</title>
<polygon fill="none" stroke="#000000" points="211,-1529 0,-1529 0,-1493 211,-1493 211,-1529"/>
<text text-anchor="middle" x="105.5" y="-1507.3" font-family="Times,serif" font-size="14.00" fill="#000000">FinancialUtils:computeGainPercent</text>
</g>
<!-- 140178132027656 -->
<g id="node68" class="node">
<title>140178132027656</title>
<ellipse fill="none" stroke="#000000" cx="274" cy="-1558" rx="27" ry="27"/>
<text text-anchor="middle" x="274" y="-1554.3" font-family="Times,serif" font-size="14.00" fill="#000000">p_6</text>
</g>
<!-- 140178132028552&#45;&gt;140178132027656 -->
<g id="edge35" class="edge">
<title>140178132028552&#45;&gt;140178132027656</title>
<path fill="none" stroke="#000000" d="M170.1646,-1529.037C193.242,-1535.474 218.3949,-1542.49 238.1642,-1548.0043"/>
<polygon fill="#000000" stroke="#000000" points="237.3994,-1551.4245 247.9721,-1550.74 239.2801,-1544.6818 237.3994,-1551.4245"/>
</g>
<!-- 140178132099928 -->
<g id="node2" class="node">
<title>140178132099928</title>
<polygon fill="none" stroke="#000000" points="975.5,-2898 889.5,-2898 889.5,-2862 975.5,-2862 975.5,-2898"/>
<text text-anchor="middle" x="932.5" y="-2876.3" font-family="Times,serif" font-size="14.00" fill="#000000">Log:doTrace</text>
</g>
<!-- 140178132099928&#45;&gt;140178132027656 -->
<g id="edge38" class="edge">
<title>140178132099928&#45;&gt;140178132027656</title>
<path fill="none" stroke="#000000" d="M889.1994,-2875.5553C846.5275,-2870.9143 779.5481,-2862.9305 722,-2853 647.8207,-2840.1996 631.7756,-2817 556.5,-2817 454,-2817 454,-2817 454,-2817 359.7002,-2817 366.7638,-2729.4794 337,-2640 303.4613,-2539.1722 280.0596,-1773.8673 275.0179,-1595.2096"/>
<polygon fill="#000000" stroke="#000000" points="278.5108,-1594.9036 274.732,-1585.0056 271.5136,-1595.0997 278.5108,-1594.9036"/>
</g>
<!-- 140178132440736 -->
<g id="node3" class="node">
<title>140178132440736</title>
<polygon fill="none" stroke="#000000" points="977,-2844 888,-2844 888,-2808 977,-2808 977,-2844"/>
<text text-anchor="middle" x="932.5" y="-2822.3" font-family="Times,serif" font-size="14.00" fill="#000000">Log:getTrace</text>
</g>
<!-- 140178132440736&#45;&gt;140178132027656 -->
<g id="edge15" class="edge">
<title>140178132440736&#45;&gt;140178132027656</title>
<path fill="none" stroke="#000000" d="M887.9986,-2824.8056C844.7184,-2822.6011 777.5555,-2816.3926 722,-2799 642.8925,-2774.234 639.3937,-2713 556.5,-2713 454,-2713 454,-2713 454,-2713 370.1506,-2713 366.9858,-2643.3043 337,-2565 301.7957,-2473.0684 279.8405,-1766.1309 275.0109,-1595.1449"/>
<polygon fill="#000000" stroke="#000000" points="278.5088,-1595.0184 274.7301,-1585.1204 271.5115,-1595.2145 278.5088,-1595.0184"/>
</g>
<!-- 140178132439392 -->
<g id="node4" class="node">
<title>140178132439392</title>
<polygon fill="none" stroke="#000000" points="995,-2790 870,-2790 870,-2754 995,-2754 995,-2790"/>
<text text-anchor="middle" x="932.5" y="-2768.3" font-family="Times,serif" font-size="14.00" fill="#000000">Log:setActionTrace</text>
</g>
<!-- 140178132439392&#45;&gt;140178132027656 -->
<g id="edge23" class="edge">
<title>140178132439392&#45;&gt;140178132027656</title>
<path fill="none" stroke="#000000" d="M869.6334,-2782.2453C822.6487,-2786.0604 760.1889,-2782.3603 722,-2745 645.2138,-2669.8798 762.1029,-2581.8123 686,-2506 644.7878,-2464.9451 614.6717,-2487 556.5,-2487 454,-2487 454,-2487 454,-2487 395.7625,-2487 369.3048,-2476.4562 337,-2428 290.2962,-2357.9457 277.1931,-1753.0515 274.5575,-1595.4276"/>
<polygon fill="#000000" stroke="#000000" points="278.0548,-1595.2244 274.3922,-1585.2828 271.0557,-1595.3385 278.0548,-1595.2244"/>
</g>
<!-- 140178132102112 -->
<g id="node5" class="node">
<title>140178132102112</title>
<polygon fill="none" stroke="#000000" points="976.5,-2736 888.5,-2736 888.5,-2700 976.5,-2700 976.5,-2736"/>
<text text-anchor="middle" x="932.5" y="-2714.3" font-family="Times,serif" font-size="14.00" fill="#000000">Log:setTrace</text>
</g>
<!-- 140178132102112&#45;&gt;140178132027656 -->
<g id="edge11" class="edge">
<title>140178132102112&#45;&gt;140178132027656</title>
<path fill="none" stroke="#000000" d="M888.2015,-2726.1892C840.5539,-2732.2213 765.7562,-2733.2048 722,-2691 651.3196,-2622.8256 754.7552,-2543.1154 686,-2473 645.0164,-2431.2057 615.0356,-2449 556.5,-2449 454,-2449 454,-2449 454,-2449 395.7625,-2449 369.3844,-2438.403 337,-2390 292.4073,-2323.3501 277.8222,-1749.504 274.6966,-1595.7607"/>
<polygon fill="#000000" stroke="#000000" points="278.1893,-1595.3583 274.4911,-1585.4299 271.1907,-1595.4975 278.1893,-1595.3583"/>
</g>
<!-- 140178132102784 -->
<g id="node6" class="node">
<title>140178132102784</title>
<polygon fill="none" stroke="#000000" points="1002.5,-2682 862.5,-2682 862.5,-2646 1002.5,-2646 1002.5,-2682"/>
<text text-anchor="middle" x="932.5" y="-2660.3" font-family="Times,serif" font-size="14.00" fill="#000000">MDBStats:getInstance</text>
</g>
<!-- 140178132102784&#45;&gt;140178132027656 -->
<g id="edge33" class="edge">
<title>140178132102784&#45;&gt;140178132027656</title>
<path fill="none" stroke="#000000" d="M862.2776,-2674.4731C816.4789,-2677.1154 758.6195,-2671.8748 722,-2637 655.9633,-2574.1096 750.2605,-2499.7043 686,-2435 644.7518,-2393.4669 615.0356,-2411 556.5,-2411 454,-2411 454,-2411 454,-2411 395.7625,-2411 369.4716,-2400.3446 337,-2352 294.4543,-2288.6567 278.4406,-1744.2767 274.8354,-1595.4615"/>
<polygon fill="#000000" stroke="#000000" points="278.3246,-1594.96 274.5878,-1585.046 271.3265,-1595.1264 278.3246,-1594.96"/>
</g>
<!-- 140178132441744 -->
<g id="node7" class="node">
<title>140178132441744</title>
<polygon fill="none" stroke="#000000" points="984.5,-2628 880.5,-2628 880.5,-2592 984.5,-2592 984.5,-2628"/>
<text text-anchor="middle" x="932.5" y="-2606.3" font-family="Times,serif" font-size="14.00" fill="#000000">MDBStats:reset</text>
</g>
<!-- 140178132441744&#45;&gt;140178132027656 -->
<g id="edge41" class="edge">
<title>140178132441744&#45;&gt;140178132027656</title>
<path fill="none" stroke="#000000" d="M880.4213,-2618.8627C832.9125,-2623.7524 763.9147,-2622.3296 722,-2583 660.5977,-2525.3846 745.7747,-2456.3023 686,-2397 644.4452,-2355.7736 615.0356,-2373 556.5,-2373 454,-2373 454,-2373 454,-2373 395.7625,-2373 369.5673,-2362.2802 337,-2314 296.4927,-2253.949 279.0808,-1738.8102 274.9843,-1595.0937"/>
<polygon fill="#000000" stroke="#000000" points="278.4807,-1594.9128 274.7016,-1585.0149 271.4834,-1595.1092 278.4807,-1594.9128"/>
</g>
<!-- 140178132440232 -->
<g id="node8" class="node">
<title>140178132440232</title>
<polygon fill="none" stroke="#000000" points="1143,-2574 722,-2574 722,-2538 1143,-2538 1143,-2574"/>
<text text-anchor="middle" x="932.5" y="-2552.3" font-family="Times,serif" font-size="14.00" fill="#000000">MarketSummaryDataBean:MarketSummaryDataBean [overloaded_#002]</text>
</g>
<!-- 140178132440232&#45;&gt;140178132027656 -->
<g id="edge34" class="edge">
<title>140178132440232&#45;&gt;140178132027656</title>
<path fill="none" stroke="#000000" d="M733.0919,-2537.978C729.228,-2535.2334 725.5214,-2532.2468 722,-2529 665.2201,-2476.6485 741.3006,-2412.9118 686,-2359 644.0861,-2318.1387 615.0356,-2335 556.5,-2335 454,-2335 454,-2335 454,-2335 395.7625,-2335 369.6729,-2324.2088 337,-2276 298.5993,-2219.3398 279.8189,-1735.0416 275.1717,-1595.4882"/>
<polygon fill="#000000" stroke="#000000" points="278.6634,-1595.1766 274.8372,-1585.2968 271.6672,-1595.4063 278.6634,-1595.1766"/>
</g>
<!-- 140178132442920 -->
<g id="node9" class="node">
<title>140178132442920</title>
<polygon fill="none" stroke="#000000" points="1054,-2520 811,-2520 811,-2484 1054,-2484 1054,-2520"/>
<text text-anchor="middle" x="932.5" y="-2498.3" font-family="Times,serif" font-size="14.00" fill="#000000">MarketSummaryDataBean:getOpenTSIA</text>
</g>
<!-- 140178132442920&#45;&gt;140178132027656 -->
<g id="edge56" class="edge">
<title>140178132442920&#45;&gt;140178132027656</title>
<path fill="none" stroke="#000000" d="M810.8877,-2510.481C778.6448,-2506.764 746.1348,-2496.7889 722,-2475 669.8269,-2427.8979 736.8418,-2369.5361 686,-2321 643.6601,-2280.5802 615.0356,-2297 556.5,-2297 454,-2297 454,-2297 454,-2297 395.7625,-2297 369.79,-2286.1292 337,-2238 300.6437,-2184.6362 280.5419,-1729.6641 275.3581,-1595.2474"/>
<polygon fill="#000000" stroke="#000000" points="278.8477,-1594.9061 274.9697,-1585.0465 271.8528,-1595.1725 278.8477,-1594.9061"/>
</g>
<!-- 140178132443088 -->
<g id="node10" class="node">
<title>140178132443088</title>
<polygon fill="none" stroke="#000000" points="1039.5,-2466 825.5,-2466 825.5,-2430 1039.5,-2430 1039.5,-2466"/>
<text text-anchor="middle" x="932.5" y="-2444.3" font-family="Times,serif" font-size="14.00" fill="#000000">MarketSummaryDataBean:getTSIA</text>
</g>
<!-- 140178132443088&#45;&gt;140178132027656 -->
<g id="edge13" class="edge">
<title>140178132443088&#45;&gt;140178132027656</title>
<path fill="none" stroke="#000000" d="M825.4391,-2457.3441C788.7878,-2455.0165 750.007,-2445.643 722,-2421 674.4127,-2379.1285 732.4033,-2326.1799 686,-2283 643.1475,-2243.1242 615.0356,-2259 556.5,-2259 454,-2259 454,-2259 454,-2259 395.7625,-2259 369.9207,-2248.0399 337,-2200 302.7093,-2149.9608 281.336,-1724.7778 275.5767,-1595.2794"/>
<polygon fill="#000000" stroke="#000000" points="279.064,-1594.9104 275.1281,-1585.0738 272.0707,-1595.2179 279.064,-1594.9104"/>
</g>
<!-- 140178132101440 -->
<g id="node11" class="node">
<title>140178132101440</title>
<polygon fill="none" stroke="#000000" points="1053.5,-2412 811.5,-2412 811.5,-2376 1053.5,-2376 1053.5,-2412"/>
<text text-anchor="middle" x="932.5" y="-2390.3" font-family="Times,serif" font-size="14.00" fill="#000000">MarketSummaryDataBean:setOpenTSIA</text>
</g>
<!-- 140178132101440&#45;&gt;140178132027656 -->
<g id="edge43" class="edge">
<title>140178132101440&#45;&gt;140178132027656</title>
<path fill="none" stroke="#000000" d="M811.405,-2401.5471C779.2646,-2397.7909 746.6789,-2388.0289 722,-2367 678.9695,-2330.3336 727.9932,-2282.85 686,-2245 642.5197,-2205.8096 615.0356,-2221 556.5,-2221 454,-2221 454,-2221 454,-2221 395.7625,-2221 370.0673,-2209.9391 337,-2162 304.7895,-2115.3031 282.2095,-1720.2011 275.834,-1595.5304"/>
<polygon fill="#000000" stroke="#000000" points="279.3191,-1595.1443 275.318,-1585.334 272.328,-1595.4981 279.3191,-1595.1443"/>
</g>
<!-- 140178132440568 -->
<g id="node12" class="node">
<title>140178132440568</title>
<polygon fill="none" stroke="#000000" points="1063.5,-2358 801.5,-2358 801.5,-2322 1063.5,-2322 1063.5,-2358"/>
<text text-anchor="middle" x="932.5" y="-2336.3" font-family="Times,serif" font-size="14.00" fill="#000000">MarketSummaryDataBean:setSummaryDate</text>
</g>
<!-- 140178132440568&#45;&gt;140178132027656 -->
<g id="edge50" class="edge">
<title>140178132440568&#45;&gt;140178132027656</title>
<path fill="none" stroke="#000000" d="M801.2575,-2345.4227C772.66,-2340.8677 744.3183,-2331.2513 722,-2313 683.4848,-2281.5034 723.6235,-2239.5565 686,-2207 641.7358,-2168.6972 615.0356,-2183 556.5,-2183 454,-2183 454,-2183 454,-2183 395.7625,-2183 370.233,-2171.8244 337,-2124 306.8095,-2080.554 283.0628,-1714.0939 276.0895,-1595.131"/>
<polygon fill="#000000" stroke="#000000" points="279.5781,-1594.8319 275.5042,-1585.0517 272.5899,-1595.2378 279.5781,-1594.8319"/>
</g>
<!-- 140178132441072 -->
<g id="node13" class="node">
<title>140178132441072</title>
<polygon fill="none" stroke="#000000" points="1038.5,-2304 826.5,-2304 826.5,-2268 1038.5,-2268 1038.5,-2304"/>
<text text-anchor="middle" x="932.5" y="-2282.3" font-family="Times,serif" font-size="14.00" fill="#000000">MarketSummaryDataBean:setTSIA</text>
</g>
<!-- 140178132441072&#45;&gt;140178132027656 -->
<g id="edge28" class="edge">
<title>140178132441072&#45;&gt;140178132027656</title>
<path fill="none" stroke="#000000" d="M826.2593,-2293.3112C790.0084,-2290.7037 751.2767,-2281.6716 722,-2259 687.9378,-2232.6226 719.3147,-2196.3154 686,-2169 640.7345,-2131.8859 615.0356,-2145 556.5,-2145 454,-2145 454,-2145 454,-2145 395.561,-2145 370.3801,-2132.9675 337,-2085 309.0842,-2044.8847 284.1695,-1709.3145 276.4543,-1595.5486"/>
<polygon fill="#000000" stroke="#000000" points="279.9248,-1594.9914 275.7618,-1585.2487 272.9406,-1595.461 279.9248,-1594.9914"/>
</g>
<!-- 140178132029224 -->
<g id="node14" class="node">
<title>140178132029224</title>
<polygon fill="none" stroke="#000000" points="1055.5,-2250 809.5,-2250 809.5,-2214 1055.5,-2214 1055.5,-2250"/>
<text text-anchor="middle" x="932.5" y="-2228.3" font-family="Times,serif" font-size="14.00" fill="#000000">MarketSummaryDataBean:setTopGainers</text>
</g>
<!-- 140178132029224&#45;&gt;140178132027656 -->
<g id="edge46" class="edge">
<title>140178132029224&#45;&gt;140178132027656</title>
<path fill="none" stroke="#000000" d="M809.4364,-2236.2979C778.6302,-2232.2199 747.2135,-2223.1067 722,-2205 692.2925,-2183.666 715.1022,-2153.1527 686,-2131 639.4232,-2095.5455 615.0356,-2107 556.5,-2107 454,-2107 454,-2107 454,-2107 395.561,-2107 370.5992,-2094.8143 337,-2047 285.7846,-1974.1164 276.2044,-1696.5118 274.4123,-1595.2492"/>
<polygon fill="#000000" stroke="#000000" points="277.9108,-1595.1201 274.2498,-1585.1779 270.9117,-1595.2331 277.9108,-1595.1201"/>
</g>
<!-- 140178132439560 -->
<g id="node15" class="node">
<title>140178132439560</title>
<polygon fill="none" stroke="#000000" points="1052.5,-2196 812.5,-2196 812.5,-2160 1052.5,-2160 1052.5,-2196"/>
<text text-anchor="middle" x="932.5" y="-2174.3" font-family="Times,serif" font-size="14.00" fill="#000000">MarketSummaryDataBean:setTopLosers</text>
</g>
<!-- 140178132439560&#45;&gt;140178132027656 -->
<g id="edge5" class="edge">
<title>140178132439560&#45;&gt;140178132027656</title>
<path fill="none" stroke="#000000" d="M812.2915,-2180.7308C780.9642,-2176.757 748.5747,-2168.0874 722,-2151 696.4806,-2134.5911 711.0528,-2110.1129 686,-2093 637.6645,-2059.9833 615.0356,-2069 556.5,-2069 454,-2069 454,-2069 454,-2069 395.561,-2069 370.8536,-2056.6345 337,-2009 289.8212,-1942.6161 277.7762,-1690.9747 274.8714,-1595.2593"/>
<polygon fill="#000000" stroke="#000000" points="278.3674,-1595.0657 274.5819,-1585.1703 271.3703,-1595.2666 278.3674,-1595.0657"/>
</g>
<!-- 140178132099256 -->
<g id="node16" class="node">
<title>140178132099256</title>
<polygon fill="none" stroke="#000000" points="1046,-2142 819,-2142 819,-2106 1046,-2106 1046,-2142"/>
<text text-anchor="middle" x="932.5" y="-2120.3" font-family="Times,serif" font-size="14.00" fill="#000000">MarketSummaryDataBean:setVolume</text>
</g>
<!-- 140178132099256&#45;&gt;140178132027656 -->
<g id="edge18" class="edge">
<title>140178132099256&#45;&gt;140178132027656</title>
<path fill="none" stroke="#000000" d="M818.8407,-2124.5613C786.055,-2120.8051 751.2629,-2112.792 722,-2097 700.3641,-2085.3239 707.3025,-2067.2738 686,-2055 635.2807,-2025.7773 615.0356,-2031 556.5,-2031 454,-2031 454,-2031 454,-2031 395.561,-2031 371.1527,-2018.4205 337,-1971 293.8308,-1911.0601 279.4741,-1685.0515 275.4092,-1595.183"/>
<polygon fill="#000000" stroke="#000000" points="278.9049,-1595.0058 274.9736,-1585.1673 271.9115,-1595.31 278.9049,-1595.0058"/>
</g>
<!-- 140178132100600 -->
<g id="node17" class="node">
<title>140178132100600</title>
<polygon fill="none" stroke="#000000" points="1096.5,-2088 768.5,-2088 768.5,-2052 1096.5,-2052 1096.5,-2088"/>
<text text-anchor="middle" x="932.5" y="-2066.3" font-family="Times,serif" font-size="14.00" fill="#000000">MarketSummarySingleton:setMarketSummaryDataBean</text>
</g>
<!-- 140178132100600&#45;&gt;140178132027656 -->
<g id="edge39" class="edge">
<title>140178132100600&#45;&gt;140178132027656</title>
<path fill="none" stroke="#000000" d="M768.4202,-2057.1278C752.4561,-2053.4556 736.7333,-2048.8254 722,-2043 703.6461,-2035.743 704.1448,-2024.7651 686,-2017 632.1852,-1993.9699 615.0356,-1993 556.5,-1993 454,-1993 454,-1993 454,-1993 395.561,-1993 371.509,-1980.1618 337,-1933 297.8395,-1879.4812 281.3431,-1679.0018 276.0564,-1595.1917"/>
<polygon fill="#000000" stroke="#000000" points="279.5432,-1594.8664 275.4387,-1585.0989 272.5563,-1595.2941 279.5432,-1594.8664"/>
</g>
<!-- 140178132099424 -->
<g id="node18" class="node">
<title>140178132099424</title>
<polygon fill="none" stroke="#000000" points="1080.5,-2034 784.5,-2034 784.5,-1998 1080.5,-1998 1080.5,-2034"/>
<text text-anchor="middle" x="932.5" y="-2012.3" font-family="Times,serif" font-size="14.00" fill="#000000">MarketSummarySingleton:updateMarketSummary</text>
</g>
<!-- 140178132099424&#45;&gt;140178132027656 -->
<g id="edge30" class="edge">
<title>140178132099424&#45;&gt;140178132027656</title>
<path fill="none" stroke="#000000" d="M784.2768,-1999.7054C763.2909,-1996.6093 742.0441,-1993.0477 722,-1989 705.7228,-1985.713 702.1794,-1982.7388 686,-1979 628.9673,-1965.8206 615.0356,-1955 556.5,-1955 454,-1955 454,-1955 454,-1955 395.561,-1955 371.9406,-1941.843 337,-1895 301.8643,-1847.8954 283.449,-1672.9559 276.8643,-1595.4146"/>
<polygon fill="#000000" stroke="#000000" points="280.3271,-1594.8198 276.0132,-1585.143 273.351,-1595.3979 280.3271,-1594.8198"/>
</g>
<!-- 140178132027600 -->
<g id="node19" class="node">
<title>140178132027600</title>
<polygon fill="none" stroke="#000000" points="583.5,-2560 529.5,-2560 529.5,-2524 583.5,-2524 583.5,-2560"/>
<text text-anchor="middle" x="556.5" y="-2538.3" font-family="Times,serif" font-size="14.00" fill="#000000">Root</text>
</g>
<!-- 140178132363864 -->
<g id="node70" class="node">
<title>140178132363864</title>
<ellipse fill="#ffa500" stroke="#000000" cx="659" cy="-2542" rx="27" ry="27"/>
</g>
<!-- 140178132027600&#45;&gt;140178132363864 -->
<g id="edge2" class="edge">
<title>140178132027600&#45;&gt;140178132363864</title>
<path fill="none" stroke="#000000" d="M583.699,-2542C595.2828,-2542 608.9866,-2542 621.5073,-2542"/>
<polygon fill="#000000" stroke="#000000" points="621.6739,-2545.5001 631.6739,-2542 621.6739,-2538.5001 621.6739,-2545.5001"/>
</g>
<!-- 140178132442752 -->
<g id="node20" class="node">
<title>140178132442752</title>
<polygon fill="none" stroke="#000000" points="1076,-1980 789,-1980 789,-1944 1076,-1944 1076,-1980"/>
<text text-anchor="middle" x="932.5" y="-1958.3" font-family="Times,serif" font-size="14.00" fill="#000000">TradeBuildDB:TradeBuildDB [overloaded_#002]</text>
</g>
<!-- 140178132442752&#45;&gt;140178132027656 -->
<g id="edge58" class="edge">
<title>140178132442752&#45;&gt;140178132027656</title>
<path fill="none" stroke="#000000" d="M788.9759,-1944.0208C687.8711,-1931.4865 568.4366,-1917 556.5,-1917 454,-1917 454,-1917 454,-1917 395.561,-1917 372.4736,-1903.4407 337,-1857 305.8343,-1816.199 285.7808,-1666.1601 277.8529,-1595.4003"/>
<polygon fill="#000000" stroke="#000000" points="281.2986,-1594.7135 276.728,-1585.1553 274.3404,-1595.4776 281.2986,-1594.7135"/>
</g>
<!-- 140178132029392 -->
<g id="node21" class="node">
<title>140178132029392</title>
<polygon fill="none" stroke="#000000" points="1036,-1926 829,-1926 829,-1890 1036,-1890 1036,-1926"/>
<text text-anchor="middle" x="932.5" y="-1904.3" font-family="Times,serif" font-size="14.00" fill="#000000">TradeBuildDB:parseDDLToBuffer</text>
</g>
<!-- 140178132029392&#45;&gt;140178132027656 -->
<g id="edge8" class="edge">
<title>140178132029392&#45;&gt;140178132027656</title>
<path fill="none" stroke="#000000" d="M828.929,-1895.7014C753.5026,-1887.7974 648.815,-1879 556.5,-1879 454,-1879 454,-1879 454,-1879 395.561,-1879 373.1475,-1864.9181 337,-1819 309.7557,-1784.3916 288.4037,-1658.6495 279.0911,-1595.1833"/>
<polygon fill="#000000" stroke="#000000" points="282.5413,-1594.5868 277.6488,-1585.1893 275.6131,-1595.5867 282.5413,-1594.5868"/>
</g>
<!-- 140178132028720 -->
<g id="node22" class="node">
<title>140178132028720</title>
<polygon fill="none" stroke="#000000" points="1019,-1872 846,-1872 846,-1836 1019,-1836 1019,-1872"/>
<text text-anchor="middle" x="932.5" y="-1850.3" font-family="Times,serif" font-size="14.00" fill="#000000">TradeConfig:getActionTrace</text>
</g>
<!-- 140178132028720&#45;&gt;140178132027656 -->
<g id="edge22" class="edge">
<title>140178132028720&#45;&gt;140178132027656</title>
<path fill="none" stroke="#000000" d="M845.9114,-1849.3067C769.7209,-1845.583 655.7815,-1841 556.5,-1841 454,-1841 454,-1841 454,-1841 395.7625,-1841 374.0232,-1826.9543 337,-1782 313.4273,-1753.3776 291.2665,-1650.6208 280.6141,-1594.7693"/>
<polygon fill="#000000" stroke="#000000" points="284.0489,-1594.0959 278.7612,-1584.9149 277.1694,-1595.3895 284.0489,-1594.0959"/>
</g>
<!-- 140178132102952 -->
<g id="node23" class="node">
<title>140178132102952</title>
<polygon fill="none" stroke="#000000" points="1038.5,-1818 826.5,-1818 826.5,-1782 1038.5,-1782 1038.5,-1818"/>
<text text-anchor="middle" x="932.5" y="-1796.3" font-family="Times,serif" font-size="14.00" fill="#000000">TradeConfig:getDisplayOrderAlerts</text>
</g>
<!-- 140178132102952&#45;&gt;140178132027656 -->
<g id="edge45" class="edge">
<title>140178132102952&#45;&gt;140178132027656</title>
<path fill="none" stroke="#000000" d="M826.3456,-1801.2984C751.0331,-1802.1092 647.5654,-1803 556.5,-1803 454,-1803 454,-1803 454,-1803 396.1573,-1803 375.158,-1789.4712 337,-1746 299.1092,-1702.8333 283.8478,-1636.0691 277.8137,-1594.8075"/>
<polygon fill="#000000" stroke="#000000" points="281.2818,-1594.3359 276.4702,-1584.8967 274.3453,-1595.2762 281.2818,-1594.3359"/>
</g>
<!-- 140178132442584 -->
<g id="node24" class="node">
<title>140178132442584</title>
<polygon fill="none" stroke="#000000" points="1011,-1764 854,-1764 854,-1728 1011,-1728 1011,-1764"/>
<text text-anchor="middle" x="932.5" y="-1742.3" font-family="Times,serif" font-size="14.00" fill="#000000">TradeConfig:getLongRun</text>
</g>
<!-- 140178132442584&#45;&gt;140178132027656 -->
<g id="edge31" class="edge">
<title>140178132442584&#45;&gt;140178132027656</title>
<path fill="none" stroke="#000000" d="M853.6999,-1752.3003C777.6629,-1757.8311 659.2803,-1765 556.5,-1765 454,-1765 454,-1765 454,-1765 396.9135,-1765 376.6122,-1753.1064 337,-1712 305.574,-1679.3885 289.011,-1628.9611 280.8929,-1594.7711"/>
<polygon fill="#000000" stroke="#000000" points="284.2421,-1593.7105 278.6375,-1584.7194 277.4119,-1595.2431 284.2421,-1593.7105"/>
</g>
<!-- 140178132101272 -->
<g id="node25" class="node">
<title>140178132101272</title>
<polygon fill="none" stroke="#000000" points="1031.5,-1710 833.5,-1710 833.5,-1674 1031.5,-1674 1031.5,-1710"/>
<text text-anchor="middle" x="932.5" y="-1688.3" font-family="Times,serif" font-size="14.00" fill="#000000">TradeConfig:getMAX_QUOTES</text>
</g>
<!-- 140178132101272&#45;&gt;140178132027656 -->
<g id="edge4" class="edge">
<title>140178132101272&#45;&gt;140178132027656</title>
<path fill="none" stroke="#000000" d="M833.3817,-1706.2863C757.7023,-1715.9642 650.7425,-1727 556.5,-1727 454,-1727 454,-1727 454,-1727 397.9612,-1727 378.4565,-1717.7055 337,-1680 311.3206,-1656.6441 294.4712,-1620.3852 284.715,-1593.4591"/>
<polygon fill="#000000" stroke="#000000" points="288.0195,-1592.3054 281.4384,-1584.0024 281.4053,-1594.5972 288.0195,-1592.3054"/>
</g>
<!-- 140178132442080 -->
<g id="node26" class="node">
<title>140178132442080</title>
<polygon fill="none" stroke="#000000" points="1026,-1656 839,-1656 839,-1620 1026,-1620 1026,-1656"/>
<text text-anchor="middle" x="932.5" y="-1634.3" font-family="Times,serif" font-size="14.00" fill="#000000">TradeConfig:getMAX_USERS</text>
</g>
<!-- 140178132442080&#45;&gt;140178132027656 -->
<g id="edge55" class="edge">
<title>140178132442080&#45;&gt;140178132027656</title>
<path fill="none" stroke="#000000" d="M838.9334,-1649.6664C802.4288,-1654.3057 760.2394,-1659.7753 722,-1665 648.3592,-1675.0616 630.8249,-1689 556.5,-1689 454,-1689 454,-1689 454,-1689 399.3261,-1689 380.6993,-1683.8573 337,-1651 316.5467,-1635.6213 300.5089,-1611.574 289.7339,-1591.7851"/>
<polygon fill="#000000" stroke="#000000" points="292.7481,-1589.996 285.0139,-1582.755 286.5444,-1593.2387 292.7481,-1589.996"/>
</g>
<!-- 140178132441912 -->
<g id="node27" class="node">
<title>140178132441912</title>
<polygon fill="none" stroke="#000000" points="1053.5,-1602 811.5,-1602 811.5,-1566 1053.5,-1566 1053.5,-1602"/>
<text text-anchor="middle" x="932.5" y="-1580.3" font-family="Times,serif" font-size="14.00" fill="#000000">TradeConfig:getMarketSummaryInterval</text>
</g>
<!-- 140178132441912&#45;&gt;140178132027656 -->
<g id="edge49" class="edge">
<title>140178132441912&#45;&gt;140178132027656</title>
<path fill="none" stroke="#000000" d="M811.3472,-1593.4358C781.7809,-1597.4047 750.4736,-1603.0308 722,-1611 705.1389,-1615.7191 702.7232,-1621.8134 686,-1627 630.0915,-1644.3397 615.0356,-1651 556.5,-1651 454,-1651 454,-1651 454,-1651 400.9173,-1651 383.1564,-1653.2177 337,-1627 320.6474,-1617.7114 306.185,-1602.6841 295.2546,-1589.0211"/>
<polygon fill="#000000" stroke="#000000" points="297.7804,-1586.5628 288.9201,-1580.7537 292.2239,-1590.8203 297.7804,-1586.5628"/>
</g>
<!-- 140178132100096 -->
<g id="node28" class="node">
<title>140178132100096</title>
<polygon fill="none" stroke="#000000" points="998.5,-1548 866.5,-1548 866.5,-1512 998.5,-1512 998.5,-1548"/>
<text text-anchor="middle" x="932.5" y="-1526.3" font-family="Times,serif" font-size="14.00" fill="#000000">TradeConfig:getPage</text>
</g>
<!-- 140178132100096&#45;&gt;140178132027656 -->
<g id="edge36" class="edge">
<title>140178132100096&#45;&gt;140178132027656</title>
<path fill="none" stroke="#000000" d="M866.481,-1535.0742C824.6985,-1539.1183 769.747,-1545.9753 722,-1557 646.3385,-1574.4702 634.1523,-1613 556.5,-1613 454,-1613 454,-1613 454,-1613 400.984,-1613 342.8679,-1590.9082 307.4111,-1574.727"/>
<polygon fill="#000000" stroke="#000000" points="308.5757,-1571.4079 298.0345,-1570.3431 305.6109,-1577.749 308.5757,-1571.4079"/>
</g>
<!-- 140178132439224 -->
<g id="node29" class="node">
<title>140178132439224</title>
<polygon fill="none" stroke="#000000" points="1055.5,-1494 809.5,-1494 809.5,-1458 1055.5,-1458 1055.5,-1494"/>
<text text-anchor="middle" x="932.5" y="-1472.3" font-family="Times,serif" font-size="14.00" fill="#000000">TradeConfig:getPercentSentToWebsocket</text>
</g>
<!-- 140178132439224&#45;&gt;140178132027656 -->
<g id="edge17" class="edge">
<title>140178132439224&#45;&gt;140178132027656</title>
<path fill="none" stroke="#000000" d="M809.4624,-1489.3023C736.1076,-1496.1175 641.0888,-1503 556.5,-1503 454,-1503 454,-1503 454,-1503 400.984,-1503 342.8679,-1525.0918 307.4111,-1541.273"/>
<polygon fill="#000000" stroke="#000000" points="305.6109,-1538.251 298.0345,-1545.6569 308.5757,-1544.5921 305.6109,-1538.251"/>
</g>
<!-- 140178132440400 -->
<g id="node30" class="node">
<title>140178132440400</title>
<polygon fill="none" stroke="#000000" points="1024.5,-1440 840.5,-1440 840.5,-1404 1024.5,-1404 1024.5,-1440"/>
<text text-anchor="middle" x="932.5" y="-1418.3" font-family="Times,serif" font-size="14.00" fill="#000000">TradeConfig:getPrimIterations</text>
</g>
<!-- 140178132440400&#45;&gt;140178132027656 -->
<g id="edge12" class="edge">
<title>140178132440400&#45;&gt;140178132027656</title>
<path fill="none" stroke="#000000" d="M840.462,-1412.4111C803.5015,-1407.9841 760.5888,-1402.116 722,-1395 647.5813,-1381.2768 632.1734,-1355 556.5,-1355 454,-1355 454,-1355 454,-1355 400.5317,-1355 376.8408,-1347.3408 337,-1383 316.0291,-1401.7699 294.407,-1476.118 282.7438,-1521.6525"/>
<polygon fill="#000000" stroke="#000000" points="279.3239,-1520.9007 280.273,-1531.4529 286.1115,-1522.612 279.3239,-1520.9007"/>
</g>
<!-- 140178132100264 -->
<g id="node31" class="node">
<title>140178132100264</title>
<polygon fill="none" stroke="#000000" points="1056.5,-1224 808.5,-1224 808.5,-1188 1056.5,-1188 1056.5,-1224"/>
<text text-anchor="middle" x="932.5" y="-1202.3" font-family="Times,serif" font-size="14.00" fill="#000000">TradeConfig:getPublishQuotePriceChange</text>
</g>
<!-- 140178132100264&#45;&gt;140178132027656 -->
<g id="edge29" class="edge">
<title>140178132100264&#45;&gt;140178132027656</title>
<path fill="none" stroke="#000000" d="M808.4516,-1204.5132C735.1601,-1203.7588 640.5478,-1203 556.5,-1203 454,-1203 454,-1203 454,-1203 399.5941,-1203 372.9661,-1198.178 337,-1239 275.2686,-1309.066 319.9521,-1354.5625 301,-1446 295.7084,-1471.5304 288.805,-1500.1006 283.3034,-1521.9952"/>
<polygon fill="#000000" stroke="#000000" points="279.8681,-1521.3035 280.8069,-1531.8567 286.6541,-1523.0214 279.8681,-1521.3035"/>
</g>
<!-- 140178132100432 -->
<g id="node32" class="node">
<title>140178132100432</title>
<polygon fill="none" stroke="#000000" points="1027.5,-1170 837.5,-1170 837.5,-1134 1027.5,-1134 1027.5,-1170"/>
<text text-anchor="middle" x="932.5" y="-1148.3" font-family="Times,serif" font-size="14.00" fill="#000000">TradeConfig:getRunTimeMode</text>
</g>
<!-- 140178132100432&#45;&gt;140178132027656 -->
<g id="edge26" class="edge">
<title>140178132100432&#45;&gt;140178132027656</title>
<path fill="none" stroke="#000000" d="M837.4682,-1153.9618C761.4528,-1155.3626 652.1404,-1157 556.5,-1157 454,-1157 454,-1157 454,-1157 398.4444,-1157 371.8678,-1157.7489 337,-1201 302.4627,-1243.8412 311.459,-1391.974 301,-1446 296.0445,-1471.5978 289.135,-1500.1667 283.5463,-1522.0438"/>
<polygon fill="#000000" stroke="#000000" points="280.1137,-1521.3387 281.0034,-1531.8961 286.8916,-1523.0881 280.1137,-1521.3387"/>
</g>
<!-- 140178132440064 -->
<g id="node33" class="node">
<title>140178132440064</title>
<polygon fill="none" stroke="#000000" points="1001,-1116 864,-1116 864,-1080 1001,-1080 1001,-1116"/>
<text text-anchor="middle" x="932.5" y="-1094.3" font-family="Times,serif" font-size="14.00" fill="#000000">TradeConfig:getTrace</text>
</g>
<!-- 140178132440064&#45;&gt;140178132027656 -->
<g id="edge52" class="edge">
<title>140178132440064&#45;&gt;140178132027656</title>
<path fill="none" stroke="#000000" d="M863.9133,-1101.7951C788.5601,-1105.6322 663.9461,-1111 556.5,-1111 454,-1111 454,-1111 454,-1111 397.9612,-1111 371.207,-1113.6128 337,-1158 297.6293,-1209.0877 312.576,-1382.5493 301,-1446 296.3205,-1471.6496 289.4059,-1500.2176 283.7457,-1522.0813"/>
<polygon fill="#000000" stroke="#000000" points="280.3151,-1521.3657 281.1648,-1531.9264 287.0863,-1523.1408 280.3151,-1521.3657"/>
</g>
<!-- 140178132102448 -->
<g id="node34" class="node">
<title>140178132102448</title>
<polygon fill="none" stroke="#000000" points="1018.5,-1062 846.5,-1062 846.5,-1026 1018.5,-1026 1018.5,-1062"/>
<text text-anchor="middle" x="932.5" y="-1040.3" font-family="Times,serif" font-size="14.00" fill="#000000">TradeConfig:setActionTrace</text>
</g>
<!-- 140178132102448&#45;&gt;140178132027656 -->
<g id="edge16" class="edge">
<title>140178132102448&#45;&gt;140178132027656</title>
<path fill="none" stroke="#000000" d="M846.3078,-1050.1134C770.1299,-1054.9871 655.9869,-1061 556.5,-1061 454,-1061 454,-1061 454,-1061 397.0955,-1061 370.531,-1067.024 337,-1113 293.1414,-1173.1367 313.7482,-1372.6687 301,-1446 296.5343,-1471.6877 289.6158,-1500.255 283.9003,-1522.1089"/>
<polygon fill="#000000" stroke="#000000" points="280.4712,-1521.3855 281.2898,-1531.9487 287.2371,-1523.1805 280.4712,-1521.3855"/>
</g>
<!-- 140178132028384 -->
<g id="node35" class="node">
<title>140178132028384</title>
<polygon fill="none" stroke="#000000" points="1038,-1008 827,-1008 827,-972 1038,-972 1038,-1008"/>
<text text-anchor="middle" x="932.5" y="-986.3" font-family="Times,serif" font-size="14.00" fill="#000000">TradeConfig:setDisplayOrderAlerts</text>
</g>
<!-- 140178132028384&#45;&gt;140178132027656 -->
<g id="edge25" class="edge">
<title>140178132028384&#45;&gt;140178132027656</title>
<path fill="none" stroke="#000000" d="M826.7876,-996.0388C751.4588,-999.8279 647.7889,-1004 556.5,-1004 454,-1004 454,-1004 454,-1004 395.561,-1004 369.7775,-1015.6188 337,-1064 289.1761,-1134.5904 315.0269,-1361.8967 301,-1446 296.7107,-1471.7178 289.789,-1500.2845 284.0278,-1522.1306"/>
<polygon fill="#000000" stroke="#000000" points="280.5998,-1521.4011 281.3929,-1531.9662 287.3614,-1523.2125 280.5998,-1521.4011"/>
</g>
<!-- 140178132442416 -->
<g id="node36" class="node">
<title>140178132442416</title>
<polygon fill="none" stroke="#000000" points="1010,-954 855,-954 855,-918 1010,-918 1010,-954"/>
<text text-anchor="middle" x="932.5" y="-932.3" font-family="Times,serif" font-size="14.00" fill="#000000">TradeConfig:setLongRun</text>
</g>
<!-- 140178132442416&#45;&gt;140178132027656 -->
<g id="edge37" class="edge">
<title>140178132442416&#45;&gt;140178132027656</title>
<path fill="none" stroke="#000000" d="M854.7374,-938.6195C778.7097,-940.9526 659.6622,-944 556.5,-944 454,-944 454,-944 454,-944 394.5141,-944 369.2479,-959.0136 337,-1009 284.1768,-1090.8796 316.464,-1349.7948 301,-1446 296.8622,-1471.7426 289.9376,-1500.3089 284.1372,-1522.1485"/>
<polygon fill="#000000" stroke="#000000" points="280.7102,-1521.414 281.4815,-1531.9807 287.468,-1523.2394 280.7102,-1521.414"/>
</g>
<!-- 140178132441576 -->
<g id="node37" class="node">
<title>140178132441576</title>
<polygon fill="none" stroke="#000000" points="1031,-900 834,-900 834,-864 1031,-864 1031,-900"/>
<text text-anchor="middle" x="932.5" y="-878.3" font-family="Times,serif" font-size="14.00" fill="#000000">TradeConfig:setMAX_QUOTES</text>
</g>
<!-- 140178132441576&#45;&gt;140178132027656 -->
<g id="edge54" class="edge">
<title>140178132441576&#45;&gt;140178132027656</title>
<path fill="none" stroke="#000000" d="M833.9498,-885.2424C758.1097,-887.46 650.6845,-890 556.5,-890 454,-890 454,-890 454,-890 395.3569,-890 369.2065,-901.9923 337,-951 276.429,-1043.1692 317.9807,-1337.0245 301,-1446 296.9857,-1471.7621 290.0589,-1500.3281 284.2265,-1522.1626"/>
<polygon fill="#000000" stroke="#000000" points="280.8002,-1521.4241 281.5537,-1531.9922 287.555,-1523.2609 280.8002,-1521.4241"/>
</g>
<!-- 140178132100768 -->
<g id="node38" class="node">
<title>140178132100768</title>
<polygon fill="none" stroke="#000000" points="1025,-846 840,-846 840,-810 1025,-810 1025,-846"/>
<text text-anchor="middle" x="932.5" y="-824.3" font-family="Times,serif" font-size="14.00" fill="#000000">TradeConfig:setMAX_USERS</text>
</g>
<!-- 140178132100768&#45;&gt;140178132027656 -->
<g id="edge20" class="edge">
<title>140178132100768&#45;&gt;140178132027656</title>
<path fill="none" stroke="#000000" d="M839.8347,-834.1403C763.7593,-838.6523 653.1985,-844 556.5,-844 454,-844 454,-844 454,-844 397.0955,-844 369.5505,-849.3247 337,-896 301.9684,-946.233 310.21,-1385.4546 301,-1446 297.079,-1471.7765 290.1504,-1500.3422 284.2939,-1522.173"/>
<polygon fill="#000000" stroke="#000000" points="280.8682,-1521.4316 281.6082,-1532.0005 287.6206,-1523.2769 280.8682,-1521.4316"/>
</g>
<!-- 140178132439728 -->
<g id="node39" class="node">
<title>140178132439728</title>
<polygon fill="none" stroke="#000000" points="1052.5,-792 812.5,-792 812.5,-756 1052.5,-756 1052.5,-792"/>
<text text-anchor="middle" x="932.5" y="-770.3" font-family="Times,serif" font-size="14.00" fill="#000000">TradeConfig:setMarketSummaryInterval</text>
</g>
<!-- 140178132439728&#45;&gt;140178132027656 -->
<g id="edge47" class="edge">
<title>140178132439728&#45;&gt;140178132027656</title>
<path fill="none" stroke="#000000" d="M812.3969,-785.5782C738.6375,-791.7155 642.1879,-798 556.5,-798 454,-798 454,-798 454,-798 397.794,-798 369.6898,-800.2782 337,-846 298.1564,-900.3288 310.8644,-1379.9459 301,-1446 297.149,-1471.7871 290.2192,-1500.3525 284.3445,-1522.1806"/>
<polygon fill="#000000" stroke="#000000" points="280.9192,-1521.4371 281.6491,-1532.0067 287.6699,-1523.2888 280.9192,-1521.4371"/>
</g>
<!-- 140178132441408 -->
<g id="node40" class="node">
<title>140178132441408</title>
<polygon fill="none" stroke="#000000" points="1046,-738 819,-738 819,-702 1046,-702 1046,-738"/>
<text text-anchor="middle" x="932.5" y="-716.3" font-family="Times,serif" font-size="14.00" fill="#000000">TradeConfig:setOrderProcessingMode</text>
</g>
<!-- 140178132441408&#45;&gt;140178132027656 -->
<g id="edge40" class="edge">
<title>140178132441408&#45;&gt;140178132027656</title>
<path fill="none" stroke="#000000" d="M818.6078,-727.3678C744.0741,-731.567 644.5414,-736 556.5,-736 454,-736 454,-736 454,-736 394.7287,-736 368.6327,-749.8755 337,-800 298.6333,-860.7951 311.4667,-1374.8769 301,-1446 297.2039,-1471.7952 290.2731,-1500.3605 284.3842,-1522.1865"/>
<polygon fill="#000000" stroke="#000000" points="280.9592,-1521.4413 281.6813,-1532.0115 287.7085,-1523.2981 280.9592,-1521.4413"/>
</g>
<!-- 140178132442248 -->
<g id="node41" class="node">
<title>140178132442248</title>
<polygon fill="none" stroke="#000000" points="1055,-684 810,-684 810,-648 1055,-648 1055,-684"/>
<text text-anchor="middle" x="932.5" y="-662.3" font-family="Times,serif" font-size="14.00" fill="#000000">TradeConfig:setPercentSentToWebsocket</text>
</g>
<!-- 140178132442248&#45;&gt;140178132027656 -->
<g id="edge24" class="edge">
<title>140178132442248&#45;&gt;140178132027656</title>
<path fill="none" stroke="#000000" d="M809.7844,-673.8594C736.3357,-677.9057 641.1112,-682 556.5,-682 454,-682 454,-682 454,-682 395.561,-682 368.733,-692.9273 337,-742 294.469,-807.771 312.2262,-1368.4843 301,-1446 297.263,-1471.8038 290.331,-1500.369 284.4268,-1522.1928"/>
<polygon fill="#000000" stroke="#000000" points="281.0022,-1521.4457 281.7158,-1532.0165 287.75,-1523.308 281.0022,-1521.4457"/>
</g>
<!-- 140178132028216 -->
<g id="node42" class="node">
<title>140178132028216</title>
<polygon fill="none" stroke="#000000" points="1023.5,-630 841.5,-630 841.5,-594 1023.5,-594 1023.5,-630"/>
<text text-anchor="middle" x="932.5" y="-608.3" font-family="Times,serif" font-size="14.00" fill="#000000">TradeConfig:setPrimIterations</text>
</g>
<!-- 140178132028216&#45;&gt;140178132027656 -->
<g id="edge9" class="edge">
<title>140178132028216&#45;&gt;140178132027656</title>
<path fill="none" stroke="#000000" d="M841.4296,-621.0734C765.3459,-627.8698 653.9618,-636 556.5,-636 454,-636 454,-636 454,-636 397.2745,-636 369.1962,-640.2969 337,-687 289.0803,-756.5112 312.9466,-1362.4214 301,-1446 297.3107,-1471.8107 290.3778,-1500.3757 284.4613,-1522.1977"/>
<polygon fill="#000000" stroke="#000000" points="281.0369,-1521.4493 281.7437,-1532.0205 287.7835,-1523.3159 281.0369,-1521.4493"/>
</g>
<!-- 140178132028048 -->
<g id="node43" class="node">
<title>140178132028048</title>
<polygon fill="none" stroke="#000000" points="1056,-576 809,-576 809,-540 1056,-540 1056,-576"/>
<text text-anchor="middle" x="932.5" y="-554.3" font-family="Times,serif" font-size="14.00" fill="#000000">TradeConfig:setPublishQuotePriceChange</text>
</g>
<!-- 140178132028048&#45;&gt;140178132027656 -->
<g id="edge51" class="edge">
<title>140178132028048&#45;&gt;140178132027656</title>
<path fill="none" stroke="#000000" d="M808.908,-563.9297C735.5675,-566.9529 640.7512,-570 556.5,-570 454,-570 454,-570 454,-570 393.8553,-570 368.1503,-586.5506 337,-638 290.4559,-714.8745 313.5885,-1357.0192 301,-1446 297.3477,-1471.8159 290.4142,-1500.3809 284.4881,-1522.2015"/>
<polygon fill="#000000" stroke="#000000" points="281.0639,-1521.452 281.7653,-1532.0236 287.8095,-1523.322 281.0639,-1521.452"/>
</g>
<!-- 140178132101776 -->
<g id="node44" class="node">
<title>140178132101776</title>
<polygon fill="none" stroke="#000000" points="1026.5,-522 838.5,-522 838.5,-486 1026.5,-486 1026.5,-522"/>
<text text-anchor="middle" x="932.5" y="-500.3" font-family="Times,serif" font-size="14.00" fill="#000000">TradeConfig:setRunTimeMode</text>
</g>
<!-- 140178132101776&#45;&gt;140178132027656 -->
<g id="edge32" class="edge">
<title>140178132101776&#45;&gt;140178132027656</title>
<path fill="none" stroke="#000000" d="M838.3145,-511.7898C762.3075,-517.4055 652.594,-524 556.5,-524 454,-524 454,-524 454,-524 396.7287,-524 368.8597,-530.4084 337,-578 283.3024,-658.2128 314.3746,-1350.4037 301,-1446 297.3874,-1471.8215 290.4532,-1500.3864 284.5167,-1522.2056"/>
<polygon fill="#000000" stroke="#000000" points="281.0928,-1521.4549 281.7885,-1532.0269 287.8374,-1523.3285 281.0928,-1521.4549"/>
</g>
<!-- 140178132027880 -->
<g id="node45" class="node">
<title>140178132027880</title>
<polygon fill="none" stroke="#000000" points="1000,-468 865,-468 865,-432 1000,-432 1000,-468"/>
<text text-anchor="middle" x="932.5" y="-446.3" font-family="Times,serif" font-size="14.00" fill="#000000">TradeConfig:setTrace</text>
</g>
<!-- 140178132027880&#45;&gt;140178132027656 -->
<g id="edge42" class="edge">
<title>140178132027880&#45;&gt;140178132027656</title>
<path fill="none" stroke="#000000" d="M864.9534,-454.6064C789.7202,-459.3331 664.4691,-466 556.5,-466 454,-466 454,-466 454,-466 395.3569,-466 368.3824,-477.4606 337,-527 282.314,-613.3257 315.0428,-1344.78 301,-1446 297.4171,-1471.8257 290.4823,-1500.3904 284.5382,-1522.2085"/>
<polygon fill="#000000" stroke="#000000" points="281.1144,-1521.457 281.8059,-1532.0293 287.8583,-1523.3334 281.1144,-1521.457"/>
</g>
<!-- 140178132441240 -->
<g id="node46" class="node">
<title>140178132441240</title>
<polygon fill="none" stroke="#000000" points="1022,-414 843,-414 843,-378 1022,-378 1022,-414"/>
<text text-anchor="middle" x="932.5" y="-392.3" font-family="Times,serif" font-size="14.00" fill="#000000">TradeConfig:setWebInterface</text>
</g>
<!-- 140178132441240&#45;&gt;140178132027656 -->
<g id="edge3" class="edge">
<title>140178132441240&#45;&gt;140178132027656</title>
<path fill="none" stroke="#000000" d="M842.9567,-404.9367C766.8416,-411.7603 654.6159,-420 556.5,-420 454,-420 454,-420 454,-420 397.0955,-420 368.8841,-424.8669 337,-472 276.3208,-561.7 315.7635,-1338.7149 301,-1446 297.4456,-1471.8296 290.5103,-1500.3943 284.5588,-1522.2114"/>
<polygon fill="#000000" stroke="#000000" points="281.1352,-1521.4591 281.8225,-1532.0316 287.8783,-1523.338 281.1352,-1521.4591"/>
</g>
<!-- 140178132101944 -->
<g id="node47" class="node">
<title>140178132101944</title>
<polygon fill="none" stroke="#000000" points="1043,-360 822,-360 822,-324 1043,-324 1043,-360"/>
<text text-anchor="middle" x="932.5" y="-338.3" font-family="Times,serif" font-size="14.00" fill="#000000">TradeConfig:useRemoteEJBInterface</text>
</g>
<!-- 140178132101944&#45;&gt;140178132027656 -->
<g id="edge48" class="edge">
<title>140178132101944&#45;&gt;140178132027656</title>
<path fill="none" stroke="#000000" d="M821.9395,-350.9762C747.0735,-356.293 645.8936,-362 556.5,-362 454,-362 454,-362 454,-362 395.3569,-362 368.2839,-373.3983 337,-423 276.3256,-519.2015 316.4056,-1333.3111 301,-1446 297.4684,-1471.8327 290.5327,-1500.3974 284.5753,-1522.2137"/>
<polygon fill="#000000" stroke="#000000" points="281.1518,-1521.4607 281.8359,-1532.0334 287.8943,-1523.3417 281.1518,-1521.4607"/>
</g>
<!-- 140178132101608 -->
<g id="node48" class="node">
<title>140178132101608</title>
<polygon fill="none" stroke="#000000" points="1043,-306 822,-306 822,-270 1043,-270 1043,-306"/>
<text text-anchor="middle" x="932.5" y="-284.3" font-family="Times,serif" font-size="14.00" fill="#000000">TradeConfigServlet:doConfigDisplay</text>
</g>
<!-- 140178132101608&#45;&gt;140178132027656 -->
<g id="edge14" class="edge">
<title>140178132101608&#45;&gt;140178132027656</title>
<path fill="none" stroke="#000000" d="M821.8705,-291.5905C746.9747,-293.7172 645.7876,-296 556.5,-296 454,-296 454,-296 454,-296 392.9426,-296 367.6694,-315.2043 337,-368 276.8015,-471.6285 317.1264,-1327.2454 301,-1446 297.4916,-1471.8359 290.5554,-1500.4005 284.592,-1522.2159"/>
<polygon fill="#000000" stroke="#000000" points="281.1686,-1521.4623 281.8494,-1532.0353 287.9106,-1523.3455 281.1686,-1521.4623"/>
</g>
<!-- 140178132101104 -->
<g id="node49" class="node">
<title>140178132101104</title>
<polygon fill="none" stroke="#000000" points="1041.5,-252 823.5,-252 823.5,-216 1041.5,-216 1041.5,-252"/>
<text text-anchor="middle" x="932.5" y="-230.3" font-family="Times,serif" font-size="14.00" fill="#000000">TradeConfigServlet:doConfigUpdate</text>
</g>
<!-- 140178132101104&#45;&gt;140178132027656 -->
<g id="edge19" class="edge">
<title>140178132101104&#45;&gt;140178132027656</title>
<path fill="none" stroke="#000000" d="M823.1004,-237.5555C748.085,-239.6921 646.2773,-242 556.5,-242 454,-242 454,-242 454,-242 394.9407,-242 368.0806,-254.7805 337,-305 303.6243,-358.9278 309.476,-1383.1485 301,-1446 297.5154,-1471.8391 290.5788,-1500.4036 284.6092,-1522.2183"/>
<polygon fill="#000000" stroke="#000000" points="281.186,-1521.464 281.8633,-1532.0372 287.9273,-1523.3493 281.186,-1521.464"/>
</g>
<!-- 140178132102280 -->
<g id="node50" class="node">
<title>140178132102280</title>
<polygon fill="none" stroke="#000000" points="1015.5,-198 849.5,-198 849.5,-162 1015.5,-162 1015.5,-198"/>
<text text-anchor="middle" x="932.5" y="-176.3" font-family="Times,serif" font-size="14.00" fill="#000000">TradeConfigServlet:service</text>
</g>
<!-- 140178132102280&#45;&gt;140178132027656 -->
<g id="edge10" class="edge">
<title>140178132102280&#45;&gt;140178132027656</title>
<path fill="none" stroke="#000000" d="M849.2521,-182.7868C773.0676,-185.0956 657.2138,-188 556.5,-188 454,-188 454,-188 454,-188 395.3569,-188 368.157,-199.3185 337,-249 301.6526,-305.3632 309.843,-1380.0602 301,-1446 297.5344,-1471.8417 290.5975,-1500.4061 284.623,-1522.2201"/>
<polygon fill="#000000" stroke="#000000" points="281.1998,-1521.4653 281.8745,-1532.0387 287.9407,-1523.3524 281.1998,-1521.4653"/>
</g>
<!-- 140178132102616 -->
<g id="node51" class="node">
<title>140178132102616</title>
<polygon fill="none" stroke="#000000" points="1061,-144 804,-144 804,-108 1061,-108 1061,-144"/>
<text text-anchor="middle" x="932.5" y="-122.3" font-family="Times,serif" font-size="14.00" fill="#000000">TradeDirect:TradeDirect [overloaded_#001]</text>
</g>
<!-- 140178132102616&#45;&gt;140178132027656 -->
<g id="edge44" class="edge">
<title>140178132102616&#45;&gt;140178132027656</title>
<path fill="none" stroke="#000000" d="M803.7388,-130.0937C731.1395,-132.062 638.7686,-134 556.5,-134 454,-134 454,-134 454,-134 395.561,-134 368.1827,-144.5758 337,-194 299.8702,-252.8502 310.2034,-1377.027 301,-1446 297.5515,-1471.844 290.6142,-1500.4084 284.6353,-1522.2218"/>
<polygon fill="#000000" stroke="#000000" points="281.2122,-1521.4665 281.8845,-1532.04 287.9527,-1523.3551 281.2122,-1521.4665"/>
</g>
<!-- 140178132029056 -->
<g id="node52" class="node">
<title>140178132029056</title>
<polygon fill="none" stroke="#000000" points="1038,-90 827,-90 827,-54 1038,-54 1038,-90"/>
<text text-anchor="middle" x="932.5" y="-68.3" font-family="Times,serif" font-size="14.00" fill="#000000">TradeDirect:checkDBProductName</text>
</g>
<!-- 140178132029056&#45;&gt;140178132027656 -->
<g id="edge21" class="edge">
<title>140178132029056&#45;&gt;140178132027656</title>
<path fill="none" stroke="#000000" d="M826.7612,-75.4508C751.4201,-77.616 647.7463,-80 556.5,-80 454,-80 454,-80 454,-80 395.561,-80 368.1534,-90.5573 337,-140 298.3065,-201.4095 310.5573,-1374.0489 301,-1446 297.5668,-1471.846 290.6293,-1500.4104 284.6464,-1522.2232"/>
<polygon fill="#000000" stroke="#000000" points="281.2234,-1521.4676 281.8934,-1532.0412 287.9634,-1523.3575 281.2234,-1521.4676"/>
</g>
<!-- 140178132028888 -->
<g id="node53" class="node">
<title>140178132028888</title>
<polygon fill="none" stroke="#000000" points="996.5,-36 868.5,-36 868.5,0 996.5,0 996.5,-36"/>
<text text-anchor="middle" x="932.5" y="-14.3" font-family="Times,serif" font-size="14.00" fill="#000000">TradeDirect:commit</text>
</g>
<!-- 140178132028888&#45;&gt;140178132027656 -->
<g id="edge6" class="edge">
<title>140178132028888&#45;&gt;140178132027656</title>
<path fill="none" stroke="#000000" d="M868.3068,-20.1966C793.4627,-22.5649 666.0283,-26 556.5,-26 454,-26 454,-26 454,-26 395.561,-26 368.1263,-36.5403 337,-86 296.7428,-149.9687 310.9112,-1371.0706 301,-1446 297.581,-1471.8479 290.6432,-1500.4122 284.6566,-1522.2246"/>
<polygon fill="#000000" stroke="#000000" points="281.2337,-1521.4685 281.9017,-1532.0423 287.9734,-1523.3598 281.2337,-1521.4685"/>
</g>
<!-- 140178132439896 -->
<g id="node54" class="node">
<title>140178132439896</title>
<polygon fill="none" stroke="#000000" points="998,-3006 867,-3006 867,-2970 998,-2970 998,-3006"/>
<text text-anchor="middle" x="932.5" y="-2984.3" font-family="Times,serif" font-size="14.00" fill="#000000">TradeDirect:getConn</text>
</g>
<!-- 140178132439896&#45;&gt;140178132027656 -->
<g id="edge7" class="edge">
<title>140178132439896&#45;&gt;140178132027656</title>
<path fill="none" stroke="#000000" d="M866.7186,-2980.4071C791.743,-2972.4212 665.4674,-2961 556.5,-2961 454,-2961 454,-2961 454,-2961 370.4988,-2961 366.5077,-2892.1136 337,-2814 292.9884,-2697.4912 277.3833,-1790.8534 274.5111,-1595.155"/>
<polygon fill="#000000" stroke="#000000" points="278.0098,-1595.0328 274.3654,-1585.0845 271.0106,-1595.1341 278.0098,-1595.0328"/>
</g>
<!-- 140178132440904 -->
<g id="node55" class="node">
<title>140178132440904</title>
<polygon fill="none" stroke="#000000" points="1018.5,-1386 846.5,-1386 846.5,-1350 1018.5,-1350 1018.5,-1386"/>
<text text-anchor="middle" x="932.5" y="-1364.3" font-family="Times,serif" font-size="14.00" fill="#000000">TradeDirect:getInGlobalTxn</text>
</g>
<!-- 140178132440904&#45;&gt;140178132027656 -->
<g id="edge57" class="edge">
<title>140178132440904&#45;&gt;140178132027656</title>
<path fill="none" stroke="#000000" d="M846.4282,-1357.2846C808.2878,-1352.4526 762.886,-1346.5863 722,-1341 648.3592,-1330.9384 630.8249,-1317 556.5,-1317 454,-1317 454,-1317 454,-1317 399.8489,-1317 375.5317,-1312.952 337,-1351 324.6384,-1363.2064 297.2461,-1465.8581 283.0002,-1521.8694"/>
<polygon fill="#000000" stroke="#000000" points="279.5594,-1521.1998 280.4998,-1531.7529 286.3456,-1522.9168 279.5594,-1521.1998"/>
</g>
<!-- 140178132100936 -->
<g id="node56" class="node">
<title>140178132100936</title>
<polygon fill="none" stroke="#000000" points="1024,-1332 841,-1332 841,-1296 1024,-1296 1024,-1332"/>
<text text-anchor="middle" x="932.5" y="-1310.3" font-family="Times,serif" font-size="14.00" fill="#000000">TradeDirect:recreateDBTables</text>
</g>
<!-- 140178132100936&#45;&gt;140178132027656 -->
<g id="edge1" class="edge">
<title>140178132100936&#45;&gt;140178132027656</title>
<path fill="none" stroke="#000000" d="M840.7798,-1300.6682C764.7848,-1290.7772 653.8566,-1279 556.5,-1279 454,-1279 454,-1279 454,-1279 399.5941,-1279 374.599,-1275.6767 337,-1315 333.3727,-1318.7936 299.5128,-1454.55 282.9875,-1521.4629"/>
<polygon fill="#000000" stroke="#000000" points="279.4887,-1521.0329 280.4914,-1531.5802 286.285,-1522.7097 279.4887,-1521.0329"/>
</g>
<!-- 140178132099592 -->
<g id="node57" class="node">
<title>140178132099592</title>
<polygon fill="none" stroke="#000000" points="1008.5,-1278 856.5,-1278 856.5,-1242 1008.5,-1242 1008.5,-1278"/>
<text text-anchor="middle" x="932.5" y="-1256.3" font-family="Times,serif" font-size="14.00" fill="#000000">TradeDirect:releaseConn</text>
</g>
<!-- 140178132099592&#45;&gt;140178132027656 -->
<g id="edge27" class="edge">
<title>140178132099592&#45;&gt;140178132027656</title>
<path fill="none" stroke="#000000" d="M856.2227,-1253.8837C780.2998,-1248.3294 660.4241,-1241 556.5,-1241 454,-1241 454,-1241 454,-1241 399.4618,-1241 373.6858,-1237.6445 337,-1278 285.6344,-1334.5038 317.9494,-1371.5431 301,-1446 295.2128,-1471.4226 288.3186,-1499.9948 282.9453,-1521.9173"/>
<polygon fill="#000000" stroke="#000000" points="279.5059,-1521.2472 280.5172,-1531.7937 286.3034,-1522.9184 279.5059,-1521.2472"/>
</g>
<!-- 140178132099760 -->
<g id="node58" class="node">
<title>140178132099760</title>
<polygon fill="none" stroke="#000000" points="983,-2952 882,-2952 882,-2916 983,-2916 983,-2952"/>
<text text-anchor="middle" x="932.5" y="-2930.3" font-family="Times,serif" font-size="14.00" fill="#000000">new MDBStats</text>
</g>
<!-- 140178132099760&#45;&gt;140178132027656 -->
<g id="edge53" class="edge">
<title>140178132099760&#45;&gt;140178132027656</title>
<path fill="none" stroke="#000000" d="M881.8045,-2927.5968C794.3605,-2916.7671 618.5837,-2896 556.5,-2896 454,-2896 454,-2896 454,-2896 363.7384,-2896 366.5753,-2815.2787 337,-2730 299.0948,-2620.7025 278.8642,-1783.0634 274.7786,-1595.2786"/>
<polygon fill="#000000" stroke="#000000" points="278.2737,-1595.0094 274.5589,-1585.0872 271.2753,-1595.1604 278.2737,-1595.0094"/>
</g>
<!-- 140178132027320 -->
<g id="node59" class="node">
<title>140178132027320</title>
<polygon fill="none" stroke="#000000" points="596,-1432 517,-1432 517,-1396 596,-1396 596,-1432"/>
<text text-anchor="middle" x="556.5" y="-1410.3" font-family="Times,serif" font-size="14.00" fill="#000000">init_loop_2</text>
</g>
<!-- 140178132027208 -->
<g id="node67" class="node">
<title>140178132027208</title>
<ellipse fill="none" stroke="#000000" cx="659" cy="-1448" rx="27" ry="27"/>
<text text-anchor="middle" x="659" y="-1444.3" font-family="Times,serif" font-size="14.00" fill="#000000">p_5</text>
</g>
<!-- 140178132027320&#45;&gt;140178132027208 -->
<g id="edge59" class="edge">
<title>140178132027320&#45;&gt;140178132027208</title>
<path fill="none" stroke="#000000" d="M596.1292,-1427.1453C605.134,-1430.1322 614.644,-1433.2868 623.4662,-1436.2132"/>
<polygon fill="#000000" stroke="#000000" points="622.4773,-1439.5726 633.0708,-1439.3991 624.6813,-1432.9286 622.4773,-1439.5726"/>
</g>
<!-- 140178132027544 -->
<g id="node60" class="node">
<title>140178132027544</title>
<polygon fill="none" stroke="#000000" points="583.5,-1572 529.5,-1572 529.5,-1536 583.5,-1536 583.5,-1572"/>
<text text-anchor="middle" x="556.5" y="-1550.3" font-family="Times,serif" font-size="14.00" fill="#000000">loop_3</text>
</g>
<!-- 140178132027544&#45;&gt;140178132027208 -->
<g id="edge60" class="edge">
<title>140178132027544&#45;&gt;140178132027208</title>
<path fill="none" stroke="#000000" d="M574.3541,-1535.5362C590.5576,-1518.7795 614.6496,-1493.8648 632.9921,-1474.896"/>
<polygon fill="#000000" stroke="#000000" points="635.5254,-1477.3111 639.9608,-1467.6894 630.4933,-1472.4452 635.5254,-1477.3111"/>
</g>
<!-- 140178132074568 -->
<g id="node61" class="node">
<title>140178132074568</title>
<polygon fill="none" stroke="#000000" points="391,-1576 337,-1576 337,-1540 391,-1540 391,-1576"/>
<text text-anchor="middle" x="364" y="-1554.3" font-family="Times,serif" font-size="14.00" fill="#000000">skip_4</text>
</g>
<!-- 140178132027768 -->
<g id="node69" class="node">
<title>140178132027768</title>
<ellipse fill="none" stroke="#000000" cx="454" cy="-1558" rx="27" ry="27"/>
<text text-anchor="middle" x="454" y="-1554.3" font-family="Times,serif" font-size="14.00" fill="#000000">p_7</text>
</g>
<!-- 140178132074568&#45;&gt;140178132027768 -->
<g id="edge123" class="edge">
<title>140178132074568&#45;&gt;140178132027768</title>
<path fill="none" stroke="#000000" d="M391.003,-1558C399.0277,-1558 407.9665,-1558 416.5309,-1558"/>
<polygon fill="#000000" stroke="#000000" points="416.7051,-1561.5001 426.705,-1558 416.705,-1554.5001 416.7051,-1561.5001"/>
</g>
<!-- 140178132074792 -->
<g id="node62" class="node">
<title>140178132074792</title>
<polygon fill="none" stroke="#000000" points="391,-2556 337,-2556 337,-2520 391,-2520 391,-2556"/>
<text text-anchor="middle" x="364" y="-2534.3" font-family="Times,serif" font-size="14.00" fill="#000000">skip_5</text>
</g>
<!-- 140178132027096 -->
<g id="node66" class="node">
<title>140178132027096</title>
<ellipse fill="none" stroke="#000000" cx="454" cy="-2542" rx="27" ry="27"/>
<text text-anchor="middle" x="454" y="-2538.3" font-family="Times,serif" font-size="14.00" fill="#000000">p_4</text>
</g>
<!-- 140178132074792&#45;&gt;140178132027096 -->
<g id="edge124" class="edge">
<title>140178132074792&#45;&gt;140178132027096</title>
<path fill="none" stroke="#000000" d="M391.003,-2539.2001C399.1013,-2539.5601 408.1306,-2539.9614 416.7665,-2540.3452"/>
<polygon fill="#000000" stroke="#000000" points="416.8705,-2543.8532 427.0161,-2540.8007 417.1814,-2536.8601 416.8705,-2543.8532"/>
</g>
<!-- 140178132026928 -->
<g id="node63" class="node">
<title>140178132026928</title>
<polygon fill="none" stroke="#000000" points="391,-1428 337,-1428 337,-1392 391,-1392 391,-1428"/>
<text text-anchor="middle" x="364" y="-1406.3" font-family="Times,serif" font-size="14.00" fill="#000000">tau_1</text>
</g>
<!-- 140178132363024 -->
<g id="node65" class="node">
<title>140178132363024</title>
<ellipse fill="none" stroke="#000000" cx="454" cy="-1410" rx="27" ry="27"/>
<text text-anchor="middle" x="454" y="-1406.3" font-family="Times,serif" font-size="14.00" fill="#000000">p_3</text>
</g>
<!-- 140178132026928&#45;&gt;140178132363024 -->
<g id="edge126" class="edge">
<title>140178132026928&#45;&gt;140178132363024</title>
<path fill="none" stroke="#000000" d="M391.003,-1410C399.0277,-1410 407.9665,-1410 416.5309,-1410"/>
<polygon fill="#000000" stroke="#000000" points="416.7051,-1413.5001 426.705,-1410 416.705,-1406.5001 416.7051,-1413.5001"/>
</g>
<!-- 140178132363192 -->
<g id="node64" class="node">
<title>140178132363192</title>
<ellipse fill="#00ff00" stroke="#000000" cx="274" cy="-1410" rx="27" ry="27"/>
<text text-anchor="middle" x="274" y="-1406.3" font-family="Times,serif" font-size="14.00" fill="#000000">1</text>
</g>
<!-- 140178132363192&#45;&gt;140178132026928 -->
<g id="edge125" class="edge">
<title>140178132363192&#45;&gt;140178132026928</title>
<path fill="none" stroke="#000000" d="M301.003,-1410C309.0277,-1410 317.9665,-1410 326.5309,-1410"/>
<polygon fill="#000000" stroke="#000000" points="326.7051,-1413.5001 336.705,-1410 326.705,-1406.5001 326.7051,-1413.5001"/>
</g>
<!-- 140178132363024&#45;&gt;140178132027320 -->
<g id="edge61" class="edge">
<title>140178132363024&#45;&gt;140178132027320</title>
<path fill="none" stroke="#000000" d="M481.199,-1411.0614C489.0426,-1411.3675 497.8582,-1411.7115 506.6204,-1412.0535"/>
<polygon fill="#000000" stroke="#000000" points="506.6915,-1415.5588 516.8204,-1412.4515 506.9645,-1408.5641 506.6915,-1415.5588"/>
</g>
<!-- 140178132027096&#45;&gt;140178132027600 -->
<g id="edge62" class="edge">
<title>140178132027096&#45;&gt;140178132027600</title>
<path fill="none" stroke="#000000" d="M481.199,-2542C492.7828,-2542 506.4866,-2542 519.0073,-2542"/>
<polygon fill="#000000" stroke="#000000" points="519.1739,-2545.5001 529.1739,-2542 519.1739,-2538.5001 519.1739,-2545.5001"/>
</g>
<!-- 140178132027208&#45;&gt;140178132028552 -->
<g id="edge96" class="edge">
<title>140178132027208&#45;&gt;140178132028552</title>
<path fill="none" stroke="#000000" d="M632.1954,-1451.6469C593.0987,-1456.6421 518.1038,-1465 454,-1465 364,-1465 364,-1465 364,-1465 301.3939,-1465 231.5597,-1478.2402 180.2731,-1490.514"/>
<polygon fill="#000000" stroke="#000000" points="179.1576,-1487.1833 170.2707,-1492.9516 180.8151,-1493.9842 179.1576,-1487.1833"/>
</g>
<!-- 140178132027208&#45;&gt;140178132099928 -->
<g id="edge99" class="edge">
<title>140178132027208&#45;&gt;140178132099928</title>
<path fill="none" stroke="#000000" d="M659.7371,-1475.1986C665.0319,-1668.4297 697.751,-2826.6563 722,-2853 761.0207,-2895.3914 830.9148,-2896.0681 879.4045,-2890.175"/>
<polygon fill="#000000" stroke="#000000" points="879.9634,-2893.6314 889.408,-2888.8304 879.0308,-2886.6938 879.9634,-2893.6314"/>
</g>
<!-- 140178132027208&#45;&gt;140178132440736 -->
<g id="edge76" class="edge">
<title>140178132027208&#45;&gt;140178132440736</title>
<path fill="none" stroke="#000000" d="M659.2843,-1475.0989C661.3606,-1661.5477 675.4413,-2748.5101 722,-2799 760.5922,-2840.8508 829.2798,-2842.0186 877.6762,-2836.367"/>
<polygon fill="#000000" stroke="#000000" points="878.2107,-2839.827 887.6773,-2835.0696 877.3101,-2832.8852 878.2107,-2839.827"/>
</g>
<!-- 140178132027208&#45;&gt;140178132439392 -->
<g id="edge84" class="edge">
<title>140178132027208&#45;&gt;140178132439392</title>
<path fill="none" stroke="#000000" d="M659.3396,-1475.1759C661.7384,-1657.4738 677.3468,-2696.6705 722,-2745 756.0095,-2781.8095 813.3045,-2787.1256 859.5394,-2784.0233"/>
<polygon fill="#000000" stroke="#000000" points="859.8404,-2787.5104 869.5247,-2783.2135 859.2745,-2780.5333 859.8404,-2787.5104"/>
</g>
<!-- 140178132027208&#45;&gt;140178132102112 -->
<g id="edge72" class="edge">
<title>140178132027208&#45;&gt;140178132102112</title>
<path fill="none" stroke="#000000" d="M659.3989,-1475.179C662.1292,-1653.0206 679.2445,-2644.822 722,-2691 760.7935,-2732.8989 829.762,-2733.9635 878.1538,-2728.279"/>
<polygon fill="#000000" stroke="#000000" points="878.686,-2731.7393 888.1496,-2726.9758 877.781,-2724.798 878.686,-2731.7393"/>
</g>
<!-- 140178132027208&#45;&gt;140178132102784 -->
<g id="edge94" class="edge">
<title>140178132027208&#45;&gt;140178132102784</title>
<path fill="none" stroke="#000000" d="M659.4621,-1475.1052C662.5328,-1648.189 681.1343,-2592.9646 722,-2637 754.3297,-2671.8373 807.5242,-2678.422 852.3482,-2676.381"/>
<polygon fill="#000000" stroke="#000000" points="852.5904,-2679.8728 862.3621,-2675.7783 852.1699,-2672.8854 852.5904,-2679.8728"/>
</g>
<!-- 140178132027208&#45;&gt;140178132441744 -->
<g id="edge102" class="edge">
<title>140178132027208&#45;&gt;140178132441744</title>
<path fill="none" stroke="#000000" d="M659.535,-1475.2237C662.9709,-1643.9479 683.0371,-2541.1207 722,-2583 758.7085,-2622.4562 822.1873,-2625.6393 869.8621,-2621.1187"/>
<polygon fill="#000000" stroke="#000000" points="870.5199,-2624.568 880.0844,-2620.0105 869.7654,-2617.6088 870.5199,-2624.568"/>
</g>
<!-- 140178132027208&#45;&gt;140178132440232 -->
<g id="edge95" class="edge">
<title>140178132027208&#45;&gt;140178132440232</title>
<path fill="none" stroke="#000000" d="M659.6132,-1475.2443C663.425,-1639.2344 684.9301,-2489.2657 722,-2529 722.6598,-2529.7072 723.3281,-2530.4027 724.0049,-2531.0867"/>
<polygon fill="#000000" stroke="#000000" points="721.8176,-2533.829 731.5641,-2537.9831 726.5354,-2528.6577 721.8176,-2533.829"/>
</g>
<!-- 140178132027208&#45;&gt;140178132442920 -->
<g id="edge117" class="edge">
<title>140178132027208&#45;&gt;140178132442920</title>
<path fill="none" stroke="#000000" d="M659.6971,-1475.1622C663.8948,-1634.0504 686.8132,-2437.3994 722,-2475 742.4696,-2496.8738 771.1711,-2507.5766 800.8104,-2511.9978"/>
<polygon fill="#000000" stroke="#000000" points="800.5292,-2515.4899 810.8874,-2513.2634 801.4016,-2508.5445 800.5292,-2515.4899"/>
</g>
<!-- 140178132027208&#45;&gt;140178132443088 -->
<g id="edge74" class="edge">
<title>140178132027208&#45;&gt;140178132443088</title>
<path fill="none" stroke="#000000" d="M659.7941,-1475.2235C664.4066,-1629.2204 688.7045,-2385.5411 722,-2421 745.8156,-2446.3631 780.7024,-2456.6888 815.2525,-2459.6197"/>
<polygon fill="#000000" stroke="#000000" points="815.2585,-2463.1273 825.4632,-2460.2789 815.7095,-2456.1418 815.2585,-2463.1273"/>
</g>
<!-- 140178132027208&#45;&gt;140178132101440 -->
<g id="edge104" class="edge">
<title>140178132027208&#45;&gt;140178132101440</title>
<path fill="none" stroke="#000000" d="M659.9067,-1475.3999C664.965,-1624.6021 690.601,-2333.6874 722,-2367 742.6047,-2388.8604 771.4368,-2399.535 801.1656,-2403.9314"/>
<polygon fill="#000000" stroke="#000000" points="800.9156,-2407.4273 811.2713,-2405.1888 801.78,-2400.4808 800.9156,-2407.4273"/>
</g>
<!-- 140178132027208&#45;&gt;140178132440568 -->
<g id="edge111" class="edge">
<title>140178132027208&#45;&gt;140178132440568</title>
<path fill="none" stroke="#000000" d="M660.0193,-1475.1885C665.5154,-1618.6015 692.4674,-2281.801 722,-2313 740.3605,-2332.3966 765.201,-2342.9733 791.3796,-2348.1698"/>
<polygon fill="#000000" stroke="#000000" points="791.0189,-2351.6591 801.4675,-2349.9052 792.2057,-2344.7604 791.0189,-2351.6591"/>
</g>
<!-- 140178132027208&#45;&gt;140178132441072 -->
<g id="edge89" class="edge">
<title>140178132027208&#45;&gt;140178132441072</title>
<path fill="none" stroke="#000000" d="M659.1186,-1475.0712C659.9659,-1609.4833 666.8261,-2200.9935 722,-2259 746.1517,-2284.3916 781.4133,-2294.6427 816.1959,-2297.4986"/>
<polygon fill="#000000" stroke="#000000" points="816.2737,-2301.0101 826.4711,-2298.1356 816.7069,-2294.0235 816.2737,-2301.0101"/>
</g>
<!-- 140178132027208&#45;&gt;140178132029224 -->
<g id="edge107" class="edge">
<title>140178132027208&#45;&gt;140178132029224</title>
<path fill="none" stroke="#000000" d="M659.2814,-1475.3874C660.8729,-1604.8312 670.6129,-2151.2717 722,-2205 742.2177,-2226.1388 770.1399,-2236.7633 799.0437,-2241.3619"/>
<polygon fill="#000000" stroke="#000000" points="798.9192,-2244.8767 809.2972,-2242.7445 799.8547,-2237.9394 798.9192,-2244.8767"/>
</g>
<!-- 140178132027208&#45;&gt;140178132439560 -->
<g id="edge66" class="edge">
<title>140178132027208&#45;&gt;140178132439560</title>
<path fill="none" stroke="#000000" d="M659.4605,-1475.0614C661.813,-1598.166 674.3067,-2101.4495 722,-2151 743.0045,-2172.8225 772.2256,-2183.4138 802.2202,-2187.7369"/>
<polygon fill="#000000" stroke="#000000" points="802.0632,-2191.2433 812.4112,-2188.9698 802.904,-2184.294 802.0632,-2191.2433"/>
</g>
<!-- 140178132027208&#45;&gt;140178132099256 -->
<g id="edge79" class="edge">
<title>140178132027208&#45;&gt;140178132099256</title>
<path fill="none" stroke="#000000" d="M659.6806,-1475.314C662.8687,-1592.855 678.0664,-2051.692 722,-2097 744.6049,-2120.3121 776.5942,-2130.773 808.8272,-2134.4683"/>
<polygon fill="#000000" stroke="#000000" points="808.5455,-2137.9572 818.8282,-2135.4047 809.198,-2130.9876 808.5455,-2137.9572"/>
</g>
<!-- 140178132027208&#45;&gt;140178132100600 -->
<g id="edge100" class="edge">
<title>140178132027208&#45;&gt;140178132100600</title>
<path fill="none" stroke="#000000" d="M659.9327,-1475.2657C663.9951,-1586.4816 681.7778,-2001.8797 722,-2043 732.5712,-2053.8072 745.1613,-2061.8438 758.8516,-2067.7201"/>
<polygon fill="#000000" stroke="#000000" points="757.9047,-2071.1065 768.4939,-2071.4507 760.4306,-2064.5781 757.9047,-2071.1065"/>
</g>
<!-- 140178132027208&#45;&gt;140178132099424 -->
<g id="edge91" class="edge">
<title>140178132027208&#45;&gt;140178132099424</title>
<path fill="none" stroke="#000000" d="M660.2352,-1475.2483C665.2365,-1579.9021 685.4817,-1952.0541 722,-1989 736.5794,-2003.7501 754.9244,-2013.3191 774.6742,-2019.2723"/>
<polygon fill="#000000" stroke="#000000" points="773.9058,-2022.69 784.472,-2021.9112 775.7264,-2015.9309 773.9058,-2022.69"/>
</g>
<!-- 140178132027208&#45;&gt;140178132442752 -->
<g id="edge119" class="edge">
<title>140178132027208&#45;&gt;140178132442752</title>
<path fill="none" stroke="#000000" d="M660.6,-1475.1706C666.6079,-1572.856 689.1657,-1902.2011 722,-1935 737.7105,-1950.6936 757.6909,-1960.4942 779.0598,-1966.3069"/>
<polygon fill="#000000" stroke="#000000" points="778.4227,-1969.7536 788.9653,-1968.7037 780.069,-1962.95 778.4227,-1969.7536"/>
</g>
<!-- 140178132027208&#45;&gt;140178132029392 -->
<g id="edge69" class="edge">
<title>140178132027208&#45;&gt;140178132029392</title>
<path fill="none" stroke="#000000" d="M661.0402,-1474.9283C668.1232,-1565.0879 692.8171,-1852.3066 722,-1881 747.2869,-1905.8628 783.3148,-1915.8468 818.4326,-1918.6254"/>
<polygon fill="#000000" stroke="#000000" points="818.6033,-1922.1418 828.7944,-1919.245 819.0212,-1915.1543 818.6033,-1922.1418"/>
</g>
<!-- 140178132027208&#45;&gt;140178132028720 -->
<g id="edge83" class="edge">
<title>140178132027208&#45;&gt;140178132028720</title>
<path fill="none" stroke="#000000" d="M659.472,-1475.0452C661.4338,-1553.4351 671.4453,-1778.2894 722,-1827 751.7184,-1855.6344 795.728,-1864.3806 835.8341,-1865.1605"/>
<polygon fill="#000000" stroke="#000000" points="835.9237,-1868.6607 845.9354,-1865.1944 835.9472,-1861.6607 835.9237,-1868.6607"/>
</g>
<!-- 140178132027208&#45;&gt;140178132102952 -->
<g id="edge106" class="edge">
<title>140178132027208&#45;&gt;140178132102952</title>
<path fill="none" stroke="#000000" d="M660.301,-1475.2004C664.2706,-1545.8321 678.7199,-1732.4009 722,-1773 747.1915,-1796.631 782.1608,-1806.5755 816.3686,-1809.6886"/>
<polygon fill="#000000" stroke="#000000" points="816.2404,-1813.1883 826.4665,-1810.4173 816.7444,-1806.2065 816.2404,-1813.1883"/>
</g>
<!-- 140178132027208&#45;&gt;140178132442584 -->
<g id="edge92" class="edge">
<title>140178132027208&#45;&gt;140178132442584</title>
<path fill="none" stroke="#000000" d="M661.4415,-1475.1804C667.5972,-1537.2096 685.8976,-1686.3664 722,-1719 754.3844,-1748.2728 801.8816,-1756.2332 843.566,-1756.3383"/>
<polygon fill="#000000" stroke="#000000" points="843.791,-1759.8359 853.7467,-1756.2117 843.7039,-1752.8364 843.791,-1759.8359"/>
</g>
<!-- 140178132027208&#45;&gt;140178132101272 -->
<g id="edge65" class="edge">
<title>140178132027208&#45;&gt;140178132101272</title>
<path fill="none" stroke="#000000" d="M663.0767,-1474.8545C671.5983,-1527.2407 692.9417,-1640.1292 722,-1665 749.6971,-1688.7057 787.4306,-1698.1199 823.3045,-1700.7488"/>
<polygon fill="#000000" stroke="#000000" points="823.1822,-1704.2474 833.3636,-1701.3166 823.5767,-1697.2585 823.1822,-1704.2474"/>
</g>
<!-- 140178132027208&#45;&gt;140178132442080 -->
<g id="edge116" class="edge">
<title>140178132027208&#45;&gt;140178132442080</title>
<path fill="none" stroke="#000000" d="M661.1825,-1475.2095C665.7196,-1512.2651 679.616,-1577.7801 722,-1611 751.82,-1634.3724 791.6481,-1643.3245 828.6326,-1645.6701"/>
<polygon fill="#000000" stroke="#000000" points="828.8227,-1649.183 838.978,-1646.1629 829.1559,-1642.1909 828.8227,-1649.183"/>
</g>
<!-- 140178132027208&#45;&gt;140178132441912 -->
<g id="edge110" class="edge">
<title>140178132027208&#45;&gt;140178132441912</title>
<path fill="none" stroke="#000000" d="M666.6509,-1474.315C675.5548,-1499.8916 692.8855,-1537.6263 722,-1557 745.2895,-1572.4975 773.2805,-1581.1774 801.1356,-1585.7204"/>
<polygon fill="#000000" stroke="#000000" points="800.983,-1589.235 811.3829,-1587.2119 801.9913,-1582.308 800.983,-1589.235"/>
</g>
<!-- 140178132027208&#45;&gt;140178132100096 -->
<g id="edge97" class="edge">
<title>140178132027208&#45;&gt;140178132100096</title>
<path fill="none" stroke="#000000" d="M676.7213,-1468.6784C688.3176,-1480.7619 704.5211,-1495.139 722,-1503 763.9081,-1521.8477 814.943,-1528.7393 856.2655,-1530.851"/>
<polygon fill="#000000" stroke="#000000" points="856.1377,-1534.3486 866.2783,-1531.2798 856.4373,-1527.355 856.1377,-1534.3486"/>
</g>
<!-- 140178132027208&#45;&gt;140178132439224 -->
<g id="edge78" class="edge">
<title>140178132027208&#45;&gt;140178132439224</title>
<path fill="none" stroke="#000000" d="M686.2241,-1450.7871C713.1744,-1453.5462 756.5035,-1457.9821 799.3596,-1462.3695"/>
<polygon fill="#000000" stroke="#000000" points="799.0533,-1465.8564 809.3578,-1463.3931 799.7663,-1458.8928 799.0533,-1465.8564"/>
</g>
<!-- 140178132027208&#45;&gt;140178132440400 -->
<g id="edge73" class="edge">
<title>140178132027208&#45;&gt;140178132440400</title>
<path fill="none" stroke="#000000" d="M686.2241,-1445.412C719.665,-1442.2329 778.3236,-1436.6566 830.0053,-1431.7436"/>
<polygon fill="#000000" stroke="#000000" points="830.6152,-1435.2014 840.239,-1430.7707 829.9526,-1428.2329 830.6152,-1435.2014"/>
</g>
<!-- 140178132027208&#45;&gt;140178132100264 -->
<g id="edge90" class="edge">
<title>140178132027208&#45;&gt;140178132100264</title>
<path fill="none" stroke="#000000" d="M663.1799,-1420.9895C671.8114,-1368.908 693.2319,-1257.5605 722,-1233 743.2756,-1214.8362 770.4472,-1205.0717 798.1462,-1200.3219"/>
<polygon fill="#000000" stroke="#000000" points="798.9932,-1203.7342 808.365,-1198.7926 797.9571,-1196.8113 798.9932,-1203.7342"/>
</g>
<!-- 140178132027208&#45;&gt;140178132100432 -->
<g id="edge87" class="edge">
<title>140178132027208&#45;&gt;140178132100432</title>
<path fill="none" stroke="#000000" d="M661.4722,-1421.0179C667.6935,-1359.4415 686.1238,-1211.3757 722,-1179 750.1279,-1153.6165 789.6234,-1144.269 826.8154,-1142.1702"/>
<polygon fill="#000000" stroke="#000000" points="827.3773,-1145.651 837.233,-1141.7632 827.104,-1138.6563 827.3773,-1145.651"/>
</g>
<!-- 140178132027208&#45;&gt;140178132440064 -->
<g id="edge113" class="edge">
<title>140178132027208&#45;&gt;140178132440064</title>
<path fill="none" stroke="#000000" d="M660.3271,-1420.9652C664.3609,-1350.7638 678.9533,-1165.3335 722,-1125 756.5469,-1092.6306 809.444,-1085.9529 853.5675,-1087.3312"/>
<polygon fill="#000000" stroke="#000000" points="853.5575,-1090.8343 863.706,-1087.7916 853.8751,-1083.8415 853.5575,-1090.8343"/>
</g>
<!-- 140178132027208&#45;&gt;140178132102448 -->
<g id="edge77" class="edge">
<title>140178132027208&#45;&gt;140178132102448</title>
<path fill="none" stroke="#000000" d="M659.5019,-1420.8177C661.5429,-1342.585 671.7438,-1119.3814 722,-1071 751.853,-1042.2606 796.1043,-1033.5621 836.3407,-1032.8424"/>
<polygon fill="#000000" stroke="#000000" points="836.479,-1036.3422 846.4725,-1032.824 836.4662,-1029.3423 836.479,-1036.3422"/>
</g>
<!-- 140178132027208&#45;&gt;140178132028384 -->
<g id="edge86" class="edge">
<title>140178132027208&#45;&gt;140178132028384</title>
<path fill="none" stroke="#000000" d="M661.0743,-1420.8825C668.2194,-1330.7878 692.9734,-1045.5209 722,-1017 746.8766,-992.5568 782.1355,-982.4981 816.6981,-979.5283"/>
<polygon fill="#000000" stroke="#000000" points="817.1569,-983.0056 826.9023,-978.849 816.6919,-976.021 817.1569,-983.0056"/>
</g>
<!-- 140178132027208&#45;&gt;140178132442416 -->
<g id="edge98" class="edge">
<title>140178132027208&#45;&gt;140178132442416</title>
<path fill="none" stroke="#000000" d="M660.6083,-1420.9405C666.645,-1323.6548 689.2897,-995.6578 722,-963 753.5011,-931.5494 802.1518,-923.7705 844.7495,-924.325"/>
<polygon fill="#000000" stroke="#000000" points="844.7708,-927.8269 854.8658,-924.6112 844.9688,-920.8297 844.7708,-927.8269"/>
</g>
<!-- 140178132027208&#45;&gt;140178132441576 -->
<g id="edge115" class="edge">
<title>140178132027208&#45;&gt;140178132441576</title>
<path fill="none" stroke="#000000" d="M660.2427,-1420.8521C665.272,-1316.5839 685.607,-945.8034 722,-909 748.2258,-882.4784 786.6265,-872.7101 823.4723,-870.5926"/>
<polygon fill="#000000" stroke="#000000" points="823.9556,-874.0765 833.812,-870.1906 823.6836,-867.0818 823.9556,-874.0765"/>
</g>
<!-- 140178132027208&#45;&gt;140178132100768 -->
<g id="edge81" class="edge">
<title>140178132027208&#45;&gt;140178132100768</title>
<path fill="none" stroke="#000000" d="M659.9395,-1420.8257C664.0292,-1309.9824 681.9042,-895.9765 722,-855 749.5577,-826.837 790.826,-817.4922 829.5407,-816.1579"/>
<polygon fill="#000000" stroke="#000000" points="829.9071,-819.6523 839.8467,-815.9844 829.7892,-812.6533 829.9071,-819.6523"/>
</g>
<!-- 140178132027208&#45;&gt;140178132439728 -->
<g id="edge108" class="edge">
<title>140178132027208&#45;&gt;140178132439728</title>
<path fill="none" stroke="#000000" d="M659.6869,-1420.7699C662.9016,-1303.59 678.1938,-846.1632 722,-801 743.0307,-779.3178 772.1795,-768.7538 802.0901,-764.4106"/>
<polygon fill="#000000" stroke="#000000" points="802.7506,-767.856 812.2523,-763.169 801.9016,-760.9076 802.7506,-767.856"/>
</g>
<!-- 140178132027208&#45;&gt;140178132441408 -->
<g id="edge101" class="edge">
<title>140178132027208&#45;&gt;140178132441408</title>
<path fill="none" stroke="#000000" d="M659.4743,-1420.6039C661.8727,-1297.1428 674.488,-796.3496 722,-747 744.5795,-723.5472 776.6493,-713.0675 808.9683,-709.3994"/>
<polygon fill="#000000" stroke="#000000" points="809.3605,-712.8782 818.996,-708.4729 808.7164,-705.9079 809.3605,-712.8782"/>
</g>
<!-- 140178132027208&#45;&gt;140178132442248 -->
<g id="edge85" class="edge">
<title>140178132027208&#45;&gt;140178132442248</title>
<path fill="none" stroke="#000000" d="M659.2869,-1420.6848C660.9036,-1291.582 670.7419,-746.5817 722,-693 742.4227,-671.6515 770.7038,-661.0278 799.9166,-656.5048"/>
<polygon fill="#000000" stroke="#000000" points="800.3912,-659.9726 809.8493,-655.1981 799.4782,-653.0324 800.3912,-659.9726"/>
</g>
<!-- 140178132027208&#45;&gt;140178132028216 -->
<g id="edge70" class="edge">
<title>140178132027208&#45;&gt;140178132028216</title>
<path fill="none" stroke="#000000" d="M659.1236,-1420.9953C659.9956,-1286.9139 666.9558,-696.859 722,-639 749.6255,-609.9618 791.7816,-600.7265 831.1314,-599.7079"/>
<polygon fill="#000000" stroke="#000000" points="831.3624,-603.2061 841.3322,-599.621 831.3027,-596.2064 831.3624,-603.2061"/>
</g>
<!-- 140178132027208&#45;&gt;140178132028048 -->
<g id="edge112" class="edge">
<title>140178132027208&#45;&gt;140178132028048</title>
<path fill="none" stroke="#000000" d="M660.0216,-1420.8743C665.5295,-1277.7925 692.5327,-616.1248 722,-585 742.0534,-563.8186 769.8344,-553.1555 798.6458,-548.5309"/>
<polygon fill="#000000" stroke="#000000" points="799.4321,-551.9563 808.8688,-547.1397 798.4881,-545.0202 799.4321,-551.9563"/>
</g>
<!-- 140178132027208&#45;&gt;140178132101776 -->
<g id="edge93" class="edge">
<title>140178132027208&#45;&gt;140178132101776</title>
<path fill="none" stroke="#000000" d="M659.9089,-1420.6597C664.9789,-1271.7819 690.6665,-564.2381 722,-531 748.7964,-502.5748 789.5038,-493.0635 828.0029,-491.6751"/>
<polygon fill="#000000" stroke="#000000" points="828.3245,-495.17 838.2596,-491.4898 828.1979,-488.1711 828.3245,-495.17"/>
</g>
<!-- 140178132027208&#45;&gt;140178132027880 -->
<g id="edge103" class="edge">
<title>140178132027208&#45;&gt;140178132027880</title>
<path fill="none" stroke="#000000" d="M659.7962,-1420.8324C664.4201,-1267.1517 688.7703,-512.3841 722,-477 755.0632,-441.7931 809.4591,-435.5626 854.6716,-437.8646"/>
<polygon fill="#000000" stroke="#000000" points="854.5519,-441.3642 864.7591,-438.5245 855.0089,-434.3791 854.5519,-441.3642"/>
</g>
<!-- 140178132027208&#45;&gt;140178132441240 -->
<g id="edge64" class="edge">
<title>140178132027208&#45;&gt;140178132441240</title>
<path fill="none" stroke="#000000" d="M659.699,-1420.8906C663.9079,-1262.3115 686.8793,-460.5256 722,-423 749.8518,-393.2411 792.9403,-384.1597 832.8961,-383.4421"/>
<polygon fill="#000000" stroke="#000000" points="832.9791,-386.9421 842.9757,-383.4324 832.9723,-379.9421 832.9791,-386.9421"/>
</g>
<!-- 140178132027208&#45;&gt;140178132101944 -->
<g id="edge109" class="edge">
<title>140178132027208&#45;&gt;140178132101944</title>
<path fill="none" stroke="#000000" d="M659.6151,-1420.8061C663.4378,-1257.1191 684.9964,-408.6591 722,-369 744.893,-344.4642 778.1405,-333.9693 811.4773,-330.6301"/>
<polygon fill="#000000" stroke="#000000" points="812.1203,-334.0904 821.8146,-329.8159 811.5707,-327.112 812.1203,-334.0904"/>
</g>
<!-- 140178132027208&#45;&gt;140178132101608 -->
<g id="edge75" class="edge">
<title>140178132027208&#45;&gt;140178132101608</title>
<path fill="none" stroke="#000000" d="M659.5367,-1420.8242C662.9835,-1252.3971 683.1035,-356.8038 722,-315 744.8589,-290.4325 778.0967,-279.9284 811.4349,-276.5906"/>
<polygon fill="#000000" stroke="#000000" points="812.0784,-280.0508 821.773,-275.7771 811.5293,-273.0724 812.0784,-280.0508"/>
</g>
<!-- 140178132027208&#45;&gt;140178132101104 -->
<g id="edge80" class="edge">
<title>140178132027208&#45;&gt;140178132101104</title>
<path fill="none" stroke="#000000" d="M659.4638,-1420.9403C662.5451,-1248.1474 681.2009,-304.9598 722,-261 745.2685,-235.929 779.3432,-225.4907 813.3267,-222.3695"/>
<polygon fill="#000000" stroke="#000000" points="813.6519,-225.8553 823.3773,-221.652 813.1534,-218.873 813.6519,-225.8553"/>
</g>
<!-- 140178132027208&#45;&gt;140178132102280 -->
<g id="edge71" class="edge">
<title>140178132027208&#45;&gt;140178132102280</title>
<path fill="none" stroke="#000000" d="M659.4005,-1420.8647C662.1411,-1243.309 679.3112,-253.1021 722,-207 751.1968,-175.4687 797.4831,-167.0642 839.2266,-167.2584"/>
<polygon fill="#000000" stroke="#000000" points="839.3758,-170.7623 849.4474,-167.4737 839.5233,-163.7638 839.3758,-170.7623"/>
</g>
<!-- 140178132027208&#45;&gt;140178132102616 -->
<g id="edge105" class="edge">
<title>140178132027208&#45;&gt;140178132102616</title>
<path fill="none" stroke="#000000" d="M659.3412,-1420.866C661.7501,-1238.8489 677.4137,-201.2535 722,-153 740.7621,-132.6947 766.6099,-121.973 793.7779,-116.9614"/>
<polygon fill="#000000" stroke="#000000" points="794.5079,-120.3895 803.8362,-115.3662 793.4114,-113.4759 794.5079,-120.3895"/>
</g>
<!-- 140178132027208&#45;&gt;140178132029056 -->
<g id="edge82" class="edge">
<title>140178132027208&#45;&gt;140178132029056</title>
<path fill="none" stroke="#000000" d="M659.2858,-1420.9412C661.3721,-1234.7682 675.5083,-149.4137 722,-99 745.9275,-73.0539 781.4226,-62.745 816.4777,-60.0037"/>
<polygon fill="#000000" stroke="#000000" points="817.053,-63.4764 826.8344,-59.4053 816.6492,-56.488 817.053,-63.4764"/>
</g>
<!-- 140178132027208&#45;&gt;140178132028888 -->
<g id="edge67" class="edge">
<title>140178132027208&#45;&gt;140178132028888</title>
<path fill="none" stroke="#000000" d="M659.237,-1420.7825C661.0206,-1229.8599 673.6209,-97.5549 722,-45 755.5229,-8.5836 811.8297,-2.9521 857.7764,-5.8241"/>
<polygon fill="#000000" stroke="#000000" points="857.77,-9.3339 868.0092,-6.612 858.3075,-2.3545 857.77,-9.3339"/>
</g>
<!-- 140178132027208&#45;&gt;140178132439896 -->
<g id="edge68" class="edge">
<title>140178132027208&#45;&gt;140178132439896</title>
<path fill="none" stroke="#000000" d="M659.644,-1475.004C664.496,-1676.0479 695.8388,-2932.4876 722,-2961 755.232,-2997.2186 810.995,-3003.0204 856.7805,-3000.2716"/>
<polygon fill="#000000" stroke="#000000" points="857.2716,-3003.7448 866.9835,-2999.5107 856.7509,-2996.7642 857.2716,-3003.7448"/>
</g>
<!-- 140178132027208&#45;&gt;140178132440904 -->
<g id="edge118" class="edge">
<title>140178132027208&#45;&gt;140178132440904</title>
<path fill="none" stroke="#000000" d="M677.1289,-1427.8126C688.7588,-1416.2254 704.8539,-1402.5234 722,-1395 757.3889,-1379.472 799.1156,-1372.1357 836.0458,-1368.8853"/>
<polygon fill="#000000" stroke="#000000" points="836.6322,-1372.35 846.3256,-1368.0734 836.0811,-1365.3717 836.6322,-1372.35"/>
</g>
<!-- 140178132027208&#45;&gt;140178132100936 -->
<g id="edge63" class="edge">
<title>140178132027208&#45;&gt;140178132100936</title>
<path fill="none" stroke="#000000" d="M666.957,-1421.6845C676.0149,-1396.5784 693.3882,-1359.8733 722,-1341 753.627,-1320.1378 793.8105,-1311.6793 830.5732,-1309.0257"/>
<polygon fill="#000000" stroke="#000000" points="831.0627,-1312.5032 840.8415,-1308.4258 830.6544,-1305.5151 831.0627,-1312.5032"/>
</g>
<!-- 140178132027208&#45;&gt;140178132099592 -->
<g id="edge88" class="edge">
<title>140178132027208&#45;&gt;140178132099592</title>
<path fill="none" stroke="#000000" d="M661.3304,-1420.8046C666.0343,-1384.1381 680.118,-1319.6857 722,-1287 756.6824,-1259.9331 804.806,-1252.2416 846.2871,-1251.7397"/>
<polygon fill="#000000" stroke="#000000" points="846.3955,-1255.2398 856.401,-1251.7554 846.4064,-1248.2398 846.3955,-1255.2398"/>
</g>
<!-- 140178132027208&#45;&gt;140178132099760 -->
<g id="edge114" class="edge">
<title>140178132027208&#45;&gt;140178132099760</title>
<path fill="none" stroke="#000000" d="M659.6936,-1475.2891C664.7782,-1673.051 696.8033,-2879.5812 722,-2907 759.0072,-2947.2709 823.8726,-2949.9178 871.8463,-2945.0331"/>
<polygon fill="#000000" stroke="#000000" points="872.2762,-2948.5068 881.8109,-2943.8872 871.4765,-2941.5526 872.2762,-2948.5068"/>
</g>
<!-- 140178132027656&#45;&gt;140178132074568 -->
<g id="edge120" class="edge">
<title>140178132027656&#45;&gt;140178132074568</title>
<path fill="none" stroke="#000000" d="M301.003,-1558C309.0277,-1558 317.9665,-1558 326.5309,-1558"/>
<polygon fill="#000000" stroke="#000000" points="326.7051,-1561.5001 336.705,-1558 326.705,-1554.5001 326.7051,-1561.5001"/>
</g>
<!-- 140178132027656&#45;&gt;140178132074792 -->
<g id="edge121" class="edge">
<title>140178132027656&#45;&gt;140178132074792</title>
<path fill="none" stroke="#000000" d="M274.9165,-1585.2576C279.9304,-1730.7894 304.9872,-2412.9055 337,-2501 338.2986,-2504.5735 340.0539,-2508.1027 342.0501,-2511.4797"/>
<polygon fill="#000000" stroke="#000000" points="339.2758,-2513.6272 347.7482,-2519.9886 345.0921,-2509.7322 339.2758,-2513.6272"/>
</g>
<!-- 140178132027768&#45;&gt;140178132027544 -->
<g id="edge122" class="edge">
<title>140178132027768&#45;&gt;140178132027544</title>
<path fill="none" stroke="#000000" d="M481.199,-1556.9386C492.7828,-1556.4865 506.4866,-1555.9517 519.0073,-1555.4631"/>
<polygon fill="#000000" stroke="#000000" points="519.318,-1558.9538 529.1739,-1555.0664 519.045,-1551.9591 519.318,-1558.9538"/>
</g>
</g>
</svg>
