<?xml version="1.0" encoding="UTF-8" standalone="no"?>
<!DOCTYPE svg PUBLIC "-//W3C//DTD SVG 1.1//EN"
 "http://www.w3.org/Graphics/SVG/1.1/DTD/svg11.dtd">
<!-- Generated by graphviz version 2.40.1 (20161225.0304)
 -->
<!-- Title: alpha_classic_net_1586496248.593772 Pages: 1 -->
<svg width="640pt" height="656pt"
 viewBox="0.00 0.00 640.00 656.00" xmlns="http://www.w3.org/2000/svg" xmlns:xlink="http://www.w3.org/1999/xlink">
<g id="graph0" class="graph" transform="scale(1 1) rotate(0) translate(4 652)">
<title>alpha_classic_net_1586496248.593772</title>
<!-- 139748203805160 -->
<g id="node1" class="node">
<title>139748203805160</title>
<polygon fill="none" stroke="#000000" points="140,-36 24,-36 24,0 140,0 140,-36"/>
<text text-anchor="middle" x="82" y="-14.3" font-family="Times,serif" font-size="14.00" fill="#000000">AccountDataBean</text>
</g>
<!-- 139748203805104 -->
<g id="node2" class="node">
<title>139748203805104</title>
<polygon fill="none" stroke="#000000" points="158,-90 6,-90 6,-54 158,-54 158,-90"/>
<text text-anchor="middle" x="82" y="-68.3" font-family="Times,serif" font-size="14.00" fill="#000000">AccountProfileDataBean</text>
</g>
<!-- 139748203804824 -->
<g id="node3" class="node">
<title>139748203804824</title>
<polygon fill="none" stroke="#000000" points="128.5,-144 35.5,-144 35.5,-108 128.5,-108 128.5,-144"/>
<text text-anchor="middle" x="82" y="-122.3" font-family="Times,serif" font-size="14.00" fill="#000000">FinancialUtils</text>
</g>
<!-- 139748201595960 -->
<g id="node4" class="node">
<title>139748201595960</title>
<polygon fill="none" stroke="#000000" points="109,-198 55,-198 55,-162 109,-162 109,-198"/>
<text text-anchor="middle" x="82" y="-176.3" font-family="Times,serif" font-size="14.00" fill="#000000">Log</text>
</g>
<!-- 139748203804768 -->
<g id="node5" class="node">
<title>139748203804768</title>
<polygon fill="none" stroke="#000000" points="164,-252 0,-252 0,-216 164,-216 164,-252"/>
<text text-anchor="middle" x="82" y="-230.3" font-family="Times,serif" font-size="14.00" fill="#000000">MarketSummaryDataBean</text>
</g>
<!-- 139748203804992 -->
<g id="node6" class="node">
<title>139748203804992</title>
<polygon fill="none" stroke="#000000" points="362,-342 200,-342 200,-306 362,-306 362,-342"/>
<text text-anchor="middle" x="281" y="-320.3" font-family="Times,serif" font-size="14.00" fill="#000000">MarketSummarySingleton</text>
</g>
<!-- 139748203804880 -->
<g id="node7" class="node">
<title>139748203804880</title>
<polygon fill="none" stroke="#000000" points="336,-288 226,-288 226,-252 336,-252 336,-288"/>
<text text-anchor="middle" x="281" y="-266.3" font-family="Times,serif" font-size="14.00" fill="#000000">OrdersAlertFilter</text>
</g>
<!-- 139748203805832 -->
<g id="node16" class="node">
<title>139748203805832</title>
<ellipse fill="none" stroke="#000000" cx="425" cy="-270" rx="27" ry="27"/>
<text text-anchor="middle" x="425" y="-266.3" font-family="Times,serif" font-size="14.00" fill="#000000">({&#39;OrdersAlertFilter&#39;}, {&#39;Root&#39;})</text>
</g>
<!-- 139748203804880&#45;&gt;139748203805832 -->
<g id="edge2" class="edge">
<title>139748203804880&#45;&gt;139748203805832</title>
<path fill="none" stroke="#000000" d="M336.2623,-270C353.4041,-270 371.8858,-270 387.5218,-270"/>
<polygon fill="#000000" stroke="#000000" points="387.8407,-273.5001 397.8407,-270 387.8406,-266.5001 387.8407,-273.5001"/>
</g>
<!-- 139748203805328 -->
<g id="node8" class="node">
<title>139748203805328</title>
<polygon fill="none" stroke="#000000" points="133.5,-378 30.5,-378 30.5,-342 133.5,-342 133.5,-378"/>
<text text-anchor="middle" x="82" y="-356.3" font-family="Times,serif" font-size="14.00" fill="#000000">QuoteDataBean</text>
</g>
<!-- 139748203805216 -->
<g id="node9" class="node">
<title>139748203805216</title>
<polygon fill="none" stroke="#000000" points="542,-288 488,-288 488,-252 542,-252 542,-288"/>
<text text-anchor="middle" x="515" y="-266.3" font-family="Times,serif" font-size="14.00" fill="#000000">Root</text>
</g>
<!-- 139748203805664 -->
<g id="node17" class="node">
<title>139748203805664</title>
<ellipse fill="#ffa500" stroke="#000000" cx="605" cy="-270" rx="27" ry="27"/>
</g>
<!-- 139748203805216&#45;&gt;139748203805664 -->
<g id="edge3" class="edge">
<title>139748203805216&#45;&gt;139748203805664</title>
<path fill="none" stroke="#000000" d="M542.003,-270C550.0277,-270 558.9665,-270 567.5309,-270"/>
<polygon fill="#000000" stroke="#000000" points="567.7051,-273.5001 577.705,-270 567.705,-266.5001 567.7051,-273.5001"/>
</g>
<!-- 139748203804936 -->
<g id="node10" class="node">
<title>139748203804936</title>
<polygon fill="none" stroke="#000000" points="124.5,-432 39.5,-432 39.5,-396 124.5,-396 124.5,-432"/>
<text text-anchor="middle" x="82" y="-410.3" font-family="Times,serif" font-size="14.00" fill="#000000">TradeAction</text>
</g>
<!-- 139748203805384 -->
<g id="node11" class="node">
<title>139748203805384</title>
<polygon fill="none" stroke="#000000" points="137,-486 27,-486 27,-450 137,-450 137,-486"/>
<text text-anchor="middle" x="82" y="-464.3" font-family="Times,serif" font-size="14.00" fill="#000000">TradeAppServlet</text>
</g>
<!-- 139748203805272 -->
<g id="node12" class="node">
<title>139748203805272</title>
<polygon fill="none" stroke="#000000" points="125,-540 39,-540 39,-504 125,-504 125,-540"/>
<text text-anchor="middle" x="82" y="-518.3" font-family="Times,serif" font-size="14.00" fill="#000000">TradeConfig</text>
</g>
<!-- 139748203805440 -->
<g id="node13" class="node">
<title>139748203805440</title>
<polygon fill="none" stroke="#000000" points="136,-594 28,-594 28,-558 136,-558 136,-594"/>
<text text-anchor="middle" x="82" y="-572.3" font-family="Times,serif" font-size="14.00" fill="#000000">TradeSLSBBean</text>
</g>
<!-- 139748203805048 -->
<g id="node14" class="node">
<title>139748203805048</title>
<polygon fill="none" stroke="#000000" points="143.5,-648 20.5,-648 20.5,-612 143.5,-612 143.5,-648"/>
<text text-anchor="middle" x="82" y="-626.3" font-family="Times,serif" font-size="14.00" fill="#000000">TradeServletAction</text>
</g>
<!-- 139748203805496 -->
<g id="node15" class="node">
<title>139748203805496</title>
<ellipse fill="#00ff00" stroke="#000000" cx="82" cy="-297" rx="27" ry="27"/>
<text text-anchor="middle" x="82" y="-293.3" font-family="Times,serif" font-size="14.00" fill="#000000">1</text>
</g>
<!-- 139748203805496&#45;&gt;139748203804992 -->
<g id="edge4" class="edge">
<title>139748203805496&#45;&gt;139748203804992</title>
<path fill="none" stroke="#000000" d="M108.838,-300.6413C129.8075,-303.4864 160.2443,-307.6161 189.7136,-311.6144"/>
<polygon fill="#000000" stroke="#000000" points="189.2756,-315.087 199.6554,-312.9633 190.2168,-308.1505 189.2756,-315.087"/>
</g>
<!-- 139748203805496&#45;&gt;139748203804880 -->
<g id="edge5" class="edge">
<title>139748203805496&#45;&gt;139748203804880</title>
<path fill="none" stroke="#000000" d="M108.838,-293.3587C136.0876,-289.6615 179.3243,-283.7952 215.65,-278.8666"/>
<polygon fill="#000000" stroke="#000000" points="216.2548,-282.3167 225.6934,-277.5039 215.3136,-275.3802 216.2548,-282.3167"/>
</g>
<!-- 139748203805832&#45;&gt;139748203805216 -->
<g id="edge1" class="edge">
<title>139748203805832&#45;&gt;139748203805216</title>
<path fill="none" stroke="#000000" d="M452.003,-270C460.0277,-270 468.9665,-270 477.5309,-270"/>
<polygon fill="#000000" stroke="#000000" points="477.7051,-273.5001 487.705,-270 477.705,-266.5001 477.7051,-273.5001"/>
</g>
</g>
</svg>
