<?xml version="1.0" encoding="UTF-8" standalone="no"?>
<!DOCTYPE svg PUBLIC "-//W3C//DTD SVG 1.1//EN"
 "http://www.w3.org/Graphics/SVG/1.1/DTD/svg11.dtd">
<!-- Generated by graphviz version 2.40.1 (20161225.0304)
 -->
<!-- Title: alpha_classic_net_1585315546.915095 Pages: 1 -->
<svg width="640pt" height="332pt"
 viewBox="0.00 0.00 640.00 332.00" xmlns="http://www.w3.org/2000/svg" xmlns:xlink="http://www.w3.org/1999/xlink">
<g id="graph0" class="graph" transform="scale(1 1) rotate(0) translate(4 328)">
<title>alpha_classic_net_1585315546.915095</title>
<!-- 140178110677120 -->
<g id="node1" class="node">
<title>140178110677120</title>
<polygon fill="none" stroke="#000000" points="128.5,-36 35.5,-36 35.5,0 128.5,0 128.5,-36"/>
<text text-anchor="middle" x="82" y="-14.3" font-family="Times,serif" font-size="14.00" fill="#000000">FinancialUtils</text>
</g>
<!-- 140178110678240 -->
<g id="node2" class="node">
<title>140178110678240</title>
<polygon fill="none" stroke="#000000" points="109,-90 55,-90 55,-54 109,-54 109,-90"/>
<text text-anchor="middle" x="82" y="-68.3" font-family="Times,serif" font-size="14.00" fill="#000000">Log</text>
</g>
<!-- 140178110678184 -->
<g id="node3" class="node">
<title>140178110678184</title>
<polygon fill="none" stroke="#000000" points="164,-144 0,-144 0,-108 164,-108 164,-144"/>
<text text-anchor="middle" x="82" y="-122.3" font-family="Times,serif" font-size="14.00" fill="#000000">MarketSummaryDataBean</text>
</g>
<!-- 140178110677176 -->
<g id="node4" class="node">
<title>140178110677176</title>
<polygon fill="none" stroke="#000000" points="362,-234 200,-234 200,-198 362,-198 362,-234"/>
<text text-anchor="middle" x="281" y="-212.3" font-family="Times,serif" font-size="14.00" fill="#000000">MarketSummarySingleton</text>
</g>
<!-- 140178110677400 -->
<g id="node5" class="node">
<title>140178110677400</title>
<polygon fill="none" stroke="#000000" points="339,-180 223,-180 223,-144 339,-144 339,-180"/>
<text text-anchor="middle" x="281" y="-158.3" font-family="Times,serif" font-size="14.00" fill="#000000">PingServletWriter</text>
</g>
<!-- 140178110677736 -->
<g id="node10" class="node">
<title>140178110677736</title>
<ellipse fill="none" stroke="#000000" cx="425" cy="-162" rx="27" ry="27"/>
<text text-anchor="middle" x="425" y="-158.3" font-family="Times,serif" font-size="14.00" fill="#000000">({&#39;PingServletWriter&#39;}, {&#39;Root&#39;})</text>
</g>
<!-- 140178110677400&#45;&gt;140178110677736 -->
<g id="edge2" class="edge">
<title>140178110677400&#45;&gt;140178110677736</title>
<path fill="none" stroke="#000000" d="M339.1552,-162C355.4863,-162 372.8049,-162 387.577,-162"/>
<polygon fill="#000000" stroke="#000000" points="387.8328,-165.5001 397.8327,-162 387.8327,-158.5001 387.8328,-165.5001"/>
</g>
<!-- 140178110678296 -->
<g id="node6" class="node">
<title>140178110678296</title>
<polygon fill="none" stroke="#000000" points="133.5,-270 30.5,-270 30.5,-234 133.5,-234 133.5,-270"/>
<text text-anchor="middle" x="82" y="-248.3" font-family="Times,serif" font-size="14.00" fill="#000000">QuoteDataBean</text>
</g>
<!-- 140178110677456 -->
<g id="node7" class="node">
<title>140178110677456</title>
<polygon fill="none" stroke="#000000" points="542,-180 488,-180 488,-144 542,-144 542,-180"/>
<text text-anchor="middle" x="515" y="-158.3" font-family="Times,serif" font-size="14.00" fill="#000000">Root</text>
</g>
<!-- 140178110679584 -->
<g id="node11" class="node">
<title>140178110679584</title>
<ellipse fill="#ffa500" stroke="#000000" cx="605" cy="-162" rx="27" ry="27"/>
</g>
<!-- 140178110677456&#45;&gt;140178110679584 -->
<g id="edge3" class="edge">
<title>140178110677456&#45;&gt;140178110679584</title>
<path fill="none" stroke="#000000" d="M542.003,-162C550.0277,-162 558.9665,-162 567.5309,-162"/>
<polygon fill="#000000" stroke="#000000" points="567.7051,-165.5001 577.705,-162 567.705,-158.5001 567.7051,-165.5001"/>
</g>
<!-- 140178110677232 -->
<g id="node8" class="node">
<title>140178110677232</title>
<polygon fill="none" stroke="#000000" points="125,-324 39,-324 39,-288 125,-288 125,-324"/>
<text text-anchor="middle" x="82" y="-302.3" font-family="Times,serif" font-size="14.00" fill="#000000">TradeConfig</text>
</g>
<!-- 140178110677344 -->
<g id="node9" class="node">
<title>140178110677344</title>
<ellipse fill="#00ff00" stroke="#000000" cx="82" cy="-189" rx="27" ry="27"/>
<text text-anchor="middle" x="82" y="-185.3" font-family="Times,serif" font-size="14.00" fill="#000000">1</text>
</g>
<!-- 140178110677344&#45;&gt;140178110677176 -->
<g id="edge4" class="edge">
<title>140178110677344&#45;&gt;140178110677176</title>
<path fill="none" stroke="#000000" d="M108.838,-192.6413C129.8075,-195.4864 160.2443,-199.6161 189.7136,-203.6144"/>
<polygon fill="#000000" stroke="#000000" points="189.2756,-207.087 199.6554,-204.9633 190.2168,-200.1505 189.2756,-207.087"/>
</g>
<!-- 140178110677344&#45;&gt;140178110677400 -->
<g id="edge5" class="edge">
<title>140178110677344&#45;&gt;140178110677400</title>
<path fill="none" stroke="#000000" d="M108.838,-185.3587C135.2952,-181.769 176.8233,-176.1345 212.4642,-171.2988"/>
<polygon fill="#000000" stroke="#000000" points="213.3879,-174.7057 222.8265,-169.8929 212.4467,-167.7692 213.3879,-174.7057"/>
</g>
<!-- 140178110677736&#45;&gt;140178110677456 -->
<g id="edge1" class="edge">
<title>140178110677736&#45;&gt;140178110677456</title>
<path fill="none" stroke="#000000" d="M452.003,-162C460.0277,-162 468.9665,-162 477.5309,-162"/>
<polygon fill="#000000" stroke="#000000" points="477.7051,-165.5001 487.705,-162 477.705,-158.5001 477.7051,-165.5001"/>
</g>
</g>
</svg>
