<?xml version="1.0" encoding="UTF-8" standalone="no"?>
<!DOCTYPE svg PUBLIC "-//W3C//DTD SVG 1.1//EN"
 "http://www.w3.org/Graphics/SVG/1.1/DTD/svg11.dtd">
<!-- Generated by graphviz version 2.40.1 (20161225.0304)
 -->
<!-- Title: alpha_plus_net_1586496251.3108437 Pages: 1 -->
<svg width="594pt" height="620pt"
 viewBox="0.00 0.00 594.00 620.00" xmlns="http://www.w3.org/2000/svg" xmlns:xlink="http://www.w3.org/1999/xlink">
<g id="graph0" class="graph" transform="scale(1 1) rotate(0) translate(4 616)">
<title>alpha_plus_net_1586496251.3108437</title>
<!-- 139748203198168 -->
<g id="node1" class="node">
<title>139748203198168</title>
<polygon fill="none" stroke="#000000" points="304.5,-99 211.5,-99 211.5,-63 304.5,-63 304.5,-99"/>
<text text-anchor="middle" x="258" y="-77.3" font-family="Times,serif" font-size="14.00" fill="#000000">FinancialUtils</text>
</g>
<!-- 139748203199176 -->
<g id="node10" class="node">
<title>139748203199176</title>
<ellipse fill="none" stroke="#000000" cx="379" cy="-54" rx="27" ry="27"/>
<text text-anchor="middle" x="379" y="-50.3" font-family="Times,serif" font-size="14.00" fill="#000000">({&#39;FinancialUtils&#39;, &#39;PingServletWriter&#39;}, {&#39;Root&#39;})</text>
</g>
<!-- 139748203198168&#45;&gt;139748203199176 -->
<g id="edge9" class="edge">
<title>139748203198168&#45;&gt;139748203199176</title>
<path fill="none" stroke="#000000" d="M304.7818,-70.5611C317.3321,-67.7606 330.7138,-64.7746 342.6089,-62.1203"/>
<polygon fill="#000000" stroke="#000000" points="343.6235,-65.4801 352.6212,-59.8862 342.099,-58.6481 343.6235,-65.4801"/>
</g>
<!-- 139748203199344 -->
<g id="node2" class="node">
<title>139748203199344</title>
<polygon fill="none" stroke="#000000" points="109,-234 55,-234 55,-198 109,-198 109,-234"/>
<text text-anchor="middle" x="82" y="-212.3" font-family="Times,serif" font-size="14.00" fill="#000000">Log</text>
</g>
<!-- 139748203199904 -->
<g id="node12" class="node">
<title>139748203199904</title>
<ellipse fill="none" stroke="#000000" cx="258" cy="-288" rx="27" ry="27"/>
<text text-anchor="middle" x="258" y="-284.3" font-family="Times,serif" font-size="14.00" fill="#000000">139748203199904</text>
</g>
<!-- 139748203199344&#45;&gt;139748203199904 -->
<g id="edge10" class="edge">
<title>139748203199344&#45;&gt;139748203199904</title>
<path fill="none" stroke="#000000" d="M109.1143,-222.0562C140.4451,-232.7091 191.9723,-253.6738 225.4435,-269.3014"/>
<polygon fill="#000000" stroke="#000000" points="224.2581,-272.6136 234.791,-273.7582 227.2708,-266.2951 224.2581,-272.6136"/>
</g>
<!-- 139748203199680 -->
<g id="node14" class="node">
<title>139748203199680</title>
<ellipse fill="none" stroke="#000000" cx="258" cy="-216" rx="27" ry="27"/>
<text text-anchor="middle" x="258" y="-212.3" font-family="Times,serif" font-size="14.00" fill="#000000">139748203199680</text>
</g>
<!-- 139748203199344&#45;&gt;139748203199680 -->
<g id="edge11" class="edge">
<title>139748203199344&#45;&gt;139748203199680</title>
<path fill="none" stroke="#000000" d="M109.1143,-210.964C139.1321,-208.8905 187.6889,-208.6983 221.143,-210.3875"/>
<polygon fill="#000000" stroke="#000000" points="221.2405,-213.8994 231.4314,-211.002 221.6579,-206.9119 221.2405,-213.8994"/>
</g>
<!-- 139748203199512 -->
<g id="node16" class="node">
<title>139748203199512</title>
<ellipse fill="none" stroke="#000000" cx="258" cy="-144" rx="27" ry="27"/>
<text text-anchor="middle" x="258" y="-140.3" font-family="Times,serif" font-size="14.00" fill="#000000">139748203199512</text>
</g>
<!-- 139748203199344&#45;&gt;139748203199512 -->
<g id="edge12" class="edge">
<title>139748203199344&#45;&gt;139748203199512</title>
<path fill="none" stroke="#000000" d="M109.1143,-199.8718C139.2621,-185.4561 188.1097,-165.2882 221.5766,-153.31"/>
<polygon fill="#000000" stroke="#000000" points="223.143,-156.4704 231.4314,-149.871 220.8366,-149.8613 223.143,-156.4704"/>
</g>
<!-- 139748203199400 -->
<g id="node3" class="node">
<title>139748203199400</title>
<polygon fill="none" stroke="#000000" points="164,-450 0,-450 0,-414 164,-414 164,-450"/>
<text text-anchor="middle" x="82" y="-428.3" font-family="Times,serif" font-size="14.00" fill="#000000">MarketSummaryDataBean</text>
</g>
<!-- 139748203200408 -->
<g id="node13" class="node">
<title>139748203200408</title>
<ellipse fill="none" stroke="#000000" cx="258" cy="-504" rx="27" ry="27"/>
<text text-anchor="middle" x="258" y="-500.3" font-family="Times,serif" font-size="14.00" fill="#000000">139748203200408</text>
</g>
<!-- 139748203199400&#45;&gt;139748203200408 -->
<g id="edge13" class="edge">
<title>139748203199400&#45;&gt;139748203200408</title>
<path fill="none" stroke="#000000" d="M164.2519,-450.1014C186.3403,-458.9968 210.522,-470.6319 228.7928,-481.0554"/>
<polygon fill="#000000" stroke="#000000" points="227.1205,-484.1327 237.5086,-486.2157 230.6868,-478.1093 227.1205,-484.1327"/>
</g>
<!-- 139748203200184 -->
<g id="node15" class="node">
<title>139748203200184</title>
<ellipse fill="none" stroke="#000000" cx="258" cy="-432" rx="27" ry="27"/>
<text text-anchor="middle" x="258" y="-428.3" font-family="Times,serif" font-size="14.00" fill="#000000">139748203200184</text>
</g>
<!-- 139748203199400&#45;&gt;139748203200184 -->
<g id="edge14" class="edge">
<title>139748203199400&#45;&gt;139748203200184</title>
<path fill="none" stroke="#000000" d="M164.0743,-425.2636C183.923,-425.1722 204.1756,-425.5406 220.7683,-426.3687"/>
<polygon fill="#000000" stroke="#000000" points="220.9135,-429.8833 231.1025,-426.979 221.3263,-422.8954 220.9135,-429.8833"/>
</g>
<!-- 139748203200016 -->
<g id="node17" class="node">
<title>139748203200016</title>
<ellipse fill="none" stroke="#000000" cx="258" cy="-360" rx="27" ry="27"/>
<text text-anchor="middle" x="258" y="-356.3" font-family="Times,serif" font-size="14.00" fill="#000000">139748203200016</text>
</g>
<!-- 139748203199400&#45;&gt;139748203200016 -->
<g id="edge15" class="edge">
<title>139748203199400&#45;&gt;139748203200016</title>
<path fill="none" stroke="#000000" d="M113.4653,-413.812C143.7997,-399.5866 189.6766,-380.7273 221.5778,-369.3096"/>
<polygon fill="#000000" stroke="#000000" points="223.1185,-372.479 231.4068,-365.8793 220.8119,-365.8699 223.1185,-372.479"/>
</g>
<!-- 139748203199456 -->
<g id="node4" class="node">
<title>139748203199456</title>
<polygon fill="none" stroke="#000000" points="163,-504 1,-504 1,-468 163,-468 163,-504"/>
<text text-anchor="middle" x="82" y="-482.3" font-family="Times,serif" font-size="14.00" fill="#000000">MarketSummarySingleton</text>
</g>
<!-- 139748203198224 -->
<g id="node5" class="node">
<title>139748203198224</title>
<polygon fill="none" stroke="#000000" points="316,-45 200,-45 200,-9 316,-9 316,-45"/>
<text text-anchor="middle" x="258" y="-23.3" font-family="Times,serif" font-size="14.00" fill="#000000">PingServletWriter</text>
</g>
<!-- 139748203198224&#45;&gt;139748203199176 -->
<g id="edge16" class="edge">
<title>139748203198224&#45;&gt;139748203199176</title>
<path fill="none" stroke="#000000" d="M316.0192,-39.9464C325.0744,-41.967 334.2038,-44.0041 342.5942,-45.8764"/>
<polygon fill="#000000" stroke="#000000" points="341.8852,-49.3042 352.4074,-48.0661 343.4097,-42.4722 341.8852,-49.3042"/>
</g>
<!-- 139748203198504 -->
<g id="node6" class="node">
<title>139748203198504</title>
<polygon fill="none" stroke="#000000" points="133.5,-558 30.5,-558 30.5,-522 133.5,-522 133.5,-558"/>
<text text-anchor="middle" x="82" y="-536.3" font-family="Times,serif" font-size="14.00" fill="#000000">QuoteDataBean</text>
</g>
<!-- 139748203198280 -->
<g id="node7" class="node">
<title>139748203198280</title>
<polygon fill="none" stroke="#000000" points="496,-72 442,-72 442,-36 496,-36 496,-72"/>
<text text-anchor="middle" x="469" y="-50.3" font-family="Times,serif" font-size="14.00" fill="#000000">Root</text>
</g>
<!-- 139748203198616 -->
<g id="node11" class="node">
<title>139748203198616</title>
<ellipse fill="#ffa500" stroke="#000000" cx="559" cy="-54" rx="27" ry="27"/>
</g>
<!-- 139748203198280&#45;&gt;139748203198616 -->
<g id="edge17" class="edge">
<title>139748203198280&#45;&gt;139748203198616</title>
<path fill="none" stroke="#000000" d="M496.003,-54C504.0277,-54 512.9665,-54 521.5309,-54"/>
<polygon fill="#000000" stroke="#000000" points="521.7051,-57.5001 531.705,-54 521.705,-50.5001 521.7051,-57.5001"/>
</g>
<!-- 139748203198336 -->
<g id="node8" class="node">
<title>139748203198336</title>
<polygon fill="none" stroke="#000000" points="125,-612 39,-612 39,-576 125,-576 125,-612"/>
<text text-anchor="middle" x="82" y="-590.3" font-family="Times,serif" font-size="14.00" fill="#000000">TradeConfig</text>
</g>
<!-- 139748203198784 -->
<g id="node9" class="node">
<title>139748203198784</title>
<ellipse fill="#00ff00" stroke="#000000" cx="82" cy="-27" rx="27" ry="27"/>
<text text-anchor="middle" x="82" y="-23.3" font-family="Times,serif" font-size="14.00" fill="#000000">1</text>
</g>
<!-- 139748203198784&#45;&gt;139748203198224 -->
<g id="edge8" class="edge">
<title>139748203198784&#45;&gt;139748203198224</title>
<path fill="none" stroke="#000000" d="M109.1143,-27C130.5838,-27 161.537,-27 189.6651,-27"/>
<polygon fill="#000000" stroke="#000000" points="189.8776,-30.5001 199.8775,-27 189.8775,-23.5001 189.8776,-30.5001"/>
</g>
<!-- 139748203199176&#45;&gt;139748203198280 -->
<g id="edge3" class="edge">
<title>139748203199176&#45;&gt;139748203198280</title>
<path fill="none" stroke="#000000" d="M406.003,-54C414.0277,-54 422.9665,-54 431.5309,-54"/>
<polygon fill="#000000" stroke="#000000" points="431.7051,-57.5001 441.705,-54 431.705,-50.5001 431.7051,-57.5001"/>
</g>
<!-- 139748203199904&#45;&gt;139748203199344 -->
<g id="edge1" class="edge">
<title>139748203199904&#45;&gt;139748203199344</title>
<path fill="none" stroke="#000000" d="M231.4314,-282.129C201.3824,-271.9508 152.2638,-252.0573 118.5988,-236.5717"/>
<polygon fill="#000000" stroke="#000000" points="119.6547,-233.2013 109.1143,-232.1282 116.6849,-239.5402 119.6547,-233.2013"/>
</g>
<!-- 139748203200408&#45;&gt;139748203199400 -->
<g id="edge2" class="edge">
<title>139748203200408&#45;&gt;139748203199400</title>
<path fill="none" stroke="#000000" d="M231.6655,-497.8315C213.0413,-489.8422 187.334,-477.3818 164,-468 151.3672,-462.9208 137.3743,-458.0464 124.5774,-453.469"/>
<polygon fill="#000000" stroke="#000000" points="125.6612,-450.1391 115.0669,-450.0279 123.2795,-456.7215 125.6612,-450.1391"/>
</g>
<!-- 139748203199680&#45;&gt;139748203199344 -->
<g id="edge4" class="edge">
<title>139748203199680&#45;&gt;139748203199344</title>
<path fill="none" stroke="#000000" d="M231.4314,-220.998C201.6403,-223.0944 153.1057,-223.3094 119.4691,-221.6431"/>
<polygon fill="#000000" stroke="#000000" points="119.302,-218.1274 109.1143,-221.036 118.8923,-225.1154 119.302,-218.1274"/>
</g>
<!-- 139748203200184&#45;&gt;139748203199400 -->
<g id="edge5" class="edge">
<title>139748203200184&#45;&gt;139748203199400</title>
<path fill="none" stroke="#000000" d="M231.1025,-437.021C215.6037,-438.0995 195.1112,-438.6734 174.2973,-438.7428"/>
<polygon fill="#000000" stroke="#000000" points="174.0765,-435.2428 164.0743,-438.7364 174.0721,-442.2428 174.0765,-435.2428"/>
</g>
<!-- 139748203199512&#45;&gt;139748203199344 -->
<g id="edge6" class="edge">
<title>139748203199512&#45;&gt;139748203199344</title>
<path fill="none" stroke="#000000" d="M234.791,-158.2418C205.2572,-172.6632 153.8915,-193.9664 118.9461,-206.5027"/>
<polygon fill="#000000" stroke="#000000" points="117.3966,-203.3368 109.1143,-209.9438 119.7091,-209.9438 117.3966,-203.3368"/>
</g>
<!-- 139748203200016&#45;&gt;139748203199400 -->
<g id="edge7" class="edge">
<title>139748203200016&#45;&gt;139748203199400</title>
<path fill="none" stroke="#000000" d="M234.7648,-374.2546C213.5545,-384.61 181.0997,-398.5094 151.5507,-410.1638"/>
<polygon fill="#000000" stroke="#000000" points="150.1199,-406.965 142.077,-413.8615 152.6651,-413.4859 150.1199,-406.965"/>
</g>
</g>
</svg>
