<?xml version="1.0" encoding="UTF-8" standalone="no"?>
<!DOCTYPE svg PUBLIC "-//W3C//DTD SVG 1.1//EN"
 "http://www.w3.org/Graphics/SVG/1.1/DTD/svg11.dtd">
<!-- Generated by graphviz version 2.40.1 (20161225.0304)
 -->
<!-- Title: %3 Pages: 1 -->
<svg width="1930pt" height="682pt"
 viewBox="0.00 0.00 1930.00 682.00" xmlns="http://www.w3.org/2000/svg" xmlns:xlink="http://www.w3.org/1999/xlink">
<g id="graph0" class="graph" transform="scale(1 1) rotate(0) translate(4 678)">
<title>%3</title>
<!-- 139748197701056 -->
<g id="node1" class="node">
<title>139748197701056</title>
<polygon fill="none" stroke="#000000" points="93,-56 0,-56 0,-20 93,-20 93,-56"/>
<text text-anchor="middle" x="46.5" y="-34.3" font-family="Times,serif" font-size="14.00" fill="#000000">FinancialUtils</text>
</g>
<!-- 139748203904080 -->
<g id="node35" class="node">
<title>139748203904080</title>
<ellipse fill="none" stroke="#000000" cx="156" cy="-65" rx="27" ry="27"/>
<text text-anchor="middle" x="156" y="-61.3" font-family="Times,serif" font-size="14.00" fill="#000000">splace_in_MarketSummaryDataBean_FinancialUtils_0</text>
</g>
<!-- 139748197701056&#45;&gt;139748203904080 -->
<g id="edge1" class="edge">
<title>139748197701056&#45;&gt;139748203904080</title>
<path fill="none" stroke="#000000" d="M93.2555,-49.5287C102.0992,-51.7094 111.2273,-53.9602 119.6899,-56.0468"/>
<polygon fill="#000000" stroke="#000000" points="119.0714,-59.4991 129.6185,-58.495 120.7473,-52.7026 119.0714,-59.4991"/>
</g>
<!-- 139748197702568 -->
<g id="node2" class="node">
<title>139748197702568</title>
<polygon fill="none" stroke="#000000" points="73.5,-251 19.5,-251 19.5,-215 73.5,-215 73.5,-251"/>
<text text-anchor="middle" x="46.5" y="-229.3" font-family="Times,serif" font-size="14.00" fill="#000000">Log</text>
</g>
<!-- 139748203903800 -->
<g id="node21" class="node">
<title>139748203903800</title>
<ellipse fill="none" stroke="#000000" cx="156" cy="-375" rx="27" ry="27"/>
<text text-anchor="middle" x="156" y="-371.3" font-family="Times,serif" font-size="14.00" fill="#000000">intplace_Log</text>
</g>
<!-- 139748197702568&#45;&gt;139748203903800 -->
<g id="edge2" class="edge">
<title>139748197702568&#45;&gt;139748203903800</title>
<path fill="none" stroke="#000000" d="M60.591,-251.2733C78.9914,-275.135 111.4284,-317.1994 133.3127,-345.579"/>
<polygon fill="#000000" stroke="#000000" points="130.5831,-347.7708 139.4613,-353.5525 136.1264,-343.4962 130.5831,-347.7708"/>
</g>
<!-- 139748197703128 -->
<g id="node3" class="node">
<title>139748197703128</title>
<polygon fill="none" stroke="#000000" points="563,-83 399,-83 399,-47 563,-47 563,-83"/>
<text text-anchor="middle" x="481" y="-61.3" font-family="Times,serif" font-size="14.00" fill="#000000">MarketSummaryDataBean</text>
</g>
<!-- 139748203198672 -->
<g id="node22" class="node">
<title>139748203198672</title>
<ellipse fill="none" stroke="#000000" cx="626" cy="-65" rx="27" ry="27"/>
<text text-anchor="middle" x="626" y="-61.3" font-family="Times,serif" font-size="14.00" fill="#000000">intplace_MarketSummaryDataBean</text>
</g>
<!-- 139748197703128&#45;&gt;139748203198672 -->
<g id="edge3" class="edge">
<title>139748197703128&#45;&gt;139748203198672</title>
<path fill="none" stroke="#000000" d="M563.2442,-65C572.0332,-65 580.6275,-65 588.498,-65"/>
<polygon fill="#000000" stroke="#000000" points="588.732,-68.5001 598.7319,-65 588.7319,-61.5001 588.732,-68.5001"/>
</g>
<!-- 139748205722144 -->
<g id="node4" class="node">
<title>139748205722144</title>
<polygon fill="none" stroke="#000000" points="851,-507 689,-507 689,-471 851,-471 851,-507"/>
<text text-anchor="middle" x="770" y="-485.3" font-family="Times,serif" font-size="14.00" fill="#000000">MarketSummarySingleton</text>
</g>
<!-- 139748203903912 -->
<g id="node23" class="node">
<title>139748203903912</title>
<ellipse fill="none" stroke="#000000" cx="914" cy="-489" rx="27" ry="27"/>
<text text-anchor="middle" x="914" y="-485.3" font-family="Times,serif" font-size="14.00" fill="#000000">intplace_MarketSummarySingleton</text>
</g>
<!-- 139748205722144&#45;&gt;139748203903912 -->
<g id="edge4" class="edge">
<title>139748205722144&#45;&gt;139748203903912</title>
<path fill="none" stroke="#000000" d="M851.2584,-489C860.0303,-489 868.6157,-489 876.4822,-489"/>
<polygon fill="#000000" stroke="#000000" points="876.7137,-492.5001 886.7136,-489 876.7136,-485.5001 876.7137,-492.5001"/>
</g>
<!-- 139748197699992 -->
<g id="node5" class="node">
<title>139748197699992</title>
<polygon fill="none" stroke="#000000" points="539,-412 423,-412 423,-376 539,-376 539,-412"/>
<text text-anchor="middle" x="481" y="-390.3" font-family="Times,serif" font-size="14.00" fill="#000000">PingServletWriter</text>
</g>
<!-- 139748203901336 -->
<g id="node41" class="node">
<title>139748203901336</title>
<ellipse fill="none" stroke="#000000" cx="626" cy="-390" rx="27" ry="27"/>
<text text-anchor="middle" x="626" y="-386.3" font-family="Times,serif" font-size="14.00" fill="#000000">splace_in_Root_PingServletWriter_0</text>
</g>
<!-- 139748197699992&#45;&gt;139748203901336 -->
<g id="edge5" class="edge">
<title>139748197699992&#45;&gt;139748203901336</title>
<path fill="none" stroke="#000000" d="M539.1416,-392.3961C555.7526,-391.9379 573.4111,-391.4507 588.438,-391.0362"/>
<polygon fill="#000000" stroke="#000000" points="588.9625,-394.5231 598.8622,-390.7486 588.7694,-387.5258 588.9625,-394.5231"/>
</g>
<!-- 139748197702624 -->
<g id="node6" class="node">
<title>139748197702624</title>
<polygon fill="none" stroke="#000000" points="1260,-486 1157,-486 1157,-450 1260,-450 1260,-486"/>
<text text-anchor="middle" x="1208.5" y="-464.3" font-family="Times,serif" font-size="14.00" fill="#000000">QuoteDataBean</text>
</g>
<!-- 139748197703408 -->
<g id="node38" class="node">
<title>139748197703408</title>
<ellipse fill="none" stroke="#000000" cx="1323" cy="-514" rx="27" ry="27"/>
<text text-anchor="middle" x="1323" y="-510.3" font-family="Times,serif" font-size="14.00" fill="#000000">splace_in_MarketSummarySingleton_QuoteDataBean_0</text>
</g>
<!-- 139748197702624&#45;&gt;139748197703408 -->
<g id="edge6" class="edge">
<title>139748197702624&#45;&gt;139748197703408</title>
<path fill="none" stroke="#000000" d="M1253.4248,-486.0484C1265.0546,-490.7206 1277.3967,-495.679 1288.406,-500.102"/>
<polygon fill="#000000" stroke="#000000" points="1287.1024,-503.3501 1297.6864,-503.8303 1289.712,-496.8547 1287.1024,-503.3501"/>
</g>
<!-- 139748197700272 -->
<g id="node7" class="node">
<title>139748197700272</title>
<polygon fill="none" stroke="#000000" points="1456,-316 1402,-316 1402,-280 1456,-280 1456,-316"/>
<text text-anchor="middle" x="1429" y="-294.3" font-family="Times,serif" font-size="14.00" fill="#000000">Root</text>
</g>
<!-- 139748197700720 -->
<g id="node44" class="node">
<title>139748197700720</title>
<ellipse fill="#ffa500" stroke="#000000" cx="1535" cy="-298" rx="27" ry="27"/>
</g>
<!-- 139748197700272&#45;&gt;139748197700720 -->
<g id="edge7" class="edge">
<title>139748197700272&#45;&gt;139748197700720</title>
<path fill="none" stroke="#000000" d="M1456.0225,-298C1468.6333,-298 1483.8509,-298 1497.5484,-298"/>
<polygon fill="#000000" stroke="#000000" points="1497.6583,-301.5001 1507.6582,-298 1497.6582,-294.5001 1497.6583,-301.5001"/>
</g>
<!-- 139748197702120 -->
<g id="node8" class="node">
<title>139748197702120</title>
<polygon fill="none" stroke="#000000" points="1472,-609 1386,-609 1386,-573 1472,-573 1472,-609"/>
<text text-anchor="middle" x="1429" y="-587.3" font-family="Times,serif" font-size="14.00" fill="#000000">TradeConfig</text>
</g>
<!-- 139748203901000 -->
<g id="node24" class="node">
<title>139748203901000</title>
<ellipse fill="none" stroke="#000000" cx="1535" cy="-591" rx="27" ry="27"/>
<text text-anchor="middle" x="1535" y="-587.3" font-family="Times,serif" font-size="14.00" fill="#000000">intplace_TradeConfig</text>
</g>
<!-- 139748197702120&#45;&gt;139748203901000 -->
<g id="edge8" class="edge">
<title>139748197702120&#45;&gt;139748203901000</title>
<path fill="none" stroke="#000000" d="M1472.1143,-591C1480.5776,-591 1489.3896,-591 1497.6453,-591"/>
<polygon fill="#000000" stroke="#000000" points="1497.7368,-594.5001 1507.7368,-591 1497.7368,-587.5001 1497.7368,-594.5001"/>
</g>
<!-- 139748197699712 -->
<g id="node9" class="node">
<title>139748197699712</title>
<polygon fill="none" stroke="#000000" points="508,-572 454,-572 454,-536 508,-536 508,-572"/>
<text text-anchor="middle" x="481" y="-550.3" font-family="Times,serif" font-size="14.00" fill="#000000">hid_1</text>
</g>
<!-- 139748197700832 -->
<g id="node28" class="node">
<title>139748197700832</title>
<ellipse fill="none" stroke="#000000" cx="626" cy="-489" rx="27" ry="27"/>
<text text-anchor="middle" x="626" y="-485.3" font-family="Times,serif" font-size="14.00" fill="#000000">pre_MarketSummarySingleton</text>
</g>
<!-- 139748197699712&#45;&gt;139748197700832 -->
<g id="edge9" class="edge">
<title>139748197699712&#45;&gt;139748197700832</title>
<path fill="none" stroke="#000000" d="M508.2734,-541.774C531.9879,-531.1434 566.4512,-515.6943 591.9667,-504.2563"/>
<polygon fill="#000000" stroke="#000000" points="593.5733,-507.3718 601.2666,-500.0874 590.7098,-500.9842 593.5733,-507.3718"/>
</g>
<!-- 139748203303656 -->
<g id="node10" class="node">
<title>139748203303656</title>
<polygon fill="none" stroke="#000000" points="1652,-609 1598,-609 1598,-573 1652,-573 1652,-609"/>
<text text-anchor="middle" x="1625" y="-587.3" font-family="Times,serif" font-size="14.00" fill="#000000">hid_11</text>
</g>
<!-- 139748197701560 -->
<g id="node34" class="node">
<title>139748197701560</title>
<ellipse fill="none" stroke="#000000" cx="1715" cy="-448" rx="27" ry="27"/>
<text text-anchor="middle" x="1715" y="-444.3" font-family="Times,serif" font-size="14.00" fill="#000000">splace_in_Log_TradeConfig_0</text>
</g>
<!-- 139748203303656&#45;&gt;139748197701560 -->
<g id="edge10" class="edge">
<title>139748203303656&#45;&gt;139748197701560</title>
<path fill="none" stroke="#000000" d="M1636.3986,-572.889C1651.0809,-549.5604 1676.8508,-508.6149 1694.8678,-479.9879"/>
<polygon fill="#000000" stroke="#000000" points="1698.0567,-481.4918 1700.4211,-471.1642 1692.1324,-477.7632 1698.0567,-481.4918"/>
</g>
<!-- 139748197702680 -->
<g id="node39" class="node">
<title>139748197702680</title>
<ellipse fill="none" stroke="#000000" cx="1715" cy="-619" rx="27" ry="27"/>
<text text-anchor="middle" x="1715" y="-615.3" font-family="Times,serif" font-size="14.00" fill="#000000">splace_in_MarketSummarySingleton_TradeConfig_0</text>
</g>
<!-- 139748203303656&#45;&gt;139748197702680 -->
<g id="edge11" class="edge">
<title>139748203303656&#45;&gt;139748197702680</title>
<path fill="none" stroke="#000000" d="M1652.003,-599.4009C1660.5964,-602.0744 1670.2382,-605.0741 1679.3457,-607.9076"/>
<polygon fill="#000000" stroke="#000000" points="1678.3554,-611.2649 1688.9437,-610.8936 1680.4349,-604.5809 1678.3554,-611.2649"/>
</g>
<!-- 139748203196600 -->
<g id="node11" class="node">
<title>139748203196600</title>
<polygon fill="none" stroke="#000000" points="797,-83 743,-83 743,-47 797,-47 797,-83"/>
<text text-anchor="middle" x="770" y="-61.3" font-family="Times,serif" font-size="14.00" fill="#000000">hid_13</text>
</g>
<!-- 139748203904808 -->
<g id="node25" class="node">
<title>139748203904808</title>
<ellipse fill="none" stroke="#000000" cx="914" cy="-27" rx="27" ry="27"/>
<text text-anchor="middle" x="914" y="-23.3" font-family="Times,serif" font-size="14.00" fill="#000000">pre_FinancialUtils</text>
</g>
<!-- 139748203196600&#45;&gt;139748203904808 -->
<g id="edge12" class="edge">
<title>139748203196600&#45;&gt;139748203904808</title>
<path fill="none" stroke="#000000" d="M797.0853,-57.8525C819.8559,-51.8436 852.6055,-43.2013 877.6541,-36.5913"/>
<polygon fill="#000000" stroke="#000000" points="878.7467,-39.9228 887.5227,-33.9871 876.9606,-33.1545 878.7467,-39.9228"/>
</g>
<!-- 139748203901840 -->
<g id="node36" class="node">
<title>139748203901840</title>
<ellipse fill="none" stroke="#000000" cx="914" cy="-109" rx="27" ry="27"/>
<text text-anchor="middle" x="914" y="-105.3" font-family="Times,serif" font-size="14.00" fill="#000000">splace_in_MarketSummaryDataBean_MarketSummaryDataBean_0</text>
</g>
<!-- 139748203196600&#45;&gt;139748203901840 -->
<g id="edge13" class="edge">
<title>139748203196600&#45;&gt;139748203901840</title>
<path fill="none" stroke="#000000" d="M797.0853,-73.2761C819.9991,-80.2775 853.0179,-90.3666 878.1258,-98.0384"/>
<polygon fill="#000000" stroke="#000000" points="877.4198,-101.4824 888.0061,-101.0574 879.4653,-94.7879 877.4198,-101.4824"/>
</g>
<!-- 139748197702008 -->
<g id="node12" class="node">
<title>139748197702008</title>
<polygon fill="none" stroke="#000000" points="508,-493 454,-493 454,-457 508,-457 508,-493"/>
<text text-anchor="middle" x="481" y="-471.3" font-family="Times,serif" font-size="14.00" fill="#000000">hid_2</text>
</g>
<!-- 139748197702008&#45;&gt;139748197700832 -->
<g id="edge14" class="edge">
<title>139748197702008&#45;&gt;139748197700832</title>
<path fill="none" stroke="#000000" d="M508.2734,-477.6333C530.9566,-479.8234 563.4742,-482.963 588.589,-485.3879"/>
<polygon fill="#000000" stroke="#000000" points="588.5588,-488.9012 598.8489,-486.3785 589.2316,-481.9336 588.5588,-488.9012"/>
</g>
<!-- 139748197699880 -->
<g id="node13" class="node">
<title>139748197699880</title>
<polygon fill="none" stroke="#000000" points="1832,-261 1778,-261 1778,-225 1832,-225 1832,-261"/>
<text text-anchor="middle" x="1805" y="-239.3" font-family="Times,serif" font-size="14.00" fill="#000000">hid_3</text>
</g>
<!-- 139748197700776 -->
<g id="node26" class="node">
<title>139748197700776</title>
<ellipse fill="none" stroke="#000000" cx="1895" cy="-206" rx="27" ry="27"/>
<text text-anchor="middle" x="1895" y="-202.3" font-family="Times,serif" font-size="14.00" fill="#000000">pre_Log</text>
</g>
<!-- 139748197699880&#45;&gt;139748197700776 -->
<g id="edge15" class="edge">
<title>139748197699880&#45;&gt;139748197700776</title>
<path fill="none" stroke="#000000" d="M1832.003,-231.8988C1840.9184,-228.2335 1850.9622,-224.1044 1860.3671,-220.238"/>
<polygon fill="#000000" stroke="#000000" points="1861.9446,-223.3737 1869.8627,-216.3342 1859.2829,-216.8995 1861.9446,-223.3737"/>
</g>
<!-- 139748197701840 -->
<g id="node14" class="node">
<title>139748197701840</title>
<polygon fill="none" stroke="#000000" points="1235.5,-618 1181.5,-618 1181.5,-582 1235.5,-582 1235.5,-618"/>
<text text-anchor="middle" x="1208.5" y="-596.3" font-family="Times,serif" font-size="14.00" fill="#000000">hid_4</text>
</g>
<!-- 139748197701448 -->
<g id="node31" class="node">
<title>139748197701448</title>
<ellipse fill="none" stroke="#000000" cx="1323" cy="-591" rx="27" ry="27"/>
<text text-anchor="middle" x="1323" y="-587.3" font-family="Times,serif" font-size="14.00" fill="#000000">pre_TradeConfig</text>
</g>
<!-- 139748197701840&#45;&gt;139748197701448 -->
<g id="edge16" class="edge">
<title>139748197701840&#45;&gt;139748197701448</title>
<path fill="none" stroke="#000000" d="M1235.6349,-597.8671C1250.6074,-596.6902 1269.4217,-595.2114 1285.7523,-593.9278"/>
<polygon fill="#000000" stroke="#000000" points="1286.3649,-597.3905 1296.0599,-593.1176 1285.8163,-590.412 1286.3649,-597.3905"/>
</g>
<!-- 139748197702232 -->
<g id="node15" class="node">
<title>139748197702232</title>
<polygon fill="none" stroke="#000000" points="1235.5,-316 1181.5,-316 1181.5,-280 1235.5,-280 1235.5,-316"/>
<text text-anchor="middle" x="1208.5" y="-294.3" font-family="Times,serif" font-size="14.00" fill="#000000">hid_5</text>
</g>
<!-- 139748197701280 -->
<g id="node30" class="node">
<title>139748197701280</title>
<ellipse fill="none" stroke="#000000" cx="1323" cy="-298" rx="27" ry="27"/>
<text text-anchor="middle" x="1323" y="-294.3" font-family="Times,serif" font-size="14.00" fill="#000000">pre_Root</text>
</g>
<!-- 139748197702232&#45;&gt;139748197701280 -->
<g id="edge17" class="edge">
<title>139748197702232&#45;&gt;139748197701280</title>
<path fill="none" stroke="#000000" d="M1235.6349,-298C1250.4989,-298 1269.1492,-298 1285.3969,-298"/>
<polygon fill="#000000" stroke="#000000" points="1285.6631,-301.5001 1295.6631,-298 1285.663,-294.5001 1285.6631,-301.5001"/>
</g>
<!-- 139748203901504 -->
<g id="node16" class="node">
<title>139748203901504</title>
<polygon fill="none" stroke="#000000" points="273,-83 219,-83 219,-47 273,-47 273,-83"/>
<text text-anchor="middle" x="246" y="-61.3" font-family="Times,serif" font-size="14.00" fill="#000000">hid_6</text>
</g>
<!-- 139748197701168 -->
<g id="node27" class="node">
<title>139748197701168</title>
<ellipse fill="none" stroke="#000000" cx="336" cy="-65" rx="27" ry="27"/>
<text text-anchor="middle" x="336" y="-61.3" font-family="Times,serif" font-size="14.00" fill="#000000">pre_MarketSummaryDataBean</text>
</g>
<!-- 139748203901504&#45;&gt;139748197701168 -->
<g id="edge18" class="edge">
<title>139748203901504&#45;&gt;139748197701168</title>
<path fill="none" stroke="#000000" d="M273.003,-65C281.0277,-65 289.9665,-65 298.5309,-65"/>
<polygon fill="#000000" stroke="#000000" points="298.7051,-68.5001 308.705,-65 298.705,-61.5001 298.7051,-68.5001"/>
</g>
<!-- 139748203904472 -->
<g id="node17" class="node">
<title>139748203904472</title>
<polygon fill="none" stroke="#000000" points="1031,-445 977,-445 977,-409 1031,-409 1031,-445"/>
<text text-anchor="middle" x="1004" y="-423.3" font-family="Times,serif" font-size="14.00" fill="#000000">hid_7</text>
</g>
<!-- 139748197703296 -->
<g id="node29" class="node">
<title>139748197703296</title>
<ellipse fill="none" stroke="#000000" cx="1094" cy="-427" rx="27" ry="27"/>
<text text-anchor="middle" x="1094" y="-423.3" font-family="Times,serif" font-size="14.00" fill="#000000">pre_QuoteDataBean</text>
</g>
<!-- 139748203904472&#45;&gt;139748197703296 -->
<g id="edge19" class="edge">
<title>139748203904472&#45;&gt;139748197703296</title>
<path fill="none" stroke="#000000" d="M1031.003,-427C1039.0277,-427 1047.9665,-427 1056.5309,-427"/>
<polygon fill="#000000" stroke="#000000" points="1056.7051,-430.5001 1066.705,-427 1056.705,-423.5001 1056.7051,-430.5001"/>
</g>
<!-- 139748197702288 -->
<g id="node33" class="node">
<title>139748197702288</title>
<ellipse fill="none" stroke="#000000" cx="1625" cy="-326" rx="27" ry="27"/>
<text text-anchor="middle" x="1625" y="-322.3" font-family="Times,serif" font-size="14.00" fill="#000000">splace_in_Log_MarketSummarySingleton_0</text>
</g>
<!-- 139748203904472&#45;&gt;139748197702288 -->
<g id="edge20" class="edge">
<title>139748203904472&#45;&gt;139748197702288</title>
<path fill="none" stroke="#000000" d="M1030.5136,-408.8137C1041.3763,-402.1882 1054.3515,-395.2804 1067,-391 1127.1049,-370.6599 1145.0467,-372 1208.5,-372 1208.5,-372 1208.5,-372 1429,-372 1486.5929,-372 1551.2469,-352.9426 1590.012,-339.3606"/>
<polygon fill="#000000" stroke="#000000" points="1591.527,-342.5358 1599.7607,-335.8682 1589.1661,-335.9459 1591.527,-342.5358"/>
</g>
<!-- 139748203901616 -->
<g id="node40" class="node">
<title>139748203901616</title>
<ellipse fill="none" stroke="#000000" cx="1094" cy="-317" rx="27" ry="27"/>
<text text-anchor="middle" x="1094" y="-313.3" font-family="Times,serif" font-size="14.00" fill="#000000">splace_in_Root_MarketSummarySingleton_0</text>
</g>
<!-- 139748203904472&#45;&gt;139748203901616 -->
<g id="edge21" class="edge">
<title>139748203904472&#45;&gt;139748203901616</title>
<path fill="none" stroke="#000000" d="M1018.8617,-408.8357C1032.8158,-391.7807 1053.9257,-365.9798 1070.2207,-346.0636"/>
<polygon fill="#000000" stroke="#000000" points="1073.0269,-348.161 1076.6504,-338.205 1067.6092,-343.7283 1073.0269,-348.161"/>
</g>
<!-- 139748197703520 -->
<g id="node43" class="node">
<title>139748197703520</title>
<ellipse fill="none" stroke="#000000" cx="1094" cy="-499" rx="27" ry="27"/>
<text text-anchor="middle" x="1094" y="-495.3" font-family="Times,serif" font-size="14.00" fill="#000000">splace_in_TradeConfig_MarketSummarySingleton_0</text>
</g>
<!-- 139748203904472&#45;&gt;139748197703520 -->
<g id="edge22" class="edge">
<title>139748203904472&#45;&gt;139748197703520</title>
<path fill="none" stroke="#000000" d="M1026.7108,-445.1686C1038.3298,-454.4638 1052.601,-465.8808 1065.0062,-475.805"/>
<polygon fill="#000000" stroke="#000000" points="1062.847,-478.5598 1072.8421,-482.0737 1067.2199,-473.0937 1062.847,-478.5598"/>
</g>
<!-- 139748203903688 -->
<g id="node18" class="node">
<title>139748203903688</title>
<polygon fill="none" stroke="#000000" points="1031,-514 977,-514 977,-478 1031,-478 1031,-514"/>
<text text-anchor="middle" x="1004" y="-492.3" font-family="Times,serif" font-size="14.00" fill="#000000">hid_8</text>
</g>
<!-- 139748203903688&#45;&gt;139748197703520 -->
<g id="edge23" class="edge">
<title>139748203903688&#45;&gt;139748197703520</title>
<path fill="none" stroke="#000000" d="M1031.003,-496.9001C1039.0277,-497.1676 1047.9665,-497.4656 1056.5309,-497.751"/>
<polygon fill="#000000" stroke="#000000" points="1056.5939,-501.255 1066.705,-498.0902 1056.8272,-494.2589 1056.5939,-501.255"/>
</g>
<!-- 139748203901224 -->
<g id="node19" class="node">
<title>139748203901224</title>
<polygon fill="none" stroke="#000000" points="273,-425 219,-425 219,-389 273,-389 273,-425"/>
<text text-anchor="middle" x="246" y="-403.3" font-family="Times,serif" font-size="14.00" fill="#000000">hid_9</text>
</g>
<!-- 139748197702064 -->
<g id="node32" class="node">
<title>139748197702064</title>
<ellipse fill="none" stroke="#000000" cx="770" cy="-224" rx="27" ry="27"/>
<text text-anchor="middle" x="770" y="-220.3" font-family="Times,serif" font-size="14.00" fill="#000000">splace_in_Log_Log_0</text>
</g>
<!-- 139748203901224&#45;&gt;139748197702064 -->
<g id="edge24" class="edge">
<title>139748203901224&#45;&gt;139748197702064</title>
<path fill="none" stroke="#000000" d="M271.1763,-388.8497C282.3699,-381.3594 295.9477,-373.0374 309,-367 459.8506,-297.2238 653.6818,-249.7291 733.338,-231.8751"/>
<polygon fill="#000000" stroke="#000000" points="734.3585,-235.2339 743.3625,-229.6502 732.8417,-228.4002 734.3585,-235.2339"/>
</g>
<!-- 139748197700328 -->
<g id="node37" class="node">
<title>139748197700328</title>
<ellipse fill="none" stroke="#000000" cx="336" cy="-493" rx="27" ry="27"/>
<text text-anchor="middle" x="336" y="-489.3" font-family="Times,serif" font-size="14.00" fill="#000000">splace_in_MarketSummarySingleton_Log_0</text>
</g>
<!-- 139748203901224&#45;&gt;139748197700328 -->
<g id="edge25" class="edge">
<title>139748203901224&#45;&gt;139748197700328</title>
<path fill="none" stroke="#000000" d="M265.0867,-425.2384C277.7994,-437.3861 294.6977,-453.5333 308.8096,-467.0181"/>
<polygon fill="#000000" stroke="#000000" points="306.6707,-469.8152 316.3187,-474.1934 311.5067,-464.7543 306.6707,-469.8152"/>
</g>
<!-- 139748197702904 -->
<g id="node42" class="node">
<title>139748197702904</title>
<ellipse fill="none" stroke="#000000" cx="914" cy="-647" rx="27" ry="27"/>
<text text-anchor="middle" x="914" y="-643.3" font-family="Times,serif" font-size="14.00" fill="#000000">splace_in_TradeConfig_Log_0</text>
</g>
<!-- 139748203901224&#45;&gt;139748197702904 -->
<g id="edge26" class="edge">
<title>139748203901224&#45;&gt;139748197702904</title>
<path fill="none" stroke="#000000" d="M252.002,-425.3595C261.0822,-450.9465 280.3479,-497.7033 309,-529 370.1121,-595.7527 390.498,-638 481,-638 481,-638 481,-638 626,-638 716.0439,-638 821.8464,-642.4495 876.7306,-645.0913"/>
<polygon fill="#000000" stroke="#000000" points="876.8498,-648.6012 887.0088,-645.5938 877.1916,-641.6096 876.8498,-648.6012"/>
</g>
<!-- 139748205721472 -->
<g id="node20" class="node">
<title>139748205721472</title>
<ellipse fill="#00ff00" stroke="#000000" cx="336" cy="-403" rx="27" ry="27"/>
<text text-anchor="middle" x="336" y="-399.3" font-family="Times,serif" font-size="14.00" fill="#000000">1</text>
</g>
<!-- 139748205721472&#45;&gt;139748197699992 -->
<g id="edge39" class="edge">
<title>139748205721472&#45;&gt;139748197699992</title>
<path fill="none" stroke="#000000" d="M363.2734,-401.3072C377.3318,-400.4346 395.1679,-399.3275 412.6778,-398.2407"/>
<polygon fill="#000000" stroke="#000000" points="413.1548,-401.7179 422.9187,-397.605 412.7211,-394.7314 413.1548,-401.7179"/>
</g>
<!-- 139748205721472&#45;&gt;139748197702008 -->
<g id="edge40" class="edge">
<title>139748205721472&#45;&gt;139748197702008</title>
<path fill="none" stroke="#000000" d="M360.2697,-415.0512C383.2467,-426.4604 418.052,-443.7431 444.3979,-456.8252"/>
<polygon fill="#000000" stroke="#000000" points="443.1708,-460.1236 453.684,-461.4362 446.284,-453.8539 443.1708,-460.1236"/>
</g>
<!-- 139748203903800&#45;&gt;139748203901224 -->
<g id="edge27" class="edge">
<title>139748203903800&#45;&gt;139748203901224</title>
<path fill="none" stroke="#000000" d="M181.5497,-384.0843C190.1894,-387.1562 200.0137,-390.6493 209.3423,-393.9662"/>
<polygon fill="#000000" stroke="#000000" points="208.2192,-397.2814 218.8139,-397.3338 210.5643,-390.6859 208.2192,-397.2814"/>
</g>
<!-- 139748203198672&#45;&gt;139748203196600 -->
<g id="edge28" class="edge">
<title>139748203198672&#45;&gt;139748203196600</title>
<path fill="none" stroke="#000000" d="M653.0853,-65C675.4695,-65 707.4971,-65 732.3725,-65"/>
<polygon fill="#000000" stroke="#000000" points="732.5466,-68.5001 742.5466,-65 732.5465,-61.5001 732.5466,-68.5001"/>
</g>
<!-- 139748203903912&#45;&gt;139748203904472 -->
<g id="edge29" class="edge">
<title>139748203903912&#45;&gt;139748203904472</title>
<path fill="none" stroke="#000000" d="M936.2472,-473.6742C946.2855,-466.7589 958.3736,-458.4315 969.5434,-450.7368"/>
<polygon fill="#000000" stroke="#000000" points="971.6073,-453.5651 977.8568,-445.0097 967.6362,-447.8006 971.6073,-453.5651"/>
</g>
<!-- 139748203903912&#45;&gt;139748203903688 -->
<g id="edge30" class="edge">
<title>139748203903912&#45;&gt;139748203903688</title>
<path fill="none" stroke="#000000" d="M941.003,-491.1002C949.0277,-491.7244 957.9665,-492.4196 966.5309,-493.0857"/>
<polygon fill="#000000" stroke="#000000" points="966.4637,-496.591 976.705,-493.8771 967.0066,-489.6121 966.4637,-496.591"/>
</g>
<!-- 139748203901000&#45;&gt;139748203303656 -->
<g id="edge31" class="edge">
<title>139748203901000&#45;&gt;139748203303656</title>
<path fill="none" stroke="#000000" d="M1562.003,-591C1570.0277,-591 1578.9665,-591 1587.5309,-591"/>
<polygon fill="#000000" stroke="#000000" points="1587.7051,-594.5001 1597.705,-591 1587.705,-587.5001 1587.7051,-594.5001"/>
</g>
<!-- 139748203904808&#45;&gt;139748197701056 -->
<g id="edge32" class="edge">
<title>139748203904808&#45;&gt;139748197701056</title>
<path fill="none" stroke="#000000" d="M887.0313,-24.3438C836.0835,-19.5625 722.1671,-10 626,-10 246,-10 246,-10 246,-10 197.417,-10 142.8193,-18.2439 103.0383,-25.7853"/>
<polygon fill="#000000" stroke="#000000" points="102.1505,-22.3922 93.0002,-27.7328 103.4838,-29.2641 102.1505,-22.3922"/>
</g>
<!-- 139748197700776&#45;&gt;139748197702568 -->
<g id="edge33" class="edge">
<title>139748197700776&#45;&gt;139748197702568</title>
<path fill="none" stroke="#000000" d="M1869.4071,-197.3251C1834.8081,-186.3891 1770.9904,-169 1715,-169 246,-169 246,-169 246,-169 186.8155,-169 122.2723,-194.8543 83.0912,-213.6975"/>
<polygon fill="#000000" stroke="#000000" points="81.1249,-210.7641 73.6951,-218.3171 84.2134,-217.0459 81.1249,-210.7641"/>
</g>
<!-- 139748197701168&#45;&gt;139748197703128 -->
<g id="edge34" class="edge">
<title>139748197701168&#45;&gt;139748197703128</title>
<path fill="none" stroke="#000000" d="M363.2734,-65C370.8644,-65 379.5567,-65 388.7044,-65"/>
<polygon fill="#000000" stroke="#000000" points="388.7789,-68.5001 398.7788,-65 388.7788,-61.5001 388.7789,-68.5001"/>
</g>
<!-- 139748197700832&#45;&gt;139748205722144 -->
<g id="edge35" class="edge">
<title>139748197700832&#45;&gt;139748205722144</title>
<path fill="none" stroke="#000000" d="M653.0853,-489C660.7436,-489 669.5307,-489 678.7739,-489"/>
<polygon fill="#000000" stroke="#000000" points="678.951,-492.5001 688.951,-489 678.951,-485.5001 678.951,-492.5001"/>
</g>
<!-- 139748197703296&#45;&gt;139748197702624 -->
<g id="edge36" class="edge">
<title>139748197703296&#45;&gt;139748197702624</title>
<path fill="none" stroke="#000000" d="M1119.696,-436.2012C1128.2902,-439.2786 1138.2639,-442.85 1148.3579,-446.4644"/>
<polygon fill="#000000" stroke="#000000" points="1147.4367,-449.8521 1158.0313,-449.9282 1149.7966,-443.2619 1147.4367,-449.8521"/>
</g>
<!-- 139748197701280&#45;&gt;139748197700272 -->
<g id="edge37" class="edge">
<title>139748197701280&#45;&gt;139748197700272</title>
<path fill="none" stroke="#000000" d="M1350.0225,-298C1362.6333,-298 1377.8509,-298 1391.5484,-298"/>
<polygon fill="#000000" stroke="#000000" points="1391.6583,-301.5001 1401.6582,-298 1391.6582,-294.5001 1391.6583,-301.5001"/>
</g>
<!-- 139748197701448&#45;&gt;139748197702120 -->
<g id="edge38" class="edge">
<title>139748197701448&#45;&gt;139748197702120</title>
<path fill="none" stroke="#000000" d="M1350.0225,-591C1357.9553,-591 1366.9196,-591 1375.8881,-591"/>
<polygon fill="#000000" stroke="#000000" points="1375.961,-594.5001 1385.961,-591 1375.9609,-587.5001 1375.961,-594.5001"/>
</g>
<!-- 139748197702064&#45;&gt;139748197699880 -->
<g id="edge41" class="edge">
<title>139748197702064&#45;&gt;139748197699880</title>
<path fill="none" stroke="#000000" d="M797.0239,-224C840.589,-224 929.0469,-224 1004,-224 1004,-224 1004,-224 1625,-224 1674.6217,-224 1731.5151,-231.2294 1767.8283,-236.7694"/>
<polygon fill="#000000" stroke="#000000" points="1767.533,-240.2657 1777.9536,-238.3521 1768.6141,-233.3497 1767.533,-240.2657"/>
</g>
<!-- 139748197702288&#45;&gt;139748197699880 -->
<g id="edge42" class="edge">
<title>139748197702288&#45;&gt;139748197699880</title>
<path fill="none" stroke="#000000" d="M1649.6508,-314.6332C1680.2782,-300.5106 1732.8119,-276.2868 1768.2104,-259.9641"/>
<polygon fill="#000000" stroke="#000000" points="1770.0922,-262.9506 1777.7077,-255.5848 1767.161,-256.5938 1770.0922,-262.9506"/>
</g>
<!-- 139748197701560&#45;&gt;139748197699880 -->
<g id="edge43" class="edge">
<title>139748197701560&#45;&gt;139748197699880</title>
<path fill="none" stroke="#000000" d="M1725.8561,-423.2722C1742.7871,-384.7072 1775.3615,-310.5099 1792.9798,-270.3794"/>
<polygon fill="#000000" stroke="#000000" points="1796.2004,-271.7502 1797.0156,-261.1868 1789.7909,-268.9362 1796.2004,-271.7502"/>
</g>
<!-- 139748203904080&#45;&gt;139748203901504 -->
<g id="edge44" class="edge">
<title>139748203904080&#45;&gt;139748203901504</title>
<path fill="none" stroke="#000000" d="M183.003,-65C191.0277,-65 199.9665,-65 208.5309,-65"/>
<polygon fill="#000000" stroke="#000000" points="208.7051,-68.5001 218.705,-65 208.705,-61.5001 208.7051,-68.5001"/>
</g>
<!-- 139748203901840&#45;&gt;139748203901504 -->
<g id="edge45" class="edge">
<title>139748203901840&#45;&gt;139748203901504</title>
<path fill="none" stroke="#000000" d="M887.0131,-110.7188C836.035,-113.8125 722.07,-120 626,-120 481,-120 481,-120 481,-120 404.0906,-120 382.1352,-124.7973 309,-101 299.4869,-97.9046 289.8134,-93.2653 280.9945,-88.3379"/>
<polygon fill="#000000" stroke="#000000" points="282.5522,-85.1939 272.1561,-83.1513 279.0094,-91.2312 282.5522,-85.1939"/>
</g>
<!-- 139748197700328&#45;&gt;139748197699712 -->
<g id="edge46" class="edge">
<title>139748197700328&#45;&gt;139748197699712</title>
<path fill="none" stroke="#000000" d="M360.9264,-503.4863C383.9022,-513.152 418.2907,-527.6188 444.3853,-538.5966"/>
<polygon fill="#000000" stroke="#000000" points="443.3644,-541.9641 453.9392,-542.6158 446.0788,-535.5119 443.3644,-541.9641"/>
</g>
<!-- 139748197703408&#45;&gt;139748197699712 -->
<g id="edge47" class="edge">
<title>139748197703408&#45;&gt;139748197699712</title>
<path fill="none" stroke="#000000" d="M1296.8135,-521.6178C1254.5397,-533.2235 1168.4622,-554 1094,-554 770,-554 770,-554 770,-554 679.6875,-554 573.4998,-554 518.4105,-554"/>
<polygon fill="#000000" stroke="#000000" points="518.0938,-550.5001 508.0938,-554 518.0937,-557.5001 518.0938,-550.5001"/>
</g>
<!-- 139748197702680&#45;&gt;139748197699712 -->
<g id="edge48" class="edge">
<title>139748197702680&#45;&gt;139748197699712</title>
<path fill="none" stroke="#000000" d="M1688.6517,-625.4672C1653.7436,-633.4549 1590.1413,-646 1535,-646 1208.5,-646 1208.5,-646 1208.5,-646 1075.429,-646 1047.071,-592 914,-592 770,-592 770,-592 770,-592 678.9581,-592 573.1496,-573.2331 518.2915,-562.0764"/>
<polygon fill="#000000" stroke="#000000" points="518.8385,-558.6156 508.3374,-560.0212 517.4231,-565.471 518.8385,-558.6156"/>
</g>
<!-- 139748203901616&#45;&gt;139748197702232 -->
<g id="edge49" class="edge">
<title>139748203901616&#45;&gt;139748197702232</title>
<path fill="none" stroke="#000000" d="M1120.8452,-312.5453C1135.9529,-310.0384 1155.0403,-306.871 1171.5434,-304.1325"/>
<polygon fill="#000000" stroke="#000000" points="1172.1342,-307.5825 1181.4263,-302.4926 1170.9882,-300.6769 1172.1342,-307.5825"/>
</g>
<!-- 139748203901336&#45;&gt;139748197702232 -->
<g id="edge50" class="edge">
<title>139748203901336&#45;&gt;139748197702232</title>
<path fill="none" stroke="#000000" d="M651.9307,-381.2353C719.3541,-358.9656 906.1174,-300.5876 1067,-281 1102.4373,-276.6855 1142.8763,-282.6342 1171.4227,-288.648"/>
<polygon fill="#000000" stroke="#000000" points="1170.8506,-292.1059 1181.3704,-290.8476 1172.362,-285.271 1170.8506,-292.1059"/>
</g>
<!-- 139748197702904&#45;&gt;139748197701840 -->
<g id="edge51" class="edge">
<title>139748197702904&#45;&gt;139748197701840</title>
<path fill="none" stroke="#000000" d="M940.9156,-642.7045C993.6923,-634.2817 1110.8589,-615.5828 1171.1153,-605.9663"/>
<polygon fill="#000000" stroke="#000000" points="1172.0037,-609.3689 1181.3272,-604.3366 1170.9005,-602.4564 1172.0037,-609.3689"/>
</g>
<!-- 139748197703520&#45;&gt;139748197701840 -->
<g id="edge52" class="edge">
<title>139748197703520&#45;&gt;139748197701840</title>
<path fill="none" stroke="#000000" d="M1114.4703,-517.0568C1132.7556,-533.1862 1159.7217,-556.9729 1180.0928,-574.9421"/>
<polygon fill="#000000" stroke="#000000" points="1178.0062,-577.7686 1187.8209,-581.759 1182.6368,-572.5191 1178.0062,-577.7686"/>
</g>
</g>
</svg>
