<?xml version="1.0" encoding="UTF-8" standalone="no"?>
<!DOCTYPE svg PUBLIC "-//W3C//DTD SVG 1.1//EN"
 "http://www.w3.org/Graphics/SVG/1.1/DTD/svg11.dtd">
<!-- Generated by graphviz version 2.40.1 (20161225.0304)
 -->
<!-- Title: %3 Pages: 1 -->
<svg width="1930pt" height="710pt"
 viewBox="0.00 0.00 1930.00 710.00" xmlns="http://www.w3.org/2000/svg" xmlns:xlink="http://www.w3.org/1999/xlink">
<g id="graph0" class="graph" transform="scale(1 1) rotate(0) translate(4 706)">
<title>%3</title>
<!-- 140219168134312 -->
<g id="node1" class="node">
<title>140219168134312</title>
<polygon fill="none" stroke="#000000" points="93,-56 0,-56 0,-20 93,-20 93,-56"/>
<text text-anchor="middle" x="46.5" y="-34.3" font-family="Times,serif" font-size="14.00" fill="#000000">FinancialUtils</text>
</g>
<!-- 140219168874056 -->
<g id="node35" class="node">
<title>140219168874056</title>
<ellipse fill="none" stroke="#000000" cx="156" cy="-65" rx="27" ry="27"/>
<text text-anchor="middle" x="156" y="-61.3" font-family="Times,serif" font-size="14.00" fill="#000000">splace_in_MarketSummaryDataBean_FinancialUtils_0</text>
</g>
<!-- 140219168134312&#45;&gt;140219168874056 -->
<g id="edge1" class="edge">
<title>140219168134312&#45;&gt;140219168874056</title>
<path fill="none" stroke="#000000" d="M93.2555,-49.5287C102.0992,-51.7094 111.2273,-53.9602 119.6899,-56.0468"/>
<polygon fill="#000000" stroke="#000000" points="119.0714,-59.4991 129.6185,-58.495 120.7473,-52.7026 119.0714,-59.4991"/>
</g>
<!-- 140219168133920 -->
<g id="node2" class="node">
<title>140219168133920</title>
<polygon fill="none" stroke="#000000" points="73.5,-245 19.5,-245 19.5,-209 73.5,-209 73.5,-245"/>
<text text-anchor="middle" x="46.5" y="-223.3" font-family="Times,serif" font-size="14.00" fill="#000000">Log</text>
</g>
<!-- 140219168873664 -->
<g id="node21" class="node">
<title>140219168873664</title>
<ellipse fill="none" stroke="#000000" cx="156" cy="-328" rx="27" ry="27"/>
<text text-anchor="middle" x="156" y="-324.3" font-family="Times,serif" font-size="14.00" fill="#000000">intplace_Log</text>
</g>
<!-- 140219168133920&#45;&gt;140219168873664 -->
<g id="edge2" class="edge">
<title>140219168133920&#45;&gt;140219168873664</title>
<path fill="none" stroke="#000000" d="M66.0764,-245.0568C83.4546,-261.086 109.0317,-284.6777 128.4696,-302.6066"/>
<polygon fill="#000000" stroke="#000000" points="126.1286,-305.2089 135.8522,-309.4162 130.8746,-300.0635 126.1286,-305.2089"/>
</g>
<!-- 140219168134480 -->
<g id="node3" class="node">
<title>140219168134480</title>
<polygon fill="none" stroke="#000000" points="563,-83 399,-83 399,-47 563,-47 563,-83"/>
<text text-anchor="middle" x="481" y="-61.3" font-family="Times,serif" font-size="14.00" fill="#000000">MarketSummaryDataBean</text>
</g>
<!-- 140219170889344 -->
<g id="node22" class="node">
<title>140219170889344</title>
<ellipse fill="none" stroke="#000000" cx="626" cy="-65" rx="27" ry="27"/>
<text text-anchor="middle" x="626" y="-61.3" font-family="Times,serif" font-size="14.00" fill="#000000">intplace_MarketSummaryDataBean</text>
</g>
<!-- 140219168134480&#45;&gt;140219170889344 -->
<g id="edge3" class="edge">
<title>140219168134480&#45;&gt;140219170889344</title>
<path fill="none" stroke="#000000" d="M563.2442,-65C572.0332,-65 580.6275,-65 588.498,-65"/>
<polygon fill="#000000" stroke="#000000" points="588.732,-68.5001 598.7319,-65 588.7319,-61.5001 588.732,-68.5001"/>
</g>
<!-- 140219168133808 -->
<g id="node4" class="node">
<title>140219168133808</title>
<polygon fill="none" stroke="#000000" points="851,-417 689,-417 689,-381 851,-381 851,-417"/>
<text text-anchor="middle" x="770" y="-395.3" font-family="Times,serif" font-size="14.00" fill="#000000">MarketSummarySingleton</text>
</g>
<!-- 140219168873440 -->
<g id="node23" class="node">
<title>140219168873440</title>
<ellipse fill="none" stroke="#000000" cx="914" cy="-399" rx="27" ry="27"/>
<text text-anchor="middle" x="914" y="-395.3" font-family="Times,serif" font-size="14.00" fill="#000000">intplace_MarketSummarySingleton</text>
</g>
<!-- 140219168133808&#45;&gt;140219168873440 -->
<g id="edge4" class="edge">
<title>140219168133808&#45;&gt;140219168873440</title>
<path fill="none" stroke="#000000" d="M851.2584,-399C860.0303,-399 868.6157,-399 876.4822,-399"/>
<polygon fill="#000000" stroke="#000000" points="876.7137,-402.5001 886.7136,-399 876.7136,-395.5001 876.7137,-402.5001"/>
</g>
<!-- 140219168134088 -->
<g id="node5" class="node">
<title>140219168134088</title>
<polygon fill="none" stroke="#000000" points="539,-355 423,-355 423,-319 539,-319 539,-355"/>
<text text-anchor="middle" x="481" y="-333.3" font-family="Times,serif" font-size="14.00" fill="#000000">PingServletWriter</text>
</g>
<!-- 140219168872824 -->
<g id="node41" class="node">
<title>140219168872824</title>
<ellipse fill="none" stroke="#000000" cx="914" cy="-289" rx="27" ry="27"/>
<text text-anchor="middle" x="914" y="-285.3" font-family="Times,serif" font-size="14.00" fill="#000000">splace_in_Root_PingServletWriter_0</text>
</g>
<!-- 140219168134088&#45;&gt;140219168872824 -->
<g id="edge5" class="edge">
<title>140219168134088&#45;&gt;140219168872824</title>
<path fill="none" stroke="#000000" d="M539.3963,-330.5265C630.0099,-320.4816 801.8693,-301.4302 877.1347,-293.0867"/>
<polygon fill="#000000" stroke="#000000" points="877.5419,-296.5631 887.0954,-291.9825 876.7706,-289.6057 877.5419,-296.5631"/>
</g>
<!-- 140219168134424 -->
<g id="node6" class="node">
<title>140219168134424</title>
<polygon fill="none" stroke="#000000" points="1260,-433 1157,-433 1157,-397 1260,-397 1260,-433"/>
<text text-anchor="middle" x="1208.5" y="-411.3" font-family="Times,serif" font-size="14.00" fill="#000000">QuoteDataBean</text>
</g>
<!-- 140219168133472 -->
<g id="node38" class="node">
<title>140219168133472</title>
<ellipse fill="none" stroke="#000000" cx="1323" cy="-442" rx="27" ry="27"/>
<text text-anchor="middle" x="1323" y="-438.3" font-family="Times,serif" font-size="14.00" fill="#000000">splace_in_MarketSummarySingleton_QuoteDataBean_0</text>
</g>
<!-- 140219168134424&#45;&gt;140219168133472 -->
<g id="edge6" class="edge">
<title>140219168134424&#45;&gt;140219168133472</title>
<path fill="none" stroke="#000000" d="M1260.0557,-427.1573C1269.0021,-429.2669 1278.1358,-431.4207 1286.5712,-433.4098"/>
<polygon fill="#000000" stroke="#000000" points="1285.9185,-436.8518 1296.4549,-435.7404 1287.5251,-430.0387 1285.9185,-436.8518"/>
</g>
<!-- 140219168133584 -->
<g id="node7" class="node">
<title>140219168133584</title>
<polygon fill="none" stroke="#000000" points="1456,-288 1402,-288 1402,-252 1456,-252 1456,-288"/>
<text text-anchor="middle" x="1429" y="-266.3" font-family="Times,serif" font-size="14.00" fill="#000000">Root</text>
</g>
<!-- 140219168133640 -->
<g id="node44" class="node">
<title>140219168133640</title>
<ellipse fill="#ffa500" stroke="#000000" cx="1535" cy="-270" rx="27" ry="27"/>
</g>
<!-- 140219168133584&#45;&gt;140219168133640 -->
<g id="edge7" class="edge">
<title>140219168133584&#45;&gt;140219168133640</title>
<path fill="none" stroke="#000000" d="M1456.0225,-270C1468.6333,-270 1483.8509,-270 1497.5484,-270"/>
<polygon fill="#000000" stroke="#000000" points="1497.6583,-273.5001 1507.6582,-270 1497.6582,-266.5001 1497.6583,-273.5001"/>
</g>
<!-- 140219168134200 -->
<g id="node8" class="node">
<title>140219168134200</title>
<polygon fill="none" stroke="#000000" points="1472,-648 1386,-648 1386,-612 1472,-612 1472,-648"/>
<text text-anchor="middle" x="1429" y="-626.3" font-family="Times,serif" font-size="14.00" fill="#000000">TradeConfig</text>
</g>
<!-- 140219168873216 -->
<g id="node24" class="node">
<title>140219168873216</title>
<ellipse fill="none" stroke="#000000" cx="1535" cy="-630" rx="27" ry="27"/>
<text text-anchor="middle" x="1535" y="-626.3" font-family="Times,serif" font-size="14.00" fill="#000000">intplace_TradeConfig</text>
</g>
<!-- 140219168134200&#45;&gt;140219168873216 -->
<g id="edge8" class="edge">
<title>140219168134200&#45;&gt;140219168873216</title>
<path fill="none" stroke="#000000" d="M1472.1143,-630C1480.5776,-630 1489.3896,-630 1497.6453,-630"/>
<polygon fill="#000000" stroke="#000000" points="1497.7368,-633.5001 1507.7368,-630 1497.7368,-626.5001 1497.7368,-633.5001"/>
</g>
<!-- 140219168133528 -->
<g id="node9" class="node">
<title>140219168133528</title>
<polygon fill="none" stroke="#000000" points="508,-474 454,-474 454,-438 508,-438 508,-474"/>
<text text-anchor="middle" x="481" y="-452.3" font-family="Times,serif" font-size="14.00" fill="#000000">hid_1</text>
</g>
<!-- 140219168133304 -->
<g id="node28" class="node">
<title>140219168133304</title>
<ellipse fill="none" stroke="#000000" cx="626" cy="-399" rx="27" ry="27"/>
<text text-anchor="middle" x="626" y="-395.3" font-family="Times,serif" font-size="14.00" fill="#000000">pre_MarketSummarySingleton</text>
</g>
<!-- 140219168133528&#45;&gt;140219168133304 -->
<g id="edge9" class="edge">
<title>140219168133528&#45;&gt;140219168133304</title>
<path fill="none" stroke="#000000" d="M508.2734,-445.2787C531.7385,-436.0545 565.7278,-422.6932 591.159,-412.6961"/>
<polygon fill="#000000" stroke="#000000" points="592.7633,-415.8263 600.7895,-408.9103 590.2023,-409.3115 592.7633,-415.8263"/>
</g>
<!-- 140219170889568 -->
<g id="node10" class="node">
<title>140219170889568</title>
<polygon fill="none" stroke="#000000" points="1652,-693 1598,-693 1598,-657 1652,-657 1652,-693"/>
<text text-anchor="middle" x="1625" y="-671.3" font-family="Times,serif" font-size="14.00" fill="#000000">hid_11</text>
</g>
<!-- 140219167098472 -->
<g id="node34" class="node">
<title>140219167098472</title>
<ellipse fill="none" stroke="#000000" cx="1715" cy="-675" rx="27" ry="27"/>
<text text-anchor="middle" x="1715" y="-671.3" font-family="Times,serif" font-size="14.00" fill="#000000">splace_in_Log_TradeConfig_0</text>
</g>
<!-- 140219170889568&#45;&gt;140219167098472 -->
<g id="edge10" class="edge">
<title>140219170889568&#45;&gt;140219167098472</title>
<path fill="none" stroke="#000000" d="M1652.003,-675C1660.0277,-675 1668.9665,-675 1677.5309,-675"/>
<polygon fill="#000000" stroke="#000000" points="1677.7051,-678.5001 1687.705,-675 1677.705,-671.5001 1677.7051,-678.5001"/>
</g>
<!-- 140219167100880 -->
<g id="node39" class="node">
<title>140219167100880</title>
<ellipse fill="none" stroke="#000000" cx="1715" cy="-603" rx="27" ry="27"/>
<text text-anchor="middle" x="1715" y="-599.3" font-family="Times,serif" font-size="14.00" fill="#000000">splace_in_MarketSummarySingleton_TradeConfig_0</text>
</g>
<!-- 140219170889568&#45;&gt;140219167100880 -->
<g id="edge11" class="edge">
<title>140219170889568&#45;&gt;140219167100880</title>
<path fill="none" stroke="#000000" d="M1647.7108,-656.8314C1659.3298,-647.5362 1673.601,-636.1192 1686.0062,-626.195"/>
<polygon fill="#000000" stroke="#000000" points="1688.2199,-628.9063 1693.8421,-619.9263 1683.847,-623.4402 1688.2199,-628.9063"/>
</g>
<!-- 140219170887048 -->
<g id="node11" class="node">
<title>140219170887048</title>
<polygon fill="none" stroke="#000000" points="1652,-639 1598,-639 1598,-603 1652,-603 1652,-639"/>
<text text-anchor="middle" x="1625" y="-617.3" font-family="Times,serif" font-size="14.00" fill="#000000">hid_12</text>
</g>
<!-- 140219170887048&#45;&gt;140219167100880 -->
<g id="edge12" class="edge">
<title>140219170887048&#45;&gt;140219167100880</title>
<path fill="none" stroke="#000000" d="M1652.003,-615.5994C1660.2647,-613.9471 1669.4954,-612.1009 1678.2888,-610.3422"/>
<polygon fill="#000000" stroke="#000000" points="1679.2069,-613.728 1688.3262,-608.3348 1677.834,-606.864 1679.2069,-613.728"/>
</g>
<!-- 140219170886712 -->
<g id="node12" class="node">
<title>140219170886712</title>
<polygon fill="none" stroke="#000000" points="797,-83 743,-83 743,-47 797,-47 797,-83"/>
<text text-anchor="middle" x="770" y="-61.3" font-family="Times,serif" font-size="14.00" fill="#000000">hid_13</text>
</g>
<!-- 140219168874336 -->
<g id="node25" class="node">
<title>140219168874336</title>
<ellipse fill="none" stroke="#000000" cx="914" cy="-27" rx="27" ry="27"/>
<text text-anchor="middle" x="914" y="-23.3" font-family="Times,serif" font-size="14.00" fill="#000000">pre_FinancialUtils</text>
</g>
<!-- 140219170886712&#45;&gt;140219168874336 -->
<g id="edge13" class="edge">
<title>140219170886712&#45;&gt;140219168874336</title>
<path fill="none" stroke="#000000" d="M797.0853,-57.8525C819.8559,-51.8436 852.6055,-43.2013 877.6541,-36.5913"/>
<polygon fill="#000000" stroke="#000000" points="878.7467,-39.9228 887.5227,-33.9871 876.9606,-33.1545 878.7467,-39.9228"/>
</g>
<!-- 140219168874280 -->
<g id="node36" class="node">
<title>140219168874280</title>
<ellipse fill="none" stroke="#000000" cx="914" cy="-109" rx="27" ry="27"/>
<text text-anchor="middle" x="914" y="-105.3" font-family="Times,serif" font-size="14.00" fill="#000000">splace_in_MarketSummaryDataBean_MarketSummaryDataBean_0</text>
</g>
<!-- 140219170886712&#45;&gt;140219168874280 -->
<g id="edge14" class="edge">
<title>140219170886712&#45;&gt;140219168874280</title>
<path fill="none" stroke="#000000" d="M797.0853,-73.2761C819.9991,-80.2775 853.0179,-90.3666 878.1258,-98.0384"/>
<polygon fill="#000000" stroke="#000000" points="877.4198,-101.4824 888.0061,-101.0574 879.4653,-94.7879 877.4198,-101.4824"/>
</g>
<!-- 140219168134368 -->
<g id="node13" class="node">
<title>140219168134368</title>
<polygon fill="none" stroke="#000000" points="508,-412 454,-412 454,-376 508,-376 508,-412"/>
<text text-anchor="middle" x="481" y="-390.3" font-family="Times,serif" font-size="14.00" fill="#000000">hid_2</text>
</g>
<!-- 140219168134368&#45;&gt;140219168133304 -->
<g id="edge15" class="edge">
<title>140219168134368&#45;&gt;140219168133304</title>
<path fill="none" stroke="#000000" d="M508.2734,-394.9405C530.9566,-395.7226 563.4742,-396.8439 588.589,-397.71"/>
<polygon fill="#000000" stroke="#000000" points="588.7342,-401.217 598.8489,-398.0638 588.9755,-394.2211 588.7342,-401.217"/>
</g>
<!-- 140219167099424 -->
<g id="node14" class="node">
<title>140219167099424</title>
<polygon fill="none" stroke="#000000" points="1832,-303 1778,-303 1778,-267 1832,-267 1832,-303"/>
<text text-anchor="middle" x="1805" y="-281.3" font-family="Times,serif" font-size="14.00" fill="#000000">hid_3</text>
</g>
<!-- 140219168133416 -->
<g id="node26" class="node">
<title>140219168133416</title>
<ellipse fill="none" stroke="#000000" cx="1895" cy="-192" rx="27" ry="27"/>
<text text-anchor="middle" x="1895" y="-188.3" font-family="Times,serif" font-size="14.00" fill="#000000">pre_Log</text>
</g>
<!-- 140219167099424&#45;&gt;140219168133416 -->
<g id="edge16" class="edge">
<title>140219167099424&#45;&gt;140219168133416</title>
<path fill="none" stroke="#000000" d="M1822.7811,-266.6262C1835.9883,-252.9787 1854.2061,-234.1537 1869.0397,-218.8257"/>
<polygon fill="#000000" stroke="#000000" points="1871.5739,-221.2399 1876.013,-211.6199 1866.5436,-216.372 1871.5739,-221.2399"/>
</g>
<!-- 140219167097688 -->
<g id="node15" class="node">
<title>140219167097688</title>
<polygon fill="none" stroke="#000000" points="1235.5,-648 1181.5,-648 1181.5,-612 1235.5,-612 1235.5,-648"/>
<text text-anchor="middle" x="1208.5" y="-626.3" font-family="Times,serif" font-size="14.00" fill="#000000">hid_4</text>
</g>
<!-- 140219167100320 -->
<g id="node31" class="node">
<title>140219167100320</title>
<ellipse fill="none" stroke="#000000" cx="1323" cy="-630" rx="27" ry="27"/>
<text text-anchor="middle" x="1323" y="-626.3" font-family="Times,serif" font-size="14.00" fill="#000000">pre_TradeConfig</text>
</g>
<!-- 140219167097688&#45;&gt;140219167100320 -->
<g id="edge17" class="edge">
<title>140219167097688&#45;&gt;140219167100320</title>
<path fill="none" stroke="#000000" d="M1235.6349,-630C1250.4989,-630 1269.1492,-630 1285.3969,-630"/>
<polygon fill="#000000" stroke="#000000" points="1285.6631,-633.5001 1295.6631,-630 1285.663,-626.5001 1285.6631,-633.5001"/>
</g>
<!-- 140219168873160 -->
<g id="node16" class="node">
<title>140219168873160</title>
<polygon fill="none" stroke="#000000" points="1235.5,-288 1181.5,-288 1181.5,-252 1235.5,-252 1235.5,-288"/>
<text text-anchor="middle" x="1208.5" y="-266.3" font-family="Times,serif" font-size="14.00" fill="#000000">hid_5</text>
</g>
<!-- 140219168872712 -->
<g id="node30" class="node">
<title>140219168872712</title>
<ellipse fill="none" stroke="#000000" cx="1323" cy="-270" rx="27" ry="27"/>
<text text-anchor="middle" x="1323" y="-266.3" font-family="Times,serif" font-size="14.00" fill="#000000">pre_Root</text>
</g>
<!-- 140219168873160&#45;&gt;140219168872712 -->
<g id="edge18" class="edge">
<title>140219168873160&#45;&gt;140219168872712</title>
<path fill="none" stroke="#000000" d="M1235.6349,-270C1250.4989,-270 1269.1492,-270 1285.3969,-270"/>
<polygon fill="#000000" stroke="#000000" points="1285.6631,-273.5001 1295.6631,-270 1285.663,-266.5001 1285.6631,-273.5001"/>
</g>
<!-- 140219168874168 -->
<g id="node17" class="node">
<title>140219168874168</title>
<polygon fill="none" stroke="#000000" points="273,-83 219,-83 219,-47 273,-47 273,-83"/>
<text text-anchor="middle" x="246" y="-61.3" font-family="Times,serif" font-size="14.00" fill="#000000">hid_6</text>
</g>
<!-- 140219168873384 -->
<g id="node27" class="node">
<title>140219168873384</title>
<ellipse fill="none" stroke="#000000" cx="336" cy="-65" rx="27" ry="27"/>
<text text-anchor="middle" x="336" y="-61.3" font-family="Times,serif" font-size="14.00" fill="#000000">pre_MarketSummaryDataBean</text>
</g>
<!-- 140219168874168&#45;&gt;140219168873384 -->
<g id="edge19" class="edge">
<title>140219168874168&#45;&gt;140219168873384</title>
<path fill="none" stroke="#000000" d="M273.003,-65C281.0277,-65 289.9665,-65 298.5309,-65"/>
<polygon fill="#000000" stroke="#000000" points="298.7051,-68.5001 308.705,-65 298.705,-61.5001 298.7051,-68.5001"/>
</g>
<!-- 140219168873272 -->
<g id="node18" class="node">
<title>140219168873272</title>
<polygon fill="none" stroke="#000000" points="1031,-417 977,-417 977,-381 1031,-381 1031,-417"/>
<text text-anchor="middle" x="1004" y="-395.3" font-family="Times,serif" font-size="14.00" fill="#000000">hid_7</text>
</g>
<!-- 140219167099704 -->
<g id="node29" class="node">
<title>140219167099704</title>
<ellipse fill="none" stroke="#000000" cx="1094" cy="-410" rx="27" ry="27"/>
<text text-anchor="middle" x="1094" y="-406.3" font-family="Times,serif" font-size="14.00" fill="#000000">pre_QuoteDataBean</text>
</g>
<!-- 140219168873272&#45;&gt;140219167099704 -->
<g id="edge20" class="edge">
<title>140219168873272&#45;&gt;140219167099704</title>
<path fill="none" stroke="#000000" d="M1031.003,-402.3004C1039.1903,-403.301 1048.3292,-404.418 1057.051,-405.484"/>
<polygon fill="#000000" stroke="#000000" points="1056.6653,-408.9628 1067.0161,-406.702 1057.5146,-402.0145 1056.6653,-408.9628"/>
</g>
<!-- 140219167097408 -->
<g id="node33" class="node">
<title>140219167097408</title>
<ellipse fill="none" stroke="#000000" cx="1429" cy="-348" rx="27" ry="27"/>
<text text-anchor="middle" x="1429" y="-344.3" font-family="Times,serif" font-size="14.00" fill="#000000">splace_in_Log_MarketSummarySingleton_0</text>
</g>
<!-- 140219168873272&#45;&gt;140219167097408 -->
<g id="edge21" class="edge">
<title>140219168873272&#45;&gt;140219167097408</title>
<path fill="none" stroke="#000000" d="M1031.0172,-386.172C1041.9493,-381.5436 1054.8404,-376.7796 1067,-374 1183.08,-347.4647 1325.0478,-345.9377 1391.4259,-346.9569"/>
<polygon fill="#000000" stroke="#000000" points="1391.7289,-350.4629 1401.7914,-347.1469 1391.8573,-343.4641 1391.7289,-350.4629"/>
</g>
<!-- 140219168874000 -->
<g id="node40" class="node">
<title>140219168874000</title>
<ellipse fill="none" stroke="#000000" cx="1094" cy="-300" rx="27" ry="27"/>
<text text-anchor="middle" x="1094" y="-296.3" font-family="Times,serif" font-size="14.00" fill="#000000">splace_in_Root_MarketSummarySingleton_0</text>
</g>
<!-- 140219168873272&#45;&gt;140219168874000 -->
<g id="edge22" class="edge">
<title>140219168873272&#45;&gt;140219168874000</title>
<path fill="none" stroke="#000000" d="M1020.5074,-380.8419C1034.0615,-365.9324 1053.4742,-344.5784 1068.9444,-327.5612"/>
<polygon fill="#000000" stroke="#000000" points="1071.6028,-329.8401 1075.7397,-320.0863 1066.4232,-325.1314 1071.6028,-329.8401"/>
</g>
<!-- 140219168873048 -->
<g id="node43" class="node">
<title>140219168873048</title>
<ellipse fill="none" stroke="#000000" cx="1094" cy="-520" rx="27" ry="27"/>
<text text-anchor="middle" x="1094" y="-516.3" font-family="Times,serif" font-size="14.00" fill="#000000">splace_in_TradeConfig_MarketSummarySingleton_0</text>
</g>
<!-- 140219168873272&#45;&gt;140219168873048 -->
<g id="edge23" class="edge">
<title>140219168873272&#45;&gt;140219168873048</title>
<path fill="none" stroke="#000000" d="M1017.4739,-417.1149C1031.7989,-436.374 1054.6893,-467.149 1071.7078,-490.0294"/>
<polygon fill="#000000" stroke="#000000" points="1068.9089,-492.1309 1077.6854,-498.0659 1074.5256,-487.9532 1068.9089,-492.1309"/>
</g>
<!-- 140219170889512 -->
<g id="node19" class="node">
<title>140219170889512</title>
<polygon fill="none" stroke="#000000" points="273,-375 219,-375 219,-339 273,-339 273,-375"/>
<text text-anchor="middle" x="246" y="-353.3" font-family="Times,serif" font-size="14.00" fill="#000000">hid_9</text>
</g>
<!-- 140219167099032 -->
<g id="node32" class="node">
<title>140219167099032</title>
<ellipse fill="none" stroke="#000000" cx="770" cy="-247" rx="27" ry="27"/>
<text text-anchor="middle" x="770" y="-243.3" font-family="Times,serif" font-size="14.00" fill="#000000">splace_in_Log_Log_0</text>
</g>
<!-- 140219170889512&#45;&gt;140219167099032 -->
<g id="edge24" class="edge">
<title>140219170889512&#45;&gt;140219167099032</title>
<path fill="none" stroke="#000000" d="M263.8815,-338.8614C275.659,-328.0615 291.9994,-315.1137 309,-308 456.7177,-246.1892 652.2706,-243.5407 732.8613,-245.483"/>
<polygon fill="#000000" stroke="#000000" points="732.9122,-248.9857 743.0064,-245.7674 733.1085,-241.9884 732.9122,-248.9857"/>
</g>
<!-- 140219168133192 -->
<g id="node37" class="node">
<title>140219168133192</title>
<ellipse fill="none" stroke="#000000" cx="336" cy="-429" rx="27" ry="27"/>
<text text-anchor="middle" x="336" y="-425.3" font-family="Times,serif" font-size="14.00" fill="#000000">splace_in_MarketSummarySingleton_Log_0</text>
</g>
<!-- 140219170889512&#45;&gt;140219168133192 -->
<g id="edge25" class="edge">
<title>140219170889512&#45;&gt;140219168133192</title>
<path fill="none" stroke="#000000" d="M268.7108,-375.1686C280.3298,-384.4638 294.601,-395.8808 307.0062,-405.805"/>
<polygon fill="#000000" stroke="#000000" points="304.847,-408.5598 314.8421,-412.0737 309.2199,-403.0937 304.847,-408.5598"/>
</g>
<!-- 140219167099592 -->
<g id="node42" class="node">
<title>140219167099592</title>
<ellipse fill="none" stroke="#000000" cx="626" cy="-630" rx="27" ry="27"/>
<text text-anchor="middle" x="626" y="-626.3" font-family="Times,serif" font-size="14.00" fill="#000000">splace_in_TradeConfig_Log_0</text>
</g>
<!-- 140219170889512&#45;&gt;140219167099592 -->
<g id="edge26" class="edge">
<title>140219170889512&#45;&gt;140219167099592</title>
<path fill="none" stroke="#000000" d="M252.8344,-375.1235C262.3791,-398.4141 281.6572,-438.9433 309,-465 394.2683,-546.2577 527.4005,-597.7373 590.5149,-618.9177"/>
<polygon fill="#000000" stroke="#000000" points="589.4319,-622.2459 600.0251,-622.0567 591.6261,-615.5986 589.4319,-622.2459"/>
</g>
<!-- 140219168133864 -->
<g id="node20" class="node">
<title>140219168133864</title>
<ellipse fill="#00ff00" stroke="#000000" cx="336" cy="-344" rx="27" ry="27"/>
<text text-anchor="middle" x="336" y="-340.3" font-family="Times,serif" font-size="14.00" fill="#000000">1</text>
</g>
<!-- 140219168133864&#45;&gt;140219168134088 -->
<g id="edge39" class="edge">
<title>140219168133864&#45;&gt;140219168134088</title>
<path fill="none" stroke="#000000" d="M363.2734,-342.6834C377.3318,-342.0047 395.1679,-341.1436 412.6778,-340.2983"/>
<polygon fill="#000000" stroke="#000000" points="413.0992,-343.7821 422.9187,-339.8039 412.7616,-336.7903 413.0992,-343.7821"/>
</g>
<!-- 140219168133864&#45;&gt;140219168134368 -->
<g id="edge40" class="edge">
<title>140219168133864&#45;&gt;140219168134368</title>
<path fill="none" stroke="#000000" d="M361.5893,-352.8239C384.5867,-360.754 418.62,-372.4897 444.476,-381.4055"/>
<polygon fill="#000000" stroke="#000000" points="443.3504,-384.7196 453.9451,-384.6707 445.6324,-378.102 443.3504,-384.7196"/>
</g>
<!-- 140219168873664&#45;&gt;140219170889512 -->
<g id="edge27" class="edge">
<title>140219168873664&#45;&gt;140219170889512</title>
<path fill="none" stroke="#000000" d="M182.0317,-336.388C190.4955,-339.1152 200.055,-342.1955 209.1543,-345.1275"/>
<polygon fill="#000000" stroke="#000000" points="208.1823,-348.4914 218.7738,-348.2271 210.3292,-341.8288 208.1823,-348.4914"/>
</g>
<!-- 140219170889344&#45;&gt;140219170886712 -->
<g id="edge28" class="edge">
<title>140219170889344&#45;&gt;140219170886712</title>
<path fill="none" stroke="#000000" d="M653.0853,-65C675.4695,-65 707.4971,-65 732.3725,-65"/>
<polygon fill="#000000" stroke="#000000" points="732.5466,-68.5001 742.5466,-65 732.5465,-61.5001 732.5466,-68.5001"/>
</g>
<!-- 140219168873440&#45;&gt;140219168873272 -->
<g id="edge29" class="edge">
<title>140219168873440&#45;&gt;140219168873272</title>
<path fill="none" stroke="#000000" d="M941.003,-399C949.0277,-399 957.9665,-399 966.5309,-399"/>
<polygon fill="#000000" stroke="#000000" points="966.7051,-402.5001 976.705,-399 966.705,-395.5001 966.7051,-402.5001"/>
</g>
<!-- 140219168873216&#45;&gt;140219170889568 -->
<g id="edge30" class="edge">
<title>140219168873216&#45;&gt;140219170889568</title>
<path fill="none" stroke="#000000" d="M1559.5929,-642.2964C1568.5854,-646.7927 1578.9573,-651.9786 1588.7535,-656.8767"/>
<polygon fill="#000000" stroke="#000000" points="1587.396,-660.1111 1597.9055,-661.4528 1590.5265,-653.8501 1587.396,-660.1111"/>
</g>
<!-- 140219168873216&#45;&gt;140219170887048 -->
<g id="edge31" class="edge">
<title>140219168873216&#45;&gt;140219170887048</title>
<path fill="none" stroke="#000000" d="M1562.003,-627.2997C1570.0277,-626.4972 1578.9665,-625.6033 1587.5309,-624.7469"/>
<polygon fill="#000000" stroke="#000000" points="1588.1029,-628.2073 1597.705,-623.7295 1587.4064,-621.242 1588.1029,-628.2073"/>
</g>
<!-- 140219168874336&#45;&gt;140219168134312 -->
<g id="edge32" class="edge">
<title>140219168874336&#45;&gt;140219168134312</title>
<path fill="none" stroke="#000000" d="M887.0313,-24.3438C836.0835,-19.5625 722.1671,-10 626,-10 246,-10 246,-10 246,-10 197.417,-10 142.8193,-18.2439 103.0383,-25.7853"/>
<polygon fill="#000000" stroke="#000000" points="102.1505,-22.3922 93.0002,-27.7328 103.4838,-29.2641 102.1505,-22.3922"/>
</g>
<!-- 140219168133416&#45;&gt;140219168133920 -->
<g id="edge33" class="edge">
<title>140219168133416&#45;&gt;140219168133920</title>
<path fill="none" stroke="#000000" d="M1868.2997,-186.4323C1833.2727,-179.6254 1769.8171,-169 1715,-169 246,-169 246,-169 246,-169 187.1448,-169 122.2669,-192.5634 82.9549,-209.6521"/>
<polygon fill="#000000" stroke="#000000" points="81.2482,-206.5804 73.5303,-213.8389 84.0901,-212.9776 81.2482,-206.5804"/>
</g>
<!-- 140219168873384&#45;&gt;140219168134480 -->
<g id="edge34" class="edge">
<title>140219168873384&#45;&gt;140219168134480</title>
<path fill="none" stroke="#000000" d="M363.2734,-65C370.8644,-65 379.5567,-65 388.7044,-65"/>
<polygon fill="#000000" stroke="#000000" points="388.7789,-68.5001 398.7788,-65 388.7788,-61.5001 388.7789,-68.5001"/>
</g>
<!-- 140219168133304&#45;&gt;140219168133808 -->
<g id="edge35" class="edge">
<title>140219168133304&#45;&gt;140219168133808</title>
<path fill="none" stroke="#000000" d="M653.0853,-399C660.7436,-399 669.5307,-399 678.7739,-399"/>
<polygon fill="#000000" stroke="#000000" points="678.951,-402.5001 688.951,-399 678.951,-395.5001 678.951,-402.5001"/>
</g>
<!-- 140219167099704&#45;&gt;140219168134424 -->
<g id="edge36" class="edge">
<title>140219167099704&#45;&gt;140219168134424</title>
<path fill="none" stroke="#000000" d="M1121.1349,-411.1849C1128.9188,-411.5248 1137.7409,-411.9101 1146.7126,-412.3019"/>
<polygon fill="#000000" stroke="#000000" points="1146.7149,-415.8052 1156.8581,-412.7449 1147.0204,-408.8119 1146.7149,-415.8052"/>
</g>
<!-- 140219168872712&#45;&gt;140219168133584 -->
<g id="edge37" class="edge">
<title>140219168872712&#45;&gt;140219168133584</title>
<path fill="none" stroke="#000000" d="M1350.0225,-270C1362.6333,-270 1377.8509,-270 1391.5484,-270"/>
<polygon fill="#000000" stroke="#000000" points="1391.6583,-273.5001 1401.6582,-270 1391.6582,-266.5001 1391.6583,-273.5001"/>
</g>
<!-- 140219167100320&#45;&gt;140219168134200 -->
<g id="edge38" class="edge">
<title>140219167100320&#45;&gt;140219168134200</title>
<path fill="none" stroke="#000000" d="M1350.0225,-630C1357.9553,-630 1366.9196,-630 1375.8881,-630"/>
<polygon fill="#000000" stroke="#000000" points="1375.961,-633.5001 1385.961,-630 1375.9609,-626.5001 1375.961,-633.5001"/>
</g>
<!-- 140219167099032&#45;&gt;140219167099424 -->
<g id="edge41" class="edge">
<title>140219167099032&#45;&gt;140219167099424</title>
<path fill="none" stroke="#000000" d="M796.0707,-239.5701C839.0277,-228.0023 927.5475,-207 1004,-207 1004,-207 1004,-207 1625,-207 1680.2589,-207 1737.7768,-238.3317 1772.4933,-261.2797"/>
<polygon fill="#000000" stroke="#000000" points="1770.5694,-264.2039 1780.813,-266.9092 1774.4923,-258.4063 1770.5694,-264.2039"/>
</g>
<!-- 140219167097408&#45;&gt;140219167099424 -->
<g id="edge42" class="edge">
<title>140219167097408&#45;&gt;140219167099424</title>
<path fill="none" stroke="#000000" d="M1455.7396,-343.5197C1521.6774,-332.4716 1692.1779,-303.9037 1767.8631,-291.2224"/>
<polygon fill="#000000" stroke="#000000" points="1768.6085,-294.6464 1777.8926,-289.5419 1767.4517,-287.7426 1768.6085,-294.6464"/>
</g>
<!-- 140219167098472&#45;&gt;140219167099424 -->
<g id="edge43" class="edge">
<title>140219167098472&#45;&gt;140219167099424</title>
<path fill="none" stroke="#000000" d="M1733.0434,-654.3254C1736.4687,-649.5476 1739.6965,-644.3025 1742,-639 1767.6093,-580.0477 1792.7835,-386.8748 1801.6516,-313.5643"/>
<polygon fill="#000000" stroke="#000000" points="1805.172,-313.6014 1802.8862,-303.2561 1798.2217,-312.7689 1805.172,-313.6014"/>
</g>
<!-- 140219168874056&#45;&gt;140219168874168 -->
<g id="edge44" class="edge">
<title>140219168874056&#45;&gt;140219168874168</title>
<path fill="none" stroke="#000000" d="M183.003,-65C191.0277,-65 199.9665,-65 208.5309,-65"/>
<polygon fill="#000000" stroke="#000000" points="208.7051,-68.5001 218.705,-65 208.705,-61.5001 208.7051,-68.5001"/>
</g>
<!-- 140219168874280&#45;&gt;140219168874168 -->
<g id="edge45" class="edge">
<title>140219168874280&#45;&gt;140219168874168</title>
<path fill="none" stroke="#000000" d="M887.0131,-110.7188C836.035,-113.8125 722.07,-120 626,-120 481,-120 481,-120 481,-120 404.0906,-120 382.1352,-124.7973 309,-101 299.4869,-97.9046 289.8134,-93.2653 280.9945,-88.3379"/>
<polygon fill="#000000" stroke="#000000" points="282.5522,-85.1939 272.1561,-83.1513 279.0094,-91.2312 282.5522,-85.1939"/>
</g>
<!-- 140219168133192&#45;&gt;140219168133528 -->
<g id="edge46" class="edge">
<title>140219168133192&#45;&gt;140219168133528</title>
<path fill="none" stroke="#000000" d="M362.5952,-433.9522C385.3023,-438.1804 418.2153,-444.3091 443.5803,-449.0322"/>
<polygon fill="#000000" stroke="#000000" points="443.1164,-452.5059 453.5881,-450.8957 444.3979,-445.6242 443.1164,-452.5059"/>
</g>
<!-- 140219168133472&#45;&gt;140219168133528 -->
<g id="edge47" class="edge">
<title>140219168133472&#45;&gt;140219168133528</title>
<path fill="none" stroke="#000000" d="M1296.2933,-446.4346C1253.6572,-453.1182 1167.5208,-465 1094,-465 770,-465 770,-465 770,-465 679.6437,-465 573.4738,-460.5505 518.3989,-457.9087"/>
<polygon fill="#000000" stroke="#000000" points="518.2435,-454.397 508.085,-457.4063 517.9028,-461.3887 518.2435,-454.397"/>
</g>
<!-- 140219167100880&#45;&gt;140219168133528 -->
<g id="edge48" class="edge">
<title>140219167100880&#45;&gt;140219168133528</title>
<path fill="none" stroke="#000000" d="M1688.6656,-596.2933C1653.7727,-588.0098 1590.1871,-575 1535,-575 770,-575 770,-575 770,-575 671.004,-575 566.3268,-514.5589 514.347,-479.8266"/>
<polygon fill="#000000" stroke="#000000" points="516.1066,-476.791 505.8661,-474.0735 512.1769,-482.5839 516.1066,-476.791"/>
</g>
<!-- 140219168874000&#45;&gt;140219168873160 -->
<g id="edge49" class="edge">
<title>140219168874000&#45;&gt;140219168873160</title>
<path fill="none" stroke="#000000" d="M1120.2686,-293.1174C1135.3592,-289.1635 1154.5596,-284.1329 1171.1932,-279.7747"/>
<polygon fill="#000000" stroke="#000000" points="1172.3722,-283.084 1181.1585,-277.1637 1170.5979,-276.3126 1172.3722,-283.084"/>
</g>
<!-- 140219168872824&#45;&gt;140219168873160 -->
<g id="edge50" class="edge">
<title>140219168872824&#45;&gt;140219168873160</title>
<path fill="none" stroke="#000000" d="M940.648,-283.2989C971.0483,-277.11 1022.3338,-267.6252 1067,-264 1090.9213,-262.0585 1097.0141,-263.1786 1121,-264 1137.4447,-264.5632 1155.5973,-265.72 1171.0857,-266.8689"/>
<polygon fill="#000000" stroke="#000000" points="1171.0904,-270.3795 1181.3291,-267.6557 1171.6265,-263.4001 1171.0904,-270.3795"/>
</g>
<!-- 140219167099592&#45;&gt;140219167097688 -->
<g id="edge51" class="edge">
<title>140219167099592&#45;&gt;140219167097688</title>
<path fill="none" stroke="#000000" d="M653,-630C704,-630 818,-630 914,-630 914,-630 914,-630 1004,-630 1062.4622,-630 1130.3254,-630 1171.3075,-630"/>
<polygon fill="#000000" stroke="#000000" points="1171.3749,-633.5001 1181.3749,-630 1171.3748,-626.5001 1171.3749,-633.5001"/>
</g>
<!-- 140219168873048&#45;&gt;140219167097688 -->
<g id="edge52" class="edge">
<title>140219168873048&#45;&gt;140219167097688</title>
<path fill="none" stroke="#000000" d="M1113.6833,-538.9097C1132.5895,-557.0729 1161.282,-584.6378 1182.1518,-604.6873"/>
<polygon fill="#000000" stroke="#000000" points="1179.8179,-607.2986 1189.4541,-611.7026 1184.6675,-602.2506 1179.8179,-607.2986"/>
</g>
</g>
</svg>
