<?xml version="1.0" encoding="UTF-8" standalone="no"?>
<!DOCTYPE svg PUBLIC "-//W3C//DTD SVG 1.1//EN"
 "http://www.w3.org/Graphics/SVG/1.1/DTD/svg11.dtd">
<!-- Generated by graphviz version 2.40.1 (20161225.0304)
 -->
<!-- Title: imdf_net_1585321102.7369518 Pages: 1 -->
<svg width="1223pt" height="578pt"
 viewBox="0.00 0.00 1223.00 578.00" xmlns="http://www.w3.org/2000/svg" xmlns:xlink="http://www.w3.org/1999/xlink">
<g id="graph0" class="graph" transform="scale(1 1) rotate(0) translate(4 574)">
<title>imdf_net_1585321102.7369518</title>
<!-- 140531495421824 -->
<g id="node1" class="node">
<title>140531495421824</title>
<polygon fill="none" stroke="#000000" points="93,-102 0,-102 0,-66 93,-66 93,-102"/>
<text text-anchor="middle" x="46.5" y="-80.3" font-family="Times,serif" font-size="14.00" fill="#000000">FinancialUtils</text>
</g>
<!-- 140531497344640 -->
<g id="node26" class="node">
<title>140531497344640</title>
<ellipse fill="none" stroke="#000000" cx="156" cy="-131" rx="27" ry="27"/>
<text text-anchor="middle" x="156" y="-127.3" font-family="Times,serif" font-size="14.00" fill="#000000">p_8</text>
</g>
<!-- 140531495421824&#45;&gt;140531497344640 -->
<g id="edge4" class="edge">
<title>140531495421824&#45;&gt;140531497344640</title>
<path fill="none" stroke="#000000" d="M88.5224,-102.037C99.5123,-106.7541 111.2265,-111.7822 121.7575,-116.3023"/>
<polygon fill="#000000" stroke="#000000" points="120.4717,-119.5591 131.0414,-120.2872 123.2327,-113.1266 120.4717,-119.5591"/>
</g>
<!-- 140531495421880 -->
<g id="node2" class="node">
<title>140531495421880</title>
<polygon fill="none" stroke="#000000" points="1160,-176 1106,-176 1106,-140 1160,-140 1160,-176"/>
<text text-anchor="middle" x="1133" y="-154.3" font-family="Times,serif" font-size="14.00" fill="#000000">Log</text>
</g>
<!-- 140531495421880&#45;&gt;140531497344640 -->
<g id="edge5" class="edge">
<title>140531495421880&#45;&gt;140531497344640</title>
<path fill="none" stroke="#000000" d="M1116.6981,-176.1958C1079.7391,-215.3337 985.0262,-304 885.5,-304 336,-304 336,-304 336,-304 256.4328,-304 198.4203,-215.0411 171.9639,-164.7058"/>
<polygon fill="#000000" stroke="#000000" points="175.0687,-163.0898 167.3931,-155.7867 168.8391,-166.2824 175.0687,-163.0898"/>
</g>
<!-- 140531495421152 -->
<g id="node3" class="node">
<title>140531495421152</title>
<polygon fill="none" stroke="#000000" points="1215,-385 1051,-385 1051,-349 1215,-349 1215,-385"/>
<text text-anchor="middle" x="1133" y="-363.3" font-family="Times,serif" font-size="14.00" fill="#000000">MarketSummaryDataBean</text>
</g>
<!-- 140531495421152&#45;&gt;140531497344640 -->
<g id="edge7" class="edge">
<title>140531495421152&#45;&gt;140531497344640</title>
<path fill="none" stroke="#000000" d="M1114.2631,-385.0759C1075.1719,-420.7964 980.6296,-497 885.5,-497 336,-497 336,-497 336,-497 262.9706,-497 190.7686,-259.3909 165.4718,-167.0715"/>
<polygon fill="#000000" stroke="#000000" points="168.823,-166.0567 162.827,-157.3218 162.0672,-167.8894 168.823,-166.0567"/>
</g>
<!-- 140531495420704 -->
<g id="node4" class="node">
<title>140531495420704</title>
<polygon fill="none" stroke="#000000" points="1214,-122 1052,-122 1052,-86 1214,-86 1214,-122"/>
<text text-anchor="middle" x="1133" y="-100.3" font-family="Times,serif" font-size="14.00" fill="#000000">MarketSummarySingleton</text>
</g>
<!-- 140531495420704&#45;&gt;140531497344640 -->
<g id="edge1" class="edge">
<title>140531495420704&#45;&gt;140531497344640</title>
<path fill="none" stroke="#000000" d="M1051.8865,-90.1641C1003.693,-83.1098 941.2833,-76 885.5,-76 336,-76 336,-76 336,-76 282.984,-76 224.8679,-98.0918 189.4111,-114.273"/>
<polygon fill="#000000" stroke="#000000" points="187.6109,-111.251 180.0345,-118.6569 190.5757,-117.5921 187.6109,-111.251"/>
</g>
<!-- 140531497344472 -->
<g id="node5" class="node">
<title>140531497344472</title>
<polygon fill="none" stroke="#000000" points="515,-460 399,-460 399,-424 515,-424 515,-460"/>
<text text-anchor="middle" x="457" y="-438.3" font-family="Times,serif" font-size="14.00" fill="#000000">PingServletWriter</text>
</g>
<!-- 140531496576896 -->
<g id="node22" class="node">
<title>140531496576896</title>
<ellipse fill="none" stroke="#000000" cx="578" cy="-442" rx="27" ry="27"/>
<text text-anchor="middle" x="578" y="-438.3" font-family="Times,serif" font-size="14.00" fill="#000000">p_4</text>
</g>
<!-- 140531497344472&#45;&gt;140531496576896 -->
<g id="edge3" class="edge">
<title>140531497344472&#45;&gt;140531496576896</title>
<path fill="none" stroke="#000000" d="M515.0192,-442C523.7066,-442 532.4624,-442 540.5684,-442"/>
<polygon fill="#000000" stroke="#000000" points="540.7899,-445.5001 550.7899,-442 540.7898,-438.5001 540.7899,-445.5001"/>
</g>
<!-- 140531497089680 -->
<g id="node6" class="node">
<title>140531497089680</title>
<polygon fill="none" stroke="#000000" points="508.5,-222 405.5,-222 405.5,-186 508.5,-186 508.5,-222"/>
<text text-anchor="middle" x="457" y="-200.3" font-family="Times,serif" font-size="14.00" fill="#000000">QuoteDataBean</text>
</g>
<!-- 140531497344808 -->
<g id="node20" class="node">
<title>140531497344808</title>
<ellipse fill="none" stroke="#000000" cx="578" cy="-223" rx="27" ry="27"/>
<text text-anchor="middle" x="578" y="-219.3" font-family="Times,serif" font-size="14.00" fill="#000000">p_10</text>
</g>
<!-- 140531497089680&#45;&gt;140531497344808 -->
<g id="edge2" class="edge">
<title>140531497089680&#45;&gt;140531497344808</title>
<path fill="none" stroke="#000000" d="M508.6659,-212.1128C519.5353,-213.8196 530.7936,-215.5874 540.9964,-217.1895"/>
<polygon fill="#000000" stroke="#000000" points="540.7642,-220.6959 551.1861,-218.7895 541.8501,-213.7806 540.7642,-220.6959"/>
</g>
<!-- 140531496577960 -->
<g id="node7" class="node">
<title>140531496577960</title>
<polygon fill="none" stroke="#000000" points="707.5,-460 653.5,-460 653.5,-424 707.5,-424 707.5,-460"/>
<text text-anchor="middle" x="680.5" y="-438.3" font-family="Times,serif" font-size="14.00" fill="#000000">Root</text>
</g>
<!-- 140531495544032 -->
<g id="node28" class="node">
<title>140531495544032</title>
<ellipse fill="#ffa500" stroke="#000000" cx="783" cy="-442" rx="27" ry="27"/>
</g>
<!-- 140531496577960&#45;&gt;140531495544032 -->
<g id="edge6" class="edge">
<title>140531496577960&#45;&gt;140531495544032</title>
<path fill="none" stroke="#000000" d="M707.699,-442C719.2828,-442 732.9866,-442 745.5073,-442"/>
<polygon fill="#000000" stroke="#000000" points="745.6739,-445.5001 755.6739,-442 745.6739,-438.5001 745.6739,-445.5001"/>
</g>
<!-- 140531495423168 -->
<g id="node8" class="node">
<title>140531495423168</title>
<polygon fill="none" stroke="#000000" points="1176,-57 1090,-57 1090,-21 1176,-21 1176,-57"/>
<text text-anchor="middle" x="1133" y="-35.3" font-family="Times,serif" font-size="14.00" fill="#000000">TradeConfig</text>
</g>
<!-- 140531495423168&#45;&gt;140531497344640 -->
<g id="edge8" class="edge">
<title>140531495423168&#45;&gt;140531497344640</title>
<path fill="none" stroke="#000000" d="M1089.9559,-28.0325C1040.8359,-16.4973 957.9257,0 885.5,0 336,0 336,0 336,0 268.088,0 208.6028,-61.7147 177.9702,-100.4258"/>
<polygon fill="#000000" stroke="#000000" points="174.8633,-98.7228 171.5239,-108.7776 180.4047,-102.9999 174.8633,-98.7228"/>
</g>
<!-- 140531496576840 -->
<g id="node9" class="node">
<title>140531496576840</title>
<polygon fill="none" stroke="#000000" points="720,-387 641,-387 641,-351 720,-351 720,-387"/>
<text text-anchor="middle" x="680.5" y="-365.3" font-family="Times,serif" font-size="14.00" fill="#000000">init_loop_2</text>
</g>
<!-- 140531496577792 -->
<g id="node23" class="node">
<title>140531496577792</title>
<ellipse fill="none" stroke="#000000" cx="783" cy="-223" rx="27" ry="27"/>
<text text-anchor="middle" x="783" y="-219.3" font-family="Times,serif" font-size="14.00" fill="#000000">p_5</text>
</g>
<!-- 140531496576840&#45;&gt;140531496577792 -->
<g id="edge9" class="edge">
<title>140531496576840&#45;&gt;140531496577792</title>
<path fill="none" stroke="#000000" d="M693.2744,-350.8042C710.37,-326.4535 740.9258,-282.9301 761.5747,-253.518"/>
<polygon fill="#000000" stroke="#000000" points="764.4962,-255.4479 767.3776,-245.2524 758.7671,-251.4258 764.4962,-255.4479"/>
</g>
<!-- 140531497344528 -->
<g id="node10" class="node">
<title>140531497344528</title>
<polygon fill="none" stroke="#000000" points="925,-241 846,-241 846,-205 925,-205 925,-241"/>
<text text-anchor="middle" x="885.5" y="-219.3" font-family="Times,serif" font-size="14.00" fill="#000000">init_loop_4</text>
</g>
<!-- 140531497344248 -->
<g id="node25" class="node">
<title>140531497344248</title>
<ellipse fill="none" stroke="#000000" cx="988" cy="-131" rx="27" ry="27"/>
<text text-anchor="middle" x="988" y="-127.3" font-family="Times,serif" font-size="14.00" fill="#000000">p_7</text>
</g>
<!-- 140531497344528&#45;&gt;140531497344248 -->
<g id="edge10" class="edge">
<title>140531497344528&#45;&gt;140531497344248</title>
<path fill="none" stroke="#000000" d="M913.6437,-204.7999C917.5522,-201.9761 921.4431,-198.9978 925,-196 938.4061,-184.7011 952.0923,-170.9057 963.2684,-158.9356"/>
<polygon fill="#000000" stroke="#000000" points="966.027,-161.1066 970.222,-151.3776 960.8755,-156.367 966.027,-161.1066"/>
</g>
<!-- 140531497343632 -->
<g id="node11" class="node">
<title>140531497343632</title>
<polygon fill="none" stroke="#000000" points="707.5,-241 653.5,-241 653.5,-205 707.5,-205 707.5,-241"/>
<text text-anchor="middle" x="680.5" y="-219.3" font-family="Times,serif" font-size="14.00" fill="#000000">loop_3</text>
</g>
<!-- 140531497343632&#45;&gt;140531496577792 -->
<g id="edge11" class="edge">
<title>140531497343632&#45;&gt;140531496577792</title>
<path fill="none" stroke="#000000" d="M707.699,-223C719.2828,-223 732.9866,-223 745.5073,-223"/>
<polygon fill="#000000" stroke="#000000" points="745.6739,-226.5001 755.6739,-223 745.6739,-219.5001 745.6739,-226.5001"/>
</g>
<!-- 140531497344584 -->
<g id="node12" class="node">
<title>140531497344584</title>
<polygon fill="none" stroke="#000000" points="605,-140 551,-140 551,-104 605,-104 605,-140"/>
<text text-anchor="middle" x="578" y="-118.3" font-family="Times,serif" font-size="14.00" fill="#000000">loop_5</text>
</g>
<!-- 140531497344584&#45;&gt;140531497344248 -->
<g id="edge12" class="edge">
<title>140531497344584&#45;&gt;140531497344248</title>
<path fill="none" stroke="#000000" d="M605.2188,-122.5975C676.5094,-124.1624 868.8,-128.3834 950.4791,-130.1764"/>
<polygon fill="#000000" stroke="#000000" points="950.7164,-133.6823 960.7909,-130.4027 950.8701,-126.684 950.7164,-133.6823"/>
</g>
<!-- 140531497917408 -->
<g id="node13" class="node">
<title>140531497917408</title>
<polygon fill="none" stroke="#000000" points="486.5,-368 427.5,-368 427.5,-332 486.5,-332 486.5,-368"/>
<text text-anchor="middle" x="457" y="-346.3" font-family="Times,serif" font-size="14.00" fill="#000000">skip_10</text>
</g>
<!-- 140531497917408&#45;&gt;140531496576896 -->
<g id="edge30" class="edge">
<title>140531497917408&#45;&gt;140531496576896</title>
<path fill="none" stroke="#000000" d="M480.9057,-368.1762C500.1552,-382.8122 527.3218,-403.4678 548.0256,-419.2096"/>
<polygon fill="#000000" stroke="#000000" points="546.0988,-422.1413 556.1776,-425.4077 550.3356,-416.5691 546.0988,-422.1413"/>
</g>
<!-- 140531499531904 -->
<g id="node14" class="node">
<title>140531499531904</title>
<polygon fill="none" stroke="#000000" points="273,-149 219,-149 219,-113 273,-113 273,-149"/>
<text text-anchor="middle" x="246" y="-127.3" font-family="Times,serif" font-size="14.00" fill="#000000">skip_6</text>
</g>
<!-- 140531495421600 -->
<g id="node27" class="node">
<title>140531495421600</title>
<ellipse fill="none" stroke="#000000" cx="336" cy="-131" rx="27" ry="27"/>
<text text-anchor="middle" x="336" y="-127.3" font-family="Times,serif" font-size="14.00" fill="#000000">p_9</text>
</g>
<!-- 140531499531904&#45;&gt;140531495421600 -->
<g id="edge31" class="edge">
<title>140531499531904&#45;&gt;140531495421600</title>
<path fill="none" stroke="#000000" d="M273.003,-131C281.0277,-131 289.9665,-131 298.5309,-131"/>
<polygon fill="#000000" stroke="#000000" points="298.7051,-134.5001 308.705,-131 298.705,-127.5001 298.7051,-134.5001"/>
</g>
<!-- 140531497376960 -->
<g id="node15" class="node">
<title>140531497376960</title>
<polygon fill="none" stroke="#000000" points="273,-213 219,-213 219,-177 273,-177 273,-213"/>
<text text-anchor="middle" x="246" y="-191.3" font-family="Times,serif" font-size="14.00" fill="#000000">skip_7</text>
</g>
<!-- 140531497344696 -->
<g id="node24" class="node">
<title>140531497344696</title>
<ellipse fill="none" stroke="#000000" cx="336" cy="-204" rx="27" ry="27"/>
<text text-anchor="middle" x="336" y="-200.3" font-family="Times,serif" font-size="14.00" fill="#000000">p_6</text>
</g>
<!-- 140531497376960&#45;&gt;140531497344696 -->
<g id="edge32" class="edge">
<title>140531497376960&#45;&gt;140531497344696</title>
<path fill="none" stroke="#000000" d="M273.003,-197.7003C281.1903,-198.519 290.3292,-199.4329 299.051,-200.3051"/>
<polygon fill="#000000" stroke="#000000" points="298.7174,-203.7891 309.0161,-201.3016 299.414,-196.8239 298.7174,-203.7891"/>
</g>
<!-- 140531497376736 -->
<g id="node16" class="node">
<title>140531497376736</title>
<polygon fill="none" stroke="#000000" points="912.5,-187 858.5,-187 858.5,-151 912.5,-151 912.5,-187"/>
<text text-anchor="middle" x="885.5" y="-165.3" font-family="Times,serif" font-size="14.00" fill="#000000">skip_8</text>
</g>
<!-- 140531497376736&#45;&gt;140531497344696 -->
<g id="edge33" class="edge">
<title>140531497376736&#45;&gt;140531497344696</title>
<path fill="none" stroke="#000000" d="M858.457,-165.8345C784.0846,-157.8981 570.6133,-140.3022 399,-177 388.9816,-179.1423 378.5764,-182.8974 369.1776,-186.9382"/>
<polygon fill="#000000" stroke="#000000" points="367.4618,-183.8734 359.8057,-191.1969 370.3578,-190.2463 367.4618,-183.8734"/>
</g>
<!-- 140531497915280 -->
<g id="node17" class="node">
<title>140531497915280</title>
<polygon fill="none" stroke="#000000" points="484,-276 430,-276 430,-240 484,-240 484,-276"/>
<text text-anchor="middle" x="457" y="-254.3" font-family="Times,serif" font-size="14.00" fill="#000000">skip_9</text>
</g>
<!-- 140531497915280&#45;&gt;140531497344808 -->
<g id="edge34" class="edge">
<title>140531497915280&#45;&gt;140531497344808</title>
<path fill="none" stroke="#000000" d="M484.1548,-250.1453C501.2039,-245.2137 523.391,-238.796 541.9111,-233.4389"/>
<polygon fill="#000000" stroke="#000000" points="543.1333,-236.729 551.7669,-230.5881 541.1882,-230.0046 543.1333,-236.729"/>
</g>
<!-- 140531495376096 -->
<g id="node18" class="node">
<title>140531495376096</title>
<polygon fill="none" stroke="#000000" points="273,-561 219,-561 219,-525 273,-525 273,-561"/>
<text text-anchor="middle" x="246" y="-539.3" font-family="Times,serif" font-size="14.00" fill="#000000">tau_1</text>
</g>
<!-- 140531495544872 -->
<g id="node21" class="node">
<title>140531495544872</title>
<ellipse fill="none" stroke="#000000" cx="336" cy="-442" rx="27" ry="27"/>
<text text-anchor="middle" x="336" y="-438.3" font-family="Times,serif" font-size="14.00" fill="#000000">p_3</text>
</g>
<!-- 140531495376096&#45;&gt;140531495544872 -->
<g id="edge36" class="edge">
<title>140531495376096&#45;&gt;140531495544872</title>
<path fill="none" stroke="#000000" d="M262.0902,-524.9432C275.6824,-509.6898 295.3769,-487.5881 311.0186,-470.0347"/>
<polygon fill="#000000" stroke="#000000" points="313.8438,-472.1251 317.8836,-462.3306 308.6177,-467.4681 313.8438,-472.1251"/>
</g>
<!-- 140531500685072 -->
<g id="node19" class="node">
<title>140531500685072</title>
<ellipse fill="#00ff00" stroke="#000000" cx="156" cy="-543" rx="27" ry="27"/>
<text text-anchor="middle" x="156" y="-539.3" font-family="Times,serif" font-size="14.00" fill="#000000">1</text>
</g>
<!-- 140531500685072&#45;&gt;140531495376096 -->
<g id="edge35" class="edge">
<title>140531500685072&#45;&gt;140531495376096</title>
<path fill="none" stroke="#000000" d="M183.003,-543C191.0277,-543 199.9665,-543 208.5309,-543"/>
<polygon fill="#000000" stroke="#000000" points="208.7051,-546.5001 218.705,-543 208.705,-539.5001 208.7051,-546.5001"/>
</g>
<!-- 140531497344808&#45;&gt;140531497343632 -->
<g id="edge13" class="edge">
<title>140531497344808&#45;&gt;140531497343632</title>
<path fill="none" stroke="#000000" d="M605.199,-223C616.7828,-223 630.4866,-223 643.0073,-223"/>
<polygon fill="#000000" stroke="#000000" points="643.1739,-226.5001 653.1739,-223 643.1739,-219.5001 643.1739,-226.5001"/>
</g>
<!-- 140531495544872&#45;&gt;140531497344472 -->
<g id="edge14" class="edge">
<title>140531495544872&#45;&gt;140531497344472</title>
<path fill="none" stroke="#000000" d="M363.1548,-442C370.8498,-442 379.5914,-442 388.5701,-442"/>
<polygon fill="#000000" stroke="#000000" points="388.765,-445.5001 398.765,-442 388.7649,-438.5001 388.765,-445.5001"/>
</g>
<!-- 140531495544872&#45;&gt;140531496576840 -->
<g id="edge15" class="edge">
<title>140531495544872&#45;&gt;140531496576840</title>
<path fill="none" stroke="#000000" d="M360.3252,-429.9333C371.8138,-424.6642 385.8614,-418.827 399,-415 478.2219,-391.9245 573.5749,-379.3999 630.4962,-373.4674"/>
<polygon fill="#000000" stroke="#000000" points="631.0695,-376.9273 640.6649,-372.4353 630.3626,-369.9631 631.0695,-376.9273"/>
</g>
<!-- 140531496576896&#45;&gt;140531496577960 -->
<g id="edge16" class="edge">
<title>140531496576896&#45;&gt;140531496577960</title>
<path fill="none" stroke="#000000" d="M605.199,-442C616.7828,-442 630.4866,-442 643.0073,-442"/>
<polygon fill="#000000" stroke="#000000" points="643.1739,-445.5001 653.1739,-442 643.1739,-438.5001 643.1739,-445.5001"/>
</g>
<!-- 140531496577792&#45;&gt;140531497344528 -->
<g id="edge17" class="edge">
<title>140531496577792&#45;&gt;140531497344528</title>
<path fill="none" stroke="#000000" d="M810.199,-223C818.0426,-223 826.8582,-223 835.6204,-223"/>
<polygon fill="#000000" stroke="#000000" points="835.8204,-226.5001 845.8204,-223 835.8204,-219.5001 835.8204,-226.5001"/>
</g>
<!-- 140531496577792&#45;&gt;140531497376736 -->
<g id="edge18" class="edge">
<title>140531496577792&#45;&gt;140531497376736</title>
<path fill="none" stroke="#000000" d="M807.0317,-210.3394C819.6519,-203.6907 835.3742,-195.4078 849.4241,-188.0058"/>
<polygon fill="#000000" stroke="#000000" points="851.1501,-191.0526 858.366,-183.295 847.8874,-184.8595 851.1501,-191.0526"/>
</g>
<!-- 140531497344696&#45;&gt;140531497089680 -->
<g id="edge19" class="edge">
<title>140531497344696&#45;&gt;140531497089680</title>
<path fill="none" stroke="#000000" d="M363.1548,-204C372.6505,-204 383.74,-204 394.9021,-204"/>
<polygon fill="#000000" stroke="#000000" points="395.1298,-207.5001 405.1297,-204 395.1297,-200.5001 395.1298,-207.5001"/>
</g>
<!-- 140531497344696&#45;&gt;140531497917408 -->
<g id="edge20" class="edge">
<title>140531497344696&#45;&gt;140531497917408</title>
<path fill="none" stroke="#000000" d="M352.1933,-225.6297C364.6951,-242.1275 382.5756,-265.293 399,-285 409.9356,-298.1212 422.5107,-312.3158 433.1503,-324.083"/>
<polygon fill="#000000" stroke="#000000" points="430.847,-326.7527 440.1631,-331.7987 436.0272,-322.0445 430.847,-326.7527"/>
</g>
<!-- 140531497344696&#45;&gt;140531497915280 -->
<g id="edge21" class="edge">
<title>140531497344696&#45;&gt;140531497915280</title>
<path fill="none" stroke="#000000" d="M360.7781,-215.058C377.931,-222.713 401.0524,-233.0317 420.3312,-241.6354"/>
<polygon fill="#000000" stroke="#000000" points="419.1679,-244.9489 429.7262,-245.8282 422.0207,-238.5566 419.1679,-244.9489"/>
</g>
<!-- 140531497344248&#45;&gt;140531495421824 -->
<g id="edge23" class="edge">
<title>140531497344248&#45;&gt;140531495421824</title>
<path fill="none" stroke="#000000" d="M966.7048,-113.9424C930.9712,-87.0941 855.6914,-38 783,-38 246,-38 246,-38 246,-38 196.849,-38 142.588,-51.4216 103.0785,-63.7652"/>
<polygon fill="#000000" stroke="#000000" points="101.8226,-60.4921 93.3636,-66.8713 103.9545,-67.1596 101.8226,-60.4921"/>
</g>
<!-- 140531497344248&#45;&gt;140531495421880 -->
<g id="edge24" class="edge">
<title>140531497344248&#45;&gt;140531495421880</title>
<path fill="none" stroke="#000000" d="M1014.5952,-135.9522C1037.3023,-140.1804 1070.2153,-146.3091 1095.5803,-151.0322"/>
<polygon fill="#000000" stroke="#000000" points="1095.1164,-154.5059 1105.5881,-152.8957 1096.3979,-147.6242 1095.1164,-154.5059"/>
</g>
<!-- 140531497344248&#45;&gt;140531495421152 -->
<g id="edge25" class="edge">
<title>140531497344248&#45;&gt;140531495421152</title>
<path fill="none" stroke="#000000" d="M1002.1672,-154.0584C1029.1574,-197.9872 1087.8107,-293.4505 1116.5121,-340.1645"/>
<polygon fill="#000000" stroke="#000000" points="1113.6177,-342.1395 1121.8348,-348.8276 1119.5819,-338.475 1113.6177,-342.1395"/>
</g>
<!-- 140531497344248&#45;&gt;140531495420704 -->
<g id="edge22" class="edge">
<title>140531497344248&#45;&gt;140531495420704</title>
<path fill="none" stroke="#000000" d="M1014.5952,-126.0478C1022.6893,-124.5406 1032.0802,-122.792 1041.9637,-120.9516"/>
<polygon fill="#000000" stroke="#000000" points="1042.7913,-124.3577 1051.9816,-119.0862 1041.5099,-117.476 1042.7913,-124.3577"/>
</g>
<!-- 140531497344248&#45;&gt;140531495423168 -->
<g id="edge26" class="edge">
<title>140531497344248&#45;&gt;140531495423168</title>
<path fill="none" stroke="#000000" d="M1007.3131,-111.9919C1019.2467,-100.8931 1035.2466,-87.1261 1051,-77 1060.1959,-71.089 1070.46,-65.5808 1080.5298,-60.694"/>
<polygon fill="#000000" stroke="#000000" points="1082.1273,-63.8104 1089.6866,-56.387 1079.1479,-57.4761 1082.1273,-63.8104"/>
</g>
<!-- 140531497344640&#45;&gt;140531499531904 -->
<g id="edge27" class="edge">
<title>140531497344640&#45;&gt;140531499531904</title>
<path fill="none" stroke="#000000" d="M183.003,-131C191.0277,-131 199.9665,-131 208.5309,-131"/>
<polygon fill="#000000" stroke="#000000" points="208.7051,-134.5001 218.705,-131 208.705,-127.5001 208.7051,-134.5001"/>
</g>
<!-- 140531497344640&#45;&gt;140531497376960 -->
<g id="edge28" class="edge">
<title>140531497344640&#45;&gt;140531497376960</title>
<path fill="none" stroke="#000000" d="M178.2472,-146.8202C188.4514,-154.0765 200.7738,-162.8391 212.0965,-170.8908"/>
<polygon fill="#000000" stroke="#000000" points="210.3306,-173.9298 220.5086,-176.8728 214.3873,-168.2251 210.3306,-173.9298"/>
</g>
<!-- 140531495421600&#45;&gt;140531497344584 -->
<g id="edge29" class="edge">
<title>140531495421600&#45;&gt;140531497344584</title>
<path fill="none" stroke="#000000" d="M363.2901,-129.9851C406.706,-128.3704 491.5955,-125.2134 540.6264,-123.3899"/>
<polygon fill="#000000" stroke="#000000" points="540.9467,-126.8805 550.8097,-123.0112 540.6865,-119.8854 540.9467,-126.8805"/>
</g>
</g>
</svg>
