<?xml version="1.0" encoding="UTF-8" standalone="no"?>
<!DOCTYPE svg PUBLIC "-//W3C//DTD SVG 1.1//EN"
 "http://www.w3.org/Graphics/SVG/1.1/DTD/svg11.dtd">
<!-- Generated by graphviz version 2.40.1 (20161225.0304)
 -->
<!-- Title: alpha_plus_net_1585315461.4888306 Pages: 1 -->
<svg width="728pt" height="1628pt"
 viewBox="0.00 0.00 728.00 1628.00" xmlns="http://www.w3.org/2000/svg" xmlns:xlink="http://www.w3.org/1999/xlink">
<g id="graph0" class="graph" transform="scale(1 1) rotate(0) translate(4 1624)">
<title>alpha_plus_net_1585315461.4888306</title>
<!-- 140178132616248 -->
<g id="node1" class="node">
<title>140178132616248</title>
<polygon fill="none" stroke="#000000" points="186.5,-36 61.5,-36 61.5,0 186.5,0 186.5,-36"/>
<text text-anchor="middle" x="124" y="-14.3" font-family="Times,serif" font-size="14.00" fill="#000000">Log:setActionTrace</text>
</g>
<!-- 140178131720120 -->
<g id="node2" class="node">
<title>140178131720120</title>
<polygon fill="none" stroke="#000000" points="168,-90 80,-90 80,-54 168,-54 168,-90"/>
<text text-anchor="middle" x="124" y="-68.3" font-family="Times,serif" font-size="14.00" fill="#000000">Log:setTrace</text>
</g>
<!-- 140178131719112 -->
<g id="node3" class="node">
<title>140178131719112</title>
<polygon fill="none" stroke="#000000" points="630,-153 576,-153 576,-117 630,-117 630,-153"/>
<text text-anchor="middle" x="603" y="-131.3" font-family="Times,serif" font-size="14.00" fill="#000000">Root</text>
</g>
<!-- 140178131720008 -->
<g id="node35" class="node">
<title>140178131720008</title>
<ellipse fill="#ffa500" stroke="#000000" cx="693" cy="-135" rx="27" ry="27"/>
</g>
<!-- 140178131719112&#45;&gt;140178131720008 -->
<g id="edge4" class="edge">
<title>140178131719112&#45;&gt;140178131720008</title>
<path fill="none" stroke="#000000" d="M630.003,-135C638.0277,-135 646.9665,-135 655.5309,-135"/>
<polygon fill="#000000" stroke="#000000" points="655.7051,-138.5001 665.705,-135 655.705,-131.5001 655.7051,-138.5001"/>
</g>
<!-- 140178132617312 -->
<g id="node4" class="node">
<title>140178132617312</title>
<polygon fill="none" stroke="#000000" points="210.5,-216 37.5,-216 37.5,-180 210.5,-180 210.5,-216"/>
<text text-anchor="middle" x="124" y="-194.3" font-family="Times,serif" font-size="14.00" fill="#000000">TradeConfig:getActionTrace</text>
</g>
<!-- 140178131719000 -->
<g id="node5" class="node">
<title>140178131719000</title>
<polygon fill="none" stroke="#000000" points="230,-270 18,-270 18,-234 230,-234 230,-270"/>
<text text-anchor="middle" x="124" y="-248.3" font-family="Times,serif" font-size="14.00" fill="#000000">TradeConfig:getDisplayOrderAlerts</text>
</g>
<!-- 140178131718552 -->
<g id="node6" class="node">
<title>140178131718552</title>
<polygon fill="none" stroke="#000000" points="202.5,-324 45.5,-324 45.5,-288 202.5,-288 202.5,-324"/>
<text text-anchor="middle" x="124" y="-302.3" font-family="Times,serif" font-size="14.00" fill="#000000">TradeConfig:getLongRun</text>
</g>
<!-- 140178131718272 -->
<g id="node7" class="node">
<title>140178131718272</title>
<polygon fill="none" stroke="#000000" points="223,-378 25,-378 25,-342 223,-342 223,-378"/>
<text text-anchor="middle" x="124" y="-356.3" font-family="Times,serif" font-size="14.00" fill="#000000">TradeConfig:getMAX_QUOTES</text>
</g>
<!-- 140178131718720 -->
<g id="node8" class="node">
<title>140178131718720</title>
<polygon fill="none" stroke="#000000" points="217.5,-432 30.5,-432 30.5,-396 217.5,-396 217.5,-432"/>
<text text-anchor="middle" x="124" y="-410.3" font-family="Times,serif" font-size="14.00" fill="#000000">TradeConfig:getMAX_USERS</text>
</g>
<!-- 140178131718776 -->
<g id="node9" class="node">
<title>140178131718776</title>
<polygon fill="none" stroke="#000000" points="245,-486 3,-486 3,-450 245,-450 245,-486"/>
<text text-anchor="middle" x="124" y="-464.3" font-family="Times,serif" font-size="14.00" fill="#000000">TradeConfig:getMarketSummaryInterval</text>
</g>
<!-- 140178131718496 -->
<g id="node10" class="node">
<title>140178131718496</title>
<polygon fill="none" stroke="#000000" points="190,-540 58,-540 58,-504 190,-504 190,-540"/>
<text text-anchor="middle" x="124" y="-518.3" font-family="Times,serif" font-size="14.00" fill="#000000">TradeConfig:getPage</text>
</g>
<!-- 140178132617200 -->
<g id="node11" class="node">
<title>140178132617200</title>
<polygon fill="none" stroke="#000000" points="247,-594 1,-594 1,-558 247,-558 247,-594"/>
<text text-anchor="middle" x="124" y="-572.3" font-family="Times,serif" font-size="14.00" fill="#000000">TradeConfig:getPercentSentToWebsocket</text>
</g>
<!-- 140178131719168 -->
<g id="node12" class="node">
<title>140178131719168</title>
<polygon fill="none" stroke="#000000" points="216,-648 32,-648 32,-612 216,-612 216,-648"/>
<text text-anchor="middle" x="124" y="-626.3" font-family="Times,serif" font-size="14.00" fill="#000000">TradeConfig:getPrimIterations</text>
</g>
<!-- 140178131718440 -->
<g id="node13" class="node">
<title>140178131718440</title>
<polygon fill="none" stroke="#000000" points="248,-702 0,-702 0,-666 248,-666 248,-702"/>
<text text-anchor="middle" x="124" y="-680.3" font-family="Times,serif" font-size="14.00" fill="#000000">TradeConfig:getPublishQuotePriceChange</text>
</g>
<!-- 140178131720512 -->
<g id="node14" class="node">
<title>140178131720512</title>
<polygon fill="none" stroke="#000000" points="192.5,-756 55.5,-756 55.5,-720 192.5,-720 192.5,-756"/>
<text text-anchor="middle" x="124" y="-734.3" font-family="Times,serif" font-size="14.00" fill="#000000">TradeConfig:getTrace</text>
</g>
<!-- 140178131720400 -->
<g id="node15" class="node">
<title>140178131720400</title>
<polygon fill="none" stroke="#000000" points="210,-810 38,-810 38,-774 210,-774 210,-810"/>
<text text-anchor="middle" x="124" y="-788.3" font-family="Times,serif" font-size="14.00" fill="#000000">TradeConfig:setActionTrace</text>
</g>
<!-- 140178132615464 -->
<g id="node16" class="node">
<title>140178132615464</title>
<polygon fill="none" stroke="#000000" points="229.5,-864 18.5,-864 18.5,-828 229.5,-828 229.5,-864"/>
<text text-anchor="middle" x="124" y="-842.3" font-family="Times,serif" font-size="14.00" fill="#000000">TradeConfig:setDisplayOrderAlerts</text>
</g>
<!-- 140178131718608 -->
<g id="node17" class="node">
<title>140178131718608</title>
<polygon fill="none" stroke="#000000" points="201.5,-918 46.5,-918 46.5,-882 201.5,-882 201.5,-918"/>
<text text-anchor="middle" x="124" y="-896.3" font-family="Times,serif" font-size="14.00" fill="#000000">TradeConfig:setLongRun</text>
</g>
<!-- 140178131718832 -->
<g id="node18" class="node">
<title>140178131718832</title>
<polygon fill="none" stroke="#000000" points="222.5,-972 25.5,-972 25.5,-936 222.5,-936 222.5,-972"/>
<text text-anchor="middle" x="124" y="-950.3" font-family="Times,serif" font-size="14.00" fill="#000000">TradeConfig:setMAX_QUOTES</text>
</g>
<!-- 140178131718328 -->
<g id="node19" class="node">
<title>140178131718328</title>
<polygon fill="none" stroke="#000000" points="216.5,-1026 31.5,-1026 31.5,-990 216.5,-990 216.5,-1026"/>
<text text-anchor="middle" x="124" y="-1004.3" font-family="Times,serif" font-size="14.00" fill="#000000">TradeConfig:setMAX_USERS</text>
</g>
<!-- 140178131719280 -->
<g id="node20" class="node">
<title>140178131719280</title>
<polygon fill="none" stroke="#000000" points="244,-1080 4,-1080 4,-1044 244,-1044 244,-1080"/>
<text text-anchor="middle" x="124" y="-1058.3" font-family="Times,serif" font-size="14.00" fill="#000000">TradeConfig:setMarketSummaryInterval</text>
</g>
<!-- 140178131718944 -->
<g id="node21" class="node">
<title>140178131718944</title>
<polygon fill="none" stroke="#000000" points="237.5,-1134 10.5,-1134 10.5,-1098 237.5,-1098 237.5,-1134"/>
<text text-anchor="middle" x="124" y="-1112.3" font-family="Times,serif" font-size="14.00" fill="#000000">TradeConfig:setOrderProcessingMode</text>
</g>
<!-- 140178131718664 -->
<g id="node22" class="node">
<title>140178131718664</title>
<polygon fill="none" stroke="#000000" points="246.5,-1188 1.5,-1188 1.5,-1152 246.5,-1152 246.5,-1188"/>
<text text-anchor="middle" x="124" y="-1166.3" font-family="Times,serif" font-size="14.00" fill="#000000">TradeConfig:setPercentSentToWebsocket</text>
</g>
<!-- 140178132617704 -->
<g id="node23" class="node">
<title>140178132617704</title>
<polygon fill="none" stroke="#000000" points="215,-1242 33,-1242 33,-1206 215,-1206 215,-1242"/>
<text text-anchor="middle" x="124" y="-1220.3" font-family="Times,serif" font-size="14.00" fill="#000000">TradeConfig:setPrimIterations</text>
</g>
<!-- 140178132615800 -->
<g id="node24" class="node">
<title>140178132615800</title>
<polygon fill="none" stroke="#000000" points="247.5,-1296 .5,-1296 .5,-1260 247.5,-1260 247.5,-1296"/>
<text text-anchor="middle" x="124" y="-1274.3" font-family="Times,serif" font-size="14.00" fill="#000000">TradeConfig:setPublishQuotePriceChange</text>
</g>
<!-- 140178131720064 -->
<g id="node25" class="node">
<title>140178131720064</title>
<polygon fill="none" stroke="#000000" points="218,-1350 30,-1350 30,-1314 218,-1314 218,-1350"/>
<text text-anchor="middle" x="124" y="-1328.3" font-family="Times,serif" font-size="14.00" fill="#000000">TradeConfig:setRunTimeMode</text>
</g>
<!-- 140178132617984 -->
<g id="node26" class="node">
<title>140178132617984</title>
<polygon fill="none" stroke="#000000" points="191.5,-1404 56.5,-1404 56.5,-1368 191.5,-1368 191.5,-1404"/>
<text text-anchor="middle" x="124" y="-1382.3" font-family="Times,serif" font-size="14.00" fill="#000000">TradeConfig:setTrace</text>
</g>
<!-- 140178131718888 -->
<g id="node27" class="node">
<title>140178131718888</title>
<polygon fill="none" stroke="#000000" points="213.5,-1458 34.5,-1458 34.5,-1422 213.5,-1422 213.5,-1458"/>
<text text-anchor="middle" x="124" y="-1436.3" font-family="Times,serif" font-size="14.00" fill="#000000">TradeConfig:setWebInterface</text>
</g>
<!-- 140178131719952 -->
<g id="node28" class="node">
<title>140178131719952</title>
<polygon fill="none" stroke="#000000" points="234.5,-1512 13.5,-1512 13.5,-1476 234.5,-1476 234.5,-1512"/>
<text text-anchor="middle" x="124" y="-1490.3" font-family="Times,serif" font-size="14.00" fill="#000000">TradeConfig:useRemoteEJBInterface</text>
</g>
<!-- 140178131719896 -->
<g id="node29" class="node">
<title>140178131719896</title>
<polygon fill="none" stroke="#000000" points="234.5,-1566 13.5,-1566 13.5,-1530 234.5,-1530 234.5,-1566"/>
<text text-anchor="middle" x="124" y="-1544.3" font-family="Times,serif" font-size="14.00" fill="#000000">TradeConfigServlet:doConfigDisplay</text>
</g>
<!-- 140178131718216 -->
<g id="node30" class="node">
<title>140178131718216</title>
<polygon fill="none" stroke="#000000" points="233,-1620 15,-1620 15,-1584 233,-1584 233,-1620"/>
<text text-anchor="middle" x="124" y="-1598.3" font-family="Times,serif" font-size="14.00" fill="#000000">TradeConfigServlet:doConfigUpdate</text>
</g>
<!-- 140178132617088 -->
<g id="node31" class="node">
<title>140178132617088</title>
<polygon fill="none" stroke="#000000" points="440,-180 294,-180 294,-144 440,-144 440,-180"/>
<text text-anchor="middle" x="367" y="-158.3" font-family="Times,serif" font-size="14.00" fill="#000000">TradeConfigServlet:init</text>
</g>
<!-- 140178132618600 -->
<g id="node34" class="node">
<title>140178132618600</title>
<ellipse fill="none" stroke="#000000" cx="513" cy="-135" rx="27" ry="27"/>
<text text-anchor="middle" x="513" y="-131.3" font-family="Times,serif" font-size="14.00" fill="#000000">({&#39;TradeConfigServlet:init&#39;, &#39;TradeConfigServlet:service&#39;}, {&#39;Root&#39;})</text>
</g>
<!-- 140178132617088&#45;&gt;140178132618600 -->
<g id="edge5" class="edge">
<title>140178132617088&#45;&gt;140178132618600</title>
<path fill="none" stroke="#000000" d="M440.4277,-148.4209C452.9121,-146.1121 465.3798,-143.8065 476.3702,-141.774"/>
<polygon fill="#000000" stroke="#000000" points="477.2102,-145.1781 486.407,-139.9179 475.9372,-138.2948 477.2102,-145.1781"/>
</g>
<!-- 140178131720176 -->
<g id="node32" class="node">
<title>140178131720176</title>
<polygon fill="none" stroke="#000000" points="450,-126 284,-126 284,-90 450,-90 450,-126"/>
<text text-anchor="middle" x="367" y="-104.3" font-family="Times,serif" font-size="14.00" fill="#000000">TradeConfigServlet:service</text>
</g>
<!-- 140178131720176&#45;&gt;140178132618600 -->
<g id="edge6" class="edge">
<title>140178131720176&#45;&gt;140178132618600</title>
<path fill="none" stroke="#000000" d="M450.2355,-123.3929C459.421,-125.0916 468.3858,-126.7494 476.5328,-128.2561"/>
<polygon fill="#000000" stroke="#000000" points="475.9002,-131.6983 486.3699,-130.0753 477.1731,-124.8151 475.9002,-131.6983"/>
</g>
<!-- 140178132615912 -->
<g id="node33" class="node">
<title>140178132615912</title>
<ellipse fill="#00ff00" stroke="#000000" cx="124" cy="-135" rx="27" ry="27"/>
<text text-anchor="middle" x="124" y="-131.3" font-family="Times,serif" font-size="14.00" fill="#000000">1</text>
</g>
<!-- 140178132615912&#45;&gt;140178132617088 -->
<g id="edge2" class="edge">
<title>140178132615912&#45;&gt;140178132617088</title>
<path fill="none" stroke="#000000" d="M150.9337,-137.9926C182.8228,-141.5359 237.457,-147.6063 283.8063,-152.7563"/>
<polygon fill="#000000" stroke="#000000" points="283.5375,-156.2478 293.8629,-153.8737 284.3106,-149.2907 283.5375,-156.2478"/>
</g>
<!-- 140178132615912&#45;&gt;140178131720176 -->
<g id="edge3" class="edge">
<title>140178132615912&#45;&gt;140178131720176</title>
<path fill="none" stroke="#000000" d="M150.9337,-132.0074C180.511,-128.721 229.6548,-123.2606 273.6069,-118.377"/>
<polygon fill="#000000" stroke="#000000" points="274.2193,-121.8306 283.7716,-117.2476 273.4462,-114.8734 274.2193,-121.8306"/>
</g>
<!-- 140178132618600&#45;&gt;140178131719112 -->
<g id="edge1" class="edge">
<title>140178132618600&#45;&gt;140178131719112</title>
<path fill="none" stroke="#000000" d="M540.003,-135C548.0277,-135 556.9665,-135 565.5309,-135"/>
<polygon fill="#000000" stroke="#000000" points="565.7051,-138.5001 575.705,-135 565.705,-131.5001 565.7051,-138.5001"/>
</g>
</g>
</svg>
