<?xml version="1.0" encoding="UTF-8" standalone="no"?>
<!DOCTYPE svg PUBLIC "-//W3C//DTD SVG 1.1//EN"
 "http://www.w3.org/Graphics/SVG/1.1/DTD/svg11.dtd">
<!-- Generated by graphviz version 2.40.1 (20161225.0304)
 -->
<!-- Title: %3 Pages: 1 -->
<svg width="714pt" height="134pt"
 viewBox="0.00 0.00 714.00 134.00" xmlns="http://www.w3.org/2000/svg" xmlns:xlink="http://www.w3.org/1999/xlink">
<g id="graph0" class="graph" transform="scale(1 1) rotate(0) translate(4 130)">
<title>%3</title>
<!-- 140219166357320 -->
<g id="node1" class="node">
<title>140219166357320</title>
<polygon fill="none" stroke="#000000" points="616,-83 562,-83 562,-47 616,-47 616,-83"/>
<text text-anchor="middle" x="589" y="-61.3" font-family="Times,serif" font-size="14.00" fill="#000000">Root</text>
</g>
<!-- 140219170762312 -->
<g id="node10" class="node">
<title>140219170762312</title>
<ellipse fill="#ffa500" stroke="#000000" cx="679" cy="-65" rx="27" ry="27"/>
</g>
<!-- 140219166357320&#45;&gt;140219170762312 -->
<g id="edge1" class="edge">
<title>140219166357320&#45;&gt;140219170762312</title>
<path fill="none" stroke="#000000" d="M616.003,-65C624.0277,-65 632.9665,-65 641.5309,-65"/>
<polygon fill="#000000" stroke="#000000" points="641.7051,-68.5001 651.705,-65 641.705,-61.5001 641.7051,-68.5001"/>
</g>
<!-- 140219170762536 -->
<g id="node2" class="node">
<title>140219170762536</title>
<polygon fill="none" stroke="#000000" points="246,-112 100,-112 100,-76 246,-76 246,-112"/>
<text text-anchor="middle" x="173" y="-90.3" font-family="Times,serif" font-size="14.00" fill="#000000">TradeConfigServlet:init</text>
</g>
<!-- 140219170728144 -->
<g id="node8" class="node">
<title>140219170728144</title>
<ellipse fill="none" stroke="#000000" cx="319" cy="-99" rx="27" ry="27"/>
<text text-anchor="middle" x="319" y="-95.3" font-family="Times,serif" font-size="14.00" fill="#000000">splace_in_Root_0</text>
</g>
<!-- 140219170762536&#45;&gt;140219170728144 -->
<g id="edge2" class="edge">
<title>140219170762536&#45;&gt;140219170728144</title>
<path fill="none" stroke="#000000" d="M246.4277,-96.5146C258.5704,-96.9305 270.6972,-97.3458 281.4644,-97.7145"/>
<polygon fill="#000000" stroke="#000000" points="281.6145,-101.2216 291.7285,-98.066 281.8542,-94.2257 281.6145,-101.2216"/>
</g>
<!-- 140219170727360 -->
<g id="node3" class="node">
<title>140219170727360</title>
<polygon fill="none" stroke="#000000" points="256,-54 90,-54 90,-18 256,-18 256,-54"/>
<text text-anchor="middle" x="173" y="-32.3" font-family="Times,serif" font-size="14.00" fill="#000000">TradeConfigServlet:service</text>
</g>
<!-- 140219170727864 -->
<g id="node9" class="node">
<title>140219170727864</title>
<ellipse fill="none" stroke="#000000" cx="319" cy="-27" rx="27" ry="27"/>
<text text-anchor="middle" x="319" y="-23.3" font-family="Times,serif" font-size="14.00" fill="#000000">splace_in_Root_1</text>
</g>
<!-- 140219170727360&#45;&gt;140219170727864 -->
<g id="edge3" class="edge">
<title>140219170727360&#45;&gt;140219170727864</title>
<path fill="none" stroke="#000000" d="M256.2355,-30.869C265.0408,-30.3263 273.6433,-29.796 281.5169,-29.3106"/>
<polygon fill="#000000" stroke="#000000" points="281.9869,-32.7884 291.7525,-28.6796 281.5561,-25.8016 281.9869,-32.7884"/>
</g>
<!-- 140219170728256 -->
<g id="node4" class="node">
<title>140219170728256</title>
<polygon fill="none" stroke="#000000" points="436,-112 382,-112 382,-76 436,-76 436,-112"/>
<text text-anchor="middle" x="409" y="-90.3" font-family="Times,serif" font-size="14.00" fill="#000000">hid_1</text>
</g>
<!-- 140219170728424 -->
<g id="node7" class="node">
<title>140219170728424</title>
<ellipse fill="none" stroke="#000000" cx="499" cy="-65" rx="27" ry="27"/>
<text text-anchor="middle" x="499" y="-61.3" font-family="Times,serif" font-size="14.00" fill="#000000">pre_Root</text>
</g>
<!-- 140219170728256&#45;&gt;140219170728424 -->
<g id="edge4" class="edge">
<title>140219170728256&#45;&gt;140219170728424</title>
<path fill="none" stroke="#000000" d="M436.003,-85.299C444.6725,-82.5055 454.4089,-79.3682 463.5874,-76.4107"/>
<polygon fill="#000000" stroke="#000000" points="464.8064,-79.6952 473.251,-73.2969 462.6595,-73.0326 464.8064,-79.6952"/>
</g>
<!-- 140219170728200 -->
<g id="node5" class="node">
<title>140219170728200</title>
<polygon fill="none" stroke="#000000" points="436,-54 382,-54 382,-18 436,-18 436,-54"/>
<text text-anchor="middle" x="409" y="-32.3" font-family="Times,serif" font-size="14.00" fill="#000000">hid_2</text>
</g>
<!-- 140219170728200&#45;&gt;140219170728424 -->
<g id="edge5" class="edge">
<title>140219170728200&#45;&gt;140219170728424</title>
<path fill="none" stroke="#000000" d="M436.003,-44.701C444.6725,-47.4945 454.4089,-50.6318 463.5874,-53.5893"/>
<polygon fill="#000000" stroke="#000000" points="462.6595,-56.9674 473.251,-56.7031 464.8064,-50.3048 462.6595,-56.9674"/>
</g>
<!-- 140219170762648 -->
<g id="node6" class="node">
<title>140219170762648</title>
<ellipse fill="#00ff00" stroke="#000000" cx="27" cy="-63" rx="27" ry="27"/>
<text text-anchor="middle" x="27" y="-59.3" font-family="Times,serif" font-size="14.00" fill="#000000">1</text>
</g>
<!-- 140219170762648&#45;&gt;140219170762536 -->
<g id="edge7" class="edge">
<title>140219170762648&#45;&gt;140219170762536</title>
<path fill="none" stroke="#000000" d="M53.4395,-68.6139C63.9167,-70.8385 76.59,-73.5294 89.716,-76.3164"/>
<polygon fill="#000000" stroke="#000000" points="89.304,-79.8069 99.8129,-78.4603 90.7579,-72.9595 89.304,-79.8069"/>
</g>
<!-- 140219170762648&#45;&gt;140219170727360 -->
<g id="edge8" class="edge">
<title>140219170762648&#45;&gt;140219170727360</title>
<path fill="none" stroke="#000000" d="M53.7787,-58.0478C61.5382,-56.6128 70.4813,-54.9589 79.9092,-53.2154"/>
<polygon fill="#000000" stroke="#000000" points="80.6836,-56.6316 89.8804,-51.3714 79.4106,-49.7484 80.6836,-56.6316"/>
</g>
<!-- 140219170728424&#45;&gt;140219166357320 -->
<g id="edge6" class="edge">
<title>140219170728424&#45;&gt;140219166357320</title>
<path fill="none" stroke="#000000" d="M526.003,-65C534.0277,-65 542.9665,-65 551.5309,-65"/>
<polygon fill="#000000" stroke="#000000" points="551.7051,-68.5001 561.705,-65 551.705,-61.5001 551.7051,-68.5001"/>
</g>
<!-- 140219170728144&#45;&gt;140219170728256 -->
<g id="edge9" class="edge">
<title>140219170728144&#45;&gt;140219170728256</title>
<path fill="none" stroke="#000000" d="M346.003,-97.4998C354.0277,-97.054 362.9665,-96.5574 371.5309,-96.0816"/>
<polygon fill="#000000" stroke="#000000" points="371.9146,-99.5658 381.705,-95.5164 371.5262,-92.5766 371.9146,-99.5658"/>
</g>
<!-- 140219170727864&#45;&gt;140219170728200 -->
<g id="edge10" class="edge">
<title>140219170727864&#45;&gt;140219170728200</title>
<path fill="none" stroke="#000000" d="M346.003,-29.7003C354.0277,-30.5028 362.9665,-31.3967 371.5309,-32.2531"/>
<polygon fill="#000000" stroke="#000000" points="371.4064,-35.758 381.705,-33.2705 372.1029,-28.7927 371.4064,-35.758"/>
</g>
</g>
</svg>
