<?xml version="1.0" encoding="UTF-8" standalone="no"?>
<!DOCTYPE svg PUBLIC "-//W3C//DTD SVG 1.1//EN"
 "http://www.w3.org/Graphics/SVG/1.1/DTD/svg11.dtd">
<!-- Generated by graphviz version 2.40.1 (20161225.0304)
 -->
<!-- Title: imdf_net_1586496217.9359903 Pages: 1 -->
<svg width="1049pt" height="1619pt"
 viewBox="0.00 0.00 1049.00 1619.00" xmlns="http://www.w3.org/2000/svg" xmlns:xlink="http://www.w3.org/1999/xlink">
<g id="graph0" class="graph" transform="scale(1 1) rotate(0) translate(4 1615)">
<title>imdf_net_1586496217.9359903</title>
<!-- 139748184627352 -->
<g id="node1" class="node">
<title>139748184627352</title>
<polygon fill="none" stroke="#000000" points="125,-747 0,-747 0,-711 125,-711 125,-747"/>
<text text-anchor="middle" x="62.5" y="-725.3" font-family="Times,serif" font-size="14.00" fill="#000000">Log:setActionTrace</text>
</g>
<!-- 139748197739208 -->
<g id="node42" class="node">
<title>139748197739208</title>
<ellipse fill="none" stroke="#000000" cx="188" cy="-795" rx="27" ry="27"/>
<text text-anchor="middle" x="188" y="-791.3" font-family="Times,serif" font-size="14.00" fill="#000000">p_6</text>
</g>
<!-- 139748184627352&#45;&gt;139748197739208 -->
<g id="edge25" class="edge">
<title>139748184627352&#45;&gt;139748197739208</title>
<path fill="none" stroke="#000000" d="M96.7934,-747.0348C114.9632,-756.5902 137.1714,-768.2694 155.1242,-777.7107"/>
<polygon fill="#000000" stroke="#000000" points="153.6007,-780.864 164.0805,-782.4208 156.8589,-774.6685 153.6007,-780.864"/>
</g>
<!-- 139748169931128 -->
<g id="node2" class="node">
<title>139748169931128</title>
<polygon fill="none" stroke="#000000" points="871,-1386 783,-1386 783,-1350 871,-1350 871,-1386"/>
<text text-anchor="middle" x="827" y="-1364.3" font-family="Times,serif" font-size="14.00" fill="#000000">Log:setTrace</text>
</g>
<!-- 139748169931128&#45;&gt;139748197739208 -->
<g id="edge11" class="edge">
<title>139748169931128&#45;&gt;139748197739208</title>
<path fill="none" stroke="#000000" d="M782.7176,-1367.8064C757.0067,-1365.5575 725.3801,-1358.8742 703,-1341 673.4813,-1317.4244 697.3054,-1286.5554 667,-1264 608.2584,-1220.2804 577.2255,-1240 504,-1240 368,-1240 368,-1240 368,-1240 309.561,-1240 285.4088,-1227.235 251,-1180 210.7558,-1124.7544 194.8094,-917.3112 189.8628,-831.9969"/>
<polygon fill="#000000" stroke="#000000" points="193.3555,-831.7671 189.3003,-821.9791 186.3665,-832.1596 193.3555,-831.7671"/>
</g>
<!-- 139748197608080 -->
<g id="node3" class="node">
<title>139748197608080</title>
<polygon fill="none" stroke="#000000" points="854,-1602 800,-1602 800,-1566 854,-1566 854,-1602"/>
<text text-anchor="middle" x="827" y="-1580.3" font-family="Times,serif" font-size="14.00" fill="#000000">Root</text>
</g>
<!-- 139748191229376 -->
<g id="node44" class="node">
<title>139748191229376</title>
<ellipse fill="#ffa500" stroke="#000000" cx="1014" cy="-1584" rx="27" ry="27"/>
</g>
<!-- 139748197608080&#45;&gt;139748191229376 -->
<g id="edge5" class="edge">
<title>139748197608080&#45;&gt;139748191229376</title>
<path fill="none" stroke="#000000" d="M854.1914,-1584C886.46,-1584 940.4376,-1584 976.6193,-1584"/>
<polygon fill="#000000" stroke="#000000" points="976.7758,-1587.5001 986.7758,-1584 976.7757,-1580.5001 976.7758,-1587.5001"/>
</g>
<!-- 139748191372960 -->
<g id="node4" class="node">
<title>139748191372960</title>
<polygon fill="none" stroke="#000000" points="913.5,-1332 740.5,-1332 740.5,-1296 913.5,-1296 913.5,-1332"/>
<text text-anchor="middle" x="827" y="-1310.3" font-family="Times,serif" font-size="14.00" fill="#000000">TradeConfig:getActionTrace</text>
</g>
<!-- 139748191372960&#45;&gt;139748197739208 -->
<g id="edge29" class="edge">
<title>139748191372960&#45;&gt;139748197739208</title>
<path fill="none" stroke="#000000" d="M740.3677,-1304.773C727.0505,-1300.7143 714.0696,-1295.0037 703,-1287 677.4894,-1268.555 693.1247,-1243.5645 667,-1226 606.2321,-1185.1438 577.2255,-1202 504,-1202 368,-1202 368,-1202 368,-1202 309.3569,-1202 285.7931,-1188.2065 251,-1141 215.0312,-1092.1983 196.9562,-910.9075 190.6577,-832.0421"/>
<polygon fill="#000000" stroke="#000000" points="194.1462,-831.758 189.88,-822.0601 187.1674,-832.3017 194.1462,-831.758"/>
</g>
<!-- 139748184625224 -->
<g id="node5" class="node">
<title>139748184625224</title>
<polygon fill="none" stroke="#000000" points="933,-1278 721,-1278 721,-1242 933,-1242 933,-1278"/>
<text text-anchor="middle" x="827" y="-1256.3" font-family="Times,serif" font-size="14.00" fill="#000000">TradeConfig:getDisplayOrderAlerts</text>
</g>
<!-- 139748184625224&#45;&gt;139748197739208 -->
<g id="edge27" class="edge">
<title>139748184625224&#45;&gt;139748197739208</title>
<path fill="none" stroke="#000000" d="M720.8419,-1242.1717C714.62,-1239.5225 708.6168,-1236.4842 703,-1233 681.235,-1219.4988 689.2127,-1200.7513 667,-1188 603.4944,-1151.5444 577.2255,-1164 504,-1164 368,-1164 368,-1164 368,-1164 309.3569,-1164 286.3021,-1149.827 251,-1103 218.9797,-1060.5262 199.1975,-904.1812 191.5799,-831.9864"/>
<polygon fill="#000000" stroke="#000000" points="195.0541,-831.5559 190.5442,-821.9689 188.0912,-832.2758 195.0541,-831.5559"/>
</g>
<!-- 139748184625840 -->
<g id="node6" class="node">
<title>139748184625840</title>
<polygon fill="none" stroke="#000000" points="905.5,-1224 748.5,-1224 748.5,-1188 905.5,-1188 905.5,-1224"/>
<text text-anchor="middle" x="827" y="-1202.3" font-family="Times,serif" font-size="14.00" fill="#000000">TradeConfig:getLongRun</text>
</g>
<!-- 139748184625840&#45;&gt;139748197739208 -->
<g id="edge6" class="edge">
<title>139748184625840&#45;&gt;139748197739208</title>
<path fill="none" stroke="#000000" d="M748.431,-1194.6558C732.9327,-1190.8346 717.1109,-1185.7513 703,-1179 684.4664,-1170.1327 685.8252,-1158.2303 667,-1150 599.9064,-1120.667 577.2255,-1126 504,-1126 368,-1126 368,-1126 368,-1126 309.3569,-1126 286.9419,-1111.3378 251,-1065 222.9848,-1028.8817 201.8623,-897.743 192.8252,-832.4557"/>
<polygon fill="#000000" stroke="#000000" points="196.2451,-831.629 191.4291,-822.192 189.3089,-832.5725 196.2451,-831.629"/>
</g>
<!-- 139748191373632 -->
<g id="node7" class="node">
<title>139748191373632</title>
<polygon fill="none" stroke="#000000" points="926,-1170 728,-1170 728,-1134 926,-1134 926,-1170"/>
<text text-anchor="middle" x="827" y="-1148.3" font-family="Times,serif" font-size="14.00" fill="#000000">TradeConfig:getMAX_QUOTES</text>
</g>
<!-- 139748191373632&#45;&gt;139748197739208 -->
<g id="edge10" class="edge">
<title>139748191373632&#45;&gt;139748197739208</title>
<path fill="none" stroke="#000000" d="M737.2428,-1133.9309C725.6619,-1131.1682 714.0091,-1128.1713 703,-1125 686.6534,-1120.2912 683.4976,-1116.1487 667,-1112 595.9855,-1094.1418 577.2255,-1088 504,-1088 368,-1088 368,-1088 368,-1088 309.3569,-1088 287.7684,-1072.6847 251,-1027 226.8578,-997.0034 204.7887,-889.7235 194.3462,-832.1497"/>
<polygon fill="#000000" stroke="#000000" points="197.7384,-831.236 192.5337,-822.0076 190.8476,-832.4674 197.7384,-831.236"/>
</g>
<!-- 139748184625952 -->
<g id="node8" class="node">
<title>139748184625952</title>
<polygon fill="none" stroke="#000000" points="920.5,-1116 733.5,-1116 733.5,-1080 920.5,-1080 920.5,-1116"/>
<text text-anchor="middle" x="827" y="-1094.3" font-family="Times,serif" font-size="14.00" fill="#000000">TradeConfig:getMAX_USERS</text>
</g>
<!-- 139748184625952&#45;&gt;139748197739208 -->
<g id="edge15" class="edge">
<title>139748184625952&#45;&gt;139748197739208</title>
<path fill="none" stroke="#000000" d="M733.2749,-1080.9418C654.2723,-1067.1453 547.3695,-1050 504,-1050 368,-1050 368,-1050 368,-1050 309.3569,-1050 288.873,-1033.7733 251,-989 212.6287,-943.6376 197.4929,-874.4045 191.6179,-832.0752"/>
<polygon fill="#000000" stroke="#000000" points="195.0597,-831.3973 190.3153,-821.9241 188.1166,-832.2883 195.0597,-831.3973"/>
</g>
<!-- 139748184625448 -->
<g id="node9" class="node">
<title>139748184625448</title>
<polygon fill="none" stroke="#000000" points="948,-1062 706,-1062 706,-1026 948,-1026 948,-1062"/>
<text text-anchor="middle" x="827" y="-1040.3" font-family="Times,serif" font-size="14.00" fill="#000000">TradeConfig:getMarketSummaryInterval</text>
</g>
<!-- 139748184625448&#45;&gt;139748197739208 -->
<g id="edge32" class="edge">
<title>139748184625448&#45;&gt;139748197739208</title>
<path fill="none" stroke="#000000" d="M705.7274,-1026.2686C645.2533,-1018.8855 570.9167,-1012 504,-1012 368,-1012 368,-1012 368,-1012 309.561,-1012 290.3734,-995.1839 251,-952 219.8868,-917.8757 203.2269,-866.4431 195.003,-831.8367"/>
<polygon fill="#000000" stroke="#000000" points="198.3261,-830.6616 192.7149,-821.6747 191.4971,-832.1993 198.3261,-830.6616"/>
</g>
<!-- 139748169930344 -->
<g id="node10" class="node">
<title>139748169930344</title>
<polygon fill="none" stroke="#000000" points="893,-1008 761,-1008 761,-972 893,-972 893,-1008"/>
<text text-anchor="middle" x="827" y="-986.3" font-family="Times,serif" font-size="14.00" fill="#000000">TradeConfig:getPage</text>
</g>
<!-- 139748169930344&#45;&gt;139748197739208 -->
<g id="edge17" class="edge">
<title>139748169930344&#45;&gt;139748197739208</title>
<path fill="none" stroke="#000000" d="M760.8562,-984.8053C695.6026,-980.1334 592.9901,-974 504,-974 368,-974 368,-974 368,-974 310.1573,-974 292.3754,-957.4209 251,-917 226.3546,-892.9232 209.4563,-857.1444 199.4132,-830.5521"/>
<polygon fill="#000000" stroke="#000000" points="202.5962,-829.0625 195.8979,-820.8537 196.0152,-831.4479 202.5962,-829.0625"/>
</g>
<!-- 139748184627912 -->
<g id="node11" class="node">
<title>139748184627912</title>
<polygon fill="none" stroke="#000000" points="950,-954 704,-954 704,-918 950,-918 950,-954"/>
<text text-anchor="middle" x="827" y="-932.3" font-family="Times,serif" font-size="14.00" fill="#000000">TradeConfig:getPercentSentToWebsocket</text>
</g>
<!-- 139748184627912&#45;&gt;139748197739208 -->
<g id="edge31" class="edge">
<title>139748184627912&#45;&gt;139748197739208</title>
<path fill="none" stroke="#000000" d="M703.9139,-936C643.6527,-936 570.0299,-936 504,-936 368,-936 368,-936 368,-936 311.0955,-936 295.0132,-920.0688 251,-884 232.2512,-868.6354 216.4965,-846.3747 205.4314,-827.9605"/>
<polygon fill="#000000" stroke="#000000" points="208.4351,-826.1633 200.3835,-819.2769 202.3833,-829.6813 208.4351,-826.1633"/>
</g>
<!-- 139748184627072 -->
<g id="node12" class="node">
<title>139748184627072</title>
<polygon fill="none" stroke="#000000" points="919,-900 735,-900 735,-864 919,-864 919,-900"/>
<text text-anchor="middle" x="827" y="-878.3" font-family="Times,serif" font-size="14.00" fill="#000000">TradeConfig:getPrimIterations</text>
</g>
<!-- 139748184627072&#45;&gt;139748197739208 -->
<g id="edge8" class="edge">
<title>139748184627072&#45;&gt;139748197739208</title>
<path fill="none" stroke="#000000" d="M734.8218,-888.9946C670.2419,-893.2999 581.9014,-898 504,-898 368,-898 368,-898 368,-898 312.4444,-898 298.1826,-883.3296 251,-854 237.2474,-845.4511 223.8797,-833.6066 213.0223,-822.7721"/>
<polygon fill="#000000" stroke="#000000" points="215.415,-820.2122 205.9329,-815.4855 210.3978,-825.0937 215.415,-820.2122"/>
</g>
<!-- 139748184628976 -->
<g id="node13" class="node">
<title>139748184628976</title>
<polygon fill="none" stroke="#000000" points="951,-846 703,-846 703,-810 951,-810 951,-846"/>
<text text-anchor="middle" x="827" y="-824.3" font-family="Times,serif" font-size="14.00" fill="#000000">TradeConfig:getPublishQuotePriceChange</text>
</g>
<!-- 139748184628976&#45;&gt;139748197739208 -->
<g id="edge3" class="edge">
<title>139748184628976&#45;&gt;139748197739208</title>
<path fill="none" stroke="#000000" d="M703.4292,-846.0109C643.3765,-853.2873 570.0714,-860 504,-860 368,-860 368,-860 368,-860 313.5582,-860 255.0656,-833.3703 220.0119,-814.2006"/>
<polygon fill="#000000" stroke="#000000" points="221.6311,-811.0959 211.1957,-809.2645 218.2113,-817.2038 221.6311,-811.0959"/>
</g>
<!-- 139748184627184 -->
<g id="node14" class="node">
<title>139748184627184</title>
<polygon fill="none" stroke="#000000" points="895.5,-792 758.5,-792 758.5,-756 895.5,-756 895.5,-792"/>
<text text-anchor="middle" x="827" y="-770.3" font-family="Times,serif" font-size="14.00" fill="#000000">TradeConfig:getTrace</text>
</g>
<!-- 139748184627184&#45;&gt;139748197739208 -->
<g id="edge4" class="edge">
<title>139748184627184&#45;&gt;139748197739208</title>
<path fill="none" stroke="#000000" d="M758.2472,-787.4461C730.0383,-792.7059 697.0173,-798.5348 667,-803 594.8589,-813.7314 576.9349,-822 504,-822 368,-822 368,-822 368,-822 317.8128,-822 260.6166,-811.6078 224.425,-803.7181"/>
<polygon fill="#000000" stroke="#000000" points="224.8708,-800.2315 214.3483,-801.4672 223.3448,-807.0631 224.8708,-800.2315"/>
</g>
<!-- 139748184627632 -->
<g id="node15" class="node">
<title>139748184627632</title>
<polygon fill="none" stroke="#000000" points="913,-738 741,-738 741,-702 913,-702 913,-738"/>
<text text-anchor="middle" x="827" y="-716.3" font-family="Times,serif" font-size="14.00" fill="#000000">TradeConfig:setActionTrace</text>
</g>
<!-- 139748184627632&#45;&gt;139748197739208 -->
<g id="edge12" class="edge">
<title>139748184627632&#45;&gt;139748197739208</title>
<path fill="none" stroke="#000000" d="M740.9861,-716.7115C675.918,-714.505 584.3541,-712 504,-712 368,-712 368,-712 368,-712 314.0902,-712 298.9725,-719.405 251,-744 238.1275,-750.5996 225.4346,-760.1225 214.8527,-769.1567"/>
<polygon fill="#000000" stroke="#000000" points="212.3813,-766.6698 207.2041,-775.9136 217.0158,-771.9159 212.3813,-766.6698"/>
</g>
<!-- 139748184625560 -->
<g id="node16" class="node">
<title>139748184625560</title>
<polygon fill="none" stroke="#000000" points="932.5,-684 721.5,-684 721.5,-648 932.5,-648 932.5,-684"/>
<text text-anchor="middle" x="827" y="-662.3" font-family="Times,serif" font-size="14.00" fill="#000000">TradeConfig:setDisplayOrderAlerts</text>
</g>
<!-- 139748184625560&#45;&gt;139748197739208 -->
<g id="edge26" class="edge">
<title>139748184625560&#45;&gt;139748197739208</title>
<path fill="none" stroke="#000000" d="M721.1845,-669.9414C658.1278,-671.9607 576.501,-674 504,-674 368,-674 368,-674 368,-674 312.7511,-674 295.9298,-683.8479 251,-716 233.5465,-728.4899 218.3864,-747.0849 207.314,-763.097"/>
<polygon fill="#000000" stroke="#000000" points="204.2319,-761.4104 201.5946,-771.6718 210.0553,-765.2947 204.2319,-761.4104"/>
</g>
<!-- 139748169931800 -->
<g id="node17" class="node">
<title>139748169931800</title>
<polygon fill="none" stroke="#000000" points="904.5,-630 749.5,-630 749.5,-594 904.5,-594 904.5,-630"/>
<text text-anchor="middle" x="827" y="-608.3" font-family="Times,serif" font-size="14.00" fill="#000000">TradeConfig:setLongRun</text>
</g>
<!-- 139748169931800&#45;&gt;139748197739208 -->
<g id="edge21" class="edge">
<title>139748169931800&#45;&gt;139748197739208</title>
<path fill="none" stroke="#000000" d="M749.3759,-606.7471C683.9734,-602.7745 587.9129,-598 504,-598 368,-598 368,-598 368,-598 281.2867,-598 225.1507,-703.3095 201.2334,-759.9365"/>
<polygon fill="#000000" stroke="#000000" points="197.9715,-758.6659 197.4062,-769.2457 204.4458,-761.3276 197.9715,-758.6659"/>
</g>
<!-- 139748184628080 -->
<g id="node18" class="node">
<title>139748184628080</title>
<polygon fill="none" stroke="#000000" points="925.5,-522 728.5,-522 728.5,-486 925.5,-486 925.5,-522"/>
<text text-anchor="middle" x="827" y="-500.3" font-family="Times,serif" font-size="14.00" fill="#000000">TradeConfig:setMAX_QUOTES</text>
</g>
<!-- 139748184628080&#45;&gt;139748197739208 -->
<g id="edge20" class="edge">
<title>139748184628080&#45;&gt;139748197739208</title>
<path fill="none" stroke="#000000" d="M728.4726,-511.8779C664.534,-516.3248 579.3867,-521 504,-521 368,-521 368,-521 368,-521 312.1254,-521 288.3814,-525.4716 251,-567 225.6526,-595.1593 204.1156,-701.1724 194.0643,-758.1821"/>
<polygon fill="#000000" stroke="#000000" points="190.5825,-757.776 192.3228,-768.2269 197.4796,-758.9718 190.5825,-757.776"/>
</g>
<!-- 139748184629200 -->
<g id="node19" class="node">
<title>139748184629200</title>
<polygon fill="none" stroke="#000000" points="919.5,-414 734.5,-414 734.5,-378 919.5,-378 919.5,-414"/>
<text text-anchor="middle" x="827" y="-392.3" font-family="Times,serif" font-size="14.00" fill="#000000">TradeConfig:setMAX_USERS</text>
</g>
<!-- 139748184629200&#45;&gt;139748197739208 -->
<g id="edge13" class="edge">
<title>139748184629200&#45;&gt;139748197739208</title>
<path fill="none" stroke="#000000" d="M734.1764,-405.6815C669.6832,-411.5839 581.7052,-418 504,-418 368,-418 368,-418 368,-418 308.5141,-418 286.1164,-434.9854 251,-483 219.2078,-526.4693 199.3063,-684.6127 191.6189,-757.6091"/>
<polygon fill="#000000" stroke="#000000" points="188.1187,-757.4308 190.5733,-767.7374 195.0817,-758.1497 188.1187,-757.4308"/>
</g>
<!-- 139748184628304 -->
<g id="node20" class="node">
<title>139748184628304</title>
<polygon fill="none" stroke="#000000" points="947,-360 707,-360 707,-324 947,-324 947,-360"/>
<text text-anchor="middle" x="827" y="-338.3" font-family="Times,serif" font-size="14.00" fill="#000000">TradeConfig:setMarketSummaryInterval</text>
</g>
<!-- 139748184628304&#45;&gt;139748197739208 -->
<g id="edge24" class="edge">
<title>139748184628304&#45;&gt;139748197739208</title>
<path fill="none" stroke="#000000" d="M706.7242,-354.0941C646.0083,-359.2062 571.1665,-364 504,-364 368,-364 368,-364 368,-364 308.9407,-364 285.4693,-379.0431 251,-427 213.1272,-479.6922 195.9586,-675.0727 190.2752,-757.7091"/>
<polygon fill="#000000" stroke="#000000" points="186.7685,-757.6929 189.5933,-767.9042 193.7529,-758.1602 186.7685,-757.6929"/>
</g>
<!-- 139748184628640 -->
<g id="node21" class="node">
<title>139748184628640</title>
<polygon fill="none" stroke="#000000" points="940.5,-306 713.5,-306 713.5,-270 940.5,-270 940.5,-306"/>
<text text-anchor="middle" x="827" y="-284.3" font-family="Times,serif" font-size="14.00" fill="#000000">TradeConfig:setOrderProcessingMode</text>
</g>
<!-- 139748184628640&#45;&gt;139748197739208 -->
<g id="edge28" class="edge">
<title>139748184628640&#45;&gt;139748197739208</title>
<path fill="none" stroke="#000000" d="M713.2581,-303.7468C651.484,-310.9898 573.6932,-318 504,-318 368,-318 368,-318 368,-318 310.7287,-318 285.3453,-326.1698 251,-372 205.4931,-432.7242 192.4921,-666.1575 189.1001,-757.7817"/>
<polygon fill="#000000" stroke="#000000" points="185.5953,-757.8614 188.741,-767.9785 192.5909,-758.1079 185.5953,-757.8614"/>
</g>
<!-- 139748184626848 -->
<g id="node22" class="node">
<title>139748184626848</title>
<polygon fill="none" stroke="#000000" points="949.5,-252 704.5,-252 704.5,-216 949.5,-216 949.5,-252"/>
<text text-anchor="middle" x="827" y="-230.3" font-family="Times,serif" font-size="14.00" fill="#000000">TradeConfig:setPercentSentToWebsocket</text>
</g>
<!-- 139748184626848&#45;&gt;139748197739208 -->
<g id="edge16" class="edge">
<title>139748184626848&#45;&gt;139748197739208</title>
<path fill="none" stroke="#000000" d="M736.9092,-252.0555C672.3462,-263.439 583.1679,-276 504,-276 368,-276 368,-276 368,-276 311.9612,-276 285.3917,-278.7557 251,-323 224.3895,-357.234 199.0835,-652.3524 190.8155,-757.7682"/>
<polygon fill="#000000" stroke="#000000" points="187.3104,-757.6984 190.0245,-767.9397 194.2893,-758.2412 187.3104,-757.6984"/>
</g>
<!-- 139748184625896 -->
<g id="node23" class="node">
<title>139748184625896</title>
<polygon fill="none" stroke="#000000" points="918,-198 736,-198 736,-162 918,-162 918,-198"/>
<text text-anchor="middle" x="827" y="-176.3" font-family="Times,serif" font-size="14.00" fill="#000000">TradeConfig:setPrimIterations</text>
</g>
<!-- 139748184625896&#45;&gt;139748197739208 -->
<g id="edge30" class="edge">
<title>139748184625896&#45;&gt;139748197739208</title>
<path fill="none" stroke="#000000" d="M735.8076,-180.4328C671.1103,-180.7031 582.2269,-181 504,-181 368,-181 368,-181 368,-181 300.1687,-181 283.3721,-219.3918 251,-279 205.9761,-361.9043 192.4736,-653.5499 189.0361,-757.6933"/>
<polygon fill="#000000" stroke="#000000" points="185.5362,-757.6376 188.7167,-767.7437 192.5327,-757.86 185.5362,-757.6376"/>
</g>
<!-- 139748184628696 -->
<g id="node24" class="node">
<title>139748184628696</title>
<polygon fill="none" stroke="#000000" points="950.5,-144 703.5,-144 703.5,-108 950.5,-108 950.5,-144"/>
<text text-anchor="middle" x="827" y="-122.3" font-family="Times,serif" font-size="14.00" fill="#000000">TradeConfig:setPublishQuotePriceChange</text>
</g>
<!-- 139748184628696&#45;&gt;139748197739208 -->
<g id="edge9" class="edge">
<title>139748184628696&#45;&gt;139748197739208</title>
<path fill="none" stroke="#000000" d="M703.1733,-131.6284C643.0617,-133.9023 569.7811,-136 504,-136 368,-136 368,-136 368,-136 309.3569,-136 283.9953,-148.5199 251,-197 219.3956,-243.4365 196.4026,-634.475 189.8802,-757.8579"/>
<polygon fill="#000000" stroke="#000000" points="186.3796,-757.7796 189.352,-767.9489 193.37,-758.1456 186.3796,-757.7796"/>
</g>
<!-- 139748191374976 -->
<g id="node25" class="node">
<title>139748191374976</title>
<polygon fill="none" stroke="#000000" points="921,-90 733,-90 733,-54 921,-54 921,-90"/>
<text text-anchor="middle" x="827" y="-68.3" font-family="Times,serif" font-size="14.00" fill="#000000">TradeConfig:setRunTimeMode</text>
</g>
<!-- 139748191374976&#45;&gt;139748197739208 -->
<g id="edge2" class="edge">
<title>139748191374976&#45;&gt;139748197739208</title>
<path fill="none" stroke="#000000" d="M732.6733,-75.5672C668.2674,-77.7005 580.9884,-80 504,-80 368,-80 368,-80 368,-80 308.9407,-80 283.6908,-93.8135 251,-143 216.8662,-194.3576 195.3477,-626.7414 189.5711,-757.6153"/>
<polygon fill="#000000" stroke="#000000" points="186.0606,-757.7797 189.1213,-767.9229 193.054,-758.085 186.0606,-757.7797"/>
</g>
<!-- 139748191374304 -->
<g id="node26" class="node">
<title>139748191374304</title>
<polygon fill="none" stroke="#000000" points="894.5,-36 759.5,-36 759.5,0 894.5,0 894.5,-36"/>
<text text-anchor="middle" x="827" y="-14.3" font-family="Times,serif" font-size="14.00" fill="#000000">TradeConfig:setTrace</text>
</g>
<!-- 139748191374304&#45;&gt;139748197739208 -->
<g id="edge19" class="edge">
<title>139748191374304&#45;&gt;139748197739208</title>
<path fill="none" stroke="#000000" d="M759.2692,-20.6528C693.9224,-22.9815 592.2072,-26 504,-26 368,-26 368,-26 368,-26 309.3569,-26 283.6012,-38.254 251,-87 213.5163,-143.0466 194.1165,-619.4306 189.2434,-757.5882"/>
<polygon fill="#000000" stroke="#000000" points="185.742,-757.5683 188.892,-767.684 192.7378,-757.8118 185.742,-757.5683"/>
</g>
<!-- 139748191372064 -->
<g id="node27" class="node">
<title>139748191372064</title>
<polygon fill="none" stroke="#000000" points="916.5,-1548 737.5,-1548 737.5,-1512 916.5,-1512 916.5,-1548"/>
<text text-anchor="middle" x="827" y="-1526.3" font-family="Times,serif" font-size="14.00" fill="#000000">TradeConfig:setWebInterface</text>
</g>
<!-- 139748191372064&#45;&gt;139748197739208 -->
<g id="edge22" class="edge">
<title>139748191372064&#45;&gt;139748197739208</title>
<path fill="none" stroke="#000000" d="M737.276,-1518.4215C725.2077,-1514.6265 713.4154,-1509.6141 703,-1503 680.7878,-1488.8946 684.7371,-1475.4356 667,-1456 630.3204,-1415.808 624.7575,-1399.0771 577,-1373 547.5754,-1356.9332 537.5254,-1354 504,-1354 368,-1354 368,-1354 368,-1354 309.561,-1354 284.5384,-1341.8569 251,-1294 224.5685,-1256.2841 198.9145,-941.8257 190.7081,-832.3782"/>
<polygon fill="#000000" stroke="#000000" points="194.1791,-831.8571 189.9469,-822.1443 187.1984,-832.3764 194.1791,-831.8571"/>
</g>
<!-- 139748184628752 -->
<g id="node28" class="node">
<title>139748184628752</title>
<polygon fill="none" stroke="#000000" points="937.5,-576 716.5,-576 716.5,-540 937.5,-540 937.5,-576"/>
<text text-anchor="middle" x="827" y="-554.3" font-family="Times,serif" font-size="14.00" fill="#000000">TradeConfig:useRemoteEJBInterface</text>
</g>
<!-- 139748184628752&#45;&gt;139748197739208 -->
<g id="edge7" class="edge">
<title>139748184628752&#45;&gt;139748197739208</title>
<path fill="none" stroke="#000000" d="M716.3773,-559.0234C654.0079,-559.5155 574.6576,-560 504,-560 368,-560 368,-560 368,-560 310.5411,-560 289.4894,-572.3374 251,-615 214.5575,-655.3937 198.942,-718.0905 192.4311,-757.8178"/>
<polygon fill="#000000" stroke="#000000" points="188.9435,-757.4721 190.8954,-767.8855 195.8634,-758.5277 188.9435,-757.4721"/>
</g>
<!-- 139748191372288 -->
<g id="node29" class="node">
<title>139748191372288</title>
<polygon fill="none" stroke="#000000" points="937.5,-1494 716.5,-1494 716.5,-1458 937.5,-1458 937.5,-1494"/>
<text text-anchor="middle" x="827" y="-1472.3" font-family="Times,serif" font-size="14.00" fill="#000000">TradeConfigServlet:doConfigDisplay</text>
</g>
<!-- 139748191372288&#45;&gt;139748197739208 -->
<g id="edge14" class="edge">
<title>139748191372288&#45;&gt;139748197739208</title>
<path fill="none" stroke="#000000" d="M716.3147,-1458.7255C711.5692,-1455.9093 707.0931,-1452.6858 703,-1449 665.0881,-1414.8598 706.0539,-1372.8276 667,-1340 610.9466,-1292.8832 577.2255,-1316 504,-1316 368,-1316 368,-1316 368,-1316 309.561,-1316 284.7828,-1303.6848 251,-1256 202.7833,-1187.9416 191.3614,-929.7018 188.7472,-832.3966"/>
<polygon fill="#000000" stroke="#000000" points="192.2399,-832.059 188.4888,-822.1504 185.2421,-832.2355 192.2399,-832.059"/>
</g>
<!-- 139748184625784 -->
<g id="node30" class="node">
<title>139748184625784</title>
<polygon fill="none" stroke="#000000" points="936,-468 718,-468 718,-432 936,-432 936,-468"/>
<text text-anchor="middle" x="827" y="-446.3" font-family="Times,serif" font-size="14.00" fill="#000000">TradeConfigServlet:doConfigUpdate</text>
</g>
<!-- 139748184625784&#45;&gt;139748197739208 -->
<g id="edge23" class="edge">
<title>139748184625784&#45;&gt;139748197739208</title>
<path fill="none" stroke="#000000" d="M717.738,-465.727C655.2813,-473.4006 575.4034,-481 504,-481 368,-481 368,-481 368,-481 312.5993,-481 287.6762,-482.4778 251,-524 220.4945,-558.5361 200.4663,-692.1206 192.2425,-757.9319"/>
<polygon fill="#000000" stroke="#000000" points="188.7649,-757.5356 191.0241,-767.8867 195.7131,-758.386 188.7649,-757.5356"/>
</g>
<!-- 139748184449656 -->
<g id="node31" class="node">
<title>139748184449656</title>
<polygon fill="none" stroke="#000000" points="577,-1510 431,-1510 431,-1474 577,-1474 577,-1510"/>
<text text-anchor="middle" x="504" y="-1488.3" font-family="Times,serif" font-size="14.00" fill="#000000">TradeConfigServlet:init</text>
</g>
<!-- 139748197607688 -->
<g id="node40" class="node">
<title>139748197607688</title>
<ellipse fill="none" stroke="#000000" cx="640" cy="-1492" rx="27" ry="27"/>
<text text-anchor="middle" x="640" y="-1488.3" font-family="Times,serif" font-size="14.00" fill="#000000">p_4</text>
</g>
<!-- 139748184449656&#45;&gt;139748197607688 -->
<g id="edge18" class="edge">
<title>139748184449656&#45;&gt;139748197607688</title>
<path fill="none" stroke="#000000" d="M577.1752,-1492C586.0057,-1492 594.7192,-1492 602.7152,-1492"/>
<polygon fill="#000000" stroke="#000000" points="602.7632,-1495.5001 612.7632,-1492 602.7631,-1488.5001 602.7632,-1495.5001"/>
</g>
<!-- 139748184626120 -->
<g id="node32" class="node">
<title>139748184626120</title>
<polygon fill="none" stroke="#000000" points="910,-1440 744,-1440 744,-1404 910,-1404 910,-1440"/>
<text text-anchor="middle" x="827" y="-1418.3" font-family="Times,serif" font-size="14.00" fill="#000000">TradeConfigServlet:service</text>
</g>
<!-- 139748184626120&#45;&gt;139748197739208 -->
<g id="edge1" class="edge">
<title>139748184626120&#45;&gt;139748197739208</title>
<path fill="none" stroke="#000000" d="M743.9775,-1415.7432C729.0889,-1411.4977 714.633,-1404.9571 703,-1395 669.3281,-1366.1791 701.635,-1329.6561 667,-1302 609.7786,-1256.3087 577.2255,-1278 504,-1278 368,-1278 368,-1278 368,-1278 309.561,-1278 285.069,-1265.4807 251,-1218 206.8132,-1156.4185 193.0356,-924.0154 189.2679,-832.4281"/>
<polygon fill="#000000" stroke="#000000" points="192.7572,-832.0852 188.8662,-822.2308 185.7626,-832.3608 192.7572,-832.0852"/>
</g>
<!-- 139748197607352 -->
<g id="node33" class="node">
<title>139748197607352</title>
<polygon fill="none" stroke="#000000" points="543.5,-1418 464.5,-1418 464.5,-1382 543.5,-1382 543.5,-1418"/>
<text text-anchor="middle" x="504" y="-1396.3" font-family="Times,serif" font-size="14.00" fill="#000000">init_loop_2</text>
</g>
<!-- 139748197608976 -->
<g id="node41" class="node">
<title>139748197608976</title>
<ellipse fill="none" stroke="#000000" cx="640" cy="-767" rx="27" ry="27"/>
<text text-anchor="middle" x="640" y="-763.3" font-family="Times,serif" font-size="14.00" fill="#000000">p_5</text>
</g>
<!-- 139748197607352&#45;&gt;139748197608976 -->
<g id="edge33" class="edge">
<title>139748197607352&#45;&gt;139748197608976</title>
<path fill="none" stroke="#000000" d="M507.9235,-1381.7382C526.5884,-1294.8642 606.5447,-922.7149 632.108,-803.7324"/>
<polygon fill="#000000" stroke="#000000" points="635.5921,-804.1781 634.2708,-793.666 628.7483,-802.7076 635.5921,-804.1781"/>
</g>
<!-- 139748197737248 -->
<g id="node34" class="node">
<title>139748197737248</title>
<polygon fill="none" stroke="#000000" points="531,-785 477,-785 477,-749 531,-749 531,-785"/>
<text text-anchor="middle" x="504" y="-763.3" font-family="Times,serif" font-size="14.00" fill="#000000">loop_3</text>
</g>
<!-- 139748197737248&#45;&gt;139748197608976 -->
<g id="edge34" class="edge">
<title>139748197737248&#45;&gt;139748197608976</title>
<path fill="none" stroke="#000000" d="M531.1948,-767C551.6717,-767 579.9826,-767 602.5927,-767"/>
<polygon fill="#000000" stroke="#000000" points="602.8524,-770.5001 612.8524,-767 602.8523,-763.5001 602.8524,-770.5001"/>
</g>
<!-- 139748184449432 -->
<g id="node35" class="node">
<title>139748184449432</title>
<polygon fill="none" stroke="#000000" points="305,-789 251,-789 251,-753 305,-753 305,-789"/>
<text text-anchor="middle" x="278" y="-767.3" font-family="Times,serif" font-size="14.00" fill="#000000">skip_4</text>
</g>
<!-- 139748191371504 -->
<g id="node43" class="node">
<title>139748191371504</title>
<ellipse fill="none" stroke="#000000" cx="368" cy="-767" rx="27" ry="27"/>
<text text-anchor="middle" x="368" y="-763.3" font-family="Times,serif" font-size="14.00" fill="#000000">p_7</text>
</g>
<!-- 139748184449432&#45;&gt;139748191371504 -->
<g id="edge71" class="edge">
<title>139748184449432&#45;&gt;139748191371504</title>
<path fill="none" stroke="#000000" d="M305.003,-769.7999C313.1013,-769.4399 322.1306,-769.0386 330.7665,-768.6548"/>
<polygon fill="#000000" stroke="#000000" points="331.1814,-772.1399 341.0161,-768.1993 330.8705,-765.1468 331.1814,-772.1399"/>
</g>
<!-- 139748184449600 -->
<g id="node36" class="node">
<title>139748184449600</title>
<polygon fill="none" stroke="#000000" points="395,-1432 341,-1432 341,-1396 395,-1396 395,-1432"/>
<text text-anchor="middle" x="368" y="-1410.3" font-family="Times,serif" font-size="14.00" fill="#000000">skip_5</text>
</g>
<!-- 139748184449600&#45;&gt;139748197607688 -->
<g id="edge72" class="edge">
<title>139748184449600&#45;&gt;139748197607688</title>
<path fill="none" stroke="#000000" d="M395.0358,-1420.0101C443.4775,-1430.8764 543.1659,-1453.7082 577,-1465 586.6342,-1468.2153 596.8472,-1472.2879 606.1821,-1476.2887"/>
<polygon fill="#000000" stroke="#000000" points="604.9678,-1479.578 615.5312,-1480.3931 607.7817,-1473.1684 604.9678,-1479.578"/>
</g>
<!-- 139748191396024 -->
<g id="node37" class="node">
<title>139748191396024</title>
<polygon fill="none" stroke="#000000" points="305,-1502 251,-1502 251,-1466 305,-1466 305,-1502"/>
<text text-anchor="middle" x="278" y="-1480.3" font-family="Times,serif" font-size="14.00" fill="#000000">tau_1</text>
</g>
<!-- 139748197509888 -->
<g id="node39" class="node">
<title>139748197509888</title>
<ellipse fill="none" stroke="#000000" cx="368" cy="-1484" rx="27" ry="27"/>
<text text-anchor="middle" x="368" y="-1480.3" font-family="Times,serif" font-size="14.00" fill="#000000">p_3</text>
</g>
<!-- 139748191396024&#45;&gt;139748197509888 -->
<g id="edge74" class="edge">
<title>139748191396024&#45;&gt;139748197509888</title>
<path fill="none" stroke="#000000" d="M305.003,-1484C313.0277,-1484 321.9665,-1484 330.5309,-1484"/>
<polygon fill="#000000" stroke="#000000" points="330.7051,-1487.5001 340.705,-1484 330.705,-1480.5001 330.7051,-1487.5001"/>
</g>
<!-- 139748169775760 -->
<g id="node38" class="node">
<title>139748169775760</title>
<ellipse fill="#00ff00" stroke="#000000" cx="188" cy="-1484" rx="27" ry="27"/>
<text text-anchor="middle" x="188" y="-1480.3" font-family="Times,serif" font-size="14.00" fill="#000000">1</text>
</g>
<!-- 139748169775760&#45;&gt;139748191396024 -->
<g id="edge73" class="edge">
<title>139748169775760&#45;&gt;139748191396024</title>
<path fill="none" stroke="#000000" d="M215.003,-1484C223.0277,-1484 231.9665,-1484 240.5309,-1484"/>
<polygon fill="#000000" stroke="#000000" points="240.7051,-1487.5001 250.705,-1484 240.705,-1480.5001 240.7051,-1487.5001"/>
</g>
<!-- 139748197509888&#45;&gt;139748184449656 -->
<g id="edge35" class="edge">
<title>139748197509888&#45;&gt;139748184449656</title>
<path fill="none" stroke="#000000" d="M395.1948,-1485.5997C402.8798,-1486.0518 411.6682,-1486.5687 420.8445,-1487.1085"/>
<polygon fill="#000000" stroke="#000000" points="420.7319,-1490.6078 430.9202,-1487.7012 421.1431,-1483.6199 420.7319,-1490.6078"/>
</g>
<!-- 139748197509888&#45;&gt;139748197607352 -->
<g id="edge36" class="edge">
<title>139748197509888&#45;&gt;139748197607352</title>
<path fill="none" stroke="#000000" d="M391.0705,-1469.7505C411.5891,-1457.0773 441.9863,-1438.3026 466.0765,-1423.4233"/>
<polygon fill="#000000" stroke="#000000" points="467.9678,-1426.369 474.6365,-1418.1362 464.2893,-1420.4134 467.9678,-1426.369"/>
</g>
<!-- 139748197607688&#45;&gt;139748197608080 -->
<g id="edge37" class="edge">
<title>139748197607688&#45;&gt;139748197608080</title>
<path fill="none" stroke="#000000" d="M655.7365,-1513.9786C667.2219,-1528.3917 684.0484,-1546.4562 703,-1557 729.7362,-1571.8748 763.9535,-1578.5567 789.6686,-1581.5573"/>
<polygon fill="#000000" stroke="#000000" points="789.465,-1585.0548 799.7714,-1582.5997 790.1835,-1578.0918 789.465,-1585.0548"/>
</g>
<!-- 139748197608976&#45;&gt;139748184627352 -->
<g id="edge60" class="edge">
<title>139748197608976&#45;&gt;139748184627352</title>
<path fill="none" stroke="#000000" d="M619.4409,-749.0597C576.1314,-713.1821 470.9927,-636 368,-636 278,-636 278,-636 278,-636 208.3381,-636 135.6134,-677.4736 94.9824,-705.0289"/>
<polygon fill="#000000" stroke="#000000" points="92.8036,-702.2803 86.5708,-710.8479 96.786,-708.0371 92.8036,-702.2803"/>
</g>
<!-- 139748197608976&#45;&gt;139748169931128 -->
<g id="edge47" class="edge">
<title>139748197608976&#45;&gt;139748169931128</title>
<path fill="none" stroke="#000000" d="M641.1492,-794.313C645.9621,-902.8666 665.9869,-1299.8781 703,-1341 720.3592,-1360.2863 747.9905,-1367.5417 772.7685,-1369.7539"/>
<polygon fill="#000000" stroke="#000000" points="772.6093,-1373.2508 782.8132,-1370.3994 773.0583,-1366.2652 772.6093,-1373.2508"/>
</g>
<!-- 139748197608976&#45;&gt;139748191372960 -->
<g id="edge64" class="edge">
<title>139748197608976&#45;&gt;139748191372960</title>
<path fill="none" stroke="#000000" d="M641.4673,-794.14C647.2067,-895.8073 669.484,-1250.1819 703,-1287 710.6857,-1295.4429 720.3407,-1301.574 730.853,-1305.9834"/>
<polygon fill="#000000" stroke="#000000" points="729.6898,-1309.2846 740.2837,-1309.4298 732.0926,-1302.7099 729.6898,-1309.2846"/>
</g>
<!-- 139748197608976&#45;&gt;139748184625224 -->
<g id="edge62" class="edge">
<title>139748197608976&#45;&gt;139748184625224</title>
<path fill="none" stroke="#000000" d="M641.8727,-794.2115C648.6367,-888.9722 672.9952,-1200.4929 703,-1233 705.8194,-1236.0546 708.8968,-1238.8055 712.1788,-1241.2811"/>
<polygon fill="#000000" stroke="#000000" points="710.4454,-1244.3297 720.7279,-1246.8833 714.2821,-1238.4748 710.4454,-1244.3297"/>
</g>
<!-- 139748197608976&#45;&gt;139748184625840 -->
<g id="edge42" class="edge">
<title>139748197608976&#45;&gt;139748184625840</title>
<path fill="none" stroke="#000000" d="M642.3631,-794.0456C650.2187,-881.2103 676.4663,-1150.7494 703,-1179 712.5886,-1189.2091 725.0614,-1196.0128 738.3947,-1200.4729"/>
<polygon fill="#000000" stroke="#000000" points="737.6475,-1203.9003 748.2265,-1203.3215 739.5956,-1197.1768 737.6475,-1203.9003"/>
</g>
<!-- 139748197608976&#45;&gt;139748191373632 -->
<g id="edge46" class="edge">
<title>139748197608976&#45;&gt;139748191373632</title>
<path fill="none" stroke="#000000" d="M640.9829,-794.2304C644.2655,-869.4214 657.3693,-1077.497 703,-1125 707.6075,-1129.7965 712.8525,-1133.8373 718.5208,-1137.2338"/>
<polygon fill="#000000" stroke="#000000" points="717.262,-1140.5251 727.7455,-1142.0569 720.5054,-1134.3219 717.262,-1140.5251"/>
</g>
<!-- 139748197608976&#45;&gt;139748184625952 -->
<g id="edge51" class="edge">
<title>139748197608976&#45;&gt;139748184625952</title>
<path fill="none" stroke="#000000" d="M641.9155,-794.2037C647.1977,-861.2516 664.2263,-1031.8346 703,-1071 709.1276,-1077.1895 716.3196,-1082.1113 724.1011,-1086.0092"/>
<polygon fill="#000000" stroke="#000000" points="722.915,-1089.311 733.4782,-1090.1294 725.731,-1082.9024 722.915,-1089.311"/>
</g>
<!-- 139748197608976&#45;&gt;139748184625448 -->
<g id="edge67" class="edge">
<title>139748197608976&#45;&gt;139748184625448</title>
<path fill="none" stroke="#000000" d="M643.2199,-794.0556C650.682,-852.14 671.0014,-986.0237 703,-1017 703.9572,-1017.9266 704.9384,-1018.8246 705.9419,-1019.6946"/>
<polygon fill="#000000" stroke="#000000" points="703.9598,-1022.584 714.0443,-1025.8329 708.1869,-1017.0044 703.9598,-1022.584"/>
</g>
<!-- 139748197608976&#45;&gt;139748169930344 -->
<g id="edge53" class="edge">
<title>139748197608976&#45;&gt;139748169930344</title>
<path fill="none" stroke="#000000" d="M645.1568,-793.6761C654.978,-841.7322 677.6602,-939.9971 703,-963 716.1595,-974.9459 733.3381,-982.0442 750.6962,-986.1638"/>
<polygon fill="#000000" stroke="#000000" points="750.4086,-989.6777 760.9081,-988.2593 751.8157,-982.8206 750.4086,-989.6777"/>
</g>
<!-- 139748197608976&#45;&gt;139748184627912 -->
<g id="edge66" class="edge">
<title>139748197608976&#45;&gt;139748184627912</title>
<path fill="none" stroke="#000000" d="M644.3413,-793.649C651.0563,-825.9807 667.1454,-879.7791 703,-909 704.409,-910.1483 705.856,-911.2506 707.337,-912.3088"/>
<polygon fill="#000000" stroke="#000000" points="705.8431,-915.5055 716.1643,-917.898 709.5879,-909.5913 705.8431,-915.5055"/>
</g>
<!-- 139748197608976&#45;&gt;139748184627072 -->
<g id="edge44" class="edge">
<title>139748197608976&#45;&gt;139748184627072</title>
<path fill="none" stroke="#000000" d="M651.3487,-791.8002C661.8725,-811.959 679.455,-839.5089 703,-855 709.9453,-859.5696 717.5372,-863.3786 725.4343,-866.5521"/>
<polygon fill="#000000" stroke="#000000" points="724.2307,-869.8386 734.8244,-869.9931 726.6392,-863.266 724.2307,-869.8386"/>
</g>
<!-- 139748197608976&#45;&gt;139748184628976 -->
<g id="edge40" class="edge">
<title>139748197608976&#45;&gt;139748184628976</title>
<path fill="none" stroke="#000000" d="M662.9002,-781.3773C674.542,-788.1562 689.1303,-795.8641 703,-801 708.8981,-803.1841 715.0227,-805.2168 721.25,-807.1047"/>
<polygon fill="#000000" stroke="#000000" points="720.5237,-810.538 731.1024,-809.9533 722.468,-803.8134 720.5237,-810.538"/>
</g>
<!-- 139748197608976&#45;&gt;139748184627184 -->
<g id="edge41" class="edge">
<title>139748197608976&#45;&gt;139748184627184</title>
<path fill="none" stroke="#000000" d="M667.1914,-768.0179C688.4855,-768.815 719.2333,-769.966 748.0822,-771.0459"/>
<polygon fill="#000000" stroke="#000000" points="748.0646,-774.5476 758.1886,-771.4242 748.3266,-767.5525 748.0646,-774.5476"/>
</g>
<!-- 139748197608976&#45;&gt;139748184627632 -->
<g id="edge48" class="edge">
<title>139748197608976&#45;&gt;139748184627632</title>
<path fill="none" stroke="#000000" d="M665.5885,-758.2817C676.9717,-754.5578 690.5825,-750.3153 703,-747 712.0052,-744.5958 721.4204,-742.2488 730.8642,-740.0059"/>
<polygon fill="#000000" stroke="#000000" points="731.7584,-743.3913 740.6999,-737.7081 730.1659,-736.5748 731.7584,-743.3913"/>
</g>
<!-- 139748197608976&#45;&gt;139748184625560 -->
<g id="edge61" class="edge">
<title>139748197608976&#45;&gt;139748184625560</title>
<path fill="none" stroke="#000000" d="M653.8916,-743.7245C665.0725,-727.0404 682.305,-705.404 703,-693 705.8819,-691.2727 708.8605,-689.6553 711.914,-688.141"/>
<polygon fill="#000000" stroke="#000000" points="713.6124,-691.2141 721.2776,-683.9 710.7243,-684.8376 713.6124,-691.2141"/>
</g>
<!-- 139748197608976&#45;&gt;139748169931800 -->
<g id="edge56" class="edge">
<title>139748197608976&#45;&gt;139748169931800</title>
<path fill="none" stroke="#000000" d="M645.7368,-740.5865C653.5391,-711.1925 670.4232,-664.4876 703,-639 713.6819,-630.6427 726.3965,-624.7434 739.5487,-620.6033"/>
<polygon fill="#000000" stroke="#000000" points="740.5041,-623.9705 749.1801,-617.8895 738.6056,-617.2328 740.5041,-623.9705"/>
</g>
<!-- 139748197608976&#45;&gt;139748184628080 -->
<g id="edge55" class="edge">
<title>139748197608976&#45;&gt;139748184628080</title>
<path fill="none" stroke="#000000" d="M643.6205,-740.1909C651.659,-684.6797 672.7086,-559.9155 703,-531 707.9255,-526.2982 713.469,-522.3382 719.4095,-519.0094"/>
<polygon fill="#000000" stroke="#000000" points="720.9636,-522.1455 728.3715,-514.5709 717.8569,-515.8727 720.9636,-522.1455"/>
</g>
<!-- 139748197608976&#45;&gt;139748184629200 -->
<g id="edge49" class="edge">
<title>139748197608976&#45;&gt;139748184629200</title>
<path fill="none" stroke="#000000" d="M641.1974,-739.7772C644.9814,-666.636 659.1519,-468.3315 703,-423 709.2881,-416.4992 716.748,-411.389 724.8423,-407.3905"/>
<polygon fill="#000000" stroke="#000000" points="726.433,-410.5159 734.2219,-403.3337 723.6541,-404.0911 726.433,-410.5159"/>
</g>
<!-- 139748197608976&#45;&gt;139748184628304 -->
<g id="edge59" class="edge">
<title>139748197608976&#45;&gt;139748184628304</title>
<path fill="none" stroke="#000000" d="M640.4451,-739.9789C642.3416,-659.3598 652.211,-422.7916 703,-369 703.7752,-368.179 704.569,-367.38 705.3805,-366.6026"/>
<polygon fill="#000000" stroke="#000000" points="707.6703,-369.2505 713.1302,-360.1708 703.1998,-363.864 707.6703,-369.2505"/>
</g>
<!-- 139748197608976&#45;&gt;139748184628640 -->
<g id="edge63" class="edge">
<title>139748197608976&#45;&gt;139748184628640</title>
<path fill="none" stroke="#000000" d="M641.979,-739.9636C649.0033,-647.2865 673.8828,-346.4158 703,-315 703.7863,-314.1517 704.5925,-313.3267 705.4174,-312.5247"/>
<polygon fill="#000000" stroke="#000000" points="707.8995,-315.0112 713.3172,-305.9062 703.4041,-309.6454 707.8995,-315.0112"/>
</g>
<!-- 139748197608976&#45;&gt;139748184626848 -->
<g id="edge52" class="edge">
<title>139748197608976&#45;&gt;139748184626848</title>
<path fill="none" stroke="#000000" d="M641.5602,-739.9067C647.5511,-640.0761 670.3886,-296.7058 703,-261 703.7615,-260.1663 704.5422,-259.3551 705.341,-258.5659"/>
<polygon fill="#000000" stroke="#000000" points="707.6535,-261.1937 712.991,-252.0416 703.1111,-255.8676 707.6535,-261.1937"/>
</g>
<!-- 139748197608976&#45;&gt;139748184625896 -->
<g id="edge65" class="edge">
<title>139748197608976&#45;&gt;139748184625896</title>
<path fill="none" stroke="#000000" d="M641.2139,-739.9901C646.2395,-633.5602 666.8654,-247.0367 703,-207 709.5736,-199.7166 717.6122,-194.1501 726.4074,-189.9236"/>
<polygon fill="#000000" stroke="#000000" points="727.9418,-193.0757 735.8171,-185.9884 725.241,-186.6177 727.9418,-193.0757"/>
</g>
<!-- 139748197608976&#45;&gt;139748184628696 -->
<g id="edge45" class="edge">
<title>139748197608976&#45;&gt;139748184628696</title>
<path fill="none" stroke="#000000" d="M640.9415,-739.7321C645.0963,-626.5155 663.3698,-197.3438 703,-153 703.6423,-152.2813 704.2989,-151.5793 704.9691,-150.8935"/>
<polygon fill="#000000" stroke="#000000" points="707.4366,-153.3846 712.6385,-144.1547 702.8162,-148.1261 707.4366,-153.3846"/>
</g>
<!-- 139748197608976&#45;&gt;139748191374976 -->
<g id="edge39" class="edge">
<title>139748197608976&#45;&gt;139748191374976</title>
<path fill="none" stroke="#000000" d="M640.7009,-739.7901C644.0191,-620.5242 659.8279,-147.7082 703,-99 708.8296,-92.4229 715.8532,-87.2399 723.5572,-83.1763"/>
<polygon fill="#000000" stroke="#000000" points="725.2494,-86.2509 732.8828,-78.9037 722.3337,-79.887 725.2494,-86.2509"/>
</g>
<!-- 139748197608976&#45;&gt;139748191374304 -->
<g id="edge54" class="edge">
<title>139748197608976&#45;&gt;139748191374304</title>
<path fill="none" stroke="#000000" d="M640.4991,-739.7231C643.0388,-614.4457 656.2921,-98.0703 703,-45 714.803,-31.5892 731.5693,-23.9652 748.9707,-19.8075"/>
<polygon fill="#000000" stroke="#000000" points="750.1415,-23.1424 759.257,-17.7426 748.7637,-16.2793 750.1415,-23.1424"/>
</g>
<!-- 139748197608976&#45;&gt;139748191372064 -->
<g id="edge57" class="edge">
<title>139748197608976&#45;&gt;139748191372064</title>
<path fill="none" stroke="#000000" d="M640.4531,-794.3797C642.8022,-921.3331 655.3849,-1448.809 703,-1503 709.9429,-1510.9018 718.6089,-1516.7953 728.1138,-1521.1549"/>
<polygon fill="#000000" stroke="#000000" points="726.8698,-1524.4268 737.4549,-1524.8802 729.4628,-1517.9248 726.8698,-1524.4268"/>
</g>
<!-- 139748197608976&#45;&gt;139748184628752 -->
<g id="edge43" class="edge">
<title>139748197608976&#45;&gt;139748184628752</title>
<path fill="none" stroke="#000000" d="M645.8313,-740.4367C656.2922,-695.1807 679.3696,-605.9766 703,-585 704.5447,-583.6288 706.1426,-582.3218 707.7876,-581.0761"/>
<polygon fill="#000000" stroke="#000000" points="710.0015,-583.8067 716.3786,-575.3459 706.1172,-577.9832 710.0015,-583.8067"/>
</g>
<!-- 139748197608976&#45;&gt;139748191372288 -->
<g id="edge50" class="edge">
<title>139748197608976&#45;&gt;139748191372288</title>
<path fill="none" stroke="#000000" d="M640.6493,-794.3714C643.7695,-915.4568 658.9295,-1399.1819 703,-1449 704.6012,-1450.8101 706.2929,-1452.5146 708.0643,-1454.1193"/>
<polygon fill="#000000" stroke="#000000" points="706.2669,-1457.1554 716.3088,-1460.5334 710.5652,-1451.6305 706.2669,-1457.1554"/>
</g>
<!-- 139748197608976&#45;&gt;139748184625784 -->
<g id="edge58" class="edge">
<title>139748197608976&#45;&gt;139748184625784</title>
<path fill="none" stroke="#000000" d="M642.2291,-739.6128C648.0782,-674.6666 666.0311,-513.9866 703,-477 704.9421,-475.057 706.9891,-473.2392 709.1263,-471.5391"/>
<polygon fill="#000000" stroke="#000000" points="711.5527,-474.1164 717.7853,-465.5487 707.5702,-468.3597 711.5527,-474.1164"/>
</g>
<!-- 139748197608976&#45;&gt;139748184626120 -->
<g id="edge38" class="edge">
<title>139748197608976&#45;&gt;139748184626120</title>
<path fill="none" stroke="#000000" d="M640.8702,-794.1104C644.793,-908.6991 662.4357,-1349.5074 703,-1395 711.4461,-1404.4722 722.3691,-1411.0488 734.2269,-1415.5532"/>
<polygon fill="#000000" stroke="#000000" points="733.3146,-1418.9375 743.9076,-1418.7371 735.5017,-1412.2879 733.3146,-1418.9375"/>
</g>
<!-- 139748197739208&#45;&gt;139748184449432 -->
<g id="edge68" class="edge">
<title>139748197739208&#45;&gt;139748184449432</title>
<path fill="none" stroke="#000000" d="M214.5162,-787.929C222.8043,-785.7189 232.1048,-783.2387 240.9779,-780.8726"/>
<polygon fill="#000000" stroke="#000000" points="241.977,-784.2285 250.7375,-778.27 240.1733,-777.4649 241.977,-784.2285"/>
</g>
<!-- 139748197739208&#45;&gt;139748184449600 -->
<g id="edge69" class="edge">
<title>139748197739208&#45;&gt;139748184449600</title>
<path fill="none" stroke="#000000" d="M189.3462,-822.1049C194.9157,-929.8526 217.4497,-1324.1271 251,-1368 269.9615,-1392.7955 304.2523,-1404.2431 330.827,-1409.518"/>
<polygon fill="#000000" stroke="#000000" points="330.4911,-1413.0129 340.948,-1411.3091 331.711,-1406.12 330.4911,-1413.0129"/>
</g>
<!-- 139748191371504&#45;&gt;139748197737248 -->
<g id="edge70" class="edge">
<title>139748191371504&#45;&gt;139748197737248</title>
<path fill="none" stroke="#000000" d="M395.1948,-767C415.6717,-767 443.9826,-767 466.5927,-767"/>
<polygon fill="#000000" stroke="#000000" points="466.8524,-770.5001 476.8524,-767 466.8523,-763.5001 466.8524,-770.5001"/>
</g>
</g>
</svg>
