<?xml version="1.0" encoding="UTF-8" standalone="no"?>
<!DOCTYPE svg PUBLIC "-//W3C//DTD SVG 1.1//EN"
 "http://www.w3.org/Graphics/SVG/1.1/DTD/svg11.dtd">
<!-- Generated by graphviz version 2.40.1 (20161225.0304)
 -->
<!-- Title: alpha_classic_net_1585321096.6016037 Pages: 1 -->
<svg width="639pt" height="548pt"
 viewBox="0.00 0.00 639.00 548.00" xmlns="http://www.w3.org/2000/svg" xmlns:xlink="http://www.w3.org/1999/xlink">
<g id="graph0" class="graph" transform="scale(1 1) rotate(0) translate(4 544)">
<title>alpha_classic_net_1585321096.6016037</title>
<!-- 140531498611432 -->
<g id="node1" class="node">
<title>140531498611432</title>
<polygon fill="none" stroke="#000000" points="128.5,-36 35.5,-36 35.5,0 128.5,0 128.5,-36"/>
<text text-anchor="middle" x="82" y="-14.3" font-family="Times,serif" font-size="14.00" fill="#000000">FinancialUtils</text>
</g>
<!-- 140531498611040 -->
<g id="node2" class="node">
<title>140531498611040</title>
<polygon fill="none" stroke="#000000" points="329.5,-153 231.5,-153 231.5,-117 329.5,-117 329.5,-153"/>
<text text-anchor="middle" x="280.5" y="-131.3" font-family="Times,serif" font-size="14.00" fill="#000000">JSFLoginFilter</text>
</g>
<!-- 140531498612328 -->
<g id="node15" class="node">
<title>140531498612328</title>
<ellipse fill="none" stroke="#000000" cx="424" cy="-81" rx="27" ry="27"/>
<text text-anchor="middle" x="424" y="-77.3" font-family="Times,serif" font-size="14.00" fill="#000000">({&#39;OrdersAlertFilter&#39;, &#39;TradeWebContextListener&#39;, &#39;JSFLoginFilter&#39;}, {&#39;Root&#39;})</text>
</g>
<!-- 140531498611040&#45;&gt;140531498612328 -->
<g id="edge2" class="edge">
<title>140531498611040&#45;&gt;140531498612328</title>
<path fill="none" stroke="#000000" d="M329.6817,-119.2112C340.079,-115.6763 350.9452,-111.8336 361,-108 370.4902,-104.3817 380.6552,-100.1749 389.9902,-96.1741"/>
<polygon fill="#000000" stroke="#000000" points="391.5729,-99.3027 399.3546,-92.1128 388.7877,-92.8807 391.5729,-99.3027"/>
</g>
<!-- 140531498611824 -->
<g id="node3" class="node">
<title>140531498611824</title>
<polygon fill="none" stroke="#000000" points="109,-162 55,-162 55,-126 109,-126 109,-162"/>
<text text-anchor="middle" x="82" y="-140.3" font-family="Times,serif" font-size="14.00" fill="#000000">Log</text>
</g>
<!-- 140531498611376 -->
<g id="node4" class="node">
<title>140531498611376</title>
<polygon fill="none" stroke="#000000" points="164,-216 0,-216 0,-180 164,-180 164,-216"/>
<text text-anchor="middle" x="82" y="-194.3" font-family="Times,serif" font-size="14.00" fill="#000000">MarketSummaryDataBean</text>
</g>
<!-- 140531498611320 -->
<g id="node5" class="node">
<title>140531498611320</title>
<polygon fill="none" stroke="#000000" points="335.5,-99 225.5,-99 225.5,-63 335.5,-63 335.5,-99"/>
<text text-anchor="middle" x="280.5" y="-77.3" font-family="Times,serif" font-size="14.00" fill="#000000">OrdersAlertFilter</text>
</g>
<!-- 140531498611320&#45;&gt;140531498612328 -->
<g id="edge3" class="edge">
<title>140531498611320&#45;&gt;140531498612328</title>
<path fill="none" stroke="#000000" d="M335.5704,-81C352.6527,-81 371.0702,-81 386.6519,-81"/>
<polygon fill="#000000" stroke="#000000" points="386.935,-84.5001 396.935,-81 386.935,-77.5001 386.935,-84.5001"/>
</g>
<!-- 140531498611208 -->
<g id="node6" class="node">
<title>140531498611208</title>
<polygon fill="none" stroke="#000000" points="133.5,-270 30.5,-270 30.5,-234 133.5,-234 133.5,-270"/>
<text text-anchor="middle" x="82" y="-248.3" font-family="Times,serif" font-size="14.00" fill="#000000">QuoteDataBean</text>
</g>
<!-- 140531498611600 -->
<g id="node7" class="node">
<title>140531498611600</title>
<polygon fill="none" stroke="#000000" points="541,-99 487,-99 487,-63 541,-63 541,-99"/>
<text text-anchor="middle" x="514" y="-77.3" font-family="Times,serif" font-size="14.00" fill="#000000">Root</text>
</g>
<!-- 140531498612160 -->
<g id="node16" class="node">
<title>140531498612160</title>
<ellipse fill="#ffa500" stroke="#000000" cx="604" cy="-81" rx="27" ry="27"/>
</g>
<!-- 140531498611600&#45;&gt;140531498612160 -->
<g id="edge4" class="edge">
<title>140531498611600&#45;&gt;140531498612160</title>
<path fill="none" stroke="#000000" d="M541.003,-81C549.0277,-81 557.9665,-81 566.5309,-81"/>
<polygon fill="#000000" stroke="#000000" points="566.7051,-84.5001 576.705,-81 566.705,-77.5001 566.7051,-84.5001"/>
</g>
<!-- 140531498611768 -->
<g id="node8" class="node">
<title>140531498611768</title>
<polygon fill="none" stroke="#000000" points="124.5,-324 39.5,-324 39.5,-288 124.5,-288 124.5,-324"/>
<text text-anchor="middle" x="82" y="-302.3" font-family="Times,serif" font-size="14.00" fill="#000000">TradeAction</text>
</g>
<!-- 140531498611656 -->
<g id="node9" class="node">
<title>140531498611656</title>
<polygon fill="none" stroke="#000000" points="137,-378 27,-378 27,-342 137,-342 137,-378"/>
<text text-anchor="middle" x="82" y="-356.3" font-family="Times,serif" font-size="14.00" fill="#000000">TradeAppServlet</text>
</g>
<!-- 140531498611488 -->
<g id="node10" class="node">
<title>140531498611488</title>
<polygon fill="none" stroke="#000000" points="125,-432 39,-432 39,-396 125,-396 125,-432"/>
<text text-anchor="middle" x="82" y="-410.3" font-family="Times,serif" font-size="14.00" fill="#000000">TradeConfig</text>
</g>
<!-- 140531498611712 -->
<g id="node11" class="node">
<title>140531498611712</title>
<polygon fill="none" stroke="#000000" points="123,-486 41,-486 41,-450 123,-450 123,-486"/>
<text text-anchor="middle" x="82" y="-464.3" font-family="Times,serif" font-size="14.00" fill="#000000">TradeDirect</text>
</g>
<!-- 140531498611880 -->
<g id="node12" class="node">
<title>140531498611880</title>
<polygon fill="none" stroke="#000000" points="143.5,-540 20.5,-540 20.5,-504 143.5,-504 143.5,-540"/>
<text text-anchor="middle" x="82" y="-518.3" font-family="Times,serif" font-size="14.00" fill="#000000">TradeServletAction</text>
</g>
<!-- 140531498611544 -->
<g id="node13" class="node">
<title>140531498611544</title>
<polygon fill="none" stroke="#000000" points="361,-45 200,-45 200,-9 361,-9 361,-45"/>
<text text-anchor="middle" x="280.5" y="-23.3" font-family="Times,serif" font-size="14.00" fill="#000000">TradeWebContextListener</text>
</g>
<!-- 140531498611544&#45;&gt;140531498612328 -->
<g id="edge5" class="edge">
<title>140531498611544&#45;&gt;140531498612328</title>
<path fill="none" stroke="#000000" d="M336.1393,-45.0041C344.5103,-47.9025 353.0112,-50.9542 361,-54 370.4902,-57.6183 380.6552,-61.8251 389.9902,-65.8259"/>
<polygon fill="#000000" stroke="#000000" points="388.7877,-69.1193 399.3546,-69.8872 391.5729,-62.6973 388.7877,-69.1193"/>
</g>
<!-- 140531498611936 -->
<g id="node14" class="node">
<title>140531498611936</title>
<ellipse fill="#00ff00" stroke="#000000" cx="82" cy="-81" rx="27" ry="27"/>
<text text-anchor="middle" x="82" y="-77.3" font-family="Times,serif" font-size="14.00" fill="#000000">1</text>
</g>
<!-- 140531498611936&#45;&gt;140531498611040 -->
<g id="edge6" class="edge">
<title>140531498611936&#45;&gt;140531498611040</title>
<path fill="none" stroke="#000000" d="M108.3593,-88.1708C137.1117,-95.9926 184.0536,-108.7627 221.6606,-118.9933"/>
<polygon fill="#000000" stroke="#000000" points="220.9312,-122.422 231.4993,-121.6698 222.7687,-115.6675 220.9312,-122.422"/>
</g>
<!-- 140531498611936&#45;&gt;140531498611320 -->
<g id="edge7" class="edge">
<title>140531498611936&#45;&gt;140531498611320</title>
<path fill="none" stroke="#000000" d="M109.1844,-81C136.2437,-81 178.8088,-81 214.7401,-81"/>
<polygon fill="#000000" stroke="#000000" points="215.1655,-84.5001 225.1655,-81 215.1654,-77.5001 215.1655,-84.5001"/>
</g>
<!-- 140531498611936&#45;&gt;140531498611544 -->
<g id="edge8" class="edge">
<title>140531498611936&#45;&gt;140531498611544</title>
<path fill="none" stroke="#000000" d="M108.3593,-73.8292C132.8356,-67.1707 170.4934,-56.9262 204.3529,-47.7151"/>
<polygon fill="#000000" stroke="#000000" points="205.522,-51.0243 214.2526,-45.022 203.6845,-44.2698 205.522,-51.0243"/>
</g>
<!-- 140531498612328&#45;&gt;140531498611600 -->
<g id="edge1" class="edge">
<title>140531498612328&#45;&gt;140531498611600</title>
<path fill="none" stroke="#000000" d="M451.003,-81C459.0277,-81 467.9665,-81 476.5309,-81"/>
<polygon fill="#000000" stroke="#000000" points="476.7051,-84.5001 486.705,-81 476.705,-77.5001 476.7051,-84.5001"/>
</g>
</g>
</svg>
