<?xml version="1.0" encoding="UTF-8" standalone="no"?>
<!DOCTYPE svg PUBLIC "-//W3C//DTD SVG 1.1//EN"
 "http://www.w3.org/Graphics/SVG/1.1/DTD/svg11.dtd">
<!-- Generated by graphviz version 2.40.1 (20161225.0304)
 -->
<!-- Title: alpha_plus_net_1585315461.2075248 Pages: 1 -->
<svg width="613pt" height="248pt"
 viewBox="0.00 0.00 613.00 248.00" xmlns="http://www.w3.org/2000/svg" xmlns:xlink="http://www.w3.org/1999/xlink">
<g id="graph0" class="graph" transform="scale(1 1) rotate(0) translate(4 244)">
<title>alpha_plus_net_1585315461.2075248</title>
<!-- 140178132423512 -->
<g id="node1" class="node">
<title>140178132423512</title>
<polygon fill="none" stroke="#000000" points="301,-90 203,-90 203,-54 301,-54 301,-90"/>
<text text-anchor="middle" x="252" y="-68.3" font-family="Times,serif" font-size="14.00" fill="#000000">JSFLoginFilter</text>
</g>
<!-- 140178132425024 -->
<g id="node9" class="node">
<title>140178132425024</title>
<ellipse fill="none" stroke="#000000" cx="384" cy="-40" rx="27" ry="27"/>
<text text-anchor="middle" x="384" y="-36.3" font-family="Times,serif" font-size="14.00" fill="#000000">({&#39;OrdersAlertFilter&#39;, &#39;JSFLoginFilter&#39;}, {&#39;Root&#39;})</text>
</g>
<!-- 140178132423512&#45;&gt;140178132425024 -->
<g id="edge6" class="edge">
<title>140178132423512&#45;&gt;140178132425024</title>
<path fill="none" stroke="#000000" d="M301.1519,-60.0844C316.4876,-56.3666 333.1239,-52.3336 347.4372,-48.8637"/>
<polygon fill="#000000" stroke="#000000" points="348.5032,-52.2068 357.397,-46.4492 346.8539,-45.4038 348.5032,-52.2068"/>
</g>
<!-- 140178132425192 -->
<g id="node2" class="node">
<title>140178132425192</title>
<polygon fill="none" stroke="#000000" points="107.5,-127 53.5,-127 53.5,-91 107.5,-91 107.5,-127"/>
<text text-anchor="middle" x="80.5" y="-105.3" font-family="Times,serif" font-size="14.00" fill="#000000">Log</text>
</g>
<!-- 140178132424128 -->
<g id="node3" class="node">
<title>140178132424128</title>
<polygon fill="none" stroke="#000000" points="307,-36 197,-36 197,0 307,0 307,-36"/>
<text text-anchor="middle" x="252" y="-14.3" font-family="Times,serif" font-size="14.00" fill="#000000">OrdersAlertFilter</text>
</g>
<!-- 140178132424128&#45;&gt;140178132425024 -->
<g id="edge7" class="edge">
<title>140178132424128&#45;&gt;140178132425024</title>
<path fill="none" stroke="#000000" d="M307.2151,-27.2025C320.6822,-29.447 334.7651,-31.7942 347.1385,-33.8564"/>
<polygon fill="#000000" stroke="#000000" points="346.6396,-37.3215 357.0789,-35.5132 347.7904,-30.4167 346.6396,-37.3215"/>
</g>
<!-- 140178132423736 -->
<g id="node4" class="node">
<title>140178132423736</title>
<polygon fill="none" stroke="#000000" points="515,-58 461,-58 461,-22 515,-22 515,-58"/>
<text text-anchor="middle" x="488" y="-36.3" font-family="Times,serif" font-size="14.00" fill="#000000">Root</text>
</g>
<!-- 140178132423848 -->
<g id="node12" class="node">
<title>140178132423848</title>
<ellipse fill="#ffa500" stroke="#000000" cx="578" cy="-40" rx="27" ry="27"/>
</g>
<!-- 140178132423736&#45;&gt;140178132423848 -->
<g id="edge8" class="edge">
<title>140178132423736&#45;&gt;140178132423848</title>
<path fill="none" stroke="#000000" d="M515.003,-40C523.0277,-40 531.9665,-40 540.5309,-40"/>
<polygon fill="#000000" stroke="#000000" points="540.7051,-43.5001 550.705,-40 540.705,-36.5001 540.7051,-43.5001"/>
</g>
<!-- 140178132424240 -->
<g id="node5" class="node">
<title>140178132424240</title>
<polygon fill="none" stroke="#000000" points="123.5,-186 37.5,-186 37.5,-150 123.5,-150 123.5,-186"/>
<text text-anchor="middle" x="80.5" y="-164.3" font-family="Times,serif" font-size="14.00" fill="#000000">TradeConfig</text>
</g>
<!-- 140178132423960 -->
<g id="node10" class="node">
<title>140178132423960</title>
<ellipse fill="none" stroke="#000000" cx="252" cy="-198" rx="27" ry="27"/>
<text text-anchor="middle" x="252" y="-194.3" font-family="Times,serif" font-size="14.00" fill="#000000">({&#39;TradeConfig&#39;}, {&#39;TradeDirect&#39;})</text>
</g>
<!-- 140178132424240&#45;&gt;140178132423960 -->
<g id="edge9" class="edge">
<title>140178132424240&#45;&gt;140178132423960</title>
<path fill="none" stroke="#000000" d="M123.7767,-175.5703C151.9842,-180.5045 188.3951,-186.8738 215.2051,-191.5636"/>
<polygon fill="#000000" stroke="#000000" points="214.879,-195.0596 225.3325,-193.3351 216.0852,-188.1643 214.879,-195.0596"/>
</g>
<!-- 140178132424016 -->
<g id="node6" class="node">
<title>140178132424016</title>
<polygon fill="none" stroke="#000000" points="425,-211 343,-211 343,-175 425,-175 425,-211"/>
<text text-anchor="middle" x="384" y="-189.3" font-family="Times,serif" font-size="14.00" fill="#000000">TradeDirect</text>
</g>
<!-- 140178132424408 -->
<g id="node11" class="node">
<title>140178132424408</title>
<ellipse fill="none" stroke="#000000" cx="488" cy="-166" rx="27" ry="27"/>
<text text-anchor="middle" x="488" y="-162.3" font-family="Times,serif" font-size="14.00" fill="#000000">({&#39;TradeDirect&#39;}, {&#39;TradeConfig&#39;})</text>
</g>
<!-- 140178132424016&#45;&gt;140178132424408 -->
<g id="edge10" class="edge">
<title>140178132424016&#45;&gt;140178132424408</title>
<path fill="none" stroke="#000000" d="M425.1036,-182.3289C433.9998,-180.0193 443.3415,-177.594 452.0229,-175.3402"/>
<polygon fill="#000000" stroke="#000000" points="453.0449,-178.691 461.8445,-172.7904 451.2859,-171.9156 453.0449,-178.691"/>
</g>
<!-- 140178132423680 -->
<g id="node7" class="node">
<title>140178132423680</title>
<polygon fill="none" stroke="#000000" points="161,-240 0,-240 0,-204 161,-204 161,-240"/>
<text text-anchor="middle" x="80.5" y="-218.3" font-family="Times,serif" font-size="14.00" fill="#000000">TradeWebContextListener</text>
</g>
<!-- 140178132424744 -->
<g id="node8" class="node">
<title>140178132424744</title>
<ellipse fill="#00ff00" stroke="#000000" cx="80.5" cy="-37" rx="27" ry="27"/>
<text text-anchor="middle" x="80.5" y="-33.3" font-family="Times,serif" font-size="14.00" fill="#000000">1</text>
</g>
<!-- 140178132424744&#45;&gt;140178132423512 -->
<g id="edge4" class="edge">
<title>140178132424744&#45;&gt;140178132423512</title>
<path fill="none" stroke="#000000" d="M107.2969,-42.4688C130.1345,-47.1295 163.7852,-53.997 192.8899,-59.9367"/>
<polygon fill="#000000" stroke="#000000" points="192.4718,-63.4235 202.9698,-61.9938 193.8716,-56.5648 192.4718,-63.4235"/>
</g>
<!-- 140178132424744&#45;&gt;140178132424128 -->
<g id="edge5" class="edge">
<title>140178132424744&#45;&gt;140178132424128</title>
<path fill="none" stroke="#000000" d="M107.6747,-33.9894C128.9569,-31.6316 159.4601,-28.2522 186.9461,-25.2071"/>
<polygon fill="#000000" stroke="#000000" points="187.3595,-28.6828 196.9133,-24.1029 186.5887,-21.7254 187.3595,-28.6828"/>
</g>
<!-- 140178132425024&#45;&gt;140178132423736 -->
<g id="edge1" class="edge">
<title>140178132425024&#45;&gt;140178132423736</title>
<path fill="none" stroke="#000000" d="M411.0533,-40C423.1157,-40 437.5252,-40 450.5959,-40"/>
<polygon fill="#000000" stroke="#000000" points="450.7209,-43.5001 460.7209,-40 450.7208,-36.5001 450.7209,-43.5001"/>
</g>
<!-- 140178132423960&#45;&gt;140178132424016 -->
<g id="edge2" class="edge">
<title>140178132423960&#45;&gt;140178132424016</title>
<path fill="none" stroke="#000000" d="M279.0307,-196.9761C294.5591,-196.3879 314.5715,-195.6299 332.9511,-194.9337"/>
<polygon fill="#000000" stroke="#000000" points="333.0948,-198.4308 342.9551,-194.5547 332.8298,-191.4359 333.0948,-198.4308"/>
</g>
<!-- 140178132424408&#45;&gt;140178132424240 -->
<g id="edge3" class="edge">
<title>140178132424408&#45;&gt;140178132424240</title>
<path fill="none" stroke="#000000" d="M460.7144,-164.9071C409.176,-163.0022 293.9771,-159.5044 197,-162 176.3113,-162.5324 153.5765,-163.5958 133.7256,-164.6814"/>
<polygon fill="#000000" stroke="#000000" points="133.4216,-161.1929 123.6338,-165.2485 133.8144,-168.1819 133.4216,-161.1929"/>
</g>
</g>
</svg>
