<?xml version="1.0" encoding="UTF-8" standalone="no"?>
<!DOCTYPE svg PUBLIC "-//W3C//DTD SVG 1.1//EN"
 "http://www.w3.org/Graphics/SVG/1.1/DTD/svg11.dtd">
<!-- Generated by graphviz version 2.40.1 (20161225.0304)
 -->
<!-- Title: alpha_classic_net_1585315461.1877644 Pages: 1 -->
<svg width="561pt" height="269pt"
 viewBox="0.00 0.00 561.00 269.00" xmlns="http://www.w3.org/2000/svg" xmlns:xlink="http://www.w3.org/1999/xlink">
<g id="graph0" class="graph" transform="scale(1 1) rotate(0) translate(4 265)">
<title>alpha_classic_net_1585315461.1877644</title>
<!-- 140178132078488 -->
<g id="node1" class="node">
<title>140178132078488</title>
<polygon fill="none" stroke="#000000" points="251.5,-144 153.5,-144 153.5,-108 251.5,-108 251.5,-144"/>
<text text-anchor="middle" x="202.5" y="-122.3" font-family="Times,serif" font-size="14.00" fill="#000000">JSFLoginFilter</text>
</g>
<!-- 140178132423288 -->
<g id="node9" class="node">
<title>140178132423288</title>
<ellipse fill="none" stroke="#000000" cx="346" cy="-72" rx="27" ry="27"/>
<text text-anchor="middle" x="346" y="-68.3" font-family="Times,serif" font-size="14.00" fill="#000000">({&#39;OrdersAlertFilter&#39;, &#39;JSFLoginFilter&#39;, &#39;TradeWebContextListener&#39;}, {&#39;Root&#39;})</text>
</g>
<!-- 140178132078488&#45;&gt;140178132423288 -->
<g id="edge2" class="edge">
<title>140178132078488&#45;&gt;140178132423288</title>
<path fill="none" stroke="#000000" d="M251.6817,-110.2112C262.079,-106.6763 272.9452,-102.8336 283,-99 292.4902,-95.3817 302.6552,-91.1749 311.9902,-87.1741"/>
<polygon fill="#000000" stroke="#000000" points="313.5729,-90.3027 321.3546,-83.1128 310.7877,-83.8807 313.5729,-90.3027"/>
</g>
<!-- 140178132422840 -->
<g id="node2" class="node">
<title>140178132422840</title>
<polygon fill="none" stroke="#000000" points="70,-153 16,-153 16,-117 70,-117 70,-153"/>
<text text-anchor="middle" x="43" y="-131.3" font-family="Times,serif" font-size="14.00" fill="#000000">Log</text>
</g>
<!-- 140178132422728 -->
<g id="node3" class="node">
<title>140178132422728</title>
<polygon fill="none" stroke="#000000" points="257.5,-90 147.5,-90 147.5,-54 257.5,-54 257.5,-90"/>
<text text-anchor="middle" x="202.5" y="-68.3" font-family="Times,serif" font-size="14.00" fill="#000000">OrdersAlertFilter</text>
</g>
<!-- 140178132422728&#45;&gt;140178132423288 -->
<g id="edge3" class="edge">
<title>140178132422728&#45;&gt;140178132423288</title>
<path fill="none" stroke="#000000" d="M257.5704,-72C274.6527,-72 293.0702,-72 308.6519,-72"/>
<polygon fill="#000000" stroke="#000000" points="308.935,-75.5001 318.935,-72 308.935,-68.5001 308.935,-75.5001"/>
</g>
<!-- 140178132078544 -->
<g id="node4" class="node">
<title>140178132078544</title>
<polygon fill="none" stroke="#000000" points="463,-90 409,-90 409,-54 463,-54 463,-90"/>
<text text-anchor="middle" x="436" y="-68.3" font-family="Times,serif" font-size="14.00" fill="#000000">Root</text>
</g>
<!-- 140178132423120 -->
<g id="node10" class="node">
<title>140178132423120</title>
<ellipse fill="#ffa500" stroke="#000000" cx="526" cy="-72" rx="27" ry="27"/>
</g>
<!-- 140178132078544&#45;&gt;140178132423120 -->
<g id="edge4" class="edge">
<title>140178132078544&#45;&gt;140178132423120</title>
<path fill="none" stroke="#000000" d="M463.003,-72C471.0277,-72 479.9665,-72 488.5309,-72"/>
<polygon fill="#000000" stroke="#000000" points="488.7051,-75.5001 498.705,-72 488.705,-68.5001 488.7051,-75.5001"/>
</g>
<!-- 140178132422784 -->
<g id="node5" class="node">
<title>140178132422784</title>
<polygon fill="none" stroke="#000000" points="86,-207 0,-207 0,-171 86,-171 86,-207"/>
<text text-anchor="middle" x="43" y="-185.3" font-family="Times,serif" font-size="14.00" fill="#000000">TradeConfig</text>
</g>
<!-- 140178132078264 -->
<g id="node6" class="node">
<title>140178132078264</title>
<polygon fill="none" stroke="#000000" points="84,-261 2,-261 2,-225 84,-225 84,-261"/>
<text text-anchor="middle" x="43" y="-239.3" font-family="Times,serif" font-size="14.00" fill="#000000">TradeDirect</text>
</g>
<!-- 140178132078208 -->
<g id="node7" class="node">
<title>140178132078208</title>
<polygon fill="none" stroke="#000000" points="283,-36 122,-36 122,0 283,0 283,-36"/>
<text text-anchor="middle" x="202.5" y="-14.3" font-family="Times,serif" font-size="14.00" fill="#000000">TradeWebContextListener</text>
</g>
<!-- 140178132078208&#45;&gt;140178132423288 -->
<g id="edge5" class="edge">
<title>140178132078208&#45;&gt;140178132423288</title>
<path fill="none" stroke="#000000" d="M258.1393,-36.0041C266.5103,-38.9025 275.0112,-41.9542 283,-45 292.4902,-48.6183 302.6552,-52.8251 311.9902,-56.8259"/>
<polygon fill="#000000" stroke="#000000" points="310.7877,-60.1193 321.3546,-60.8872 313.5729,-53.6973 310.7877,-60.1193"/>
</g>
<!-- 140178132422896 -->
<g id="node8" class="node">
<title>140178132422896</title>
<ellipse fill="#00ff00" stroke="#000000" cx="43" cy="-72" rx="27" ry="27"/>
<text text-anchor="middle" x="43" y="-68.3" font-family="Times,serif" font-size="14.00" fill="#000000">1</text>
</g>
<!-- 140178132422896&#45;&gt;140178132078488 -->
<g id="edge6" class="edge">
<title>140178132422896&#45;&gt;140178132078488</title>
<path fill="none" stroke="#000000" d="M68.6039,-80.792C84.0597,-86.089 104.1528,-92.9572 122,-99 128.9113,-101.3401 136.1596,-103.7847 143.3562,-106.2059"/>
<polygon fill="#000000" stroke="#000000" points="142.5071,-109.6128 153.1011,-109.481 144.7372,-102.9775 142.5071,-109.6128"/>
</g>
<!-- 140178132422896&#45;&gt;140178132422728 -->
<g id="edge7" class="edge">
<title>140178132422896&#45;&gt;140178132422728</title>
<path fill="none" stroke="#000000" d="M70.057,-72C88.4834,-72 113.703,-72 137.193,-72"/>
<polygon fill="#000000" stroke="#000000" points="137.4801,-75.5001 147.4801,-72 137.48,-68.5001 137.4801,-75.5001"/>
</g>
<!-- 140178132422896&#45;&gt;140178132078208 -->
<g id="edge8" class="edge">
<title>140178132422896&#45;&gt;140178132078208</title>
<path fill="none" stroke="#000000" d="M68.6039,-63.208C84.0597,-57.911 104.1528,-51.0428 122,-45 127.4562,-43.1526 133.1224,-41.2401 138.8074,-39.3254"/>
<polygon fill="#000000" stroke="#000000" points="139.9968,-42.6181 148.3587,-36.112 137.7647,-35.9834 139.9968,-42.6181"/>
</g>
<!-- 140178132423288&#45;&gt;140178132078544 -->
<g id="edge1" class="edge">
<title>140178132423288&#45;&gt;140178132078544</title>
<path fill="none" stroke="#000000" d="M373.003,-72C381.0277,-72 389.9665,-72 398.5309,-72"/>
<polygon fill="#000000" stroke="#000000" points="398.7051,-75.5001 408.705,-72 398.705,-68.5001 398.7051,-75.5001"/>
</g>
</g>
</svg>
