<?xml version="1.0" encoding="UTF-8" standalone="no"?>
<!DOCTYPE svg PUBLIC "-//W3C//DTD SVG 1.1//EN"
 "http://www.w3.org/Graphics/SVG/1.1/DTD/svg11.dtd">
<!-- Generated by graphviz version 2.40.1 (20161225.0304)
 -->
<!-- Title: alpha_plus_net_1586496216.6576653 Pages: 1 -->
<svg width="759pt" height="439pt"
 viewBox="0.00 0.00 759.00 439.00" xmlns="http://www.w3.org/2000/svg" xmlns:xlink="http://www.w3.org/1999/xlink">
<g id="graph0" class="graph" transform="scale(1 1) rotate(0) translate(4 435)">
<title>alpha_plus_net_1586496216.6576653</title>
<!-- 139748197269456 -->
<g id="node1" class="node">
<title>139748197269456</title>
<polygon fill="none" stroke="#000000" points="128.5,-36 35.5,-36 35.5,0 128.5,0 128.5,-36"/>
<text text-anchor="middle" x="82" y="-14.3" font-family="Times,serif" font-size="14.00" fill="#000000">FinancialUtils</text>
</g>
<!-- 139748197269288 -->
<g id="node2" class="node">
<title>139748197269288</title>
<polygon fill="none" stroke="#000000" points="304,-100 206,-100 206,-64 304,-64 304,-100"/>
<text text-anchor="middle" x="255" y="-78.3" font-family="Times,serif" font-size="14.00" fill="#000000">JSFLoginFilter</text>
</g>
<!-- 139748197266600 -->
<g id="node15" class="node">
<title>139748197266600</title>
<ellipse fill="none" stroke="#000000" cx="389" cy="-39" rx="27" ry="27"/>
<text text-anchor="middle" x="389" y="-35.3" font-family="Times,serif" font-size="14.00" fill="#000000">({&#39;JSFLoginFilter&#39;, &#39;OrdersAlertFilter&#39;}, {&#39;Root&#39;})</text>
</g>
<!-- 139748197269288&#45;&gt;139748197266600 -->
<g id="edge12" class="edge">
<title>139748197269288&#45;&gt;139748197266600</title>
<path fill="none" stroke="#000000" d="M304.1358,-66.2326C320.4005,-61.0133 338.1804,-55.3078 353.2448,-50.4737"/>
<polygon fill="#000000" stroke="#000000" points="354.7359,-53.6711 363.1882,-47.2829 352.597,-47.0058 354.7359,-53.6711"/>
</g>
<!-- 139748197265816 -->
<g id="node3" class="node">
<title>139748197265816</title>
<polygon fill="none" stroke="#000000" points="109,-197 55,-197 55,-161 109,-161 109,-197"/>
<text text-anchor="middle" x="82" y="-175.3" font-family="Times,serif" font-size="14.00" fill="#000000">Log</text>
</g>
<!-- 139748197268840 -->
<g id="node4" class="node">
<title>139748197268840</title>
<polygon fill="none" stroke="#000000" points="164,-269 0,-269 0,-233 164,-233 164,-269"/>
<text text-anchor="middle" x="82" y="-247.3" font-family="Times,serif" font-size="14.00" fill="#000000">MarketSummaryDataBean</text>
</g>
<!-- 139748197266040 -->
<g id="node17" class="node">
<title>139748197266040</title>
<ellipse fill="none" stroke="#000000" cx="255" cy="-250" rx="27" ry="27"/>
<text text-anchor="middle" x="255" y="-246.3" font-family="Times,serif" font-size="14.00" fill="#000000">({&#39;TradeAction&#39;, &#39;TradeDirect&#39;, &#39;MarketSummaryDataBean&#39;}, {&#39;TradeConfig&#39;})</text>
</g>
<!-- 139748197268840&#45;&gt;139748197266040 -->
<g id="edge13" class="edge">
<title>139748197268840&#45;&gt;139748197266040</title>
<path fill="none" stroke="#000000" d="M164.1935,-250.5249C182.8938,-250.4168 201.8633,-250.3071 217.5941,-250.2162"/>
<polygon fill="#000000" stroke="#000000" points="217.9446,-253.7143 227.9242,-250.1565 217.9041,-246.7145 217.9446,-253.7143"/>
</g>
<!-- 139748197310536 -->
<g id="node5" class="node">
<title>139748197310536</title>
<polygon fill="none" stroke="#000000" points="310,-46 200,-46 200,-10 310,-10 310,-46"/>
<text text-anchor="middle" x="255" y="-24.3" font-family="Times,serif" font-size="14.00" fill="#000000">OrdersAlertFilter</text>
</g>
<!-- 139748197310536&#45;&gt;139748197266600 -->
<g id="edge14" class="edge">
<title>139748197310536&#45;&gt;139748197266600</title>
<path fill="none" stroke="#000000" d="M310.2766,-32.5376C324.2447,-33.6843 338.9144,-34.8885 351.7545,-35.9425"/>
<polygon fill="#000000" stroke="#000000" points="351.8015,-39.4581 362.0544,-36.788 352.3743,-32.4815 351.8015,-39.4581"/>
</g>
<!-- 139748197269232 -->
<g id="node6" class="node">
<title>139748197269232</title>
<polygon fill="none" stroke="#000000" points="661,-202 558,-202 558,-166 661,-166 661,-202"/>
<text text-anchor="middle" x="609.5" y="-180.3" font-family="Times,serif" font-size="14.00" fill="#000000">QuoteDataBean</text>
</g>
<!-- 139748197266152 -->
<g id="node16" class="node">
<title>139748197266152</title>
<ellipse fill="none" stroke="#000000" cx="724" cy="-211" rx="27" ry="27"/>
<text text-anchor="middle" x="724" y="-207.3" font-family="Times,serif" font-size="14.00" fill="#000000">({&#39;TradeAction&#39;, &#39;QuoteDataBean&#39;, &#39;TradeDirect&#39;}, {&#39;TradeConfig&#39;})</text>
</g>
<!-- 139748197269232&#45;&gt;139748197266152 -->
<g id="edge15" class="edge">
<title>139748197269232&#45;&gt;139748197266152</title>
<path fill="none" stroke="#000000" d="M661.0557,-196.1573C670.0021,-198.2669 679.1358,-200.4207 687.5712,-202.4098"/>
<polygon fill="#000000" stroke="#000000" points="686.9185,-205.8518 697.4549,-204.7404 688.5251,-199.0387 686.9185,-205.8518"/>
</g>
<!-- 139748197269176 -->
<g id="node7" class="node">
<title>139748197269176</title>
<polygon fill="none" stroke="#000000" points="522,-57 468,-57 468,-21 522,-21 522,-57"/>
<text text-anchor="middle" x="495" y="-35.3" font-family="Times,serif" font-size="14.00" fill="#000000">Root</text>
</g>
<!-- 139748197268448 -->
<g id="node20" class="node">
<title>139748197268448</title>
<ellipse fill="#ffa500" stroke="#000000" cx="609.5" cy="-39" rx="27" ry="27"/>
</g>
<!-- 139748197269176&#45;&gt;139748197268448 -->
<g id="edge16" class="edge">
<title>139748197269176&#45;&gt;139748197268448</title>
<path fill="none" stroke="#000000" d="M522.1349,-39C536.9989,-39 555.6492,-39 571.8969,-39"/>
<polygon fill="#000000" stroke="#000000" points="572.1631,-42.5001 582.1631,-39 572.163,-35.5001 572.1631,-42.5001"/>
</g>
<!-- 139748197269400 -->
<g id="node8" class="node">
<title>139748197269400</title>
<polygon fill="none" stroke="#000000" points="652,-256 567,-256 567,-220 652,-220 652,-256"/>
<text text-anchor="middle" x="609.5" y="-234.3" font-family="Times,serif" font-size="14.00" fill="#000000">TradeAction</text>
</g>
<!-- 139748197269400&#45;&gt;139748197266152 -->
<g id="edge17" class="edge">
<title>139748197269400&#45;&gt;139748197266152</title>
<path fill="none" stroke="#000000" d="M652.1356,-227.9462C663.8188,-225.1912 676.3722,-222.231 687.6664,-219.5677"/>
<polygon fill="#000000" stroke="#000000" points="688.6938,-222.9215 697.6236,-217.2198 687.0872,-216.1084 688.6938,-222.9215"/>
</g>
<!-- 139748197269400&#45;&gt;139748197266040 -->
<g id="edge18" class="edge">
<title>139748197269400&#45;&gt;139748197266040</title>
<path fill="none" stroke="#000000" d="M569.8858,-219.9117C565.6633,-217.2169 561.6017,-214.2417 558,-211 536.5605,-191.7037 547.4314,-170.6105 522,-157 500.8398,-145.6754 491.4934,-152.0948 468,-157 400.2083,-171.1544 327.5769,-208.1313 287.0662,-230.9667"/>
<polygon fill="#000000" stroke="#000000" points="285.1503,-228.0302 278.2016,-236.0281 288.6212,-234.1091 285.1503,-228.0302"/>
</g>
<!-- 139748197268896 -->
<g id="node9" class="node">
<title>139748197268896</title>
<polygon fill="none" stroke="#000000" points="137,-323 27,-323 27,-287 137,-287 137,-323"/>
<text text-anchor="middle" x="82" y="-301.3" font-family="Times,serif" font-size="14.00" fill="#000000">TradeAppServlet</text>
</g>
<!-- 139748197269120 -->
<g id="node10" class="node">
<title>139748197269120</title>
<polygon fill="none" stroke="#000000" points="432,-265 346,-265 346,-229 432,-229 432,-265"/>
<text text-anchor="middle" x="389" y="-243.3" font-family="Times,serif" font-size="14.00" fill="#000000">TradeConfig</text>
</g>
<!-- 139748197267328 -->
<g id="node18" class="node">
<title>139748197267328</title>
<ellipse fill="none" stroke="#000000" cx="495" cy="-265" rx="27" ry="27"/>
<text text-anchor="middle" x="495" y="-261.3" font-family="Times,serif" font-size="14.00" fill="#000000">({&#39;TradeConfig&#39;}, {&#39;TradeAction&#39;, &#39;TradeDirect&#39;, &#39;MarketSummaryDataBean&#39;})</text>
</g>
<!-- 139748197269120&#45;&gt;139748197267328 -->
<g id="edge19" class="edge">
<title>139748197269120&#45;&gt;139748197267328</title>
<path fill="none" stroke="#000000" d="M432.1143,-254.3213C440.8346,-255.8021 449.9251,-257.3458 458.3959,-258.7842"/>
<polygon fill="#000000" stroke="#000000" points="457.9095,-262.2516 468.3544,-260.4753 459.0815,-255.3504 457.9095,-262.2516"/>
</g>
<!-- 139748197267104 -->
<g id="node19" class="node">
<title>139748197267104</title>
<ellipse fill="none" stroke="#000000" cx="495" cy="-193" rx="27" ry="27"/>
<text text-anchor="middle" x="495" y="-189.3" font-family="Times,serif" font-size="14.00" fill="#000000">({&#39;TradeConfig&#39;}, {&#39;TradeAction&#39;, &#39;TradeDirect&#39;, &#39;QuoteDataBean&#39;})</text>
</g>
<!-- 139748197269120&#45;&gt;139748197267104 -->
<g id="edge20" class="edge">
<title>139748197269120&#45;&gt;139748197267104</title>
<path fill="none" stroke="#000000" d="M424.5913,-228.8686C436.5508,-222.776 449.8405,-216.0058 461.6235,-210.0031"/>
<polygon fill="#000000" stroke="#000000" points="463.3744,-213.0392 470.696,-205.3813 460.1968,-206.802 463.3744,-213.0392"/>
</g>
<!-- 139748197268952 -->
<g id="node11" class="node">
<title>139748197268952</title>
<polygon fill="none" stroke="#000000" points="650.5,-310 568.5,-310 568.5,-274 650.5,-274 650.5,-310"/>
<text text-anchor="middle" x="609.5" y="-288.3" font-family="Times,serif" font-size="14.00" fill="#000000">TradeDirect</text>
</g>
<!-- 139748197268952&#45;&gt;139748197266152 -->
<g id="edge21" class="edge">
<title>139748197268952&#45;&gt;139748197266152</title>
<path fill="none" stroke="#000000" d="M646.3904,-273.9653C651.4059,-271.1387 656.4041,-268.1156 661,-265 673.4735,-256.544 686.2725,-245.9819 697.0483,-236.4469"/>
<polygon fill="#000000" stroke="#000000" points="699.4167,-239.0241 704.5035,-229.7303 694.7313,-233.8234 699.4167,-239.0241"/>
</g>
<!-- 139748197268952&#45;&gt;139748197266040 -->
<g id="edge22" class="edge">
<title>139748197268952&#45;&gt;139748197266040</title>
<path fill="none" stroke="#000000" d="M568.1726,-297.1293C553.6051,-298.7041 537.0986,-300.2255 522,-301 498.0315,-302.2294 491.8578,-303.6084 468,-301 412.7948,-294.9642 399.971,-287.0837 346,-274 327.8534,-269.6009 307.7737,-264.3466 291.1032,-259.8773"/>
<polygon fill="#000000" stroke="#000000" points="291.7781,-256.4344 281.2118,-257.2107 289.956,-263.1931 291.7781,-256.4344"/>
</g>
<!-- 139748197269344 -->
<g id="node12" class="node">
<title>139748197269344</title>
<polygon fill="none" stroke="#000000" points="143.5,-377 20.5,-377 20.5,-341 143.5,-341 143.5,-377"/>
<text text-anchor="middle" x="82" y="-355.3" font-family="Times,serif" font-size="14.00" fill="#000000">TradeServletAction</text>
</g>
<!-- 139748197310928 -->
<g id="node13" class="node">
<title>139748197310928</title>
<polygon fill="none" stroke="#000000" points="162.5,-431 1.5,-431 1.5,-395 162.5,-395 162.5,-431"/>
<text text-anchor="middle" x="82" y="-409.3" font-family="Times,serif" font-size="14.00" fill="#000000">TradeWebContextListener</text>
</g>
<!-- 139748197267496 -->
<g id="node14" class="node">
<title>139748197267496</title>
<ellipse fill="#00ff00" stroke="#000000" cx="82" cy="-81" rx="27" ry="27"/>
<text text-anchor="middle" x="82" y="-77.3" font-family="Times,serif" font-size="14.00" fill="#000000">1</text>
</g>
<!-- 139748197267496&#45;&gt;139748197269288 -->
<g id="edge10" class="edge">
<title>139748197267496&#45;&gt;139748197269288</title>
<path fill="none" stroke="#000000" d="M109.0313,-81.1563C132.1537,-81.2899 166.2643,-81.4871 195.6977,-81.6572"/>
<polygon fill="#000000" stroke="#000000" points="195.8678,-85.1582 205.8879,-81.7161 195.9083,-78.1583 195.8678,-85.1582"/>
</g>
<!-- 139748197267496&#45;&gt;139748197310536 -->
<g id="edge11" class="edge">
<title>139748197267496&#45;&gt;139748197310536</title>
<path fill="none" stroke="#000000" d="M107.8998,-73.0654C129.5697,-66.4266 161.4367,-56.6639 189.9747,-47.9211"/>
<polygon fill="#000000" stroke="#000000" points="191.3717,-51.1537 199.9079,-44.8779 189.3212,-44.4607 191.3717,-51.1537"/>
</g>
<!-- 139748197266600&#45;&gt;139748197269176 -->
<g id="edge1" class="edge">
<title>139748197266600&#45;&gt;139748197269176</title>
<path fill="none" stroke="#000000" d="M416.0225,-39C428.6333,-39 443.8509,-39 457.5484,-39"/>
<polygon fill="#000000" stroke="#000000" points="457.6583,-42.5001 467.6582,-39 457.6582,-35.5001 457.6583,-42.5001"/>
</g>
<!-- 139748197266152&#45;&gt;139748197269120 -->
<g id="edge2" class="edge">
<title>139748197266152&#45;&gt;139748197269120</title>
<path fill="none" stroke="#000000" d="M706.7894,-190.1848C695.2719,-177.9629 678.9693,-163.6473 661,-157 580.5503,-127.2397 546.1399,-121.6166 468,-157 439.662,-169.8321 417.4625,-198.4089 403.9065,-219.9422"/>
<polygon fill="#000000" stroke="#000000" points="400.8073,-218.3037 398.6332,-228.673 406.7992,-221.9227 400.8073,-218.3037"/>
</g>
<!-- 139748197266040&#45;&gt;139748197269120 -->
<g id="edge3" class="edge">
<title>139748197266040&#45;&gt;139748197269120</title>
<path fill="none" stroke="#000000" d="M282.1169,-249.3929C297.5386,-249.0476 317.3926,-248.6032 335.7952,-248.1912"/>
<polygon fill="#000000" stroke="#000000" points="335.9131,-251.6895 345.8322,-247.9664 335.7563,-244.6912 335.9131,-251.6895"/>
</g>
<!-- 139748197267328&#45;&gt;139748197268840 -->
<g id="edge4" class="edge">
<title>139748197267328&#45;&gt;139748197268840</title>
<path fill="none" stroke="#000000" d="M468.4168,-270.6963C416.549,-280.9721 298.3216,-300.2743 200,-286 189.2264,-284.4359 168.3351,-278.572 147.087,-272.0791"/>
<polygon fill="#000000" stroke="#000000" points="147.922,-268.6738 137.3344,-269.0647 145.8549,-275.3617 147.922,-268.6738"/>
</g>
<!-- 139748197267328&#45;&gt;139748197269400 -->
<g id="edge5" class="edge">
<title>139748197267328&#45;&gt;139748197269400</title>
<path fill="none" stroke="#000000" d="M521.5564,-258.7378C532.1905,-256.2302 544.8307,-253.2495 557.1643,-250.3412"/>
<polygon fill="#000000" stroke="#000000" points="558.0161,-253.7364 566.9458,-248.0346 556.4094,-246.9233 558.0161,-253.7364"/>
</g>
<!-- 139748197267328&#45;&gt;139748197268952 -->
<g id="edge6" class="edge">
<title>139748197267328&#45;&gt;139748197268952</title>
<path fill="none" stroke="#000000" d="M521.5564,-271.2622C532.5033,-273.8436 545.5759,-276.9262 558.2517,-279.9153"/>
<polygon fill="#000000" stroke="#000000" points="557.7478,-283.3924 568.2842,-282.281 559.3545,-276.5792 557.7478,-283.3924"/>
</g>
<!-- 139748197267104&#45;&gt;139748197269232 -->
<g id="edge7" class="edge">
<title>139748197267104&#45;&gt;139748197269232</title>
<path fill="none" stroke="#000000" d="M522.1349,-190.8671C529.9188,-190.2553 538.7409,-189.5618 547.7126,-188.8566"/>
<polygon fill="#000000" stroke="#000000" points="548.1632,-192.3321 557.8581,-188.0592 547.6146,-185.3536 548.1632,-192.3321"/>
</g>
<!-- 139748197267104&#45;&gt;139748197269400 -->
<g id="edge8" class="edge">
<title>139748197267104&#45;&gt;139748197269400</title>
<path fill="none" stroke="#000000" d="M520.4113,-202.987C531.2265,-207.2375 544.2646,-212.3616 556.9884,-217.3623"/>
<polygon fill="#000000" stroke="#000000" points="556.0278,-220.7453 566.6151,-221.1457 558.5883,-214.2304 556.0278,-220.7453"/>
</g>
<!-- 139748197267104&#45;&gt;139748197268952 -->
<g id="edge9" class="edge">
<title>139748197267104&#45;&gt;139748197268952</title>
<path fill="none" stroke="#000000" d="M510.8334,-215.0867C522.6069,-230.4231 539.7363,-250.607 558,-265 559.3901,-266.0955 560.8312,-267.1675 562.31,-268.2142"/>
<polygon fill="#000000" stroke="#000000" points="560.8033,-271.4089 571.0967,-273.9183 564.6149,-265.5376 560.8033,-271.4089"/>
</g>
</g>
</svg>
