<?xml version="1.0" encoding="UTF-8" standalone="no"?>
<!DOCTYPE svg PUBLIC "-//W3C//DTD SVG 1.1//EN"
 "http://www.w3.org/Graphics/SVG/1.1/DTD/svg11.dtd">
<!-- Generated by graphviz version 2.40.1 (20161225.0304)
 -->
<!-- Title: %3 Pages: 1 -->
<svg width="1921pt" height="443pt"
 viewBox="0.00 0.00 1921.00 442.86" xmlns="http://www.w3.org/2000/svg" xmlns:xlink="http://www.w3.org/1999/xlink">
<g id="graph0" class="graph" transform="scale(1 1) rotate(0) translate(4 438.856)">
<title>%3</title>
<!-- 140543361025976 -->
<g id="node1" class="node">
<title>140543361025976</title>
<polygon fill="none" stroke="#000000" points="996,-210 898,-210 898,-174 996,-174 996,-210"/>
<text text-anchor="middle" x="947" y="-188.3" font-family="Times,serif" font-size="14.00" fill="#000000">JSFLoginFilter</text>
</g>
<!-- 140543361027264 -->
<g id="node39" class="node">
<title>140543361027264</title>
<ellipse fill="none" stroke="#000000" cx="1059" cy="-167" rx="27" ry="27"/>
<text text-anchor="middle" x="1059" y="-163.3" font-family="Times,serif" font-size="14.00" fill="#000000">splace_in_Root_0</text>
</g>
<!-- 140543361025976&#45;&gt;140543361027264 -->
<g id="edge1" class="edge">
<title>140543361025976&#45;&gt;140543361027264</title>
<path fill="none" stroke="#000000" d="M996.1248,-181.0346C1004.9834,-179.0573 1014.075,-177.0279 1022.4947,-175.1485"/>
<polygon fill="#000000" stroke="#000000" points="1023.3737,-178.5385 1032.371,-172.944 1021.8487,-171.7066 1023.3737,-178.5385"/>
</g>
<!-- 140543361025752 -->
<g id="node2" class="node">
<title>140543361025752</title>
<polygon fill="none" stroke="#000000" points="1643,-254 1589,-254 1589,-218 1643,-218 1643,-254"/>
<text text-anchor="middle" x="1616" y="-232.3" font-family="Times,serif" font-size="14.00" fill="#000000">Log</text>
</g>
<!-- 140543361026368 -->
<g id="node44" class="node">
<title>140543361026368</title>
<ellipse fill="none" stroke="#000000" cx="1706" cy="-270" rx="27" ry="27"/>
<text text-anchor="middle" x="1706" y="-266.3" font-family="Times,serif" font-size="14.00" fill="#000000">splace_in_TradeWebContextListener_0</text>
</g>
<!-- 140543361025752&#45;&gt;140543361026368 -->
<g id="edge2" class="edge">
<title>140543361025752&#45;&gt;140543361026368</title>
<path fill="none" stroke="#000000" d="M1643.003,-246.2011C1651.8415,-249.5401 1661.7891,-253.2981 1671.1238,-256.8245"/>
<polygon fill="#000000" stroke="#000000" points="1669.9657,-260.1284 1680.5574,-260.3883 1672.4396,-253.5801 1669.9657,-260.1284"/>
</g>
<!-- 140543361025864 -->
<g id="node3" class="node">
<title>140543361025864</title>
<polygon fill="none" stroke="#000000" points="1257.5,-46 1147.5,-46 1147.5,-10 1257.5,-10 1257.5,-46"/>
<text text-anchor="middle" x="1202.5" y="-24.3" font-family="Times,serif" font-size="14.00" fill="#000000">OrdersAlertFilter</text>
</g>
<!-- 140543360879304 -->
<g id="node28" class="node">
<title>140543360879304</title>
<ellipse fill="none" stroke="#000000" cx="27" cy="-156" rx="27" ry="27"/>
<text text-anchor="middle" x="27" y="-152.3" font-family="Times,serif" font-size="14.00" fill="#000000">intplace_OrdersAlertFilter</text>
</g>
<!-- 140543361025864&#45;&gt;140543360879304 -->
<g id="edge3" class="edge">
<title>140543361025864&#45;&gt;140543360879304</title>
<path fill="none" stroke="#000000" d="M1147.3682,-18.4423C1095.7509,-10.3309 1016.3891,0 947,0 207,0 207,0 207,0 132.3708,0 73.5089,-77.5262 45.2717,-123.2735"/>
<polygon fill="#000000" stroke="#000000" points="42.1971,-121.5946 40.037,-131.9669 48.1939,-125.2056 42.1971,-121.5946"/>
</g>
<!-- 140543361025696 -->
<g id="node4" class="node">
<title>140543361025696</title>
<polygon fill="none" stroke="#000000" points="1823,-165 1769,-165 1769,-129 1823,-129 1823,-165"/>
<text text-anchor="middle" x="1796" y="-143.3" font-family="Times,serif" font-size="14.00" fill="#000000">Root</text>
</g>
<!-- 140543361025584 -->
<g id="node46" class="node">
<title>140543361025584</title>
<ellipse fill="#ffa500" stroke="#000000" cx="1886" cy="-147" rx="27" ry="27"/>
</g>
<!-- 140543361025696&#45;&gt;140543361025584 -->
<g id="edge4" class="edge">
<title>140543361025696&#45;&gt;140543361025584</title>
<path fill="none" stroke="#000000" d="M1823.003,-147C1831.0277,-147 1839.9665,-147 1848.5309,-147"/>
<polygon fill="#000000" stroke="#000000" points="1848.7051,-150.5001 1858.705,-147 1848.705,-143.5001 1848.7051,-150.5001"/>
</g>
<!-- 140543361025920 -->
<g id="node5" class="node">
<title>140543361025920</title>
<polygon fill="none" stroke="#000000" points="380,-91 270,-91 270,-55 380,-55 380,-91"/>
<text text-anchor="middle" x="325" y="-69.3" font-family="Times,serif" font-size="14.00" fill="#000000">TradeAppServlet</text>
</g>
<!-- 140543360877568 -->
<g id="node37" class="node">
<title>140543360877568</title>
<ellipse fill="none" stroke="#000000" cx="443" cy="-61" rx="27" ry="27"/>
<text text-anchor="middle" x="443" y="-57.3" font-family="Times,serif" font-size="14.00" fill="#000000">splace_in_OrdersAlertFilter_0</text>
</g>
<!-- 140543361025920&#45;&gt;140543360877568 -->
<g id="edge5" class="edge">
<title>140543361025920&#45;&gt;140543360877568</title>
<path fill="none" stroke="#000000" d="M380.1996,-67.3865C388.972,-66.4944 397.8568,-65.5908 406.0742,-64.7552"/>
<polygon fill="#000000" stroke="#000000" points="406.4725,-68.2328 416.0671,-63.7389 405.7643,-61.2687 406.4725,-68.2328"/>
</g>
<!-- 140543361025808 -->
<g id="node6" class="node">
<title>140543361025808</title>
<polygon fill="none" stroke="#000000" points="592,-216 506,-216 506,-180 592,-180 592,-216"/>
<text text-anchor="middle" x="549" y="-194.3" font-family="Times,serif" font-size="14.00" fill="#000000">TradeConfig</text>
</g>
<!-- 140543360879192 -->
<g id="node29" class="node">
<title>140543360879192</title>
<ellipse fill="none" stroke="#000000" cx="655" cy="-198" rx="27" ry="27"/>
<text text-anchor="middle" x="655" y="-194.3" font-family="Times,serif" font-size="14.00" fill="#000000">intplace_TradeConfig</text>
</g>
<!-- 140543361025808&#45;&gt;140543360879192 -->
<g id="edge6" class="edge">
<title>140543361025808&#45;&gt;140543360879192</title>
<path fill="none" stroke="#000000" d="M592.1143,-198C600.5776,-198 609.3896,-198 617.6453,-198"/>
<polygon fill="#000000" stroke="#000000" points="617.7368,-201.5001 627.7368,-198 617.7368,-194.5001 617.7368,-201.5001"/>
</g>
<!-- 140543361024352 -->
<g id="node7" class="node">
<title>140543361024352</title>
<polygon fill="none" stroke="#000000" points="1283,-268 1122,-268 1122,-232 1283,-232 1283,-268"/>
<text text-anchor="middle" x="1202.5" y="-246.3" font-family="Times,serif" font-size="14.00" fill="#000000">TradeWebContextListener</text>
</g>
<!-- 140543360878240 -->
<g id="node30" class="node">
<title>140543360878240</title>
<ellipse fill="none" stroke="#000000" cx="1346" cy="-235" rx="27" ry="27"/>
<text text-anchor="middle" x="1346" y="-231.3" font-family="Times,serif" font-size="14.00" fill="#000000">intplace_TradeWebContextListener</text>
</g>
<!-- 140543361024352&#45;&gt;140543360878240 -->
<g id="edge7" class="edge">
<title>140543361024352&#45;&gt;140543360878240</title>
<path fill="none" stroke="#000000" d="M1283.0588,-241.5792C1292.032,-240.6412 1300.8187,-239.7228 1308.8458,-238.8837"/>
<polygon fill="#000000" stroke="#000000" points="1309.3307,-242.3522 1318.9126,-237.8314 1308.6029,-235.3901 1309.3307,-242.3522"/>
</g>
<!-- 140543361026200 -->
<g id="node8" class="node">
<title>140543361026200</title>
<polygon fill="none" stroke="#000000" points="1823,-357 1769,-357 1769,-321 1823,-321 1823,-357"/>
<text text-anchor="middle" x="1796" y="-335.3" font-family="Times,serif" font-size="14.00" fill="#000000">hid_1</text>
</g>
<!-- 140543361026032 -->
<g id="node36" class="node">
<title>140543361026032</title>
<ellipse fill="none" stroke="#000000" cx="1059" cy="-271" rx="27" ry="27"/>
<text text-anchor="middle" x="1059" y="-267.3" font-family="Times,serif" font-size="14.00" fill="#000000">pre_TradeWebContextListener</text>
</g>
<!-- 140543361026200&#45;&gt;140543361026032 -->
<g id="edge8" class="edge">
<title>140543361026200&#45;&gt;140543361026032</title>
<path fill="none" stroke="#000000" d="M1773.6609,-357.0098C1741.0582,-381.4207 1677.5979,-422 1616,-422 1526,-422 1526,-422 1526,-422 1355.6255,-422 1166.5056,-329.8846 1091.8569,-289.5469"/>
<polygon fill="#000000" stroke="#000000" points="1093.3718,-286.3863 1082.9174,-284.6666 1090.0175,-292.5304 1093.3718,-286.3863"/>
</g>
<!-- 140543360877680 -->
<g id="node9" class="node">
<title>140543360877680</title>
<polygon fill="none" stroke="#000000" points="974,-102 920,-102 920,-66 974,-66 974,-102"/>
<text text-anchor="middle" x="947" y="-80.3" font-family="Times,serif" font-size="14.00" fill="#000000">hid_10</text>
</g>
<!-- 140543360876672 -->
<g id="node32" class="node">
<title>140543360876672</title>
<ellipse fill="none" stroke="#000000" cx="1059" cy="-70" rx="27" ry="27"/>
<text text-anchor="middle" x="1059" y="-66.3" font-family="Times,serif" font-size="14.00" fill="#000000">pre_OrdersAlertFilter</text>
</g>
<!-- 140543360877680&#45;&gt;140543360876672 -->
<g id="edge9" class="edge">
<title>140543360877680&#45;&gt;140543360876672</title>
<path fill="none" stroke="#000000" d="M974.1121,-80.611C988.4195,-78.8226 1006.1914,-76.6011 1021.7713,-74.6536"/>
<polygon fill="#000000" stroke="#000000" points="1022.649,-78.0712 1032.1376,-73.3578 1021.7807,-71.1253 1022.649,-78.0712"/>
</g>
<!-- 140543360877960 -->
<g id="node10" class="node">
<title>140543360877960</title>
<polygon fill="none" stroke="#000000" points="974,-156 920,-156 920,-120 974,-120 974,-156"/>
<text text-anchor="middle" x="947" y="-134.3" font-family="Times,serif" font-size="14.00" fill="#000000">hid_11</text>
</g>
<!-- 140543360877960&#45;&gt;140543360876672 -->
<g id="edge10" class="edge">
<title>140543360877960&#45;&gt;140543360876672</title>
<path fill="none" stroke="#000000" d="M974.1599,-123.4966C981.3225,-119.5463 989.0033,-115.1967 996,-111 1006.5598,-104.6662 1017.8942,-97.4313 1027.9976,-90.8201"/>
<polygon fill="#000000" stroke="#000000" points="1030.0863,-93.6353 1036.509,-85.2091 1026.2335,-87.7909 1030.0863,-93.6353"/>
</g>
<!-- 140543360878464 -->
<g id="node11" class="node">
<title>140543360878464</title>
<polygon fill="none" stroke="#000000" points="1463,-245 1409,-245 1409,-209 1463,-209 1463,-245"/>
<text text-anchor="middle" x="1436" y="-223.3" font-family="Times,serif" font-size="14.00" fill="#000000">hid_12</text>
</g>
<!-- 140543361027936 -->
<g id="node31" class="node">
<title>140543361027936</title>
<ellipse fill="none" stroke="#000000" cx="1526" cy="-219" rx="27" ry="27"/>
<text text-anchor="middle" x="1526" y="-215.3" font-family="Times,serif" font-size="14.00" fill="#000000">pre_Log</text>
</g>
<!-- 140543360878464&#45;&gt;140543361027936 -->
<g id="edge11" class="edge">
<title>140543360878464&#45;&gt;140543361027936</title>
<path fill="none" stroke="#000000" d="M1463.003,-224.5997C1471.1903,-223.872 1480.3292,-223.0596 1489.051,-222.2844"/>
<polygon fill="#000000" stroke="#000000" points="1489.3653,-225.7703 1499.0161,-221.3986 1488.7454,-218.7978 1489.3653,-225.7703"/>
</g>
<!-- 140543360878688 -->
<g id="node12" class="node">
<title>140543360878688</title>
<polygon fill="none" stroke="#000000" points="1463,-182 1409,-182 1409,-146 1463,-146 1463,-182"/>
<text text-anchor="middle" x="1436" y="-160.3" font-family="Times,serif" font-size="14.00" fill="#000000">hid_13</text>
</g>
<!-- 140543361027824 -->
<g id="node41" class="node">
<title>140543361027824</title>
<ellipse fill="none" stroke="#000000" cx="1526" cy="-147" rx="27" ry="27"/>
<text text-anchor="middle" x="1526" y="-143.3" font-family="Times,serif" font-size="14.00" fill="#000000">splace_in_Root_2</text>
</g>
<!-- 140543360878688&#45;&gt;140543361027824 -->
<g id="edge12" class="edge">
<title>140543360878688&#45;&gt;140543361027824</title>
<path fill="none" stroke="#000000" d="M1463.003,-158.8994C1471.2647,-157.3389 1480.4954,-155.5953 1489.2888,-153.9343"/>
<polygon fill="#000000" stroke="#000000" points="1490.1496,-157.3337 1499.3262,-152.0384 1488.8503,-150.4553 1490.1496,-157.3337"/>
</g>
<!-- 140543360878912 -->
<g id="node13" class="node">
<title>140543360878912</title>
<polygon fill="none" stroke="#000000" points="1463,-304 1409,-304 1409,-268 1463,-268 1463,-304"/>
<text text-anchor="middle" x="1436" y="-282.3" font-family="Times,serif" font-size="14.00" fill="#000000">hid_14</text>
</g>
<!-- 140543360877176 -->
<g id="node43" class="node">
<title>140543360877176</title>
<ellipse fill="none" stroke="#000000" cx="1526" cy="-291" rx="27" ry="27"/>
<text text-anchor="middle" x="1526" y="-287.3" font-family="Times,serif" font-size="14.00" fill="#000000">splace_in_TradeConfig_1</text>
</g>
<!-- 140543360878912&#45;&gt;140543360877176 -->
<g id="edge13" class="edge">
<title>140543360878912&#45;&gt;140543360877176</title>
<path fill="none" stroke="#000000" d="M1463.003,-287.5002C1471.1013,-287.9501 1480.1306,-288.4517 1488.7665,-288.9315"/>
<polygon fill="#000000" stroke="#000000" points="1488.8373,-292.4407 1499.0161,-289.5009 1489.2257,-285.4515 1488.8373,-292.4407"/>
</g>
<!-- 140543360879360 -->
<g id="node14" class="node">
<title>140543360879360</title>
<polygon fill="none" stroke="#000000" points="772,-160 718,-160 718,-124 772,-124 772,-160"/>
<text text-anchor="middle" x="745" y="-138.3" font-family="Times,serif" font-size="14.00" fill="#000000">hid_15</text>
</g>
<!-- 140543360877848 -->
<g id="node38" class="node">
<title>140543360877848</title>
<ellipse fill="none" stroke="#000000" cx="835" cy="-107" rx="27" ry="27"/>
<text text-anchor="middle" x="835" y="-103.3" font-family="Times,serif" font-size="14.00" fill="#000000">splace_in_OrdersAlertFilter_1</text>
</g>
<!-- 140543360879360&#45;&gt;140543360877848 -->
<g id="edge14" class="edge">
<title>140543360879360&#45;&gt;140543360877848</title>
<path fill="none" stroke="#000000" d="M772.003,-131.4988C780.8415,-128.0616 790.7891,-124.1931 800.1238,-120.563"/>
<polygon fill="#000000" stroke="#000000" points="801.5059,-123.7809 809.5574,-116.8944 798.9687,-117.2569 801.5059,-123.7809"/>
</g>
<!-- 140543360879584 -->
<g id="node15" class="node">
<title>140543360879584</title>
<polygon fill="none" stroke="#000000" points="772,-272 718,-272 718,-236 772,-236 772,-272"/>
<text text-anchor="middle" x="745" y="-250.3" font-family="Times,serif" font-size="14.00" fill="#000000">hid_16</text>
</g>
<!-- 140543361026648 -->
<g id="node45" class="node">
<title>140543361026648</title>
<ellipse fill="none" stroke="#000000" cx="835" cy="-278" rx="27" ry="27"/>
<text text-anchor="middle" x="835" y="-274.3" font-family="Times,serif" font-size="14.00" fill="#000000">splace_in_TradeWebContextListener_1</text>
</g>
<!-- 140543360879584&#45;&gt;140543361026648 -->
<g id="edge15" class="edge">
<title>140543360879584&#45;&gt;140543361026648</title>
<path fill="none" stroke="#000000" d="M772.003,-261.2008C780.4298,-263.4479 789.8646,-265.9639 798.8152,-268.3507"/>
<polygon fill="#000000" stroke="#000000" points="798.0713,-271.7746 808.6355,-270.9695 799.8749,-265.0109 798.0713,-271.7746"/>
</g>
<!-- 140543360879920 -->
<g id="node16" class="node">
<title>140543360879920</title>
<polygon fill="none" stroke="#000000" points="234,-309 180,-309 180,-273 234,-273 234,-309"/>
<text text-anchor="middle" x="207" y="-287.3" font-family="Times,serif" font-size="14.00" fill="#000000">hid_17</text>
</g>
<!-- 140543361027544 -->
<g id="node40" class="node">
<title>140543361027544</title>
<ellipse fill="none" stroke="#000000" cx="325" cy="-327" rx="27" ry="27"/>
<text text-anchor="middle" x="325" y="-323.3" font-family="Times,serif" font-size="14.00" fill="#000000">splace_in_Root_1</text>
</g>
<!-- 140543360879920&#45;&gt;140543361027544 -->
<g id="edge16" class="edge">
<title>140543360879920&#45;&gt;140543361027544</title>
<path fill="none" stroke="#000000" d="M234.0716,-299.2591C250.339,-304.2221 271.2405,-310.5988 288.9013,-315.9868"/>
<polygon fill="#000000" stroke="#000000" points="288.2796,-319.4564 298.8657,-319.0268 290.3223,-312.761 288.2796,-319.4564"/>
</g>
<!-- 140543360880144 -->
<g id="node17" class="node">
<title>140543360880144</title>
<polygon fill="none" stroke="#000000" points="144,-147 90,-147 90,-111 144,-111 144,-147"/>
<text text-anchor="middle" x="117" y="-125.3" font-family="Times,serif" font-size="14.00" fill="#000000">hid_18</text>
</g>
<!-- 140543360877344 -->
<g id="node34" class="node">
<title>140543360877344</title>
<ellipse fill="none" stroke="#000000" cx="207" cy="-120" rx="27" ry="27"/>
<text text-anchor="middle" x="207" y="-116.3" font-family="Times,serif" font-size="14.00" fill="#000000">pre_TradeAppServlet</text>
</g>
<!-- 140543360880144&#45;&gt;140543360877344 -->
<g id="edge17" class="edge">
<title>140543360880144&#45;&gt;140543360877344</title>
<path fill="none" stroke="#000000" d="M144.003,-126.2997C152.1903,-125.481 161.3292,-124.5671 170.051,-123.6949"/>
<polygon fill="#000000" stroke="#000000" points="170.414,-127.1761 180.0161,-122.6984 169.7174,-120.2109 170.414,-127.1761"/>
</g>
<!-- 140543360880368 -->
<g id="node18" class="node">
<title>140543360880368</title>
<polygon fill="none" stroke="#000000" points="144,-206 90,-206 90,-170 144,-170 144,-206"/>
<text text-anchor="middle" x="117" y="-184.3" font-family="Times,serif" font-size="14.00" fill="#000000">hid_19</text>
</g>
<!-- 140543360876896 -->
<g id="node42" class="node">
<title>140543360876896</title>
<ellipse fill="none" stroke="#000000" cx="207" cy="-193" rx="27" ry="27"/>
<text text-anchor="middle" x="207" y="-189.3" font-family="Times,serif" font-size="14.00" fill="#000000">splace_in_TradeConfig_0</text>
</g>
<!-- 140543360880368&#45;&gt;140543360876896 -->
<g id="edge18" class="edge">
<title>140543360880368&#45;&gt;140543360876896</title>
<path fill="none" stroke="#000000" d="M144.003,-189.5002C152.1013,-189.9501 161.1306,-190.4517 169.7665,-190.9315"/>
<polygon fill="#000000" stroke="#000000" points="169.8373,-194.4407 180.0161,-191.5009 170.2257,-187.4515 169.8373,-194.4407"/>
</g>
<!-- 140543361026480 -->
<g id="node19" class="node">
<title>140543361026480</title>
<polygon fill="none" stroke="#000000" points="974,-318 920,-318 920,-282 974,-282 974,-318"/>
<text text-anchor="middle" x="947" y="-296.3" font-family="Times,serif" font-size="14.00" fill="#000000">hid_2</text>
</g>
<!-- 140543361026480&#45;&gt;140543361026032 -->
<g id="edge19" class="edge">
<title>140543361026480&#45;&gt;140543361026032</title>
<path fill="none" stroke="#000000" d="M974.1121,-292.9799C988.6633,-289.2122 1006.7981,-284.5166 1022.5657,-280.4339"/>
<polygon fill="#000000" stroke="#000000" points="1023.7207,-283.7503 1032.5241,-277.8554 1021.966,-276.9738 1023.7207,-283.7503"/>
</g>
<!-- 140543361026760 -->
<g id="node20" class="node">
<title>140543361026760</title>
<polygon fill="none" stroke="#000000" points="974,-264 920,-264 920,-228 974,-228 974,-264"/>
<text text-anchor="middle" x="947" y="-242.3" font-family="Times,serif" font-size="14.00" fill="#000000">hid_3</text>
</g>
<!-- 140543361026760&#45;&gt;140543361026032 -->
<g id="edge20" class="edge">
<title>140543361026760&#45;&gt;140543361026032</title>
<path fill="none" stroke="#000000" d="M974.1121,-252.0518C988.6633,-255.2999 1006.7981,-259.3478 1022.5657,-262.8674"/>
<polygon fill="#000000" stroke="#000000" points="1022.0017,-266.3275 1032.5241,-265.0902 1023.5268,-259.4957 1022.0017,-266.3275"/>
</g>
<!-- 140543361027096 -->
<g id="node21" class="node">
<title>140543361027096</title>
<polygon fill="none" stroke="#000000" points="1373,-122 1319,-122 1319,-86 1373,-86 1373,-122"/>
<text text-anchor="middle" x="1346" y="-100.3" font-family="Times,serif" font-size="14.00" fill="#000000">hid_4</text>
</g>
<!-- 140543361026144 -->
<g id="node33" class="node">
<title>140543361026144</title>
<ellipse fill="none" stroke="#000000" cx="1706" cy="-147" rx="27" ry="27"/>
<text text-anchor="middle" x="1706" y="-143.3" font-family="Times,serif" font-size="14.00" fill="#000000">pre_Root</text>
</g>
<!-- 140543361027096&#45;&gt;140543361026144 -->
<g id="edge21" class="edge">
<title>140543361027096&#45;&gt;140543361026144</title>
<path fill="none" stroke="#000000" d="M1373.1627,-101.9356C1426.0732,-98.6807 1546.2447,-95.0592 1643,-120 1652.835,-122.5352 1663.115,-126.3812 1672.4499,-130.3821"/>
<polygon fill="#000000" stroke="#000000" points="1671.2204,-133.6664 1681.7775,-134.5591 1674.0813,-127.2777 1671.2204,-133.6664"/>
</g>
<!-- 140543361027376 -->
<g id="node22" class="node">
<title>140543361027376</title>
<polygon fill="none" stroke="#000000" points="682,-425 628,-425 628,-389 682,-389 682,-425"/>
<text text-anchor="middle" x="655" y="-403.3" font-family="Times,serif" font-size="14.00" fill="#000000">hid_5</text>
</g>
<!-- 140543361027376&#45;&gt;140543361026144 -->
<g id="edge22" class="edge">
<title>140543361027376&#45;&gt;140543361026144</title>
<path fill="none" stroke="#000000" d="M682.0817,-410.6694C717.2549,-415.1101 780.5933,-422 835,-422 835,-422 835,-422 1202.5,-422 1400.9479,-422 1493.3293,-479.3084 1643,-349 1643.4053,-348.6471 1676.9259,-240.7301 1694.8991,-182.7981"/>
<polygon fill="#000000" stroke="#000000" points="1698.3378,-183.5258 1697.9579,-172.9378 1691.6521,-181.4518 1698.3378,-183.5258"/>
</g>
<!-- 140543361027656 -->
<g id="node23" class="node">
<title>140543361027656</title>
<polygon fill="none" stroke="#000000" points="1643,-165 1589,-165 1589,-129 1643,-129 1643,-165"/>
<text text-anchor="middle" x="1616" y="-143.3" font-family="Times,serif" font-size="14.00" fill="#000000">hid_6</text>
</g>
<!-- 140543361027656&#45;&gt;140543361026144 -->
<g id="edge23" class="edge">
<title>140543361027656&#45;&gt;140543361026144</title>
<path fill="none" stroke="#000000" d="M1643.003,-147C1651.0277,-147 1659.9665,-147 1668.5309,-147"/>
<polygon fill="#000000" stroke="#000000" points="1668.7051,-150.5001 1678.705,-147 1668.705,-143.5001 1668.7051,-150.5001"/>
</g>
<!-- 140543360876728 -->
<g id="node24" class="node">
<title>140543360876728</title>
<polygon fill="none" stroke="#000000" points="352,-214 298,-214 298,-178 352,-178 352,-214"/>
<text text-anchor="middle" x="325" y="-192.3" font-family="Times,serif" font-size="14.00" fill="#000000">hid_7</text>
</g>
<!-- 140543361028048 -->
<g id="node35" class="node">
<title>140543361028048</title>
<ellipse fill="none" stroke="#000000" cx="443" cy="-198" rx="27" ry="27"/>
<text text-anchor="middle" x="443" y="-194.3" font-family="Times,serif" font-size="14.00" fill="#000000">pre_TradeConfig</text>
</g>
<!-- 140543360876728&#45;&gt;140543361028048 -->
<g id="edge24" class="edge">
<title>140543360876728&#45;&gt;140543361028048</title>
<path fill="none" stroke="#000000" d="M352.0716,-196.4588C367.8489,-196.7263 387.9852,-197.0675 405.2964,-197.361"/>
<polygon fill="#000000" stroke="#000000" points="405.5879,-200.8663 415.6458,-197.5364 405.7065,-193.8673 405.5879,-200.8663"/>
</g>
<!-- 140543360877008 -->
<g id="node25" class="node">
<title>140543360877008</title>
<polygon fill="none" stroke="#000000" points="1643,-340 1589,-340 1589,-304 1643,-304 1643,-340"/>
<text text-anchor="middle" x="1616" y="-318.3" font-family="Times,serif" font-size="14.00" fill="#000000">hid_8</text>
</g>
<!-- 140543360877008&#45;&gt;140543361028048 -->
<g id="edge25" class="edge">
<title>140543360877008&#45;&gt;140543361028048</title>
<path fill="none" stroke="#000000" d="M1588.7053,-327.9326C1553.5688,-335.0397 1490.5409,-346 1436,-346 655,-346 655,-346 655,-346 573.1915,-346 500.4159,-270.9872 465.2758,-227.7692"/>
<polygon fill="#000000" stroke="#000000" points="467.9263,-225.4791 458.9582,-219.8379 462.451,-229.8405 467.9263,-225.4791"/>
</g>
<!-- 140543360877400 -->
<g id="node26" class="node">
<title>140543360877400</title>
<polygon fill="none" stroke="#000000" points="576,-75 522,-75 522,-39 576,-39 576,-75"/>
<text text-anchor="middle" x="549" y="-53.3" font-family="Times,serif" font-size="14.00" fill="#000000">hid_9</text>
</g>
<!-- 140543360877400&#45;&gt;140543360876672 -->
<g id="edge26" class="edge">
<title>140543360877400&#45;&gt;140543360876672</title>
<path fill="none" stroke="#000000" d="M576.1879,-52.6886C613.9567,-47.0828 684.4885,-38 745,-38 745,-38 745,-38 835,-38 901.7355,-38 978.5409,-52.0916 1022.6638,-61.5724"/>
<polygon fill="#000000" stroke="#000000" points="1022.1061,-65.0332 1032.6235,-63.7541 1023.604,-58.1953 1022.1061,-65.0332"/>
</g>
<!-- 140543361025472 -->
<g id="node27" class="node">
<title>140543361025472</title>
<ellipse fill="#00ff00" stroke="#000000" cx="835" cy="-192" rx="27" ry="27"/>
<text text-anchor="middle" x="835" y="-188.3" font-family="Times,serif" font-size="14.00" fill="#000000">1</text>
</g>
<!-- 140543361025472&#45;&gt;140543361025976 -->
<g id="edge41" class="edge">
<title>140543361025472&#45;&gt;140543361025976</title>
<path fill="none" stroke="#000000" d="M862.1121,-192C869.9203,-192 878.7603,-192 887.7128,-192"/>
<polygon fill="#000000" stroke="#000000" points="887.8192,-195.5001 897.8191,-192 887.8191,-188.5001 887.8192,-195.5001"/>
</g>
<!-- 140543361025472&#45;&gt;140543360877960 -->
<g id="edge42" class="edge">
<title>140543361025472&#45;&gt;140543360877960</title>
<path fill="none" stroke="#000000" d="M859.5789,-180.1495C874.4355,-172.9865 893.6544,-163.7202 910.2874,-155.7007"/>
<polygon fill="#000000" stroke="#000000" points="912.2417,-158.6441 919.7293,-151.1484 909.2015,-152.3387 912.2417,-158.6441"/>
</g>
<!-- 140543361025472&#45;&gt;140543361026760 -->
<g id="edge43" class="edge">
<title>140543361025472&#45;&gt;140543361026760</title>
<path fill="none" stroke="#000000" d="M859.5789,-203.8505C874.4355,-211.0135 893.6544,-220.2798 910.2874,-228.2993"/>
<polygon fill="#000000" stroke="#000000" points="909.2015,-231.6613 919.7293,-232.8516 912.2417,-225.3559 909.2015,-231.6613"/>
</g>
<!-- 140543360879304&#45;&gt;140543360879920 -->
<g id="edge27" class="edge">
<title>140543360879304&#45;&gt;140543360879920</title>
<path fill="none" stroke="#000000" d="M46.0626,-175.5338C58.1636,-187.4994 74.4267,-202.8046 90,-215 115.8721,-235.2604 147.1817,-255.3913 170.8994,-269.8398"/>
<polygon fill="#000000" stroke="#000000" points="169.2208,-272.9148 179.5905,-275.0875 172.8391,-266.9224 169.2208,-272.9148"/>
</g>
<!-- 140543360879304&#45;&gt;140543360880144 -->
<g id="edge28" class="edge">
<title>140543360879304&#45;&gt;140543360880144</title>
<path fill="none" stroke="#000000" d="M53.0317,-148.1905C61.4955,-145.6514 71.055,-142.7835 80.1543,-140.0537"/>
<polygon fill="#000000" stroke="#000000" points="81.2013,-143.3938 89.7738,-137.1679 79.1898,-136.689 81.2013,-143.3938"/>
</g>
<!-- 140543360879304&#45;&gt;140543360880368 -->
<g id="edge29" class="edge">
<title>140543360879304&#45;&gt;140543360880368</title>
<path fill="none" stroke="#000000" d="M52.5497,-165.0843C61.1894,-168.1562 71.0137,-171.6493 80.3423,-174.9662"/>
<polygon fill="#000000" stroke="#000000" points="79.2192,-178.2814 89.8139,-178.3338 81.5643,-171.6859 79.2192,-178.2814"/>
</g>
<!-- 140543360879192&#45;&gt;140543360879360 -->
<g id="edge30" class="edge">
<title>140543360879192&#45;&gt;140543360879360</title>
<path fill="none" stroke="#000000" d="M678.1772,-183.5786C687.6172,-177.7048 698.7478,-170.7792 709.189,-164.2824"/>
<polygon fill="#000000" stroke="#000000" points="711.1036,-167.2133 717.7452,-158.9586 707.4055,-161.2699 711.1036,-167.2133"/>
</g>
<!-- 140543360879192&#45;&gt;140543360879584 -->
<g id="edge31" class="edge">
<title>140543360879192&#45;&gt;140543360879584</title>
<path fill="none" stroke="#000000" d="M678.1772,-212.4214C687.6172,-218.2952 698.7478,-225.2208 709.189,-231.7176"/>
<polygon fill="#000000" stroke="#000000" points="707.4055,-234.7301 717.7452,-237.0414 711.1036,-228.7867 707.4055,-234.7301"/>
</g>
<!-- 140543360878240&#45;&gt;140543360878464 -->
<g id="edge32" class="edge">
<title>140543360878240&#45;&gt;140543360878464</title>
<path fill="none" stroke="#000000" d="M1373.003,-232.5997C1381.0277,-231.8864 1389.9665,-231.0919 1398.5309,-230.3306"/>
<polygon fill="#000000" stroke="#000000" points="1399.0542,-233.798 1408.705,-229.4262 1398.4344,-226.8255 1399.0542,-233.798"/>
</g>
<!-- 140543360878240&#45;&gt;140543360878688 -->
<g id="edge33" class="edge">
<title>140543360878240&#45;&gt;140543360878688</title>
<path fill="none" stroke="#000000" d="M1367.3287,-218.174C1378.5859,-209.2934 1392.6058,-198.2332 1405.0374,-188.4261"/>
<polygon fill="#000000" stroke="#000000" points="1407.249,-191.1394 1412.9323,-182.1978 1402.9135,-185.6436 1407.249,-191.1394"/>
</g>
<!-- 140543360878240&#45;&gt;140543360878912 -->
<g id="edge34" class="edge">
<title>140543360878240&#45;&gt;140543360878912</title>
<path fill="none" stroke="#000000" d="M1369.6464,-248.3996C1378.9112,-253.6497 1389.7479,-259.7905 1399.9459,-265.5694"/>
<polygon fill="#000000" stroke="#000000" points="1398.262,-268.638 1408.6878,-270.5231 1401.7132,-262.5478 1398.262,-268.638"/>
</g>
<!-- 140543361027936&#45;&gt;140543361025752 -->
<g id="edge35" class="edge">
<title>140543361027936&#45;&gt;140543361025752</title>
<path fill="none" stroke="#000000" d="M1553.003,-224.1006C1561.1158,-225.633 1570.1631,-227.3419 1578.8131,-228.9758"/>
<polygon fill="#000000" stroke="#000000" points="1578.2291,-232.4273 1588.705,-230.8443 1579.5284,-225.5489 1578.2291,-232.4273"/>
</g>
<!-- 140543360876672&#45;&gt;140543361025864 -->
<g id="edge36" class="edge">
<title>140543360876672&#45;&gt;140543361025864</title>
<path fill="none" stroke="#000000" d="M1084.9868,-62.3941C1099.7741,-58.0661 1119.0123,-52.4354 1137.6273,-46.9871"/>
<polygon fill="#000000" stroke="#000000" points="1138.6639,-50.3306 1147.2781,-44.1625 1136.6976,-43.6125 1138.6639,-50.3306"/>
</g>
<!-- 140543361026144&#45;&gt;140543361025696 -->
<g id="edge37" class="edge">
<title>140543361026144&#45;&gt;140543361025696</title>
<path fill="none" stroke="#000000" d="M1733.003,-147C1741.0277,-147 1749.9665,-147 1758.5309,-147"/>
<polygon fill="#000000" stroke="#000000" points="1758.7051,-150.5001 1768.705,-147 1758.705,-143.5001 1758.7051,-150.5001"/>
</g>
<!-- 140543360877344&#45;&gt;140543361025920 -->
<g id="edge38" class="edge">
<title>140543360877344&#45;&gt;140543361025920</title>
<path fill="none" stroke="#000000" d="M232.314,-109.9173C243.4305,-105.4895 256.9465,-100.1061 270.1805,-94.8349"/>
<polygon fill="#000000" stroke="#000000" points="271.7337,-97.9837 279.7288,-91.0318 269.1434,-91.4806 271.7337,-97.9837"/>
</g>
<!-- 140543361028048&#45;&gt;140543361025808 -->
<g id="edge39" class="edge">
<title>140543361028048&#45;&gt;140543361025808</title>
<path fill="none" stroke="#000000" d="M470.0225,-198C477.9553,-198 486.9196,-198 495.8881,-198"/>
<polygon fill="#000000" stroke="#000000" points="495.961,-201.5001 505.961,-198 495.9609,-194.5001 495.961,-201.5001"/>
</g>
<!-- 140543361026032&#45;&gt;140543361024352 -->
<g id="edge40" class="edge">
<title>140543361026032&#45;&gt;140543361024352</title>
<path fill="none" stroke="#000000" d="M1085.9913,-267.0501C1093.623,-265.9332 1102.3795,-264.6518 1111.5907,-263.3038"/>
<polygon fill="#000000" stroke="#000000" points="1112.3446,-266.7308 1121.7324,-261.8196 1111.331,-259.8046 1112.3446,-266.7308"/>
</g>
<!-- 140543360877568&#45;&gt;140543360877400 -->
<g id="edge44" class="edge">
<title>140543360877568&#45;&gt;140543360877400</title>
<path fill="none" stroke="#000000" d="M470.0225,-59.9803C482.6333,-59.5044 497.8509,-58.9302 511.5484,-58.4133"/>
<polygon fill="#000000" stroke="#000000" points="511.7974,-61.9065 521.6582,-58.0318 511.5333,-54.9114 511.7974,-61.9065"/>
</g>
<!-- 140543360877848&#45;&gt;140543360877680 -->
<g id="edge45" class="edge">
<title>140543360877848&#45;&gt;140543360877680</title>
<path fill="none" stroke="#000000" d="M861.5424,-101.5493C875.9758,-98.5853 894.0589,-94.8718 909.8695,-91.625"/>
<polygon fill="#000000" stroke="#000000" points="910.7786,-95.0115 919.8701,-89.5713 909.3704,-88.1545 910.7786,-95.0115"/>
</g>
<!-- 140543361027264&#45;&gt;140543361027096 -->
<g id="edge46" class="edge">
<title>140543361027264&#45;&gt;140543361027096</title>
<path fill="none" stroke="#000000" d="M1085.4858,-161.186C1136.8019,-149.9215 1249.8904,-125.0972 1308.7505,-112.1767"/>
<polygon fill="#000000" stroke="#000000" points="1309.724,-115.5464 1318.741,-109.9837 1308.2231,-108.7092 1309.724,-115.5464"/>
</g>
<!-- 140543361027544&#45;&gt;140543361027376 -->
<g id="edge47" class="edge">
<title>140543361027544&#45;&gt;140543361027376</title>
<path fill="none" stroke="#000000" d="M351.4475,-333.4115C410.0746,-347.6241 551.0624,-381.803 618.2264,-398.0852"/>
<polygon fill="#000000" stroke="#000000" points="617.422,-401.4915 627.9652,-400.4461 619.0713,-394.6885 617.422,-401.4915"/>
</g>
<!-- 140543361027824&#45;&gt;140543361027656 -->
<g id="edge48" class="edge">
<title>140543361027824&#45;&gt;140543361027656</title>
<path fill="none" stroke="#000000" d="M1553.003,-147C1561.0277,-147 1569.9665,-147 1578.5309,-147"/>
<polygon fill="#000000" stroke="#000000" points="1578.7051,-150.5001 1588.705,-147 1578.705,-143.5001 1578.7051,-150.5001"/>
</g>
<!-- 140543360876896&#45;&gt;140543360876728 -->
<g id="edge49" class="edge">
<title>140543360876896&#45;&gt;140543360876728</title>
<path fill="none" stroke="#000000" d="M234.0716,-193.6883C249.8489,-194.0894 269.9852,-194.6013 287.2964,-195.0414"/>
<polygon fill="#000000" stroke="#000000" points="287.56,-198.5492 297.6458,-195.3046 287.738,-191.5514 287.56,-198.5492"/>
</g>
<!-- 140543360877176&#45;&gt;140543360877008 -->
<g id="edge50" class="edge">
<title>140543360877176&#45;&gt;140543360877008</title>
<path fill="none" stroke="#000000" d="M1551.5497,-299.8004C1560.1894,-302.7764 1570.0137,-306.1603 1579.3423,-309.3735"/>
<polygon fill="#000000" stroke="#000000" points="1578.2192,-312.6884 1588.8139,-312.6359 1580.4989,-306.07 1578.2192,-312.6884"/>
</g>
<!-- 140543361026368&#45;&gt;140543361026200 -->
<g id="edge51" class="edge">
<title>140543361026368&#45;&gt;140543361026200</title>
<path fill="none" stroke="#000000" d="M1727.7865,-286.703C1738.6918,-295.0637 1752.1018,-305.3447 1764.1375,-314.5721"/>
<polygon fill="#000000" stroke="#000000" points="1762.1371,-317.4487 1772.2027,-320.7554 1766.3961,-311.8934 1762.1371,-317.4487"/>
</g>
<!-- 140543361026648&#45;&gt;140543361026480 -->
<g id="edge52" class="edge">
<title>140543361026648&#45;&gt;140543361026480</title>
<path fill="none" stroke="#000000" d="M861.5424,-283.2137C875.9758,-286.0488 894.0589,-289.6009 909.8695,-292.7065"/>
<polygon fill="#000000" stroke="#000000" points="909.3829,-296.1777 919.8701,-294.6709 910.7322,-289.309 909.3829,-296.1777"/>
</g>
</g>
</svg>
