<?xml version="1.0" encoding="UTF-8" standalone="no"?>
<!DOCTYPE svg PUBLIC "-//W3C//DTD SVG 1.1//EN"
 "http://www.w3.org/Graphics/SVG/1.1/DTD/svg11.dtd">
<!-- Generated by graphviz version 2.40.1 (20161225.0304)
 -->
<!-- Title: %3 Pages: 1 -->
<svg width="1995pt" height="576pt"
 viewBox="0.00 0.00 1995.00 576.00" xmlns="http://www.w3.org/2000/svg" xmlns:xlink="http://www.w3.org/1999/xlink">
<g id="graph0" class="graph" transform="scale(1 1) rotate(0) translate(4 572)">
<title>%3</title>
<!-- 140178132107216 -->
<g id="node1" class="node">
<title>140178132107216</title>
<polygon fill="none" stroke="#000000" points="194,-447 96,-447 96,-411 194,-411 194,-447"/>
<text text-anchor="middle" x="145" y="-425.3" font-family="Times,serif" font-size="14.00" fill="#000000">JSFLoginFilter</text>
</g>
<!-- 140178132071704 -->
<g id="node42" class="node">
<title>140178132071704</title>
<ellipse fill="none" stroke="#000000" cx="263" cy="-438" rx="27" ry="27"/>
<text text-anchor="middle" x="263" y="-434.3" font-family="Times,serif" font-size="14.00" fill="#000000">splace_in_Root_0</text>
</g>
<!-- 140178132107216&#45;&gt;140178132071704 -->
<g id="edge1" class="edge">
<title>140178132107216&#45;&gt;140178132071704</title>
<path fill="none" stroke="#000000" d="M194.0175,-432.7386C204.6386,-433.5487 215.7042,-434.3927 225.7832,-435.1614"/>
<polygon fill="#000000" stroke="#000000" points="225.6322,-438.66 235.8694,-435.9307 226.1646,-431.6803 225.6322,-438.66"/>
</g>
<!-- 140178132106992 -->
<g id="node2" class="node">
<title>140178132106992</title>
<polygon fill="none" stroke="#000000" points="1027,-341 973,-341 973,-305 1027,-305 1027,-341"/>
<text text-anchor="middle" x="1000" y="-319.3" font-family="Times,serif" font-size="14.00" fill="#000000">Log</text>
</g>
<!-- 140178132078544 -->
<g id="node30" class="node">
<title>140178132078544</title>
<ellipse fill="none" stroke="#000000" cx="1090" cy="-283" rx="27" ry="27"/>
<text text-anchor="middle" x="1090" y="-279.3" font-family="Times,serif" font-size="14.00" fill="#000000">intplace_Log</text>
</g>
<!-- 140178132106992&#45;&gt;140178132078544 -->
<g id="edge2" class="edge">
<title>140178132106992&#45;&gt;140178132078544</title>
<path fill="none" stroke="#000000" d="M1027.003,-310.9987C1036.0899,-306.96 1046.3491,-302.4004 1055.9092,-298.1515"/>
<polygon fill="#000000" stroke="#000000" points="1057.4504,-301.2967 1065.167,-294.0369 1054.6074,-294.9 1057.4504,-301.2967"/>
</g>
<!-- 140178132107160 -->
<g id="node3" class="node">
<title>140178132107160</title>
<polygon fill="none" stroke="#000000" points="200,-384 90,-384 90,-348 200,-348 200,-384"/>
<text text-anchor="middle" x="145" y="-362.3" font-family="Times,serif" font-size="14.00" fill="#000000">OrdersAlertFilter</text>
</g>
<!-- 140178132071984 -->
<g id="node43" class="node">
<title>140178132071984</title>
<ellipse fill="none" stroke="#000000" cx="263" cy="-366" rx="27" ry="27"/>
<text text-anchor="middle" x="263" y="-362.3" font-family="Times,serif" font-size="14.00" fill="#000000">splace_in_Root_1</text>
</g>
<!-- 140178132107160&#45;&gt;140178132071984 -->
<g id="edge3" class="edge">
<title>140178132107160&#45;&gt;140178132071984</title>
<path fill="none" stroke="#000000" d="M200.1996,-366C208.7911,-366 217.4905,-366 225.565,-366"/>
<polygon fill="#000000" stroke="#000000" points="225.7583,-369.5001 235.7582,-366 225.7582,-362.5001 225.7583,-369.5001"/>
</g>
<!-- 140178132106936 -->
<g id="node4" class="node">
<title>140178132106936</title>
<polygon fill="none" stroke="#000000" points="1027,-554 973,-554 973,-518 1027,-518 1027,-554"/>
<text text-anchor="middle" x="1000" y="-532.3" font-family="Times,serif" font-size="14.00" fill="#000000">Root</text>
</g>
<!-- 140178132106824 -->
<g id="node49" class="node">
<title>140178132106824</title>
<ellipse fill="#ffa500" stroke="#000000" cx="1090" cy="-541" rx="27" ry="27"/>
</g>
<!-- 140178132106936&#45;&gt;140178132106824 -->
<g id="edge4" class="edge">
<title>140178132106936&#45;&gt;140178132106824</title>
<path fill="none" stroke="#000000" d="M1027.003,-537.5002C1035.1013,-537.9501 1044.1306,-538.4517 1052.7665,-538.9315"/>
<polygon fill="#000000" stroke="#000000" points="1052.8373,-542.4407 1063.0161,-539.5009 1053.2257,-535.4515 1052.8373,-542.4407"/>
</g>
<!-- 140178132107048 -->
<g id="node5" class="node">
<title>140178132107048</title>
<polygon fill="none" stroke="#000000" points="1627,-173 1541,-173 1541,-137 1627,-137 1627,-173"/>
<text text-anchor="middle" x="1584" y="-151.3" font-family="Times,serif" font-size="14.00" fill="#000000">TradeConfig</text>
</g>
<!-- 140178132103856 -->
<g id="node31" class="node">
<title>140178132103856</title>
<ellipse fill="none" stroke="#000000" cx="1690" cy="-155" rx="27" ry="27"/>
<text text-anchor="middle" x="1690" y="-151.3" font-family="Times,serif" font-size="14.00" fill="#000000">intplace_TradeConfig</text>
</g>
<!-- 140178132107048&#45;&gt;140178132103856 -->
<g id="edge5" class="edge">
<title>140178132107048&#45;&gt;140178132103856</title>
<path fill="none" stroke="#000000" d="M1627.1143,-155C1635.5776,-155 1644.3896,-155 1652.6453,-155"/>
<polygon fill="#000000" stroke="#000000" points="1652.7368,-158.5001 1662.7368,-155 1652.7368,-151.5001 1652.7368,-158.5001"/>
</g>
<!-- 140178132107104 -->
<g id="node6" class="node">
<title>140178132107104</title>
<polygon fill="none" stroke="#000000" points="1415,-318 1333,-318 1333,-282 1415,-282 1415,-318"/>
<text text-anchor="middle" x="1374" y="-296.3" font-family="Times,serif" font-size="14.00" fill="#000000">TradeDirect</text>
</g>
<!-- 140178132073384 -->
<g id="node40" class="node">
<title>140178132073384</title>
<ellipse fill="none" stroke="#000000" cx="1478" cy="-371" rx="27" ry="27"/>
<text text-anchor="middle" x="1478" y="-367.3" font-family="Times,serif" font-size="14.00" fill="#000000">splace_in_Log_2</text>
</g>
<!-- 140178132107104&#45;&gt;140178132073384 -->
<g id="edge6" class="edge">
<title>140178132107104&#45;&gt;140178132073384</title>
<path fill="none" stroke="#000000" d="M1400.5127,-318.1C1414.6994,-327.7852 1432.2486,-339.7659 1447.0567,-349.8752"/>
<polygon fill="#000000" stroke="#000000" points="1445.1802,-352.832 1455.4125,-355.5797 1449.127,-347.0507 1445.1802,-352.832"/>
</g>
<!-- 140178132106656 -->
<g id="node7" class="node">
<title>140178132106656</title>
<polygon fill="none" stroke="#000000" points="487,-163 326,-163 326,-127 487,-127 487,-163"/>
<text text-anchor="middle" x="406.5" y="-141.3" font-family="Times,serif" font-size="14.00" fill="#000000">TradeWebContextListener</text>
</g>
<!-- 140178132103968 -->
<g id="node32" class="node">
<title>140178132103968</title>
<ellipse fill="none" stroke="#000000" cx="550" cy="-197" rx="27" ry="27"/>
<text text-anchor="middle" x="550" y="-193.3" font-family="Times,serif" font-size="14.00" fill="#000000">intplace_TradeWebContextListener</text>
</g>
<!-- 140178132106656&#45;&gt;140178132103968 -->
<g id="edge7" class="edge">
<title>140178132106656&#45;&gt;140178132103968</title>
<path fill="none" stroke="#000000" d="M456.2866,-163.0411C475.5046,-170.0051 497.0491,-177.8122 514.6306,-184.1832"/>
<polygon fill="#000000" stroke="#000000" points="513.8827,-187.6348 524.4769,-187.7512 516.2676,-181.0536 513.8827,-187.6348"/>
</g>
<!-- 140178132070640 -->
<g id="node8" class="node">
<title>140178132070640</title>
<polygon fill="none" stroke="#000000" points="1401,-64 1347,-64 1347,-28 1401,-28 1401,-64"/>
<text text-anchor="middle" x="1374" y="-42.3" font-family="Times,serif" font-size="14.00" fill="#000000">hid_1</text>
</g>
<!-- 140178132070472 -->
<g id="node37" class="node">
<title>140178132070472</title>
<ellipse fill="none" stroke="#000000" cx="263" cy="-96" rx="27" ry="27"/>
<text text-anchor="middle" x="263" y="-92.3" font-family="Times,serif" font-size="14.00" fill="#000000">pre_TradeWebContextListener</text>
</g>
<!-- 140178132070640&#45;&gt;140178132070472 -->
<g id="edge8" class="edge">
<title>140178132070640&#45;&gt;140178132070472</title>
<path fill="none" stroke="#000000" d="M1346.6913,-46C1309.1387,-46 1239.4462,-46 1180,-46 550,-46 550,-46 550,-46 458.5344,-46 353.0726,-70.9518 299.0338,-85.6023"/>
<polygon fill="#000000" stroke="#000000" points="297.9563,-82.2686 289.2438,-88.2971 299.8141,-89.0176 297.9563,-82.2686"/>
</g>
<!-- 140178132073496 -->
<g id="node9" class="node">
<title>140178132073496</title>
<polygon fill="none" stroke="#000000" points="847,-247 793,-247 793,-211 847,-211 847,-247"/>
<text text-anchor="middle" x="820" y="-225.3" font-family="Times,serif" font-size="14.00" fill="#000000">hid_10</text>
</g>
<!-- 140178132072488 -->
<g id="node33" class="node">
<title>140178132072488</title>
<ellipse fill="none" stroke="#000000" cx="910" cy="-366" rx="27" ry="27"/>
<text text-anchor="middle" x="910" y="-362.3" font-family="Times,serif" font-size="14.00" fill="#000000">pre_Log</text>
</g>
<!-- 140178132073496&#45;&gt;140178132072488 -->
<g id="edge9" class="edge">
<title>140178132073496&#45;&gt;140178132072488</title>
<path fill="none" stroke="#000000" d="M831.9513,-247.1925C846.5576,-269.4265 871.5168,-307.4201 889.2763,-334.454"/>
<polygon fill="#000000" stroke="#000000" points="886.5819,-336.7271 894.9978,-343.1633 892.4324,-332.8837 886.5819,-336.7271"/>
</g>
<!-- 140178132104752 -->
<g id="node10" class="node">
<title>140178132104752</title>
<polygon fill="none" stroke="#000000" points="1401,-205 1347,-205 1347,-169 1401,-169 1401,-205"/>
<text text-anchor="middle" x="1374" y="-183.3" font-family="Times,serif" font-size="14.00" fill="#000000">hid_11</text>
</g>
<!-- 140178132104864 -->
<g id="node35" class="node">
<title>140178132104864</title>
<ellipse fill="none" stroke="#000000" cx="1478" cy="-155" rx="27" ry="27"/>
<text text-anchor="middle" x="1478" y="-151.3" font-family="Times,serif" font-size="14.00" fill="#000000">pre_TradeConfig</text>
</g>
<!-- 140178132104752&#45;&gt;140178132104864 -->
<g id="edge10" class="edge">
<title>140178132104752&#45;&gt;140178132104864</title>
<path fill="none" stroke="#000000" d="M1401.0533,-178.6759C1413.6188,-174.8096 1428.7313,-170.1596 1442.2241,-166.008"/>
<polygon fill="#000000" stroke="#000000" points="1443.629,-169.2377 1452.1575,-162.9515 1441.5703,-162.5472 1443.629,-169.2377"/>
</g>
<!-- 140178132104360 -->
<g id="node11" class="node">
<title>140178132104360</title>
<polygon fill="none" stroke="#000000" points="937,-116 883,-116 883,-80 937,-80 937,-116"/>
<text text-anchor="middle" x="910" y="-94.3" font-family="Times,serif" font-size="14.00" fill="#000000">hid_12</text>
</g>
<!-- 140178132104360&#45;&gt;140178132104864 -->
<g id="edge11" class="edge">
<title>140178132104360&#45;&gt;140178132104864</title>
<path fill="none" stroke="#000000" d="M937.0892,-94.5752C972.2705,-90.4305 1035.6175,-84 1090,-84 1090,-84 1090,-84 1180,-84 1277.6326,-84 1388.4787,-120.5092 1443.3839,-141.167"/>
<polygon fill="#000000" stroke="#000000" points="1442.3784,-144.5295 1452.9691,-144.8274 1444.8757,-137.9901 1442.3784,-144.5295"/>
</g>
<!-- 140178132103744 -->
<g id="node12" class="node">
<title>140178132103744</title>
<polygon fill="none" stroke="#000000" points="667,-238 613,-238 613,-202 667,-202 667,-238"/>
<text text-anchor="middle" x="640" y="-216.3" font-family="Times,serif" font-size="14.00" fill="#000000">hid_13</text>
</g>
<!-- 140178132073664 -->
<g id="node41" class="node">
<title>140178132073664</title>
<ellipse fill="none" stroke="#000000" cx="730" cy="-225" rx="27" ry="27"/>
<text text-anchor="middle" x="730" y="-221.3" font-family="Times,serif" font-size="14.00" fill="#000000">splace_in_Log_3</text>
</g>
<!-- 140178132103744&#45;&gt;140178132073664 -->
<g id="edge12" class="edge">
<title>140178132103744&#45;&gt;140178132073664</title>
<path fill="none" stroke="#000000" d="M667.003,-221.5002C675.1013,-221.9501 684.1306,-222.4517 692.7665,-222.9315"/>
<polygon fill="#000000" stroke="#000000" points="692.8373,-226.4407 703.0161,-223.5009 693.2257,-219.4515 692.8373,-226.4407"/>
</g>
<!-- 140178132103464 -->
<g id="node13" class="node">
<title>140178132103464</title>
<polygon fill="none" stroke="#000000" points="667,-312 613,-312 613,-276 667,-276 667,-312"/>
<text text-anchor="middle" x="640" y="-290.3" font-family="Times,serif" font-size="14.00" fill="#000000">hid_14</text>
</g>
<!-- 140178132072264 -->
<g id="node44" class="node">
<title>140178132072264</title>
<ellipse fill="none" stroke="#000000" cx="730" cy="-320" rx="27" ry="27"/>
<text text-anchor="middle" x="730" y="-316.3" font-family="Times,serif" font-size="14.00" fill="#000000">splace_in_Root_2</text>
</g>
<!-- 140178132103464&#45;&gt;140178132072264 -->
<g id="edge13" class="edge">
<title>140178132103464&#45;&gt;140178132072264</title>
<path fill="none" stroke="#000000" d="M667.003,-301.8009C675.505,-304.257 685.0332,-307.0096 694.0549,-309.6159"/>
<polygon fill="#000000" stroke="#000000" points="693.3652,-313.0597 703.9437,-312.4726 695.308,-306.3347 693.3652,-313.0597"/>
</g>
<!-- 140178132103352 -->
<g id="node14" class="node">
<title>140178132103352</title>
<polygon fill="none" stroke="#000000" points="757,-177 703,-177 703,-141 757,-141 757,-177"/>
<text text-anchor="middle" x="730" y="-155.3" font-family="Times,serif" font-size="14.00" fill="#000000">hid_15</text>
</g>
<!-- 140178132104024 -->
<g id="node46" class="node">
<title>140178132104024</title>
<ellipse fill="none" stroke="#000000" cx="820" cy="-153" rx="27" ry="27"/>
<text text-anchor="middle" x="820" y="-149.3" font-family="Times,serif" font-size="14.00" fill="#000000">splace_in_TradeConfig_1</text>
</g>
<!-- 140178132103352&#45;&gt;140178132104024 -->
<g id="edge14" class="edge">
<title>140178132103352&#45;&gt;140178132104024</title>
<path fill="none" stroke="#000000" d="M757.003,-157.1998C765.1013,-156.6599 774.1306,-156.058 782.7665,-155.4822"/>
<polygon fill="#000000" stroke="#000000" points="783.2711,-158.9565 793.0161,-154.7989 782.8054,-151.972 783.2711,-158.9565"/>
</g>
<!-- 140178132072376 -->
<g id="node15" class="node">
<title>140178132072376</title>
<polygon fill="none" stroke="#000000" points="1207,-364 1153,-364 1153,-328 1207,-328 1207,-364"/>
<text text-anchor="middle" x="1180" y="-342.3" font-family="Times,serif" font-size="14.00" fill="#000000">hid_16</text>
</g>
<!-- 140178132072824 -->
<g id="node38" class="node">
<title>140178132072824</title>
<ellipse fill="none" stroke="#000000" cx="1270" cy="-355" rx="27" ry="27"/>
<text text-anchor="middle" x="1270" y="-351.3" font-family="Times,serif" font-size="14.00" fill="#000000">splace_in_Log_0</text>
</g>
<!-- 140178132072376&#45;&gt;140178132072824 -->
<g id="edge15" class="edge">
<title>140178132072376&#45;&gt;140178132072824</title>
<path fill="none" stroke="#000000" d="M1207.003,-348.7003C1215.1903,-349.519 1224.3292,-350.4329 1233.051,-351.3051"/>
<polygon fill="#000000" stroke="#000000" points="1232.7174,-354.7891 1243.0161,-352.3016 1233.414,-347.8239 1232.7174,-354.7891"/>
</g>
<!-- 140178132073832 -->
<g id="node16" class="node">
<title>140178132073832</title>
<polygon fill="none" stroke="#000000" points="1207,-238 1153,-238 1153,-202 1207,-202 1207,-238"/>
<text text-anchor="middle" x="1180" y="-216.3" font-family="Times,serif" font-size="14.00" fill="#000000">hid_17</text>
</g>
<!-- 140178132104528 -->
<g id="node45" class="node">
<title>140178132104528</title>
<ellipse fill="none" stroke="#000000" cx="1270" cy="-211" rx="27" ry="27"/>
<text text-anchor="middle" x="1270" y="-207.3" font-family="Times,serif" font-size="14.00" fill="#000000">splace_in_TradeConfig_0</text>
</g>
<!-- 140178132073832&#45;&gt;140178132104528 -->
<g id="edge16" class="edge">
<title>140178132073832&#45;&gt;140178132104528</title>
<path fill="none" stroke="#000000" d="M1207.003,-217.2997C1215.1903,-216.481 1224.3292,-215.5671 1233.051,-214.6949"/>
<polygon fill="#000000" stroke="#000000" points="1233.414,-218.1761 1243.0161,-213.6984 1232.7174,-211.2109 1233.414,-218.1761"/>
</g>
<!-- 140178132074056 -->
<g id="node17" class="node">
<title>140178132074056</title>
<polygon fill="none" stroke="#000000" points="1207,-301 1153,-301 1153,-265 1207,-265 1207,-301"/>
<text text-anchor="middle" x="1180" y="-279.3" font-family="Times,serif" font-size="14.00" fill="#000000">hid_18</text>
</g>
<!-- 140178132104696 -->
<g id="node36" class="node">
<title>140178132104696</title>
<ellipse fill="none" stroke="#000000" cx="1270" cy="-283" rx="27" ry="27"/>
<text text-anchor="middle" x="1270" y="-279.3" font-family="Times,serif" font-size="14.00" fill="#000000">pre_TradeDirect</text>
</g>
<!-- 140178132074056&#45;&gt;140178132104696 -->
<g id="edge17" class="edge">
<title>140178132074056&#45;&gt;140178132104696</title>
<path fill="none" stroke="#000000" d="M1207.003,-283C1215.0277,-283 1223.9665,-283 1232.5309,-283"/>
<polygon fill="#000000" stroke="#000000" points="1232.7051,-286.5001 1242.705,-283 1232.705,-279.5001 1232.7051,-286.5001"/>
</g>
<!-- 140178132074280 -->
<g id="node18" class="node">
<title>140178132074280</title>
<polygon fill="none" stroke="#000000" points="1207,-166 1153,-166 1153,-130 1207,-130 1207,-166"/>
<text text-anchor="middle" x="1180" y="-144.3" font-family="Times,serif" font-size="14.00" fill="#000000">hid_19</text>
</g>
<!-- 140178132070808 -->
<g id="node47" class="node">
<title>140178132070808</title>
<ellipse fill="none" stroke="#000000" cx="1270" cy="-139" rx="27" ry="27"/>
<text text-anchor="middle" x="1270" y="-135.3" font-family="Times,serif" font-size="14.00" fill="#000000">splace_in_TradeWebContextListener_0</text>
</g>
<!-- 140178132074280&#45;&gt;140178132070808 -->
<g id="edge18" class="edge">
<title>140178132074280&#45;&gt;140178132070808</title>
<path fill="none" stroke="#000000" d="M1207.003,-145.2997C1215.1903,-144.481 1224.3292,-143.5671 1233.051,-142.6949"/>
<polygon fill="#000000" stroke="#000000" points="1233.414,-146.1761 1243.0161,-141.6984 1232.7174,-139.2109 1233.414,-146.1761"/>
</g>
<!-- 140178132070920 -->
<g id="node19" class="node">
<title>140178132070920</title>
<polygon fill="none" stroke="#000000" points="1987,-50 1933,-50 1933,-14 1987,-14 1987,-50"/>
<text text-anchor="middle" x="1960" y="-28.3" font-family="Times,serif" font-size="14.00" fill="#000000">hid_2</text>
</g>
<!-- 140178132070920&#45;&gt;140178132070472 -->
<g id="edge19" class="edge">
<title>140178132070920&#45;&gt;140178132070472</title>
<path fill="none" stroke="#000000" d="M1932.8217,-24.0899C1897.8083,-14.6138 1834.9102,0 1780,0 550,0 550,0 550,0 448.3669,0 418.0951,-3.0142 326,-46 313.0938,-52.024 300.4709,-61.1853 289.9543,-70.0274"/>
<polygon fill="#000000" stroke="#000000" points="287.5801,-67.454 282.353,-76.6697 292.1862,-72.7251 287.5801,-67.454"/>
</g>
<!-- 140178132398152 -->
<g id="node20" class="node">
<title>140178132398152</title>
<polygon fill="none" stroke="#000000" points="1807,-213 1753,-213 1753,-177 1807,-177 1807,-213"/>
<text text-anchor="middle" x="1780" y="-191.3" font-family="Times,serif" font-size="14.00" fill="#000000">hid_20</text>
</g>
<!-- 140178132073104 -->
<g id="node39" class="node">
<title>140178132073104</title>
<ellipse fill="none" stroke="#000000" cx="1870" cy="-208" rx="27" ry="27"/>
<text text-anchor="middle" x="1870" y="-204.3" font-family="Times,serif" font-size="14.00" fill="#000000">splace_in_Log_1</text>
</g>
<!-- 140178132398152&#45;&gt;140178132073104 -->
<g id="edge20" class="edge">
<title>140178132398152&#45;&gt;140178132073104</title>
<path fill="none" stroke="#000000" d="M1807.003,-198.9004C1815.1903,-200.083 1824.3292,-201.4031 1833.051,-202.6629"/>
<polygon fill="#000000" stroke="#000000" points="1832.6184,-206.1367 1843.0161,-204.1023 1833.6192,-199.2086 1832.6184,-206.1367"/>
</g>
<!-- 140178132398376 -->
<g id="node21" class="node">
<title>140178132398376</title>
<polygon fill="none" stroke="#000000" points="1807,-133 1753,-133 1753,-97 1807,-97 1807,-133"/>
<text text-anchor="middle" x="1780" y="-111.3" font-family="Times,serif" font-size="14.00" fill="#000000">hid_21</text>
</g>
<!-- 140178132071088 -->
<g id="node48" class="node">
<title>140178132071088</title>
<ellipse fill="none" stroke="#000000" cx="1870" cy="-101" rx="27" ry="27"/>
<text text-anchor="middle" x="1870" y="-97.3" font-family="Times,serif" font-size="14.00" fill="#000000">splace_in_TradeWebContextListener_1</text>
</g>
<!-- 140178132398376&#45;&gt;140178132071088 -->
<g id="edge21" class="edge">
<title>140178132398376&#45;&gt;140178132071088</title>
<path fill="none" stroke="#000000" d="M1807.003,-110.7995C1815.1903,-109.526 1824.3292,-108.1043 1833.051,-106.7476"/>
<polygon fill="#000000" stroke="#000000" points="1833.6729,-110.1931 1843.0161,-105.1975 1832.5969,-103.2762 1833.6729,-110.1931"/>
</g>
<!-- 140178132071200 -->
<g id="node22" class="node">
<title>140178132071200</title>
<polygon fill="none" stroke="#000000" points="172,-307 118,-307 118,-271 172,-271 172,-307"/>
<text text-anchor="middle" x="145" y="-285.3" font-family="Times,serif" font-size="14.00" fill="#000000">hid_3</text>
</g>
<!-- 140178132071200&#45;&gt;140178132070472 -->
<g id="edge22" class="edge">
<title>140178132071200&#45;&gt;140178132070472</title>
<path fill="none" stroke="#000000" d="M156.1012,-270.843C176.1029,-238.1283 218.4297,-168.8989 243.4043,-128.0506"/>
<polygon fill="#000000" stroke="#000000" points="246.5257,-129.655 248.7559,-119.2976 240.5535,-126.0036 246.5257,-129.655"/>
</g>
<!-- 140178132071536 -->
<g id="node23" class="node">
<title>140178132071536</title>
<polygon fill="none" stroke="#000000" points="577,-456 523,-456 523,-420 577,-420 577,-456"/>
<text text-anchor="middle" x="550" y="-434.3" font-family="Times,serif" font-size="14.00" fill="#000000">hid_4</text>
</g>
<!-- 140178132070584 -->
<g id="node34" class="node">
<title>140178132070584</title>
<ellipse fill="none" stroke="#000000" cx="910" cy="-438" rx="27" ry="27"/>
<text text-anchor="middle" x="910" y="-434.3" font-family="Times,serif" font-size="14.00" fill="#000000">pre_Root</text>
</g>
<!-- 140178132071536&#45;&gt;140178132070584 -->
<g id="edge23" class="edge">
<title>140178132071536&#45;&gt;140178132070584</title>
<path fill="none" stroke="#000000" d="M577.0585,-438C640.6473,-438 799.7069,-438 872.5304,-438"/>
<polygon fill="#000000" stroke="#000000" points="872.6275,-441.5001 882.6275,-438 872.6275,-434.5001 872.6275,-441.5001"/>
</g>
<!-- 140178132071816 -->
<g id="node24" class="node">
<title>140178132071816</title>
<polygon fill="none" stroke="#000000" points="433.5,-391 379.5,-391 379.5,-355 433.5,-355 433.5,-391"/>
<text text-anchor="middle" x="406.5" y="-369.3" font-family="Times,serif" font-size="14.00" fill="#000000">hid_5</text>
</g>
<!-- 140178132071816&#45;&gt;140178132070584 -->
<g id="edge24" class="edge">
<title>140178132071816&#45;&gt;140178132070584</title>
<path fill="none" stroke="#000000" d="M433.7931,-375.5065C477.3515,-379.2842 565.2942,-386 640,-386 640,-386 640,-386 730,-386 782.6266,-386 840.6281,-406.7693 876.1912,-422.056"/>
<polygon fill="#000000" stroke="#000000" points="875.0411,-425.3738 885.6036,-426.2004 877.862,-418.9673 875.0411,-425.3738"/>
</g>
<!-- 140178132072096 -->
<g id="node25" class="node">
<title>140178132072096</title>
<polygon fill="none" stroke="#000000" points="847,-354 793,-354 793,-318 847,-318 847,-354"/>
<text text-anchor="middle" x="820" y="-332.3" font-family="Times,serif" font-size="14.00" fill="#000000">hid_6</text>
</g>
<!-- 140178132072096&#45;&gt;140178132070584 -->
<g id="edge25" class="edge">
<title>140178132072096&#45;&gt;140178132070584</title>
<path fill="none" stroke="#000000" d="M836.0902,-354.2356C849.6824,-369.64 869.3769,-391.9605 885.0186,-409.6877"/>
<polygon fill="#000000" stroke="#000000" points="882.6429,-412.2854 891.8836,-417.4681 887.8918,-407.654 882.6429,-412.2854"/>
</g>
<!-- 140178132072656 -->
<g id="node26" class="node">
<title>140178132072656</title>
<polygon fill="none" stroke="#000000" points="1401,-404 1347,-404 1347,-368 1401,-368 1401,-404"/>
<text text-anchor="middle" x="1374" y="-382.3" font-family="Times,serif" font-size="14.00" fill="#000000">hid_7</text>
</g>
<!-- 140178132072656&#45;&gt;140178132072488 -->
<g id="edge26" class="edge">
<title>140178132072656&#45;&gt;140178132072488</title>
<path fill="none" stroke="#000000" d="M1346.8224,-391.5061C1309.4202,-398.5917 1239.8994,-410 1180,-410 1090,-410 1090,-410 1090,-410 1038.2464,-410 980.4549,-392.624 944.6522,-379.7108"/>
<polygon fill="#000000" stroke="#000000" points="945.7536,-376.3865 935.1603,-376.2051 943.3283,-382.953 945.7536,-376.3865"/>
</g>
<!-- 140178132072936 -->
<g id="node27" class="node">
<title>140178132072936</title>
<polygon fill="none" stroke="#000000" points="1987,-363 1933,-363 1933,-327 1987,-327 1987,-363"/>
<text text-anchor="middle" x="1960" y="-341.3" font-family="Times,serif" font-size="14.00" fill="#000000">hid_8</text>
</g>
<!-- 140178132072936&#45;&gt;140178132072488 -->
<g id="edge27" class="edge">
<title>140178132072936&#45;&gt;140178132072488</title>
<path fill="none" stroke="#000000" d="M1948.7624,-363.1446C1923.6186,-401.2265 1858.7971,-486 1780,-486 1090,-486 1090,-486 1090,-486 1033.6238,-486 1018.8565,-469.7941 973,-437 964.1301,-430.6567 947.594,-411.8968 933.6886,-395.2536"/>
<polygon fill="#000000" stroke="#000000" points="936.1915,-392.7883 927.1187,-387.317 930.7993,-397.252 936.1915,-392.7883"/>
</g>
<!-- 140178132073216 -->
<g id="node28" class="node">
<title>140178132073216</title>
<polygon fill="none" stroke="#000000" points="1611,-435 1557,-435 1557,-399 1611,-399 1611,-435"/>
<text text-anchor="middle" x="1584" y="-413.3" font-family="Times,serif" font-size="14.00" fill="#000000">hid_9</text>
</g>
<!-- 140178132073216&#45;&gt;140178132072488 -->
<g id="edge28" class="edge">
<title>140178132073216&#45;&gt;140178132072488</title>
<path fill="none" stroke="#000000" d="M1556.6715,-423.6503C1516.7809,-432.7591 1440.1519,-448 1374,-448 1090,-448 1090,-448 1090,-448 1032.7006,-448 973.6256,-413.1634 939.4325,-388.9029"/>
<polygon fill="#000000" stroke="#000000" points="941.4396,-386.035 931.2916,-382.9905 937.3261,-391.6988 941.4396,-386.035"/>
</g>
<!-- 140178132106712 -->
<g id="node29" class="node">
<title>140178132106712</title>
<ellipse fill="#00ff00" stroke="#000000" cx="27" cy="-366" rx="27" ry="27"/>
<text text-anchor="middle" x="27" y="-362.3" font-family="Times,serif" font-size="14.00" fill="#000000">1</text>
</g>
<!-- 140178132106712&#45;&gt;140178132107216 -->
<g id="edge43" class="edge">
<title>140178132106712&#45;&gt;140178132107216</title>
<path fill="none" stroke="#000000" d="M50.8791,-378.749C65.4253,-386.5152 84.4496,-396.6723 101.5848,-405.8207"/>
<polygon fill="#000000" stroke="#000000" points="100.3996,-409.1555 110.8695,-410.7778 103.6965,-402.9805 100.3996,-409.1555"/>
</g>
<!-- 140178132106712&#45;&gt;140178132107160 -->
<g id="edge44" class="edge">
<title>140178132106712&#45;&gt;140178132107160</title>
<path fill="none" stroke="#000000" d="M54.0716,-366C61.7837,-366 70.5375,-366 79.4936,-366"/>
<polygon fill="#000000" stroke="#000000" points="79.6468,-369.5001 89.6467,-366 79.6467,-362.5001 79.6468,-369.5001"/>
</g>
<!-- 140178132106712&#45;&gt;140178132071200 -->
<g id="edge45" class="edge">
<title>140178132106712&#45;&gt;140178132071200</title>
<path fill="none" stroke="#000000" d="M49.7516,-351.1536C66.5939,-340.1633 89.8704,-324.9744 109.1971,-312.3629"/>
<polygon fill="#000000" stroke="#000000" points="111.2997,-315.1702 117.7617,-306.7741 107.4743,-309.3079 111.2997,-315.1702"/>
</g>
<!-- 140178132078544&#45;&gt;140178132072376 -->
<g id="edge29" class="edge">
<title>140178132078544&#45;&gt;140178132072376</title>
<path fill="none" stroke="#000000" d="M1112.2472,-298.573C1122.3684,-305.6579 1134.5735,-314.2015 1145.8201,-322.0741"/>
<polygon fill="#000000" stroke="#000000" points="1143.9838,-325.0609 1154.1832,-327.9283 1147.998,-319.3263 1143.9838,-325.0609"/>
</g>
<!-- 140178132078544&#45;&gt;140178132073832 -->
<g id="edge30" class="edge">
<title>140178132078544&#45;&gt;140178132073832</title>
<path fill="none" stroke="#000000" d="M1112.2472,-267.427C1122.3684,-260.3421 1134.5735,-251.7985 1145.8201,-243.9259"/>
<polygon fill="#000000" stroke="#000000" points="1147.998,-246.6737 1154.1832,-238.0717 1143.9838,-240.9391 1147.998,-246.6737"/>
</g>
<!-- 140178132078544&#45;&gt;140178132074056 -->
<g id="edge31" class="edge">
<title>140178132078544&#45;&gt;140178132074056</title>
<path fill="none" stroke="#000000" d="M1117.003,-283C1125.0277,-283 1133.9665,-283 1142.5309,-283"/>
<polygon fill="#000000" stroke="#000000" points="1142.7051,-286.5001 1152.705,-283 1142.705,-279.5001 1142.7051,-286.5001"/>
</g>
<!-- 140178132078544&#45;&gt;140178132074280 -->
<g id="edge32" class="edge">
<title>140178132078544&#45;&gt;140178132074280</title>
<path fill="none" stroke="#000000" d="M1105.064,-260.404C1120.7517,-236.8724 1145.3229,-200.0157 1162.0172,-174.9743"/>
<polygon fill="#000000" stroke="#000000" points="1165.1454,-176.5916 1167.7803,-166.3296 1159.321,-172.7087 1165.1454,-176.5916"/>
</g>
<!-- 140178132103856&#45;&gt;140178132398152 -->
<g id="edge33" class="edge">
<title>140178132103856&#45;&gt;140178132398152</title>
<path fill="none" stroke="#000000" d="M1715.07,-166.1422C1723.8861,-170.0605 1733.9811,-174.5472 1743.542,-178.7965"/>
<polygon fill="#000000" stroke="#000000" points="1742.2982,-182.0737 1752.8578,-182.9368 1745.1412,-175.677 1742.2982,-182.0737"/>
</g>
<!-- 140178132103856&#45;&gt;140178132398376 -->
<g id="edge34" class="edge">
<title>140178132103856&#45;&gt;140178132398376</title>
<path fill="none" stroke="#000000" d="M1715.07,-143.8578C1723.8861,-139.9395 1733.9811,-135.4528 1743.542,-131.2035"/>
<polygon fill="#000000" stroke="#000000" points="1745.1412,-134.323 1752.8578,-127.0632 1742.2982,-127.9263 1745.1412,-134.323"/>
</g>
<!-- 140178132103968&#45;&gt;140178132103744 -->
<g id="edge35" class="edge">
<title>140178132103968&#45;&gt;140178132103744</title>
<path fill="none" stroke="#000000" d="M576.5162,-203.7764C584.8043,-205.8944 594.1048,-208.2712 602.9779,-210.5388"/>
<polygon fill="#000000" stroke="#000000" points="602.1823,-213.9479 612.7375,-213.0329 603.9155,-207.1658 602.1823,-213.9479"/>
</g>
<!-- 140178132103968&#45;&gt;140178132103464 -->
<g id="edge36" class="edge">
<title>140178132103968&#45;&gt;140178132103464</title>
<path fill="none" stroke="#000000" d="M568.6481,-217.0985C582.4531,-231.9773 601.367,-252.3622 616.253,-268.406"/>
<polygon fill="#000000" stroke="#000000" points="613.8297,-270.9401 623.197,-275.8901 618.9611,-266.1789 613.8297,-270.9401"/>
</g>
<!-- 140178132103968&#45;&gt;140178132103352 -->
<g id="edge37" class="edge">
<title>140178132103968&#45;&gt;140178132103352</title>
<path fill="none" stroke="#000000" d="M576.5596,-191.393C607.2238,-184.9194 657.8792,-174.2255 692.5384,-166.9086"/>
<polygon fill="#000000" stroke="#000000" points="693.68,-170.2448 702.7413,-164.7546 692.234,-163.3957 693.68,-170.2448"/>
</g>
<!-- 140178132072488&#45;&gt;140178132106992 -->
<g id="edge38" class="edge">
<title>140178132072488&#45;&gt;140178132106992</title>
<path fill="none" stroke="#000000" d="M934.5929,-354.2501C943.5854,-349.9536 953.9573,-344.9982 963.7535,-340.3178"/>
<polygon fill="#000000" stroke="#000000" points="965.3913,-343.4143 972.9055,-335.9451 962.3736,-337.0981 965.3913,-343.4143"/>
</g>
<!-- 140178132070584&#45;&gt;140178132106936 -->
<g id="edge39" class="edge">
<title>140178132070584&#45;&gt;140178132106936</title>
<path fill="none" stroke="#000000" d="M928.6481,-458.3057C942.4531,-473.3378 961.367,-493.933 976.253,-510.1421"/>
<polygon fill="#000000" stroke="#000000" points="973.8551,-512.7055 983.197,-517.7034 979.0108,-507.9707 973.8551,-512.7055"/>
</g>
<!-- 140178132104864&#45;&gt;140178132107048 -->
<g id="edge40" class="edge">
<title>140178132104864&#45;&gt;140178132107048</title>
<path fill="none" stroke="#000000" d="M1505.0225,-155C1512.9553,-155 1521.9196,-155 1530.8881,-155"/>
<polygon fill="#000000" stroke="#000000" points="1530.961,-158.5001 1540.961,-155 1530.9609,-151.5001 1530.961,-158.5001"/>
</g>
<!-- 140178132104696&#45;&gt;140178132107104 -->
<g id="edge41" class="edge">
<title>140178132104696&#45;&gt;140178132107104</title>
<path fill="none" stroke="#000000" d="M1296.7826,-287.3779C1304.741,-288.6788 1313.7393,-290.1497 1322.7094,-291.616"/>
<polygon fill="#000000" stroke="#000000" points="1322.3344,-295.101 1332.7681,-293.2602 1323.4637,-288.1927 1322.3344,-295.101"/>
</g>
<!-- 140178132070472&#45;&gt;140178132106656 -->
<g id="edge42" class="edge">
<title>140178132070472&#45;&gt;140178132106656</title>
<path fill="none" stroke="#000000" d="M288.6549,-104.7602C304.1736,-110.0593 324.6814,-117.0619 344.2329,-123.7381"/>
<polygon fill="#000000" stroke="#000000" points="343.1336,-127.0611 353.7281,-126.9803 345.3957,-120.4366 343.1336,-127.0611"/>
</g>
<!-- 140178132072824&#45;&gt;140178132072656 -->
<g id="edge46" class="edge">
<title>140178132072824&#45;&gt;140178132072656</title>
<path fill="none" stroke="#000000" d="M1295.9753,-362.7426C1308.466,-366.4658 1323.6558,-370.9936 1337.3022,-375.0612"/>
<polygon fill="#000000" stroke="#000000" points="1336.3223,-378.4213 1346.9054,-377.9237 1338.3219,-371.7129 1336.3223,-378.4213"/>
</g>
<!-- 140178132073104&#45;&gt;140178132072936 -->
<g id="edge47" class="edge">
<title>140178132073104&#45;&gt;140178132072936</title>
<path fill="none" stroke="#000000" d="M1884.8617,-230.6228C1900.6717,-254.6891 1925.6674,-292.7381 1942.4386,-318.2677"/>
<polygon fill="#000000" stroke="#000000" points="1939.5834,-320.2961 1947.9993,-326.7322 1945.4339,-316.4526 1939.5834,-320.2961"/>
</g>
<!-- 140178132073384&#45;&gt;140178132073216 -->
<g id="edge48" class="edge">
<title>140178132073384&#45;&gt;140178132073216</title>
<path fill="none" stroke="#000000" d="M1502.8523,-381.785C1516.1042,-387.5358 1532.6636,-394.7219 1547.3616,-401.1003"/>
<polygon fill="#000000" stroke="#000000" points="1546.1313,-404.3817 1556.6981,-405.152 1548.9179,-397.9603 1546.1313,-404.3817"/>
</g>
<!-- 140178132073664&#45;&gt;140178132073496 -->
<g id="edge49" class="edge">
<title>140178132073664&#45;&gt;140178132073496</title>
<path fill="none" stroke="#000000" d="M757.003,-226.2001C765.0277,-226.5568 773.9665,-226.9541 782.5309,-227.3347"/>
<polygon fill="#000000" stroke="#000000" points="782.5595,-230.8393 792.705,-227.7869 782.8703,-223.8462 782.5595,-230.8393"/>
</g>
<!-- 140178132071704&#45;&gt;140178132071536 -->
<g id="edge50" class="edge">
<title>140178132071704&#45;&gt;140178132071536</title>
<path fill="none" stroke="#000000" d="M290.0003,-438C341.495,-438 453.8288,-438 512.5488,-438"/>
<polygon fill="#000000" stroke="#000000" points="512.8624,-441.5001 522.8624,-438 512.8624,-434.5001 512.8624,-441.5001"/>
</g>
<!-- 140178132071984&#45;&gt;140178132071816 -->
<g id="edge51" class="edge">
<title>140178132071984&#45;&gt;140178132071816</title>
<path fill="none" stroke="#000000" d="M289.9913,-367.3166C312.2978,-368.4048 344.2141,-369.9617 369.0032,-371.1709"/>
<polygon fill="#000000" stroke="#000000" points="368.9832,-374.674 379.1419,-371.6655 369.3243,-367.6823 368.9832,-374.674"/>
</g>
<!-- 140178132072264&#45;&gt;140178132072096 -->
<g id="edge52" class="edge">
<title>140178132072264&#45;&gt;140178132072096</title>
<path fill="none" stroke="#000000" d="M757.003,-324.8005C765.1158,-326.2428 774.1631,-327.8512 782.8131,-329.389"/>
<polygon fill="#000000" stroke="#000000" points="782.2468,-332.8431 792.705,-331.1476 783.472,-325.9512 782.2468,-332.8431"/>
</g>
<!-- 140178132104528&#45;&gt;140178132104752 -->
<g id="edge53" class="edge">
<title>140178132104528&#45;&gt;140178132104752</title>
<path fill="none" stroke="#000000" d="M1296.5127,-204.8817C1308.7896,-202.0486 1323.5846,-198.6343 1336.9422,-195.5518"/>
<polygon fill="#000000" stroke="#000000" points="1337.8542,-198.9334 1346.8111,-193.2744 1336.2801,-192.1127 1337.8542,-198.9334"/>
</g>
<!-- 140178132104024&#45;&gt;140178132104360 -->
<g id="edge54" class="edge">
<title>140178132104024&#45;&gt;140178132104360</title>
<path fill="none" stroke="#000000" d="M843.1772,-138.8361C852.6172,-133.0672 863.7478,-126.2652 874.189,-119.8845"/>
<polygon fill="#000000" stroke="#000000" points="876.0374,-122.8568 882.7452,-114.6557 872.3872,-116.8838 876.0374,-122.8568"/>
</g>
<!-- 140178132070808&#45;&gt;140178132070640 -->
<g id="edge55" class="edge">
<title>140178132070808&#45;&gt;140178132070640</title>
<path fill="none" stroke="#000000" d="M1290.5471,-120.6262C1306.4608,-106.3956 1328.6699,-86.5355 1346.1764,-70.8807"/>
<polygon fill="#000000" stroke="#000000" points="1348.7283,-73.2941 1353.8495,-64.0192 1344.0621,-68.0761 1348.7283,-73.2941"/>
</g>
<!-- 140178132071088&#45;&gt;140178132070920 -->
<g id="edge56" class="edge">
<title>140178132071088&#45;&gt;140178132070920</title>
<path fill="none" stroke="#000000" d="M1891.7865,-84.297C1902.6918,-75.9363 1916.1018,-65.6553 1928.1375,-56.4279"/>
<polygon fill="#000000" stroke="#000000" points="1930.3961,-59.1066 1936.2027,-50.2446 1926.1371,-53.5513 1930.3961,-59.1066"/>
</g>
</g>
</svg>
