<?xml version="1.0" encoding="UTF-8" standalone="no"?>
<!DOCTYPE svg PUBLIC "-//W3C//DTD SVG 1.1//EN"
 "http://www.w3.org/Graphics/SVG/1.1/DTD/svg11.dtd">
<!-- Generated by graphviz version 2.40.1 (20161225.0304)
 -->
<!-- Title: %3 Pages: 1 -->
<svg width="2545pt" height="800pt"
 viewBox="0.00 0.00 2545.00 800.00" xmlns="http://www.w3.org/2000/svg" xmlns:xlink="http://www.w3.org/1999/xlink">
<g id="graph0" class="graph" transform="scale(1 1) rotate(0) translate(4 796)">
<title>%3</title>
<!-- 140531498579056 -->
<g id="node1" class="node">
<title>140531498579056</title>
<polygon fill="none" stroke="#000000" points="996,-672 898,-672 898,-636 996,-636 996,-672"/>
<text text-anchor="middle" x="947" y="-650.3" font-family="Times,serif" font-size="14.00" fill="#000000">JSFLoginFilter</text>
</g>
<!-- 140531498580344 -->
<g id="node56" class="node">
<title>140531498580344</title>
<ellipse fill="none" stroke="#000000" cx="1059" cy="-663" rx="27" ry="27"/>
<text text-anchor="middle" x="1059" y="-659.3" font-family="Times,serif" font-size="14.00" fill="#000000">splace_in_Root_0</text>
</g>
<!-- 140531498579056&#45;&gt;140531498580344 -->
<g id="edge1" class="edge">
<title>140531498579056&#45;&gt;140531498580344</title>
<path fill="none" stroke="#000000" d="M996.1248,-657.9475C1004.8034,-658.6449 1013.7056,-659.3603 1021.9807,-660.0252"/>
<polygon fill="#000000" stroke="#000000" points="1021.8147,-663.5231 1032.063,-660.8354 1022.3755,-656.5456 1021.8147,-663.5231"/>
</g>
<!-- 140531498578776 -->
<g id="node2" class="node">
<title>140531498578776</title>
<polygon fill="none" stroke="#000000" points="1204,-219 1150,-219 1150,-183 1204,-183 1204,-219"/>
<text text-anchor="middle" x="1177" y="-197.3" font-family="Times,serif" font-size="14.00" fill="#000000">Log</text>
</g>
<!-- 140531498777904 -->
<g id="node39" class="node">
<title>140531498777904</title>
<ellipse fill="none" stroke="#000000" cx="1295" cy="-241" rx="27" ry="27"/>
<text text-anchor="middle" x="1295" y="-237.3" font-family="Times,serif" font-size="14.00" fill="#000000">intplace_Log</text>
</g>
<!-- 140531498578776&#45;&gt;140531498777904 -->
<g id="edge2" class="edge">
<title>140531498578776&#45;&gt;140531498777904</title>
<path fill="none" stroke="#000000" d="M1204.0716,-210.1768C1220.6059,-215.7816 1241.9275,-223.0093 1259.7678,-229.0569"/>
<polygon fill="#000000" stroke="#000000" points="1258.6741,-232.3817 1269.2684,-232.2774 1260.9214,-225.7522 1258.6741,-232.3817"/>
</g>
<!-- 140531498578944 -->
<g id="node3" class="node">
<title>140531498578944</title>
<polygon fill="none" stroke="#000000" points="1232,-782 1122,-782 1122,-746 1232,-746 1232,-782"/>
<text text-anchor="middle" x="1177" y="-760.3" font-family="Times,serif" font-size="14.00" fill="#000000">OrdersAlertFilter</text>
</g>
<!-- 140531498742840 -->
<g id="node40" class="node">
<title>140531498742840</title>
<ellipse fill="none" stroke="#000000" cx="27" cy="-631" rx="27" ry="27"/>
<text text-anchor="middle" x="27" y="-627.3" font-family="Times,serif" font-size="14.00" fill="#000000">intplace_OrdersAlertFilter</text>
</g>
<!-- 140531498578944&#45;&gt;140531498742840 -->
<g id="edge3" class="edge">
<title>140531498578944&#45;&gt;140531498742840</title>
<path fill="none" stroke="#000000" d="M1121.9256,-774.5058C1075.4745,-782.4509 1007.1369,-792 947,-792 207,-792 207,-792 207,-792 130.9425,-792 72.2913,-711.1555 44.569,-664.0423"/>
<polygon fill="#000000" stroke="#000000" points="47.453,-662.0357 39.441,-655.1033 41.3812,-665.519 47.453,-662.0357"/>
</g>
<!-- 140531498578720 -->
<g id="node4" class="node">
<title>140531498578720</title>
<polygon fill="none" stroke="#000000" points="2447,-454 2393,-454 2393,-418 2447,-418 2447,-454"/>
<text text-anchor="middle" x="2420" y="-432.3" font-family="Times,serif" font-size="14.00" fill="#000000">Root</text>
</g>
<!-- 140531498578608 -->
<g id="node64" class="node">
<title>140531498578608</title>
<ellipse fill="#ffa500" stroke="#000000" cx="2510" cy="-436" rx="27" ry="27"/>
</g>
<!-- 140531498578720&#45;&gt;140531498578608 -->
<g id="edge4" class="edge">
<title>140531498578720&#45;&gt;140531498578608</title>
<path fill="none" stroke="#000000" d="M2447.003,-436C2455.0277,-436 2463.9665,-436 2472.5309,-436"/>
<polygon fill="#000000" stroke="#000000" points="2472.7051,-439.5001 2482.705,-436 2472.705,-432.5001 2472.7051,-439.5001"/>
</g>
<!-- 140531498579000 -->
<g id="node5" class="node">
<title>140531498579000</title>
<polygon fill="none" stroke="#000000" points="380,-739 270,-739 270,-703 380,-703 380,-739"/>
<text text-anchor="middle" x="325" y="-717.3" font-family="Times,serif" font-size="14.00" fill="#000000">TradeAppServlet</text>
</g>
<!-- 140531498776224 -->
<g id="node54" class="node">
<title>140531498776224</title>
<ellipse fill="none" stroke="#000000" cx="443" cy="-737" rx="27" ry="27"/>
<text text-anchor="middle" x="443" y="-733.3" font-family="Times,serif" font-size="14.00" fill="#000000">splace_in_OrdersAlertFilter_0</text>
</g>
<!-- 140531498579000&#45;&gt;140531498776224 -->
<g id="edge5" class="edge">
<title>140531498579000&#45;&gt;140531498776224</title>
<path fill="none" stroke="#000000" d="M380.1996,-728.4847C388.972,-729.6742 397.8568,-730.8789 406.0742,-731.9931"/>
<polygon fill="#000000" stroke="#000000" points="405.6875,-735.4726 416.0671,-733.3481 406.6281,-728.5361 405.6875,-735.4726"/>
</g>
<!-- 140531498578832 -->
<g id="node6" class="node">
<title>140531498578832</title>
<polygon fill="none" stroke="#000000" points="592,-446 506,-446 506,-410 592,-410 592,-446"/>
<text text-anchor="middle" x="549" y="-424.3" font-family="Times,serif" font-size="14.00" fill="#000000">TradeConfig</text>
</g>
<!-- 140531498777848 -->
<g id="node41" class="node">
<title>140531498777848</title>
<ellipse fill="none" stroke="#000000" cx="655" cy="-423" rx="27" ry="27"/>
<text text-anchor="middle" x="655" y="-419.3" font-family="Times,serif" font-size="14.00" fill="#000000">intplace_TradeConfig</text>
</g>
<!-- 140531498578832&#45;&gt;140531498777848 -->
<g id="edge6" class="edge">
<title>140531498578832&#45;&gt;140531498777848</title>
<path fill="none" stroke="#000000" d="M592.1143,-425.9663C600.5776,-425.5671 609.3896,-425.1514 617.6453,-424.762"/>
<polygon fill="#000000" stroke="#000000" points="617.9128,-428.2534 627.7368,-424.286 617.583,-421.2612 617.9128,-428.2534"/>
</g>
<!-- 140531498578888 -->
<g id="node7" class="node">
<title>140531498578888</title>
<polygon fill="none" stroke="#000000" points="1620,-250 1538,-250 1538,-214 1620,-214 1620,-250"/>
<text text-anchor="middle" x="1579" y="-228.3" font-family="Times,serif" font-size="14.00" fill="#000000">TradeDirect</text>
</g>
<!-- 140531498774600 -->
<g id="node52" class="node">
<title>140531498774600</title>
<ellipse fill="none" stroke="#000000" cx="1683" cy="-177" rx="27" ry="27"/>
<text text-anchor="middle" x="1683" y="-173.3" font-family="Times,serif" font-size="14.00" fill="#000000">splace_in_Log_2</text>
</g>
<!-- 140531498578888&#45;&gt;140531498774600 -->
<g id="edge7" class="edge">
<title>140531498578888&#45;&gt;140531498774600</title>
<path fill="none" stroke="#000000" d="M1613.0535,-213.9909C1624.9264,-207.712 1638.2222,-200.6806 1650.0074,-194.448"/>
<polygon fill="#000000" stroke="#000000" points="1651.8754,-197.4195 1659.0791,-189.6505 1648.6029,-191.2315 1651.8754,-197.4195"/>
</g>
<!-- 140531498578440 -->
<g id="node8" class="node">
<title>140531498578440</title>
<polygon fill="none" stroke="#000000" points="1907,-457 1746,-457 1746,-421 1907,-421 1907,-457"/>
<text text-anchor="middle" x="1826.5" y="-435.3" font-family="Times,serif" font-size="14.00" fill="#000000">TradeWebContextListener</text>
</g>
<!-- 140531498776896 -->
<g id="node42" class="node">
<title>140531498776896</title>
<ellipse fill="none" stroke="#000000" cx="1970" cy="-439" rx="27" ry="27"/>
<text text-anchor="middle" x="1970" y="-435.3" font-family="Times,serif" font-size="14.00" fill="#000000">intplace_TradeWebContextListener</text>
</g>
<!-- 140531498578440&#45;&gt;140531498776896 -->
<g id="edge8" class="edge">
<title>140531498578440&#45;&gt;140531498776896</title>
<path fill="none" stroke="#000000" d="M1907.0588,-439C1916.032,-439 1924.8187,-439 1932.8458,-439"/>
<polygon fill="#000000" stroke="#000000" points="1932.9126,-442.5001 1942.9126,-439 1932.9125,-435.5001 1932.9126,-442.5001"/>
</g>
<!-- 140531498579280 -->
<g id="node9" class="node">
<title>140531498579280</title>
<polygon fill="none" stroke="#000000" points="1606,-344 1552,-344 1552,-308 1606,-308 1606,-344"/>
<text text-anchor="middle" x="1579" y="-322.3" font-family="Times,serif" font-size="14.00" fill="#000000">hid_1</text>
</g>
<!-- 140531498579112 -->
<g id="node49" class="node">
<title>140531498579112</title>
<ellipse fill="none" stroke="#000000" cx="1683" cy="-439" rx="27" ry="27"/>
<text text-anchor="middle" x="1683" y="-435.3" font-family="Times,serif" font-size="14.00" fill="#000000">pre_TradeWebContextListener</text>
</g>
<!-- 140531498579280&#45;&gt;140531498579112 -->
<g id="edge9" class="edge">
<title>140531498579280&#45;&gt;140531498579112</title>
<path fill="none" stroke="#000000" d="M1600.404,-344.2598C1606.8829,-350.0637 1613.8951,-356.633 1620,-363 1633.9807,-377.5808 1648.4425,-394.8459 1659.9787,-409.2327"/>
<polygon fill="#000000" stroke="#000000" points="1657.4478,-411.6737 1666.4072,-417.3287 1662.9298,-407.3208 1657.4478,-411.6737"/>
</g>
<!-- 140531498774712 -->
<g id="node10" class="node">
<title>140531498774712</title>
<polygon fill="none" stroke="#000000" points="2267,-144 2213,-144 2213,-108 2267,-108 2267,-144"/>
<text text-anchor="middle" x="2240" y="-122.3" font-family="Times,serif" font-size="14.00" fill="#000000">hid_10</text>
</g>
<!-- 140531498581128 -->
<g id="node43" class="node">
<title>140531498581128</title>
<ellipse fill="none" stroke="#000000" cx="1059" cy="-114" rx="27" ry="27"/>
<text text-anchor="middle" x="1059" y="-110.3" font-family="Times,serif" font-size="14.00" fill="#000000">pre_Log</text>
</g>
<!-- 140531498774712&#45;&gt;140531498581128 -->
<g id="edge10" class="edge">
<title>140531498774712&#45;&gt;140531498581128</title>
<path fill="none" stroke="#000000" d="M2219.1805,-107.9795C2187.2247,-82.234 2123.1342,-38 2060,-38 1295,-38 1295,-38 1295,-38 1216.2781,-38 1195.1213,-46.8381 1122,-76 1111.0088,-80.3835 1099.7223,-86.5707 1089.7937,-92.6821"/>
<polygon fill="#000000" stroke="#000000" points="1087.6568,-89.8936 1081.1047,-98.2195 1091.4188,-95.7968 1087.6568,-89.8936"/>
</g>
<!-- 140531498774992 -->
<g id="node11" class="node">
<title>140531498774992</title>
<polygon fill="none" stroke="#000000" points="1606,-408 1552,-408 1552,-372 1606,-372 1606,-408"/>
<text text-anchor="middle" x="1579" y="-386.3" font-family="Times,serif" font-size="14.00" fill="#000000">hid_11</text>
</g>
<!-- 140531498581016 -->
<g id="node47" class="node">
<title>140531498581016</title>
<ellipse fill="none" stroke="#000000" cx="443" cy="-524" rx="27" ry="27"/>
<text text-anchor="middle" x="443" y="-520.3" font-family="Times,serif" font-size="14.00" fill="#000000">pre_TradeConfig</text>
</g>
<!-- 140531498774992&#45;&gt;140531498581016 -->
<g id="edge11" class="edge">
<title>140531498774992&#45;&gt;140531498581016</title>
<path fill="none" stroke="#000000" d="M1556.3276,-408.0205C1521.5849,-433.766 1452.1253,-478 1385,-478 655,-478 655,-478 655,-478 591.5024,-478 519.6897,-497.952 478.0558,-511.5757"/>
<polygon fill="#000000" stroke="#000000" points="476.771,-508.3146 468.3944,-514.8018 478.9882,-514.9542 476.771,-508.3146"/>
</g>
<!-- 140531498775272 -->
<g id="node12" class="node">
<title>140531498775272</title>
<polygon fill="none" stroke="#000000" points="352,-563 298,-563 298,-527 352,-527 352,-563"/>
<text text-anchor="middle" x="325" y="-541.3" font-family="Times,serif" font-size="14.00" fill="#000000">hid_12</text>
</g>
<!-- 140531498775272&#45;&gt;140531498581016 -->
<g id="edge12" class="edge">
<title>140531498775272&#45;&gt;140531498581016</title>
<path fill="none" stroke="#000000" d="M352.0716,-540.1822C368.1115,-537.3276 388.6567,-533.6713 406.1584,-530.5566"/>
<polygon fill="#000000" stroke="#000000" points="406.8224,-533.9935 416.0544,-528.7954 405.5958,-527.1018 406.8224,-533.9935"/>
</g>
<!-- 140531498775552 -->
<g id="node13" class="node">
<title>140531498775552</title>
<polygon fill="none" stroke="#000000" points="2267,-554 2213,-554 2213,-518 2267,-518 2267,-554"/>
<text text-anchor="middle" x="2240" y="-532.3" font-family="Times,serif" font-size="14.00" fill="#000000">hid_13</text>
</g>
<!-- 140531498775552&#45;&gt;140531498581016 -->
<g id="edge13" class="edge">
<title>140531498775552&#45;&gt;140531498581016</title>
<path fill="none" stroke="#000000" d="M2212.7451,-542.6742C2177.6508,-550.6696 2114.6673,-563 2060,-563 1385,-563 1385,-563 1385,-563 1140.5358,-563 1079.4642,-570 835,-570 655,-570 655,-570 655,-570 591.5024,-570 519.6897,-550.048 478.0558,-536.4243"/>
<polygon fill="#000000" stroke="#000000" points="478.9882,-533.0458 468.3944,-533.1982 476.771,-539.6854 478.9882,-533.0458"/>
</g>
<!-- 140531498776056 -->
<g id="node14" class="node">
<title>140531498776056</title>
<polygon fill="none" stroke="#000000" points="576,-760 522,-760 522,-724 576,-724 576,-760"/>
<text text-anchor="middle" x="549" y="-738.3" font-family="Times,serif" font-size="14.00" fill="#000000">hid_14</text>
</g>
<!-- 140531498775888 -->
<g id="node44" class="node">
<title>140531498775888</title>
<ellipse fill="none" stroke="#000000" cx="1059" cy="-736" rx="27" ry="27"/>
<text text-anchor="middle" x="1059" y="-732.3" font-family="Times,serif" font-size="14.00" fill="#000000">pre_OrdersAlertFilter</text>
</g>
<!-- 140531498776056&#45;&gt;140531498775888 -->
<g id="edge14" class="edge">
<title>140531498776056&#45;&gt;140531498775888</title>
<path fill="none" stroke="#000000" d="M576.2363,-744.723C614.0614,-748.2635 684.6581,-754 745,-754 745,-754 745,-754 835,-754 901.0971,-754 977.8136,-746.1166 1022.1457,-740.7842"/>
<polygon fill="#000000" stroke="#000000" points="1022.6616,-744.2472 1032.1613,-739.5562 1021.8097,-737.2992 1022.6616,-744.2472"/>
</g>
<!-- 140531498776336 -->
<g id="node15" class="node">
<title>140531498776336</title>
<polygon fill="none" stroke="#000000" points="974,-542 920,-542 920,-506 974,-506 974,-542"/>
<text text-anchor="middle" x="947" y="-520.3" font-family="Times,serif" font-size="14.00" fill="#000000">hid_15</text>
</g>
<!-- 140531498776336&#45;&gt;140531498775888 -->
<g id="edge15" class="edge">
<title>140531498776336&#45;&gt;140531498775888</title>
<path fill="none" stroke="#000000" d="M955.5775,-542.1234C975.3698,-583.8743 1023.2117,-684.3813 1032,-699 1033.3623,-701.2661 1034.8262,-703.5677 1036.3423,-705.8574"/>
<polygon fill="#000000" stroke="#000000" points="1033.7752,-708.2983 1042.3443,-714.529 1039.531,-704.3145 1033.7752,-708.2983"/>
</g>
<!-- 140531498776616 -->
<g id="node16" class="node">
<title>140531498776616</title>
<polygon fill="none" stroke="#000000" points="974,-726 920,-726 920,-690 974,-690 974,-726"/>
<text text-anchor="middle" x="947" y="-704.3" font-family="Times,serif" font-size="14.00" fill="#000000">hid_16</text>
</g>
<!-- 140531498776616&#45;&gt;140531498775888 -->
<g id="edge16" class="edge">
<title>140531498776616&#45;&gt;140531498775888</title>
<path fill="none" stroke="#000000" d="M974.1121,-714.778C988.6633,-718.4158 1006.7981,-722.9495 1022.5657,-726.8914"/>
<polygon fill="#000000" stroke="#000000" points="1021.9737,-730.3511 1032.5241,-729.381 1023.6715,-723.5601 1021.9737,-730.3511"/>
</g>
<!-- 140531498777120 -->
<g id="node17" class="node">
<title>140531498777120</title>
<polygon fill="none" stroke="#000000" points="2087,-392 2033,-392 2033,-356 2087,-356 2087,-392"/>
<text text-anchor="middle" x="2060" y="-370.3" font-family="Times,serif" font-size="14.00" fill="#000000">hid_17</text>
</g>
<!-- 140531498774880 -->
<g id="node53" class="node">
<title>140531498774880</title>
<ellipse fill="none" stroke="#000000" cx="2150" cy="-285" rx="27" ry="27"/>
<text text-anchor="middle" x="2150" y="-281.3" font-family="Times,serif" font-size="14.00" fill="#000000">splace_in_Log_3</text>
</g>
<!-- 140531498777120&#45;&gt;140531498774880 -->
<g id="edge17" class="edge">
<title>140531498777120&#45;&gt;140531498774880</title>
<path fill="none" stroke="#000000" d="M2078.2128,-355.9895C2091.1597,-343.1865 2108.7578,-325.7839 2123.2895,-311.4137"/>
<polygon fill="#000000" stroke="#000000" points="2125.9188,-313.7359 2130.5683,-304.2158 2120.9968,-308.7586 2125.9188,-313.7359"/>
</g>
<!-- 140531498777344 -->
<g id="node18" class="node">
<title>140531498777344</title>
<polygon fill="none" stroke="#000000" points="2087,-456 2033,-456 2033,-420 2087,-420 2087,-456"/>
<text text-anchor="middle" x="2060" y="-434.3" font-family="Times,serif" font-size="14.00" fill="#000000">hid_18</text>
</g>
<!-- 140531498580904 -->
<g id="node58" class="node">
<title>140531498580904</title>
<ellipse fill="none" stroke="#000000" cx="2150" cy="-436" rx="27" ry="27"/>
<text text-anchor="middle" x="2150" y="-432.3" font-family="Times,serif" font-size="14.00" fill="#000000">splace_in_Root_2</text>
</g>
<!-- 140531498777344&#45;&gt;140531498580904 -->
<g id="edge18" class="edge">
<title>140531498777344&#45;&gt;140531498580904</title>
<path fill="none" stroke="#000000" d="M2087.003,-437.3999C2095.0277,-437.2216 2103.9665,-437.023 2112.5309,-436.8326"/>
<polygon fill="#000000" stroke="#000000" points="2112.7853,-440.328 2122.705,-436.6066 2112.6297,-433.3297 2112.7853,-440.328"/>
</g>
<!-- 140531498777568 -->
<g id="node19" class="node">
<title>140531498777568</title>
<polygon fill="none" stroke="#000000" points="2087,-518 2033,-518 2033,-482 2087,-482 2087,-518"/>
<text text-anchor="middle" x="2060" y="-496.3" font-family="Times,serif" font-size="14.00" fill="#000000">hid_19</text>
</g>
<!-- 140531498775720 -->
<g id="node61" class="node">
<title>140531498775720</title>
<ellipse fill="none" stroke="#000000" cx="2150" cy="-508" rx="27" ry="27"/>
<text text-anchor="middle" x="2150" y="-504.3" font-family="Times,serif" font-size="14.00" fill="#000000">splace_in_TradeConfig_2</text>
</g>
<!-- 140531498777568&#45;&gt;140531498775720 -->
<g id="edge19" class="edge">
<title>140531498777568&#45;&gt;140531498775720</title>
<path fill="none" stroke="#000000" d="M2087.003,-502.4003C2095.1903,-503.128 2104.3292,-503.9404 2113.051,-504.7156"/>
<polygon fill="#000000" stroke="#000000" points="2112.7454,-508.2022 2123.0161,-505.6014 2113.3653,-501.2297 2112.7454,-508.2022"/>
</g>
<!-- 140531498579560 -->
<g id="node20" class="node">
<title>140531498579560</title>
<polygon fill="none" stroke="#000000" points="1204,-446 1150,-446 1150,-410 1204,-410 1204,-446"/>
<text text-anchor="middle" x="1177" y="-424.3" font-family="Times,serif" font-size="14.00" fill="#000000">hid_2</text>
</g>
<!-- 140531498579560&#45;&gt;140531498579112 -->
<g id="edge20" class="edge">
<title>140531498579560&#45;&gt;140531498579112</title>
<path fill="none" stroke="#000000" d="M1204.2276,-430.5743C1243.9343,-434.1003 1320.0728,-440 1385,-440 1385,-440 1385,-440 1475,-440 1534.6295,-440 1603.8736,-439.5839 1645.5199,-439.2886"/>
<polygon fill="#000000" stroke="#000000" points="1645.7694,-442.7869 1655.7438,-439.2145 1645.7187,-435.7871 1645.7694,-442.7869"/>
</g>
<!-- 140531498778072 -->
<g id="node21" class="node">
<title>140531498778072</title>
<polygon fill="none" stroke="#000000" points="1412,-196 1358,-196 1358,-160 1412,-160 1412,-196"/>
<text text-anchor="middle" x="1385" y="-174.3" font-family="Times,serif" font-size="14.00" fill="#000000">hid_20</text>
</g>
<!-- 140531498581464 -->
<g id="node50" class="node">
<title>140531498581464</title>
<ellipse fill="none" stroke="#000000" cx="1475" cy="-169" rx="27" ry="27"/>
<text text-anchor="middle" x="1475" y="-165.3" font-family="Times,serif" font-size="14.00" fill="#000000">splace_in_Log_0</text>
</g>
<!-- 140531498778072&#45;&gt;140531498581464 -->
<g id="edge21" class="edge">
<title>140531498778072&#45;&gt;140531498581464</title>
<path fill="none" stroke="#000000" d="M1412.003,-175.2997C1420.1903,-174.481 1429.3292,-173.5671 1438.051,-172.6949"/>
<polygon fill="#000000" stroke="#000000" points="1438.414,-176.1761 1448.0161,-171.6984 1437.7174,-169.2109 1438.414,-176.1761"/>
</g>
<!-- 140531498778296 -->
<g id="node22" class="node">
<title>140531498778296</title>
<polygon fill="none" stroke="#000000" points="1412,-389 1358,-389 1358,-353 1412,-353 1412,-389"/>
<text text-anchor="middle" x="1385" y="-367.3" font-family="Times,serif" font-size="14.00" fill="#000000">hid_21</text>
</g>
<!-- 140531498775160 -->
<g id="node59" class="node">
<title>140531498775160</title>
<ellipse fill="none" stroke="#000000" cx="1475" cy="-385" rx="27" ry="27"/>
<text text-anchor="middle" x="1475" y="-381.3" font-family="Times,serif" font-size="14.00" fill="#000000">splace_in_TradeConfig_0</text>
</g>
<!-- 140531498778296&#45;&gt;140531498775160 -->
<g id="edge22" class="edge">
<title>140531498778296&#45;&gt;140531498775160</title>
<path fill="none" stroke="#000000" d="M1412.003,-375.2005C1420.1903,-376.474 1429.3292,-377.8957 1438.051,-379.2524"/>
<polygon fill="#000000" stroke="#000000" points="1437.5969,-382.7238 1448.0161,-380.8025 1438.6729,-375.8069 1437.5969,-382.7238"/>
</g>
<!-- 140531498778520 -->
<g id="node23" class="node">
<title>140531498778520</title>
<polygon fill="none" stroke="#000000" points="1412,-259 1358,-259 1358,-223 1412,-223 1412,-259"/>
<text text-anchor="middle" x="1385" y="-237.3" font-family="Times,serif" font-size="14.00" fill="#000000">hid_22</text>
</g>
<!-- 140531498581240 -->
<g id="node48" class="node">
<title>140531498581240</title>
<ellipse fill="none" stroke="#000000" cx="1475" cy="-241" rx="27" ry="27"/>
<text text-anchor="middle" x="1475" y="-237.3" font-family="Times,serif" font-size="14.00" fill="#000000">pre_TradeDirect</text>
</g>
<!-- 140531498778520&#45;&gt;140531498581240 -->
<g id="edge23" class="edge">
<title>140531498778520&#45;&gt;140531498581240</title>
<path fill="none" stroke="#000000" d="M1412.003,-241C1420.0277,-241 1428.9665,-241 1437.5309,-241"/>
<polygon fill="#000000" stroke="#000000" points="1437.7051,-244.5001 1447.705,-241 1437.705,-237.5001 1437.7051,-244.5001"/>
</g>
<!-- 140531498741944 -->
<g id="node24" class="node">
<title>140531498741944</title>
<polygon fill="none" stroke="#000000" points="1412,-322 1358,-322 1358,-286 1412,-286 1412,-322"/>
<text text-anchor="middle" x="1385" y="-300.3" font-family="Times,serif" font-size="14.00" fill="#000000">hid_23</text>
</g>
<!-- 140531498579448 -->
<g id="node62" class="node">
<title>140531498579448</title>
<ellipse fill="none" stroke="#000000" cx="1475" cy="-313" rx="27" ry="27"/>
<text text-anchor="middle" x="1475" y="-309.3" font-family="Times,serif" font-size="14.00" fill="#000000">splace_in_TradeWebContextListener_0</text>
</g>
<!-- 140531498741944&#45;&gt;140531498579448 -->
<g id="edge24" class="edge">
<title>140531498741944&#45;&gt;140531498579448</title>
<path fill="none" stroke="#000000" d="M1412.003,-306.7003C1420.1903,-307.519 1429.3292,-308.4329 1438.051,-309.3051"/>
<polygon fill="#000000" stroke="#000000" points="1437.7174,-312.7891 1448.0161,-310.3016 1438.414,-305.8239 1437.7174,-312.7891"/>
</g>
<!-- 140531498742168 -->
<g id="node25" class="node">
<title>140531498742168</title>
<polygon fill="none" stroke="#000000" points="772,-307 718,-307 718,-271 772,-271 772,-307"/>
<text text-anchor="middle" x="745" y="-285.3" font-family="Times,serif" font-size="14.00" fill="#000000">hid_24</text>
</g>
<!-- 140531498581744 -->
<g id="node51" class="node">
<title>140531498581744</title>
<ellipse fill="none" stroke="#000000" cx="835" cy="-263" rx="27" ry="27"/>
<text text-anchor="middle" x="835" y="-259.3" font-family="Times,serif" font-size="14.00" fill="#000000">splace_in_Log_1</text>
</g>
<!-- 140531498742168&#45;&gt;140531498581744 -->
<g id="edge25" class="edge">
<title>140531498742168&#45;&gt;140531498581744</title>
<path fill="none" stroke="#000000" d="M772.003,-281.1991C780.505,-278.743 790.0332,-275.9904 799.0549,-273.3841"/>
<polygon fill="#000000" stroke="#000000" points="800.308,-276.6653 808.9437,-270.5274 798.3652,-269.9403 800.308,-276.6653"/>
</g>
<!-- 140531498742392 -->
<g id="node26" class="node">
<title>140531498742392</title>
<polygon fill="none" stroke="#000000" points="772,-441 718,-441 718,-405 772,-405 772,-441"/>
<text text-anchor="middle" x="745" y="-419.3" font-family="Times,serif" font-size="14.00" fill="#000000">hid_25</text>
</g>
<!-- 140531498776504 -->
<g id="node55" class="node">
<title>140531498776504</title>
<ellipse fill="none" stroke="#000000" cx="835" cy="-423" rx="27" ry="27"/>
<text text-anchor="middle" x="835" y="-419.3" font-family="Times,serif" font-size="14.00" fill="#000000">splace_in_OrdersAlertFilter_1</text>
</g>
<!-- 140531498742392&#45;&gt;140531498776504 -->
<g id="edge26" class="edge">
<title>140531498742392&#45;&gt;140531498776504</title>
<path fill="none" stroke="#000000" d="M772.003,-423C780.0277,-423 788.9665,-423 797.5309,-423"/>
<polygon fill="#000000" stroke="#000000" points="797.7051,-426.5001 807.705,-423 797.705,-419.5001 797.7051,-426.5001"/>
</g>
<!-- 140531498742616 -->
<g id="node27" class="node">
<title>140531498742616</title>
<polygon fill="none" stroke="#000000" points="772,-387 718,-387 718,-351 772,-351 772,-387"/>
<text text-anchor="middle" x="745" y="-365.3" font-family="Times,serif" font-size="14.00" fill="#000000">hid_26</text>
</g>
<!-- 140531498579728 -->
<g id="node63" class="node">
<title>140531498579728</title>
<ellipse fill="none" stroke="#000000" cx="1059" cy="-396" rx="27" ry="27"/>
<text text-anchor="middle" x="1059" y="-392.3" font-family="Times,serif" font-size="14.00" fill="#000000">splace_in_TradeWebContextListener_1</text>
</g>
<!-- 140531498742616&#45;&gt;140531498579728 -->
<g id="edge27" class="edge">
<title>140531498742616&#45;&gt;140531498579728</title>
<path fill="none" stroke="#000000" d="M772.0432,-371.3254C828.2683,-376.16 957.857,-387.303 1021.8558,-392.8061"/>
<polygon fill="#000000" stroke="#000000" points="1021.6474,-396.301 1031.9105,-393.6706 1022.2471,-389.3267 1021.6474,-396.301"/>
</g>
<!-- 140531498743008 -->
<g id="node28" class="node">
<title>140531498743008</title>
<polygon fill="none" stroke="#000000" points="234,-390 180,-390 180,-354 234,-354 234,-390"/>
<text text-anchor="middle" x="207" y="-368.3" font-family="Times,serif" font-size="14.00" fill="#000000">hid_27</text>
</g>
<!-- 140531498580624 -->
<g id="node57" class="node">
<title>140531498580624</title>
<ellipse fill="none" stroke="#000000" cx="325" cy="-339" rx="27" ry="27"/>
<text text-anchor="middle" x="325" y="-335.3" font-family="Times,serif" font-size="14.00" fill="#000000">splace_in_Root_1</text>
</g>
<!-- 140531498743008&#45;&gt;140531498580624 -->
<g id="edge28" class="edge">
<title>140531498743008&#45;&gt;140531498580624</title>
<path fill="none" stroke="#000000" d="M234.0716,-364.4291C250.339,-359.8798 271.2405,-354.0344 288.9013,-349.0954"/>
<polygon fill="#000000" stroke="#000000" points="290.1779,-352.3727 298.8657,-346.3087 288.2926,-345.6314 290.1779,-352.3727"/>
</g>
<!-- 140531498743232 -->
<g id="node29" class="node">
<title>140531498743232</title>
<polygon fill="none" stroke="#000000" points="144,-713 90,-713 90,-677 144,-677 144,-713"/>
<text text-anchor="middle" x="117" y="-691.3" font-family="Times,serif" font-size="14.00" fill="#000000">hid_28</text>
</g>
<!-- 140531498776000 -->
<g id="node46" class="node">
<title>140531498776000</title>
<ellipse fill="none" stroke="#000000" cx="207" cy="-704" rx="27" ry="27"/>
<text text-anchor="middle" x="207" y="-700.3" font-family="Times,serif" font-size="14.00" fill="#000000">pre_TradeAppServlet</text>
</g>
<!-- 140531498743232&#45;&gt;140531498776000 -->
<g id="edge29" class="edge">
<title>140531498743232&#45;&gt;140531498776000</title>
<path fill="none" stroke="#000000" d="M144.003,-697.7003C152.1903,-698.519 161.3292,-699.4329 170.051,-700.3051"/>
<polygon fill="#000000" stroke="#000000" points="169.7174,-703.7891 180.0161,-701.3016 170.414,-696.8239 169.7174,-703.7891"/>
</g>
<!-- 140531498743456 -->
<g id="node30" class="node">
<title>140531498743456</title>
<polygon fill="none" stroke="#000000" points="144,-622 90,-622 90,-586 144,-586 144,-622"/>
<text text-anchor="middle" x="117" y="-600.3" font-family="Times,serif" font-size="14.00" fill="#000000">hid_29</text>
</g>
<!-- 140531498775440 -->
<g id="node60" class="node">
<title>140531498775440</title>
<ellipse fill="none" stroke="#000000" cx="207" cy="-566" rx="27" ry="27"/>
<text text-anchor="middle" x="207" y="-562.3" font-family="Times,serif" font-size="14.00" fill="#000000">splace_in_TradeConfig_1</text>
</g>
<!-- 140531498743456&#45;&gt;140531498775440 -->
<g id="edge30" class="edge">
<title>140531498743456&#45;&gt;140531498775440</title>
<path fill="none" stroke="#000000" d="M144.003,-592.5987C152.9184,-588.8345 162.9622,-584.5937 172.3671,-580.6228"/>
<polygon fill="#000000" stroke="#000000" points="174.0116,-583.7277 181.8627,-576.6135 171.2888,-577.2789 174.0116,-583.7277"/>
</g>
<!-- 140531498579840 -->
<g id="node31" class="node">
<title>140531498579840</title>
<polygon fill="none" stroke="#000000" points="1322,-627 1268,-627 1268,-591 1322,-591 1322,-627"/>
<text text-anchor="middle" x="1295" y="-605.3" font-family="Times,serif" font-size="14.00" fill="#000000">hid_3</text>
</g>
<!-- 140531498579840&#45;&gt;140531498579112 -->
<g id="edge31" class="edge">
<title>140531498579840&#45;&gt;140531498579112</title>
<path fill="none" stroke="#000000" d="M1322.2834,-597.0459C1391.2632,-566.8228 1572.54,-487.3974 1648.615,-454.0656"/>
<polygon fill="#000000" stroke="#000000" points="1650.027,-457.2682 1657.7818,-450.0492 1647.2177,-450.8566 1650.027,-457.2682"/>
</g>
<!-- 140531498580176 -->
<g id="node32" class="node">
<title>140531498580176</title>
<polygon fill="none" stroke="#000000" points="1322,-681 1268,-681 1268,-645 1322,-645 1322,-681"/>
<text text-anchor="middle" x="1295" y="-659.3" font-family="Times,serif" font-size="14.00" fill="#000000">hid_4</text>
</g>
<!-- 140531498579224 -->
<g id="node45" class="node">
<title>140531498579224</title>
<ellipse fill="none" stroke="#000000" cx="2330" cy="-436" rx="27" ry="27"/>
<text text-anchor="middle" x="2330" y="-432.3" font-family="Times,serif" font-size="14.00" fill="#000000">pre_Root</text>
</g>
<!-- 140531498580176&#45;&gt;140531498579224 -->
<g id="edge32" class="edge">
<title>140531498580176&#45;&gt;140531498579224</title>
<path fill="none" stroke="#000000" d="M1322.1028,-660.0645C1357.2985,-656.5119 1420.6609,-651 1475,-651 1475,-651 1475,-651 2150,-651 2242.4579,-651 2296.8017,-532.6602 2318.6947,-471.5735"/>
<polygon fill="#000000" stroke="#000000" points="2322.0681,-472.5288 2322.0504,-461.934 2315.4572,-470.2275 2322.0681,-472.5288"/>
</g>
<!-- 140531498580456 -->
<g id="node33" class="node">
<title>140531498580456</title>
<polygon fill="none" stroke="#000000" points="682,-198 628,-198 628,-162 682,-162 682,-198"/>
<text text-anchor="middle" x="655" y="-176.3" font-family="Times,serif" font-size="14.00" fill="#000000">hid_5</text>
</g>
<!-- 140531498580456&#45;&gt;140531498579224 -->
<g id="edge33" class="edge">
<title>140531498580456&#45;&gt;140531498579224</title>
<path fill="none" stroke="#000000" d="M662.6476,-161.7501C683.1802,-115.9888 744.181,0 835,0 835,0 835,0 2150,0 2218.1175,0 2232.7599,-40.1135 2267,-99 2296.5034,-149.7402 2317.9396,-322.3169 2326.2277,-398.8877"/>
<polygon fill="#000000" stroke="#000000" points="2322.7688,-399.4598 2327.3094,-409.0323 2329.7294,-398.7176 2322.7688,-399.4598"/>
</g>
<!-- 140531498580736 -->
<g id="node34" class="node">
<title>140531498580736</title>
<polygon fill="none" stroke="#000000" points="2267,-454 2213,-454 2213,-418 2267,-418 2267,-454"/>
<text text-anchor="middle" x="2240" y="-432.3" font-family="Times,serif" font-size="14.00" fill="#000000">hid_6</text>
</g>
<!-- 140531498580736&#45;&gt;140531498579224 -->
<g id="edge34" class="edge">
<title>140531498580736&#45;&gt;140531498579224</title>
<path fill="none" stroke="#000000" d="M2267.003,-436C2275.0277,-436 2283.9665,-436 2292.5309,-436"/>
<polygon fill="#000000" stroke="#000000" points="2292.7051,-439.5001 2302.705,-436 2292.705,-432.5001 2292.7051,-439.5001"/>
</g>
<!-- 140531498581296 -->
<g id="node35" class="node">
<title>140531498581296</title>
<polygon fill="none" stroke="#000000" points="1606,-164 1552,-164 1552,-128 1606,-128 1606,-164"/>
<text text-anchor="middle" x="1579" y="-142.3" font-family="Times,serif" font-size="14.00" fill="#000000">hid_7</text>
</g>
<!-- 140531498581296&#45;&gt;140531498581128 -->
<g id="edge35" class="edge">
<title>140531498581296&#45;&gt;140531498581128</title>
<path fill="none" stroke="#000000" d="M1551.9237,-138.6586C1514.6376,-129.2111 1445.2495,-114 1385,-114 1295,-114 1295,-114 1295,-114 1224.8691,-114 1143.0154,-114 1096.4675,-114"/>
<polygon fill="#000000" stroke="#000000" points="1096.2549,-110.5001 1086.2548,-114 1096.2548,-117.5001 1096.2549,-110.5001"/>
</g>
<!-- 140531498581576 -->
<g id="node36" class="node">
<title>140531498581576</title>
<polygon fill="none" stroke="#000000" points="974,-231 920,-231 920,-195 974,-195 974,-231"/>
<text text-anchor="middle" x="947" y="-209.3" font-family="Times,serif" font-size="14.00" fill="#000000">hid_8</text>
</g>
<!-- 140531498581576&#45;&gt;140531498581128 -->
<g id="edge36" class="edge">
<title>140531498581576&#45;&gt;140531498581128</title>
<path fill="none" stroke="#000000" d="M967.5425,-194.8419C985.3038,-179.1422 1011.1491,-156.2967 1030.8376,-138.8935"/>
<polygon fill="#000000" stroke="#000000" points="1033.4132,-141.2883 1038.5877,-132.043 1028.7772,-136.0435 1033.4132,-141.2883"/>
</g>
<!-- 140531498581856 -->
<g id="node37" class="node">
<title>140531498581856</title>
<polygon fill="none" stroke="#000000" points="1853.5,-149 1799.5,-149 1799.5,-113 1853.5,-113 1853.5,-149"/>
<text text-anchor="middle" x="1826.5" y="-127.3" font-family="Times,serif" font-size="14.00" fill="#000000">hid_9</text>
</g>
<!-- 140531498581856&#45;&gt;140531498581128 -->
<g id="edge37" class="edge">
<title>140531498581856&#45;&gt;140531498581128</title>
<path fill="none" stroke="#000000" d="M1799.4688,-120.9122C1754.427,-105.0341 1660.8715,-76 1579,-76 1295,-76 1295,-76 1295,-76 1223.4304,-76 1141.1869,-93.2451 1095.1303,-104.5006"/>
<polygon fill="#000000" stroke="#000000" points="1094.1804,-101.1301 1085.3217,-106.9415 1095.8709,-107.923 1094.1804,-101.1301"/>
</g>
<!-- 140531498578496 -->
<g id="node38" class="node">
<title>140531498578496</title>
<ellipse fill="#00ff00" stroke="#000000" cx="835" cy="-654" rx="27" ry="27"/>
<text text-anchor="middle" x="835" y="-650.3" font-family="Times,serif" font-size="14.00" fill="#000000">1</text>
</g>
<!-- 140531498578496&#45;&gt;140531498579056 -->
<g id="edge58" class="edge">
<title>140531498578496&#45;&gt;140531498579056</title>
<path fill="none" stroke="#000000" d="M862.1121,-654C869.9203,-654 878.7603,-654 887.7128,-654"/>
<polygon fill="#000000" stroke="#000000" points="887.8192,-657.5001 897.8191,-654 887.8191,-650.5001 887.8192,-657.5001"/>
</g>
<!-- 140531498578496&#45;&gt;140531498776616 -->
<g id="edge59" class="edge">
<title>140531498578496&#45;&gt;140531498776616</title>
<path fill="none" stroke="#000000" d="M859.5789,-665.8505C874.4355,-673.0135 893.6544,-682.2798 910.2874,-690.2993"/>
<polygon fill="#000000" stroke="#000000" points="909.2015,-693.6613 919.7293,-694.8516 912.2417,-687.3559 909.2015,-693.6613"/>
</g>
<!-- 140531498578496&#45;&gt;140531498579840 -->
<g id="edge60" class="edge">
<title>140531498578496&#45;&gt;140531498579840</title>
<path fill="none" stroke="#000000" d="M859.1425,-641.2302C870.5926,-635.8132 884.6606,-630.0545 898,-627 1027.2193,-597.4112 1186.1023,-602.0978 1257.3323,-606.2775"/>
<polygon fill="#000000" stroke="#000000" points="1257.3961,-609.788 1267.5932,-606.9125 1257.8285,-602.8014 1257.3961,-609.788"/>
</g>
<!-- 140531498777904&#45;&gt;140531498778072 -->
<g id="edge38" class="edge">
<title>140531498777904&#45;&gt;140531498778072</title>
<path fill="none" stroke="#000000" d="M1317.2472,-225.427C1327.3684,-218.3421 1339.5735,-209.7985 1350.8201,-201.9259"/>
<polygon fill="#000000" stroke="#000000" points="1352.998,-204.6737 1359.1832,-196.0717 1348.9838,-198.9391 1352.998,-204.6737"/>
</g>
<!-- 140531498777904&#45;&gt;140531498778296 -->
<g id="edge39" class="edge">
<title>140531498777904&#45;&gt;140531498778296</title>
<path fill="none" stroke="#000000" d="M1310.4716,-263.3478C1326.0485,-285.8479 1350.0771,-320.5558 1366.6169,-344.4466"/>
<polygon fill="#000000" stroke="#000000" points="1363.7723,-346.4868 1372.3422,-352.7164 1369.5277,-342.5023 1363.7723,-346.4868"/>
</g>
<!-- 140531498777904&#45;&gt;140531498778520 -->
<g id="edge40" class="edge">
<title>140531498777904&#45;&gt;140531498778520</title>
<path fill="none" stroke="#000000" d="M1322.003,-241C1330.0277,-241 1338.9665,-241 1347.5309,-241"/>
<polygon fill="#000000" stroke="#000000" points="1347.7051,-244.5001 1357.705,-241 1347.705,-237.5001 1347.7051,-244.5001"/>
</g>
<!-- 140531498777904&#45;&gt;140531498741944 -->
<g id="edge41" class="edge">
<title>140531498777904&#45;&gt;140531498741944</title>
<path fill="none" stroke="#000000" d="M1317.2472,-256.573C1327.3684,-263.6579 1339.5735,-272.2015 1350.8201,-280.0741"/>
<polygon fill="#000000" stroke="#000000" points="1348.9838,-283.0609 1359.1832,-285.9283 1352.998,-277.3263 1348.9838,-283.0609"/>
</g>
<!-- 140531498742840&#45;&gt;140531498743008 -->
<g id="edge42" class="edge">
<title>140531498742840&#45;&gt;140531498743008</title>
<path fill="none" stroke="#000000" d="M42.6589,-608.4685C75.8905,-560.652 153.3201,-449.2394 188.734,-398.2828"/>
<polygon fill="#000000" stroke="#000000" points="191.6087,-400.2792 194.4416,-390.0701 185.8606,-396.2843 191.6087,-400.2792"/>
</g>
<!-- 140531498742840&#45;&gt;140531498743232 -->
<g id="edge43" class="edge">
<title>140531498742840&#45;&gt;140531498743232</title>
<path fill="none" stroke="#000000" d="M49.2472,-646.8202C59.4514,-654.0765 71.7738,-662.8391 83.0965,-670.8908"/>
<polygon fill="#000000" stroke="#000000" points="81.3306,-673.9298 91.5086,-676.8728 85.3873,-668.2251 81.3306,-673.9298"/>
</g>
<!-- 140531498742840&#45;&gt;140531498743456 -->
<g id="edge44" class="edge">
<title>140531498742840&#45;&gt;140531498743456</title>
<path fill="none" stroke="#000000" d="M53.0317,-623.1905C61.4955,-620.6514 71.055,-617.7835 80.1543,-615.0537"/>
<polygon fill="#000000" stroke="#000000" points="81.2013,-618.3938 89.7738,-612.1679 79.1898,-611.689 81.2013,-618.3938"/>
</g>
<!-- 140531498777848&#45;&gt;140531498742168 -->
<g id="edge45" class="edge">
<title>140531498777848&#45;&gt;140531498742168</title>
<path fill="none" stroke="#000000" d="M670.064,-400.5714C685.7517,-377.2141 710.3229,-340.6304 727.0172,-315.7744"/>
<polygon fill="#000000" stroke="#000000" points="730.1101,-317.4467 732.7803,-307.1938 724.2992,-313.5438 730.1101,-317.4467"/>
</g>
<!-- 140531498777848&#45;&gt;140531498742392 -->
<g id="edge46" class="edge">
<title>140531498777848&#45;&gt;140531498742392</title>
<path fill="none" stroke="#000000" d="M682.003,-423C690.0277,-423 698.9665,-423 707.5309,-423"/>
<polygon fill="#000000" stroke="#000000" points="707.7051,-426.5001 717.705,-423 707.705,-419.5001 707.7051,-426.5001"/>
</g>
<!-- 140531498777848&#45;&gt;140531498742616 -->
<g id="edge47" class="edge">
<title>140531498777848&#45;&gt;140531498742616</title>
<path fill="none" stroke="#000000" d="M678.1772,-409.0937C687.5228,-403.4863 698.5253,-396.8848 708.8755,-390.6747"/>
<polygon fill="#000000" stroke="#000000" points="710.971,-393.4991 717.7452,-385.3529 707.3695,-387.4967 710.971,-393.4991"/>
</g>
<!-- 140531498776896&#45;&gt;140531498777120 -->
<g id="edge48" class="edge">
<title>140531498776896&#45;&gt;140531498777120</title>
<path fill="none" stroke="#000000" d="M1992.2472,-422.9326C2002.6352,-415.4301 2015.2184,-406.3423 2026.7074,-398.0447"/>
<polygon fill="#000000" stroke="#000000" points="2028.7752,-400.8687 2034.8328,-392.1763 2024.6767,-395.1939 2028.7752,-400.8687"/>
</g>
<!-- 140531498776896&#45;&gt;140531498777344 -->
<g id="edge49" class="edge">
<title>140531498776896&#45;&gt;140531498777344</title>
<path fill="none" stroke="#000000" d="M1997.003,-438.7C2005.0277,-438.6108 2013.9665,-438.5115 2022.5309,-438.4163"/>
<polygon fill="#000000" stroke="#000000" points="2022.7446,-441.9143 2032.705,-438.3033 2022.6667,-434.9147 2022.7446,-441.9143"/>
</g>
<!-- 140531498776896&#45;&gt;140531498777568 -->
<g id="edge50" class="edge">
<title>140531498776896&#45;&gt;140531498777568</title>
<path fill="none" stroke="#000000" d="M1992.7108,-454.3929C2002.4079,-460.9654 2013.9525,-468.79 2024.7178,-476.0865"/>
<polygon fill="#000000" stroke="#000000" points="2022.8926,-479.0776 2033.1342,-481.7909 2026.82,-473.2831 2022.8926,-479.0776"/>
</g>
<!-- 140531498581128&#45;&gt;140531498578776 -->
<g id="edge51" class="edge">
<title>140531498581128&#45;&gt;140531498578776</title>
<path fill="none" stroke="#000000" d="M1080.9184,-130.1601C1098.6472,-143.2314 1123.8883,-161.8414 1144.0508,-176.7069"/>
<polygon fill="#000000" stroke="#000000" points="1142.2183,-179.7043 1152.3442,-182.8215 1146.3723,-174.0701 1142.2183,-179.7043"/>
</g>
<!-- 140531498775888&#45;&gt;140531498578944 -->
<g id="edge52" class="edge">
<title>140531498775888&#45;&gt;140531498578944</title>
<path fill="none" stroke="#000000" d="M1085.4815,-742.2837C1093.4497,-744.1745 1102.5687,-746.3383 1111.8933,-748.5509"/>
<polygon fill="#000000" stroke="#000000" points="1111.1074,-751.9616 1121.6454,-750.865 1112.7236,-745.1507 1111.1074,-751.9616"/>
</g>
<!-- 140531498579224&#45;&gt;140531498578720 -->
<g id="edge53" class="edge">
<title>140531498579224&#45;&gt;140531498578720</title>
<path fill="none" stroke="#000000" d="M2357.003,-436C2365.0277,-436 2373.9665,-436 2382.5309,-436"/>
<polygon fill="#000000" stroke="#000000" points="2382.7051,-439.5001 2392.705,-436 2382.705,-432.5001 2382.7051,-439.5001"/>
</g>
<!-- 140531498776000&#45;&gt;140531498579000 -->
<g id="edge54" class="edge">
<title>140531498776000&#45;&gt;140531498579000</title>
<path fill="none" stroke="#000000" d="M233.776,-707.8576C241.6659,-708.9942 250.6648,-710.2907 259.8649,-711.6161"/>
<polygon fill="#000000" stroke="#000000" points="259.487,-715.0977 269.884,-713.0596 260.4853,-708.1693 259.487,-715.0977"/>
</g>
<!-- 140531498581016&#45;&gt;140531498578832 -->
<g id="edge55" class="edge">
<title>140531498581016&#45;&gt;140531498578832</title>
<path fill="none" stroke="#000000" d="M462.279,-505.0244C474.5981,-493.0538 491.0174,-477.3817 506,-464 510.1754,-460.2708 514.6444,-456.4006 519.0646,-452.6409"/>
<polygon fill="#000000" stroke="#000000" points="521.4997,-455.166 526.894,-446.0472 516.9905,-449.8118 521.4997,-455.166"/>
</g>
<!-- 140531498581240&#45;&gt;140531498578888 -->
<g id="edge56" class="edge">
<title>140531498581240&#45;&gt;140531498578888</title>
<path fill="none" stroke="#000000" d="M1502.0533,-238.6589C1510.0118,-237.9701 1518.9921,-237.193 1527.9354,-236.4191"/>
<polygon fill="#000000" stroke="#000000" points="1528.2996,-239.9007 1537.9606,-235.5515 1527.6961,-232.9268 1528.2996,-239.9007"/>
</g>
<!-- 140531498579112&#45;&gt;140531498578440 -->
<g id="edge57" class="edge">
<title>140531498579112&#45;&gt;140531498578440</title>
<path fill="none" stroke="#000000" d="M1710.329,-439C1717.9133,-439 1726.5892,-439 1735.7075,-439"/>
<polygon fill="#000000" stroke="#000000" points="1735.7447,-442.5001 1745.7447,-439 1735.7446,-435.5001 1735.7447,-442.5001"/>
</g>
<!-- 140531498581464&#45;&gt;140531498581296 -->
<g id="edge61" class="edge">
<title>140531498581464&#45;&gt;140531498581296</title>
<path fill="none" stroke="#000000" d="M1501.5127,-163.1366C1513.7896,-160.4215 1528.5846,-157.1496 1541.9422,-154.1955"/>
<polygon fill="#000000" stroke="#000000" points="1542.8028,-157.5898 1551.8111,-152.0129 1541.2912,-150.755 1542.8028,-157.5898"/>
</g>
<!-- 140531498581744&#45;&gt;140531498581576 -->
<g id="edge62" class="edge">
<title>140531498581744&#45;&gt;140531498581576</title>
<path fill="none" stroke="#000000" d="M859.8564,-251.9034C874.7252,-245.2655 893.889,-236.7103 910.4577,-229.3135"/>
<polygon fill="#000000" stroke="#000000" points="912.1565,-232.3881 919.8611,-225.1156 909.3029,-225.9961 912.1565,-232.3881"/>
</g>
<!-- 140531498774600&#45;&gt;140531498581856 -->
<g id="edge63" class="edge">
<title>140531498774600&#45;&gt;140531498581856</title>
<path fill="none" stroke="#000000" d="M1708.9868,-168.6697C1731.5183,-161.4471 1764.3832,-150.912 1789.6321,-142.8183"/>
<polygon fill="#000000" stroke="#000000" points="1790.7881,-146.1232 1799.2423,-139.7376 1788.6512,-139.4573 1790.7881,-146.1232"/>
</g>
<!-- 140531498774880&#45;&gt;140531498774712 -->
<g id="edge64" class="edge">
<title>140531498774880&#45;&gt;140531498774712</title>
<path fill="none" stroke="#000000" d="M2163.4739,-261.1961C2179.9167,-232.1472 2207.6448,-183.1609 2224.8241,-152.8107"/>
<polygon fill="#000000" stroke="#000000" points="2227.9127,-154.4593 2229.7928,-144.0326 2221.8209,-151.0111 2227.9127,-154.4593"/>
</g>
<!-- 140531498776224&#45;&gt;140531498776056 -->
<g id="edge65" class="edge">
<title>140531498776224&#45;&gt;140531498776056</title>
<path fill="none" stroke="#000000" d="M470.0225,-738.2746C482.6333,-738.8695 497.8509,-739.5873 511.5484,-740.2334"/>
<polygon fill="#000000" stroke="#000000" points="511.5044,-743.7351 521.6582,-740.7103 511.8343,-736.7429 511.5044,-743.7351"/>
</g>
<!-- 140531498776504&#45;&gt;140531498776336 -->
<g id="edge66" class="edge">
<title>140531498776504&#45;&gt;140531498776336</title>
<path fill="none" stroke="#000000" d="M855.2824,-441.2903C873.2018,-457.4499 899.4956,-481.1612 919.341,-499.0575"/>
<polygon fill="#000000" stroke="#000000" points="917.0982,-501.748 926.8685,-505.8457 921.7861,-496.5495 917.0982,-501.748"/>
</g>
<!-- 140531498580344&#45;&gt;140531498580176 -->
<g id="edge67" class="edge">
<title>140531498580344&#45;&gt;140531498580176</title>
<path fill="none" stroke="#000000" d="M1086.0722,-663C1128.2824,-663 1209.8795,-663 1257.6536,-663"/>
<polygon fill="#000000" stroke="#000000" points="1257.8811,-666.5001 1267.881,-663 1257.881,-659.5001 1257.8811,-666.5001"/>
</g>
<!-- 140531498580624&#45;&gt;140531498580456 -->
<g id="edge68" class="edge">
<title>140531498580624&#45;&gt;140531498580456</title>
<path fill="none" stroke="#000000" d="M349.534,-327.1791C407.0267,-299.4781 550.7068,-230.2503 618.5006,-197.5861"/>
<polygon fill="#000000" stroke="#000000" points="620.0565,-200.7215 627.5461,-193.2278 617.0181,-194.4154 620.0565,-200.7215"/>
</g>
<!-- 140531498580904&#45;&gt;140531498580736 -->
<g id="edge69" class="edge">
<title>140531498580904&#45;&gt;140531498580736</title>
<path fill="none" stroke="#000000" d="M2177.003,-436C2185.0277,-436 2193.9665,-436 2202.5309,-436"/>
<polygon fill="#000000" stroke="#000000" points="2202.7051,-439.5001 2212.705,-436 2202.705,-432.5001 2202.7051,-439.5001"/>
</g>
<!-- 140531498775160&#45;&gt;140531498774992 -->
<g id="edge70" class="edge">
<title>140531498775160&#45;&gt;140531498774992</title>
<path fill="none" stroke="#000000" d="M1502.0533,-386.3006C1514.1157,-386.8806 1528.5252,-387.5733 1541.5959,-388.2017"/>
<polygon fill="#000000" stroke="#000000" points="1541.5643,-391.7042 1551.7209,-388.6885 1541.9005,-384.7122 1541.5643,-391.7042"/>
</g>
<!-- 140531498775440&#45;&gt;140531498775272 -->
<g id="edge71" class="edge">
<title>140531498775440&#45;&gt;140531498775272</title>
<path fill="none" stroke="#000000" d="M233.776,-561.2348C249.8055,-558.3821 270.4126,-554.7147 287.984,-551.5876"/>
<polygon fill="#000000" stroke="#000000" points="288.6894,-555.0171 297.9215,-549.8191 287.4629,-548.1254 288.6894,-555.0171"/>
</g>
<!-- 140531498775720&#45;&gt;140531498775552 -->
<g id="edge72" class="edge">
<title>140531498775720&#45;&gt;140531498775552</title>
<path fill="none" stroke="#000000" d="M2176.0317,-516.0988C2184.4955,-518.7319 2194.055,-521.706 2203.1543,-524.5369"/>
<polygon fill="#000000" stroke="#000000" points="2202.1855,-527.9009 2212.7738,-527.5296 2204.265,-521.2169 2202.1855,-527.9009"/>
</g>
<!-- 140531498579448&#45;&gt;140531498579280 -->
<g id="edge73" class="edge">
<title>140531498579448&#45;&gt;140531498579280</title>
<path fill="none" stroke="#000000" d="M1502.0533,-316.3817C1514.1157,-317.8895 1528.5252,-319.6906 1541.5959,-321.3245"/>
<polygon fill="#000000" stroke="#000000" points="1541.3639,-324.8226 1551.7209,-322.5901 1542.2323,-317.8767 1541.3639,-324.8226"/>
</g>
<!-- 140531498579728&#45;&gt;140531498579560 -->
<g id="edge74" class="edge">
<title>140531498579728&#45;&gt;140531498579560</title>
<path fill="none" stroke="#000000" d="M1085.188,-403.1018C1101.1939,-407.4424 1121.9238,-413.0641 1139.6346,-417.867"/>
<polygon fill="#000000" stroke="#000000" points="1139.0875,-421.345 1149.655,-420.5844 1140.9197,-414.589 1139.0875,-421.345"/>
</g>
</g>
</svg>
