<?xml version="1.0" encoding="UTF-8" standalone="no"?>
<!DOCTYPE svg PUBLIC "-//W3C//DTD SVG 1.1//EN"
 "http://www.w3.org/Graphics/SVG/1.1/DTD/svg11.dtd">
<!-- Generated by graphviz version 2.40.1 (20161225.0304)
 -->
<!-- Title: imdf_net_1585315461.2299004 Pages: 1 -->
<svg width="1194pt" height="344pt"
 viewBox="0.00 0.00 1194.00 344.00" xmlns="http://www.w3.org/2000/svg" xmlns:xlink="http://www.w3.org/1999/xlink">
<g id="graph0" class="graph" transform="scale(1 1) rotate(0) translate(4 340)">
<title>imdf_net_1585315461.2299004</title>
<!-- 140178132426536 -->
<g id="node1" class="node">
<title>140178132426536</title>
<polygon fill="none" stroke="#000000" points="483,-336 385,-336 385,-300 483,-300 483,-336"/>
<text text-anchor="middle" x="434" y="-314.3" font-family="Times,serif" font-size="14.00" fill="#000000">JSFLoginFilter</text>
</g>
<!-- 140178132423680 -->
<g id="node15" class="node">
<title>140178132423680</title>
<ellipse fill="none" stroke="#000000" cx="979" cy="-281" rx="27" ry="27"/>
<text text-anchor="middle" x="979" y="-277.3" font-family="Times,serif" font-size="14.00" fill="#000000">p_4</text>
</g>
<!-- 140178132426536&#45;&gt;140178132423680 -->
<g id="edge3" class="edge">
<title>140178132426536&#45;&gt;140178132423680</title>
<path fill="none" stroke="#000000" d="M483.2226,-316.0758C557.5239,-313.0667 702.7497,-306.7783 826,-299 866.0411,-296.473 876.1934,-297.0116 916,-292 924.6304,-290.9134 933.8786,-289.4617 942.5584,-287.9701"/>
<polygon fill="#000000" stroke="#000000" points="943.1811,-291.4144 952.4154,-286.2202 941.9575,-284.5221 943.1811,-291.4144"/>
</g>
<!-- 140178132103296 -->
<g id="node2" class="node">
<title>140178132103296</title>
<polygon fill="none" stroke="#000000" points="626.5,-36 572.5,-36 572.5,0 626.5,0 626.5,-36"/>
<text text-anchor="middle" x="599.5" y="-14.3" font-family="Times,serif" font-size="14.00" fill="#000000">Log</text>
</g>
<!-- 140178132426592 -->
<g id="node17" class="node">
<title>140178132426592</title>
<ellipse fill="none" stroke="#000000" cx="771" cy="-126" rx="27" ry="27"/>
<text text-anchor="middle" x="771" y="-122.3" font-family="Times,serif" font-size="14.00" fill="#000000">p_6</text>
</g>
<!-- 140178132103296&#45;&gt;140178132426592 -->
<g id="edge6" class="edge">
<title>140178132103296&#45;&gt;140178132426592</title>
<path fill="none" stroke="#000000" d="M626.7589,-24.1977C642.9224,-28.575 663.4222,-35.3874 680,-45 704.594,-59.2607 728.4487,-80.8764 745.5604,-98.1921"/>
<polygon fill="#000000" stroke="#000000" points="743.457,-101.0516 752.9264,-105.8035 748.4872,-96.1836 743.457,-101.0516"/>
</g>
<!-- 140178132104696 -->
<g id="node3" class="node">
<title>140178132104696</title>
<polygon fill="none" stroke="#000000" points="826,-290 716,-290 716,-254 826,-254 826,-290"/>
<text text-anchor="middle" x="771" y="-268.3" font-family="Times,serif" font-size="14.00" fill="#000000">OrdersAlertFilter</text>
</g>
<!-- 140178132104696&#45;&gt;140178132423680 -->
<g id="edge7" class="edge">
<title>140178132104696&#45;&gt;140178132423680</title>
<path fill="none" stroke="#000000" d="M826.1941,-274.3882C862.634,-275.9649 909.4123,-277.989 941.5587,-279.3799"/>
<polygon fill="#000000" stroke="#000000" points="941.7215,-282.8902 951.8635,-279.8258 942.0242,-275.8967 941.7215,-282.8902"/>
</g>
<!-- 140178132426088 -->
<g id="node4" class="node">
<title>140178132426088</title>
<polygon fill="none" stroke="#000000" points="1096,-299 1042,-299 1042,-263 1096,-263 1096,-299"/>
<text text-anchor="middle" x="1069" y="-277.3" font-family="Times,serif" font-size="14.00" fill="#000000">Root</text>
</g>
<!-- 140178132075576 -->
<g id="node19" class="node">
<title>140178132075576</title>
<ellipse fill="#ffa500" stroke="#000000" cx="1159" cy="-281" rx="27" ry="27"/>
</g>
<!-- 140178132426088&#45;&gt;140178132075576 -->
<g id="edge4" class="edge">
<title>140178132426088&#45;&gt;140178132075576</title>
<path fill="none" stroke="#000000" d="M1096.003,-281C1104.0277,-281 1112.9665,-281 1121.5309,-281"/>
<polygon fill="#000000" stroke="#000000" points="1121.7051,-284.5001 1131.705,-281 1121.705,-277.5001 1121.7051,-284.5001"/>
</g>
<!-- 140178132103632 -->
<g id="node5" class="node">
<title>140178132103632</title>
<polygon fill="none" stroke="#000000" points="642.5,-198 556.5,-198 556.5,-162 642.5,-162 642.5,-198"/>
<text text-anchor="middle" x="599.5" y="-176.3" font-family="Times,serif" font-size="14.00" fill="#000000">TradeConfig</text>
</g>
<!-- 140178132103632&#45;&gt;140178132426592 -->
<g id="edge2" class="edge">
<title>140178132103632&#45;&gt;140178132426592</title>
<path fill="none" stroke="#000000" d="M642.7767,-166.3735C671.373,-157.3694 708.4003,-145.7107 735.3082,-137.2382"/>
<polygon fill="#000000" stroke="#000000" points="736.5996,-140.5011 745.0867,-134.1593 734.4972,-133.8243 736.5996,-140.5011"/>
</g>
<!-- 140178132103464 -->
<g id="node6" class="node">
<title>140178132103464</title>
<polygon fill="none" stroke="#000000" points="640.5,-144 558.5,-144 558.5,-108 640.5,-108 640.5,-144"/>
<text text-anchor="middle" x="599.5" y="-122.3" font-family="Times,serif" font-size="14.00" fill="#000000">TradeDirect</text>
</g>
<!-- 140178132103464&#45;&gt;140178132426592 -->
<g id="edge1" class="edge">
<title>140178132103464&#45;&gt;140178132426592</title>
<path fill="none" stroke="#000000" d="M640.5785,-126C668.9604,-126 706.4008,-126 733.8837,-126"/>
<polygon fill="#000000" stroke="#000000" points="733.8897,-129.5001 743.8897,-126 733.8896,-122.5001 733.8897,-129.5001"/>
</g>
<!-- 140178132103800 -->
<g id="node7" class="node">
<title>140178132103800</title>
<polygon fill="none" stroke="#000000" points="680,-90 519,-90 519,-54 680,-54 680,-90"/>
<text text-anchor="middle" x="599.5" y="-68.3" font-family="Times,serif" font-size="14.00" fill="#000000">TradeWebContextListener</text>
</g>
<!-- 140178132103800&#45;&gt;140178132426592 -->
<g id="edge5" class="edge">
<title>140178132103800&#45;&gt;140178132426592</title>
<path fill="none" stroke="#000000" d="M657.0841,-90.1314C682.9061,-98.262 712.5615,-107.5995 735.1406,-114.709"/>
<polygon fill="#000000" stroke="#000000" points="734.3881,-118.1414 744.9776,-117.8064 736.4904,-111.4645 734.3881,-118.1414"/>
</g>
<!-- 140178132426256 -->
<g id="node8" class="node">
<title>140178132426256</title>
<polygon fill="none" stroke="#000000" points="349,-208 270,-208 270,-172 349,-172 349,-208"/>
<text text-anchor="middle" x="309.5" y="-186.3" font-family="Times,serif" font-size="14.00" fill="#000000">init_loop_2</text>
</g>
<!-- 140178132426144 -->
<g id="node16" class="node">
<title>140178132426144</title>
<ellipse fill="none" stroke="#000000" cx="434" cy="-153" rx="27" ry="27"/>
<text text-anchor="middle" x="434" y="-149.3" font-family="Times,serif" font-size="14.00" fill="#000000">p_5</text>
</g>
<!-- 140178132426256&#45;&gt;140178132426144 -->
<g id="edge8" class="edge">
<title>140178132426256&#45;&gt;140178132426144</title>
<path fill="none" stroke="#000000" d="M349.2349,-178.1912C364.9965,-173.5071 382.9838,-168.1614 398.3217,-163.6032"/>
<polygon fill="#000000" stroke="#000000" points="399.3797,-166.9401 407.9682,-160.7363 397.3855,-160.2302 399.3797,-166.9401"/>
</g>
<!-- 140178132426480 -->
<g id="node9" class="node">
<title>140178132426480</title>
<polygon fill="none" stroke="#000000" points="1096,-217 1042,-217 1042,-181 1096,-181 1096,-217"/>
<text text-anchor="middle" x="1069" y="-195.3" font-family="Times,serif" font-size="14.00" fill="#000000">loop_3</text>
</g>
<!-- 140178132426480&#45;&gt;140178132426144 -->
<g id="edge9" class="edge">
<title>140178132426480&#45;&gt;140178132426144</title>
<path fill="none" stroke="#000000" d="M1041.7451,-205.6742C1006.6508,-213.6696 943.6673,-226 889,-226 771,-226 771,-226 771,-226 658.6821,-226 625.5945,-242.3966 519,-207 498.8405,-200.3057 478.6702,-187.802 463.0403,-176.5113"/>
<polygon fill="#000000" stroke="#000000" points="464.9624,-173.5786 454.8531,-170.408 460.7787,-179.1908 464.9624,-173.5786"/>
</g>
<!-- 140178132104024 -->
<g id="node10" class="node">
<title>140178132104024</title>
<polygon fill="none" stroke="#000000" points="916,-144 862,-144 862,-108 916,-108 916,-144"/>
<text text-anchor="middle" x="889" y="-122.3" font-family="Times,serif" font-size="14.00" fill="#000000">skip_4</text>
</g>
<!-- 140178132426704 -->
<g id="node18" class="node">
<title>140178132426704</title>
<ellipse fill="none" stroke="#000000" cx="979" cy="-149" rx="27" ry="27"/>
<text text-anchor="middle" x="979" y="-145.3" font-family="Times,serif" font-size="14.00" fill="#000000">p_7</text>
</g>
<!-- 140178132104024&#45;&gt;140178132426704 -->
<g id="edge21" class="edge">
<title>140178132104024&#45;&gt;140178132426704</title>
<path fill="none" stroke="#000000" d="M916.003,-132.9008C924.4298,-135.0543 933.8646,-137.4654 942.8152,-139.7528"/>
<polygon fill="#000000" stroke="#000000" points="942.0802,-143.1774 952.6355,-142.2624 943.8134,-136.3953 942.0802,-143.1774"/>
</g>
<!-- 140178132104248 -->
<g id="node11" class="node">
<title>140178132104248</title>
<polygon fill="none" stroke="#000000" points="916,-198 862,-198 862,-162 916,-162 916,-198"/>
<text text-anchor="middle" x="889" y="-176.3" font-family="Times,serif" font-size="14.00" fill="#000000">skip_5</text>
</g>
<!-- 140178132104248&#45;&gt;140178132423680 -->
<g id="edge22" class="edge">
<title>140178132104248&#45;&gt;140178132423680</title>
<path fill="none" stroke="#000000" d="M905.0902,-198.0568C918.6824,-213.3102 938.3769,-235.4119 954.0186,-252.9653"/>
<polygon fill="#000000" stroke="#000000" points="951.6177,-255.5319 960.8836,-260.6694 956.8438,-250.8749 951.6177,-255.5319"/>
</g>
<!-- 140178132425808 -->
<g id="node12" class="node">
<title>140178132425808</title>
<polygon fill="none" stroke="#000000" points="144,-290 90,-290 90,-254 144,-254 144,-290"/>
<text text-anchor="middle" x="117" y="-268.3" font-family="Times,serif" font-size="14.00" fill="#000000">tau_1</text>
</g>
<!-- 140178132422840 -->
<g id="node14" class="node">
<title>140178132422840</title>
<ellipse fill="none" stroke="#000000" cx="207" cy="-272" rx="27" ry="27"/>
<text text-anchor="middle" x="207" y="-268.3" font-family="Times,serif" font-size="14.00" fill="#000000">p_3</text>
</g>
<!-- 140178132425808&#45;&gt;140178132422840 -->
<g id="edge24" class="edge">
<title>140178132425808&#45;&gt;140178132422840</title>
<path fill="none" stroke="#000000" d="M144.003,-272C152.0277,-272 160.9665,-272 169.5309,-272"/>
<polygon fill="#000000" stroke="#000000" points="169.7051,-275.5001 179.705,-272 169.705,-268.5001 169.7051,-275.5001"/>
</g>
<!-- 140178132078376 -->
<g id="node13" class="node">
<title>140178132078376</title>
<ellipse fill="#00ff00" stroke="#000000" cx="27" cy="-272" rx="27" ry="27"/>
<text text-anchor="middle" x="27" y="-268.3" font-family="Times,serif" font-size="14.00" fill="#000000">1</text>
</g>
<!-- 140178132078376&#45;&gt;140178132425808 -->
<g id="edge23" class="edge">
<title>140178132078376&#45;&gt;140178132425808</title>
<path fill="none" stroke="#000000" d="M54.003,-272C62.0277,-272 70.9665,-272 79.5309,-272"/>
<polygon fill="#000000" stroke="#000000" points="79.7051,-275.5001 89.705,-272 79.705,-268.5001 79.7051,-275.5001"/>
</g>
<!-- 140178132422840&#45;&gt;140178132426536 -->
<g id="edge10" class="edge">
<title>140178132422840&#45;&gt;140178132426536</title>
<path fill="none" stroke="#000000" d="M233.3281,-278.0106C244.6066,-280.544 257.9351,-283.4828 270,-286 304.7212,-293.2441 343.686,-300.868 374.9207,-306.8565"/>
<polygon fill="#000000" stroke="#000000" points="374.2957,-310.3003 384.7751,-308.7408 375.6104,-303.4248 374.2957,-310.3003"/>
</g>
<!-- 140178132422840&#45;&gt;140178132104696 -->
<g id="edge11" class="edge">
<title>140178132422840&#45;&gt;140178132104696</title>
<path fill="none" stroke="#000000" d="M234.2029,-272C319.2776,-272 581.9659,-272 705.5096,-272"/>
<polygon fill="#000000" stroke="#000000" points="705.5921,-275.5001 715.592,-272 705.592,-268.5001 705.5921,-275.5001"/>
</g>
<!-- 140178132422840&#45;&gt;140178132426256 -->
<g id="edge12" class="edge">
<title>140178132422840&#45;&gt;140178132426256</title>
<path fill="none" stroke="#000000" d="M228.2381,-255.0095C242.8189,-243.3449 262.4038,-227.677 278.6932,-214.6454"/>
<polygon fill="#000000" stroke="#000000" points="281.2449,-217.0863 286.8671,-208.1063 276.872,-211.6202 281.2449,-217.0863"/>
</g>
<!-- 140178132423680&#45;&gt;140178132426088 -->
<g id="edge13" class="edge">
<title>140178132423680&#45;&gt;140178132426088</title>
<path fill="none" stroke="#000000" d="M1006.003,-281C1014.0277,-281 1022.9665,-281 1031.5309,-281"/>
<polygon fill="#000000" stroke="#000000" points="1031.7051,-284.5001 1041.705,-281 1031.705,-277.5001 1031.7051,-284.5001"/>
</g>
<!-- 140178132426144&#45;&gt;140178132103296 -->
<g id="edge17" class="edge">
<title>140178132426144&#45;&gt;140178132103296</title>
<path fill="none" stroke="#000000" d="M447.1838,-129.0151C461.7567,-104.5992 487.4018,-67.2643 519,-45 531.9237,-35.8939 548.1477,-29.6788 562.6384,-25.5306"/>
<polygon fill="#000000" stroke="#000000" points="563.5522,-28.9094 572.3317,-22.9789 561.7701,-22.14 563.5522,-28.9094"/>
</g>
<!-- 140178132426144&#45;&gt;140178132103632 -->
<g id="edge15" class="edge">
<title>140178132426144&#45;&gt;140178132103632</title>
<path fill="none" stroke="#000000" d="M460.9588,-157.3981C483.9633,-161.1511 517.7356,-166.6608 546.1761,-171.3006"/>
<polygon fill="#000000" stroke="#000000" points="545.95,-174.8099 556.3831,-172.9658 547.0772,-167.9013 545.95,-174.8099"/>
</g>
<!-- 140178132426144&#45;&gt;140178132103464 -->
<g id="edge14" class="edge">
<title>140178132426144&#45;&gt;140178132103464</title>
<path fill="none" stroke="#000000" d="M460.9588,-148.6019C484.5558,-144.7522 519.4824,-139.0542 548.3627,-134.3426"/>
<polygon fill="#000000" stroke="#000000" points="548.9915,-137.7864 558.2974,-132.7219 547.8643,-130.8778 548.9915,-137.7864"/>
</g>
<!-- 140178132426144&#45;&gt;140178132103800 -->
<g id="edge16" class="edge">
<title>140178132426144&#45;&gt;140178132103800</title>
<path fill="none" stroke="#000000" d="M455.8719,-137.0121C472.5542,-125.3459 496.4318,-109.7571 519,-99 522.7425,-97.2162 526.6343,-95.4984 530.5974,-93.8537"/>
<polygon fill="#000000" stroke="#000000" points="531.9305,-97.0903 539.9374,-90.152 529.3513,-90.5827 531.9305,-97.0903"/>
</g>
<!-- 140178132426592&#45;&gt;140178132104024 -->
<g id="edge18" class="edge">
<title>140178132426592&#45;&gt;140178132104024</title>
<path fill="none" stroke="#000000" d="M798.0716,-126C813.8489,-126 833.9852,-126 851.2964,-126"/>
<polygon fill="#000000" stroke="#000000" points="851.6458,-129.5001 861.6458,-126 851.6457,-122.5001 851.6458,-129.5001"/>
</g>
<!-- 140178132426592&#45;&gt;140178132104248 -->
<g id="edge19" class="edge">
<title>140178132426592&#45;&gt;140178132104248</title>
<path fill="none" stroke="#000000" d="M795.7367,-137.3202C812.1958,-144.8523 834.099,-154.8758 852.5429,-163.3163"/>
<polygon fill="#000000" stroke="#000000" points="851.2759,-166.5855 861.8254,-167.5642 854.1888,-160.2203 851.2759,-166.5855"/>
</g>
<!-- 140178132426704&#45;&gt;140178132426480 -->
<g id="edge20" class="edge">
<title>140178132426704&#45;&gt;140178132426480</title>
<path fill="none" stroke="#000000" d="M1002.6464,-162.1369C1011.9112,-167.284 1022.7479,-173.3044 1032.9459,-178.97"/>
<polygon fill="#000000" stroke="#000000" points="1031.2465,-182.0296 1041.6878,-183.8266 1034.646,-175.9105 1031.2465,-182.0296"/>
</g>
</g>
</svg>
