<?xml version="1.0" encoding="UTF-8" standalone="no"?>
<!DOCTYPE svg PUBLIC "-//W3C//DTD SVG 1.1//EN"
 "http://www.w3.org/Graphics/SVG/1.1/DTD/svg11.dtd">
<!-- Generated by graphviz version 2.40.1 (20161225.0304)
 -->
<!-- Title: alpha_classic_net_1586496229.8037496 Pages: 1 -->
<svg width="900pt" height="6002pt"
 viewBox="0.00 0.00 900.00 6002.00" xmlns="http://www.w3.org/2000/svg" xmlns:xlink="http://www.w3.org/1999/xlink">
<g id="graph0" class="graph" transform="scale(1 1) rotate(0) translate(4 5998)">
<title>alpha_classic_net_1586496229.8037496</title>
<!-- 139748205570312 -->
<g id="node1" class="node">
<title>139748205570312</title>
<polygon fill="none" stroke="#000000" points="361.5,-36 36.5,-36 36.5,0 361.5,0 361.5,-36"/>
<text text-anchor="middle" x="199" y="-14.3" font-family="Times,serif" font-size="14.00" fill="#000000">AccountDataBean:AccountDataBean [overloaded_#001]</text>
</g>
<!-- 139748205569808 -->
<g id="node2" class="node">
<title>139748205569808</title>
<polygon fill="none" stroke="#000000" points="288.5,-90 109.5,-90 109.5,-54 288.5,-54 288.5,-90"/>
<text text-anchor="middle" x="199" y="-68.3" font-family="Times,serif" font-size="14.00" fill="#000000">AccountDataBean:getBalance</text>
</g>
<!-- 139748205570424 -->
<g id="node3" class="node">
<title>139748205570424</title>
<polygon fill="none" stroke="#000000" points="285.5,-144 112.5,-144 112.5,-108 285.5,-108 285.5,-144"/>
<text text-anchor="middle" x="199" y="-122.3" font-family="Times,serif" font-size="14.00" fill="#000000">AccountDataBean:getProfile</text>
</g>
<!-- 139748205570256 -->
<g id="node4" class="node">
<title>139748205570256</title>
<polygon fill="none" stroke="#000000" points="285.5,-198 112.5,-198 112.5,-162 285.5,-162 285.5,-198"/>
<text text-anchor="middle" x="199" y="-176.3" font-family="Times,serif" font-size="14.00" fill="#000000">AccountDataBean:hashCode</text>
</g>
<!-- 139748205568128 -->
<g id="node5" class="node">
<title>139748205568128</title>
<polygon fill="none" stroke="#000000" points="288,-252 110,-252 110,-216 288,-216 288,-252"/>
<text text-anchor="middle" x="199" y="-230.3" font-family="Times,serif" font-size="14.00" fill="#000000">AccountDataBean:setBalance</text>
</g>
<!-- 139748202605872 -->
<g id="node6" class="node">
<title>139748202605872</title>
<polygon fill="none" stroke="#000000" points="398,-306 0,-306 0,-270 398,-270 398,-306"/>
<text text-anchor="middle" x="199" y="-284.3" font-family="Times,serif" font-size="14.00" fill="#000000">AccountProfileDataBean:AccountProfileDataBean [overloaded_#001]</text>
</g>
<!-- 139748205570368 -->
<g id="node7" class="node">
<title>139748205570368</title>
<polygon fill="none" stroke="#000000" points="308,-360 90,-360 90,-324 308,-324 308,-360"/>
<text text-anchor="middle" x="199" y="-338.3" font-family="Times,serif" font-size="14.00" fill="#000000">AccountProfileDataBean:getAccount</text>
</g>
<!-- 139748202606152 -->
<g id="node8" class="node">
<title>139748202606152</title>
<polygon fill="none" stroke="#000000" points="305,-414 93,-414 93,-378 305,-378 305,-414"/>
<text text-anchor="middle" x="199" y="-392.3" font-family="Times,serif" font-size="14.00" fill="#000000">AccountProfileDataBean:getUserID</text>
</g>
<!-- 139748205570872 -->
<g id="node9" class="node">
<title>139748205570872</title>
<polygon fill="none" stroke="#000000" points="622,-504 434,-504 434,-468 622,-468 622,-504"/>
<text text-anchor="middle" x="528" y="-482.3" font-family="Times,serif" font-size="14.00" fill="#000000">DTStreamer3MDB:onMessage</text>
</g>
<!-- 139748205571264 -->
<g id="node115" class="node">
<title>139748205571264</title>
<ellipse fill="none" stroke="#000000" cx="685" cy="-459" rx="27" ry="27"/>
<text text-anchor="middle" x="685" y="-455.3" font-family="Times,serif" font-size="14.00" fill="#000000">({&#39;DTStreamer3MDB:onMessage&#39;, &#39;OrdersAlertFilter:doFilter&#39;}, {&#39;Root&#39;})</text>
</g>
<!-- 139748205570872&#45;&gt;139748205571264 -->
<g id="edge2" class="edge">
<title>139748205570872&#45;&gt;139748205571264</title>
<path fill="none" stroke="#000000" d="M622.0467,-469.8264C631.2192,-468.2489 640.0966,-466.7222 648.1506,-465.3371"/>
<polygon fill="#000000" stroke="#000000" points="648.9576,-468.7498 658.2197,-463.6055 647.7712,-461.8511 648.9576,-468.7498"/>
</g>
<!-- 139748202603408 -->
<g id="node10" class="node">
<title>139748202603408</title>
<polygon fill="none" stroke="#000000" points="304.5,-540 93.5,-540 93.5,-504 304.5,-504 304.5,-540"/>
<text text-anchor="middle" x="199" y="-518.3" font-family="Times,serif" font-size="14.00" fill="#000000">FinancialUtils:computeGainPercent</text>
</g>
<!-- 139748205570760 -->
<g id="node11" class="node">
<title>139748205570760</title>
<polygon fill="none" stroke="#000000" points="293,-594 105,-594 105,-558 293,-558 293,-594"/>
<text text-anchor="middle" x="199" y="-572.3" font-family="Times,serif" font-size="14.00" fill="#000000">FinancialUtils:printGainHTML</text>
</g>
<!-- 139748202606096 -->
<g id="node12" class="node">
<title>139748202606096</title>
<polygon fill="none" stroke="#000000" points="313,-648 85,-648 85,-612 313,-612 313,-648"/>
<text text-anchor="middle" x="199" y="-626.3" font-family="Times,serif" font-size="14.00" fill="#000000">FinancialUtils:printGainPercentHTML</text>
</g>
<!-- 139748202605928 -->
<g id="node13" class="node">
<title>139748202605928</title>
<polygon fill="none" stroke="#000000" points="289.5,-702 108.5,-702 108.5,-666 289.5,-666 289.5,-702"/>
<text text-anchor="middle" x="199" y="-680.3" font-family="Times,serif" font-size="14.00" fill="#000000">FinancialUtils:printQuoteLink</text>
</g>
<!-- 139748205569640 -->
<g id="node14" class="node">
<title>139748205569640</title>
<polygon fill="none" stroke="#000000" points="360,-756 38,-756 38,-720 360,-720 360,-756"/>
<text text-anchor="middle" x="199" y="-734.3" font-family="Times,serif" font-size="14.00" fill="#000000">HoldingDataBean:HoldingDataBean [overloaded_#001]</text>
</g>
<!-- 139748202605312 -->
<g id="node15" class="node">
<title>139748202605312</title>
<polygon fill="none" stroke="#000000" points="295.5,-810 102.5,-810 102.5,-774 295.5,-774 295.5,-810"/>
<text text-anchor="middle" x="199" y="-788.3" font-family="Times,serif" font-size="14.00" fill="#000000">HoldingDataBean:getHoldingID</text>
</g>
<!-- 139748202603632 -->
<g id="node16" class="node">
<title>139748202603632</title>
<polygon fill="none" stroke="#000000" points="303.5,-864 94.5,-864 94.5,-828 303.5,-828 303.5,-864"/>
<text text-anchor="middle" x="199" y="-842.3" font-family="Times,serif" font-size="14.00" fill="#000000">HoldingDataBean:getPurchaseDate</text>
</g>
<!-- 139748197797560 -->
<g id="node17" class="node">
<title>139748197797560</title>
<polygon fill="none" stroke="#000000" points="304.5,-918 93.5,-918 93.5,-882 304.5,-882 304.5,-918"/>
<text text-anchor="middle" x="199" y="-896.3" font-family="Times,serif" font-size="14.00" fill="#000000">HoldingDataBean:getPurchasePrice</text>
</g>
<!-- 139748205568464 -->
<g id="node18" class="node">
<title>139748205568464</title>
<polygon fill="none" stroke="#000000" points="290,-972 108,-972 108,-936 290,-936 290,-972"/>
<text text-anchor="middle" x="199" y="-950.3" font-family="Times,serif" font-size="14.00" fill="#000000">HoldingDataBean:getQuantity</text>
</g>
<!-- 139748202603520 -->
<g id="node19" class="node">
<title>139748202603520</title>
<polygon fill="none" stroke="#000000" points="282.5,-1026 115.5,-1026 115.5,-990 282.5,-990 282.5,-1026"/>
<text text-anchor="middle" x="199" y="-1004.3" font-family="Times,serif" font-size="14.00" fill="#000000">HoldingDataBean:getQuote</text>
</g>
<!-- 139748202604360 -->
<g id="node20" class="node">
<title>139748202604360</title>
<polygon fill="none" stroke="#000000" points="290,-1080 108,-1080 108,-1044 290,-1044 290,-1080"/>
<text text-anchor="middle" x="199" y="-1058.3" font-family="Times,serif" font-size="14.00" fill="#000000">HoldingDataBean:getQuoteID</text>
</g>
<!-- 139748205568296 -->
<g id="node21" class="node">
<title>139748205568296</title>
<polygon fill="none" stroke="#000000" points="302.5,-1134 95.5,-1134 95.5,-1098 302.5,-1098 302.5,-1134"/>
<text text-anchor="middle" x="199" y="-1112.3" font-family="Times,serif" font-size="14.00" fill="#000000">HoldingDataBean:setPurchaseDate</text>
</g>
<!-- 139748202605760 -->
<g id="node22" class="node">
<title>139748202605760</title>
<polygon fill="none" stroke="#000000" points="260.5,-1188 137.5,-1188 137.5,-1152 260.5,-1152 260.5,-1188"/>
<text text-anchor="middle" x="199" y="-1166.3" font-family="Times,serif" font-size="14.00" fill="#000000">Log:doActionTrace</text>
</g>
<!-- 139748202604472 -->
<g id="node23" class="node">
<title>139748202604472</title>
<polygon fill="none" stroke="#000000" points="242,-1242 156,-1242 156,-1206 242,-1206 242,-1242"/>
<text text-anchor="middle" x="199" y="-1220.3" font-family="Times,serif" font-size="14.00" fill="#000000">Log:doTrace</text>
</g>
<!-- 139748202603688 -->
<g id="node24" class="node">
<title>139748202603688</title>
<polygon fill="none" stroke="#000000" points="262,-1296 136,-1296 136,-1260 262,-1260 262,-1296"/>
<text text-anchor="middle" x="199" y="-1274.3" font-family="Times,serif" font-size="14.00" fill="#000000">Log:getActionTrace</text>
</g>
<!-- 139748202604528 -->
<g id="node25" class="node">
<title>139748202604528</title>
<polygon fill="none" stroke="#000000" points="243.5,-1350 154.5,-1350 154.5,-1314 243.5,-1314 243.5,-1350"/>
<text text-anchor="middle" x="199" y="-1328.3" font-family="Times,serif" font-size="14.00" fill="#000000">Log:getTrace</text>
</g>
<!-- 139748202603576 -->
<g id="node26" class="node">
<title>139748202603576</title>
<polygon fill="none" stroke="#000000" points="268,-1404 130,-1404 130,-1368 268,-1368 268,-1404"/>
<text text-anchor="middle" x="199" y="-1382.3" font-family="Times,serif" font-size="14.00" fill="#000000">MDBStats:addTiming</text>
</g>
<!-- 139748202604024 -->
<g id="node27" class="node">
<title>139748202604024</title>
<polygon fill="none" stroke="#000000" points="331,-1458 67,-1458 67,-1422 331,-1422 331,-1458"/>
<text text-anchor="middle" x="199" y="-1436.3" font-family="Times,serif" font-size="14.00" fill="#000000">MarketSummaryWebSocket:onJMSMessage</text>
</g>
<!-- 139748205568744 -->
<g id="node28" class="node">
<title>139748205568744</title>
<polygon fill="none" stroke="#000000" points="347,-1512 51,-1512 51,-1476 347,-1476 347,-1512"/>
<text text-anchor="middle" x="199" y="-1490.3" font-family="Times,serif" font-size="14.00" fill="#000000">OrderDataBean:OrderDataBean [overloaded_#001]</text>
</g>
<!-- 139748202604640 -->
<g id="node29" class="node">
<title>139748202604640</title>
<polygon fill="none" stroke="#000000" points="347,-1566 51,-1566 51,-1530 347,-1530 347,-1566"/>
<text text-anchor="middle" x="199" y="-1544.3" font-family="Times,serif" font-size="14.00" fill="#000000">OrderDataBean:OrderDataBean [overloaded_#003]</text>
</g>
<!-- 139748202604304 -->
<g id="node30" class="node">
<title>139748202604304</title>
<polygon fill="none" stroke="#000000" points="282.5,-1620 115.5,-1620 115.5,-1584 282.5,-1584 282.5,-1620"/>
<text text-anchor="middle" x="199" y="-1598.3" font-family="Times,serif" font-size="14.00" fill="#000000">OrderDataBean:getAccount</text>
</g>
<!-- 139748205569192 -->
<g id="node31" class="node">
<title>139748205569192</title>
<polygon fill="none" stroke="#000000" points="305,-1674 93,-1674 93,-1638 305,-1638 305,-1674"/>
<text text-anchor="middle" x="199" y="-1652.3" font-family="Times,serif" font-size="14.00" fill="#000000">OrderDataBean:getCompletionDate</text>
</g>
<!-- 139748202605816 -->
<g id="node32" class="node">
<title>139748202605816</title>
<polygon fill="none" stroke="#000000" points="282,-1728 116,-1728 116,-1692 282,-1692 282,-1728"/>
<text text-anchor="middle" x="199" y="-1706.3" font-family="Times,serif" font-size="14.00" fill="#000000">OrderDataBean:getHolding</text>
</g>
<!-- 139748205569528 -->
<g id="node33" class="node">
<title>139748205569528</title>
<polygon fill="none" stroke="#000000" points="287,-1782 111,-1782 111,-1746 287,-1746 287,-1782"/>
<text text-anchor="middle" x="199" y="-1760.3" font-family="Times,serif" font-size="14.00" fill="#000000">OrderDataBean:getOpenDate</text>
</g>
<!-- 139748202603240 -->
<g id="node34" class="node">
<title>139748202603240</title>
<polygon fill="none" stroke="#000000" points="285.5,-1836 112.5,-1836 112.5,-1800 285.5,-1800 285.5,-1836"/>
<text text-anchor="middle" x="199" y="-1814.3" font-family="Times,serif" font-size="14.00" fill="#000000">OrderDataBean:getOrderFee</text>
</g>
<!-- 139748202605704 -->
<g id="node35" class="node">
<title>139748202605704</title>
<polygon fill="none" stroke="#000000" points="282.5,-1890 115.5,-1890 115.5,-1854 282.5,-1854 282.5,-1890"/>
<text text-anchor="middle" x="199" y="-1868.3" font-family="Times,serif" font-size="14.00" fill="#000000">OrderDataBean:getOrderID</text>
</g>
<!-- 139748202603184 -->
<g id="node36" class="node">
<title>139748202603184</title>
<polygon fill="none" stroke="#000000" points="292,-1944 106,-1944 106,-1908 292,-1908 292,-1944"/>
<text text-anchor="middle" x="199" y="-1922.3" font-family="Times,serif" font-size="14.00" fill="#000000">OrderDataBean:getOrderStatus</text>
</g>
<!-- 139748202603968 -->
<g id="node37" class="node">
<title>139748202603968</title>
<polygon fill="none" stroke="#000000" points="289.5,-1998 108.5,-1998 108.5,-1962 289.5,-1962 289.5,-1998"/>
<text text-anchor="middle" x="199" y="-1976.3" font-family="Times,serif" font-size="14.00" fill="#000000">OrderDataBean:getOrderType</text>
</g>
<!-- 139748202604920 -->
<g id="node38" class="node">
<title>139748202604920</title>
<polygon fill="none" stroke="#000000" points="273.5,-2052 124.5,-2052 124.5,-2016 273.5,-2016 273.5,-2052"/>
<text text-anchor="middle" x="199" y="-2030.3" font-family="Times,serif" font-size="14.00" fill="#000000">OrderDataBean:getPrice</text>
</g>
<!-- 139748205568240 -->
<g id="node39" class="node">
<title>139748205568240</title>
<polygon fill="none" stroke="#000000" points="283.5,-2106 114.5,-2106 114.5,-2070 283.5,-2070 283.5,-2106"/>
<text text-anchor="middle" x="199" y="-2084.3" font-family="Times,serif" font-size="14.00" fill="#000000">OrderDataBean:getQuantity</text>
</g>
<!-- 139748202605648 -->
<g id="node40" class="node">
<title>139748202605648</title>
<polygon fill="none" stroke="#000000" points="276.5,-2160 121.5,-2160 121.5,-2124 276.5,-2124 276.5,-2160"/>
<text text-anchor="middle" x="199" y="-2138.3" font-family="Times,serif" font-size="14.00" fill="#000000">OrderDataBean:getQuote</text>
</g>
<!-- 139748205569864 -->
<g id="node41" class="node">
<title>139748205569864</title>
<polygon fill="none" stroke="#000000" points="281,-2214 117,-2214 117,-2178 281,-2178 281,-2214"/>
<text text-anchor="middle" x="199" y="-2192.3" font-family="Times,serif" font-size="14.00" fill="#000000">OrderDataBean:getSymbol</text>
</g>
<!-- 139748202606376 -->
<g id="node42" class="node">
<title>139748202606376</title>
<polygon fill="none" stroke="#000000" points="278,-2268 120,-2268 120,-2232 278,-2232 278,-2268"/>
<text text-anchor="middle" x="199" y="-2246.3" font-family="Times,serif" font-size="14.00" fill="#000000">OrderDataBean:hashCode</text>
</g>
<!-- 139748202604696 -->
<g id="node43" class="node">
<title>139748202604696</title>
<polygon fill="none" stroke="#000000" points="267.5,-2322 130.5,-2322 130.5,-2286 267.5,-2286 267.5,-2322"/>
<text text-anchor="middle" x="199" y="-2300.3" font-family="Times,serif" font-size="14.00" fill="#000000">OrderDataBean:isBuy</text>
</g>
<!-- 139748202606264 -->
<g id="node44" class="node">
<title>139748202606264</title>
<polygon fill="none" stroke="#000000" points="286,-2376 112,-2376 112,-2340 286,-2340 286,-2376"/>
<text text-anchor="middle" x="199" y="-2354.3" font-family="Times,serif" font-size="14.00" fill="#000000">OrderDataBean:isCompleted</text>
</g>
<!-- 139748202605032 -->
<g id="node45" class="node">
<title>139748202605032</title>
<polygon fill="none" stroke="#000000" points="266.5,-2430 131.5,-2430 131.5,-2394 266.5,-2394 266.5,-2430"/>
<text text-anchor="middle" x="199" y="-2408.3" font-family="Times,serif" font-size="14.00" fill="#000000">OrderDataBean:isSell</text>
</g>
<!-- 139748205569752 -->
<g id="node46" class="node">
<title>139748205569752</title>
<polygon fill="none" stroke="#000000" points="282,-2484 116,-2484 116,-2448 282,-2448 282,-2484"/>
<text text-anchor="middle" x="199" y="-2462.3" font-family="Times,serif" font-size="14.00" fill="#000000">OrderDataBean:setAccount</text>
</g>
<!-- 139748202604584 -->
<g id="node47" class="node">
<title>139748202604584</title>
<polygon fill="none" stroke="#000000" points="304,-2538 94,-2538 94,-2502 304,-2502 304,-2538"/>
<text text-anchor="middle" x="199" y="-2516.3" font-family="Times,serif" font-size="14.00" fill="#000000">OrderDataBean:setCompletionDate</text>
</g>
<!-- 139748205569584 -->
<g id="node48" class="node">
<title>139748205569584</title>
<polygon fill="none" stroke="#000000" points="281,-2592 117,-2592 117,-2556 281,-2556 281,-2592"/>
<text text-anchor="middle" x="199" y="-2570.3" font-family="Times,serif" font-size="14.00" fill="#000000">OrderDataBean:setHolding</text>
</g>
<!-- 139748202604416 -->
<g id="node49" class="node">
<title>139748202604416</title>
<polygon fill="none" stroke="#000000" points="286.5,-2646 111.5,-2646 111.5,-2610 286.5,-2610 286.5,-2646"/>
<text text-anchor="middle" x="199" y="-2624.3" font-family="Times,serif" font-size="14.00" fill="#000000">OrderDataBean:setOpenDate</text>
</g>
<!-- 139748205568968 -->
<g id="node50" class="node">
<title>139748205568968</title>
<polygon fill="none" stroke="#000000" points="284.5,-2700 113.5,-2700 113.5,-2664 284.5,-2664 284.5,-2700"/>
<text text-anchor="middle" x="199" y="-2678.3" font-family="Times,serif" font-size="14.00" fill="#000000">OrderDataBean:setOrderFee</text>
</g>
<!-- 139748205570648 -->
<g id="node51" class="node">
<title>139748205570648</title>
<polygon fill="none" stroke="#000000" points="291.5,-2754 106.5,-2754 106.5,-2718 291.5,-2718 291.5,-2754"/>
<text text-anchor="middle" x="199" y="-2732.3" font-family="Times,serif" font-size="14.00" fill="#000000">OrderDataBean:setOrderStatus</text>
</g>
<!-- 139748202606208 -->
<g id="node52" class="node">
<title>139748202606208</title>
<polygon fill="none" stroke="#000000" points="288.5,-2808 109.5,-2808 109.5,-2772 288.5,-2772 288.5,-2808"/>
<text text-anchor="middle" x="199" y="-2786.3" font-family="Times,serif" font-size="14.00" fill="#000000">OrderDataBean:setOrderType</text>
</g>
<!-- 139748205569080 -->
<g id="node53" class="node">
<title>139748205569080</title>
<polygon fill="none" stroke="#000000" points="273,-2862 125,-2862 125,-2826 273,-2826 273,-2862"/>
<text text-anchor="middle" x="199" y="-2840.3" font-family="Times,serif" font-size="14.00" fill="#000000">OrderDataBean:setPrice</text>
</g>
<!-- 139748202604864 -->
<g id="node54" class="node">
<title>139748202604864</title>
<polygon fill="none" stroke="#000000" points="282.5,-2916 115.5,-2916 115.5,-2880 282.5,-2880 282.5,-2916"/>
<text text-anchor="middle" x="199" y="-2894.3" font-family="Times,serif" font-size="14.00" fill="#000000">OrderDataBean:setQuantity</text>
</g>
<!-- 139748202603352 -->
<g id="node55" class="node">
<title>139748202603352</title>
<polygon fill="none" stroke="#000000" points="275.5,-2970 122.5,-2970 122.5,-2934 275.5,-2934 275.5,-2970"/>
<text text-anchor="middle" x="199" y="-2948.3" font-family="Times,serif" font-size="14.00" fill="#000000">OrderDataBean:setQuote</text>
</g>
<!-- 139748202605592 -->
<g id="node56" class="node">
<title>139748202605592</title>
<polygon fill="none" stroke="#000000" points="606.5,-450 449.5,-450 449.5,-414 606.5,-414 606.5,-450"/>
<text text-anchor="middle" x="528" y="-428.3" font-family="Times,serif" font-size="14.00" fill="#000000">OrdersAlertFilter:doFilter</text>
</g>
<!-- 139748202605592&#45;&gt;139748205571264 -->
<g id="edge3" class="edge">
<title>139748202605592&#45;&gt;139748205571264</title>
<path fill="none" stroke="#000000" d="M606.96,-445.5791C621.3967,-448.0619 635.8127,-450.541 648.2547,-452.6807"/>
<polygon fill="#000000" stroke="#000000" points="647.7503,-456.1453 658.1989,-454.3909 648.9368,-449.2466 647.7503,-456.1453"/>
</g>
<!-- 139748205568800 -->
<g id="node57" class="node">
<title>139748205568800</title>
<polygon fill="none" stroke="#000000" points="348.5,-3024 49.5,-3024 49.5,-2988 348.5,-2988 348.5,-3024"/>
<text text-anchor="middle" x="199" y="-3002.3" font-family="Times,serif" font-size="14.00" fill="#000000">QuoteDataBean:QuoteDataBean [overloaded_#001]</text>
</g>
<!-- 139748205568912 -->
<g id="node58" class="node">
<title>139748205568912</title>
<polygon fill="none" stroke="#000000" points="303.5,-3078 94.5,-3078 94.5,-3042 303.5,-3042 303.5,-3078"/>
<text text-anchor="middle" x="199" y="-3056.3" font-family="Times,serif" font-size="14.00" fill="#000000">QuoteDataBean:getCompanyName</text>
</g>
<!-- 139748202603856 -->
<g id="node59" class="node">
<title>139748202603856</title>
<polygon fill="none" stroke="#000000" points="274,-3132 124,-3132 124,-3096 274,-3096 274,-3132"/>
<text text-anchor="middle" x="199" y="-3110.3" font-family="Times,serif" font-size="14.00" fill="#000000">QuoteDataBean:getHigh</text>
</g>
<!-- 139748202606432 -->
<g id="node60" class="node">
<title>139748202606432</title>
<polygon fill="none" stroke="#000000" points="273,-3186 125,-3186 125,-3150 273,-3150 273,-3186"/>
<text text-anchor="middle" x="199" y="-3164.3" font-family="Times,serif" font-size="14.00" fill="#000000">QuoteDataBean:getLow</text>
</g>
<!-- 139748205570200 -->
<g id="node61" class="node">
<title>139748205570200</title>
<polygon fill="none" stroke="#000000" points="275,-3240 123,-3240 123,-3204 275,-3204 275,-3240"/>
<text text-anchor="middle" x="199" y="-3218.3" font-family="Times,serif" font-size="14.00" fill="#000000">QuoteDataBean:getOpen</text>
</g>
<!-- 139748202606040 -->
<g id="node62" class="node">
<title>139748202606040</title>
<polygon fill="none" stroke="#000000" points="274.5,-3294 123.5,-3294 123.5,-3258 274.5,-3258 274.5,-3294"/>
<text text-anchor="middle" x="199" y="-3272.3" font-family="Times,serif" font-size="14.00" fill="#000000">QuoteDataBean:getPrice</text>
</g>
<!-- 139748205568520 -->
<g id="node63" class="node">
<title>139748205568520</title>
<polygon fill="none" stroke="#000000" points="282,-3348 116,-3348 116,-3312 282,-3312 282,-3348"/>
<text text-anchor="middle" x="199" y="-3326.3" font-family="Times,serif" font-size="14.00" fill="#000000">QuoteDataBean:getSymbol</text>
</g>
<!-- 139748202603800 -->
<g id="node64" class="node">
<title>139748202603800</title>
<polygon fill="none" stroke="#000000" points="282.5,-3402 115.5,-3402 115.5,-3366 282.5,-3366 282.5,-3402"/>
<text text-anchor="middle" x="199" y="-3380.3" font-family="Times,serif" font-size="14.00" fill="#000000">QuoteDataBean:getVolume</text>
</g>
<!-- 139748205568352 -->
<g id="node65" class="node">
<title>139748205568352</title>
<polygon fill="none" stroke="#000000" points="279,-3456 119,-3456 119,-3420 279,-3420 279,-3456"/>
<text text-anchor="middle" x="199" y="-3434.3" font-family="Times,serif" font-size="14.00" fill="#000000">QuoteDataBean:hashCode</text>
</g>
<!-- 139748202606544 -->
<g id="node66" class="node">
<title>139748202606544</title>
<polygon fill="none" stroke="#000000" points="280.5,-3510 117.5,-3510 117.5,-3474 280.5,-3474 280.5,-3510"/>
<text text-anchor="middle" x="199" y="-3488.3" font-family="Times,serif" font-size="14.00" fill="#000000">QuoteDataBean:setChange</text>
</g>
<!-- 139748202604192 -->
<g id="node67" class="node">
<title>139748202604192</title>
<polygon fill="none" stroke="#000000" points="273.5,-3564 124.5,-3564 124.5,-3528 273.5,-3528 273.5,-3564"/>
<text text-anchor="middle" x="199" y="-3542.3" font-family="Times,serif" font-size="14.00" fill="#000000">QuoteDataBean:setPrice</text>
</g>
<!-- 139748205569472 -->
<g id="node68" class="node">
<title>139748205569472</title>
<polygon fill="none" stroke="#000000" points="282,-3618 116,-3618 116,-3582 282,-3582 282,-3618"/>
<text text-anchor="middle" x="199" y="-3596.3" font-family="Times,serif" font-size="14.00" fill="#000000">QuoteDataBean:setVolume</text>
</g>
<!-- 139748202604808 -->
<g id="node69" class="node">
<title>139748202604808</title>
<polygon fill="none" stroke="#000000" points="320,-3672 78,-3672 78,-3636 320,-3636 320,-3672"/>
<text text-anchor="middle" x="199" y="-3650.3" font-family="Times,serif" font-size="14.00" fill="#000000">RecentStockChangeList:addStockChange</text>
</g>
<!-- 139748205569248 -->
<g id="node70" class="node">
<title>139748205569248</title>
<polygon fill="none" stroke="#000000" points="333.5,-3726 64.5,-3726 64.5,-3690 333.5,-3690 333.5,-3726"/>
<text text-anchor="middle" x="199" y="-3704.3" font-family="Times,serif" font-size="14.00" fill="#000000">RecentStockChangeList:stockChangesInJSON</text>
</g>
<!-- 139748202605368 -->
<g id="node71" class="node">
<title>139748202605368</title>
<polygon fill="none" stroke="#000000" points="802,-477 748,-477 748,-441 802,-441 802,-477"/>
<text text-anchor="middle" x="775" y="-455.3" font-family="Times,serif" font-size="14.00" fill="#000000">Root</text>
</g>
<!-- 139748205571096 -->
<g id="node116" class="node">
<title>139748205571096</title>
<ellipse fill="#ffa500" stroke="#000000" cx="865" cy="-459" rx="27" ry="27"/>
</g>
<!-- 139748202605368&#45;&gt;139748205571096 -->
<g id="edge4" class="edge">
<title>139748202605368&#45;&gt;139748205571096</title>
<path fill="none" stroke="#000000" d="M802.003,-459C810.0277,-459 818.9665,-459 827.5309,-459"/>
<polygon fill="#000000" stroke="#000000" points="827.7051,-462.5001 837.705,-459 827.705,-455.5001 827.7051,-462.5001"/>
</g>
<!-- 139748205570144 -->
<g id="node72" class="node">
<title>139748205570144</title>
<polygon fill="none" stroke="#000000" points="261.5,-3780 136.5,-3780 136.5,-3744 261.5,-3744 261.5,-3780"/>
<text text-anchor="middle" x="199" y="-3758.3" font-family="Times,serif" font-size="14.00" fill="#000000">TimerStat:getCount</text>
</g>
<!-- 139748205569416 -->
<g id="node73" class="node">
<title>139748205569416</title>
<polygon fill="none" stroke="#000000" points="257.5,-3834 140.5,-3834 140.5,-3798 257.5,-3798 257.5,-3834"/>
<text text-anchor="middle" x="199" y="-3812.3" font-family="Times,serif" font-size="14.00" fill="#000000">TimerStat:getMax</text>
</g>
<!-- 139748202605536 -->
<g id="node74" class="node">
<title>139748202605536</title>
<polygon fill="none" stroke="#000000" points="256.5,-3888 141.5,-3888 141.5,-3852 256.5,-3852 256.5,-3888"/>
<text text-anchor="middle" x="199" y="-3866.3" font-family="Times,serif" font-size="14.00" fill="#000000">TimerStat:getMin</text>
</g>
<!-- 139748205569304 -->
<g id="node75" class="node">
<title>139748205569304</title>
<polygon fill="none" stroke="#000000" points="273.5,-3942 124.5,-3942 124.5,-3906 273.5,-3906 273.5,-3942"/>
<text text-anchor="middle" x="199" y="-3920.3" font-family="Times,serif" font-size="14.00" fill="#000000">TimerStat:getTotalTime</text>
</g>
<!-- 139748202603464 -->
<g id="node76" class="node">
<title>139748202603464</title>
<polygon fill="none" stroke="#000000" points="260.5,-3996 137.5,-3996 137.5,-3960 260.5,-3960 260.5,-3996"/>
<text text-anchor="middle" x="199" y="-3974.3" font-family="Times,serif" font-size="14.00" fill="#000000">TimerStat:setCount</text>
</g>
<!-- 139748205569696 -->
<g id="node77" class="node">
<title>139748205569696</title>
<polygon fill="none" stroke="#000000" points="255.5,-4050 142.5,-4050 142.5,-4014 255.5,-4014 255.5,-4050"/>
<text text-anchor="middle" x="199" y="-4028.3" font-family="Times,serif" font-size="14.00" fill="#000000">TimerStat:setMin</text>
</g>
<!-- 139748205570816 -->
<g id="node78" class="node">
<title>139748205570816</title>
<polygon fill="none" stroke="#000000" points="273,-4104 125,-4104 125,-4068 273,-4068 273,-4104"/>
<text text-anchor="middle" x="199" y="-4082.3" font-family="Times,serif" font-size="14.00" fill="#000000">TimerStat:setTotalTime</text>
</g>
<!-- 139748202604248 -->
<g id="node79" class="node">
<title>139748202604248</title>
<polygon fill="none" stroke="#000000" points="330.5,-4158 67.5,-4158 67.5,-4122 330.5,-4122 330.5,-4158"/>
<text text-anchor="middle" x="199" y="-4136.3" font-family="Times,serif" font-size="14.00" fill="#000000">TradeAction:TradeAction [overloaded_#001]</text>
</g>
<!-- 139748202605144 -->
<g id="node80" class="node">
<title>139748202605144</title>
<polygon fill="none" stroke="#000000" points="275,-4212 123,-4212 123,-4176 275,-4176 275,-4212"/>
<text text-anchor="middle" x="199" y="-4190.3" font-family="Times,serif" font-size="14.00" fill="#000000">TradeAction:createTrade</text>
</g>
<!-- 139748205569360 -->
<g id="node81" class="node">
<title>139748205569360</title>
<polygon fill="none" stroke="#000000" points="288.5,-4266 109.5,-4266 109.5,-4230 288.5,-4230 288.5,-4266"/>
<text text-anchor="middle" x="199" y="-4244.3" font-family="Times,serif" font-size="14.00" fill="#000000">TradeAction:getClosedOrders</text>
</g>
<!-- 139748205568688 -->
<g id="node82" class="node">
<title>139748205568688</title>
<polygon fill="none" stroke="#000000" points="276.5,-4320 121.5,-4320 121.5,-4284 276.5,-4284 276.5,-4320"/>
<text text-anchor="middle" x="199" y="-4298.3" font-family="Times,serif" font-size="14.00" fill="#000000">TradeAction:getHoldings</text>
</g>
<!-- 139748202605984 -->
<g id="node83" class="node">
<title>139748202605984</title>
<polygon fill="none" stroke="#000000" points="268,-4374 130,-4374 130,-4338 268,-4338 268,-4374"/>
<text text-anchor="middle" x="199" y="-4352.3" font-family="Times,serif" font-size="14.00" fill="#000000">TradeAction:getQuote</text>
</g>
<!-- 139748205568576 -->
<g id="node84" class="node">
<title>139748205568576</title>
<polygon fill="none" stroke="#000000" points="287.5,-4428 110.5,-4428 110.5,-4392 287.5,-4392 287.5,-4428"/>
<text text-anchor="middle" x="199" y="-4406.3" font-family="Times,serif" font-size="14.00" fill="#000000">TradeAction:orderCompleted</text>
</g>
<!-- 139748202605424 -->
<g id="node85" class="node">
<title>139748202605424</title>
<polygon fill="none" stroke="#000000" points="306,-4482 92,-4482 92,-4446 306,-4446 306,-4482"/>
<text text-anchor="middle" x="199" y="-4460.3" font-family="Times,serif" font-size="14.00" fill="#000000">TradeAction:sell [overloaded_#004]</text>
</g>
<!-- 139748202603296 -->
<g id="node86" class="node">
<title>139748202603296</title>
<polygon fill="none" stroke="#000000" points="314,-4536 84,-4536 84,-4500 314,-4500 314,-4536"/>
<text text-anchor="middle" x="199" y="-4514.3" font-family="Times,serif" font-size="14.00" fill="#000000">TradeAction:updateQuotePriceVolume</text>
</g>
<!-- 139748205569136 -->
<g id="node87" class="node">
<title>139748205569136</title>
<polygon fill="none" stroke="#000000" points="272,-4590 126,-4590 126,-4554 272,-4554 272,-4590"/>
<text text-anchor="middle" x="199" y="-4568.3" font-family="Times,serif" font-size="14.00" fill="#000000">TradeAppServlet:doGet</text>
</g>
<!-- 139748202604976 -->
<g id="node88" class="node">
<title>139748202604976</title>
<polygon fill="none" stroke="#000000" points="291,-4644 107,-4644 107,-4608 291,-4608 291,-4644"/>
<text text-anchor="middle" x="199" y="-4622.3" font-family="Times,serif" font-size="14.00" fill="#000000">TradeAppServlet:performTask</text>
</g>
<!-- 139748202605088 -->
<g id="node89" class="node">
<title>139748202605088</title>
<polygon fill="none" stroke="#000000" points="285.5,-4698 112.5,-4698 112.5,-4662 285.5,-4662 285.5,-4698"/>
<text text-anchor="middle" x="199" y="-4676.3" font-family="Times,serif" font-size="14.00" fill="#000000">TradeConfig:getActionTrace</text>
</g>
<!-- 139748202603912 -->
<g id="node90" class="node">
<title>139748202603912</title>
<polygon fill="none" stroke="#000000" points="305,-4752 93,-4752 93,-4716 305,-4716 305,-4752"/>
<text text-anchor="middle" x="199" y="-4730.3" font-family="Times,serif" font-size="14.00" fill="#000000">TradeConfig:getDisplayOrderAlerts</text>
</g>
<!-- 139748205569976 -->
<g id="node91" class="node">
<title>139748205569976</title>
<polygon fill="none" stroke="#000000" points="277.5,-4806 120.5,-4806 120.5,-4770 277.5,-4770 277.5,-4806"/>
<text text-anchor="middle" x="199" y="-4784.3" font-family="Times,serif" font-size="14.00" fill="#000000">TradeConfig:getLongRun</text>
</g>
<!-- 139748202606488 -->
<g id="node92" class="node">
<title>139748202606488</title>
<polygon fill="none" stroke="#000000" points="298,-4860 100,-4860 100,-4824 298,-4824 298,-4860"/>
<text text-anchor="middle" x="199" y="-4838.3" font-family="Times,serif" font-size="14.00" fill="#000000">TradeConfig:getMAX_QUOTES</text>
</g>
<!-- 139748205570592 -->
<g id="node93" class="node">
<title>139748205570592</title>
<polygon fill="none" stroke="#000000" points="277.5,-4914 120.5,-4914 120.5,-4878 277.5,-4878 277.5,-4914"/>
<text text-anchor="middle" x="199" y="-4892.3" font-family="Times,serif" font-size="14.00" fill="#000000">TradeConfig:getOrderFee</text>
</g>
<!-- 139748202605480 -->
<g id="node94" class="node">
<title>139748202605480</title>
<polygon fill="none" stroke="#000000" points="265,-4968 133,-4968 133,-4932 265,-4932 265,-4968"/>
<text text-anchor="middle" x="199" y="-4946.3" font-family="Times,serif" font-size="14.00" fill="#000000">TradeConfig:getPage</text>
</g>
<!-- 139748205570088 -->
<g id="node95" class="node">
<title>139748205570088</title>
<polygon fill="none" stroke="#000000" points="322,-5022 76,-5022 76,-4986 322,-4986 322,-5022"/>
<text text-anchor="middle" x="199" y="-5000.3" font-family="Times,serif" font-size="14.00" fill="#000000">TradeConfig:getPercentSentToWebsocket</text>
</g>
<!-- 139748205568856 -->
<g id="node96" class="node">
<title>139748205568856</title>
<polygon fill="none" stroke="#000000" points="323,-5076 75,-5076 75,-5040 323,-5040 323,-5076"/>
<text text-anchor="middle" x="199" y="-5054.3" font-family="Times,serif" font-size="14.00" fill="#000000">TradeConfig:getPublishQuotePriceChange</text>
</g>
<!-- 139748202604080 -->
<g id="node97" class="node">
<title>139748202604080</title>
<polygon fill="none" stroke="#000000" points="327,-5130 71,-5130 71,-5094 327,-5094 327,-5130"/>
<text text-anchor="middle" x="199" y="-5108.3" font-family="Times,serif" font-size="14.00" fill="#000000">TradeConfig:getRandomPriceChangeFactor</text>
</g>
<!-- 139748205569920 -->
<g id="node98" class="node">
<title>139748205569920</title>
<polygon fill="none" stroke="#000000" points="267.5,-5184 130.5,-5184 130.5,-5148 267.5,-5148 267.5,-5184"/>
<text text-anchor="middle" x="199" y="-5162.3" font-family="Times,serif" font-size="14.00" fill="#000000">TradeConfig:getTrace</text>
</g>
<!-- 139748205570536 -->
<g id="node99" class="node">
<title>139748205570536</title>
<polygon fill="none" stroke="#000000" points="304.5,-5238 93.5,-5238 93.5,-5202 304.5,-5202 304.5,-5238"/>
<text text-anchor="middle" x="199" y="-5216.3" font-family="Times,serif" font-size="14.00" fill="#000000">TradeConfig:getUpdateQuotePrices</text>
</g>
<!-- 139748205570480 -->
<g id="node100" class="node">
<title>139748205570480</title>
<polygon fill="none" stroke="#000000" points="264.5,-5292 133.5,-5292 133.5,-5256 264.5,-5256 264.5,-5292"/>
<text text-anchor="middle" x="199" y="-5270.3" font-family="Times,serif" font-size="14.00" fill="#000000">TradeConfig:random</text>
</g>
<!-- 139748205568072 -->
<g id="node101" class="node">
<title>139748205568072</title>
<polygon fill="none" stroke="#000000" points="266.5,-5346 131.5,-5346 131.5,-5310 266.5,-5310 266.5,-5346"/>
<text text-anchor="middle" x="199" y="-5324.3" font-family="Times,serif" font-size="14.00" fill="#000000">TradeConfig:rndFloat</text>
</g>
<!-- 139748202606320 -->
<g id="node102" class="node">
<title>139748202606320</title>
<polygon fill="none" stroke="#000000" points="309.5,-5400 88.5,-5400 88.5,-5364 309.5,-5364 309.5,-5400"/>
<text text-anchor="middle" x="199" y="-5378.3" font-family="Times,serif" font-size="14.00" fill="#000000">TradeConfig:useRemoteEJBInterface</text>
</g>
<!-- 139748205568184 -->
<g id="node103" class="node">
<title>139748205568184</title>
<polygon fill="none" stroke="#000000" points="296,-5454 102,-5454 102,-5418 296,-5418 296,-5454"/>
<text text-anchor="middle" x="199" y="-5432.3" font-family="Times,serif" font-size="14.00" fill="#000000">TradeSLSBBean:completeOrder</text>
</g>
<!-- 139748205569024 -->
<g id="node104" class="node">
<title>139748205569024</title>
<polygon fill="none" stroke="#000000" points="287,-5508 111,-5508 111,-5472 287,-5472 287,-5508"/>
<text text-anchor="middle" x="199" y="-5486.3" font-family="Times,serif" font-size="14.00" fill="#000000">TradeSLSBBean:createOrder</text>
</g>
<!-- 139748202604136 -->
<g id="node105" class="node">
<title>139748202604136</title>
<polygon fill="none" stroke="#000000" points="300.5,-5562 97.5,-5562 97.5,-5526 300.5,-5526 300.5,-5562"/>
<text text-anchor="middle" x="199" y="-5540.3" font-family="Times,serif" font-size="14.00" fill="#000000">TradeSLSBBean:getClosedOrders</text>
</g>
<!-- 139748205568408 -->
<g id="node106" class="node">
<title>139748205568408</title>
<polygon fill="none" stroke="#000000" points="288,-5616 110,-5616 110,-5580 288,-5580 288,-5616"/>
<text text-anchor="middle" x="199" y="-5594.3" font-family="Times,serif" font-size="14.00" fill="#000000">TradeSLSBBean:getHoldings</text>
</g>
<!-- 139748205570032 -->
<g id="node107" class="node">
<title>139748205570032</title>
<polygon fill="none" stroke="#000000" points="279.5,-5670 118.5,-5670 118.5,-5634 279.5,-5634 279.5,-5670"/>
<text text-anchor="middle" x="199" y="-5648.3" font-family="Times,serif" font-size="14.00" fill="#000000">TradeSLSBBean:getQuote</text>
</g>
<!-- 139748202604752 -->
<g id="node108" class="node">
<title>139748202604752</title>
<polygon fill="none" stroke="#000000" points="326,-5724 72,-5724 72,-5688 326,-5688 326,-5724"/>
<text text-anchor="middle" x="199" y="-5702.3" font-family="Times,serif" font-size="14.00" fill="#000000">TradeSLSBBean:publishQuotePriceChange</text>
</g>
<!-- 139748202605200 -->
<g id="node109" class="node">
<title>139748202605200</title>
<polygon fill="none" stroke="#000000" points="264.5,-5778 133.5,-5778 133.5,-5742 264.5,-5742 264.5,-5778"/>
<text text-anchor="middle" x="199" y="-5756.3" font-family="Times,serif" font-size="14.00" fill="#000000">TradeSLSBBean:sell</text>
</g>
<!-- 139748205570704 -->
<g id="node110" class="node">
<title>139748205570704</title>
<polygon fill="none" stroke="#000000" points="325.5,-5832 72.5,-5832 72.5,-5796 325.5,-5796 325.5,-5832"/>
<text text-anchor="middle" x="199" y="-5810.3" font-family="Times,serif" font-size="14.00" fill="#000000">TradeSLSBBean:updateQuotePriceVolume</text>
</g>
<!-- 139748202605256 -->
<g id="node111" class="node">
<title>139748202605256</title>
<polygon fill="none" stroke="#000000" points="293,-5886 105,-5886 105,-5850 293,-5850 293,-5886"/>
<text text-anchor="middle" x="199" y="-5864.3" font-family="Times,serif" font-size="14.00" fill="#000000">TradeServletAction:doPortfolio</text>
</g>
<!-- 139748205568632 -->
<g id="node112" class="node">
<title>139748205568632</title>
<polygon fill="none" stroke="#000000" points="279.5,-5940 118.5,-5940 118.5,-5904 279.5,-5904 279.5,-5940"/>
<text text-anchor="middle" x="199" y="-5918.3" font-family="Times,serif" font-size="14.00" fill="#000000">TradeServletAction:doSell</text>
</g>
<!-- 139748202603744 -->
<g id="node113" class="node">
<title>139748202603744</title>
<polygon fill="none" stroke="#000000" points="306,-5994 92,-5994 92,-5958 306,-5958 306,-5994"/>
<text text-anchor="middle" x="199" y="-5972.3" font-family="Times,serif" font-size="14.00" fill="#000000">TradeServletAction:requestDispatch</text>
</g>
<!-- 139748205570928 -->
<g id="node114" class="node">
<title>139748205570928</title>
<ellipse fill="#00ff00" stroke="#000000" cx="199" cy="-459" rx="27" ry="27"/>
<text text-anchor="middle" x="199" y="-455.3" font-family="Times,serif" font-size="14.00" fill="#000000">1</text>
</g>
<!-- 139748205570928&#45;&gt;139748205570872 -->
<g id="edge5" class="edge">
<title>139748205570928&#45;&gt;139748205570872</title>
<path fill="none" stroke="#000000" d="M225.9235,-461.2095C268.7082,-464.7207 354.4625,-471.7583 423.7064,-477.4409"/>
<polygon fill="#000000" stroke="#000000" points="423.543,-480.9392 433.7958,-478.269 424.1156,-473.9627 423.543,-480.9392"/>
</g>
<!-- 139748205570928&#45;&gt;139748202605592 -->
<g id="edge6" class="edge">
<title>139748205570928&#45;&gt;139748202605592</title>
<path fill="none" stroke="#000000" d="M225.9235,-456.7905C271.9262,-453.0152 367.6054,-445.1631 439.0251,-439.3019"/>
<polygon fill="#000000" stroke="#000000" points="439.6974,-442.7586 449.3776,-438.4523 439.1248,-435.782 439.6974,-442.7586"/>
</g>
<!-- 139748205571264&#45;&gt;139748202605368 -->
<g id="edge1" class="edge">
<title>139748205571264&#45;&gt;139748202605368</title>
<path fill="none" stroke="#000000" d="M712.003,-459C720.0277,-459 728.9665,-459 737.5309,-459"/>
<polygon fill="#000000" stroke="#000000" points="737.7051,-462.5001 747.705,-459 737.705,-455.5001 737.7051,-462.5001"/>
</g>
</g>
</svg>
