<?xml version="1.0" encoding="UTF-8" standalone="no"?>
<!DOCTYPE svg PUBLIC "-//W3C//DTD SVG 1.1//EN"
 "http://www.w3.org/Graphics/SVG/1.1/DTD/svg11.dtd">
<!-- Generated by graphviz version 2.40.1 (20161225.0304)
 -->
<!-- Title: alpha_classic_net_1585315544.2192929 Pages: 1 -->
<svg width="900pt" height="6002pt"
 viewBox="0.00 0.00 900.00 6002.00" xmlns="http://www.w3.org/2000/svg" xmlns:xlink="http://www.w3.org/1999/xlink">
<g id="graph0" class="graph" transform="scale(1 1) rotate(0) translate(4 5998)">
<title>alpha_classic_net_1585315544.2192929</title>
<!-- 140178110693896 -->
<g id="node1" class="node">
<title>140178110693896</title>
<polygon fill="none" stroke="#000000" points="361.5,-36 36.5,-36 36.5,0 361.5,0 361.5,-36"/>
<text text-anchor="middle" x="199" y="-14.3" font-family="Times,serif" font-size="14.00" fill="#000000">AccountDataBean:AccountDataBean [overloaded_#001]</text>
</g>
<!-- 140178110696640 -->
<g id="node2" class="node">
<title>140178110696640</title>
<polygon fill="none" stroke="#000000" points="288.5,-90 109.5,-90 109.5,-54 288.5,-54 288.5,-90"/>
<text text-anchor="middle" x="199" y="-68.3" font-family="Times,serif" font-size="14.00" fill="#000000">AccountDataBean:getBalance</text>
</g>
<!-- 140178110694064 -->
<g id="node3" class="node">
<title>140178110694064</title>
<polygon fill="none" stroke="#000000" points="285.5,-144 112.5,-144 112.5,-108 285.5,-108 285.5,-144"/>
<text text-anchor="middle" x="199" y="-122.3" font-family="Times,serif" font-size="14.00" fill="#000000">AccountDataBean:getProfile</text>
</g>
<!-- 140178110695744 -->
<g id="node4" class="node">
<title>140178110695744</title>
<polygon fill="none" stroke="#000000" points="285.5,-198 112.5,-198 112.5,-162 285.5,-162 285.5,-198"/>
<text text-anchor="middle" x="199" y="-176.3" font-family="Times,serif" font-size="14.00" fill="#000000">AccountDataBean:hashCode</text>
</g>
<!-- 140178123182656 -->
<g id="node5" class="node">
<title>140178123182656</title>
<polygon fill="none" stroke="#000000" points="288,-252 110,-252 110,-216 288,-216 288,-252"/>
<text text-anchor="middle" x="199" y="-230.3" font-family="Times,serif" font-size="14.00" fill="#000000">AccountDataBean:setBalance</text>
</g>
<!-- 140178123183496 -->
<g id="node6" class="node">
<title>140178123183496</title>
<polygon fill="none" stroke="#000000" points="398,-306 0,-306 0,-270 398,-270 398,-306"/>
<text text-anchor="middle" x="199" y="-284.3" font-family="Times,serif" font-size="14.00" fill="#000000">AccountProfileDataBean:AccountProfileDataBean [overloaded_#001]</text>
</g>
<!-- 140178110696584 -->
<g id="node7" class="node">
<title>140178110696584</title>
<polygon fill="none" stroke="#000000" points="308,-360 90,-360 90,-324 308,-324 308,-360"/>
<text text-anchor="middle" x="199" y="-338.3" font-family="Times,serif" font-size="14.00" fill="#000000">AccountProfileDataBean:getAccount</text>
</g>
<!-- 140178110693448 -->
<g id="node8" class="node">
<title>140178110693448</title>
<polygon fill="none" stroke="#000000" points="305,-414 93,-414 93,-378 305,-378 305,-414"/>
<text text-anchor="middle" x="199" y="-392.3" font-family="Times,serif" font-size="14.00" fill="#000000">AccountProfileDataBean:getUserID</text>
</g>
<!-- 140178110695408 -->
<g id="node9" class="node">
<title>140178110695408</title>
<polygon fill="none" stroke="#000000" points="622,-504 434,-504 434,-468 622,-468 622,-504"/>
<text text-anchor="middle" x="528" y="-482.3" font-family="Times,serif" font-size="14.00" fill="#000000">DTStreamer3MDB:onMessage</text>
</g>
<!-- 140178123184280 -->
<g id="node115" class="node">
<title>140178123184280</title>
<ellipse fill="none" stroke="#000000" cx="685" cy="-459" rx="27" ry="27"/>
<text text-anchor="middle" x="685" y="-455.3" font-family="Times,serif" font-size="14.00" fill="#000000">({&#39;DTStreamer3MDB:onMessage&#39;, &#39;OrdersAlertFilter:doFilter&#39;}, {&#39;Root&#39;})</text>
</g>
<!-- 140178110695408&#45;&gt;140178123184280 -->
<g id="edge2" class="edge">
<title>140178110695408&#45;&gt;140178123184280</title>
<path fill="none" stroke="#000000" d="M622.0467,-469.8264C631.2192,-468.2489 640.0966,-466.7222 648.1506,-465.3371"/>
<polygon fill="#000000" stroke="#000000" points="648.9576,-468.7498 658.2197,-463.6055 647.7712,-461.8511 648.9576,-468.7498"/>
</g>
<!-- 140178110696192 -->
<g id="node10" class="node">
<title>140178110696192</title>
<polygon fill="none" stroke="#000000" points="304.5,-540 93.5,-540 93.5,-504 304.5,-504 304.5,-540"/>
<text text-anchor="middle" x="199" y="-518.3" font-family="Times,serif" font-size="14.00" fill="#000000">FinancialUtils:computeGainPercent</text>
</g>
<!-- 140178110695968 -->
<g id="node11" class="node">
<title>140178110695968</title>
<polygon fill="none" stroke="#000000" points="293,-594 105,-594 105,-558 293,-558 293,-594"/>
<text text-anchor="middle" x="199" y="-572.3" font-family="Times,serif" font-size="14.00" fill="#000000">FinancialUtils:printGainHTML</text>
</g>
<!-- 140178110693504 -->
<g id="node12" class="node">
<title>140178110693504</title>
<polygon fill="none" stroke="#000000" points="313,-648 85,-648 85,-612 313,-612 313,-648"/>
<text text-anchor="middle" x="199" y="-626.3" font-family="Times,serif" font-size="14.00" fill="#000000">FinancialUtils:printGainPercentHTML</text>
</g>
<!-- 140178110695856 -->
<g id="node13" class="node">
<title>140178110695856</title>
<polygon fill="none" stroke="#000000" points="289.5,-702 108.5,-702 108.5,-666 289.5,-666 289.5,-702"/>
<text text-anchor="middle" x="199" y="-680.3" font-family="Times,serif" font-size="14.00" fill="#000000">FinancialUtils:printQuoteLink</text>
</g>
<!-- 140178109644584 -->
<g id="node14" class="node">
<title>140178109644584</title>
<polygon fill="none" stroke="#000000" points="360,-756 38,-756 38,-720 360,-720 360,-756"/>
<text text-anchor="middle" x="199" y="-734.3" font-family="Times,serif" font-size="14.00" fill="#000000">HoldingDataBean:HoldingDataBean [overloaded_#001]</text>
</g>
<!-- 140178110695520 -->
<g id="node15" class="node">
<title>140178110695520</title>
<polygon fill="none" stroke="#000000" points="295.5,-810 102.5,-810 102.5,-774 295.5,-774 295.5,-810"/>
<text text-anchor="middle" x="199" y="-788.3" font-family="Times,serif" font-size="14.00" fill="#000000">HoldingDataBean:getHoldingID</text>
</g>
<!-- 140178123183776 -->
<g id="node16" class="node">
<title>140178123183776</title>
<polygon fill="none" stroke="#000000" points="303.5,-864 94.5,-864 94.5,-828 303.5,-828 303.5,-864"/>
<text text-anchor="middle" x="199" y="-842.3" font-family="Times,serif" font-size="14.00" fill="#000000">HoldingDataBean:getPurchaseDate</text>
</g>
<!-- 140178109644360 -->
<g id="node17" class="node">
<title>140178109644360</title>
<polygon fill="none" stroke="#000000" points="304.5,-918 93.5,-918 93.5,-882 304.5,-882 304.5,-918"/>
<text text-anchor="middle" x="199" y="-896.3" font-family="Times,serif" font-size="14.00" fill="#000000">HoldingDataBean:getPurchasePrice</text>
</g>
<!-- 140178110697144 -->
<g id="node18" class="node">
<title>140178110697144</title>
<polygon fill="none" stroke="#000000" points="290,-972 108,-972 108,-936 290,-936 290,-972"/>
<text text-anchor="middle" x="199" y="-950.3" font-family="Times,serif" font-size="14.00" fill="#000000">HoldingDataBean:getQuantity</text>
</g>
<!-- 140178123182544 -->
<g id="node19" class="node">
<title>140178123182544</title>
<polygon fill="none" stroke="#000000" points="282.5,-1026 115.5,-1026 115.5,-990 282.5,-990 282.5,-1026"/>
<text text-anchor="middle" x="199" y="-1004.3" font-family="Times,serif" font-size="14.00" fill="#000000">HoldingDataBean:getQuote</text>
</g>
<!-- 140178110695576 -->
<g id="node20" class="node">
<title>140178110695576</title>
<polygon fill="none" stroke="#000000" points="290,-1080 108,-1080 108,-1044 290,-1044 290,-1080"/>
<text text-anchor="middle" x="199" y="-1058.3" font-family="Times,serif" font-size="14.00" fill="#000000">HoldingDataBean:getQuoteID</text>
</g>
<!-- 140178109644472 -->
<g id="node21" class="node">
<title>140178109644472</title>
<polygon fill="none" stroke="#000000" points="302.5,-1134 95.5,-1134 95.5,-1098 302.5,-1098 302.5,-1134"/>
<text text-anchor="middle" x="199" y="-1112.3" font-family="Times,serif" font-size="14.00" fill="#000000">HoldingDataBean:setPurchaseDate</text>
</g>
<!-- 140178110695016 -->
<g id="node22" class="node">
<title>140178110695016</title>
<polygon fill="none" stroke="#000000" points="260.5,-1188 137.5,-1188 137.5,-1152 260.5,-1152 260.5,-1188"/>
<text text-anchor="middle" x="199" y="-1166.3" font-family="Times,serif" font-size="14.00" fill="#000000">Log:doActionTrace</text>
</g>
<!-- 140178110696752 -->
<g id="node23" class="node">
<title>140178110696752</title>
<polygon fill="none" stroke="#000000" points="242,-1242 156,-1242 156,-1206 242,-1206 242,-1242"/>
<text text-anchor="middle" x="199" y="-1220.3" font-family="Times,serif" font-size="14.00" fill="#000000">Log:doTrace</text>
</g>
<!-- 140178123183664 -->
<g id="node24" class="node">
<title>140178123183664</title>
<polygon fill="none" stroke="#000000" points="262,-1296 136,-1296 136,-1260 262,-1260 262,-1296"/>
<text text-anchor="middle" x="199" y="-1274.3" font-family="Times,serif" font-size="14.00" fill="#000000">Log:getActionTrace</text>
</g>
<!-- 140178110695184 -->
<g id="node25" class="node">
<title>140178110695184</title>
<polygon fill="none" stroke="#000000" points="243.5,-1350 154.5,-1350 154.5,-1314 243.5,-1314 243.5,-1350"/>
<text text-anchor="middle" x="199" y="-1328.3" font-family="Times,serif" font-size="14.00" fill="#000000">Log:getTrace</text>
</g>
<!-- 140178123182768 -->
<g id="node26" class="node">
<title>140178123182768</title>
<polygon fill="none" stroke="#000000" points="268,-1404 130,-1404 130,-1368 268,-1368 268,-1404"/>
<text text-anchor="middle" x="199" y="-1382.3" font-family="Times,serif" font-size="14.00" fill="#000000">MDBStats:addTiming</text>
</g>
<!-- 140178109644752 -->
<g id="node27" class="node">
<title>140178109644752</title>
<polygon fill="none" stroke="#000000" points="331,-1458 67,-1458 67,-1422 331,-1422 331,-1458"/>
<text text-anchor="middle" x="199" y="-1436.3" font-family="Times,serif" font-size="14.00" fill="#000000">MarketSummaryWebSocket:onJMSMessage</text>
</g>
<!-- 140178110694848 -->
<g id="node28" class="node">
<title>140178110694848</title>
<polygon fill="none" stroke="#000000" points="347,-1512 51,-1512 51,-1476 347,-1476 347,-1512"/>
<text text-anchor="middle" x="199" y="-1490.3" font-family="Times,serif" font-size="14.00" fill="#000000">OrderDataBean:OrderDataBean [overloaded_#001]</text>
</g>
<!-- 140178123183272 -->
<g id="node29" class="node">
<title>140178123183272</title>
<polygon fill="none" stroke="#000000" points="347,-1566 51,-1566 51,-1530 347,-1530 347,-1566"/>
<text text-anchor="middle" x="199" y="-1544.3" font-family="Times,serif" font-size="14.00" fill="#000000">OrderDataBean:OrderDataBean [overloaded_#003]</text>
</g>
<!-- 140178110694736 -->
<g id="node30" class="node">
<title>140178110694736</title>
<polygon fill="none" stroke="#000000" points="282.5,-1620 115.5,-1620 115.5,-1584 282.5,-1584 282.5,-1620"/>
<text text-anchor="middle" x="199" y="-1598.3" font-family="Times,serif" font-size="14.00" fill="#000000">OrderDataBean:getAccount</text>
</g>
<!-- 140178123182824 -->
<g id="node31" class="node">
<title>140178123182824</title>
<polygon fill="none" stroke="#000000" points="305,-1674 93,-1674 93,-1638 305,-1638 305,-1674"/>
<text text-anchor="middle" x="199" y="-1652.3" font-family="Times,serif" font-size="14.00" fill="#000000">OrderDataBean:getCompletionDate</text>
</g>
<!-- 140178110696136 -->
<g id="node32" class="node">
<title>140178110696136</title>
<polygon fill="none" stroke="#000000" points="282,-1728 116,-1728 116,-1692 282,-1692 282,-1728"/>
<text text-anchor="middle" x="199" y="-1706.3" font-family="Times,serif" font-size="14.00" fill="#000000">OrderDataBean:getHolding</text>
</g>
<!-- 140178123182432 -->
<g id="node33" class="node">
<title>140178123182432</title>
<polygon fill="none" stroke="#000000" points="287,-1782 111,-1782 111,-1746 287,-1746 287,-1782"/>
<text text-anchor="middle" x="199" y="-1760.3" font-family="Times,serif" font-size="14.00" fill="#000000">OrderDataBean:getOpenDate</text>
</g>
<!-- 140178110697200 -->
<g id="node34" class="node">
<title>140178110697200</title>
<polygon fill="none" stroke="#000000" points="285.5,-1836 112.5,-1836 112.5,-1800 285.5,-1800 285.5,-1836"/>
<text text-anchor="middle" x="199" y="-1814.3" font-family="Times,serif" font-size="14.00" fill="#000000">OrderDataBean:getOrderFee</text>
</g>
<!-- 140178123183328 -->
<g id="node35" class="node">
<title>140178123183328</title>
<polygon fill="none" stroke="#000000" points="282.5,-1890 115.5,-1890 115.5,-1854 282.5,-1854 282.5,-1890"/>
<text text-anchor="middle" x="199" y="-1868.3" font-family="Times,serif" font-size="14.00" fill="#000000">OrderDataBean:getOrderID</text>
</g>
<!-- 140178123183384 -->
<g id="node36" class="node">
<title>140178123183384</title>
<polygon fill="none" stroke="#000000" points="292,-1944 106,-1944 106,-1908 292,-1908 292,-1944"/>
<text text-anchor="middle" x="199" y="-1922.3" font-family="Times,serif" font-size="14.00" fill="#000000">OrderDataBean:getOrderStatus</text>
</g>
<!-- 140178110694568 -->
<g id="node37" class="node">
<title>140178110694568</title>
<polygon fill="none" stroke="#000000" points="289.5,-1998 108.5,-1998 108.5,-1962 289.5,-1962 289.5,-1998"/>
<text text-anchor="middle" x="199" y="-1976.3" font-family="Times,serif" font-size="14.00" fill="#000000">OrderDataBean:getOrderType</text>
</g>
<!-- 140178110694512 -->
<g id="node38" class="node">
<title>140178110694512</title>
<polygon fill="none" stroke="#000000" points="273.5,-2052 124.5,-2052 124.5,-2016 273.5,-2016 273.5,-2052"/>
<text text-anchor="middle" x="199" y="-2030.3" font-family="Times,serif" font-size="14.00" fill="#000000">OrderDataBean:getPrice</text>
</g>
<!-- 140178110694960 -->
<g id="node39" class="node">
<title>140178110694960</title>
<polygon fill="none" stroke="#000000" points="283.5,-2106 114.5,-2106 114.5,-2070 283.5,-2070 283.5,-2106"/>
<text text-anchor="middle" x="199" y="-2084.3" font-family="Times,serif" font-size="14.00" fill="#000000">OrderDataBean:getQuantity</text>
</g>
<!-- 140178110694400 -->
<g id="node40" class="node">
<title>140178110694400</title>
<polygon fill="none" stroke="#000000" points="276.5,-2160 121.5,-2160 121.5,-2124 276.5,-2124 276.5,-2160"/>
<text text-anchor="middle" x="199" y="-2138.3" font-family="Times,serif" font-size="14.00" fill="#000000">OrderDataBean:getQuote</text>
</g>
<!-- 140178110694792 -->
<g id="node41" class="node">
<title>140178110694792</title>
<polygon fill="none" stroke="#000000" points="281,-2214 117,-2214 117,-2178 281,-2178 281,-2214"/>
<text text-anchor="middle" x="199" y="-2192.3" font-family="Times,serif" font-size="14.00" fill="#000000">OrderDataBean:getSymbol</text>
</g>
<!-- 140178110696976 -->
<g id="node42" class="node">
<title>140178110696976</title>
<polygon fill="none" stroke="#000000" points="278,-2268 120,-2268 120,-2232 278,-2232 278,-2268"/>
<text text-anchor="middle" x="199" y="-2246.3" font-family="Times,serif" font-size="14.00" fill="#000000">OrderDataBean:hashCode</text>
</g>
<!-- 140178110695688 -->
<g id="node43" class="node">
<title>140178110695688</title>
<polygon fill="none" stroke="#000000" points="267.5,-2322 130.5,-2322 130.5,-2286 267.5,-2286 267.5,-2322"/>
<text text-anchor="middle" x="199" y="-2300.3" font-family="Times,serif" font-size="14.00" fill="#000000">OrderDataBean:isBuy</text>
</g>
<!-- 140178110696864 -->
<g id="node44" class="node">
<title>140178110696864</title>
<polygon fill="none" stroke="#000000" points="286,-2376 112,-2376 112,-2340 286,-2340 286,-2376"/>
<text text-anchor="middle" x="199" y="-2354.3" font-family="Times,serif" font-size="14.00" fill="#000000">OrderDataBean:isCompleted</text>
</g>
<!-- 140178110696248 -->
<g id="node45" class="node">
<title>140178110696248</title>
<polygon fill="none" stroke="#000000" points="266.5,-2430 131.5,-2430 131.5,-2394 266.5,-2394 266.5,-2430"/>
<text text-anchor="middle" x="199" y="-2408.3" font-family="Times,serif" font-size="14.00" fill="#000000">OrderDataBean:isSell</text>
</g>
<!-- 140178110694232 -->
<g id="node46" class="node">
<title>140178110694232</title>
<polygon fill="none" stroke="#000000" points="282,-2484 116,-2484 116,-2448 282,-2448 282,-2484"/>
<text text-anchor="middle" x="199" y="-2462.3" font-family="Times,serif" font-size="14.00" fill="#000000">OrderDataBean:setAccount</text>
</g>
<!-- 140178109644136 -->
<g id="node47" class="node">
<title>140178109644136</title>
<polygon fill="none" stroke="#000000" points="304,-2538 94,-2538 94,-2502 304,-2502 304,-2538"/>
<text text-anchor="middle" x="199" y="-2516.3" font-family="Times,serif" font-size="14.00" fill="#000000">OrderDataBean:setCompletionDate</text>
</g>
<!-- 140178110695352 -->
<g id="node48" class="node">
<title>140178110695352</title>
<polygon fill="none" stroke="#000000" points="281,-2592 117,-2592 117,-2556 281,-2556 281,-2592"/>
<text text-anchor="middle" x="199" y="-2570.3" font-family="Times,serif" font-size="14.00" fill="#000000">OrderDataBean:setHolding</text>
</g>
<!-- 140178123182152 -->
<g id="node49" class="node">
<title>140178123182152</title>
<polygon fill="none" stroke="#000000" points="286.5,-2646 111.5,-2646 111.5,-2610 286.5,-2610 286.5,-2646"/>
<text text-anchor="middle" x="199" y="-2624.3" font-family="Times,serif" font-size="14.00" fill="#000000">OrderDataBean:setOpenDate</text>
</g>
<!-- 140178123183440 -->
<g id="node50" class="node">
<title>140178123183440</title>
<polygon fill="none" stroke="#000000" points="284.5,-2700 113.5,-2700 113.5,-2664 284.5,-2664 284.5,-2700"/>
<text text-anchor="middle" x="199" y="-2678.3" font-family="Times,serif" font-size="14.00" fill="#000000">OrderDataBean:setOrderFee</text>
</g>
<!-- 140178123182488 -->
<g id="node51" class="node">
<title>140178123182488</title>
<polygon fill="none" stroke="#000000" points="291.5,-2754 106.5,-2754 106.5,-2718 291.5,-2718 291.5,-2754"/>
<text text-anchor="middle" x="199" y="-2732.3" font-family="Times,serif" font-size="14.00" fill="#000000">OrderDataBean:setOrderStatus</text>
</g>
<!-- 140178110697312 -->
<g id="node52" class="node">
<title>140178110697312</title>
<polygon fill="none" stroke="#000000" points="288.5,-2808 109.5,-2808 109.5,-2772 288.5,-2772 288.5,-2808"/>
<text text-anchor="middle" x="199" y="-2786.3" font-family="Times,serif" font-size="14.00" fill="#000000">OrderDataBean:setOrderType</text>
</g>
<!-- 140178123182600 -->
<g id="node53" class="node">
<title>140178123182600</title>
<polygon fill="none" stroke="#000000" points="273,-2862 125,-2862 125,-2826 273,-2826 273,-2862"/>
<text text-anchor="middle" x="199" y="-2840.3" font-family="Times,serif" font-size="14.00" fill="#000000">OrderDataBean:setPrice</text>
</g>
<!-- 140178123183552 -->
<g id="node54" class="node">
<title>140178123183552</title>
<polygon fill="none" stroke="#000000" points="282.5,-2916 115.5,-2916 115.5,-2880 282.5,-2880 282.5,-2916"/>
<text text-anchor="middle" x="199" y="-2894.3" font-family="Times,serif" font-size="14.00" fill="#000000">OrderDataBean:setQuantity</text>
</g>
<!-- 140178110694904 -->
<g id="node55" class="node">
<title>140178110694904</title>
<polygon fill="none" stroke="#000000" points="275.5,-2970 122.5,-2970 122.5,-2934 275.5,-2934 275.5,-2970"/>
<text text-anchor="middle" x="199" y="-2948.3" font-family="Times,serif" font-size="14.00" fill="#000000">OrderDataBean:setQuote</text>
</g>
<!-- 140178109644640 -->
<g id="node56" class="node">
<title>140178109644640</title>
<polygon fill="none" stroke="#000000" points="606.5,-450 449.5,-450 449.5,-414 606.5,-414 606.5,-450"/>
<text text-anchor="middle" x="528" y="-428.3" font-family="Times,serif" font-size="14.00" fill="#000000">OrdersAlertFilter:doFilter</text>
</g>
<!-- 140178109644640&#45;&gt;140178123184280 -->
<g id="edge3" class="edge">
<title>140178109644640&#45;&gt;140178123184280</title>
<path fill="none" stroke="#000000" d="M606.96,-445.5791C621.3967,-448.0619 635.8127,-450.541 648.2547,-452.6807"/>
<polygon fill="#000000" stroke="#000000" points="647.7503,-456.1453 658.1989,-454.3909 648.9368,-449.2466 647.7503,-456.1453"/>
</g>
<!-- 140178110693616 -->
<g id="node57" class="node">
<title>140178110693616</title>
<polygon fill="none" stroke="#000000" points="348.5,-3024 49.5,-3024 49.5,-2988 348.5,-2988 348.5,-3024"/>
<text text-anchor="middle" x="199" y="-3002.3" font-family="Times,serif" font-size="14.00" fill="#000000">QuoteDataBean:QuoteDataBean [overloaded_#001]</text>
</g>
<!-- 140178123183888 -->
<g id="node58" class="node">
<title>140178123183888</title>
<polygon fill="none" stroke="#000000" points="303.5,-3078 94.5,-3078 94.5,-3042 303.5,-3042 303.5,-3078"/>
<text text-anchor="middle" x="199" y="-3056.3" font-family="Times,serif" font-size="14.00" fill="#000000">QuoteDataBean:getCompanyName</text>
</g>
<!-- 140178123182320 -->
<g id="node59" class="node">
<title>140178123182320</title>
<polygon fill="none" stroke="#000000" points="274,-3132 124,-3132 124,-3096 274,-3096 274,-3132"/>
<text text-anchor="middle" x="199" y="-3110.3" font-family="Times,serif" font-size="14.00" fill="#000000">QuoteDataBean:getHigh</text>
</g>
<!-- 140178110694456 -->
<g id="node60" class="node">
<title>140178110694456</title>
<polygon fill="none" stroke="#000000" points="273,-3186 125,-3186 125,-3150 273,-3150 273,-3186"/>
<text text-anchor="middle" x="199" y="-3164.3" font-family="Times,serif" font-size="14.00" fill="#000000">QuoteDataBean:getLow</text>
</g>
<!-- 140178110695128 -->
<g id="node61" class="node">
<title>140178110695128</title>
<polygon fill="none" stroke="#000000" points="275,-3240 123,-3240 123,-3204 275,-3204 275,-3240"/>
<text text-anchor="middle" x="199" y="-3218.3" font-family="Times,serif" font-size="14.00" fill="#000000">QuoteDataBean:getOpen</text>
</g>
<!-- 140178110696360 -->
<g id="node62" class="node">
<title>140178110696360</title>
<polygon fill="none" stroke="#000000" points="274.5,-3294 123.5,-3294 123.5,-3258 274.5,-3258 274.5,-3294"/>
<text text-anchor="middle" x="199" y="-3272.3" font-family="Times,serif" font-size="14.00" fill="#000000">QuoteDataBean:getPrice</text>
</g>
<!-- 140178123183832 -->
<g id="node63" class="node">
<title>140178123183832</title>
<polygon fill="none" stroke="#000000" points="282,-3348 116,-3348 116,-3312 282,-3312 282,-3348"/>
<text text-anchor="middle" x="199" y="-3326.3" font-family="Times,serif" font-size="14.00" fill="#000000">QuoteDataBean:getSymbol</text>
</g>
<!-- 140178110696472 -->
<g id="node64" class="node">
<title>140178110696472</title>
<polygon fill="none" stroke="#000000" points="282.5,-3402 115.5,-3402 115.5,-3366 282.5,-3366 282.5,-3402"/>
<text text-anchor="middle" x="199" y="-3380.3" font-family="Times,serif" font-size="14.00" fill="#000000">QuoteDataBean:getVolume</text>
</g>
<!-- 140178110696696 -->
<g id="node65" class="node">
<title>140178110696696</title>
<polygon fill="none" stroke="#000000" points="279,-3456 119,-3456 119,-3420 279,-3420 279,-3456"/>
<text text-anchor="middle" x="199" y="-3434.3" font-family="Times,serif" font-size="14.00" fill="#000000">QuoteDataBean:hashCode</text>
</g>
<!-- 140178110693672 -->
<g id="node66" class="node">
<title>140178110693672</title>
<polygon fill="none" stroke="#000000" points="280.5,-3510 117.5,-3510 117.5,-3474 280.5,-3474 280.5,-3510"/>
<text text-anchor="middle" x="199" y="-3488.3" font-family="Times,serif" font-size="14.00" fill="#000000">QuoteDataBean:setChange</text>
</g>
<!-- 140178110697256 -->
<g id="node67" class="node">
<title>140178110697256</title>
<polygon fill="none" stroke="#000000" points="273.5,-3564 124.5,-3564 124.5,-3528 273.5,-3528 273.5,-3564"/>
<text text-anchor="middle" x="199" y="-3542.3" font-family="Times,serif" font-size="14.00" fill="#000000">QuoteDataBean:setPrice</text>
</g>
<!-- 140178110696920 -->
<g id="node68" class="node">
<title>140178110696920</title>
<polygon fill="none" stroke="#000000" points="282,-3618 116,-3618 116,-3582 282,-3582 282,-3618"/>
<text text-anchor="middle" x="199" y="-3596.3" font-family="Times,serif" font-size="14.00" fill="#000000">QuoteDataBean:setVolume</text>
</g>
<!-- 140178123182376 -->
<g id="node69" class="node">
<title>140178123182376</title>
<polygon fill="none" stroke="#000000" points="320,-3672 78,-3672 78,-3636 320,-3636 320,-3672"/>
<text text-anchor="middle" x="199" y="-3650.3" font-family="Times,serif" font-size="14.00" fill="#000000">RecentStockChangeList:addStockChange</text>
</g>
<!-- 140178110695632 -->
<g id="node70" class="node">
<title>140178110695632</title>
<polygon fill="none" stroke="#000000" points="333.5,-3726 64.5,-3726 64.5,-3690 333.5,-3690 333.5,-3726"/>
<text text-anchor="middle" x="199" y="-3704.3" font-family="Times,serif" font-size="14.00" fill="#000000">RecentStockChangeList:stockChangesInJSON</text>
</g>
<!-- 140178110696416 -->
<g id="node71" class="node">
<title>140178110696416</title>
<polygon fill="none" stroke="#000000" points="802,-477 748,-477 748,-441 802,-441 802,-477"/>
<text text-anchor="middle" x="775" y="-455.3" font-family="Times,serif" font-size="14.00" fill="#000000">Root</text>
</g>
<!-- 140178123184112 -->
<g id="node116" class="node">
<title>140178123184112</title>
<ellipse fill="#ffa500" stroke="#000000" cx="865" cy="-459" rx="27" ry="27"/>
</g>
<!-- 140178110696416&#45;&gt;140178123184112 -->
<g id="edge4" class="edge">
<title>140178110696416&#45;&gt;140178123184112</title>
<path fill="none" stroke="#000000" d="M802.003,-459C810.0277,-459 818.9665,-459 827.5309,-459"/>
<polygon fill="#000000" stroke="#000000" points="827.7051,-462.5001 837.705,-459 827.705,-455.5001 827.7051,-462.5001"/>
</g>
<!-- 140178123183608 -->
<g id="node72" class="node">
<title>140178123183608</title>
<polygon fill="none" stroke="#000000" points="261.5,-3780 136.5,-3780 136.5,-3744 261.5,-3744 261.5,-3780"/>
<text text-anchor="middle" x="199" y="-3758.3" font-family="Times,serif" font-size="14.00" fill="#000000">TimerStat:getCount</text>
</g>
<!-- 140178110693840 -->
<g id="node73" class="node">
<title>140178110693840</title>
<polygon fill="none" stroke="#000000" points="257.5,-3834 140.5,-3834 140.5,-3798 257.5,-3798 257.5,-3834"/>
<text text-anchor="middle" x="199" y="-3812.3" font-family="Times,serif" font-size="14.00" fill="#000000">TimerStat:getMax</text>
</g>
<!-- 140178110693952 -->
<g id="node74" class="node">
<title>140178110693952</title>
<polygon fill="none" stroke="#000000" points="256.5,-3888 141.5,-3888 141.5,-3852 256.5,-3852 256.5,-3888"/>
<text text-anchor="middle" x="199" y="-3866.3" font-family="Times,serif" font-size="14.00" fill="#000000">TimerStat:getMin</text>
</g>
<!-- 140178110694120 -->
<g id="node75" class="node">
<title>140178110694120</title>
<polygon fill="none" stroke="#000000" points="273.5,-3942 124.5,-3942 124.5,-3906 273.5,-3906 273.5,-3942"/>
<text text-anchor="middle" x="199" y="-3920.3" font-family="Times,serif" font-size="14.00" fill="#000000">TimerStat:getTotalTime</text>
</g>
<!-- 140178109644192 -->
<g id="node76" class="node">
<title>140178109644192</title>
<polygon fill="none" stroke="#000000" points="260.5,-3996 137.5,-3996 137.5,-3960 260.5,-3960 260.5,-3996"/>
<text text-anchor="middle" x="199" y="-3974.3" font-family="Times,serif" font-size="14.00" fill="#000000">TimerStat:setCount</text>
</g>
<!-- 140178123183720 -->
<g id="node77" class="node">
<title>140178123183720</title>
<polygon fill="none" stroke="#000000" points="255.5,-4050 142.5,-4050 142.5,-4014 255.5,-4014 255.5,-4050"/>
<text text-anchor="middle" x="199" y="-4028.3" font-family="Times,serif" font-size="14.00" fill="#000000">TimerStat:setMin</text>
</g>
<!-- 140178123182712 -->
<g id="node78" class="node">
<title>140178123182712</title>
<polygon fill="none" stroke="#000000" points="273,-4104 125,-4104 125,-4068 273,-4068 273,-4104"/>
<text text-anchor="middle" x="199" y="-4082.3" font-family="Times,serif" font-size="14.00" fill="#000000">TimerStat:setTotalTime</text>
</g>
<!-- 140178109644528 -->
<g id="node79" class="node">
<title>140178109644528</title>
<polygon fill="none" stroke="#000000" points="330.5,-4158 67.5,-4158 67.5,-4122 330.5,-4122 330.5,-4158"/>
<text text-anchor="middle" x="199" y="-4136.3" font-family="Times,serif" font-size="14.00" fill="#000000">TradeAction:TradeAction [overloaded_#001]</text>
</g>
<!-- 140178110694288 -->
<g id="node80" class="node">
<title>140178110694288</title>
<polygon fill="none" stroke="#000000" points="275,-4212 123,-4212 123,-4176 275,-4176 275,-4212"/>
<text text-anchor="middle" x="199" y="-4190.3" font-family="Times,serif" font-size="14.00" fill="#000000">TradeAction:createTrade</text>
</g>
<!-- 140178110696080 -->
<g id="node81" class="node">
<title>140178110696080</title>
<polygon fill="none" stroke="#000000" points="288.5,-4266 109.5,-4266 109.5,-4230 288.5,-4230 288.5,-4266"/>
<text text-anchor="middle" x="199" y="-4244.3" font-family="Times,serif" font-size="14.00" fill="#000000">TradeAction:getClosedOrders</text>
</g>
<!-- 140178123183216 -->
<g id="node82" class="node">
<title>140178123183216</title>
<polygon fill="none" stroke="#000000" points="276.5,-4320 121.5,-4320 121.5,-4284 276.5,-4284 276.5,-4320"/>
<text text-anchor="middle" x="199" y="-4298.3" font-family="Times,serif" font-size="14.00" fill="#000000">TradeAction:getHoldings</text>
</g>
<!-- 140178110696528 -->
<g id="node83" class="node">
<title>140178110696528</title>
<polygon fill="none" stroke="#000000" points="268,-4374 130,-4374 130,-4338 268,-4338 268,-4374"/>
<text text-anchor="middle" x="199" y="-4352.3" font-family="Times,serif" font-size="14.00" fill="#000000">TradeAction:getQuote</text>
</g>
<!-- 140178123182208 -->
<g id="node84" class="node">
<title>140178123182208</title>
<polygon fill="none" stroke="#000000" points="287.5,-4428 110.5,-4428 110.5,-4392 287.5,-4392 287.5,-4428"/>
<text text-anchor="middle" x="199" y="-4406.3" font-family="Times,serif" font-size="14.00" fill="#000000">TradeAction:orderCompleted</text>
</g>
<!-- 140178110695912 -->
<g id="node85" class="node">
<title>140178110695912</title>
<polygon fill="none" stroke="#000000" points="306,-4482 92,-4482 92,-4446 306,-4446 306,-4482"/>
<text text-anchor="middle" x="199" y="-4460.3" font-family="Times,serif" font-size="14.00" fill="#000000">TradeAction:sell [overloaded_#004]</text>
</g>
<!-- 140178123182880 -->
<g id="node86" class="node">
<title>140178123182880</title>
<polygon fill="none" stroke="#000000" points="314,-4536 84,-4536 84,-4500 314,-4500 314,-4536"/>
<text text-anchor="middle" x="199" y="-4514.3" font-family="Times,serif" font-size="14.00" fill="#000000">TradeAction:updateQuotePriceVolume</text>
</g>
<!-- 140178123183160 -->
<g id="node87" class="node">
<title>140178123183160</title>
<polygon fill="none" stroke="#000000" points="272,-4590 126,-4590 126,-4554 272,-4554 272,-4590"/>
<text text-anchor="middle" x="199" y="-4568.3" font-family="Times,serif" font-size="14.00" fill="#000000">TradeAppServlet:doGet</text>
</g>
<!-- 140178110693784 -->
<g id="node88" class="node">
<title>140178110693784</title>
<polygon fill="none" stroke="#000000" points="291,-4644 107,-4644 107,-4608 291,-4608 291,-4644"/>
<text text-anchor="middle" x="199" y="-4622.3" font-family="Times,serif" font-size="14.00" fill="#000000">TradeAppServlet:performTask</text>
</g>
<!-- 140178110694624 -->
<g id="node89" class="node">
<title>140178110694624</title>
<polygon fill="none" stroke="#000000" points="285.5,-4698 112.5,-4698 112.5,-4662 285.5,-4662 285.5,-4698"/>
<text text-anchor="middle" x="199" y="-4676.3" font-family="Times,serif" font-size="14.00" fill="#000000">TradeConfig:getActionTrace</text>
</g>
<!-- 140178110695800 -->
<g id="node90" class="node">
<title>140178110695800</title>
<polygon fill="none" stroke="#000000" points="305,-4752 93,-4752 93,-4716 305,-4716 305,-4752"/>
<text text-anchor="middle" x="199" y="-4730.3" font-family="Times,serif" font-size="14.00" fill="#000000">TradeConfig:getDisplayOrderAlerts</text>
</g>
<!-- 140178110693728 -->
<g id="node91" class="node">
<title>140178110693728</title>
<polygon fill="none" stroke="#000000" points="277.5,-4806 120.5,-4806 120.5,-4770 277.5,-4770 277.5,-4806"/>
<text text-anchor="middle" x="199" y="-4784.3" font-family="Times,serif" font-size="14.00" fill="#000000">TradeConfig:getLongRun</text>
</g>
<!-- 140178110697032 -->
<g id="node92" class="node">
<title>140178110697032</title>
<polygon fill="none" stroke="#000000" points="298,-4860 100,-4860 100,-4824 298,-4824 298,-4860"/>
<text text-anchor="middle" x="199" y="-4838.3" font-family="Times,serif" font-size="14.00" fill="#000000">TradeConfig:getMAX_QUOTES</text>
</g>
<!-- 140178123182264 -->
<g id="node93" class="node">
<title>140178123182264</title>
<polygon fill="none" stroke="#000000" points="277.5,-4914 120.5,-4914 120.5,-4878 277.5,-4878 277.5,-4914"/>
<text text-anchor="middle" x="199" y="-4892.3" font-family="Times,serif" font-size="14.00" fill="#000000">TradeConfig:getOrderFee</text>
</g>
<!-- 140178110696808 -->
<g id="node94" class="node">
<title>140178110696808</title>
<polygon fill="none" stroke="#000000" points="265,-4968 133,-4968 133,-4932 265,-4932 265,-4968"/>
<text text-anchor="middle" x="199" y="-4946.3" font-family="Times,serif" font-size="14.00" fill="#000000">TradeConfig:getPage</text>
</g>
<!-- 140178109644696 -->
<g id="node95" class="node">
<title>140178109644696</title>
<polygon fill="none" stroke="#000000" points="322,-5022 76,-5022 76,-4986 322,-4986 322,-5022"/>
<text text-anchor="middle" x="199" y="-5000.3" font-family="Times,serif" font-size="14.00" fill="#000000">TradeConfig:getPercentSentToWebsocket</text>
</g>
<!-- 140178110695296 -->
<g id="node96" class="node">
<title>140178110695296</title>
<polygon fill="none" stroke="#000000" points="323,-5076 75,-5076 75,-5040 323,-5040 323,-5076"/>
<text text-anchor="middle" x="199" y="-5054.3" font-family="Times,serif" font-size="14.00" fill="#000000">TradeConfig:getPublishQuotePriceChange</text>
</g>
<!-- 140178110696304 -->
<g id="node97" class="node">
<title>140178110696304</title>
<polygon fill="none" stroke="#000000" points="327,-5130 71,-5130 71,-5094 327,-5094 327,-5130"/>
<text text-anchor="middle" x="199" y="-5108.3" font-family="Times,serif" font-size="14.00" fill="#000000">TradeConfig:getRandomPriceChangeFactor</text>
</g>
<!-- 140178110694344 -->
<g id="node98" class="node">
<title>140178110694344</title>
<polygon fill="none" stroke="#000000" points="267.5,-5184 130.5,-5184 130.5,-5148 267.5,-5148 267.5,-5184"/>
<text text-anchor="middle" x="199" y="-5162.3" font-family="Times,serif" font-size="14.00" fill="#000000">TradeConfig:getTrace</text>
</g>
<!-- 140178123182992 -->
<g id="node99" class="node">
<title>140178123182992</title>
<polygon fill="none" stroke="#000000" points="304.5,-5238 93.5,-5238 93.5,-5202 304.5,-5202 304.5,-5238"/>
<text text-anchor="middle" x="199" y="-5216.3" font-family="Times,serif" font-size="14.00" fill="#000000">TradeConfig:getUpdateQuotePrices</text>
</g>
<!-- 140178110697088 -->
<g id="node100" class="node">
<title>140178110697088</title>
<polygon fill="none" stroke="#000000" points="264.5,-5292 133.5,-5292 133.5,-5256 264.5,-5256 264.5,-5292"/>
<text text-anchor="middle" x="199" y="-5270.3" font-family="Times,serif" font-size="14.00" fill="#000000">TradeConfig:random</text>
</g>
<!-- 140178110695072 -->
<g id="node101" class="node">
<title>140178110695072</title>
<polygon fill="none" stroke="#000000" points="266.5,-5346 131.5,-5346 131.5,-5310 266.5,-5310 266.5,-5346"/>
<text text-anchor="middle" x="199" y="-5324.3" font-family="Times,serif" font-size="14.00" fill="#000000">TradeConfig:rndFloat</text>
</g>
<!-- 140178110694176 -->
<g id="node102" class="node">
<title>140178110694176</title>
<polygon fill="none" stroke="#000000" points="309.5,-5400 88.5,-5400 88.5,-5364 309.5,-5364 309.5,-5400"/>
<text text-anchor="middle" x="199" y="-5378.3" font-family="Times,serif" font-size="14.00" fill="#000000">TradeConfig:useRemoteEJBInterface</text>
</g>
<!-- 140178123183048 -->
<g id="node103" class="node">
<title>140178123183048</title>
<polygon fill="none" stroke="#000000" points="296,-5454 102,-5454 102,-5418 296,-5418 296,-5454"/>
<text text-anchor="middle" x="199" y="-5432.3" font-family="Times,serif" font-size="14.00" fill="#000000">TradeSLSBBean:completeOrder</text>
</g>
<!-- 140178123183104 -->
<g id="node104" class="node">
<title>140178123183104</title>
<polygon fill="none" stroke="#000000" points="287,-5508 111,-5508 111,-5472 287,-5472 287,-5508"/>
<text text-anchor="middle" x="199" y="-5486.3" font-family="Times,serif" font-size="14.00" fill="#000000">TradeSLSBBean:createOrder</text>
</g>
<!-- 140178110694680 -->
<g id="node105" class="node">
<title>140178110694680</title>
<polygon fill="none" stroke="#000000" points="300.5,-5562 97.5,-5562 97.5,-5526 300.5,-5526 300.5,-5562"/>
<text text-anchor="middle" x="199" y="-5540.3" font-family="Times,serif" font-size="14.00" fill="#000000">TradeSLSBBean:getClosedOrders</text>
</g>
<!-- 140178110695464 -->
<g id="node106" class="node">
<title>140178110695464</title>
<polygon fill="none" stroke="#000000" points="288,-5616 110,-5616 110,-5580 288,-5580 288,-5616"/>
<text text-anchor="middle" x="199" y="-5594.3" font-family="Times,serif" font-size="14.00" fill="#000000">TradeSLSBBean:getHoldings</text>
</g>
<!-- 140178110697424 -->
<g id="node107" class="node">
<title>140178110697424</title>
<polygon fill="none" stroke="#000000" points="279.5,-5670 118.5,-5670 118.5,-5634 279.5,-5634 279.5,-5670"/>
<text text-anchor="middle" x="199" y="-5648.3" font-family="Times,serif" font-size="14.00" fill="#000000">TradeSLSBBean:getQuote</text>
</g>
<!-- 140178110697368 -->
<g id="node108" class="node">
<title>140178110697368</title>
<polygon fill="none" stroke="#000000" points="326,-5724 72,-5724 72,-5688 326,-5688 326,-5724"/>
<text text-anchor="middle" x="199" y="-5702.3" font-family="Times,serif" font-size="14.00" fill="#000000">TradeSLSBBean:publishQuotePriceChange</text>
</g>
<!-- 140178110695240 -->
<g id="node109" class="node">
<title>140178110695240</title>
<polygon fill="none" stroke="#000000" points="264.5,-5778 133.5,-5778 133.5,-5742 264.5,-5742 264.5,-5778"/>
<text text-anchor="middle" x="199" y="-5756.3" font-family="Times,serif" font-size="14.00" fill="#000000">TradeSLSBBean:sell</text>
</g>
<!-- 140178110696024 -->
<g id="node110" class="node">
<title>140178110696024</title>
<polygon fill="none" stroke="#000000" points="325.5,-5832 72.5,-5832 72.5,-5796 325.5,-5796 325.5,-5832"/>
<text text-anchor="middle" x="199" y="-5810.3" font-family="Times,serif" font-size="14.00" fill="#000000">TradeSLSBBean:updateQuotePriceVolume</text>
</g>
<!-- 140178110694008 -->
<g id="node111" class="node">
<title>140178110694008</title>
<polygon fill="none" stroke="#000000" points="293,-5886 105,-5886 105,-5850 293,-5850 293,-5886"/>
<text text-anchor="middle" x="199" y="-5864.3" font-family="Times,serif" font-size="14.00" fill="#000000">TradeServletAction:doPortfolio</text>
</g>
<!-- 140178110693560 -->
<g id="node112" class="node">
<title>140178110693560</title>
<polygon fill="none" stroke="#000000" points="279.5,-5940 118.5,-5940 118.5,-5904 279.5,-5904 279.5,-5940"/>
<text text-anchor="middle" x="199" y="-5918.3" font-family="Times,serif" font-size="14.00" fill="#000000">TradeServletAction:doSell</text>
</g>
<!-- 140178123182936 -->
<g id="node113" class="node">
<title>140178123182936</title>
<polygon fill="none" stroke="#000000" points="306,-5994 92,-5994 92,-5958 306,-5958 306,-5994"/>
<text text-anchor="middle" x="199" y="-5972.3" font-family="Times,serif" font-size="14.00" fill="#000000">TradeServletAction:requestDispatch</text>
</g>
<!-- 140178123183944 -->
<g id="node114" class="node">
<title>140178123183944</title>
<ellipse fill="#00ff00" stroke="#000000" cx="199" cy="-459" rx="27" ry="27"/>
<text text-anchor="middle" x="199" y="-455.3" font-family="Times,serif" font-size="14.00" fill="#000000">1</text>
</g>
<!-- 140178123183944&#45;&gt;140178110695408 -->
<g id="edge5" class="edge">
<title>140178123183944&#45;&gt;140178110695408</title>
<path fill="none" stroke="#000000" d="M225.9235,-461.2095C268.7082,-464.7207 354.4625,-471.7583 423.7064,-477.4409"/>
<polygon fill="#000000" stroke="#000000" points="423.543,-480.9392 433.7958,-478.269 424.1156,-473.9627 423.543,-480.9392"/>
</g>
<!-- 140178123183944&#45;&gt;140178109644640 -->
<g id="edge6" class="edge">
<title>140178123183944&#45;&gt;140178109644640</title>
<path fill="none" stroke="#000000" d="M225.9235,-456.7905C271.9262,-453.0152 367.6054,-445.1631 439.0251,-439.3019"/>
<polygon fill="#000000" stroke="#000000" points="439.6974,-442.7586 449.3776,-438.4523 439.1248,-435.782 439.6974,-442.7586"/>
</g>
<!-- 140178123184280&#45;&gt;140178110696416 -->
<g id="edge1" class="edge">
<title>140178123184280&#45;&gt;140178110696416</title>
<path fill="none" stroke="#000000" d="M712.003,-459C720.0277,-459 728.9665,-459 737.5309,-459"/>
<polygon fill="#000000" stroke="#000000" points="737.7051,-462.5001 747.705,-459 737.705,-455.5001 737.7051,-462.5001"/>
</g>
</g>
</svg>
