<?xml version="1.0" encoding="UTF-8" standalone="no"?>
<!DOCTYPE svg PUBLIC "-//W3C//DTD SVG 1.1//EN"
 "http://www.w3.org/Graphics/SVG/1.1/DTD/svg11.dtd">
<!-- Generated by graphviz version 2.40.1 (20161225.0304)
 -->
<!-- Title: %3 Pages: 1 -->
<svg width="1211pt" height="478pt"
 viewBox="0.00 0.00 1211.00 478.00" xmlns="http://www.w3.org/2000/svg" xmlns:xlink="http://www.w3.org/1999/xlink">
<g id="graph0" class="graph" transform="scale(1 1) rotate(0) translate(4 474)">
<title>%3</title>
<!-- 139748206344680 -->
<g id="node1" class="node">
<title>139748206344680</title>
<polygon fill="none" stroke="#000000" points="188,-81 0,-81 0,-45 188,-45 188,-81"/>
<text text-anchor="middle" x="94" y="-59.3" font-family="Times,serif" font-size="14.00" fill="#000000">DTStreamer3MDB:onMessage</text>
</g>
<!-- 139748201593376 -->
<g id="node23" class="node">
<title>139748201593376</title>
<ellipse fill="none" stroke="#000000" cx="251" cy="-127" rx="27" ry="27"/>
<text text-anchor="middle" x="251" y="-123.3" font-family="Times,serif" font-size="14.00" fill="#000000">intplace_DTStreamer3MDB:onMessage</text>
</g>
<!-- 139748206344680&#45;&gt;139748201593376 -->
<g id="edge1" class="edge">
<title>139748206344680&#45;&gt;139748201593376</title>
<path fill="none" stroke="#000000" d="M138.5699,-81.1686C163.3191,-91.2575 193.6401,-103.6176 216.5548,-112.9586"/>
<polygon fill="#000000" stroke="#000000" points="215.3027,-116.2278 225.8841,-116.7617 217.9451,-109.7457 215.3027,-116.2278"/>
</g>
<!-- 139748206328688 -->
<g id="node2" class="node">
<title>139748206328688</title>
<polygon fill="none" stroke="#000000" points="1203,-460 1046,-460 1046,-424 1203,-424 1203,-460"/>
<text text-anchor="middle" x="1124.5" y="-438.3" font-family="Times,serif" font-size="14.00" fill="#000000">OrdersAlertFilter:doFilter</text>
</g>
<!-- 139748201591808 -->
<g id="node24" class="node">
<title>139748201591808</title>
<ellipse fill="none" stroke="#000000" cx="251" cy="-415" rx="27" ry="27"/>
<text text-anchor="middle" x="251" y="-411.3" font-family="Times,serif" font-size="14.00" fill="#000000">intplace_OrdersAlertFilter:doFilter</text>
</g>
<!-- 139748206328688&#45;&gt;139748201591808 -->
<g id="edge2" class="edge">
<title>139748206328688&#45;&gt;139748201591808</title>
<path fill="none" stroke="#000000" d="M1045.7649,-456.2871C1001.113,-463.1901 944.1109,-470 893,-470 431,-470 431,-470 431,-470 377.984,-470 319.8679,-447.9082 284.4111,-431.727"/>
<polygon fill="#000000" stroke="#000000" points="285.5757,-428.4079 275.0345,-427.3431 282.6109,-434.749 285.5757,-428.4079"/>
</g>
<!-- 139748206342664 -->
<g id="node3" class="node">
<title>139748206342664</title>
<polygon fill="none" stroke="#000000" points="920,-325 866,-325 866,-289 920,-289 920,-325"/>
<text text-anchor="middle" x="893" y="-303.3" font-family="Times,serif" font-size="14.00" fill="#000000">Root</text>
</g>
<!-- 139748206327792 -->
<g id="node38" class="node">
<title>139748206327792</title>
<ellipse fill="#ffa500" stroke="#000000" cx="983" cy="-307" rx="27" ry="27"/>
</g>
<!-- 139748206342664&#45;&gt;139748206327792 -->
<g id="edge3" class="edge">
<title>139748206342664&#45;&gt;139748206327792</title>
<path fill="none" stroke="#000000" d="M920.003,-307C928.0277,-307 936.9665,-307 945.5309,-307"/>
<polygon fill="#000000" stroke="#000000" points="945.7051,-310.5001 955.705,-307 945.705,-303.5001 945.7051,-310.5001"/>
</g>
<!-- 139748206345184 -->
<g id="node4" class="node">
<title>139748206345184</title>
<polygon fill="none" stroke="#000000" points="679.5,-217 554.5,-217 554.5,-181 679.5,-181 679.5,-217"/>
<text text-anchor="middle" x="617" y="-195.3" font-family="Times,serif" font-size="14.00" fill="#000000">TimerStat:getCount</text>
</g>
<!-- 139748205629904 -->
<g id="node32" class="node">
<title>139748205629904</title>
<ellipse fill="none" stroke="#000000" cx="803" cy="-199" rx="27" ry="27"/>
<text text-anchor="middle" x="803" y="-195.3" font-family="Times,serif" font-size="14.00" fill="#000000">splace_in_DTStreamer3MDB:onMessage_0</text>
</g>
<!-- 139748206345184&#45;&gt;139748205629904 -->
<g id="edge4" class="edge">
<title>139748206345184&#45;&gt;139748205629904</title>
<path fill="none" stroke="#000000" d="M679.7118,-199C708.319,-199 741.2185,-199 765.833,-199"/>
<polygon fill="#000000" stroke="#000000" points="765.8382,-202.5001 775.8381,-199 765.8381,-195.5001 765.8382,-202.5001"/>
</g>
<!-- 139748206345576 -->
<g id="node5" class="node">
<title>139748206345576</title>
<polygon fill="none" stroke="#000000" points="723,-433 511,-433 511,-397 723,-397 723,-433"/>
<text text-anchor="middle" x="617" y="-411.3" font-family="Times,serif" font-size="14.00" fill="#000000">TradeConfig:getDisplayOrderAlerts</text>
</g>
<!-- 139748205630912 -->
<g id="node35" class="node">
<title>139748205630912</title>
<ellipse fill="none" stroke="#000000" cx="803" cy="-415" rx="27" ry="27"/>
<text text-anchor="middle" x="803" y="-411.3" font-family="Times,serif" font-size="14.00" fill="#000000">splace_in_OrdersAlertFilter:doFilter_0</text>
</g>
<!-- 139748206345576&#45;&gt;139748205630912 -->
<g id="edge5" class="edge">
<title>139748206345576&#45;&gt;139748205630912</title>
<path fill="none" stroke="#000000" d="M723.0398,-415C738.3365,-415 753.1531,-415 765.7897,-415"/>
<polygon fill="#000000" stroke="#000000" points="765.8545,-418.5001 775.8545,-415 765.8544,-411.5001 765.8545,-418.5001"/>
</g>
<!-- 139748206345856 -->
<g id="node6" class="node">
<title>139748206345856</title>
<polygon fill="none" stroke="#000000" points="716,-73 518,-73 518,-37 716,-37 716,-73"/>
<text text-anchor="middle" x="617" y="-51.3" font-family="Times,serif" font-size="14.00" fill="#000000">TradeConfig:getMAX_QUOTES</text>
</g>
<!-- 139748201295152 -->
<g id="node33" class="node">
<title>139748201295152</title>
<ellipse fill="none" stroke="#000000" cx="803" cy="-55" rx="27" ry="27"/>
<text text-anchor="middle" x="803" y="-51.3" font-family="Times,serif" font-size="14.00" fill="#000000">splace_in_DTStreamer3MDB:onMessage_1</text>
</g>
<!-- 139748206345856&#45;&gt;139748201295152 -->
<g id="edge6" class="edge">
<title>139748206345856&#45;&gt;139748201295152</title>
<path fill="none" stroke="#000000" d="M716.2624,-55C733.9556,-55 751.3451,-55 765.8538,-55"/>
<polygon fill="#000000" stroke="#000000" points="765.8724,-58.5001 775.8724,-55 765.8723,-51.5001 765.8724,-58.5001"/>
</g>
<!-- 139748206345240 -->
<g id="node7" class="node">
<title>139748206345240</title>
<polygon fill="none" stroke="#000000" points="740,-145 494,-145 494,-109 740,-109 740,-145"/>
<text text-anchor="middle" x="617" y="-123.3" font-family="Times,serif" font-size="14.00" fill="#000000">TradeConfig:getPercentSentToWebsocket</text>
</g>
<!-- 139748201293808 -->
<g id="node34" class="node">
<title>139748201293808</title>
<ellipse fill="none" stroke="#000000" cx="803" cy="-127" rx="27" ry="27"/>
<text text-anchor="middle" x="803" y="-123.3" font-family="Times,serif" font-size="14.00" fill="#000000">splace_in_DTStreamer3MDB:onMessage_2</text>
</g>
<!-- 139748206345240&#45;&gt;139748201293808 -->
<g id="edge7" class="edge">
<title>139748206345240&#45;&gt;139748201293808</title>
<path fill="none" stroke="#000000" d="M740.0289,-127C749.1323,-127 757.8058,-127 765.645,-127"/>
<polygon fill="#000000" stroke="#000000" points="765.7798,-130.5001 775.7797,-127 765.7797,-123.5001 765.7798,-130.5001"/>
</g>
<!-- 139748205630016 -->
<g id="node8" class="node">
<title>139748205630016</title>
<polygon fill="none" stroke="#000000" points="920,-433 866,-433 866,-397 920,-397 920,-433"/>
<text text-anchor="middle" x="893" y="-411.3" font-family="Times,serif" font-size="14.00" fill="#000000">hid_1</text>
</g>
<!-- 139748206345128 -->
<g id="node26" class="node">
<title>139748206345128</title>
<ellipse fill="none" stroke="#000000" cx="983" cy="-415" rx="27" ry="27"/>
<text text-anchor="middle" x="983" y="-411.3" font-family="Times,serif" font-size="14.00" fill="#000000">pre_OrdersAlertFilter:doFilter</text>
</g>
<!-- 139748205630016&#45;&gt;139748206345128 -->
<g id="edge8" class="edge">
<title>139748205630016&#45;&gt;139748206345128</title>
<path fill="none" stroke="#000000" d="M920.003,-415C928.0277,-415 936.9665,-415 945.5309,-415"/>
<polygon fill="#000000" stroke="#000000" points="945.7051,-418.5001 955.705,-415 945.705,-411.5001 945.7051,-418.5001"/>
</g>
<!-- 139748201592592 -->
<g id="node9" class="node">
<title>139748201592592</title>
<polygon fill="none" stroke="#000000" points="368,-433 314,-433 314,-397 368,-397 368,-433"/>
<text text-anchor="middle" x="341" y="-411.3" font-family="Times,serif" font-size="14.00" fill="#000000">hid_10</text>
</g>
<!-- 139748205632816 -->
<g id="node29" class="node">
<title>139748205632816</title>
<ellipse fill="none" stroke="#000000" cx="431" cy="-415" rx="27" ry="27"/>
<text text-anchor="middle" x="431" y="-411.3" font-family="Times,serif" font-size="14.00" fill="#000000">pre_TradeConfig:getDisplayOrderAlerts</text>
</g>
<!-- 139748201592592&#45;&gt;139748205632816 -->
<g id="edge9" class="edge">
<title>139748201592592&#45;&gt;139748205632816</title>
<path fill="none" stroke="#000000" d="M368.003,-415C376.0277,-415 384.9665,-415 393.5309,-415"/>
<polygon fill="#000000" stroke="#000000" points="393.7051,-418.5001 403.705,-415 393.705,-411.5001 393.7051,-418.5001"/>
</g>
<!-- 139748201593712 -->
<g id="node10" class="node">
<title>139748201593712</title>
<polygon fill="none" stroke="#000000" points="368,-276 314,-276 314,-240 368,-240 368,-276"/>
<text text-anchor="middle" x="341" y="-254.3" font-family="Times,serif" font-size="14.00" fill="#000000">hid_11</text>
</g>
<!-- 139748205630184 -->
<g id="node36" class="node">
<title>139748205630184</title>
<ellipse fill="none" stroke="#000000" cx="431" cy="-271" rx="27" ry="27"/>
<text text-anchor="middle" x="431" y="-267.3" font-family="Times,serif" font-size="14.00" fill="#000000">splace_in_Root_0</text>
</g>
<!-- 139748201593712&#45;&gt;139748205630184 -->
<g id="edge10" class="edge">
<title>139748201593712&#45;&gt;139748205630184</title>
<path fill="none" stroke="#000000" d="M368.003,-261.9004C376.1903,-263.083 385.3292,-264.4031 394.051,-265.6629"/>
<polygon fill="#000000" stroke="#000000" points="393.6184,-269.1367 404.0161,-267.1023 394.6192,-262.2086 393.6184,-269.1367"/>
</g>
<!-- 139748201594160 -->
<g id="node11" class="node">
<title>139748201594160</title>
<polygon fill="none" stroke="#000000" points="368,-208 314,-208 314,-172 368,-172 368,-208"/>
<text text-anchor="middle" x="341" y="-186.3" font-family="Times,serif" font-size="14.00" fill="#000000">hid_12</text>
</g>
<!-- 139748205629960 -->
<g id="node28" class="node">
<title>139748205629960</title>
<ellipse fill="none" stroke="#000000" cx="431" cy="-199" rx="27" ry="27"/>
<text text-anchor="middle" x="431" y="-195.3" font-family="Times,serif" font-size="14.00" fill="#000000">pre_TimerStat:getCount</text>
</g>
<!-- 139748201594160&#45;&gt;139748205629960 -->
<g id="edge11" class="edge">
<title>139748201594160&#45;&gt;139748205629960</title>
<path fill="none" stroke="#000000" d="M368.003,-192.7003C376.1903,-193.519 385.3292,-194.4329 394.051,-195.3051"/>
<polygon fill="#000000" stroke="#000000" points="393.7174,-198.7891 404.0161,-196.3016 394.414,-191.8239 393.7174,-198.7891"/>
</g>
<!-- 139748201594608 -->
<g id="node12" class="node">
<title>139748201594608</title>
<polygon fill="none" stroke="#000000" points="368,-82 314,-82 314,-46 368,-46 368,-82"/>
<text text-anchor="middle" x="341" y="-60.3" font-family="Times,serif" font-size="14.00" fill="#000000">hid_13</text>
</g>
<!-- 139748201591360 -->
<g id="node30" class="node">
<title>139748201591360</title>
<ellipse fill="none" stroke="#000000" cx="431" cy="-55" rx="27" ry="27"/>
<text text-anchor="middle" x="431" y="-51.3" font-family="Times,serif" font-size="14.00" fill="#000000">pre_TradeConfig:getMAX_QUOTES</text>
</g>
<!-- 139748201594608&#45;&gt;139748201591360 -->
<g id="edge12" class="edge">
<title>139748201594608&#45;&gt;139748201591360</title>
<path fill="none" stroke="#000000" d="M368.003,-61.2997C376.1903,-60.481 385.3292,-59.5671 394.051,-58.6949"/>
<polygon fill="#000000" stroke="#000000" points="394.414,-62.1761 404.0161,-57.6984 393.7174,-55.2109 394.414,-62.1761"/>
</g>
<!-- 139748191041128 -->
<g id="node13" class="node">
<title>139748191041128</title>
<polygon fill="none" stroke="#000000" points="368,-145 314,-145 314,-109 368,-109 368,-145"/>
<text text-anchor="middle" x="341" y="-123.3" font-family="Times,serif" font-size="14.00" fill="#000000">hid_14</text>
</g>
<!-- 139748201591584 -->
<g id="node31" class="node">
<title>139748201591584</title>
<ellipse fill="none" stroke="#000000" cx="431" cy="-127" rx="27" ry="27"/>
<text text-anchor="middle" x="431" y="-123.3" font-family="Times,serif" font-size="14.00" fill="#000000">pre_TradeConfig:getPercentSentToWebsocket</text>
</g>
<!-- 139748191041128&#45;&gt;139748201591584 -->
<g id="edge13" class="edge">
<title>139748191041128&#45;&gt;139748201591584</title>
<path fill="none" stroke="#000000" d="M368.003,-127C376.0277,-127 384.9665,-127 393.5309,-127"/>
<polygon fill="#000000" stroke="#000000" points="393.7051,-130.5001 403.705,-127 393.705,-123.5001 393.7051,-130.5001"/>
</g>
<!-- 139748205631584 -->
<g id="node14" class="node">
<title>139748205631584</title>
<polygon fill="none" stroke="#000000" points="920,-379 866,-379 866,-343 920,-343 920,-379"/>
<text text-anchor="middle" x="893" y="-357.3" font-family="Times,serif" font-size="14.00" fill="#000000">hid_2</text>
</g>
<!-- 139748205631584&#45;&gt;139748206345128 -->
<g id="edge14" class="edge">
<title>139748205631584&#45;&gt;139748206345128</title>
<path fill="none" stroke="#000000" d="M920.003,-377.2018C929.7743,-383.0646 940.9012,-389.7407 951.0567,-395.834"/>
<polygon fill="#000000" stroke="#000000" points="949.2971,-398.8599 959.6728,-401.0037 952.8986,-392.8574 949.2971,-398.8599"/>
</g>
<!-- 139748205632928 -->
<g id="node15" class="node">
<title>139748205632928</title>
<polygon fill="none" stroke="#000000" points="644,-298 590,-298 590,-262 644,-262 644,-298"/>
<text text-anchor="middle" x="617" y="-276.3" font-family="Times,serif" font-size="14.00" fill="#000000">hid_3</text>
</g>
<!-- 139748205629792 -->
<g id="node27" class="node">
<title>139748205629792</title>
<ellipse fill="none" stroke="#000000" cx="803" cy="-343" rx="27" ry="27"/>
<text text-anchor="middle" x="803" y="-339.3" font-family="Times,serif" font-size="14.00" fill="#000000">pre_Root</text>
</g>
<!-- 139748205632928&#45;&gt;139748205629792 -->
<g id="edge15" class="edge">
<title>139748205632928&#45;&gt;139748205629792</title>
<path fill="none" stroke="#000000" d="M644.1731,-286.9455C669.2981,-293.6042 707.5424,-304.3426 740,-316 749.5587,-319.4331 759.7466,-323.5783 769.0815,-327.5791"/>
<polygon fill="#000000" stroke="#000000" points="767.8733,-330.8705 778.4387,-331.6601 770.6718,-324.4542 767.8733,-330.8705"/>
</g>
<!-- 139748205631248 -->
<g id="node16" class="node">
<title>139748205631248</title>
<polygon fill="none" stroke="#000000" points="644,-361 590,-361 590,-325 644,-325 644,-361"/>
<text text-anchor="middle" x="617" y="-339.3" font-family="Times,serif" font-size="14.00" fill="#000000">hid_4</text>
</g>
<!-- 139748205631248&#45;&gt;139748205629792 -->
<g id="edge16" class="edge">
<title>139748205631248&#45;&gt;139748205629792</title>
<path fill="none" stroke="#000000" d="M644.046,-343C676.142,-343 729.831,-343 765.8192,-343"/>
<polygon fill="#000000" stroke="#000000" points="765.9214,-346.5001 775.9214,-343 765.9213,-339.5001 765.9214,-346.5001"/>
</g>
<!-- 139748205633208 -->
<g id="node17" class="node">
<title>139748205633208</title>
<polygon fill="none" stroke="#000000" points="920,-204 866,-204 866,-168 920,-168 920,-204"/>
<text text-anchor="middle" x="893" y="-182.3" font-family="Times,serif" font-size="14.00" fill="#000000">hid_5</text>
</g>
<!-- 139748205631192 -->
<g id="node25" class="node">
<title>139748205631192</title>
<ellipse fill="none" stroke="#000000" cx="983" cy="-127" rx="27" ry="27"/>
<text text-anchor="middle" x="983" y="-123.3" font-family="Times,serif" font-size="14.00" fill="#000000">pre_DTStreamer3MDB:onMessage</text>
</g>
<!-- 139748205633208&#45;&gt;139748205631192 -->
<g id="edge17" class="edge">
<title>139748205633208&#45;&gt;139748205631192</title>
<path fill="none" stroke="#000000" d="M920.003,-168.2981C930.0349,-161.7216 941.4954,-154.2086 951.8668,-147.4095"/>
<polygon fill="#000000" stroke="#000000" points="953.8231,-150.3121 960.2674,-141.9025 949.9853,-144.4579 953.8231,-150.3121"/>
</g>
<!-- 139748205633096 -->
<g id="node18" class="node">
<title>139748205633096</title>
<polygon fill="none" stroke="#000000" points="920,-82 866,-82 866,-46 920,-46 920,-82"/>
<text text-anchor="middle" x="893" y="-60.3" font-family="Times,serif" font-size="14.00" fill="#000000">hid_6</text>
</g>
<!-- 139748205633096&#45;&gt;139748205631192 -->
<g id="edge18" class="edge">
<title>139748205633096&#45;&gt;139748205631192</title>
<path fill="none" stroke="#000000" d="M919.0317,-82.2222C929.4366,-89.5056 941.4975,-97.9483 952.3236,-105.5265"/>
<polygon fill="#000000" stroke="#000000" points="950.4865,-108.5128 960.686,-111.3802 954.5008,-102.7782 950.4865,-108.5128"/>
</g>
<!-- 139748201292240 -->
<g id="node19" class="node">
<title>139748201292240</title>
<polygon fill="none" stroke="#000000" points="920,-145 866,-145 866,-109 920,-109 920,-145"/>
<text text-anchor="middle" x="893" y="-123.3" font-family="Times,serif" font-size="14.00" fill="#000000">hid_7</text>
</g>
<!-- 139748201292240&#45;&gt;139748205631192 -->
<g id="edge19" class="edge">
<title>139748201292240&#45;&gt;139748205631192</title>
<path fill="none" stroke="#000000" d="M920.003,-127C928.0277,-127 936.9665,-127 945.5309,-127"/>
<polygon fill="#000000" stroke="#000000" points="945.7051,-130.5001 955.705,-127 945.705,-123.5001 945.7051,-130.5001"/>
</g>
<!-- 139748201590912 -->
<g id="node20" class="node">
<title>139748201590912</title>
<polygon fill="none" stroke="#000000" points="920,-267 866,-267 866,-231 920,-231 920,-267"/>
<text text-anchor="middle" x="893" y="-245.3" font-family="Times,serif" font-size="14.00" fill="#000000">hid_8</text>
</g>
<!-- 139748201590912&#45;&gt;139748205631192 -->
<g id="edge20" class="edge">
<title>139748201590912&#45;&gt;139748205631192</title>
<path fill="none" stroke="#000000" d="M906.7755,-230.7157C911.0291,-225.0476 915.7199,-218.7742 920,-213 933.7026,-194.5139 948.9551,-173.6995 961.02,-157.1784"/>
<polygon fill="#000000" stroke="#000000" points="963.9459,-159.1064 967.0135,-148.9653 958.2914,-154.9799 963.9459,-159.1064"/>
</g>
<!-- 139748201592144 -->
<g id="node21" class="node">
<title>139748201592144</title>
<polygon fill="none" stroke="#000000" points="368,-370 314,-370 314,-334 368,-334 368,-370"/>
<text text-anchor="middle" x="341" y="-348.3" font-family="Times,serif" font-size="14.00" fill="#000000">hid_9</text>
</g>
<!-- 139748205632760 -->
<g id="node37" class="node">
<title>139748205632760</title>
<ellipse fill="none" stroke="#000000" cx="431" cy="-343" rx="27" ry="27"/>
<text text-anchor="middle" x="431" y="-339.3" font-family="Times,serif" font-size="14.00" fill="#000000">splace_in_Root_1</text>
</g>
<!-- 139748201592144&#45;&gt;139748205632760 -->
<g id="edge21" class="edge">
<title>139748201592144&#45;&gt;139748205632760</title>
<path fill="none" stroke="#000000" d="M368.003,-349.2997C376.1903,-348.481 385.3292,-347.5671 394.051,-346.6949"/>
<polygon fill="#000000" stroke="#000000" points="394.414,-350.1761 404.0161,-345.6984 393.7174,-343.2109 394.414,-350.1761"/>
</g>
<!-- 139748206326448 -->
<g id="node22" class="node">
<title>139748206326448</title>
<ellipse fill="#00ff00" stroke="#000000" cx="803" cy="-271" rx="27" ry="27"/>
<text text-anchor="middle" x="803" y="-267.3" font-family="Times,serif" font-size="14.00" fill="#000000">1</text>
</g>
<!-- 139748206326448&#45;&gt;139748205631584 -->
<g id="edge35" class="edge">
<title>139748206326448&#45;&gt;139748205631584</title>
<path fill="none" stroke="#000000" d="M822.5287,-290.5287C835.7361,-303.7361 853.3083,-321.3083 867.6014,-335.6014"/>
<polygon fill="#000000" stroke="#000000" points="865.1904,-338.1401 874.7363,-342.7363 870.1401,-333.1904 865.1904,-338.1401"/>
</g>
<!-- 139748206326448&#45;&gt;139748201590912 -->
<g id="edge36" class="edge">
<title>139748206326448&#45;&gt;139748201590912</title>
<path fill="none" stroke="#000000" d="M829.5162,-264.5183C837.8043,-262.4923 847.1048,-260.2188 855.9779,-258.0498"/>
<polygon fill="#000000" stroke="#000000" points="856.8546,-261.4387 865.7375,-255.6642 855.1924,-254.6389 856.8546,-261.4387"/>
</g>
<!-- 139748201593376&#45;&gt;139748201593712 -->
<g id="edge22" class="edge">
<title>139748201593376&#45;&gt;139748201593712</title>
<path fill="none" stroke="#000000" d="M266.4716,-149.5197C282.1381,-172.3232 306.3536,-207.5702 322.9013,-231.6564"/>
<polygon fill="#000000" stroke="#000000" points="320.0734,-233.7212 328.6209,-239.9815 325.843,-229.7573 320.0734,-233.7212"/>
</g>
<!-- 139748201593376&#45;&gt;139748201594160 -->
<g id="edge23" class="edge">
<title>139748201593376&#45;&gt;139748201594160</title>
<path fill="none" stroke="#000000" d="M273.2472,-142.573C283.3684,-149.6579 295.5735,-158.2015 306.8201,-166.0741"/>
<polygon fill="#000000" stroke="#000000" points="304.9838,-169.0609 315.1832,-171.9283 308.998,-163.3263 304.9838,-169.0609"/>
</g>
<!-- 139748201593376&#45;&gt;139748201594608 -->
<g id="edge24" class="edge">
<title>139748201593376&#45;&gt;139748201594608</title>
<path fill="none" stroke="#000000" d="M273.2472,-111.427C283.3684,-104.3421 295.5735,-95.7985 306.8201,-87.9259"/>
<polygon fill="#000000" stroke="#000000" points="308.998,-90.6737 315.1832,-82.0717 304.9838,-84.9391 308.998,-90.6737"/>
</g>
<!-- 139748201593376&#45;&gt;139748191041128 -->
<g id="edge25" class="edge">
<title>139748201593376&#45;&gt;139748191041128</title>
<path fill="none" stroke="#000000" d="M278.003,-127C286.0277,-127 294.9665,-127 303.5309,-127"/>
<polygon fill="#000000" stroke="#000000" points="303.7051,-130.5001 313.705,-127 303.705,-123.5001 303.7051,-130.5001"/>
</g>
<!-- 139748201591808&#45;&gt;139748201592592 -->
<g id="edge26" class="edge">
<title>139748201591808&#45;&gt;139748201592592</title>
<path fill="none" stroke="#000000" d="M278.003,-415C286.0277,-415 294.9665,-415 303.5309,-415"/>
<polygon fill="#000000" stroke="#000000" points="303.7051,-418.5001 313.705,-415 303.705,-411.5001 303.7051,-418.5001"/>
</g>
<!-- 139748201591808&#45;&gt;139748201592144 -->
<g id="edge27" class="edge">
<title>139748201591808&#45;&gt;139748201592144</title>
<path fill="none" stroke="#000000" d="M273.2472,-399.427C283.3684,-392.3421 295.5735,-383.7985 306.8201,-375.9259"/>
<polygon fill="#000000" stroke="#000000" points="308.998,-378.6737 315.1832,-370.0717 304.9838,-372.9391 308.998,-378.6737"/>
</g>
<!-- 139748205631192&#45;&gt;139748206344680 -->
<g id="edge28" class="edge">
<title>139748205631192&#45;&gt;139748206344680</title>
<path fill="none" stroke="#000000" d="M971.4036,-102.1943C960.7286,-81.9178 943.0633,-53.9283 920,-37 876.034,-4.7291 857.5382,0 803,0 341,0 341,0 341,0 272.3359,0 196.1725,-23.1419 146.8228,-41.3741"/>
<polygon fill="#000000" stroke="#000000" points="145.449,-38.1513 137.3205,-44.9467 147.9125,-44.7035 145.449,-38.1513"/>
</g>
<!-- 139748206345128&#45;&gt;139748206328688 -->
<g id="edge29" class="edge">
<title>139748206345128&#45;&gt;139748206328688</title>
<path fill="none" stroke="#000000" d="M1009.6151,-420.0785C1017.3987,-421.5637 1026.369,-423.2754 1035.7946,-425.0739"/>
<polygon fill="#000000" stroke="#000000" points="1035.2723,-428.5373 1045.7511,-426.9737 1036.5844,-421.6613 1035.2723,-428.5373"/>
</g>
<!-- 139748205629792&#45;&gt;139748206342664 -->
<g id="edge30" class="edge">
<title>139748205629792&#45;&gt;139748206342664</title>
<path fill="none" stroke="#000000" d="M828.07,-332.972C836.8861,-329.4456 846.9811,-325.4076 856.542,-321.5832"/>
<polygon fill="#000000" stroke="#000000" points="857.8729,-324.8205 865.8578,-317.8569 855.2731,-318.3212 857.8729,-324.8205"/>
</g>
<!-- 139748205629960&#45;&gt;139748206345184 -->
<g id="edge31" class="edge">
<title>139748205629960&#45;&gt;139748206345184</title>
<path fill="none" stroke="#000000" d="M458.046,-199C480.586,-199 513.7753,-199 544.0046,-199"/>
<polygon fill="#000000" stroke="#000000" points="544.1231,-202.5001 554.1231,-199 544.1231,-195.5001 544.1231,-202.5001"/>
</g>
<!-- 139748205632816&#45;&gt;139748206345576 -->
<g id="edge32" class="edge">
<title>139748205632816&#45;&gt;139748206345576</title>
<path fill="none" stroke="#000000" d="M458.046,-415C469.8651,-415 484.6121,-415 500.3252,-415"/>
<polygon fill="#000000" stroke="#000000" points="500.7693,-418.5001 510.7693,-415 500.7692,-411.5001 500.7693,-418.5001"/>
</g>
<!-- 139748201591360&#45;&gt;139748206345856 -->
<g id="edge33" class="edge">
<title>139748201591360&#45;&gt;139748206345856</title>
<path fill="none" stroke="#000000" d="M458.046,-55C471.7109,-55 489.2899,-55 507.7504,-55"/>
<polygon fill="#000000" stroke="#000000" points="507.7716,-58.5001 517.7716,-55 507.7716,-51.5001 507.7716,-58.5001"/>
</g>
<!-- 139748201591584&#45;&gt;139748206345240 -->
<g id="edge34" class="edge">
<title>139748201591584&#45;&gt;139748206345240</title>
<path fill="none" stroke="#000000" d="M458.046,-127C465.5987,-127 474.3471,-127 483.7791,-127"/>
<polygon fill="#000000" stroke="#000000" points="483.8344,-130.5001 493.8343,-127 483.8343,-123.5001 483.8344,-130.5001"/>
</g>
<!-- 139748205629904&#45;&gt;139748205633208 -->
<g id="edge37" class="edge">
<title>139748205629904&#45;&gt;139748205633208</title>
<path fill="none" stroke="#000000" d="M830.003,-195.0996C838.0277,-193.9404 846.9665,-192.6493 855.5309,-191.4122"/>
<polygon fill="#000000" stroke="#000000" points="856.3081,-194.8363 865.705,-189.9426 855.3074,-187.9082 856.3081,-194.8363"/>
</g>
<!-- 139748201295152&#45;&gt;139748205633096 -->
<g id="edge38" class="edge">
<title>139748201295152&#45;&gt;139748205633096</title>
<path fill="none" stroke="#000000" d="M830.003,-57.7003C838.0277,-58.5028 846.9665,-59.3967 855.5309,-60.2531"/>
<polygon fill="#000000" stroke="#000000" points="855.4064,-63.758 865.705,-61.2705 856.1029,-56.7927 855.4064,-63.758"/>
</g>
<!-- 139748201293808&#45;&gt;139748201292240 -->
<g id="edge39" class="edge">
<title>139748201293808&#45;&gt;139748201292240</title>
<path fill="none" stroke="#000000" d="M830.003,-127C838.0277,-127 846.9665,-127 855.5309,-127"/>
<polygon fill="#000000" stroke="#000000" points="855.7051,-130.5001 865.705,-127 855.705,-123.5001 855.7051,-130.5001"/>
</g>
<!-- 139748205630912&#45;&gt;139748205630016 -->
<g id="edge40" class="edge">
<title>139748205630912&#45;&gt;139748205630016</title>
<path fill="none" stroke="#000000" d="M830.003,-415C838.0277,-415 846.9665,-415 855.5309,-415"/>
<polygon fill="#000000" stroke="#000000" points="855.7051,-418.5001 865.705,-415 855.705,-411.5001 855.7051,-418.5001"/>
</g>
<!-- 139748205630184&#45;&gt;139748205632928 -->
<g id="edge41" class="edge">
<title>139748205630184&#45;&gt;139748205632928</title>
<path fill="none" stroke="#000000" d="M458.046,-272.3087C490.142,-273.8617 543.831,-276.4596 579.8192,-278.2009"/>
<polygon fill="#000000" stroke="#000000" points="579.7639,-281.7023 589.9214,-278.6897 580.1022,-274.7104 579.7639,-281.7023"/>
</g>
<!-- 139748205632760&#45;&gt;139748205631248 -->
<g id="edge42" class="edge">
<title>139748205632760&#45;&gt;139748205631248</title>
<path fill="none" stroke="#000000" d="M458.046,-343C490.142,-343 543.831,-343 579.8192,-343"/>
<polygon fill="#000000" stroke="#000000" points="579.9214,-346.5001 589.9214,-343 579.9213,-339.5001 579.9214,-346.5001"/>
</g>
</g>
</svg>
