<?xml version="1.0" encoding="UTF-8" standalone="no"?>
<!DOCTYPE svg PUBLIC "-//W3C//DTD SVG 1.1//EN"
 "http://www.w3.org/Graphics/SVG/1.1/DTD/svg11.dtd">
<!-- Generated by graphviz version 2.40.1 (20161225.0304)
 -->
<!-- Title: alpha_plus_net_1585321017.2244153 Pages: 1 -->
<svg width="860pt" height="2276pt"
 viewBox="0.00 0.00 860.00 2276.00" xmlns="http://www.w3.org/2000/svg" xmlns:xlink="http://www.w3.org/1999/xlink">
<g id="graph0" class="graph" transform="scale(1 1) rotate(0) translate(4 2272)">
<title>alpha_plus_net_1585321017.2244153</title>
<!-- 140531499400776 -->
<g id="node1" class="node">
<title>140531499400776</title>
<polygon fill="none" stroke="#000000" points="216,-36 20,-36 20,0 216,0 216,-36"/>
<text text-anchor="middle" x="118" y="-14.3" font-family="Times,serif" font-size="14.00" fill="#000000">AccountDataBean:getAccountID</text>
</g>
<!-- 140531499400440 -->
<g id="node2" class="node">
<title>140531499400440</title>
<polygon fill="none" stroke="#000000" points="207.5,-90 28.5,-90 28.5,-54 207.5,-54 207.5,-90"/>
<text text-anchor="middle" x="118" y="-68.3" font-family="Times,serif" font-size="14.00" fill="#000000">AccountDataBean:getBalance</text>
</g>
<!-- 140531499398648 -->
<g id="node3" class="node">
<title>140531499398648</title>
<polygon fill="none" stroke="#000000" points="222,-144 14,-144 14,-108 222,-108 222,-144"/>
<text text-anchor="middle" x="118" y="-122.3" font-family="Times,serif" font-size="14.00" fill="#000000">AccountDataBean:getCreationDate</text>
</g>
<!-- 140531499179256 -->
<g id="node4" class="node">
<title>140531499179256</title>
<polygon fill="none" stroke="#000000" points="213.5,-198 22.5,-198 22.5,-162 213.5,-162 213.5,-198"/>
<text text-anchor="middle" x="118" y="-176.3" font-family="Times,serif" font-size="14.00" fill="#000000">AccountDataBean:getLastLogin</text>
</g>
<!-- 140531499399264 -->
<g id="node5" class="node">
<title>140531499399264</title>
<polygon fill="none" stroke="#000000" points="218.5,-252 17.5,-252 17.5,-216 218.5,-216 218.5,-252"/>
<text text-anchor="middle" x="118" y="-230.3" font-family="Times,serif" font-size="14.00" fill="#000000">AccountDataBean:getLoginCount</text>
</g>
<!-- 140531499400496 -->
<g id="node6" class="node">
<title>140531499400496</title>
<polygon fill="none" stroke="#000000" points="222,-306 14,-306 14,-270 222,-270 222,-306"/>
<text text-anchor="middle" x="118" y="-284.3" font-family="Times,serif" font-size="14.00" fill="#000000">AccountDataBean:getLogoutCount</text>
</g>
<!-- 140531499176008 -->
<g id="node7" class="node">
<title>140531499176008</title>
<polygon fill="none" stroke="#000000" points="222.5,-360 13.5,-360 13.5,-324 222.5,-324 222.5,-360"/>
<text text-anchor="middle" x="118" y="-338.3" font-family="Times,serif" font-size="14.00" fill="#000000">AccountDataBean:getOpenBalance</text>
</g>
<!-- 140531499399768 -->
<g id="node8" class="node">
<title>140531499399768</title>
<polygon fill="none" stroke="#000000" points="211.5,-414 24.5,-414 24.5,-378 211.5,-378 211.5,-414"/>
<text text-anchor="middle" x="118" y="-392.3" font-family="Times,serif" font-size="14.00" fill="#000000">AccountDataBean:getProfileID</text>
</g>
<!-- 140531499176456 -->
<g id="node9" class="node">
<title>140531499176456</title>
<polygon fill="none" stroke="#000000" points="210.5,-468 25.5,-468 25.5,-432 210.5,-432 210.5,-468"/>
<text text-anchor="middle" x="118" y="-446.3" font-family="Times,serif" font-size="14.00" fill="#000000">AccountDataBean:setProfileID</text>
</g>
<!-- 140531499399152 -->
<g id="node10" class="node">
<title>140531499399152</title>
<polygon fill="none" stroke="#000000" points="227,-522 9,-522 9,-486 227,-486 227,-522"/>
<text text-anchor="middle" x="118" y="-500.3" font-family="Times,serif" font-size="14.00" fill="#000000">AccountProfileDataBean:getAccount</text>
</g>
<!-- 140531499400608 -->
<g id="node11" class="node">
<title>140531499400608</title>
<polygon fill="none" stroke="#000000" points="226.5,-576 9.5,-576 9.5,-540 226.5,-540 226.5,-576"/>
<text text-anchor="middle" x="118" y="-554.3" font-family="Times,serif" font-size="14.00" fill="#000000">AccountProfileDataBean:getAddress</text>
</g>
<!-- 140531499398032 -->
<g id="node12" class="node">
<title>140531499398032</title>
<polygon fill="none" stroke="#000000" points="234.5,-630 1.5,-630 1.5,-594 234.5,-594 234.5,-630"/>
<text text-anchor="middle" x="118" y="-608.3" font-family="Times,serif" font-size="14.00" fill="#000000">AccountProfileDataBean:getCreditCard</text>
</g>
<!-- 140531499399488 -->
<g id="node13" class="node">
<title>140531499399488</title>
<polygon fill="none" stroke="#000000" points="221,-684 15,-684 15,-648 221,-648 221,-684"/>
<text text-anchor="middle" x="118" y="-662.3" font-family="Times,serif" font-size="14.00" fill="#000000">AccountProfileDataBean:getEmail</text>
</g>
<!-- 140531499397472 -->
<g id="node14" class="node">
<title>140531499397472</title>
<polygon fill="none" stroke="#000000" points="231.5,-738 4.5,-738 4.5,-702 231.5,-702 231.5,-738"/>
<text text-anchor="middle" x="118" y="-716.3" font-family="Times,serif" font-size="14.00" fill="#000000">AccountProfileDataBean:getFullName</text>
</g>
<!-- 140531499400832 -->
<g id="node15" class="node">
<title>140531499400832</title>
<polygon fill="none" stroke="#000000" points="230,-792 6,-792 6,-756 230,-756 230,-792"/>
<text text-anchor="middle" x="118" y="-770.3" font-family="Times,serif" font-size="14.00" fill="#000000">AccountProfileDataBean:getPassword</text>
</g>
<!-- 140531499397584 -->
<g id="node16" class="node">
<title>140531499397584</title>
<polygon fill="none" stroke="#000000" points="224,-846 12,-846 12,-810 224,-810 224,-846"/>
<text text-anchor="middle" x="118" y="-824.3" font-family="Times,serif" font-size="14.00" fill="#000000">AccountProfileDataBean:getUserID</text>
</g>
<!-- 140531499399544 -->
<g id="node17" class="node">
<title>140531499399544</title>
<polygon fill="none" stroke="#000000" points="222.5,-900 13.5,-900 13.5,-864 222.5,-864 222.5,-900"/>
<text text-anchor="middle" x="118" y="-878.3" font-family="Times,serif" font-size="14.00" fill="#000000">AccountProfileDataBean:hashCode</text>
</g>
<!-- 140531499398312 -->
<g id="node46" class="node">
<title>140531499398312</title>
<ellipse fill="none" stroke="#000000" cx="350.5" cy="-909" rx="27" ry="27"/>
<text text-anchor="middle" x="350.5" y="-905.3" font-family="Times,serif" font-size="14.00" fill="#000000">({&#39;AccountProfileDataBean:hashCode&#39;}, {&#39;TradeAction:updateAccountProfile&#39;})</text>
</g>
<!-- 140531499399544&#45;&gt;140531499398312 -->
<g id="edge5" class="edge">
<title>140531499399544&#45;&gt;140531499398312</title>
<path fill="none" stroke="#000000" d="M222.6874,-894.1573C255.1704,-897.9295 288.8694,-901.8429 313.5046,-904.7038"/>
<polygon fill="#000000" stroke="#000000" points="313.1406,-908.1849 323.4776,-905.8619 313.9482,-901.2317 313.1406,-908.1849"/>
</g>
<!-- 140531499400048 -->
<g id="node18" class="node">
<title>140531499400048</title>
<polygon fill="none" stroke="#000000" points="225.5,-954 10.5,-954 10.5,-918 225.5,-918 225.5,-954"/>
<text text-anchor="middle" x="118" y="-932.3" font-family="Times,serif" font-size="14.00" fill="#000000">AccountProfileDataBean:setAddress</text>
</g>
<!-- 140531499399040 -->
<g id="node19" class="node">
<title>140531499399040</title>
<polygon fill="none" stroke="#000000" points="233.5,-1008 2.5,-1008 2.5,-972 233.5,-972 233.5,-1008"/>
<text text-anchor="middle" x="118" y="-986.3" font-family="Times,serif" font-size="14.00" fill="#000000">AccountProfileDataBean:setCreditCard</text>
</g>
<!-- 140531499399432 -->
<g id="node20" class="node">
<title>140531499399432</title>
<polygon fill="none" stroke="#000000" points="220,-1062 16,-1062 16,-1026 220,-1026 220,-1062"/>
<text text-anchor="middle" x="118" y="-1040.3" font-family="Times,serif" font-size="14.00" fill="#000000">AccountProfileDataBean:setEmail</text>
</g>
<!-- 140531499399320 -->
<g id="node21" class="node">
<title>140531499399320</title>
<polygon fill="none" stroke="#000000" points="231,-1116 5,-1116 5,-1080 231,-1080 231,-1116"/>
<text text-anchor="middle" x="118" y="-1094.3" font-family="Times,serif" font-size="14.00" fill="#000000">AccountProfileDataBean:setFullName</text>
</g>
<!-- 140531499400664 -->
<g id="node22" class="node">
<title>140531499400664</title>
<polygon fill="none" stroke="#000000" points="229.5,-1170 6.5,-1170 6.5,-1134 229.5,-1134 229.5,-1170"/>
<text text-anchor="middle" x="118" y="-1148.3" font-family="Times,serif" font-size="14.00" fill="#000000">AccountProfileDataBean:setPassword</text>
</g>
<!-- 140531499401168 -->
<g id="node23" class="node">
<title>140531499401168</title>
<polygon fill="none" stroke="#000000" points="179.5,-1224 56.5,-1224 56.5,-1188 179.5,-1188 179.5,-1224"/>
<text text-anchor="middle" x="118" y="-1202.3" font-family="Times,serif" font-size="14.00" fill="#000000">Log:doActionTrace</text>
</g>
<!-- 140531499179480 -->
<g id="node24" class="node">
<title>140531499179480</title>
<polygon fill="none" stroke="#000000" points="161,-1278 75,-1278 75,-1242 161,-1242 161,-1278"/>
<text text-anchor="middle" x="118" y="-1256.3" font-family="Times,serif" font-size="14.00" fill="#000000">Log:doTrace</text>
</g>
<!-- 140531499583696 -->
<g id="node25" class="node">
<title>140531499583696</title>
<polygon fill="none" stroke="#000000" points="429,-1341 272,-1341 272,-1305 429,-1305 429,-1341"/>
<text text-anchor="middle" x="350.5" y="-1319.3" font-family="Times,serif" font-size="14.00" fill="#000000">OrdersAlertFilter:doFilter</text>
</g>
<!-- 140531499398536 -->
<g id="node47" class="node">
<title>140531499398536</title>
<ellipse fill="none" stroke="#000000" cx="568.5" cy="-1323" rx="27" ry="27"/>
<text text-anchor="middle" x="568.5" y="-1319.3" font-family="Times,serif" font-size="14.00" fill="#000000">({&#39;OrdersAlertFilter:doFilter&#39;}, {&#39;Root&#39;})</text>
</g>
<!-- 140531499583696&#45;&gt;140531499398536 -->
<g id="edge6" class="edge">
<title>140531499583696&#45;&gt;140531499398536</title>
<path fill="none" stroke="#000000" d="M429.203,-1323C464.0254,-1323 503.3292,-1323 531.2868,-1323"/>
<polygon fill="#000000" stroke="#000000" points="531.4133,-1326.5001 541.4133,-1323 531.4132,-1319.5001 531.4133,-1326.5001"/>
</g>
<!-- 140531499399096 -->
<g id="node26" class="node">
<title>140531499399096</title>
<polygon fill="none" stroke="#000000" points="762,-1341 708,-1341 708,-1305 762,-1305 762,-1341"/>
<text text-anchor="middle" x="735" y="-1319.3" font-family="Times,serif" font-size="14.00" fill="#000000">Root</text>
</g>
<!-- 140531499398984 -->
<g id="node49" class="node">
<title>140531499398984</title>
<ellipse fill="#ffa500" stroke="#000000" cx="825" cy="-1323" rx="27" ry="27"/>
</g>
<!-- 140531499399096&#45;&gt;140531499398984 -->
<g id="edge7" class="edge">
<title>140531499399096&#45;&gt;140531499398984</title>
<path fill="none" stroke="#000000" d="M762.003,-1323C770.0277,-1323 778.9665,-1323 787.5309,-1323"/>
<polygon fill="#000000" stroke="#000000" points="787.7051,-1326.5001 797.705,-1323 787.705,-1319.5001 787.7051,-1326.5001"/>
</g>
<!-- 140531499399992 -->
<g id="node27" class="node">
<title>140531499399992</title>
<polygon fill="none" stroke="#000000" points="206,-1404 30,-1404 30,-1368 206,-1368 206,-1404"/>
<text text-anchor="middle" x="118" y="-1382.3" font-family="Times,serif" font-size="14.00" fill="#000000">TradeAction:getAccountData</text>
</g>
<!-- 140531499179424 -->
<g id="node28" class="node">
<title>140531499179424</title>
<polygon fill="none" stroke="#000000" points="224.5,-1458 11.5,-1458 11.5,-1422 224.5,-1422 224.5,-1458"/>
<text text-anchor="middle" x="118" y="-1436.3" font-family="Times,serif" font-size="14.00" fill="#000000">TradeAction:getAccountProfileData</text>
</g>
<!-- 140531499399880 -->
<g id="node29" class="node">
<title>140531499399880</title>
<polygon fill="none" stroke="#000000" points="207.5,-1512 28.5,-1512 28.5,-1476 207.5,-1476 207.5,-1512"/>
<text text-anchor="middle" x="118" y="-1490.3" font-family="Times,serif" font-size="14.00" fill="#000000">TradeAction:getClosedOrders</text>
</g>
<!-- 140531499397304 -->
<g id="node30" class="node">
<title>140531499397304</title>
<polygon fill="none" stroke="#000000" points="672,-923 465,-923 465,-887 672,-887 672,-923"/>
<text text-anchor="middle" x="568.5" y="-901.3" font-family="Times,serif" font-size="14.00" fill="#000000">TradeAction:updateAccountProfile</text>
</g>
<!-- 140531499398480 -->
<g id="node48" class="node">
<title>140531499398480</title>
<ellipse fill="none" stroke="#000000" cx="735" cy="-880" rx="27" ry="27"/>
<text text-anchor="middle" x="735" y="-876.3" font-family="Times,serif" font-size="14.00" fill="#000000">({&#39;TradeAction:updateAccountProfile&#39;}, {&#39;AccountProfileDataBean:hashCode&#39;})</text>
</g>
<!-- 140531499397304&#45;&gt;140531499398480 -->
<g id="edge8" class="edge">
<title>140531499397304&#45;&gt;140531499398480</title>
<path fill="none" stroke="#000000" d="M672.0535,-889.4514C681.2499,-888.0706 690.0943,-886.7426 698.0994,-885.5406"/>
<polygon fill="#000000" stroke="#000000" points="698.7292,-888.9854 708.0986,-884.0393 697.6897,-882.063 698.7292,-888.9854"/>
</g>
<!-- 140531499583416 -->
<g id="node31" class="node">
<title>140531499583416</title>
<polygon fill="none" stroke="#000000" points="210,-1566 26,-1566 26,-1530 210,-1530 210,-1566"/>
<text text-anchor="middle" x="118" y="-1544.3" font-family="Times,serif" font-size="14.00" fill="#000000">TradeAppServlet:performTask</text>
</g>
<!-- 140531499399712 -->
<g id="node32" class="node">
<title>140531499399712</title>
<polygon fill="none" stroke="#000000" points="204.5,-1620 31.5,-1620 31.5,-1584 204.5,-1584 204.5,-1620"/>
<text text-anchor="middle" x="118" y="-1598.3" font-family="Times,serif" font-size="14.00" fill="#000000">TradeConfig:getActionTrace</text>
</g>
<!-- 140531499400104 -->
<g id="node33" class="node">
<title>140531499400104</title>
<polygon fill="none" stroke="#000000" points="224,-1674 12,-1674 12,-1638 224,-1638 224,-1674"/>
<text text-anchor="middle" x="118" y="-1652.3" font-family="Times,serif" font-size="14.00" fill="#000000">TradeConfig:getDisplayOrderAlerts</text>
</g>
<!-- 140531499401112 -->
<g id="node34" class="node">
<title>140531499401112</title>
<polygon fill="none" stroke="#000000" points="196.5,-1728 39.5,-1728 39.5,-1692 196.5,-1692 196.5,-1728"/>
<text text-anchor="middle" x="118" y="-1706.3" font-family="Times,serif" font-size="14.00" fill="#000000">TradeConfig:getLongRun</text>
</g>
<!-- 140531499401000 -->
<g id="node35" class="node">
<title>140531499401000</title>
<polygon fill="none" stroke="#000000" points="184,-1782 52,-1782 52,-1746 184,-1746 184,-1782"/>
<text text-anchor="middle" x="118" y="-1760.3" font-family="Times,serif" font-size="14.00" fill="#000000">TradeConfig:getPage</text>
</g>
<!-- 140531499399656 -->
<g id="node36" class="node">
<title>140531499399656</title>
<polygon fill="none" stroke="#000000" points="186.5,-1836 49.5,-1836 49.5,-1800 186.5,-1800 186.5,-1836"/>
<text text-anchor="middle" x="118" y="-1814.3" font-family="Times,serif" font-size="14.00" fill="#000000">TradeConfig:getTrace</text>
</g>
<!-- 140531499399936 -->
<g id="node37" class="node">
<title>140531499399936</title>
<polygon fill="none" stroke="#000000" points="228.5,-1890 7.5,-1890 7.5,-1854 228.5,-1854 228.5,-1890"/>
<text text-anchor="middle" x="118" y="-1868.3" font-family="Times,serif" font-size="14.00" fill="#000000">TradeConfig:useRemoteEJBInterface</text>
</g>
<!-- 140531499399824 -->
<g id="node38" class="node">
<title>140531499399824</title>
<polygon fill="none" stroke="#000000" points="218,-1944 18,-1944 18,-1908 218,-1908 218,-1944"/>
<text text-anchor="middle" x="118" y="-1922.3" font-family="Times,serif" font-size="14.00" fill="#000000">TradeSLSBBean:getAccountData</text>
</g>
<!-- 140531499397808 -->
<g id="node39" class="node">
<title>140531499397808</title>
<polygon fill="none" stroke="#000000" points="236,-1998 0,-1998 0,-1962 236,-1962 236,-1998"/>
<text text-anchor="middle" x="118" y="-1976.3" font-family="Times,serif" font-size="14.00" fill="#000000">TradeSLSBBean:getAccountProfileData</text>
</g>
<!-- 140531499176568 -->
<g id="node40" class="node">
<title>140531499176568</title>
<polygon fill="none" stroke="#000000" points="219.5,-2052 16.5,-2052 16.5,-2016 219.5,-2016 219.5,-2052"/>
<text text-anchor="middle" x="118" y="-2030.3" font-family="Times,serif" font-size="14.00" fill="#000000">TradeSLSBBean:getClosedOrders</text>
</g>
<!-- 140531499400944 -->
<g id="node41" class="node">
<title>140531499400944</title>
<polygon fill="none" stroke="#000000" points="233,-2106 3,-2106 3,-2070 233,-2070 233,-2106"/>
<text text-anchor="middle" x="118" y="-2084.3" font-family="Times,serif" font-size="14.00" fill="#000000">TradeSLSBBean:updateAccountProfile</text>
</g>
<!-- 140531499400888 -->
<g id="node42" class="node">
<title>140531499400888</title>
<polygon fill="none" stroke="#000000" points="189,-2160 47,-2160 47,-2124 189,-2124 189,-2160"/>
<text text-anchor="middle" x="118" y="-2138.3" font-family="Times,serif" font-size="14.00" fill="#000000">new AccountDataBean</text>
</g>
<!-- 140531499400720 -->
<g id="node43" class="node">
<title>140531499400720</title>
<polygon fill="none" stroke="#000000" points="207.5,-2214 28.5,-2214 28.5,-2178 207.5,-2178 207.5,-2214"/>
<text text-anchor="middle" x="118" y="-2192.3" font-family="Times,serif" font-size="14.00" fill="#000000">new AccountProfileDataBean</text>
</g>
<!-- 140531499399600 -->
<g id="node44" class="node">
<title>140531499399600</title>
<polygon fill="none" stroke="#000000" points="173.5,-2268 62.5,-2268 62.5,-2232 173.5,-2232 173.5,-2268"/>
<text text-anchor="middle" x="118" y="-2246.3" font-family="Times,serif" font-size="14.00" fill="#000000">new TradeAction</text>
</g>
<!-- 140531499398872 -->
<g id="node45" class="node">
<title>140531499398872</title>
<ellipse fill="#00ff00" stroke="#000000" cx="118" cy="-1323" rx="27" ry="27"/>
<text text-anchor="middle" x="118" y="-1319.3" font-family="Times,serif" font-size="14.00" fill="#000000">1</text>
</g>
<!-- 140531499398872&#45;&gt;140531499583696 -->
<g id="edge4" class="edge">
<title>140531499398872&#45;&gt;140531499583696</title>
<path fill="none" stroke="#000000" d="M145.1257,-1323C173.6767,-1323 220.1524,-1323 261.6767,-1323"/>
<polygon fill="#000000" stroke="#000000" points="261.8343,-1326.5001 271.8342,-1323 261.8342,-1319.5001 261.8343,-1326.5001"/>
</g>
<!-- 140531499398312&#45;&gt;140531499397304 -->
<g id="edge1" class="edge">
<title>140531499398312&#45;&gt;140531499397304</title>
<path fill="none" stroke="#000000" d="M377.6691,-908.5015C397.4765,-908.138 425.7799,-907.6187 454.5444,-907.0909"/>
<polygon fill="#000000" stroke="#000000" points="454.7908,-910.5871 464.7249,-906.9041 454.6623,-903.5883 454.7908,-910.5871"/>
</g>
<!-- 140531499398536&#45;&gt;140531499399096 -->
<g id="edge2" class="edge">
<title>140531499398536&#45;&gt;140531499399096</title>
<path fill="none" stroke="#000000" d="M595.6217,-1323C623.3179,-1323 666.5281,-1323 697.4933,-1323"/>
<polygon fill="#000000" stroke="#000000" points="697.89,-1326.5001 707.8899,-1323 697.8899,-1319.5001 697.89,-1326.5001"/>
</g>
<!-- 140531499398480&#45;&gt;140531499399544 -->
<g id="edge3" class="edge">
<title>140531499398480&#45;&gt;140531499399544</title>
<path fill="none" stroke="#000000" d="M707.8571,-878.7501C636.4649,-875.6448 437.5352,-868.1671 272,-873 259.3071,-873.3706 246.0332,-873.9126 232.829,-874.5499"/>
<polygon fill="#000000" stroke="#000000" points="232.5684,-871.0585 222.7561,-875.0545 232.9187,-878.0497 232.5684,-871.0585"/>
</g>
</g>
</svg>
