<?xml version="1.0" encoding="UTF-8" standalone="no"?>
<!DOCTYPE svg PUBLIC "-//W3C//DTD SVG 1.1//EN"
 "http://www.w3.org/Graphics/SVG/1.1/DTD/svg11.dtd">
<!-- Generated by graphviz version 2.40.1 (20161225.0304)
 -->
<!-- Title: alpha_classic_net_1585281871.0294898 Pages: 1 -->
<svg width="707pt" height="2330pt"
 viewBox="0.00 0.00 707.00 2330.00" xmlns="http://www.w3.org/2000/svg" xmlns:xlink="http://www.w3.org/1999/xlink">
<g id="graph0" class="graph" transform="scale(1 1) rotate(0) translate(4 2326)">
<title>alpha_classic_net_1585281871.0294898</title>
<!-- 140543361114240 -->
<g id="node1" class="node">
<title>140543361114240</title>
<polygon fill="none" stroke="#000000" points="216,-36 20,-36 20,0 216,0 216,-36"/>
<text text-anchor="middle" x="118" y="-14.3" font-family="Times,serif" font-size="14.00" fill="#000000">AccountDataBean:getAccountID</text>
</g>
<!-- 140543357378176 -->
<g id="node2" class="node">
<title>140543357378176</title>
<polygon fill="none" stroke="#000000" points="207.5,-90 28.5,-90 28.5,-54 207.5,-54 207.5,-90"/>
<text text-anchor="middle" x="118" y="-68.3" font-family="Times,serif" font-size="14.00" fill="#000000">AccountDataBean:getBalance</text>
</g>
<!-- 140543361115416 -->
<g id="node3" class="node">
<title>140543361115416</title>
<polygon fill="none" stroke="#000000" points="222,-144 14,-144 14,-108 222,-108 222,-144"/>
<text text-anchor="middle" x="118" y="-122.3" font-family="Times,serif" font-size="14.00" fill="#000000">AccountDataBean:getCreationDate</text>
</g>
<!-- 140543361115640 -->
<g id="node4" class="node">
<title>140543361115640</title>
<polygon fill="none" stroke="#000000" points="213.5,-198 22.5,-198 22.5,-162 213.5,-162 213.5,-198"/>
<text text-anchor="middle" x="118" y="-176.3" font-family="Times,serif" font-size="14.00" fill="#000000">AccountDataBean:getLastLogin</text>
</g>
<!-- 140543361114576 -->
<g id="node5" class="node">
<title>140543361114576</title>
<polygon fill="none" stroke="#000000" points="218.5,-252 17.5,-252 17.5,-216 218.5,-216 218.5,-252"/>
<text text-anchor="middle" x="118" y="-230.3" font-family="Times,serif" font-size="14.00" fill="#000000">AccountDataBean:getLoginCount</text>
</g>
<!-- 140543361115136 -->
<g id="node6" class="node">
<title>140543361115136</title>
<polygon fill="none" stroke="#000000" points="222,-306 14,-306 14,-270 222,-270 222,-306"/>
<text text-anchor="middle" x="118" y="-284.3" font-family="Times,serif" font-size="14.00" fill="#000000">AccountDataBean:getLogoutCount</text>
</g>
<!-- 140543361115192 -->
<g id="node7" class="node">
<title>140543361115192</title>
<polygon fill="none" stroke="#000000" points="222.5,-360 13.5,-360 13.5,-324 222.5,-324 222.5,-360"/>
<text text-anchor="middle" x="118" y="-338.3" font-family="Times,serif" font-size="14.00" fill="#000000">AccountDataBean:getOpenBalance</text>
</g>
<!-- 140543361114408 -->
<g id="node8" class="node">
<title>140543361114408</title>
<polygon fill="none" stroke="#000000" points="211.5,-414 24.5,-414 24.5,-378 211.5,-378 211.5,-414"/>
<text text-anchor="middle" x="118" y="-392.3" font-family="Times,serif" font-size="14.00" fill="#000000">AccountDataBean:getProfileID</text>
</g>
<!-- 140543357377952 -->
<g id="node9" class="node">
<title>140543357377952</title>
<polygon fill="none" stroke="#000000" points="210.5,-468 25.5,-468 25.5,-432 210.5,-432 210.5,-468"/>
<text text-anchor="middle" x="118" y="-446.3" font-family="Times,serif" font-size="14.00" fill="#000000">AccountDataBean:setProfileID</text>
</g>
<!-- 140543361116088 -->
<g id="node10" class="node">
<title>140543361116088</title>
<polygon fill="none" stroke="#000000" points="227,-522 9,-522 9,-486 227,-486 227,-522"/>
<text text-anchor="middle" x="118" y="-500.3" font-family="Times,serif" font-size="14.00" fill="#000000">AccountProfileDataBean:getAccount</text>
</g>
<!-- 140543361114800 -->
<g id="node11" class="node">
<title>140543361114800</title>
<polygon fill="none" stroke="#000000" points="226.5,-576 9.5,-576 9.5,-540 226.5,-540 226.5,-576"/>
<text text-anchor="middle" x="118" y="-554.3" font-family="Times,serif" font-size="14.00" fill="#000000">AccountProfileDataBean:getAddress</text>
</g>
<!-- 140543361115864 -->
<g id="node12" class="node">
<title>140543361115864</title>
<polygon fill="none" stroke="#000000" points="234.5,-630 1.5,-630 1.5,-594 234.5,-594 234.5,-630"/>
<text text-anchor="middle" x="118" y="-608.3" font-family="Times,serif" font-size="14.00" fill="#000000">AccountProfileDataBean:getCreditCard</text>
</g>
<!-- 140543361114352 -->
<g id="node13" class="node">
<title>140543361114352</title>
<polygon fill="none" stroke="#000000" points="221,-684 15,-684 15,-648 221,-648 221,-684"/>
<text text-anchor="middle" x="118" y="-662.3" font-family="Times,serif" font-size="14.00" fill="#000000">AccountProfileDataBean:getEmail</text>
</g>
<!-- 140543361115248 -->
<g id="node14" class="node">
<title>140543361115248</title>
<polygon fill="none" stroke="#000000" points="231.5,-738 4.5,-738 4.5,-702 231.5,-702 231.5,-738"/>
<text text-anchor="middle" x="118" y="-716.3" font-family="Times,serif" font-size="14.00" fill="#000000">AccountProfileDataBean:getFullName</text>
</g>
<!-- 140543361115472 -->
<g id="node15" class="node">
<title>140543361115472</title>
<polygon fill="none" stroke="#000000" points="230,-792 6,-792 6,-756 230,-756 230,-792"/>
<text text-anchor="middle" x="118" y="-770.3" font-family="Times,serif" font-size="14.00" fill="#000000">AccountProfileDataBean:getPassword</text>
</g>
<!-- 140543361115976 -->
<g id="node16" class="node">
<title>140543361115976</title>
<polygon fill="none" stroke="#000000" points="224,-846 12,-846 12,-810 224,-810 224,-846"/>
<text text-anchor="middle" x="118" y="-824.3" font-family="Times,serif" font-size="14.00" fill="#000000">AccountProfileDataBean:getUserID</text>
</g>
<!-- 140543361115752 -->
<g id="node17" class="node">
<title>140543361115752</title>
<polygon fill="none" stroke="#000000" points="222.5,-900 13.5,-900 13.5,-864 222.5,-864 222.5,-900"/>
<text text-anchor="middle" x="118" y="-878.3" font-family="Times,serif" font-size="14.00" fill="#000000">AccountProfileDataBean:hashCode</text>
</g>
<!-- 140543361114912 -->
<g id="node18" class="node">
<title>140543361114912</title>
<polygon fill="none" stroke="#000000" points="225.5,-954 10.5,-954 10.5,-918 225.5,-918 225.5,-954"/>
<text text-anchor="middle" x="118" y="-932.3" font-family="Times,serif" font-size="14.00" fill="#000000">AccountProfileDataBean:setAddress</text>
</g>
<!-- 140543361114744 -->
<g id="node19" class="node">
<title>140543361114744</title>
<polygon fill="none" stroke="#000000" points="233.5,-1008 2.5,-1008 2.5,-972 233.5,-972 233.5,-1008"/>
<text text-anchor="middle" x="118" y="-986.3" font-family="Times,serif" font-size="14.00" fill="#000000">AccountProfileDataBean:setCreditCard</text>
</g>
<!-- 140543357378120 -->
<g id="node20" class="node">
<title>140543357378120</title>
<polygon fill="none" stroke="#000000" points="220,-1062 16,-1062 16,-1026 220,-1026 220,-1062"/>
<text text-anchor="middle" x="118" y="-1040.3" font-family="Times,serif" font-size="14.00" fill="#000000">AccountProfileDataBean:setEmail</text>
</g>
<!-- 140543361116032 -->
<g id="node21" class="node">
<title>140543361116032</title>
<polygon fill="none" stroke="#000000" points="231,-1116 5,-1116 5,-1080 231,-1080 231,-1116"/>
<text text-anchor="middle" x="118" y="-1094.3" font-family="Times,serif" font-size="14.00" fill="#000000">AccountProfileDataBean:setFullName</text>
</g>
<!-- 140543361114688 -->
<g id="node22" class="node">
<title>140543361114688</title>
<polygon fill="none" stroke="#000000" points="229.5,-1170 6.5,-1170 6.5,-1134 229.5,-1134 229.5,-1170"/>
<text text-anchor="middle" x="118" y="-1148.3" font-family="Times,serif" font-size="14.00" fill="#000000">AccountProfileDataBean:setPassword</text>
</g>
<!-- 140543361114464 -->
<g id="node23" class="node">
<title>140543361114464</title>
<polygon fill="none" stroke="#000000" points="179.5,-1224 56.5,-1224 56.5,-1188 179.5,-1188 179.5,-1224"/>
<text text-anchor="middle" x="118" y="-1202.3" font-family="Times,serif" font-size="14.00" fill="#000000">Log:doActionTrace</text>
</g>
<!-- 140543361115696 -->
<g id="node24" class="node">
<title>140543361115696</title>
<polygon fill="none" stroke="#000000" points="161,-1278 75,-1278 75,-1242 161,-1242 161,-1278"/>
<text text-anchor="middle" x="118" y="-1256.3" font-family="Times,serif" font-size="14.00" fill="#000000">Log:doTrace</text>
</g>
<!-- 140543361114184 -->
<g id="node25" class="node">
<title>140543361114184</title>
<polygon fill="none" stroke="#000000" points="429,-1341 272,-1341 272,-1305 429,-1305 429,-1341"/>
<text text-anchor="middle" x="350.5" y="-1319.3" font-family="Times,serif" font-size="14.00" fill="#000000">OrdersAlertFilter:doFilter</text>
</g>
<!-- 140543361116424 -->
<g id="node46" class="node">
<title>140543361116424</title>
<ellipse fill="none" stroke="#000000" cx="492" cy="-1323" rx="27" ry="27"/>
<text text-anchor="middle" x="492" y="-1319.3" font-family="Times,serif" font-size="14.00" fill="#000000">({&#39;OrdersAlertFilter:doFilter&#39;}, {&#39;Root&#39;})</text>
</g>
<!-- 140543361114184&#45;&gt;140543361116424 -->
<g id="edge2" class="edge">
<title>140543361114184&#45;&gt;140543361116424</title>
<path fill="none" stroke="#000000" d="M429.112,-1323C438.0464,-1323 446.8115,-1323 454.8279,-1323"/>
<polygon fill="#000000" stroke="#000000" points="454.8861,-1326.5001 464.8861,-1323 454.8861,-1319.5001 454.8861,-1326.5001"/>
</g>
<!-- 140543361114856 -->
<g id="node26" class="node">
<title>140543361114856</title>
<polygon fill="none" stroke="#000000" points="609,-1341 555,-1341 555,-1305 609,-1305 609,-1341"/>
<text text-anchor="middle" x="582" y="-1319.3" font-family="Times,serif" font-size="14.00" fill="#000000">Root</text>
</g>
<!-- 140543361116256 -->
<g id="node47" class="node">
<title>140543361116256</title>
<ellipse fill="#ffa500" stroke="#000000" cx="672" cy="-1323" rx="27" ry="27"/>
</g>
<!-- 140543361114856&#45;&gt;140543361116256 -->
<g id="edge3" class="edge">
<title>140543361114856&#45;&gt;140543361116256</title>
<path fill="none" stroke="#000000" d="M609.003,-1323C617.0277,-1323 625.9665,-1323 634.5309,-1323"/>
<polygon fill="#000000" stroke="#000000" points="634.7051,-1326.5001 644.705,-1323 634.705,-1319.5001 634.7051,-1326.5001"/>
</g>
<!-- 140543361114520 -->
<g id="node27" class="node">
<title>140543361114520</title>
<polygon fill="none" stroke="#000000" points="206,-1404 30,-1404 30,-1368 206,-1368 206,-1404"/>
<text text-anchor="middle" x="118" y="-1382.3" font-family="Times,serif" font-size="14.00" fill="#000000">TradeAction:getAccountData</text>
</g>
<!-- 140543357378456 -->
<g id="node28" class="node">
<title>140543357378456</title>
<polygon fill="none" stroke="#000000" points="224.5,-1458 11.5,-1458 11.5,-1422 224.5,-1422 224.5,-1458"/>
<text text-anchor="middle" x="118" y="-1436.3" font-family="Times,serif" font-size="14.00" fill="#000000">TradeAction:getAccountProfileData</text>
</g>
<!-- 140543361115584 -->
<g id="node29" class="node">
<title>140543361115584</title>
<polygon fill="none" stroke="#000000" points="207.5,-1512 28.5,-1512 28.5,-1476 207.5,-1476 207.5,-1512"/>
<text text-anchor="middle" x="118" y="-1490.3" font-family="Times,serif" font-size="14.00" fill="#000000">TradeAction:getClosedOrders</text>
</g>
<!-- 140543357378288 -->
<g id="node30" class="node">
<title>140543357378288</title>
<polygon fill="none" stroke="#000000" points="221.5,-1566 14.5,-1566 14.5,-1530 221.5,-1530 221.5,-1566"/>
<text text-anchor="middle" x="118" y="-1544.3" font-family="Times,serif" font-size="14.00" fill="#000000">TradeAction:updateAccountProfile</text>
</g>
<!-- 140543361114968 -->
<g id="node31" class="node">
<title>140543361114968</title>
<polygon fill="none" stroke="#000000" points="210,-1620 26,-1620 26,-1584 210,-1584 210,-1620"/>
<text text-anchor="middle" x="118" y="-1598.3" font-family="Times,serif" font-size="14.00" fill="#000000">TradeAppServlet:performTask</text>
</g>
<!-- 140543361115080 -->
<g id="node32" class="node">
<title>140543361115080</title>
<polygon fill="none" stroke="#000000" points="204.5,-1674 31.5,-1674 31.5,-1638 204.5,-1638 204.5,-1674"/>
<text text-anchor="middle" x="118" y="-1652.3" font-family="Times,serif" font-size="14.00" fill="#000000">TradeConfig:getActionTrace</text>
</g>
<!-- 140543361115808 -->
<g id="node33" class="node">
<title>140543361115808</title>
<polygon fill="none" stroke="#000000" points="224,-1728 12,-1728 12,-1692 224,-1692 224,-1728"/>
<text text-anchor="middle" x="118" y="-1706.3" font-family="Times,serif" font-size="14.00" fill="#000000">TradeConfig:getDisplayOrderAlerts</text>
</g>
<!-- 140543361115024 -->
<g id="node34" class="node">
<title>140543361115024</title>
<polygon fill="none" stroke="#000000" points="196.5,-1782 39.5,-1782 39.5,-1746 196.5,-1746 196.5,-1782"/>
<text text-anchor="middle" x="118" y="-1760.3" font-family="Times,serif" font-size="14.00" fill="#000000">TradeConfig:getLongRun</text>
</g>
<!-- 140543361115528 -->
<g id="node35" class="node">
<title>140543361115528</title>
<polygon fill="none" stroke="#000000" points="184,-1836 52,-1836 52,-1800 184,-1800 184,-1836"/>
<text text-anchor="middle" x="118" y="-1814.3" font-family="Times,serif" font-size="14.00" fill="#000000">TradeConfig:getPage</text>
</g>
<!-- 140543361115920 -->
<g id="node36" class="node">
<title>140543361115920</title>
<polygon fill="none" stroke="#000000" points="186.5,-1890 49.5,-1890 49.5,-1854 186.5,-1854 186.5,-1890"/>
<text text-anchor="middle" x="118" y="-1868.3" font-family="Times,serif" font-size="14.00" fill="#000000">TradeConfig:getTrace</text>
</g>
<!-- 140543357378400 -->
<g id="node37" class="node">
<title>140543357378400</title>
<polygon fill="none" stroke="#000000" points="228.5,-1944 7.5,-1944 7.5,-1908 228.5,-1908 228.5,-1944"/>
<text text-anchor="middle" x="118" y="-1922.3" font-family="Times,serif" font-size="14.00" fill="#000000">TradeConfig:useRemoteEJBInterface</text>
</g>
<!-- 140543357377896 -->
<g id="node38" class="node">
<title>140543357377896</title>
<polygon fill="none" stroke="#000000" points="218,-1998 18,-1998 18,-1962 218,-1962 218,-1998"/>
<text text-anchor="middle" x="118" y="-1976.3" font-family="Times,serif" font-size="14.00" fill="#000000">TradeSLSBBean:getAccountData</text>
</g>
<!-- 140543361115360 -->
<g id="node39" class="node">
<title>140543361115360</title>
<polygon fill="none" stroke="#000000" points="236,-2052 0,-2052 0,-2016 236,-2016 236,-2052"/>
<text text-anchor="middle" x="118" y="-2030.3" font-family="Times,serif" font-size="14.00" fill="#000000">TradeSLSBBean:getAccountProfileData</text>
</g>
<!-- 140543357378512 -->
<g id="node40" class="node">
<title>140543357378512</title>
<polygon fill="none" stroke="#000000" points="219.5,-2106 16.5,-2106 16.5,-2070 219.5,-2070 219.5,-2106"/>
<text text-anchor="middle" x="118" y="-2084.3" font-family="Times,serif" font-size="14.00" fill="#000000">TradeSLSBBean:getClosedOrders</text>
</g>
<!-- 140543361115304 -->
<g id="node41" class="node">
<title>140543361115304</title>
<polygon fill="none" stroke="#000000" points="233,-2160 3,-2160 3,-2124 233,-2124 233,-2160"/>
<text text-anchor="middle" x="118" y="-2138.3" font-family="Times,serif" font-size="14.00" fill="#000000">TradeSLSBBean:updateAccountProfile</text>
</g>
<!-- 140543361114632 -->
<g id="node42" class="node">
<title>140543361114632</title>
<polygon fill="none" stroke="#000000" points="189,-2214 47,-2214 47,-2178 189,-2178 189,-2214"/>
<text text-anchor="middle" x="118" y="-2192.3" font-family="Times,serif" font-size="14.00" fill="#000000">new AccountDataBean</text>
</g>
<!-- 140543361114296 -->
<g id="node43" class="node">
<title>140543361114296</title>
<polygon fill="none" stroke="#000000" points="207.5,-2268 28.5,-2268 28.5,-2232 207.5,-2232 207.5,-2268"/>
<text text-anchor="middle" x="118" y="-2246.3" font-family="Times,serif" font-size="14.00" fill="#000000">new AccountProfileDataBean</text>
</g>
<!-- 140543357378344 -->
<g id="node44" class="node">
<title>140543357378344</title>
<polygon fill="none" stroke="#000000" points="173.5,-2322 62.5,-2322 62.5,-2286 173.5,-2286 173.5,-2322"/>
<text text-anchor="middle" x="118" y="-2300.3" font-family="Times,serif" font-size="14.00" fill="#000000">new TradeAction</text>
</g>
<!-- 140543361116144 -->
<g id="node45" class="node">
<title>140543361116144</title>
<ellipse fill="#00ff00" stroke="#000000" cx="118" cy="-1323" rx="27" ry="27"/>
<text text-anchor="middle" x="118" y="-1319.3" font-family="Times,serif" font-size="14.00" fill="#000000">1</text>
</g>
<!-- 140543361116144&#45;&gt;140543361114184 -->
<g id="edge4" class="edge">
<title>140543361116144&#45;&gt;140543361114184</title>
<path fill="none" stroke="#000000" d="M145.1257,-1323C173.6767,-1323 220.1524,-1323 261.6767,-1323"/>
<polygon fill="#000000" stroke="#000000" points="261.8343,-1326.5001 271.8342,-1323 261.8342,-1319.5001 261.8343,-1326.5001"/>
</g>
<!-- 140543361116424&#45;&gt;140543361114856 -->
<g id="edge1" class="edge">
<title>140543361116424&#45;&gt;140543361114856</title>
<path fill="none" stroke="#000000" d="M519.003,-1323C527.0277,-1323 535.9665,-1323 544.5309,-1323"/>
<polygon fill="#000000" stroke="#000000" points="544.7051,-1326.5001 554.705,-1323 544.705,-1319.5001 544.7051,-1326.5001"/>
</g>
</g>
</svg>
