<?xml version="1.0" encoding="UTF-8" standalone="no"?>
<!DOCTYPE svg PUBLIC "-//W3C//DTD SVG 1.1//EN"
 "http://www.w3.org/Graphics/SVG/1.1/DTD/svg11.dtd">
<!-- Generated by graphviz version 2.40.1 (20161225.0304)
 -->
<!-- Title: imdf_net_1585321017.255784 Pages: 1 -->
<svg width="1494pt" height="2204pt"
 viewBox="0.00 0.00 1494.00 2204.00" xmlns="http://www.w3.org/2000/svg" xmlns:xlink="http://www.w3.org/1999/xlink">
<g id="graph0" class="graph" transform="scale(1 1) rotate(0) translate(4 2200)">
<title>imdf_net_1585321017.255784</title>
<!-- 140531499933032 -->
<g id="node1" class="node">
<title>140531499933032</title>
<polygon fill="none" stroke="#000000" points="196,-959 0,-959 0,-923 196,-923 196,-959"/>
<text text-anchor="middle" x="98" y="-937.3" font-family="Times,serif" font-size="14.00" fill="#000000">AccountDataBean:getAccountID</text>
</g>
<!-- 140531499929952 -->
<g id="node62" class="node">
<title>140531499929952</title>
<ellipse fill="none" stroke="#000000" cx="259" cy="-1096" rx="27" ry="27"/>
<text text-anchor="middle" x="259" y="-1092.3" font-family="Times,serif" font-size="14.00" fill="#000000">p_8</text>
</g>
<!-- 140531499933032&#45;&gt;140531499929952 -->
<g id="edge3" class="edge">
<title>140531499933032&#45;&gt;140531499929952</title>
<path fill="none" stroke="#000000" d="M116.7838,-959.0838C145.1972,-986.4383 199.2468,-1038.4736 231.9127,-1069.9221"/>
<polygon fill="#000000" stroke="#000000" points="229.701,-1072.6513 239.3325,-1077.0654 234.5559,-1067.6084 229.701,-1072.6513"/>
</g>
<!-- 140531499932528 -->
<g id="node2" class="node">
<title>140531499932528</title>
<polygon fill="none" stroke="#000000" points="1457.5,-2088 1278.5,-2088 1278.5,-2052 1457.5,-2052 1457.5,-2088"/>
<text text-anchor="middle" x="1368" y="-2066.3" font-family="Times,serif" font-size="14.00" fill="#000000">AccountDataBean:getBalance</text>
</g>
<!-- 140531499932528&#45;&gt;140531499929952 -->
<g id="edge17" class="edge">
<title>140531499932528&#45;&gt;140531499929952</title>
<path fill="none" stroke="#000000" d="M1278.3767,-2062.3515C1222.6348,-2058.2378 1149.4489,-2054 1084.5,-2054 439,-2054 439,-2054 439,-2054 372.2963,-2054 353.0022,-2019.0614 322,-1960 283.1792,-1886.0439 264.2933,-1289.8459 259.9772,-1133.4531"/>
<polygon fill="#000000" stroke="#000000" points="263.4739,-1133.2819 259.7027,-1123.381 256.4765,-1133.4727 263.4739,-1133.2819"/>
</g>
<!-- 140531499442920 -->
<g id="node3" class="node">
<title>140531499442920</title>
<polygon fill="none" stroke="#000000" points="1472,-2034 1264,-2034 1264,-1998 1472,-1998 1472,-2034"/>
<text text-anchor="middle" x="1368" y="-2012.3" font-family="Times,serif" font-size="14.00" fill="#000000">AccountDataBean:getCreationDate</text>
</g>
<!-- 140531499442920&#45;&gt;140531499929952 -->
<g id="edge42" class="edge">
<title>140531499442920&#45;&gt;140531499929952</title>
<path fill="none" stroke="#000000" d="M1263.9935,-2013.2878C1210.3812,-2012.1124 1143.9409,-2011 1084.5,-2011 439,-2011 439,-2011 439,-2011 368.5335,-2011 352.8985,-1967.331 322,-1904 287.9209,-1834.1499 265.7388,-1282.9933 260.3032,-1133.3689"/>
<polygon fill="#000000" stroke="#000000" points="263.7984,-1133.1696 259.9408,-1123.302 256.8029,-1133.4215 263.7984,-1133.1696"/>
</g>
<!-- 140531499931184 -->
<g id="node4" class="node">
<title>140531499931184</title>
<polygon fill="none" stroke="#000000" points="1463.5,-1980 1272.5,-1980 1272.5,-1944 1463.5,-1944 1463.5,-1980"/>
<text text-anchor="middle" x="1368" y="-1958.3" font-family="Times,serif" font-size="14.00" fill="#000000">AccountDataBean:getLastLogin</text>
</g>
<!-- 140531499931184&#45;&gt;140531499929952 -->
<g id="edge32" class="edge">
<title>140531499931184&#45;&gt;140531499929952</title>
<path fill="none" stroke="#000000" d="M1272.2809,-1953.9063C1217.3683,-1949.9377 1147.1073,-1946 1084.5,-1946 439,-1946 439,-1946 439,-1946 372.5738,-1946 353.327,-1911.5753 322,-1853 287.8318,-1789.1123 265.9019,-1277.1096 260.3765,-1133.3927"/>
<polygon fill="#000000" stroke="#000000" points="263.8706,-1133.1675 259.9926,-1123.3079 256.8757,-1133.4338 263.8706,-1133.1675"/>
</g>
<!-- 140531499444768 -->
<g id="node5" class="node">
<title>140531499444768</title>
<polygon fill="none" stroke="#000000" points="1468.5,-1926 1267.5,-1926 1267.5,-1890 1468.5,-1890 1468.5,-1926"/>
<text text-anchor="middle" x="1368" y="-1904.3" font-family="Times,serif" font-size="14.00" fill="#000000">AccountDataBean:getLoginCount</text>
</g>
<!-- 140531499444768&#45;&gt;140531499929952 -->
<g id="edge36" class="edge">
<title>140531499444768&#45;&gt;140531499929952</title>
<path fill="none" stroke="#000000" d="M1267.3141,-1904.3053C1213.1448,-1902.6225 1145.1806,-1901 1084.5,-1901 439,-1901 439,-1901 439,-1901 369.7208,-1901 353.3278,-1859.7914 322,-1798 291.8003,-1738.4338 267.2921,-1269.9398 260.7306,-1133.2904"/>
<polygon fill="#000000" stroke="#000000" points="264.2266,-1133.1212 260.2545,-1123.2992 257.2345,-1133.4544 264.2266,-1133.1212"/>
</g>
<!-- 140531499445608 -->
<g id="node6" class="node">
<title>140531499445608</title>
<polygon fill="none" stroke="#000000" points="1472,-1872 1264,-1872 1264,-1836 1472,-1836 1472,-1872"/>
<text text-anchor="middle" x="1368" y="-1850.3" font-family="Times,serif" font-size="14.00" fill="#000000">AccountDataBean:getLogoutCount</text>
</g>
<!-- 140531499445608&#45;&gt;140531499929952 -->
<g id="edge34" class="edge">
<title>140531499445608&#45;&gt;140531499929952</title>
<path fill="none" stroke="#000000" d="M1263.6972,-1847.4733C1210.1526,-1844.6587 1143.8617,-1842 1084.5,-1842 439,-1842 439,-1842 439,-1842 371.4532,-1842 353.6508,-1804.6724 322,-1745 293.2687,-1690.8317 268.0447,-1263.4948 260.9706,-1133.432"/>
<polygon fill="#000000" stroke="#000000" points="264.4513,-1132.9793 260.4173,-1123.1826 257.4615,-1133.3567 264.4513,-1132.9793"/>
</g>
<!-- 140531499930512 -->
<g id="node7" class="node">
<title>140531499930512</title>
<polygon fill="none" stroke="#000000" points="1472.5,-1818 1263.5,-1818 1263.5,-1782 1472.5,-1782 1472.5,-1818"/>
<text text-anchor="middle" x="1368" y="-1796.3" font-family="Times,serif" font-size="14.00" fill="#000000">AccountDataBean:getOpenBalance</text>
</g>
<!-- 140531499930512&#45;&gt;140531499929952 -->
<g id="edge14" class="edge">
<title>140531499930512&#45;&gt;140531499929952</title>
<path fill="none" stroke="#000000" d="M1263.2286,-1784.6892C1209.8517,-1778.1523 1143.8499,-1772 1084.5,-1772 439,-1772 439,-1772 439,-1772 378.6308,-1772 354.612,-1753.8026 322,-1703 291.1694,-1654.9725 267.607,-1257.7789 260.919,-1133.215"/>
<polygon fill="#000000" stroke="#000000" points="264.4038,-1132.8336 260.3775,-1123.0336 257.4136,-1133.2054 264.4038,-1132.8336"/>
</g>
<!-- 140531499443928 -->
<g id="node8" class="node">
<title>140531499443928</title>
<polygon fill="none" stroke="#000000" points="1461.5,-1764 1274.5,-1764 1274.5,-1728 1461.5,-1728 1461.5,-1764"/>
<text text-anchor="middle" x="1368" y="-1742.3" font-family="Times,serif" font-size="14.00" fill="#000000">AccountDataBean:getProfileID</text>
</g>
<!-- 140531499443928&#45;&gt;140531499929952 -->
<g id="edge9" class="edge">
<title>140531499443928&#45;&gt;140531499929952</title>
<path fill="none" stroke="#000000" d="M1274.2026,-1739.041C1219.0056,-1735.5274 1147.8232,-1732 1084.5,-1732 439,-1732 439,-1732 439,-1732 378.1744,-1732 354.7315,-1712.268 322,-1661 293.6123,-1616.5357 268.6998,-1252.2699 261.2575,-1133.3769"/>
<polygon fill="#000000" stroke="#000000" points="264.7447,-1133.0619 260.6317,-1123.298 257.7582,-1133.4957 264.7447,-1133.0619"/>
</g>
<!-- 140531499930680 -->
<g id="node9" class="node">
<title>140531499930680</title>
<polygon fill="none" stroke="#000000" points="1460.5,-1710 1275.5,-1710 1275.5,-1674 1460.5,-1674 1460.5,-1710"/>
<text text-anchor="middle" x="1368" y="-1688.3" font-family="Times,serif" font-size="14.00" fill="#000000">AccountDataBean:setProfileID</text>
</g>
<!-- 140531499930680&#45;&gt;140531499929952 -->
<g id="edge5" class="edge">
<title>140531499930680&#45;&gt;140531499929952</title>
<path fill="none" stroke="#000000" d="M1275.4419,-1689.0527C1220.0513,-1687.5354 1148.2526,-1686 1084.5,-1686 439,-1686 439,-1686 439,-1686 379.5141,-1686 355.1729,-1670.3774 322,-1621 294.8477,-1580.5841 269.431,-1246.5852 261.5215,-1133.3662"/>
<polygon fill="#000000" stroke="#000000" points="264.9942,-1132.8501 260.8112,-1123.116 258.0109,-1133.3341 264.9942,-1132.8501"/>
</g>
<!-- 140531499442584 -->
<g id="node10" class="node">
<title>140531499442584</title>
<polygon fill="none" stroke="#000000" points="1477,-1656 1259,-1656 1259,-1620 1477,-1620 1477,-1656"/>
<text text-anchor="middle" x="1368" y="-1634.3" font-family="Times,serif" font-size="14.00" fill="#000000">AccountProfileDataBean:getAccount</text>
</g>
<!-- 140531499442584&#45;&gt;140531499929952 -->
<g id="edge31" class="edge">
<title>140531499442584&#45;&gt;140531499929952</title>
<path fill="none" stroke="#000000" d="M1258.962,-1640.8215C1206.2612,-1641.9556 1142.0949,-1643 1084.5,-1643 439,-1643 439,-1643 439,-1643 380.561,-1643 355.6116,-1630.8055 322,-1583 270.9717,-1510.4229 261.2744,-1233.9484 259.432,-1133.0978"/>
<polygon fill="#000000" stroke="#000000" points="262.9311,-1133.0075 259.2644,-1123.0674 255.932,-1133.1245 262.9311,-1133.0075"/>
</g>
<!-- 140531499932864 -->
<g id="node11" class="node">
<title>140531499932864</title>
<polygon fill="none" stroke="#000000" points="1476.5,-1602 1259.5,-1602 1259.5,-1566 1476.5,-1566 1476.5,-1602"/>
<text text-anchor="middle" x="1368" y="-1580.3" font-family="Times,serif" font-size="14.00" fill="#000000">AccountProfileDataBean:getAddress</text>
</g>
<!-- 140531499932864&#45;&gt;140531499929952 -->
<g id="edge23" class="edge">
<title>140531499932864&#45;&gt;140531499929952</title>
<path fill="none" stroke="#000000" d="M1259.4311,-1595.8196C1206.6971,-1600.5948 1142.3671,-1605 1084.5,-1605 439,-1605 439,-1605 439,-1605 380.561,-1605 355.8682,-1592.6241 322,-1545 275.0063,-1478.9192 262.8484,-1228.3884 259.8925,-1133.095"/>
<polygon fill="#000000" stroke="#000000" points="263.3897,-1132.9434 259.5976,-1123.0505 256.3927,-1133.149 263.3897,-1132.9434"/>
</g>
<!-- 140531499932024 -->
<g id="node12" class="node">
<title>140531499932024</title>
<polygon fill="none" stroke="#000000" points="1484.5,-1548 1251.5,-1548 1251.5,-1512 1484.5,-1512 1484.5,-1548"/>
<text text-anchor="middle" x="1368" y="-1526.3" font-family="Times,serif" font-size="14.00" fill="#000000">AccountProfileDataBean:getCreditCard</text>
</g>
<!-- 140531499932024&#45;&gt;140531499929952 -->
<g id="edge24" class="edge">
<title>140531499932024&#45;&gt;140531499929952</title>
<path fill="none" stroke="#000000" d="M1276.7858,-1548.0123C1221.4032,-1557.4219 1149.1511,-1567 1084.5,-1567 439,-1567 439,-1567 439,-1567 380.561,-1567 356.1699,-1554.4081 322,-1507 279.0571,-1447.4199 264.5781,-1222.8964 260.4446,-1133.2769"/>
<polygon fill="#000000" stroke="#000000" points="263.9302,-1132.8717 259.9906,-1123.0366 256.9371,-1133.1818 263.9302,-1132.8717"/>
</g>
<!-- 140531499444096 -->
<g id="node13" class="node">
<title>140531499444096</title>
<polygon fill="none" stroke="#000000" points="1471,-1494 1265,-1494 1265,-1458 1471,-1458 1471,-1494"/>
<text text-anchor="middle" x="1368" y="-1472.3" font-family="Times,serif" font-size="14.00" fill="#000000">AccountProfileDataBean:getEmail</text>
</g>
<!-- 140531499444096&#45;&gt;140531499929952 -->
<g id="edge28" class="edge">
<title>140531499444096&#45;&gt;140531499929952</title>
<path fill="none" stroke="#000000" d="M1289.5633,-1494.0173C1219.9767,-1509.3821 1123.4931,-1529 1084.5,-1529 439,-1529 439,-1529 439,-1529 380.3569,-1529 356.501,-1515.4204 322,-1468 283.3346,-1414.8558 266.5763,-1216.4577 261.1383,-1133.1759"/>
<polygon fill="#000000" stroke="#000000" points="264.6279,-1132.9005 260.5018,-1123.1422 257.642,-1133.3437 264.6279,-1132.9005"/>
</g>
<!-- 140531499443592 -->
<g id="node14" class="node">
<title>140531499443592</title>
<polygon fill="none" stroke="#000000" points="1481.5,-1440 1254.5,-1440 1254.5,-1404 1481.5,-1404 1481.5,-1440"/>
<text text-anchor="middle" x="1368" y="-1418.3" font-family="Times,serif" font-size="14.00" fill="#000000">AccountProfileDataBean:getFullName</text>
</g>
<!-- 140531499443592&#45;&gt;140531499929952 -->
<g id="edge11" class="edge">
<title>140531499443592&#45;&gt;140531499929952</title>
<path fill="none" stroke="#000000" d="M1287.963,-1440.0453C1275.2514,-1442.9885 1262.2576,-1446.0427 1250,-1449 1176.2294,-1466.7979 1160.3872,-1491 1084.5,-1491 439,-1491 439,-1491 439,-1491 380.1501,-1491 356.9199,-1476.3699 322,-1429 287.5718,-1382.2971 268.7989,-1209.9111 261.9934,-1133.215"/>
<polygon fill="#000000" stroke="#000000" points="265.463,-1132.7113 261.1122,-1123.051 258.4891,-1133.316 265.463,-1132.7113"/>
</g>
<!-- 140531499931688 -->
<g id="node15" class="node">
<title>140531499931688</title>
<polygon fill="none" stroke="#000000" points="1480,-1386 1256,-1386 1256,-1350 1480,-1350 1480,-1386"/>
<text text-anchor="middle" x="1368" y="-1364.3" font-family="Times,serif" font-size="14.00" fill="#000000">AccountProfileDataBean:getPassword</text>
</g>
<!-- 140531499931688&#45;&gt;140531499929952 -->
<g id="edge12" class="edge">
<title>140531499931688&#45;&gt;140531499929952</title>
<path fill="none" stroke="#000000" d="M1283.9019,-1386.0242C1272.4571,-1388.832 1260.9033,-1391.8528 1250,-1395 1175.1155,-1416.6153 1162.4417,-1453 1084.5,-1453 439,-1453 439,-1453 439,-1453 379.9407,-1453 357.4579,-1437.2307 322,-1390 291.7431,-1349.6973 271.2885,-1202.9368 263.0623,-1133.2379"/>
<polygon fill="#000000" stroke="#000000" points="266.5199,-1132.6689 261.8925,-1123.1381 259.5664,-1133.4744 266.5199,-1132.6689"/>
</g>
<!-- 140531499442416 -->
<g id="node16" class="node">
<title>140531499442416</title>
<polygon fill="none" stroke="#000000" points="1474,-1332 1262,-1332 1262,-1296 1474,-1296 1474,-1332"/>
<text text-anchor="middle" x="1368" y="-1310.3" font-family="Times,serif" font-size="14.00" fill="#000000">AccountProfileDataBean:getUserID</text>
</g>
<!-- 140531499442416&#45;&gt;140531499929952 -->
<g id="edge44" class="edge">
<title>140531499442416&#45;&gt;140531499929952</title>
<path fill="none" stroke="#000000" d="M1280.4702,-1332.0056C1270.1167,-1334.7296 1259.7661,-1337.7343 1250,-1341 1173.5855,-1366.5524 1165.0736,-1415 1084.5,-1415 439,-1415 439,-1415 439,-1415 379.7287,-1415 358.1635,-1397.9605 322,-1351 295.8298,-1317.0163 274.1023,-1195.2826 264.4197,-1133.1125"/>
<polygon fill="#000000" stroke="#000000" points="267.8366,-1132.3034 262.8616,-1122.9492 260.9174,-1133.3641 267.8366,-1132.3034"/>
</g>
<!-- 140531499444600 -->
<g id="node17" class="node">
<title>140531499444600</title>
<polygon fill="none" stroke="#000000" points="1472.5,-1278 1263.5,-1278 1263.5,-1242 1472.5,-1242 1472.5,-1278"/>
<text text-anchor="middle" x="1368" y="-1256.3" font-family="Times,serif" font-size="14.00" fill="#000000">AccountProfileDataBean:hashCode</text>
</g>
<!-- 140531499444600&#45;&gt;140531499929952 -->
<g id="edge16" class="edge">
<title>140531499444600&#45;&gt;140531499929952</title>
<path fill="none" stroke="#000000" d="M1277.369,-1278.0631C1268.0193,-1280.7188 1258.7475,-1283.6924 1250,-1287 1171.6836,-1316.6135 1168.2282,-1377 1084.5,-1377 439,-1377 439,-1377 439,-1377 379.5141,-1377 359.1143,-1358.4876 322,-1312 280.0574,-1259.4647 266.0357,-1179.9493 261.3499,-1133.4697"/>
<polygon fill="#000000" stroke="#000000" points="264.8106,-1132.8783 260.4161,-1123.2378 257.8395,-1133.5146 264.8106,-1132.8783"/>
</g>
<!-- 140531499442752 -->
<g id="node18" class="node">
<title>140531499442752</title>
<polygon fill="none" stroke="#000000" points="1475.5,-1224 1260.5,-1224 1260.5,-1188 1475.5,-1188 1475.5,-1224"/>
<text text-anchor="middle" x="1368" y="-1202.3" font-family="Times,serif" font-size="14.00" fill="#000000">AccountProfileDataBean:setAddress</text>
</g>
<!-- 140531499442752&#45;&gt;140531499929952 -->
<g id="edge43" class="edge">
<title>140531499442752&#45;&gt;140531499929952</title>
<path fill="none" stroke="#000000" d="M1274.8971,-1224.0284C1266.3518,-1226.659 1257.9331,-1229.6372 1250,-1233 1169.578,-1267.0907 1171.8492,-1339 1084.5,-1339 439,-1339 439,-1339 439,-1339 379.297,-1339 360.4421,-1318.6799 322,-1273 287.8289,-1232.3952 271.6454,-1171.9073 264.388,-1133.2119"/>
<polygon fill="#000000" stroke="#000000" points="267.7548,-1132.1499 262.5702,-1122.9103 260.8613,-1133.3663 267.7548,-1132.1499"/>
</g>
<!-- 140531499445104 -->
<g id="node19" class="node">
<title>140531499445104</title>
<polygon fill="none" stroke="#000000" points="1483.5,-1170 1252.5,-1170 1252.5,-1134 1483.5,-1134 1483.5,-1170"/>
<text text-anchor="middle" x="1368" y="-1148.3" font-family="Times,serif" font-size="14.00" fill="#000000">AccountProfileDataBean:setCreditCard</text>
</g>
<!-- 140531499445104&#45;&gt;140531499929952 -->
<g id="edge35" class="edge">
<title>140531499445104&#45;&gt;140531499929952</title>
<path fill="none" stroke="#000000" d="M1272.415,-1170.049C1264.6863,-1172.6542 1257.1201,-1175.6219 1250,-1179 1217.9519,-1194.2049 1153.2058,-1256.8682 1124,-1277 1107.0868,-1288.6584 1105.042,-1301 1084.5,-1301 439,-1301 439,-1301 439,-1301 379.0774,-1301 362.3828,-1278.2713 322,-1234 295.2901,-1204.7182 278.2123,-1162.1752 268.6723,-1132.0807"/>
<polygon fill="#000000" stroke="#000000" points="271.9828,-1130.9369 265.7229,-1122.3892 265.286,-1132.975 271.9828,-1130.9369"/>
</g>
<!-- 140531499444936 -->
<g id="node20" class="node">
<title>140531499444936</title>
<polygon fill="none" stroke="#000000" points="1470,-1116 1266,-1116 1266,-1080 1470,-1080 1470,-1116"/>
<text text-anchor="middle" x="1368" y="-1094.3" font-family="Times,serif" font-size="14.00" fill="#000000">AccountProfileDataBean:setEmail</text>
</g>
<!-- 140531499444936&#45;&gt;140531499929952 -->
<g id="edge20" class="edge">
<title>140531499444936&#45;&gt;140531499929952</title>
<path fill="none" stroke="#000000" d="M1271.3641,-1116.107C1263.9853,-1118.6934 1256.7792,-1121.6413 1250,-1125 1164.1831,-1167.5166 1180.2716,-1263 1084.5,-1263 439,-1263 439,-1263 439,-1263 361.1083,-1263 302.7065,-1177.9203 275.6549,-1129.2146"/>
<polygon fill="#000000" stroke="#000000" points="278.658,-1127.41 270.8184,-1120.2832 272.5026,-1130.7434 278.658,-1127.41"/>
</g>
<!-- 140531499445272 -->
<g id="node21" class="node">
<title>140531499445272</title>
<polygon fill="none" stroke="#000000" points="1481,-1062 1255,-1062 1255,-1026 1481,-1026 1481,-1062"/>
<text text-anchor="middle" x="1368" y="-1040.3" font-family="Times,serif" font-size="14.00" fill="#000000">AccountProfileDataBean:setFullName</text>
</g>
<!-- 140531499445272&#45;&gt;140531499929952 -->
<g id="edge4" class="edge">
<title>140531499445272&#45;&gt;140531499929952</title>
<path fill="none" stroke="#000000" d="M1278.4109,-1025.9444C1268.7231,-1023.27 1259.09,-1020.2904 1250,-1017 1172.4375,-988.924 1166.9876,-933 1084.5,-933 439,-933 439,-933 439,-933 379.7287,-933 365.2749,-956.4985 322,-997 302.2648,-1015.4704 286.0637,-1041.3879 275.0344,-1062.0717"/>
<polygon fill="#000000" stroke="#000000" points="271.8188,-1060.6706 270.3368,-1071.1613 278.0374,-1063.8846 271.8188,-1060.6706"/>
</g>
<!-- 140531499933368 -->
<g id="node22" class="node">
<title>140531499933368</title>
<polygon fill="none" stroke="#000000" points="1479.5,-1008 1256.5,-1008 1256.5,-972 1479.5,-972 1479.5,-1008"/>
<text text-anchor="middle" x="1368" y="-986.3" font-family="Times,serif" font-size="14.00" fill="#000000">AccountProfileDataBean:setPassword</text>
</g>
<!-- 140531499933368&#45;&gt;140531499929952 -->
<g id="edge27" class="edge">
<title>140531499933368&#45;&gt;140531499929952</title>
<path fill="none" stroke="#000000" d="M1274.8971,-971.9716C1266.3518,-969.341 1257.9331,-966.3628 1250,-963 1169.578,-928.9093 1171.8492,-857 1084.5,-857 439,-857 439,-857 439,-857 338.7014,-857 287.3025,-992.9653 268.0973,-1059.7923"/>
<polygon fill="#000000" stroke="#000000" points="264.7023,-1058.9373 265.3918,-1069.5096 271.4458,-1060.8148 264.7023,-1058.9373"/>
</g>
<!-- 140531499931520 -->
<g id="node23" class="node">
<title>140531499931520</title>
<polygon fill="none" stroke="#000000" points="1429.5,-954 1306.5,-954 1306.5,-918 1429.5,-918 1429.5,-954"/>
<text text-anchor="middle" x="1368" y="-932.3" font-family="Times,serif" font-size="14.00" fill="#000000">Log:doActionTrace</text>
</g>
<!-- 140531499931520&#45;&gt;140531499929952 -->
<g id="edge30" class="edge">
<title>140531499931520&#45;&gt;140531499929952</title>
<path fill="none" stroke="#000000" d="M1306.4172,-926.0862C1287.8676,-921.9984 1267.7357,-916.4303 1250,-909 1232.4881,-901.6634 1230.4487,-895.4833 1214,-886 1157.8596,-853.6331 1149.3025,-819 1084.5,-819 439,-819 439,-819 439,-819 381.5411,-819 359.1889,-830.1991 322,-874 298.2488,-901.974 276.2291,-1003.5939 265.6254,-1059.1328"/>
<polygon fill="#000000" stroke="#000000" points="262.1285,-1058.7902 263.72,-1069.2648 269.0079,-1060.084 262.1285,-1058.7902"/>
</g>
<!-- 140531499930344 -->
<g id="node24" class="node">
<title>140531499930344</title>
<polygon fill="none" stroke="#000000" points="1411,-900 1325,-900 1325,-864 1411,-864 1411,-900"/>
<text text-anchor="middle" x="1368" y="-878.3" font-family="Times,serif" font-size="14.00" fill="#000000">Log:doTrace</text>
</g>
<!-- 140531499930344&#45;&gt;140531499929952 -->
<g id="edge33" class="edge">
<title>140531499930344&#45;&gt;140531499929952</title>
<path fill="none" stroke="#000000" d="M1324.841,-874.2348C1302.2545,-869.6441 1274.3155,-863.1309 1250,-855 1173.5855,-829.4476 1165.0736,-781 1084.5,-781 439,-781 439,-781 439,-781 383.2864,-781 358.5868,-783.9832 322,-826 291.9078,-860.5583 271.7283,-993.0659 263.3624,-1058.7065"/>
<polygon fill="#000000" stroke="#000000" points="259.8408,-1058.6625 262.0754,-1069.019 266.7869,-1059.5295 259.8408,-1058.6625"/>
</g>
<!-- 140531499930176 -->
<g id="node25" class="node">
<title>140531499930176</title>
<polygon fill="none" stroke="#000000" points="1446.5,-846 1289.5,-846 1289.5,-810 1446.5,-810 1446.5,-846"/>
<text text-anchor="middle" x="1368" y="-824.3" font-family="Times,serif" font-size="14.00" fill="#000000">OrdersAlertFilter:doFilter</text>
</g>
<!-- 140531499930176&#45;&gt;140531499929952 -->
<g id="edge18" class="edge">
<title>140531499930176&#45;&gt;140531499929952</title>
<path fill="none" stroke="#000000" d="M1289.2953,-811.2855C1276.1105,-808.1159 1262.6195,-804.6426 1250,-801 1175.1155,-779.3847 1162.4417,-743 1084.5,-743 439,-743 439,-743 439,-743 383.8996,-743 358.1868,-742.4481 322,-784 286.5448,-824.7118 268.5114,-985.0307 261.9598,-1058.6614"/>
<polygon fill="#000000" stroke="#000000" points="258.4515,-1058.6067 261.0758,-1068.8714 265.4254,-1059.2106 258.4515,-1058.6067"/>
</g>
<!-- 140531499313136 -->
<g id="node26" class="node">
<title>140531499313136</title>
<polygon fill="none" stroke="#000000" points="906.5,-1226 852.5,-1226 852.5,-1190 906.5,-1190 906.5,-1226"/>
<text text-anchor="middle" x="879.5" y="-1204.3" font-family="Times,serif" font-size="14.00" fill="#000000">Root</text>
</g>
<!-- 140531499398200 -->
<g id="node64" class="node">
<title>140531499398200</title>
<ellipse fill="#ffa500" stroke="#000000" cx="982" cy="-1208" rx="27" ry="27"/>
</g>
<!-- 140531499313136&#45;&gt;140531499398200 -->
<g id="edge29" class="edge">
<title>140531499313136&#45;&gt;140531499398200</title>
<path fill="none" stroke="#000000" d="M906.699,-1208C918.2828,-1208 931.9866,-1208 944.5073,-1208"/>
<polygon fill="#000000" stroke="#000000" points="944.6739,-1211.5001 954.6739,-1208 944.6739,-1204.5001 944.6739,-1211.5001"/>
</g>
<!-- 140531499443088 -->
<g id="node27" class="node">
<title>140531499443088</title>
<polygon fill="none" stroke="#000000" points="1456,-792 1280,-792 1280,-756 1456,-756 1456,-792"/>
<text text-anchor="middle" x="1368" y="-770.3" font-family="Times,serif" font-size="14.00" fill="#000000">TradeAction:getAccountData</text>
</g>
<!-- 140531499443088&#45;&gt;140531499929952 -->
<g id="edge39" class="edge">
<title>140531499443088&#45;&gt;140531499929952</title>
<path fill="none" stroke="#000000" d="M1287.963,-755.9547C1275.2514,-753.0115 1262.2576,-749.9573 1250,-747 1176.2294,-729.2021 1160.3872,-705 1084.5,-705 439,-705 439,-705 439,-705 384.1872,-705 357.8565,-702.5421 322,-744 281.53,-790.7922 265.8895,-978.0731 260.9466,-1058.7348"/>
<polygon fill="#000000" stroke="#000000" points="257.4401,-1058.7433 260.3442,-1068.9323 264.4279,-1059.1561 257.4401,-1058.7433"/>
</g>
<!-- 140531499930848 -->
<g id="node28" class="node">
<title>140531499930848</title>
<polygon fill="none" stroke="#000000" points="1474.5,-738 1261.5,-738 1261.5,-702 1474.5,-702 1474.5,-738"/>
<text text-anchor="middle" x="1368" y="-716.3" font-family="Times,serif" font-size="14.00" fill="#000000">TradeAction:getAccountProfileData</text>
</g>
<!-- 140531499930848&#45;&gt;140531499929952 -->
<g id="edge8" class="edge">
<title>140531499930848&#45;&gt;140531499929952</title>
<path fill="none" stroke="#000000" d="M1289.5633,-701.9827C1219.9767,-686.6179 1123.4931,-667 1084.5,-667 439,-667 439,-667 439,-667 384.3261,-667 357.5659,-663.4753 322,-705 276.7556,-757.8248 263.6765,-971.3531 260.1806,-1058.5919"/>
<polygon fill="#000000" stroke="#000000" points="256.674,-1058.7022 259.7915,-1068.828 263.6689,-1058.9681 256.674,-1058.7022"/>
</g>
<!-- 140531499443424 -->
<g id="node29" class="node">
<title>140531499443424</title>
<polygon fill="none" stroke="#000000" points="1457.5,-684 1278.5,-684 1278.5,-648 1457.5,-648 1457.5,-684"/>
<text text-anchor="middle" x="1368" y="-662.3" font-family="Times,serif" font-size="14.00" fill="#000000">TradeAction:getClosedOrders</text>
</g>
<!-- 140531499443424&#45;&gt;140531499929952 -->
<g id="edge13" class="edge">
<title>140531499443424&#45;&gt;140531499929952</title>
<path fill="none" stroke="#000000" d="M1278.3756,-648.2586C1222.7907,-638.7628 1149.7715,-629 1084.5,-629 439,-629 439,-629 439,-629 384.4618,-629 357.3423,-624.4628 322,-666 271.8607,-724.9279 261.6236,-965.4303 259.5349,-1058.7457"/>
<polygon fill="#000000" stroke="#000000" points="256.0333,-1058.7905 259.3279,-1068.86 263.0319,-1058.9338 256.0333,-1058.7905"/>
</g>
<!-- 140531499933200 -->
<g id="node30" class="node">
<title>140531499933200</title>
<polygon fill="none" stroke="#000000" points="1471.5,-630 1264.5,-630 1264.5,-594 1471.5,-594 1471.5,-630"/>
<text text-anchor="middle" x="1368" y="-608.3" font-family="Times,serif" font-size="14.00" fill="#000000">TradeAction:updateAccountProfile</text>
</g>
<!-- 140531499933200&#45;&gt;140531499929952 -->
<g id="edge38" class="edge">
<title>140531499933200&#45;&gt;140531499929952</title>
<path fill="none" stroke="#000000" d="M1264.4547,-600.6395C1210.8187,-595.6915 1144.2179,-591 1084.5,-591 439,-591 439,-591 439,-591 384.4618,-591 357.0994,-586.2573 322,-628 294.3588,-660.8728 269.7567,-953.5129 261.7393,-1058.6198"/>
<polygon fill="#000000" stroke="#000000" points="258.236,-1058.532 260.9725,-1068.7673 265.2161,-1059.0595 258.236,-1058.532"/>
</g>
<!-- 140531499931352 -->
<g id="node31" class="node">
<title>140531499931352</title>
<polygon fill="none" stroke="#000000" points="1460,-576 1276,-576 1276,-540 1460,-540 1460,-576"/>
<text text-anchor="middle" x="1368" y="-554.3" font-family="Times,serif" font-size="14.00" fill="#000000">TradeAppServlet:performTask</text>
</g>
<!-- 140531499931352&#45;&gt;140531499929952 -->
<g id="edge2" class="edge">
<title>140531499931352&#45;&gt;140531499929952</title>
<path fill="none" stroke="#000000" d="M1275.7593,-555.5513C1220.3243,-554.2844 1148.3713,-553 1084.5,-553 439,-553 439,-553 439,-553 384.4618,-553 356.8915,-548.0834 322,-590 292.0298,-626.0045 268.5497,-948.4058 261.3169,-1058.9781"/>
<polygon fill="#000000" stroke="#000000" points="257.8214,-1058.7954 260.6679,-1069.0007 264.8068,-1059.2477 257.8214,-1058.7954"/>
</g>
<!-- 140531499443256 -->
<g id="node32" class="node">
<title>140531499443256</title>
<polygon fill="none" stroke="#000000" points="1454.5,-522 1281.5,-522 1281.5,-486 1454.5,-486 1454.5,-522"/>
<text text-anchor="middle" x="1368" y="-500.3" font-family="Times,serif" font-size="14.00" fill="#000000">TradeConfig:getActionTrace</text>
</g>
<!-- 140531499443256&#45;&gt;140531499929952 -->
<g id="edge19" class="edge">
<title>140531499443256&#45;&gt;140531499929952</title>
<path fill="none" stroke="#000000" d="M1281.4774,-507.7073C1225.3402,-509.7999 1150.6025,-512 1084.5,-512 439,-512 439,-512 439,-512 384.045,-512 356.4841,-509.211 322,-552 290.2167,-591.4378 267.6937,-942.1613 261.0372,-1058.6079"/>
<polygon fill="#000000" stroke="#000000" points="257.5304,-1058.6306 260.4603,-1068.8122 264.5192,-1059.0257 257.5304,-1058.6306"/>
</g>
<!-- 140531498987984 -->
<g id="node33" class="node">
<title>140531498987984</title>
<polygon fill="none" stroke="#000000" points="714,-1181 502,-1181 502,-1145 714,-1145 714,-1181"/>
<text text-anchor="middle" x="608" y="-1159.3" font-family="Times,serif" font-size="14.00" fill="#000000">TradeConfig:getDisplayOrderAlerts</text>
</g>
<!-- 140531499313024 -->
<g id="node56" class="node">
<title>140531499313024</title>
<ellipse fill="none" stroke="#000000" cx="777" cy="-1136" rx="27" ry="27"/>
<text text-anchor="middle" x="777" y="-1132.3" font-family="Times,serif" font-size="14.00" fill="#000000">p_10</text>
</g>
<!-- 140531498987984&#45;&gt;140531499313024 -->
<g id="edge1" class="edge">
<title>140531498987984&#45;&gt;140531499313024</title>
<path fill="none" stroke="#000000" d="M714.0706,-1146.0538C723.293,-1144.5804 732.1479,-1143.1657 740.1547,-1141.8865"/>
<polygon fill="#000000" stroke="#000000" points="740.8289,-1145.3233 750.1514,-1140.2894 739.7245,-1138.411 740.8289,-1145.3233"/>
</g>
<!-- 140531499932192 -->
<g id="node34" class="node">
<title>140531499932192</title>
<polygon fill="none" stroke="#000000" points="1446.5,-468 1289.5,-468 1289.5,-432 1446.5,-432 1446.5,-468"/>
<text text-anchor="middle" x="1368" y="-446.3" font-family="Times,serif" font-size="14.00" fill="#000000">TradeConfig:getLongRun</text>
</g>
<!-- 140531499932192&#45;&gt;140531499929952 -->
<g id="edge15" class="edge">
<title>140531499932192&#45;&gt;140531499929952</title>
<path fill="none" stroke="#000000" d="M1289.2217,-455.5509C1232.3584,-459.0842 1153.725,-463 1084.5,-463 439,-463 439,-463 439,-463 382.6238,-463 355.7048,-466.8087 322,-512 289.3022,-555.8411 267.165,-936.3059 260.8503,-1058.4336"/>
<polygon fill="#000000" stroke="#000000" points="257.3371,-1058.6034 260.3219,-1068.7691 264.328,-1058.9609 257.3371,-1058.6034"/>
</g>
<!-- 140531499931856 -->
<g id="node35" class="node">
<title>140531499931856</title>
<polygon fill="none" stroke="#000000" points="1434,-414 1302,-414 1302,-378 1434,-378 1434,-414"/>
<text text-anchor="middle" x="1368" y="-392.3" font-family="Times,serif" font-size="14.00" fill="#000000">TradeConfig:getPage</text>
</g>
<!-- 140531499931856&#45;&gt;140531499929952 -->
<g id="edge26" class="edge">
<title>140531499931856&#45;&gt;140531499929952</title>
<path fill="none" stroke="#000000" d="M1301.8776,-400.7485C1244.4464,-404.4621 1159.0216,-409 1084.5,-409 439,-409 439,-409 439,-409 381.1573,-409 355.068,-418.5418 322,-466 288.039,-514.7397 266.5107,-930.3893 260.6341,-1058.5388"/>
<polygon fill="#000000" stroke="#000000" points="257.1323,-1058.5022 260.1757,-1068.6505 264.1251,-1058.8193 257.1323,-1058.5022"/>
</g>
<!-- 140531499444264 -->
<g id="node36" class="node">
<title>140531499444264</title>
<polygon fill="none" stroke="#000000" points="1436.5,-360 1299.5,-360 1299.5,-324 1436.5,-324 1436.5,-360"/>
<text text-anchor="middle" x="1368" y="-338.3" font-family="Times,serif" font-size="14.00" fill="#000000">TradeConfig:getTrace</text>
</g>
<!-- 140531499444264&#45;&gt;140531499929952 -->
<g id="edge41" class="edge">
<title>140531499444264&#45;&gt;140531499929952</title>
<path fill="none" stroke="#000000" d="M1299.4427,-352.5856C1242.1411,-360.5147 1158.1928,-370 1084.5,-370 439,-370 439,-370 439,-370 383.4444,-370 355.6923,-369.827 322,-414 282.7258,-465.4914 264.6722,-923.2261 260.1637,-1058.5078"/>
<polygon fill="#000000" stroke="#000000" points="256.6567,-1058.6653 259.827,-1068.7747 263.653,-1058.8948 256.6567,-1058.6653"/>
</g>
<!-- 140531499933648 -->
<g id="node37" class="node">
<title>140531499933648</title>
<polygon fill="none" stroke="#000000" points="1478.5,-306 1257.5,-306 1257.5,-270 1478.5,-270 1478.5,-306"/>
<text text-anchor="middle" x="1368" y="-284.3" font-family="Times,serif" font-size="14.00" fill="#000000">TradeConfig:useRemoteEJBInterface</text>
</g>
<!-- 140531499933648&#45;&gt;140531499929952 -->
<g id="edge25" class="edge">
<title>140531499933648&#45;&gt;140531499929952</title>
<path fill="none" stroke="#000000" d="M1257.1714,-304.0443C1204.9109,-310.3004 1141.6242,-316 1084.5,-316 439,-316 439,-316 439,-316 381.5411,-316 354.8703,-323.8717 322,-371 282.421,-427.747 264.4492,-918.1692 260.0852,-1058.5827"/>
<polygon fill="#000000" stroke="#000000" points="256.5792,-1058.728 259.7717,-1068.8304 263.576,-1058.9421 256.5792,-1058.728"/>
</g>
<!-- 140531499443760 -->
<g id="node38" class="node">
<title>140531499443760</title>
<polygon fill="none" stroke="#000000" points="1468,-252 1268,-252 1268,-216 1468,-216 1468,-252"/>
<text text-anchor="middle" x="1368" y="-230.3" font-family="Times,serif" font-size="14.00" fill="#000000">TradeSLSBBean:getAccountData</text>
</g>
<!-- 140531499443760&#45;&gt;140531499929952 -->
<g id="edge40" class="edge">
<title>140531499443760&#45;&gt;140531499929952</title>
<path fill="none" stroke="#000000" d="M1289.0324,-252.0555C1232.4148,-263.439 1154.1583,-276 1084.5,-276 439,-276 439,-276 439,-276 383.2864,-276 355.3776,-276.3913 322,-321 277.4716,-380.5116 262.9313,-911.2257 259.7379,-1058.3387"/>
<polygon fill="#000000" stroke="#000000" points="256.2322,-1058.5772 259.5192,-1068.6492 263.2306,-1058.7257 256.2322,-1058.5772"/>
</g>
<!-- 140531499445440 -->
<g id="node39" class="node">
<title>140531499445440</title>
<polygon fill="none" stroke="#000000" points="1486,-198 1250,-198 1250,-162 1486,-162 1486,-198"/>
<text text-anchor="middle" x="1368" y="-176.3" font-family="Times,serif" font-size="14.00" fill="#000000">TradeSLSBBean:getAccountProfileData</text>
</g>
<!-- 140531499445440&#45;&gt;140531499929952 -->
<g id="edge10" class="edge">
<title>140531499445440&#45;&gt;140531499929952</title>
<path fill="none" stroke="#000000" d="M1279.3461,-198.0541C1223.653,-207.8587 1150.1739,-218 1084.5,-218 439,-218 439,-218 439,-218 380.561,-218 354.3627,-229.3403 322,-278 278.382,-343.5828 263.106,-906.5094 259.7583,-1058.3803"/>
<polygon fill="#000000" stroke="#000000" points="256.2545,-1058.5188 259.5376,-1068.5921 263.2529,-1058.6701 256.2545,-1058.5188"/>
</g>
<!-- 140531499931016 -->
<g id="node40" class="node">
<title>140531499931016</title>
<polygon fill="none" stroke="#000000" points="1469.5,-144 1266.5,-144 1266.5,-108 1469.5,-108 1469.5,-144"/>
<text text-anchor="middle" x="1368" y="-122.3" font-family="Times,serif" font-size="14.00" fill="#000000">TradeSLSBBean:getClosedOrders</text>
</g>
<!-- 140531499931016&#45;&gt;140531499929952 -->
<g id="edge7" class="edge">
<title>140531499931016&#45;&gt;140531499929952</title>
<path fill="none" stroke="#000000" d="M1293.281,-144.0234C1236.3987,-156.1746 1155.9745,-170 1084.5,-170 439,-170 439,-170 439,-170 381.7287,-170 354.5858,-176.9026 322,-224 273.9856,-293.3969 261.849,-900.2852 259.4898,-1058.444"/>
<polygon fill="#000000" stroke="#000000" points="255.9876,-1058.5737 259.3423,-1068.6234 262.9869,-1058.6752 255.9876,-1058.5737"/>
</g>
<!-- 140531499932360 -->
<g id="node41" class="node">
<title>140531499932360</title>
<polygon fill="none" stroke="#000000" points="1483,-90 1253,-90 1253,-54 1483,-54 1483,-90"/>
<text text-anchor="middle" x="1368" y="-68.3" font-family="Times,serif" font-size="14.00" fill="#000000">TradeSLSBBean:updateAccountProfile</text>
</g>
<!-- 140531499932360&#45;&gt;140531499929952 -->
<g id="edge21" class="edge">
<title>140531499932360&#45;&gt;140531499929952</title>
<path fill="none" stroke="#000000" d="M1283.878,-90.0091C1207.6533,-106.0494 1104.3039,-127 1084.5,-127 439,-127 439,-127 439,-127 382.9612,-127 354.9479,-128.6703 322,-174 269.2705,-246.5451 260.5908,-895.6978 259.2382,-1058.8985"/>
<polygon fill="#000000" stroke="#000000" points="255.7381,-1058.907 259.1593,-1068.9342 262.7379,-1058.962 255.7381,-1058.907"/>
</g>
<!-- 140531499932696 -->
<g id="node42" class="node">
<title>140531499932696</title>
<polygon fill="none" stroke="#000000" points="1439,-36 1297,-36 1297,0 1439,0 1439,-36"/>
<text text-anchor="middle" x="1368" y="-14.3" font-family="Times,serif" font-size="14.00" fill="#000000">new AccountDataBean</text>
</g>
<!-- 140531499932696&#45;&gt;140531499929952 -->
<g id="edge37" class="edge">
<title>140531499932696&#45;&gt;140531499929952</title>
<path fill="none" stroke="#000000" d="M1296.9845,-23.8423C1239.6757,-28.0541 1156.9528,-33 1084.5,-33 439,-33 439,-33 439,-33 371.736,-33 352.7244,-69.1631 322,-129 278.929,-212.8823 262.9798,-891.4732 259.6813,-1058.8086"/>
<polygon fill="#000000" stroke="#000000" points="256.1811,-1058.7925 259.4864,-1068.8585 263.1797,-1058.9283 256.1811,-1058.7925"/>
</g>
<!-- 140531499933536 -->
<g id="node43" class="node">
<title>140531499933536</title>
<polygon fill="none" stroke="#000000" points="1457.5,-2196 1278.5,-2196 1278.5,-2160 1457.5,-2160 1457.5,-2196"/>
<text text-anchor="middle" x="1368" y="-2174.3" font-family="Times,serif" font-size="14.00" fill="#000000">new AccountProfileDataBean</text>
</g>
<!-- 140531499933536&#45;&gt;140531499929952 -->
<g id="edge6" class="edge">
<title>140531499933536&#45;&gt;140531499929952</title>
<path fill="none" stroke="#000000" d="M1278.3323,-2173.2197C1222.5737,-2170.6486 1149.386,-2168 1084.5,-2168 439,-2168 439,-2168 439,-2168 371.1687,-2168 352.6634,-2130.5049 322,-2070 279.0668,-1985.2844 263.014,-1301.9511 259.6877,-1133.4501"/>
<polygon fill="#000000" stroke="#000000" points="263.1848,-1133.2604 259.4911,-1123.3303 256.1861,-1133.3964 263.1848,-1133.2604"/>
</g>
<!-- 140531499444432 -->
<g id="node44" class="node">
<title>140531499444432</title>
<polygon fill="none" stroke="#000000" points="1423.5,-2142 1312.5,-2142 1312.5,-2106 1423.5,-2106 1423.5,-2142"/>
<text text-anchor="middle" x="1368" y="-2120.3" font-family="Times,serif" font-size="14.00" fill="#000000">new TradeAction</text>
</g>
<!-- 140531499444432&#45;&gt;140531499929952 -->
<g id="edge22" class="edge">
<title>140531499444432&#45;&gt;140531499929952</title>
<path fill="none" stroke="#000000" d="M1312.3257,-2123.0631C1255.1619,-2122.1829 1163.6236,-2121 1084.5,-2121 439,-2121 439,-2121 439,-2121 367.9306,-2121 352.5748,-2076.1564 322,-2012 283.7472,-1931.7325 264.3173,-1295.5498 259.9576,-1133.4706"/>
<polygon fill="#000000" stroke="#000000" points="263.4455,-1132.9651 259.6809,-1123.0617 256.4479,-1133.1512 263.4455,-1132.9651"/>
</g>
<!-- 140531499313416 -->
<g id="node45" class="node">
<title>140531499313416</title>
<polygon fill="none" stroke="#000000" points="919,-1049 840,-1049 840,-1013 919,-1013 919,-1049"/>
<text text-anchor="middle" x="879.5" y="-1027.3" font-family="Times,serif" font-size="14.00" fill="#000000">init_loop_2</text>
</g>
<!-- 140531499313584 -->
<g id="node59" class="node">
<title>140531499313584</title>
<ellipse fill="none" stroke="#000000" cx="982" cy="-1136" rx="27" ry="27"/>
<text text-anchor="middle" x="982" y="-1132.3" font-family="Times,serif" font-size="14.00" fill="#000000">p_5</text>
</g>
<!-- 140531499313416&#45;&gt;140531499313584 -->
<g id="edge45" class="edge">
<title>140531499313416&#45;&gt;140531499313584</title>
<path fill="none" stroke="#000000" d="M897.3541,-1049.2896C913.4142,-1065.7414 937.2238,-1090.1317 955.5037,-1108.8575"/>
<polygon fill="#000000" stroke="#000000" points="953.4708,-1111.7855 962.9608,-1116.4964 958.4799,-1106.8957 953.4708,-1111.7855"/>
</g>
<!-- 140531499312352 -->
<g id="node46" class="node">
<title>140531499312352</title>
<polygon fill="none" stroke="#000000" points="1124,-1154 1045,-1154 1045,-1118 1124,-1118 1124,-1154"/>
<text text-anchor="middle" x="1084.5" y="-1132.3" font-family="Times,serif" font-size="14.00" fill="#000000">init_loop_4</text>
</g>
<!-- 140531499312408 -->
<g id="node61" class="node">
<title>140531499312408</title>
<ellipse fill="none" stroke="#000000" cx="1187" cy="-1071" rx="27" ry="27"/>
<text text-anchor="middle" x="1187" y="-1067.3" font-family="Times,serif" font-size="14.00" fill="#000000">p_7</text>
</g>
<!-- 140531499312352&#45;&gt;140531499312408 -->
<g id="edge46" class="edge">
<title>140531499312352&#45;&gt;140531499312408</title>
<path fill="none" stroke="#000000" d="M1113.052,-1117.8939C1126.269,-1109.5123 1142.0101,-1099.5302 1155.5652,-1090.9343"/>
<polygon fill="#000000" stroke="#000000" points="1157.538,-1093.8277 1164.1086,-1085.5165 1153.7891,-1087.9162 1157.538,-1093.8277"/>
</g>
<!-- 140531499313360 -->
<g id="node47" class="node">
<title>140531499313360</title>
<polygon fill="none" stroke="#000000" points="906.5,-1154 852.5,-1154 852.5,-1118 906.5,-1118 906.5,-1154"/>
<text text-anchor="middle" x="879.5" y="-1132.3" font-family="Times,serif" font-size="14.00" fill="#000000">loop_3</text>
</g>
<!-- 140531499313360&#45;&gt;140531499313584 -->
<g id="edge47" class="edge">
<title>140531499313360&#45;&gt;140531499313584</title>
<path fill="none" stroke="#000000" d="M906.699,-1136C918.2828,-1136 931.9866,-1136 944.5073,-1136"/>
<polygon fill="#000000" stroke="#000000" points="944.6739,-1139.5001 954.6739,-1136 944.6739,-1132.5001 944.6739,-1139.5001"/>
</g>
<!-- 140531499929840 -->
<g id="node48" class="node">
<title>140531499929840</title>
<polygon fill="none" stroke="#000000" points="1009,-1053 955,-1053 955,-1017 1009,-1017 1009,-1053"/>
<text text-anchor="middle" x="982" y="-1031.3" font-family="Times,serif" font-size="14.00" fill="#000000">loop_5</text>
</g>
<!-- 140531499929840&#45;&gt;140531499312408 -->
<g id="edge48" class="edge">
<title>140531499929840&#45;&gt;140531499312408</title>
<path fill="none" stroke="#000000" d="M1009.1322,-1037.5659C1037.8389,-1040.5284 1084.3742,-1046.038 1124,-1054 1132.9574,-1055.7998 1142.5235,-1058.1528 1151.4259,-1060.5318"/>
<polygon fill="#000000" stroke="#000000" points="1150.5568,-1063.9227 1161.127,-1063.2007 1152.4137,-1057.1734 1150.5568,-1063.9227"/>
</g>
<!-- 140531498988320 -->
<g id="node49" class="node">
<title>140531498988320</title>
<polygon fill="none" stroke="#000000" points="637.5,-1235 578.5,-1235 578.5,-1199 637.5,-1199 637.5,-1235"/>
<text text-anchor="middle" x="608" y="-1213.3" font-family="Times,serif" font-size="14.00" fill="#000000">skip_10</text>
</g>
<!-- 140531499313808 -->
<g id="node58" class="node">
<title>140531499313808</title>
<ellipse fill="none" stroke="#000000" cx="777" cy="-1208" rx="27" ry="27"/>
<text text-anchor="middle" x="777" y="-1204.3" font-family="Times,serif" font-size="14.00" fill="#000000">p_4</text>
</g>
<!-- 140531498988320&#45;&gt;140531499313808 -->
<g id="edge102" class="edge">
<title>140531498988320&#45;&gt;140531499313808</title>
<path fill="none" stroke="#000000" d="M637.8248,-1215.4117C666.221,-1213.8995 709.0535,-1211.6185 739.6961,-1209.9866"/>
<polygon fill="#000000" stroke="#000000" points="740.183,-1213.4657 749.9827,-1209.4388 739.8107,-1206.4756 740.183,-1213.4657"/>
</g>
<!-- 140531499445832 -->
<g id="node50" class="node">
<title>140531499445832</title>
<polygon fill="none" stroke="#000000" points="376,-1042 322,-1042 322,-1006 376,-1006 376,-1042"/>
<text text-anchor="middle" x="349" y="-1020.3" font-family="Times,serif" font-size="14.00" fill="#000000">skip_6</text>
</g>
<!-- 140531499930064 -->
<g id="node63" class="node">
<title>140531499930064</title>
<ellipse fill="none" stroke="#000000" cx="439" cy="-988" rx="27" ry="27"/>
<text text-anchor="middle" x="439" y="-984.3" font-family="Times,serif" font-size="14.00" fill="#000000">p_9</text>
</g>
<!-- 140531499445832&#45;&gt;140531499930064 -->
<g id="edge103" class="edge">
<title>140531499445832&#45;&gt;140531499930064</title>
<path fill="none" stroke="#000000" d="M376.003,-1013.1988C384.9184,-1009.6326 394.9622,-1005.6151 404.3671,-1001.8531"/>
<polygon fill="#000000" stroke="#000000" points="405.8778,-1005.0186 413.8627,-998.0549 403.278,-998.5192 405.8778,-1005.0186"/>
</g>
<!-- 140531499446056 -->
<g id="node51" class="node">
<title>140531499446056</title>
<polygon fill="none" stroke="#000000" points="376,-1132 322,-1132 322,-1096 376,-1096 376,-1132"/>
<text text-anchor="middle" x="349" y="-1110.3" font-family="Times,serif" font-size="14.00" fill="#000000">skip_7</text>
</g>
<!-- 140531499313248 -->
<g id="node60" class="node">
<title>140531499313248</title>
<ellipse fill="none" stroke="#000000" cx="439" cy="-1132" rx="27" ry="27"/>
<text text-anchor="middle" x="439" y="-1128.3" font-family="Times,serif" font-size="14.00" fill="#000000">p_6</text>
</g>
<!-- 140531499446056&#45;&gt;140531499313248 -->
<g id="edge104" class="edge">
<title>140531499446056&#45;&gt;140531499313248</title>
<path fill="none" stroke="#000000" d="M376.003,-1119.4006C384.2647,-1121.0529 393.4954,-1122.8991 402.2888,-1124.6578"/>
<polygon fill="#000000" stroke="#000000" points="401.834,-1128.136 412.3262,-1126.6652 403.2069,-1121.272 401.834,-1128.136"/>
</g>
<!-- 140531498987648 -->
<g id="node52" class="node">
<title>140531498987648</title>
<polygon fill="none" stroke="#000000" points="1111.5,-1099 1057.5,-1099 1057.5,-1063 1111.5,-1063 1111.5,-1099"/>
<text text-anchor="middle" x="1084.5" y="-1077.3" font-family="Times,serif" font-size="14.00" fill="#000000">skip_8</text>
</g>
<!-- 140531498987648&#45;&gt;140531499313248 -->
<g id="edge105" class="edge">
<title>140531498987648&#45;&gt;140531499313248</title>
<path fill="none" stroke="#000000" d="M1057.3783,-1078.7112C956.8998,-1070.5906 606.2945,-1045.5423 502,-1082 488.3449,-1086.7733 475.4248,-1095.8711 464.881,-1105.0118"/>
<polygon fill="#000000" stroke="#000000" points="462.3244,-1102.6069 457.3084,-1111.9392 467.0492,-1107.7718 462.3244,-1102.6069"/>
</g>
<!-- 140531498988152 -->
<g id="node53" class="node">
<title>140531498988152</title>
<polygon fill="none" stroke="#000000" points="635,-1127 581,-1127 581,-1091 635,-1091 635,-1127"/>
<text text-anchor="middle" x="608" y="-1105.3" font-family="Times,serif" font-size="14.00" fill="#000000">skip_9</text>
</g>
<!-- 140531498988152&#45;&gt;140531499313024 -->
<g id="edge106" class="edge">
<title>140531498988152&#45;&gt;140531499313024</title>
<path fill="none" stroke="#000000" d="M635.1528,-1113.338C663.5708,-1117.8782 708.3736,-1125.036 740.0117,-1130.0906"/>
<polygon fill="#000000" stroke="#000000" points="739.7668,-1133.5958 750.1937,-1131.7173 740.8712,-1126.6835 739.7668,-1133.5958"/>
</g>
<!-- 140531499398816 -->
<g id="node54" class="node">
<title>140531499398816</title>
<polygon fill="none" stroke="#000000" points="635,-1035 581,-1035 581,-999 635,-999 635,-1035"/>
<text text-anchor="middle" x="608" y="-1013.3" font-family="Times,serif" font-size="14.00" fill="#000000">tau_1</text>
</g>
<!-- 140531499399208 -->
<g id="node57" class="node">
<title>140531499399208</title>
<ellipse fill="none" stroke="#000000" cx="777" cy="-1026" rx="27" ry="27"/>
<text text-anchor="middle" x="777" y="-1022.3" font-family="Times,serif" font-size="14.00" fill="#000000">p_3</text>
</g>
<!-- 140531499398816&#45;&gt;140531499399208 -->
<g id="edge108" class="edge">
<title>140531499398816&#45;&gt;140531499399208</title>
<path fill="none" stroke="#000000" d="M635.1528,-1018.446C663.487,-1019.9549 708.1095,-1022.3313 739.7314,-1024.0153"/>
<polygon fill="#000000" stroke="#000000" points="739.7426,-1027.5207 749.9146,-1024.5576 740.1149,-1020.5307 739.7426,-1027.5207"/>
</g>
<!-- 140531499176176 -->
<g id="node55" class="node">
<title>140531499176176</title>
<ellipse fill="#00ff00" stroke="#000000" cx="439" cy="-1060" rx="27" ry="27"/>
<text text-anchor="middle" x="439" y="-1056.3" font-family="Times,serif" font-size="14.00" fill="#000000">1</text>
</g>
<!-- 140531499176176&#45;&gt;140531499398816 -->
<g id="edge107" class="edge">
<title>140531499176176&#45;&gt;140531499398816</title>
<path fill="none" stroke="#000000" d="M465.4063,-1053.2813C493.8038,-1046.0558 539.1675,-1034.5136 571.0881,-1026.3918"/>
<polygon fill="#000000" stroke="#000000" points="572.1128,-1029.7427 580.941,-1023.8848 570.3867,-1022.9588 572.1128,-1029.7427"/>
</g>
<!-- 140531499313024&#45;&gt;140531499313360 -->
<g id="edge49" class="edge">
<title>140531499313024&#45;&gt;140531499313360</title>
<path fill="none" stroke="#000000" d="M804.199,-1136C815.7828,-1136 829.4866,-1136 842.0073,-1136"/>
<polygon fill="#000000" stroke="#000000" points="842.1739,-1139.5001 852.1739,-1136 842.1739,-1132.5001 842.1739,-1139.5001"/>
</g>
<!-- 140531499399208&#45;&gt;140531499313416 -->
<g id="edge50" class="edge">
<title>140531499399208&#45;&gt;140531499313416</title>
<path fill="none" stroke="#000000" d="M804.199,-1027.3268C812.0426,-1027.7094 820.8582,-1028.1394 829.6204,-1028.5668"/>
<polygon fill="#000000" stroke="#000000" points="829.6617,-1032.0729 839.8204,-1029.0644 830.0028,-1025.0812 829.6617,-1032.0729"/>
</g>
<!-- 140531499313808&#45;&gt;140531499313136 -->
<g id="edge51" class="edge">
<title>140531499313808&#45;&gt;140531499313136</title>
<path fill="none" stroke="#000000" d="M804.199,-1208C815.7828,-1208 829.4866,-1208 842.0073,-1208"/>
<polygon fill="#000000" stroke="#000000" points="842.1739,-1211.5001 852.1739,-1208 842.1739,-1204.5001 842.1739,-1211.5001"/>
</g>
<!-- 140531499313584&#45;&gt;140531499312352 -->
<g id="edge52" class="edge">
<title>140531499313584&#45;&gt;140531499312352</title>
<path fill="none" stroke="#000000" d="M1009.199,-1136C1017.0426,-1136 1025.8582,-1136 1034.6204,-1136"/>
<polygon fill="#000000" stroke="#000000" points="1034.8204,-1139.5001 1044.8204,-1136 1034.8204,-1132.5001 1034.8204,-1139.5001"/>
</g>
<!-- 140531499313584&#45;&gt;140531498987648 -->
<g id="edge53" class="edge">
<title>140531499313584&#45;&gt;140531498987648</title>
<path fill="none" stroke="#000000" d="M1006.0317,-1123.1049C1018.6519,-1116.3331 1034.3742,-1107.8968 1048.4241,-1100.3578"/>
<polygon fill="#000000" stroke="#000000" points="1050.2093,-1103.372 1057.366,-1095.5597 1046.8996,-1097.2038 1050.2093,-1103.372"/>
</g>
<!-- 140531499313248&#45;&gt;140531498987984 -->
<g id="edge54" class="edge">
<title>140531499313248&#45;&gt;140531498987984</title>
<path fill="none" stroke="#000000" d="M465.7786,-1136.912C475.4727,-1138.6903 487.1083,-1140.8246 499.4944,-1143.0966"/>
<polygon fill="#000000" stroke="#000000" points="499.0985,-1146.5823 509.5659,-1144.944 500.3615,-1139.6972 499.0985,-1146.5823"/>
</g>
<!-- 140531499313248&#45;&gt;140531498988320 -->
<g id="edge55" class="edge">
<title>140531499313248&#45;&gt;140531498988320</title>
<path fill="none" stroke="#000000" d="M456.6166,-1152.7755C468.2915,-1165.2899 484.617,-1180.5767 502,-1190 522.4234,-1201.0715 547.5329,-1207.7272 568.1861,-1211.6592"/>
<polygon fill="#000000" stroke="#000000" points="567.7731,-1215.1402 578.2285,-1213.427 568.9868,-1208.2462 567.7731,-1215.1402"/>
</g>
<!-- 140531499313248&#45;&gt;140531498988152 -->
<g id="edge56" class="edge">
<title>140531499313248&#45;&gt;140531498988152</title>
<path fill="none" stroke="#000000" d="M465.7786,-1128.3556C494.0422,-1124.509 538.8095,-1118.4165 570.5609,-1114.0953"/>
<polygon fill="#000000" stroke="#000000" points="571.3505,-1117.5202 580.7871,-1112.7035 570.4064,-1110.5841 571.3505,-1117.5202"/>
</g>
<!-- 140531499312408&#45;&gt;140531499933032 -->
<g id="edge58" class="edge">
<title>140531499312408&#45;&gt;140531499933032</title>
<path fill="none" stroke="#000000" d="M1174.0777,-1047.2639C1145.9907,-999.2234 1074.4077,-895 982,-895 349,-895 349,-895 349,-895 288.1538,-895 220.3498,-908.2402 170.5672,-920.514"/>
<polygon fill="#000000" stroke="#000000" points="169.705,-917.1217 160.8583,-922.9516 171.4096,-923.911 169.705,-917.1217"/>
</g>
<!-- 140531499312408&#45;&gt;140531499932528 -->
<g id="edge72" class="edge">
<title>140531499312408&#45;&gt;140531499932528</title>
<path fill="none" stroke="#000000" d="M1187.8503,-1098.1463C1192.7732,-1251.7125 1218.5007,-2006.0017 1250,-2043 1255.3642,-2049.3007 1261.8699,-2054.3019 1269.0389,-2058.2544"/>
<polygon fill="#000000" stroke="#000000" points="1267.9039,-2061.59 1278.4384,-2062.7188 1270.9071,-2055.2669 1267.9039,-2061.59"/>
</g>
<!-- 140531499312408&#45;&gt;140531499442920 -->
<g id="edge96" class="edge">
<title>140531499312408&#45;&gt;140531499442920</title>
<path fill="none" stroke="#000000" d="M1187.9631,-1098.3205C1193.3214,-1247.0964 1220.2903,-1954.2376 1250,-1989 1251.7622,-1991.0619 1253.6466,-1992.9845 1255.6365,-1994.7766"/>
<polygon fill="#000000" stroke="#000000" points="1253.7399,-1997.7336 1263.7988,-2001.0608 1258.0103,-1992.187 1253.7399,-1997.7336"/>
</g>
<!-- 140531499312408&#45;&gt;140531499931184 -->
<g id="edge86" class="edge">
<title>140531499312408&#45;&gt;140531499931184</title>
<path fill="none" stroke="#000000" d="M1187.0971,-1098.3275C1187.8416,-1238.2146 1194.2868,-1870.0927 1250,-1935 1253.9898,-1939.6482 1258.6008,-1943.588 1263.6399,-1946.9203"/>
<polygon fill="#000000" stroke="#000000" points="1262.0705,-1950.0545 1272.4902,-1951.9728 1265.541,-1943.9754 1262.0705,-1950.0545"/>
</g>
<!-- 140531499312408&#45;&gt;140531499444768 -->
<g id="edge90" class="edge">
<title>140531499312408&#45;&gt;140531499444768</title>
<path fill="none" stroke="#000000" d="M1187.2388,-1098.3797C1188.6601,-1232.9851 1197.8332,-1820.5207 1250,-1881 1252.7024,-1884.133 1255.687,-1886.9438 1258.8944,-1889.4634"/>
<polygon fill="#000000" stroke="#000000" points="1257.0485,-1892.4402 1267.2924,-1895.1444 1260.9707,-1886.6423 1257.0485,-1892.4402"/>
</g>
<!-- 140531499312408&#45;&gt;140531499445608 -->
<g id="edge88" class="edge">
<title>140531499312408&#45;&gt;140531499445608</title>
<path fill="none" stroke="#000000" d="M1187.398,-1098.2476C1189.5249,-1227.0446 1201.3494,-1770.9109 1250,-1827 1251.7772,-1829.0489 1253.6752,-1830.9599 1255.6771,-1832.7416"/>
<polygon fill="#000000" stroke="#000000" points="1253.804,-1835.7146 1263.8794,-1838.9914 1258.0465,-1830.1467 1253.804,-1835.7146"/>
</g>
<!-- 140531499312408&#45;&gt;140531499930512 -->
<g id="edge69" class="edge">
<title>140531499312408&#45;&gt;140531499930512</title>
<path fill="none" stroke="#000000" d="M1187.585,-1098.3309C1190.4674,-1221.512 1204.8855,-1721.3207 1250,-1773 1251.6002,-1774.833 1253.297,-1776.5555 1255.0784,-1778.1736"/>
<polygon fill="#000000" stroke="#000000" points="1253.346,-1781.2591 1263.3939,-1784.6194 1257.6346,-1775.7266 1253.346,-1781.2591"/>
</g>
<!-- 140531499312408&#45;&gt;140531499443928 -->
<g id="edge64" class="edge">
<title>140531499312408&#45;&gt;140531499443928</title>
<path fill="none" stroke="#000000" d="M1187.7961,-1098.1683C1191.4661,-1215.0959 1208.3836,-1671.683 1250,-1719 1254.4175,-1724.0226 1259.5605,-1728.2137 1265.1805,-1731.7023"/>
<polygon fill="#000000" stroke="#000000" points="1263.901,-1734.9874 1274.3685,-1736.6248 1267.2067,-1728.8171 1263.901,-1734.9874"/>
</g>
<!-- 140531499312408&#45;&gt;140531499930680 -->
<g id="edge60" class="edge">
<title>140531499312408&#45;&gt;140531499930680</title>
<path fill="none" stroke="#000000" d="M1188.0475,-1098.1162C1192.5634,-1208.736 1211.8863,-1622.0458 1250,-1665 1254.6857,-1670.2808 1260.1736,-1674.6406 1266.1725,-1678.2301"/>
<polygon fill="#000000" stroke="#000000" points="1264.8041,-1681.463 1275.2933,-1682.9557 1268.0244,-1675.2476 1264.8041,-1681.463"/>
</g>
<!-- 140531499312408&#45;&gt;140531499442584 -->
<g id="edge85" class="edge">
<title>140531499312408&#45;&gt;140531499442584</title>
<path fill="none" stroke="#000000" d="M1188.3495,-1098.094C1193.7747,-1202.169 1215.3821,-1572.3948 1250,-1611 1250.6445,-1611.7187 1251.3039,-1612.4204 1251.9774,-1613.1053"/>
<polygon fill="#000000" stroke="#000000" points="1249.8577,-1615.9003 1259.7002,-1619.8215 1254.4513,-1610.6183 1249.8577,-1615.9003"/>
</g>
<!-- 140531499312408&#45;&gt;140531499932864 -->
<g id="edge78" class="edge">
<title>140531499312408&#45;&gt;140531499932864</title>
<path fill="none" stroke="#000000" d="M1188.7135,-1098.0108C1195.114,-1195.1356 1218.8593,-1522.7155 1250,-1557 1250.7595,-1557.8362 1251.5391,-1558.6491 1252.3376,-1559.4394"/>
<polygon fill="#000000" stroke="#000000" points="1250.1188,-1562.147 1260.0043,-1565.9586 1254.6534,-1556.8143 1250.1188,-1562.147"/>
</g>
<!-- 140531499312408&#45;&gt;140531499932024 -->
<g id="edge79" class="edge">
<title>140531499312408&#45;&gt;140531499932024</title>
<path fill="none" stroke="#000000" d="M1189.178,-1098.0752C1196.6539,-1188.0432 1222.338,-1473.0277 1250,-1503 1250.7661,-1503.8301 1251.5521,-1504.6372 1252.3567,-1505.422"/>
<polygon fill="#000000" stroke="#000000" points="1250.1615,-1508.1489 1260.071,-1511.8975 1254.662,-1502.7874 1250.1615,-1508.1489"/>
</g>
<!-- 140531499312408&#45;&gt;140531499444096 -->
<g id="edge83" class="edge">
<title>140531499312408&#45;&gt;140531499444096</title>
<path fill="none" stroke="#000000" d="M1187.7224,-1098.0244C1190.3655,-1175.8363 1202.0454,-1398.0888 1250,-1449 1252.0601,-1451.1871 1254.2581,-1453.2141 1256.5722,-1455.0921"/>
<polygon fill="#000000" stroke="#000000" points="1254.663,-1458.0283 1264.8558,-1460.9193 1258.6906,-1452.303 1254.663,-1458.0283"/>
</g>
<!-- 140531499312408&#45;&gt;140531499443592 -->
<g id="edge66" class="edge">
<title>140531499312408&#45;&gt;140531499443592</title>
<path fill="none" stroke="#000000" d="M1188.5573,-1098.1415C1193.1353,-1168.1874 1208.9069,-1352.5325 1250,-1395 1250.8038,-1395.8306 1251.6275,-1396.6381 1252.4698,-1397.4229"/>
<polygon fill="#000000" stroke="#000000" points="1250.5351,-1400.3581 1260.5232,-1403.8921 1254.919,-1394.9008 1250.5351,-1400.3581"/>
</g>
<!-- 140531499312408&#45;&gt;140531499931688 -->
<g id="edge67" class="edge">
<title>140531499312408&#45;&gt;140531499931688</title>
<path fill="none" stroke="#000000" d="M1189.7275,-1098.3063C1196.4329,-1159.8866 1215.7205,-1306.8673 1250,-1341 1250.9424,-1341.9384 1251.9103,-1342.8468 1252.9019,-1343.7263"/>
<polygon fill="#000000" stroke="#000000" points="1250.8792,-1346.5862 1260.9372,-1349.9161 1255.151,-1341.0408 1250.8792,-1346.5862"/>
</g>
<!-- 140531499312408&#45;&gt;140531499442416 -->
<g id="edge98" class="edge">
<title>140531499312408&#45;&gt;140531499442416</title>
<path fill="none" stroke="#000000" d="M1191.3751,-1097.8963C1200.3533,-1149.7944 1222.3595,-1260.9402 1250,-1287 1251.1468,-1288.0812 1252.3277,-1289.1223 1253.5397,-1290.1246"/>
<polygon fill="#000000" stroke="#000000" points="1251.7998,-1293.1849 1261.9589,-1296.1924 1255.8926,-1287.5061 1251.7998,-1293.1849"/>
</g>
<!-- 140531499312408&#45;&gt;140531499444600 -->
<g id="edge71" class="edge">
<title>140531499312408&#45;&gt;140531499444600</title>
<path fill="none" stroke="#000000" d="M1189.7917,-1098.0932C1195.0183,-1134.3701 1209.6922,-1198.1841 1250,-1233 1251.5507,-1234.3394 1253.1544,-1235.6159 1254.8048,-1236.8324"/>
<polygon fill="#000000" stroke="#000000" points="1253.1251,-1239.9149 1263.4176,-1242.428 1256.9388,-1234.045 1253.1251,-1239.9149"/>
</g>
<!-- 140531499312408&#45;&gt;140531499442752 -->
<g id="edge97" class="edge">
<title>140531499312408&#45;&gt;140531499442752</title>
<path fill="none" stroke="#000000" d="M1195.3023,-1096.9624C1204.6224,-1121.8482 1222.1898,-1158.5595 1250,-1179 1251.8574,-1180.3652 1253.7723,-1181.663 1255.7363,-1182.8966"/>
<polygon fill="#000000" stroke="#000000" points="1254.205,-1186.051 1264.6364,-1187.9047 1257.6378,-1179.9504 1254.205,-1186.051"/>
</g>
<!-- 140531499312408&#45;&gt;140531499445104 -->
<g id="edge89" class="edge">
<title>140531499312408&#45;&gt;140531499445104</title>
<path fill="none" stroke="#000000" d="M1205.339,-1090.9767C1217.0456,-1102.5664 1233.1476,-1116.5076 1250,-1125 1253.8004,-1126.9151 1257.7379,-1128.6962 1261.767,-1130.3524"/>
<polygon fill="#000000" stroke="#000000" points="1260.7224,-1133.7 1271.3131,-1133.9949 1263.2179,-1127.1599 1260.7224,-1133.7"/>
</g>
<!-- 140531499312408&#45;&gt;140531499444936 -->
<g id="edge75" class="edge">
<title>140531499312408&#45;&gt;140531499444936</title>
<path fill="none" stroke="#000000" d="M1213.7072,-1074.9839C1225.4038,-1076.7287 1239.9931,-1078.905 1255.4997,-1081.2182"/>
<polygon fill="#000000" stroke="#000000" points="1255.394,-1084.7411 1265.801,-1082.7548 1256.4269,-1077.8177 1255.394,-1084.7411"/>
</g>
<!-- 140531499312408&#45;&gt;140531499445272 -->
<g id="edge59" class="edge">
<title>140531499312408&#45;&gt;140531499445272</title>
<path fill="none" stroke="#000000" d="M1213.7072,-1067.0161C1222.6058,-1065.6886 1233.1787,-1064.1115 1244.5561,-1062.4143"/>
<polygon fill="#000000" stroke="#000000" points="1245.3655,-1065.8324 1254.7396,-1060.8952 1244.3326,-1058.909 1245.3655,-1065.8324"/>
</g>
<!-- 140531499312408&#45;&gt;140531499933368 -->
<g id="edge82" class="edge">
<title>140531499312408&#45;&gt;140531499933368</title>
<path fill="none" stroke="#000000" d="M1205.339,-1051.0233C1217.0456,-1039.4336 1233.1476,-1025.4924 1250,-1017 1253.8004,-1015.0849 1257.7379,-1013.3038 1261.767,-1011.6476"/>
<polygon fill="#000000" stroke="#000000" points="1263.2179,-1014.8401 1271.3131,-1008.0051 1260.7224,-1008.3 1263.2179,-1014.8401"/>
</g>
<!-- 140531499312408&#45;&gt;140531499931520 -->
<g id="edge84" class="edge">
<title>140531499312408&#45;&gt;140531499931520</title>
<path fill="none" stroke="#000000" d="M1195.3023,-1045.0376C1204.6224,-1020.1518 1222.1898,-983.4405 1250,-963 1263.4622,-953.1053 1279.943,-946.7523 1296.2692,-942.6954"/>
<polygon fill="#000000" stroke="#000000" points="1297.3795,-946.0344 1306.3862,-940.4551 1295.866,-939.2 1297.3795,-946.0344"/>
</g>
<!-- 140531499312408&#45;&gt;140531499930344 -->
<g id="edge87" class="edge">
<title>140531499312408&#45;&gt;140531499930344</title>
<path fill="none" stroke="#000000" d="M1189.7917,-1043.9068C1195.0183,-1007.6299 1209.6922,-943.8159 1250,-909 1267.7915,-893.6326 1292.5663,-886.54 1314.824,-883.4248"/>
<polygon fill="#000000" stroke="#000000" points="1315.3114,-886.8917 1324.8392,-882.2579 1314.5013,-879.9388 1315.3114,-886.8917"/>
</g>
<!-- 140531499312408&#45;&gt;140531499930176 -->
<g id="edge73" class="edge">
<title>140531499312408&#45;&gt;140531499930176</title>
<path fill="none" stroke="#000000" d="M1191.3751,-1044.1037C1200.3533,-992.2056 1222.3595,-881.0598 1250,-855 1258.3969,-847.0833 1268.621,-841.3206 1279.5021,-837.1521"/>
<polygon fill="#000000" stroke="#000000" points="1280.8438,-840.3935 1289.2039,-833.8852 1278.6098,-833.7595 1280.8438,-840.3935"/>
</g>
<!-- 140531499312408&#45;&gt;140531499443088 -->
<g id="edge93" class="edge">
<title>140531499312408&#45;&gt;140531499443088</title>
<path fill="none" stroke="#000000" d="M1189.7275,-1043.6937C1196.4329,-982.1134 1215.7205,-835.1327 1250,-801 1255.8638,-795.1613 1262.7153,-790.48 1270.1119,-786.7381"/>
<polygon fill="#000000" stroke="#000000" points="1272.0069,-789.7274 1279.7393,-782.4844 1269.1778,-783.3245 1272.0069,-789.7274"/>
</g>
<!-- 140531499312408&#45;&gt;140531499930848 -->
<g id="edge63" class="edge">
<title>140531499312408&#45;&gt;140531499930848</title>
<path fill="none" stroke="#000000" d="M1188.5573,-1043.8585C1193.1353,-973.8126 1208.9069,-789.4675 1250,-747 1251.0732,-745.8909 1252.1819,-744.8232 1253.3233,-743.7955"/>
<polygon fill="#000000" stroke="#000000" points="1255.5646,-746.4861 1261.2985,-737.5769 1251.2603,-740.9658 1255.5646,-746.4861"/>
</g>
<!-- 140531499312408&#45;&gt;140531499443424 -->
<g id="edge68" class="edge">
<title>140531499312408&#45;&gt;140531499443424</title>
<path fill="none" stroke="#000000" d="M1187.7224,-1043.9756C1190.3655,-966.1637 1202.0454,-743.9112 1250,-693 1255.5217,-687.1378 1262.0344,-682.4257 1269.1175,-678.6506"/>
<polygon fill="#000000" stroke="#000000" points="1270.7695,-681.7425 1278.363,-674.354 1267.8194,-675.3945 1270.7695,-681.7425"/>
</g>
<!-- 140531499312408&#45;&gt;140531499933200 -->
<g id="edge92" class="edge">
<title>140531499312408&#45;&gt;140531499933200</title>
<path fill="none" stroke="#000000" d="M1189.178,-1043.9248C1196.6539,-953.9568 1222.338,-668.9723 1250,-639 1251.8707,-636.973 1253.8598,-635.0829 1255.9502,-633.321"/>
<polygon fill="#000000" stroke="#000000" points="1258.4343,-635.8433 1264.4791,-627.1421 1254.3275,-630.1746 1258.4343,-635.8433"/>
</g>
<!-- 140531499312408&#45;&gt;140531499931352 -->
<g id="edge57" class="edge">
<title>140531499312408&#45;&gt;140531499931352</title>
<path fill="none" stroke="#000000" d="M1188.7135,-1043.9892C1195.114,-946.8644 1218.8593,-619.2845 1250,-585 1254.7942,-579.7218 1260.3904,-575.3684 1266.4918,-571.7874"/>
<polygon fill="#000000" stroke="#000000" points="1268.4305,-574.7282 1275.758,-567.0758 1265.2577,-568.4885 1268.4305,-574.7282"/>
</g>
<!-- 140531499312408&#45;&gt;140531499443256 -->
<g id="edge74" class="edge">
<title>140531499312408&#45;&gt;140531499443256</title>
<path fill="none" stroke="#000000" d="M1188.3495,-1043.906C1193.7747,-939.831 1215.3821,-569.6052 1250,-531 1256.1821,-524.1059 1263.7318,-518.7851 1271.9952,-514.7003"/>
<polygon fill="#000000" stroke="#000000" points="1273.4073,-517.903 1281.2111,-510.737 1270.6418,-511.4724 1273.4073,-517.903"/>
</g>
<!-- 140531499312408&#45;&gt;140531499932192 -->
<g id="edge70" class="edge">
<title>140531499312408&#45;&gt;140531499932192</title>
<path fill="none" stroke="#000000" d="M1188.0475,-1043.8838C1192.5634,-933.264 1211.8863,-519.9542 1250,-477 1258.0093,-467.9736 1268.3624,-461.638 1279.6049,-457.2404"/>
<polygon fill="#000000" stroke="#000000" points="1280.8748,-460.5057 1289.2258,-453.9856 1278.6316,-453.8748 1280.8748,-460.5057"/>
</g>
<!-- 140531499312408&#45;&gt;140531499931856 -->
<g id="edge81" class="edge">
<title>140531499312408&#45;&gt;140531499931856</title>
<path fill="none" stroke="#000000" d="M1187.7961,-1043.8317C1191.4661,-926.9041 1208.3836,-470.317 1250,-423 1260.8041,-410.716 1275.9483,-403.406 1291.7941,-399.181"/>
<polygon fill="#000000" stroke="#000000" points="1292.7393,-402.5556 1301.7185,-396.932 1291.1922,-395.7287 1292.7393,-402.5556"/>
</g>
<!-- 140531499312408&#45;&gt;140531499444264 -->
<g id="edge95" class="edge">
<title>140531499312408&#45;&gt;140531499444264</title>
<path fill="none" stroke="#000000" d="M1187.585,-1043.6691C1190.4674,-920.488 1204.8855,-420.6793 1250,-369 1260.2602,-357.2468 1274.493,-350.0397 1289.5314,-345.7304"/>
<polygon fill="#000000" stroke="#000000" points="1290.6115,-349.0696 1299.4965,-343.2984 1288.9518,-342.2692 1290.6115,-349.0696"/>
</g>
<!-- 140531499312408&#45;&gt;140531499933648 -->
<g id="edge80" class="edge">
<title>140531499312408&#45;&gt;140531499933648</title>
<path fill="none" stroke="#000000" d="M1187.398,-1043.7524C1189.5249,-914.9554 1201.3494,-371.0891 1250,-315 1250.6326,-314.2707 1251.2804,-313.5589 1251.9428,-312.8642"/>
<polygon fill="#000000" stroke="#000000" points="1254.4369,-315.3294 1259.5622,-306.0567 1249.773,-310.1093 1254.4369,-315.3294"/>
</g>
<!-- 140531499312408&#45;&gt;140531499443760 -->
<g id="edge94" class="edge">
<title>140531499312408&#45;&gt;140531499443760</title>
<path fill="none" stroke="#000000" d="M1187.2388,-1043.6203C1188.6601,-909.0149 1197.8332,-321.4793 1250,-261 1252.8568,-257.688 1256.029,-254.7361 1259.4464,-252.1075"/>
<polygon fill="#000000" stroke="#000000" points="1261.4345,-254.9888 1267.8326,-246.544 1257.5647,-249.1558 1261.4345,-254.9888"/>
</g>
<!-- 140531499312408&#45;&gt;140531499445440 -->
<g id="edge65" class="edge">
<title>140531499312408&#45;&gt;140531499445440</title>
<path fill="none" stroke="#000000" d="M1187.0971,-1043.6725C1187.8416,-903.7854 1194.2868,-271.9073 1250,-207 1250.6288,-206.2674 1251.273,-205.5525 1251.9319,-204.8547"/>
<polygon fill="#000000" stroke="#000000" points="1254.4322,-207.3131 1259.5184,-198.019 1249.7464,-202.1127 1254.4322,-207.3131"/>
</g>
<!-- 140531499312408&#45;&gt;140531499931016 -->
<g id="edge62" class="edge">
<title>140531499312408&#45;&gt;140531499931016</title>
<path fill="none" stroke="#000000" d="M1187.9631,-1043.6795C1193.3214,-894.9036 1220.2903,-187.7624 1250,-153 1252.5025,-150.0719 1255.2515,-147.4247 1258.1988,-145.0332"/>
<polygon fill="#000000" stroke="#000000" points="1260.2375,-147.8785 1266.431,-139.2825 1256.2288,-142.14 1260.2375,-147.8785"/>
</g>
<!-- 140531499312408&#45;&gt;140531499932360 -->
<g id="edge76" class="edge">
<title>140531499312408&#45;&gt;140531499932360</title>
<path fill="none" stroke="#000000" d="M1187.8503,-1043.8537C1192.7732,-890.2875 1218.5007,-135.9983 1250,-99 1250.5109,-98.3999 1251.0321,-97.8117 1251.5633,-97.2349"/>
<polygon fill="#000000" stroke="#000000" points="1254.0229,-99.7277 1258.9949,-90.3719 1249.2738,-94.5851 1254.0229,-99.7277"/>
</g>
<!-- 140531499312408&#45;&gt;140531499932696 -->
<g id="edge91" class="edge">
<title>140531499312408&#45;&gt;140531499932696</title>
<path fill="none" stroke="#000000" d="M1187.7532,-1043.9133C1192.272,-885.4609 1216.716,-84.2294 1250,-45 1259.5556,-33.7375 1272.7581,-26.624 1286.885,-22.2301"/>
<polygon fill="#000000" stroke="#000000" points="1288.0112,-25.5525 1296.7794,-19.6052 1286.2162,-18.7866 1288.0112,-25.5525"/>
</g>
<!-- 140531499312408&#45;&gt;140531499933536 -->
<g id="edge61" class="edge">
<title>140531499312408&#45;&gt;140531499933536</title>
<path fill="none" stroke="#000000" d="M1187.6696,-1098.1699C1191.8134,-1261.7182 1214.939,-2109.5479 1250,-2151 1255.3439,-2157.318 1261.8354,-2162.3312 1268.9951,-2166.2915"/>
<polygon fill="#000000" stroke="#000000" points="1267.8521,-2169.6237 1278.3854,-2170.7638 1270.862,-2163.3039 1267.8521,-2169.6237"/>
</g>
<!-- 140531499312408&#45;&gt;140531499444432 -->
<g id="edge77" class="edge">
<title>140531499312408&#45;&gt;140531499444432</title>
<path fill="none" stroke="#000000" d="M1187.7532,-1098.0867C1192.272,-1256.5391 1216.716,-2057.7706 1250,-2097 1263.0269,-2112.3538 1282.8317,-2119.9968 1302.5161,-2123.5501"/>
<polygon fill="#000000" stroke="#000000" points="1302.0453,-2127.0185 1312.4496,-2125.0184 1303.0689,-2120.0937 1302.0453,-2127.0185"/>
</g>
<!-- 140531499929952&#45;&gt;140531499445832 -->
<g id="edge99" class="edge">
<title>140531499929952&#45;&gt;140531499445832</title>
<path fill="none" stroke="#000000" d="M280.3287,-1078.937C291.6711,-1069.8631 305.8184,-1058.5453 318.3196,-1048.5443"/>
<polygon fill="#000000" stroke="#000000" points="320.6288,-1051.1792 326.251,-1042.1992 316.2559,-1045.7131 320.6288,-1051.1792"/>
</g>
<!-- 140531499929952&#45;&gt;140531499446056 -->
<g id="edge100" class="edge">
<title>140531499929952&#45;&gt;140531499446056</title>
<path fill="none" stroke="#000000" d="M285.5162,-1101.3032C293.7151,-1102.943 302.9049,-1104.781 311.6915,-1106.5383"/>
<polygon fill="#000000" stroke="#000000" points="311.2453,-1110.0183 321.7375,-1108.5475 312.6181,-1103.1542 311.2453,-1110.0183"/>
</g>
<!-- 140531499930064&#45;&gt;140531499929840 -->
<g id="edge101" class="edge">
<title>140531499930064&#45;&gt;140531499929840</title>
<path fill="none" stroke="#000000" d="M465.7651,-984.2599C539.7899,-974.8895 752.7731,-954.5386 919,-1004 928.0092,-1006.6807 937.3069,-1010.559 945.9019,-1014.6703"/>
<polygon fill="#000000" stroke="#000000" points="944.3967,-1017.8309 954.9057,-1019.1773 947.5301,-1011.5713 944.3967,-1017.8309"/>
</g>
</g>
</svg>
