<?xml version="1.0" encoding="UTF-8" standalone="no"?>
<!DOCTYPE svg PUBLIC "-//W3C//DTD SVG 1.1//EN"
 "http://www.w3.org/Graphics/SVG/1.1/DTD/svg11.dtd">
<!-- Generated by graphviz version 2.40.1 (20161225.0304)
 -->
<!-- Title: alpha_plus_net_1585281870.7798626 Pages: 1 -->
<svg width="1007pt" height="4598pt"
 viewBox="0.00 0.00 1007.00 4598.00" xmlns="http://www.w3.org/2000/svg" xmlns:xlink="http://www.w3.org/1999/xlink">
<g id="graph0" class="graph" transform="scale(1 1) rotate(0) translate(4 4594)">
<title>alpha_plus_net_1585281870.7798626</title>
<!-- 140543360729216 -->
<g id="node1" class="node">
<title>140543360729216</title>
<polygon fill="none" stroke="#000000" points="224,-36 45,-36 45,0 224,0 224,-36"/>
<text text-anchor="middle" x="134.5" y="-14.3" font-family="Times,serif" font-size="14.00" fill="#000000">AccountDataBean:getBalance</text>
</g>
<!-- 140543360729664 -->
<g id="node2" class="node">
<title>140543360729664</title>
<polygon fill="none" stroke="#000000" points="221,-90 48,-90 48,-54 221,-54 221,-90"/>
<text text-anchor="middle" x="134.5" y="-68.3" font-family="Times,serif" font-size="14.00" fill="#000000">AccountDataBean:getProfile</text>
</g>
<!-- 140543360733080 -->
<g id="node3" class="node">
<title>140543360733080</title>
<polygon fill="none" stroke="#000000" points="221,-144 48,-144 48,-108 221,-108 221,-144"/>
<text text-anchor="middle" x="134.5" y="-122.3" font-family="Times,serif" font-size="14.00" fill="#000000">AccountDataBean:hashCode</text>
</g>
<!-- 140543360781280 -->
<g id="node94" class="node">
<title>140543360781280</title>
<ellipse fill="none" stroke="#000000" cx="399" cy="-154" rx="27" ry="27"/>
<text text-anchor="middle" x="399" y="-150.3" font-family="Times,serif" font-size="14.00" fill="#000000">({&#39;AccountDataBean:hashCode&#39;, &#39;QuoteDataBean:hashCode&#39;}, {&#39;TradeAction:buy&#39;})</text>
</g>
<!-- 140543360733080&#45;&gt;140543360781280 -->
<g id="edge12" class="edge">
<title>140543360733080&#45;&gt;140543360781280</title>
<path fill="none" stroke="#000000" d="M221.1072,-135.1682C268.8273,-140.2199 325.5843,-146.2282 361.9353,-150.0763"/>
<polygon fill="#000000" stroke="#000000" points="361.7624,-153.5775 372.0753,-151.1497 362.4993,-146.6164 361.7624,-153.5775"/>
</g>
<!-- 140543360730784 -->
<g id="node4" class="node">
<title>140543360730784</title>
<polygon fill="none" stroke="#000000" points="223.5,-198 45.5,-198 45.5,-162 223.5,-162 223.5,-198"/>
<text text-anchor="middle" x="134.5" y="-176.3" font-family="Times,serif" font-size="14.00" fill="#000000">AccountDataBean:setBalance</text>
</g>
<!-- 140543360731904 -->
<g id="node5" class="node">
<title>140543360731904</title>
<polygon fill="none" stroke="#000000" points="243.5,-252 25.5,-252 25.5,-216 243.5,-216 243.5,-252"/>
<text text-anchor="middle" x="134.5" y="-230.3" font-family="Times,serif" font-size="14.00" fill="#000000">AccountProfileDataBean:getAccount</text>
</g>
<!-- 140543360778648 -->
<g id="node6" class="node">
<title>140543360778648</title>
<polygon fill="none" stroke="#000000" points="240.5,-306 28.5,-306 28.5,-270 240.5,-270 240.5,-306"/>
<text text-anchor="middle" x="134.5" y="-284.3" font-family="Times,serif" font-size="14.00" fill="#000000">AccountProfileDataBean:getUserID</text>
</g>
<!-- 140543360729776 -->
<g id="node7" class="node">
<title>140543360729776</title>
<polygon fill="none" stroke="#000000" points="493,-396 305,-396 305,-360 493,-360 493,-396"/>
<text text-anchor="middle" x="399" y="-374.3" font-family="Times,serif" font-size="14.00" fill="#000000">DTStreamer3MDB:onMessage</text>
</g>
<!-- 140543360780440 -->
<g id="node95" class="node">
<title>140543360780440</title>
<ellipse fill="none" stroke="#000000" cx="621" cy="-351" rx="27" ry="27"/>
<text text-anchor="middle" x="621" y="-347.3" font-family="Times,serif" font-size="14.00" fill="#000000">({&#39;DTStreamer3MDB:onMessage&#39;, &#39;OrdersAlertFilter:doFilter&#39;}, {&#39;Root&#39;})</text>
</g>
<!-- 140543360729776&#45;&gt;140543360780440 -->
<g id="edge13" class="edge">
<title>140543360729776&#45;&gt;140543360780440</title>
<path fill="none" stroke="#000000" d="M493.148,-366.5496C525.2032,-362.651 559.1782,-358.5189 584.0418,-355.4949"/>
<polygon fill="#000000" stroke="#000000" points="584.6034,-358.9525 594.1076,-354.2707 583.7582,-352.0037 584.6034,-358.9525"/>
</g>
<!-- 140543360778928 -->
<g id="node8" class="node">
<title>140543360778928</title>
<polygon fill="none" stroke="#000000" points="240,-432 29,-432 29,-396 240,-396 240,-432"/>
<text text-anchor="middle" x="134.5" y="-410.3" font-family="Times,serif" font-size="14.00" fill="#000000">FinancialUtils:computeGainPercent</text>
</g>
<!-- 140543360732408 -->
<g id="node9" class="node">
<title>140543360732408</title>
<polygon fill="none" stroke="#000000" points="228.5,-486 40.5,-486 40.5,-450 228.5,-450 228.5,-486"/>
<text text-anchor="middle" x="134.5" y="-464.3" font-family="Times,serif" font-size="14.00" fill="#000000">FinancialUtils:printGainHTML</text>
</g>
<!-- 140543360730728 -->
<g id="node10" class="node">
<title>140543360730728</title>
<polygon fill="none" stroke="#000000" points="248.5,-540 20.5,-540 20.5,-504 248.5,-504 248.5,-540"/>
<text text-anchor="middle" x="134.5" y="-518.3" font-family="Times,serif" font-size="14.00" fill="#000000">FinancialUtils:printGainPercentHTML</text>
</g>
<!-- 140543360778984 -->
<g id="node11" class="node">
<title>140543360778984</title>
<polygon fill="none" stroke="#000000" points="225,-594 44,-594 44,-558 225,-558 225,-594"/>
<text text-anchor="middle" x="134.5" y="-572.3" font-family="Times,serif" font-size="14.00" fill="#000000">FinancialUtils:printQuoteLink</text>
</g>
<!-- 140543357370096 -->
<g id="node12" class="node">
<title>140543357370096</title>
<polygon fill="none" stroke="#000000" points="220,-648 49,-648 49,-612 220,-612 220,-648"/>
<text text-anchor="middle" x="134.5" y="-626.3" font-family="Times,serif" font-size="14.00" fill="#000000">HoldingDataBean:hashCode</text>
</g>
<!-- 140543360781056 -->
<g id="node96" class="node">
<title>140543360781056</title>
<ellipse fill="none" stroke="#000000" cx="399" cy="-657" rx="27" ry="27"/>
<text text-anchor="middle" x="399" y="-653.3" font-family="Times,serif" font-size="14.00" fill="#000000">({&#39;HoldingDataBean:hashCode&#39;, &#39;OrderDataBean:hashCode&#39;}, {&#39;TradeSLSBBean:buy&#39;})</text>
</g>
<!-- 140543357370096&#45;&gt;140543360781056 -->
<g id="edge14" class="edge">
<title>140543357370096&#45;&gt;140543360781056</title>
<path fill="none" stroke="#000000" d="M220.0103,-638.7288C267.8158,-643.6088 324.9724,-649.4433 361.6156,-653.1838"/>
<polygon fill="#000000" stroke="#000000" points="361.5349,-656.6937 371.8387,-654.2274 362.2458,-649.7299 361.5349,-656.6937"/>
</g>
<!-- 140543360729496 -->
<g id="node13" class="node">
<title>140543360729496</title>
<polygon fill="none" stroke="#000000" points="196,-702 73,-702 73,-666 196,-666 196,-702"/>
<text text-anchor="middle" x="134.5" y="-680.3" font-family="Times,serif" font-size="14.00" fill="#000000">Log:doActionTrace</text>
</g>
<!-- 140543360731680 -->
<g id="node14" class="node">
<title>140543360731680</title>
<polygon fill="none" stroke="#000000" points="177.5,-756 91.5,-756 91.5,-720 177.5,-720 177.5,-756"/>
<text text-anchor="middle" x="134.5" y="-734.3" font-family="Times,serif" font-size="14.00" fill="#000000">Log:doTrace</text>
</g>
<!-- 140543360732968 -->
<g id="node15" class="node">
<title>140543360732968</title>
<polygon fill="none" stroke="#000000" points="203.5,-810 65.5,-810 65.5,-774 203.5,-774 203.5,-810"/>
<text text-anchor="middle" x="134.5" y="-788.3" font-family="Times,serif" font-size="14.00" fill="#000000">MDBStats:addTiming</text>
</g>
<!-- 140543360732072 -->
<g id="node16" class="node">
<title>140543360732072</title>
<polygon fill="none" stroke="#000000" points="218,-864 51,-864 51,-828 218,-828 218,-864"/>
<text text-anchor="middle" x="134.5" y="-842.3" font-family="Times,serif" font-size="14.00" fill="#000000">OrderDataBean:getAccount</text>
</g>
<!-- 140543360778816 -->
<g id="node17" class="node">
<title>140543360778816</title>
<polygon fill="none" stroke="#000000" points="240.5,-918 28.5,-918 28.5,-882 240.5,-882 240.5,-918"/>
<text text-anchor="middle" x="134.5" y="-896.3" font-family="Times,serif" font-size="14.00" fill="#000000">OrderDataBean:getCompletionDate</text>
</g>
<!-- 140543360731176 -->
<g id="node18" class="node">
<title>140543360731176</title>
<polygon fill="none" stroke="#000000" points="217.5,-972 51.5,-972 51.5,-936 217.5,-936 217.5,-972"/>
<text text-anchor="middle" x="134.5" y="-950.3" font-family="Times,serif" font-size="14.00" fill="#000000">OrderDataBean:getHolding</text>
</g>
<!-- 140543360732520 -->
<g id="node19" class="node">
<title>140543360732520</title>
<polygon fill="none" stroke="#000000" points="222.5,-1026 46.5,-1026 46.5,-990 222.5,-990 222.5,-1026"/>
<text text-anchor="middle" x="134.5" y="-1004.3" font-family="Times,serif" font-size="14.00" fill="#000000">OrderDataBean:getOpenDate</text>
</g>
<!-- 140543360779320 -->
<g id="node20" class="node">
<title>140543360779320</title>
<polygon fill="none" stroke="#000000" points="221,-1080 48,-1080 48,-1044 221,-1044 221,-1080"/>
<text text-anchor="middle" x="134.5" y="-1058.3" font-family="Times,serif" font-size="14.00" fill="#000000">OrderDataBean:getOrderFee</text>
</g>
<!-- 140543360730280 -->
<g id="node21" class="node">
<title>140543360730280</title>
<polygon fill="none" stroke="#000000" points="218,-1134 51,-1134 51,-1098 218,-1098 218,-1134"/>
<text text-anchor="middle" x="134.5" y="-1112.3" font-family="Times,serif" font-size="14.00" fill="#000000">OrderDataBean:getOrderID</text>
</g>
<!-- 140543360779992 -->
<g id="node97" class="node">
<title>140543360779992</title>
<ellipse fill="none" stroke="#000000" cx="399" cy="-1143" rx="27" ry="27"/>
<text text-anchor="middle" x="399" y="-1139.3" font-family="Times,serif" font-size="14.00" fill="#000000">({&#39;OrderDataBean:getOrderID&#39;}, {&#39;TradeAppServlet:performTask&#39;})</text>
</g>
<!-- 140543360730280&#45;&gt;140543360779992 -->
<g id="edge15" class="edge">
<title>140543360730280&#45;&gt;140543360779992</title>
<path fill="none" stroke="#000000" d="M218.1895,-1124.543C266.4021,-1129.4645 324.6137,-1135.4067 361.7187,-1139.1943"/>
<polygon fill="#000000" stroke="#000000" points="361.7562,-1142.7163 372.0599,-1140.25 362.4671,-1135.7525 361.7562,-1142.7163"/>
</g>
<!-- 140543360778536 -->
<g id="node22" class="node">
<title>140543360778536</title>
<polygon fill="none" stroke="#000000" points="227.5,-1188 41.5,-1188 41.5,-1152 227.5,-1152 227.5,-1188"/>
<text text-anchor="middle" x="134.5" y="-1166.3" font-family="Times,serif" font-size="14.00" fill="#000000">OrderDataBean:getOrderStatus</text>
</g>
<!-- 140543360729160 -->
<g id="node23" class="node">
<title>140543360729160</title>
<polygon fill="none" stroke="#000000" points="225,-1242 44,-1242 44,-1206 225,-1206 225,-1242"/>
<text text-anchor="middle" x="134.5" y="-1220.3" font-family="Times,serif" font-size="14.00" fill="#000000">OrderDataBean:getOrderType</text>
</g>
<!-- 140543360731568 -->
<g id="node24" class="node">
<title>140543360731568</title>
<polygon fill="none" stroke="#000000" points="209,-1296 60,-1296 60,-1260 209,-1260 209,-1296"/>
<text text-anchor="middle" x="134.5" y="-1274.3" font-family="Times,serif" font-size="14.00" fill="#000000">OrderDataBean:getPrice</text>
</g>
<!-- 140543360729944 -->
<g id="node25" class="node">
<title>140543360729944</title>
<polygon fill="none" stroke="#000000" points="219,-1350 50,-1350 50,-1314 219,-1314 219,-1350"/>
<text text-anchor="middle" x="134.5" y="-1328.3" font-family="Times,serif" font-size="14.00" fill="#000000">OrderDataBean:getQuantity</text>
</g>
<!-- 140543360729384 -->
<g id="node26" class="node">
<title>140543360729384</title>
<polygon fill="none" stroke="#000000" points="212,-1404 57,-1404 57,-1368 212,-1368 212,-1404"/>
<text text-anchor="middle" x="134.5" y="-1382.3" font-family="Times,serif" font-size="14.00" fill="#000000">OrderDataBean:getQuote</text>
</g>
<!-- 140543360732688 -->
<g id="node27" class="node">
<title>140543360732688</title>
<polygon fill="none" stroke="#000000" points="216.5,-1458 52.5,-1458 52.5,-1422 216.5,-1422 216.5,-1458"/>
<text text-anchor="middle" x="134.5" y="-1436.3" font-family="Times,serif" font-size="14.00" fill="#000000">OrderDataBean:getSymbol</text>
</g>
<!-- 140543360779376 -->
<g id="node28" class="node">
<title>140543360779376</title>
<polygon fill="none" stroke="#000000" points="998,-684 840,-684 840,-648 998,-648 998,-684"/>
<text text-anchor="middle" x="919" y="-662.3" font-family="Times,serif" font-size="14.00" fill="#000000">OrderDataBean:hashCode</text>
</g>
<!-- 140543360779376&#45;&gt;140543360781056 -->
<g id="edge16" class="edge">
<title>140543360779376&#45;&gt;140543360781056</title>
<path fill="none" stroke="#000000" d="M839.8005,-672.9667C827.4897,-673.812 814.9087,-674.5387 803,-675 681.3135,-679.7135 650.4897,-683.3709 529,-675 497.4343,-672.8251 461.8615,-667.7132 435.9171,-663.4906"/>
<polygon fill="#000000" stroke="#000000" points="436.2159,-659.9924 425.7774,-661.8059 435.0685,-666.8977 436.2159,-659.9924"/>
</g>
<!-- 140543360779264 -->
<g id="node29" class="node">
<title>140543360779264</title>
<polygon fill="none" stroke="#000000" points="203,-1512 66,-1512 66,-1476 203,-1476 203,-1512"/>
<text text-anchor="middle" x="134.5" y="-1490.3" font-family="Times,serif" font-size="14.00" fill="#000000">OrderDataBean:isBuy</text>
</g>
<!-- 140543360779096 -->
<g id="node30" class="node">
<title>140543360779096</title>
<polygon fill="none" stroke="#000000" points="221.5,-1566 47.5,-1566 47.5,-1530 221.5,-1530 221.5,-1566"/>
<text text-anchor="middle" x="134.5" y="-1544.3" font-family="Times,serif" font-size="14.00" fill="#000000">OrderDataBean:isCompleted</text>
</g>
<!-- 140543360729272 -->
<g id="node31" class="node">
<title>140543360729272</title>
<polygon fill="none" stroke="#000000" points="202,-1620 67,-1620 67,-1584 202,-1584 202,-1620"/>
<text text-anchor="middle" x="134.5" y="-1598.3" font-family="Times,serif" font-size="14.00" fill="#000000">OrderDataBean:isSell</text>
</g>
<!-- 140543360778424 -->
<g id="node32" class="node">
<title>140543360778424</title>
<polygon fill="none" stroke="#000000" points="217.5,-1674 51.5,-1674 51.5,-1638 217.5,-1638 217.5,-1674"/>
<text text-anchor="middle" x="134.5" y="-1652.3" font-family="Times,serif" font-size="14.00" fill="#000000">OrderDataBean:setAccount</text>
</g>
<!-- 140543360732856 -->
<g id="node33" class="node">
<title>140543360732856</title>
<polygon fill="none" stroke="#000000" points="239.5,-1728 29.5,-1728 29.5,-1692 239.5,-1692 239.5,-1728"/>
<text text-anchor="middle" x="134.5" y="-1706.3" font-family="Times,serif" font-size="14.00" fill="#000000">OrderDataBean:setCompletionDate</text>
</g>
<!-- 140543360778592 -->
<g id="node34" class="node">
<title>140543360778592</title>
<polygon fill="none" stroke="#000000" points="216.5,-1782 52.5,-1782 52.5,-1746 216.5,-1746 216.5,-1782"/>
<text text-anchor="middle" x="134.5" y="-1760.3" font-family="Times,serif" font-size="14.00" fill="#000000">OrderDataBean:setHolding</text>
</g>
<!-- 140543360779040 -->
<g id="node35" class="node">
<title>140543360779040</title>
<polygon fill="none" stroke="#000000" points="222,-1836 47,-1836 47,-1800 222,-1800 222,-1836"/>
<text text-anchor="middle" x="134.5" y="-1814.3" font-family="Times,serif" font-size="14.00" fill="#000000">OrderDataBean:setOpenDate</text>
</g>
<!-- 140543360729720 -->
<g id="node36" class="node">
<title>140543360729720</title>
<polygon fill="none" stroke="#000000" points="220,-1890 49,-1890 49,-1854 220,-1854 220,-1890"/>
<text text-anchor="middle" x="134.5" y="-1868.3" font-family="Times,serif" font-size="14.00" fill="#000000">OrderDataBean:setOrderFee</text>
</g>
<!-- 140543360731792 -->
<g id="node37" class="node">
<title>140543360731792</title>
<polygon fill="none" stroke="#000000" points="227,-1944 42,-1944 42,-1908 227,-1908 227,-1944"/>
<text text-anchor="middle" x="134.5" y="-1922.3" font-family="Times,serif" font-size="14.00" fill="#000000">OrderDataBean:setOrderStatus</text>
</g>
<!-- 140543360731400 -->
<g id="node38" class="node">
<title>140543360731400</title>
<polygon fill="none" stroke="#000000" points="224,-1998 45,-1998 45,-1962 224,-1962 224,-1998"/>
<text text-anchor="middle" x="134.5" y="-1976.3" font-family="Times,serif" font-size="14.00" fill="#000000">OrderDataBean:setOrderType</text>
</g>
<!-- 140543360778480 -->
<g id="node39" class="node">
<title>140543360778480</title>
<polygon fill="none" stroke="#000000" points="208.5,-2052 60.5,-2052 60.5,-2016 208.5,-2016 208.5,-2052"/>
<text text-anchor="middle" x="134.5" y="-2030.3" font-family="Times,serif" font-size="14.00" fill="#000000">OrderDataBean:setPrice</text>
</g>
<!-- 140543360732016 -->
<g id="node40" class="node">
<title>140543360732016</title>
<polygon fill="none" stroke="#000000" points="218,-2106 51,-2106 51,-2070 218,-2070 218,-2106"/>
<text text-anchor="middle" x="134.5" y="-2084.3" font-family="Times,serif" font-size="14.00" fill="#000000">OrderDataBean:setQuantity</text>
</g>
<!-- 140543360730112 -->
<g id="node41" class="node">
<title>140543360730112</title>
<polygon fill="none" stroke="#000000" points="211,-2160 58,-2160 58,-2124 211,-2124 211,-2160"/>
<text text-anchor="middle" x="134.5" y="-2138.3" font-family="Times,serif" font-size="14.00" fill="#000000">OrderDataBean:setQuote</text>
</g>
<!-- 140543360732240 -->
<g id="node42" class="node">
<title>140543360732240</title>
<polygon fill="none" stroke="#000000" points="477.5,-342 320.5,-342 320.5,-306 477.5,-306 477.5,-342"/>
<text text-anchor="middle" x="399" y="-320.3" font-family="Times,serif" font-size="14.00" fill="#000000">OrdersAlertFilter:doFilter</text>
</g>
<!-- 140543360732240&#45;&gt;140543360780440 -->
<g id="edge17" class="edge">
<title>140543360732240&#45;&gt;140543360780440</title>
<path fill="none" stroke="#000000" d="M477.5813,-333.5572C513.7963,-337.9617 555.058,-342.98 583.9968,-346.4996"/>
<polygon fill="#000000" stroke="#000000" points="583.7193,-349.9916 594.0687,-347.7246 584.5645,-343.0428 583.7193,-349.9916"/>
</g>
<!-- 140543360731512 -->
<g id="node43" class="node">
<title>140543360731512</title>
<polygon fill="none" stroke="#000000" points="216.5,-2214 52.5,-2214 52.5,-2178 216.5,-2178 216.5,-2214"/>
<text text-anchor="middle" x="134.5" y="-2192.3" font-family="Times,serif" font-size="14.00" fill="#000000">QuoteDataBean:getChange</text>
</g>
<!-- 140543360729328 -->
<g id="node44" class="node">
<title>140543360729328</title>
<polygon fill="none" stroke="#000000" points="239,-2268 30,-2268 30,-2232 239,-2232 239,-2268"/>
<text text-anchor="middle" x="134.5" y="-2246.3" font-family="Times,serif" font-size="14.00" fill="#000000">QuoteDataBean:getCompanyName</text>
</g>
<!-- 140543360730224 -->
<g id="node45" class="node">
<title>140543360730224</title>
<polygon fill="none" stroke="#000000" points="209.5,-2322 59.5,-2322 59.5,-2286 209.5,-2286 209.5,-2322"/>
<text text-anchor="middle" x="134.5" y="-2300.3" font-family="Times,serif" font-size="14.00" fill="#000000">QuoteDataBean:getHigh</text>
</g>
<!-- 140543360731064 -->
<g id="node46" class="node">
<title>140543360731064</title>
<polygon fill="none" stroke="#000000" points="208.5,-2376 60.5,-2376 60.5,-2340 208.5,-2340 208.5,-2376"/>
<text text-anchor="middle" x="134.5" y="-2354.3" font-family="Times,serif" font-size="14.00" fill="#000000">QuoteDataBean:getLow</text>
</g>
<!-- 140543360731344 -->
<g id="node47" class="node">
<title>140543360731344</title>
<polygon fill="none" stroke="#000000" points="210.5,-2430 58.5,-2430 58.5,-2394 210.5,-2394 210.5,-2430"/>
<text text-anchor="middle" x="134.5" y="-2408.3" font-family="Times,serif" font-size="14.00" fill="#000000">QuoteDataBean:getOpen</text>
</g>
<!-- 140543360730448 -->
<g id="node48" class="node">
<title>140543360730448</title>
<polygon fill="none" stroke="#000000" points="210,-2484 59,-2484 59,-2448 210,-2448 210,-2484"/>
<text text-anchor="middle" x="134.5" y="-2462.3" font-family="Times,serif" font-size="14.00" fill="#000000">QuoteDataBean:getPrice</text>
</g>
<!-- 140543360779208 -->
<g id="node49" class="node">
<title>140543360779208</title>
<polygon fill="none" stroke="#000000" points="217.5,-2538 51.5,-2538 51.5,-2502 217.5,-2502 217.5,-2538"/>
<text text-anchor="middle" x="134.5" y="-2516.3" font-family="Times,serif" font-size="14.00" fill="#000000">QuoteDataBean:getSymbol</text>
</g>
<!-- 140543360730168 -->
<g id="node50" class="node">
<title>140543360730168</title>
<polygon fill="none" stroke="#000000" points="218,-2592 51,-2592 51,-2556 218,-2556 218,-2592"/>
<text text-anchor="middle" x="134.5" y="-2570.3" font-family="Times,serif" font-size="14.00" fill="#000000">QuoteDataBean:getVolume</text>
</g>
<!-- 140543360732128 -->
<g id="node51" class="node">
<title>140543360732128</title>
<polygon fill="none" stroke="#000000" points="999,-182 839,-182 839,-146 999,-146 999,-182"/>
<text text-anchor="middle" x="919" y="-160.3" font-family="Times,serif" font-size="14.00" fill="#000000">QuoteDataBean:hashCode</text>
</g>
<!-- 140543360732128&#45;&gt;140543360781280 -->
<g id="edge18" class="edge">
<title>140543360732128&#45;&gt;140543360781280</title>
<path fill="none" stroke="#000000" d="M838.8512,-170.2499C826.8419,-170.9768 814.6005,-171.6005 803,-172 681.2944,-176.1918 650.4897,-180.3709 529,-172 497.4343,-169.8251 461.8615,-164.7132 435.9171,-160.4906"/>
<polygon fill="#000000" stroke="#000000" points="436.2159,-156.9924 425.7774,-158.8059 435.0685,-163.8977 436.2159,-156.9924"/>
</g>
<!-- 140543360731288 -->
<g id="node52" class="node">
<title>140543360731288</title>
<polygon fill="none" stroke="#000000" points="216,-2646 53,-2646 53,-2610 216,-2610 216,-2646"/>
<text text-anchor="middle" x="134.5" y="-2624.3" font-family="Times,serif" font-size="14.00" fill="#000000">QuoteDataBean:setChange</text>
</g>
<!-- 140543360730840 -->
<g id="node53" class="node">
<title>140543360730840</title>
<polygon fill="none" stroke="#000000" points="209,-2700 60,-2700 60,-2664 209,-2664 209,-2700"/>
<text text-anchor="middle" x="134.5" y="-2678.3" font-family="Times,serif" font-size="14.00" fill="#000000">QuoteDataBean:setPrice</text>
</g>
<!-- 140543318223280 -->
<g id="node54" class="node">
<title>140543318223280</title>
<polygon fill="none" stroke="#000000" points="217.5,-2754 51.5,-2754 51.5,-2718 217.5,-2718 217.5,-2754"/>
<text text-anchor="middle" x="134.5" y="-2732.3" font-family="Times,serif" font-size="14.00" fill="#000000">QuoteDataBean:setVolume</text>
</g>
<!-- 140543360733024 -->
<g id="node55" class="node">
<title>140543360733024</title>
<polygon fill="none" stroke="#000000" points="255.5,-2808 13.5,-2808 13.5,-2772 255.5,-2772 255.5,-2808"/>
<text text-anchor="middle" x="134.5" y="-2786.3" font-family="Times,serif" font-size="14.00" fill="#000000">RecentStockChangeList:addStockChange</text>
</g>
<!-- 140543360778368 -->
<g id="node56" class="node">
<title>140543360778368</title>
<polygon fill="none" stroke="#000000" points="269,-2862 0,-2862 0,-2826 269,-2826 269,-2862"/>
<text text-anchor="middle" x="134.5" y="-2840.3" font-family="Times,serif" font-size="14.00" fill="#000000">RecentStockChangeList:stockChangesInJSON</text>
</g>
<!-- 140543360732912 -->
<g id="node57" class="node">
<title>140543360732912</title>
<polygon fill="none" stroke="#000000" points="803,-369 749,-369 749,-333 803,-333 803,-369"/>
<text text-anchor="middle" x="776" y="-347.3" font-family="Times,serif" font-size="14.00" fill="#000000">Root</text>
</g>
<!-- 140543360779488 -->
<g id="node101" class="node">
<title>140543360779488</title>
<ellipse fill="#ffa500" stroke="#000000" cx="919" cy="-351" rx="27" ry="27"/>
</g>
<!-- 140543360732912&#45;&gt;140543360779488 -->
<g id="edge19" class="edge">
<title>140543360732912&#45;&gt;140543360779488</title>
<path fill="none" stroke="#000000" d="M803.2338,-351C825.4983,-351 857.2039,-351 881.8066,-351"/>
<polygon fill="#000000" stroke="#000000" points="881.8676,-354.5001 891.8676,-351 881.8676,-347.5001 881.8676,-354.5001"/>
</g>
<!-- 140543360729552 -->
<g id="node58" class="node">
<title>140543360729552</title>
<polygon fill="none" stroke="#000000" points="197,-2916 72,-2916 72,-2880 197,-2880 197,-2916"/>
<text text-anchor="middle" x="134.5" y="-2894.3" font-family="Times,serif" font-size="14.00" fill="#000000">TimerStat:getCount</text>
</g>
<!-- 140543360731960 -->
<g id="node59" class="node">
<title>140543360731960</title>
<polygon fill="none" stroke="#000000" points="193,-2970 76,-2970 76,-2934 193,-2934 193,-2970"/>
<text text-anchor="middle" x="134.5" y="-2948.3" font-family="Times,serif" font-size="14.00" fill="#000000">TimerStat:getMax</text>
</g>
<!-- 140543360732744 -->
<g id="node60" class="node">
<title>140543360732744</title>
<polygon fill="none" stroke="#000000" points="192,-3024 77,-3024 77,-2988 192,-2988 192,-3024"/>
<text text-anchor="middle" x="134.5" y="-3002.3" font-family="Times,serif" font-size="14.00" fill="#000000">TimerStat:getMin</text>
</g>
<!-- 140543360729440 -->
<g id="node61" class="node">
<title>140543360729440</title>
<polygon fill="none" stroke="#000000" points="209,-3078 60,-3078 60,-3042 209,-3042 209,-3078"/>
<text text-anchor="middle" x="134.5" y="-3056.3" font-family="Times,serif" font-size="14.00" fill="#000000">TimerStat:getTotalTime</text>
</g>
<!-- 140543360732296 -->
<g id="node62" class="node">
<title>140543360732296</title>
<polygon fill="none" stroke="#000000" points="196,-3132 73,-3132 73,-3096 196,-3096 196,-3132"/>
<text text-anchor="middle" x="134.5" y="-3110.3" font-family="Times,serif" font-size="14.00" fill="#000000">TimerStat:setCount</text>
</g>
<!-- 140543360778704 -->
<g id="node63" class="node">
<title>140543360778704</title>
<polygon fill="none" stroke="#000000" points="191,-3186 78,-3186 78,-3150 191,-3150 191,-3186"/>
<text text-anchor="middle" x="134.5" y="-3164.3" font-family="Times,serif" font-size="14.00" fill="#000000">TimerStat:setMin</text>
</g>
<!-- 140543360730392 -->
<g id="node64" class="node">
<title>140543360730392</title>
<polygon fill="none" stroke="#000000" points="208.5,-3240 60.5,-3240 60.5,-3204 208.5,-3204 208.5,-3240"/>
<text text-anchor="middle" x="134.5" y="-3218.3" font-family="Times,serif" font-size="14.00" fill="#000000">TimerStat:setTotalTime</text>
</g>
<!-- 140543360779152 -->
<g id="node65" class="node">
<title>140543360779152</title>
<polygon fill="none" stroke="#000000" points="675.5,-163 566.5,-163 566.5,-127 675.5,-127 675.5,-163"/>
<text text-anchor="middle" x="621" y="-141.3" font-family="Times,serif" font-size="14.00" fill="#000000">TradeAction:buy</text>
</g>
<!-- 140543360780608 -->
<g id="node98" class="node">
<title>140543360780608</title>
<ellipse fill="none" stroke="#000000" cx="776" cy="-136" rx="27" ry="27"/>
<text text-anchor="middle" x="776" y="-132.3" font-family="Times,serif" font-size="14.00" fill="#000000">({&#39;TradeAction:buy&#39;}, {&#39;AccountDataBean:hashCode&#39;, &#39;QuoteDataBean:hashCode&#39;})</text>
</g>
<!-- 140543360779152&#45;&gt;140543360780608 -->
<g id="edge20" class="edge">
<title>140543360779152&#45;&gt;140543360780608</title>
<path fill="none" stroke="#000000" d="M675.6472,-141.8269C696.5327,-140.6142 719.8499,-139.2603 738.748,-138.163"/>
<polygon fill="#000000" stroke="#000000" points="738.9685,-141.6562 748.7487,-137.5823 738.5626,-134.668 738.9685,-141.6562"/>
</g>
<!-- 140543360731624 -->
<g id="node66" class="node">
<title>140543360731624</title>
<polygon fill="none" stroke="#000000" points="224,-3294 45,-3294 45,-3258 224,-3258 224,-3294"/>
<text text-anchor="middle" x="134.5" y="-3272.3" font-family="Times,serif" font-size="14.00" fill="#000000">TradeAction:getClosedOrders</text>
</g>
<!-- 140543360729608 -->
<g id="node67" class="node">
<title>140543360729608</title>
<polygon fill="none" stroke="#000000" points="203.5,-3348 65.5,-3348 65.5,-3312 203.5,-3312 203.5,-3348"/>
<text text-anchor="middle" x="134.5" y="-3326.3" font-family="Times,serif" font-size="14.00" fill="#000000">TradeAction:getQuote</text>
</g>
<!-- 140543360731736 -->
<g id="node68" class="node">
<title>140543360731736</title>
<polygon fill="none" stroke="#000000" points="223,-3402 46,-3402 46,-3366 223,-3366 223,-3402"/>
<text text-anchor="middle" x="134.5" y="-3380.3" font-family="Times,serif" font-size="14.00" fill="#000000">TradeAction:orderCompleted</text>
</g>
<!-- 140543360778312 -->
<g id="node69" class="node">
<title>140543360778312</title>
<polygon fill="none" stroke="#000000" points="713,-1156 529,-1156 529,-1120 713,-1120 713,-1156"/>
<text text-anchor="middle" x="621" y="-1134.3" font-family="Times,serif" font-size="14.00" fill="#000000">TradeAppServlet:performTask</text>
</g>
<!-- 140543360779824 -->
<g id="node99" class="node">
<title>140543360779824</title>
<ellipse fill="none" stroke="#000000" cx="776" cy="-1111" rx="27" ry="27"/>
<text text-anchor="middle" x="776" y="-1107.3" font-family="Times,serif" font-size="14.00" fill="#000000">({&#39;TradeAppServlet:performTask&#39;}, {&#39;OrderDataBean:getOrderID&#39;})</text>
</g>
<!-- 140543360778312&#45;&gt;140543360779824 -->
<g id="edge21" class="edge">
<title>140543360778312&#45;&gt;140543360779824</title>
<path fill="none" stroke="#000000" d="M713.4023,-1121.9041C722.5082,-1120.3179 731.3288,-1118.7814 739.3355,-1117.3867"/>
<polygon fill="#000000" stroke="#000000" points="740.0967,-1120.8069 749.3477,-1115.6427 738.8953,-1113.9108 740.0967,-1120.8069"/>
</g>
<!-- 140543360729888 -->
<g id="node70" class="node">
<title>140543360729888</title>
<polygon fill="none" stroke="#000000" points="221,-3456 48,-3456 48,-3420 221,-3420 221,-3456"/>
<text text-anchor="middle" x="134.5" y="-3434.3" font-family="Times,serif" font-size="14.00" fill="#000000">TradeConfig:getActionTrace</text>
</g>
<!-- 140543360731848 -->
<g id="node71" class="node">
<title>140543360731848</title>
<polygon fill="none" stroke="#000000" points="240.5,-3510 28.5,-3510 28.5,-3474 240.5,-3474 240.5,-3510"/>
<text text-anchor="middle" x="134.5" y="-3488.3" font-family="Times,serif" font-size="14.00" fill="#000000">TradeConfig:getDisplayOrderAlerts</text>
</g>
<!-- 140543360733136 -->
<g id="node72" class="node">
<title>140543360733136</title>
<polygon fill="none" stroke="#000000" points="213,-3564 56,-3564 56,-3528 213,-3528 213,-3564"/>
<text text-anchor="middle" x="134.5" y="-3542.3" font-family="Times,serif" font-size="14.00" fill="#000000">TradeConfig:getLongRun</text>
</g>
<!-- 140543360731120 -->
<g id="node73" class="node">
<title>140543360731120</title>
<polygon fill="none" stroke="#000000" points="233.5,-3618 35.5,-3618 35.5,-3582 233.5,-3582 233.5,-3618"/>
<text text-anchor="middle" x="134.5" y="-3596.3" font-family="Times,serif" font-size="14.00" fill="#000000">TradeConfig:getMAX_QUOTES</text>
</g>
<!-- 140543360778872 -->
<g id="node74" class="node">
<title>140543360778872</title>
<polygon fill="none" stroke="#000000" points="213,-3672 56,-3672 56,-3636 213,-3636 213,-3672"/>
<text text-anchor="middle" x="134.5" y="-3650.3" font-family="Times,serif" font-size="14.00" fill="#000000">TradeConfig:getOrderFee</text>
</g>
<!-- 140543360730056 -->
<g id="node75" class="node">
<title>140543360730056</title>
<polygon fill="none" stroke="#000000" points="200.5,-3726 68.5,-3726 68.5,-3690 200.5,-3690 200.5,-3726"/>
<text text-anchor="middle" x="134.5" y="-3704.3" font-family="Times,serif" font-size="14.00" fill="#000000">TradeConfig:getPage</text>
</g>
<!-- 140543360730000 -->
<g id="node76" class="node">
<title>140543360730000</title>
<polygon fill="none" stroke="#000000" points="257.5,-3780 11.5,-3780 11.5,-3744 257.5,-3744 257.5,-3780"/>
<text text-anchor="middle" x="134.5" y="-3758.3" font-family="Times,serif" font-size="14.00" fill="#000000">TradeConfig:getPercentSentToWebsocket</text>
</g>
<!-- 140543360730896 -->
<g id="node77" class="node">
<title>140543360730896</title>
<polygon fill="none" stroke="#000000" points="258.5,-3834 10.5,-3834 10.5,-3798 258.5,-3798 258.5,-3834"/>
<text text-anchor="middle" x="134.5" y="-3812.3" font-family="Times,serif" font-size="14.00" fill="#000000">TradeConfig:getPublishQuotePriceChange</text>
</g>
<!-- 140543360730616 -->
<g id="node78" class="node">
<title>140543360730616</title>
<polygon fill="none" stroke="#000000" points="262.5,-3888 6.5,-3888 6.5,-3852 262.5,-3852 262.5,-3888"/>
<text text-anchor="middle" x="134.5" y="-3866.3" font-family="Times,serif" font-size="14.00" fill="#000000">TradeConfig:getRandomPriceChangeFactor</text>
</g>
<!-- 140543360732464 -->
<g id="node79" class="node">
<title>140543360732464</title>
<polygon fill="none" stroke="#000000" points="203,-3942 66,-3942 66,-3906 203,-3906 203,-3942"/>
<text text-anchor="middle" x="134.5" y="-3920.3" font-family="Times,serif" font-size="14.00" fill="#000000">TradeConfig:getTrace</text>
</g>
<!-- 140543360732632 -->
<g id="node80" class="node">
<title>140543360732632</title>
<polygon fill="none" stroke="#000000" points="240,-3996 29,-3996 29,-3960 240,-3960 240,-3996"/>
<text text-anchor="middle" x="134.5" y="-3974.3" font-family="Times,serif" font-size="14.00" fill="#000000">TradeConfig:getUpdateQuotePrices</text>
</g>
<!-- 140543360732184 -->
<g id="node81" class="node">
<title>140543360732184</title>
<polygon fill="none" stroke="#000000" points="245,-4050 24,-4050 24,-4014 245,-4014 245,-4050"/>
<text text-anchor="middle" x="134.5" y="-4028.3" font-family="Times,serif" font-size="14.00" fill="#000000">TradeConfig:useRemoteEJBInterface</text>
</g>
<!-- 140543360731456 -->
<g id="node82" class="node">
<title>140543360731456</title>
<polygon fill="none" stroke="#000000" points="687,-666 555,-666 555,-630 687,-630 687,-666"/>
<text text-anchor="middle" x="621" y="-644.3" font-family="Times,serif" font-size="14.00" fill="#000000">TradeSLSBBean:buy</text>
</g>
<!-- 140543360780832 -->
<g id="node100" class="node">
<title>140543360780832</title>
<ellipse fill="none" stroke="#000000" cx="776" cy="-639" rx="27" ry="27"/>
<text text-anchor="middle" x="776" y="-635.3" font-family="Times,serif" font-size="14.00" fill="#000000">({&#39;TradeSLSBBean:buy&#39;}, {&#39;HoldingDataBean:hashCode&#39;, &#39;OrderDataBean:hashCode&#39;})</text>
</g>
<!-- 140543360731456&#45;&gt;140543360780832 -->
<g id="edge22" class="edge">
<title>140543360731456&#45;&gt;140543360780832</title>
<path fill="none" stroke="#000000" d="M687.1835,-644.1571C704.8331,-643.1323 723.2829,-642.061 738.7647,-641.1621"/>
<polygon fill="#000000" stroke="#000000" points="739.182,-644.6438 748.9623,-640.5699 738.7762,-637.6556 739.182,-644.6438"/>
</g>
<!-- 140543360730672 -->
<g id="node83" class="node">
<title>140543360730672</title>
<polygon fill="none" stroke="#000000" points="236,-4104 33,-4104 33,-4068 236,-4068 236,-4104"/>
<text text-anchor="middle" x="134.5" y="-4082.3" font-family="Times,serif" font-size="14.00" fill="#000000">TradeSLSBBean:getClosedOrders</text>
</g>
<!-- 140543360730504 -->
<g id="node84" class="node">
<title>140543360730504</title>
<polygon fill="none" stroke="#000000" points="215,-4158 54,-4158 54,-4122 215,-4122 215,-4158"/>
<text text-anchor="middle" x="134.5" y="-4136.3" font-family="Times,serif" font-size="14.00" fill="#000000">TradeSLSBBean:getQuote</text>
</g>
<!-- 140543360730952 -->
<g id="node85" class="node">
<title>140543360730952</title>
<polygon fill="none" stroke="#000000" points="261,-4212 8,-4212 8,-4176 261,-4176 261,-4212"/>
<text text-anchor="middle" x="134.5" y="-4190.3" font-family="Times,serif" font-size="14.00" fill="#000000">TradeSLSBBean:updateQuotePriceVolume</text>
</g>
<!-- 140543360731008 -->
<g id="node86" class="node">
<title>140543360731008</title>
<polygon fill="none" stroke="#000000" points="224,-4266 45,-4266 45,-4230 224,-4230 224,-4266"/>
<text text-anchor="middle" x="134.5" y="-4244.3" font-family="Times,serif" font-size="14.00" fill="#000000">TradeServletAction:doQuotes</text>
</g>
<!-- 140543360732576 -->
<g id="node87" class="node">
<title>140543360732576</title>
<polygon fill="none" stroke="#000000" points="205.5,-4320 63.5,-4320 63.5,-4284 205.5,-4284 205.5,-4320"/>
<text text-anchor="middle" x="134.5" y="-4298.3" font-family="Times,serif" font-size="14.00" fill="#000000">new AccountDataBean</text>
</g>
<!-- 140543360732352 -->
<g id="node88" class="node">
<title>140543360732352</title>
<polygon fill="none" stroke="#000000" points="224,-4374 45,-4374 45,-4338 224,-4338 224,-4374"/>
<text text-anchor="middle" x="134.5" y="-4352.3" font-family="Times,serif" font-size="14.00" fill="#000000">new AccountProfileDataBean</text>
</g>
<!-- 140543360731232 -->
<g id="node89" class="node">
<title>140543360731232</title>
<polygon fill="none" stroke="#000000" points="204.5,-4428 64.5,-4428 64.5,-4392 204.5,-4392 204.5,-4428"/>
<text text-anchor="middle" x="134.5" y="-4406.3" font-family="Times,serif" font-size="14.00" fill="#000000">new HoldingDataBean</text>
</g>
<!-- 140543360730336 -->
<g id="node90" class="node">
<title>140543360730336</title>
<polygon fill="none" stroke="#000000" points="198.5,-4482 70.5,-4482 70.5,-4446 198.5,-4446 198.5,-4482"/>
<text text-anchor="middle" x="134.5" y="-4460.3" font-family="Times,serif" font-size="14.00" fill="#000000">new OrderDataBean</text>
</g>
<!-- 140543360729832 -->
<g id="node91" class="node">
<title>140543360729832</title>
<polygon fill="none" stroke="#000000" points="199,-4536 70,-4536 70,-4500 199,-4500 199,-4536"/>
<text text-anchor="middle" x="134.5" y="-4514.3" font-family="Times,serif" font-size="14.00" fill="#000000">new QuoteDataBean</text>
</g>
<!-- 140543360730560 -->
<g id="node92" class="node">
<title>140543360730560</title>
<polygon fill="none" stroke="#000000" points="190,-4590 79,-4590 79,-4554 190,-4554 190,-4590"/>
<text text-anchor="middle" x="134.5" y="-4568.3" font-family="Times,serif" font-size="14.00" fill="#000000">new TradeAction</text>
</g>
<!-- 140543360780160 -->
<g id="node93" class="node">
<title>140543360780160</title>
<ellipse fill="#00ff00" stroke="#000000" cx="134.5" cy="-351" rx="27" ry="27"/>
<text text-anchor="middle" x="134.5" y="-347.3" font-family="Times,serif" font-size="14.00" fill="#000000">1</text>
</g>
<!-- 140543360780160&#45;&gt;140543360729776 -->
<g id="edge10" class="edge">
<title>140543360780160&#45;&gt;140543360729776</title>
<path fill="none" stroke="#000000" d="M161.8099,-353.7878C193.1709,-356.9891 246.5047,-362.4334 294.6641,-367.3495"/>
<polygon fill="#000000" stroke="#000000" points="294.5487,-370.8558 304.8525,-368.3895 295.2596,-363.892 294.5487,-370.8558"/>
</g>
<!-- 140543360780160&#45;&gt;140543360732240 -->
<g id="edge11" class="edge">
<title>140543360780160&#45;&gt;140543360732240</title>
<path fill="none" stroke="#000000" d="M161.8099,-348.2122C196.5812,-344.6628 258.3641,-338.356 310.157,-333.069"/>
<polygon fill="#000000" stroke="#000000" points="310.7785,-336.5239 320.3714,-332.0264 310.0676,-329.5601 310.7785,-336.5239"/>
</g>
<!-- 140543360781280&#45;&gt;140543360779152 -->
<g id="edge1" class="edge">
<title>140543360781280&#45;&gt;140543360779152</title>
<path fill="none" stroke="#000000" d="M426.2216,-152.8964C458.3782,-151.5928 512.962,-149.3799 556.1797,-147.6279"/>
<polygon fill="#000000" stroke="#000000" points="556.4872,-151.1184 566.3372,-147.2161 556.2036,-144.1241 556.4872,-151.1184"/>
</g>
<!-- 140543360780440&#45;&gt;140543360732912 -->
<g id="edge2" class="edge">
<title>140543360780440&#45;&gt;140543360732912</title>
<path fill="none" stroke="#000000" d="M648.3541,-351C673.4769,-351 710.9202,-351 738.7638,-351"/>
<polygon fill="#000000" stroke="#000000" points="738.9194,-354.5001 748.9194,-351 738.9193,-347.5001 738.9194,-354.5001"/>
</g>
<!-- 140543360781056&#45;&gt;140543360731456 -->
<g id="edge3" class="edge">
<title>140543360781056&#45;&gt;140543360731456</title>
<path fill="none" stroke="#000000" d="M426.2216,-655.8964C455.6363,-654.7039 503.8167,-652.7507 544.8976,-651.0852"/>
<polygon fill="#000000" stroke="#000000" points="545.0499,-654.582 554.8999,-650.6797 544.7663,-647.5878 545.0499,-654.582"/>
</g>
<!-- 140543360779992&#45;&gt;140543360778312 -->
<g id="edge4" class="edge">
<title>140543360779992&#45;&gt;140543360778312</title>
<path fill="none" stroke="#000000" d="M426.2216,-1142.3869C449.5632,-1141.8612 484.7214,-1141.0693 518.7719,-1140.3024"/>
<polygon fill="#000000" stroke="#000000" points="518.8921,-1143.8007 528.8107,-1140.0763 518.7344,-1136.8025 518.8921,-1143.8007"/>
</g>
<!-- 140543360780608&#45;&gt;140543360733080 -->
<g id="edge5" class="edge">
<title>140543360780608&#45;&gt;140543360733080</title>
<path fill="none" stroke="#000000" d="M750.2963,-126.9031C739.0094,-123.368 725.5044,-119.7513 713,-118 533.4194,-92.8488 486.2835,-113.7494 305,-118 281.1518,-118.5592 255.4427,-119.5577 231.4012,-120.664"/>
<polygon fill="#000000" stroke="#000000" points="231.0343,-117.1773 221.21,-121.1438 231.3636,-124.1696 231.0343,-117.1773"/>
</g>
<!-- 140543360780608&#45;&gt;140543360732128 -->
<g id="edge6" class="edge">
<title>140543360780608&#45;&gt;140543360732128</title>
<path fill="none" stroke="#000000" d="M802.5621,-141.201C810.3552,-142.7269 819.346,-144.4873 828.8065,-146.3397"/>
<polygon fill="#000000" stroke="#000000" points="828.3186,-149.8106 838.8048,-148.2974 829.6637,-142.941 828.3186,-149.8106"/>
</g>
<!-- 140543360779824&#45;&gt;140543360730280 -->
<g id="edge7" class="edge">
<title>140543360779824&#45;&gt;140543360730280</title>
<path fill="none" stroke="#000000" d="M748.9146,-1110.1098C676.7449,-1107.8809 473.8042,-1102.5479 305,-1107 280.1286,-1107.656 253.2376,-1108.8493 228.3251,-1110.1571"/>
<polygon fill="#000000" stroke="#000000" points="227.9491,-1106.6721 218.151,-1110.7031 228.3242,-1113.6621 227.9491,-1106.6721"/>
</g>
<!-- 140543360780832&#45;&gt;140543357370096 -->
<g id="edge8" class="edge">
<title>140543360780832&#45;&gt;140543357370096</title>
<path fill="none" stroke="#000000" d="M750.2963,-629.9031C739.0094,-626.368 725.5044,-622.7513 713,-621 533.4194,-595.8488 486.2703,-616.2191 305,-621 280.8873,-621.636 254.8764,-622.777 230.6104,-624.0377"/>
<polygon fill="#000000" stroke="#000000" points="230.1283,-620.5583 220.3282,-624.5843 230.4999,-627.5485 230.1283,-620.5583"/>
</g>
<!-- 140543360780832&#45;&gt;140543360779376 -->
<g id="edge9" class="edge">
<title>140543360780832&#45;&gt;140543360779376</title>
<path fill="none" stroke="#000000" d="M802.5621,-644.0152C810.6189,-645.5364 819.956,-647.2994 829.7687,-649.1521"/>
<polygon fill="#000000" stroke="#000000" points="829.2343,-652.613 839.7101,-651.0292 830.5331,-645.7345 829.2343,-652.613"/>
</g>
</g>
</svg>
