<?xml version="1.0" encoding="UTF-8" standalone="no"?>
<!DOCTYPE svg PUBLIC "-//W3C//DTD SVG 1.1//EN"
 "http://www.w3.org/Graphics/SVG/1.1/DTD/svg11.dtd">
<!-- Generated by graphviz version 2.40.1 (20161225.0304)
 -->
<!-- Title: alpha_classic_net_1585281870.7422466 Pages: 1 -->
<svg width="771pt" height="4868pt"
 viewBox="0.00 0.00 771.00 4868.00" xmlns="http://www.w3.org/2000/svg" xmlns:xlink="http://www.w3.org/1999/xlink">
<g id="graph0" class="graph" transform="scale(1 1) rotate(0) translate(4 4864)">
<title>alpha_classic_net_1585281870.7422466</title>
<!-- 140543357370208 -->
<g id="node1" class="node">
<title>140543357370208</title>
<polygon fill="none" stroke="#000000" points="224,-36 45,-36 45,0 224,0 224,-36"/>
<text text-anchor="middle" x="134.5" y="-14.3" font-family="Times,serif" font-size="14.00" fill="#000000">AccountDataBean:getBalance</text>
</g>
<!-- 140543398433064 -->
<g id="node2" class="node">
<title>140543398433064</title>
<polygon fill="none" stroke="#000000" points="221,-90 48,-90 48,-54 221,-54 221,-90"/>
<text text-anchor="middle" x="134.5" y="-68.3" font-family="Times,serif" font-size="14.00" fill="#000000">AccountDataBean:getProfile</text>
</g>
<!-- 140543398436424 -->
<g id="node3" class="node">
<title>140543398436424</title>
<polygon fill="none" stroke="#000000" points="221,-144 48,-144 48,-108 221,-108 221,-144"/>
<text text-anchor="middle" x="134.5" y="-122.3" font-family="Times,serif" font-size="14.00" fill="#000000">AccountDataBean:hashCode</text>
</g>
<!-- 140543398434184 -->
<g id="node4" class="node">
<title>140543398434184</title>
<polygon fill="none" stroke="#000000" points="223.5,-198 45.5,-198 45.5,-162 223.5,-162 223.5,-198"/>
<text text-anchor="middle" x="134.5" y="-176.3" font-family="Times,serif" font-size="14.00" fill="#000000">AccountDataBean:setBalance</text>
</g>
<!-- 140543398435304 -->
<g id="node5" class="node">
<title>140543398435304</title>
<polygon fill="none" stroke="#000000" points="243.5,-252 25.5,-252 25.5,-216 243.5,-216 243.5,-252"/>
<text text-anchor="middle" x="134.5" y="-230.3" font-family="Times,serif" font-size="14.00" fill="#000000">AccountProfileDataBean:getAccount</text>
</g>
<!-- 140543360712776 -->
<g id="node6" class="node">
<title>140543360712776</title>
<polygon fill="none" stroke="#000000" points="240.5,-306 28.5,-306 28.5,-270 240.5,-270 240.5,-306"/>
<text text-anchor="middle" x="134.5" y="-284.3" font-family="Times,serif" font-size="14.00" fill="#000000">AccountProfileDataBean:getUserID</text>
</g>
<!-- 140543398433176 -->
<g id="node7" class="node">
<title>140543398433176</title>
<polygon fill="none" stroke="#000000" points="493,-396 305,-396 305,-360 493,-360 493,-396"/>
<text text-anchor="middle" x="399" y="-374.3" font-family="Times,serif" font-size="14.00" fill="#000000">DTStreamer3MDB:onMessage</text>
</g>
<!-- 140543360713840 -->
<g id="node94" class="node">
<title>140543360713840</title>
<ellipse fill="none" stroke="#000000" cx="556" cy="-351" rx="27" ry="27"/>
<text text-anchor="middle" x="556" y="-347.3" font-family="Times,serif" font-size="14.00" fill="#000000">({&#39;DTStreamer3MDB:onMessage&#39;, &#39;OrdersAlertFilter:doFilter&#39;}, {&#39;Root&#39;})</text>
</g>
<!-- 140543398433176&#45;&gt;140543360713840 -->
<g id="edge2" class="edge">
<title>140543398433176&#45;&gt;140543360713840</title>
<path fill="none" stroke="#000000" d="M493.0467,-361.8264C502.2192,-360.2489 511.0966,-358.7222 519.1506,-357.3371"/>
<polygon fill="#000000" stroke="#000000" points="519.9576,-360.7498 529.2197,-355.6055 518.7712,-353.8511 519.9576,-360.7498"/>
</g>
<!-- 140543360713000 -->
<g id="node8" class="node">
<title>140543360713000</title>
<polygon fill="none" stroke="#000000" points="240,-432 29,-432 29,-396 240,-396 240,-432"/>
<text text-anchor="middle" x="134.5" y="-410.3" font-family="Times,serif" font-size="14.00" fill="#000000">FinancialUtils:computeGainPercent</text>
</g>
<!-- 140543398435808 -->
<g id="node9" class="node">
<title>140543398435808</title>
<polygon fill="none" stroke="#000000" points="228.5,-486 40.5,-486 40.5,-450 228.5,-450 228.5,-486"/>
<text text-anchor="middle" x="134.5" y="-464.3" font-family="Times,serif" font-size="14.00" fill="#000000">FinancialUtils:printGainHTML</text>
</g>
<!-- 140543398434128 -->
<g id="node10" class="node">
<title>140543398434128</title>
<polygon fill="none" stroke="#000000" points="248.5,-540 20.5,-540 20.5,-504 248.5,-504 248.5,-540"/>
<text text-anchor="middle" x="134.5" y="-518.3" font-family="Times,serif" font-size="14.00" fill="#000000">FinancialUtils:printGainPercentHTML</text>
</g>
<!-- 140543360713056 -->
<g id="node11" class="node">
<title>140543360713056</title>
<polygon fill="none" stroke="#000000" points="225,-594 44,-594 44,-558 225,-558 225,-594"/>
<text text-anchor="middle" x="134.5" y="-572.3" font-family="Times,serif" font-size="14.00" fill="#000000">FinancialUtils:printQuoteLink</text>
</g>
<!-- 140543357370040 -->
<g id="node12" class="node">
<title>140543357370040</title>
<polygon fill="none" stroke="#000000" points="220,-648 49,-648 49,-612 220,-612 220,-648"/>
<text text-anchor="middle" x="134.5" y="-626.3" font-family="Times,serif" font-size="14.00" fill="#000000">HoldingDataBean:hashCode</text>
</g>
<!-- 140543398432896 -->
<g id="node13" class="node">
<title>140543398432896</title>
<polygon fill="none" stroke="#000000" points="196,-702 73,-702 73,-666 196,-666 196,-702"/>
<text text-anchor="middle" x="134.5" y="-680.3" font-family="Times,serif" font-size="14.00" fill="#000000">Log:doActionTrace</text>
</g>
<!-- 140543398435080 -->
<g id="node14" class="node">
<title>140543398435080</title>
<polygon fill="none" stroke="#000000" points="177.5,-756 91.5,-756 91.5,-720 177.5,-720 177.5,-756"/>
<text text-anchor="middle" x="134.5" y="-734.3" font-family="Times,serif" font-size="14.00" fill="#000000">Log:doTrace</text>
</g>
<!-- 140543398436312 -->
<g id="node15" class="node">
<title>140543398436312</title>
<polygon fill="none" stroke="#000000" points="203.5,-810 65.5,-810 65.5,-774 203.5,-774 203.5,-810"/>
<text text-anchor="middle" x="134.5" y="-788.3" font-family="Times,serif" font-size="14.00" fill="#000000">MDBStats:addTiming</text>
</g>
<!-- 140543398435472 -->
<g id="node16" class="node">
<title>140543398435472</title>
<polygon fill="none" stroke="#000000" points="218,-864 51,-864 51,-828 218,-828 218,-864"/>
<text text-anchor="middle" x="134.5" y="-842.3" font-family="Times,serif" font-size="14.00" fill="#000000">OrderDataBean:getAccount</text>
</g>
<!-- 140543360712888 -->
<g id="node17" class="node">
<title>140543360712888</title>
<polygon fill="none" stroke="#000000" points="240.5,-918 28.5,-918 28.5,-882 240.5,-882 240.5,-918"/>
<text text-anchor="middle" x="134.5" y="-896.3" font-family="Times,serif" font-size="14.00" fill="#000000">OrderDataBean:getCompletionDate</text>
</g>
<!-- 140543398434576 -->
<g id="node18" class="node">
<title>140543398434576</title>
<polygon fill="none" stroke="#000000" points="217.5,-972 51.5,-972 51.5,-936 217.5,-936 217.5,-972"/>
<text text-anchor="middle" x="134.5" y="-950.3" font-family="Times,serif" font-size="14.00" fill="#000000">OrderDataBean:getHolding</text>
</g>
<!-- 140543398435920 -->
<g id="node19" class="node">
<title>140543398435920</title>
<polygon fill="none" stroke="#000000" points="222.5,-1026 46.5,-1026 46.5,-990 222.5,-990 222.5,-1026"/>
<text text-anchor="middle" x="134.5" y="-1004.3" font-family="Times,serif" font-size="14.00" fill="#000000">OrderDataBean:getOpenDate</text>
</g>
<!-- 140543360713392 -->
<g id="node20" class="node">
<title>140543360713392</title>
<polygon fill="none" stroke="#000000" points="221,-1080 48,-1080 48,-1044 221,-1044 221,-1080"/>
<text text-anchor="middle" x="134.5" y="-1058.3" font-family="Times,serif" font-size="14.00" fill="#000000">OrderDataBean:getOrderFee</text>
</g>
<!-- 140543398433680 -->
<g id="node21" class="node">
<title>140543398433680</title>
<polygon fill="none" stroke="#000000" points="218,-1134 51,-1134 51,-1098 218,-1098 218,-1134"/>
<text text-anchor="middle" x="134.5" y="-1112.3" font-family="Times,serif" font-size="14.00" fill="#000000">OrderDataBean:getOrderID</text>
</g>
<!-- 140543398436760 -->
<g id="node22" class="node">
<title>140543398436760</title>
<polygon fill="none" stroke="#000000" points="227.5,-1188 41.5,-1188 41.5,-1152 227.5,-1152 227.5,-1188"/>
<text text-anchor="middle" x="134.5" y="-1166.3" font-family="Times,serif" font-size="14.00" fill="#000000">OrderDataBean:getOrderStatus</text>
</g>
<!-- 140543357370152 -->
<g id="node23" class="node">
<title>140543357370152</title>
<polygon fill="none" stroke="#000000" points="225,-1242 44,-1242 44,-1206 225,-1206 225,-1242"/>
<text text-anchor="middle" x="134.5" y="-1220.3" font-family="Times,serif" font-size="14.00" fill="#000000">OrderDataBean:getOrderType</text>
</g>
<!-- 140543398434968 -->
<g id="node24" class="node">
<title>140543398434968</title>
<polygon fill="none" stroke="#000000" points="209,-1296 60,-1296 60,-1260 209,-1260 209,-1296"/>
<text text-anchor="middle" x="134.5" y="-1274.3" font-family="Times,serif" font-size="14.00" fill="#000000">OrderDataBean:getPrice</text>
</g>
<!-- 140543398433344 -->
<g id="node25" class="node">
<title>140543398433344</title>
<polygon fill="none" stroke="#000000" points="219,-1350 50,-1350 50,-1314 219,-1314 219,-1350"/>
<text text-anchor="middle" x="134.5" y="-1328.3" font-family="Times,serif" font-size="14.00" fill="#000000">OrderDataBean:getQuantity</text>
</g>
<!-- 140543357370264 -->
<g id="node26" class="node">
<title>140543357370264</title>
<polygon fill="none" stroke="#000000" points="212,-1404 57,-1404 57,-1368 212,-1368 212,-1404"/>
<text text-anchor="middle" x="134.5" y="-1382.3" font-family="Times,serif" font-size="14.00" fill="#000000">OrderDataBean:getQuote</text>
</g>
<!-- 140543398436088 -->
<g id="node27" class="node">
<title>140543398436088</title>
<polygon fill="none" stroke="#000000" points="216.5,-1458 52.5,-1458 52.5,-1422 216.5,-1422 216.5,-1458"/>
<text text-anchor="middle" x="134.5" y="-1436.3" font-family="Times,serif" font-size="14.00" fill="#000000">OrderDataBean:getSymbol</text>
</g>
<!-- 140543360713448 -->
<g id="node28" class="node">
<title>140543360713448</title>
<polygon fill="none" stroke="#000000" points="213.5,-1512 55.5,-1512 55.5,-1476 213.5,-1476 213.5,-1512"/>
<text text-anchor="middle" x="134.5" y="-1490.3" font-family="Times,serif" font-size="14.00" fill="#000000">OrderDataBean:hashCode</text>
</g>
<!-- 140543360713336 -->
<g id="node29" class="node">
<title>140543360713336</title>
<polygon fill="none" stroke="#000000" points="203,-1566 66,-1566 66,-1530 203,-1530 203,-1566"/>
<text text-anchor="middle" x="134.5" y="-1544.3" font-family="Times,serif" font-size="14.00" fill="#000000">OrderDataBean:isBuy</text>
</g>
<!-- 140543360713168 -->
<g id="node30" class="node">
<title>140543360713168</title>
<polygon fill="none" stroke="#000000" points="221.5,-1620 47.5,-1620 47.5,-1584 221.5,-1584 221.5,-1620"/>
<text text-anchor="middle" x="134.5" y="-1598.3" font-family="Times,serif" font-size="14.00" fill="#000000">OrderDataBean:isCompleted</text>
</g>
<!-- 140543357370320 -->
<g id="node31" class="node">
<title>140543357370320</title>
<polygon fill="none" stroke="#000000" points="202,-1674 67,-1674 67,-1638 202,-1638 202,-1674"/>
<text text-anchor="middle" x="134.5" y="-1652.3" font-family="Times,serif" font-size="14.00" fill="#000000">OrderDataBean:isSell</text>
</g>
<!-- 140543398436648 -->
<g id="node32" class="node">
<title>140543398436648</title>
<polygon fill="none" stroke="#000000" points="217.5,-1728 51.5,-1728 51.5,-1692 217.5,-1692 217.5,-1728"/>
<text text-anchor="middle" x="134.5" y="-1706.3" font-family="Times,serif" font-size="14.00" fill="#000000">OrderDataBean:setAccount</text>
</g>
<!-- 140543398436200 -->
<g id="node33" class="node">
<title>140543398436200</title>
<polygon fill="none" stroke="#000000" points="239.5,-1782 29.5,-1782 29.5,-1746 239.5,-1746 239.5,-1782"/>
<text text-anchor="middle" x="134.5" y="-1760.3" font-family="Times,serif" font-size="14.00" fill="#000000">OrderDataBean:setCompletionDate</text>
</g>
<!-- 140543398436816 -->
<g id="node34" class="node">
<title>140543398436816</title>
<polygon fill="none" stroke="#000000" points="216.5,-1836 52.5,-1836 52.5,-1800 216.5,-1800 216.5,-1836"/>
<text text-anchor="middle" x="134.5" y="-1814.3" font-family="Times,serif" font-size="14.00" fill="#000000">OrderDataBean:setHolding</text>
</g>
<!-- 140543360713112 -->
<g id="node35" class="node">
<title>140543360713112</title>
<polygon fill="none" stroke="#000000" points="222,-1890 47,-1890 47,-1854 222,-1854 222,-1890"/>
<text text-anchor="middle" x="134.5" y="-1868.3" font-family="Times,serif" font-size="14.00" fill="#000000">OrderDataBean:setOpenDate</text>
</g>
<!-- 140543398433120 -->
<g id="node36" class="node">
<title>140543398433120</title>
<polygon fill="none" stroke="#000000" points="220,-1944 49,-1944 49,-1908 220,-1908 220,-1944"/>
<text text-anchor="middle" x="134.5" y="-1922.3" font-family="Times,serif" font-size="14.00" fill="#000000">OrderDataBean:setOrderFee</text>
</g>
<!-- 140543398435192 -->
<g id="node37" class="node">
<title>140543398435192</title>
<polygon fill="none" stroke="#000000" points="227,-1998 42,-1998 42,-1962 227,-1962 227,-1998"/>
<text text-anchor="middle" x="134.5" y="-1976.3" font-family="Times,serif" font-size="14.00" fill="#000000">OrderDataBean:setOrderStatus</text>
</g>
<!-- 140543398434800 -->
<g id="node38" class="node">
<title>140543398434800</title>
<polygon fill="none" stroke="#000000" points="224,-2052 45,-2052 45,-2016 224,-2016 224,-2052"/>
<text text-anchor="middle" x="134.5" y="-2030.3" font-family="Times,serif" font-size="14.00" fill="#000000">OrderDataBean:setOrderType</text>
</g>
<!-- 140543398436704 -->
<g id="node39" class="node">
<title>140543398436704</title>
<polygon fill="none" stroke="#000000" points="208.5,-2106 60.5,-2106 60.5,-2070 208.5,-2070 208.5,-2106"/>
<text text-anchor="middle" x="134.5" y="-2084.3" font-family="Times,serif" font-size="14.00" fill="#000000">OrderDataBean:setPrice</text>
</g>
<!-- 140543398435416 -->
<g id="node40" class="node">
<title>140543398435416</title>
<polygon fill="none" stroke="#000000" points="218,-2160 51,-2160 51,-2124 218,-2124 218,-2160"/>
<text text-anchor="middle" x="134.5" y="-2138.3" font-family="Times,serif" font-size="14.00" fill="#000000">OrderDataBean:setQuantity</text>
</g>
<!-- 140543398433512 -->
<g id="node41" class="node">
<title>140543398433512</title>
<polygon fill="none" stroke="#000000" points="211,-2214 58,-2214 58,-2178 211,-2178 211,-2214"/>
<text text-anchor="middle" x="134.5" y="-2192.3" font-family="Times,serif" font-size="14.00" fill="#000000">OrderDataBean:setQuote</text>
</g>
<!-- 140543398435640 -->
<g id="node42" class="node">
<title>140543398435640</title>
<polygon fill="none" stroke="#000000" points="477.5,-342 320.5,-342 320.5,-306 477.5,-306 477.5,-342"/>
<text text-anchor="middle" x="399" y="-320.3" font-family="Times,serif" font-size="14.00" fill="#000000">OrdersAlertFilter:doFilter</text>
</g>
<!-- 140543398435640&#45;&gt;140543360713840 -->
<g id="edge3" class="edge">
<title>140543398435640&#45;&gt;140543360713840</title>
<path fill="none" stroke="#000000" d="M477.96,-337.5791C492.3967,-340.0619 506.8127,-342.541 519.2547,-344.6807"/>
<polygon fill="#000000" stroke="#000000" points="518.7503,-348.1453 529.1989,-346.3909 519.9368,-341.2466 518.7503,-348.1453"/>
</g>
<!-- 140543398434912 -->
<g id="node43" class="node">
<title>140543398434912</title>
<polygon fill="none" stroke="#000000" points="216.5,-2268 52.5,-2268 52.5,-2232 216.5,-2232 216.5,-2268"/>
<text text-anchor="middle" x="134.5" y="-2246.3" font-family="Times,serif" font-size="14.00" fill="#000000">QuoteDataBean:getChange</text>
</g>
<!-- 140543357369872 -->
<g id="node44" class="node">
<title>140543357369872</title>
<polygon fill="none" stroke="#000000" points="239,-2322 30,-2322 30,-2286 239,-2286 239,-2322"/>
<text text-anchor="middle" x="134.5" y="-2300.3" font-family="Times,serif" font-size="14.00" fill="#000000">QuoteDataBean:getCompanyName</text>
</g>
<!-- 140543398433624 -->
<g id="node45" class="node">
<title>140543398433624</title>
<polygon fill="none" stroke="#000000" points="209.5,-2376 59.5,-2376 59.5,-2340 209.5,-2340 209.5,-2376"/>
<text text-anchor="middle" x="134.5" y="-2354.3" font-family="Times,serif" font-size="14.00" fill="#000000">QuoteDataBean:getHigh</text>
</g>
<!-- 140543398434464 -->
<g id="node46" class="node">
<title>140543398434464</title>
<polygon fill="none" stroke="#000000" points="208.5,-2430 60.5,-2430 60.5,-2394 208.5,-2394 208.5,-2430"/>
<text text-anchor="middle" x="134.5" y="-2408.3" font-family="Times,serif" font-size="14.00" fill="#000000">QuoteDataBean:getLow</text>
</g>
<!-- 140543398434744 -->
<g id="node47" class="node">
<title>140543398434744</title>
<polygon fill="none" stroke="#000000" points="210.5,-2484 58.5,-2484 58.5,-2448 210.5,-2448 210.5,-2484"/>
<text text-anchor="middle" x="134.5" y="-2462.3" font-family="Times,serif" font-size="14.00" fill="#000000">QuoteDataBean:getOpen</text>
</g>
<!-- 140543398433848 -->
<g id="node48" class="node">
<title>140543398433848</title>
<polygon fill="none" stroke="#000000" points="210,-2538 59,-2538 59,-2502 210,-2502 210,-2538"/>
<text text-anchor="middle" x="134.5" y="-2516.3" font-family="Times,serif" font-size="14.00" fill="#000000">QuoteDataBean:getPrice</text>
</g>
<!-- 140543360713280 -->
<g id="node49" class="node">
<title>140543360713280</title>
<polygon fill="none" stroke="#000000" points="217.5,-2592 51.5,-2592 51.5,-2556 217.5,-2556 217.5,-2592"/>
<text text-anchor="middle" x="134.5" y="-2570.3" font-family="Times,serif" font-size="14.00" fill="#000000">QuoteDataBean:getSymbol</text>
</g>
<!-- 140543398433568 -->
<g id="node50" class="node">
<title>140543398433568</title>
<polygon fill="none" stroke="#000000" points="218,-2646 51,-2646 51,-2610 218,-2610 218,-2646"/>
<text text-anchor="middle" x="134.5" y="-2624.3" font-family="Times,serif" font-size="14.00" fill="#000000">QuoteDataBean:getVolume</text>
</g>
<!-- 140543398435528 -->
<g id="node51" class="node">
<title>140543398435528</title>
<polygon fill="none" stroke="#000000" points="214.5,-2700 54.5,-2700 54.5,-2664 214.5,-2664 214.5,-2700"/>
<text text-anchor="middle" x="134.5" y="-2678.3" font-family="Times,serif" font-size="14.00" fill="#000000">QuoteDataBean:hashCode</text>
</g>
<!-- 140543398434688 -->
<g id="node52" class="node">
<title>140543398434688</title>
<polygon fill="none" stroke="#000000" points="216,-2754 53,-2754 53,-2718 216,-2718 216,-2754"/>
<text text-anchor="middle" x="134.5" y="-2732.3" font-family="Times,serif" font-size="14.00" fill="#000000">QuoteDataBean:setChange</text>
</g>
<!-- 140543398434240 -->
<g id="node53" class="node">
<title>140543398434240</title>
<polygon fill="none" stroke="#000000" points="209,-2808 60,-2808 60,-2772 209,-2772 209,-2808"/>
<text text-anchor="middle" x="134.5" y="-2786.3" font-family="Times,serif" font-size="14.00" fill="#000000">QuoteDataBean:setPrice</text>
</g>
<!-- 140543357369368 -->
<g id="node54" class="node">
<title>140543357369368</title>
<polygon fill="none" stroke="#000000" points="217.5,-2862 51.5,-2862 51.5,-2826 217.5,-2826 217.5,-2862"/>
<text text-anchor="middle" x="134.5" y="-2840.3" font-family="Times,serif" font-size="14.00" fill="#000000">QuoteDataBean:setVolume</text>
</g>
<!-- 140543398436368 -->
<g id="node55" class="node">
<title>140543398436368</title>
<polygon fill="none" stroke="#000000" points="255.5,-2916 13.5,-2916 13.5,-2880 255.5,-2880 255.5,-2916"/>
<text text-anchor="middle" x="134.5" y="-2894.3" font-family="Times,serif" font-size="14.00" fill="#000000">RecentStockChangeList:addStockChange</text>
</g>
<!-- 140543398436592 -->
<g id="node56" class="node">
<title>140543398436592</title>
<polygon fill="none" stroke="#000000" points="269,-2970 0,-2970 0,-2934 269,-2934 269,-2970"/>
<text text-anchor="middle" x="134.5" y="-2948.3" font-family="Times,serif" font-size="14.00" fill="#000000">RecentStockChangeList:stockChangesInJSON</text>
</g>
<!-- 140543398436256 -->
<g id="node57" class="node">
<title>140543398436256</title>
<polygon fill="none" stroke="#000000" points="673,-369 619,-369 619,-333 673,-333 673,-369"/>
<text text-anchor="middle" x="646" y="-347.3" font-family="Times,serif" font-size="14.00" fill="#000000">Root</text>
</g>
<!-- 140543360713672 -->
<g id="node95" class="node">
<title>140543360713672</title>
<ellipse fill="#ffa500" stroke="#000000" cx="736" cy="-351" rx="27" ry="27"/>
</g>
<!-- 140543398436256&#45;&gt;140543360713672 -->
<g id="edge4" class="edge">
<title>140543398436256&#45;&gt;140543360713672</title>
<path fill="none" stroke="#000000" d="M673.003,-351C681.0277,-351 689.9665,-351 698.5309,-351"/>
<polygon fill="#000000" stroke="#000000" points="698.7051,-354.5001 708.705,-351 698.705,-347.5001 698.7051,-354.5001"/>
</g>
<!-- 140543398432952 -->
<g id="node58" class="node">
<title>140543398432952</title>
<polygon fill="none" stroke="#000000" points="197,-3024 72,-3024 72,-2988 197,-2988 197,-3024"/>
<text text-anchor="middle" x="134.5" y="-3002.3" font-family="Times,serif" font-size="14.00" fill="#000000">TimerStat:getCount</text>
</g>
<!-- 140543398435360 -->
<g id="node59" class="node">
<title>140543398435360</title>
<polygon fill="none" stroke="#000000" points="193,-3078 76,-3078 76,-3042 193,-3042 193,-3078"/>
<text text-anchor="middle" x="134.5" y="-3056.3" font-family="Times,serif" font-size="14.00" fill="#000000">TimerStat:getMax</text>
</g>
<!-- 140543398436144 -->
<g id="node60" class="node">
<title>140543398436144</title>
<polygon fill="none" stroke="#000000" points="192,-3132 77,-3132 77,-3096 192,-3096 192,-3132"/>
<text text-anchor="middle" x="134.5" y="-3110.3" font-family="Times,serif" font-size="14.00" fill="#000000">TimerStat:getMin</text>
</g>
<!-- 140543398432840 -->
<g id="node61" class="node">
<title>140543398432840</title>
<polygon fill="none" stroke="#000000" points="209,-3186 60,-3186 60,-3150 209,-3150 209,-3186"/>
<text text-anchor="middle" x="134.5" y="-3164.3" font-family="Times,serif" font-size="14.00" fill="#000000">TimerStat:getTotalTime</text>
</g>
<!-- 140543398435696 -->
<g id="node62" class="node">
<title>140543398435696</title>
<polygon fill="none" stroke="#000000" points="196,-3240 73,-3240 73,-3204 196,-3204 196,-3240"/>
<text text-anchor="middle" x="134.5" y="-3218.3" font-family="Times,serif" font-size="14.00" fill="#000000">TimerStat:setCount</text>
</g>
<!-- 140543360712832 -->
<g id="node63" class="node">
<title>140543360712832</title>
<polygon fill="none" stroke="#000000" points="191,-3294 78,-3294 78,-3258 191,-3258 191,-3294"/>
<text text-anchor="middle" x="134.5" y="-3272.3" font-family="Times,serif" font-size="14.00" fill="#000000">TimerStat:setMin</text>
</g>
<!-- 140543398433792 -->
<g id="node64" class="node">
<title>140543398433792</title>
<polygon fill="none" stroke="#000000" points="208.5,-3348 60.5,-3348 60.5,-3312 208.5,-3312 208.5,-3348"/>
<text text-anchor="middle" x="134.5" y="-3326.3" font-family="Times,serif" font-size="14.00" fill="#000000">TimerStat:setTotalTime</text>
</g>
<!-- 140543360713224 -->
<g id="node65" class="node">
<title>140543360713224</title>
<polygon fill="none" stroke="#000000" points="189,-3402 80,-3402 80,-3366 189,-3366 189,-3402"/>
<text text-anchor="middle" x="134.5" y="-3380.3" font-family="Times,serif" font-size="14.00" fill="#000000">TradeAction:buy</text>
</g>
<!-- 140543398435024 -->
<g id="node66" class="node">
<title>140543398435024</title>
<polygon fill="none" stroke="#000000" points="224,-3456 45,-3456 45,-3420 224,-3420 224,-3456"/>
<text text-anchor="middle" x="134.5" y="-3434.3" font-family="Times,serif" font-size="14.00" fill="#000000">TradeAction:getClosedOrders</text>
</g>
<!-- 140543398433008 -->
<g id="node67" class="node">
<title>140543398433008</title>
<polygon fill="none" stroke="#000000" points="203.5,-3510 65.5,-3510 65.5,-3474 203.5,-3474 203.5,-3510"/>
<text text-anchor="middle" x="134.5" y="-3488.3" font-family="Times,serif" font-size="14.00" fill="#000000">TradeAction:getQuote</text>
</g>
<!-- 140543398435136 -->
<g id="node68" class="node">
<title>140543398435136</title>
<polygon fill="none" stroke="#000000" points="223,-3564 46,-3564 46,-3528 223,-3528 223,-3564"/>
<text text-anchor="middle" x="134.5" y="-3542.3" font-family="Times,serif" font-size="14.00" fill="#000000">TradeAction:orderCompleted</text>
</g>
<!-- 140543398436536 -->
<g id="node69" class="node">
<title>140543398436536</title>
<polygon fill="none" stroke="#000000" points="226.5,-3618 42.5,-3618 42.5,-3582 226.5,-3582 226.5,-3618"/>
<text text-anchor="middle" x="134.5" y="-3596.3" font-family="Times,serif" font-size="14.00" fill="#000000">TradeAppServlet:performTask</text>
</g>
<!-- 140543398433288 -->
<g id="node70" class="node">
<title>140543398433288</title>
<polygon fill="none" stroke="#000000" points="221,-3672 48,-3672 48,-3636 221,-3636 221,-3672"/>
<text text-anchor="middle" x="134.5" y="-3650.3" font-family="Times,serif" font-size="14.00" fill="#000000">TradeConfig:getActionTrace</text>
</g>
<!-- 140543398435248 -->
<g id="node71" class="node">
<title>140543398435248</title>
<polygon fill="none" stroke="#000000" points="240.5,-3726 28.5,-3726 28.5,-3690 240.5,-3690 240.5,-3726"/>
<text text-anchor="middle" x="134.5" y="-3704.3" font-family="Times,serif" font-size="14.00" fill="#000000">TradeConfig:getDisplayOrderAlerts</text>
</g>
<!-- 140543398436480 -->
<g id="node72" class="node">
<title>140543398436480</title>
<polygon fill="none" stroke="#000000" points="213,-3780 56,-3780 56,-3744 213,-3744 213,-3780"/>
<text text-anchor="middle" x="134.5" y="-3758.3" font-family="Times,serif" font-size="14.00" fill="#000000">TradeConfig:getLongRun</text>
</g>
<!-- 140543398434520 -->
<g id="node73" class="node">
<title>140543398434520</title>
<polygon fill="none" stroke="#000000" points="233.5,-3834 35.5,-3834 35.5,-3798 233.5,-3798 233.5,-3834"/>
<text text-anchor="middle" x="134.5" y="-3812.3" font-family="Times,serif" font-size="14.00" fill="#000000">TradeConfig:getMAX_QUOTES</text>
</g>
<!-- 140543360712944 -->
<g id="node74" class="node">
<title>140543360712944</title>
<polygon fill="none" stroke="#000000" points="213,-3888 56,-3888 56,-3852 213,-3852 213,-3888"/>
<text text-anchor="middle" x="134.5" y="-3866.3" font-family="Times,serif" font-size="14.00" fill="#000000">TradeConfig:getOrderFee</text>
</g>
<!-- 140543398433456 -->
<g id="node75" class="node">
<title>140543398433456</title>
<polygon fill="none" stroke="#000000" points="200.5,-3942 68.5,-3942 68.5,-3906 200.5,-3906 200.5,-3942"/>
<text text-anchor="middle" x="134.5" y="-3920.3" font-family="Times,serif" font-size="14.00" fill="#000000">TradeConfig:getPage</text>
</g>
<!-- 140543398433400 -->
<g id="node76" class="node">
<title>140543398433400</title>
<polygon fill="none" stroke="#000000" points="257.5,-3996 11.5,-3996 11.5,-3960 257.5,-3960 257.5,-3996"/>
<text text-anchor="middle" x="134.5" y="-3974.3" font-family="Times,serif" font-size="14.00" fill="#000000">TradeConfig:getPercentSentToWebsocket</text>
</g>
<!-- 140543398434296 -->
<g id="node77" class="node">
<title>140543398434296</title>
<polygon fill="none" stroke="#000000" points="258.5,-4050 10.5,-4050 10.5,-4014 258.5,-4014 258.5,-4050"/>
<text text-anchor="middle" x="134.5" y="-4028.3" font-family="Times,serif" font-size="14.00" fill="#000000">TradeConfig:getPublishQuotePriceChange</text>
</g>
<!-- 140543398434016 -->
<g id="node78" class="node">
<title>140543398434016</title>
<polygon fill="none" stroke="#000000" points="262.5,-4104 6.5,-4104 6.5,-4068 262.5,-4068 262.5,-4104"/>
<text text-anchor="middle" x="134.5" y="-4082.3" font-family="Times,serif" font-size="14.00" fill="#000000">TradeConfig:getRandomPriceChangeFactor</text>
</g>
<!-- 140543398435864 -->
<g id="node79" class="node">
<title>140543398435864</title>
<polygon fill="none" stroke="#000000" points="203,-4158 66,-4158 66,-4122 203,-4122 203,-4158"/>
<text text-anchor="middle" x="134.5" y="-4136.3" font-family="Times,serif" font-size="14.00" fill="#000000">TradeConfig:getTrace</text>
</g>
<!-- 140543398436032 -->
<g id="node80" class="node">
<title>140543398436032</title>
<polygon fill="none" stroke="#000000" points="240,-4212 29,-4212 29,-4176 240,-4176 240,-4212"/>
<text text-anchor="middle" x="134.5" y="-4190.3" font-family="Times,serif" font-size="14.00" fill="#000000">TradeConfig:getUpdateQuotePrices</text>
</g>
<!-- 140543398435584 -->
<g id="node81" class="node">
<title>140543398435584</title>
<polygon fill="none" stroke="#000000" points="245,-4266 24,-4266 24,-4230 245,-4230 245,-4266"/>
<text text-anchor="middle" x="134.5" y="-4244.3" font-family="Times,serif" font-size="14.00" fill="#000000">TradeConfig:useRemoteEJBInterface</text>
</g>
<!-- 140543398434856 -->
<g id="node82" class="node">
<title>140543398434856</title>
<polygon fill="none" stroke="#000000" points="200.5,-4320 68.5,-4320 68.5,-4284 200.5,-4284 200.5,-4320"/>
<text text-anchor="middle" x="134.5" y="-4298.3" font-family="Times,serif" font-size="14.00" fill="#000000">TradeSLSBBean:buy</text>
</g>
<!-- 140543398434072 -->
<g id="node83" class="node">
<title>140543398434072</title>
<polygon fill="none" stroke="#000000" points="236,-4374 33,-4374 33,-4338 236,-4338 236,-4374"/>
<text text-anchor="middle" x="134.5" y="-4352.3" font-family="Times,serif" font-size="14.00" fill="#000000">TradeSLSBBean:getClosedOrders</text>
</g>
<!-- 140543398433904 -->
<g id="node84" class="node">
<title>140543398433904</title>
<polygon fill="none" stroke="#000000" points="215,-4428 54,-4428 54,-4392 215,-4392 215,-4428"/>
<text text-anchor="middle" x="134.5" y="-4406.3" font-family="Times,serif" font-size="14.00" fill="#000000">TradeSLSBBean:getQuote</text>
</g>
<!-- 140543398434352 -->
<g id="node85" class="node">
<title>140543398434352</title>
<polygon fill="none" stroke="#000000" points="261,-4482 8,-4482 8,-4446 261,-4446 261,-4482"/>
<text text-anchor="middle" x="134.5" y="-4460.3" font-family="Times,serif" font-size="14.00" fill="#000000">TradeSLSBBean:updateQuotePriceVolume</text>
</g>
<!-- 140543398434408 -->
<g id="node86" class="node">
<title>140543398434408</title>
<polygon fill="none" stroke="#000000" points="224,-4536 45,-4536 45,-4500 224,-4500 224,-4536"/>
<text text-anchor="middle" x="134.5" y="-4514.3" font-family="Times,serif" font-size="14.00" fill="#000000">TradeServletAction:doQuotes</text>
</g>
<!-- 140543398435976 -->
<g id="node87" class="node">
<title>140543398435976</title>
<polygon fill="none" stroke="#000000" points="205.5,-4590 63.5,-4590 63.5,-4554 205.5,-4554 205.5,-4590"/>
<text text-anchor="middle" x="134.5" y="-4568.3" font-family="Times,serif" font-size="14.00" fill="#000000">new AccountDataBean</text>
</g>
<!-- 140543398435752 -->
<g id="node88" class="node">
<title>140543398435752</title>
<polygon fill="none" stroke="#000000" points="224,-4644 45,-4644 45,-4608 224,-4608 224,-4644"/>
<text text-anchor="middle" x="134.5" y="-4622.3" font-family="Times,serif" font-size="14.00" fill="#000000">new AccountProfileDataBean</text>
</g>
<!-- 140543398434632 -->
<g id="node89" class="node">
<title>140543398434632</title>
<polygon fill="none" stroke="#000000" points="204.5,-4698 64.5,-4698 64.5,-4662 204.5,-4662 204.5,-4698"/>
<text text-anchor="middle" x="134.5" y="-4676.3" font-family="Times,serif" font-size="14.00" fill="#000000">new HoldingDataBean</text>
</g>
<!-- 140543398433736 -->
<g id="node90" class="node">
<title>140543398433736</title>
<polygon fill="none" stroke="#000000" points="198.5,-4752 70.5,-4752 70.5,-4716 198.5,-4716 198.5,-4752"/>
<text text-anchor="middle" x="134.5" y="-4730.3" font-family="Times,serif" font-size="14.00" fill="#000000">new OrderDataBean</text>
</g>
<!-- 140543398433232 -->
<g id="node91" class="node">
<title>140543398433232</title>
<polygon fill="none" stroke="#000000" points="199,-4806 70,-4806 70,-4770 199,-4770 199,-4806"/>
<text text-anchor="middle" x="134.5" y="-4784.3" font-family="Times,serif" font-size="14.00" fill="#000000">new QuoteDataBean</text>
</g>
<!-- 140543398433960 -->
<g id="node92" class="node">
<title>140543398433960</title>
<polygon fill="none" stroke="#000000" points="190,-4860 79,-4860 79,-4824 190,-4824 190,-4860"/>
<text text-anchor="middle" x="134.5" y="-4838.3" font-family="Times,serif" font-size="14.00" fill="#000000">new TradeAction</text>
</g>
<!-- 140543360713504 -->
<g id="node93" class="node">
<title>140543360713504</title>
<ellipse fill="#00ff00" stroke="#000000" cx="134.5" cy="-351" rx="27" ry="27"/>
<text text-anchor="middle" x="134.5" y="-347.3" font-family="Times,serif" font-size="14.00" fill="#000000">1</text>
</g>
<!-- 140543360713504&#45;&gt;140543398433176 -->
<g id="edge5" class="edge">
<title>140543360713504&#45;&gt;140543398433176</title>
<path fill="none" stroke="#000000" d="M161.8099,-353.7878C193.1709,-356.9891 246.5047,-362.4334 294.6641,-367.3495"/>
<polygon fill="#000000" stroke="#000000" points="294.5487,-370.8558 304.8525,-368.3895 295.2596,-363.892 294.5487,-370.8558"/>
</g>
<!-- 140543360713504&#45;&gt;140543398435640 -->
<g id="edge6" class="edge">
<title>140543360713504&#45;&gt;140543398435640</title>
<path fill="none" stroke="#000000" d="M161.8099,-348.2122C196.5812,-344.6628 258.3641,-338.356 310.157,-333.069"/>
<polygon fill="#000000" stroke="#000000" points="310.7785,-336.5239 320.3714,-332.0264 310.0676,-329.5601 310.7785,-336.5239"/>
</g>
<!-- 140543360713840&#45;&gt;140543398436256 -->
<g id="edge1" class="edge">
<title>140543360713840&#45;&gt;140543398436256</title>
<path fill="none" stroke="#000000" d="M583.003,-351C591.0277,-351 599.9665,-351 608.5309,-351"/>
<polygon fill="#000000" stroke="#000000" points="608.7051,-354.5001 618.705,-351 608.705,-347.5001 608.7051,-354.5001"/>
</g>
</g>
</svg>
