<?xml version="1.0" encoding="UTF-8" standalone="no"?>
<!DOCTYPE svg PUBLIC "-//W3C//DTD SVG 1.1//EN"
 "http://www.w3.org/Graphics/SVG/1.1/DTD/svg11.dtd">
<!-- Generated by graphviz version 2.40.1 (20161225.0304)
 -->
<!-- Title: %3 Pages: 1 -->
<svg width="1311pt" height="660pt"
 viewBox="0.00 0.00 1311.00 660.00" xmlns="http://www.w3.org/2000/svg" xmlns:xlink="http://www.w3.org/1999/xlink">
<g id="graph0" class="graph" transform="scale(1 1) rotate(0) translate(4 656)">
<title>%3</title>
<!-- 140543357301480 -->
<g id="node1" class="node">
<title>140543357301480</title>
<polygon fill="none" stroke="#000000" points="458,-529 270,-529 270,-493 458,-493 458,-529"/>
<text text-anchor="middle" x="364" y="-507.3" font-family="Times,serif" font-size="14.00" fill="#000000">DTStreamer3MDB:onMessage</text>
</g>
<!-- 140543357311296 -->
<g id="node29" class="node">
<title>140543357311296</title>
<ellipse fill="none" stroke="#000000" cx="521" cy="-415" rx="27" ry="27"/>
<text text-anchor="middle" x="521" y="-411.3" font-family="Times,serif" font-size="14.00" fill="#000000">intplace_DTStreamer3MDB:onMessage</text>
</g>
<!-- 140543357301480&#45;&gt;140543357311296 -->
<g id="edge1" class="edge">
<title>140543357301480&#45;&gt;140543357311296</title>
<path fill="none" stroke="#000000" d="M393.5305,-492.9431C420.7821,-476.2797 461.1434,-451.6002 489.1185,-434.4944"/>
<polygon fill="#000000" stroke="#000000" points="491.0282,-437.4292 497.7338,-429.2265 487.3764,-431.4572 491.0282,-437.4292"/>
</g>
<!-- 140543357302152 -->
<g id="node2" class="node">
<title>140543357302152</title>
<polygon fill="none" stroke="#000000" points="442.5,-109 285.5,-109 285.5,-73 442.5,-73 442.5,-109"/>
<text text-anchor="middle" x="364" y="-87.3" font-family="Times,serif" font-size="14.00" fill="#000000">OrdersAlertFilter:doFilter</text>
</g>
<!-- 140543398473856 -->
<g id="node30" class="node">
<title>140543398473856</title>
<ellipse fill="none" stroke="#000000" cx="521" cy="-91" rx="27" ry="27"/>
<text text-anchor="middle" x="521" y="-87.3" font-family="Times,serif" font-size="14.00" fill="#000000">intplace_OrdersAlertFilter:doFilter</text>
</g>
<!-- 140543357302152&#45;&gt;140543398473856 -->
<g id="edge2" class="edge">
<title>140543357302152&#45;&gt;140543398473856</title>
<path fill="none" stroke="#000000" d="M442.96,-91C457.1342,-91 471.2884,-91 483.5741,-91"/>
<polygon fill="#000000" stroke="#000000" points="483.8431,-94.5001 493.8431,-91 483.8431,-87.5001 483.8431,-94.5001"/>
</g>
<!-- 140543357302264 -->
<g id="node3" class="node">
<title>140543357302264</title>
<polygon fill="none" stroke="#000000" points="1019.5,-289 777.5,-289 777.5,-253 1019.5,-253 1019.5,-289"/>
<text text-anchor="middle" x="898.5" y="-267.3" font-family="Times,serif" font-size="14.00" fill="#000000">RecentStockChangeList:addStockChange</text>
</g>
<!-- 140543357304000 -->
<g id="node40" class="node">
<title>140543357304000</title>
<ellipse fill="none" stroke="#000000" cx="1096" cy="-271" rx="27" ry="27"/>
<text text-anchor="middle" x="1096" y="-267.3" font-family="Times,serif" font-size="14.00" fill="#000000">splace_in_DTStreamer3MDB:onMessage_0</text>
</g>
<!-- 140543357302264&#45;&gt;140543357304000 -->
<g id="edge3" class="edge">
<title>140543357302264&#45;&gt;140543357304000</title>
<path fill="none" stroke="#000000" d="M1019.6413,-271C1033.7019,-271 1047.1231,-271 1058.6816,-271"/>
<polygon fill="#000000" stroke="#000000" points="1058.7378,-274.5001 1068.7377,-271 1058.7377,-267.5001 1058.7378,-274.5001"/>
</g>
<!-- 140543357303944 -->
<g id="node4" class="node">
<title>140543357303944</title>
<polygon fill="none" stroke="#000000" points="1033,-577 764,-577 764,-541 1033,-541 1033,-577"/>
<text text-anchor="middle" x="898.5" y="-555.3" font-family="Times,serif" font-size="14.00" fill="#000000">RecentStockChangeList:stockChangesInJSON</text>
</g>
<!-- 140543357302096 -->
<g id="node41" class="node">
<title>140543357302096</title>
<ellipse fill="none" stroke="#000000" cx="1096" cy="-559" rx="27" ry="27"/>
<text text-anchor="middle" x="1096" y="-555.3" font-family="Times,serif" font-size="14.00" fill="#000000">splace_in_DTStreamer3MDB:onMessage_1</text>
</g>
<!-- 140543357303944&#45;&gt;140543357302096 -->
<g id="edge4" class="edge">
<title>140543357303944&#45;&gt;140543357302096</title>
<path fill="none" stroke="#000000" d="M1033.2384,-559C1042.315,-559 1050.9217,-559 1058.6874,-559"/>
<polygon fill="#000000" stroke="#000000" points="1058.7208,-562.5001 1068.7207,-559 1058.7207,-555.5001 1058.7208,-562.5001"/>
</g>
<!-- 140543357302432 -->
<g id="node5" class="node">
<title>140543357302432</title>
<polygon fill="none" stroke="#000000" points="1213,-182 1159,-182 1159,-146 1213,-146 1213,-182"/>
<text text-anchor="middle" x="1186" y="-160.3" font-family="Times,serif" font-size="14.00" fill="#000000">Root</text>
</g>
<!-- 140543357302992 -->
<g id="node48" class="node">
<title>140543357302992</title>
<ellipse fill="#ffa500" stroke="#000000" cx="1276" cy="-164" rx="27" ry="27"/>
</g>
<!-- 140543357302432&#45;&gt;140543357302992 -->
<g id="edge5" class="edge">
<title>140543357302432&#45;&gt;140543357302992</title>
<path fill="none" stroke="#000000" d="M1213.003,-164C1221.0277,-164 1229.9665,-164 1238.5309,-164"/>
<polygon fill="#000000" stroke="#000000" points="1238.7051,-167.5001 1248.705,-164 1238.705,-160.5001 1238.7051,-167.5001"/>
</g>
<!-- 140543357301424 -->
<g id="node6" class="node">
<title>140543357301424</title>
<polygon fill="none" stroke="#000000" points="961,-505 836,-505 836,-469 961,-469 961,-505"/>
<text text-anchor="middle" x="898.5" y="-483.3" font-family="Times,serif" font-size="14.00" fill="#000000">TimerStat:getCount</text>
</g>
<!-- 140543357301200 -->
<g id="node42" class="node">
<title>140543357301200</title>
<ellipse fill="none" stroke="#000000" cx="1096" cy="-487" rx="27" ry="27"/>
<text text-anchor="middle" x="1096" y="-483.3" font-family="Times,serif" font-size="14.00" fill="#000000">splace_in_DTStreamer3MDB:onMessage_2</text>
</g>
<!-- 140543357301424&#45;&gt;140543357301200 -->
<g id="edge6" class="edge">
<title>140543357301424&#45;&gt;140543357301200</title>
<path fill="none" stroke="#000000" d="M961.2616,-487C993.2699,-487 1031.1223,-487 1058.544,-487"/>
<polygon fill="#000000" stroke="#000000" points="1058.8747,-490.5001 1068.8747,-487 1058.8747,-483.5001 1058.8747,-490.5001"/>
</g>
<!-- 140543357304280 -->
<g id="node7" class="node">
<title>140543357304280</title>
<polygon fill="none" stroke="#000000" points="1004.5,-73 792.5,-73 792.5,-37 1004.5,-37 1004.5,-73"/>
<text text-anchor="middle" x="898.5" y="-51.3" font-family="Times,serif" font-size="14.00" fill="#000000">TradeConfig:getDisplayOrderAlerts</text>
</g>
<!-- 140543357310904 -->
<g id="node45" class="node">
<title>140543357310904</title>
<ellipse fill="none" stroke="#000000" cx="1096" cy="-55" rx="27" ry="27"/>
<text text-anchor="middle" x="1096" y="-51.3" font-family="Times,serif" font-size="14.00" fill="#000000">splace_in_OrdersAlertFilter:doFilter_0</text>
</g>
<!-- 140543357304280&#45;&gt;140543357310904 -->
<g id="edge7" class="edge">
<title>140543357304280&#45;&gt;140543357310904</title>
<path fill="none" stroke="#000000" d="M1004.7655,-55C1024.0531,-55 1042.9562,-55 1058.5085,-55"/>
<polygon fill="#000000" stroke="#000000" points="1058.7038,-58.5001 1068.7038,-55 1058.7037,-51.5001 1058.7038,-58.5001"/>
</g>
<!-- 140543357304504 -->
<g id="node8" class="node">
<title>140543357304504</title>
<polygon fill="none" stroke="#000000" points="997.5,-433 799.5,-433 799.5,-397 997.5,-397 997.5,-433"/>
<text text-anchor="middle" x="898.5" y="-411.3" font-family="Times,serif" font-size="14.00" fill="#000000">TradeConfig:getMAX_QUOTES</text>
</g>
<!-- 140543357302544 -->
<g id="node43" class="node">
<title>140543357302544</title>
<ellipse fill="none" stroke="#000000" cx="1096" cy="-415" rx="27" ry="27"/>
<text text-anchor="middle" x="1096" y="-411.3" font-family="Times,serif" font-size="14.00" fill="#000000">splace_in_DTStreamer3MDB:onMessage_3</text>
</g>
<!-- 140543357304504&#45;&gt;140543357302544 -->
<g id="edge8" class="edge">
<title>140543357304504&#45;&gt;140543357302544</title>
<path fill="none" stroke="#000000" d="M997.5393,-415C1019.2189,-415 1040.8799,-415 1058.3426,-415"/>
<polygon fill="#000000" stroke="#000000" points="1058.6358,-418.5001 1068.6357,-415 1058.6357,-411.5001 1058.6358,-418.5001"/>
</g>
<!-- 140543357303216 -->
<g id="node9" class="node">
<title>140543357303216</title>
<polygon fill="none" stroke="#000000" points="1021.5,-361 775.5,-361 775.5,-325 1021.5,-325 1021.5,-361"/>
<text text-anchor="middle" x="898.5" y="-339.3" font-family="Times,serif" font-size="14.00" fill="#000000">TradeConfig:getPercentSentToWebsocket</text>
</g>
<!-- 140543357309056 -->
<g id="node44" class="node">
<title>140543357309056</title>
<ellipse fill="none" stroke="#000000" cx="1096" cy="-343" rx="27" ry="27"/>
<text text-anchor="middle" x="1096" y="-339.3" font-family="Times,serif" font-size="14.00" fill="#000000">splace_in_DTStreamer3MDB:onMessage_4</text>
</g>
<!-- 140543357303216&#45;&gt;140543357309056 -->
<g id="edge9" class="edge">
<title>140543357303216&#45;&gt;140543357309056</title>
<path fill="none" stroke="#000000" d="M1021.6151,-343C1035.0097,-343 1047.7663,-343 1058.813,-343"/>
<polygon fill="#000000" stroke="#000000" points="1058.8453,-346.5001 1068.8452,-343 1058.8452,-339.5001 1058.8453,-346.5001"/>
</g>
<!-- 140543357304056 -->
<g id="node10" class="node">
<title>140543357304056</title>
<polygon fill="none" stroke="#000000" points="1213,-296 1159,-296 1159,-260 1213,-260 1213,-296"/>
<text text-anchor="middle" x="1186" y="-274.3" font-family="Times,serif" font-size="14.00" fill="#000000">hid_1</text>
</g>
<!-- 140543357303384 -->
<g id="node31" class="node">
<title>140543357303384</title>
<ellipse fill="none" stroke="#000000" cx="1276" cy="-487" rx="27" ry="27"/>
<text text-anchor="middle" x="1276" y="-483.3" font-family="Times,serif" font-size="14.00" fill="#000000">pre_DTStreamer3MDB:onMessage</text>
</g>
<!-- 140543357304056&#45;&gt;140543357303384 -->
<g id="edge10" class="edge">
<title>140543357304056&#45;&gt;140543357303384</title>
<path fill="none" stroke="#000000" d="M1195.6051,-296.324C1200.9306,-306.6979 1207.5564,-319.9673 1213,-332 1231.3664,-372.5973 1250.3425,-420.1954 1262.6032,-451.8277"/>
<polygon fill="#000000" stroke="#000000" points="1259.4731,-453.4384 1266.3386,-461.5078 1266.0037,-450.9182 1259.4731,-453.4384"/>
</g>
<!-- 140543357311016 -->
<g id="node11" class="node">
<title>140543357311016</title>
<polygon fill="none" stroke="#000000" points="144,-117 90,-117 90,-81 144,-81 144,-117"/>
<text text-anchor="middle" x="117" y="-95.3" font-family="Times,serif" font-size="14.00" fill="#000000">hid_10</text>
</g>
<!-- 140543357310568 -->
<g id="node32" class="node">
<title>140543357310568</title>
<ellipse fill="none" stroke="#000000" cx="207" cy="-91" rx="27" ry="27"/>
<text text-anchor="middle" x="207" y="-87.3" font-family="Times,serif" font-size="14.00" fill="#000000">pre_OrdersAlertFilter:doFilter</text>
</g>
<!-- 140543357311016&#45;&gt;140543357310568 -->
<g id="edge11" class="edge">
<title>140543357311016&#45;&gt;140543357310568</title>
<path fill="none" stroke="#000000" d="M144.003,-96.5997C152.1903,-95.872 161.3292,-95.0596 170.051,-94.2844"/>
<polygon fill="#000000" stroke="#000000" points="170.3653,-97.7703 180.0161,-93.3986 169.7454,-90.7978 170.3653,-97.7703"/>
</g>
<!-- 140543357311464 -->
<g id="node12" class="node">
<title>140543357311464</title>
<polygon fill="none" stroke="#000000" points="638,-307 584,-307 584,-271 638,-271 638,-307"/>
<text text-anchor="middle" x="611" y="-285.3" font-family="Times,serif" font-size="14.00" fill="#000000">hid_11</text>
</g>
<!-- 140543357310344 -->
<g id="node33" class="node">
<title>140543357310344</title>
<ellipse fill="none" stroke="#000000" cx="701" cy="-271" rx="27" ry="27"/>
<text text-anchor="middle" x="701" y="-267.3" font-family="Times,serif" font-size="14.00" fill="#000000">pre_RecentStockChangeList:addStockChange</text>
</g>
<!-- 140543357311464&#45;&gt;140543357310344 -->
<g id="edge12" class="edge">
<title>140543357311464&#45;&gt;140543357310344</title>
<path fill="none" stroke="#000000" d="M638.003,-283.5994C646.2647,-281.9471 655.4954,-280.1009 664.2888,-278.3422"/>
<polygon fill="#000000" stroke="#000000" points="665.2069,-281.728 674.3262,-276.3348 663.834,-274.864 665.2069,-281.728"/>
</g>
<!-- 140543357311688 -->
<g id="node13" class="node">
<title>140543357311688</title>
<polygon fill="none" stroke="#000000" points="638,-563 584,-563 584,-527 638,-527 638,-563"/>
<text text-anchor="middle" x="611" y="-541.3" font-family="Times,serif" font-size="14.00" fill="#000000">hid_12</text>
</g>
<!-- 140543357310456 -->
<g id="node34" class="node">
<title>140543357310456</title>
<ellipse fill="none" stroke="#000000" cx="701" cy="-559" rx="27" ry="27"/>
<text text-anchor="middle" x="701" y="-555.3" font-family="Times,serif" font-size="14.00" fill="#000000">pre_RecentStockChangeList:stockChangesInJSON</text>
</g>
<!-- 140543357311688&#45;&gt;140543357310456 -->
<g id="edge13" class="edge">
<title>140543357311688&#45;&gt;140543357310456</title>
<path fill="none" stroke="#000000" d="M638.003,-549.2005C646.1903,-550.474 655.3292,-551.8957 664.051,-553.2524"/>
<polygon fill="#000000" stroke="#000000" points="663.5969,-556.7238 674.0161,-554.8025 664.6729,-549.8069 663.5969,-556.7238"/>
</g>
<!-- 140543357311912 -->
<g id="node14" class="node">
<title>140543357311912</title>
<polygon fill="none" stroke="#000000" points="638,-226 584,-226 584,-190 638,-190 638,-226"/>
<text text-anchor="middle" x="611" y="-204.3" font-family="Times,serif" font-size="14.00" fill="#000000">hid_13</text>
</g>
<!-- 140543357309672 -->
<g id="node46" class="node">
<title>140543357309672</title>
<ellipse fill="none" stroke="#000000" cx="701" cy="-199" rx="27" ry="27"/>
<text text-anchor="middle" x="701" y="-195.3" font-family="Times,serif" font-size="14.00" fill="#000000">splace_in_Root_0</text>
</g>
<!-- 140543357311912&#45;&gt;140543357309672 -->
<g id="edge14" class="edge">
<title>140543357311912&#45;&gt;140543357309672</title>
<path fill="none" stroke="#000000" d="M638.003,-205.2997C646.1903,-204.481 655.3292,-203.5671 664.051,-202.6949"/>
<polygon fill="#000000" stroke="#000000" points="664.414,-206.1761 674.0161,-201.6984 663.7174,-199.2109 664.414,-206.1761"/>
</g>
<!-- 140543357312136 -->
<g id="node15" class="node">
<title>140543357312136</title>
<polygon fill="none" stroke="#000000" points="638,-496 584,-496 584,-460 638,-460 638,-496"/>
<text text-anchor="middle" x="611" y="-474.3" font-family="Times,serif" font-size="14.00" fill="#000000">hid_14</text>
</g>
<!-- 140543357309448 -->
<g id="node36" class="node">
<title>140543357309448</title>
<ellipse fill="none" stroke="#000000" cx="701" cy="-487" rx="27" ry="27"/>
<text text-anchor="middle" x="701" y="-483.3" font-family="Times,serif" font-size="14.00" fill="#000000">pre_TimerStat:getCount</text>
</g>
<!-- 140543357312136&#45;&gt;140543357309448 -->
<g id="edge15" class="edge">
<title>140543357312136&#45;&gt;140543357309448</title>
<path fill="none" stroke="#000000" d="M638.003,-480.7003C646.1903,-481.519 655.3292,-482.4329 664.051,-483.3051"/>
<polygon fill="#000000" stroke="#000000" points="663.7174,-486.7891 674.0161,-484.3016 664.414,-479.8239 663.7174,-486.7891"/>
</g>
<!-- 140543357312360 -->
<g id="node16" class="node">
<title>140543357312360</title>
<polygon fill="none" stroke="#000000" points="638,-433 584,-433 584,-397 638,-397 638,-433"/>
<text text-anchor="middle" x="611" y="-411.3" font-family="Times,serif" font-size="14.00" fill="#000000">hid_15</text>
</g>
<!-- 140543357310120 -->
<g id="node38" class="node">
<title>140543357310120</title>
<ellipse fill="none" stroke="#000000" cx="701" cy="-415" rx="27" ry="27"/>
<text text-anchor="middle" x="701" y="-411.3" font-family="Times,serif" font-size="14.00" fill="#000000">pre_TradeConfig:getMAX_QUOTES</text>
</g>
<!-- 140543357312360&#45;&gt;140543357310120 -->
<g id="edge16" class="edge">
<title>140543357312360&#45;&gt;140543357310120</title>
<path fill="none" stroke="#000000" d="M638.003,-415C646.0277,-415 654.9665,-415 663.5309,-415"/>
<polygon fill="#000000" stroke="#000000" points="663.7051,-418.5001 673.705,-415 663.705,-411.5001 663.7051,-418.5001"/>
</g>
<!-- 140543357312584 -->
<g id="node17" class="node">
<title>140543357312584</title>
<polygon fill="none" stroke="#000000" points="638,-370 584,-370 584,-334 638,-334 638,-370"/>
<text text-anchor="middle" x="611" y="-348.3" font-family="Times,serif" font-size="14.00" fill="#000000">hid_16</text>
</g>
<!-- 140543357310232 -->
<g id="node39" class="node">
<title>140543357310232</title>
<ellipse fill="none" stroke="#000000" cx="701" cy="-343" rx="27" ry="27"/>
<text text-anchor="middle" x="701" y="-339.3" font-family="Times,serif" font-size="14.00" fill="#000000">pre_TradeConfig:getPercentSentToWebsocket</text>
</g>
<!-- 140543357312584&#45;&gt;140543357310232 -->
<g id="edge17" class="edge">
<title>140543357312584&#45;&gt;140543357310232</title>
<path fill="none" stroke="#000000" d="M638.003,-349.2997C646.1903,-348.481 655.3292,-347.5671 664.051,-346.6949"/>
<polygon fill="#000000" stroke="#000000" points="664.414,-350.1761 674.0161,-345.6984 663.7174,-343.2109 664.414,-350.1761"/>
</g>
<!-- 140543398474024 -->
<g id="node18" class="node">
<title>140543398474024</title>
<polygon fill="none" stroke="#000000" points="638,-140 584,-140 584,-104 638,-104 638,-140"/>
<text text-anchor="middle" x="611" y="-118.3" font-family="Times,serif" font-size="14.00" fill="#000000">hid_17</text>
</g>
<!-- 140543357309952 -->
<g id="node47" class="node">
<title>140543357309952</title>
<ellipse fill="none" stroke="#000000" cx="701" cy="-127" rx="27" ry="27"/>
<text text-anchor="middle" x="701" y="-123.3" font-family="Times,serif" font-size="14.00" fill="#000000">splace_in_Root_1</text>
</g>
<!-- 140543398474024&#45;&gt;140543357309952 -->
<g id="edge18" class="edge">
<title>140543398474024&#45;&gt;140543357309952</title>
<path fill="none" stroke="#000000" d="M638.003,-123.5002C646.1013,-123.9501 655.1306,-124.4517 663.7665,-124.9315"/>
<polygon fill="#000000" stroke="#000000" points="663.8373,-128.4407 674.0161,-125.5009 664.2257,-121.4515 663.8373,-128.4407"/>
</g>
<!-- 140543398474248 -->
<g id="node19" class="node">
<title>140543398474248</title>
<polygon fill="none" stroke="#000000" points="638,-82 584,-82 584,-46 638,-46 638,-82"/>
<text text-anchor="middle" x="611" y="-60.3" font-family="Times,serif" font-size="14.00" fill="#000000">hid_18</text>
</g>
<!-- 140543357310680 -->
<g id="node37" class="node">
<title>140543357310680</title>
<ellipse fill="none" stroke="#000000" cx="701" cy="-55" rx="27" ry="27"/>
<text text-anchor="middle" x="701" y="-51.3" font-family="Times,serif" font-size="14.00" fill="#000000">pre_TradeConfig:getDisplayOrderAlerts</text>
</g>
<!-- 140543398474248&#45;&gt;140543357310680 -->
<g id="edge19" class="edge">
<title>140543398474248&#45;&gt;140543357310680</title>
<path fill="none" stroke="#000000" d="M638.003,-61.2997C646.1903,-60.481 655.3292,-59.5671 664.051,-58.6949"/>
<polygon fill="#000000" stroke="#000000" points="664.414,-62.1761 674.0161,-57.6984 663.7174,-55.2109 664.414,-62.1761"/>
</g>
<!-- 140543357302376 -->
<g id="node20" class="node">
<title>140543357302376</title>
<polygon fill="none" stroke="#000000" points="1213,-568 1159,-568 1159,-532 1213,-532 1213,-568"/>
<text text-anchor="middle" x="1186" y="-546.3" font-family="Times,serif" font-size="14.00" fill="#000000">hid_2</text>
</g>
<!-- 140543357302376&#45;&gt;140543357303384 -->
<g id="edge20" class="edge">
<title>140543357302376&#45;&gt;140543357303384</title>
<path fill="none" stroke="#000000" d="M1212.0317,-531.7778C1222.4366,-524.4944 1234.4975,-516.0517 1245.3236,-508.4735"/>
<polygon fill="#000000" stroke="#000000" points="1247.5008,-511.2218 1253.686,-502.6198 1243.4865,-505.4872 1247.5008,-511.2218"/>
</g>
<!-- 140543357303328 -->
<g id="node21" class="node">
<title>140543357303328</title>
<polygon fill="none" stroke="#000000" points="1213,-505 1159,-505 1159,-469 1213,-469 1213,-505"/>
<text text-anchor="middle" x="1186" y="-483.3" font-family="Times,serif" font-size="14.00" fill="#000000">hid_3</text>
</g>
<!-- 140543357303328&#45;&gt;140543357303384 -->
<g id="edge21" class="edge">
<title>140543357303328&#45;&gt;140543357303384</title>
<path fill="none" stroke="#000000" d="M1213.003,-487C1221.0277,-487 1229.9665,-487 1238.5309,-487"/>
<polygon fill="#000000" stroke="#000000" points="1238.7051,-490.5001 1248.705,-487 1238.705,-483.5001 1238.7051,-490.5001"/>
</g>
<!-- 140543357302600 -->
<g id="node22" class="node">
<title>140543357302600</title>
<polygon fill="none" stroke="#000000" points="1213,-444 1159,-444 1159,-408 1213,-408 1213,-444"/>
<text text-anchor="middle" x="1186" y="-422.3" font-family="Times,serif" font-size="14.00" fill="#000000">hid_4</text>
</g>
<!-- 140543357302600&#45;&gt;140543357303384 -->
<g id="edge22" class="edge">
<title>140543357302600&#45;&gt;140543357303384</title>
<path fill="none" stroke="#000000" d="M1213.003,-444.302C1223.1158,-451.1562 1234.6804,-458.9945 1245.1176,-466.0686"/>
<polygon fill="#000000" stroke="#000000" points="1243.3215,-469.0794 1253.563,-471.7927 1247.2489,-463.2849 1243.3215,-469.0794"/>
</g>
<!-- 140543357304560 -->
<g id="node23" class="node">
<title>140543357304560</title>
<polygon fill="none" stroke="#000000" points="1213,-377 1159,-377 1159,-341 1213,-341 1213,-377"/>
<text text-anchor="middle" x="1186" y="-355.3" font-family="Times,serif" font-size="14.00" fill="#000000">hid_5</text>
</g>
<!-- 140543357304560&#45;&gt;140543357303384 -->
<g id="edge23" class="edge">
<title>140543357304560&#45;&gt;140543357303384</title>
<path fill="none" stroke="#000000" d="M1198.7039,-377.0678C1213.1807,-397.6571 1237.0829,-431.6512 1254.4805,-456.3945"/>
<polygon fill="#000000" stroke="#000000" points="1251.7219,-458.5564 1260.3369,-464.7235 1257.4482,-454.5301 1251.7219,-458.5564"/>
</g>
<!-- 140543357309168 -->
<g id="node24" class="node">
<title>140543357309168</title>
<polygon fill="none" stroke="#000000" points="234,-439 180,-439 180,-403 234,-403 234,-439"/>
<text text-anchor="middle" x="207" y="-417.3" font-family="Times,serif" font-size="14.00" fill="#000000">hid_6</text>
</g>
<!-- 140543357309168&#45;&gt;140543357303384 -->
<g id="edge24" class="edge">
<title>140543357309168&#45;&gt;140543357303384</title>
<path fill="none" stroke="#000000" d="M212.6261,-439.1571C221.2596,-464.349 239.998,-509.961 270,-538 359.5153,-621.6586 398.4775,-652 521,-652 521,-652 521,-652 1096,-652 1152.0388,-652 1171.2858,-642.4202 1213,-605 1237.8322,-582.724 1254.6328,-548.2935 1264.5965,-522.3627"/>
<polygon fill="#000000" stroke="#000000" points="1267.9157,-523.4773 1268.0829,-512.8838 1261.346,-521.0609 1267.9157,-523.4773"/>
</g>
<!-- 140543357309504 -->
<g id="node25" class="node">
<title>140543357309504</title>
<polygon fill="none" stroke="#000000" points="925.5,-213 871.5,-213 871.5,-177 925.5,-177 925.5,-213"/>
<text text-anchor="middle" x="898.5" y="-191.3" font-family="Times,serif" font-size="14.00" fill="#000000">hid_7</text>
</g>
<!-- 140543357301368 -->
<g id="node35" class="node">
<title>140543357301368</title>
<ellipse fill="none" stroke="#000000" cx="1096" cy="-164" rx="27" ry="27"/>
<text text-anchor="middle" x="1096" y="-160.3" font-family="Times,serif" font-size="14.00" fill="#000000">pre_Root</text>
</g>
<!-- 140543357309504&#45;&gt;140543357301368 -->
<g id="edge25" class="edge">
<title>140543357309504&#45;&gt;140543357301368</title>
<path fill="none" stroke="#000000" d="M925.5474,-190.7546C960.1181,-185.3283 1020.1261,-175.9093 1058.9343,-169.8179"/>
<polygon fill="#000000" stroke="#000000" points="1059.9429,-173.2025 1069.2792,-168.1941 1058.8574,-166.2872 1059.9429,-173.2025"/>
</g>
<!-- 140543357309784 -->
<g id="node26" class="node">
<title>140543357309784</title>
<polygon fill="none" stroke="#000000" points="925.5,-150 871.5,-150 871.5,-114 925.5,-114 925.5,-150"/>
<text text-anchor="middle" x="898.5" y="-128.3" font-family="Times,serif" font-size="14.00" fill="#000000">hid_8</text>
</g>
<!-- 140543357309784&#45;&gt;140543357301368 -->
<g id="edge26" class="edge">
<title>140543357309784&#45;&gt;140543357301368</title>
<path fill="none" stroke="#000000" d="M925.5474,-136.3824C960.1181,-141.9837 1020.1261,-151.7065 1058.9343,-157.9944"/>
<polygon fill="#000000" stroke="#000000" points="1058.8482,-161.526 1069.2792,-159.6706 1059.9678,-154.6161 1058.8482,-161.526"/>
</g>
<!-- 140543357310736 -->
<g id="node27" class="node">
<title>140543357310736</title>
<polygon fill="none" stroke="#000000" points="1213,-46 1159,-46 1159,-10 1213,-10 1213,-46"/>
<text text-anchor="middle" x="1186" y="-24.3" font-family="Times,serif" font-size="14.00" fill="#000000">hid_9</text>
</g>
<!-- 140543357310736&#45;&gt;140543357310568 -->
<g id="edge27" class="edge">
<title>140543357310736&#45;&gt;140543357310568</title>
<path fill="none" stroke="#000000" d="M1158.734,-23.5633C1107.7707,-15.6681 994.536,0 898.5,0 521,0 521,0 521,0 415.3033,0 297.2217,-48.1554 240.7065,-74.4051"/>
<polygon fill="#000000" stroke="#000000" points="239.0857,-71.2997 231.5306,-78.7273 242.0687,-77.6323 239.0857,-71.2997"/>
</g>
<!-- 140543357301032 -->
<g id="node28" class="node">
<title>140543357301032</title>
<ellipse fill="#00ff00" stroke="#000000" cx="27" cy="-122" rx="27" ry="27"/>
<text text-anchor="middle" x="27" y="-118.3" font-family="Times,serif" font-size="14.00" fill="#000000">1</text>
</g>
<!-- 140543357301032&#45;&gt;140543357311016 -->
<g id="edge45" class="edge">
<title>140543357301032&#45;&gt;140543357311016</title>
<path fill="none" stroke="#000000" d="M53.5162,-115.2236C61.8043,-113.1056 71.1048,-110.7288 79.9779,-108.4612"/>
<polygon fill="#000000" stroke="#000000" points="80.9155,-111.8342 89.7375,-105.9671 79.1823,-105.0521 80.9155,-111.8342"/>
</g>
<!-- 140543357301032&#45;&gt;140543357309168 -->
<g id="edge46" class="edge">
<title>140543357301032&#45;&gt;140543357309168</title>
<path fill="none" stroke="#000000" d="M41.1243,-145.462C74.0866,-200.2161 155.9315,-336.1695 190.8246,-394.1309"/>
<polygon fill="#000000" stroke="#000000" points="187.8507,-395.9771 196.0069,-402.7393 193.8479,-392.3668 187.8507,-395.9771"/>
</g>
<!-- 140543357311296&#45;&gt;140543357311464 -->
<g id="edge28" class="edge">
<title>140543357311296&#45;&gt;140543357311464</title>
<path fill="none" stroke="#000000" d="M536.333,-392.665C548.9675,-374.3659 567.4357,-347.8566 584,-325 586.2407,-321.9082 588.6099,-318.6847 590.9769,-315.4926"/>
<polygon fill="#000000" stroke="#000000" points="593.9693,-317.3349 597.1477,-307.2281 588.3603,-313.1469 593.9693,-317.3349"/>
</g>
<!-- 140543357311296&#45;&gt;140543357311688 -->
<g id="edge29" class="edge">
<title>140543357311296&#45;&gt;140543357311688</title>
<path fill="none" stroke="#000000" d="M536.4716,-437.3478C552.0485,-459.8479 576.0771,-494.5558 592.6169,-518.4466"/>
<polygon fill="#000000" stroke="#000000" points="589.7723,-520.4868 598.3422,-526.7164 595.5277,-516.5023 589.7723,-520.4868"/>
</g>
<!-- 140543357311296&#45;&gt;140543357311912 -->
<g id="edge30" class="edge">
<title>140543357311296&#45;&gt;140543357311912</title>
<path fill="none" stroke="#000000" d="M530.8088,-389.5794C542.7506,-359.0218 563.8294,-306.3165 584,-262 587.975,-253.2665 592.5599,-243.8737 596.8101,-235.41"/>
<polygon fill="#000000" stroke="#000000" points="600.0118,-236.835 601.4161,-226.3336 593.7695,-233.6672 600.0118,-236.835"/>
</g>
<!-- 140543357311296&#45;&gt;140543357312136 -->
<g id="edge31" class="edge">
<title>140543357311296&#45;&gt;140543357312136</title>
<path fill="none" stroke="#000000" d="M543.2472,-430.573C553.3684,-437.6579 565.5735,-446.2015 576.8201,-454.0741"/>
<polygon fill="#000000" stroke="#000000" points="574.9838,-457.0609 585.1832,-459.9283 578.998,-451.3263 574.9838,-457.0609"/>
</g>
<!-- 140543357311296&#45;&gt;140543357312360 -->
<g id="edge32" class="edge">
<title>140543357311296&#45;&gt;140543357312360</title>
<path fill="none" stroke="#000000" d="M548.003,-415C556.0277,-415 564.9665,-415 573.5309,-415"/>
<polygon fill="#000000" stroke="#000000" points="573.7051,-418.5001 583.705,-415 573.705,-411.5001 573.7051,-418.5001"/>
</g>
<!-- 140543357311296&#45;&gt;140543357312584 -->
<g id="edge33" class="edge">
<title>140543357311296&#45;&gt;140543357312584</title>
<path fill="none" stroke="#000000" d="M543.2472,-399.427C553.3684,-392.3421 565.5735,-383.7985 576.8201,-375.9259"/>
<polygon fill="#000000" stroke="#000000" points="578.998,-378.6737 585.1832,-370.0717 574.9838,-372.9391 578.998,-378.6737"/>
</g>
<!-- 140543398473856&#45;&gt;140543398474024 -->
<g id="edge34" class="edge">
<title>140543398473856&#45;&gt;140543398474024</title>
<path fill="none" stroke="#000000" d="M546.5497,-99.8004C555.1894,-102.7764 565.0137,-106.1603 574.3423,-109.3735"/>
<polygon fill="#000000" stroke="#000000" points="573.2192,-112.6884 583.8139,-112.6359 575.4989,-106.07 573.2192,-112.6884"/>
</g>
<!-- 140543398473856&#45;&gt;140543398474248 -->
<g id="edge35" class="edge">
<title>140543398473856&#45;&gt;140543398474248</title>
<path fill="none" stroke="#000000" d="M547.0317,-83.1905C555.4955,-80.6514 565.055,-77.7835 574.1543,-75.0537"/>
<polygon fill="#000000" stroke="#000000" points="575.2013,-78.3938 583.7738,-72.1679 573.1898,-71.689 575.2013,-78.3938"/>
</g>
<!-- 140543357303384&#45;&gt;140543357301480 -->
<g id="edge36" class="edge">
<title>140543357303384&#45;&gt;140543357301480</title>
<path fill="none" stroke="#000000" d="M1264.4036,-511.8057C1253.7286,-532.0822 1236.0633,-560.0717 1213,-577 1169.034,-609.2709 1150.5382,-614 1096,-614 611,-614 611,-614 611,-614 529.1601,-614 443.0025,-565.2348 397.2161,-534.8127"/>
<polygon fill="#000000" stroke="#000000" points="399.1234,-531.8774 388.8784,-529.1772 395.2034,-537.6769 399.1234,-531.8774"/>
</g>
<!-- 140543357310568&#45;&gt;140543357302152 -->
<g id="edge37" class="edge">
<title>140543357310568&#45;&gt;140543357302152</title>
<path fill="none" stroke="#000000" d="M234.3473,-91C245.9826,-91 260.2734,-91 275.0674,-91"/>
<polygon fill="#000000" stroke="#000000" points="275.3635,-94.5001 285.3634,-91 275.3634,-87.5001 275.3635,-94.5001"/>
</g>
<!-- 140543357310344&#45;&gt;140543357302264 -->
<g id="edge38" class="edge">
<title>140543357310344&#45;&gt;140543357302264</title>
<path fill="none" stroke="#000000" d="M728.0474,-271C739.0345,-271 752.5909,-271 767.2196,-271"/>
<polygon fill="#000000" stroke="#000000" points="767.5,-274.5001 777.5,-271 767.4999,-267.5001 767.5,-274.5001"/>
</g>
<!-- 140543357310456&#45;&gt;140543357303944 -->
<g id="edge39" class="edge">
<title>140543357310456&#45;&gt;140543357303944</title>
<path fill="none" stroke="#000000" d="M728.0474,-559C735.5746,-559 744.3078,-559 753.7654,-559"/>
<polygon fill="#000000" stroke="#000000" points="753.8635,-562.5001 763.8634,-559 753.8634,-555.5001 753.8635,-562.5001"/>
</g>
<!-- 140543357301368&#45;&gt;140543357302432 -->
<g id="edge40" class="edge">
<title>140543357301368&#45;&gt;140543357302432</title>
<path fill="none" stroke="#000000" d="M1123.003,-164C1131.0277,-164 1139.9665,-164 1148.5309,-164"/>
<polygon fill="#000000" stroke="#000000" points="1148.7051,-167.5001 1158.705,-164 1148.705,-160.5001 1148.7051,-167.5001"/>
</g>
<!-- 140543357309448&#45;&gt;140543357301424 -->
<g id="edge41" class="edge">
<title>140543357309448&#45;&gt;140543357301424</title>
<path fill="none" stroke="#000000" d="M728.0474,-487C753.0358,-487 791.3143,-487 825.2705,-487"/>
<polygon fill="#000000" stroke="#000000" points="825.6504,-490.5001 835.6504,-487 825.6503,-483.5001 825.6504,-490.5001"/>
</g>
<!-- 140543357310680&#45;&gt;140543357304280 -->
<g id="edge42" class="edge">
<title>140543357310680&#45;&gt;140543357304280</title>
<path fill="none" stroke="#000000" d="M728.0474,-55C742.7552,-55 762.0671,-55 782.3919,-55"/>
<polygon fill="#000000" stroke="#000000" points="782.4352,-58.5001 792.4351,-55 782.4351,-51.5001 782.4352,-58.5001"/>
</g>
<!-- 140543357310120&#45;&gt;140543357304504 -->
<g id="edge43" class="edge">
<title>140543357310120&#45;&gt;140543357304504</title>
<path fill="none" stroke="#000000" d="M728.0474,-415C744.3362,-415 766.272,-415 788.9768,-415"/>
<polygon fill="#000000" stroke="#000000" points="789.0912,-418.5001 799.0912,-415 789.0911,-411.5001 789.0912,-418.5001"/>
</g>
<!-- 140543357310232&#45;&gt;140543357303216 -->
<g id="edge44" class="edge">
<title>140543357310232&#45;&gt;140543357303216</title>
<path fill="none" stroke="#000000" d="M728.0474,-343C738.5038,-343 751.2873,-343 765.1074,-343"/>
<polygon fill="#000000" stroke="#000000" points="765.3354,-346.5001 775.3354,-343 765.3354,-339.5001 765.3354,-346.5001"/>
</g>
<!-- 140543357304000&#45;&gt;140543357304056 -->
<g id="edge47" class="edge">
<title>140543357304000&#45;&gt;140543357304056</title>
<path fill="none" stroke="#000000" d="M1123.003,-273.1002C1131.0277,-273.7244 1139.9665,-274.4196 1148.5309,-275.0857"/>
<polygon fill="#000000" stroke="#000000" points="1148.4637,-278.591 1158.705,-275.8771 1149.0066,-271.6121 1148.4637,-278.591"/>
</g>
<!-- 140543357302096&#45;&gt;140543357302376 -->
<g id="edge48" class="edge">
<title>140543357302096&#45;&gt;140543357302376</title>
<path fill="none" stroke="#000000" d="M1123.003,-556.2997C1131.0277,-555.4972 1139.9665,-554.6033 1148.5309,-553.7469"/>
<polygon fill="#000000" stroke="#000000" points="1149.1029,-557.2073 1158.705,-552.7295 1148.4064,-550.242 1149.1029,-557.2073"/>
</g>
<!-- 140543357301200&#45;&gt;140543357303328 -->
<g id="edge49" class="edge">
<title>140543357301200&#45;&gt;140543357303328</title>
<path fill="none" stroke="#000000" d="M1123.003,-487C1131.0277,-487 1139.9665,-487 1148.5309,-487"/>
<polygon fill="#000000" stroke="#000000" points="1148.7051,-490.5001 1158.705,-487 1148.705,-483.5001 1148.7051,-490.5001"/>
</g>
<!-- 140543357302544&#45;&gt;140543357302600 -->
<g id="edge50" class="edge">
<title>140543357302544&#45;&gt;140543357302600</title>
<path fill="none" stroke="#000000" d="M1123.003,-418.3004C1131.0277,-419.2812 1139.9665,-420.3737 1148.5309,-421.4204"/>
<polygon fill="#000000" stroke="#000000" points="1148.3542,-424.9248 1158.705,-422.6639 1149.2035,-417.9765 1148.3542,-424.9248"/>
</g>
<!-- 140543357309056&#45;&gt;140543357304560 -->
<g id="edge51" class="edge">
<title>140543357309056&#45;&gt;140543357304560</title>
<path fill="none" stroke="#000000" d="M1123.003,-347.8005C1131.1158,-349.2428 1140.1631,-350.8512 1148.8131,-352.389"/>
<polygon fill="#000000" stroke="#000000" points="1148.2468,-355.8431 1158.705,-354.1476 1149.472,-348.9512 1148.2468,-355.8431"/>
</g>
<!-- 140543357310904&#45;&gt;140543357310736 -->
<g id="edge52" class="edge">
<title>140543357310904&#45;&gt;140543357310736</title>
<path fill="none" stroke="#000000" d="M1122.0317,-47.1905C1130.4955,-44.6514 1140.055,-41.7835 1149.1543,-39.0537"/>
<polygon fill="#000000" stroke="#000000" points="1150.2013,-42.3938 1158.7738,-36.1679 1148.1898,-35.689 1150.2013,-42.3938"/>
</g>
<!-- 140543357309672&#45;&gt;140543357309504 -->
<g id="edge53" class="edge">
<title>140543357309672&#45;&gt;140543357309504</title>
<path fill="none" stroke="#000000" d="M728.0474,-198.4522C762.5216,-197.754 822.2911,-196.5435 861.1086,-195.7573"/>
<polygon fill="#000000" stroke="#000000" points="861.536,-199.2495 871.4631,-195.5476 861.3942,-192.2509 861.536,-199.2495"/>
</g>
<!-- 140543357309952&#45;&gt;140543357309784 -->
<g id="edge54" class="edge">
<title>140543357309952&#45;&gt;140543357309784</title>
<path fill="none" stroke="#000000" d="M728.0474,-127.6847C762.5216,-128.5575 822.2911,-130.0707 861.1086,-131.0534"/>
<polygon fill="#000000" stroke="#000000" points="861.3777,-134.5612 871.4631,-131.3155 861.5549,-127.5635 861.3777,-134.5612"/>
</g>
</g>
</svg>
