<?xml version="1.0" encoding="UTF-8" standalone="no"?>
<!DOCTYPE svg PUBLIC "-//W3C//DTD SVG 1.1//EN"
 "http://www.w3.org/Graphics/SVG/1.1/DTD/svg11.dtd">
<!-- Generated by graphviz version 2.40.1 (20161225.0304)
 -->
<!-- Title: alpha_classic_net_1585281871.9906795 Pages: 1 -->
<svg width="692pt" height="980pt"
 viewBox="0.00 0.00 692.00 980.00" xmlns="http://www.w3.org/2000/svg" xmlns:xlink="http://www.w3.org/1999/xlink">
<g id="graph0" class="graph" transform="scale(1 1) rotate(0) translate(4 976)">
<title>alpha_classic_net_1585281871.9906795</title>
<!-- 140543360921728 -->
<g id="node1" class="node">
<title>140543360921728</title>
<polygon fill="none" stroke="#000000" points="197,-36 24,-36 24,0 197,0 197,-36"/>
<text text-anchor="middle" x="110.5" y="-14.3" font-family="Times,serif" font-size="14.00" fill="#000000">AccountDataBean:hashCode</text>
</g>
<!-- 140543360922064 -->
<g id="node2" class="node">
<title>140543360922064</title>
<polygon fill="none" stroke="#000000" points="187.5,-90 33.5,-90 33.5,-54 187.5,-54 187.5,-90"/>
<text text-anchor="middle" x="110.5" y="-68.3" font-family="Times,serif" font-size="14.00" fill="#000000">AccountDataBean:logout</text>
</g>
<!-- 140543360922512 -->
<g id="node3" class="node">
<title>140543360922512</title>
<polygon fill="none" stroke="#000000" points="219.5,-144 1.5,-144 1.5,-108 219.5,-108 219.5,-144"/>
<text text-anchor="middle" x="110.5" y="-122.3" font-family="Times,serif" font-size="14.00" fill="#000000">AccountProfileDataBean:getAccount</text>
</g>
<!-- 140543360921784 -->
<g id="node4" class="node">
<title>140543360921784</title>
<polygon fill="none" stroke="#000000" points="172,-198 49,-198 49,-162 172,-162 172,-198"/>
<text text-anchor="middle" x="110.5" y="-176.3" font-family="Times,serif" font-size="14.00" fill="#000000">Log:doActionTrace</text>
</g>
<!-- 140543360922288 -->
<g id="node5" class="node">
<title>140543360922288</title>
<polygon fill="none" stroke="#000000" points="153.5,-252 67.5,-252 67.5,-216 153.5,-216 153.5,-252"/>
<text text-anchor="middle" x="110.5" y="-230.3" font-family="Times,serif" font-size="14.00" fill="#000000">Log:doTrace</text>
</g>
<!-- 140543358758640 -->
<g id="node6" class="node">
<title>140543358758640</title>
<polygon fill="none" stroke="#000000" points="414,-315 257,-315 257,-279 414,-279 414,-315"/>
<text text-anchor="middle" x="335.5" y="-293.3" font-family="Times,serif" font-size="14.00" fill="#000000">OrdersAlertFilter:doFilter</text>
</g>
<!-- 140543360922848 -->
<g id="node21" class="node">
<title>140543360922848</title>
<ellipse fill="none" stroke="#000000" cx="477" cy="-297" rx="27" ry="27"/>
<text text-anchor="middle" x="477" y="-293.3" font-family="Times,serif" font-size="14.00" fill="#000000">({&#39;OrdersAlertFilter:doFilter&#39;}, {&#39;Root&#39;})</text>
</g>
<!-- 140543358758640&#45;&gt;140543360922848 -->
<g id="edge2" class="edge">
<title>140543358758640&#45;&gt;140543360922848</title>
<path fill="none" stroke="#000000" d="M414.112,-297C423.0464,-297 431.8115,-297 439.8279,-297"/>
<polygon fill="#000000" stroke="#000000" points="439.8861,-300.5001 449.8861,-297 439.8861,-293.5001 439.8861,-300.5001"/>
</g>
<!-- 140543360922232 -->
<g id="node7" class="node">
<title>140543360922232</title>
<polygon fill="none" stroke="#000000" points="594,-315 540,-315 540,-279 594,-279 594,-315"/>
<text text-anchor="middle" x="567" y="-293.3" font-family="Times,serif" font-size="14.00" fill="#000000">Root</text>
</g>
<!-- 140543360922680 -->
<g id="node22" class="node">
<title>140543360922680</title>
<ellipse fill="#ffa500" stroke="#000000" cx="657" cy="-297" rx="27" ry="27"/>
</g>
<!-- 140543360922232&#45;&gt;140543360922680 -->
<g id="edge3" class="edge">
<title>140543360922232&#45;&gt;140543360922680</title>
<path fill="none" stroke="#000000" d="M594.003,-297C602.0277,-297 610.9665,-297 619.5309,-297"/>
<polygon fill="#000000" stroke="#000000" points="619.7051,-300.5001 629.705,-297 619.705,-293.5001 619.7051,-300.5001"/>
</g>
<!-- 140543360922120 -->
<g id="node8" class="node">
<title>140543360922120</title>
<polygon fill="none" stroke="#000000" points="172,-378 49,-378 49,-342 172,-342 172,-378"/>
<text text-anchor="middle" x="110.5" y="-356.3" font-family="Times,serif" font-size="14.00" fill="#000000">TradeAction:logout</text>
</g>
<!-- 140543360921896 -->
<g id="node9" class="node">
<title>140543360921896</title>
<polygon fill="none" stroke="#000000" points="202.5,-432 18.5,-432 18.5,-396 202.5,-396 202.5,-432"/>
<text text-anchor="middle" x="110.5" y="-410.3" font-family="Times,serif" font-size="14.00" fill="#000000">TradeAppServlet:performTask</text>
</g>
<!-- 140543360921840 -->
<g id="node10" class="node">
<title>140543360921840</title>
<polygon fill="none" stroke="#000000" points="197,-486 24,-486 24,-450 197,-450 197,-486"/>
<text text-anchor="middle" x="110.5" y="-464.3" font-family="Times,serif" font-size="14.00" fill="#000000">TradeConfig:getActionTrace</text>
</g>
<!-- 140543360922400 -->
<g id="node11" class="node">
<title>140543360922400</title>
<polygon fill="none" stroke="#000000" points="216.5,-540 4.5,-540 4.5,-504 216.5,-504 216.5,-540"/>
<text text-anchor="middle" x="110.5" y="-518.3" font-family="Times,serif" font-size="14.00" fill="#000000">TradeConfig:getDisplayOrderAlerts</text>
</g>
<!-- 140543360921952 -->
<g id="node12" class="node">
<title>140543360921952</title>
<polygon fill="none" stroke="#000000" points="176.5,-594 44.5,-594 44.5,-558 176.5,-558 176.5,-594"/>
<text text-anchor="middle" x="110.5" y="-572.3" font-family="Times,serif" font-size="14.00" fill="#000000">TradeConfig:getPage</text>
</g>
<!-- 140543360922456 -->
<g id="node13" class="node">
<title>140543360922456</title>
<polygon fill="none" stroke="#000000" points="179,-648 42,-648 42,-612 179,-612 179,-648"/>
<text text-anchor="middle" x="110.5" y="-626.3" font-family="Times,serif" font-size="14.00" fill="#000000">TradeConfig:getTrace</text>
</g>
<!-- 140543358758584 -->
<g id="node14" class="node">
<title>140543358758584</title>
<polygon fill="none" stroke="#000000" points="221,-702 0,-702 0,-666 221,-666 221,-702"/>
<text text-anchor="middle" x="110.5" y="-680.3" font-family="Times,serif" font-size="14.00" fill="#000000">TradeConfig:useRemoteEJBInterface</text>
</g>
<!-- 140543360922344 -->
<g id="node15" class="node">
<title>140543360922344</title>
<polygon fill="none" stroke="#000000" points="183.5,-756 37.5,-756 37.5,-720 183.5,-720 183.5,-756"/>
<text text-anchor="middle" x="110.5" y="-734.3" font-family="Times,serif" font-size="14.00" fill="#000000">TradeSLSBBean:logout</text>
</g>
<!-- 140543360922176 -->
<g id="node16" class="node">
<title>140543360922176</title>
<polygon fill="none" stroke="#000000" points="200,-810 21,-810 21,-774 200,-774 200,-810"/>
<text text-anchor="middle" x="110.5" y="-788.3" font-family="Times,serif" font-size="14.00" fill="#000000">TradeServletAction:doLogout</text>
</g>
<!-- 140543360922008 -->
<g id="node17" class="node">
<title>140543360922008</title>
<polygon fill="none" stroke="#000000" points="181.5,-864 39.5,-864 39.5,-828 181.5,-828 181.5,-864"/>
<text text-anchor="middle" x="110.5" y="-842.3" font-family="Times,serif" font-size="14.00" fill="#000000">new AccountDataBean</text>
</g>
<!-- 140543358758808 -->
<g id="node18" class="node">
<title>140543358758808</title>
<polygon fill="none" stroke="#000000" points="200,-918 21,-918 21,-882 200,-882 200,-918"/>
<text text-anchor="middle" x="110.5" y="-896.3" font-family="Times,serif" font-size="14.00" fill="#000000">new AccountProfileDataBean</text>
</g>
<!-- 140543358758752 -->
<g id="node19" class="node">
<title>140543358758752</title>
<polygon fill="none" stroke="#000000" points="166,-972 55,-972 55,-936 166,-936 166,-972"/>
<text text-anchor="middle" x="110.5" y="-950.3" font-family="Times,serif" font-size="14.00" fill="#000000">new TradeAction</text>
</g>
<!-- 140543360922568 -->
<g id="node20" class="node">
<title>140543360922568</title>
<ellipse fill="#00ff00" stroke="#000000" cx="110.5" cy="-297" rx="27" ry="27"/>
<text text-anchor="middle" x="110.5" y="-293.3" font-family="Times,serif" font-size="14.00" fill="#000000">1</text>
</g>
<!-- 140543360922568&#45;&gt;140543358758640 -->
<g id="edge4" class="edge">
<title>140543360922568&#45;&gt;140543358758640</title>
<path fill="none" stroke="#000000" d="M137.6403,-297C164.5709,-297 207.333,-297 246.2237,-297"/>
<polygon fill="#000000" stroke="#000000" points="246.5429,-300.5001 256.5429,-297 246.5429,-293.5001 246.5429,-300.5001"/>
</g>
<!-- 140543360922848&#45;&gt;140543360922232 -->
<g id="edge1" class="edge">
<title>140543360922848&#45;&gt;140543360922232</title>
<path fill="none" stroke="#000000" d="M504.003,-297C512.0277,-297 520.9665,-297 529.5309,-297"/>
<polygon fill="#000000" stroke="#000000" points="529.7051,-300.5001 539.705,-297 529.705,-293.5001 529.7051,-300.5001"/>
</g>
</g>
</svg>
