<?xml version="1.0" encoding="UTF-8" standalone="no"?>
<!DOCTYPE svg PUBLIC "-//W3C//DTD SVG 1.1//EN"
 "http://www.w3.org/Graphics/SVG/1.1/DTD/svg11.dtd">
<!-- Generated by graphviz version 2.40.1 (20161225.0304)
 -->
<!-- Title: imdf_net_1585281872.0355177 Pages: 1 -->
<svg width="1456pt" height="943pt"
 viewBox="0.00 0.00 1456.00 943.00" xmlns="http://www.w3.org/2000/svg" xmlns:xlink="http://www.w3.org/1999/xlink">
<g id="graph0" class="graph" transform="scale(1 1) rotate(0) translate(4 939)">
<title>imdf_net_1585281872.0355177</title>
<!-- 140543358754944 -->
<g id="node1" class="node">
<title>140543358754944</title>
<polygon fill="none" stroke="#000000" points="173,-397 0,-397 0,-361 173,-361 173,-397"/>
<text text-anchor="middle" x="86.5" y="-375.3" font-family="Times,serif" font-size="14.00" fill="#000000">AccountDataBean:hashCode</text>
</g>
<!-- 140543358755952 -->
<g id="node37" class="node">
<title>140543358755952</title>
<ellipse fill="none" stroke="#000000" cx="236" cy="-492" rx="27" ry="27"/>
<text text-anchor="middle" x="236" y="-488.3" font-family="Times,serif" font-size="14.00" fill="#000000">p_8</text>
</g>
<!-- 140543358754944&#45;&gt;140543358755952 -->
<g id="edge3" class="edge">
<title>140543358754944&#45;&gt;140543358755952</title>
<path fill="none" stroke="#000000" d="M110.5198,-397.1554C136.401,-416.7178 177.645,-447.8922 205.7274,-469.1183"/>
<polygon fill="#000000" stroke="#000000" points="203.9005,-472.1248 213.9885,-475.3625 208.1214,-466.5405 203.9005,-472.1248"/>
</g>
<!-- 140543358556760 -->
<g id="node2" class="node">
<title>140543358556760</title>
<polygon fill="none" stroke="#000000" points="1414.5,-881 1260.5,-881 1260.5,-845 1414.5,-845 1414.5,-881"/>
<text text-anchor="middle" x="1337.5" y="-859.3" font-family="Times,serif" font-size="14.00" fill="#000000">AccountDataBean:logout</text>
</g>
<!-- 140543358556760&#45;&gt;140543358755952 -->
<g id="edge15" class="edge">
<title>140543358556760&#45;&gt;140543358755952</title>
<path fill="none" stroke="#000000" d="M1260.2399,-869.8783C1204.9403,-874.2148 1128.696,-879 1061.5,-879 416,-879 416,-879 416,-879 357.1501,-879 334.0262,-864.2914 299,-817 265.3901,-771.6209 246.2577,-604.4119 239.1804,-529.1461"/>
<polygon fill="#000000" stroke="#000000" points="242.663,-528.7955 238.2615,-519.1583 235.6924,-529.4369 242.663,-528.7955"/>
</g>
<!-- 140543358557600 -->
<g id="node3" class="node">
<title>140543358557600</title>
<polygon fill="none" stroke="#000000" points="1446.5,-770 1228.5,-770 1228.5,-734 1446.5,-734 1446.5,-770"/>
<text text-anchor="middle" x="1337.5" y="-748.3" font-family="Times,serif" font-size="14.00" fill="#000000">AccountProfileDataBean:getAccount</text>
</g>
<!-- 140543358557600&#45;&gt;140543358755952 -->
<g id="edge4" class="edge">
<title>140543358557600&#45;&gt;140543358755952</title>
<path fill="none" stroke="#000000" d="M1257.8491,-770.0525C1190.38,-784.7236 1098.8377,-803 1061.5,-803 416,-803 416,-803 416,-803 356.9407,-803 335.3413,-786.5544 299,-740 273.4182,-707.2289 251.5665,-589.806 241.6656,-529.0342"/>
<polygon fill="#000000" stroke="#000000" points="245.1091,-528.4024 240.0689,-519.0832 238.1975,-529.5115 245.1091,-528.4024"/>
</g>
<!-- 140543358555808 -->
<g id="node4" class="node">
<title>140543358555808</title>
<polygon fill="none" stroke="#000000" points="1399,-713 1276,-713 1276,-677 1399,-677 1399,-713"/>
<text text-anchor="middle" x="1337.5" y="-691.3" font-family="Times,serif" font-size="14.00" fill="#000000">Log:doActionTrace</text>
</g>
<!-- 140543358555808&#45;&gt;140543358755952 -->
<g id="edge19" class="edge">
<title>140543358555808&#45;&gt;140543358755952</title>
<path fill="none" stroke="#000000" d="M1275.6737,-711.5004C1197.6753,-732.1954 1072.3291,-765 1061.5,-765 416,-765 416,-765 416,-765 356.9407,-765 336.3266,-747.7682 299,-702 257.8225,-651.51 243.5449,-574.656 238.604,-529.2648"/>
<polygon fill="#000000" stroke="#000000" points="242.0815,-528.8632 237.6111,-519.2576 235.1157,-529.5544 242.0815,-528.8632"/>
</g>
<!-- 140543358556704 -->
<g id="node5" class="node">
<title>140543358556704</title>
<polygon fill="none" stroke="#000000" points="1380.5,-652 1294.5,-652 1294.5,-616 1380.5,-616 1380.5,-652"/>
<text text-anchor="middle" x="1337.5" y="-630.3" font-family="Times,serif" font-size="14.00" fill="#000000">Log:doTrace</text>
</g>
<!-- 140543358556704&#45;&gt;140543358755952 -->
<g id="edge1" class="edge">
<title>140543358556704&#45;&gt;140543358755952</title>
<path fill="none" stroke="#000000" d="M1294.3296,-646.8029C1273.8574,-652.9969 1249.0976,-660.6654 1227,-668 1152.886,-692.5996 1139.5899,-727 1061.5,-727 416,-727 416,-727 416,-727 356.7287,-727 337.7079,-707.8864 299,-663 265.666,-624.3453 249.3256,-566.4975 241.7987,-528.9997"/>
<polygon fill="#000000" stroke="#000000" points="245.2037,-528.1692 239.9026,-518.9959 238.3261,-529.4728 245.2037,-528.1692"/>
</g>
<!-- 140543358755280 -->
<g id="node6" class="node">
<title>140543358755280</title>
<polygon fill="none" stroke="#000000" points="1416,-585 1259,-585 1259,-549 1416,-549 1416,-585"/>
<text text-anchor="middle" x="1337.5" y="-563.3" font-family="Times,serif" font-size="14.00" fill="#000000">OrdersAlertFilter:doFilter</text>
</g>
<!-- 140543358755280&#45;&gt;140543358755952 -->
<g id="edge14" class="edge">
<title>140543358755280&#45;&gt;140543358755952</title>
<path fill="none" stroke="#000000" d="M1283.9137,-585.0276C1265.6808,-591.5225 1245.2934,-599.1865 1227,-607 1151.5087,-639.244 1143.5891,-689 1061.5,-689 416,-689 416,-689 416,-689 356.5141,-689 339.7433,-667.3423 299,-624 273.1739,-596.5265 256.1118,-556.5127 246.336,-527.7503"/>
<polygon fill="#000000" stroke="#000000" points="249.6111,-526.5043 243.1797,-518.0849 242.9569,-528.6774 249.6111,-526.5043"/>
</g>
<!-- 140543358756176 -->
<g id="node7" class="node">
<title>140543358756176</title>
<polygon fill="none" stroke="#000000" points="883.5,-568 829.5,-568 829.5,-532 883.5,-532 883.5,-568"/>
<text text-anchor="middle" x="856.5" y="-546.3" font-family="Times,serif" font-size="14.00" fill="#000000">Root</text>
</g>
<!-- 140543358758304 -->
<g id="node39" class="node">
<title>140543358758304</title>
<ellipse fill="#ffa500" stroke="#000000" cx="959" cy="-542" rx="27" ry="27"/>
</g>
<!-- 140543358756176&#45;&gt;140543358758304 -->
<g id="edge7" class="edge">
<title>140543358756176&#45;&gt;140543358758304</title>
<path fill="none" stroke="#000000" d="M883.699,-547.8772C895.3754,-546.9658 909.206,-545.8864 921.8075,-544.9028"/>
<polygon fill="#000000" stroke="#000000" points="922.3322,-548.3726 932.0295,-544.105 921.7875,-541.3938 922.3322,-548.3726"/>
</g>
<!-- 140543358755112 -->
<g id="node8" class="node">
<title>140543358755112</title>
<polygon fill="none" stroke="#000000" points="1399,-505 1276,-505 1276,-469 1399,-469 1399,-505"/>
<text text-anchor="middle" x="1337.5" y="-483.3" font-family="Times,serif" font-size="14.00" fill="#000000">TradeAction:logout</text>
</g>
<!-- 140543358755112&#45;&gt;140543358755952 -->
<g id="edge2" class="edge">
<title>140543358755112&#45;&gt;140543358755952</title>
<path fill="none" stroke="#000000" d="M1296.372,-505.0182C1275.263,-514.6915 1249.3544,-527.2302 1227,-540 1150.0957,-583.931 1150.0675,-651 1061.5,-651 416,-651 416,-651 416,-651 340.5564,-651 281.8393,-571.5719 253.8922,-524.9932"/>
<polygon fill="#000000" stroke="#000000" points="256.7883,-523.0122 248.7172,-516.1487 250.7465,-526.5474 256.7883,-523.0122"/>
</g>
<!-- 140543358556480 -->
<g id="node9" class="node">
<title>140543358556480</title>
<polygon fill="none" stroke="#000000" points="1429.5,-450 1245.5,-450 1245.5,-414 1429.5,-414 1429.5,-450"/>
<text text-anchor="middle" x="1337.5" y="-428.3" font-family="Times,serif" font-size="14.00" fill="#000000">TradeAppServlet:performTask</text>
</g>
<!-- 140543358556480&#45;&gt;140543358755952 -->
<g id="edge12" class="edge">
<title>140543358556480&#45;&gt;140543358755952</title>
<path fill="none" stroke="#000000" d="M1254.5065,-413.9263C1245.1332,-411.2358 1235.7967,-408.2576 1227,-405 1149.6461,-376.3544 1143.9876,-321 1061.5,-321 416,-321 416,-321 416,-321 337.0373,-321 278.9111,-408.566 252.2356,-458.3737"/>
<polygon fill="#000000" stroke="#000000" points="248.9967,-457.0152 247.4727,-467.4999 255.2024,-460.254 248.9967,-457.0152"/>
</g>
<!-- 140543358555528 -->
<g id="node10" class="node">
<title>140543358555528</title>
<polygon fill="none" stroke="#000000" points="1424,-396 1251,-396 1251,-360 1424,-360 1424,-396"/>
<text text-anchor="middle" x="1337.5" y="-374.3" font-family="Times,serif" font-size="14.00" fill="#000000">TradeConfig:getActionTrace</text>
</g>
<!-- 140543358555528&#45;&gt;140543358755952 -->
<g id="edge10" class="edge">
<title>140543358555528&#45;&gt;140543358755952</title>
<path fill="none" stroke="#000000" d="M1254.1815,-359.9354C1244.8672,-357.0222 1235.6334,-353.7192 1227,-350 1146.9975,-315.5357 1148.6103,-245 1061.5,-245 416,-245 416,-245 416,-245 313.0418,-245 262.749,-386.9042 244.4352,-455.5958"/>
<polygon fill="#000000" stroke="#000000" points="240.972,-455.0095 241.8648,-465.5667 247.7504,-456.757 240.972,-455.0095"/>
</g>
<!-- 140543358517544 -->
<g id="node11" class="node">
<title>140543358517544</title>
<polygon fill="none" stroke="#000000" points="691,-493 479,-493 479,-457 691,-457 691,-493"/>
<text text-anchor="middle" x="585" y="-471.3" font-family="Times,serif" font-size="14.00" fill="#000000">TradeConfig:getDisplayOrderAlerts</text>
</g>
<!-- 140543358756064 -->
<g id="node31" class="node">
<title>140543358756064</title>
<ellipse fill="none" stroke="#000000" cx="754" cy="-448" rx="27" ry="27"/>
<text text-anchor="middle" x="754" y="-444.3" font-family="Times,serif" font-size="14.00" fill="#000000">p_10</text>
</g>
<!-- 140543358517544&#45;&gt;140543358756064 -->
<g id="edge18" class="edge">
<title>140543358517544&#45;&gt;140543358756064</title>
<path fill="none" stroke="#000000" d="M691.0706,-458.0538C700.293,-456.5804 709.1479,-455.1657 717.1547,-453.8865"/>
<polygon fill="#000000" stroke="#000000" points="717.8289,-457.3233 727.1514,-452.2894 716.7245,-450.411 717.8289,-457.3233"/>
</g>
<!-- 140543358555416 -->
<g id="node12" class="node">
<title>140543358555416</title>
<polygon fill="none" stroke="#000000" points="1403.5,-341 1271.5,-341 1271.5,-305 1403.5,-305 1403.5,-341"/>
<text text-anchor="middle" x="1337.5" y="-319.3" font-family="Times,serif" font-size="14.00" fill="#000000">TradeConfig:getPage</text>
</g>
<!-- 140543358555416&#45;&gt;140543358755952 -->
<g id="edge9" class="edge">
<title>140543358555416&#45;&gt;140543358755952</title>
<path fill="none" stroke="#000000" d="M1271.2864,-309.6686C1256.436,-305.736 1240.9542,-300.8728 1227,-295 1209.7171,-287.7263 1207.3655,-282.153 1191,-273 1134.6195,-241.4672 1126.0994,-207 1061.5,-207 416,-207 416,-207 416,-207 358.3506,-207 335.981,-218.7749 299,-263 274.597,-292.1832 252.6431,-398.2637 242.2852,-455.2312"/>
<polygon fill="#000000" stroke="#000000" points="238.8056,-454.8067 240.4881,-465.2671 245.696,-456.0406 238.8056,-454.8067"/>
</g>
<!-- 140543358556424 -->
<g id="node13" class="node">
<title>140543358556424</title>
<polygon fill="none" stroke="#000000" points="1406,-286 1269,-286 1269,-250 1406,-250 1406,-286"/>
<text text-anchor="middle" x="1337.5" y="-264.3" font-family="Times,serif" font-size="14.00" fill="#000000">TradeConfig:getTrace</text>
</g>
<!-- 140543358556424&#45;&gt;140543358755952 -->
<g id="edge5" class="edge">
<title>140543358556424&#45;&gt;140543358755952</title>
<path fill="none" stroke="#000000" d="M1268.9609,-251.65C1254.9681,-247.8549 1240.4233,-243.5738 1227,-239 1151.4036,-213.2415 1141.3644,-169 1061.5,-169 416,-169 416,-169 416,-169 360.2864,-169 335.4526,-171.8668 299,-214 268.0346,-249.7909 248.1725,-387.2845 240.1076,-454.5296"/>
<polygon fill="#000000" stroke="#000000" points="236.6045,-454.3526 238.9147,-464.6925 243.5567,-455.1688 236.6045,-454.3526"/>
</g>
<!-- 140543358557376 -->
<g id="node14" class="node">
<title>140543358557376</title>
<polygon fill="none" stroke="#000000" points="1448,-230 1227,-230 1227,-194 1448,-194 1448,-230"/>
<text text-anchor="middle" x="1337.5" y="-208.3" font-family="Times,serif" font-size="14.00" fill="#000000">TradeConfig:useRemoteEJBInterface</text>
</g>
<!-- 140543358557376&#45;&gt;140543358755952 -->
<g id="edge6" class="edge">
<title>140543358557376&#45;&gt;140543358755952</title>
<path fill="none" stroke="#000000" d="M1274.9523,-193.9571C1259.2888,-189.4193 1242.5256,-184.5463 1227,-180 1153.3798,-158.4418 1138.2117,-131 1061.5,-131 416,-131 416,-131 416,-131 360.8996,-131 335.0858,-130.3603 299,-172 262.6397,-213.9563 245.0169,-379.4125 238.761,-454.5371"/>
<polygon fill="#000000" stroke="#000000" points="235.2373,-454.6906 237.9196,-464.9402 242.2145,-455.2549 235.2373,-454.6906"/>
</g>
<!-- 140543358556928 -->
<g id="node15" class="node">
<title>140543358556928</title>
<polygon fill="none" stroke="#000000" points="1410.5,-171 1264.5,-171 1264.5,-135 1410.5,-135 1410.5,-171"/>
<text text-anchor="middle" x="1337.5" y="-149.3" font-family="Times,serif" font-size="14.00" fill="#000000">TradeSLSBBean:logout</text>
</g>
<!-- 140543358556928&#45;&gt;140543358755952 -->
<g id="edge11" class="edge">
<title>140543358556928&#45;&gt;140543358755952</title>
<path fill="none" stroke="#000000" d="M1286.3361,-134.998C1231.4664,-117.3246 1141.4284,-93 1061.5,-93 416,-93 416,-93 416,-93 361.1872,-93 334.7764,-90.473 299,-132 257.5895,-180.0667 242.4317,-372.7268 237.781,-454.7382"/>
<polygon fill="#000000" stroke="#000000" points="234.2786,-454.6874 237.2287,-464.8633 241.2683,-455.0688 234.2786,-454.6874"/>
</g>
<!-- 140543358555584 -->
<g id="node16" class="node">
<title>140543358555584</title>
<polygon fill="none" stroke="#000000" points="1427,-108 1248,-108 1248,-72 1427,-72 1427,-108"/>
<text text-anchor="middle" x="1337.5" y="-86.3" font-family="Times,serif" font-size="14.00" fill="#000000">TradeServletAction:doLogout</text>
</g>
<!-- 140543358555584&#45;&gt;140543358755952 -->
<g id="edge13" class="edge">
<title>140543358555584&#45;&gt;140543358755952</title>
<path fill="none" stroke="#000000" d="M1247.7444,-72.8076C1193.9427,-63.9563 1124.049,-55 1061.5,-55 416,-55 416,-55 416,-55 361.3261,-55 334.5004,-51.4193 299,-93 252.7818,-147.1341 240.2485,-366.3019 237.0398,-454.7339"/>
<polygon fill="#000000" stroke="#000000" points="233.5378,-454.7363 236.6931,-464.8503 240.5337,-454.9761 233.5378,-454.7363"/>
</g>
<!-- 140543358557152 -->
<g id="node17" class="node">
<title>140543358557152</title>
<polygon fill="none" stroke="#000000" points="1408.5,-36 1266.5,-36 1266.5,0 1408.5,0 1408.5,-36"/>
<text text-anchor="middle" x="1337.5" y="-14.3" font-family="Times,serif" font-size="14.00" fill="#000000">new AccountDataBean</text>
</g>
<!-- 140543358557152&#45;&gt;140543358755952 -->
<g id="edge17" class="edge">
<title>140543358557152&#45;&gt;140543358755952</title>
<path fill="none" stroke="#000000" d="M1266.3058,-17.6005C1210.5706,-17.3219 1131.0994,-17 1061.5,-17 416,-17 416,-17 416,-17 361.4618,-17 334.2879,-12.4165 299,-54 273.1354,-84.4791 247.6843,-354.9196 239.0711,-454.9855"/>
<polygon fill="#000000" stroke="#000000" points="235.5837,-454.6895 238.2207,-464.951 242.5584,-455.2848 235.5837,-454.6895"/>
</g>
<!-- 140543358555976 -->
<g id="node18" class="node">
<title>140543358555976</title>
<polygon fill="none" stroke="#000000" points="1427,-935 1248,-935 1248,-899 1427,-899 1427,-935"/>
<text text-anchor="middle" x="1337.5" y="-913.3" font-family="Times,serif" font-size="14.00" fill="#000000">new AccountProfileDataBean</text>
</g>
<!-- 140543358555976&#45;&gt;140543358755952 -->
<g id="edge16" class="edge">
<title>140543358555976&#45;&gt;140543358755952</title>
<path fill="none" stroke="#000000" d="M1247.6925,-917C1193.7215,-917 1123.6719,-917 1061.5,-917 416,-917 416,-917 416,-917 357.3569,-917 333.5867,-903.3579 299,-856 261.1779,-804.212 244.0021,-611.2036 238.2964,-529.2181"/>
<polygon fill="#000000" stroke="#000000" points="241.7789,-528.839 237.6115,-519.0983 234.7948,-529.3118 241.7789,-528.839"/>
</g>
<!-- 140543361105312 -->
<g id="node19" class="node">
<title>140543361105312</title>
<polygon fill="none" stroke="#000000" points="1393,-826 1282,-826 1282,-790 1393,-790 1393,-826"/>
<text text-anchor="middle" x="1337.5" y="-804.3" font-family="Times,serif" font-size="14.00" fill="#000000">new TradeAction</text>
</g>
<!-- 140543361105312&#45;&gt;140543358755952 -->
<g id="edge8" class="edge">
<title>140543361105312&#45;&gt;140543358755952</title>
<path fill="none" stroke="#000000" d="M1281.963,-818.5776C1226.3925,-828.2299 1138.3508,-841 1061.5,-841 416,-841 416,-841 416,-841 357.1501,-841 334.6055,-825.8567 299,-779 269.3372,-739.9639 248.7013,-597.7458 240.2596,-529.3009"/>
<polygon fill="#000000" stroke="#000000" points="243.6863,-528.4833 239.01,-518.9764 236.737,-529.3245 243.6863,-528.4833"/>
</g>
<!-- 140543358756792 -->
<g id="node20" class="node">
<title>140543358756792</title>
<polygon fill="none" stroke="#000000" points="896,-398 817,-398 817,-362 896,-362 896,-398"/>
<text text-anchor="middle" x="856.5" y="-376.3" font-family="Times,serif" font-size="14.00" fill="#000000">init_loop_2</text>
</g>
<!-- 140543358756680 -->
<g id="node34" class="node">
<title>140543358756680</title>
<ellipse fill="none" stroke="#000000" cx="959" cy="-432" rx="27" ry="27"/>
<text text-anchor="middle" x="959" y="-428.3" font-family="Times,serif" font-size="14.00" fill="#000000">p_5</text>
</g>
<!-- 140543358756792&#45;&gt;140543358756680 -->
<g id="edge20" class="edge">
<title>140543358756792&#45;&gt;140543358756680</title>
<path fill="none" stroke="#000000" d="M892.0619,-398.0411C902.9738,-403.577 914.9358,-409.6455 925.6914,-415.102"/>
<polygon fill="#000000" stroke="#000000" points="924.2743,-418.3077 934.7759,-419.7107 927.4414,-412.0651 924.2743,-418.3077"/>
</g>
<!-- 140543358755840 -->
<g id="node21" class="node">
<title>140543358755840</title>
<polygon fill="none" stroke="#000000" points="1101,-450 1022,-450 1022,-414 1101,-414 1101,-450"/>
<text text-anchor="middle" x="1061.5" y="-428.3" font-family="Times,serif" font-size="14.00" fill="#000000">init_loop_4</text>
</g>
<!-- 140543358755784 -->
<g id="node36" class="node">
<title>140543358755784</title>
<ellipse fill="none" stroke="#000000" cx="1164" cy="-432" rx="27" ry="27"/>
<text text-anchor="middle" x="1164" y="-428.3" font-family="Times,serif" font-size="14.00" fill="#000000">p_7</text>
</g>
<!-- 140543358755840&#45;&gt;140543358755784 -->
<g id="edge21" class="edge">
<title>140543358755840&#45;&gt;140543358755784</title>
<path fill="none" stroke="#000000" d="M1101.1292,-432C1109.5266,-432 1118.3634,-432 1126.672,-432"/>
<polygon fill="#000000" stroke="#000000" points="1126.8409,-435.5001 1136.8409,-432 1126.8408,-428.5001 1126.8409,-435.5001"/>
</g>
<!-- 140543358756512 -->
<g id="node22" class="node">
<title>140543358756512</title>
<polygon fill="none" stroke="#000000" points="883.5,-459 829.5,-459 829.5,-423 883.5,-423 883.5,-459"/>
<text text-anchor="middle" x="856.5" y="-437.3" font-family="Times,serif" font-size="14.00" fill="#000000">loop_3</text>
</g>
<!-- 140543358756512&#45;&gt;140543358756680 -->
<g id="edge22" class="edge">
<title>140543358756512&#45;&gt;140543358756680</title>
<path fill="none" stroke="#000000" d="M883.699,-438.6118C895.3754,-437.5865 909.206,-436.3722 921.8075,-435.2657"/>
<polygon fill="#000000" stroke="#000000" points="922.374,-438.7295 932.0295,-434.3681 921.7617,-431.7563 922.374,-438.7295"/>
</g>
<!-- 140543358755616 -->
<g id="node23" class="node">
<title>140543358755616</title>
<polygon fill="none" stroke="#000000" points="986,-623 932,-623 932,-587 986,-587 986,-623"/>
<text text-anchor="middle" x="959" y="-601.3" font-family="Times,serif" font-size="14.00" fill="#000000">loop_5</text>
</g>
<!-- 140543358755616&#45;&gt;140543358755784 -->
<g id="edge23" class="edge">
<title>140543358755616&#45;&gt;140543358755784</title>
<path fill="none" stroke="#000000" d="M986.0367,-591.3561C1016.1199,-575.3779 1065.1981,-546.8748 1101,-514 1117.1781,-499.1446 1132.2818,-479.7599 1143.643,-463.5679"/>
<polygon fill="#000000" stroke="#000000" points="1146.7838,-465.1765 1149.5528,-454.9499 1141.0108,-461.2176 1146.7838,-465.1765"/>
</g>
<!-- 140543358517880 -->
<g id="node24" class="node">
<title>140543358517880</title>
<polygon fill="none" stroke="#000000" points="614.5,-585 555.5,-585 555.5,-549 614.5,-549 614.5,-585"/>
<text text-anchor="middle" x="585" y="-563.3" font-family="Times,serif" font-size="14.00" fill="#000000">skip_10</text>
</g>
<!-- 140543358756624 -->
<g id="node33" class="node">
<title>140543358756624</title>
<ellipse fill="none" stroke="#000000" cx="754" cy="-558" rx="27" ry="27"/>
<text text-anchor="middle" x="754" y="-554.3" font-family="Times,serif" font-size="14.00" fill="#000000">p_4</text>
</g>
<!-- 140543358517880&#45;&gt;140543358756624 -->
<g id="edge52" class="edge">
<title>140543358517880&#45;&gt;140543358756624</title>
<path fill="none" stroke="#000000" d="M614.8248,-565.4117C643.221,-563.8995 686.0535,-561.6185 716.6961,-559.9866"/>
<polygon fill="#000000" stroke="#000000" points="717.183,-563.4657 726.9827,-559.4388 716.8107,-556.4756 717.183,-563.4657"/>
</g>
<!-- 140543358558160 -->
<g id="node25" class="node">
<title>140543358558160</title>
<polygon fill="none" stroke="#000000" points="353,-573 299,-573 299,-537 353,-537 353,-573"/>
<text text-anchor="middle" x="326" y="-551.3" font-family="Times,serif" font-size="14.00" fill="#000000">skip_6</text>
</g>
<!-- 140543358755336 -->
<g id="node38" class="node">
<title>140543358755336</title>
<ellipse fill="none" stroke="#000000" cx="416" cy="-588" rx="27" ry="27"/>
<text text-anchor="middle" x="416" y="-584.3" font-family="Times,serif" font-size="14.00" fill="#000000">p_9</text>
</g>
<!-- 140543358558160&#45;&gt;140543358755336 -->
<g id="edge53" class="edge">
<title>140543358558160&#45;&gt;140543358755336</title>
<path fill="none" stroke="#000000" d="M353.003,-564.9011C361.8415,-568.1419 371.7891,-571.7894 381.1238,-575.212"/>
<polygon fill="#000000" stroke="#000000" points="379.9637,-578.5145 390.5574,-578.671 382.3735,-571.9423 379.9637,-578.5145"/>
</g>
<!-- 140543358557936 -->
<g id="node26" class="node">
<title>140543358557936</title>
<polygon fill="none" stroke="#000000" points="353,-510 299,-510 299,-474 353,-474 353,-510"/>
<text text-anchor="middle" x="326" y="-488.3" font-family="Times,serif" font-size="14.00" fill="#000000">skip_7</text>
</g>
<!-- 140543358756904 -->
<g id="node35" class="node">
<title>140543358756904</title>
<ellipse fill="none" stroke="#000000" cx="416" cy="-492" rx="27" ry="27"/>
<text text-anchor="middle" x="416" y="-488.3" font-family="Times,serif" font-size="14.00" fill="#000000">p_6</text>
</g>
<!-- 140543358557936&#45;&gt;140543358756904 -->
<g id="edge54" class="edge">
<title>140543358557936&#45;&gt;140543358756904</title>
<path fill="none" stroke="#000000" d="M353.003,-492C361.0277,-492 369.9665,-492 378.5309,-492"/>
<polygon fill="#000000" stroke="#000000" points="378.7051,-495.5001 388.705,-492 378.705,-488.5001 378.7051,-495.5001"/>
</g>
<!-- 140543358555360 -->
<g id="node27" class="node">
<title>140543358555360</title>
<polygon fill="none" stroke="#000000" points="1088.5,-505 1034.5,-505 1034.5,-469 1088.5,-469 1088.5,-505"/>
<text text-anchor="middle" x="1061.5" y="-483.3" font-family="Times,serif" font-size="14.00" fill="#000000">skip_8</text>
</g>
<!-- 140543358555360&#45;&gt;140543358756904 -->
<g id="edge55" class="edge">
<title>140543358555360&#45;&gt;140543358756904</title>
<path fill="none" stroke="#000000" d="M1034.4462,-489.6992C951.3557,-497.56 692.5474,-518.8428 479,-502 470.4448,-501.3252 461.2962,-500.1427 452.6976,-498.8216"/>
<polygon fill="#000000" stroke="#000000" points="452.9919,-495.3234 442.5586,-497.1663 451.8639,-502.2319 452.9919,-495.3234"/>
</g>
<!-- 140543358517712 -->
<g id="node28" class="node">
<title>140543358517712</title>
<polygon fill="none" stroke="#000000" points="612,-439 558,-439 558,-403 612,-403 612,-439"/>
<text text-anchor="middle" x="585" y="-417.3" font-family="Times,serif" font-size="14.00" fill="#000000">skip_9</text>
</g>
<!-- 140543358517712&#45;&gt;140543358756064 -->
<g id="edge56" class="edge">
<title>140543358517712&#45;&gt;140543358756064</title>
<path fill="none" stroke="#000000" d="M612.1528,-425.338C640.5708,-429.8782 685.3736,-437.036 717.0117,-442.0906"/>
<polygon fill="#000000" stroke="#000000" points="716.7668,-445.5958 727.1937,-443.7173 717.8712,-438.6835 716.7668,-445.5958"/>
</g>
<!-- 140543358757296 -->
<g id="node29" class="node">
<title>140543358757296</title>
<polygon fill="none" stroke="#000000" points="612,-385 558,-385 558,-349 612,-349 612,-385"/>
<text text-anchor="middle" x="585" y="-363.3" font-family="Times,serif" font-size="14.00" fill="#000000">tau_1</text>
</g>
<!-- 140543358758808 -->
<g id="node32" class="node">
<title>140543358758808</title>
<ellipse fill="none" stroke="#000000" cx="754" cy="-376" rx="27" ry="27"/>
<text text-anchor="middle" x="754" y="-372.3" font-family="Times,serif" font-size="14.00" fill="#000000">p_3</text>
</g>
<!-- 140543358757296&#45;&gt;140543358758808 -->
<g id="edge58" class="edge">
<title>140543358757296&#45;&gt;140543358758808</title>
<path fill="none" stroke="#000000" d="M612.1528,-368.446C640.487,-369.9549 685.1095,-372.3313 716.7314,-374.0153"/>
<polygon fill="#000000" stroke="#000000" points="716.7426,-377.5207 726.9146,-374.5576 717.1149,-370.5307 716.7426,-377.5207"/>
</g>
<!-- 140543358758640 -->
<g id="node30" class="node">
<title>140543358758640</title>
<ellipse fill="#00ff00" stroke="#000000" cx="416" cy="-376" rx="27" ry="27"/>
<text text-anchor="middle" x="416" y="-372.3" font-family="Times,serif" font-size="14.00" fill="#000000">1</text>
</g>
<!-- 140543358758640&#45;&gt;140543358757296 -->
<g id="edge57" class="edge">
<title>140543358758640&#45;&gt;140543358757296</title>
<path fill="none" stroke="#000000" d="M443.1528,-374.554C471.487,-373.0451 516.1095,-370.6687 547.7314,-368.9847"/>
<polygon fill="#000000" stroke="#000000" points="548.1149,-372.4693 557.9146,-368.4424 547.7426,-365.4793 548.1149,-372.4693"/>
</g>
<!-- 140543358756064&#45;&gt;140543358756512 -->
<g id="edge24" class="edge">
<title>140543358756064&#45;&gt;140543358756512</title>
<path fill="none" stroke="#000000" d="M781.199,-446.1425C792.7828,-445.3514 806.4866,-444.4156 819.0073,-443.5605"/>
<polygon fill="#000000" stroke="#000000" points="819.4356,-447.0395 829.1739,-442.8662 818.9586,-440.0557 819.4356,-447.0395"/>
</g>
<!-- 140543358758808&#45;&gt;140543358756792 -->
<g id="edge25" class="edge">
<title>140543358758808&#45;&gt;140543358756792</title>
<path fill="none" stroke="#000000" d="M781.199,-377.0614C789.0426,-377.3675 797.8582,-377.7115 806.6204,-378.0535"/>
<polygon fill="#000000" stroke="#000000" points="806.6915,-381.5588 816.8204,-378.4515 806.9645,-374.5641 806.6915,-381.5588"/>
</g>
<!-- 140543358756624&#45;&gt;140543358756176 -->
<g id="edge26" class="edge">
<title>140543358756624&#45;&gt;140543358756176</title>
<path fill="none" stroke="#000000" d="M780.9307,-555.8981C792.6082,-554.9867 806.4786,-553.9041 819.129,-552.9168"/>
<polygon fill="#000000" stroke="#000000" points="819.696,-556.3832 829.3933,-552.1156 819.1513,-549.4045 819.696,-556.3832"/>
</g>
<!-- 140543358756680&#45;&gt;140543358755840 -->
<g id="edge27" class="edge">
<title>140543358756680&#45;&gt;140543358755840</title>
<path fill="none" stroke="#000000" d="M986.199,-432C994.0426,-432 1002.8582,-432 1011.6204,-432"/>
<polygon fill="#000000" stroke="#000000" points="1011.8204,-435.5001 1021.8204,-432 1011.8204,-428.5001 1011.8204,-435.5001"/>
</g>
<!-- 140543358756680&#45;&gt;140543358555360 -->
<g id="edge28" class="edge">
<title>140543358756680&#45;&gt;140543358555360</title>
<path fill="none" stroke="#000000" d="M983.0317,-444.8951C995.6519,-451.6669 1011.3742,-460.1032 1025.4241,-467.6422"/>
<polygon fill="#000000" stroke="#000000" points="1023.8996,-470.7962 1034.366,-472.4403 1027.2093,-464.628 1023.8996,-470.7962"/>
</g>
<!-- 140543358756904&#45;&gt;140543358517544 -->
<g id="edge29" class="edge">
<title>140543358756904&#45;&gt;140543358517544</title>
<path fill="none" stroke="#000000" d="M443.1528,-489.2687C450.7703,-488.5024 459.5651,-487.6177 468.968,-486.6719"/>
<polygon fill="#000000" stroke="#000000" points="469.3637,-490.1498 478.9631,-485.6664 468.663,-483.185 469.3637,-490.1498"/>
</g>
<!-- 140543358756904&#45;&gt;140543358517880 -->
<g id="edge30" class="edge">
<title>140543358756904&#45;&gt;140543358517880</title>
<path fill="none" stroke="#000000" d="M437.1604,-508.8573C448.9422,-517.6061 464.1861,-527.9161 479,-535 500.0668,-545.074 525.0082,-552.7927 545.4034,-558.1231"/>
<polygon fill="#000000" stroke="#000000" points="544.7587,-561.57 555.3109,-560.6202 546.4695,-554.7823 544.7587,-561.57"/>
</g>
<!-- 140543358756904&#45;&gt;140543358517712 -->
<g id="edge31" class="edge">
<title>140543358756904&#45;&gt;140543358517712</title>
<path fill="none" stroke="#000000" d="M436.98,-474.464C448.709,-465.4278 463.96,-454.8892 479,-448 500.8595,-437.987 527.0243,-431.2741 547.8891,-427.0462"/>
<polygon fill="#000000" stroke="#000000" points="548.8034,-430.4347 557.9642,-425.1122 547.4837,-423.5602 548.8034,-430.4347"/>
</g>
<!-- 140543358755784&#45;&gt;140543358754944 -->
<g id="edge34" class="edge">
<title>140543358755784&#45;&gt;140543358754944</title>
<path fill="none" stroke="#000000" d="M1148.533,-409.6932C1117.6917,-368.1272 1044.1361,-283 959,-283 326,-283 326,-283 326,-283 248.3073,-283 165.9579,-327.0633 120.9219,-355.485"/>
<polygon fill="#000000" stroke="#000000" points="118.9468,-352.5938 112.4246,-360.9431 122.73,-358.4834 118.9468,-352.5938"/>
</g>
<!-- 140543358755784&#45;&gt;140543358556760 -->
<g id="edge45" class="edge">
<title>140543358755784&#45;&gt;140543358556760</title>
<path fill="none" stroke="#000000" d="M1164.4775,-459.2797C1166.4658,-540.6822 1176.5683,-779.6403 1227,-835 1233.6273,-842.2749 1241.8493,-847.7801 1250.7963,-851.9286"/>
<polygon fill="#000000" stroke="#000000" points="1249.7627,-855.2855 1260.3461,-855.7779 1252.3797,-848.7931 1249.7627,-855.2855"/>
</g>
<!-- 140543358755784&#45;&gt;140543358557600 -->
<g id="edge35" class="edge">
<title>140543358755784&#45;&gt;140543358557600</title>
<path fill="none" stroke="#000000" d="M1166.3512,-459.2682C1172.4714,-523.9503 1190.9807,-684.0881 1227,-722 1229.0538,-724.1617 1231.2463,-726.1731 1233.5541,-728.0443"/>
<polygon fill="#000000" stroke="#000000" points="1231.6254,-730.9671 1241.8116,-733.8814 1235.6661,-725.251 1231.6254,-730.9671"/>
</g>
<!-- 140543358755784&#45;&gt;140543358555808 -->
<g id="edge48" class="edge">
<title>140543358755784&#45;&gt;140543358555808</title>
<path fill="none" stroke="#000000" d="M1168.1223,-459.0625C1176.8793,-513.1709 1198.8585,-632.0005 1227,-661 1237.6637,-671.9889 1251.7849,-679.4477 1266.3559,-684.5046"/>
<polygon fill="#000000" stroke="#000000" points="1265.3759,-687.8651 1275.9642,-687.4937 1267.4553,-681.1811 1265.3759,-687.8651"/>
</g>
<!-- 140543358755784&#45;&gt;140543358556704 -->
<g id="edge32" class="edge">
<title>140543358755784&#45;&gt;140543358556704</title>
<path fill="none" stroke="#000000" d="M1167.5317,-459.0046C1173.5639,-494.5917 1189.1125,-556.9953 1227,-594 1242.6162,-609.2523 1264.4804,-618.7425 1284.6425,-624.6228"/>
<polygon fill="#000000" stroke="#000000" points="1283.8035,-628.0213 1294.3686,-627.2289 1285.6153,-621.2599 1283.8035,-628.0213"/>
</g>
<!-- 140543358755784&#45;&gt;140543358755280 -->
<g id="edge44" class="edge">
<title>140543358755784&#45;&gt;140543358755280</title>
<path fill="none" stroke="#000000" d="M1177.8587,-455.6315C1189.2564,-473.4731 1206.7827,-497.6022 1227,-514 1242.1277,-526.2697 1260.5668,-536.5417 1278.0144,-544.6757"/>
<polygon fill="#000000" stroke="#000000" points="1277.0222,-548.067 1287.5782,-548.9738 1279.8917,-541.6821 1277.0222,-548.067"/>
</g>
<!-- 140543358755784&#45;&gt;140543358755112 -->
<g id="edge33" class="edge">
<title>140543358755784&#45;&gt;140543358755112</title>
<path fill="none" stroke="#000000" d="M1188.4863,-443.5548C1200.0088,-448.7162 1214.0385,-454.6105 1227,-459 1239.4725,-463.2239 1252.9264,-467.1436 1266.009,-470.632"/>
<polygon fill="#000000" stroke="#000000" points="1265.3592,-474.0794 1275.9186,-473.2134 1267.1238,-467.3055 1265.3592,-474.0794"/>
</g>
<!-- 140543358755784&#45;&gt;140543358556480 -->
<g id="edge42" class="edge">
<title>140543358755784&#45;&gt;140543358556480</title>
<path fill="none" stroke="#000000" d="M1191.1094,-432C1203.4218,-432 1218.8408,-432 1235.0149,-432"/>
<polygon fill="#000000" stroke="#000000" points="1235.1622,-435.5001 1245.1621,-432 1235.1621,-428.5001 1235.1622,-435.5001"/>
</g>
<!-- 140543358755784&#45;&gt;140543358555528 -->
<g id="edge40" class="edge">
<title>140543358755784&#45;&gt;140543358555528</title>
<path fill="none" stroke="#000000" d="M1188.4694,-420.3949C1199.9884,-415.2229 1214.0199,-409.3342 1227,-405 1233.4185,-402.8568 1240.0985,-400.8036 1246.855,-398.8547"/>
<polygon fill="#000000" stroke="#000000" points="1248.1002,-402.1408 1256.7872,-396.0756 1246.214,-395.3997 1248.1002,-402.1408"/>
</g>
<!-- 140543358755784&#45;&gt;140543358555416 -->
<g id="edge39" class="edge">
<title>140543358755784&#45;&gt;140543358555416</title>
<path fill="none" stroke="#000000" d="M1176.8402,-407.8695C1187.7991,-389.5761 1205.2286,-365.2316 1227,-351 1237.4567,-344.1646 1249.4753,-338.9977 1261.6496,-335.092"/>
<polygon fill="#000000" stroke="#000000" points="1262.8114,-338.3987 1271.4197,-332.2224 1260.8387,-331.6824 1262.8114,-338.3987"/>
</g>
<!-- 140543358755784&#45;&gt;140543358556424 -->
<g id="edge36" class="edge">
<title>140543358755784&#45;&gt;140543358556424</title>
<path fill="none" stroke="#000000" d="M1169.1565,-405.2837C1176.5408,-374.3552 1193.1559,-324.0799 1227,-296 1236.2812,-288.2996 1247.4049,-282.6786 1258.9682,-278.5834"/>
<polygon fill="#000000" stroke="#000000" points="1260.2738,-281.8414 1268.7539,-275.4901 1258.164,-275.167 1260.2738,-281.8414"/>
</g>
<!-- 140543358755784&#45;&gt;140543358557376 -->
<g id="edge37" class="edge">
<title>140543358755784&#45;&gt;140543358557376</title>
<path fill="none" stroke="#000000" d="M1169.5028,-405.3608C1179.7129,-358.4211 1202.7657,-263.7776 1227,-241 1228.9601,-239.1577 1231.0226,-237.4293 1233.1712,-235.8078"/>
<polygon fill="#000000" stroke="#000000" points="1235.4398,-238.5037 1241.8511,-230.0688 1231.5791,-232.6646 1235.4398,-238.5037"/>
</g>
<!-- 140543358755784&#45;&gt;140543358556928 -->
<g id="edge41" class="edge">
<title>140543358755784&#45;&gt;140543358556928</title>
<path fill="none" stroke="#000000" d="M1167.4827,-404.9903C1175.3966,-347.6783 1196.445,-216.5534 1227,-185 1234.8445,-176.8992 1244.6038,-170.8151 1255.0517,-166.2521"/>
<polygon fill="#000000" stroke="#000000" points="1256.3302,-169.5104 1264.3796,-162.6214 1253.7911,-162.9871 1256.3302,-169.5104"/>
</g>
<!-- 140543358755784&#45;&gt;140543358555584 -->
<g id="edge43" class="edge">
<title>140543358755784&#45;&gt;140543358555584</title>
<path fill="none" stroke="#000000" d="M1166.1355,-404.851C1171.9268,-337.9026 1190.0385,-167.3475 1227,-126 1231.324,-121.1629 1236.3051,-116.973 1241.7102,-113.344"/>
<polygon fill="#000000" stroke="#000000" points="1243.7232,-116.2187 1250.5192,-108.0906 1240.1378,-110.2066 1243.7232,-116.2187"/>
</g>
<!-- 140543358755784&#45;&gt;140543358557152 -->
<g id="edge47" class="edge">
<title>140543358755784&#45;&gt;140543358557152</title>
<path fill="none" stroke="#000000" d="M1165.2762,-404.8813C1169.3593,-328.898 1184.426,-116.017 1227,-63 1235.1131,-52.8968 1245.8591,-45.0443 1257.4668,-38.9457"/>
<polygon fill="#000000" stroke="#000000" points="1258.9832,-42.1002 1266.482,-34.6157 1255.9525,-35.7903 1258.9832,-42.1002"/>
</g>
<!-- 140543358755784&#45;&gt;140543358555976 -->
<g id="edge46" class="edge">
<title>140543358755784&#45;&gt;140543358555976</title>
<path fill="none" stroke="#000000" d="M1165.9586,-459.0427C1172.9624,-552.4774 1197.903,-857.7419 1227,-890 1230.5869,-893.9765 1234.6537,-897.4136 1239.0585,-900.3808"/>
<polygon fill="#000000" stroke="#000000" points="1237.5045,-903.5258 1247.9088,-905.5262 1241.0228,-897.4742 1237.5045,-903.5258"/>
</g>
<!-- 140543358755784&#45;&gt;140543361105312 -->
<g id="edge38" class="edge">
<title>140543358755784&#45;&gt;140543361105312</title>
<path fill="none" stroke="#000000" d="M1165.2515,-459.0947C1169.1881,-532.403 1183.7413,-732.2726 1227,-779 1238.7702,-791.714 1255.3742,-799.1279 1272.1426,-803.3784"/>
<polygon fill="#000000" stroke="#000000" points="1271.4827,-806.8167 1281.9993,-805.5316 1272.9767,-799.978 1271.4827,-806.8167"/>
</g>
<!-- 140543358755952&#45;&gt;140543358558160 -->
<g id="edge49" class="edge">
<title>140543358755952&#45;&gt;140543358558160</title>
<path fill="none" stroke="#000000" d="M258.2472,-507.573C268.3684,-514.6579 280.5735,-523.2015 291.8201,-531.0741"/>
<polygon fill="#000000" stroke="#000000" points="289.9838,-534.0609 300.1832,-536.9283 293.998,-528.3263 289.9838,-534.0609"/>
</g>
<!-- 140543358755952&#45;&gt;140543358557936 -->
<g id="edge50" class="edge">
<title>140543358755952&#45;&gt;140543358557936</title>
<path fill="none" stroke="#000000" d="M263.003,-492C271.0277,-492 279.9665,-492 288.5309,-492"/>
<polygon fill="#000000" stroke="#000000" points="288.7051,-495.5001 298.705,-492 288.705,-488.5001 288.7051,-495.5001"/>
</g>
<!-- 140543358755336&#45;&gt;140543358755616 -->
<g id="edge51" class="edge">
<title>140543358755336&#45;&gt;140543358755616</title>
<path fill="none" stroke="#000000" d="M442.9456,-590.9966C454.0912,-592.124 467.1546,-593.3011 479,-594 643.8446,-603.7259 841.004,-604.9863 921.7486,-605.059"/>
<polygon fill="#000000" stroke="#000000" points="921.9058,-608.5589 931.907,-605.0622 921.9081,-601.5589 921.9058,-608.5589"/>
</g>
</g>
</svg>
