<?xml version="1.0" encoding="UTF-8" standalone="no"?>
<!DOCTYPE svg PUBLIC "-//W3C//DTD SVG 1.1//EN"
 "http://www.w3.org/Graphics/SVG/1.1/DTD/svg11.dtd">
<!-- Generated by graphviz version 2.40.1 (20161225.0304)
 -->
<!-- Title: alpha_classic_net_1585315545.8938038 Pages: 1 -->
<svg width="370pt" height="386pt"
 viewBox="0.00 0.00 370.00 386.00" xmlns="http://www.w3.org/2000/svg" xmlns:xlink="http://www.w3.org/1999/xlink">
<g id="graph0" class="graph" transform="scale(1 1) rotate(0) translate(4 382)">
<title>alpha_classic_net_1585315545.8938038</title>
<!-- 140178109584776 -->
<g id="node1" class="node">
<title>140178109584776</title>
<polygon fill="none" stroke="#000000" points="128.5,-36 35.5,-36 35.5,0 128.5,0 128.5,-36"/>
<text text-anchor="middle" x="82" y="-14.3" font-family="Times,serif" font-size="14.00" fill="#000000">FinancialUtils</text>
</g>
<!-- 140178109585728 -->
<g id="node2" class="node">
<title>140178109585728</title>
<polygon fill="none" stroke="#000000" points="109,-90 55,-90 55,-54 109,-54 109,-90"/>
<text text-anchor="middle" x="82" y="-68.3" font-family="Times,serif" font-size="14.00" fill="#000000">Log</text>
</g>
<!-- 140178132320776 -->
<g id="node3" class="node">
<title>140178132320776</title>
<polygon fill="none" stroke="#000000" points="164,-144 0,-144 0,-108 164,-108 164,-144"/>
<text text-anchor="middle" x="82" y="-122.3" font-family="Times,serif" font-size="14.00" fill="#000000">MarketSummaryDataBean</text>
</g>
<!-- 140178109583432 -->
<g id="node4" class="node">
<title>140178109583432</title>
<polygon fill="none" stroke="#000000" points="362,-207 200,-207 200,-171 362,-171 362,-207"/>
<text text-anchor="middle" x="281" y="-185.3" font-family="Times,serif" font-size="14.00" fill="#000000">MarketSummarySingleton</text>
</g>
<!-- 140178132321392 -->
<g id="node5" class="node">
<title>140178132321392</title>
<polygon fill="none" stroke="#000000" points="133.5,-270 30.5,-270 30.5,-234 133.5,-234 133.5,-270"/>
<text text-anchor="middle" x="82" y="-248.3" font-family="Times,serif" font-size="14.00" fill="#000000">QuoteDataBean</text>
</g>
<!-- 140178109583880 -->
<g id="node6" class="node">
<title>140178109583880</title>
<polygon fill="none" stroke="#000000" points="109,-324 55,-324 55,-288 109,-288 109,-324"/>
<text text-anchor="middle" x="82" y="-302.3" font-family="Times,serif" font-size="14.00" fill="#000000">Root</text>
</g>
<!-- 140178109586624 -->
<g id="node9" class="node">
<title>140178109586624</title>
<ellipse fill="#ffa500" stroke="#000000" cx="281" cy="-306" rx="27" ry="27"/>
</g>
<!-- 140178109583880&#45;&gt;140178109586624 -->
<g id="edge1" class="edge">
<title>140178109583880&#45;&gt;140178109586624</title>
<path fill="none" stroke="#000000" d="M109.2528,-306C144.063,-306 204.4698,-306 243.575,-306"/>
<polygon fill="#000000" stroke="#000000" points="243.7578,-309.5001 253.7577,-306 243.7577,-302.5001 243.7578,-309.5001"/>
</g>
<!-- 140178109584720 -->
<g id="node7" class="node">
<title>140178109584720</title>
<polygon fill="none" stroke="#000000" points="125,-378 39,-378 39,-342 125,-342 125,-378"/>
<text text-anchor="middle" x="82" y="-356.3" font-family="Times,serif" font-size="14.00" fill="#000000">TradeConfig</text>
</g>
<!-- 140178109584664 -->
<g id="node8" class="node">
<title>140178109584664</title>
<ellipse fill="#00ff00" stroke="#000000" cx="82" cy="-189" rx="27" ry="27"/>
<text text-anchor="middle" x="82" y="-185.3" font-family="Times,serif" font-size="14.00" fill="#000000">1</text>
</g>
<!-- 140178109584664&#45;&gt;140178109583432 -->
<g id="edge2" class="edge">
<title>140178109584664&#45;&gt;140178109583432</title>
<path fill="none" stroke="#000000" d="M109.2528,-189C130.2014,-189 160.4198,-189 189.6871,-189"/>
<polygon fill="#000000" stroke="#000000" points="189.9829,-192.5001 199.9829,-189 189.9828,-185.5001 189.9829,-192.5001"/>
</g>
</g>
</svg>
