<?xml version="1.0" encoding="UTF-8" standalone="no"?>
<!DOCTYPE svg PUBLIC "-//W3C//DTD SVG 1.1//EN"
 "http://www.w3.org/Graphics/SVG/1.1/DTD/svg11.dtd">
<!-- Generated by graphviz version 2.40.1 (20161225.0304)
 -->
<!-- Title: alpha_plus_net_1585315545.9203126 Pages: 1 -->
<svg width="480pt" height="539pt"
 viewBox="0.00 0.00 480.00 539.00" xmlns="http://www.w3.org/2000/svg" xmlns:xlink="http://www.w3.org/1999/xlink">
<g id="graph0" class="graph" transform="scale(1 1) rotate(0) translate(4 535)">
<title>alpha_plus_net_1585315545.9203126</title>
<!-- 140178109586568 -->
<g id="node1" class="node">
<title>140178109586568</title>
<polygon fill="none" stroke="#000000" points="128.5,-45 35.5,-45 35.5,-9 128.5,-9 128.5,-45"/>
<text text-anchor="middle" x="82" y="-23.3" font-family="Times,serif" font-size="14.00" fill="#000000">FinancialUtils</text>
</g>
<!-- 140178109584888 -->
<g id="node10" class="node">
<title>140178109584888</title>
<ellipse fill="none" stroke="#000000" cx="246" cy="-27" rx="27" ry="27"/>
<text text-anchor="middle" x="246" y="-23.3" font-family="Times,serif" font-size="14.00" fill="#000000">({&#39;FinancialUtils&#39;}, {&#39;Root&#39;})</text>
</g>
<!-- 140178109586568&#45;&gt;140178109584888 -->
<g id="edge6" class="edge">
<title>140178109586568&#45;&gt;140178109584888</title>
<path fill="none" stroke="#000000" d="M128.5571,-27C153.9644,-27 184.9931,-27 208.7751,-27"/>
<polygon fill="#000000" stroke="#000000" points="208.8153,-30.5001 218.8152,-27 208.8152,-23.5001 208.8153,-30.5001"/>
</g>
<!-- 140178109583712 -->
<g id="node2" class="node">
<title>140178109583712</title>
<polygon fill="none" stroke="#000000" points="109,-153 55,-153 55,-117 109,-117 109,-153"/>
<text text-anchor="middle" x="82" y="-131.3" font-family="Times,serif" font-size="14.00" fill="#000000">Log</text>
</g>
<!-- 140178109584048 -->
<g id="node12" class="node">
<title>140178109584048</title>
<ellipse fill="none" stroke="#000000" cx="246" cy="-171" rx="27" ry="27"/>
<text text-anchor="middle" x="246" y="-167.3" font-family="Times,serif" font-size="14.00" fill="#000000">140178109584048</text>
</g>
<!-- 140178109583712&#45;&gt;140178109584048 -->
<g id="edge7" class="edge">
<title>140178109583712&#45;&gt;140178109584048</title>
<path fill="none" stroke="#000000" d="M109.0813,-135.7783C137.0356,-139.973 180.7494,-149.4125 211.2394,-157.7347"/>
<polygon fill="#000000" stroke="#000000" points="210.4554,-161.1502 221.0306,-160.505 212.3612,-154.4146 210.4554,-161.1502"/>
</g>
<!-- 140178109586008 -->
<g id="node14" class="node">
<title>140178109586008</title>
<ellipse fill="none" stroke="#000000" cx="246" cy="-99" rx="27" ry="27"/>
<text text-anchor="middle" x="246" y="-95.3" font-family="Times,serif" font-size="14.00" fill="#000000">140178109586008</text>
</g>
<!-- 140178109583712&#45;&gt;140178109586008 -->
<g id="edge8" class="edge">
<title>140178109583712&#45;&gt;140178109586008</title>
<path fill="none" stroke="#000000" d="M109.0813,-123.889C136.263,-116.0343 178.3451,-106.5968 208.6816,-101.4259"/>
<polygon fill="#000000" stroke="#000000" points="209.5619,-104.8293 218.8785,-99.7844 208.4493,-97.9183 209.5619,-104.8293"/>
</g>
<!-- 140178109585896 -->
<g id="node3" class="node">
<title>140178109585896</title>
<polygon fill="none" stroke="#000000" points="164,-297 0,-297 0,-261 164,-261 164,-297"/>
<text text-anchor="middle" x="82" y="-275.3" font-family="Times,serif" font-size="14.00" fill="#000000">MarketSummaryDataBean</text>
</g>
<!-- 140178109584160 -->
<g id="node13" class="node">
<title>140178109584160</title>
<ellipse fill="none" stroke="#000000" cx="246" cy="-315" rx="27" ry="27"/>
<text text-anchor="middle" x="246" y="-311.3" font-family="Times,serif" font-size="14.00" fill="#000000">140178109584160</text>
</g>
<!-- 140178109585896&#45;&gt;140178109584160 -->
<g id="edge9" class="edge">
<title>140178109585896&#45;&gt;140178109584160</title>
<path fill="none" stroke="#000000" d="M164.4805,-290.3556C180.8795,-293.9624 197.2528,-297.9235 210.977,-301.6631"/>
<polygon fill="#000000" stroke="#000000" points="210.3371,-305.1193 220.912,-304.4701 212.2403,-298.383 210.3371,-305.1193"/>
</g>
<!-- 140178109586736 -->
<g id="node15" class="node">
<title>140178109586736</title>
<ellipse fill="none" stroke="#000000" cx="246" cy="-243" rx="27" ry="27"/>
<text text-anchor="middle" x="246" y="-239.3" font-family="Times,serif" font-size="14.00" fill="#000000">140178109586736</text>
</g>
<!-- 140178109585896&#45;&gt;140178109586736 -->
<g id="edge10" class="edge">
<title>140178109585896&#45;&gt;140178109586736</title>
<path fill="none" stroke="#000000" d="M135.2461,-260.9451C159.1983,-255.0231 186.8983,-249.1417 208.6045,-245.439"/>
<polygon fill="#000000" stroke="#000000" points="209.4206,-248.8528 218.7361,-243.8058 208.3065,-241.942 209.4206,-248.8528"/>
</g>
<!-- 140178109585616 -->
<g id="node4" class="node">
<title>140178109585616</title>
<polygon fill="none" stroke="#000000" points="163,-351 1,-351 1,-315 163,-315 163,-351"/>
<text text-anchor="middle" x="82" y="-329.3" font-family="Times,serif" font-size="14.00" fill="#000000">MarketSummarySingleton</text>
</g>
<!-- 140178132320608 -->
<g id="node5" class="node">
<title>140178132320608</title>
<polygon fill="none" stroke="#000000" points="133.5,-405 30.5,-405 30.5,-369 133.5,-369 133.5,-405"/>
<text text-anchor="middle" x="82" y="-383.3" font-family="Times,serif" font-size="14.00" fill="#000000">QuoteDataBean</text>
</g>
<!-- 140178132321336 -->
<g id="node6" class="node">
<title>140178132321336</title>
<polygon fill="none" stroke="#000000" points="382,-45 328,-45 328,-9 382,-9 382,-45"/>
<text text-anchor="middle" x="355" y="-23.3" font-family="Times,serif" font-size="14.00" fill="#000000">Root</text>
</g>
<!-- 140178109583432 -->
<g id="node11" class="node">
<title>140178109583432</title>
<ellipse fill="#ffa500" stroke="#000000" cx="445" cy="-27" rx="27" ry="27"/>
</g>
<!-- 140178132321336&#45;&gt;140178109583432 -->
<g id="edge11" class="edge">
<title>140178132321336&#45;&gt;140178109583432</title>
<path fill="none" stroke="#000000" d="M382.003,-27C390.0277,-27 398.9665,-27 407.5309,-27"/>
<polygon fill="#000000" stroke="#000000" points="407.7051,-30.5001 417.705,-27 407.705,-23.5001 407.7051,-30.5001"/>
</g>
<!-- 140178109583880 -->
<g id="node7" class="node">
<title>140178109583880</title>
<polygon fill="none" stroke="#000000" points="125,-459 39,-459 39,-423 125,-423 125,-459"/>
<text text-anchor="middle" x="82" y="-437.3" font-family="Times,serif" font-size="14.00" fill="#000000">TradeConfig</text>
</g>
<!-- 140178109586624 -->
<g id="node8" class="node">
<title>140178109586624</title>
<polygon fill="none" stroke="#000000" points="292,-522 200,-522 200,-486 292,-486 292,-522"/>
<text text-anchor="middle" x="246" y="-500.3" font-family="Times,serif" font-size="14.00" fill="#000000">artificial_start</text>
</g>
<!-- 140178132320552 -->
<g id="node9" class="node">
<title>140178132320552</title>
<ellipse fill="#00ff00" stroke="#000000" cx="82" cy="-504" rx="27" ry="27"/>
<text text-anchor="middle" x="82" y="-500.3" font-family="Times,serif" font-size="14.00" fill="#000000">1</text>
</g>
<!-- 140178132320552&#45;&gt;140178109586624 -->
<g id="edge12" class="edge">
<title>140178132320552&#45;&gt;140178109586624</title>
<path fill="none" stroke="#000000" d="M109.0813,-504C130.9433,-504 162.4441,-504 189.7203,-504"/>
<polygon fill="#000000" stroke="#000000" points="189.9385,-507.5001 199.9385,-504 189.9384,-500.5001 189.9385,-507.5001"/>
</g>
<!-- 140178109584888&#45;&gt;140178132321336 -->
<g id="edge3" class="edge">
<title>140178109584888&#45;&gt;140178132321336</title>
<path fill="none" stroke="#000000" d="M273.2241,-27C286.6197,-27 302.9774,-27 317.533,-27"/>
<polygon fill="#000000" stroke="#000000" points="317.7452,-30.5001 327.7452,-27 317.7451,-23.5001 317.7452,-30.5001"/>
</g>
<!-- 140178109584048&#45;&gt;140178109583712 -->
<g id="edge1" class="edge">
<title>140178109584048&#45;&gt;140178109583712</title>
<path fill="none" stroke="#000000" d="M218.8785,-170.2156C191.5633,-166.1142 149.2306,-157.0133 118.8769,-148.8391"/>
<polygon fill="#000000" stroke="#000000" points="119.6537,-145.4223 109.0813,-146.111 117.7756,-152.1656 119.6537,-145.4223"/>
</g>
<!-- 140178109584160&#45;&gt;140178109585896 -->
<g id="edge2" class="edge">
<title>140178109584160&#45;&gt;140178109585896</title>
<path fill="none" stroke="#000000" d="M218.7361,-314.1942C198.721,-311.1819 170.6985,-305.5011 145.2291,-299.4698"/>
<polygon fill="#000000" stroke="#000000" points="145.7887,-296.0043 135.2461,-297.0549 144.1428,-302.8081 145.7887,-296.0043"/>
</g>
<!-- 140178109586008&#45;&gt;140178109583712 -->
<g id="edge4" class="edge">
<title>140178109586008&#45;&gt;140178109583712</title>
<path fill="none" stroke="#000000" d="M221.0306,-109.495C193.9007,-117.4833 150.2707,-127.3081 119.1237,-132.6073"/>
<polygon fill="#000000" stroke="#000000" points="118.399,-129.1787 109.0813,-134.2217 119.5101,-136.09 118.399,-129.1787"/>
</g>
<!-- 140178109586736&#45;&gt;140178109585896 -->
<g id="edge5" class="edge">
<title>140178109586736&#45;&gt;140178109585896</title>
<path fill="none" stroke="#000000" d="M220.912,-253.5299C208.1108,-257.2951 191.6583,-261.4656 174.5831,-265.3767"/>
<polygon fill="#000000" stroke="#000000" points="173.4711,-262.0391 164.4805,-267.6444 175.0043,-268.8691 173.4711,-262.0391"/>
</g>
</g>
</svg>
