<?xml version="1.0" encoding="UTF-8" standalone="no"?>
<!DOCTYPE svg PUBLIC "-//W3C//DTD SVG 1.1//EN"
 "http://www.w3.org/Graphics/SVG/1.1/DTD/svg11.dtd">
<!-- Generated by graphviz version 2.40.1 (20161225.0304)
 -->
<!-- Title: imdf_net_1585315545.9486496 Pages: 1 -->
<svg width="1210pt" height="460pt"
 viewBox="0.00 0.00 1210.00 460.00" xmlns="http://www.w3.org/2000/svg" xmlns:xlink="http://www.w3.org/1999/xlink">
<g id="graph0" class="graph" transform="scale(1 1) rotate(0) translate(4 456)">
<title>imdf_net_1585315545.9486496</title>
<!-- 140178848641712 -->
<g id="node1" class="node">
<title>140178848641712</title>
<polygon fill="none" stroke="#000000" points="93,-341 0,-341 0,-305 93,-305 93,-341"/>
<text text-anchor="middle" x="46.5" y="-319.3" font-family="Times,serif" font-size="14.00" fill="#000000">FinancialUtils</text>
</g>
<!-- 140178132322064 -->
<g id="node25" class="node">
<title>140178132322064</title>
<ellipse fill="none" stroke="#000000" cx="156" cy="-208" rx="27" ry="27"/>
<text text-anchor="middle" x="156" y="-204.3" font-family="Times,serif" font-size="14.00" fill="#000000">p_8</text>
</g>
<!-- 140178848641712&#45;&gt;140178132322064 -->
<g id="edge7" class="edge">
<title>140178848641712&#45;&gt;140178132322064</title>
<path fill="none" stroke="#000000" d="M63.8506,-304.7779C81.682,-286.0509 109.6515,-256.6765 130.1022,-235.1986"/>
<polygon fill="#000000" stroke="#000000" points="132.9028,-237.333 137.2638,-227.6773 127.8332,-232.5059 132.9028,-237.333"/>
</g>
<!-- 140178109587296 -->
<g id="node2" class="node">
<title>140178109587296</title>
<polygon fill="none" stroke="#000000" points="1147,-82 1093,-82 1093,-46 1147,-46 1147,-82"/>
<text text-anchor="middle" x="1120" y="-60.3" font-family="Times,serif" font-size="14.00" fill="#000000">Log</text>
</g>
<!-- 140178109587296&#45;&gt;140178132322064 -->
<g id="edge4" class="edge">
<title>140178109587296&#45;&gt;140178132322064</title>
<path fill="none" stroke="#000000" d="M1092.7586,-52.1121C1047.7972,-33.6038 954.8288,0 872.5,0 336,0 336,0 336,0 278.3506,0 258.6597,-14.1602 219,-56 188.2789,-88.4099 171.5851,-137.9182 163.2428,-171.5567"/>
<polygon fill="#000000" stroke="#000000" points="159.7984,-170.9145 160.9156,-181.4502 166.6124,-172.5173 159.7984,-170.9145"/>
</g>
<!-- 140178132322120 -->
<g id="node3" class="node">
<title>140178132322120</title>
<polygon fill="none" stroke="#000000" points="1202,-406 1038,-406 1038,-370 1202,-370 1202,-406"/>
<text text-anchor="middle" x="1120" y="-384.3" font-family="Times,serif" font-size="14.00" fill="#000000">MarketSummaryDataBean</text>
</g>
<!-- 140178132322120&#45;&gt;140178132322064 -->
<g id="edge6" class="edge">
<title>140178132322120&#45;&gt;140178132322064</title>
<path fill="none" stroke="#000000" d="M1037.727,-401C989.6776,-407.5 927.8026,-414 872.5,-414 336,-414 336,-414 336,-414 276.297,-414 259.258,-392.0879 219,-348 191.7923,-318.2039 174.7323,-274.6899 165.3327,-244.102"/>
<polygon fill="#000000" stroke="#000000" points="168.6176,-242.8667 162.4351,-234.2627 161.9027,-244.8442 168.6176,-242.8667"/>
</g>
<!-- 140178132324024 -->
<g id="node4" class="node">
<title>140178132324024</title>
<polygon fill="none" stroke="#000000" points="1201,-301 1039,-301 1039,-265 1201,-265 1201,-301"/>
<text text-anchor="middle" x="1120" y="-279.3" font-family="Times,serif" font-size="14.00" fill="#000000">MarketSummarySingleton</text>
</g>
<!-- 140178132324024&#45;&gt;140178132322064 -->
<g id="edge5" class="edge">
<title>140178132324024&#45;&gt;140178132322064</title>
<path fill="none" stroke="#000000" d="M1091.9588,-301.1521C1047.3735,-328.2168 956.7303,-376 872.5,-376 336,-376 336,-376 336,-376 257.8922,-376 199.5828,-290.4108 172.6018,-241.4135"/>
<polygon fill="#000000" stroke="#000000" points="175.5922,-239.584 167.7786,-232.4286 169.4246,-242.8948 175.5922,-239.584"/>
</g>
<!-- 140178109584664 -->
<g id="node5" class="node">
<title>140178109584664</title>
<polygon fill="none" stroke="#000000" points="502,-240 399,-240 399,-204 502,-204 502,-240"/>
<text text-anchor="middle" x="450.5" y="-218.3" font-family="Times,serif" font-size="14.00" fill="#000000">QuoteDataBean</text>
</g>
<!-- 140178132323464 -->
<g id="node19" class="node">
<title>140178132323464</title>
<ellipse fill="none" stroke="#000000" cx="565" cy="-249" rx="27" ry="27"/>
<text text-anchor="middle" x="565" y="-245.3" font-family="Times,serif" font-size="14.00" fill="#000000">p_10</text>
</g>
<!-- 140178109584664&#45;&gt;140178132323464 -->
<g id="edge2" class="edge">
<title>140178109584664&#45;&gt;140178132323464</title>
<path fill="none" stroke="#000000" d="M502.0557,-234.1573C511.0021,-236.2669 520.1358,-238.4207 528.5712,-240.4098"/>
<polygon fill="#000000" stroke="#000000" points="527.9185,-243.8518 538.4549,-242.7404 529.5251,-237.0387 527.9185,-243.8518"/>
</g>
<!-- 140178132323296 -->
<g id="node6" class="node">
<title>140178132323296</title>
<polygon fill="none" stroke="#000000" points="694.5,-161 640.5,-161 640.5,-125 694.5,-125 694.5,-161"/>
<text text-anchor="middle" x="667.5" y="-139.3" font-family="Times,serif" font-size="14.00" fill="#000000">Root</text>
</g>
<!-- 140178132321952 -->
<g id="node27" class="node">
<title>140178132321952</title>
<ellipse fill="#ffa500" stroke="#000000" cx="770" cy="-147" rx="27" ry="27"/>
</g>
<!-- 140178132323296&#45;&gt;140178132321952 -->
<g id="edge3" class="edge">
<title>140178132323296&#45;&gt;140178132321952</title>
<path fill="none" stroke="#000000" d="M694.699,-144.0614C706.2828,-144.5135 719.9866,-145.0483 732.5073,-145.5369"/>
<polygon fill="#000000" stroke="#000000" points="732.545,-149.0409 742.6739,-145.9336 732.818,-142.0462 732.545,-149.0409"/>
</g>
<!-- 140178109585896 -->
<g id="node7" class="node">
<title>140178109585896</title>
<polygon fill="none" stroke="#000000" points="1163,-210 1077,-210 1077,-174 1163,-174 1163,-210"/>
<text text-anchor="middle" x="1120" y="-188.3" font-family="Times,serif" font-size="14.00" fill="#000000">TradeConfig</text>
</g>
<!-- 140178109585896&#45;&gt;140178132322064 -->
<g id="edge1" class="edge">
<title>140178109585896&#45;&gt;140178132322064</title>
<path fill="none" stroke="#000000" d="M1104.7223,-173.7294C1068.7848,-132.9364 974.2214,-38 872.5,-38 336,-38 336,-38 336,-38 257.4579,-38 199.3342,-124.6081 172.4951,-174.1888"/>
<polygon fill="#000000" stroke="#000000" points="169.2691,-172.8027 167.6985,-183.2805 175.4603,-176.0691 169.2691,-172.8027"/>
</g>
<!-- 140178132323072 -->
<g id="node8" class="node">
<title>140178132323072</title>
<polygon fill="none" stroke="#000000" points="707,-332 628,-332 628,-296 707,-296 707,-332"/>
<text text-anchor="middle" x="667.5" y="-310.3" font-family="Times,serif" font-size="14.00" fill="#000000">init_loop_2</text>
</g>
<!-- 140178132323016 -->
<g id="node22" class="node">
<title>140178132323016</title>
<ellipse fill="none" stroke="#000000" cx="770" cy="-257" rx="27" ry="27"/>
<text text-anchor="middle" x="770" y="-253.3" font-family="Times,serif" font-size="14.00" fill="#000000">p_5</text>
</g>
<!-- 140178132323072&#45;&gt;140178132323016 -->
<g id="edge8" class="edge">
<title>140178132323072&#45;&gt;140178132323016</title>
<path fill="none" stroke="#000000" d="M699.9316,-295.9648C711.8964,-289.3112 725.4503,-281.774 737.4275,-275.1135"/>
<polygon fill="#000000" stroke="#000000" points="739.1883,-278.1392 746.2268,-270.2202 735.7862,-272.0215 739.1883,-278.1392"/>
</g>
<!-- 140178132323912 -->
<g id="node9" class="node">
<title>140178132323912</title>
<polygon fill="none" stroke="#000000" points="912,-275 833,-275 833,-239 912,-239 912,-275"/>
<text text-anchor="middle" x="872.5" y="-253.3" font-family="Times,serif" font-size="14.00" fill="#000000">init_loop_4</text>
</g>
<!-- 140178132323576 -->
<g id="node24" class="node">
<title>140178132323576</title>
<ellipse fill="none" stroke="#000000" cx="975" cy="-257" rx="27" ry="27"/>
<text text-anchor="middle" x="975" y="-253.3" font-family="Times,serif" font-size="14.00" fill="#000000">p_7</text>
</g>
<!-- 140178132323912&#45;&gt;140178132323576 -->
<g id="edge9" class="edge">
<title>140178132323912&#45;&gt;140178132323576</title>
<path fill="none" stroke="#000000" d="M912.1292,-257C920.5266,-257 929.3634,-257 937.672,-257"/>
<polygon fill="#000000" stroke="#000000" points="937.8409,-260.5001 947.8409,-257 937.8408,-253.5001 937.8409,-260.5001"/>
</g>
<!-- 140178132323352 -->
<g id="node10" class="node">
<title>140178132323352</title>
<polygon fill="none" stroke="#000000" points="694.5,-271 640.5,-271 640.5,-235 694.5,-235 694.5,-271"/>
<text text-anchor="middle" x="667.5" y="-249.3" font-family="Times,serif" font-size="14.00" fill="#000000">loop_3</text>
</g>
<!-- 140178132323352&#45;&gt;140178132323016 -->
<g id="edge10" class="edge">
<title>140178132323352&#45;&gt;140178132323016</title>
<path fill="none" stroke="#000000" d="M694.699,-254.0614C706.2828,-254.5135 719.9866,-255.0483 732.5073,-255.5369"/>
<polygon fill="#000000" stroke="#000000" points="732.545,-259.0409 742.6739,-255.9336 732.818,-252.0462 732.545,-259.0409"/>
</g>
<!-- 140178132323968 -->
<g id="node11" class="node">
<title>140178132323968</title>
<polygon fill="none" stroke="#000000" points="797,-102 743,-102 743,-66 797,-66 797,-102"/>
<text text-anchor="middle" x="770" y="-80.3" font-family="Times,serif" font-size="14.00" fill="#000000">loop_5</text>
</g>
<!-- 140178132323968&#45;&gt;140178132323576 -->
<g id="edge11" class="edge">
<title>140178132323968&#45;&gt;140178132323576</title>
<path fill="none" stroke="#000000" d="M797.2602,-98.0422C827.3232,-114.3136 876.1755,-143.1362 912,-176 927.9506,-190.6324 942.9516,-209.621 954.3114,-225.5348"/>
<polygon fill="#000000" stroke="#000000" points="951.6361,-227.817 960.2308,-234.0123 957.3755,-223.8095 951.6361,-227.817"/>
</g>
<!-- 140178109586680 -->
<g id="node12" class="node">
<title>140178109586680</title>
<polygon fill="none" stroke="#000000" points="480,-148 421,-148 421,-112 480,-112 480,-148"/>
<text text-anchor="middle" x="450.5" y="-126.3" font-family="Times,serif" font-size="14.00" fill="#000000">skip_10</text>
</g>
<!-- 140178132322792 -->
<g id="node21" class="node">
<title>140178132322792</title>
<ellipse fill="none" stroke="#000000" cx="565" cy="-139" rx="27" ry="27"/>
<text text-anchor="middle" x="565" y="-135.3" font-family="Times,serif" font-size="14.00" fill="#000000">p_4</text>
</g>
<!-- 140178109586680&#45;&gt;140178132322792 -->
<g id="edge28" class="edge">
<title>140178109586680&#45;&gt;140178132322792</title>
<path fill="none" stroke="#000000" d="M480.2846,-132.3411C494.713,-133.4753 512.1917,-134.8491 527.5163,-136.0537"/>
<polygon fill="#000000" stroke="#000000" points="527.4741,-139.5611 537.7176,-136.8555 528.0226,-132.5826 527.4741,-139.5611"/>
</g>
<!-- 140178109583712 -->
<g id="node13" class="node">
<title>140178109583712</title>
<polygon fill="none" stroke="#000000" points="273,-163 219,-163 219,-127 273,-127 273,-163"/>
<text text-anchor="middle" x="246" y="-141.3" font-family="Times,serif" font-size="14.00" fill="#000000">skip_6</text>
</g>
<!-- 140178132324304 -->
<g id="node26" class="node">
<title>140178132324304</title>
<ellipse fill="none" stroke="#000000" cx="336" cy="-108" rx="27" ry="27"/>
<text text-anchor="middle" x="336" y="-104.3" font-family="Times,serif" font-size="14.00" fill="#000000">p_9</text>
</g>
<!-- 140178109583712&#45;&gt;140178132324304 -->
<g id="edge29" class="edge">
<title>140178109583712&#45;&gt;140178132324304</title>
<path fill="none" stroke="#000000" d="M273.003,-133.8988C281.9184,-130.2335 291.9622,-126.1044 301.3671,-122.238"/>
<polygon fill="#000000" stroke="#000000" points="302.9446,-125.3737 310.8627,-118.3342 300.2829,-118.8995 302.9446,-125.3737"/>
</g>
<!-- 140178109586400 -->
<g id="node14" class="node">
<title>140178109586400</title>
<polygon fill="none" stroke="#000000" points="273,-226 219,-226 219,-190 273,-190 273,-226"/>
<text text-anchor="middle" x="246" y="-204.3" font-family="Times,serif" font-size="14.00" fill="#000000">skip_7</text>
</g>
<!-- 140178132323408 -->
<g id="node23" class="node">
<title>140178132323408</title>
<ellipse fill="none" stroke="#000000" cx="336" cy="-208" rx="27" ry="27"/>
<text text-anchor="middle" x="336" y="-204.3" font-family="Times,serif" font-size="14.00" fill="#000000">p_6</text>
</g>
<!-- 140178109586400&#45;&gt;140178132323408 -->
<g id="edge30" class="edge">
<title>140178109586400&#45;&gt;140178132323408</title>
<path fill="none" stroke="#000000" d="M273.003,-208C281.0277,-208 289.9665,-208 298.5309,-208"/>
<polygon fill="#000000" stroke="#000000" points="298.7051,-211.5001 308.705,-208 298.705,-204.5001 298.7051,-211.5001"/>
</g>
<!-- 140178109585728 -->
<g id="node15" class="node">
<title>140178109585728</title>
<polygon fill="none" stroke="#000000" points="899.5,-221 845.5,-221 845.5,-185 899.5,-185 899.5,-221"/>
<text text-anchor="middle" x="872.5" y="-199.3" font-family="Times,serif" font-size="14.00" fill="#000000">skip_8</text>
</g>
<!-- 140178109585728&#45;&gt;140178132323408 -->
<g id="edge31" class="edge">
<title>140178109585728&#45;&gt;140178132323408</title>
<path fill="none" stroke="#000000" d="M845.0803,-202.2054C783.659,-200.47 630.3467,-196.3855 502,-195 456.2249,-194.5059 444.541,-190.3503 399,-195 390.216,-195.8968 380.8487,-197.4797 372.0962,-199.2392"/>
<polygon fill="#000000" stroke="#000000" points="371.2254,-195.8462 362.1757,-201.3555 372.6858,-202.6921 371.2254,-195.8462"/>
</g>
<!-- 140178109585616 -->
<g id="node16" class="node">
<title>140178109585616</title>
<polygon fill="none" stroke="#000000" points="477.5,-294 423.5,-294 423.5,-258 477.5,-258 477.5,-294"/>
<text text-anchor="middle" x="450.5" y="-272.3" font-family="Times,serif" font-size="14.00" fill="#000000">skip_9</text>
</g>
<!-- 140178109585616&#45;&gt;140178132323464 -->
<g id="edge32" class="edge">
<title>140178109585616&#45;&gt;140178132323464</title>
<path fill="none" stroke="#000000" d="M477.6349,-269.6014C492.8596,-266.0113 512.0564,-261.4845 528.5752,-257.5893"/>
<polygon fill="#000000" stroke="#000000" points="529.5251,-260.9613 538.4549,-255.2596 527.9185,-254.1482 529.5251,-260.9613"/>
</g>
<!-- 140178132321504 -->
<g id="node17" class="node">
<title>140178132321504</title>
<polygon fill="none" stroke="#000000" points="477.5,-348 423.5,-348 423.5,-312 477.5,-312 477.5,-348"/>
<text text-anchor="middle" x="450.5" y="-326.3" font-family="Times,serif" font-size="14.00" fill="#000000">tau_1</text>
</g>
<!-- 140178132324136 -->
<g id="node20" class="node">
<title>140178132324136</title>
<ellipse fill="none" stroke="#000000" cx="565" cy="-321" rx="27" ry="27"/>
<text text-anchor="middle" x="565" y="-317.3" font-family="Times,serif" font-size="14.00" fill="#000000">p_3</text>
</g>
<!-- 140178132321504&#45;&gt;140178132324136 -->
<g id="edge34" class="edge">
<title>140178132321504&#45;&gt;140178132324136</title>
<path fill="none" stroke="#000000" d="M477.6349,-327.8671C492.6074,-326.6902 511.4217,-325.2114 527.7523,-323.9278"/>
<polygon fill="#000000" stroke="#000000" points="528.3649,-327.3905 538.0599,-323.1176 527.8163,-320.412 528.3649,-327.3905"/>
</g>
<!-- 140178132321448 -->
<g id="node18" class="node">
<title>140178132321448</title>
<ellipse fill="#00ff00" stroke="#000000" cx="336" cy="-321" rx="27" ry="27"/>
<text text-anchor="middle" x="336" y="-317.3" font-family="Times,serif" font-size="14.00" fill="#000000">1</text>
</g>
<!-- 140178132321448&#45;&gt;140178132321504 -->
<g id="edge33" class="edge">
<title>140178132321448&#45;&gt;140178132321504</title>
<path fill="none" stroke="#000000" d="M363.1349,-323.1329C377.9989,-324.3012 396.6492,-325.7672 412.8969,-327.0443"/>
<polygon fill="#000000" stroke="#000000" points="412.9195,-330.5568 423.1631,-327.8512 413.4681,-323.5783 412.9195,-330.5568"/>
</g>
<!-- 140178132323464&#45;&gt;140178132323352 -->
<g id="edge12" class="edge">
<title>140178132323464&#45;&gt;140178132323352</title>
<path fill="none" stroke="#000000" d="M592.199,-250.0614C603.7828,-250.5135 617.4866,-251.0483 630.0073,-251.5369"/>
<polygon fill="#000000" stroke="#000000" points="630.045,-255.0409 640.1739,-251.9336 630.318,-248.0462 630.045,-255.0409"/>
</g>
<!-- 140178132324136&#45;&gt;140178132323072 -->
<g id="edge13" class="edge">
<title>140178132324136&#45;&gt;140178132323072</title>
<path fill="none" stroke="#000000" d="M592.199,-319.1425C600.0426,-318.6068 608.8582,-318.0048 617.6204,-317.4064"/>
<polygon fill="#000000" stroke="#000000" points="618.0821,-320.8831 627.8204,-316.7098 617.6051,-313.8994 618.0821,-320.8831"/>
</g>
<!-- 140178132322792&#45;&gt;140178132323296 -->
<g id="edge14" class="edge">
<title>140178132322792&#45;&gt;140178132323296</title>
<path fill="none" stroke="#000000" d="M592.199,-140.0614C603.7828,-140.5135 617.4866,-141.0483 630.0073,-141.5369"/>
<polygon fill="#000000" stroke="#000000" points="630.045,-145.0409 640.1739,-141.9336 630.318,-138.0462 630.045,-145.0409"/>
</g>
<!-- 140178132323016&#45;&gt;140178132323912 -->
<g id="edge15" class="edge">
<title>140178132323016&#45;&gt;140178132323912</title>
<path fill="none" stroke="#000000" d="M797.199,-257C805.0426,-257 813.8582,-257 822.6204,-257"/>
<polygon fill="#000000" stroke="#000000" points="822.8204,-260.5001 832.8204,-257 822.8204,-253.5001 822.8204,-260.5001"/>
</g>
<!-- 140178132323016&#45;&gt;140178109585728 -->
<g id="edge16" class="edge">
<title>140178132323016&#45;&gt;140178109585728</title>
<path fill="none" stroke="#000000" d="M794.0317,-244.3394C806.6519,-237.6907 822.3742,-229.4078 836.4241,-222.0058"/>
<polygon fill="#000000" stroke="#000000" points="838.1501,-225.0526 845.366,-217.295 834.8874,-218.8595 838.1501,-225.0526"/>
</g>
<!-- 140178132323408&#45;&gt;140178109584664 -->
<g id="edge17" class="edge">
<title>140178132323408&#45;&gt;140178109584664</title>
<path fill="none" stroke="#000000" d="M362.8452,-211.2824C370.6252,-212.2337 379.4607,-213.314 388.4551,-214.4137"/>
<polygon fill="#000000" stroke="#000000" points="388.2789,-217.9182 398.6298,-215.6578 389.1285,-210.9699 388.2789,-217.9182"/>
</g>
<!-- 140178132323408&#45;&gt;140178109586680 -->
<g id="edge18" class="edge">
<title>140178132323408&#45;&gt;140178109586680</title>
<path fill="none" stroke="#000000" d="M357.5817,-191.6271C369.6156,-182.6542 384.9649,-171.4651 399,-162 403.2545,-159.1308 407.7563,-156.1939 412.2568,-153.3192"/>
<polygon fill="#000000" stroke="#000000" points="414.2543,-156.1974 420.8446,-147.9017 410.5194,-150.277 414.2543,-156.1974"/>
</g>
<!-- 140178132323408&#45;&gt;140178109585616 -->
<g id="edge19" class="edge">
<title>140178132323408&#45;&gt;140178109585616</title>
<path fill="none" stroke="#000000" d="M358.4218,-223.3259C370.3108,-231.2641 385.2628,-240.9529 399,-249 403.8453,-251.8383 409.0165,-254.718 414.1431,-257.4869"/>
<polygon fill="#000000" stroke="#000000" points="412.7694,-260.7203 423.243,-262.3188 416.0522,-254.5378 412.7694,-260.7203"/>
</g>
<!-- 140178132323576&#45;&gt;140178848641712 -->
<g id="edge24" class="edge">
<title>140178132323576&#45;&gt;140178848641712</title>
<path fill="none" stroke="#000000" d="M963.5745,-281.6969C937.4027,-334.1687 867.7488,-452 770,-452 246,-452 246,-452 246,-452 170.7198,-452 101.375,-386.4279 67.768,-348.7842"/>
<polygon fill="#000000" stroke="#000000" points="70.3649,-346.4369 61.1497,-341.2089 65.0934,-351.0425 70.3649,-346.4369"/>
</g>
<!-- 140178132323576&#45;&gt;140178109587296 -->
<g id="edge21" class="edge">
<title>140178132323576&#45;&gt;140178109587296</title>
<path fill="none" stroke="#000000" d="M989.7755,-234.3331C1002.2357,-215.4886 1020.7471,-188.1149 1038,-165 1057.4733,-138.9103 1081.0137,-110.1807 1097.8678,-90.0551"/>
<polygon fill="#000000" stroke="#000000" points="1100.6687,-92.1624 1104.4253,-82.2559 1095.3109,-87.6576 1100.6687,-92.1624"/>
</g>
<!-- 140178132323576&#45;&gt;140178132322120 -->
<g id="edge23" class="edge">
<title>140178132323576&#45;&gt;140178132322120</title>
<path fill="none" stroke="#000000" d="M995.1616,-275.215C1020.4836,-298.0921 1064.045,-337.4475 1092.4329,-363.0945"/>
<polygon fill="#000000" stroke="#000000" points="1090.243,-365.833 1100.0096,-369.9397 1094.9357,-360.6388 1090.243,-365.833"/>
</g>
<!-- 140178132323576&#45;&gt;140178132324024 -->
<g id="edge22" class="edge">
<title>140178132323576&#45;&gt;140178132324024</title>
<path fill="none" stroke="#000000" d="M1001.5952,-261.7688C1009.6893,-263.2202 1019.0802,-264.904 1028.9637,-266.6762"/>
<polygon fill="#000000" stroke="#000000" points="1028.5208,-270.1526 1038.9816,-268.4726 1029.7564,-263.2625 1028.5208,-270.1526"/>
</g>
<!-- 140178132323576&#45;&gt;140178109585896 -->
<g id="edge20" class="edge">
<title>140178132323576&#45;&gt;140178109585896</title>
<path fill="none" stroke="#000000" d="M999.9264,-245.8261C1019.2983,-237.1421 1046.7834,-224.8212 1070.5699,-214.1583"/>
<polygon fill="#000000" stroke="#000000" points="1072.1259,-217.2965 1079.8193,-210.0121 1069.2624,-210.9089 1072.1259,-217.2965"/>
</g>
<!-- 140178132322064&#45;&gt;140178109583712 -->
<g id="edge25" class="edge">
<title>140178132322064&#45;&gt;140178109583712</title>
<path fill="none" stroke="#000000" d="M178.2472,-192.427C188.3684,-185.3421 200.5735,-176.7985 211.8201,-168.9259"/>
<polygon fill="#000000" stroke="#000000" points="213.998,-171.6737 220.1832,-163.0717 209.9838,-165.9391 213.998,-171.6737"/>
</g>
<!-- 140178132322064&#45;&gt;140178109586400 -->
<g id="edge26" class="edge">
<title>140178132322064&#45;&gt;140178109586400</title>
<path fill="none" stroke="#000000" d="M183.003,-208C191.0277,-208 199.9665,-208 208.5309,-208"/>
<polygon fill="#000000" stroke="#000000" points="208.7051,-211.5001 218.705,-208 208.705,-204.5001 208.7051,-211.5001"/>
</g>
<!-- 140178132324304&#45;&gt;140178132323968 -->
<g id="edge27" class="edge">
<title>140178132324304&#45;&gt;140178132323968</title>
<path fill="none" stroke="#000000" d="M362.9665,-105.6928C374.1153,-104.7824 387.1755,-103.7719 399,-103 521.1781,-95.0247 666.1737,-88.4292 732.9547,-85.553"/>
<polygon fill="#000000" stroke="#000000" points="733.1445,-89.0481 742.9857,-85.1236 732.8451,-82.0545 733.1445,-89.0481"/>
</g>
</g>
</svg>
