<?xml version="1.0" encoding="UTF-8" standalone="no"?>
<!DOCTYPE svg PUBLIC "-//W3C//DTD SVG 1.1//EN"
 "http://www.w3.org/Graphics/SVG/1.1/DTD/svg11.dtd">
<!-- Generated by graphviz version 2.40.1 (20161225.0304)
 -->
<!-- Title: alpha_classic_net_1586496247.5979474 Pages: 1 -->
<svg width="651pt" height="566pt"
 viewBox="0.00 0.00 651.00 566.00" xmlns="http://www.w3.org/2000/svg" xmlns:xlink="http://www.w3.org/1999/xlink">
<g id="graph0" class="graph" transform="scale(1 1) rotate(0) translate(4 562)">
<title>alpha_classic_net_1586496247.5979474</title>
<!-- 139748205570704 -->
<g id="node1" class="node">
<title>139748205570704</title>
<polygon fill="none" stroke="#000000" points="336,-90 237,-90 237,-54 336,-54 336,-90"/>
<text text-anchor="middle" x="286.5" y="-68.3" font-family="Times,serif" font-size="14.00" fill="#000000">ActionDecoder</text>
</g>
<!-- 139748205569248 -->
<g id="node14" class="node">
<title>139748205569248</title>
<ellipse fill="none" stroke="#000000" cx="436" cy="-72" rx="27" ry="27"/>
<text text-anchor="middle" x="436" y="-68.3" font-family="Times,serif" font-size="14.00" fill="#000000">({&#39;ActionDecoder&#39;}, {&#39;Root&#39;})</text>
</g>
<!-- 139748205570704&#45;&gt;139748205569248 -->
<g id="edge2" class="edge">
<title>139748205570704&#45;&gt;139748205569248</title>
<path fill="none" stroke="#000000" d="M336.2813,-72C356.541,-72 379.5654,-72 398.3818,-72"/>
<polygon fill="#000000" stroke="#000000" points="398.6392,-75.5001 408.6392,-72 398.6392,-68.5001 398.6392,-75.5001"/>
</g>
<!-- 139748204444192 -->
<g id="node2" class="node">
<title>139748204444192</title>
<polygon fill="none" stroke="#000000" points="132.5,-126 31.5,-126 31.5,-90 132.5,-90 132.5,-126"/>
<text text-anchor="middle" x="82" y="-104.3" font-family="Times,serif" font-size="14.00" fill="#000000">ActionMessage</text>
</g>
<!-- 139748204445088 -->
<g id="node3" class="node">
<title>139748204445088</title>
<polygon fill="none" stroke="#000000" points="109,-180 55,-180 55,-144 109,-144 109,-180"/>
<text text-anchor="middle" x="82" y="-158.3" font-family="Times,serif" font-size="14.00" fill="#000000">Log</text>
</g>
<!-- 139748204444416 -->
<g id="node4" class="node">
<title>139748204444416</title>
<polygon fill="none" stroke="#000000" points="164,-234 0,-234 0,-198 164,-198 164,-234"/>
<text text-anchor="middle" x="82" y="-212.3" font-family="Times,serif" font-size="14.00" fill="#000000">MarketSummaryDataBean</text>
</g>
<!-- 139748204445536 -->
<g id="node5" class="node">
<title>139748204445536</title>
<polygon fill="none" stroke="#000000" points="163,-288 1,-288 1,-252 163,-252 163,-288"/>
<text text-anchor="middle" x="82" y="-266.3" font-family="Times,serif" font-size="14.00" fill="#000000">MarketSummarySingleton</text>
</g>
<!-- 139748205570424 -->
<g id="node6" class="node">
<title>139748205570424</title>
<polygon fill="none" stroke="#000000" points="373,-36 200,-36 200,0 373,0 373,-36"/>
<text text-anchor="middle" x="286.5" y="-14.3" font-family="Times,serif" font-size="14.00" fill="#000000">MarketSummaryWebSocket</text>
</g>
<!-- 139748205570480 -->
<g id="node7" class="node">
<title>139748205570480</title>
<polygon fill="none" stroke="#000000" points="133.5,-342 30.5,-342 30.5,-306 133.5,-306 133.5,-342"/>
<text text-anchor="middle" x="82" y="-320.3" font-family="Times,serif" font-size="14.00" fill="#000000">QuoteDataBean</text>
</g>
<!-- 139748204441672 -->
<g id="node8" class="node">
<title>139748204441672</title>
<polygon fill="none" stroke="#000000" points="155.5,-396 8.5,-396 8.5,-360 155.5,-360 155.5,-396"/>
<text text-anchor="middle" x="82" y="-374.3" font-family="Times,serif" font-size="14.00" fill="#000000">RecentStockChangeList</text>
</g>
<!-- 139748204445648 -->
<g id="node9" class="node">
<title>139748204445648</title>
<polygon fill="none" stroke="#000000" points="553,-90 499,-90 499,-54 553,-54 553,-90"/>
<text text-anchor="middle" x="526" y="-68.3" font-family="Times,serif" font-size="14.00" fill="#000000">Root</text>
</g>
<!-- 139748205569976 -->
<g id="node15" class="node">
<title>139748205569976</title>
<ellipse fill="#ffa500" stroke="#000000" cx="616" cy="-72" rx="27" ry="27"/>
</g>
<!-- 139748204445648&#45;&gt;139748205569976 -->
<g id="edge3" class="edge">
<title>139748204445648&#45;&gt;139748205569976</title>
<path fill="none" stroke="#000000" d="M553.003,-72C561.0277,-72 569.9665,-72 578.5309,-72"/>
<polygon fill="#000000" stroke="#000000" points="578.7051,-75.5001 588.705,-72 578.705,-68.5001 578.7051,-75.5001"/>
</g>
<!-- 139748204443800 -->
<g id="node10" class="node">
<title>139748204443800</title>
<polygon fill="none" stroke="#000000" points="124.5,-450 39.5,-450 39.5,-414 124.5,-414 124.5,-450"/>
<text text-anchor="middle" x="82" y="-428.3" font-family="Times,serif" font-size="14.00" fill="#000000">TradeAction</text>
</g>
<!-- 139748204445312 -->
<g id="node11" class="node">
<title>139748204445312</title>
<polygon fill="none" stroke="#000000" points="125,-504 39,-504 39,-468 125,-468 125,-504"/>
<text text-anchor="middle" x="82" y="-482.3" font-family="Times,serif" font-size="14.00" fill="#000000">TradeConfig</text>
</g>
<!-- 139748205570592 -->
<g id="node12" class="node">
<title>139748205570592</title>
<polygon fill="none" stroke="#000000" points="136,-558 28,-558 28,-522 136,-522 136,-558"/>
<text text-anchor="middle" x="82" y="-536.3" font-family="Times,serif" font-size="14.00" fill="#000000">TradeSLSBBean</text>
</g>
<!-- 139748205570200 -->
<g id="node13" class="node">
<title>139748205570200</title>
<ellipse fill="#00ff00" stroke="#000000" cx="82" cy="-45" rx="27" ry="27"/>
<text text-anchor="middle" x="82" y="-41.3" font-family="Times,serif" font-size="14.00" fill="#000000">1</text>
</g>
<!-- 139748205570200&#45;&gt;139748205570704 -->
<g id="edge4" class="edge">
<title>139748205570200&#45;&gt;139748205570704</title>
<path fill="none" stroke="#000000" d="M109.156,-48.5854C138.977,-52.5226 187.7905,-58.9675 226.6635,-64.0998"/>
<polygon fill="#000000" stroke="#000000" points="226.4539,-67.6024 236.826,-65.4416 227.3702,-60.6627 226.4539,-67.6024"/>
</g>
<!-- 139748205570200&#45;&gt;139748205570424 -->
<g id="edge5" class="edge">
<title>139748205570200&#45;&gt;139748205570424</title>
<path fill="none" stroke="#000000" d="M109.156,-41.4146C130.0454,-38.6566 160.2541,-34.6682 189.8373,-30.7623"/>
<polygon fill="#000000" stroke="#000000" points="190.3757,-34.2217 199.8315,-29.4428 189.4594,-27.2819 190.3757,-34.2217"/>
</g>
<!-- 139748205569248&#45;&gt;139748204445648 -->
<g id="edge1" class="edge">
<title>139748205569248&#45;&gt;139748204445648</title>
<path fill="none" stroke="#000000" d="M463.003,-72C471.0277,-72 479.9665,-72 488.5309,-72"/>
<polygon fill="#000000" stroke="#000000" points="488.7051,-75.5001 498.705,-72 488.705,-68.5001 488.7051,-75.5001"/>
</g>
</g>
</svg>
