<?xml version="1.0" encoding="UTF-8" standalone="no"?>
<!DOCTYPE svg PUBLIC "-//W3C//DTD SVG 1.1//EN"
 "http://www.w3.org/Graphics/SVG/1.1/DTD/svg11.dtd">
<!-- Generated by graphviz version 2.40.1 (20161225.0304)
 -->
<!-- Title: alpha_plus_net_1585321100.248877 Pages: 1 -->
<svg width="905pt" height="555pt"
 viewBox="0.00 0.00 905.00 555.00" xmlns="http://www.w3.org/2000/svg" xmlns:xlink="http://www.w3.org/1999/xlink">
<g id="graph0" class="graph" transform="scale(1 1) rotate(0) translate(4 551)">
<title>alpha_plus_net_1585321100.248877</title>
<!-- 140531498104200 -->
<g id="node1" class="node">
<title>140531498104200</title>
<polygon fill="none" stroke="#000000" points="580,-83 481,-83 481,-47 580,-47 580,-83"/>
<text text-anchor="middle" x="530.5" y="-61.3" font-family="Times,serif" font-size="14.00" fill="#000000">ActionDecoder</text>
</g>
<!-- 140531498103248 -->
<g id="node15" class="node">
<title>140531498103248</title>
<ellipse fill="none" stroke="#000000" cx="643" cy="-27" rx="27" ry="27"/>
<text text-anchor="middle" x="643" y="-23.3" font-family="Times,serif" font-size="14.00" fill="#000000">({&#39;ActionDecoder&#39;}, {&#39;ActionMessage&#39;, &#39;Root&#39;})</text>
</g>
<!-- 140531498104200&#45;&gt;140531498103248 -->
<g id="edge8" class="edge">
<title>140531498104200&#45;&gt;140531498103248</title>
<path fill="none" stroke="#000000" d="M580.1716,-48.222C589.4948,-45.0729 599.0623,-41.8412 607.8308,-38.8794"/>
<polygon fill="#000000" stroke="#000000" points="608.9816,-42.185 617.3356,-35.6688 606.7414,-35.5531 608.9816,-42.185"/>
</g>
<!-- 140531498104536 -->
<g id="node2" class="node">
<title>140531498104536</title>
<polygon fill="none" stroke="#000000" points="807,-146 706,-146 706,-110 807,-110 807,-146"/>
<text text-anchor="middle" x="756.5" y="-124.3" font-family="Times,serif" font-size="14.00" fill="#000000">ActionMessage</text>
</g>
<!-- 140531498103416 -->
<g id="node16" class="node">
<title>140531498103416</title>
<ellipse fill="none" stroke="#000000" cx="870" cy="-113" rx="27" ry="27"/>
<text text-anchor="middle" x="870" y="-109.3" font-family="Times,serif" font-size="14.00" fill="#000000">({&#39;ActionMessage&#39;}, {&#39;ActionDecoder&#39;})</text>
</g>
<!-- 140531498104536&#45;&gt;140531498103416 -->
<g id="edge9" class="edge">
<title>140531498104536&#45;&gt;140531498103416</title>
<path fill="none" stroke="#000000" d="M807.2745,-121.2897C815.9897,-120.1379 824.8949,-118.961 833.1558,-117.8693"/>
<polygon fill="#000000" stroke="#000000" points="833.7569,-121.3204 843.2121,-116.5402 832.8397,-114.3807 833.7569,-121.3204"/>
</g>
<!-- 140531498105040 -->
<g id="node3" class="node">
<title>140531498105040</title>
<polygon fill="none" stroke="#000000" points="113.5,-195 59.5,-195 59.5,-159 113.5,-159 113.5,-195"/>
<text text-anchor="middle" x="86.5" y="-173.3" font-family="Times,serif" font-size="14.00" fill="#000000">Log</text>
</g>
<!-- 140531498104648 -->
<g id="node4" class="node">
<title>140531498104648</title>
<polygon fill="none" stroke="#000000" points="168.5,-277 4.5,-277 4.5,-241 168.5,-241 168.5,-277"/>
<text text-anchor="middle" x="86.5" y="-255.3" font-family="Times,serif" font-size="14.00" fill="#000000">MarketSummaryDataBean</text>
</g>
<!-- 140531498105376 -->
<g id="node17" class="node">
<title>140531498105376</title>
<ellipse fill="none" stroke="#000000" cx="255" cy="-273" rx="27" ry="27"/>
<text text-anchor="middle" x="255" y="-269.3" font-family="Times,serif" font-size="14.00" fill="#000000">({&#39;MarketSummaryDataBean&#39;}, {&#39;QuoteDataBean&#39;})</text>
</g>
<!-- 140531498104648&#45;&gt;140531498105376 -->
<g id="edge10" class="edge">
<title>140531498104648&#45;&gt;140531498105376</title>
<path fill="none" stroke="#000000" d="M168.7756,-265.836C185.9849,-267.2658 203.3042,-268.7048 217.859,-269.9141"/>
<polygon fill="#000000" stroke="#000000" points="217.6721,-273.4105 227.9276,-270.7507 218.2517,-266.4346 217.6721,-273.4105"/>
</g>
<!-- 140531498104424 -->
<g id="node5" class="node">
<title>140531498104424</title>
<polygon fill="none" stroke="#000000" points="167.5,-331 5.5,-331 5.5,-295 167.5,-295 167.5,-331"/>
<text text-anchor="middle" x="86.5" y="-309.3" font-family="Times,serif" font-size="14.00" fill="#000000">MarketSummarySingleton</text>
</g>
<!-- 140531498104928 -->
<g id="node6" class="node">
<title>140531498104928</title>
<polygon fill="none" stroke="#000000" points="173,-385 0,-385 0,-349 173,-349 173,-385"/>
<text text-anchor="middle" x="86.5" y="-363.3" font-family="Times,serif" font-size="14.00" fill="#000000">MarketSummaryWebSocket</text>
</g>
<!-- 140531498104312 -->
<g id="node7" class="node">
<title>140531498104312</title>
<polygon fill="none" stroke="#000000" points="442.5,-287 339.5,-287 339.5,-251 442.5,-251 442.5,-287"/>
<text text-anchor="middle" x="391" y="-265.3" font-family="Times,serif" font-size="14.00" fill="#000000">QuoteDataBean</text>
</g>
<!-- 140531498103136 -->
<g id="node18" class="node">
<title>140531498103136</title>
<ellipse fill="none" stroke="#000000" cx="530.5" cy="-218" rx="27" ry="27"/>
<text text-anchor="middle" x="530.5" y="-214.3" font-family="Times,serif" font-size="14.00" fill="#000000">({&#39;TradeSLSBBean&#39;, &#39;QuoteDataBean&#39;}, {&#39;MarketSummaryDataBean&#39;})</text>
</g>
<!-- 140531498104312&#45;&gt;140531498103136 -->
<g id="edge11" class="edge">
<title>140531498104312&#45;&gt;140531498103136</title>
<path fill="none" stroke="#000000" d="M440.5753,-250.8757C458.6044,-244.2844 478.6012,-236.9738 495.151,-230.9233"/>
<polygon fill="#000000" stroke="#000000" points="496.7715,-234.0575 504.9617,-227.3366 494.3679,-227.4831 496.7715,-234.0575"/>
</g>
<!-- 140531498104592 -->
<g id="node8" class="node">
<title>140531498104592</title>
<polygon fill="none" stroke="#000000" points="160,-439 13,-439 13,-403 160,-403 160,-439"/>
<text text-anchor="middle" x="86.5" y="-417.3" font-family="Times,serif" font-size="14.00" fill="#000000">RecentStockChangeList</text>
</g>
<!-- 140531498104144 -->
<g id="node9" class="node">
<title>140531498104144</title>
<polygon fill="none" stroke="#000000" points="783.5,-45 729.5,-45 729.5,-9 783.5,-9 783.5,-45"/>
<text text-anchor="middle" x="756.5" y="-23.3" font-family="Times,serif" font-size="14.00" fill="#000000">Root</text>
</g>
<!-- 140531498103976 -->
<g id="node21" class="node">
<title>140531498103976</title>
<ellipse fill="#ffa500" stroke="#000000" cx="870" cy="-27" rx="27" ry="27"/>
</g>
<!-- 140531498104144&#45;&gt;140531498103976 -->
<g id="edge12" class="edge">
<title>140531498104144&#45;&gt;140531498103976</title>
<path fill="none" stroke="#000000" d="M783.6861,-27C798.3191,-27 816.5904,-27 832.55,-27"/>
<polygon fill="#000000" stroke="#000000" points="832.6424,-30.5001 842.6424,-27 832.6423,-23.5001 832.6424,-30.5001"/>
</g>
<!-- 140531498102912 -->
<g id="node10" class="node">
<title>140531498102912</title>
<polygon fill="none" stroke="#000000" points="129,-493 44,-493 44,-457 129,-457 129,-493"/>
<text text-anchor="middle" x="86.5" y="-471.3" font-family="Times,serif" font-size="14.00" fill="#000000">TradeAction</text>
</g>
<!-- 140531498104480 -->
<g id="node11" class="node">
<title>140531498104480</title>
<polygon fill="none" stroke="#000000" points="129.5,-547 43.5,-547 43.5,-511 129.5,-511 129.5,-547"/>
<text text-anchor="middle" x="86.5" y="-525.3" font-family="Times,serif" font-size="14.00" fill="#000000">TradeConfig</text>
</g>
<!-- 140531498104760 -->
<g id="node12" class="node">
<title>140531498104760</title>
<polygon fill="none" stroke="#000000" points="445,-190 337,-190 337,-154 445,-154 445,-190"/>
<text text-anchor="middle" x="391" y="-168.3" font-family="Times,serif" font-size="14.00" fill="#000000">TradeSLSBBean</text>
</g>
<!-- 140531498104760&#45;&gt;140531498103136 -->
<g id="edge13" class="edge">
<title>140531498104760&#45;&gt;140531498103136</title>
<path fill="none" stroke="#000000" d="M445.3338,-189.9165C461.8679,-195.3686 479.6186,-201.2219 494.6126,-206.1662"/>
<polygon fill="#000000" stroke="#000000" points="493.9108,-209.6201 504.5039,-209.4278 496.103,-202.9722 493.9108,-209.6201"/>
</g>
<!-- 140531498104368 -->
<g id="node13" class="node">
<title>140531498104368</title>
<polygon fill="none" stroke="#000000" points="301,-117 209,-117 209,-81 301,-81 301,-117"/>
<text text-anchor="middle" x="255" y="-95.3" font-family="Times,serif" font-size="14.00" fill="#000000">artificial_start</text>
</g>
<!-- 140531498103640 -->
<g id="node19" class="node">
<title>140531498103640</title>
<ellipse fill="none" stroke="#000000" cx="391" cy="-69" rx="27" ry="27"/>
<text text-anchor="middle" x="391" y="-65.3" font-family="Times,serif" font-size="14.00" fill="#000000">({&#39;artificial_start&#39;}, {&#39;ActionDecoder&#39;})</text>
</g>
<!-- 140531498104368&#45;&gt;140531498103640 -->
<g id="edge14" class="edge">
<title>140531498104368&#45;&gt;140531498103640</title>
<path fill="none" stroke="#000000" d="M301.0434,-88.8434C318.5288,-84.9863 338.1839,-80.6506 354.6514,-77.0181"/>
<polygon fill="#000000" stroke="#000000" points="355.4336,-80.4298 364.4449,-74.8577 353.9257,-73.5941 355.4336,-80.4298"/>
</g>
<!-- 140531498103808 -->
<g id="node20" class="node">
<title>140531498103808</title>
<ellipse fill="none" stroke="#000000" cx="530.5" cy="-128" rx="27" ry="27"/>
<text text-anchor="middle" x="530.5" y="-124.3" font-family="Times,serif" font-size="14.00" fill="#000000">({&#39;artificial_start&#39;}, {&#39;ActionMessage&#39;})</text>
</g>
<!-- 140531498104368&#45;&gt;140531498103808 -->
<g id="edge15" class="edge">
<title>140531498104368&#45;&gt;140531498103808</title>
<path fill="none" stroke="#000000" d="M301.1125,-103.8539C355.1695,-109.5442 443.684,-118.8615 493.4751,-124.1026"/>
<polygon fill="#000000" stroke="#000000" points="493.1743,-127.5902 503.4858,-125.1564 493.9072,-120.6287 493.1743,-127.5902"/>
</g>
<!-- 140531498104816 -->
<g id="node14" class="node">
<title>140531498104816</title>
<ellipse fill="#00ff00" stroke="#000000" cx="86.5" cy="-99" rx="27" ry="27"/>
<text text-anchor="middle" x="86.5" y="-95.3" font-family="Times,serif" font-size="14.00" fill="#000000">1</text>
</g>
<!-- 140531498104816&#45;&gt;140531498104368 -->
<g id="edge16" class="edge">
<title>140531498104816&#45;&gt;140531498104368</title>
<path fill="none" stroke="#000000" d="M113.5724,-99C136.4402,-99 169.9491,-99 198.6104,-99"/>
<polygon fill="#000000" stroke="#000000" points="198.9219,-102.5001 208.9218,-99 198.9218,-95.5001 198.9219,-102.5001"/>
</g>
<!-- 140531498103248&#45;&gt;140531498104536 -->
<g id="edge1" class="edge">
<title>140531498103248&#45;&gt;140531498104536</title>
<path fill="none" stroke="#000000" d="M663.2915,-45.0568C681.4171,-61.1862 708.1477,-84.9729 728.3409,-102.9421"/>
<polygon fill="#000000" stroke="#000000" points="726.2043,-105.7259 736.0015,-109.759 730.8577,-100.4966 726.2043,-105.7259"/>
</g>
<!-- 140531498103248&#45;&gt;140531498104144 -->
<g id="edge2" class="edge">
<title>140531498103248&#45;&gt;140531498104144</title>
<path fill="none" stroke="#000000" d="M670.1861,-27C684.8191,-27 703.0904,-27 719.05,-27"/>
<polygon fill="#000000" stroke="#000000" points="719.1424,-30.5001 729.1424,-27 719.1423,-23.5001 719.1424,-30.5001"/>
</g>
<!-- 140531498103416&#45;&gt;140531498104200 -->
<g id="edge3" class="edge">
<title>140531498103416&#45;&gt;140531498104200</title>
<path fill="none" stroke="#000000" d="M843.3916,-107.5728C832.1835,-105.3801 818.9834,-102.9197 807,-101 732.5276,-89.0698 646.2882,-78.3268 590.1893,-71.7448"/>
<polygon fill="#000000" stroke="#000000" points="590.413,-68.2473 580.0748,-70.5649 589.6018,-75.2001 590.413,-68.2473"/>
</g>
<!-- 140531498105376&#45;&gt;140531498104312 -->
<g id="edge4" class="edge">
<title>140531498105376&#45;&gt;140531498104312</title>
<path fill="none" stroke="#000000" d="M282.1948,-272.2002C295.7395,-271.8018 312.7118,-271.3026 329.1946,-270.8178"/>
<polygon fill="#000000" stroke="#000000" points="329.4665,-274.3114 339.3592,-270.5188 329.2606,-267.3144 329.4665,-274.3114"/>
</g>
<!-- 140531498103136&#45;&gt;140531498104648 -->
<g id="edge5" class="edge">
<title>140531498103136&#45;&gt;140531498104648</title>
<path fill="none" stroke="#000000" d="M503.306,-218.5191C447.802,-219.8182 317.5458,-224.0918 209,-237 199.1837,-238.1673 188.9636,-239.6201 178.7975,-241.2189"/>
<polygon fill="#000000" stroke="#000000" points="177.9774,-237.8061 168.6664,-242.8613 179.0977,-244.7159 177.9774,-237.8061"/>
</g>
<!-- 140531498103640&#45;&gt;140531498104200 -->
<g id="edge6" class="edge">
<title>140531498103640&#45;&gt;140531498104200</title>
<path fill="none" stroke="#000000" d="M418.2282,-68.2193C433.2142,-67.7896 452.435,-67.2384 470.7221,-66.7141"/>
<polygon fill="#000000" stroke="#000000" points="470.8571,-70.2117 480.7527,-66.4264 470.6564,-63.2146 470.8571,-70.2117"/>
</g>
<!-- 140531498103808&#45;&gt;140531498104536 -->
<g id="edge7" class="edge">
<title>140531498103808&#45;&gt;140531498104536</title>
<path fill="none" stroke="#000000" d="M557.7609,-128C591.7429,-128 650.8207,-128 695.7582,-128"/>
<polygon fill="#000000" stroke="#000000" points="695.9835,-131.5001 705.9834,-128 695.9834,-124.5001 695.9835,-131.5001"/>
</g>
</g>
</svg>
