<?xml version="1.0" encoding="UTF-8" standalone="no"?>
<!DOCTYPE svg PUBLIC "-//W3C//DTD SVG 1.1//EN"
 "http://www.w3.org/Graphics/SVG/1.1/DTD/svg11.dtd">
<!-- Generated by graphviz version 2.40.1 (20161225.0304)
 -->
<!-- Title: imdf_net_1585315545.1356204 Pages: 1 -->
<svg width="791pt" height="620pt"
 viewBox="0.00 0.00 791.00 620.11" xmlns="http://www.w3.org/2000/svg" xmlns:xlink="http://www.w3.org/1999/xlink">
<g id="graph0" class="graph" transform="scale(1 1) rotate(0) translate(4 616.1082)">
<title>imdf_net_1585315545.1356204</title>
<!-- 140178110602544 -->
<g id="node1" class="node">
<title>140178110602544</title>
<polygon fill="none" stroke="#000000" points="99,-252.1082 0,-252.1082 0,-216.1082 99,-216.1082 99,-252.1082"/>
<text text-anchor="middle" x="49.5" y="-230.4082" font-family="Times,serif" font-size="14.00" fill="#000000">ActionDecoder</text>
</g>
<!-- 140178110602320 -->
<g id="node22" class="node">
<title>140178110602320</title>
<ellipse fill="none" stroke="#000000" cx="162" cy="-317.1082" rx="27" ry="27"/>
<text text-anchor="middle" x="162" y="-313.4082" font-family="Times,serif" font-size="14.00" fill="#000000">p_6</text>
</g>
<!-- 140178110602544&#45;&gt;140178110602320 -->
<g id="edge8" class="edge">
<title>140178110602544&#45;&gt;140178110602320</title>
<path fill="none" stroke="#000000" d="M73.9108,-252.118C90.7937,-264.5738 113.3823,-281.2391 131.4582,-294.5752"/>
<polygon fill="#000000" stroke="#000000" points="129.7997,-297.701 139.9246,-300.8215 133.9555,-292.0681 129.7997,-297.701"/>
</g>
<!-- 140178110619832 -->
<g id="node2" class="node">
<title>140178110619832</title>
<polygon fill="none" stroke="#000000" points="747,-490.1082 646,-490.1082 646,-454.1082 747,-454.1082 747,-490.1082"/>
<text text-anchor="middle" x="696.5" y="-468.4082" font-family="Times,serif" font-size="14.00" fill="#000000">ActionMessage</text>
</g>
<!-- 140178110619832&#45;&gt;140178110602320 -->
<g id="edge11" class="edge">
<title>140178110619832&#45;&gt;140178110602320</title>
<path fill="none" stroke="#000000" d="M645.8784,-487.5599C595.374,-501.5919 515.3132,-520.1082 444.5,-520.1082 342,-520.1082 342,-520.1082 342,-520.1082 286.7511,-520.1082 264.6165,-516.6176 225,-478.1082 190.6216,-444.6905 174.6172,-390.2946 167.4419,-354.1096"/>
<polygon fill="#000000" stroke="#000000" points="170.8259,-353.1608 165.5659,-343.9639 163.9425,-354.4336 170.8259,-353.1608"/>
</g>
<!-- 140178110620672 -->
<g id="node3" class="node">
<title>140178110620672</title>
<polygon fill="none" stroke="#000000" points="723.5,-418.1082 669.5,-418.1082 669.5,-382.1082 723.5,-382.1082 723.5,-418.1082"/>
<text text-anchor="middle" x="696.5" y="-396.4082" font-family="Times,serif" font-size="14.00" fill="#000000">Log</text>
</g>
<!-- 140178110620672&#45;&gt;140178110602320 -->
<g id="edge6" class="edge">
<title>140178110620672&#45;&gt;140178110602320</title>
<path fill="none" stroke="#000000" d="M669.4226,-414.1731C634.115,-432.4929 576.5192,-462.3003 574,-463.1082 518.6072,-480.8731 502.6717,-482.1082 444.5,-482.1082 342,-482.1082 342,-482.1082 342,-482.1082 288.0902,-482.1082 266.3123,-484.7429 225,-450.1082 195.4474,-425.3324 178.8427,-383.5378 170.191,-353.4056"/>
<polygon fill="#000000" stroke="#000000" points="173.5481,-352.412 167.5546,-343.6754 166.7917,-354.2427 173.5481,-352.412"/>
</g>
<!-- 140178110602712 -->
<g id="node4" class="node">
<title>140178110602712</title>
<polygon fill="none" stroke="#000000" points="778.5,-361.1082 614.5,-361.1082 614.5,-325.1082 778.5,-325.1082 778.5,-361.1082"/>
<text text-anchor="middle" x="696.5" y="-339.4082" font-family="Times,serif" font-size="14.00" fill="#000000">MarketSummaryDataBean</text>
</g>
<!-- 140178110602712&#45;&gt;140178110602320 -->
<g id="edge5" class="edge">
<title>140178110602712&#45;&gt;140178110602320</title>
<path fill="none" stroke="#000000" d="M614.4908,-357.3533C565.3471,-364.6873 501.5302,-372.1082 444.5,-372.1082 342,-372.1082 342,-372.1082 342,-372.1082 288.984,-372.1082 230.8679,-350.0164 195.4111,-333.8352"/>
<polygon fill="#000000" stroke="#000000" points="196.5757,-330.5161 186.0345,-329.4513 193.6109,-336.8572 196.5757,-330.5161"/>
</g>
<!-- 140178110620000 -->
<g id="node5" class="node">
<title>140178110620000</title>
<polygon fill="none" stroke="#000000" points="777.5,-278.1082 615.5,-278.1082 615.5,-242.1082 777.5,-242.1082 777.5,-278.1082"/>
<text text-anchor="middle" x="696.5" y="-256.4082" font-family="Times,serif" font-size="14.00" fill="#000000">MarketSummarySingleton</text>
</g>
<!-- 140178110620000&#45;&gt;140178110602320 -->
<g id="edge10" class="edge">
<title>140178110620000&#45;&gt;140178110602320</title>
<path fill="none" stroke="#000000" d="M615.3562,-261.0789C565.9654,-261.5885 501.5955,-262.1082 444.5,-262.1082 342,-262.1082 342,-262.1082 342,-262.1082 288.984,-262.1082 230.8679,-284.2 195.4111,-300.3812"/>
<polygon fill="#000000" stroke="#000000" points="193.6109,-297.3592 186.0345,-304.7651 196.5757,-303.7004 193.6109,-297.3592"/>
</g>
<!-- 140178110603216 -->
<g id="node6" class="node">
<title>140178110603216</title>
<polygon fill="none" stroke="#000000" points="783,-105.1082 610,-105.1082 610,-69.1082 783,-69.1082 783,-105.1082"/>
<text text-anchor="middle" x="696.5" y="-83.4082" font-family="Times,serif" font-size="14.00" fill="#000000">MarketSummaryWebSocket</text>
</g>
<!-- 140178110603216&#45;&gt;140178110602320 -->
<g id="edge4" class="edge">
<title>140178110603216&#45;&gt;140178110602320</title>
<path fill="none" stroke="#000000" d="M637.8087,-69.0712C587.1313,-55.0997 511.6884,-38.1082 444.5,-38.1082 342,-38.1082 342,-38.1082 342,-38.1082 286.5993,-38.1082 261.4734,-39.4078 225,-81.1082 176.442,-136.6251 209.6849,-172.3118 189,-243.1082 185.1868,-256.1592 180.2631,-270.2343 175.6666,-282.5697"/>
<polygon fill="#000000" stroke="#000000" points="172.3498,-281.4453 172.0778,-292.0366 178.8953,-283.9266 172.3498,-281.4453"/>
</g>
<!-- 140178110602880 -->
<g id="node7" class="node">
<title>140178110602880</title>
<polygon fill="none" stroke="#000000" points="748,-222.1082 645,-222.1082 645,-186.1082 748,-186.1082 748,-222.1082"/>
<text text-anchor="middle" x="696.5" y="-200.4082" font-family="Times,serif" font-size="14.00" fill="#000000">QuoteDataBean</text>
</g>
<!-- 140178110602880&#45;&gt;140178110602320 -->
<g id="edge2" class="edge">
<title>140178110602880&#45;&gt;140178110602320</title>
<path fill="none" stroke="#000000" d="M644.7725,-186.3001C633.312,-182.3179 621.2355,-178.093 610,-174.1082 536.2601,-147.9556 522.7402,-114.1082 444.5,-114.1082 342,-114.1082 342,-114.1082 342,-114.1082 282.297,-114.1082 265.4376,-136.185 225,-180.1082 210.5347,-195.8204 188.9171,-247.1549 175.14,-282.3219"/>
<polygon fill="#000000" stroke="#000000" points="171.8288,-281.1802 171.4745,-291.7691 178.3548,-283.7123 171.8288,-281.1802"/>
</g>
<!-- 140178110620504 -->
<g id="node8" class="node">
<title>140178110620504</title>
<polygon fill="none" stroke="#000000" points="770,-165.1082 623,-165.1082 623,-129.1082 770,-129.1082 770,-165.1082"/>
<text text-anchor="middle" x="696.5" y="-143.4082" font-family="Times,serif" font-size="14.00" fill="#000000">RecentStockChangeList</text>
</g>
<!-- 140178110620504&#45;&gt;140178110602320 -->
<g id="edge12" class="edge">
<title>140178110620504&#45;&gt;140178110602320</title>
<path fill="none" stroke="#000000" d="M645.2667,-129.1001C583.618,-108.0656 483.533,-76.1082 444.5,-76.1082 342,-76.1082 342,-76.1082 342,-76.1082 285.6238,-76.1082 262.8114,-83.2923 225,-125.1082 188.225,-165.7779 206.4032,-191.1126 189,-243.1082 184.7187,-255.8994 179.7284,-269.819 175.2111,-282.0987"/>
<polygon fill="#000000" stroke="#000000" points="171.9045,-280.9492 171.7122,-291.5422 178.4685,-283.3812 171.9045,-280.9492"/>
</g>
<!-- 140178110602264 -->
<g id="node9" class="node">
<title>140178110602264</title>
<polygon fill="none" stroke="#000000" points="471.5,-445.1082 417.5,-445.1082 417.5,-409.1082 471.5,-409.1082 471.5,-445.1082"/>
<text text-anchor="middle" x="444.5" y="-423.4082" font-family="Times,serif" font-size="14.00" fill="#000000">Root</text>
</g>
<!-- 140178132634872 -->
<g id="node24" class="node">
<title>140178132634872</title>
<ellipse fill="#ffa500" stroke="#000000" cx="547" cy="-427.1082" rx="27" ry="27"/>
</g>
<!-- 140178110602264&#45;&gt;140178132634872 -->
<g id="edge3" class="edge">
<title>140178110602264&#45;&gt;140178132634872</title>
<path fill="none" stroke="#000000" d="M471.699,-427.1082C483.2828,-427.1082 496.9866,-427.1082 509.5073,-427.1082"/>
<polygon fill="#000000" stroke="#000000" points="509.6739,-430.6083 519.6739,-427.1082 509.6739,-423.6083 509.6739,-430.6083"/>
</g>
<!-- 140178110603048 -->
<g id="node10" class="node">
<title>140178110603048</title>
<polygon fill="none" stroke="#000000" points="739,-612.1082 654,-612.1082 654,-576.1082 739,-576.1082 739,-612.1082"/>
<text text-anchor="middle" x="696.5" y="-590.4082" font-family="Times,serif" font-size="14.00" fill="#000000">TradeAction</text>
</g>
<!-- 140178110603048&#45;&gt;140178110602320 -->
<g id="edge7" class="edge">
<title>140178110603048&#45;&gt;140178110602320</title>
<path fill="none" stroke="#000000" d="M653.6959,-594.6547C603.5602,-595.2469 518.0023,-596.1082 444.5,-596.1082 342,-596.1082 342,-596.1082 342,-596.1082 284.9135,-596.1082 262.1528,-586.4503 225,-543.1082 200.6057,-514.6501 178.725,-410.3015 168.352,-353.8904"/>
<polygon fill="#000000" stroke="#000000" points="171.7768,-353.1605 166.551,-343.9441 164.8888,-354.4078 171.7768,-353.1605"/>
</g>
<!-- 140178110620336 -->
<g id="node11" class="node">
<title>140178110620336</title>
<polygon fill="none" stroke="#000000" points="739.5,-40.1082 653.5,-40.1082 653.5,-4.1082 739.5,-4.1082 739.5,-40.1082"/>
<text text-anchor="middle" x="696.5" y="-18.4082" font-family="Times,serif" font-size="14.00" fill="#000000">TradeConfig</text>
</g>
<!-- 140178110620336&#45;&gt;140178110602320 -->
<g id="edge9" class="edge">
<title>140178110620336&#45;&gt;140178110602320</title>
<path fill="none" stroke="#000000" d="M653.3464,-16.0384C603.2421,-9.5265 518.06,-.1082 444.5,-.1082 342,-.1082 342,-.1082 342,-.1082 287.045,-.1082 260.7566,1.6232 225,-40.1082 165.3807,-109.6897 212.794,-154.6215 189,-243.1082 185.4693,-256.2384 180.6086,-270.3313 175.9836,-282.6586"/>
<polygon fill="#000000" stroke="#000000" points="172.6701,-281.5242 172.3548,-292.1143 179.2054,-284.0323 172.6701,-281.5242"/>
</g>
<!-- 140178110620168 -->
<g id="node12" class="node">
<title>140178110620168</title>
<polygon fill="none" stroke="#000000" points="750.5,-553.1082 642.5,-553.1082 642.5,-517.1082 750.5,-517.1082 750.5,-553.1082"/>
<text text-anchor="middle" x="696.5" y="-531.4082" font-family="Times,serif" font-size="14.00" fill="#000000">TradeSLSBBean</text>
</g>
<!-- 140178110620168&#45;&gt;140178110602320 -->
<g id="edge1" class="edge">
<title>140178110620168&#45;&gt;140178110602320</title>
<path fill="none" stroke="#000000" d="M642.0659,-542.9592C591.1154,-549.6221 512.814,-558.1082 444.5,-558.1082 342,-558.1082 342,-558.1082 342,-558.1082 285.6238,-558.1082 263.2472,-550.5259 225,-509.1082 185.0671,-465.8651 170.4167,-396.8324 165.0616,-354.3896"/>
<polygon fill="#000000" stroke="#000000" points="168.5099,-353.7387 163.8907,-344.2038 161.5557,-354.5382 168.5099,-353.7387"/>
</g>
<!-- 140178110601984 -->
<g id="node13" class="node">
<title>140178110601984</title>
<polygon fill="none" stroke="#000000" points="484,-225.1082 405,-225.1082 405,-189.1082 484,-189.1082 484,-225.1082"/>
<text text-anchor="middle" x="444.5" y="-203.4082" font-family="Times,serif" font-size="14.00" fill="#000000">init_loop_2</text>
</g>
<!-- 140178110601872 -->
<g id="node21" class="node">
<title>140178110601872</title>
<ellipse fill="none" stroke="#000000" cx="547" cy="-207.1082" rx="27" ry="27"/>
<text text-anchor="middle" x="547" y="-203.4082" font-family="Times,serif" font-size="14.00" fill="#000000">p_5</text>
</g>
<!-- 140178110601984&#45;&gt;140178110601872 -->
<g id="edge13" class="edge">
<title>140178110601984&#45;&gt;140178110601872</title>
<path fill="none" stroke="#000000" d="M484.1292,-207.1082C492.5266,-207.1082 501.3634,-207.1082 509.672,-207.1082"/>
<polygon fill="#000000" stroke="#000000" points="509.8409,-210.6083 519.8409,-207.1082 509.8408,-203.6083 509.8409,-210.6083"/>
</g>
<!-- 140178110602208 -->
<g id="node14" class="node">
<title>140178110602208</title>
<polygon fill="none" stroke="#000000" points="471.5,-331.1082 417.5,-331.1082 417.5,-295.1082 471.5,-295.1082 471.5,-331.1082"/>
<text text-anchor="middle" x="444.5" y="-309.4082" font-family="Times,serif" font-size="14.00" fill="#000000">loop_3</text>
</g>
<!-- 140178110602208&#45;&gt;140178110601872 -->
<g id="edge14" class="edge">
<title>140178110602208&#45;&gt;140178110601872</title>
<path fill="none" stroke="#000000" d="M462.3541,-294.6444C478.5576,-277.8877 502.6496,-252.9731 520.9921,-234.0042"/>
<polygon fill="#000000" stroke="#000000" points="523.5254,-236.4194 527.9608,-226.7976 518.4933,-231.5534 523.5254,-236.4194"/>
</g>
<!-- 140178110620896 -->
<g id="node15" class="node">
<title>140178110620896</title>
<polygon fill="none" stroke="#000000" points="279,-335.1082 225,-335.1082 225,-299.1082 279,-299.1082 279,-335.1082"/>
<text text-anchor="middle" x="252" y="-313.4082" font-family="Times,serif" font-size="14.00" fill="#000000">skip_4</text>
</g>
<!-- 140178110602432 -->
<g id="node23" class="node">
<title>140178110602432</title>
<ellipse fill="none" stroke="#000000" cx="342" cy="-317.1082" rx="27" ry="27"/>
<text text-anchor="middle" x="342" y="-313.4082" font-family="Times,serif" font-size="14.00" fill="#000000">p_7</text>
</g>
<!-- 140178110620896&#45;&gt;140178110602432 -->
<g id="edge31" class="edge">
<title>140178110620896&#45;&gt;140178110602432</title>
<path fill="none" stroke="#000000" d="M279.003,-317.1082C287.0277,-317.1082 295.9665,-317.1082 304.5309,-317.1082"/>
<polygon fill="#000000" stroke="#000000" points="304.7051,-320.6083 314.705,-317.1082 304.705,-313.6083 304.7051,-320.6083"/>
</g>
<!-- 140178110621120 -->
<g id="node16" class="node">
<title>140178110621120</title>
<polygon fill="none" stroke="#000000" points="279,-441.1082 225,-441.1082 225,-405.1082 279,-405.1082 279,-441.1082"/>
<text text-anchor="middle" x="252" y="-419.4082" font-family="Times,serif" font-size="14.00" fill="#000000">skip_5</text>
</g>
<!-- 140178110601760 -->
<g id="node20" class="node">
<title>140178110601760</title>
<ellipse fill="none" stroke="#000000" cx="342" cy="-427.1082" rx="27" ry="27"/>
<text text-anchor="middle" x="342" y="-423.4082" font-family="Times,serif" font-size="14.00" fill="#000000">p_4</text>
</g>
<!-- 140178110621120&#45;&gt;140178110601760 -->
<g id="edge32" class="edge">
<title>140178110621120&#45;&gt;140178110601760</title>
<path fill="none" stroke="#000000" d="M279.003,-424.3083C287.1013,-424.6683 296.1306,-425.0696 304.7665,-425.4534"/>
<polygon fill="#000000" stroke="#000000" points="304.8705,-428.9614 315.0161,-425.9089 305.1814,-421.9683 304.8705,-428.9614"/>
</g>
<!-- 140178110601312 -->
<g id="node17" class="node">
<title>140178110601312</title>
<polygon fill="none" stroke="#000000" points="279,-225.1082 225,-225.1082 225,-189.1082 279,-189.1082 279,-225.1082"/>
<text text-anchor="middle" x="252" y="-203.4082" font-family="Times,serif" font-size="14.00" fill="#000000">tau_1</text>
</g>
<!-- 140178132635544 -->
<g id="node19" class="node">
<title>140178132635544</title>
<ellipse fill="none" stroke="#000000" cx="342" cy="-207.1082" rx="27" ry="27"/>
<text text-anchor="middle" x="342" y="-203.4082" font-family="Times,serif" font-size="14.00" fill="#000000">p_3</text>
</g>
<!-- 140178110601312&#45;&gt;140178132635544 -->
<g id="edge34" class="edge">
<title>140178110601312&#45;&gt;140178132635544</title>
<path fill="none" stroke="#000000" d="M279.003,-207.1082C287.0277,-207.1082 295.9665,-207.1082 304.5309,-207.1082"/>
<polygon fill="#000000" stroke="#000000" points="304.7051,-210.6083 314.705,-207.1082 304.705,-203.6083 304.7051,-210.6083"/>
</g>
<!-- 140178132635432 -->
<g id="node18" class="node">
<title>140178132635432</title>
<ellipse fill="#00ff00" stroke="#000000" cx="162" cy="-207.1082" rx="27" ry="27"/>
<text text-anchor="middle" x="162" y="-203.4082" font-family="Times,serif" font-size="14.00" fill="#000000">1</text>
</g>
<!-- 140178132635432&#45;&gt;140178110601312 -->
<g id="edge33" class="edge">
<title>140178132635432&#45;&gt;140178110601312</title>
<path fill="none" stroke="#000000" d="M189.003,-207.1082C197.0277,-207.1082 205.9665,-207.1082 214.5309,-207.1082"/>
<polygon fill="#000000" stroke="#000000" points="214.7051,-210.6083 224.705,-207.1082 214.705,-203.6083 214.7051,-210.6083"/>
</g>
<!-- 140178132635544&#45;&gt;140178110601984 -->
<g id="edge15" class="edge">
<title>140178132635544&#45;&gt;140178110601984</title>
<path fill="none" stroke="#000000" d="M369.199,-207.1082C377.0426,-207.1082 385.8582,-207.1082 394.6204,-207.1082"/>
<polygon fill="#000000" stroke="#000000" points="394.8204,-210.6083 404.8204,-207.1082 394.8204,-203.6083 394.8204,-210.6083"/>
</g>
<!-- 140178110601760&#45;&gt;140178110602264 -->
<g id="edge16" class="edge">
<title>140178110601760&#45;&gt;140178110602264</title>
<path fill="none" stroke="#000000" d="M369.199,-427.1082C380.7828,-427.1082 394.4866,-427.1082 407.0073,-427.1082"/>
<polygon fill="#000000" stroke="#000000" points="407.1739,-430.6083 417.1739,-427.1082 407.1739,-423.6083 407.1739,-430.6083"/>
</g>
<!-- 140178110601872&#45;&gt;140178110602544 -->
<g id="edge23" class="edge">
<title>140178110601872&#45;&gt;140178110602544</title>
<path fill="none" stroke="#000000" d="M522.6163,-195.2366C511.1153,-190.0085 497.0742,-184.1495 484,-180.1082 422.5427,-161.1115 406.3263,-152.1082 342,-152.1082 252,-152.1082 252,-152.1082 252,-152.1082 199.3188,-152.1082 183.5634,-150.6899 135,-171.1082 113.4338,-180.1756 92.2421,-195.7311 76.3514,-209.1156"/>
<polygon fill="#000000" stroke="#000000" points="73.8189,-206.6788 68.551,-215.8712 78.4016,-211.9703 73.8189,-206.6788"/>
</g>
<!-- 140178110601872&#45;&gt;140178110619832 -->
<g id="edge26" class="edge">
<title>140178110601872&#45;&gt;140178110619832</title>
<path fill="none" stroke="#000000" d="M551.9285,-233.9176C561.8888,-285.7383 585.5554,-397.1869 610,-427.1082 617.2894,-436.0308 626.8171,-443.3898 636.8777,-449.3859"/>
<polygon fill="#000000" stroke="#000000" points="635.3655,-452.5488 645.8131,-454.3094 638.7438,-446.4179 635.3655,-452.5488"/>
</g>
<!-- 140178110601872&#45;&gt;140178110620672 -->
<g id="edge21" class="edge">
<title>140178110601872&#45;&gt;140178110620672</title>
<path fill="none" stroke="#000000" d="M550.3585,-234.047C556.2156,-269.8835 571.5887,-333.0174 610,-370.1082 623.2566,-382.909 642.2471,-390.2684 659.059,-394.4895"/>
<polygon fill="#000000" stroke="#000000" points="658.6539,-397.9846 669.1746,-396.7328 660.1695,-391.1506 658.6539,-397.9846"/>
</g>
<!-- 140178110601872&#45;&gt;140178110602712 -->
<g id="edge20" class="edge">
<title>140178110601872&#45;&gt;140178110602712</title>
<path fill="none" stroke="#000000" d="M561.8211,-229.7999C573.6041,-246.7902 591.1859,-269.9591 610,-287.1082 623.2483,-299.1841 639.3779,-310.3862 654.1034,-319.5484"/>
<polygon fill="#000000" stroke="#000000" points="652.6876,-322.7833 663.0524,-324.9792 656.3192,-316.799 652.6876,-322.7833"/>
</g>
<!-- 140178110601872&#45;&gt;140178110620000 -->
<g id="edge25" class="edge">
<title>140178110601872&#45;&gt;140178110620000</title>
<path fill="none" stroke="#000000" d="M572.3555,-217.0357C583.8137,-221.4526 597.5478,-226.6511 610,-231.1082 616.9715,-233.6036 624.2815,-236.1547 631.5738,-238.658"/>
<polygon fill="#000000" stroke="#000000" points="630.879,-242.1188 641.4735,-242.0321 633.1373,-235.4931 630.879,-242.1188"/>
</g>
<!-- 140178110601872&#45;&gt;140178110603216 -->
<g id="edge19" class="edge">
<title>140178110601872&#45;&gt;140178110603216</title>
<path fill="none" stroke="#000000" d="M559.4839,-182.6887C570.4652,-163.358 588.0996,-136.9046 610,-120.1082 615.0219,-116.2567 620.5453,-112.8093 626.2972,-109.7328"/>
<polygon fill="#000000" stroke="#000000" points="628.066,-112.763 635.4846,-105.1989 624.9682,-106.4857 628.066,-112.763"/>
</g>
<!-- 140178110601872&#45;&gt;140178110602880 -->
<g id="edge18" class="edge">
<title>140178110601872&#45;&gt;140178110602880</title>
<path fill="none" stroke="#000000" d="M574.0733,-206.5649C590.9942,-206.2254 613.509,-205.7736 634.6134,-205.3501"/>
<polygon fill="#000000" stroke="#000000" points="634.9021,-208.8451 644.8298,-205.1451 634.7615,-201.8465 634.9021,-208.8451"/>
</g>
<!-- 140178110601872&#45;&gt;140178110620504 -->
<g id="edge27" class="edge">
<title>140178110601872&#45;&gt;140178110620504</title>
<path fill="none" stroke="#000000" d="M571.2511,-194.7884C582.8438,-189.099 596.998,-182.4395 610,-177.1082 616.8753,-174.2891 624.1242,-171.4991 631.381,-168.8217"/>
<polygon fill="#000000" stroke="#000000" points="633.0368,-171.9445 641.2471,-165.2482 630.6529,-165.3629 633.0368,-171.9445"/>
</g>
<!-- 140178110601872&#45;&gt;140178110603048 -->
<g id="edge22" class="edge">
<title>140178110601872&#45;&gt;140178110603048</title>
<path fill="none" stroke="#000000" d="M551.0009,-233.8364C563.1391,-314.2768 599.3641,-549.3792 610,-562.1082 618.7541,-572.5851 631.2726,-579.6328 644.0768,-584.3735"/>
<polygon fill="#000000" stroke="#000000" points="643.2738,-587.793 653.8663,-587.5675 645.4452,-581.1383 643.2738,-587.793"/>
</g>
<!-- 140178110601872&#45;&gt;140178110620336 -->
<g id="edge24" class="edge">
<title>140178110601872&#45;&gt;140178110620336</title>
<path fill="none" stroke="#000000" d="M552.1705,-180.4059C559.6968,-148.0921 576.5789,-93.8327 610,-60.1082 619.4766,-50.5456 631.7683,-43.2086 644.0958,-37.6531"/>
<polygon fill="#000000" stroke="#000000" points="645.597,-40.8194 653.4837,-33.7447 642.9066,-34.3571 645.597,-40.8194"/>
</g>
<!-- 140178110601872&#45;&gt;140178110620168 -->
<g id="edge17" class="edge">
<title>140178110601872&#45;&gt;140178110620168</title>
<path fill="none" stroke="#000000" d="M551.3149,-233.8252C562.5294,-302.0151 592.9075,-478.5854 610,-499.1082 616.258,-506.6222 624.3471,-512.5924 633.062,-517.3294"/>
<polygon fill="#000000" stroke="#000000" points="631.7964,-520.6059 642.32,-521.8327 634.8583,-514.311 631.7964,-520.6059"/>
</g>
<!-- 140178110602320&#45;&gt;140178110620896 -->
<g id="edge28" class="edge">
<title>140178110602320&#45;&gt;140178110620896</title>
<path fill="none" stroke="#000000" d="M189.003,-317.1082C197.0277,-317.1082 205.9665,-317.1082 214.5309,-317.1082"/>
<polygon fill="#000000" stroke="#000000" points="214.7051,-320.6083 224.705,-317.1082 214.705,-313.6083 214.7051,-320.6083"/>
</g>
<!-- 140178110602320&#45;&gt;140178110621120 -->
<g id="edge29" class="edge">
<title>140178110602320&#45;&gt;140178110621120</title>
<path fill="none" stroke="#000000" d="M179.5666,-337.7977C193.9397,-354.726 214.3508,-378.7658 229.8446,-397.0141"/>
<polygon fill="#000000" stroke="#000000" points="227.4376,-399.5869 236.578,-404.9445 232.7737,-395.0563 227.4376,-399.5869"/>
</g>
<!-- 140178110602432&#45;&gt;140178110602208 -->
<g id="edge30" class="edge">
<title>140178110602432&#45;&gt;140178110602208</title>
<path fill="none" stroke="#000000" d="M369.199,-316.0468C380.7828,-315.5947 394.4866,-315.06 407.0073,-314.5713"/>
<polygon fill="#000000" stroke="#000000" points="407.318,-318.062 417.1739,-314.1746 407.045,-311.0673 407.318,-318.062"/>
</g>
</g>
</svg>
