<?xml version="1.0" encoding="UTF-8" standalone="no"?>
<!DOCTYPE svg PUBLIC "-//W3C//DTD SVG 1.1//EN"
 "http://www.w3.org/Graphics/SVG/1.1/DTD/svg11.dtd">
<!-- Generated by graphviz version 2.40.1 (20161225.0304)
 -->
<!-- Title: alpha_plus_net_1585280321.2231615 Pages: 1 -->
<svg width="1920pt" height="1225pt"
 viewBox="0.00 0.00 1920.00 1225.00" xmlns="http://www.w3.org/2000/svg" xmlns:xlink="http://www.w3.org/1999/xlink">
<g id="graph0" class="graph" transform="scale(1 1) rotate(0) translate(4 1221)">
<title>alpha_plus_net_1585280321.2231615</title>
<!-- 140633493955696 -->
<g id="node1" class="node">
<title>140633493955696</title>
<polygon fill="none" stroke="#000000" points="119,-222 3,-222 3,-186 119,-186 119,-222"/>
<text text-anchor="middle" x="61" y="-200.3" font-family="Times,serif" font-size="14.00" fill="#000000">AccountDataBean</text>
</g>
<!-- 140633490230296 -->
<g id="node21" class="node">
<title>140633490230296</title>
<ellipse fill="none" stroke="#000000" cx="185" cy="-309" rx="27" ry="27"/>
<text text-anchor="middle" x="185" y="-305.3" font-family="Times,serif" font-size="14.00" fill="#000000">({&#39;AccountProfileDataBean&#39;, &#39;OrderDataBean&#39;, &#39;HoldingDataBean&#39;, &#39;AccountDataBean&#39;}, {&#39;TradeSLSBBean&#39;, &#39;TradeAppServlet&#39;})</text>
</g>
<!-- 140633493955696&#45;&gt;140633490230296 -->
<g id="edge35" class="edge">
<title>140633493955696&#45;&gt;140633490230296</title>
<path fill="none" stroke="#000000" d="M82.3164,-222.0501C102.7912,-239.3877 133.8644,-265.6997 156.4657,-284.8379"/>
<polygon fill="#000000" stroke="#000000" points="154.4805,-287.7431 164.3738,-291.5343 159.0041,-282.401 154.4805,-287.7431"/>
</g>
<!-- 140633490414000 -->
<g id="node23" class="node">
<title>140633490414000</title>
<ellipse fill="none" stroke="#000000" cx="694" cy="-467" rx="27" ry="27"/>
<text text-anchor="middle" x="694" y="-463.3" font-family="Times,serif" font-size="14.00" fill="#000000">({&#39;FinancialUtils&#39;, &#39;AccountProfileDataBean&#39;, &#39;AccountDataBean&#39;, &#39;OrderDataBean&#39;, &#39;HoldingDataBean&#39;}, {&#39;TradeSLSBBean&#39;, &#39;TradeServletAction&#39;})</text>
</g>
<!-- 140633493955696&#45;&gt;140633490414000 -->
<g id="edge36" class="edge">
<title>140633493955696&#45;&gt;140633490414000</title>
<path fill="none" stroke="#000000" d="M63.9739,-222.0999C77.6378,-298.4135 141.6156,-590 321.5,-590 321.5,-590 321.5,-590 458,-590 541.7728,-590 625.2649,-528.2993 666.8508,-492.2981"/>
<polygon fill="#000000" stroke="#000000" points="669.1705,-494.9191 674.358,-485.6811 664.5419,-489.6678 669.1705,-494.9191"/>
</g>
<!-- 140633490413720 -->
<g id="node24" class="node">
<title>140633490413720</title>
<ellipse fill="none" stroke="#000000" cx="1147" cy="-565" rx="27" ry="27"/>
<text text-anchor="middle" x="1147" y="-561.3" font-family="Times,serif" font-size="14.00" fill="#000000">({&#39;FinancialUtils&#39;, &#39;AccountProfileDataBean&#39;, &#39;AccountDataBean&#39;, &#39;QuoteDataBean&#39;, &#39;HoldingDataBean&#39;}, {&#39;TradeSLSBBean&#39;, &#39;TradeServletAction&#39;})</text>
</g>
<!-- 140633493955696&#45;&gt;140633490413720 -->
<g id="edge37" class="edge">
<title>140633493955696&#45;&gt;140633490413720</title>
<path fill="none" stroke="#000000" d="M62.3699,-222.1109C69.8977,-307.5281 113.8594,-666 321.5,-666 321.5,-666 321.5,-666 694,-666 853.2416,-666 1036.5874,-605.8087 1111.9209,-578.3591"/>
<polygon fill="#000000" stroke="#000000" points="1113.2277,-581.6077 1121.4027,-574.8682 1110.8092,-575.0387 1113.2277,-581.6077"/>
</g>
<!-- 140633493957208 -->
<g id="node27" class="node">
<title>140633493957208</title>
<ellipse fill="none" stroke="#000000" cx="1674" cy="-244" rx="27" ry="27"/>
<text text-anchor="middle" x="1674" y="-240.3" font-family="Times,serif" font-size="14.00" fill="#000000">({&#39;QuoteDataBean&#39;, &#39;AccountDataBean&#39;}, {&#39;TradeAction&#39;})</text>
</g>
<!-- 140633493955696&#45;&gt;140633493957208 -->
<g id="edge38" class="edge">
<title>140633493955696&#45;&gt;140633493957208</title>
<path fill="none" stroke="#000000" d="M75.6046,-185.9191C112.1286,-142.8955 212.3678,-38 321.5,-38 321.5,-38 321.5,-38 1396,-38 1511.9888,-38 1611.1607,-155.1918 1652.8988,-212.7917"/>
<polygon fill="#000000" stroke="#000000" points="1650.2135,-215.0545 1658.8671,-221.1673 1655.9142,-210.9923 1650.2135,-215.0545"/>
</g>
<!-- 140633493955248 -->
<g id="node2" class="node">
<title>140633493955248</title>
<polygon fill="none" stroke="#000000" points="1611,-480 1459,-480 1459,-444 1611,-444 1611,-480"/>
<text text-anchor="middle" x="1535" y="-458.3" font-family="Times,serif" font-size="14.00" fill="#000000">AccountProfileDataBean</text>
</g>
<!-- 140633493955248&#45;&gt;140633490230296 -->
<g id="edge39" class="edge">
<title>140633493955248&#45;&gt;140633490230296</title>
<path fill="none" stroke="#000000" d="M1470.3795,-480.2241C1466.2708,-482.7782 1462.4192,-485.6873 1459,-489 1427.4653,-519.5526 1453.1905,-549.1184 1423,-581 1329.6797,-679.5478 1255.3051,-629.6244 1120,-619 720.5327,-587.6332 579.8282,-614.6065 248,-390 229.8258,-377.6983 214.5545,-358.4799 203.6008,-341.8499"/>
<polygon fill="#000000" stroke="#000000" points="206.2695,-339.5213 197.9685,-332.9377 200.3522,-343.2609 206.2695,-339.5213"/>
</g>
<!-- 140633493955248&#45;&gt;140633490414000 -->
<g id="edge40" class="edge">
<title>140633493955248&#45;&gt;140633490414000</title>
<path fill="none" stroke="#000000" d="M1472.4845,-480.0606C1467.6875,-482.6656 1463.1177,-485.63 1459,-489 1434.9339,-508.696 1447.55,-529.9105 1423,-549 1315.1359,-632.8724 1255.5656,-618.065 1120,-601 953.7307,-580.07 912.7287,-560.9043 757,-499 746.9966,-495.0235 736.4489,-490.0133 726.9054,-485.1452"/>
<polygon fill="#000000" stroke="#000000" points="728.2385,-481.893 717.7539,-480.3681 724.9992,-488.0984 728.2385,-481.893"/>
</g>
<!-- 140633493955248&#45;&gt;140633490413720 -->
<g id="edge41" class="edge">
<title>140633493955248&#45;&gt;140633490413720</title>
<path fill="none" stroke="#000000" d="M1475.6802,-480.112C1469.8723,-482.7529 1464.2089,-485.7097 1459,-489 1439.8695,-501.084 1443.2283,-514.8602 1423,-525 1344.7236,-564.2375 1239.3061,-567.9997 1184.1565,-566.827"/>
<polygon fill="#000000" stroke="#000000" points="1184.2345,-563.3279 1174.1406,-566.547 1184.0388,-570.3252 1184.2345,-563.3279"/>
</g>
<!-- 140633493955752 -->
<g id="node3" class="node">
<title>140633493955752</title>
<polygon fill="none" stroke="#000000" points="122,-1061 0,-1061 0,-1025 122,-1025 122,-1061"/>
<text text-anchor="middle" x="61" y="-1039.3" font-family="Times,serif" font-size="14.00" fill="#000000">DTStreamer3MDB</text>
</g>
<!-- 140633490414672 -->
<g id="node22" class="node">
<title>140633490414672</title>
<ellipse fill="none" stroke="#000000" cx="185" cy="-924" rx="27" ry="27"/>
<text text-anchor="middle" x="185" y="-920.3" font-family="Times,serif" font-size="14.00" fill="#000000">({&#39;DTStreamer3MDB&#39;, &#39;OrdersAlertFilter&#39;}, {&#39;Root&#39;, &#39;TradeConfig&#39;, &#39;RecentStockChangeList&#39;})</text>
</g>
<!-- 140633493955752&#45;&gt;140633490414672 -->
<g id="edge42" class="edge">
<title>140633493955752&#45;&gt;140633490414672</title>
<path fill="none" stroke="#000000" d="M79.8329,-1024.9265C100.6188,-1004.9787 134.2552,-972.6986 157.8784,-950.0279"/>
<polygon fill="#000000" stroke="#000000" points="160.3759,-952.4822 165.1675,-943.0328 155.529,-947.4317 160.3759,-952.4822"/>
</g>
<!-- 140633493954968 -->
<g id="node4" class="node">
<title>140633493954968</title>
<polygon fill="none" stroke="#000000" points="1084,-536 991,-536 991,-500 1084,-500 1084,-536"/>
<text text-anchor="middle" x="1037.5" y="-514.3" font-family="Times,serif" font-size="14.00" fill="#000000">FinancialUtils</text>
</g>
<!-- 140633493954968&#45;&gt;140633490414000 -->
<g id="edge43" class="edge">
<title>140633493954968&#45;&gt;140633490414000</title>
<path fill="none" stroke="#000000" d="M990.8725,-511.0771C921.9585,-500.8454 794.2832,-481.8892 731.2252,-472.5269"/>
<polygon fill="#000000" stroke="#000000" points="731.3595,-469.0085 720.9539,-471.0019 730.3314,-475.9326 731.3595,-469.0085"/>
</g>
<!-- 140633493954968&#45;&gt;140633490413720 -->
<g id="edge44" class="edge">
<title>140633493954968&#45;&gt;140633490413720</title>
<path fill="none" stroke="#000000" d="M1079.5224,-536.037C1090.5123,-540.7541 1102.2265,-545.7822 1112.7575,-550.3023"/>
<polygon fill="#000000" stroke="#000000" points="1111.4717,-553.5591 1122.0414,-554.2872 1114.2327,-547.1266 1111.4717,-553.5591"/>
</g>
<!-- 140633493955304 -->
<g id="node5" class="node">
<title>140633493955304</title>
<polygon fill="none" stroke="#000000" points="1592,-246 1478,-246 1478,-210 1592,-210 1592,-246"/>
<text text-anchor="middle" x="1535" y="-224.3" font-family="Times,serif" font-size="14.00" fill="#000000">HoldingDataBean</text>
</g>
<!-- 140633493955304&#45;&gt;140633490230296 -->
<g id="edge45" class="edge">
<title>140633493955304&#45;&gt;140633490230296</title>
<path fill="none" stroke="#000000" d="M1518.4376,-209.9667C1479.5523,-169.7035 1377.6523,-76 1271.5,-76 694,-76 694,-76 694,-76 482.493,-76 424.1916,-124.9884 248,-242 232.7999,-252.0946 218.6159,-266.5285 207.57,-279.4158"/>
<polygon fill="#000000" stroke="#000000" points="204.8125,-277.258 201.1169,-287.1874 210.1979,-281.7298 204.8125,-277.258"/>
</g>
<!-- 140633493955304&#45;&gt;140633490414000 -->
<g id="edge46" class="edge">
<title>140633493955304&#45;&gt;140633490414000</title>
<path fill="none" stroke="#000000" d="M1477.6541,-220.763C1385.1822,-209.7377 1197.3196,-190 1037.5,-190 928,-190 928,-190 928,-190 802.9857,-190 731.1162,-356.6818 705.1667,-431.4491"/>
<polygon fill="#000000" stroke="#000000" points="701.845,-430.3462 701.9485,-440.9405 708.4743,-432.594 701.845,-430.3462"/>
</g>
<!-- 140633493955304&#45;&gt;140633490413720 -->
<g id="edge47" class="edge">
<title>140633493955304&#45;&gt;140633490413720</title>
<path fill="none" stroke="#000000" d="M1522.9635,-246.1071C1503.8241,-274.1273 1464.3666,-328.8417 1423,-368 1343.1799,-443.5589 1232.9885,-513.6868 1179.1788,-546.1178"/>
<polygon fill="#000000" stroke="#000000" points="1177.2037,-543.221 1170.4228,-551.3616 1180.8003,-549.2264 1177.2037,-543.221"/>
</g>
<!-- 140633493955920 -->
<g id="node6" class="node">
<title>140633493955920</title>
<polygon fill="none" stroke="#000000" points="603,-883 549,-883 549,-847 603,-847 603,-883"/>
<text text-anchor="middle" x="576" y="-861.3" font-family="Times,serif" font-size="14.00" fill="#000000">Log</text>
</g>
<!-- 140633493958496 -->
<g id="node25" class="node">
<title>140633493958496</title>
<ellipse fill="none" stroke="#000000" cx="694" cy="-841" rx="27" ry="27"/>
<text text-anchor="middle" x="694" y="-837.3" font-family="Times,serif" font-size="14.00" fill="#000000">({&#39;Log&#39;}, {&#39;TradeConfig&#39;})</text>
</g>
<!-- 140633493955920&#45;&gt;140633493958496 -->
<g id="edge48" class="edge">
<title>140633493955920&#45;&gt;140633493958496</title>
<path fill="none" stroke="#000000" d="M603.0716,-859.4939C619.2252,-856.2084 639.9484,-851.9935 657.5303,-848.4176"/>
<polygon fill="#000000" stroke="#000000" points="658.3593,-851.8207 667.4611,-846.3978 656.9641,-844.9611 658.3593,-851.8207"/>
</g>
<!-- 140633493955360 -->
<g id="node7" class="node">
<title>140633493955360</title>
<polygon fill="none" stroke="#000000" points="98,-1180 24,-1180 24,-1144 98,-1144 98,-1180"/>
<text text-anchor="middle" x="61" y="-1158.3" font-family="Times,serif" font-size="14.00" fill="#000000">MDBStats</text>
</g>
<!-- 140633493958104 -->
<g id="node26" class="node">
<title>140633493958104</title>
<ellipse fill="none" stroke="#000000" cx="185" cy="-1190" rx="27" ry="27"/>
<text text-anchor="middle" x="185" y="-1186.3" font-family="Times,serif" font-size="14.00" fill="#000000">({&#39;MDBStats&#39;}, {&#39;TimerStat&#39;})</text>
</g>
<!-- 140633493955360&#45;&gt;140633493958104 -->
<g id="edge49" class="edge">
<title>140633493955360&#45;&gt;140633493958104</title>
<path fill="none" stroke="#000000" d="M98.2041,-1170.4009C114.1213,-1173.9951 132.6491,-1178.1788 148.4893,-1181.7556"/>
<polygon fill="#000000" stroke="#000000" points="147.9306,-1185.2175 158.456,-1184.0062 149.4725,-1178.3895 147.9306,-1185.2175"/>
</g>
<!-- 140633493956144 -->
<g id="node8" class="node">
<title>140633493956144</title>
<polygon fill="none" stroke="#000000" points="626.5,-384 525.5,-384 525.5,-348 626.5,-348 626.5,-384"/>
<text text-anchor="middle" x="576" y="-362.3" font-family="Times,serif" font-size="14.00" fill="#000000">OrderDataBean</text>
</g>
<!-- 140633493956144&#45;&gt;140633490230296 -->
<g id="edge50" class="edge">
<title>140633493956144&#45;&gt;140633490230296</title>
<path fill="none" stroke="#000000" d="M525.3016,-358.6092C445.4885,-346.974 292.4,-324.6568 222.0362,-314.3991"/>
<polygon fill="#000000" stroke="#000000" points="222.2753,-310.8971 211.875,-312.9178 221.2655,-317.8239 222.2753,-310.8971"/>
</g>
<!-- 140633493956144&#45;&gt;140633490414000 -->
<g id="edge51" class="edge">
<title>140633493956144&#45;&gt;140633490414000</title>
<path fill="none" stroke="#000000" d="M597.096,-384.0568C616.2588,-400.4588 644.6727,-424.7791 665.7831,-442.8483"/>
<polygon fill="#000000" stroke="#000000" points="663.6087,-445.5941 673.4818,-449.4378 668.1606,-440.2762 663.6087,-445.5941"/>
</g>
<!-- 140633493956032 -->
<g id="node9" class="node">
<title>140633493956032</title>
<polygon fill="none" stroke="#000000" points="631,-969 521,-969 521,-933 631,-933 631,-969"/>
<text text-anchor="middle" x="576" y="-947.3" font-family="Times,serif" font-size="14.00" fill="#000000">OrdersAlertFilter</text>
</g>
<!-- 140633493956032&#45;&gt;140633490414672 -->
<g id="edge52" class="edge">
<title>140633493956032&#45;&gt;140633490414672</title>
<path fill="none" stroke="#000000" d="M520.6765,-945.9187C508.9046,-944.8985 496.5445,-943.8729 485,-943 390.6455,-935.8657 279.4565,-929.3063 222.6105,-926.0862"/>
<polygon fill="#000000" stroke="#000000" points="222.4969,-922.5743 212.3158,-925.506 222.1029,-929.5632 222.4969,-922.5743"/>
</g>
<!-- 140633493955808 -->
<g id="node10" class="node">
<title>140633493955808</title>
<polygon fill="none" stroke="#000000" points="1586.5,-534 1483.5,-534 1483.5,-498 1586.5,-498 1586.5,-534"/>
<text text-anchor="middle" x="1535" y="-512.3" font-family="Times,serif" font-size="14.00" fill="#000000">QuoteDataBean</text>
</g>
<!-- 140633493955808&#45;&gt;140633490413720 -->
<g id="edge53" class="edge">
<title>140633493955808&#45;&gt;140633490413720</title>
<path fill="none" stroke="#000000" d="M1500.7638,-534.0367C1479.12,-544.4222 1450.1925,-556.4796 1423,-562 1338.9095,-579.0713 1237.4228,-573.7289 1184.0171,-568.9757"/>
<polygon fill="#000000" stroke="#000000" points="1184.2786,-565.485 1173.9964,-568.0398 1183.6275,-572.4547 1184.2786,-565.485"/>
</g>
<!-- 140633493955808&#45;&gt;140633493957208 -->
<g id="edge54" class="edge">
<title>140633493955808&#45;&gt;140633493957208</title>
<path fill="none" stroke="#000000" d="M1586.5872,-505.4093C1595.7078,-501.5313 1604.3868,-496.2345 1611,-489 1625.1049,-473.5701 1653.0782,-345.5665 1666.4882,-280.9782"/>
<polygon fill="#000000" stroke="#000000" points="1669.993,-281.3124 1668.5876,-270.8112 1663.1376,-279.8969 1669.993,-281.3124"/>
</g>
<!-- 140633493955864 -->
<g id="node11" class="node">
<title>140633493955864</title>
<polygon fill="none" stroke="#000000" points="395,-988 248,-988 248,-952 395,-952 395,-988"/>
<text text-anchor="middle" x="321.5" y="-966.3" font-family="Times,serif" font-size="14.00" fill="#000000">RecentStockChangeList</text>
</g>
<!-- 140633490415232 -->
<g id="node35" class="node">
<title>140633490415232</title>
<ellipse fill="none" stroke="#000000" cx="458" cy="-979" rx="27" ry="27"/>
<text text-anchor="middle" x="458" y="-975.3" font-family="Times,serif" font-size="14.00" fill="#000000">({&#39;artificial_start&#39;, &#39;TradeConfig&#39;, &#39;RecentStockChangeList&#39;}, {&#39;DTStreamer3MDB&#39;, &#39;OrdersAlertFilter&#39;})</text>
</g>
<!-- 140633493955864&#45;&gt;140633490415232 -->
<g id="edge55" class="edge">
<title>140633493955864&#45;&gt;140633490415232</title>
<path fill="none" stroke="#000000" d="M395.3431,-974.8688C404.1659,-975.4505 412.8632,-976.024 420.84,-976.5499"/>
<polygon fill="#000000" stroke="#000000" points="420.6525,-980.045 430.8611,-977.2106 421.1131,-973.0602 420.6525,-980.045"/>
</g>
<!-- 140633493956088 -->
<g id="node12" class="node">
<title>140633493956088</title>
<polygon fill="none" stroke="#000000" points="348.5,-806 294.5,-806 294.5,-770 348.5,-770 348.5,-806"/>
<text text-anchor="middle" x="321.5" y="-784.3" font-family="Times,serif" font-size="14.00" fill="#000000">Root</text>
</g>
<!-- 140633493957824 -->
<g id="node36" class="node">
<title>140633493957824</title>
<ellipse fill="#ffa500" stroke="#000000" cx="458" cy="-759" rx="27" ry="27"/>
</g>
<!-- 140633493956088&#45;&gt;140633493957824 -->
<g id="edge56" class="edge">
<title>140633493956088&#45;&gt;140633493957824</title>
<path fill="none" stroke="#000000" d="M348.7947,-782.2011C369.5749,-777.7863 398.3932,-771.6637 421.2081,-766.8166"/>
<polygon fill="#000000" stroke="#000000" points="422.1634,-770.1918 431.2177,-764.69 420.7087,-763.3447 422.1634,-770.1918"/>
</g>
<!-- 140633493955584 -->
<g id="node13" class="node">
<title>140633493955584</title>
<polygon fill="none" stroke="#000000" points="357,-1204 286,-1204 286,-1168 357,-1168 357,-1204"/>
<text text-anchor="middle" x="321.5" y="-1182.3" font-family="Times,serif" font-size="14.00" fill="#000000">TimerStat</text>
</g>
<!-- 140633493957936 -->
<g id="node28" class="node">
<title>140633493957936</title>
<ellipse fill="none" stroke="#000000" cx="458" cy="-1162" rx="27" ry="27"/>
<text text-anchor="middle" x="458" y="-1158.3" font-family="Times,serif" font-size="14.00" fill="#000000">({&#39;TimerStat&#39;}, {&#39;MDBStats&#39;})</text>
</g>
<!-- 140633493955584&#45;&gt;140633493957936 -->
<g id="edge57" class="edge">
<title>140633493955584&#45;&gt;140633493957936</title>
<path fill="none" stroke="#000000" d="M357.0074,-1179.7569C376.784,-1176.2797 401.3676,-1171.9574 421.3283,-1168.4478"/>
<polygon fill="#000000" stroke="#000000" points="422.0524,-1171.8742 431.2952,-1166.6953 420.8402,-1164.98 422.0524,-1171.8742"/>
</g>
<!-- 140633493955192 -->
<g id="node14" class="node">
<title>140633493955192</title>
<polygon fill="none" stroke="#000000" points="1822,-262 1737,-262 1737,-226 1822,-226 1822,-262"/>
<text text-anchor="middle" x="1779.5" y="-240.3" font-family="Times,serif" font-size="14.00" fill="#000000">TradeAction</text>
</g>
<!-- 140633493957376 -->
<g id="node29" class="node">
<title>140633493957376</title>
<ellipse fill="none" stroke="#000000" cx="1885" cy="-244" rx="27" ry="27"/>
<text text-anchor="middle" x="1885" y="-240.3" font-family="Times,serif" font-size="14.00" fill="#000000">({&#39;TradeAction&#39;}, {&#39;QuoteDataBean&#39;, &#39;AccountDataBean&#39;})</text>
</g>
<!-- 140633493955192&#45;&gt;140633493957376 -->
<g id="edge58" class="edge">
<title>140633493955192&#45;&gt;140633493957376</title>
<path fill="none" stroke="#000000" d="M1822.1068,-244C1830.5509,-244 1839.3554,-244 1847.6101,-244"/>
<polygon fill="#000000" stroke="#000000" points="1847.7036,-247.5001 1857.7036,-244 1847.7035,-240.5001 1847.7036,-247.5001"/>
</g>
<!-- 140633493955416 -->
<g id="node15" class="node">
<title>140633493955416</title>
<polygon fill="none" stroke="#000000" points="376.5,-287 266.5,-287 266.5,-251 376.5,-251 376.5,-287"/>
<text text-anchor="middle" x="321.5" y="-265.3" font-family="Times,serif" font-size="14.00" fill="#000000">TradeAppServlet</text>
</g>
<!-- 140633493957096 -->
<g id="node31" class="node">
<title>140633493957096</title>
<ellipse fill="none" stroke="#000000" cx="458" cy="-260" rx="27" ry="27"/>
<text text-anchor="middle" x="458" y="-256.3" font-family="Times,serif" font-size="14.00" fill="#000000">({&#39;TradeSLSBBean&#39;, &#39;TradeAppServlet&#39;}, {&#39;AccountProfileDataBean&#39;, &#39;AccountDataBean&#39;, &#39;OrderDataBean&#39;, &#39;HoldingDataBean&#39;})</text>
</g>
<!-- 140633493955416&#45;&gt;140633493957096 -->
<g id="edge59" class="edge">
<title>140633493955416&#45;&gt;140633493957096</title>
<path fill="none" stroke="#000000" d="M376.6263,-265.3653C391.3391,-264.3952 406.8975,-263.3694 420.4255,-262.4774"/>
<polygon fill="#000000" stroke="#000000" points="421.0365,-265.9448 430.7845,-261.7944 420.5759,-258.96 421.0365,-265.9448"/>
</g>
<!-- 140633493955472 -->
<g id="node16" class="node">
<title>140633493955472</title>
<polygon fill="none" stroke="#000000" points="364.5,-892 278.5,-892 278.5,-856 364.5,-856 364.5,-892"/>
<text text-anchor="middle" x="321.5" y="-870.3" font-family="Times,serif" font-size="14.00" fill="#000000">TradeConfig</text>
</g>
<!-- 140633493958384 -->
<g id="node30" class="node">
<title>140633493958384</title>
<ellipse fill="none" stroke="#000000" cx="458" cy="-869" rx="27" ry="27"/>
<text text-anchor="middle" x="458" y="-865.3" font-family="Times,serif" font-size="14.00" fill="#000000">({&#39;TradeConfig&#39;}, {&#39;Log&#39;})</text>
</g>
<!-- 140633493955472&#45;&gt;140633493958384 -->
<g id="edge60" class="edge">
<title>140633493955472&#45;&gt;140633493958384</title>
<path fill="none" stroke="#000000" d="M364.6895,-872.418C382.6709,-871.7593 403.3474,-871.0019 420.6599,-870.3678"/>
<polygon fill="#000000" stroke="#000000" points="421.0853,-873.8546 430.9504,-869.9908 420.829,-866.8593 421.0853,-873.8546"/>
</g>
<!-- 140633493955472&#45;&gt;140633490415232 -->
<g id="edge61" class="edge">
<title>140633493955472&#45;&gt;140633490415232</title>
<path fill="none" stroke="#000000" d="M344.9652,-892.0501C367.9757,-909.7505 403.1463,-936.8048 428.1387,-956.0297"/>
<polygon fill="#000000" stroke="#000000" points="426.1316,-958.9016 436.1919,-962.2245 430.3996,-953.3532 426.1316,-958.9016"/>
</g>
<!-- 140633493955024 -->
<g id="node17" class="node">
<title>140633493955024</title>
<polygon fill="none" stroke="#000000" points="865,-430 757,-430 757,-394 865,-394 865,-430"/>
<text text-anchor="middle" x="811" y="-408.3" font-family="Times,serif" font-size="14.00" fill="#000000">TradeSLSBBean</text>
</g>
<!-- 140633493955024&#45;&gt;140633493957096 -->
<g id="edge62" class="edge">
<title>140633493955024&#45;&gt;140633493957096</title>
<path fill="none" stroke="#000000" d="M768.9925,-393.9118C698.3709,-363.5025 557.2141,-302.7211 492.2111,-274.7311"/>
<polygon fill="#000000" stroke="#000000" points="493.3912,-271.4286 482.8223,-270.6883 490.6228,-277.8579 493.3912,-271.4286"/>
</g>
<!-- 140633490230576 -->
<g id="node32" class="node">
<title>140633490230576</title>
<ellipse fill="none" stroke="#000000" cx="1396" cy="-332" rx="27" ry="27"/>
<text text-anchor="middle" x="1396" y="-328.3" font-family="Times,serif" font-size="14.00" fill="#000000">({&#39;TradeSLSBBean&#39;, &#39;TradeServletAction&#39;}, {&#39;AccountProfileDataBean&#39;, &#39;AccountDataBean&#39;, &#39;OrderDataBean&#39;, &#39;HoldingDataBean&#39;})</text>
</g>
<!-- 140633493955024&#45;&gt;140633490230576 -->
<g id="edge63" class="edge">
<title>140633493955024&#45;&gt;140633490230576</title>
<path fill="none" stroke="#000000" d="M829.0945,-393.8187C846.0384,-378.1393 872.8994,-356.5589 901,-347 985.5231,-318.2479 1258.6866,-326.2745 1358.7893,-330.3286"/>
<polygon fill="#000000" stroke="#000000" points="1358.8882,-333.8357 1369.0249,-330.754 1359.1789,-326.8417 1358.8882,-333.8357"/>
</g>
<!-- 140633493957600 -->
<g id="node33" class="node">
<title>140633493957600</title>
<ellipse fill="none" stroke="#000000" cx="1396" cy="-489" rx="27" ry="27"/>
<text text-anchor="middle" x="1396" y="-485.3" font-family="Times,serif" font-size="14.00" fill="#000000">({&#39;TradeSLSBBean&#39;, &#39;TradeServletAction&#39;}, {&#39;FinancialUtils&#39;, &#39;AccountProfileDataBean&#39;, &#39;AccountDataBean&#39;, &#39;QuoteDataBean&#39;, &#39;HoldingDataBean&#39;})</text>
</g>
<!-- 140633493955024&#45;&gt;140633493957600 -->
<g id="edge64" class="edge">
<title>140633493955024&#45;&gt;140633493957600</title>
<path fill="none" stroke="#000000" d="M865.2482,-419.1404C982.9007,-434.6263 1258.9703,-470.9636 1358.9898,-484.1286"/>
<polygon fill="#000000" stroke="#000000" points="1358.8345,-487.6382 1369.2057,-485.4732 1359.748,-480.6981 1358.8345,-487.6382"/>
</g>
<!-- 140633493956704 -->
<g id="node34" class="node">
<title>140633493956704</title>
<ellipse fill="none" stroke="#000000" cx="928" cy="-383" rx="27" ry="27"/>
<text text-anchor="middle" x="928" y="-379.3" font-family="Times,serif" font-size="14.00" fill="#000000">({&#39;TradeSLSBBean&#39;, &#39;TradeServletAction&#39;}, {&#39;FinancialUtils&#39;, &#39;OrderDataBean&#39;, &#39;HoldingDataBean&#39;})</text>
</g>
<!-- 140633493955024&#45;&gt;140633493956704 -->
<g id="edge65" class="edge">
<title>140633493955024&#45;&gt;140633493956704</title>
<path fill="none" stroke="#000000" d="M865.0478,-398.6035C874.0721,-396.3667 883.2385,-394.0947 891.6814,-392.002"/>
<polygon fill="#000000" stroke="#000000" points="892.6986,-395.3559 901.5628,-389.5528 891.0144,-388.5615 892.6986,-395.3559"/>
</g>
<!-- 140633493956200 -->
<g id="node18" class="node">
<title>140633493956200</title>
<polygon fill="none" stroke="#000000" points="1333,-406 1210,-406 1210,-370 1333,-370 1333,-406"/>
<text text-anchor="middle" x="1271.5" y="-384.3" font-family="Times,serif" font-size="14.00" fill="#000000">TradeServletAction</text>
</g>
<!-- 140633493956200&#45;&gt;140633490230576 -->
<g id="edge66" class="edge">
<title>140633493956200&#45;&gt;140633490230576</title>
<path fill="none" stroke="#000000" d="M1311.5779,-369.973C1327.8252,-362.665 1346.3904,-354.3144 1361.9662,-347.3084"/>
<polygon fill="#000000" stroke="#000000" points="1363.5465,-350.4354 1371.2307,-343.1412 1360.675,-344.0514 1363.5465,-350.4354"/>
</g>
<!-- 140633493956200&#45;&gt;140633493957600 -->
<g id="edge67" class="edge">
<title>140633493956200&#45;&gt;140633493957600</title>
<path fill="none" stroke="#000000" d="M1293.7581,-406.0568C1314.1901,-422.6321 1344.5902,-447.294 1366.9323,-465.419"/>
<polygon fill="#000000" stroke="#000000" points="1364.7947,-468.1917 1374.7656,-471.7737 1369.2047,-462.7556 1364.7947,-468.1917"/>
</g>
<!-- 140633493956200&#45;&gt;140633493956704 -->
<g id="edge68" class="edge">
<title>140633493956200&#45;&gt;140633493956704</title>
<path fill="none" stroke="#000000" d="M1209.983,-387.1046C1138.9692,-386.0709 1024.4148,-384.4034 965.5593,-383.5467"/>
<polygon fill="#000000" stroke="#000000" points="965.2909,-380.0425 955.241,-383.3965 965.189,-387.0418 965.2909,-380.0425"/>
</g>
<!-- 140633493957768 -->
<g id="node19" class="node">
<title>140633493957768</title>
<polygon fill="none" stroke="#000000" points="367.5,-1042 275.5,-1042 275.5,-1006 367.5,-1006 367.5,-1042"/>
<text text-anchor="middle" x="321.5" y="-1020.3" font-family="Times,serif" font-size="14.00" fill="#000000">artificial_start</text>
</g>
<!-- 140633493957768&#45;&gt;140633490415232 -->
<g id="edge69" class="edge">
<title>140633493957768&#45;&gt;140633490415232</title>
<path fill="none" stroke="#000000" d="M367.7127,-1008.7651C385.5185,-1002.895 405.5661,-996.2859 422.2395,-990.7892"/>
<polygon fill="#000000" stroke="#000000" points="423.7334,-993.982 432.1348,-987.527 421.5417,-987.334 423.7334,-993.982"/>
</g>
<!-- 140633493954856 -->
<g id="node20" class="node">
<title>140633493954856</title>
<ellipse fill="#00ff00" stroke="#000000" cx="185" cy="-1015" rx="27" ry="27"/>
<text text-anchor="middle" x="185" y="-1011.3" font-family="Times,serif" font-size="14.00" fill="#000000">1</text>
</g>
<!-- 140633493954856&#45;&gt;140633493957768 -->
<g id="edge70" class="edge">
<title>140633493954856&#45;&gt;140633493957768</title>
<path fill="none" stroke="#000000" d="M211.968,-1016.7781C227.2425,-1017.7852 246.9359,-1019.0837 265.4026,-1020.3013"/>
<polygon fill="#000000" stroke="#000000" points="265.2913,-1023.8014 275.4999,-1020.967 265.7519,-1016.8166 265.2913,-1023.8014"/>
</g>
<!-- 140633490230296&#45;&gt;140633493955416 -->
<g id="edge1" class="edge">
<title>140633490230296&#45;&gt;140633493955416</title>
<path fill="none" stroke="#000000" d="M210.9959,-301.3822C223.9995,-297.5716 240.377,-292.7723 256.5109,-288.0444"/>
<polygon fill="#000000" stroke="#000000" points="257.8805,-291.2903 266.4927,-285.1194 255.912,-284.5728 257.8805,-291.2903"/>
</g>
<!-- 140633490230296&#45;&gt;140633493955024 -->
<g id="edge2" class="edge">
<title>140633490230296&#45;&gt;140633493955024</title>
<path fill="none" stroke="#000000" d="M207.6377,-323.9771C253.0729,-352.5439 359.4722,-412 458,-412 458,-412 458,-412 576,-412 633.7747,-412 699.539,-412 746.7755,-412"/>
<polygon fill="#000000" stroke="#000000" points="746.8638,-415.5001 756.8637,-412 746.8637,-408.5001 746.8638,-415.5001"/>
</g>
<!-- 140633490414672&#45;&gt;140633493955864 -->
<g id="edge3" class="edge">
<title>140633490414672&#45;&gt;140633493955864</title>
<path fill="none" stroke="#000000" d="M210.6746,-932.6522C224.1672,-937.1992 241.356,-942.9918 258.1474,-948.6504"/>
<polygon fill="#000000" stroke="#000000" points="257.363,-952.0794 267.9571,-951.9562 259.5985,-945.4459 257.363,-952.0794"/>
</g>
<!-- 140633490414672&#45;&gt;140633493956088 -->
<g id="edge4" class="edge">
<title>140633490414672&#45;&gt;140633493956088</title>
<path fill="none" stroke="#000000" d="M200.9871,-902.0605C213.0982,-886.0651 230.5763,-864.2619 248,-847 260.3008,-834.8134 274.991,-822.6206 287.9934,-812.509"/>
<polygon fill="#000000" stroke="#000000" points="290.4399,-815.044 296.2521,-806.1857 286.1844,-809.486 290.4399,-815.044"/>
</g>
<!-- 140633490414672&#45;&gt;140633493955472 -->
<g id="edge5" class="edge">
<title>140633490414672&#45;&gt;140633493955472</title>
<path fill="none" stroke="#000000" d="M210.3547,-914.7126C226.7202,-908.7179 248.6194,-900.6962 268.6512,-893.3585"/>
<polygon fill="#000000" stroke="#000000" points="270.1165,-896.5493 278.3025,-889.8233 267.7088,-889.9764 270.1165,-896.5493"/>
</g>
<!-- 140633490414000&#45;&gt;140633493955024 -->
<g id="edge6" class="edge">
<title>140633490414000&#45;&gt;140633493955024</title>
<path fill="none" stroke="#000000" d="M718.527,-455.4702C731.5119,-449.3662 747.9142,-441.6557 763.2871,-434.4292"/>
<polygon fill="#000000" stroke="#000000" points="765.1251,-437.4326 772.686,-430.0108 762.1471,-431.0977 765.1251,-437.4326"/>
</g>
<!-- 140633490414000&#45;&gt;140633493956200 -->
<g id="edge7" class="edge">
<title>140633490414000&#45;&gt;140633493956200</title>
<path fill="none" stroke="#000000" d="M721.0794,-463.2956C806.2975,-451.6381 1070.941,-415.4358 1199.6931,-397.8229"/>
<polygon fill="#000000" stroke="#000000" points="1200.4148,-401.2569 1209.8481,-396.4338 1199.466,-394.3215 1200.4148,-401.2569"/>
</g>
<!-- 140633490413720&#45;&gt;140633493955024 -->
<g id="edge8" class="edge">
<title>140633490413720&#45;&gt;140633493955024</title>
<path fill="none" stroke="#000000" d="M1119.9966,-564.9352C1088.2557,-564.0948 1034.4053,-560.2579 991,-545 927.2008,-522.5732 866.9517,-469.1653 834.915,-437.2687"/>
<polygon fill="#000000" stroke="#000000" points="837.2865,-434.6892 827.7666,-430.0392 832.3089,-439.611 837.2865,-434.6892"/>
</g>
<!-- 140633490413720&#45;&gt;140633493956200 -->
<g id="edge9" class="edge">
<title>140633490413720&#45;&gt;140633493956200</title>
<path fill="none" stroke="#000000" d="M1152.7793,-538.4568C1160.8389,-506.8706 1178.1795,-454.1263 1210,-420 1212.7382,-417.0634 1215.807,-414.3488 1219.0739,-411.8481"/>
<polygon fill="#000000" stroke="#000000" points="1221.2475,-414.6019 1227.5268,-406.0683 1217.2965,-408.8235 1221.2475,-414.6019"/>
</g>
<!-- 140633493958496&#45;&gt;140633493955472 -->
<g id="edge10" class="edge">
<title>140633493958496&#45;&gt;140633493955472</title>
<path fill="none" stroke="#000000" d="M667.2231,-836.5386C619.3637,-829.3703 516.18,-817.5759 431,-833 409.9823,-836.8058 387.7431,-844.4097 368.8372,-852.0464"/>
<polygon fill="#000000" stroke="#000000" points="367.4528,-848.8315 359.5622,-855.9018 370.1397,-855.2953 367.4528,-848.8315"/>
</g>
<!-- 140633493958104&#45;&gt;140633493955584 -->
<g id="edge11" class="edge">
<title>140633493958104&#45;&gt;140633493955584</title>
<path fill="none" stroke="#000000" d="M212.2947,-1189.2002C230.4808,-1188.6672 254.8232,-1187.9539 275.9102,-1187.336"/>
<polygon fill="#000000" stroke="#000000" points="276.066,-1190.833 285.9592,-1187.0415 275.8609,-1183.836 276.066,-1190.833"/>
</g>
<!-- 140633493957208&#45;&gt;140633493955192 -->
<g id="edge12" class="edge">
<title>140633493957208&#45;&gt;140633493955192</title>
<path fill="none" stroke="#000000" d="M1701.1689,-244C1708.9798,-244 1717.7781,-244 1726.5826,-244"/>
<polygon fill="#000000" stroke="#000000" points="1726.8624,-247.5001 1736.8623,-244 1726.8623,-240.5001 1726.8624,-247.5001"/>
</g>
<!-- 140633493957936&#45;&gt;140633493955360 -->
<g id="edge13" class="edge">
<title>140633493957936&#45;&gt;140633493955360</title>
<path fill="none" stroke="#000000" d="M430.6908,-1160.0335C377.9632,-1156.5112 258.4715,-1149.8639 158,-1154 141.7961,-1154.6671 124.1082,-1155.9584 108.3266,-1157.3122"/>
<polygon fill="#000000" stroke="#000000" points="107.9174,-1153.8346 98.2659,-1158.2049 108.5361,-1160.8072 107.9174,-1153.8346"/>
</g>
<!-- 140633493957376&#45;&gt;140633493955696 -->
<g id="edge14" class="edge">
<title>140633493957376&#45;&gt;140633493955696</title>
<path fill="none" stroke="#000000" d="M1876.5607,-217.8877C1854.3997,-154.9424 1788.2466,0 1674,0 321.5,0 321.5,0 321.5,0 243.1362,0 219.3796,-17.2821 158,-66 119.7093,-96.3919 90.1103,-145.8272 74.1494,-176.547"/>
<polygon fill="#000000" stroke="#000000" points="70.8509,-175.3133 69.4528,-185.8155 77.095,-178.4774 70.8509,-175.3133"/>
</g>
<!-- 140633493957376&#45;&gt;140633493955808 -->
<g id="edge15" class="edge">
<title>140633493957376&#45;&gt;140633493955808</title>
<path fill="none" stroke="#000000" d="M1867.159,-264.6935C1826.257,-310.9739 1720.7616,-423.88 1611,-489 1606.2583,-491.8132 1601.1773,-494.3997 1595.9735,-496.7628"/>
<polygon fill="#000000" stroke="#000000" points="1594.3581,-493.6462 1586.5209,-500.7757 1597.0935,-500.0896 1594.3581,-493.6462"/>
</g>
<!-- 140633493958384&#45;&gt;140633493955920 -->
<g id="edge16" class="edge">
<title>140633493958384&#45;&gt;140633493955920</title>
<path fill="none" stroke="#000000" d="M485.0716,-868.0823C500.8489,-867.5475 520.9852,-866.8649 538.2964,-866.2781"/>
<polygon fill="#000000" stroke="#000000" points="538.7701,-869.7641 548.6458,-865.9273 538.5329,-862.7682 538.7701,-869.7641"/>
</g>
<!-- 140633493957096&#45;&gt;140633493955696 -->
<g id="edge17" class="edge">
<title>140633493957096&#45;&gt;140633493955696</title>
<path fill="none" stroke="#000000" d="M432.1816,-251.5817C420.8743,-248.1667 407.3852,-244.4564 395,-242 303.9324,-223.9383 197.0689,-213.6502 129.2082,-208.4491"/>
<polygon fill="#000000" stroke="#000000" points="129.3072,-204.9468 119.0731,-207.688 128.7829,-211.9271 129.3072,-204.9468"/>
</g>
<!-- 140633493957096&#45;&gt;140633493955248 -->
<g id="edge18" class="edge">
<title>140633493957096&#45;&gt;140633493955248</title>
<path fill="none" stroke="#000000" d="M485.2447,-258.4764C529.1681,-256.1553 618.3628,-252 694,-252 694,-252 694,-252 811,-252 960.4629,-252 997.5371,-266 1147,-266 1147,-266 1147,-266 1271.5,-266 1340.1408,-266 1365.8254,-258.0181 1423,-296 1474.4374,-330.1706 1508.4153,-396.8405 1524.3987,-434.4592"/>
<polygon fill="#000000" stroke="#000000" points="1521.2042,-435.8937 1528.2521,-443.8043 1527.6757,-433.2252 1521.2042,-435.8937"/>
</g>
<!-- 140633493957096&#45;&gt;140633493955304 -->
<g id="edge19" class="edge">
<title>140633493957096&#45;&gt;140633493955304</title>
<path fill="none" stroke="#000000" d="M478.9622,-242.8871C518.4598,-212.434 607.7126,-152 694,-152 694,-152 694,-152 928,-152 1149.2575,-152 1204.8408,-168.1023 1423,-205 1437.5507,-207.461 1453.0958,-210.4323 1467.8305,-213.41"/>
<polygon fill="#000000" stroke="#000000" points="1467.3812,-216.8905 1477.8799,-215.4664 1468.7845,-210.0326 1467.3812,-216.8905"/>
</g>
<!-- 140633493957096&#45;&gt;140633493956144 -->
<g id="edge20" class="edge">
<title>140633493957096&#45;&gt;140633493956144</title>
<path fill="none" stroke="#000000" d="M473.6672,-282.146C485.4888,-297.8436 502.7466,-318.7426 521,-334 524.4792,-336.9081 528.2566,-339.7064 532.1473,-342.3552"/>
<polygon fill="#000000" stroke="#000000" points="530.4689,-345.437 540.7735,-347.8999 534.2539,-339.5485 530.4689,-345.437"/>
</g>
<!-- 140633490230576&#45;&gt;140633493955696 -->
<g id="edge21" class="edge">
<title>140633490230576&#45;&gt;140633493955696</title>
<path fill="none" stroke="#000000" d="M1375.2329,-314.1601C1312.4186,-262.0954 1117.1245,-114 928,-114 321.5,-114 321.5,-114 321.5,-114 239.5179,-114 150.5863,-154.3143 100.7304,-180.9798"/>
<polygon fill="#000000" stroke="#000000" points="99.0007,-177.9362 91.8864,-185.7872 102.3438,-184.0864 99.0007,-177.9362"/>
</g>
<!-- 140633490230576&#45;&gt;140633493955248 -->
<g id="edge22" class="edge">
<title>140633490230576&#45;&gt;140633493955248</title>
<path fill="none" stroke="#000000" d="M1415.9153,-350.6258C1440.1018,-373.2463 1481.0057,-411.5017 1508.0089,-436.7565"/>
<polygon fill="#000000" stroke="#000000" points="1505.8755,-439.5534 1515.5698,-443.8279 1510.6569,-434.4409 1505.8755,-439.5534"/>
</g>
<!-- 140633490230576&#45;&gt;140633493955304 -->
<g id="edge23" class="edge">
<title>140633490230576&#45;&gt;140633493955304</title>
<path fill="none" stroke="#000000" d="M1417.7188,-315.75C1440.4552,-298.7385 1476.415,-271.8334 1502.5265,-252.2967"/>
<polygon fill="#000000" stroke="#000000" points="1504.7188,-255.0277 1510.629,-246.2344 1500.5253,-249.4228 1504.7188,-255.0277"/>
</g>
<!-- 140633490230576&#45;&gt;140633493956144 -->
<g id="edge24" class="edge">
<title>140633490230576&#45;&gt;140633493956144</title>
<path fill="none" stroke="#000000" d="M1369.1116,-327.302C1357.9748,-325.5799 1344.9024,-323.8459 1333,-323 1238.5715,-316.2892 1214.666,-322.6331 1120,-323 1062.6654,-323.2222 1048.2524,-320.922 991,-324 864.6164,-330.7946 717.3695,-347.8878 636.654,-358.0507"/>
<polygon fill="#000000" stroke="#000000" points="636.1503,-354.5864 626.6693,-359.3153 637.0299,-361.5309 636.1503,-354.5864"/>
</g>
<!-- 140633493957600&#45;&gt;140633493955696 -->
<g id="edge25" class="edge">
<title>140633493957600&#45;&gt;140633493955696</title>
<path fill="none" stroke="#000000" d="M1373.4279,-503.9477C1297.548,-552.7049 1043.369,-704 811,-704 321.5,-704 321.5,-704 321.5,-704 237.0073,-704 204.8064,-677.3433 158,-607 116.1276,-544.0717 77.6594,-313.0584 65.2034,-232.1871"/>
<polygon fill="#000000" stroke="#000000" points="68.6528,-231.589 63.685,-222.231 61.7328,-232.6445 68.6528,-231.589"/>
</g>
<!-- 140633493957600&#45;&gt;140633493955248 -->
<g id="edge26" class="edge">
<title>140633493957600&#45;&gt;140633493955248</title>
<path fill="none" stroke="#000000" d="M1422.8006,-483.7941C1430.5879,-482.2815 1439.543,-480.542 1448.926,-478.7194"/>
<polygon fill="#000000" stroke="#000000" points="1449.679,-482.1387 1458.8281,-476.796 1448.3442,-475.2671 1449.679,-482.1387"/>
</g>
<!-- 140633493957600&#45;&gt;140633493954968 -->
<g id="edge27" class="edge">
<title>140633493957600&#45;&gt;140633493954968</title>
<path fill="none" stroke="#000000" d="M1369.0777,-491.1778C1310.9344,-495.8812 1172.5591,-507.0747 1094.1815,-513.4149"/>
<polygon fill="#000000" stroke="#000000" points="1093.6853,-509.9435 1084.0001,-514.2385 1094.2498,-516.9207 1093.6853,-509.9435"/>
</g>
<!-- 140633493957600&#45;&gt;140633493955304 -->
<g id="edge28" class="edge">
<title>140633493957600&#45;&gt;140633493955304</title>
<path fill="none" stroke="#000000" d="M1411.3137,-466.7278C1415.2577,-460.7311 1419.4017,-454.1892 1423,-448 1462.2875,-380.4248 1502.4412,-297.4746 1522.2869,-255.3533"/>
<polygon fill="#000000" stroke="#000000" points="1525.578,-256.5787 1526.6574,-246.039 1519.2409,-253.6051 1525.578,-256.5787"/>
</g>
<!-- 140633493957600&#45;&gt;140633493955808 -->
<g id="edge29" class="edge">
<title>140633493957600&#45;&gt;140633493955808</title>
<path fill="none" stroke="#000000" d="M1422.8006,-494.2059C1437.1112,-496.9856 1455.3652,-500.5314 1472.972,-503.9514"/>
<polygon fill="#000000" stroke="#000000" points="1472.7452,-507.4727 1483.2292,-505.9438 1474.0801,-500.6011 1472.7452,-507.4727"/>
</g>
<!-- 140633493956704&#45;&gt;140633493954968 -->
<g id="edge30" class="edge">
<title>140633493956704&#45;&gt;140633493954968</title>
<path fill="none" stroke="#000000" d="M945.1094,-404.0938C964.3231,-427.7819 995.524,-466.2488 1016.2762,-491.8337"/>
<polygon fill="#000000" stroke="#000000" points="1013.6007,-494.0912 1022.6184,-499.6528 1019.0372,-489.6816 1013.6007,-494.0912"/>
</g>
<!-- 140633493956704&#45;&gt;140633493955304 -->
<g id="edge31" class="edge">
<title>140633493956704&#45;&gt;140633493955304</title>
<path fill="none" stroke="#000000" d="M943.9057,-360.7923C976.646,-317.9334 1056.1686,-228 1147,-228 1147,-228 1147,-228 1271.5,-228 1338.1899,-228 1414.374,-228 1467.6129,-228"/>
<polygon fill="#000000" stroke="#000000" points="1467.9451,-231.5001 1477.9451,-228 1467.9451,-224.5001 1467.9451,-231.5001"/>
</g>
<!-- 140633493956704&#45;&gt;140633493956144 -->
<g id="edge32" class="edge">
<title>140633493956704&#45;&gt;140633493956144</title>
<path fill="none" stroke="#000000" d="M900.6806,-381.6806C844.3759,-378.9613 714.2283,-372.6758 636.8936,-368.9409"/>
<polygon fill="#000000" stroke="#000000" points="636.9651,-365.4404 626.8079,-368.4538 636.6274,-372.4322 636.9651,-365.4404"/>
</g>
<!-- 140633490415232&#45;&gt;140633493955752 -->
<g id="edge33" class="edge">
<title>140633490415232&#45;&gt;140633493955752</title>
<path fill="none" stroke="#000000" d="M444.8822,-1002.61C433.9914,-1019.5709 416.7804,-1041.1168 395,-1051 310.9267,-1089.1498 202.2794,-1076.7664 132.1187,-1061.941"/>
<polygon fill="#000000" stroke="#000000" points="132.5705,-1058.4572 122.0538,-1059.7417 131.0761,-1065.2959 132.5705,-1058.4572"/>
</g>
<!-- 140633490415232&#45;&gt;140633493956032 -->
<g id="edge34" class="edge">
<title>140633490415232&#45;&gt;140633493956032</title>
<path fill="none" stroke="#000000" d="M484.4815,-972.7163C492.4497,-970.8255 501.5687,-968.6617 510.8933,-966.4491"/>
<polygon fill="#000000" stroke="#000000" points="511.7236,-969.8493 520.6454,-964.135 510.1074,-963.0384 511.7236,-969.8493"/>
</g>
</g>
</svg>
