<?xml version="1.0" encoding="UTF-8" standalone="no"?>
<!DOCTYPE svg PUBLIC "-//W3C//DTD SVG 1.1//EN"
 "http://www.w3.org/Graphics/SVG/1.1/DTD/svg11.dtd">
<!-- Generated by graphviz version 2.40.1 (20161225.0304)
 -->
<!-- Title: alpha_classic_net_1586496250.7165127 Pages: 1 -->
<svg width="706pt" height="440pt"
 viewBox="0.00 0.00 706.00 440.00" xmlns="http://www.w3.org/2000/svg" xmlns:xlink="http://www.w3.org/1999/xlink">
<g id="graph0" class="graph" transform="scale(1 1) rotate(0) translate(4 436)">
<title>alpha_classic_net_1586496250.7165127</title>
<!-- 139748203951384 -->
<g id="node1" class="node">
<title>139748203951384</title>
<polygon fill="none" stroke="#000000" points="128.5,-36 35.5,-36 35.5,0 128.5,0 128.5,-36"/>
<text text-anchor="middle" x="82" y="-14.3" font-family="Times,serif" font-size="14.00" fill="#000000">FinancialUtils</text>
</g>
<!-- 139748205241232 -->
<g id="node2" class="node">
<title>139748205241232</title>
<polygon fill="none" stroke="#000000" points="109,-90 55,-90 55,-54 109,-54 109,-90"/>
<text text-anchor="middle" x="82" y="-68.3" font-family="Times,serif" font-size="14.00" fill="#000000">Log</text>
</g>
<!-- 139748203951720 -->
<g id="node3" class="node">
<title>139748203951720</title>
<polygon fill="none" stroke="#000000" points="164,-144 0,-144 0,-108 164,-108 164,-144"/>
<text text-anchor="middle" x="82" y="-122.3" font-family="Times,serif" font-size="14.00" fill="#000000">MarketSummaryDataBean</text>
</g>
<!-- 139748203950824 -->
<g id="node4" class="node">
<title>139748203950824</title>
<polygon fill="none" stroke="#000000" points="395,-234 233,-234 233,-198 395,-198 395,-234"/>
<text text-anchor="middle" x="314" y="-212.3" font-family="Times,serif" font-size="14.00" fill="#000000">MarketSummarySingleton</text>
</g>
<!-- 139748203951160 -->
<g id="node5" class="node">
<title>139748203951160</title>
<polygon fill="none" stroke="#000000" points="128,-270 36,-270 36,-234 128,-234 128,-270"/>
<text text-anchor="middle" x="82" y="-248.3" font-family="Times,serif" font-size="14.00" fill="#000000">PingCDIBean</text>
</g>
<!-- 139748203953232 -->
<g id="node6" class="node">
<title>139748203953232</title>
<polygon fill="none" stroke="#000000" points="132.5,-324 31.5,-324 31.5,-288 132.5,-288 132.5,-324"/>
<text text-anchor="middle" x="82" y="-302.3" font-family="Times,serif" font-size="14.00" fill="#000000">PingInterceptor</text>
</g>
<!-- 139748203950264 -->
<g id="node7" class="node">
<title>139748203950264</title>
<polygon fill="none" stroke="#000000" points="428,-180 200,-180 200,-144 428,-144 428,-180"/>
<text text-anchor="middle" x="314" y="-158.3" font-family="Times,serif" font-size="14.00" fill="#000000">PingServletCDIBeanManagerViaJNDI</text>
</g>
<!-- 139748203950208 -->
<g id="node12" class="node">
<title>139748203950208</title>
<ellipse fill="none" stroke="#000000" cx="491" cy="-162" rx="27" ry="27"/>
<text text-anchor="middle" x="491" y="-158.3" font-family="Times,serif" font-size="14.00" fill="#000000">({&#39;PingServletCDIBeanManagerViaJNDI&#39;}, {&#39;Root&#39;})</text>
</g>
<!-- 139748203950264&#45;&gt;139748203950208 -->
<g id="edge2" class="edge">
<title>139748203950264&#45;&gt;139748203950208</title>
<path fill="none" stroke="#000000" d="M428.098,-162C437.2038,-162 445.914,-162 453.7953,-162"/>
<polygon fill="#000000" stroke="#000000" points="453.9881,-165.5001 463.9881,-162 453.9881,-158.5001 453.9881,-165.5001"/>
</g>
<!-- 139748203952616 -->
<g id="node8" class="node">
<title>139748203952616</title>
<polygon fill="none" stroke="#000000" points="133.5,-378 30.5,-378 30.5,-342 133.5,-342 133.5,-378"/>
<text text-anchor="middle" x="82" y="-356.3" font-family="Times,serif" font-size="14.00" fill="#000000">QuoteDataBean</text>
</g>
<!-- 139748203950432 -->
<g id="node9" class="node">
<title>139748203950432</title>
<polygon fill="none" stroke="#000000" points="608,-180 554,-180 554,-144 608,-144 608,-180"/>
<text text-anchor="middle" x="581" y="-158.3" font-family="Times,serif" font-size="14.00" fill="#000000">Root</text>
</g>
<!-- 139748203953904 -->
<g id="node13" class="node">
<title>139748203953904</title>
<ellipse fill="#ffa500" stroke="#000000" cx="671" cy="-162" rx="27" ry="27"/>
</g>
<!-- 139748203950432&#45;&gt;139748203953904 -->
<g id="edge3" class="edge">
<title>139748203950432&#45;&gt;139748203953904</title>
<path fill="none" stroke="#000000" d="M608.003,-162C616.0277,-162 624.9665,-162 633.5309,-162"/>
<polygon fill="#000000" stroke="#000000" points="633.7051,-165.5001 643.705,-162 633.705,-158.5001 633.7051,-165.5001"/>
</g>
<!-- 139748203950600 -->
<g id="node10" class="node">
<title>139748203950600</title>
<polygon fill="none" stroke="#000000" points="125,-432 39,-432 39,-396 125,-396 125,-432"/>
<text text-anchor="middle" x="82" y="-410.3" font-family="Times,serif" font-size="14.00" fill="#000000">TradeConfig</text>
</g>
<!-- 139748203953456 -->
<g id="node11" class="node">
<title>139748203953456</title>
<ellipse fill="#00ff00" stroke="#000000" cx="82" cy="-189" rx="27" ry="27"/>
<text text-anchor="middle" x="82" y="-185.3" font-family="Times,serif" font-size="14.00" fill="#000000">1</text>
</g>
<!-- 139748203953456&#45;&gt;139748203950824 -->
<g id="edge4" class="edge">
<title>139748203953456&#45;&gt;139748203950824</title>
<path fill="none" stroke="#000000" d="M109.0674,-192.1501C137.0048,-195.4014 182.1419,-200.6544 222.9533,-205.404"/>
<polygon fill="#000000" stroke="#000000" points="222.6104,-208.8877 232.948,-206.5672 223.4197,-201.9346 222.6104,-208.8877"/>
</g>
<!-- 139748203953456&#45;&gt;139748203950264 -->
<g id="edge5" class="edge">
<title>139748203953456&#45;&gt;139748203950264</title>
<path fill="none" stroke="#000000" d="M109.0674,-185.8499C129.4714,-183.4753 159.0499,-180.033 189.4171,-176.4989"/>
<polygon fill="#000000" stroke="#000000" points="190.2053,-179.9308 199.7337,-175.2982 189.3961,-172.9778 190.2053,-179.9308"/>
</g>
<!-- 139748203950208&#45;&gt;139748203950432 -->
<g id="edge1" class="edge">
<title>139748203950208&#45;&gt;139748203950432</title>
<path fill="none" stroke="#000000" d="M518.003,-162C526.0277,-162 534.9665,-162 543.5309,-162"/>
<polygon fill="#000000" stroke="#000000" points="543.7051,-165.5001 553.705,-162 543.705,-158.5001 543.7051,-165.5001"/>
</g>
</g>
</svg>
