<?xml version="1.0" encoding="UTF-8" standalone="no"?>
<!DOCTYPE svg PUBLIC "-//W3C//DTD SVG 1.1//EN"
 "http://www.w3.org/Graphics/SVG/1.1/DTD/svg11.dtd">
<!-- Generated by graphviz version 2.40.1 (20161225.0304)
 -->
<!-- Title: alpha_plus_net_1586496250.753104 Pages: 1 -->
<svg width="706pt" height="728pt"
 viewBox="0.00 0.00 706.00 728.00" xmlns="http://www.w3.org/2000/svg" xmlns:xlink="http://www.w3.org/1999/xlink">
<g id="graph0" class="graph" transform="scale(1 1) rotate(0) translate(4 724)">
<title>alpha_plus_net_1586496250.753104</title>
<!-- 139748203951272 -->
<g id="node1" class="node">
<title>139748203951272</title>
<polygon fill="none" stroke="#000000" points="360.5,-99 267.5,-99 267.5,-63 360.5,-63 360.5,-99"/>
<text text-anchor="middle" x="314" y="-77.3" font-family="Times,serif" font-size="14.00" fill="#000000">FinancialUtils</text>
</g>
<!-- 139748203950544 -->
<g id="node12" class="node">
<title>139748203950544</title>
<ellipse fill="none" stroke="#000000" cx="491" cy="-54" rx="27" ry="27"/>
<text text-anchor="middle" x="491" y="-50.3" font-family="Times,serif" font-size="14.00" fill="#000000">({&#39;PingServletCDIBeanManagerViaJNDI&#39;, &#39;FinancialUtils&#39;}, {&#39;Root&#39;})</text>
</g>
<!-- 139748203951272&#45;&gt;139748203950544 -->
<g id="edge9" class="edge">
<title>139748203951272&#45;&gt;139748203950544</title>
<path fill="none" stroke="#000000" d="M360.5047,-73.9061C389.8405,-69.4311 427.1906,-63.7336 454.4089,-59.5817"/>
<polygon fill="#000000" stroke="#000000" points="454.9488,-63.0399 464.3067,-58.0719 453.8932,-56.12 454.9488,-63.0399"/>
</g>
<!-- 139748203952504 -->
<g id="node2" class="node">
<title>139748203952504</title>
<polygon fill="none" stroke="#000000" points="109,-234 55,-234 55,-198 109,-198 109,-234"/>
<text text-anchor="middle" x="82" y="-212.3" font-family="Times,serif" font-size="14.00" fill="#000000">Log</text>
</g>
<!-- 139748203909976 -->
<g id="node14" class="node">
<title>139748203909976</title>
<ellipse fill="none" stroke="#000000" cx="314" cy="-288" rx="27" ry="27"/>
<text text-anchor="middle" x="314" y="-284.3" font-family="Times,serif" font-size="14.00" fill="#000000">139748203909976</text>
</g>
<!-- 139748203952504&#45;&gt;139748203909976 -->
<g id="edge10" class="edge">
<title>139748203952504&#45;&gt;139748203909976</title>
<path fill="none" stroke="#000000" d="M109.0674,-219.8759C151.495,-230.223 233.5907,-255.5608 279.9612,-272.4914"/>
<polygon fill="#000000" stroke="#000000" points="278.9691,-275.8569 289.5618,-276.0733 281.416,-269.2985 278.9691,-275.8569"/>
</g>
<!-- 139748203909248 -->
<g id="node16" class="node">
<title>139748203909248</title>
<ellipse fill="none" stroke="#000000" cx="314" cy="-216" rx="27" ry="27"/>
<text text-anchor="middle" x="314" y="-212.3" font-family="Times,serif" font-size="14.00" fill="#000000">139748203909248</text>
</g>
<!-- 139748203952504&#45;&gt;139748203909248 -->
<g id="edge11" class="edge">
<title>139748203952504&#45;&gt;139748203909248</title>
<path fill="none" stroke="#000000" d="M109.0674,-211.4757C150.6281,-208.7132 230.2527,-208.5223 277.075,-210.9029"/>
<polygon fill="#000000" stroke="#000000" points="276.9184,-214.3996 287.105,-211.4871 277.3255,-207.4114 276.9184,-214.3996"/>
</g>
<!-- 139748203953624 -->
<g id="node18" class="node">
<title>139748203953624</title>
<ellipse fill="none" stroke="#000000" cx="314" cy="-144" rx="27" ry="27"/>
<text text-anchor="middle" x="314" y="-140.3" font-family="Times,serif" font-size="14.00" fill="#000000">139748203953624</text>
</g>
<!-- 139748203952504&#45;&gt;139748203953624 -->
<g id="edge12" class="edge">
<title>139748203952504&#45;&gt;139748203953624</title>
<path fill="none" stroke="#000000" d="M109.0674,-203.0754C150.7155,-187.3819 230.5875,-162.4081 277.3697,-150.286"/>
<polygon fill="#000000" stroke="#000000" points="278.2628,-153.6704 287.105,-147.8339 276.553,-146.8824 278.2628,-153.6704"/>
</g>
<!-- 139748203951944 -->
<g id="node3" class="node">
<title>139748203951944</title>
<polygon fill="none" stroke="#000000" points="164,-450 0,-450 0,-414 164,-414 164,-450"/>
<text text-anchor="middle" x="82" y="-428.3" font-family="Times,serif" font-size="14.00" fill="#000000">MarketSummaryDataBean</text>
</g>
<!-- 139748203910760 -->
<g id="node15" class="node">
<title>139748203910760</title>
<ellipse fill="none" stroke="#000000" cx="314" cy="-504" rx="27" ry="27"/>
<text text-anchor="middle" x="314" y="-500.3" font-family="Times,serif" font-size="14.00" fill="#000000">139748203910760</text>
</g>
<!-- 139748203951944&#45;&gt;139748203910760 -->
<g id="edge13" class="edge">
<title>139748203951944&#45;&gt;139748203910760</title>
<path fill="none" stroke="#000000" d="M160.8683,-450.0436C201.5253,-461.9437 248.9854,-477.1725 280.1667,-488.5665"/>
<polygon fill="#000000" stroke="#000000" points="279.0967,-491.9029 289.6893,-492.1221 281.5453,-485.3452 279.0967,-491.9029"/>
</g>
<!-- 139748203911936 -->
<g id="node17" class="node">
<title>139748203911936</title>
<ellipse fill="none" stroke="#000000" cx="314" cy="-432" rx="27" ry="27"/>
<text text-anchor="middle" x="314" y="-428.3" font-family="Times,serif" font-size="14.00" fill="#000000">139748203911936</text>
</g>
<!-- 139748203951944&#45;&gt;139748203911936 -->
<g id="edge14" class="edge">
<title>139748203951944&#45;&gt;139748203911936</title>
<path fill="none" stroke="#000000" d="M164.121,-425.5127C202.7163,-424.898 246.7965,-425.362 277.1103,-426.9047"/>
<polygon fill="#000000" stroke="#000000" points="277.0399,-430.4064 287.2269,-427.4953 277.4479,-423.4183 277.0399,-430.4064"/>
</g>
<!-- 139748203910928 -->
<g id="node19" class="node">
<title>139748203910928</title>
<ellipse fill="none" stroke="#000000" cx="314" cy="-360" rx="27" ry="27"/>
<text text-anchor="middle" x="314" y="-356.3" font-family="Times,serif" font-size="14.00" fill="#000000">139748203910928</text>
</g>
<!-- 139748203951944&#45;&gt;139748203910928 -->
<g id="edge15" class="edge">
<title>139748203951944&#45;&gt;139748203910928</title>
<path fill="none" stroke="#000000" d="M123.2096,-413.9071C166.8755,-398.3598 235.1896,-377.2286 277.1312,-366.3478"/>
<polygon fill="#000000" stroke="#000000" points="278.0988,-369.7134 286.9393,-363.8743 276.387,-362.926 278.0988,-369.7134"/>
</g>
<!-- 139748203950880 -->
<g id="node4" class="node">
<title>139748203950880</title>
<polygon fill="none" stroke="#000000" points="163,-504 1,-504 1,-468 163,-468 163,-504"/>
<text text-anchor="middle" x="82" y="-482.3" font-family="Times,serif" font-size="14.00" fill="#000000">MarketSummarySingleton</text>
</g>
<!-- 139748203950152 -->
<g id="node5" class="node">
<title>139748203950152</title>
<polygon fill="none" stroke="#000000" points="128,-558 36,-558 36,-522 128,-522 128,-558"/>
<text text-anchor="middle" x="82" y="-536.3" font-family="Times,serif" font-size="14.00" fill="#000000">PingCDIBean</text>
</g>
<!-- 139748203953736 -->
<g id="node6" class="node">
<title>139748203953736</title>
<polygon fill="none" stroke="#000000" points="132.5,-612 31.5,-612 31.5,-576 132.5,-576 132.5,-612"/>
<text text-anchor="middle" x="82" y="-590.3" font-family="Times,serif" font-size="14.00" fill="#000000">PingInterceptor</text>
</g>
<!-- 139748203953176 -->
<g id="node7" class="node">
<title>139748203953176</title>
<polygon fill="none" stroke="#000000" points="428,-45 200,-45 200,-9 428,-9 428,-45"/>
<text text-anchor="middle" x="314" y="-23.3" font-family="Times,serif" font-size="14.00" fill="#000000">PingServletCDIBeanManagerViaJNDI</text>
</g>
<!-- 139748203953176&#45;&gt;139748203950544 -->
<g id="edge16" class="edge">
<title>139748203953176&#45;&gt;139748203950544</title>
<path fill="none" stroke="#000000" d="M428.098,-44.4048C437.4003,-45.8238 446.2898,-47.1798 454.3044,-48.4024"/>
<polygon fill="#000000" stroke="#000000" points="453.8842,-51.8787 464.2977,-49.9268 454.9398,-44.9587 453.8842,-51.8787"/>
</g>
<!-- 139748203950768 -->
<g id="node8" class="node">
<title>139748203950768</title>
<polygon fill="none" stroke="#000000" points="133.5,-666 30.5,-666 30.5,-630 133.5,-630 133.5,-666"/>
<text text-anchor="middle" x="82" y="-644.3" font-family="Times,serif" font-size="14.00" fill="#000000">QuoteDataBean</text>
</g>
<!-- 139748203952672 -->
<g id="node9" class="node">
<title>139748203952672</title>
<polygon fill="none" stroke="#000000" points="608,-72 554,-72 554,-36 608,-36 608,-72"/>
<text text-anchor="middle" x="581" y="-50.3" font-family="Times,serif" font-size="14.00" fill="#000000">Root</text>
</g>
<!-- 139748203950712 -->
<g id="node13" class="node">
<title>139748203950712</title>
<ellipse fill="#ffa500" stroke="#000000" cx="671" cy="-54" rx="27" ry="27"/>
</g>
<!-- 139748203952672&#45;&gt;139748203950712 -->
<g id="edge17" class="edge">
<title>139748203952672&#45;&gt;139748203950712</title>
<path fill="none" stroke="#000000" d="M608.003,-54C616.0277,-54 624.9665,-54 633.5309,-54"/>
<polygon fill="#000000" stroke="#000000" points="633.7051,-57.5001 643.705,-54 633.705,-50.5001 633.7051,-57.5001"/>
</g>
<!-- 139748203953512 -->
<g id="node10" class="node">
<title>139748203953512</title>
<polygon fill="none" stroke="#000000" points="125,-720 39,-720 39,-684 125,-684 125,-720"/>
<text text-anchor="middle" x="82" y="-698.3" font-family="Times,serif" font-size="14.00" fill="#000000">TradeConfig</text>
</g>
<!-- 139748203953792 -->
<g id="node11" class="node">
<title>139748203953792</title>
<ellipse fill="#00ff00" stroke="#000000" cx="82" cy="-27" rx="27" ry="27"/>
<text text-anchor="middle" x="82" y="-23.3" font-family="Times,serif" font-size="14.00" fill="#000000">1</text>
</g>
<!-- 139748203953792&#45;&gt;139748203953176 -->
<g id="edge8" class="edge">
<title>139748203953792&#45;&gt;139748203953176</title>
<path fill="none" stroke="#000000" d="M109.0674,-27C129.4714,-27 159.0499,-27 189.4171,-27"/>
<polygon fill="#000000" stroke="#000000" points="189.7337,-30.5001 199.7337,-27 189.7336,-23.5001 189.7337,-30.5001"/>
</g>
<!-- 139748203950544&#45;&gt;139748203952672 -->
<g id="edge3" class="edge">
<title>139748203950544&#45;&gt;139748203952672</title>
<path fill="none" stroke="#000000" d="M518.003,-54C526.0277,-54 534.9665,-54 543.5309,-54"/>
<polygon fill="#000000" stroke="#000000" points="543.7051,-57.5001 553.705,-54 543.705,-50.5001 543.7051,-57.5001"/>
</g>
<!-- 139748203909976&#45;&gt;139748203952504 -->
<g id="edge1" class="edge">
<title>139748203909976&#45;&gt;139748203952504</title>
<path fill="none" stroke="#000000" d="M287.105,-284.1661C245.4756,-274.0279 165.3629,-249.3533 118.5301,-232.4138"/>
<polygon fill="#000000" stroke="#000000" points="119.6608,-229.1005 109.0674,-228.9246 117.2389,-235.6682 119.6608,-229.1005"/>
</g>
<!-- 139748203910760&#45;&gt;139748203951944 -->
<g id="edge2" class="edge">
<title>139748203910760&#45;&gt;139748203951944</title>
<path fill="none" stroke="#000000" d="M286.9393,-500.1257C249.2211,-490.9276 180.1428,-469.8787 132.6916,-453.4231"/>
<polygon fill="#000000" stroke="#000000" points="133.8045,-450.1045 123.2096,-450.0929 131.4848,-456.709 133.8045,-450.1045"/>
</g>
<!-- 139748203909248&#45;&gt;139748203952504 -->
<g id="edge4" class="edge">
<title>139748203909248&#45;&gt;139748203952504</title>
<path fill="none" stroke="#000000" d="M287.105,-220.5129C245.6498,-223.2824 166.0326,-223.4805 119.1197,-221.107"/>
<polygon fill="#000000" stroke="#000000" points="119.2532,-217.6089 109.0674,-220.5243 118.8481,-224.5972 119.2532,-217.6089"/>
</g>
<!-- 139748203911936&#45;&gt;139748203951944 -->
<g id="edge5" class="edge">
<title>139748203911936&#45;&gt;139748203951944</title>
<path fill="none" stroke="#000000" d="M287.2269,-436.5047C259.6078,-438.3566 214.9571,-439.0629 174.346,-438.6237"/>
<polygon fill="#000000" stroke="#000000" points="174.1668,-435.1211 164.121,-438.4873 174.0734,-442.1205 174.1668,-435.1211"/>
</g>
<!-- 139748203953624&#45;&gt;139748203952504 -->
<g id="edge6" class="edge">
<title>139748203953624&#45;&gt;139748203952504</title>
<path fill="none" stroke="#000000" d="M289.5618,-155.9267C248.8399,-171.4976 166.8607,-197.1925 119.0177,-209.6136"/>
<polygon fill="#000000" stroke="#000000" points="117.9073,-206.284 109.0674,-212.1241 119.6198,-213.0713 117.9073,-206.284"/>
</g>
<!-- 139748203910928&#45;&gt;139748203951944 -->
<g id="edge7" class="edge">
<title>139748203910928&#45;&gt;139748203951944</title>
<path fill="none" stroke="#000000" d="M289.6893,-371.8779C261.4719,-382.6757 213.3225,-398.3669 170.4856,-411.1173"/>
<polygon fill="#000000" stroke="#000000" points="169.4682,-407.7682 160.8683,-413.9564 171.4501,-414.4818 169.4682,-407.7682"/>
</g>
</g>
</svg>
