<?xml version="1.0" encoding="UTF-8" standalone="no"?>
<!DOCTYPE svg PUBLIC "-//W3C//DTD SVG 1.1//EN"
 "http://www.w3.org/Graphics/SVG/1.1/DTD/svg11.dtd">
<!-- Generated by graphviz version 2.40.1 (20161225.0304)
 -->
<!-- Title: %3 Pages: 1 -->
<svg width="2049pt" height="864pt"
 viewBox="0.00 0.00 2049.00 864.00" xmlns="http://www.w3.org/2000/svg" xmlns:xlink="http://www.w3.org/1999/xlink">
<g id="graph0" class="graph" transform="scale(1 1) rotate(0) translate(4 860)">
<title>%3</title>
<!-- 140219170881664 -->
<g id="node1" class="node">
<title>140219170881664</title>
<polygon fill="none" stroke="#000000" points="93,-56 0,-56 0,-20 93,-20 93,-56"/>
<text text-anchor="middle" x="46.5" y="-34.3" font-family="Times,serif" font-size="14.00" fill="#000000">FinancialUtils</text>
</g>
<!-- 140219170775560 -->
<g id="node46" class="node">
<title>140219170775560</title>
<ellipse fill="none" stroke="#000000" cx="156" cy="-65" rx="27" ry="27"/>
<text text-anchor="middle" x="156" y="-61.3" font-family="Times,serif" font-size="14.00" fill="#000000">splace_in_MarketSummaryDataBean_FinancialUtils_0</text>
</g>
<!-- 140219170881664&#45;&gt;140219170775560 -->
<g id="edge1" class="edge">
<title>140219170881664&#45;&gt;140219170775560</title>
<path fill="none" stroke="#000000" d="M93.2555,-49.5287C102.0992,-51.7094 111.2273,-53.9602 119.6899,-56.0468"/>
<polygon fill="#000000" stroke="#000000" points="119.0714,-59.4991 129.6185,-58.495 120.7473,-52.7026 119.0714,-59.4991"/>
</g>
<!-- 140219167178592 -->
<g id="node2" class="node">
<title>140219167178592</title>
<polygon fill="none" stroke="#000000" points="73.5,-856 19.5,-856 19.5,-820 73.5,-820 73.5,-856"/>
<text text-anchor="middle" x="46.5" y="-834.3" font-family="Times,serif" font-size="14.00" fill="#000000">Log</text>
</g>
<!-- 140219170777072 -->
<g id="node27" class="node">
<title>140219170777072</title>
<ellipse fill="none" stroke="#000000" cx="156" cy="-776" rx="27" ry="27"/>
<text text-anchor="middle" x="156" y="-772.3" font-family="Times,serif" font-size="14.00" fill="#000000">intplace_Log</text>
</g>
<!-- 140219167178592&#45;&gt;140219170777072 -->
<g id="edge2" class="edge">
<title>140219167178592&#45;&gt;140219170777072</title>
<path fill="none" stroke="#000000" d="M73.5674,-822.6742C88.6029,-814.1609 107.4182,-803.5075 123.2753,-794.529"/>
<polygon fill="#000000" stroke="#000000" points="125.2416,-797.4379 132.219,-789.465 121.7926,-791.3465 125.2416,-797.4379"/>
</g>
<!-- 140219170881608 -->
<g id="node3" class="node">
<title>140219170881608</title>
<polygon fill="none" stroke="#000000" points="563,-83 399,-83 399,-47 563,-47 563,-83"/>
<text text-anchor="middle" x="481" y="-61.3" font-family="Times,serif" font-size="14.00" fill="#000000">MarketSummaryDataBean</text>
</g>
<!-- 140219170779088 -->
<g id="node28" class="node">
<title>140219170779088</title>
<ellipse fill="none" stroke="#000000" cx="626" cy="-65" rx="27" ry="27"/>
<text text-anchor="middle" x="626" y="-61.3" font-family="Times,serif" font-size="14.00" fill="#000000">intplace_MarketSummaryDataBean</text>
</g>
<!-- 140219170881608&#45;&gt;140219170779088 -->
<g id="edge3" class="edge">
<title>140219170881608&#45;&gt;140219170779088</title>
<path fill="none" stroke="#000000" d="M563.2442,-65C572.0332,-65 580.6275,-65 588.498,-65"/>
<polygon fill="#000000" stroke="#000000" points="588.732,-68.5001 598.7319,-65 588.7319,-61.5001 588.732,-68.5001"/>
</g>
<!-- 140219167178536 -->
<g id="node4" class="node">
<title>140219167178536</title>
<polygon fill="none" stroke="#000000" points="884,-543 722,-543 722,-507 884,-507 884,-543"/>
<text text-anchor="middle" x="803" y="-521.3" font-family="Times,serif" font-size="14.00" fill="#000000">MarketSummarySingleton</text>
</g>
<!-- 140219170777128 -->
<g id="node29" class="node">
<title>140219170777128</title>
<ellipse fill="none" stroke="#000000" cx="980" cy="-525" rx="27" ry="27"/>
<text text-anchor="middle" x="980" y="-521.3" font-family="Times,serif" font-size="14.00" fill="#000000">intplace_MarketSummarySingleton</text>
</g>
<!-- 140219167178536&#45;&gt;140219170777128 -->
<g id="edge4" class="edge">
<title>140219167178536&#45;&gt;140219170777128</title>
<path fill="none" stroke="#000000" d="M884.2475,-525C904.7181,-525 925.7097,-525 942.8019,-525"/>
<polygon fill="#000000" stroke="#000000" points="942.9008,-528.5001 952.9007,-525 942.9007,-521.5001 942.9008,-528.5001"/>
</g>
<!-- 140219167178480 -->
<g id="node5" class="node">
<title>140219167178480</title>
<polygon fill="none" stroke="#000000" points="1951,-319 1859,-319 1859,-283 1951,-283 1951,-319"/>
<text text-anchor="middle" x="1905" y="-297.3" font-family="Times,serif" font-size="14.00" fill="#000000">PingCDIBean</text>
</g>
<!-- 140219170883344 -->
<g id="node51" class="node">
<title>140219170883344</title>
<ellipse fill="none" stroke="#000000" cx="2014" cy="-326" rx="27" ry="27"/>
<text text-anchor="middle" x="2014" y="-322.3" font-family="Times,serif" font-size="14.00" fill="#000000">splace_in_PingInterceptor_PingCDIBean_0</text>
</g>
<!-- 140219167178480&#45;&gt;140219170883344 -->
<g id="edge5" class="edge">
<title>140219167178480&#45;&gt;140219170883344</title>
<path fill="none" stroke="#000000" d="M1951.2258,-311.6023C1960.0535,-313.627 1969.1778,-315.7197 1977.6428,-317.6612"/>
<polygon fill="#000000" stroke="#000000" points="1977.0478,-321.1155 1987.5772,-319.9397 1978.6127,-314.2927 1977.0478,-321.1155"/>
</g>
<!-- 140219167178424 -->
<g id="node6" class="node">
<title>140219167178424</title>
<polygon fill="none" stroke="#000000" points="1553,-310 1452,-310 1452,-274 1553,-274 1553,-310"/>
<text text-anchor="middle" x="1502.5" y="-288.3" font-family="Times,serif" font-size="14.00" fill="#000000">PingInterceptor</text>
</g>
<!-- 140219170775784 -->
<g id="node30" class="node">
<title>140219170775784</title>
<ellipse fill="none" stroke="#000000" cx="1616" cy="-292" rx="27" ry="27"/>
<text text-anchor="middle" x="1616" y="-288.3" font-family="Times,serif" font-size="14.00" fill="#000000">intplace_PingInterceptor</text>
</g>
<!-- 140219167178424&#45;&gt;140219170775784 -->
<g id="edge6" class="edge">
<title>140219167178424&#45;&gt;140219170775784</title>
<path fill="none" stroke="#000000" d="M1553.2745,-292C1561.8108,-292 1570.5294,-292 1578.6462,-292"/>
<polygon fill="#000000" stroke="#000000" points="1578.9041,-295.5001 1588.9041,-292 1578.904,-288.5001 1578.9041,-295.5001"/>
</g>
<!-- 140219167178032 -->
<g id="node7" class="node">
<title>140219167178032</title>
<polygon fill="none" stroke="#000000" points="917,-341 689,-341 689,-305 917,-305 917,-341"/>
<text text-anchor="middle" x="803" y="-319.3" font-family="Times,serif" font-size="14.00" fill="#000000">PingServletCDIBeanManagerViaJNDI</text>
</g>
<!-- 140219170775672 -->
<g id="node31" class="node">
<title>140219170775672</title>
<ellipse fill="none" stroke="#000000" cx="980" cy="-323" rx="27" ry="27"/>
<text text-anchor="middle" x="980" y="-319.3" font-family="Times,serif" font-size="14.00" fill="#000000">intplace_PingServletCDIBeanManagerViaJNDI</text>
</g>
<!-- 140219167178032&#45;&gt;140219170775672 -->
<g id="edge7" class="edge">
<title>140219167178032&#45;&gt;140219170775672</title>
<path fill="none" stroke="#000000" d="M917.098,-323C926.2038,-323 934.914,-323 942.7953,-323"/>
<polygon fill="#000000" stroke="#000000" points="942.9881,-326.5001 952.9881,-323 942.9881,-319.5001 942.9881,-326.5001"/>
</g>
<!-- 140219167178704 -->
<g id="node8" class="node">
<title>140219167178704</title>
<polygon fill="none" stroke="#000000" points="1326,-655 1223,-655 1223,-619 1326,-619 1326,-655"/>
<text text-anchor="middle" x="1274.5" y="-633.3" font-family="Times,serif" font-size="14.00" fill="#000000">QuoteDataBean</text>
</g>
<!-- 140219170884016 -->
<g id="node49" class="node">
<title>140219170884016</title>
<ellipse fill="none" stroke="#000000" cx="1389" cy="-663" rx="27" ry="27"/>
<text text-anchor="middle" x="1389" y="-659.3" font-family="Times,serif" font-size="14.00" fill="#000000">splace_in_MarketSummarySingleton_QuoteDataBean_0</text>
</g>
<!-- 140219167178704&#45;&gt;140219170884016 -->
<g id="edge8" class="edge">
<title>140219167178704&#45;&gt;140219170884016</title>
<path fill="none" stroke="#000000" d="M1326.0557,-648.707C1335.0021,-650.7385 1344.1358,-652.8125 1352.5712,-654.728"/>
<polygon fill="#000000" stroke="#000000" points="1351.9281,-658.1709 1362.4549,-656.9723 1353.4782,-651.3447 1351.9281,-658.1709"/>
</g>
<!-- 140219167178368 -->
<g id="node9" class="node">
<title>140219167178368</title>
<polygon fill="none" stroke="#000000" points="1529.5,-432 1475.5,-432 1475.5,-396 1529.5,-396 1529.5,-432"/>
<text text-anchor="middle" x="1502.5" y="-410.3" font-family="Times,serif" font-size="14.00" fill="#000000">Root</text>
</g>
<!-- 140219167178256 -->
<g id="node58" class="node">
<title>140219167178256</title>
<ellipse fill="#ffa500" stroke="#000000" cx="1616" cy="-414" rx="27" ry="27"/>
</g>
<!-- 140219167178368&#45;&gt;140219167178256 -->
<g id="edge9" class="edge">
<title>140219167178368&#45;&gt;140219167178256</title>
<path fill="none" stroke="#000000" d="M1529.6861,-414C1544.3191,-414 1562.5904,-414 1578.55,-414"/>
<polygon fill="#000000" stroke="#000000" points="1578.6424,-417.5001 1588.6424,-414 1578.6423,-410.5001 1578.6424,-417.5001"/>
</g>
<!-- 140219167178648 -->
<g id="node10" class="node">
<title>140219167178648</title>
<polygon fill="none" stroke="#000000" points="1545.5,-618 1459.5,-618 1459.5,-582 1545.5,-582 1545.5,-618"/>
<text text-anchor="middle" x="1502.5" y="-596.3" font-family="Times,serif" font-size="14.00" fill="#000000">TradeConfig</text>
</g>
<!-- 140219170777240 -->
<g id="node32" class="node">
<title>140219170777240</title>
<ellipse fill="none" stroke="#000000" cx="1616" cy="-627" rx="27" ry="27"/>
<text text-anchor="middle" x="1616" y="-623.3" font-family="Times,serif" font-size="14.00" fill="#000000">intplace_TradeConfig</text>
</g>
<!-- 140219167178648&#45;&gt;140219170777240 -->
<g id="edge10" class="edge">
<title>140219167178648&#45;&gt;140219170777240</title>
<path fill="none" stroke="#000000" d="M1545.7333,-610.2846C1556.9372,-612.9498 1568.8875,-615.7926 1579.6956,-618.3637"/>
<polygon fill="#000000" stroke="#000000" points="1579.108,-621.8215 1589.6465,-620.7309 1580.728,-615.0116 1579.108,-621.8215"/>
</g>
<!-- 140219170881888 -->
<g id="node11" class="node">
<title>140219170881888</title>
<polygon fill="none" stroke="#000000" points="1932,-215 1878,-215 1878,-179 1932,-179 1932,-215"/>
<text text-anchor="middle" x="1905" y="-193.3" font-family="Times,serif" font-size="14.00" fill="#000000">hid_1</text>
</g>
<!-- 140219170881720 -->
<g id="node39" class="node">
<title>140219170881720</title>
<ellipse fill="none" stroke="#000000" cx="626" cy="-323" rx="27" ry="27"/>
<text text-anchor="middle" x="626" y="-319.3" font-family="Times,serif" font-size="14.00" fill="#000000">pre_PingServletCDIBeanManagerViaJNDI</text>
</g>
<!-- 140219170881888&#45;&gt;140219170881720 -->
<g id="edge11" class="edge">
<title>140219170881888&#45;&gt;140219170881720</title>
<path fill="none" stroke="#000000" d="M1877.8095,-190.7163C1839.6479,-182.4609 1767.9278,-169 1706,-169 980,-169 980,-169 980,-169 850.0035,-169 713.7801,-257.4035 655.3898,-300.2509"/>
<polygon fill="#000000" stroke="#000000" points="653.2882,-297.452 647.3496,-306.2261 657.4636,-303.0704 653.2882,-297.452"/>
</g>
<!-- 140219170775840 -->
<g id="node12" class="node">
<title>140219170775840</title>
<polygon fill="none" stroke="#000000" points="1097,-341 1043,-341 1043,-305 1097,-305 1097,-341"/>
<text text-anchor="middle" x="1070" y="-319.3" font-family="Times,serif" font-size="14.00" fill="#000000">hid_10</text>
</g>
<!-- 140219170883232 -->
<g id="node52" class="node">
<title>140219170883232</title>
<ellipse fill="none" stroke="#000000" cx="1160" cy="-287" rx="27" ry="27"/>
<text text-anchor="middle" x="1160" y="-283.3" font-family="Times,serif" font-size="14.00" fill="#000000">splace_in_PingInterceptor_PingServletCDIBeanManagerViaJNDI_0</text>
</g>
<!-- 140219170775840&#45;&gt;140219170883232 -->
<g id="edge12" class="edge">
<title>140219170775840&#45;&gt;140219170883232</title>
<path fill="none" stroke="#000000" d="M1097.003,-312.1988C1105.9184,-308.6326 1115.9622,-304.6151 1125.3671,-300.8531"/>
<polygon fill="#000000" stroke="#000000" points="1126.8778,-304.0186 1134.8627,-297.0549 1124.278,-297.5192 1126.8778,-304.0186"/>
</g>
<!-- 140219170882728 -->
<g id="node55" class="node">
<title>140219170882728</title>
<ellipse fill="none" stroke="#000000" cx="1160" cy="-359" rx="27" ry="27"/>
<text text-anchor="middle" x="1160" y="-355.3" font-family="Times,serif" font-size="14.00" fill="#000000">splace_in_Root_PingServletCDIBeanManagerViaJNDI_0</text>
</g>
<!-- 140219170775840&#45;&gt;140219170882728 -->
<g id="edge13" class="edge">
<title>140219170775840&#45;&gt;140219170882728</title>
<path fill="none" stroke="#000000" d="M1097.003,-333.8012C1105.9184,-337.3674 1115.9622,-341.3849 1125.3671,-345.1469"/>
<polygon fill="#000000" stroke="#000000" points="1124.278,-348.4808 1134.8627,-348.9451 1126.8778,-341.9814 1124.278,-348.4808"/>
</g>
<!-- 140219170776512 -->
<g id="node13" class="node">
<title>140219170776512</title>
<polygon fill="none" stroke="#000000" points="1733,-310 1679,-310 1679,-274 1733,-274 1733,-310"/>
<text text-anchor="middle" x="1706" y="-288.3" font-family="Times,serif" font-size="14.00" fill="#000000">hid_12</text>
</g>
<!-- 140219170882952 -->
<g id="node37" class="node">
<title>140219170882952</title>
<ellipse fill="none" stroke="#000000" cx="1796" cy="-296" rx="27" ry="27"/>
<text text-anchor="middle" x="1796" y="-292.3" font-family="Times,serif" font-size="14.00" fill="#000000">pre_PingCDIBean</text>
</g>
<!-- 140219170776512&#45;&gt;140219170882952 -->
<g id="edge14" class="edge">
<title>140219170776512&#45;&gt;140219170882952</title>
<path fill="none" stroke="#000000" d="M1733.003,-293.2001C1741.1013,-293.5601 1750.1306,-293.9614 1758.7665,-294.3452"/>
<polygon fill="#000000" stroke="#000000" points="1758.8705,-297.8532 1769.0161,-294.8007 1759.1814,-290.8601 1758.8705,-297.8532"/>
</g>
<!-- 140219170882056 -->
<g id="node53" class="node">
<title>140219170882056</title>
<ellipse fill="none" stroke="#000000" cx="1796" cy="-224" rx="27" ry="27"/>
<text text-anchor="middle" x="1796" y="-220.3" font-family="Times,serif" font-size="14.00" fill="#000000">splace_in_PingServletCDIBeanManagerViaJNDI_0</text>
</g>
<!-- 140219170776512&#45;&gt;140219170882056 -->
<g id="edge15" class="edge">
<title>140219170776512&#45;&gt;140219170882056</title>
<path fill="none" stroke="#000000" d="M1730.1183,-273.7772C1741.1797,-265.4198 1754.4038,-255.4282 1766.0918,-246.5973"/>
<polygon fill="#000000" stroke="#000000" points="1768.4093,-249.233 1774.2781,-240.4121 1764.1894,-243.648 1768.4093,-249.233"/>
</g>
<!-- 140219170777296 -->
<g id="node14" class="node">
<title>140219170777296</title>
<polygon fill="none" stroke="#000000" points="1097,-543 1043,-543 1043,-507 1097,-507 1097,-543"/>
<text text-anchor="middle" x="1070" y="-521.3" font-family="Times,serif" font-size="14.00" fill="#000000">hid_14</text>
</g>
<!-- 140219170885080 -->
<g id="node40" class="node">
<title>140219170885080</title>
<ellipse fill="none" stroke="#000000" cx="1160" cy="-613" rx="27" ry="27"/>
<text text-anchor="middle" x="1160" y="-609.3" font-family="Times,serif" font-size="14.00" fill="#000000">pre_QuoteDataBean</text>
</g>
<!-- 140219170777296&#45;&gt;140219170885080 -->
<g id="edge16" class="edge">
<title>140219170777296&#45;&gt;140219170885080</title>
<path fill="none" stroke="#000000" d="M1088.6481,-543.2337C1101.5384,-555.8376 1118.883,-572.7967 1133.2436,-586.8382"/>
<polygon fill="#000000" stroke="#000000" points="1130.8449,-589.3878 1140.4419,-593.8765 1135.7387,-584.3828 1130.8449,-589.3878"/>
</g>
<!-- 140219170884968 -->
<g id="node44" class="node">
<title>140219170884968</title>
<ellipse fill="none" stroke="#000000" cx="1706" cy="-536" rx="27" ry="27"/>
<text text-anchor="middle" x="1706" y="-532.3" font-family="Times,serif" font-size="14.00" fill="#000000">splace_in_Log_MarketSummarySingleton_0</text>
</g>
<!-- 140219170777296&#45;&gt;140219170884968 -->
<g id="edge17" class="edge">
<title>140219170777296&#45;&gt;140219170884968</title>
<path fill="none" stroke="#000000" d="M1097.0058,-515.2897C1108.0467,-511.6193 1121.0184,-507.6848 1133,-505 1194.9178,-491.1255 1211.0467,-486 1274.5,-486 1274.5,-486 1274.5,-486 1502.5,-486 1563.2045,-486 1631.2294,-507.2418 1671.2425,-522.0348"/>
<polygon fill="#000000" stroke="#000000" points="1670.1986,-525.3818 1680.7903,-525.64 1672.6713,-518.8331 1670.1986,-525.3818"/>
</g>
<!-- 140219170882840 -->
<g id="node54" class="node">
<title>140219170882840</title>
<ellipse fill="none" stroke="#000000" cx="1160" cy="-431" rx="27" ry="27"/>
<text text-anchor="middle" x="1160" y="-427.3" font-family="Times,serif" font-size="14.00" fill="#000000">splace_in_Root_MarketSummarySingleton_0</text>
</g>
<!-- 140219170777296&#45;&gt;140219170882840 -->
<g id="edge18" class="edge">
<title>140219170777296&#45;&gt;140219170882840</title>
<path fill="none" stroke="#000000" d="M1087.3529,-506.8759C1100.6098,-493.0298 1119.0932,-473.7249 1134.0982,-458.053"/>
<polygon fill="#000000" stroke="#000000" points="1136.7591,-460.3348 1141.1468,-450.6912 1131.7029,-455.4938 1136.7591,-460.3348"/>
</g>
<!-- 140219170885472 -->
<g id="node57" class="node">
<title>140219170885472</title>
<ellipse fill="none" stroke="#000000" cx="1160" cy="-541" rx="27" ry="27"/>
<text text-anchor="middle" x="1160" y="-537.3" font-family="Times,serif" font-size="14.00" fill="#000000">splace_in_TradeConfig_MarketSummarySingleton_0</text>
</g>
<!-- 140219170777296&#45;&gt;140219170885472 -->
<g id="edge19" class="edge">
<title>140219170777296&#45;&gt;140219170885472</title>
<path fill="none" stroke="#000000" d="M1097.003,-529.8005C1105.2647,-531.2693 1114.4954,-532.9103 1123.2888,-534.4736"/>
<polygon fill="#000000" stroke="#000000" points="1122.868,-537.9536 1133.3262,-536.258 1124.0933,-531.0616 1122.868,-537.9536"/>
</g>
<!-- 140219170777912 -->
<g id="node15" class="node">
<title>140219170777912</title>
<polygon fill="none" stroke="#000000" points="273,-763 219,-763 219,-727 273,-727 273,-763"/>
<text text-anchor="middle" x="246" y="-741.3" font-family="Times,serif" font-size="14.00" fill="#000000">hid_16</text>
</g>
<!-- 140219170884744 -->
<g id="node43" class="node">
<title>140219170884744</title>
<ellipse fill="none" stroke="#000000" cx="626" cy="-799" rx="27" ry="27"/>
<text text-anchor="middle" x="626" y="-795.3" font-family="Times,serif" font-size="14.00" fill="#000000">splace_in_Log_Log_0</text>
</g>
<!-- 140219170777912&#45;&gt;140219170884744 -->
<g id="edge20" class="edge">
<title>140219170777912&#45;&gt;140219170884744</title>
<path fill="none" stroke="#000000" d="M273.2804,-754.9763C284.2488,-758.6397 297.096,-762.4986 309,-765 408.8991,-785.9924 529.3834,-794.3842 588.9453,-797.4358"/>
<polygon fill="#000000" stroke="#000000" points="588.8377,-800.9346 598.9974,-797.9293 589.181,-793.9431 588.8377,-800.9346"/>
</g>
<!-- 140219170883904 -->
<g id="node48" class="node">
<title>140219170883904</title>
<ellipse fill="none" stroke="#000000" cx="336" cy="-729" rx="27" ry="27"/>
<text text-anchor="middle" x="336" y="-725.3" font-family="Times,serif" font-size="14.00" fill="#000000">splace_in_MarketSummarySingleton_Log_0</text>
</g>
<!-- 140219170777912&#45;&gt;140219170883904 -->
<g id="edge21" class="edge">
<title>140219170777912&#45;&gt;140219170883904</title>
<path fill="none" stroke="#000000" d="M273.003,-740.1995C281.2647,-738.7307 290.4954,-737.0897 299.2888,-735.5264"/>
<polygon fill="#000000" stroke="#000000" points="300.0933,-738.9384 309.3262,-733.742 298.868,-732.0464 300.0933,-738.9384"/>
</g>
<!-- 140219170885360 -->
<g id="node56" class="node">
<title>140219170885360</title>
<ellipse fill="none" stroke="#000000" cx="803" cy="-651" rx="27" ry="27"/>
<text text-anchor="middle" x="803" y="-647.3" font-family="Times,serif" font-size="14.00" fill="#000000">splace_in_TradeConfig_Log_0</text>
</g>
<!-- 140219170777912&#45;&gt;140219170885360 -->
<g id="edge22" class="edge">
<title>140219170777912&#45;&gt;140219170885360</title>
<path fill="none" stroke="#000000" d="M262.2662,-726.7536C273.9879,-714.9271 290.8793,-700.3941 309,-693 468.7288,-627.8228 681.1523,-638.9582 765.8508,-646.8642"/>
<polygon fill="#000000" stroke="#000000" points="765.7108,-650.367 776.0034,-647.8546 766.3905,-643.4001 765.7108,-650.367"/>
</g>
<!-- 140219170778584 -->
<g id="node16" class="node">
<title>140219170778584</title>
<polygon fill="none" stroke="#000000" points="1733,-667 1679,-667 1679,-631 1733,-631 1733,-667"/>
<text text-anchor="middle" x="1706" y="-645.3" font-family="Times,serif" font-size="14.00" fill="#000000">hid_18</text>
</g>
<!-- 140219170884856 -->
<g id="node45" class="node">
<title>140219170884856</title>
<ellipse fill="none" stroke="#000000" cx="1796" cy="-649" rx="27" ry="27"/>
<text text-anchor="middle" x="1796" y="-645.3" font-family="Times,serif" font-size="14.00" fill="#000000">splace_in_Log_TradeConfig_0</text>
</g>
<!-- 140219170778584&#45;&gt;140219170884856 -->
<g id="edge23" class="edge">
<title>140219170778584&#45;&gt;140219170884856</title>
<path fill="none" stroke="#000000" d="M1733.003,-649C1741.0277,-649 1749.9665,-649 1758.5309,-649"/>
<polygon fill="#000000" stroke="#000000" points="1758.7051,-652.5001 1768.705,-649 1758.705,-645.5001 1758.7051,-652.5001"/>
</g>
<!-- 140219170884128 -->
<g id="node50" class="node">
<title>140219170884128</title>
<ellipse fill="none" stroke="#000000" cx="1796" cy="-721" rx="27" ry="27"/>
<text text-anchor="middle" x="1796" y="-717.3" font-family="Times,serif" font-size="14.00" fill="#000000">splace_in_MarketSummarySingleton_TradeConfig_0</text>
</g>
<!-- 140219170778584&#45;&gt;140219170884128 -->
<g id="edge24" class="edge">
<title>140219170778584&#45;&gt;140219170884128</title>
<path fill="none" stroke="#000000" d="M1728.7108,-667.1686C1740.3298,-676.4638 1754.601,-687.8808 1767.0062,-697.805"/>
<polygon fill="#000000" stroke="#000000" points="1764.847,-700.5598 1774.8421,-704.0737 1769.2199,-695.0937 1764.847,-700.5598"/>
</g>
<!-- 140219170882168 -->
<g id="node17" class="node">
<title>140219170882168</title>
<polygon fill="none" stroke="#000000" points="508,-393 454,-393 454,-357 508,-357 508,-393"/>
<text text-anchor="middle" x="481" y="-371.3" font-family="Times,serif" font-size="14.00" fill="#000000">hid_2</text>
</g>
<!-- 140219170882168&#45;&gt;140219170881720 -->
<g id="edge25" class="edge">
<title>140219170882168&#45;&gt;140219170881720</title>
<path fill="none" stroke="#000000" d="M508.2734,-365.2192C531.5937,-356.8561 565.3085,-344.7652 590.6871,-335.6639"/>
<polygon fill="#000000" stroke="#000000" points="592.0777,-338.8836 600.3092,-332.2133 589.7146,-332.2945 592.0777,-338.8836"/>
</g>
<!-- 140219170872400 -->
<g id="node18" class="node">
<title>140219170872400</title>
<polygon fill="none" stroke="#000000" points="830,-83 776,-83 776,-47 830,-47 830,-83"/>
<text text-anchor="middle" x="803" y="-61.3" font-family="Times,serif" font-size="14.00" fill="#000000">hid_20</text>
</g>
<!-- 140219170775168 -->
<g id="node33" class="node">
<title>140219170775168</title>
<ellipse fill="none" stroke="#000000" cx="980" cy="-27" rx="27" ry="27"/>
<text text-anchor="middle" x="980" y="-23.3" font-family="Times,serif" font-size="14.00" fill="#000000">pre_FinancialUtils</text>
</g>
<!-- 140219170872400&#45;&gt;140219170775168 -->
<g id="edge26" class="edge">
<title>140219170872400&#45;&gt;140219170775168</title>
<path fill="none" stroke="#000000" d="M830.2683,-59.1458C860.6753,-52.6177 909.9975,-42.0288 943.6619,-34.8014"/>
<polygon fill="#000000" stroke="#000000" points="944.526,-38.1957 953.5686,-32.6745 943.0566,-31.3517 944.526,-38.1957"/>
</g>
<!-- 140219170775448 -->
<g id="node47" class="node">
<title>140219170775448</title>
<ellipse fill="none" stroke="#000000" cx="980" cy="-109" rx="27" ry="27"/>
<text text-anchor="middle" x="980" y="-105.3" font-family="Times,serif" font-size="14.00" fill="#000000">splace_in_MarketSummaryDataBean_MarketSummaryDataBean_0</text>
</g>
<!-- 140219170872400&#45;&gt;140219170775448 -->
<g id="edge27" class="edge">
<title>140219170872400&#45;&gt;140219170775448</title>
<path fill="none" stroke="#000000" d="M830.2683,-71.7786C860.6753,-79.3374 909.9975,-91.5983 943.6619,-99.9668"/>
<polygon fill="#000000" stroke="#000000" points="943.0195,-103.4136 953.5686,-102.4295 944.7083,-96.6203 943.0195,-103.4136"/>
</g>
<!-- 140219170882504 -->
<g id="node19" class="node">
<title>140219170882504</title>
<polygon fill="none" stroke="#000000" points="1301.5,-432 1247.5,-432 1247.5,-396 1301.5,-396 1301.5,-432"/>
<text text-anchor="middle" x="1274.5" y="-410.3" font-family="Times,serif" font-size="14.00" fill="#000000">hid_3</text>
</g>
<!-- 140219170881832 -->
<g id="node41" class="node">
<title>140219170881832</title>
<ellipse fill="none" stroke="#000000" cx="1389" cy="-414" rx="27" ry="27"/>
<text text-anchor="middle" x="1389" y="-410.3" font-family="Times,serif" font-size="14.00" fill="#000000">pre_Root</text>
</g>
<!-- 140219170882504&#45;&gt;140219170881832 -->
<g id="edge28" class="edge">
<title>140219170882504&#45;&gt;140219170881832</title>
<path fill="none" stroke="#000000" d="M1301.6349,-414C1316.4989,-414 1335.1492,-414 1351.3969,-414"/>
<polygon fill="#000000" stroke="#000000" points="1351.6631,-417.5001 1361.6631,-414 1351.663,-410.5001 1351.6631,-417.5001"/>
</g>
<!-- 140219170883008 -->
<g id="node20" class="node">
<title>140219170883008</title>
<polygon fill="none" stroke="#000000" points="1301.5,-310 1247.5,-310 1247.5,-274 1301.5,-274 1301.5,-310"/>
<text text-anchor="middle" x="1274.5" y="-288.3" font-family="Times,serif" font-size="14.00" fill="#000000">hid_4</text>
</g>
<!-- 140219170882448 -->
<g id="node38" class="node">
<title>140219170882448</title>
<ellipse fill="none" stroke="#000000" cx="1389" cy="-292" rx="27" ry="27"/>
<text text-anchor="middle" x="1389" y="-288.3" font-family="Times,serif" font-size="14.00" fill="#000000">pre_PingInterceptor</text>
</g>
<!-- 140219170883008&#45;&gt;140219170882448 -->
<g id="edge29" class="edge">
<title>140219170883008&#45;&gt;140219170882448</title>
<path fill="none" stroke="#000000" d="M1301.6349,-292C1316.4989,-292 1335.1492,-292 1351.3969,-292"/>
<polygon fill="#000000" stroke="#000000" points="1351.6631,-295.5001 1361.6631,-292 1351.663,-288.5001 1351.6631,-295.5001"/>
</g>
<!-- 140219170883680 -->
<g id="node21" class="node">
<title>140219170883680</title>
<polygon fill="none" stroke="#000000" points="508,-735 454,-735 454,-699 508,-699 508,-735"/>
<text text-anchor="middle" x="481" y="-713.3" font-family="Times,serif" font-size="14.00" fill="#000000">hid_5</text>
</g>
<!-- 140219170883512 -->
<g id="node36" class="node">
<title>140219170883512</title>
<ellipse fill="none" stroke="#000000" cx="626" cy="-525" rx="27" ry="27"/>
<text text-anchor="middle" x="626" y="-521.3" font-family="Times,serif" font-size="14.00" fill="#000000">pre_MarketSummarySingleton</text>
</g>
<!-- 140219170883680&#45;&gt;140219170883512 -->
<g id="edge30" class="edge">
<title>140219170883680&#45;&gt;140219170883512</title>
<path fill="none" stroke="#000000" d="M494.6412,-698.9371C519.652,-665.8194 573.0698,-595.0869 603.5201,-554.7665"/>
<polygon fill="#000000" stroke="#000000" points="606.4171,-556.738 609.6507,-546.6487 600.8311,-552.5194 606.4171,-556.738"/>
</g>
<!-- 140219170883848 -->
<g id="node22" class="node">
<title>140219170883848</title>
<polygon fill="none" stroke="#000000" points="508,-479 454,-479 454,-443 508,-443 508,-479"/>
<text text-anchor="middle" x="481" y="-457.3" font-family="Times,serif" font-size="14.00" fill="#000000">hid_6</text>
</g>
<!-- 140219170883848&#45;&gt;140219170883512 -->
<g id="edge31" class="edge">
<title>140219170883848&#45;&gt;140219170883512</title>
<path fill="none" stroke="#000000" d="M508.2734,-473.0379C531.9879,-483.505 566.4512,-498.7164 591.9667,-509.9784"/>
<polygon fill="#000000" stroke="#000000" points="590.7048,-513.2472 601.2666,-514.0832 593.5314,-506.8432 590.7048,-513.2472"/>
</g>
<!-- 140219170884520 -->
<g id="node23" class="node">
<title>140219170884520</title>
<polygon fill="none" stroke="#000000" points="1932,-730 1878,-730 1878,-694 1932,-694 1932,-730"/>
<text text-anchor="middle" x="1905" y="-708.3" font-family="Times,serif" font-size="14.00" fill="#000000">hid_7</text>
</g>
<!-- 140219170883624 -->
<g id="node34" class="node">
<title>140219170883624</title>
<ellipse fill="none" stroke="#000000" cx="2014" cy="-783" rx="27" ry="27"/>
<text text-anchor="middle" x="2014" y="-779.3" font-family="Times,serif" font-size="14.00" fill="#000000">pre_Log</text>
</g>
<!-- 140219170884520&#45;&gt;140219170883624 -->
<g id="edge32" class="edge">
<title>140219170884520&#45;&gt;140219170883624</title>
<path fill="none" stroke="#000000" d="M1932.2241,-729.7331C1947.5469,-739.714 1966.7454,-752.2195 1982.6891,-762.6048"/>
<polygon fill="#000000" stroke="#000000" points="1980.8771,-765.6016 1991.1666,-768.1269 1984.6978,-759.7361 1980.8771,-765.6016"/>
</g>
<!-- 140219170885136 -->
<g id="node24" class="node">
<title>140219170885136</title>
<polygon fill="none" stroke="#000000" points="1301.5,-601 1247.5,-601 1247.5,-565 1301.5,-565 1301.5,-601"/>
<text text-anchor="middle" x="1274.5" y="-579.3" font-family="Times,serif" font-size="14.00" fill="#000000">hid_8</text>
</g>
<!-- 140219170884464 -->
<g id="node42" class="node">
<title>140219170884464</title>
<ellipse fill="none" stroke="#000000" cx="1389" cy="-586" rx="27" ry="27"/>
<text text-anchor="middle" x="1389" y="-582.3" font-family="Times,serif" font-size="14.00" fill="#000000">pre_TradeConfig</text>
</g>
<!-- 140219170885136&#45;&gt;140219170884464 -->
<g id="edge33" class="edge">
<title>140219170885136&#45;&gt;140219170884464</title>
<path fill="none" stroke="#000000" d="M1301.6349,-583.711C1316.4989,-584.1004 1335.1492,-584.5891 1351.3969,-585.0148"/>
<polygon fill="#000000" stroke="#000000" points="1351.5748,-588.5205 1361.6631,-585.2837 1351.7582,-581.5229 1351.5748,-588.5205"/>
</g>
<!-- 140219170775224 -->
<g id="node25" class="node">
<title>140219170775224</title>
<polygon fill="none" stroke="#000000" points="273,-83 219,-83 219,-47 273,-47 273,-83"/>
<text text-anchor="middle" x="246" y="-61.3" font-family="Times,serif" font-size="14.00" fill="#000000">hid_9</text>
</g>
<!-- 140219170885584 -->
<g id="node35" class="node">
<title>140219170885584</title>
<ellipse fill="none" stroke="#000000" cx="336" cy="-65" rx="27" ry="27"/>
<text text-anchor="middle" x="336" y="-61.3" font-family="Times,serif" font-size="14.00" fill="#000000">pre_MarketSummaryDataBean</text>
</g>
<!-- 140219170775224&#45;&gt;140219170885584 -->
<g id="edge34" class="edge">
<title>140219170775224&#45;&gt;140219170885584</title>
<path fill="none" stroke="#000000" d="M273.003,-65C281.0277,-65 289.9665,-65 298.5309,-65"/>
<polygon fill="#000000" stroke="#000000" points="298.7051,-68.5001 308.705,-65 298.705,-61.5001 298.7051,-68.5001"/>
</g>
<!-- 140219167178144 -->
<g id="node26" class="node">
<title>140219167178144</title>
<ellipse fill="#00ff00" stroke="#000000" cx="336" cy="-402" rx="27" ry="27"/>
<text text-anchor="middle" x="336" y="-398.3" font-family="Times,serif" font-size="14.00" fill="#000000">1</text>
</g>
<!-- 140219167178144&#45;&gt;140219170882168 -->
<g id="edge51" class="edge">
<title>140219167178144&#45;&gt;140219170882168</title>
<path fill="none" stroke="#000000" d="M362.5952,-397.0478C385.3023,-392.8196 418.2153,-386.6909 443.5803,-381.9678"/>
<polygon fill="#000000" stroke="#000000" points="444.3979,-385.3758 453.5881,-380.1043 443.1164,-378.4941 444.3979,-385.3758"/>
</g>
<!-- 140219167178144&#45;&gt;140219170883848 -->
<g id="edge52" class="edge">
<title>140219167178144&#45;&gt;140219170883848</title>
<path fill="none" stroke="#000000" d="M361.2571,-412.277C384.2085,-421.6159 418.348,-435.5071 444.3083,-446.0703"/>
<polygon fill="#000000" stroke="#000000" points="443.2353,-449.4123 453.817,-449.9393 445.8736,-442.9285 443.2353,-449.4123"/>
</g>
<!-- 140219170777072&#45;&gt;140219170777912 -->
<g id="edge35" class="edge">
<title>140219170777072&#45;&gt;140219170777912</title>
<path fill="none" stroke="#000000" d="M181.5497,-767.1996C190.1894,-764.2236 200.0137,-760.8397 209.3423,-757.6265"/>
<polygon fill="#000000" stroke="#000000" points="210.4989,-760.93 218.8139,-754.3641 208.2192,-754.3116 210.4989,-760.93"/>
</g>
<!-- 140219170779088&#45;&gt;140219170872400 -->
<g id="edge36" class="edge">
<title>140219170779088&#45;&gt;140219170872400</title>
<path fill="none" stroke="#000000" d="M653.2683,-65C683.3692,-65 732.0065,-65 765.6406,-65"/>
<polygon fill="#000000" stroke="#000000" points="765.9912,-68.5001 775.9911,-65 765.9911,-61.5001 765.9912,-68.5001"/>
</g>
<!-- 140219170777128&#45;&gt;140219170777296 -->
<g id="edge37" class="edge">
<title>140219170777128&#45;&gt;140219170777296</title>
<path fill="none" stroke="#000000" d="M1007.003,-525C1015.0277,-525 1023.9665,-525 1032.5309,-525"/>
<polygon fill="#000000" stroke="#000000" points="1032.7051,-528.5001 1042.705,-525 1032.705,-521.5001 1032.7051,-528.5001"/>
</g>
<!-- 140219170775784&#45;&gt;140219170776512 -->
<g id="edge38" class="edge">
<title>140219170775784&#45;&gt;140219170776512</title>
<path fill="none" stroke="#000000" d="M1643.003,-292C1651.0277,-292 1659.9665,-292 1668.5309,-292"/>
<polygon fill="#000000" stroke="#000000" points="1668.7051,-295.5001 1678.705,-292 1668.705,-288.5001 1668.7051,-295.5001"/>
</g>
<!-- 140219170775672&#45;&gt;140219170775840 -->
<g id="edge39" class="edge">
<title>140219170775672&#45;&gt;140219170775840</title>
<path fill="none" stroke="#000000" d="M1007.003,-323C1015.0277,-323 1023.9665,-323 1032.5309,-323"/>
<polygon fill="#000000" stroke="#000000" points="1032.7051,-326.5001 1042.705,-323 1032.705,-319.5001 1032.7051,-326.5001"/>
</g>
<!-- 140219170777240&#45;&gt;140219170778584 -->
<g id="edge40" class="edge">
<title>140219170777240&#45;&gt;140219170778584</title>
<path fill="none" stroke="#000000" d="M1642.5162,-633.4817C1650.8043,-635.5077 1660.1048,-637.7812 1668.9779,-639.9502"/>
<polygon fill="#000000" stroke="#000000" points="1668.1924,-643.3611 1678.7375,-642.3358 1669.8546,-636.5613 1668.1924,-643.3611"/>
</g>
<!-- 140219170775168&#45;&gt;140219170881664 -->
<g id="edge41" class="edge">
<title>140219170775168&#45;&gt;140219170881664</title>
<path fill="none" stroke="#000000" d="M952.9304,-24.8123C893.7011,-20.2209 748.1354,-10 626,-10 246,-10 246,-10 246,-10 197.417,-10 142.8193,-18.2439 103.0383,-25.7853"/>
<polygon fill="#000000" stroke="#000000" points="102.1505,-22.3922 93.0002,-27.7328 103.4838,-29.2641 102.1505,-22.3922"/>
</g>
<!-- 140219170883624&#45;&gt;140219167178592 -->
<g id="edge42" class="edge">
<title>140219170883624&#45;&gt;140219167178592</title>
<path fill="none" stroke="#000000" d="M1990.306,-796.1882C1951.1304,-816.7208 1869.8363,-854 1796,-854 246,-854 246,-854 246,-854 189.2246,-854 123.6505,-847.4817 83.6397,-842.766"/>
<polygon fill="#000000" stroke="#000000" points="83.8971,-839.2718 73.5504,-841.5509 83.0601,-846.2216 83.8971,-839.2718"/>
</g>
<!-- 140219170885584&#45;&gt;140219170881608 -->
<g id="edge43" class="edge">
<title>140219170885584&#45;&gt;140219170881608</title>
<path fill="none" stroke="#000000" d="M363.2734,-65C370.8644,-65 379.5567,-65 388.7044,-65"/>
<polygon fill="#000000" stroke="#000000" points="388.7789,-68.5001 398.7788,-65 388.7788,-61.5001 388.7789,-68.5001"/>
</g>
<!-- 140219170883512&#45;&gt;140219167178536 -->
<g id="edge44" class="edge">
<title>140219170883512&#45;&gt;140219167178536</title>
<path fill="none" stroke="#000000" d="M653.2683,-525C669.1741,-525 690.2557,-525 711.5644,-525"/>
<polygon fill="#000000" stroke="#000000" points="711.6859,-528.5001 721.6859,-525 711.6858,-521.5001 711.6859,-528.5001"/>
</g>
<!-- 140219170882952&#45;&gt;140219167178480 -->
<g id="edge45" class="edge">
<title>140219170882952&#45;&gt;140219167178480</title>
<path fill="none" stroke="#000000" d="M1823.2241,-297.2488C1830.9289,-297.6022 1839.6135,-298.0006 1848.3716,-298.4024"/>
<polygon fill="#000000" stroke="#000000" points="1848.4823,-301.911 1858.6322,-298.873 1848.8031,-294.9184 1848.4823,-301.911"/>
</g>
<!-- 140219170882448&#45;&gt;140219167178424 -->
<g id="edge46" class="edge">
<title>140219170882448&#45;&gt;140219167178424</title>
<path fill="none" stroke="#000000" d="M1416.1861,-292C1424.0006,-292 1432.8527,-292 1441.8363,-292"/>
<polygon fill="#000000" stroke="#000000" points="1441.9865,-295.5001 1451.9865,-292 1441.9865,-288.5001 1441.9865,-295.5001"/>
</g>
<!-- 140219170881720&#45;&gt;140219167178032 -->
<g id="edge47" class="edge">
<title>140219170881720&#45;&gt;140219167178032</title>
<path fill="none" stroke="#000000" d="M653.2683,-323C660.7458,-323 669.3672,-323 678.6183,-323"/>
<polygon fill="#000000" stroke="#000000" points="678.8796,-326.5001 688.8795,-323 678.8795,-319.5001 678.8796,-326.5001"/>
</g>
<!-- 140219170885080&#45;&gt;140219167178704 -->
<g id="edge48" class="edge">
<title>140219170885080&#45;&gt;140219167178704</title>
<path fill="none" stroke="#000000" d="M1186.5564,-618.5664C1194.5129,-620.2341 1203.5924,-622.1373 1212.8263,-624.0728"/>
<polygon fill="#000000" stroke="#000000" points="1212.3554,-627.55 1222.8608,-626.1761 1213.7915,-620.6989 1212.3554,-627.55"/>
</g>
<!-- 140219170881832&#45;&gt;140219167178368 -->
<g id="edge49" class="edge">
<title>140219170881832&#45;&gt;140219167178368</title>
<path fill="none" stroke="#000000" d="M1416.1861,-414C1430.8191,-414 1449.0904,-414 1465.05,-414"/>
<polygon fill="#000000" stroke="#000000" points="1465.1424,-417.5001 1475.1424,-414 1465.1423,-410.5001 1465.1424,-417.5001"/>
</g>
<!-- 140219170884464&#45;&gt;140219167178648 -->
<g id="edge50" class="edge">
<title>140219170884464&#45;&gt;140219167178648</title>
<path fill="none" stroke="#000000" d="M1415.8979,-589.3178C1425.9368,-590.5561 1437.7181,-592.0093 1449.3012,-593.438"/>
<polygon fill="#000000" stroke="#000000" points="1449.0273,-596.9307 1459.3806,-594.6813 1449.8843,-589.9833 1449.0273,-596.9307"/>
</g>
<!-- 140219170884744&#45;&gt;140219170884520 -->
<g id="edge53" class="edge">
<title>140219170884744&#45;&gt;140219170884520</title>
<path fill="none" stroke="#000000" d="M653.085,-797.8418C712.3443,-795.4111 857.9658,-790 980,-790 980,-790 980,-790 1706,-790 1766.4624,-790 1830.5741,-758.4022 1869.1964,-735.429"/>
<polygon fill="#000000" stroke="#000000" points="1871.2515,-738.2758 1877.9789,-730.0908 1867.6157,-732.2941 1871.2515,-738.2758"/>
</g>
<!-- 140219170884968&#45;&gt;140219170884520 -->
<g id="edge54" class="edge">
<title>140219170884968&#45;&gt;140219170884520</title>
<path fill="none" stroke="#000000" d="M1729.8721,-548.8886C1754.6005,-562.8612 1793.6598,-586.7137 1823,-613 1847.5438,-634.9892 1871.0544,-664.5476 1886.5584,-685.6282"/>
<polygon fill="#000000" stroke="#000000" points="1883.7904,-687.7733 1892.4925,-693.8168 1889.4585,-683.6656 1883.7904,-687.7733"/>
</g>
<!-- 140219170884856&#45;&gt;140219170884520 -->
<g id="edge55" class="edge">
<title>140219170884856&#45;&gt;140219170884520</title>
<path fill="none" stroke="#000000" d="M1819.3832,-662.5151C1833.845,-670.8737 1852.7028,-681.7732 1869.0381,-691.2147"/>
<polygon fill="#000000" stroke="#000000" points="1867.4005,-694.3107 1877.8099,-696.2846 1870.9034,-688.2502 1867.4005,-694.3107"/>
</g>
<!-- 140219170775560&#45;&gt;140219170775224 -->
<g id="edge56" class="edge">
<title>140219170775560&#45;&gt;140219170775224</title>
<path fill="none" stroke="#000000" d="M183.003,-65C191.0277,-65 199.9665,-65 208.5309,-65"/>
<polygon fill="#000000" stroke="#000000" points="208.7051,-68.5001 218.705,-65 208.705,-61.5001 208.7051,-68.5001"/>
</g>
<!-- 140219170775448&#45;&gt;140219170775224 -->
<g id="edge57" class="edge">
<title>140219170775448&#45;&gt;140219170775224</title>
<path fill="none" stroke="#000000" d="M952.918,-110.4155C893.6644,-113.3865 748.0537,-120 626,-120 481,-120 481,-120 481,-120 404.0906,-120 382.1352,-124.7973 309,-101 299.4869,-97.9046 289.8134,-93.2653 280.9945,-88.3379"/>
<polygon fill="#000000" stroke="#000000" points="282.5522,-85.1939 272.1561,-83.1513 279.0094,-91.2312 282.5522,-85.1939"/>
</g>
<!-- 140219170883904&#45;&gt;140219170883680 -->
<g id="edge58" class="edge">
<title>140219170883904&#45;&gt;140219170883680</title>
<path fill="none" stroke="#000000" d="M362.9336,-726.771C385.6801,-724.8885 418.4902,-722.1732 443.7527,-720.0825"/>
<polygon fill="#000000" stroke="#000000" points="444.0414,-723.5707 453.7186,-719.2578 443.464,-716.5946 444.0414,-723.5707"/>
</g>
<!-- 140219170884016&#45;&gt;140219170883680 -->
<g id="edge59" class="edge">
<title>140219170884016&#45;&gt;140219170883680</title>
<path fill="none" stroke="#000000" d="M1363.9151,-673.924C1310.7902,-696.0336 1182.5647,-744 1070,-744 803,-744 803,-744 803,-744 699.5385,-744 578.0296,-729.987 518.1732,-722.1514"/>
<polygon fill="#000000" stroke="#000000" points="518.4493,-718.6574 508.0757,-720.8112 517.5282,-725.5965 518.4493,-718.6574"/>
</g>
<!-- 140219170884128&#45;&gt;140219170883680 -->
<g id="edge60" class="edge">
<title>140219170884128&#45;&gt;140219170883680</title>
<path fill="none" stroke="#000000" d="M1768.8597,-721C1733.624,-721 1670.2188,-721 1616,-721 1389,-721 1389,-721 1389,-721 1247.0656,-721 1211.9344,-706 1070,-706 803,-706 803,-706 803,-706 699.8402,-706 578.1983,-711.709 518.244,-714.9013"/>
<polygon fill="#000000" stroke="#000000" points="517.926,-711.4133 508.1293,-715.4473 518.3034,-718.4031 517.926,-711.4133"/>
</g>
<!-- 140219170883344&#45;&gt;140219170883008 -->
<g id="edge61" class="edge">
<title>140219170883344&#45;&gt;140219170883008</title>
<path fill="none" stroke="#000000" d="M1987.2643,-331.0591C1946.2676,-338.3642 1865.3334,-351 1796,-351 1502.5,-351 1502.5,-351 1502.5,-351 1439.2244,-351 1422.8758,-345.2609 1362,-328 1344.7248,-323.1018 1326.2488,-315.8227 1310.7472,-309.0892"/>
<polygon fill="#000000" stroke="#000000" points="1312.0772,-305.8503 1301.517,-304.9933 1309.2379,-312.2486 1312.0772,-305.8503"/>
</g>
<!-- 140219170883232&#45;&gt;140219170883008 -->
<g id="edge62" class="edge">
<title>140219170883232&#45;&gt;140219170883008</title>
<path fill="none" stroke="#000000" d="M1187.1349,-288.1849C1201.9989,-288.834 1220.6492,-289.6484 1236.8969,-290.3579"/>
<polygon fill="#000000" stroke="#000000" points="1237.0199,-293.8666 1247.1631,-290.8062 1237.3253,-286.8732 1237.0199,-293.8666"/>
</g>
<!-- 140219170882056&#45;&gt;140219170881888 -->
<g id="edge63" class="edge">
<title>140219170882056&#45;&gt;140219170881888</title>
<path fill="none" stroke="#000000" d="M1822.3859,-217.4641C1836.0029,-214.091 1852.8445,-209.9192 1867.762,-206.2241"/>
<polygon fill="#000000" stroke="#000000" points="1868.8537,-209.5595 1877.7188,-203.7577 1867.1706,-202.7649 1868.8537,-209.5595"/>
</g>
<!-- 140219170882840&#45;&gt;140219170882504 -->
<g id="edge64" class="edge">
<title>140219170882840&#45;&gt;140219170882504</title>
<path fill="none" stroke="#000000" d="M1186.8452,-427.0143C1201.8104,-424.7923 1220.6805,-421.9907 1237.0756,-419.5565"/>
<polygon fill="#000000" stroke="#000000" points="1238.0488,-422.9504 1247.4263,-418.0197 1237.0207,-416.0263 1238.0488,-422.9504"/>
</g>
<!-- 140219170882728&#45;&gt;140219170882504 -->
<g id="edge65" class="edge">
<title>140219170882728&#45;&gt;140219170882504</title>
<path fill="none" stroke="#000000" d="M1184.5631,-370.7989C1200.0873,-378.2559 1220.4337,-388.0293 1237.8469,-396.3937"/>
<polygon fill="#000000" stroke="#000000" points="1236.6404,-399.697 1247.1699,-400.872 1239.6714,-393.3872 1236.6404,-399.697"/>
</g>
<!-- 140219170885360&#45;&gt;140219170885136 -->
<g id="edge66" class="edge">
<title>140219170885360&#45;&gt;140219170885136</title>
<path fill="none" stroke="#000000" d="M829.1633,-657.6883C893.4348,-672.7143 1062.8635,-703.7365 1187,-649 1208.584,-639.4828 1204.2802,-624.3532 1223,-610 1227.7217,-606.3797 1232.999,-602.9953 1238.3257,-599.93"/>
<polygon fill="#000000" stroke="#000000" points="1240.1285,-602.9339 1247.2477,-595.0874 1236.7892,-596.7817 1240.1285,-602.9339"/>
</g>
<!-- 140219170885472&#45;&gt;140219170885136 -->
<g id="edge67" class="edge">
<title>140219170885472&#45;&gt;140219170885136</title>
<path fill="none" stroke="#000000" d="M1185.4113,-550.3212C1200.7221,-555.9374 1220.4877,-563.1876 1237.5098,-569.4316"/>
<polygon fill="#000000" stroke="#000000" points="1236.5671,-572.8137 1247.1608,-572.9716 1238.9778,-566.2419 1236.5671,-572.8137"/>
</g>
</g>
</svg>
