<?xml version="1.0" encoding="UTF-8" standalone="no"?>
<!DOCTYPE svg PUBLIC "-//W3C//DTD SVG 1.1//EN"
 "http://www.w3.org/Graphics/SVG/1.1/DTD/svg11.dtd">
<!-- Generated by graphviz version 2.40.1 (20161225.0304)
 -->
<!-- Title: %3 Pages: 1 -->
<svg width="2049pt" height="727pt"
 viewBox="0.00 0.00 2049.00 727.00" xmlns="http://www.w3.org/2000/svg" xmlns:xlink="http://www.w3.org/1999/xlink">
<g id="graph0" class="graph" transform="scale(1 1) rotate(0) translate(4 723)">
<title>%3</title>
<!-- 139748203035336 -->
<g id="node1" class="node">
<title>139748203035336</title>
<polygon fill="none" stroke="#000000" points="93,-56 0,-56 0,-20 93,-20 93,-56"/>
<text text-anchor="middle" x="46.5" y="-34.3" font-family="Times,serif" font-size="14.00" fill="#000000">FinancialUtils</text>
</g>
<!-- 139748203321384 -->
<g id="node47" class="node">
<title>139748203321384</title>
<ellipse fill="none" stroke="#000000" cx="156" cy="-65" rx="27" ry="27"/>
<text text-anchor="middle" x="156" y="-61.3" font-family="Times,serif" font-size="14.00" fill="#000000">splace_in_MarketSummaryDataBean_FinancialUtils_0</text>
</g>
<!-- 139748203035336&#45;&gt;139748203321384 -->
<g id="edge1" class="edge">
<title>139748203035336&#45;&gt;139748203321384</title>
<path fill="none" stroke="#000000" d="M93.2555,-49.5287C102.0992,-51.7094 111.2273,-53.9602 119.6899,-56.0468"/>
<polygon fill="#000000" stroke="#000000" points="119.0714,-59.4991 129.6185,-58.495 120.7473,-52.7026 119.0714,-59.4991"/>
</g>
<!-- 139748203034832 -->
<g id="node2" class="node">
<title>139748203034832</title>
<polygon fill="none" stroke="#000000" points="73.5,-716 19.5,-716 19.5,-680 73.5,-680 73.5,-716"/>
<text text-anchor="middle" x="46.5" y="-694.3" font-family="Times,serif" font-size="14.00" fill="#000000">Log</text>
</g>
<!-- 139748205541920 -->
<g id="node28" class="node">
<title>139748205541920</title>
<ellipse fill="none" stroke="#000000" cx="156" cy="-656" rx="27" ry="27"/>
<text text-anchor="middle" x="156" y="-652.3" font-family="Times,serif" font-size="14.00" fill="#000000">intplace_Log</text>
</g>
<!-- 139748203034832&#45;&gt;139748205541920 -->
<g id="edge2" class="edge">
<title>139748203034832&#45;&gt;139748205541920</title>
<path fill="none" stroke="#000000" d="M73.5674,-687.618C87.9062,-682.1182 105.6827,-675.2998 121.0528,-669.4044"/>
<polygon fill="#000000" stroke="#000000" points="122.662,-672.5359 130.7453,-665.6867 120.1551,-666.0002 122.662,-672.5359"/>
</g>
<!-- 139748203033264 -->
<g id="node3" class="node">
<title>139748203033264</title>
<polygon fill="none" stroke="#000000" points="563,-83 399,-83 399,-47 563,-47 563,-83"/>
<text text-anchor="middle" x="481" y="-61.3" font-family="Times,serif" font-size="14.00" fill="#000000">MarketSummaryDataBean</text>
</g>
<!-- 139748205722984 -->
<g id="node29" class="node">
<title>139748205722984</title>
<ellipse fill="none" stroke="#000000" cx="626" cy="-65" rx="27" ry="27"/>
<text text-anchor="middle" x="626" y="-61.3" font-family="Times,serif" font-size="14.00" fill="#000000">intplace_MarketSummaryDataBean</text>
</g>
<!-- 139748203033264&#45;&gt;139748205722984 -->
<g id="edge3" class="edge">
<title>139748203033264&#45;&gt;139748205722984</title>
<path fill="none" stroke="#000000" d="M563.2442,-65C572.0332,-65 580.6275,-65 588.498,-65"/>
<polygon fill="#000000" stroke="#000000" points="588.732,-68.5001 598.7319,-65 588.7319,-61.5001 588.732,-68.5001"/>
</g>
<!-- 139748203035392 -->
<g id="node4" class="node">
<title>139748203035392</title>
<polygon fill="none" stroke="#000000" points="884,-468 722,-468 722,-432 884,-432 884,-468"/>
<text text-anchor="middle" x="803" y="-446.3" font-family="Times,serif" font-size="14.00" fill="#000000">MarketSummarySingleton</text>
</g>
<!-- 139748205540968 -->
<g id="node30" class="node">
<title>139748205540968</title>
<ellipse fill="none" stroke="#000000" cx="980" cy="-450" rx="27" ry="27"/>
<text text-anchor="middle" x="980" y="-446.3" font-family="Times,serif" font-size="14.00" fill="#000000">intplace_MarketSummarySingleton</text>
</g>
<!-- 139748203035392&#45;&gt;139748205540968 -->
<g id="edge4" class="edge">
<title>139748203035392&#45;&gt;139748205540968</title>
<path fill="none" stroke="#000000" d="M884.2475,-450C904.7181,-450 925.7097,-450 942.8019,-450"/>
<polygon fill="#000000" stroke="#000000" points="942.9008,-453.5001 952.9007,-450 942.9007,-446.5001 942.9008,-453.5001"/>
</g>
<!-- 139748203034048 -->
<g id="node5" class="node">
<title>139748203034048</title>
<polygon fill="none" stroke="#000000" points="1951,-243 1859,-243 1859,-207 1951,-207 1951,-243"/>
<text text-anchor="middle" x="1905" y="-221.3" font-family="Times,serif" font-size="14.00" fill="#000000">PingCDIBean</text>
</g>
<!-- 139748204441728 -->
<g id="node52" class="node">
<title>139748204441728</title>
<ellipse fill="none" stroke="#000000" cx="2014" cy="-250" rx="27" ry="27"/>
<text text-anchor="middle" x="2014" y="-246.3" font-family="Times,serif" font-size="14.00" fill="#000000">splace_in_PingInterceptor_PingCDIBean_0</text>
</g>
<!-- 139748203034048&#45;&gt;139748204441728 -->
<g id="edge5" class="edge">
<title>139748203034048&#45;&gt;139748204441728</title>
<path fill="none" stroke="#000000" d="M1951.2258,-235.6023C1960.0535,-237.627 1969.1778,-239.7197 1977.6428,-241.6612"/>
<polygon fill="#000000" stroke="#000000" points="1977.0478,-245.1155 1987.5772,-243.9397 1978.6127,-238.2927 1977.0478,-245.1155"/>
</g>
<!-- 139748203032760 -->
<g id="node6" class="node">
<title>139748203032760</title>
<polygon fill="none" stroke="#000000" points="1553,-238 1452,-238 1452,-202 1553,-202 1553,-238"/>
<text text-anchor="middle" x="1502.5" y="-216.3" font-family="Times,serif" font-size="14.00" fill="#000000">PingInterceptor</text>
</g>
<!-- 139748203319984 -->
<g id="node31" class="node">
<title>139748203319984</title>
<ellipse fill="none" stroke="#000000" cx="1616" cy="-220" rx="27" ry="27"/>
<text text-anchor="middle" x="1616" y="-216.3" font-family="Times,serif" font-size="14.00" fill="#000000">intplace_PingInterceptor</text>
</g>
<!-- 139748203032760&#45;&gt;139748203319984 -->
<g id="edge6" class="edge">
<title>139748203032760&#45;&gt;139748203319984</title>
<path fill="none" stroke="#000000" d="M1553.2745,-220C1561.8108,-220 1570.5294,-220 1578.6462,-220"/>
<polygon fill="#000000" stroke="#000000" points="1578.9041,-223.5001 1588.9041,-220 1578.904,-216.5001 1578.9041,-223.5001"/>
</g>
<!-- 139748169921816 -->
<g id="node7" class="node">
<title>139748169921816</title>
<polygon fill="none" stroke="#000000" points="917,-302 689,-302 689,-266 917,-266 917,-302"/>
<text text-anchor="middle" x="803" y="-280.3" font-family="Times,serif" font-size="14.00" fill="#000000">PingServletCDIBeanManagerViaJNDI</text>
</g>
<!-- 139748203320992 -->
<g id="node32" class="node">
<title>139748203320992</title>
<ellipse fill="none" stroke="#000000" cx="980" cy="-284" rx="27" ry="27"/>
<text text-anchor="middle" x="980" y="-280.3" font-family="Times,serif" font-size="14.00" fill="#000000">intplace_PingServletCDIBeanManagerViaJNDI</text>
</g>
<!-- 139748169921816&#45;&gt;139748203320992 -->
<g id="edge7" class="edge">
<title>139748169921816&#45;&gt;139748203320992</title>
<path fill="none" stroke="#000000" d="M917.098,-284C926.2038,-284 934.914,-284 942.7953,-284"/>
<polygon fill="#000000" stroke="#000000" points="942.9881,-287.5001 952.9881,-284 942.9881,-280.5001 942.9881,-287.5001"/>
</g>
<!-- 139748203032816 -->
<g id="node8" class="node">
<title>139748203032816</title>
<polygon fill="none" stroke="#000000" points="1326,-615 1223,-615 1223,-579 1326,-579 1326,-615"/>
<text text-anchor="middle" x="1274.5" y="-593.3" font-family="Times,serif" font-size="14.00" fill="#000000">QuoteDataBean</text>
</g>
<!-- 139748204445424 -->
<g id="node50" class="node">
<title>139748204445424</title>
<ellipse fill="none" stroke="#000000" cx="1389" cy="-634" rx="27" ry="27"/>
<text text-anchor="middle" x="1389" y="-630.3" font-family="Times,serif" font-size="14.00" fill="#000000">splace_in_MarketSummarySingleton_QuoteDataBean_0</text>
</g>
<!-- 139748203032816&#45;&gt;139748204445424 -->
<g id="edge8" class="edge">
<title>139748203032816&#45;&gt;139748204445424</title>
<path fill="none" stroke="#000000" d="M1326.0557,-613.6599C1335.2711,-616.6378 1344.6851,-619.6799 1353.3302,-622.4735"/>
<polygon fill="#000000" stroke="#000000" points="1352.4756,-625.8755 1363.0674,-625.62 1354.6281,-619.2146 1352.4756,-625.8755"/>
</g>
<!-- 139748203034328 -->
<g id="node9" class="node">
<title>139748203034328</title>
<polygon fill="none" stroke="#000000" points="1529.5,-386 1475.5,-386 1475.5,-350 1529.5,-350 1529.5,-386"/>
<text text-anchor="middle" x="1502.5" y="-364.3" font-family="Times,serif" font-size="14.00" fill="#000000">Root</text>
</g>
<!-- 139748203035000 -->
<g id="node59" class="node">
<title>139748203035000</title>
<ellipse fill="#ffa500" stroke="#000000" cx="1616" cy="-368" rx="27" ry="27"/>
</g>
<!-- 139748203034328&#45;&gt;139748203035000 -->
<g id="edge9" class="edge">
<title>139748203034328&#45;&gt;139748203035000</title>
<path fill="none" stroke="#000000" d="M1529.6861,-368C1544.3191,-368 1562.5904,-368 1578.55,-368"/>
<polygon fill="#000000" stroke="#000000" points="1578.6424,-371.5001 1588.6424,-368 1578.6423,-364.5001 1578.6424,-371.5001"/>
</g>
<!-- 139748203033320 -->
<g id="node10" class="node">
<title>139748203033320</title>
<polygon fill="none" stroke="#000000" points="1545.5,-570 1459.5,-570 1459.5,-534 1545.5,-534 1545.5,-570"/>
<text text-anchor="middle" x="1502.5" y="-548.3" font-family="Times,serif" font-size="14.00" fill="#000000">TradeConfig</text>
</g>
<!-- 139748205542760 -->
<g id="node33" class="node">
<title>139748205542760</title>
<ellipse fill="none" stroke="#000000" cx="1616" cy="-552" rx="27" ry="27"/>
<text text-anchor="middle" x="1616" y="-548.3" font-family="Times,serif" font-size="14.00" fill="#000000">intplace_TradeConfig</text>
</g>
<!-- 139748203033320&#45;&gt;139748205542760 -->
<g id="edge10" class="edge">
<title>139748203033320&#45;&gt;139748205542760</title>
<path fill="none" stroke="#000000" d="M1545.7333,-552C1556.6338,-552 1568.2407,-552 1578.815,-552"/>
<polygon fill="#000000" stroke="#000000" points="1578.9807,-555.5001 1588.9806,-552 1578.9806,-548.5001 1578.9807,-555.5001"/>
</g>
<!-- 139748203035168 -->
<g id="node11" class="node">
<title>139748203035168</title>
<polygon fill="none" stroke="#000000" points="1932,-139 1878,-139 1878,-103 1932,-103 1932,-139"/>
<text text-anchor="middle" x="1905" y="-117.3" font-family="Times,serif" font-size="14.00" fill="#000000">hid_1</text>
</g>
<!-- 139748203033432 -->
<g id="node40" class="node">
<title>139748203033432</title>
<ellipse fill="none" stroke="#000000" cx="626" cy="-284" rx="27" ry="27"/>
<text text-anchor="middle" x="626" y="-280.3" font-family="Times,serif" font-size="14.00" fill="#000000">pre_PingServletCDIBeanManagerViaJNDI</text>
</g>
<!-- 139748203035168&#45;&gt;139748203033432 -->
<g id="edge11" class="edge">
<title>139748203035168&#45;&gt;139748203033432</title>
<path fill="none" stroke="#000000" d="M1877.7282,-117.2511C1861.8043,-115.2515 1841.3043,-113.0015 1823,-112 1799.0358,-110.6888 1792.9576,-110.5736 1769,-112 1484.8255,-128.9188 1415.0277,-149.2472 1133,-188 935.157,-215.1851 880.9505,-201.9011 689,-257 679.2377,-259.8022 668.982,-263.7372 659.6471,-267.7381"/>
<polygon fill="#000000" stroke="#000000" points="658.0287,-264.6272 650.3117,-271.8866 660.8713,-271.024 658.0287,-264.6272"/>
</g>
<!-- 139748203323064 -->
<g id="node12" class="node">
<title>139748203323064</title>
<polygon fill="none" stroke="#000000" points="1097,-302 1043,-302 1043,-266 1097,-266 1097,-302"/>
<text text-anchor="middle" x="1070" y="-280.3" font-family="Times,serif" font-size="14.00" fill="#000000">hid_10</text>
</g>
<!-- 139748204443520 -->
<g id="node53" class="node">
<title>139748204443520</title>
<ellipse fill="none" stroke="#000000" cx="1160" cy="-224" rx="27" ry="27"/>
<text text-anchor="middle" x="1160" y="-220.3" font-family="Times,serif" font-size="14.00" fill="#000000">splace_in_PingInterceptor_PingServletCDIBeanManagerViaJNDI_0</text>
</g>
<!-- 139748203323064&#45;&gt;139748204443520 -->
<g id="edge12" class="edge">
<title>139748203323064&#45;&gt;139748204443520</title>
<path fill="none" stroke="#000000" d="M1097.003,-265.998C1107.0349,-259.3101 1118.4954,-251.6697 1128.8668,-244.7554"/>
<polygon fill="#000000" stroke="#000000" points="1130.8883,-247.6143 1137.2674,-239.1551 1127.0054,-241.7899 1130.8883,-247.6143"/>
</g>
<!-- 139748203032648 -->
<g id="node56" class="node">
<title>139748203032648</title>
<ellipse fill="none" stroke="#000000" cx="1160" cy="-296" rx="27" ry="27"/>
<text text-anchor="middle" x="1160" y="-292.3" font-family="Times,serif" font-size="14.00" fill="#000000">splace_in_Root_PingServletCDIBeanManagerViaJNDI_0</text>
</g>
<!-- 139748203323064&#45;&gt;139748203032648 -->
<g id="edge13" class="edge">
<title>139748203323064&#45;&gt;139748203032648</title>
<path fill="none" stroke="#000000" d="M1097.003,-287.6004C1105.1903,-288.692 1114.3292,-289.9106 1123.051,-291.0735"/>
<polygon fill="#000000" stroke="#000000" points="1122.6412,-294.5497 1133.0161,-292.4021 1123.5664,-287.6111 1122.6412,-294.5497"/>
</g>
<!-- 139748205539512 -->
<g id="node13" class="node">
<title>139748205539512</title>
<polygon fill="none" stroke="#000000" points="1733,-238 1679,-238 1679,-202 1733,-202 1733,-238"/>
<text text-anchor="middle" x="1706" y="-216.3" font-family="Times,serif" font-size="14.00" fill="#000000">hid_12</text>
</g>
<!-- 139748203035448 -->
<g id="node38" class="node">
<title>139748203035448</title>
<ellipse fill="none" stroke="#000000" cx="1796" cy="-220" rx="27" ry="27"/>
<text text-anchor="middle" x="1796" y="-216.3" font-family="Times,serif" font-size="14.00" fill="#000000">pre_PingCDIBean</text>
</g>
<!-- 139748205539512&#45;&gt;139748203035448 -->
<g id="edge14" class="edge">
<title>139748205539512&#45;&gt;139748203035448</title>
<path fill="none" stroke="#000000" d="M1733.003,-220C1741.0277,-220 1749.9665,-220 1758.5309,-220"/>
<polygon fill="#000000" stroke="#000000" points="1758.7051,-223.5001 1768.705,-220 1758.705,-216.5001 1758.7051,-223.5001"/>
</g>
<!-- 139748203033376 -->
<g id="node54" class="node">
<title>139748203033376</title>
<ellipse fill="none" stroke="#000000" cx="1796" cy="-148" rx="27" ry="27"/>
<text text-anchor="middle" x="1796" y="-144.3" font-family="Times,serif" font-size="14.00" fill="#000000">splace_in_PingServletCDIBeanManagerViaJNDI_0</text>
</g>
<!-- 139748205539512&#45;&gt;139748203033376 -->
<g id="edge15" class="edge">
<title>139748205539512&#45;&gt;139748203033376</title>
<path fill="none" stroke="#000000" d="M1728.7108,-201.8314C1740.3298,-192.5362 1754.601,-181.1192 1767.0062,-171.195"/>
<polygon fill="#000000" stroke="#000000" points="1769.2199,-173.9063 1774.8421,-164.9263 1764.847,-168.4402 1769.2199,-173.9063"/>
</g>
<!-- 139748205539960 -->
<g id="node14" class="node">
<title>139748205539960</title>
<polygon fill="none" stroke="#000000" points="1097,-468 1043,-468 1043,-432 1097,-432 1097,-468"/>
<text text-anchor="middle" x="1070" y="-446.3" font-family="Times,serif" font-size="14.00" fill="#000000">hid_14</text>
</g>
<!-- 139748203320264 -->
<g id="node41" class="node">
<title>139748203320264</title>
<ellipse fill="none" stroke="#000000" cx="1160" cy="-588" rx="27" ry="27"/>
<text text-anchor="middle" x="1160" y="-584.3" font-family="Times,serif" font-size="14.00" fill="#000000">pre_QuoteDataBean</text>
</g>
<!-- 139748205539960&#45;&gt;139748203320264 -->
<g id="edge16" class="edge">
<title>139748205539960&#45;&gt;139748203320264</title>
<path fill="none" stroke="#000000" d="M1081.7659,-468.0411C1096.4701,-490.5874 1121.8706,-529.5349 1139.7313,-556.9214"/>
<polygon fill="#000000" stroke="#000000" points="1136.8479,-558.9073 1145.2423,-565.3715 1142.7112,-555.0834 1136.8479,-558.9073"/>
</g>
<!-- 139748203323120 -->
<g id="node45" class="node">
<title>139748203323120</title>
<ellipse fill="none" stroke="#000000" cx="1706" cy="-424" rx="27" ry="27"/>
<text text-anchor="middle" x="1706" y="-420.3" font-family="Times,serif" font-size="14.00" fill="#000000">splace_in_Log_MarketSummarySingleton_0</text>
</g>
<!-- 139748205539960&#45;&gt;139748203323120 -->
<g id="edge17" class="edge">
<title>139748205539960&#45;&gt;139748203323120</title>
<path fill="none" stroke="#000000" d="M1097.3029,-444.0747C1136.3725,-436.1268 1210.5763,-423 1274.5,-423 1274.5,-423 1274.5,-423 1502.5,-423 1560.5145,-423 1627.831,-423.4114 1668.6473,-423.7065"/>
<polygon fill="#000000" stroke="#000000" points="1668.6547,-427.2065 1678.6803,-423.7805 1668.7064,-420.2067 1668.6547,-427.2065"/>
</g>
<!-- 139748203036624 -->
<g id="node55" class="node">
<title>139748203036624</title>
<ellipse fill="none" stroke="#000000" cx="1160" cy="-368" rx="27" ry="27"/>
<text text-anchor="middle" x="1160" y="-364.3" font-family="Times,serif" font-size="14.00" fill="#000000">splace_in_Root_MarketSummarySingleton_0</text>
</g>
<!-- 139748205539960&#45;&gt;139748203036624 -->
<g id="edge18" class="edge">
<title>139748205539960&#45;&gt;139748203036624</title>
<path fill="none" stroke="#000000" d="M1089.9739,-431.8015C1102.355,-420.521 1118.442,-405.864 1132.0744,-393.4434"/>
<polygon fill="#000000" stroke="#000000" points="1134.7359,-395.7533 1139.7707,-386.4311 1130.0215,-390.5789 1134.7359,-395.7533"/>
</g>
<!-- 139748203320656 -->
<g id="node58" class="node">
<title>139748203320656</title>
<ellipse fill="none" stroke="#000000" cx="1160" cy="-478" rx="27" ry="27"/>
<text text-anchor="middle" x="1160" y="-474.3" font-family="Times,serif" font-size="14.00" fill="#000000">splace_in_TradeConfig_MarketSummarySingleton_0</text>
</g>
<!-- 139748205539960&#45;&gt;139748203320656 -->
<g id="edge19" class="edge">
<title>139748205539960&#45;&gt;139748203320656</title>
<path fill="none" stroke="#000000" d="M1097.003,-458.4009C1105.5964,-461.0744 1115.2382,-464.0741 1124.3457,-466.9076"/>
<polygon fill="#000000" stroke="#000000" points="1123.3554,-470.2649 1133.9437,-469.8936 1125.4349,-463.5809 1123.3554,-470.2649"/>
</g>
<!-- 139748205721248 -->
<g id="node15" class="node">
<title>139748205721248</title>
<polygon fill="none" stroke="#000000" points="273,-596 219,-596 219,-560 273,-560 273,-596"/>
<text text-anchor="middle" x="246" y="-574.3" font-family="Times,serif" font-size="14.00" fill="#000000">hid_16</text>
</g>
<!-- 139748203323008 -->
<g id="node44" class="node">
<title>139748203323008</title>
<ellipse fill="none" stroke="#000000" cx="626" cy="-188" rx="27" ry="27"/>
<text text-anchor="middle" x="626" y="-184.3" font-family="Times,serif" font-size="14.00" fill="#000000">splace_in_Log_Log_0</text>
</g>
<!-- 139748205721248&#45;&gt;139748203323008 -->
<g id="edge20" class="edge">
<title>139748205721248&#45;&gt;139748203323008</title>
<path fill="none" stroke="#000000" d="M247.6051,-559.6339C252.9633,-502.3776 272.019,-328.5361 309,-288 383.0215,-206.8627 522.1859,-191.0964 588.7237,-188.3472"/>
<polygon fill="#000000" stroke="#000000" points="588.8813,-191.844 598.758,-188.0097 588.646,-184.8479 588.8813,-191.844"/>
</g>
<!-- 139748204442288 -->
<g id="node49" class="node">
<title>139748204442288</title>
<ellipse fill="none" stroke="#000000" cx="336" cy="-569" rx="27" ry="27"/>
<text text-anchor="middle" x="336" y="-565.3" font-family="Times,serif" font-size="14.00" fill="#000000">splace_in_MarketSummarySingleton_Log_0</text>
</g>
<!-- 139748205721248&#45;&gt;139748204442288 -->
<g id="edge21" class="edge">
<title>139748205721248&#45;&gt;139748204442288</title>
<path fill="none" stroke="#000000" d="M273.003,-575.2997C281.1903,-574.481 290.3292,-573.5671 299.051,-572.6949"/>
<polygon fill="#000000" stroke="#000000" points="299.414,-576.1761 309.0161,-571.6984 298.7174,-569.2109 299.414,-576.1761"/>
</g>
<!-- 139748203320096 -->
<g id="node57" class="node">
<title>139748203320096</title>
<ellipse fill="none" stroke="#000000" cx="336" cy="-656" rx="27" ry="27"/>
<text text-anchor="middle" x="336" y="-652.3" font-family="Times,serif" font-size="14.00" fill="#000000">splace_in_TradeConfig_Log_0</text>
</g>
<!-- 139748205721248&#45;&gt;139748203320096 -->
<g id="edge22" class="edge">
<title>139748205721248&#45;&gt;139748203320096</title>
<path fill="none" stroke="#000000" d="M266.874,-596.0908C279.0007,-606.6006 294.4462,-619.9867 307.66,-631.4387"/>
<polygon fill="#000000" stroke="#000000" points="305.7003,-634.3718 315.5495,-638.2762 310.2848,-629.082 305.7003,-634.3718"/>
</g>
<!-- 139748205722088 -->
<g id="node16" class="node">
<title>139748205722088</title>
<polygon fill="none" stroke="#000000" points="273,-674 219,-674 219,-638 273,-638 273,-674"/>
<text text-anchor="middle" x="246" y="-652.3" font-family="Times,serif" font-size="14.00" fill="#000000">hid_17</text>
</g>
<!-- 139748205722088&#45;&gt;139748203320096 -->
<g id="edge23" class="edge">
<title>139748205722088&#45;&gt;139748203320096</title>
<path fill="none" stroke="#000000" d="M273.003,-656C281.0277,-656 289.9665,-656 298.5309,-656"/>
<polygon fill="#000000" stroke="#000000" points="298.7051,-659.5001 308.705,-656 298.705,-652.5001 298.7051,-659.5001"/>
</g>
<!-- 139748205720184 -->
<g id="node17" class="node">
<title>139748205720184</title>
<polygon fill="none" stroke="#000000" points="1733,-570 1679,-570 1679,-534 1733,-534 1733,-570"/>
<text text-anchor="middle" x="1706" y="-548.3" font-family="Times,serif" font-size="14.00" fill="#000000">hid_18</text>
</g>
<!-- 139748204444360 -->
<g id="node46" class="node">
<title>139748204444360</title>
<ellipse fill="none" stroke="#000000" cx="1796" cy="-560" rx="27" ry="27"/>
<text text-anchor="middle" x="1796" y="-556.3" font-family="Times,serif" font-size="14.00" fill="#000000">splace_in_Log_TradeConfig_0</text>
</g>
<!-- 139748205720184&#45;&gt;139748204444360 -->
<g id="edge24" class="edge">
<title>139748205720184&#45;&gt;139748204444360</title>
<path fill="none" stroke="#000000" d="M1733.003,-554.4003C1741.1903,-555.128 1750.3292,-555.9404 1759.051,-556.7156"/>
<polygon fill="#000000" stroke="#000000" points="1758.7454,-560.2022 1769.0161,-557.6014 1759.3653,-553.2297 1758.7454,-560.2022"/>
</g>
<!-- 139748204442960 -->
<g id="node51" class="node">
<title>139748204442960</title>
<ellipse fill="none" stroke="#000000" cx="1796" cy="-488" rx="27" ry="27"/>
<text text-anchor="middle" x="1796" y="-484.3" font-family="Times,serif" font-size="14.00" fill="#000000">splace_in_MarketSummarySingleton_TradeConfig_0</text>
</g>
<!-- 139748205720184&#45;&gt;139748204442960 -->
<g id="edge25" class="edge">
<title>139748205720184&#45;&gt;139748204442960</title>
<path fill="none" stroke="#000000" d="M1731.5497,-533.8314C1742.1513,-526.2924 1754.5364,-517.4853 1765.6007,-509.6173"/>
<polygon fill="#000000" stroke="#000000" points="1767.6316,-512.4679 1773.7528,-503.8202 1763.5749,-506.7632 1767.6316,-512.4679"/>
</g>
<!-- 139748203036288 -->
<g id="node18" class="node">
<title>139748203036288</title>
<polygon fill="none" stroke="#000000" points="508,-334 454,-334 454,-298 508,-298 508,-334"/>
<text text-anchor="middle" x="481" y="-312.3" font-family="Times,serif" font-size="14.00" fill="#000000">hid_2</text>
</g>
<!-- 139748203036288&#45;&gt;139748203033432 -->
<g id="edge26" class="edge">
<title>139748203036288&#45;&gt;139748203033432</title>
<path fill="none" stroke="#000000" d="M508.2734,-309.981C531.2021,-304.9209 564.1792,-297.6432 589.4017,-292.0769"/>
<polygon fill="#000000" stroke="#000000" points="590.3281,-295.4567 599.3388,-289.8839 588.8195,-288.6212 590.3281,-295.4567"/>
</g>
<!-- 139748205720632 -->
<g id="node19" class="node">
<title>139748205720632</title>
<polygon fill="none" stroke="#000000" points="830,-83 776,-83 776,-47 830,-47 830,-83"/>
<text text-anchor="middle" x="803" y="-61.3" font-family="Times,serif" font-size="14.00" fill="#000000">hid_20</text>
</g>
<!-- 139748203322392 -->
<g id="node34" class="node">
<title>139748203322392</title>
<ellipse fill="none" stroke="#000000" cx="980" cy="-27" rx="27" ry="27"/>
<text text-anchor="middle" x="980" y="-23.3" font-family="Times,serif" font-size="14.00" fill="#000000">pre_FinancialUtils</text>
</g>
<!-- 139748205720632&#45;&gt;139748203322392 -->
<g id="edge27" class="edge">
<title>139748205720632&#45;&gt;139748203322392</title>
<path fill="none" stroke="#000000" d="M830.2683,-59.1458C860.6753,-52.6177 909.9975,-42.0288 943.6619,-34.8014"/>
<polygon fill="#000000" stroke="#000000" points="944.526,-38.1957 953.5686,-32.6745 943.0566,-31.3517 944.526,-38.1957"/>
</g>
<!-- 139748203321552 -->
<g id="node48" class="node">
<title>139748203321552</title>
<ellipse fill="none" stroke="#000000" cx="980" cy="-109" rx="27" ry="27"/>
<text text-anchor="middle" x="980" y="-105.3" font-family="Times,serif" font-size="14.00" fill="#000000">splace_in_MarketSummaryDataBean_MarketSummaryDataBean_0</text>
</g>
<!-- 139748205720632&#45;&gt;139748203321552 -->
<g id="edge28" class="edge">
<title>139748205720632&#45;&gt;139748203321552</title>
<path fill="none" stroke="#000000" d="M830.2683,-71.7786C860.6753,-79.3374 909.9975,-91.5983 943.6619,-99.9668"/>
<polygon fill="#000000" stroke="#000000" points="943.0195,-103.4136 953.5686,-102.4295 944.7083,-96.6203 943.0195,-103.4136"/>
</g>
<!-- 139748203034160 -->
<g id="node20" class="node">
<title>139748203034160</title>
<polygon fill="none" stroke="#000000" points="1301.5,-386 1247.5,-386 1247.5,-350 1301.5,-350 1301.5,-386"/>
<text text-anchor="middle" x="1274.5" y="-364.3" font-family="Times,serif" font-size="14.00" fill="#000000">hid_3</text>
</g>
<!-- 139748203033880 -->
<g id="node42" class="node">
<title>139748203033880</title>
<ellipse fill="none" stroke="#000000" cx="1389" cy="-368" rx="27" ry="27"/>
<text text-anchor="middle" x="1389" y="-364.3" font-family="Times,serif" font-size="14.00" fill="#000000">pre_Root</text>
</g>
<!-- 139748203034160&#45;&gt;139748203033880 -->
<g id="edge29" class="edge">
<title>139748203034160&#45;&gt;139748203033880</title>
<path fill="none" stroke="#000000" d="M1301.6349,-368C1316.4989,-368 1335.1492,-368 1351.3969,-368"/>
<polygon fill="#000000" stroke="#000000" points="1351.6631,-371.5001 1361.6631,-368 1351.663,-364.5001 1351.6631,-371.5001"/>
</g>
<!-- 139748204442904 -->
<g id="node21" class="node">
<title>139748204442904</title>
<polygon fill="none" stroke="#000000" points="1301.5,-242 1247.5,-242 1247.5,-206 1301.5,-206 1301.5,-242"/>
<text text-anchor="middle" x="1274.5" y="-220.3" font-family="Times,serif" font-size="14.00" fill="#000000">hid_4</text>
</g>
<!-- 139748203033712 -->
<g id="node39" class="node">
<title>139748203033712</title>
<ellipse fill="none" stroke="#000000" cx="1389" cy="-220" rx="27" ry="27"/>
<text text-anchor="middle" x="1389" y="-216.3" font-family="Times,serif" font-size="14.00" fill="#000000">pre_PingInterceptor</text>
</g>
<!-- 139748204442904&#45;&gt;139748203033712 -->
<g id="edge30" class="edge">
<title>139748204442904&#45;&gt;139748203033712</title>
<path fill="none" stroke="#000000" d="M1301.6349,-223.0521C1316.4989,-222.5328 1335.1492,-221.8813 1351.3969,-221.3136"/>
<polygon fill="#000000" stroke="#000000" points="1351.7914,-224.8021 1361.6631,-220.955 1351.5469,-217.8064 1351.7914,-224.8021"/>
</g>
<!-- 139748204443632 -->
<g id="node22" class="node">
<title>139748204443632</title>
<polygon fill="none" stroke="#000000" points="508,-580 454,-580 454,-544 508,-544 508,-580"/>
<text text-anchor="middle" x="481" y="-558.3" font-family="Times,serif" font-size="14.00" fill="#000000">hid_5</text>
</g>
<!-- 139748204443968 -->
<g id="node37" class="node">
<title>139748204443968</title>
<ellipse fill="none" stroke="#000000" cx="626" cy="-450" rx="27" ry="27"/>
<text text-anchor="middle" x="626" y="-446.3" font-family="Times,serif" font-size="14.00" fill="#000000">pre_MarketSummarySingleton</text>
</g>
<!-- 139748204443632&#45;&gt;139748204443968 -->
<g id="edge31" class="edge">
<title>139748204443632&#45;&gt;139748204443968</title>
<path fill="none" stroke="#000000" d="M504.6195,-543.756C529.6371,-524.432 569.1899,-493.8809 596.3022,-472.939"/>
<polygon fill="#000000" stroke="#000000" points="598.5126,-475.6542 604.2871,-466.7713 594.2335,-470.1144 598.5126,-475.6542"/>
</g>
<!-- 139748204442120 -->
<g id="node23" class="node">
<title>139748204442120</title>
<polygon fill="none" stroke="#000000" points="508,-432 454,-432 454,-396 508,-396 508,-432"/>
<text text-anchor="middle" x="481" y="-410.3" font-family="Times,serif" font-size="14.00" fill="#000000">hid_6</text>
</g>
<!-- 139748204442120&#45;&gt;139748204443968 -->
<g id="edge32" class="edge">
<title>139748204442120&#45;&gt;139748204443968</title>
<path fill="none" stroke="#000000" d="M508.2734,-420.7713C531.2021,-426.464 564.1792,-434.6514 589.4017,-440.9135"/>
<polygon fill="#000000" stroke="#000000" points="588.7901,-444.3679 599.3388,-443.3807 590.4768,-437.5741 588.7901,-444.3679"/>
</g>
<!-- 139748204444584 -->
<g id="node24" class="node">
<title>139748204444584</title>
<polygon fill="none" stroke="#000000" points="1932,-510 1878,-510 1878,-474 1932,-474 1932,-510"/>
<text text-anchor="middle" x="1905" y="-488.3" font-family="Times,serif" font-size="14.00" fill="#000000">hid_7</text>
</g>
<!-- 139748204442792 -->
<g id="node35" class="node">
<title>139748204442792</title>
<ellipse fill="none" stroke="#000000" cx="2014" cy="-605" rx="27" ry="27"/>
<text text-anchor="middle" x="2014" y="-601.3" font-family="Times,serif" font-size="14.00" fill="#000000">pre_Log</text>
</g>
<!-- 139748204444584&#45;&gt;139748204442792 -->
<g id="edge33" class="edge">
<title>139748204444584&#45;&gt;139748204442792</title>
<path fill="none" stroke="#000000" d="M1922.5127,-510.1554C1940.1998,-528.4915 1967.7274,-557.0294 1987.9698,-578.0146"/>
<polygon fill="#000000" stroke="#000000" points="1985.6046,-580.6039 1995.0662,-585.3714 1990.6427,-575.7441 1985.6046,-580.6039"/>
</g>
<!-- 139748203321832 -->
<g id="node25" class="node">
<title>139748203321832</title>
<polygon fill="none" stroke="#000000" points="1301.5,-561 1247.5,-561 1247.5,-525 1301.5,-525 1301.5,-561"/>
<text text-anchor="middle" x="1274.5" y="-539.3" font-family="Times,serif" font-size="14.00" fill="#000000">hid_8</text>
</g>
<!-- 139748204442232 -->
<g id="node43" class="node">
<title>139748204442232</title>
<ellipse fill="none" stroke="#000000" cx="1389" cy="-552" rx="27" ry="27"/>
<text text-anchor="middle" x="1389" y="-548.3" font-family="Times,serif" font-size="14.00" fill="#000000">pre_TradeConfig</text>
</g>
<!-- 139748203321832&#45;&gt;139748204442232 -->
<g id="edge34" class="edge">
<title>139748203321832&#45;&gt;139748204442232</title>
<path fill="none" stroke="#000000" d="M1301.6349,-545.1329C1316.6074,-546.3098 1335.4217,-547.7886 1351.7523,-549.0722"/>
<polygon fill="#000000" stroke="#000000" points="1351.8163,-552.588 1362.0599,-549.8824 1352.3649,-545.6095 1351.8163,-552.588"/>
</g>
<!-- 139748203320432 -->
<g id="node26" class="node">
<title>139748203320432</title>
<polygon fill="none" stroke="#000000" points="273,-83 219,-83 219,-47 273,-47 273,-83"/>
<text text-anchor="middle" x="246" y="-61.3" font-family="Times,serif" font-size="14.00" fill="#000000">hid_9</text>
</g>
<!-- 139748203322784 -->
<g id="node36" class="node">
<title>139748203322784</title>
<ellipse fill="none" stroke="#000000" cx="336" cy="-65" rx="27" ry="27"/>
<text text-anchor="middle" x="336" y="-61.3" font-family="Times,serif" font-size="14.00" fill="#000000">pre_MarketSummaryDataBean</text>
</g>
<!-- 139748203320432&#45;&gt;139748203322784 -->
<g id="edge35" class="edge">
<title>139748203320432&#45;&gt;139748203322784</title>
<path fill="none" stroke="#000000" d="M273.003,-65C281.0277,-65 289.9665,-65 298.5309,-65"/>
<polygon fill="#000000" stroke="#000000" points="298.7051,-68.5001 308.705,-65 298.705,-61.5001 298.7051,-68.5001"/>
</g>
<!-- 139748169920584 -->
<g id="node27" class="node">
<title>139748169920584</title>
<ellipse fill="#00ff00" stroke="#000000" cx="336" cy="-324" rx="27" ry="27"/>
<text text-anchor="middle" x="336" y="-320.3" font-family="Times,serif" font-size="14.00" fill="#000000">1</text>
</g>
<!-- 139748169920584&#45;&gt;139748203036288 -->
<g id="edge53" class="edge">
<title>139748169920584&#45;&gt;139748203036288</title>
<path fill="none" stroke="#000000" d="M363.2734,-322.4953C385.9566,-321.2438 418.4742,-319.4497 443.589,-318.0641"/>
<polygon fill="#000000" stroke="#000000" points="444.0569,-321.5437 453.8489,-317.498 443.6712,-314.5543 444.0569,-321.5437"/>
</g>
<!-- 139748169920584&#45;&gt;139748204442120 -->
<g id="edge54" class="edge">
<title>139748169920584&#45;&gt;139748204442120</title>
<path fill="none" stroke="#000000" d="M358.9757,-338.2608C382.1494,-352.6445 418.2541,-375.0543 445.187,-391.7712"/>
<polygon fill="#000000" stroke="#000000" points="443.595,-394.9025 453.9372,-397.2024 447.2866,-388.955 443.595,-394.9025"/>
</g>
<!-- 139748205541920&#45;&gt;139748205721248 -->
<g id="edge36" class="edge">
<title>139748205541920&#45;&gt;139748205721248</title>
<path fill="none" stroke="#000000" d="M176.4224,-638.3006C188.4481,-627.8783 203.8518,-614.5284 217.1074,-603.0403"/>
<polygon fill="#000000" stroke="#000000" points="219.7692,-605.3649 225.0339,-596.1707 215.1847,-600.0751 219.7692,-605.3649"/>
</g>
<!-- 139748205541920&#45;&gt;139748205722088 -->
<g id="edge37" class="edge">
<title>139748205541920&#45;&gt;139748205722088</title>
<path fill="none" stroke="#000000" d="M183.003,-656C191.0277,-656 199.9665,-656 208.5309,-656"/>
<polygon fill="#000000" stroke="#000000" points="208.7051,-659.5001 218.705,-656 208.705,-652.5001 208.7051,-659.5001"/>
</g>
<!-- 139748205722984&#45;&gt;139748205720632 -->
<g id="edge38" class="edge">
<title>139748205722984&#45;&gt;139748205720632</title>
<path fill="none" stroke="#000000" d="M653.2683,-65C683.3692,-65 732.0065,-65 765.6406,-65"/>
<polygon fill="#000000" stroke="#000000" points="765.9912,-68.5001 775.9911,-65 765.9911,-61.5001 765.9912,-68.5001"/>
</g>
<!-- 139748205540968&#45;&gt;139748205539960 -->
<g id="edge39" class="edge">
<title>139748205540968&#45;&gt;139748205539960</title>
<path fill="none" stroke="#000000" d="M1007.003,-450C1015.0277,-450 1023.9665,-450 1032.5309,-450"/>
<polygon fill="#000000" stroke="#000000" points="1032.7051,-453.5001 1042.705,-450 1032.705,-446.5001 1032.7051,-453.5001"/>
</g>
<!-- 139748203319984&#45;&gt;139748205539512 -->
<g id="edge40" class="edge">
<title>139748203319984&#45;&gt;139748205539512</title>
<path fill="none" stroke="#000000" d="M1643.003,-220C1651.0277,-220 1659.9665,-220 1668.5309,-220"/>
<polygon fill="#000000" stroke="#000000" points="1668.7051,-223.5001 1678.705,-220 1668.705,-216.5001 1668.7051,-223.5001"/>
</g>
<!-- 139748203320992&#45;&gt;139748203323064 -->
<g id="edge41" class="edge">
<title>139748203320992&#45;&gt;139748203323064</title>
<path fill="none" stroke="#000000" d="M1007.003,-284C1015.0277,-284 1023.9665,-284 1032.5309,-284"/>
<polygon fill="#000000" stroke="#000000" points="1032.7051,-287.5001 1042.705,-284 1032.705,-280.5001 1032.7051,-287.5001"/>
</g>
<!-- 139748205542760&#45;&gt;139748205720184 -->
<g id="edge42" class="edge">
<title>139748205542760&#45;&gt;139748205720184</title>
<path fill="none" stroke="#000000" d="M1643.003,-552C1651.0277,-552 1659.9665,-552 1668.5309,-552"/>
<polygon fill="#000000" stroke="#000000" points="1668.7051,-555.5001 1678.705,-552 1668.705,-548.5001 1668.7051,-555.5001"/>
</g>
<!-- 139748203322392&#45;&gt;139748203035336 -->
<g id="edge43" class="edge">
<title>139748203322392&#45;&gt;139748203035336</title>
<path fill="none" stroke="#000000" d="M952.9304,-24.8123C893.7011,-20.2209 748.1354,-10 626,-10 246,-10 246,-10 246,-10 197.417,-10 142.8193,-18.2439 103.0383,-25.7853"/>
<polygon fill="#000000" stroke="#000000" points="102.1505,-22.3922 93.0002,-27.7328 103.4838,-29.2641 102.1505,-22.3922"/>
</g>
<!-- 139748204442792&#45;&gt;139748203034832 -->
<g id="edge44" class="edge">
<title>139748204442792&#45;&gt;139748203034832</title>
<path fill="none" stroke="#000000" d="M1994.1829,-623.8248C1957.9258,-656.204 1877.1485,-719 1796,-719 246,-719 246,-719 246,-719 189.0936,-719 123.5557,-710.4447 83.5883,-704.2554"/>
<polygon fill="#000000" stroke="#000000" points="83.9348,-700.7667 73.5106,-702.6606 82.8406,-707.6807 83.9348,-700.7667"/>
</g>
<!-- 139748203322784&#45;&gt;139748203033264 -->
<g id="edge45" class="edge">
<title>139748203322784&#45;&gt;139748203033264</title>
<path fill="none" stroke="#000000" d="M363.2734,-65C370.8644,-65 379.5567,-65 388.7044,-65"/>
<polygon fill="#000000" stroke="#000000" points="388.7789,-68.5001 398.7788,-65 388.7788,-61.5001 388.7789,-68.5001"/>
</g>
<!-- 139748204443968&#45;&gt;139748203035392 -->
<g id="edge46" class="edge">
<title>139748204443968&#45;&gt;139748203035392</title>
<path fill="none" stroke="#000000" d="M653.2683,-450C669.1741,-450 690.2557,-450 711.5644,-450"/>
<polygon fill="#000000" stroke="#000000" points="711.6859,-453.5001 721.6859,-450 711.6858,-446.5001 711.6859,-453.5001"/>
</g>
<!-- 139748203035448&#45;&gt;139748203034048 -->
<g id="edge47" class="edge">
<title>139748203035448&#45;&gt;139748203034048</title>
<path fill="none" stroke="#000000" d="M1823.2241,-221.2488C1830.9289,-221.6022 1839.6135,-222.0006 1848.3716,-222.4024"/>
<polygon fill="#000000" stroke="#000000" points="1848.4823,-225.911 1858.6322,-222.873 1848.8031,-218.9184 1848.4823,-225.911"/>
</g>
<!-- 139748203033712&#45;&gt;139748203032760 -->
<g id="edge48" class="edge">
<title>139748203033712&#45;&gt;139748203032760</title>
<path fill="none" stroke="#000000" d="M1416.1861,-220C1424.0006,-220 1432.8527,-220 1441.8363,-220"/>
<polygon fill="#000000" stroke="#000000" points="1441.9865,-223.5001 1451.9865,-220 1441.9865,-216.5001 1441.9865,-223.5001"/>
</g>
<!-- 139748203033432&#45;&gt;139748169921816 -->
<g id="edge49" class="edge">
<title>139748203033432&#45;&gt;139748169921816</title>
<path fill="none" stroke="#000000" d="M653.2683,-284C660.7458,-284 669.3672,-284 678.6183,-284"/>
<polygon fill="#000000" stroke="#000000" points="678.8796,-287.5001 688.8795,-284 678.8795,-280.5001 678.8796,-287.5001"/>
</g>
<!-- 139748203320264&#45;&gt;139748203032816 -->
<g id="edge50" class="edge">
<title>139748203320264&#45;&gt;139748203032816</title>
<path fill="none" stroke="#000000" d="M1187.1349,-590.1329C1194.9188,-590.7447 1203.7409,-591.4382 1212.7126,-592.1434"/>
<polygon fill="#000000" stroke="#000000" points="1212.6146,-595.6464 1222.8581,-592.9408 1213.1632,-588.6679 1212.6146,-595.6464"/>
</g>
<!-- 139748203033880&#45;&gt;139748203034328 -->
<g id="edge51" class="edge">
<title>139748203033880&#45;&gt;139748203034328</title>
<path fill="none" stroke="#000000" d="M1416.1861,-368C1430.8191,-368 1449.0904,-368 1465.05,-368"/>
<polygon fill="#000000" stroke="#000000" points="1465.1424,-371.5001 1475.1424,-368 1465.1423,-364.5001 1465.1424,-371.5001"/>
</g>
<!-- 139748204442232&#45;&gt;139748203033320 -->
<g id="edge52" class="edge">
<title>139748204442232&#45;&gt;139748203033320</title>
<path fill="none" stroke="#000000" d="M1416.1861,-552C1426.0275,-552 1437.5146,-552 1448.8373,-552"/>
<polygon fill="#000000" stroke="#000000" points="1449.1376,-555.5001 1459.1376,-552 1449.1376,-548.5001 1449.1376,-555.5001"/>
</g>
<!-- 139748203323008&#45;&gt;139748204444584 -->
<g id="edge55" class="edge">
<title>139748203323008&#45;&gt;139748204444584</title>
<path fill="none" stroke="#000000" d="M653.0643,-185.555C712.2831,-180.4234 857.8296,-169 980,-169 980,-169 980,-169 1070,-169 1122.6812,-169 1143.7092,-157.9798 1187,-188 1213.5007,-206.377 1197.0366,-231.8714 1223,-251 1325.441,-326.4739 1375.2582,-313 1502.5,-313 1502.5,-313 1502.5,-313 1706,-313 1795.7115,-313 1863.2886,-414.7998 1891.0956,-464.8586"/>
<polygon fill="#000000" stroke="#000000" points="1888.1282,-466.7289 1895.9717,-473.8515 1894.2819,-463.3922 1888.1282,-466.7289"/>
</g>
<!-- 139748203323120&#45;&gt;139748204444584 -->
<g id="edge56" class="edge">
<title>139748203323120&#45;&gt;139748204444584</title>
<path fill="none" stroke="#000000" d="M1732.9714,-428.7113C1757.0038,-433.3173 1792.9205,-441.2116 1823,-452 1838.3848,-457.518 1854.6897,-465.0864 1868.6734,-472.1559"/>
<polygon fill="#000000" stroke="#000000" points="1867.452,-475.4641 1877.9437,-476.939 1870.6618,-469.2433 1867.452,-475.4641"/>
</g>
<!-- 139748204444360&#45;&gt;139748204444584 -->
<g id="edge57" class="edge">
<title>139748204444360&#45;&gt;139748204444584</title>
<path fill="none" stroke="#000000" d="M1819.1161,-545.5789C1833.5635,-536.5659 1852.4744,-524.7683 1868.8722,-514.5384"/>
<polygon fill="#000000" stroke="#000000" points="1871.0475,-517.3067 1877.6793,-509.0441 1867.3424,-511.3676 1871.0475,-517.3067"/>
</g>
<!-- 139748203321384&#45;&gt;139748203320432 -->
<g id="edge58" class="edge">
<title>139748203321384&#45;&gt;139748203320432</title>
<path fill="none" stroke="#000000" d="M183.003,-65C191.0277,-65 199.9665,-65 208.5309,-65"/>
<polygon fill="#000000" stroke="#000000" points="208.7051,-68.5001 218.705,-65 208.705,-61.5001 208.7051,-68.5001"/>
</g>
<!-- 139748203321552&#45;&gt;139748203320432 -->
<g id="edge59" class="edge">
<title>139748203321552&#45;&gt;139748203320432</title>
<path fill="none" stroke="#000000" d="M952.918,-110.4155C893.6644,-113.3865 748.0537,-120 626,-120 481,-120 481,-120 481,-120 404.0906,-120 382.1352,-124.7973 309,-101 299.4869,-97.9046 289.8134,-93.2653 280.9945,-88.3379"/>
<polygon fill="#000000" stroke="#000000" points="282.5522,-85.1939 272.1561,-83.1513 279.0094,-91.2312 282.5522,-85.1939"/>
</g>
<!-- 139748204442288&#45;&gt;139748204443632 -->
<g id="edge60" class="edge">
<title>139748204442288&#45;&gt;139748204443632</title>
<path fill="none" stroke="#000000" d="M363.2734,-567.6834C385.9566,-566.5883 418.4742,-565.0185 443.589,-563.8061"/>
<polygon fill="#000000" stroke="#000000" points="444.0293,-567.289 453.8489,-563.3107 443.6917,-560.2971 444.0293,-567.289"/>
</g>
<!-- 139748204445424&#45;&gt;139748204443632 -->
<g id="edge61" class="edge">
<title>139748204445424&#45;&gt;139748204443632</title>
<path fill="none" stroke="#000000" d="M1361.87,-635.7567C1319.0132,-638.3758 1233.0103,-643 1160,-643 803,-643 803,-643 803,-643 697.0132,-643 577.1706,-601.2174 518.0468,-577.6701"/>
<polygon fill="#000000" stroke="#000000" points="518.9927,-574.2775 508.4097,-573.7781 516.3714,-580.7682 518.9927,-574.2775"/>
</g>
<!-- 139748204442960&#45;&gt;139748204443632 -->
<g id="edge62" class="edge">
<title>139748204442960&#45;&gt;139748204443632</title>
<path fill="none" stroke="#000000" d="M1768.8808,-490.2016C1733.6676,-492.8661 1670.2865,-497 1616,-497 1389,-497 1389,-497 1389,-497 1317.6611,-497 1141.3389,-533 1070,-533 803,-533 803,-533 803,-533 699.483,-533 577.9986,-548.051 518.1602,-556.467"/>
<polygon fill="#000000" stroke="#000000" points="517.4715,-553.0298 508.0658,-557.9065 518.4598,-559.9596 517.4715,-553.0298"/>
</g>
<!-- 139748204441728&#45;&gt;139748204442904 -->
<g id="edge63" class="edge">
<title>139748204441728&#45;&gt;139748204442904</title>
<path fill="none" stroke="#000000" d="M1987.2643,-255.0591C1946.2676,-262.3642 1865.3334,-275 1796,-275 1502.5,-275 1502.5,-275 1502.5,-275 1439.4872,-275 1423.169,-271.1319 1362,-256 1344.998,-251.7941 1326.7245,-245.4211 1311.2968,-239.4668"/>
<polygon fill="#000000" stroke="#000000" points="1312.1982,-236.0597 1301.6116,-235.6414 1309.6266,-242.5703 1312.1982,-236.0597"/>
</g>
<!-- 139748204443520&#45;&gt;139748204442904 -->
<g id="edge64" class="edge">
<title>139748204443520&#45;&gt;139748204442904</title>
<path fill="none" stroke="#000000" d="M1187.1349,-224C1201.9989,-224 1220.6492,-224 1236.8969,-224"/>
<polygon fill="#000000" stroke="#000000" points="1237.1631,-227.5001 1247.1631,-224 1237.163,-220.5001 1237.1631,-227.5001"/>
</g>
<!-- 139748203033376&#45;&gt;139748203035168 -->
<g id="edge65" class="edge">
<title>139748203033376&#45;&gt;139748203035168</title>
<path fill="none" stroke="#000000" d="M1822.3859,-141.4641C1836.0029,-138.091 1852.8445,-133.9192 1867.762,-130.2241"/>
<polygon fill="#000000" stroke="#000000" points="1868.8537,-133.5595 1877.7188,-127.7577 1867.1706,-126.7649 1868.8537,-133.5595"/>
</g>
<!-- 139748203036624&#45;&gt;139748203034160 -->
<g id="edge66" class="edge">
<title>139748203036624&#45;&gt;139748203034160</title>
<path fill="none" stroke="#000000" d="M1187.1349,-368C1201.9989,-368 1220.6492,-368 1236.8969,-368"/>
<polygon fill="#000000" stroke="#000000" points="1237.1631,-371.5001 1247.1631,-368 1237.163,-364.5001 1237.1631,-371.5001"/>
</g>
<!-- 139748203032648&#45;&gt;139748203034160 -->
<g id="edge67" class="edge">
<title>139748203032648&#45;&gt;139748203034160</title>
<path fill="none" stroke="#000000" d="M1182.8956,-310.3972C1198.8235,-320.4131 1220.3814,-333.9691 1238.5825,-345.4143"/>
<polygon fill="#000000" stroke="#000000" points="1236.8799,-348.4782 1247.2085,-350.8385 1240.6062,-342.5524 1236.8799,-348.4782"/>
</g>
<!-- 139748203320096&#45;&gt;139748203321832 -->
<g id="edge68" class="edge">
<title>139748203320096&#45;&gt;139748203321832</title>
<path fill="none" stroke="#000000" d="M363.1203,-659.9063C414.3624,-666.9375 528.9748,-681 626,-681 626,-681 626,-681 1070,-681 1127.8427,-681 1143.4399,-662.0564 1187,-624 1208.7221,-605.0224 1201.5605,-589.2963 1223,-570 1227.5666,-565.8899 1232.8726,-562.208 1238.3083,-558.9831"/>
<polygon fill="#000000" stroke="#000000" points="1240.3634,-561.8493 1247.471,-553.9922 1237.015,-555.702 1240.3634,-561.8493"/>
</g>
<!-- 139748203320656&#45;&gt;139748203321832 -->
<g id="edge69" class="edge">
<title>139748203320656&#45;&gt;139748203321832</title>
<path fill="none" stroke="#000000" d="M1183.7245,-491.468C1199.4545,-500.3978 1220.3982,-512.2872 1238.2045,-522.3955"/>
<polygon fill="#000000" stroke="#000000" points="1236.7615,-525.601 1247.1858,-527.4941 1240.2173,-519.5135 1236.7615,-525.601"/>
</g>
</g>
</svg>
