<?xml version="1.0" encoding="UTF-8" standalone="no"?>
<!DOCTYPE svg PUBLIC "-//W3C//DTD SVG 1.1//EN"
 "http://www.w3.org/Graphics/SVG/1.1/DTD/svg11.dtd">
<!-- Generated by graphviz version 2.40.1 (20161225.0304)
 -->
<!-- Title: %3 Pages: 1 -->
<svg width="1594pt" height="978pt"
 viewBox="0.00 0.00 1594.00 978.00" xmlns="http://www.w3.org/2000/svg" xmlns:xlink="http://www.w3.org/1999/xlink">
<g id="graph0" class="graph" transform="scale(1 1) rotate(0) translate(4 974)">
<title>%3</title>
<!-- 139748204302064 -->
<g id="node1" class="node">
<title>139748204302064</title>
<polygon fill="none" stroke="#000000" points="655.5,-906 514.5,-906 514.5,-870 655.5,-870 655.5,-906"/>
<text text-anchor="middle" x="585" y="-884.3" font-family="Times,serif" font-size="14.00" fill="#000000">ActionDecoder:decode</text>
</g>
<!-- 139748205691792 -->
<g id="node34" class="node">
<title>139748205691792</title>
<ellipse fill="none" stroke="#000000" cx="796" cy="-869" rx="27" ry="27"/>
<text text-anchor="middle" x="796" y="-865.3" font-family="Times,serif" font-size="14.00" fill="#000000">intplace_ActionDecoder:decode</text>
</g>
<!-- 139748204302064&#45;&gt;139748205691792 -->
<g id="edge1" class="edge">
<title>139748204302064&#45;&gt;139748205691792</title>
<path fill="none" stroke="#000000" d="M655.5533,-881.6469C690.0786,-878.5379 730.2331,-874.9221 758.7419,-872.355"/>
<polygon fill="#000000" stroke="#000000" points="759.4162,-875.8085 769.062,-871.4257 758.7883,-868.8367 759.4162,-875.8085"/>
</g>
<!-- 139748204299152 -->
<g id="node2" class="node">
<title>139748204299152</title>
<polygon fill="none" stroke="#000000" points="272,-197 129,-197 129,-161 272,-161 272,-197"/>
<text text-anchor="middle" x="200.5" y="-175.3" font-family="Times,serif" font-size="14.00" fill="#000000">ActionDecoder:destroy</text>
</g>
<!-- 139748205812984 -->
<g id="node50" class="node">
<title>139748205812984</title>
<ellipse fill="none" stroke="#000000" cx="374" cy="-171" rx="27" ry="27"/>
<text text-anchor="middle" x="374" y="-167.3" font-family="Times,serif" font-size="14.00" fill="#000000">splace_in_Root_1</text>
</g>
<!-- 139748204299152&#45;&gt;139748205812984 -->
<g id="edge2" class="edge">
<title>139748204299152&#45;&gt;139748205812984</title>
<path fill="none" stroke="#000000" d="M272.0708,-175.6999C294.1782,-174.6805 317.6431,-173.5986 336.4792,-172.7301"/>
<polygon fill="#000000" stroke="#000000" points="336.8806,-176.2154 346.7087,-172.2584 336.5581,-169.2228 336.8806,-176.2154"/>
</g>
<!-- 139748204300664 -->
<g id="node3" class="node">
<title>139748204300664</title>
<polygon fill="none" stroke="#000000" points="261,-130 140,-130 140,-94 261,-94 261,-130"/>
<text text-anchor="middle" x="200.5" y="-108.3" font-family="Times,serif" font-size="14.00" fill="#000000">ActionDecoder:init</text>
</g>
<!-- 139748205810800 -->
<g id="node51" class="node">
<title>139748205810800</title>
<ellipse fill="none" stroke="#000000" cx="374" cy="-99" rx="27" ry="27"/>
<text text-anchor="middle" x="374" y="-95.3" font-family="Times,serif" font-size="14.00" fill="#000000">splace_in_Root_2</text>
</g>
<!-- 139748204300664&#45;&gt;139748205810800 -->
<g id="edge3" class="edge">
<title>139748204300664&#45;&gt;139748205810800</title>
<path fill="none" stroke="#000000" d="M261.1819,-107.4532C286.3752,-105.5655 314.8021,-103.4356 336.8184,-101.7859"/>
<polygon fill="#000000" stroke="#000000" points="337.3586,-105.2554 347.0691,-101.0179 336.8355,-98.2749 337.3586,-105.2554"/>
</g>
<!-- 139748205746048 -->
<g id="node4" class="node">
<title>139748205746048</title>
<polygon fill="none" stroke="#000000" points="283,-49 118,-49 118,-13 283,-13 283,-49"/>
<text text-anchor="middle" x="200.5" y="-27.3" font-family="Times,serif" font-size="14.00" fill="#000000">ActionDecoder:willDecode</text>
</g>
<!-- 139748205692800 -->
<g id="node52" class="node">
<title>139748205692800</title>
<ellipse fill="none" stroke="#000000" cx="374" cy="-27" rx="27" ry="27"/>
<text text-anchor="middle" x="374" y="-23.3" font-family="Times,serif" font-size="14.00" fill="#000000">splace_in_Root_3</text>
</g>
<!-- 139748205746048&#45;&gt;139748205692800 -->
<g id="edge4" class="edge">
<title>139748205746048&#45;&gt;139748205692800</title>
<path fill="none" stroke="#000000" d="M283.1849,-29.0937C301.9062,-28.6621 320.8806,-28.2247 336.61,-27.862"/>
<polygon fill="#000000" stroke="#000000" points="337.0216,-31.3536 346.9383,-27.6239 336.8602,-24.3554 337.0216,-31.3536"/>
</g>
<!-- 139748204301112 -->
<g id="node5" class="node">
<title>139748204301112</title>
<polygon fill="none" stroke="#000000" points="1280.5,-622 1074.5,-622 1074.5,-586 1280.5,-586 1280.5,-622"/>
<text text-anchor="middle" x="1177.5" y="-600.3" font-family="Times,serif" font-size="14.00" fill="#000000">ActionMessage:getDecodedAction</text>
</g>
<!-- 139748204494632 -->
<g id="node45" class="node">
<title>139748204494632</title>
<ellipse fill="none" stroke="#000000" cx="1379" cy="-687" rx="27" ry="27"/>
<text text-anchor="middle" x="1379" y="-683.3" font-family="Times,serif" font-size="14.00" fill="#000000">splace_in_MarketSummaryWebSocket:sendMarketSummary_0</text>
</g>
<!-- 139748204301112&#45;&gt;139748204494632 -->
<g id="edge5" class="edge">
<title>139748204301112&#45;&gt;139748204494632</title>
<path fill="none" stroke="#000000" d="M1221.2225,-622.0098C1258.0944,-637.1977 1310.161,-658.6445 1344.2414,-672.6826"/>
<polygon fill="#000000" stroke="#000000" points="1343.1968,-676.0375 1353.7762,-676.61 1345.8629,-669.5651 1343.1968,-676.0375"/>
</g>
<!-- 139748204299600 -->
<g id="node6" class="node">
<title>139748204299600</title>
<polygon fill="none" stroke="#000000" points="1316,-463 1039,-463 1039,-427 1316,-427 1316,-463"/>
<text text-anchor="middle" x="1177.5" y="-441.3" font-family="Times,serif" font-size="14.00" fill="#000000">MarketSummaryWebSocket:mergeJsonObjects</text>
</g>
<!-- 139748204494072 -->
<g id="node46" class="node">
<title>139748204494072</title>
<ellipse fill="none" stroke="#000000" cx="1379" cy="-424" rx="27" ry="27"/>
<text text-anchor="middle" x="1379" y="-420.3" font-family="Times,serif" font-size="14.00" fill="#000000">splace_in_MarketSummaryWebSocket:sendMarketSummary_1</text>
</g>
<!-- 139748204299600&#45;&gt;139748204494072 -->
<g id="edge6" class="edge">
<title>139748204299600&#45;&gt;139748204494072</title>
<path fill="none" stroke="#000000" d="M1316.073,-430.5582C1325.2929,-429.5973 1334.0184,-428.6879 1341.8711,-427.8695"/>
<polygon fill="#000000" stroke="#000000" points="1342.4196,-431.3314 1352.0029,-426.8136 1341.6939,-424.3691 1342.4196,-431.3314"/>
</g>
<!-- 139748204301224 -->
<g id="node7" class="node">
<title>139748204301224</title>
<polygon fill="none" stroke="#000000" points="311,-254 90,-254 90,-218 311,-218 311,-254"/>
<text text-anchor="middle" x="200.5" y="-232.3" font-family="Times,serif" font-size="14.00" fill="#000000">MarketSummaryWebSocket:onClose</text>
</g>
<!-- 139748205694704 -->
<g id="node53" class="node">
<title>139748205694704</title>
<ellipse fill="none" stroke="#000000" cx="374" cy="-243" rx="27" ry="27"/>
<text text-anchor="middle" x="374" y="-239.3" font-family="Times,serif" font-size="14.00" fill="#000000">splace_in_Root_4</text>
</g>
<!-- 139748204301224&#45;&gt;139748205694704 -->
<g id="edge7" class="edge">
<title>139748204301224&#45;&gt;139748205694704</title>
<path fill="none" stroke="#000000" d="M311.3625,-240.4728C320.3116,-240.8339 328.8888,-241.18 336.67,-241.4939"/>
<polygon fill="#000000" stroke="#000000" points="336.6145,-244.9944 346.7475,-241.9005 336.8968,-238.0001 336.6145,-244.9944"/>
</g>
<!-- 139748204300384 -->
<g id="node8" class="node">
<title>139748204300384</title>
<polygon fill="none" stroke="#000000" points="733,-418 437,-418 437,-382 733,-382 733,-418"/>
<text text-anchor="middle" x="585" y="-396.3" font-family="Times,serif" font-size="14.00" fill="#000000">MarketSummaryWebSocket:sendMarketSummary</text>
</g>
<!-- 139748206013856 -->
<g id="node35" class="node">
<title>139748206013856</title>
<ellipse fill="none" stroke="#000000" cx="796" cy="-428" rx="27" ry="27"/>
<text text-anchor="middle" x="796" y="-424.3" font-family="Times,serif" font-size="14.00" fill="#000000">intplace_MarketSummaryWebSocket:sendMarketSummary</text>
</g>
<!-- 139748204300384&#45;&gt;139748206013856 -->
<g id="edge8" class="edge">
<title>139748204300384&#45;&gt;139748206013856</title>
<path fill="none" stroke="#000000" d="M720.7178,-418.0099C734.5401,-419.8442 747.6066,-421.5781 758.8533,-423.0706"/>
<polygon fill="#000000" stroke="#000000" points="758.6704,-426.5769 769.0439,-424.4229 759.5913,-419.6377 758.6704,-426.5769"/>
</g>
<!-- 139748204298704 -->
<g id="node9" class="node">
<title>139748204298704</title>
<polygon fill="none" stroke="#000000" points="1276,-393 1079,-393 1079,-357 1276,-357 1276,-393"/>
<text text-anchor="middle" x="1177.5" y="-371.3" font-family="Times,serif" font-size="14.00" fill="#000000">RecentStockChangeList:isEmpty</text>
</g>
<!-- 139748204493232 -->
<g id="node47" class="node">
<title>139748204493232</title>
<ellipse fill="none" stroke="#000000" cx="1379" cy="-278" rx="27" ry="27"/>
<text text-anchor="middle" x="1379" y="-274.3" font-family="Times,serif" font-size="14.00" fill="#000000">splace_in_MarketSummaryWebSocket:sendMarketSummary_2</text>
</g>
<!-- 139748204298704&#45;&gt;139748204493232 -->
<g id="edge9" class="edge">
<title>139748204298704&#45;&gt;139748204493232</title>
<path fill="none" stroke="#000000" d="M1214.9284,-356.9824C1252.3311,-338.9771 1309.3142,-311.546 1345.3326,-294.2071"/>
<polygon fill="#000000" stroke="#000000" points="1346.9652,-297.3057 1354.4574,-289.8145 1343.929,-290.9984 1346.9652,-297.3057"/>
</g>
<!-- 139748204301952 -->
<g id="node10" class="node">
<title>139748204301952</title>
<polygon fill="none" stroke="#000000" points="1312,-559 1043,-559 1043,-523 1312,-523 1312,-559"/>
<text text-anchor="middle" x="1177.5" y="-537.3" font-family="Times,serif" font-size="14.00" fill="#000000">RecentStockChangeList:stockChangesInJSON</text>
</g>
<!-- 139748205693920 -->
<g id="node48" class="node">
<title>139748205693920</title>
<ellipse fill="none" stroke="#000000" cx="1379" cy="-564" rx="27" ry="27"/>
<text text-anchor="middle" x="1379" y="-560.3" font-family="Times,serif" font-size="14.00" fill="#000000">splace_in_MarketSummaryWebSocket:sendMarketSummary_3</text>
</g>
<!-- 139748204301952&#45;&gt;139748205693920 -->
<g id="edge10" class="edge">
<title>139748204301952&#45;&gt;139748205693920</title>
<path fill="none" stroke="#000000" d="M1312.1833,-556.3733C1322.9386,-557.6009 1333.1097,-558.7619 1342.1208,-559.7905"/>
<polygon fill="#000000" stroke="#000000" points="1341.7992,-563.2764 1352.1317,-560.9331 1342.5932,-556.3216 1341.7992,-563.2764"/>
</g>
<!-- 139748204299992 -->
<g id="node11" class="node">
<title>139748204299992</title>
<polygon fill="none" stroke="#000000" points="1496,-170 1442,-170 1442,-134 1496,-134 1496,-170"/>
<text text-anchor="middle" x="1469" y="-148.3" font-family="Times,serif" font-size="14.00" fill="#000000">Root</text>
</g>
<!-- 139748205746496 -->
<g id="node55" class="node">
<title>139748205746496</title>
<ellipse fill="#ffa500" stroke="#000000" cx="1559" cy="-152" rx="27" ry="27"/>
</g>
<!-- 139748204299992&#45;&gt;139748205746496 -->
<g id="edge11" class="edge">
<title>139748204299992&#45;&gt;139748205746496</title>
<path fill="none" stroke="#000000" d="M1496.003,-152C1504.0277,-152 1512.9665,-152 1521.5309,-152"/>
<polygon fill="#000000" stroke="#000000" points="1521.7051,-155.5001 1531.705,-152 1521.705,-148.5001 1521.7051,-155.5001"/>
</g>
<!-- 139748204301056 -->
<g id="node12" class="node">
<title>139748204301056</title>
<polygon fill="none" stroke="#000000" points="1241.5,-887 1113.5,-887 1113.5,-851 1241.5,-851 1241.5,-887"/>
<text text-anchor="middle" x="1177.5" y="-865.3" font-family="Times,serif" font-size="14.00" fill="#000000">new ActionMessage</text>
</g>
<!-- 139748204368168 -->
<g id="node44" class="node">
<title>139748204368168</title>
<ellipse fill="none" stroke="#000000" cx="1379" cy="-869" rx="27" ry="27"/>
<text text-anchor="middle" x="1379" y="-865.3" font-family="Times,serif" font-size="14.00" fill="#000000">splace_in_ActionDecoder:decode_0</text>
</g>
<!-- 139748204301056&#45;&gt;139748204368168 -->
<g id="edge39" class="edge">
<title>139748204301056&#45;&gt;139748204368168</title>
<path fill="none" stroke="#000000" d="M1241.5327,-869C1274.5382,-869 1313.6341,-869 1341.6784,-869"/>
<polygon fill="#000000" stroke="#000000" points="1341.8498,-872.5001 1351.8498,-869 1341.8497,-865.5001 1341.8498,-872.5001"/>
</g>
<!-- 139748205809848 -->
<g id="node13" class="node">
<title>139748205809848</title>
<polygon fill="none" stroke="#000000" points="1204.5,-714 1150.5,-714 1150.5,-678 1204.5,-678 1204.5,-714"/>
<text text-anchor="middle" x="1177.5" y="-692.3" font-family="Times,serif" font-size="14.00" fill="#000000">hid_1</text>
</g>
<!-- 139748205811528 -->
<g id="node42" class="node">
<title>139748205811528</title>
<ellipse fill="none" stroke="#000000" cx="1379" cy="-152" rx="27" ry="27"/>
<text text-anchor="middle" x="1379" y="-148.3" font-family="Times,serif" font-size="14.00" fill="#000000">pre_Root</text>
</g>
<!-- 139748205809848&#45;&gt;139748205811528 -->
<g id="edge12" class="edge">
<title>139748205809848&#45;&gt;139748205811528</title>
<path fill="none" stroke="#000000" d="M1204.5352,-691.5552C1236.8722,-684.6869 1289.9007,-668.1728 1316,-631 1365.885,-559.9498 1335.4451,-327.2208 1352,-242 1355.5551,-223.6994 1361.3167,-203.8026 1366.6064,-187.3816"/>
<polygon fill="#000000" stroke="#000000" points="1370.0071,-188.2448 1369.8151,-177.6517 1363.3592,-186.0525 1370.0071,-188.2448"/>
</g>
<!-- 139748204493960 -->
<g id="node14" class="node">
<title>139748204493960</title>
<polygon fill="none" stroke="#000000" points="1496,-415 1442,-415 1442,-379 1496,-379 1496,-415"/>
<text text-anchor="middle" x="1469" y="-393.3" font-family="Times,serif" font-size="14.00" fill="#000000">hid_10</text>
</g>
<!-- 139748204493680 -->
<g id="node39" class="node">
<title>139748204493680</title>
<ellipse fill="none" stroke="#000000" cx="374" cy="-367" rx="27" ry="27"/>
<text text-anchor="middle" x="374" y="-363.3" font-family="Times,serif" font-size="14.00" fill="#000000">pre_MarketSummaryWebSocket:sendMarketSummary</text>
</g>
<!-- 139748204493960&#45;&gt;139748204493680 -->
<g id="edge13" class="edge">
<title>139748204493960&#45;&gt;139748204493680</title>
<path fill="none" stroke="#000000" d="M1441.9851,-386.9966C1411.6812,-376.0941 1360.8863,-358.7703 1316,-348 1194.7174,-318.8987 1155.5182,-347.4956 1039,-303 1021.2626,-296.2265 1020.7376,-286.773 1003,-280 953.7847,-261.2075 938.6812,-261 886,-261 796,-261 796,-261 796,-261 648.0999,-261 479.5889,-323.0028 408.5054,-352.1679"/>
<polygon fill="#000000" stroke="#000000" points="407.0297,-348.9907 399.1341,-356.0554 409.712,-355.4565 407.0297,-348.9907"/>
</g>
<!-- 139748204493792 -->
<g id="node15" class="node">
<title>139748204493792</title>
<polygon fill="none" stroke="#000000" points="1496,-269 1442,-269 1442,-233 1496,-233 1496,-269"/>
<text text-anchor="middle" x="1469" y="-247.3" font-family="Times,serif" font-size="14.00" fill="#000000">hid_11</text>
</g>
<!-- 139748204493792&#45;&gt;139748204493680 -->
<g id="edge14" class="edge">
<title>139748204493792&#45;&gt;139748204493680</title>
<path fill="none" stroke="#000000" d="M1441.7557,-246.625C1390.2757,-238.75 1275.1139,-223 1177.5,-223 796,-223 796,-223 796,-223 635.5057,-223 572.1814,-175.4876 437,-262 411.9773,-278.0138 395.5003,-307.8331 385.6955,-331.6135"/>
<polygon fill="#000000" stroke="#000000" points="382.3893,-330.4586 382.018,-341.047 388.9112,-333.0012 382.3893,-330.4586"/>
</g>
<!-- 139748205694032 -->
<g id="node16" class="node">
<title>139748205694032</title>
<polygon fill="none" stroke="#000000" points="1496,-623 1442,-623 1442,-587 1496,-587 1496,-623"/>
<text text-anchor="middle" x="1469" y="-601.3" font-family="Times,serif" font-size="14.00" fill="#000000">hid_12</text>
</g>
<!-- 139748205694032&#45;&gt;139748204493680 -->
<g id="edge15" class="edge">
<title>139748205694032&#45;&gt;139748204493680</title>
<path fill="none" stroke="#000000" d="M1441.7608,-610.5044C1411.2581,-616.4634 1360.288,-625.8091 1316,-631 1125.7862,-653.2946 1077.5159,-659 886,-659 796,-659 796,-659 796,-659 613.7035,-659 453.2265,-472.4588 396.1477,-397.5717"/>
<polygon fill="#000000" stroke="#000000" points="398.8259,-395.3098 390.0138,-389.4279 393.2345,-399.5213 398.8259,-395.3098"/>
</g>
<!-- 139748205693472 -->
<g id="node17" class="node">
<title>139748205693472</title>
<polygon fill="none" stroke="#000000" points="227.5,-373 173.5,-373 173.5,-337 227.5,-337 227.5,-373"/>
<text text-anchor="middle" x="200.5" y="-351.3" font-family="Times,serif" font-size="14.00" fill="#000000">hid_13</text>
</g>
<!-- 139748205693472&#45;&gt;139748204493680 -->
<g id="edge16" class="edge">
<title>139748205693472&#45;&gt;139748204493680</title>
<path fill="none" stroke="#000000" d="M227.6094,-356.875C256.9351,-358.9033 303.8848,-362.1505 336.6838,-364.419"/>
<polygon fill="#000000" stroke="#000000" points="336.5776,-367.92 346.7953,-365.1184 337.0606,-360.9367 336.5776,-367.92"/>
</g>
<!-- 139748205691288 -->
<g id="node18" class="node">
<title>139748205691288</title>
<polygon fill="none" stroke="#000000" points="913,-824 859,-824 859,-788 913,-788 913,-824"/>
<text text-anchor="middle" x="886" y="-802.3" font-family="Times,serif" font-size="14.00" fill="#000000">hid_14</text>
</g>
<!-- 139748205810016 -->
<g id="node49" class="node">
<title>139748205810016</title>
<ellipse fill="none" stroke="#000000" cx="976" cy="-797" rx="27" ry="27"/>
<text text-anchor="middle" x="976" y="-793.3" font-family="Times,serif" font-size="14.00" fill="#000000">splace_in_Root_0</text>
</g>
<!-- 139748205691288&#45;&gt;139748205810016 -->
<g id="edge17" class="edge">
<title>139748205691288&#45;&gt;139748205810016</title>
<path fill="none" stroke="#000000" d="M913.003,-803.2997C921.1903,-802.481 930.3292,-801.5671 939.051,-800.6949"/>
<polygon fill="#000000" stroke="#000000" points="939.414,-804.1761 949.0161,-799.6984 938.7174,-797.2109 939.414,-804.1761"/>
</g>
<!-- 139748206014416 -->
<g id="node19" class="node">
<title>139748206014416</title>
<polygon fill="none" stroke="#000000" points="913,-887 859,-887 859,-851 913,-851 913,-887"/>
<text text-anchor="middle" x="886" y="-865.3" font-family="Times,serif" font-size="14.00" fill="#000000">hid_15</text>
</g>
<!-- 139748204370128 -->
<g id="node43" class="node">
<title>139748204370128</title>
<ellipse fill="none" stroke="#000000" cx="976" cy="-869" rx="27" ry="27"/>
<text text-anchor="middle" x="976" y="-865.3" font-family="Times,serif" font-size="14.00" fill="#000000">pre_new ActionMessage</text>
</g>
<!-- 139748206014416&#45;&gt;139748204370128 -->
<g id="edge18" class="edge">
<title>139748206014416&#45;&gt;139748204370128</title>
<path fill="none" stroke="#000000" d="M913.003,-869C921.0277,-869 929.9665,-869 938.5309,-869"/>
<polygon fill="#000000" stroke="#000000" points="938.7051,-872.5001 948.705,-869 938.705,-865.5001 938.7051,-872.5001"/>
</g>
<!-- 139748206013464 -->
<g id="node20" class="node">
<title>139748206013464</title>
<polygon fill="none" stroke="#000000" points="913,-607 859,-607 859,-571 913,-571 913,-607"/>
<text text-anchor="middle" x="886" y="-585.3" font-family="Times,serif" font-size="14.00" fill="#000000">hid_16</text>
</g>
<!-- 139748204492448 -->
<g id="node37" class="node">
<title>139748204492448</title>
<ellipse fill="none" stroke="#000000" cx="976" cy="-604" rx="27" ry="27"/>
<text text-anchor="middle" x="976" y="-600.3" font-family="Times,serif" font-size="14.00" fill="#000000">pre_ActionMessage:getDecodedAction</text>
</g>
<!-- 139748206013464&#45;&gt;139748204492448 -->
<g id="edge19" class="edge">
<title>139748206013464&#45;&gt;139748204492448</title>
<path fill="none" stroke="#000000" d="M913.003,-593.5005C921.2647,-594.8775 930.4954,-596.4159 939.2888,-597.8815"/>
<polygon fill="#000000" stroke="#000000" points="938.8869,-601.3627 949.3262,-599.5544 940.0377,-594.4579 938.8869,-601.3627"/>
</g>
<!-- 139748206013744 -->
<g id="node21" class="node">
<title>139748206013744</title>
<polygon fill="none" stroke="#000000" points="913,-473 859,-473 859,-437 913,-437 913,-473"/>
<text text-anchor="middle" x="886" y="-451.3" font-family="Times,serif" font-size="14.00" fill="#000000">hid_17</text>
</g>
<!-- 139748205692464 -->
<g id="node38" class="node">
<title>139748205692464</title>
<ellipse fill="none" stroke="#000000" cx="976" cy="-460" rx="27" ry="27"/>
<text text-anchor="middle" x="976" y="-456.3" font-family="Times,serif" font-size="14.00" fill="#000000">pre_MarketSummaryWebSocket:mergeJsonObjects</text>
</g>
<!-- 139748206013744&#45;&gt;139748205692464 -->
<g id="edge20" class="edge">
<title>139748206013744&#45;&gt;139748205692464</title>
<path fill="none" stroke="#000000" d="M913.003,-456.5002C921.1013,-456.9501 930.1306,-457.4517 938.7665,-457.9315"/>
<polygon fill="#000000" stroke="#000000" points="938.8373,-461.4407 949.0161,-458.5009 939.2257,-454.4515 938.8373,-461.4407"/>
</g>
<!-- 139748206013016 -->
<g id="node22" class="node">
<title>139748206013016</title>
<polygon fill="none" stroke="#000000" points="913,-415 859,-415 859,-379 913,-379 913,-415"/>
<text text-anchor="middle" x="886" y="-393.3" font-family="Times,serif" font-size="14.00" fill="#000000">hid_18</text>
</g>
<!-- 139748205693248 -->
<g id="node40" class="node">
<title>139748205693248</title>
<ellipse fill="none" stroke="#000000" cx="976" cy="-388" rx="27" ry="27"/>
<text text-anchor="middle" x="976" y="-384.3" font-family="Times,serif" font-size="14.00" fill="#000000">pre_RecentStockChangeList:isEmpty</text>
</g>
<!-- 139748206013016&#45;&gt;139748205693248 -->
<g id="edge21" class="edge">
<title>139748206013016&#45;&gt;139748205693248</title>
<path fill="none" stroke="#000000" d="M913.003,-394.2997C921.1903,-393.481 930.3292,-392.5671 939.051,-391.6949"/>
<polygon fill="#000000" stroke="#000000" points="939.414,-395.1761 949.0161,-390.6984 938.7174,-388.2109 939.414,-395.1761"/>
</g>
<!-- 139748206012624 -->
<g id="node23" class="node">
<title>139748206012624</title>
<polygon fill="none" stroke="#000000" points="913,-538 859,-538 859,-502 913,-502 913,-538"/>
<text text-anchor="middle" x="886" y="-516.3" font-family="Times,serif" font-size="14.00" fill="#000000">hid_19</text>
</g>
<!-- 139748205692576 -->
<g id="node41" class="node">
<title>139748205692576</title>
<ellipse fill="none" stroke="#000000" cx="976" cy="-532" rx="27" ry="27"/>
<text text-anchor="middle" x="976" y="-528.3" font-family="Times,serif" font-size="14.00" fill="#000000">pre_RecentStockChangeList:stockChangesInJSON</text>
</g>
<!-- 139748206012624&#45;&gt;139748205692576 -->
<g id="edge22" class="edge">
<title>139748206012624&#45;&gt;139748205692576</title>
<path fill="none" stroke="#000000" d="M913.003,-523.6004C921.1903,-524.692 930.3292,-525.9106 939.051,-527.0735"/>
<polygon fill="#000000" stroke="#000000" points="938.6412,-530.5497 949.0161,-528.4021 939.5664,-523.6111 938.6412,-530.5497"/>
</g>
<!-- 139748205811192 -->
<g id="node24" class="node">
<title>139748205811192</title>
<polygon fill="none" stroke="#000000" points="823,-153 769,-153 769,-117 823,-117 823,-153"/>
<text text-anchor="middle" x="796" y="-131.3" font-family="Times,serif" font-size="14.00" fill="#000000">hid_2</text>
</g>
<!-- 139748205811192&#45;&gt;139748205811528 -->
<g id="edge23" class="edge">
<title>139748205811192&#45;&gt;139748205811528</title>
<path fill="none" stroke="#000000" d="M823.3373,-135.7971C918.1086,-138.5606 1232.6944,-147.7338 1341.5476,-150.9079"/>
<polygon fill="#000000" stroke="#000000" points="1341.624,-154.4115 1351.7218,-151.2046 1341.8281,-147.4145 1341.624,-154.4115"/>
</g>
<!-- 139748206012400 -->
<g id="node25" class="node">
<title>139748206012400</title>
<polygon fill="none" stroke="#000000" points="913,-347 859,-347 859,-311 913,-311 913,-347"/>
<text text-anchor="middle" x="886" y="-325.3" font-family="Times,serif" font-size="14.00" fill="#000000">hid_20</text>
</g>
<!-- 139748204368000 -->
<g id="node54" class="node">
<title>139748204368000</title>
<ellipse fill="none" stroke="#000000" cx="976" cy="-316" rx="27" ry="27"/>
<text text-anchor="middle" x="976" y="-312.3" font-family="Times,serif" font-size="14.00" fill="#000000">splace_in_Root_5</text>
</g>
<!-- 139748206012400&#45;&gt;139748204368000 -->
<g id="edge24" class="edge">
<title>139748206012400&#45;&gt;139748204368000</title>
<path fill="none" stroke="#000000" d="M913.003,-325.0996C921.1903,-323.917 930.3292,-322.5969 939.051,-321.3371"/>
<polygon fill="#000000" stroke="#000000" points="939.6192,-324.7914 949.0161,-319.8977 938.6184,-317.8633 939.6192,-324.7914"/>
</g>
<!-- 139748205813656 -->
<g id="node26" class="node">
<title>139748205813656</title>
<polygon fill="none" stroke="#000000" points="823,-99 769,-99 769,-63 823,-63 823,-99"/>
<text text-anchor="middle" x="796" y="-77.3" font-family="Times,serif" font-size="14.00" fill="#000000">hid_3</text>
</g>
<!-- 139748205813656&#45;&gt;139748205811528 -->
<g id="edge25" class="edge">
<title>139748205813656&#45;&gt;139748205811528</title>
<path fill="none" stroke="#000000" d="M823.1858,-83.14C900.5598,-89.4225 1128.4929,-109.2621 1316,-139 1324.6414,-140.3705 1333.8939,-142.1197 1342.5743,-143.8874"/>
<polygon fill="#000000" stroke="#000000" points="1341.9257,-147.3274 1352.4306,-145.9495 1343.3593,-140.4758 1341.9257,-147.3274"/>
</g>
<!-- 139748205692688 -->
<g id="node27" class="node">
<title>139748205692688</title>
<polygon fill="none" stroke="#000000" points="612,-46 558,-46 558,-10 612,-10 612,-46"/>
<text text-anchor="middle" x="585" y="-24.3" font-family="Times,serif" font-size="14.00" fill="#000000">hid_4</text>
</g>
<!-- 139748205692688&#45;&gt;139748205811528 -->
<g id="edge26" class="edge">
<title>139748205692688&#45;&gt;139748205811528</title>
<path fill="none" stroke="#000000" d="M612.3909,-28.3038C665.2781,-28.8633 785.1419,-30 886,-30 886,-30 886,-30 976,-30 1130.2805,-30 1176.8473,-33.3743 1316,-100 1329.2511,-106.3446 1342.0941,-116.0694 1352.6895,-125.3999"/>
<polygon fill="#000000" stroke="#000000" points="1350.586,-128.2196 1360.3232,-132.3955 1355.3154,-123.0589 1350.586,-128.2196"/>
</g>
<!-- 139748205691120 -->
<g id="node28" class="node">
<title>139748205691120</title>
<polygon fill="none" stroke="#000000" points="612,-195 558,-195 558,-159 612,-159 612,-195"/>
<text text-anchor="middle" x="585" y="-173.3" font-family="Times,serif" font-size="14.00" fill="#000000">hid_5</text>
</g>
<!-- 139748205691120&#45;&gt;139748205811528 -->
<g id="edge27" class="edge">
<title>139748205691120&#45;&gt;139748205811528</title>
<path fill="none" stroke="#000000" d="M612.3897,-177.6075C665.2748,-178.7265 785.1352,-181 886,-181 886,-181 886,-181 976,-181 1127.3723,-181 1165.3888,-176.1612 1316,-161 1324.4406,-160.1503 1333.4852,-159.0007 1342.0124,-157.8076"/>
<polygon fill="#000000" stroke="#000000" points="1342.6872,-161.2464 1352.0816,-156.3478 1341.6828,-154.3188 1342.6872,-161.2464"/>
</g>
<!-- 139748205694480 -->
<g id="node29" class="node">
<title>139748205694480</title>
<polygon fill="none" stroke="#000000" points="1204.5,-294 1150.5,-294 1150.5,-258 1204.5,-258 1204.5,-294"/>
<text text-anchor="middle" x="1177.5" y="-272.3" font-family="Times,serif" font-size="14.00" fill="#000000">hid_6</text>
</g>
<!-- 139748205694480&#45;&gt;139748205811528 -->
<g id="edge28" class="edge">
<title>139748205694480&#45;&gt;139748205811528</title>
<path fill="none" stroke="#000000" d="M1204.6432,-260.8681C1232.8114,-244.9927 1277.9822,-219.0505 1316,-195 1326.7539,-188.197 1338.3112,-180.4425 1348.5535,-173.4094"/>
<polygon fill="#000000" stroke="#000000" points="1350.5655,-176.2735 1356.8012,-167.708 1346.5851,-170.5153 1350.5655,-176.2735"/>
</g>
<!-- 139748204370632 -->
<g id="node30" class="node">
<title>139748204370632</title>
<polygon fill="none" stroke="#000000" points="1496,-891 1442,-891 1442,-855 1496,-855 1496,-891"/>
<text text-anchor="middle" x="1469" y="-869.3" font-family="Times,serif" font-size="14.00" fill="#000000">hid_7</text>
</g>
<!-- 139748205810856 -->
<g id="node36" class="node">
<title>139748205810856</title>
<ellipse fill="none" stroke="#000000" cx="1559" cy="-924" rx="27" ry="27"/>
<text text-anchor="middle" x="1559" y="-920.3" font-family="Times,serif" font-size="14.00" fill="#000000">pre_ActionDecoder:decode</text>
</g>
<!-- 139748204370632&#45;&gt;139748205810856 -->
<g id="edge29" class="edge">
<title>139748204370632&#45;&gt;139748205810856</title>
<path fill="none" stroke="#000000" d="M1496.003,-888.3017C1505.5964,-893.7379 1516.4963,-899.9146 1526.5008,-905.5838"/>
<polygon fill="#000000" stroke="#000000" points="1524.948,-908.7267 1535.3738,-910.6118 1528.3991,-902.6365 1524.948,-908.7267"/>
</g>
<!-- 139748202605648 -->
<g id="node31" class="node">
<title>139748202605648</title>
<polygon fill="none" stroke="#000000" points="612,-970 558,-970 558,-934 612,-934 612,-970"/>
<text text-anchor="middle" x="585" y="-948.3" font-family="Times,serif" font-size="14.00" fill="#000000">hid_8</text>
</g>
<!-- 139748202605648&#45;&gt;139748205810856 -->
<g id="edge30" class="edge">
<title>139748202605648&#45;&gt;139748205810856</title>
<path fill="none" stroke="#000000" d="M612.3812,-953.5188C665.2518,-956.3163 785.0885,-962 886,-962 886,-962 886,-962 1379,-962 1430.2355,-962 1487.9397,-947.0786 1523.887,-935.9363"/>
<polygon fill="#000000" stroke="#000000" points="1524.9527,-939.2702 1533.4256,-932.9093 1522.8353,-932.5981 1524.9527,-939.2702"/>
</g>
<!-- 139748204491272 -->
<g id="node32" class="node">
<title>139748204491272</title>
<polygon fill="none" stroke="#000000" points="1496,-732 1442,-732 1442,-696 1496,-696 1496,-732"/>
<text text-anchor="middle" x="1469" y="-710.3" font-family="Times,serif" font-size="14.00" fill="#000000">hid_9</text>
</g>
<!-- 139748204491272&#45;&gt;139748204493680 -->
<g id="edge31" class="edge">
<title>139748204491272&#45;&gt;139748204493680</title>
<path fill="none" stroke="#000000" d="M1441.7557,-718.375C1390.2757,-726.25 1275.1139,-742 1177.5,-742 796,-742 796,-742 796,-742 618.3017,-742 552.9361,-700.6682 437,-566 397.0286,-519.5704 382.3754,-447.6767 377.0327,-404.2004"/>
<polygon fill="#000000" stroke="#000000" points="380.4876,-403.6023 375.8921,-394.056 373.5315,-404.3845 380.4876,-403.6023"/>
</g>
<!-- 139748205746272 -->
<g id="node33" class="node">
<title>139748205746272</title>
<ellipse fill="#00ff00" stroke="#000000" cx="27" cy="-206" rx="27" ry="27"/>
<text text-anchor="middle" x="27" y="-202.3" font-family="Times,serif" font-size="14.00" fill="#000000">1</text>
</g>
<!-- 139748205746272&#45;&gt;139748204299152 -->
<g id="edge48" class="edge">
<title>139748205746272&#45;&gt;139748204299152</title>
<path fill="none" stroke="#000000" d="M53.7291,-201.8404C71.2787,-199.1094 95.2561,-195.378 118.7438,-191.7229"/>
<polygon fill="#000000" stroke="#000000" points="119.417,-195.1603 128.7598,-190.1642 118.3405,-188.2436 119.417,-195.1603"/>
</g>
<!-- 139748205746272&#45;&gt;139748204300664 -->
<g id="edge49" class="edge">
<title>139748205746272&#45;&gt;139748204300664</title>
<path fill="none" stroke="#000000" d="M46.0051,-186.4892C57.8296,-175.2122 73.8229,-161.4344 90,-152 102.5296,-144.6928 116.6221,-138.3592 130.4431,-133.0221"/>
<polygon fill="#000000" stroke="#000000" points="131.7937,-136.254 139.9456,-129.4866 129.3528,-129.6934 131.7937,-136.254"/>
</g>
<!-- 139748205746272&#45;&gt;139748205746048 -->
<g id="edge50" class="edge">
<title>139748205746272&#45;&gt;139748205746048</title>
<path fill="none" stroke="#000000" d="M35.1319,-179.8714C44.5957,-153.1228 62.5265,-111.7822 90,-85 103.4165,-71.9211 120.6184,-61.4638 137.4343,-53.3674"/>
<polygon fill="#000000" stroke="#000000" points="139.0813,-56.4626 146.7102,-49.1107 136.1617,-50.1005 139.0813,-56.4626"/>
</g>
<!-- 139748205746272&#45;&gt;139748204301224 -->
<g id="edge51" class="edge">
<title>139748205746272&#45;&gt;139748204301224</title>
<path fill="none" stroke="#000000" d="M53.7291,-210.6218C63.0119,-212.2268 74.093,-214.1429 85.9488,-216.1929"/>
<polygon fill="#000000" stroke="#000000" points="85.6172,-219.6874 96.0674,-217.9425 86.81,-212.7898 85.6172,-219.6874"/>
</g>
<!-- 139748205746272&#45;&gt;139748205693472 -->
<g id="edge52" class="edge">
<title>139748205746272&#45;&gt;139748205693472</title>
<path fill="none" stroke="#000000" d="M46.9559,-224.4388C59.2533,-235.705 75.4082,-250.334 90,-263 116.8632,-286.318 148.0584,-312.1826 170.4393,-330.5336"/>
<polygon fill="#000000" stroke="#000000" points="168.3065,-333.3108 178.2618,-336.936 172.74,-327.8938 168.3065,-333.3108"/>
</g>
<!-- 139748205746272&#45;&gt;139748202605648 -->
<g id="edge53" class="edge">
<title>139748205746272&#45;&gt;139748202605648</title>
<path fill="none" stroke="#000000" d="M33.6424,-232.2619C61.7512,-337.6309 181.4161,-732.7919 437,-915 469.7449,-938.3441 515.7104,-947.0128 547.695,-950.2024"/>
<polygon fill="#000000" stroke="#000000" points="547.7032,-953.716 557.9667,-951.0873 548.3041,-946.7418 547.7032,-953.716"/>
</g>
<!-- 139748205691792&#45;&gt;139748205691288 -->
<g id="edge32" class="edge">
<title>139748205691792&#45;&gt;139748205691288</title>
<path fill="none" stroke="#000000" d="M818.2472,-853.427C828.3684,-846.3421 840.5735,-837.7985 851.8201,-829.9259"/>
<polygon fill="#000000" stroke="#000000" points="853.998,-832.6737 860.1832,-824.0717 849.9838,-826.9391 853.998,-832.6737"/>
</g>
<!-- 139748205691792&#45;&gt;139748206014416 -->
<g id="edge33" class="edge">
<title>139748205691792&#45;&gt;139748206014416</title>
<path fill="none" stroke="#000000" d="M823.003,-869C831.0277,-869 839.9665,-869 848.5309,-869"/>
<polygon fill="#000000" stroke="#000000" points="848.7051,-872.5001 858.705,-869 848.705,-865.5001 848.7051,-872.5001"/>
</g>
<!-- 139748206013856&#45;&gt;139748206013464 -->
<g id="edge34" class="edge">
<title>139748206013856&#45;&gt;139748206013464</title>
<path fill="none" stroke="#000000" d="M808.1996,-452.4878C820.4795,-476.7799 840.2384,-514.9143 859,-547 861.8988,-551.9575 865.1055,-557.1619 868.2666,-562.1534"/>
<polygon fill="#000000" stroke="#000000" points="865.4791,-564.2899 873.8309,-570.809 871.3674,-560.5045 865.4791,-564.2899"/>
</g>
<!-- 139748206013856&#45;&gt;139748206013744 -->
<g id="edge35" class="edge">
<title>139748206013856&#45;&gt;139748206013744</title>
<path fill="none" stroke="#000000" d="M822.0317,-435.8095C830.4955,-438.3486 840.055,-441.2165 849.1543,-443.9463"/>
<polygon fill="#000000" stroke="#000000" points="848.1898,-447.311 858.7738,-446.8321 850.2013,-440.6062 848.1898,-447.311"/>
</g>
<!-- 139748206013856&#45;&gt;139748206013016 -->
<g id="edge36" class="edge">
<title>139748206013856&#45;&gt;139748206013016</title>
<path fill="none" stroke="#000000" d="M821.5497,-419.1996C830.1894,-416.2236 840.0137,-412.8397 849.3423,-409.6265"/>
<polygon fill="#000000" stroke="#000000" points="850.4989,-412.93 858.8139,-406.3641 848.2192,-406.3116 850.4989,-412.93"/>
</g>
<!-- 139748206013856&#45;&gt;139748206012624 -->
<g id="edge37" class="edge">
<title>139748206013856&#45;&gt;139748206012624</title>
<path fill="none" stroke="#000000" d="M815.0867,-447.5108C828.4444,-461.1654 846.4231,-479.5436 860.9351,-494.3781"/>
<polygon fill="#000000" stroke="#000000" points="858.6702,-497.068 868.1651,-501.7688 863.6741,-492.1729 858.6702,-497.068"/>
</g>
<!-- 139748206013856&#45;&gt;139748206012400 -->
<g id="edge38" class="edge">
<title>139748206013856&#45;&gt;139748206012400</title>
<path fill="none" stroke="#000000" d="M814.2128,-407.9659C828.1613,-392.6225 847.5085,-371.3406 862.6035,-354.7361"/>
<polygon fill="#000000" stroke="#000000" points="865.493,-356.7609 869.6299,-347.0071 860.3134,-352.0521 865.493,-356.7609"/>
</g>
<!-- 139748205810856&#45;&gt;139748204302064 -->
<g id="edge40" class="edge">
<title>139748205810856&#45;&gt;139748204302064</title>
<path fill="none" stroke="#000000" d="M1531.8597,-924C1496.624,-924 1433.2188,-924 1379,-924 886,-924 886,-924 886,-924 811.0001,-924 726.2274,-912.8445 665.8029,-902.9533"/>
<polygon fill="#000000" stroke="#000000" points="666.0056,-899.439 655.567,-901.2517 664.8577,-906.3443 666.0056,-899.439"/>
</g>
<!-- 139748204492448&#45;&gt;139748204301112 -->
<g id="edge41" class="edge">
<title>139748204492448&#45;&gt;139748204301112</title>
<path fill="none" stroke="#000000" d="M1003.1752,-604C1019.4574,-604 1041.3767,-604 1064.1687,-604"/>
<polygon fill="#000000" stroke="#000000" points="1064.329,-607.5001 1074.3289,-604 1064.3289,-600.5001 1064.329,-607.5001"/>
</g>
<!-- 139748205692464&#45;&gt;139748204299600 -->
<g id="edge42" class="edge">
<title>139748205692464&#45;&gt;139748204299600</title>
<path fill="none" stroke="#000000" d="M1003.1752,-457.977C1010.6697,-457.4191 1019.3584,-456.7723 1028.7769,-456.0712"/>
<polygon fill="#000000" stroke="#000000" points="1029.124,-459.5551 1038.8365,-455.3223 1028.6043,-452.5745 1029.124,-459.5551"/>
</g>
<!-- 139748204493680&#45;&gt;139748204300384 -->
<g id="edge43" class="edge">
<title>139748204493680&#45;&gt;139748204300384</title>
<path fill="none" stroke="#000000" d="M400.7233,-371.1795C416.3722,-373.6269 437.3936,-376.9146 459.6372,-380.3935"/>
<polygon fill="#000000" stroke="#000000" points="459.1582,-383.8611 469.579,-381.9484 460.2399,-376.9451 459.1582,-383.8611"/>
</g>
<!-- 139748205693248&#45;&gt;139748204298704 -->
<g id="edge44" class="edge">
<title>139748205693248&#45;&gt;139748204298704</title>
<path fill="none" stroke="#000000" d="M1003.1752,-386.2468C1020.5476,-385.126 1044.3372,-383.5911 1068.7571,-382.0157"/>
<polygon fill="#000000" stroke="#000000" points="1069.1175,-385.4998 1078.8714,-381.3631 1068.6667,-378.5143 1069.1175,-385.4998"/>
</g>
<!-- 139748205692576&#45;&gt;139748204301952 -->
<g id="edge45" class="edge">
<title>139748205692576&#45;&gt;139748204301952</title>
<path fill="none" stroke="#000000" d="M1003.1752,-533.2138C1011.6465,-533.5922 1021.6438,-534.0387 1032.496,-534.5234"/>
<polygon fill="#000000" stroke="#000000" points="1032.5372,-538.0286 1042.6834,-534.9784 1032.8496,-531.0356 1032.5372,-538.0286"/>
</g>
<!-- 139748205811528&#45;&gt;139748204299992 -->
<g id="edge46" class="edge">
<title>139748205811528&#45;&gt;139748204299992</title>
<path fill="none" stroke="#000000" d="M1406.003,-152C1414.0277,-152 1422.9665,-152 1431.5309,-152"/>
<polygon fill="#000000" stroke="#000000" points="1431.7051,-155.5001 1441.705,-152 1431.705,-148.5001 1431.7051,-155.5001"/>
</g>
<!-- 139748204370128&#45;&gt;139748204301056 -->
<g id="edge47" class="edge">
<title>139748204370128&#45;&gt;139748204301056</title>
<path fill="none" stroke="#000000" d="M1003.1752,-869C1028.6937,-869 1068.0588,-869 1102.9285,-869"/>
<polygon fill="#000000" stroke="#000000" points="1103.1057,-872.5001 1113.1056,-869 1103.1056,-865.5001 1103.1057,-872.5001"/>
</g>
<!-- 139748204368168&#45;&gt;139748204370632 -->
<g id="edge54" class="edge">
<title>139748204368168&#45;&gt;139748204370632</title>
<path fill="none" stroke="#000000" d="M1406.003,-870.2001C1414.0277,-870.5568 1422.9665,-870.9541 1431.5309,-871.3347"/>
<polygon fill="#000000" stroke="#000000" points="1431.5595,-874.8393 1441.705,-871.7869 1431.8703,-867.8462 1431.5595,-874.8393"/>
</g>
<!-- 139748204494632&#45;&gt;139748204491272 -->
<g id="edge55" class="edge">
<title>139748204494632&#45;&gt;139748204491272</title>
<path fill="none" stroke="#000000" d="M1405.0317,-694.8095C1413.4955,-697.3486 1423.055,-700.2165 1432.1543,-702.9463"/>
<polygon fill="#000000" stroke="#000000" points="1431.1898,-706.311 1441.7738,-705.8321 1433.2013,-699.6062 1431.1898,-706.311"/>
</g>
<!-- 139748204494072&#45;&gt;139748204493960 -->
<g id="edge56" class="edge">
<title>139748204494072&#45;&gt;139748204493960</title>
<path fill="none" stroke="#000000" d="M1405.0317,-416.1905C1413.4955,-413.6514 1423.055,-410.7835 1432.1543,-408.0537"/>
<polygon fill="#000000" stroke="#000000" points="1433.2013,-411.3938 1441.7738,-405.1679 1431.1898,-404.689 1433.2013,-411.3938"/>
</g>
<!-- 139748204493232&#45;&gt;139748204493792 -->
<g id="edge57" class="edge">
<title>139748204493232&#45;&gt;139748204493792</title>
<path fill="none" stroke="#000000" d="M1405.0317,-270.1905C1413.4955,-267.6514 1423.055,-264.7835 1432.1543,-262.0537"/>
<polygon fill="#000000" stroke="#000000" points="1433.2013,-265.3938 1441.7738,-259.1679 1431.1898,-258.689 1433.2013,-265.3938"/>
</g>
<!-- 139748205693920&#45;&gt;139748205694032 -->
<g id="edge58" class="edge">
<title>139748205693920&#45;&gt;139748205694032</title>
<path fill="none" stroke="#000000" d="M1403.5929,-575.2034C1412.5854,-579.3 1422.9573,-584.025 1432.7535,-588.4877"/>
<polygon fill="#000000" stroke="#000000" points="1431.3543,-591.6963 1441.9055,-592.657 1434.2563,-585.3262 1431.3543,-591.6963"/>
</g>
<!-- 139748205810016&#45;&gt;139748205809848 -->
<g id="edge59" class="edge">
<title>139748205810016&#45;&gt;139748205809848</title>
<path fill="none" stroke="#000000" d="M1000.3056,-784.817C1035.362,-767.2453 1100.3738,-734.6588 1141.1518,-714.2192"/>
<polygon fill="#000000" stroke="#000000" points="1142.8428,-717.2867 1150.2143,-709.6767 1139.7061,-711.0288 1142.8428,-717.2867"/>
</g>
<!-- 139748205812984&#45;&gt;139748205811192 -->
<g id="edge60" class="edge">
<title>139748205812984&#45;&gt;139748205811192</title>
<path fill="none" stroke="#000000" d="M399.3205,-160.757C410.654,-156.6453 424.3001,-152.334 437,-150 552.6544,-128.7447 692.6388,-130.6589 758.413,-133.1458"/>
<polygon fill="#000000" stroke="#000000" points="758.5573,-136.6544 768.691,-133.5625 758.841,-129.6602 758.5573,-136.6544"/>
</g>
<!-- 139748205810800&#45;&gt;139748205813656 -->
<g id="edge61" class="edge">
<title>139748205810800&#45;&gt;139748205813656</title>
<path fill="none" stroke="#000000" d="M401.04,-97.8466C474.0483,-94.7325 675.2766,-86.1493 758.8539,-82.5844"/>
<polygon fill="#000000" stroke="#000000" points="759.071,-86.0784 768.9128,-82.1554 758.7727,-79.0848 759.071,-86.0784"/>
</g>
<!-- 139748205692800&#45;&gt;139748205692688 -->
<g id="edge62" class="edge">
<title>139748205692800&#45;&gt;139748205692688</title>
<path fill="none" stroke="#000000" d="M401.1526,-27.1287C438.5021,-27.3057 505.8646,-27.625 547.8561,-27.824"/>
<polygon fill="#000000" stroke="#000000" points="547.9351,-31.3243 557.9516,-27.8718 547.9684,-24.3244 547.9351,-31.3243"/>
</g>
<!-- 139748205694704&#45;&gt;139748205691120 -->
<g id="edge63" class="edge">
<title>139748205694704&#45;&gt;139748205691120</title>
<path fill="none" stroke="#000000" d="M396.897,-228.614C408.538,-221.8329 423.1265,-214.1258 437,-209 473.5063,-195.512 517.2852,-186.9225 547.7164,-182.0766"/>
<polygon fill="#000000" stroke="#000000" points="548.5358,-185.4919 557.8898,-180.5168 547.4749,-178.5728 548.5358,-185.4919"/>
</g>
<!-- 139748204368000&#45;&gt;139748205694480 -->
<g id="edge64" class="edge">
<title>139748204368000&#45;&gt;139748205694480</title>
<path fill="none" stroke="#000000" d="M1002.7576,-310.6883C1038.1126,-303.6699 1100.5605,-291.2734 1140.4405,-283.3567"/>
<polygon fill="#000000" stroke="#000000" points="1141.1822,-286.7779 1150.3093,-281.3977 1139.8191,-279.9118 1141.1822,-286.7779"/>
</g>
</g>
</svg>
