<?xml version="1.0" encoding="UTF-8" standalone="no"?>
<!DOCTYPE svg PUBLIC "-//W3C//DTD SVG 1.1//EN"
 "http://www.w3.org/Graphics/SVG/1.1/DTD/svg11.dtd">
<!-- Generated by graphviz version 2.40.1 (20161225.0304)
 -->
<!-- Title: alpha_plus_net_1585280321.652329 Pages: 1 -->
<svg width="700pt" height="764pt"
 viewBox="0.00 0.00 700.00 764.39" xmlns="http://www.w3.org/2000/svg" xmlns:xlink="http://www.w3.org/1999/xlink">
<g id="graph0" class="graph" transform="scale(1 1) rotate(0) translate(4 760.3919)">
<title>alpha_plus_net_1585280321.652329</title>
<!-- 140633492116480 -->
<g id="node1" class="node">
<title>140633492116480</title>
<polygon fill="none" stroke="#000000" points="131.5,-210.3919 32.5,-210.3919 32.5,-174.3919 131.5,-174.3919 131.5,-210.3919"/>
<text text-anchor="middle" x="82" y="-188.6919" font-family="Times,serif" font-size="14.00" fill="#000000">ActionDecoder</text>
</g>
<!-- 140633492118888 -->
<g id="node20" class="node">
<title>140633492118888</title>
<ellipse fill="none" stroke="#000000" cx="227" cy="-146.3919" rx="27" ry="27"/>
<text text-anchor="middle" x="227" y="-142.6919" font-family="Times,serif" font-size="14.00" fill="#000000">({&#39;MarketSummaryWebSocket&#39;, &#39;ActionDecoder&#39;, &#39;TradeWebContextListener&#39;, &#39;JSFLoginFilter&#39;, &#39;OrdersAlertFilter&#39;}, {&#39;Root&#39;, &#39;ActionMessage&#39;})</text>
</g>
<!-- 140633492116480&#45;&gt;140633492118888 -->
<g id="edge12" class="edge">
<title>140633492116480&#45;&gt;140633492118888</title>
<path fill="none" stroke="#000000" d="M131.9008,-176.5613C151.4401,-170.3626 173.4128,-163.392 191.3112,-157.7138"/>
<polygon fill="#000000" stroke="#000000" points="192.5878,-160.9809 201.0612,-154.6207 190.471,-154.3086 192.5878,-160.9809"/>
</g>
<!-- 140633492116312 -->
<g id="node2" class="node">
<title>140633492116312</title>
<polygon fill="none" stroke="#000000" points="392,-210.3919 291,-210.3919 291,-174.3919 392,-174.3919 392,-210.3919"/>
<text text-anchor="middle" x="341.5" y="-188.6919" font-family="Times,serif" font-size="14.00" fill="#000000">ActionMessage</text>
</g>
<!-- 140633492117880 -->
<g id="node23" class="node">
<title>140633492117880</title>
<ellipse fill="none" stroke="#000000" cx="456" cy="-201.3919" rx="27" ry="27"/>
<text text-anchor="middle" x="456" y="-197.6919" font-family="Times,serif" font-size="14.00" fill="#000000">({&#39;artificial_start&#39;, &#39;ActionMessage&#39;}, {&#39;MarketSummaryWebSocket&#39;, &#39;ActionDecoder&#39;, &#39;TradeWebContextListener&#39;, &#39;JSFLoginFilter&#39;, &#39;OrdersAlertFilter&#39;})</text>
</g>
<!-- 140633492116312&#45;&gt;140633492117880 -->
<g id="edge13" class="edge">
<title>140633492116312&#45;&gt;140633492117880</title>
<path fill="none" stroke="#000000" d="M392.0547,-196.3656C401.0839,-197.0753 410.3385,-197.8028 418.9032,-198.476"/>
<polygon fill="#000000" stroke="#000000" points="418.7031,-201.971 428.9467,-199.2654 419.2517,-194.9925 418.7031,-201.971"/>
</g>
<!-- 140633492118720 -->
<g id="node3" class="node">
<title>140633492118720</title>
<polygon fill="none" stroke="#000000" points="654.5,-278.3919 556.5,-278.3919 556.5,-242.3919 654.5,-242.3919 654.5,-278.3919"/>
<text text-anchor="middle" x="605.5" y="-256.6919" font-family="Times,serif" font-size="14.00" fill="#000000">JSFLoginFilter</text>
</g>
<!-- 140633492118720&#45;&gt;140633492118888 -->
<g id="edge14" class="edge">
<title>140633492118720&#45;&gt;140633492118888</title>
<path fill="none" stroke="#000000" d="M556.2909,-264.4409C491.2882,-267.5549 375.104,-265.2249 290,-219.3919 272.381,-209.9031 257.4798,-193.3589 246.5998,-178.4172"/>
<polygon fill="#000000" stroke="#000000" points="249.2453,-176.0903 240.6684,-169.8704 243.4945,-180.0813 249.2453,-176.0903"/>
</g>
<!-- 140633492116200 -->
<g id="node4" class="node">
<title>140633492116200</title>
<polygon fill="none" stroke="#000000" points="109,-423.3919 55,-423.3919 55,-387.3919 109,-387.3919 109,-423.3919"/>
<text text-anchor="middle" x="82" y="-401.6919" font-family="Times,serif" font-size="14.00" fill="#000000">Log</text>
</g>
<!-- 140633492117208 -->
<g id="node18" class="node">
<title>140633492117208</title>
<ellipse fill="none" stroke="#000000" cx="227" cy="-432.3919" rx="27" ry="27"/>
<text text-anchor="middle" x="227" y="-428.6919" font-family="Times,serif" font-size="14.00" fill="#000000">({&#39;Log&#39;}, {&#39;TradeConfig&#39;})</text>
</g>
<!-- 140633492116200&#45;&gt;140633492117208 -->
<g id="edge15" class="edge">
<title>140633492116200&#45;&gt;140633492117208</title>
<path fill="none" stroke="#000000" d="M109.2734,-410.4704C132.2021,-414.7399 165.1792,-420.8804 190.4017,-425.577"/>
<polygon fill="#000000" stroke="#000000" points="189.867,-429.0376 200.3388,-427.4274 191.1485,-422.1558 189.867,-429.0376"/>
</g>
<!-- 140633492116256 -->
<g id="node5" class="node">
<title>140633492116256</title>
<polygon fill="none" stroke="#000000" points="164,-540.3919 0,-540.3919 0,-504.3919 164,-504.3919 164,-540.3919"/>
<text text-anchor="middle" x="82" y="-518.6919" font-family="Times,serif" font-size="14.00" fill="#000000">MarketSummaryDataBean</text>
</g>
<!-- 140633492117488 -->
<g id="node19" class="node">
<title>140633492117488</title>
<ellipse fill="none" stroke="#000000" cx="227" cy="-550.3919" rx="27" ry="27"/>
<text text-anchor="middle" x="227" y="-546.6919" font-family="Times,serif" font-size="14.00" fill="#000000">({&#39;MarketSummaryDataBean&#39;}, {&#39;QuoteDataBean&#39;})</text>
</g>
<!-- 140633492116256&#45;&gt;140633492117488 -->
<g id="edge16" class="edge">
<title>140633492116256&#45;&gt;140633492117488</title>
<path fill="none" stroke="#000000" d="M164.2442,-538.2735C173.4127,-540.044 182.3694,-541.7736 190.5135,-543.3462"/>
<polygon fill="#000000" stroke="#000000" points="189.8671,-546.786 200.3494,-545.2456 191.1944,-539.913 189.8671,-546.786"/>
</g>
<!-- 140633492116648 -->
<g id="node6" class="node">
<title>140633492116648</title>
<polygon fill="none" stroke="#000000" points="163,-594.3919 1,-594.3919 1,-558.3919 163,-558.3919 163,-594.3919"/>
<text text-anchor="middle" x="82" y="-572.6919" font-family="Times,serif" font-size="14.00" fill="#000000">MarketSummarySingleton</text>
</g>
<!-- 140633492116592 -->
<g id="node7" class="node">
<title>140633492116592</title>
<polygon fill="none" stroke="#000000" points="692,-209.3919 519,-209.3919 519,-173.3919 692,-173.3919 692,-209.3919"/>
<text text-anchor="middle" x="605.5" y="-187.6919" font-family="Times,serif" font-size="14.00" fill="#000000">MarketSummaryWebSocket</text>
</g>
<!-- 140633492116592&#45;&gt;140633492118888 -->
<g id="edge17" class="edge">
<title>140633492116592&#45;&gt;140633492118888</title>
<path fill="none" stroke="#000000" d="M528.3458,-173.363C513.3678,-170.3324 497.7436,-167.4938 483,-165.3919 405.5615,-154.3518 313.973,-149.5189 264.0378,-147.5713"/>
<polygon fill="#000000" stroke="#000000" points="264.158,-144.0735 254.0345,-147.1984 263.8971,-151.0686 264.158,-144.0735"/>
</g>
<!-- 140633492118216 -->
<g id="node8" class="node">
<title>140633492118216</title>
<polygon fill="none" stroke="#000000" points="660.5,-145.3919 550.5,-145.3919 550.5,-109.3919 660.5,-109.3919 660.5,-145.3919"/>
<text text-anchor="middle" x="605.5" y="-123.6919" font-family="Times,serif" font-size="14.00" fill="#000000">OrdersAlertFilter</text>
</g>
<!-- 140633492118216&#45;&gt;140633492118888 -->
<g id="edge18" class="edge">
<title>140633492118216&#45;&gt;140633492118888</title>
<path fill="none" stroke="#000000" d="M550.2759,-124.8946C487.1163,-122.819 380.7204,-121.7052 290,-132.3919 281.2024,-133.4282 271.8299,-135.1598 263.0767,-137.0583"/>
<polygon fill="#000000" stroke="#000000" points="262.1224,-133.6862 253.1572,-139.332 263.6864,-140.5092 262.1224,-133.6862"/>
</g>
<!-- 140633492118496 -->
<g id="node9" class="node">
<title>140633492118496</title>
<polygon fill="none" stroke="#000000" points="393,-564.3919 290,-564.3919 290,-528.3919 393,-528.3919 393,-564.3919"/>
<text text-anchor="middle" x="341.5" y="-542.6919" font-family="Times,serif" font-size="14.00" fill="#000000">QuoteDataBean</text>
</g>
<!-- 140633492117824 -->
<g id="node21" class="node">
<title>140633492117824</title>
<ellipse fill="none" stroke="#000000" cx="456" cy="-511.3919" rx="27" ry="27"/>
<text text-anchor="middle" x="456" y="-507.6919" font-family="Times,serif" font-size="14.00" fill="#000000">({&#39;QuoteDataBean&#39;}, {&#39;MarketSummaryDataBean&#39;})</text>
</g>
<!-- 140633492118496&#45;&gt;140633492117824 -->
<g id="edge19" class="edge">
<title>140633492118496&#45;&gt;140633492117824</title>
<path fill="none" stroke="#000000" d="M393.0557,-530.6325C402.2711,-527.8156 411.6851,-524.9379 420.3302,-522.2953"/>
<polygon fill="#000000" stroke="#000000" points="421.5273,-525.5893 430.0674,-519.3189 419.481,-518.8951 421.5273,-525.5893"/>
</g>
<!-- 140633492115920 -->
<g id="node10" class="node">
<title>140633492115920</title>
<polygon fill="none" stroke="#000000" points="155.5,-648.3919 8.5,-648.3919 8.5,-612.3919 155.5,-612.3919 155.5,-648.3919"/>
<text text-anchor="middle" x="82" y="-626.6919" font-family="Times,serif" font-size="14.00" fill="#000000">RecentStockChangeList</text>
</g>
<!-- 140633492118272 -->
<g id="node11" class="node">
<title>140633492118272</title>
<polygon fill="none" stroke="#000000" points="368.5,-76.3919 314.5,-76.3919 314.5,-40.3919 368.5,-40.3919 368.5,-76.3919"/>
<text text-anchor="middle" x="341.5" y="-54.6919" font-family="Times,serif" font-size="14.00" fill="#000000">Root</text>
</g>
<!-- 140633492116984 -->
<g id="node24" class="node">
<title>140633492116984</title>
<ellipse fill="#ffa500" stroke="#000000" cx="456" cy="-53.3919" rx="27" ry="27"/>
</g>
<!-- 140633492118272&#45;&gt;140633492116984 -->
<g id="edge20" class="edge">
<title>140633492118272&#45;&gt;140633492116984</title>
<path fill="none" stroke="#000000" d="M368.6349,-57.207C383.4989,-56.5579 402.1492,-55.7435 418.3969,-55.0339"/>
<polygon fill="#000000" stroke="#000000" points="418.8253,-58.5187 428.6631,-54.5856 418.5199,-51.5253 418.8253,-58.5187"/>
</g>
<!-- 140633492116816 -->
<g id="node12" class="node">
<title>140633492116816</title>
<polygon fill="none" stroke="#000000" points="124.5,-702.3919 39.5,-702.3919 39.5,-666.3919 124.5,-666.3919 124.5,-702.3919"/>
<text text-anchor="middle" x="82" y="-680.6919" font-family="Times,serif" font-size="14.00" fill="#000000">TradeAction</text>
</g>
<!-- 140633492116088 -->
<g id="node13" class="node">
<title>140633492116088</title>
<polygon fill="none" stroke="#000000" points="384.5,-446.3919 298.5,-446.3919 298.5,-410.3919 384.5,-410.3919 384.5,-446.3919"/>
<text text-anchor="middle" x="341.5" y="-424.6919" font-family="Times,serif" font-size="14.00" fill="#000000">TradeConfig</text>
</g>
<!-- 140633492117320 -->
<g id="node22" class="node">
<title>140633492117320</title>
<ellipse fill="none" stroke="#000000" cx="456" cy="-416.3919" rx="27" ry="27"/>
<text text-anchor="middle" x="456" y="-412.6919" font-family="Times,serif" font-size="14.00" fill="#000000">({&#39;TradeConfig&#39;}, {&#39;Log&#39;})</text>
</g>
<!-- 140633492116088&#45;&gt;140633492117320 -->
<g id="edge21" class="edge">
<title>140633492116088&#45;&gt;140633492117320</title>
<path fill="none" stroke="#000000" d="M384.7875,-423.8552C396.0175,-422.6783 408.0109,-421.4213 418.8917,-420.281"/>
<polygon fill="#000000" stroke="#000000" points="419.3411,-423.7531 428.9218,-419.2298 418.6114,-416.7913 419.3411,-423.7531"/>
</g>
<!-- 140633492118328 -->
<g id="node14" class="node">
<title>140633492118328</title>
<polygon fill="none" stroke="#000000" points="136,-756.3919 28,-756.3919 28,-720.3919 136,-720.3919 136,-756.3919"/>
<text text-anchor="middle" x="82" y="-734.6919" font-family="Times,serif" font-size="14.00" fill="#000000">TradeSLSBBean</text>
</g>
<!-- 140633492116424 -->
<g id="node15" class="node">
<title>140633492116424</title>
<polygon fill="none" stroke="#000000" points="686,-63.3919 525,-63.3919 525,-27.3919 686,-27.3919 686,-63.3919"/>
<text text-anchor="middle" x="605.5" y="-41.6919" font-family="Times,serif" font-size="14.00" fill="#000000">TradeWebContextListener</text>
</g>
<!-- 140633492116424&#45;&gt;140633492118888 -->
<g id="edge22" class="edge">
<title>140633492116424&#45;&gt;140633492118888</title>
<path fill="none" stroke="#000000" d="M558.4187,-27.3683C492.4527,-5.3984 371.4796,22.5754 290,-31.3919 262.5682,-49.5611 246.0298,-83.8717 236.8284,-110.3054"/>
<polygon fill="#000000" stroke="#000000" points="233.4395,-109.408 233.6538,-120.0007 240.0919,-111.5864 233.4395,-109.408"/>
</g>
<!-- 140633492116368 -->
<g id="node16" class="node">
<title>140633492116368</title>
<polygon fill="none" stroke="#000000" points="387.5,-340.3919 295.5,-340.3919 295.5,-304.3919 387.5,-304.3919 387.5,-340.3919"/>
<text text-anchor="middle" x="341.5" y="-318.6919" font-family="Times,serif" font-size="14.00" fill="#000000">artificial_start</text>
</g>
<!-- 140633492116368&#45;&gt;140633492117880 -->
<g id="edge23" class="edge">
<title>140633492116368&#45;&gt;140633492117880</title>
<path fill="none" stroke="#000000" d="M358.6418,-304.277C377.5867,-284.2566 408.3073,-251.792 430.1707,-228.6875"/>
<polygon fill="#000000" stroke="#000000" points="432.8848,-230.9115 437.2159,-221.2424 427.8003,-226.1002 432.8848,-230.9115"/>
</g>
<!-- 140633492115528 -->
<g id="node17" class="node">
<title>140633492115528</title>
<ellipse fill="#00ff00" stroke="#000000" cx="227" cy="-322.3919" rx="27" ry="27"/>
<text text-anchor="middle" x="227" y="-318.6919" font-family="Times,serif" font-size="14.00" fill="#000000">1</text>
</g>
<!-- 140633492115528&#45;&gt;140633492116368 -->
<g id="edge24" class="edge">
<title>140633492115528&#45;&gt;140633492116368</title>
<path fill="none" stroke="#000000" d="M254.1349,-322.3919C263.4563,-322.3919 274.2667,-322.3919 285.0399,-322.3919"/>
<polygon fill="#000000" stroke="#000000" points="285.3075,-325.892 295.3075,-322.3919 285.3074,-318.892 285.3075,-325.892"/>
</g>
<!-- 140633492117208&#45;&gt;140633492116088 -->
<g id="edge1" class="edge">
<title>140633492117208&#45;&gt;140633492116088</title>
<path fill="none" stroke="#000000" d="M254.1349,-431.4439C264.3646,-431.0866 276.3876,-430.6666 288.1866,-430.2544"/>
<polygon fill="#000000" stroke="#000000" points="288.5753,-433.743 298.447,-429.8959 288.3308,-426.7473 288.5753,-433.743"/>
</g>
<!-- 140633492117488&#45;&gt;140633492118496 -->
<g id="edge2" class="edge">
<title>140633492117488&#45;&gt;140633492118496</title>
<path fill="none" stroke="#000000" d="M254.1349,-549.4439C261.9188,-549.172 270.7409,-548.8638 279.7126,-548.5504"/>
<polygon fill="#000000" stroke="#000000" points="279.9865,-552.0431 289.8581,-548.196 279.742,-545.0473 279.9865,-552.0431"/>
</g>
<!-- 140633492118888&#45;&gt;140633492116312 -->
<g id="edge3" class="edge">
<title>140633492118888&#45;&gt;140633492116312</title>
<path fill="none" stroke="#000000" d="M252.1275,-156.4868C262.5142,-160.6596 274.9867,-165.6704 287.273,-170.6064"/>
<polygon fill="#000000" stroke="#000000" points="286.0105,-173.871 296.5944,-174.3512 288.62,-167.3756 286.0105,-173.871"/>
</g>
<!-- 140633492118888&#45;&gt;140633492118272 -->
<g id="edge4" class="edge">
<title>140633492118888&#45;&gt;140633492118272</title>
<path fill="none" stroke="#000000" d="M247.662,-128.6319C259.7993,-118.3786 275.5493,-105.3786 290,-94.3919 295.186,-90.449 300.755,-86.3867 306.246,-82.4751"/>
<polygon fill="#000000" stroke="#000000" points="308.5829,-85.1104 314.7445,-76.4915 304.5529,-79.3868 308.5829,-85.1104"/>
</g>
<!-- 140633492117824&#45;&gt;140633492116256 -->
<g id="edge5" class="edge">
<title>140633492117824&#45;&gt;140633492116256</title>
<path fill="none" stroke="#000000" d="M428.7083,-511.2107C381.8934,-511.0122 283.2734,-511.0837 200,-514.3919 191.6682,-514.7229 183.0104,-515.1502 174.3398,-515.6349"/>
<polygon fill="#000000" stroke="#000000" points="173.9532,-512.1514 164.1741,-516.2279 174.361,-519.1395 173.9532,-512.1514"/>
</g>
<!-- 140633492117320&#45;&gt;140633492116200 -->
<g id="edge6" class="edge">
<title>140633492117320&#45;&gt;140633492116200</title>
<path fill="none" stroke="#000000" d="M429.8576,-408.9427C418.6105,-406.0579 405.2553,-403.0546 393,-401.3919 295.0262,-388.0995 178.1022,-395.8681 119.4576,-401.3702"/>
<polygon fill="#000000" stroke="#000000" points="118.8184,-397.9157 109.2033,-402.3656 119.4947,-404.883 118.8184,-397.9157"/>
</g>
<!-- 140633492117880&#45;&gt;140633492116480 -->
<g id="edge7" class="edge">
<title>140633492117880&#45;&gt;140633492116480</title>
<path fill="none" stroke="#000000" d="M430.2963,-210.4888C419.0094,-214.0239 405.5044,-217.6406 393,-219.3919 306.0603,-231.5682 204.6283,-217.5257 141.8514,-205.569"/>
<polygon fill="#000000" stroke="#000000" points="142.2206,-202.0751 131.7356,-203.5964 140.8808,-208.9457 142.2206,-202.0751"/>
</g>
<!-- 140633492117880&#45;&gt;140633492118720 -->
<g id="edge8" class="edge">
<title>140633492117880&#45;&gt;140633492118720</title>
<path fill="none" stroke="#000000" d="M481.3606,-211.4004C500.1779,-218.8266 526.5532,-229.2356 550.1555,-238.5502"/>
<polygon fill="#000000" stroke="#000000" points="549.1395,-241.9119 559.7262,-242.3273 551.7092,-235.4006 549.1395,-241.9119"/>
</g>
<!-- 140633492117880&#45;&gt;140633492116592 -->
<g id="edge9" class="edge">
<title>140633492117880&#45;&gt;140633492116592</title>
<path fill="none" stroke="#000000" d="M483.0733,-199.581C490.6739,-199.0726 499.4032,-198.4887 508.6263,-197.8717"/>
<polygon fill="#000000" stroke="#000000" points="509.0541,-201.351 518.7982,-197.1913 508.5868,-194.3666 509.0541,-201.351"/>
</g>
<!-- 140633492117880&#45;&gt;140633492118216 -->
<g id="edge10" class="edge">
<title>140633492117880&#45;&gt;140633492118216</title>
<path fill="none" stroke="#000000" d="M478.9453,-186.9689C490.7209,-179.8116 505.4129,-171.2529 519,-164.3919 529.1491,-159.2669 540.1743,-154.1934 550.8489,-149.5223"/>
<polygon fill="#000000" stroke="#000000" points="552.3115,-152.7032 560.1084,-145.5298 549.5398,-146.2753 552.3115,-152.7032"/>
</g>
<!-- 140633492117880&#45;&gt;140633492116424 -->
<g id="edge11" class="edge">
<title>140633492117880&#45;&gt;140633492116424</title>
<path fill="none" stroke="#000000" d="M467.3629,-176.8311C478.3462,-154.9521 496.5931,-122.9934 519,-100.3919 531.0358,-88.2516 546.2188,-77.478 560.4923,-68.7548"/>
<polygon fill="#000000" stroke="#000000" points="562.3968,-71.6949 569.2258,-63.5945 558.8358,-65.6683 562.3968,-71.6949"/>
</g>
</g>
</svg>
