<?xml version="1.0" encoding="UTF-8" standalone="no"?>
<!DOCTYPE svg PUBLIC "-//W3C//DTD SVG 1.1//EN"
 "http://www.w3.org/Graphics/SVG/1.1/DTD/svg11.dtd">
<!-- Generated by graphviz version 2.40.1 (20161225.0304)
 -->
<!-- Title: alpha_classic_net_1585315544.4603152 Pages: 1 -->
<svg width="576pt" height="548pt"
 viewBox="0.00 0.00 576.00 548.00" xmlns="http://www.w3.org/2000/svg" xmlns:xlink="http://www.w3.org/1999/xlink">
<g id="graph0" class="graph" transform="scale(1 1) rotate(0) translate(4 544)">
<title>alpha_classic_net_1585315544.4603152</title>
<!-- 140178110581728 -->
<g id="node1" class="node">
<title>140178110581728</title>
<polygon fill="none" stroke="#000000" points="134,-36 18,-36 18,0 134,0 134,-36"/>
<text text-anchor="middle" x="76" y="-14.3" font-family="Times,serif" font-size="14.00" fill="#000000">AccountDataBean</text>
</g>
<!-- 140178110581616 -->
<g id="node2" class="node">
<title>140178110581616</title>
<polygon fill="none" stroke="#000000" points="152,-90 0,-90 0,-54 152,-54 152,-90"/>
<text text-anchor="middle" x="76" y="-68.3" font-family="Times,serif" font-size="14.00" fill="#000000">AccountProfileDataBean</text>
</g>
<!-- 140178110582064 -->
<g id="node3" class="node">
<title>140178110582064</title>
<polygon fill="none" stroke="#000000" points="122.5,-144 29.5,-144 29.5,-108 122.5,-108 122.5,-144"/>
<text text-anchor="middle" x="76" y="-122.3" font-family="Times,serif" font-size="14.00" fill="#000000">FinancialUtils</text>
</g>
<!-- 140178110581896 -->
<g id="node4" class="node">
<title>140178110581896</title>
<polygon fill="none" stroke="#000000" points="103,-198 49,-198 49,-162 103,-162 103,-198"/>
<text text-anchor="middle" x="76" y="-176.3" font-family="Times,serif" font-size="14.00" fill="#000000">Log</text>
</g>
<!-- 140178110582176 -->
<g id="node5" class="node">
<title>140178110582176</title>
<polygon fill="none" stroke="#000000" points="298,-261 188,-261 188,-225 298,-225 298,-261"/>
<text text-anchor="middle" x="243" y="-239.3" font-family="Times,serif" font-size="14.00" fill="#000000">OrdersAlertFilter</text>
</g>
<!-- 140178110582456 -->
<g id="node13" class="node">
<title>140178110582456</title>
<ellipse fill="none" stroke="#000000" cx="361" cy="-243" rx="27" ry="27"/>
<text text-anchor="middle" x="361" y="-239.3" font-family="Times,serif" font-size="14.00" fill="#000000">({&#39;OrdersAlertFilter&#39;}, {&#39;Root&#39;})</text>
</g>
<!-- 140178110582176&#45;&gt;140178110582456 -->
<g id="edge2" class="edge">
<title>140178110582176&#45;&gt;140178110582456</title>
<path fill="none" stroke="#000000" d="M298.1996,-243C306.7911,-243 315.4905,-243 323.565,-243"/>
<polygon fill="#000000" stroke="#000000" points="323.7583,-246.5001 333.7582,-243 323.7582,-239.5001 323.7583,-246.5001"/>
</g>
<!-- 140178110581784 -->
<g id="node6" class="node">
<title>140178110581784</title>
<polygon fill="none" stroke="#000000" points="478,-261 424,-261 424,-225 478,-225 478,-261"/>
<text text-anchor="middle" x="451" y="-239.3" font-family="Times,serif" font-size="14.00" fill="#000000">Root</text>
</g>
<!-- 140178110582008 -->
<g id="node14" class="node">
<title>140178110582008</title>
<ellipse fill="#ffa500" stroke="#000000" cx="541" cy="-243" rx="27" ry="27"/>
</g>
<!-- 140178110581784&#45;&gt;140178110582008 -->
<g id="edge3" class="edge">
<title>140178110581784&#45;&gt;140178110582008</title>
<path fill="none" stroke="#000000" d="M478.003,-243C486.0277,-243 494.9665,-243 503.5309,-243"/>
<polygon fill="#000000" stroke="#000000" points="503.7051,-246.5001 513.705,-243 503.705,-239.5001 503.7051,-246.5001"/>
</g>
<!-- 140178110581392 -->
<g id="node7" class="node">
<title>140178110581392</title>
<polygon fill="none" stroke="#000000" points="118.5,-324 33.5,-324 33.5,-288 118.5,-288 118.5,-324"/>
<text text-anchor="middle" x="76" y="-302.3" font-family="Times,serif" font-size="14.00" fill="#000000">TradeAction</text>
</g>
<!-- 140178110581952 -->
<g id="node8" class="node">
<title>140178110581952</title>
<polygon fill="none" stroke="#000000" points="131,-378 21,-378 21,-342 131,-342 131,-378"/>
<text text-anchor="middle" x="76" y="-356.3" font-family="Times,serif" font-size="14.00" fill="#000000">TradeAppServlet</text>
</g>
<!-- 140178110581448 -->
<g id="node9" class="node">
<title>140178110581448</title>
<polygon fill="none" stroke="#000000" points="119,-432 33,-432 33,-396 119,-396 119,-432"/>
<text text-anchor="middle" x="76" y="-410.3" font-family="Times,serif" font-size="14.00" fill="#000000">TradeConfig</text>
</g>
<!-- 140178110581840 -->
<g id="node10" class="node">
<title>140178110581840</title>
<polygon fill="none" stroke="#000000" points="130,-486 22,-486 22,-450 130,-450 130,-486"/>
<text text-anchor="middle" x="76" y="-464.3" font-family="Times,serif" font-size="14.00" fill="#000000">TradeSLSBBean</text>
</g>
<!-- 140178110582288 -->
<g id="node11" class="node">
<title>140178110582288</title>
<polygon fill="none" stroke="#000000" points="137.5,-540 14.5,-540 14.5,-504 137.5,-504 137.5,-540"/>
<text text-anchor="middle" x="76" y="-518.3" font-family="Times,serif" font-size="14.00" fill="#000000">TradeServletAction</text>
</g>
<!-- 140178110582232 -->
<g id="node12" class="node">
<title>140178110582232</title>
<ellipse fill="#00ff00" stroke="#000000" cx="76" cy="-243" rx="27" ry="27"/>
<text text-anchor="middle" x="76" y="-239.3" font-family="Times,serif" font-size="14.00" fill="#000000">1</text>
</g>
<!-- 140178110582232&#45;&gt;140178110582176 -->
<g id="edge4" class="edge">
<title>140178110582232&#45;&gt;140178110582176</title>
<path fill="none" stroke="#000000" d="M103.2031,-243C123.3567,-243 151.7004,-243 177.6026,-243"/>
<polygon fill="#000000" stroke="#000000" points="177.7638,-246.5001 187.7637,-243 177.7637,-239.5001 177.7638,-246.5001"/>
</g>
<!-- 140178110582456&#45;&gt;140178110581784 -->
<g id="edge1" class="edge">
<title>140178110582456&#45;&gt;140178110581784</title>
<path fill="none" stroke="#000000" d="M388.003,-243C396.0277,-243 404.9665,-243 413.5309,-243"/>
<polygon fill="#000000" stroke="#000000" points="413.7051,-246.5001 423.705,-243 413.705,-239.5001 413.7051,-246.5001"/>
</g>
</g>
</svg>
