<?xml version="1.0" encoding="UTF-8" standalone="no"?>
<!DOCTYPE svg PUBLIC "-//W3C//DTD SVG 1.1//EN"
 "http://www.w3.org/Graphics/SVG/1.1/DTD/svg11.dtd">
<!-- Generated by graphviz version 2.40.1 (20161225.0304)
 -->
<!-- Title: alpha_classic_net_1585321016.0356688 Pages: 1 -->
<svg width="576pt" height="710pt"
 viewBox="0.00 0.00 576.00 710.00" xmlns="http://www.w3.org/2000/svg" xmlns:xlink="http://www.w3.org/1999/xlink">
<g id="graph0" class="graph" transform="scale(1 1) rotate(0) translate(4 706)">
<title>alpha_classic_net_1585321016.0356688</title>
<!-- 140531501378248 -->
<g id="node1" class="node">
<title>140531501378248</title>
<polygon fill="none" stroke="#000000" points="134,-36 18,-36 18,0 134,0 134,-36"/>
<text text-anchor="middle" x="76" y="-14.3" font-family="Times,serif" font-size="14.00" fill="#000000">AccountDataBean</text>
</g>
<!-- 140531501378360 -->
<g id="node2" class="node">
<title>140531501378360</title>
<polygon fill="none" stroke="#000000" points="152,-90 0,-90 0,-54 152,-54 152,-90"/>
<text text-anchor="middle" x="76" y="-68.3" font-family="Times,serif" font-size="14.00" fill="#000000">AccountProfileDataBean</text>
</g>
<!-- 140531501378024 -->
<g id="node3" class="node">
<title>140531501378024</title>
<polygon fill="none" stroke="#000000" points="122.5,-144 29.5,-144 29.5,-108 122.5,-108 122.5,-144"/>
<text text-anchor="middle" x="76" y="-122.3" font-family="Times,serif" font-size="14.00" fill="#000000">FinancialUtils</text>
</g>
<!-- 140531501378416 -->
<g id="node4" class="node">
<title>140531501378416</title>
<polygon fill="none" stroke="#000000" points="133,-198 19,-198 19,-162 133,-162 133,-198"/>
<text text-anchor="middle" x="76" y="-176.3" font-family="Times,serif" font-size="14.00" fill="#000000">HoldingDataBean</text>
</g>
<!-- 140531501378584 -->
<g id="node5" class="node">
<title>140531501378584</title>
<polygon fill="none" stroke="#000000" points="103,-252 49,-252 49,-216 103,-216 103,-252"/>
<text text-anchor="middle" x="76" y="-230.3" font-family="Times,serif" font-size="14.00" fill="#000000">Log</text>
</g>
<!-- 140531501378528 -->
<g id="node6" class="node">
<title>140531501378528</title>
<polygon fill="none" stroke="#000000" points="126.5,-306 25.5,-306 25.5,-270 126.5,-270 126.5,-306"/>
<text text-anchor="middle" x="76" y="-284.3" font-family="Times,serif" font-size="14.00" fill="#000000">OrderDataBean</text>
</g>
<!-- 140531501377744 -->
<g id="node7" class="node">
<title>140531501377744</title>
<polygon fill="none" stroke="#000000" points="298,-369 188,-369 188,-333 298,-333 298,-369"/>
<text text-anchor="middle" x="243" y="-347.3" font-family="Times,serif" font-size="14.00" fill="#000000">OrdersAlertFilter</text>
</g>
<!-- 140531501378976 -->
<g id="node16" class="node">
<title>140531501378976</title>
<ellipse fill="none" stroke="#000000" cx="361" cy="-351" rx="27" ry="27"/>
<text text-anchor="middle" x="361" y="-347.3" font-family="Times,serif" font-size="14.00" fill="#000000">({&#39;OrdersAlertFilter&#39;}, {&#39;Root&#39;})</text>
</g>
<!-- 140531501377744&#45;&gt;140531501378976 -->
<g id="edge2" class="edge">
<title>140531501377744&#45;&gt;140531501378976</title>
<path fill="none" stroke="#000000" d="M298.1996,-351C306.7911,-351 315.4905,-351 323.565,-351"/>
<polygon fill="#000000" stroke="#000000" points="323.7583,-354.5001 333.7582,-351 323.7582,-347.5001 323.7583,-354.5001"/>
</g>
<!-- 140531501377912 -->
<g id="node8" class="node">
<title>140531501377912</title>
<polygon fill="none" stroke="#000000" points="127.5,-432 24.5,-432 24.5,-396 127.5,-396 127.5,-432"/>
<text text-anchor="middle" x="76" y="-410.3" font-family="Times,serif" font-size="14.00" fill="#000000">QuoteDataBean</text>
</g>
<!-- 140531501378640 -->
<g id="node9" class="node">
<title>140531501378640</title>
<polygon fill="none" stroke="#000000" points="478,-369 424,-369 424,-333 478,-333 478,-369"/>
<text text-anchor="middle" x="451" y="-347.3" font-family="Times,serif" font-size="14.00" fill="#000000">Root</text>
</g>
<!-- 140531501378808 -->
<g id="node17" class="node">
<title>140531501378808</title>
<ellipse fill="#ffa500" stroke="#000000" cx="541" cy="-351" rx="27" ry="27"/>
</g>
<!-- 140531501378640&#45;&gt;140531501378808 -->
<g id="edge3" class="edge">
<title>140531501378640&#45;&gt;140531501378808</title>
<path fill="none" stroke="#000000" d="M478.003,-351C486.0277,-351 494.9665,-351 503.5309,-351"/>
<polygon fill="#000000" stroke="#000000" points="503.7051,-354.5001 513.705,-351 503.705,-347.5001 503.7051,-354.5001"/>
</g>
<!-- 140531501378080 -->
<g id="node10" class="node">
<title>140531501378080</title>
<polygon fill="none" stroke="#000000" points="118.5,-486 33.5,-486 33.5,-450 118.5,-450 118.5,-486"/>
<text text-anchor="middle" x="76" y="-464.3" font-family="Times,serif" font-size="14.00" fill="#000000">TradeAction</text>
</g>
<!-- 140531501378192 -->
<g id="node11" class="node">
<title>140531501378192</title>
<polygon fill="none" stroke="#000000" points="131,-540 21,-540 21,-504 131,-504 131,-540"/>
<text text-anchor="middle" x="76" y="-518.3" font-family="Times,serif" font-size="14.00" fill="#000000">TradeAppServlet</text>
</g>
<!-- 140531501378472 -->
<g id="node12" class="node">
<title>140531501378472</title>
<polygon fill="none" stroke="#000000" points="119,-594 33,-594 33,-558 119,-558 119,-594"/>
<text text-anchor="middle" x="76" y="-572.3" font-family="Times,serif" font-size="14.00" fill="#000000">TradeConfig</text>
</g>
<!-- 140531501378136 -->
<g id="node13" class="node">
<title>140531501378136</title>
<polygon fill="none" stroke="#000000" points="130,-648 22,-648 22,-612 130,-612 130,-648"/>
<text text-anchor="middle" x="76" y="-626.3" font-family="Times,serif" font-size="14.00" fill="#000000">TradeSLSBBean</text>
</g>
<!-- 140531501378304 -->
<g id="node14" class="node">
<title>140531501378304</title>
<polygon fill="none" stroke="#000000" points="137.5,-702 14.5,-702 14.5,-666 137.5,-666 137.5,-702"/>
<text text-anchor="middle" x="76" y="-680.3" font-family="Times,serif" font-size="14.00" fill="#000000">TradeServletAction</text>
</g>
<!-- 140531501378696 -->
<g id="node15" class="node">
<title>140531501378696</title>
<ellipse fill="#00ff00" stroke="#000000" cx="76" cy="-351" rx="27" ry="27"/>
<text text-anchor="middle" x="76" y="-347.3" font-family="Times,serif" font-size="14.00" fill="#000000">1</text>
</g>
<!-- 140531501378696&#45;&gt;140531501377744 -->
<g id="edge4" class="edge">
<title>140531501378696&#45;&gt;140531501377744</title>
<path fill="none" stroke="#000000" d="M103.2031,-351C123.3567,-351 151.7004,-351 177.6026,-351"/>
<polygon fill="#000000" stroke="#000000" points="177.7638,-354.5001 187.7637,-351 177.7637,-347.5001 177.7638,-354.5001"/>
</g>
<!-- 140531501378976&#45;&gt;140531501378640 -->
<g id="edge1" class="edge">
<title>140531501378976&#45;&gt;140531501378640</title>
<path fill="none" stroke="#000000" d="M388.003,-351C396.0277,-351 404.9665,-351 413.5309,-351"/>
<polygon fill="#000000" stroke="#000000" points="413.7051,-354.5001 423.705,-351 413.705,-347.5001 413.7051,-354.5001"/>
</g>
</g>
</svg>
