<?xml version="1.0" encoding="UTF-8" standalone="no"?>
<!DOCTYPE svg PUBLIC "-//W3C//DTD SVG 1.1//EN"
 "http://www.w3.org/Graphics/SVG/1.1/DTD/svg11.dtd">
<!-- Generated by graphviz version 2.40.1 (20161225.0304)
 -->
<!-- Title: imdf_net_1585281870.2172158 Pages: 1 -->
<svg width="787pt" height="674pt"
 viewBox="0.00 0.00 787.00 674.00" xmlns="http://www.w3.org/2000/svg" xmlns:xlink="http://www.w3.org/1999/xlink">
<g id="graph0" class="graph" transform="scale(1 1) rotate(0) translate(4 670)">
<title>imdf_net_1585281870.2172158</title>
<!-- 140543357302376 -->
<g id="node1" class="node">
<title>140543357302376</title>
<polygon fill="none" stroke="#000000" points="116,-318 0,-318 0,-282 116,-282 116,-318"/>
<text text-anchor="middle" x="58" y="-296.3" font-family="Times,serif" font-size="14.00" fill="#000000">AccountDataBean</text>
</g>
<!-- 140543357303440 -->
<g id="node23" class="node">
<title>140543357303440</title>
<ellipse fill="none" stroke="#000000" cx="179" cy="-361" rx="27" ry="27"/>
<text text-anchor="middle" x="179" y="-357.3" font-family="Times,serif" font-size="14.00" fill="#000000">p_6</text>
</g>
<!-- 140543357302376&#45;&gt;140543357303440 -->
<g id="edge7" class="edge">
<title>140543357302376&#45;&gt;140543357303440</title>
<path fill="none" stroke="#000000" d="M93.9764,-318.1369C110.3984,-326.4157 129.7221,-336.1574 145.7944,-344.26"/>
<polygon fill="#000000" stroke="#000000" points="144.3302,-347.4414 154.8353,-348.8178 147.4814,-341.1908 144.3302,-347.4414"/>
</g>
<!-- 140543357301536 -->
<g id="node2" class="node">
<title>140543357301536</title>
<polygon fill="none" stroke="#000000" points="779,-428 627,-428 627,-392 779,-392 779,-428"/>
<text text-anchor="middle" x="703" y="-406.3" font-family="Times,serif" font-size="14.00" fill="#000000">AccountProfileDataBean</text>
</g>
<!-- 140543357301536&#45;&gt;140543357303440 -->
<g id="edge1" class="edge">
<title>140543357301536&#45;&gt;140543357303440</title>
<path fill="none" stroke="#000000" d="M663.8693,-428.1604C651.7584,-434.2849 638.5659,-441.4864 627,-449 609.7708,-460.1927 609.8273,-469.7745 591,-478 537.6936,-501.2891 519.6717,-497 461.5,-497 359,-497 359,-497 359,-497 305.0902,-497 285.0287,-497.4777 242,-465 218.8535,-447.5292 202.4071,-418.8607 192.1354,-396.0433"/>
<polygon fill="#000000" stroke="#000000" points="195.2727,-394.4789 188.1097,-386.6724 188.8411,-397.242 195.2727,-394.4789"/>
</g>
<!-- 140543357301032 -->
<g id="node3" class="node">
<title>140543357301032</title>
<polygon fill="none" stroke="#000000" points="749.5,-373 656.5,-373 656.5,-337 749.5,-337 749.5,-373"/>
<text text-anchor="middle" x="703" y="-351.3" font-family="Times,serif" font-size="14.00" fill="#000000">FinancialUtils</text>
</g>
<!-- 140543357301032&#45;&gt;140543357303440 -->
<g id="edge12" class="edge">
<title>140543357301032&#45;&gt;140543357303440</title>
<path fill="none" stroke="#000000" d="M656.4938,-364.8622C608.0407,-374.2645 529.8041,-387 461.5,-387 359,-387 359,-387 359,-387 308.8529,-387 251.6471,-376.9927 215.4424,-369.3952"/>
<polygon fill="#000000" stroke="#000000" points="215.8741,-365.9081 205.3617,-367.2276 214.4025,-372.7517 215.8741,-365.9081"/>
</g>
<!-- 140543357301872 -->
<g id="node4" class="node">
<title>140543357301872</title>
<polygon fill="none" stroke="#000000" points="760,-317 646,-317 646,-281 760,-281 760,-317"/>
<text text-anchor="middle" x="703" y="-295.3" font-family="Times,serif" font-size="14.00" fill="#000000">HoldingDataBean</text>
</g>
<!-- 140543357301872&#45;&gt;140543357303440 -->
<g id="edge5" class="edge">
<title>140543357301872&#45;&gt;140543357303440</title>
<path fill="none" stroke="#000000" d="M645.5556,-290.808C596.7094,-284.5531 524.651,-277 461.5,-277 359,-277 359,-277 359,-277 305.0902,-277 289.8549,-284.177 242,-309 229.0587,-315.7128 216.3523,-325.4192 205.7788,-334.6326"/>
<polygon fill="#000000" stroke="#000000" points="203.2205,-332.2268 198.1404,-341.5243 207.9097,-337.424 203.2205,-332.2268"/>
</g>
<!-- 140543357302488 -->
<g id="node5" class="node">
<title>140543357302488</title>
<polygon fill="none" stroke="#000000" points="730,-259 676,-259 676,-223 730,-223 730,-259"/>
<text text-anchor="middle" x="703" y="-237.3" font-family="Times,serif" font-size="14.00" fill="#000000">Log</text>
</g>
<!-- 140543357302488&#45;&gt;140543357303440 -->
<g id="edge10" class="edge">
<title>140543357302488&#45;&gt;140543357303440</title>
<path fill="none" stroke="#000000" d="M675.6863,-228.1522C613.0934,-198.7334 464.4174,-129 461.5,-129 359,-129 359,-129 359,-129 305.5317,-129 281.0097,-120.4335 242,-157 217.5974,-179.8742 196.2916,-271.8783 185.8436,-324.1775"/>
<polygon fill="#000000" stroke="#000000" points="182.3925,-323.5889 183.9011,-334.0757 189.2615,-324.9369 182.3925,-323.5889"/>
</g>
<!-- 140543357302656 -->
<g id="node6" class="node">
<title>140543357302656</title>
<polygon fill="none" stroke="#000000" points="753.5,-196 652.5,-196 652.5,-160 753.5,-160 753.5,-196"/>
<text text-anchor="middle" x="703" y="-174.3" font-family="Times,serif" font-size="14.00" fill="#000000">OrderDataBean</text>
</g>
<!-- 140543357302656&#45;&gt;140543357303440 -->
<g id="edge2" class="edge">
<title>140543357302656&#45;&gt;140543357303440</title>
<path fill="none" stroke="#000000" d="M673.7309,-159.9735C629.4872,-134.4907 542.1622,-91 461.5,-91 359,-91 359,-91 359,-91 304.8489,-91 279.8682,-86.2916 242,-125 227.9542,-139.3574 200.194,-261.7159 186.7107,-324.3596"/>
<polygon fill="#000000" stroke="#000000" points="183.267,-323.7265 184.5964,-334.2376 190.112,-325.1916 183.267,-323.7265"/>
</g>
<!-- 140543357301256 -->
<g id="node7" class="node">
<title>140543357301256</title>
<polygon fill="none" stroke="#000000" points="758,-125 648,-125 648,-89 758,-89 758,-125"/>
<text text-anchor="middle" x="703" y="-103.3" font-family="Times,serif" font-size="14.00" fill="#000000">OrdersAlertFilter</text>
</g>
<!-- 140543357301256&#45;&gt;140543357303440 -->
<g id="edge6" class="edge">
<title>140543357301256&#45;&gt;140543357303440</title>
<path fill="none" stroke="#000000" d="M652.3835,-88.8686C604.0195,-73.181 528.7362,-53 461.5,-53 359,-53 359,-53 359,-53 304.4618,-53 279.034,-49.9637 242,-90 233.989,-98.6605 201.5065,-251.9698 186.5748,-324.078"/>
<polygon fill="#000000" stroke="#000000" points="183.0998,-323.5995 184.5041,-334.1008 189.955,-325.0158 183.0998,-323.5995"/>
</g>
<!-- 140543357302432 -->
<g id="node8" class="node">
<title>140543357302432</title>
<polygon fill="none" stroke="#000000" points="754.5,-666 651.5,-666 651.5,-630 754.5,-630 754.5,-666"/>
<text text-anchor="middle" x="703" y="-644.3" font-family="Times,serif" font-size="14.00" fill="#000000">QuoteDataBean</text>
</g>
<!-- 140543357302432&#45;&gt;140543357303440 -->
<g id="edge8" class="edge">
<title>140543357302432&#45;&gt;140543357303440</title>
<path fill="none" stroke="#000000" d="M651.18,-648.3386C602.2772,-648.6287 526.9068,-649 461.5,-649 359,-649 359,-649 359,-649 301.3506,-649 278.9078,-637.2862 242,-593 217.2857,-563.345 195.3929,-455.4076 185.1486,-397.8065"/>
<polygon fill="#000000" stroke="#000000" points="188.5456,-396.9136 183.3733,-387.6671 181.6505,-398.121 188.5456,-396.9136"/>
</g>
<!-- 140543357303328 -->
<g id="node9" class="node">
<title>140543357303328</title>
<polygon fill="none" stroke="#000000" points="488.5,-460 434.5,-460 434.5,-424 488.5,-424 488.5,-460"/>
<text text-anchor="middle" x="461.5" y="-438.3" font-family="Times,serif" font-size="14.00" fill="#000000">Root</text>
</g>
<!-- 140543357103744 -->
<g id="node25" class="node">
<title>140543357103744</title>
<ellipse fill="#ffa500" stroke="#000000" cx="564" cy="-442" rx="27" ry="27"/>
</g>
<!-- 140543357303328&#45;&gt;140543357103744 -->
<g id="edge4" class="edge">
<title>140543357303328&#45;&gt;140543357103744</title>
<path fill="none" stroke="#000000" d="M488.699,-442C500.2828,-442 513.9866,-442 526.5073,-442"/>
<polygon fill="#000000" stroke="#000000" points="526.6739,-445.5001 536.6739,-442 526.6739,-438.5001 526.6739,-445.5001"/>
</g>
<!-- 140543357303104 -->
<g id="node10" class="node">
<title>140543357303104</title>
<polygon fill="none" stroke="#000000" points="745.5,-611 660.5,-611 660.5,-575 745.5,-575 745.5,-611"/>
<text text-anchor="middle" x="703" y="-589.3" font-family="Times,serif" font-size="14.00" fill="#000000">TradeAction</text>
</g>
<!-- 140543357303104&#45;&gt;140543357303440 -->
<g id="edge3" class="edge">
<title>140543357303104&#45;&gt;140543357303440</title>
<path fill="none" stroke="#000000" d="M660.3199,-598.1099C612.1163,-603.4315 531.292,-611 461.5,-611 359,-611 359,-611 359,-611 301.7287,-611 279.9655,-599.8792 242,-557 202.0525,-511.8823 187.3974,-441.1798 182.0469,-398.1615"/>
<polygon fill="#000000" stroke="#000000" points="185.512,-397.6555 180.9042,-388.1151 178.5568,-398.4466 185.512,-397.6555"/>
</g>
<!-- 140543357302824 -->
<g id="node11" class="node">
<title>140543357302824</title>
<polygon fill="none" stroke="#000000" points="758,-554 648,-554 648,-518 758,-518 758,-554"/>
<text text-anchor="middle" x="703" y="-532.3" font-family="Times,serif" font-size="14.00" fill="#000000">TradeAppServlet</text>
</g>
<!-- 140543357302824&#45;&gt;140543357303440 -->
<g id="edge13" class="edge">
<title>140543357302824&#45;&gt;140543357303440</title>
<path fill="none" stroke="#000000" d="M647.7345,-549.3578C599.0223,-559.9561 525.9728,-573 461.5,-573 359,-573 359,-573 359,-573 302.4507,-573 281.3219,-563.6401 242,-523 208.5778,-488.4573 192.3571,-434.1871 184.871,-398.109"/>
<polygon fill="#000000" stroke="#000000" points="188.2481,-397.1398 182.9013,-387.9931 181.3771,-398.4778 188.2481,-397.1398"/>
</g>
<!-- 140543357301144 -->
<g id="node12" class="node">
<title>140543357301144</title>
<polygon fill="none" stroke="#000000" points="746,-36 660,-36 660,0 746,0 746,-36"/>
<text text-anchor="middle" x="703" y="-14.3" font-family="Times,serif" font-size="14.00" fill="#000000">TradeConfig</text>
</g>
<!-- 140543357301144&#45;&gt;140543357303440 -->
<g id="edge9" class="edge">
<title>140543357301144&#45;&gt;140543357303440</title>
<path fill="none" stroke="#000000" d="M659.8132,-17.1403C611.4972,-16.2538 530.8947,-15 461.5,-15 359,-15 359,-15 359,-15 304.3261,-15 278.4302,-12.2314 242,-53 237.4482,-58.0938 201.4661,-243.6933 186.0124,-324.2764"/>
<polygon fill="#000000" stroke="#000000" points="182.5038,-323.9896 184.0598,-334.4695 189.3788,-325.3066 182.5038,-323.9896"/>
</g>
<!-- 140543357304728 -->
<g id="node13" class="node">
<title>140543357304728</title>
<polygon fill="none" stroke="#000000" points="757,-494 649,-494 649,-458 757,-458 757,-494"/>
<text text-anchor="middle" x="703" y="-472.3" font-family="Times,serif" font-size="14.00" fill="#000000">TradeSLSBBean</text>
</g>
<!-- 140543357304728&#45;&gt;140543357303440 -->
<g id="edge11" class="edge">
<title>140543357304728&#45;&gt;140543357303440</title>
<path fill="none" stroke="#000000" d="M657.5108,-494.0225C609.5562,-511.3734 531.4195,-535 461.5,-535 359,-535 359,-535 359,-535 303.5993,-535 283.0099,-529.2481 242,-492 214.1765,-466.7288 197.4036,-426.5214 188.2407,-397.3112"/>
<polygon fill="#000000" stroke="#000000" points="191.5214,-396.0645 185.3115,-387.4804 184.8129,-398.0635 191.5214,-396.0645"/>
</g>
<!-- 140543357302096 -->
<g id="node14" class="node">
<title>140543357302096</title>
<polygon fill="none" stroke="#000000" points="501,-207 422,-207 422,-171 501,-171 501,-207"/>
<text text-anchor="middle" x="461.5" y="-185.3" font-family="Times,serif" font-size="14.00" fill="#000000">init_loop_2</text>
</g>
<!-- 140543357301760 -->
<g id="node22" class="node">
<title>140543357301760</title>
<ellipse fill="none" stroke="#000000" cx="564" cy="-332" rx="27" ry="27"/>
<text text-anchor="middle" x="564" y="-328.3" font-family="Times,serif" font-size="14.00" fill="#000000">p_5</text>
</g>
<!-- 140543357302096&#45;&gt;140543357301760 -->
<g id="edge14" class="edge">
<title>140543357302096&#45;&gt;140543357301760</title>
<path fill="none" stroke="#000000" d="M483.9683,-207.3459C489.8626,-212.7096 495.9706,-218.8051 501,-225 519.4277,-247.6983 536.0124,-276.3781 547.5346,-298.3308"/>
<polygon fill="#000000" stroke="#000000" points="544.4602,-300.0056 552.1534,-307.2902 550.6821,-296.798 544.4602,-300.0056"/>
</g>
<!-- 140543357303552 -->
<g id="node15" class="node">
<title>140543357303552</title>
<polygon fill="none" stroke="#000000" points="488.5,-350 434.5,-350 434.5,-314 488.5,-314 488.5,-350"/>
<text text-anchor="middle" x="461.5" y="-328.3" font-family="Times,serif" font-size="14.00" fill="#000000">loop_3</text>
</g>
<!-- 140543357303552&#45;&gt;140543357301760 -->
<g id="edge15" class="edge">
<title>140543357303552&#45;&gt;140543357301760</title>
<path fill="none" stroke="#000000" d="M488.699,-332C500.2828,-332 513.9866,-332 526.5073,-332"/>
<polygon fill="#000000" stroke="#000000" points="526.6739,-335.5001 536.6739,-332 526.6739,-328.5001 526.6739,-335.5001"/>
</g>
<!-- 140543360917632 -->
<g id="node16" class="node">
<title>140543360917632</title>
<polygon fill="none" stroke="#000000" points="296,-354 242,-354 242,-318 296,-318 296,-354"/>
<text text-anchor="middle" x="269" y="-332.3" font-family="Times,serif" font-size="14.00" fill="#000000">skip_4</text>
</g>
<!-- 140543357303160 -->
<g id="node24" class="node">
<title>140543357303160</title>
<ellipse fill="none" stroke="#000000" cx="359" cy="-332" rx="27" ry="27"/>
<text text-anchor="middle" x="359" y="-328.3" font-family="Times,serif" font-size="14.00" fill="#000000">p_7</text>
</g>
<!-- 140543360917632&#45;&gt;140543357303160 -->
<g id="edge33" class="edge">
<title>140543360917632&#45;&gt;140543357303160</title>
<path fill="none" stroke="#000000" d="M296.003,-334.7999C304.1013,-334.4399 313.1306,-334.0386 321.7665,-333.6548"/>
<polygon fill="#000000" stroke="#000000" points="322.1814,-337.1399 332.0161,-333.1993 321.8705,-330.1468 322.1814,-337.1399"/>
</g>
<!-- 140543360917856 -->
<g id="node17" class="node">
<title>140543360917856</title>
<polygon fill="none" stroke="#000000" points="296,-456 242,-456 242,-420 296,-420 296,-456"/>
<text text-anchor="middle" x="269" y="-434.3" font-family="Times,serif" font-size="14.00" fill="#000000">skip_5</text>
</g>
<!-- 140543357302040 -->
<g id="node21" class="node">
<title>140543357302040</title>
<ellipse fill="none" stroke="#000000" cx="359" cy="-442" rx="27" ry="27"/>
<text text-anchor="middle" x="359" y="-438.3" font-family="Times,serif" font-size="14.00" fill="#000000">p_4</text>
</g>
<!-- 140543360917856&#45;&gt;140543357302040 -->
<g id="edge34" class="edge">
<title>140543360917856&#45;&gt;140543357302040</title>
<path fill="none" stroke="#000000" d="M296.003,-439.2001C304.1013,-439.5601 313.1306,-439.9614 321.7665,-440.3452"/>
<polygon fill="#000000" stroke="#000000" points="321.8705,-443.8532 332.0161,-440.8007 322.1814,-436.8601 321.8705,-443.8532"/>
</g>
<!-- 140543357304000 -->
<g id="node18" class="node">
<title>140543357304000</title>
<polygon fill="none" stroke="#000000" points="296,-202 242,-202 242,-166 296,-166 296,-202"/>
<text text-anchor="middle" x="269" y="-180.3" font-family="Times,serif" font-size="14.00" fill="#000000">tau_1</text>
</g>
<!-- 140543318223280 -->
<g id="node20" class="node">
<title>140543318223280</title>
<ellipse fill="none" stroke="#000000" cx="359" cy="-184" rx="27" ry="27"/>
<text text-anchor="middle" x="359" y="-180.3" font-family="Times,serif" font-size="14.00" fill="#000000">p_3</text>
</g>
<!-- 140543357304000&#45;&gt;140543318223280 -->
<g id="edge36" class="edge">
<title>140543357304000&#45;&gt;140543318223280</title>
<path fill="none" stroke="#000000" d="M296.003,-184C304.0277,-184 312.9665,-184 321.5309,-184"/>
<polygon fill="#000000" stroke="#000000" points="321.7051,-187.5001 331.705,-184 321.705,-180.5001 321.7051,-187.5001"/>
</g>
<!-- 140543357103912 -->
<g id="node19" class="node">
<title>140543357103912</title>
<ellipse fill="#00ff00" stroke="#000000" cx="179" cy="-184" rx="27" ry="27"/>
<text text-anchor="middle" x="179" y="-180.3" font-family="Times,serif" font-size="14.00" fill="#000000">1</text>
</g>
<!-- 140543357103912&#45;&gt;140543357304000 -->
<g id="edge35" class="edge">
<title>140543357103912&#45;&gt;140543357304000</title>
<path fill="none" stroke="#000000" d="M206.003,-184C214.0277,-184 222.9665,-184 231.5309,-184"/>
<polygon fill="#000000" stroke="#000000" points="231.7051,-187.5001 241.705,-184 231.705,-180.5001 231.7051,-187.5001"/>
</g>
<!-- 140543318223280&#45;&gt;140543357302096 -->
<g id="edge16" class="edge">
<title>140543318223280&#45;&gt;140543357302096</title>
<path fill="none" stroke="#000000" d="M386.199,-185.3268C394.0426,-185.7094 402.8582,-186.1394 411.6204,-186.5668"/>
<polygon fill="#000000" stroke="#000000" points="411.6617,-190.0729 421.8204,-187.0644 412.0028,-183.0812 411.6617,-190.0729"/>
</g>
<!-- 140543357302040&#45;&gt;140543357303328 -->
<g id="edge17" class="edge">
<title>140543357302040&#45;&gt;140543357303328</title>
<path fill="none" stroke="#000000" d="M386.199,-442C397.7828,-442 411.4866,-442 424.0073,-442"/>
<polygon fill="#000000" stroke="#000000" points="424.1739,-445.5001 434.1739,-442 424.1739,-438.5001 424.1739,-445.5001"/>
</g>
<!-- 140543357301760&#45;&gt;140543357302376 -->
<g id="edge23" class="edge">
<title>140543357301760&#45;&gt;140543357302376</title>
<path fill="none" stroke="#000000" d="M542.7048,-314.9424C506.9712,-288.0941 431.6914,-239 359,-239 269,-239 269,-239 269,-239 211.1596,-239 147.7848,-260.4157 105.7405,-277.8688"/>
<polygon fill="#000000" stroke="#000000" points="104.1577,-274.7382 96.3164,-281.8631 106.8894,-281.1832 104.1577,-274.7382"/>
</g>
<!-- 140543357301760&#45;&gt;140543357301536 -->
<g id="edge18" class="edge">
<title>140543357301760&#45;&gt;140543357301536</title>
<path fill="none" stroke="#000000" d="M583.8135,-350.4335C595.6679,-360.7446 611.4179,-373.2446 627,-382 630.6547,-384.0535 634.4888,-386.0085 638.4111,-387.86"/>
<polygon fill="#000000" stroke="#000000" points="637.1212,-391.1169 647.68,-391.9901 639.9703,-384.7229 637.1212,-391.1169"/>
</g>
<!-- 140543357301760&#45;&gt;140543357301032 -->
<g id="edge28" class="edge">
<title>140543357301760&#45;&gt;140543357301032</title>
<path fill="none" stroke="#000000" d="M590.8006,-336.4346C606.5879,-339.0469 627.1745,-342.4533 646.3969,-345.634"/>
<polygon fill="#000000" stroke="#000000" points="645.8548,-349.0918 656.292,-347.2713 646.9976,-342.1857 645.8548,-349.0918"/>
</g>
<!-- 140543357301760&#45;&gt;140543357301872 -->
<g id="edge21" class="edge">
<title>140543357301760&#45;&gt;140543357301872</title>
<path fill="none" stroke="#000000" d="M590.472,-325.7153C603.4529,-322.6335 619.7353,-318.7679 635.8491,-314.9423"/>
<polygon fill="#000000" stroke="#000000" points="636.9084,-318.2882 645.8295,-312.5729 635.2914,-311.4775 636.9084,-318.2882"/>
</g>
<!-- 140543357301760&#45;&gt;140543357302488 -->
<g id="edge26" class="edge">
<title>140543357301760&#45;&gt;140543357302488</title>
<path fill="none" stroke="#000000" d="M581.708,-311.5975C593.5412,-298.9165 610.0058,-282.9926 627,-272 639.0135,-264.2291 653.2945,-257.7852 666.2161,-252.8227"/>
<polygon fill="#000000" stroke="#000000" points="667.5883,-256.0475 675.7724,-249.3191 665.1787,-249.4752 667.5883,-256.0475"/>
</g>
<!-- 140543357301760&#45;&gt;140543357302656 -->
<g id="edge19" class="edge">
<title>140543357301760&#45;&gt;140543357302656</title>
<path fill="none" stroke="#000000" d="M572.4068,-305.9679C581.9946,-279.817 599.9348,-239.7957 627,-214 632.0415,-209.1949 637.8431,-204.9306 643.9464,-201.1724"/>
<polygon fill="#000000" stroke="#000000" points="646.069,-203.993 653.051,-196.0241 642.6235,-197.8997 646.069,-203.993"/>
</g>
<!-- 140543357301760&#45;&gt;140543357301256 -->
<g id="edge22" class="edge">
<title>140543357301760&#45;&gt;140543357301256</title>
<path fill="none" stroke="#000000" d="M567.3748,-305.1876C573.3799,-267.1134 589.0672,-196.9159 627,-151 633.6228,-142.9834 642.1111,-136.1153 651.0008,-130.3528"/>
<polygon fill="#000000" stroke="#000000" points="652.8449,-133.3279 659.5992,-125.1651 649.2287,-127.3343 652.8449,-133.3279"/>
</g>
<!-- 140543357301760&#45;&gt;140543357302432 -->
<g id="edge24" class="edge">
<title>140543357301760&#45;&gt;140543357302432</title>
<path fill="none" stroke="#000000" d="M574.4118,-356.9787C579.9897,-371.1534 586.5991,-389.3401 591,-406 615.6325,-499.2489 565.4415,-545.7526 627,-620 631.1817,-625.0437 636.3588,-629.1789 642.0305,-632.5694"/>
<polygon fill="#000000" stroke="#000000" points="640.7824,-635.8625 651.2782,-637.3076 643.9744,-629.6326 640.7824,-635.8625"/>
</g>
<!-- 140543357301760&#45;&gt;140543357303104 -->
<g id="edge20" class="edge">
<title>140543357301760&#45;&gt;140543357303104</title>
<path fill="none" stroke="#000000" d="M574.0348,-357.0842C579.4947,-371.292 586.1118,-389.4765 591,-406 611.3082,-474.6477 580.3296,-508.7154 627,-563 633.3831,-570.4245 641.849,-576.0262 650.8107,-580.2484"/>
<polygon fill="#000000" stroke="#000000" points="649.6845,-583.5703 660.2625,-584.1675 652.3657,-577.1042 649.6845,-583.5703"/>
</g>
<!-- 140543357301760&#45;&gt;140543357302824 -->
<g id="edge29" class="edge">
<title>140543357301760&#45;&gt;140543357302824</title>
<path fill="none" stroke="#000000" d="M573.3143,-357.4761C590.6858,-404.9642 626.343,-502.3047 627,-503 630.6121,-506.8228 634.7427,-510.2267 639.17,-513.2535"/>
<polygon fill="#000000" stroke="#000000" points="637.629,-516.4129 647.9914,-518.6204 641.2673,-510.4326 637.629,-516.4129"/>
</g>
<!-- 140543357301760&#45;&gt;140543357301144 -->
<g id="edge25" class="edge">
<title>140543357301760&#45;&gt;140543357301144</title>
<path fill="none" stroke="#000000" d="M565.2447,-304.8107C568.6144,-256.109 581.0703,-152.3332 627,-80 636.373,-65.2387 650.455,-52.3438 663.96,-42.1931"/>
<polygon fill="#000000" stroke="#000000" points="666.1706,-44.9145 672.247,-36.2353 662.0844,-39.2309 666.1706,-44.9145"/>
</g>
<!-- 140543357301760&#45;&gt;140543357304728 -->
<g id="edge27" class="edge">
<title>140543357301760&#45;&gt;140543357304728</title>
<path fill="none" stroke="#000000" d="M574.2444,-357.1753C584.6881,-380.3064 602.7855,-414.34 627,-437 633.4514,-443.0372 641.0162,-448.3767 648.8269,-453.0162"/>
<polygon fill="#000000" stroke="#000000" points="647.2636,-456.1517 657.7035,-457.9569 650.6679,-450.0353 647.2636,-456.1517"/>
</g>
<!-- 140543357303440&#45;&gt;140543360917632 -->
<g id="edge30" class="edge">
<title>140543357303440&#45;&gt;140543360917632</title>
<path fill="none" stroke="#000000" d="M205.0317,-353.769C213.4054,-351.4429 222.8517,-348.819 231.8638,-346.3156"/>
<polygon fill="#000000" stroke="#000000" points="233.0754,-349.6117 241.7738,-343.5628 231.2018,-342.867 233.0754,-349.6117"/>
</g>
<!-- 140543357303440&#45;&gt;140543360917856 -->
<g id="edge31" class="edge">
<title>140543357303440&#45;&gt;140543360917856</title>
<path fill="none" stroke="#000000" d="M199.874,-378.8589C211.8287,-389.0868 227.0087,-402.0741 240.0964,-413.2713"/>
<polygon fill="#000000" stroke="#000000" points="238.0535,-416.1297 247.9274,-419.9712 242.6042,-410.8107 238.0535,-416.1297"/>
</g>
<!-- 140543357303160&#45;&gt;140543357303552 -->
<g id="edge32" class="edge">
<title>140543357303160&#45;&gt;140543357303552</title>
<path fill="none" stroke="#000000" d="M386.199,-332C397.7828,-332 411.4866,-332 424.0073,-332"/>
<polygon fill="#000000" stroke="#000000" points="424.1739,-335.5001 434.1739,-332 424.1739,-328.5001 424.1739,-335.5001"/>
</g>
</g>
</svg>
