<?xml version="1.0" encoding="UTF-8" standalone="no"?>
<!DOCTYPE svg PUBLIC "-//W3C//DTD SVG 1.1//EN"
 "http://www.w3.org/Graphics/SVG/1.1/DTD/svg11.dtd">
<!-- Generated by graphviz version 2.40.1 (20161225.0304)
 -->
<!-- Title: imdf_net_1585321016.0887408 Pages: 1 -->
<svg width="787pt" height="705pt"
 viewBox="0.00 0.00 787.00 705.00" xmlns="http://www.w3.org/2000/svg" xmlns:xlink="http://www.w3.org/1999/xlink">
<g id="graph0" class="graph" transform="scale(1 1) rotate(0) translate(4 701)">
<title>imdf_net_1585321016.0887408</title>
<!-- 140531500683672 -->
<g id="node1" class="node">
<title>140531500683672</title>
<polygon fill="none" stroke="#000000" points="116,-269 0,-269 0,-233 116,-233 116,-269"/>
<text text-anchor="middle" x="58" y="-247.3" font-family="Times,serif" font-size="14.00" fill="#000000">AccountDataBean</text>
</g>
<!-- 140531501132768 -->
<g id="node24" class="node">
<title>140531501132768</title>
<ellipse fill="none" stroke="#000000" cx="179" cy="-298" rx="27" ry="27"/>
<text text-anchor="middle" x="179" y="-294.3" font-family="Times,serif" font-size="14.00" fill="#000000">p_6</text>
</g>
<!-- 140531500683672&#45;&gt;140531501132768 -->
<g id="edge2" class="edge">
<title>140531500683672&#45;&gt;140531501132768</title>
<path fill="none" stroke="#000000" d="M104.4357,-269.037C117.5826,-274.1437 131.6676,-279.6147 144.0161,-284.4112"/>
<polygon fill="#000000" stroke="#000000" points="142.9073,-287.7352 153.4961,-288.0935 145.4419,-281.2102 142.9073,-287.7352"/>
</g>
<!-- 140531500683840 -->
<g id="node2" class="node">
<title>140531500683840</title>
<polygon fill="none" stroke="#000000" points="779,-470 627,-470 627,-434 779,-434 779,-470"/>
<text text-anchor="middle" x="703" y="-448.3" font-family="Times,serif" font-size="14.00" fill="#000000">AccountProfileDataBean</text>
</g>
<!-- 140531500683840&#45;&gt;140531501132768 -->
<g id="edge14" class="edge">
<title>140531500683840&#45;&gt;140531501132768</title>
<path fill="none" stroke="#000000" d="M646.5653,-470.1066C598.0343,-484.0648 525.886,-501 461.5,-501 359,-501 359,-501 359,-501 301.9135,-501 281.8031,-488.9216 242,-448 211.3023,-416.4396 194.6306,-367.7012 186.2854,-334.4044"/>
<polygon fill="#000000" stroke="#000000" points="189.6735,-333.5229 183.9565,-324.6028 182.8631,-335.1411 189.6735,-333.5229"/>
</g>
<!-- 140531501133496 -->
<g id="node3" class="node">
<title>140531501133496</title>
<polygon fill="none" stroke="#000000" points="749.5,-416 656.5,-416 656.5,-380 749.5,-380 749.5,-416"/>
<text text-anchor="middle" x="703" y="-394.3" font-family="Times,serif" font-size="14.00" fill="#000000">FinancialUtils</text>
</g>
<!-- 140531501133496&#45;&gt;140531501132768 -->
<g id="edge3" class="edge">
<title>140531501133496&#45;&gt;140531501132768</title>
<path fill="none" stroke="#000000" d="M656.4203,-413.6518C597.5481,-432.8853 499.329,-463 461.5,-463 359,-463 359,-463 359,-463 302.9612,-463 283.7142,-453.4202 242,-416 217.1678,-393.724 200.3672,-359.2935 190.4035,-333.3627"/>
<polygon fill="#000000" stroke="#000000" points="193.654,-332.0609 186.9171,-323.8838 187.0843,-334.4773 193.654,-332.0609"/>
</g>
<!-- 140531500684008 -->
<g id="node4" class="node">
<title>140531500684008</title>
<polygon fill="none" stroke="#000000" points="760,-362 646,-362 646,-326 760,-326 760,-362"/>
<text text-anchor="middle" x="703" y="-340.3" font-family="Times,serif" font-size="14.00" fill="#000000">HoldingDataBean</text>
</g>
<!-- 140531500684008&#45;&gt;140531501132768 -->
<g id="edge9" class="edge">
<title>140531500684008&#45;&gt;140531501132768</title>
<path fill="none" stroke="#000000" d="M645.7156,-361.3043C639.2069,-364.1514 632.8265,-367.3768 627,-371 608.0499,-382.7842 611.0106,-396.1232 591,-406 538.8363,-431.7468 519.6717,-425 461.5,-425 359,-425 359,-425 359,-425 304.4618,-425 285.966,-420.2709 242,-388 222.18,-373.4522 206.3465,-350.7355 195.5102,-331.7652"/>
<polygon fill="#000000" stroke="#000000" points="198.474,-329.8906 190.5964,-322.8057 192.3364,-333.2567 198.474,-329.8906"/>
</g>
<!-- 140531501132992 -->
<g id="node5" class="node">
<title>140531501132992</title>
<polygon fill="none" stroke="#000000" points="730,-308 676,-308 676,-272 730,-272 730,-308"/>
<text text-anchor="middle" x="703" y="-286.3" font-family="Times,serif" font-size="14.00" fill="#000000">Log</text>
</g>
<!-- 140531501132992&#45;&gt;140531501132768 -->
<g id="edge5" class="edge">
<title>140531501132992&#45;&gt;140531501132768</title>
<path fill="none" stroke="#000000" d="M675.8103,-281.1597C631.4507,-267.5449 540.5204,-243 461.5,-243 359,-243 359,-243 359,-243 305.984,-243 247.8679,-265.0918 212.4111,-281.273"/>
<polygon fill="#000000" stroke="#000000" points="210.6109,-278.251 203.0345,-285.6569 213.5757,-284.5921 210.6109,-278.251"/>
</g>
<!-- 140531500684176 -->
<g id="node6" class="node">
<title>140531500684176</title>
<polygon fill="none" stroke="#000000" points="753.5,-254 652.5,-254 652.5,-218 753.5,-218 753.5,-254"/>
<text text-anchor="middle" x="703" y="-232.3" font-family="Times,serif" font-size="14.00" fill="#000000">OrderDataBean</text>
</g>
<!-- 140531500684176&#45;&gt;140531501132768 -->
<g id="edge10" class="edge">
<title>140531500684176&#45;&gt;140531501132768</title>
<path fill="none" stroke="#000000" d="M652.3582,-217.9612C593.1765,-197.5171 498.6186,-167 461.5,-167 359,-167 359,-167 359,-167 291.088,-167 231.6028,-228.7147 200.9702,-267.4258"/>
<polygon fill="#000000" stroke="#000000" points="197.8633,-265.7228 194.5239,-275.7776 203.4047,-269.9999 197.8633,-265.7228"/>
</g>
<!-- 140531501133328 -->
<g id="node7" class="node">
<title>140531501133328</title>
<polygon fill="none" stroke="#000000" points="758,-146 648,-146 648,-110 758,-110 758,-146"/>
<text text-anchor="middle" x="703" y="-124.3" font-family="Times,serif" font-size="14.00" fill="#000000">OrdersAlertFilter</text>
</g>
<!-- 140531501133328&#45;&gt;140531501132768 -->
<g id="edge11" class="edge">
<title>140531501133328&#45;&gt;140531501132768</title>
<path fill="none" stroke="#000000" d="M647.7345,-114.6422C599.0223,-104.0439 525.9728,-91 461.5,-91 359,-91 359,-91 359,-91 303.2864,-91 281.4686,-96.6779 242,-136 207.8526,-170.0207 191.7909,-224.6564 184.5399,-260.9366"/>
<polygon fill="#000000" stroke="#000000" points="181.036,-260.6339 182.6412,-271.1064 187.9171,-261.9186 181.036,-260.6339"/>
</g>
<!-- 140531501133160 -->
<g id="node8" class="node">
<title>140531501133160</title>
<polygon fill="none" stroke="#000000" points="754.5,-36 651.5,-36 651.5,0 754.5,0 754.5,-36"/>
<text text-anchor="middle" x="703" y="-14.3" font-family="Times,serif" font-size="14.00" fill="#000000">QuoteDataBean</text>
</g>
<!-- 140531501133160&#45;&gt;140531501132768 -->
<g id="edge12" class="edge">
<title>140531501133160&#45;&gt;140531501132768</title>
<path fill="none" stroke="#000000" d="M651.182,-16.9843C602.2807,-16.114 526.9113,-15 461.5,-15 359,-15 359,-15 359,-15 304.1872,-15 279.3971,-13.9263 242,-54 214.0651,-83.9343 193.3012,-200.5304 184.1553,-261.0625"/>
<polygon fill="#000000" stroke="#000000" points="180.6898,-260.5724 182.6855,-270.9776 187.6141,-261.5989 180.6898,-260.5724"/>
</g>
<!-- 140531501132712 -->
<g id="node9" class="node">
<title>140531501132712</title>
<polygon fill="none" stroke="#000000" points="488.5,-388 434.5,-388 434.5,-352 488.5,-352 488.5,-388"/>
<text text-anchor="middle" x="461.5" y="-366.3" font-family="Times,serif" font-size="14.00" fill="#000000">Root</text>
</g>
<!-- 140531501130864 -->
<g id="node26" class="node">
<title>140531501130864</title>
<ellipse fill="#ffa500" stroke="#000000" cx="564" cy="-370" rx="27" ry="27"/>
</g>
<!-- 140531501132712&#45;&gt;140531501130864 -->
<g id="edge6" class="edge">
<title>140531501132712&#45;&gt;140531501130864</title>
<path fill="none" stroke="#000000" d="M488.699,-370C500.2828,-370 513.9866,-370 526.5073,-370"/>
<polygon fill="#000000" stroke="#000000" points="526.6739,-373.5001 536.6739,-370 526.6739,-366.5001 526.6739,-373.5001"/>
</g>
<!-- 140531501133664 -->
<g id="node10" class="node">
<title>140531501133664</title>
<polygon fill="none" stroke="#000000" points="745.5,-633 660.5,-633 660.5,-597 745.5,-597 745.5,-633"/>
<text text-anchor="middle" x="703" y="-611.3" font-family="Times,serif" font-size="14.00" fill="#000000">TradeAction</text>
</g>
<!-- 140531501133664&#45;&gt;140531501132768 -->
<g id="edge4" class="edge">
<title>140531501133664&#45;&gt;140531501132768</title>
<path fill="none" stroke="#000000" d="M660.2483,-615C611.9806,-615 531.099,-615 461.5,-615 359,-615 359,-615 359,-615 300.561,-615 278.2288,-600.8539 242,-555 215.1452,-521.0105 193.6673,-397.6268 184.2182,-335.0046"/>
<polygon fill="#000000" stroke="#000000" points="187.6303,-334.1533 182.7003,-324.7754 180.7061,-335.1808 187.6303,-334.1533"/>
</g>
<!-- 140531500683504 -->
<g id="node11" class="node">
<title>140531500683504</title>
<polygon fill="none" stroke="#000000" points="758,-200 648,-200 648,-164 758,-164 758,-200"/>
<text text-anchor="middle" x="703" y="-178.3" font-family="Times,serif" font-size="14.00" fill="#000000">TradeAppServlet</text>
</g>
<!-- 140531500683504&#45;&gt;140531501132768 -->
<g id="edge13" class="edge">
<title>140531500683504&#45;&gt;140531501132768</title>
<path fill="none" stroke="#000000" d="M651.4261,-163.9086C603.0119,-148.555 528.2482,-129 461.5,-129 359,-129 359,-129 359,-129 301.9135,-129 283.7967,-143.1169 242,-182 218.1512,-204.1864 201.3644,-237.4942 191.1493,-262.735"/>
<polygon fill="#000000" stroke="#000000" points="187.7863,-261.7266 187.4277,-272.3154 194.3113,-264.2614 187.7863,-261.7266"/>
</g>
<!-- 140531500684344 -->
<g id="node12" class="node">
<title>140531500684344</title>
<polygon fill="none" stroke="#000000" points="746,-579 660,-579 660,-543 746,-543 746,-579"/>
<text text-anchor="middle" x="703" y="-557.3" font-family="Times,serif" font-size="14.00" fill="#000000">TradeConfig</text>
</g>
<!-- 140531500684344&#45;&gt;140531501132768 -->
<g id="edge7" class="edge">
<title>140531500684344&#45;&gt;140531501132768</title>
<path fill="none" stroke="#000000" d="M659.8683,-565.585C611.601,-570.3129 531.0414,-577 461.5,-577 359,-577 359,-577 359,-577 300.7625,-577 279.1295,-562.8665 242,-518 218.8583,-490.036 196.6561,-389.9104 185.842,-334.8824"/>
<polygon fill="#000000" stroke="#000000" points="189.2339,-333.988 183.8958,-324.8362 182.3616,-335.3194 189.2339,-333.988"/>
</g>
<!-- 140531501133776 -->
<g id="node13" class="node">
<title>140531501133776</title>
<polygon fill="none" stroke="#000000" points="757,-91 649,-91 649,-55 757,-55 757,-91"/>
<text text-anchor="middle" x="703" y="-69.3" font-family="Times,serif" font-size="14.00" fill="#000000">TradeSLSBBean</text>
</g>
<!-- 140531501133776&#45;&gt;140531501132768 -->
<g id="edge1" class="edge">
<title>140531501133776&#45;&gt;140531501132768</title>
<path fill="none" stroke="#000000" d="M648.9143,-65.9487C600.04,-60.1906 526.0784,-53 461.5,-53 359,-53 359,-53 359,-53 303.8996,-53 280.224,-54.3141 242,-94 218.7971,-118.0903 196.9996,-209.5959 186.157,-261.4951"/>
<polygon fill="#000000" stroke="#000000" points="182.7236,-260.8151 184.1373,-271.3151 189.5801,-262.2252 182.7236,-260.8151"/>
</g>
<!-- 140531500684512 -->
<g id="node14" class="node">
<title>140531500684512</title>
<polygon fill="none" stroke="#000000" points="764.5,-524 641.5,-524 641.5,-488 764.5,-488 764.5,-524"/>
<text text-anchor="middle" x="703" y="-502.3" font-family="Times,serif" font-size="14.00" fill="#000000">TradeServletAction</text>
</g>
<!-- 140531500684512&#45;&gt;140531501132768 -->
<g id="edge8" class="edge">
<title>140531500684512&#45;&gt;140531501132768</title>
<path fill="none" stroke="#000000" d="M641.2733,-519.1373C592.6652,-528.3399 523.0708,-539 461.5,-539 359,-539 359,-539 359,-539 301.1573,-539 280.2999,-525.3462 242,-482 204.9797,-440.102 189.4927,-375.4237 183.171,-334.9638"/>
<polygon fill="#000000" stroke="#000000" points="186.6219,-334.3721 181.7203,-324.9793 179.6946,-335.3787 186.6219,-334.3721"/>
</g>
<!-- 140531501132432 -->
<g id="node15" class="node">
<title>140531501132432</title>
<polygon fill="none" stroke="#000000" points="501,-683 422,-683 422,-647 501,-647 501,-683"/>
<text text-anchor="middle" x="461.5" y="-661.3" font-family="Times,serif" font-size="14.00" fill="#000000">init_loop_2</text>
</g>
<!-- 140531501132320 -->
<g id="node23" class="node">
<title>140531501132320</title>
<ellipse fill="none" stroke="#000000" cx="564" cy="-298" rx="27" ry="27"/>
<text text-anchor="middle" x="564" y="-294.3" font-family="Times,serif" font-size="14.00" fill="#000000">p_5</text>
</g>
<!-- 140531501132432&#45;&gt;140531501132320 -->
<g id="edge15" class="edge">
<title>140531501132432&#45;&gt;140531501132320</title>
<path fill="none" stroke="#000000" d="M462.9634,-646.9284C467.6622,-595.6594 485.2127,-445.7728 537,-334 538.0633,-331.7051 539.2895,-329.4148 540.6203,-327.1648"/>
<polygon fill="#000000" stroke="#000000" points="543.5769,-329.0389 546.1491,-318.761 537.7289,-325.1916 543.5769,-329.0389"/>
</g>
<!-- 140531501132656 -->
<g id="node16" class="node">
<title>140531501132656</title>
<polygon fill="none" stroke="#000000" points="488.5,-316 434.5,-316 434.5,-280 488.5,-280 488.5,-316"/>
<text text-anchor="middle" x="461.5" y="-294.3" font-family="Times,serif" font-size="14.00" fill="#000000">loop_3</text>
</g>
<!-- 140531501132656&#45;&gt;140531501132320 -->
<g id="edge16" class="edge">
<title>140531501132656&#45;&gt;140531501132320</title>
<path fill="none" stroke="#000000" d="M488.699,-298C500.2828,-298 513.9866,-298 526.5073,-298"/>
<polygon fill="#000000" stroke="#000000" points="526.6739,-301.5001 536.6739,-298 526.6739,-294.5001 526.6739,-301.5001"/>
</g>
<!-- 140531500684736 -->
<g id="node17" class="node">
<title>140531500684736</title>
<polygon fill="none" stroke="#000000" points="296,-316 242,-316 242,-280 296,-280 296,-316"/>
<text text-anchor="middle" x="269" y="-294.3" font-family="Times,serif" font-size="14.00" fill="#000000">skip_4</text>
</g>
<!-- 140531501132880 -->
<g id="node25" class="node">
<title>140531501132880</title>
<ellipse fill="none" stroke="#000000" cx="359" cy="-298" rx="27" ry="27"/>
<text text-anchor="middle" x="359" y="-294.3" font-family="Times,serif" font-size="14.00" fill="#000000">p_7</text>
</g>
<!-- 140531500684736&#45;&gt;140531501132880 -->
<g id="edge35" class="edge">
<title>140531500684736&#45;&gt;140531501132880</title>
<path fill="none" stroke="#000000" d="M296.003,-298C304.0277,-298 312.9665,-298 321.5309,-298"/>
<polygon fill="#000000" stroke="#000000" points="321.7051,-301.5001 331.705,-298 321.705,-294.5001 321.7051,-301.5001"/>
</g>
<!-- 140531500684960 -->
<g id="node18" class="node">
<title>140531500684960</title>
<polygon fill="none" stroke="#000000" points="296,-379 242,-379 242,-343 296,-343 296,-379"/>
<text text-anchor="middle" x="269" y="-357.3" font-family="Times,serif" font-size="14.00" fill="#000000">skip_5</text>
</g>
<!-- 140531501132208 -->
<g id="node22" class="node">
<title>140531501132208</title>
<ellipse fill="none" stroke="#000000" cx="359" cy="-370" rx="27" ry="27"/>
<text text-anchor="middle" x="359" y="-366.3" font-family="Times,serif" font-size="14.00" fill="#000000">p_4</text>
</g>
<!-- 140531500684960&#45;&gt;140531501132208 -->
<g id="edge36" class="edge">
<title>140531500684960&#45;&gt;140531501132208</title>
<path fill="none" stroke="#000000" d="M296.003,-363.7003C304.1903,-364.519 313.3292,-365.4329 322.051,-366.3051"/>
<polygon fill="#000000" stroke="#000000" points="321.7174,-369.7891 332.0161,-367.3016 322.414,-362.8239 321.7174,-369.7891"/>
</g>
<!-- 140531501131760 -->
<g id="node19" class="node">
<title>140531501131760</title>
<polygon fill="none" stroke="#000000" points="296,-688 242,-688 242,-652 296,-652 296,-688"/>
<text text-anchor="middle" x="269" y="-666.3" font-family="Times,serif" font-size="14.00" fill="#000000">tau_1</text>
</g>
<!-- 140531501130976 -->
<g id="node21" class="node">
<title>140531501130976</title>
<ellipse fill="none" stroke="#000000" cx="359" cy="-670" rx="27" ry="27"/>
<text text-anchor="middle" x="359" y="-666.3" font-family="Times,serif" font-size="14.00" fill="#000000">p_3</text>
</g>
<!-- 140531501131760&#45;&gt;140531501130976 -->
<g id="edge38" class="edge">
<title>140531501131760&#45;&gt;140531501130976</title>
<path fill="none" stroke="#000000" d="M296.003,-670C304.0277,-670 312.9665,-670 321.5309,-670"/>
<polygon fill="#000000" stroke="#000000" points="321.7051,-673.5001 331.705,-670 321.705,-666.5001 321.7051,-673.5001"/>
</g>
<!-- 140531501379144 -->
<g id="node20" class="node">
<title>140531501379144</title>
<ellipse fill="#00ff00" stroke="#000000" cx="179" cy="-670" rx="27" ry="27"/>
<text text-anchor="middle" x="179" y="-666.3" font-family="Times,serif" font-size="14.00" fill="#000000">1</text>
</g>
<!-- 140531501379144&#45;&gt;140531501131760 -->
<g id="edge37" class="edge">
<title>140531501379144&#45;&gt;140531501131760</title>
<path fill="none" stroke="#000000" d="M206.003,-670C214.0277,-670 222.9665,-670 231.5309,-670"/>
<polygon fill="#000000" stroke="#000000" points="231.7051,-673.5001 241.705,-670 231.705,-666.5001 231.7051,-673.5001"/>
</g>
<!-- 140531501130976&#45;&gt;140531501132432 -->
<g id="edge17" class="edge">
<title>140531501130976&#45;&gt;140531501132432</title>
<path fill="none" stroke="#000000" d="M386.199,-668.6732C394.0426,-668.2906 402.8582,-667.8606 411.6204,-667.4332"/>
<polygon fill="#000000" stroke="#000000" points="412.0028,-670.9188 421.8204,-666.9356 411.6617,-663.9271 412.0028,-670.9188"/>
</g>
<!-- 140531501132208&#45;&gt;140531501132712 -->
<g id="edge18" class="edge">
<title>140531501132208&#45;&gt;140531501132712</title>
<path fill="none" stroke="#000000" d="M386.199,-370C397.7828,-370 411.4866,-370 424.0073,-370"/>
<polygon fill="#000000" stroke="#000000" points="424.1739,-373.5001 434.1739,-370 424.1739,-366.5001 424.1739,-373.5001"/>
</g>
<!-- 140531501132320&#45;&gt;140531500683672 -->
<g id="edge20" class="edge">
<title>140531501132320&#45;&gt;140531500683672</title>
<path fill="none" stroke="#000000" d="M542.7048,-280.9424C506.9712,-254.0941 431.6914,-205 359,-205 269,-205 269,-205 269,-205 218.1502,-205 161.9566,-217.9113 120.3539,-230.0533"/>
<polygon fill="#000000" stroke="#000000" points="119.2216,-226.7385 110.6398,-232.9516 121.2231,-233.4463 119.2216,-226.7385"/>
</g>
<!-- 140531501132320&#45;&gt;140531500683840 -->
<g id="edge31" class="edge">
<title>140531501132320&#45;&gt;140531500683840</title>
<path fill="none" stroke="#000000" d="M581.2559,-319.0648C584.7303,-323.8182 588.1772,-328.9547 591,-334 612.237,-371.9571 595.706,-394.7934 627,-425 628.1019,-426.0636 629.2484,-427.0857 630.4336,-428.0677"/>
<polygon fill="#000000" stroke="#000000" points="628.5788,-431.0434 638.7569,-433.9857 632.6352,-425.3385 628.5788,-431.0434"/>
</g>
<!-- 140531501132320&#45;&gt;140531501133496 -->
<g id="edge21" class="edge">
<title>140531501132320&#45;&gt;140531501133496</title>
<path fill="none" stroke="#000000" d="M580.6811,-319.7012C595.4559,-338.4577 616.2926,-363.6735 627,-371 633.038,-375.1315 639.7773,-378.7013 646.68,-381.7665"/>
<polygon fill="#000000" stroke="#000000" points="645.5629,-385.091 656.1436,-385.639 648.214,-378.6124 645.5629,-385.091"/>
</g>
<!-- 140531501132320&#45;&gt;140531500684008 -->
<g id="edge26" class="edge">
<title>140531501132320&#45;&gt;140531500684008</title>
<path fill="none" stroke="#000000" d="M589.8191,-306.5444C603.7303,-311.1482 621.568,-317.0513 638.9485,-322.8031"/>
<polygon fill="#000000" stroke="#000000" points="637.9361,-326.1547 648.5294,-325.9738 640.1354,-319.5091 637.9361,-326.1547"/>
</g>
<!-- 140531501132320&#45;&gt;140531501132992 -->
<g id="edge23" class="edge">
<title>140531501132320&#45;&gt;140531501132992</title>
<path fill="none" stroke="#000000" d="M591.1306,-296.4385C612.3699,-295.2161 642.146,-293.5024 665.6391,-292.1503"/>
<polygon fill="#000000" stroke="#000000" points="666.1555,-295.6264 675.9379,-291.5575 665.7532,-288.638 666.1555,-295.6264"/>
</g>
<!-- 140531501132320&#45;&gt;140531500684176 -->
<g id="edge27" class="edge">
<title>140531501132320&#45;&gt;140531500684176</title>
<path fill="none" stroke="#000000" d="M587.1582,-283.923C598.8634,-277.1224 613.4305,-269.1287 627,-263 632.0247,-260.7306 637.3017,-258.5205 642.6344,-256.4053"/>
<polygon fill="#000000" stroke="#000000" points="644.1733,-259.5635 652.2511,-252.7079 641.6612,-253.0297 644.1733,-259.5635"/>
</g>
<!-- 140531501132320&#45;&gt;140531501133328 -->
<g id="edge28" class="edge">
<title>140531501132320&#45;&gt;140531501133328</title>
<path fill="none" stroke="#000000" d="M569.0477,-271.3365C576.4181,-239.46 593.1114,-186.4813 627,-155 630.5329,-151.7181 634.4906,-148.8305 638.6948,-146.2907"/>
<polygon fill="#000000" stroke="#000000" points="640.426,-149.3343 647.6139,-141.5506 637.1409,-143.153 640.426,-149.3343"/>
</g>
<!-- 140531501132320&#45;&gt;140531501133160 -->
<g id="edge29" class="edge">
<title>140531501132320&#45;&gt;140531501133160</title>
<path fill="none" stroke="#000000" d="M567.5217,-271.0508C575.5856,-213.1456 597.0304,-79.395 627,-46 631.3143,-41.1926 636.5275,-37.2089 642.178,-33.9081"/>
<polygon fill="#000000" stroke="#000000" points="644.0108,-36.9032 651.351,-29.263 640.8484,-30.6582 644.0108,-36.9032"/>
</g>
<!-- 140531501132320&#45;&gt;140531501133664 -->
<g id="edge22" class="edge">
<title>140531501132320&#45;&gt;140531501133664</title>
<path fill="none" stroke="#000000" d="M581.9085,-318.2276C585.4294,-323.1114 588.7308,-328.5132 591,-334 634.5744,-439.3621 554.8541,-499.7115 627,-588 633.1814,-595.5644 641.638,-601.0112 650.6707,-604.9326"/>
<polygon fill="#000000" stroke="#000000" points="649.6283,-608.2793 660.221,-608.4919 652.0729,-601.72 649.6283,-608.2793"/>
</g>
<!-- 140531501132320&#45;&gt;140531500683504 -->
<g id="edge30" class="edge">
<title>140531501132320&#45;&gt;140531500683504</title>
<path fill="none" stroke="#000000" d="M575.8149,-273.6764C586.6231,-253.7511 604.3614,-226.1416 627,-209 630.6141,-206.2635 634.5296,-203.7872 638.6124,-201.5493"/>
<polygon fill="#000000" stroke="#000000" points="640.354,-204.5927 647.7658,-197.022 637.2505,-198.3182 640.354,-204.5927"/>
</g>
<!-- 140531501132320&#45;&gt;140531500684344 -->
<g id="edge24" class="edge">
<title>140531501132320&#45;&gt;140531500684344</title>
<path fill="none" stroke="#000000" d="M582.032,-318.6796C585.458,-323.4571 588.689,-328.7007 591,-334 626.9288,-416.3865 569.2086,-464.1627 627,-533 633.1735,-540.3535 641.4605,-545.7762 650.2944,-549.775"/>
<polygon fill="#000000" stroke="#000000" points="649.0454,-553.0447 659.6325,-553.448 651.6077,-546.5305 649.0454,-553.0447"/>
</g>
<!-- 140531501132320&#45;&gt;140531501133776 -->
<g id="edge19" class="edge">
<title>140531501132320&#45;&gt;140531501133776</title>
<path fill="none" stroke="#000000" d="M569.4544,-271.5142C579.7653,-223.7502 603.2226,-125.8341 627,-101 630.829,-97.0008 635.2781,-93.5694 640.0659,-90.6258"/>
<polygon fill="#000000" stroke="#000000" points="641.833,-93.6497 648.9891,-85.8368 638.5227,-87.4819 641.833,-93.6497"/>
</g>
<!-- 140531501132320&#45;&gt;140531500684512 -->
<g id="edge25" class="edge">
<title>140531501132320&#45;&gt;140531500684512</title>
<path fill="none" stroke="#000000" d="M581.7752,-318.7966C585.2172,-323.5667 588.5196,-328.7779 591,-334 619.4886,-393.9791 582.4036,-429.804 627,-479 628.8103,-480.997 630.7781,-482.8464 632.8695,-484.559"/>
<polygon fill="#000000" stroke="#000000" points="631.2608,-487.7019 641.4768,-490.5099 635.2417,-481.944 631.2608,-487.7019"/>
</g>
<!-- 140531501132768&#45;&gt;140531500684736 -->
<g id="edge32" class="edge">
<title>140531501132768&#45;&gt;140531500684736</title>
<path fill="none" stroke="#000000" d="M206.003,-298C214.0277,-298 222.9665,-298 231.5309,-298"/>
<polygon fill="#000000" stroke="#000000" points="231.7051,-301.5001 241.705,-298 231.705,-294.5001 231.7051,-301.5001"/>
</g>
<!-- 140531501132768&#45;&gt;140531500684960 -->
<g id="edge33" class="edge">
<title>140531501132768&#45;&gt;140531500684960</title>
<path fill="none" stroke="#000000" d="M201.2472,-313.573C211.3684,-320.6579 223.5735,-329.2015 234.8201,-337.0741"/>
<polygon fill="#000000" stroke="#000000" points="232.9838,-340.0609 243.1832,-342.9283 236.998,-334.3263 232.9838,-340.0609"/>
</g>
<!-- 140531501132880&#45;&gt;140531501132656 -->
<g id="edge34" class="edge">
<title>140531501132880&#45;&gt;140531501132656</title>
<path fill="none" stroke="#000000" d="M386.199,-298C397.7828,-298 411.4866,-298 424.0073,-298"/>
<polygon fill="#000000" stroke="#000000" points="424.1739,-301.5001 434.1739,-298 424.1739,-294.5001 424.1739,-301.5001"/>
</g>
</g>
</svg>
