<?xml version="1.0" encoding="UTF-8" standalone="no"?>
<!DOCTYPE svg PUBLIC "-//W3C//DTD SVG 1.1//EN"
 "http://www.w3.org/Graphics/SVG/1.1/DTD/svg11.dtd">
<!-- Generated by graphviz version 2.40.1 (20161225.0304)
 -->
<!-- Title: imdf_net_1585315544.5070493 Pages: 1 -->
<svg width="787pt" height="595pt"
 viewBox="0.00 0.00 787.00 595.00" xmlns="http://www.w3.org/2000/svg" xmlns:xlink="http://www.w3.org/1999/xlink">
<g id="graph0" class="graph" transform="scale(1 1) rotate(0) translate(4 591)">
<title>imdf_net_1585315544.5070493</title>
<!-- 140178110582232 -->
<g id="node1" class="node">
<title>140178110582232</title>
<polygon fill="none" stroke="#000000" points="116,-281 0,-281 0,-245 116,-245 116,-281"/>
<text text-anchor="middle" x="58" y="-259.3" font-family="Times,serif" font-size="14.00" fill="#000000">AccountDataBean</text>
</g>
<!-- 140178110582456 -->
<g id="node21" class="node">
<title>140178110582456</title>
<ellipse fill="none" stroke="#000000" cx="179" cy="-324" rx="27" ry="27"/>
<text text-anchor="middle" x="179" y="-320.3" font-family="Times,serif" font-size="14.00" fill="#000000">p_6</text>
</g>
<!-- 140178110582232&#45;&gt;140178110582456 -->
<g id="edge2" class="edge">
<title>140178110582232&#45;&gt;140178110582456</title>
<path fill="none" stroke="#000000" d="M93.9764,-281.1369C110.3984,-289.4157 129.7221,-299.1574 145.7944,-307.26"/>
<polygon fill="#000000" stroke="#000000" points="144.3302,-310.4414 154.8353,-311.8178 147.4814,-304.1908 144.3302,-310.4414"/>
</g>
<!-- 140178110582176 -->
<g id="node2" class="node">
<title>140178110582176</title>
<polygon fill="none" stroke="#000000" points="779,-530 627,-530 627,-494 779,-494 779,-530"/>
<text text-anchor="middle" x="703" y="-508.3" font-family="Times,serif" font-size="14.00" fill="#000000">AccountProfileDataBean</text>
</g>
<!-- 140178110582176&#45;&gt;140178110582456 -->
<g id="edge5" class="edge">
<title>140178110582176&#45;&gt;140178110582456</title>
<path fill="none" stroke="#000000" d="M626.7844,-523.4728C579.3492,-529.6433 517.011,-536 461.5,-536 359,-536 359,-536 359,-536 303.7511,-536 281.2666,-532.8662 242,-494 205.7052,-458.0753 190.1106,-399.4031 183.5563,-361.2468"/>
<polygon fill="#000000" stroke="#000000" points="186.9643,-360.3912 181.9376,-351.0647 180.0511,-361.4903 186.9643,-360.3912"/>
</g>
<!-- 140178110581112 -->
<g id="node3" class="node">
<title>140178110581112</title>
<polygon fill="none" stroke="#000000" points="749.5,-470 656.5,-470 656.5,-434 749.5,-434 749.5,-470"/>
<text text-anchor="middle" x="703" y="-448.3" font-family="Times,serif" font-size="14.00" fill="#000000">FinancialUtils</text>
</g>
<!-- 140178110581112&#45;&gt;140178110582456 -->
<g id="edge1" class="edge">
<title>140178110581112&#45;&gt;140178110582456</title>
<path fill="none" stroke="#000000" d="M656.3006,-466.3025C608.0191,-479.8059 530.2162,-498 461.5,-498 359,-498 359,-498 359,-498 305.0902,-498 282.8796,-501.1444 242,-466 210.4434,-438.8707 194.0401,-392.8576 185.9874,-360.5804"/>
<polygon fill="#000000" stroke="#000000" points="189.3442,-359.5643 183.6577,-350.6249 182.5284,-361.1593 189.3442,-359.5643"/>
</g>
<!-- 140178110580048 -->
<g id="node4" class="node">
<title>140178110580048</title>
<polygon fill="none" stroke="#000000" points="730,-404 676,-404 676,-368 730,-368 730,-404"/>
<text text-anchor="middle" x="703" y="-382.3" font-family="Times,serif" font-size="14.00" fill="#000000">Log</text>
</g>
<!-- 140178110580048&#45;&gt;140178110582456 -->
<g id="edge6" class="edge">
<title>140178110580048&#45;&gt;140178110582456</title>
<path fill="none" stroke="#000000" d="M675.8376,-386.3715C631.14,-386.9499 539.2774,-388 461.5,-388 359,-388 359,-388 359,-388 304.6542,-388 246.1347,-361.78 211.0492,-342.9052"/>
<polygon fill="#000000" stroke="#000000" points="212.6723,-339.8035 202.2244,-338.0451 209.2954,-345.9351 212.6723,-339.8035"/>
</g>
<!-- 140178110581000 -->
<g id="node5" class="node">
<title>140178110581000</title>
<polygon fill="none" stroke="#000000" points="758,-347 648,-347 648,-311 758,-311 758,-347"/>
<text text-anchor="middle" x="703" y="-325.3" font-family="Times,serif" font-size="14.00" fill="#000000">OrdersAlertFilter</text>
</g>
<!-- 140178110581000&#45;&gt;140178110582456 -->
<g id="edge9" class="edge">
<title>140178110581000&#45;&gt;140178110582456</title>
<path fill="none" stroke="#000000" d="M647.9669,-336.5222C599.0948,-342.5479 525.6801,-350 461.5,-350 359,-350 359,-350 359,-350 308.8529,-350 251.6471,-339.9927 215.4424,-332.3952"/>
<polygon fill="#000000" stroke="#000000" points="215.8741,-328.9081 205.3617,-330.2276 214.4025,-335.7517 215.8741,-328.9081"/>
</g>
<!-- 140178110579152 -->
<g id="node6" class="node">
<title>140178110579152</title>
<polygon fill="none" stroke="#000000" points="488.5,-461 434.5,-461 434.5,-425 488.5,-425 488.5,-461"/>
<text text-anchor="middle" x="461.5" y="-439.3" font-family="Times,serif" font-size="14.00" fill="#000000">Root</text>
</g>
<!-- 140178110557208 -->
<g id="node23" class="node">
<title>140178110557208</title>
<ellipse fill="#ffa500" stroke="#000000" cx="564" cy="-443" rx="27" ry="27"/>
</g>
<!-- 140178110579152&#45;&gt;140178110557208 -->
<g id="edge7" class="edge">
<title>140178110579152&#45;&gt;140178110557208</title>
<path fill="none" stroke="#000000" d="M488.699,-443C500.2828,-443 513.9866,-443 526.5073,-443"/>
<polygon fill="#000000" stroke="#000000" points="526.6739,-446.5001 536.6739,-443 526.6739,-439.5001 526.6739,-446.5001"/>
</g>
<!-- 140178110581336 -->
<g id="node7" class="node">
<title>140178110581336</title>
<polygon fill="none" stroke="#000000" points="745.5,-287 660.5,-287 660.5,-251 745.5,-251 745.5,-287"/>
<text text-anchor="middle" x="703" y="-265.3" font-family="Times,serif" font-size="14.00" fill="#000000">TradeAction</text>
</g>
<!-- 140178110581336&#45;&gt;140178110582456 -->
<g id="edge4" class="edge">
<title>140178110581336&#45;&gt;140178110582456</title>
<path fill="none" stroke="#000000" d="M660.4337,-260.7673C612.3321,-252.1937 531.599,-240 461.5,-240 359,-240 359,-240 359,-240 305.0902,-240 289.8549,-247.177 242,-272 229.0587,-278.7128 216.3523,-288.4192 205.7788,-297.6326"/>
<polygon fill="#000000" stroke="#000000" points="203.2205,-295.2268 198.1404,-304.5243 207.9097,-300.424 203.2205,-295.2268"/>
</g>
<!-- 140178110580384 -->
<g id="node8" class="node">
<title>140178110580384</title>
<polygon fill="none" stroke="#000000" points="758,-36 648,-36 648,0 758,0 758,-36"/>
<text text-anchor="middle" x="703" y="-14.3" font-family="Times,serif" font-size="14.00" fill="#000000">TradeAppServlet</text>
</g>
<!-- 140178110580384&#45;&gt;140178110582456 -->
<g id="edge3" class="edge">
<title>140178110580384&#45;&gt;140178110582456</title>
<path fill="none" stroke="#000000" d="M647.8497,-17.2836C598.9015,-16.7097 525.441,-16 461.5,-16 359,-16 359,-16 359,-16 304.4618,-16 279.034,-12.9637 242,-53 233.989,-61.6605 201.5065,-214.9698 186.5748,-287.078"/>
<polygon fill="#000000" stroke="#000000" points="183.0998,-286.5995 184.5041,-297.1008 189.955,-288.0158 183.0998,-286.5995"/>
</g>
<!-- 140178110580664 -->
<g id="node9" class="node">
<title>140178110580664</title>
<polygon fill="none" stroke="#000000" points="746,-220 660,-220 660,-184 746,-184 746,-220"/>
<text text-anchor="middle" x="703" y="-198.3" font-family="Times,serif" font-size="14.00" fill="#000000">TradeConfig</text>
</g>
<!-- 140178110580664&#45;&gt;140178110582456 -->
<g id="edge8" class="edge">
<title>140178110580664&#45;&gt;140178110582456</title>
<path fill="none" stroke="#000000" d="M671.8486,-183.8357C617.0963,-152.5927 505.2679,-92 461.5,-92 359,-92 359,-92 359,-92 305.5317,-92 281.0097,-83.4335 242,-120 217.5974,-142.8742 196.2916,-234.8783 185.8436,-287.1775"/>
<polygon fill="#000000" stroke="#000000" points="182.3925,-286.5889 183.9011,-297.0757 189.2615,-287.9369 182.3925,-286.5889"/>
</g>
<!-- 140178110580328 -->
<g id="node10" class="node">
<title>140178110580328</title>
<polygon fill="none" stroke="#000000" points="757,-141 649,-141 649,-105 757,-105 757,-141"/>
<text text-anchor="middle" x="703" y="-119.3" font-family="Times,serif" font-size="14.00" fill="#000000">TradeSLSBBean</text>
</g>
<!-- 140178110580328&#45;&gt;140178110582456 -->
<g id="edge10" class="edge">
<title>140178110580328&#45;&gt;140178110582456</title>
<path fill="none" stroke="#000000" d="M664.6457,-104.8711C617.8013,-84.4276 535.6282,-54 461.5,-54 359,-54 359,-54 359,-54 304.8489,-54 279.8682,-49.2916 242,-88 227.9542,-102.3574 200.194,-224.7159 186.7107,-287.3596"/>
<polygon fill="#000000" stroke="#000000" points="183.267,-286.7265 184.5964,-297.2376 190.112,-288.1916 183.267,-286.7265"/>
</g>
<!-- 140178110580832 -->
<g id="node11" class="node">
<title>140178110580832</title>
<polygon fill="none" stroke="#000000" points="764.5,-587 641.5,-587 641.5,-551 764.5,-551 764.5,-587"/>
<text text-anchor="middle" x="703" y="-565.3" font-family="Times,serif" font-size="14.00" fill="#000000">TradeServletAction</text>
</g>
<!-- 140178110580832&#45;&gt;140178110582456 -->
<g id="edge11" class="edge">
<title>140178110580832&#45;&gt;140178110582456</title>
<path fill="none" stroke="#000000" d="M641.4659,-570.9761C592.6661,-572.3737 522.7267,-574 461.5,-574 359,-574 359,-574 359,-574 302.6238,-574 279.9705,-566.6715 242,-525 219.8788,-500.7226 197.7841,-411.5564 186.5696,-360.5137"/>
<polygon fill="#000000" stroke="#000000" points="189.9472,-359.5735 184.4103,-350.5406 183.1058,-361.0548 189.9472,-359.5735"/>
</g>
<!-- 140178110581504 -->
<g id="node12" class="node">
<title>140178110581504</title>
<polygon fill="none" stroke="#000000" points="501,-170 422,-170 422,-134 501,-134 501,-170"/>
<text text-anchor="middle" x="461.5" y="-148.3" font-family="Times,serif" font-size="14.00" fill="#000000">init_loop_2</text>
</g>
<!-- 140178110555584 -->
<g id="node20" class="node">
<title>140178110555584</title>
<ellipse fill="none" stroke="#000000" cx="564" cy="-295" rx="27" ry="27"/>
<text text-anchor="middle" x="564" y="-291.3" font-family="Times,serif" font-size="14.00" fill="#000000">p_5</text>
</g>
<!-- 140178110581504&#45;&gt;140178110555584 -->
<g id="edge12" class="edge">
<title>140178110581504&#45;&gt;140178110555584</title>
<path fill="none" stroke="#000000" d="M483.9683,-170.3459C489.8626,-175.7096 495.9706,-181.8051 501,-188 519.4277,-210.6983 536.0124,-239.3781 547.5346,-261.3308"/>
<polygon fill="#000000" stroke="#000000" points="544.4602,-263.0056 552.1534,-270.2902 550.6821,-259.798 544.4602,-263.0056"/>
</g>
<!-- 140178110581560 -->
<g id="node13" class="node">
<title>140178110581560</title>
<polygon fill="none" stroke="#000000" points="488.5,-313 434.5,-313 434.5,-277 488.5,-277 488.5,-313"/>
<text text-anchor="middle" x="461.5" y="-291.3" font-family="Times,serif" font-size="14.00" fill="#000000">loop_3</text>
</g>
<!-- 140178110581560&#45;&gt;140178110555584 -->
<g id="edge13" class="edge">
<title>140178110581560&#45;&gt;140178110555584</title>
<path fill="none" stroke="#000000" d="M488.699,-295C500.2828,-295 513.9866,-295 526.5073,-295"/>
<polygon fill="#000000" stroke="#000000" points="526.6739,-298.5001 536.6739,-295 526.6739,-291.5001 526.6739,-298.5001"/>
</g>
<!-- 140178110579880 -->
<g id="node14" class="node">
<title>140178110579880</title>
<polygon fill="none" stroke="#000000" points="296,-317 242,-317 242,-281 296,-281 296,-317"/>
<text text-anchor="middle" x="269" y="-295.3" font-family="Times,serif" font-size="14.00" fill="#000000">skip_4</text>
</g>
<!-- 140178110581784 -->
<g id="node22" class="node">
<title>140178110581784</title>
<ellipse fill="none" stroke="#000000" cx="359" cy="-295" rx="27" ry="27"/>
<text text-anchor="middle" x="359" y="-291.3" font-family="Times,serif" font-size="14.00" fill="#000000">p_7</text>
</g>
<!-- 140178110579880&#45;&gt;140178110581784 -->
<g id="edge29" class="edge">
<title>140178110579880&#45;&gt;140178110581784</title>
<path fill="none" stroke="#000000" d="M296.003,-297.7999C304.1013,-297.4399 313.1306,-297.0386 321.7665,-296.6548"/>
<polygon fill="#000000" stroke="#000000" points="322.1814,-300.1399 332.0161,-296.1993 321.8705,-293.1468 322.1814,-300.1399"/>
</g>
<!-- 140178110579488 -->
<g id="node15" class="node">
<title>140178110579488</title>
<polygon fill="none" stroke="#000000" points="296,-457 242,-457 242,-421 296,-421 296,-457"/>
<text text-anchor="middle" x="269" y="-435.3" font-family="Times,serif" font-size="14.00" fill="#000000">skip_5</text>
</g>
<!-- 140178110555640 -->
<g id="node19" class="node">
<title>140178110555640</title>
<ellipse fill="none" stroke="#000000" cx="359" cy="-443" rx="27" ry="27"/>
<text text-anchor="middle" x="359" y="-439.3" font-family="Times,serif" font-size="14.00" fill="#000000">p_4</text>
</g>
<!-- 140178110579488&#45;&gt;140178110555640 -->
<g id="edge30" class="edge">
<title>140178110579488&#45;&gt;140178110555640</title>
<path fill="none" stroke="#000000" d="M296.003,-440.2001C304.1013,-440.5601 313.1306,-440.9614 321.7665,-441.3452"/>
<polygon fill="#000000" stroke="#000000" points="321.8705,-444.8532 332.0161,-441.8007 322.1814,-437.8601 321.8705,-444.8532"/>
</g>
<!-- 140178110556368 -->
<g id="node16" class="node">
<title>140178110556368</title>
<polygon fill="none" stroke="#000000" points="296,-165 242,-165 242,-129 296,-129 296,-165"/>
<text text-anchor="middle" x="269" y="-143.3" font-family="Times,serif" font-size="14.00" fill="#000000">tau_1</text>
</g>
<!-- 140178110558048 -->
<g id="node18" class="node">
<title>140178110558048</title>
<ellipse fill="none" stroke="#000000" cx="359" cy="-147" rx="27" ry="27"/>
<text text-anchor="middle" x="359" y="-143.3" font-family="Times,serif" font-size="14.00" fill="#000000">p_3</text>
</g>
<!-- 140178110556368&#45;&gt;140178110558048 -->
<g id="edge32" class="edge">
<title>140178110556368&#45;&gt;140178110558048</title>
<path fill="none" stroke="#000000" d="M296.003,-147C304.0277,-147 312.9665,-147 321.5309,-147"/>
<polygon fill="#000000" stroke="#000000" points="321.7051,-150.5001 331.705,-147 321.705,-143.5001 321.7051,-150.5001"/>
</g>
<!-- 140178110558104 -->
<g id="node17" class="node">
<title>140178110558104</title>
<ellipse fill="#00ff00" stroke="#000000" cx="179" cy="-147" rx="27" ry="27"/>
<text text-anchor="middle" x="179" y="-143.3" font-family="Times,serif" font-size="14.00" fill="#000000">1</text>
</g>
<!-- 140178110558104&#45;&gt;140178110556368 -->
<g id="edge31" class="edge">
<title>140178110558104&#45;&gt;140178110556368</title>
<path fill="none" stroke="#000000" d="M206.003,-147C214.0277,-147 222.9665,-147 231.5309,-147"/>
<polygon fill="#000000" stroke="#000000" points="231.7051,-150.5001 241.705,-147 231.705,-143.5001 231.7051,-150.5001"/>
</g>
<!-- 140178110558048&#45;&gt;140178110581504 -->
<g id="edge14" class="edge">
<title>140178110558048&#45;&gt;140178110581504</title>
<path fill="none" stroke="#000000" d="M386.199,-148.3268C394.0426,-148.7094 402.8582,-149.1394 411.6204,-149.5668"/>
<polygon fill="#000000" stroke="#000000" points="411.6617,-153.0729 421.8204,-150.0644 412.0028,-146.0812 411.6617,-153.0729"/>
</g>
<!-- 140178110555640&#45;&gt;140178110579152 -->
<g id="edge15" class="edge">
<title>140178110555640&#45;&gt;140178110579152</title>
<path fill="none" stroke="#000000" d="M386.199,-443C397.7828,-443 411.4866,-443 424.0073,-443"/>
<polygon fill="#000000" stroke="#000000" points="424.1739,-446.5001 434.1739,-443 424.1739,-439.5001 424.1739,-446.5001"/>
</g>
<!-- 140178110555584&#45;&gt;140178110582232 -->
<g id="edge17" class="edge">
<title>140178110555584&#45;&gt;140178110582232</title>
<path fill="none" stroke="#000000" d="M542.7048,-277.9424C506.9712,-251.0941 431.6914,-202 359,-202 269,-202 269,-202 269,-202 211.1596,-202 147.7848,-223.4157 105.7405,-240.8688"/>
<polygon fill="#000000" stroke="#000000" points="104.1577,-237.7382 96.3164,-244.8631 106.8894,-244.1832 104.1577,-237.7382"/>
</g>
<!-- 140178110555584&#45;&gt;140178110582176 -->
<g id="edge20" class="edge">
<title>140178110555584&#45;&gt;140178110582176</title>
<path fill="none" stroke="#000000" d="M570.2393,-321.3956C581.3316,-366.4376 605.3552,-455.556 627,-479 630.2445,-482.5142 633.9282,-485.6722 637.8824,-488.5072"/>
<polygon fill="#000000" stroke="#000000" points="636.0098,-491.4641 646.3246,-493.8837 639.77,-485.5598 636.0098,-491.4641"/>
</g>
<!-- 140178110555584&#45;&gt;140178110581112 -->
<g id="edge16" class="edge">
<title>140178110555584&#45;&gt;140178110581112</title>
<path fill="none" stroke="#000000" d="M572.5773,-320.856C582.301,-346.8666 600.3476,-386.778 627,-413 633.0787,-418.9805 640.2608,-424.242 647.7441,-428.8057"/>
<polygon fill="#000000" stroke="#000000" points="646.1948,-431.9508 656.6191,-433.8439 649.6506,-425.8633 646.1948,-431.9508"/>
</g>
<!-- 140178110555584&#45;&gt;140178110580048 -->
<g id="edge21" class="edge">
<title>140178110555584&#45;&gt;140178110580048</title>
<path fill="none" stroke="#000000" d="M581.6042,-315.8257C593.396,-328.7512 609.8535,-344.9462 627,-356 638.9709,-363.7172 653.2426,-369.9958 666.1689,-374.7771"/>
<polygon fill="#000000" stroke="#000000" points="665.1362,-378.124 675.731,-378.1405 667.459,-371.5205 665.1362,-378.124"/>
</g>
<!-- 140178110555584&#45;&gt;140178110581000 -->
<g id="edge23" class="edge">
<title>140178110555584&#45;&gt;140178110581000</title>
<path fill="none" stroke="#000000" d="M590.472,-301.4752C604.0362,-304.793 621.2055,-308.9927 638.0204,-313.1057"/>
<polygon fill="#000000" stroke="#000000" points="637.3046,-316.5337 647.8498,-315.51 638.9678,-309.7342 637.3046,-316.5337"/>
</g>
<!-- 140178110555584&#45;&gt;140178110581336 -->
<g id="edge19" class="edge">
<title>140178110555584&#45;&gt;140178110581336</title>
<path fill="none" stroke="#000000" d="M590.8006,-289.9869C607.6726,-286.831 630.0261,-282.6498 650.3379,-278.8505"/>
<polygon fill="#000000" stroke="#000000" points="651.2358,-282.2433 660.4218,-276.9643 649.9487,-275.3626 651.2358,-282.2433"/>
</g>
<!-- 140178110555584&#45;&gt;140178110580384 -->
<g id="edge18" class="edge">
<title>140178110555584&#45;&gt;140178110580384</title>
<path fill="none" stroke="#000000" d="M568.3774,-268.2575C575.7634,-228.4526 593.3047,-152.2753 627,-96 638.9929,-75.9704 657.0976,-57.1164 672.6281,-42.9638"/>
<polygon fill="#000000" stroke="#000000" points="675.3096,-45.2638 680.469,-36.01 670.665,-40.0266 675.3096,-45.2638"/>
</g>
<!-- 140178110555584&#45;&gt;140178110580664 -->
<g id="edge22" class="edge">
<title>140178110555584&#45;&gt;140178110580664</title>
<path fill="none" stroke="#000000" d="M583.8337,-276.4064C595.8214,-265.6655 611.6989,-252.288 627,-242 635.908,-236.0106 645.8161,-230.2264 655.4575,-225.0058"/>
<polygon fill="#000000" stroke="#000000" points="657.3728,-227.9523 664.5782,-220.1849 654.1016,-221.7637 657.3728,-227.9523"/>
</g>
<!-- 140178110555584&#45;&gt;140178110580328 -->
<g id="edge24" class="edge">
<title>140178110555584&#45;&gt;140178110580328</title>
<path fill="none" stroke="#000000" d="M573.1852,-269.3818C583.393,-243.4687 601.8189,-203.3028 627,-175 636.5774,-164.2353 648.8308,-154.6051 660.6889,-146.6449"/>
<polygon fill="#000000" stroke="#000000" points="662.7016,-149.5117 669.2097,-141.1514 658.9085,-143.6284 662.7016,-149.5117"/>
</g>
<!-- 140178110555584&#45;&gt;140178110580832 -->
<g id="edge25" class="edge">
<title>140178110555584&#45;&gt;140178110580832</title>
<path fill="none" stroke="#000000" d="M570.5102,-321.5097C585.8636,-383.8507 623.3242,-534.8406 627,-539 628.9374,-541.1923 631.056,-543.2261 633.3139,-545.1126"/>
<polygon fill="#000000" stroke="#000000" points="631.3049,-547.979 641.467,-550.9762 635.392,-542.296 631.3049,-547.979"/>
</g>
<!-- 140178110582456&#45;&gt;140178110579880 -->
<g id="edge26" class="edge">
<title>140178110582456&#45;&gt;140178110579880</title>
<path fill="none" stroke="#000000" d="M205.0317,-316.769C213.4054,-314.4429 222.8517,-311.819 231.8638,-309.3156"/>
<polygon fill="#000000" stroke="#000000" points="233.0754,-312.6117 241.7738,-306.5628 231.2018,-305.867 233.0754,-312.6117"/>
</g>
<!-- 140178110582456&#45;&gt;140178110579488 -->
<g id="edge27" class="edge">
<title>140178110582456&#45;&gt;140178110579488</title>
<path fill="none" stroke="#000000" d="M195.7174,-345.3611C210.6401,-364.4291 232.5411,-392.4137 248.5129,-412.822"/>
<polygon fill="#000000" stroke="#000000" points="245.8237,-415.0649 254.7431,-420.7829 251.3363,-410.7507 245.8237,-415.0649"/>
</g>
<!-- 140178110581784&#45;&gt;140178110581560 -->
<g id="edge28" class="edge">
<title>140178110581784&#45;&gt;140178110581560</title>
<path fill="none" stroke="#000000" d="M386.199,-295C397.7828,-295 411.4866,-295 424.0073,-295"/>
<polygon fill="#000000" stroke="#000000" points="424.1739,-298.5001 434.1739,-295 424.1739,-291.5001 424.1739,-298.5001"/>
</g>
</g>
</svg>
